%TF.GenerationSoftware,KiCad,Pcbnew,10.0.4-10.0.4~ubuntu24.04.1*%
%TF.CreationDate,2026-08-17T14:25:24-07:00*%
%TF.ProjectId,usb_controlled_debug_hub,7573625f-636f-46e7-9472-6f6c6c65645f,rev?*%
%TF.SameCoordinates,Original*%
%TF.FileFunction,Soldermask,Bot*%
%TF.FilePolarity,Negative*%
%FSLAX46Y46*%
G04 Gerber Fmt 4.6, Leading zero omitted, Abs format (unit mm)*
G04 Created by KiCad (PCBNEW 10.0.4-10.0.4~ubuntu24.04.1) date 2026-08-17 14:25:24*
%MOMM*%
%LPD*%
G01*
G04 APERTURE LIST*
G04 Aperture macros list*
%AMRoundRect*
0 Rectangle with rounded corners*
0 $1 Rounding radius*
0 $2 $3 $4 $5 $6 $7 $8 $9 X,Y pos of 4 corners*
0 Add a 4 corners polygon primitive as box body*
4,1,4,$2,$3,$4,$5,$6,$7,$8,$9,$2,$3,0*
0 Add four circle primitives for the rounded corners*
1,1,$1+$1,$2,$3*
1,1,$1+$1,$4,$5*
1,1,$1+$1,$6,$7*
1,1,$1+$1,$8,$9*
0 Add four rect primitives between the rounded corners*
20,1,$1+$1,$2,$3,$4,$5,0*
20,1,$1+$1,$4,$5,$6,$7,0*
20,1,$1+$1,$6,$7,$8,$9,0*
20,1,$1+$1,$8,$9,$2,$3,0*%
G04 Aperture macros list end*
%ADD10R,1.700000X1.700000*%
%ADD11C,1.700000*%
%ADD12C,4.000000*%
%ADD13C,3.200000*%
%ADD14C,2.780000*%
%ADD15R,2.200000X2.200000*%
%ADD16C,2.200000*%
%ADD17O,3.500000X3.500000*%
%ADD18RoundRect,0.150000X-0.150000X0.587500X-0.150000X-0.587500X0.150000X-0.587500X0.150000X0.587500X0*%
%ADD19RoundRect,0.087500X0.662500X0.087500X-0.662500X0.087500X-0.662500X-0.087500X0.662500X-0.087500X0*%
%ADD20RoundRect,0.087500X-0.662500X-0.087500X0.662500X-0.087500X0.662500X0.087500X-0.662500X0.087500X0*%
%ADD21RoundRect,0.150000X0.150000X-0.587500X0.150000X0.587500X-0.150000X0.587500X-0.150000X-0.587500X0*%
%ADD22C,0.350000*%
G04 APERTURE END LIST*
D10*
%TO.C,J_PORT1*%
X55000000Y-33700000D03*
D11*
X52500000Y-33700000D03*
X50500000Y-33700000D03*
X48000000Y-33700000D03*
D12*
X58119000Y-31100000D03*
X44879000Y-31100000D03*
%TD*%
D13*
%TO.C,H3*%
X24000000Y-106000000D03*
%TD*%
D10*
%TO.C,J_PORT3*%
X111000000Y-33700000D03*
D11*
X108500000Y-33700000D03*
X106500000Y-33700000D03*
X104000000Y-33700000D03*
D12*
X114119000Y-31100000D03*
X100879000Y-31100000D03*
%TD*%
D14*
%TO.C,F_IN*%
X37000000Y-99000000D03*
X37000000Y-102400000D03*
X46920000Y-99000000D03*
X46920000Y-102400000D03*
%TD*%
D13*
%TO.C,H1*%
X24000000Y-24000000D03*
%TD*%
%TO.C,H4*%
X146000000Y-106000000D03*
%TD*%
D15*
%TO.C,J_PWR*%
X25500000Y-98000000D03*
D16*
X25500000Y-93000000D03*
%TD*%
D13*
%TO.C,H2*%
X146000000Y-44000000D03*
%TD*%
D10*
%TO.C,J_PORT4*%
X139000000Y-33700000D03*
D11*
X136500000Y-33700000D03*
X134500000Y-33700000D03*
X132000000Y-33700000D03*
D12*
X142119000Y-31100000D03*
X128879000Y-31100000D03*
%TD*%
D10*
%TO.C,J_UP*%
X34200000Y-58250000D03*
D11*
X34200000Y-55750000D03*
X32200000Y-55750000D03*
X32200000Y-58250000D03*
D17*
X29490000Y-50980000D03*
X29490000Y-63020000D03*
%TD*%
D10*
%TO.C,J_PORT2*%
X83000000Y-33700000D03*
D11*
X80500000Y-33700000D03*
X78500000Y-33700000D03*
X76000000Y-33700000D03*
D12*
X86119000Y-31100000D03*
X72879000Y-31100000D03*
%TD*%
D18*
%TO.C,U_ESD1*%
X50550000Y-35462500D03*
X52450000Y-35462500D03*
X51500000Y-37337500D03*
%TD*%
%TO.C,U_ESD3*%
X106550000Y-35462500D03*
X108450000Y-35462500D03*
X107500000Y-37337500D03*
%TD*%
D19*
%TO.C,U_DATA2*%
X84100000Y-43500000D03*
X84100000Y-44000000D03*
X84100000Y-44500000D03*
X84100000Y-45000000D03*
X84100000Y-45500000D03*
X79900000Y-45500000D03*
X79900000Y-45000000D03*
X79900000Y-44500000D03*
X79900000Y-44000000D03*
X79900000Y-43500000D03*
%TD*%
D20*
%TO.C,U_DATA4*%
X123900000Y-45500000D03*
X123900000Y-45000000D03*
X123900000Y-44500000D03*
X123900000Y-44000000D03*
X123900000Y-43500000D03*
X128100000Y-43500000D03*
X128100000Y-44000000D03*
X128100000Y-44500000D03*
X128100000Y-45000000D03*
X128100000Y-45500000D03*
%TD*%
D19*
%TO.C,U_DATA1*%
X59100000Y-43500000D03*
X59100000Y-44000000D03*
X59100000Y-44500000D03*
X59100000Y-45000000D03*
X59100000Y-45500000D03*
X54900000Y-45500000D03*
X54900000Y-45000000D03*
X54900000Y-44500000D03*
X54900000Y-44000000D03*
X54900000Y-43500000D03*
%TD*%
D18*
%TO.C,U_ESD4*%
X134550000Y-35462500D03*
X136450000Y-35462500D03*
X135500000Y-37337500D03*
%TD*%
D21*
%TO.C,U_ESD_UP*%
X34150000Y-53787500D03*
X32250000Y-53787500D03*
X33200000Y-51912500D03*
%TD*%
D20*
%TO.C,U_DATA3*%
X102900000Y-45500000D03*
X102900000Y-45000000D03*
X102900000Y-44500000D03*
X102900000Y-44000000D03*
X102900000Y-43500000D03*
X107100000Y-43500000D03*
X107100000Y-44000000D03*
X107100000Y-44500000D03*
X107100000Y-45000000D03*
X107100000Y-45500000D03*
%TD*%
D18*
%TO.C,U_ESD2*%
X78550000Y-35462500D03*
X80450000Y-35462500D03*
X79500000Y-37337500D03*
%TD*%
D22*
X55000000Y-33700000D03*
X52500000Y-33700000D03*
X50500000Y-33700000D03*
X48000000Y-33700000D03*
X58119000Y-31100000D03*
X44879000Y-31100000D03*
X24000000Y-106000000D03*
X111000000Y-33700000D03*
X108500000Y-33700000D03*
X106500000Y-33700000D03*
X104000000Y-33700000D03*
X114119000Y-31100000D03*
X100879000Y-31100000D03*
X37000000Y-99000000D03*
X37000000Y-102400000D03*
X46920000Y-99000000D03*
X46920000Y-102400000D03*
X24000000Y-24000000D03*
X146000000Y-106000000D03*
X25500000Y-98000000D03*
X25500000Y-93000000D03*
X146000000Y-44000000D03*
X139000000Y-33700000D03*
X136500000Y-33700000D03*
X134500000Y-33700000D03*
X132000000Y-33700000D03*
X142119000Y-31100000D03*
X128879000Y-31100000D03*
X34200000Y-58250000D03*
X34200000Y-55750000D03*
X32200000Y-55750000D03*
X32200000Y-58250000D03*
X29490000Y-50980000D03*
X29490000Y-63020000D03*
X83000000Y-33700000D03*
X80500000Y-33700000D03*
X78500000Y-33700000D03*
X76000000Y-33700000D03*
X86119000Y-31100000D03*
X72879000Y-31100000D03*
M02*
