%TF.GenerationSoftware,KiCad,Pcbnew,10.0.4-10.0.4~ubuntu24.04.1*%
%TF.CreationDate,2026-07-18T23:46:33-07:00*%
%TF.ProjectId,crow_array_central,63726f77-5f61-4727-9261-795f63656e74,rev?*%
%TF.SameCoordinates,Original*%
%TF.FileFunction,Soldermask,Bot*%
%TF.FilePolarity,Negative*%
%FSLAX46Y46*%
G04 Gerber Fmt 4.6, Leading zero omitted, Abs format (unit mm)*
G04 Created by KiCad (PCBNEW 10.0.4-10.0.4~ubuntu24.04.1) date 2026-07-18 23:46:33*
%MOMM*%
%LPD*%
G01*
G04 APERTURE LIST*
G04 Aperture macros list*
%AMRoundRect*
0 Rectangle with rounded corners*
0 $1 Rounding radius*
0 $2 $3 $4 $5 $6 $7 $8 $9 X,Y pos of 4 corners*
0 Add a 4 corners polygon primitive as box body*
4,1,4,$2,$3,$4,$5,$6,$7,$8,$9,$2,$3,0*
0 Add four circle primitives for the rounded corners*
1,1,$1+$1,$2,$3*
1,1,$1+$1,$4,$5*
1,1,$1+$1,$6,$7*
1,1,$1+$1,$8,$9*
0 Add four rect primitives between the rounded corners*
20,1,$1+$1,$2,$3,$4,$5,0*
20,1,$1+$1,$4,$5,$6,$7,0*
20,1,$1+$1,$6,$7,$8,$9,0*
20,1,$1+$1,$8,$9,$2,$3,0*%
G04 Aperture macros list end*
%ADD10C,3.250000*%
%ADD11R,1.500000X1.500000*%
%ADD12C,1.500000*%
%ADD13C,2.300000*%
%ADD14C,0.650000*%
%ADD15O,1.000000X2.100000*%
%ADD16O,1.000000X1.800000*%
%ADD17C,3.200000*%
%ADD18R,1.700000X1.700000*%
%ADD19C,1.700000*%
%ADD20RoundRect,0.250001X-0.949999X-0.949999X0.949999X-0.949999X0.949999X0.949999X-0.949999X0.949999X0*%
%ADD21C,2.400000*%
%ADD22C,0.600000*%
%ADD23R,3.500000X3.500000*%
%ADD24RoundRect,0.750000X-0.750000X-1.000000X0.750000X-1.000000X0.750000X1.000000X-0.750000X1.000000X0*%
%ADD25RoundRect,0.875000X-0.875000X-0.875000X0.875000X-0.875000X0.875000X0.875000X-0.875000X0.875000X0*%
%ADD26C,0.350000*%
%ADD27O,0.600000X1.700000*%
%ADD28O,0.600000X1.400000*%
%ADD29C,0.300000*%
%ADD30O,1.000000X3.000000*%
%ADD31O,3.000000X1.000000*%
G04 APERTURE END LIST*
D10*
%TO.C,J8*%
X161210000Y-19460000D03*
X173910000Y-19460000D03*
D11*
X164000000Y-22000000D03*
D12*
X165016000Y-23780000D03*
X166032000Y-22000000D03*
X167048000Y-23780000D03*
X168064000Y-22000000D03*
X169080000Y-23780000D03*
X170096000Y-22000000D03*
X171112000Y-23780000D03*
X160700000Y-28600000D03*
X162990000Y-28600000D03*
X172130000Y-28600000D03*
X174420000Y-28600000D03*
D13*
X159430000Y-22890000D03*
X175690000Y-22890000D03*
%TD*%
D10*
%TO.C,J3*%
X61210000Y-19460000D03*
X73910000Y-19460000D03*
D11*
X64000000Y-22000000D03*
D12*
X65016000Y-23780000D03*
X66032000Y-22000000D03*
X67048000Y-23780000D03*
X68064000Y-22000000D03*
X69080000Y-23780000D03*
X70096000Y-22000000D03*
X71112000Y-23780000D03*
X60700000Y-28600000D03*
X62990000Y-28600000D03*
X72130000Y-28600000D03*
X74420000Y-28600000D03*
D13*
X59430000Y-22890000D03*
X75690000Y-22890000D03*
%TD*%
D14*
%TO.C,J12*%
X99110000Y-123395000D03*
X104890000Y-123395000D03*
D15*
X97680000Y-122895000D03*
D16*
X97680000Y-127075000D03*
D15*
X106320000Y-122895000D03*
D16*
X106320000Y-127075000D03*
%TD*%
D17*
%TO.C,H2*%
X182200000Y-13800000D03*
%TD*%
%TO.C,H1*%
X13800000Y-13800000D03*
%TD*%
D10*
%TO.C,J6*%
X121210000Y-19460000D03*
X133910000Y-19460000D03*
D11*
X124000000Y-22000000D03*
D12*
X125016000Y-23780000D03*
X126032000Y-22000000D03*
X127048000Y-23780000D03*
X128064000Y-22000000D03*
X129080000Y-23780000D03*
X130096000Y-22000000D03*
X131112000Y-23780000D03*
X120700000Y-28600000D03*
X122990000Y-28600000D03*
X132130000Y-28600000D03*
X134420000Y-28600000D03*
D13*
X119430000Y-22890000D03*
X135690000Y-22890000D03*
%TD*%
D10*
%TO.C,J5*%
X101210000Y-19460000D03*
X113910000Y-19460000D03*
D11*
X104000000Y-22000000D03*
D12*
X105016000Y-23780000D03*
X106032000Y-22000000D03*
X107048000Y-23780000D03*
X108064000Y-22000000D03*
X109080000Y-23780000D03*
X110096000Y-22000000D03*
X111112000Y-23780000D03*
X100700000Y-28600000D03*
X102990000Y-28600000D03*
X112130000Y-28600000D03*
X114420000Y-28600000D03*
D13*
X99430000Y-22890000D03*
X115690000Y-22890000D03*
%TD*%
D10*
%TO.C,J4*%
X81210000Y-19460000D03*
X93910000Y-19460000D03*
D11*
X84000000Y-22000000D03*
D12*
X85016000Y-23780000D03*
X86032000Y-22000000D03*
X87048000Y-23780000D03*
X88064000Y-22000000D03*
X89080000Y-23780000D03*
X90096000Y-22000000D03*
X91112000Y-23780000D03*
X80700000Y-28600000D03*
X82990000Y-28600000D03*
X92130000Y-28600000D03*
X94420000Y-28600000D03*
D13*
X79430000Y-22890000D03*
X95690000Y-22890000D03*
%TD*%
D18*
%TO.C,J14*%
X180000000Y-112000000D03*
D19*
X180000000Y-114540000D03*
%TD*%
D10*
%TO.C,J1*%
X21210000Y-19460000D03*
X33910000Y-19460000D03*
D11*
X24000000Y-22000000D03*
D12*
X25016000Y-23780000D03*
X26032000Y-22000000D03*
X27048000Y-23780000D03*
X28064000Y-22000000D03*
X29080000Y-23780000D03*
X30096000Y-22000000D03*
X31112000Y-23780000D03*
X20700000Y-28600000D03*
X22990000Y-28600000D03*
X32130000Y-28600000D03*
X34420000Y-28600000D03*
D13*
X19430000Y-22890000D03*
X35690000Y-22890000D03*
%TD*%
D17*
%TO.C,H3*%
X15000000Y-127000000D03*
%TD*%
D18*
%TO.C,J10*%
X166000000Y-120000000D03*
D19*
X166000000Y-122540000D03*
%TD*%
D20*
%TO.C,J11*%
X18000000Y-104000000D03*
D21*
X21500000Y-104000000D03*
%TD*%
D22*
%TO.C,U1*%
X98350000Y-98350000D03*
X98350000Y-99450000D03*
X98350000Y-100550000D03*
X98350000Y-101650000D03*
X99450000Y-98350000D03*
X99450000Y-99450000D03*
X99450000Y-100550000D03*
X99450000Y-101650000D03*
X100550000Y-98350000D03*
X100550000Y-99450000D03*
X100550000Y-100550000D03*
X100550000Y-101650000D03*
X101650000Y-98350000D03*
X101650000Y-99450000D03*
X101650000Y-100550000D03*
X101650000Y-101650000D03*
%TD*%
D18*
%TO.C,J13*%
X170000000Y-112000000D03*
D19*
X170000000Y-114540000D03*
%TD*%
D10*
%TO.C,J7*%
X141210000Y-19460000D03*
X153910000Y-19460000D03*
D11*
X144000000Y-22000000D03*
D12*
X145016000Y-23780000D03*
X146032000Y-22000000D03*
X147048000Y-23780000D03*
X148064000Y-22000000D03*
X149080000Y-23780000D03*
X150096000Y-22000000D03*
X151112000Y-23780000D03*
X140700000Y-28600000D03*
X142990000Y-28600000D03*
X152130000Y-28600000D03*
X154420000Y-28600000D03*
D13*
X139430000Y-22890000D03*
X155690000Y-22890000D03*
%TD*%
D17*
%TO.C,H4*%
X181000000Y-127000000D03*
%TD*%
D23*
%TO.C,J9*%
X23000000Y-116000000D03*
D24*
X17000000Y-116000000D03*
D25*
X20000000Y-120700000D03*
%TD*%
D10*
%TO.C,J2*%
X41210000Y-19460000D03*
X53910000Y-19460000D03*
D11*
X44000000Y-22000000D03*
D12*
X45016000Y-23780000D03*
X46032000Y-22000000D03*
X47048000Y-23780000D03*
X48064000Y-22000000D03*
X49080000Y-23780000D03*
X50096000Y-22000000D03*
X51112000Y-23780000D03*
X40700000Y-28600000D03*
X42990000Y-28600000D03*
X52130000Y-28600000D03*
X54420000Y-28600000D03*
D13*
X39430000Y-22890000D03*
X55690000Y-22890000D03*
%TD*%
D26*
X161210000Y-19460000D03*
X173910000Y-19460000D03*
X164000000Y-22000000D03*
X165016000Y-23780000D03*
X166032000Y-22000000D03*
X167048000Y-23780000D03*
X168064000Y-22000000D03*
X169080000Y-23780000D03*
X170096000Y-22000000D03*
X171112000Y-23780000D03*
X160700000Y-28600000D03*
X162990000Y-28600000D03*
X172130000Y-28600000D03*
X174420000Y-28600000D03*
X159430000Y-22890000D03*
X175690000Y-22890000D03*
X61210000Y-19460000D03*
X73910000Y-19460000D03*
X64000000Y-22000000D03*
X65016000Y-23780000D03*
X66032000Y-22000000D03*
X67048000Y-23780000D03*
X68064000Y-22000000D03*
X69080000Y-23780000D03*
X70096000Y-22000000D03*
X71112000Y-23780000D03*
X60700000Y-28600000D03*
X62990000Y-28600000D03*
X72130000Y-28600000D03*
X74420000Y-28600000D03*
X59430000Y-22890000D03*
X75690000Y-22890000D03*
X99110000Y-123395000D03*
X104890000Y-123395000D03*
D27*
X97680000Y-122895000D03*
D28*
X97680000Y-127075000D03*
D27*
X106320000Y-122895000D03*
D28*
X106320000Y-127075000D03*
D26*
X182200000Y-13800000D03*
X13800000Y-13800000D03*
X121210000Y-19460000D03*
X133910000Y-19460000D03*
X124000000Y-22000000D03*
X125016000Y-23780000D03*
X126032000Y-22000000D03*
X127048000Y-23780000D03*
X128064000Y-22000000D03*
X129080000Y-23780000D03*
X130096000Y-22000000D03*
X131112000Y-23780000D03*
X120700000Y-28600000D03*
X122990000Y-28600000D03*
X132130000Y-28600000D03*
X134420000Y-28600000D03*
X119430000Y-22890000D03*
X135690000Y-22890000D03*
X101210000Y-19460000D03*
X113910000Y-19460000D03*
X104000000Y-22000000D03*
X105016000Y-23780000D03*
X106032000Y-22000000D03*
X107048000Y-23780000D03*
X108064000Y-22000000D03*
X109080000Y-23780000D03*
X110096000Y-22000000D03*
X111112000Y-23780000D03*
X100700000Y-28600000D03*
X102990000Y-28600000D03*
X112130000Y-28600000D03*
X114420000Y-28600000D03*
X99430000Y-22890000D03*
X115690000Y-22890000D03*
X81210000Y-19460000D03*
X93910000Y-19460000D03*
X84000000Y-22000000D03*
X85016000Y-23780000D03*
X86032000Y-22000000D03*
X87048000Y-23780000D03*
X88064000Y-22000000D03*
X89080000Y-23780000D03*
X90096000Y-22000000D03*
X91112000Y-23780000D03*
X80700000Y-28600000D03*
X82990000Y-28600000D03*
X92130000Y-28600000D03*
X94420000Y-28600000D03*
X79430000Y-22890000D03*
X95690000Y-22890000D03*
X180000000Y-112000000D03*
X180000000Y-114540000D03*
X21210000Y-19460000D03*
X33910000Y-19460000D03*
X24000000Y-22000000D03*
X25016000Y-23780000D03*
X26032000Y-22000000D03*
X27048000Y-23780000D03*
X28064000Y-22000000D03*
X29080000Y-23780000D03*
X30096000Y-22000000D03*
X31112000Y-23780000D03*
X20700000Y-28600000D03*
X22990000Y-28600000D03*
X32130000Y-28600000D03*
X34420000Y-28600000D03*
X19430000Y-22890000D03*
X35690000Y-22890000D03*
X15000000Y-127000000D03*
X166000000Y-120000000D03*
X166000000Y-122540000D03*
X18000000Y-104000000D03*
X21500000Y-104000000D03*
D29*
X98350000Y-98350000D03*
X98350000Y-99450000D03*
X98350000Y-100550000D03*
X98350000Y-101650000D03*
X99450000Y-98350000D03*
X99450000Y-99450000D03*
X99450000Y-100550000D03*
X99450000Y-101650000D03*
X100550000Y-98350000D03*
X100550000Y-99450000D03*
X100550000Y-100550000D03*
X100550000Y-101650000D03*
X101650000Y-98350000D03*
X101650000Y-99450000D03*
X101650000Y-100550000D03*
X101650000Y-101650000D03*
D26*
X170000000Y-112000000D03*
X170000000Y-114540000D03*
X141210000Y-19460000D03*
X153910000Y-19460000D03*
X144000000Y-22000000D03*
X145016000Y-23780000D03*
X146032000Y-22000000D03*
X147048000Y-23780000D03*
X148064000Y-22000000D03*
X149080000Y-23780000D03*
X150096000Y-22000000D03*
X151112000Y-23780000D03*
X140700000Y-28600000D03*
X142990000Y-28600000D03*
X152130000Y-28600000D03*
X154420000Y-28600000D03*
X139430000Y-22890000D03*
X155690000Y-22890000D03*
X181000000Y-127000000D03*
D30*
X23000000Y-116000000D03*
X17000000Y-116000000D03*
D31*
X20000000Y-120700000D03*
D26*
X41210000Y-19460000D03*
X53910000Y-19460000D03*
X44000000Y-22000000D03*
X45016000Y-23780000D03*
X46032000Y-22000000D03*
X47048000Y-23780000D03*
X48064000Y-22000000D03*
X49080000Y-23780000D03*
X50096000Y-22000000D03*
X51112000Y-23780000D03*
X40700000Y-28600000D03*
X42990000Y-28600000D03*
X52130000Y-28600000D03*
X54420000Y-28600000D03*
X39430000Y-22890000D03*
X55690000Y-22890000D03*
M02*
