M48
; DRILL file KiCad 10.0.4-10.0.4~ubuntu24.04.1 date 2026-07-18T23:46:33
; FORMAT={-:-/ absolute / metric / decimal}
; #@! TF.CreationDate,2026-07-18T23:46:33-07:00
; #@! TF.GenerationSoftware,Kicad,Pcbnew,10.0.4-10.0.4~ubuntu24.04.1
; #@! TF.FileFunction,Plated,1,6,PTH
FMAT,2
METRIC
; #@! TA.AperFunction,Plated,PTH,ViaDrill
T1C0.150
; #@! TA.AperFunction,Plated,PTH,ViaDrill
T2C0.200
; #@! TA.AperFunction,Plated,PTH,ViaDrill
T3C0.290
; #@! TA.AperFunction,Plated,PTH,ViaDrill
T4C0.300
; #@! TA.AperFunction,Plated,PTH,ComponentDrill
T5C0.300
; #@! TA.AperFunction,Plated,PTH,ComponentDrill
T6C0.600
; #@! TA.AperFunction,Plated,PTH,ComponentDrill
T7C0.890
; #@! TA.AperFunction,Plated,PTH,ComponentDrill
T8C1.000
; #@! TA.AperFunction,Plated,PTH,ComponentDrill
T9C1.200
; #@! TA.AperFunction,Plated,PTH,ComponentDrill
T10C1.570
%
G90
G05
T1
X49.0Y-122.0
X71.138Y-61.5
X71.138Y-63.0
X76.862Y-59.0
X76.862Y-63.5
X76.9Y-65.0
X92.337Y-95.8
X92.337Y-96.6
X95.0Y-107.6
X95.4Y-108.412
X96.9Y-110.8
X101.0Y-107.662
X101.75Y-122.32
X103.41Y-118.0
X103.475Y-119.3
X118.0Y-61.5
X119.137Y-59.5
X122.73Y-74.0
X124.862Y-60.5
X124.862Y-59.0
X124.862Y-63.5
T2
X50.712Y-108.0
X121.4Y-115.75
X128.4Y-64.9
T3
X18.89Y-42.0
X101.49Y-118.0
T4
X14.0Y-21.0
X14.0Y-28.0
X14.0Y-35.0
X14.0Y-42.0
X14.0Y-49.0
X14.0Y-56.0
X14.0Y-63.0
X14.0Y-70.0
X14.0Y-77.0
X14.0Y-84.0
X14.0Y-91.0
X14.0Y-98.0
X14.0Y-105.0
X18.32Y-35.72
X18.46Y-38.95
X19.88Y-46.0
X20.11Y-34.5
X21.0Y-14.0
X21.0Y-42.0
X21.0Y-56.0
X21.0Y-63.0
X21.0Y-70.0
X21.0Y-77.0
X21.0Y-84.0
X21.0Y-91.0
X21.0Y-98.0
X25.1Y-37.3
X28.0Y-14.0
X28.0Y-28.0
X28.0Y-35.0
X28.0Y-63.0
X28.0Y-70.0
X28.0Y-77.0
X28.0Y-84.0
X28.0Y-91.0
X28.0Y-98.0
X28.0Y-105.0
X28.8Y-25.1
X28.9Y-41.1
X29.11Y-42.0
X31.0Y-33.7
X31.2Y-121.2
X32.4Y-32.3
X32.7Y-122.7
X33.8Y-128.0
X33.9Y-117.8
X34.9Y-118.8
X35.0Y-14.0
X35.0Y-35.0
X35.0Y-42.0
X35.0Y-56.0
X35.0Y-63.0
X35.0Y-70.0
X35.0Y-77.0
X35.0Y-84.0
X35.0Y-91.0
X35.0Y-98.0
X35.0Y-105.0
X35.01Y-124.0
X38.46Y-38.95
X39.0Y-38.1
X39.88Y-46.0
X40.11Y-34.5
X40.51Y-35.29
X42.0Y-14.0
X42.0Y-56.0
X42.0Y-63.0
X42.0Y-70.0
X42.0Y-77.0
X42.0Y-84.0
X42.0Y-91.0
X42.0Y-98.0
X42.0Y-105.0
X42.15Y-122.0
X43.1Y-37.3
X43.2Y-42.0
X43.2Y-46.3
X43.2Y-51.3
X43.2Y-57.4
X43.9Y-37.3
X44.2Y-103.4
X44.7Y-42.0
X44.7Y-47.8
X44.9Y-102.7
X45.68Y-100.7
X45.7Y-37.2
X45.72Y-104.2
X46.5Y-102.4
X47.28Y-104.6
X48.0Y-102.0
X48.1Y-103.4
X48.59Y-126.58
X48.6Y-54.7
X48.64Y-106.87
X48.79Y-108.0
X48.9Y-104.1
X49.0Y-14.0
X49.0Y-21.0
X49.0Y-42.0
X49.0Y-49.0
X49.0Y-63.0
X49.0Y-70.0
X49.0Y-77.0
X49.0Y-84.0
X49.0Y-91.0
X49.0Y-98.0
X49.01Y-102.0
X49.1Y-33.8
X49.1Y-121.3
X49.2Y-124.9
X49.31Y-125.8
X49.7Y-108.9
X49.8Y-33.1
X49.8Y-44.1
X49.9Y-106.1
X49.94Y-120.87
X50.5Y-128.0
X50.7Y-123.3
X51.6Y-125.7
X51.68Y-130.2
X51.9Y-32.6
X53.15Y-128.0
X53.2Y-127.1
X54.54Y-128.9
X56.0Y-14.0
X56.0Y-21.0
X56.0Y-28.0
X56.0Y-35.0
X56.0Y-42.0
X56.0Y-49.0
X56.0Y-56.0
X56.0Y-70.0
X56.0Y-77.0
X56.0Y-84.0
X56.0Y-91.0
X56.0Y-98.0
X58.0Y-32.6
X58.3Y-52.6
X58.3Y-54.7
X58.46Y-38.95
X59.5Y-44.6
X59.88Y-46.0
X60.11Y-34.5
X61.0Y-32.6
X61.0Y-35.57
X63.0Y-14.0
X63.0Y-35.0
X63.0Y-49.0
X63.0Y-56.0
X63.0Y-63.0
X63.0Y-77.0
X63.0Y-84.0
X63.0Y-91.0
X63.0Y-98.0
X63.0Y-105.0
X63.8Y-39.6
X64.1Y-113.4
X64.86Y-116.0
X65.2Y-114.5
X65.7Y-39.6
X66.0Y-57.4
X67.1Y-52.2
X67.2Y-54.7
X67.3Y-56.0
X68.29Y-64.15
X68.4Y-53.5
X68.4Y-58.3
X68.48Y-122.0
X68.8Y-32.1
X69.1Y-33.8
X69.1Y-59.3
X69.1Y-63.8
X69.11Y-42.0
X69.2Y-60.3
X69.2Y-61.2
X69.28Y-123.3
X69.6Y-55.9
X69.8Y-33.1
X69.9Y-54.7
X69.9Y-57.7
X70.0Y-14.0
X70.0Y-28.0
X70.0Y-49.0
X70.0Y-84.0
X70.0Y-91.0
X70.0Y-98.0
X70.0Y-105.0
X70.5Y-116.0
X70.5Y-117.4
X70.8Y-54.7
X70.9Y-31.0
X70.9Y-57.6
X71.1Y-36.3
X71.1Y-73.8
X71.28Y-119.3
X71.4Y-68.4
X71.5Y-56.7
X71.7Y-55.1
X71.7Y-57.8
X71.98Y-74.0
X72.1Y-67.8
X72.3Y-47.0
X72.3Y-111.9
X72.4Y-109.8
X72.41Y-115.91
X72.5Y-57.9
X72.5Y-65.2
X72.62Y-69.34
X72.7Y-60.6
X72.8Y-113.0
X72.84Y-71.7
X72.9Y-72.7
X73.0Y-55.7
X73.0Y-109.2
X73.0Y-111.2
X73.08Y-75.4
X73.1Y-65.8
X73.3Y-58.0
X73.5Y-70.1
X73.64Y-115.25
X73.95Y-76.63
X74.1Y-65.8
X74.3Y-74.9
X75.01Y-71.27
X75.28Y-75.3
X75.29Y-74.45
X75.4Y-52.1
X75.4Y-73.4
X75.6Y-60.5
X75.88Y-72.6
X75.98Y-76.6
X76.07Y-74.9
X76.69Y-60.7
X76.98Y-74.0
X77.0Y-14.0
X77.0Y-21.0
X77.0Y-28.0
X77.0Y-35.0
X77.0Y-49.0
X77.0Y-91.0
X77.0Y-98.0
X77.0Y-105.0
X77.3Y-56.9
X77.3Y-58.1
X77.4Y-42.0
X77.8Y-69.8
X78.0Y-32.6
X78.2Y-106.0
X78.41Y-76.2
X78.46Y-38.95
X78.5Y-64.9
X78.52Y-60.64
X78.9Y-62.8
X78.9Y-65.9
X78.9Y-105.3
X79.0Y-59.6
X79.23Y-44.87
X79.43Y-46.78
X79.6Y-104.6
X79.7Y-65.9
X79.9Y-61.9
X79.9Y-64.1
X80.11Y-34.5
X80.5Y-65.0
X80.6Y-60.7
X80.78Y-46.0
X81.0Y-32.6
X81.6Y-62.7
X81.68Y-46.0
X81.69Y-102.53
X81.8Y-114.3
X81.83Y-100.0
X82.9Y-117.15
X83.2Y-115.7
X83.4Y-62.1
X84.0Y-14.0
X84.0Y-35.0
X84.0Y-42.0
X84.0Y-49.0
X84.0Y-56.0
X84.0Y-70.0
X84.0Y-84.0
X84.0Y-98.0
X84.0Y-105.0
X85.1Y-118.85
X85.6Y-93.4
X86.5Y-92.5
X87.0Y-93.1
X87.5Y-116.3
X87.7Y-94.6
X87.8Y-92.1
X87.8Y-120.58
X88.0Y-114.3
X88.1Y-92.8
X88.1Y-96.9
X88.4Y-121.9
X88.6Y-30.9
X88.6Y-39.5
X88.7Y-89.8
X88.8Y-114.3
X88.98Y-120.7
X89.11Y-42.0
X89.28Y-123.3
X89.3Y-25.1
X89.5Y-96.4
X90.4Y-100.8
X90.7Y-102.1
X91.0Y-14.0
X91.0Y-21.0
X91.0Y-42.0
X91.0Y-56.0
X91.0Y-63.0
X91.0Y-70.0
X91.0Y-77.0
X91.0Y-84.0
X91.0Y-91.0
X91.0Y-93.0
X91.0Y-98.4
X91.0Y-100.1
X91.08Y-51.4
X91.54Y-52.24
X91.68Y-48.7
X92.5Y-109.675
X92.51Y-50.0
X93.0Y-92.8
X93.28Y-51.3
X93.45Y-97.05
X93.45Y-101.85
X93.54Y-84.18
X93.9Y-106.3
X94.3Y-82.6
X94.5Y-110.9
X94.69Y-84.33
X95.1Y-82.5
X95.7Y-105.25
X95.7Y-110.7
X96.4Y-110.5
X96.66Y-38.95
X96.8Y-81.8
X96.8Y-84.2
X97.35Y-110.35
X97.4Y-105.86
X97.5Y-90.1
X97.96Y-38.95
X98.0Y-14.0
X98.0Y-21.0
X98.0Y-28.0
X98.0Y-35.0
X98.0Y-42.0
X98.0Y-49.0
X98.0Y-54.0
X98.0Y-63.0
X98.0Y-70.0
X98.0Y-77.0
X98.0Y-84.0
X98.0Y-105.0
X98.3Y-106.1
X98.5Y-38.1
X98.62Y-122.02
X98.7Y-109.7
X98.8Y-78.9
X98.9Y-51.7
X98.9Y-66.1
X98.99Y-35.89
X99.0Y-41.1
X99.06Y-116.95
X99.41Y-83.05
X99.5Y-88.7
X99.6Y-39.6
X99.8Y-112.7
X99.88Y-46.0
X100.1Y-105.15
X100.11Y-34.5
X100.5Y-111.9
X100.6Y-90.5
X100.7Y-39.6
X100.7Y-110.1
X100.9Y-106.0
X101.11Y-119.4
X101.26Y-114.6
X101.48Y-115.5
X101.7Y-57.7
X101.9Y-83.05
X102.3Y-115.9
X102.3Y-120.2
X102.4Y-110.7
X102.6Y-42.6
X102.7Y-56.7
X102.7Y-109.9
X102.8Y-112.5
X103.0Y-120.5
X103.15Y-82.53
X103.58Y-115.5
X103.7Y-42.6
X103.81Y-81.87
X104.26Y-82.65
X104.37Y-112.8
X104.71Y-85.23
X104.71Y-114.35
X104.71Y-116.57
X104.98Y-118.0
X105.0Y-14.0
X105.0Y-35.0
X105.0Y-49.0
X105.0Y-56.0
X105.0Y-63.0
X105.0Y-70.0
X105.0Y-77.0
X105.0Y-91.0
X105.0Y-98.0
X105.2Y-121.97
X105.38Y-113.7
X105.4Y-82.8
X105.4Y-111.1
X105.5Y-61.5
X105.7Y-38.0
X105.95Y-116.375
X106.15Y-111.3
X106.3Y-89.4
X106.5Y-109.2
X106.7Y-90.8
X106.85Y-111.35
X107.28Y-87.5
X107.4Y-110.25
X107.42Y-115.82
X107.73Y-88.52
X107.77Y-84.18
X107.8Y-83.3
X108.18Y-87.74
X108.18Y-90.86
X108.9Y-101.3
X109.1Y-40.0
X109.1Y-98.8
X109.11Y-42.0
X109.3Y-114.1
X109.8Y-100.9
X109.9Y-96.9
X109.98Y-85.28
X110.1Y-95.1
X110.16Y-114.42
X110.9Y-36.2
X111.3Y-106.9
X111.3Y-113.3
X111.4Y-93.1
X111.5Y-85.1
X111.5Y-91.5
X111.7Y-92.4
X112.0Y-14.0
X112.0Y-35.0
X112.0Y-42.0
X112.0Y-49.0
X112.0Y-56.0
X112.0Y-63.0
X112.0Y-70.0
X112.0Y-98.0
X112.3Y-65.5
X112.33Y-86.71
X112.33Y-113.29
X112.95Y-108.25
X113.5Y-55.2
X113.9Y-54.0
X114.1Y-56.1
X114.3Y-66.1
X114.41Y-88.44
X114.5Y-53.4
X114.6Y-111.23
X115.0Y-57.3
X115.1Y-56.0
X115.2Y-108.6
X115.2Y-109.6
X115.3Y-54.2
X116.0Y-71.0
X116.04Y-106.48
X116.1Y-57.3
X116.18Y-90.42
X116.3Y-58.9
X116.38Y-64.34
X116.6Y-82.0
X116.6Y-108.1
X117.08Y-104.11
X117.1Y-59.0
X117.1Y-63.8
X117.2Y-60.3
X117.3Y-39.6
X117.3Y-70.9
X117.5Y-55.0
X117.5Y-56.1
X117.6Y-92.62
X117.6Y-106.88
X117.9Y-58.1
X117.9Y-60.6
X117.96Y-38.95
X118.1Y-51.4
X118.2Y-109.6
X118.3Y-72.8
X118.5Y-38.1
X118.64Y-94.99
X118.7Y-67.1
X118.9Y-74.0
X118.9Y-116.92
X118.99Y-35.89
X119.0Y-14.0
X119.0Y-21.0
X119.0Y-41.1
X119.0Y-77.0
X119.0Y-109.8
X119.0Y-111.2
X119.1Y-107.1
X119.23Y-39.39
X119.27Y-97.47
X119.27Y-102.53
X119.33Y-75.13
X119.35Y-110.6
X119.4Y-72.9
X119.48Y-100.0
X119.5Y-56.7
X119.7Y-88.2
X119.7Y-114.8
X119.8Y-66.2
X119.81Y-74.0
X119.88Y-46.0
X119.9Y-108.9
X120.0Y-106.5
X120.1Y-39.6
X120.1Y-55.1
X120.11Y-34.5
X120.2Y-71.4
X120.5Y-59.4
X120.7Y-60.6
X120.9Y-63.0
X120.9Y-73.3
X120.9Y-106.7
X121.08Y-75.4
X121.28Y-109.3
X121.3Y-58.4
X121.3Y-66.9
X121.4Y-107.25
X121.4Y-108.0
X121.4Y-114.8
X121.5Y-70.6
X121.66Y-72.53
X121.68Y-76.9
X121.7Y-56.6
X121.9Y-45.4
X122.0Y-87.55
X122.3Y-64.7
X122.3Y-70.0
X122.3Y-74.9
X122.9Y-107.8
X123.01Y-71.27
X123.05Y-66.0
X123.23Y-73.73
X123.28Y-75.3
X123.6Y-65.5
X123.7Y-60.0
X123.98Y-76.6
X124.07Y-74.9
X124.1Y-73.5
X124.4Y-55.5
X124.78Y-71.04
X124.9Y-104.6
X124.98Y-74.0
X125.6Y-56.7
X125.8Y-75.5
X126.0Y-14.0
X126.0Y-28.0
X126.0Y-42.0
X126.0Y-49.0
X126.0Y-84.0
X126.0Y-91.0
X126.0Y-98.0
X126.16Y-59.17
X126.41Y-76.2
X126.5Y-61.5
X126.5Y-64.9
X126.5Y-77.1
X126.9Y-62.4
X127.0Y-66.9
X127.1Y-59.9
X127.1Y-63.4
X127.2Y-65.2
X127.7Y-57.3
X127.7Y-75.9
X127.7Y-81.1
X127.7Y-94.0
X127.9Y-64.1
X128.1Y-61.9
X128.6Y-37.5
X128.6Y-39.5
X129.0Y-58.0
X129.0Y-62.0
X129.11Y-42.0
X129.49Y-26.96
X129.7Y-63.4
X130.05Y-64.75
X130.4Y-62.0
X130.9Y-36.2
X131.3Y-62.8
X132.1Y-41.1
X133.0Y-14.0
X133.0Y-35.0
X133.0Y-42.0
X133.0Y-49.0
X133.0Y-56.0
X133.0Y-77.0
X133.0Y-84.0
X133.0Y-91.0
X133.0Y-98.0
X133.0Y-105.0
X133.6Y-39.6
X134.9Y-74.8
X137.0Y-41.1
X137.65Y-112.8
X137.68Y-111.2
X137.72Y-114.2
X137.8Y-36.2
X138.3Y-59.2
X138.5Y-38.1
X138.7Y-114.0
X139.0Y-41.1
X139.05Y-119.6
X139.35Y-38.95
X139.5Y-57.1
X139.5Y-58.0
X139.7Y-110.6
X139.88Y-46.0
X140.0Y-14.0
X140.0Y-35.0
X140.0Y-49.0
X140.0Y-63.0
X140.0Y-70.0
X140.0Y-77.0
X140.0Y-84.0
X140.0Y-91.0
X140.0Y-98.0
X140.0Y-105.0
X140.41Y-113.95
X140.47Y-34.15
X147.0Y-14.0
X147.0Y-28.0
X147.0Y-56.0
X147.0Y-63.0
X147.0Y-70.0
X147.0Y-77.0
X147.0Y-84.0
X147.0Y-91.0
X147.0Y-98.0
X147.0Y-105.0
X148.6Y-37.5
X148.6Y-39.5
X149.11Y-42.0
X149.49Y-26.96
X149.5Y-40.5
X150.7Y-41.1
X150.9Y-36.2
X152.2Y-37.8
X152.2Y-39.6
X154.0Y-14.0
X154.0Y-35.0
X154.0Y-42.0
X154.0Y-49.0
X154.0Y-56.0
X154.0Y-63.0
X154.0Y-70.0
X154.0Y-77.0
X154.0Y-84.0
X154.0Y-91.0
X154.0Y-98.0
X154.0Y-105.0
X157.96Y-38.95
X158.5Y-38.1
X159.0Y-41.1
X159.35Y-38.95
X159.88Y-46.0
X160.11Y-34.85
X161.0Y-14.0
X161.0Y-35.0
X161.0Y-49.0
X161.0Y-56.0
X161.0Y-63.0
X161.0Y-70.0
X161.0Y-77.0
X161.0Y-84.0
X161.0Y-91.0
X161.0Y-98.0
X162.2Y-26.6
X164.2Y-28.6
X168.0Y-14.0
X168.0Y-28.0
X168.0Y-35.0
X168.0Y-49.0
X168.0Y-56.0
X168.0Y-63.0
X168.0Y-70.0
X168.0Y-77.0
X168.0Y-84.0
X168.0Y-91.0
X168.0Y-98.0
X168.0Y-105.0
X169.1Y-33.4
X169.11Y-42.0
X175.0Y-14.0
X175.0Y-35.0
X175.0Y-42.0
X175.0Y-49.0
X175.0Y-56.0
X175.0Y-63.0
X175.0Y-70.0
X175.0Y-77.0
X175.0Y-84.0
X175.0Y-91.0
X175.0Y-98.0
X175.0Y-105.0
X178.1Y-112.6
X182.0Y-21.0
X182.0Y-28.0
X182.0Y-35.0
X182.0Y-42.0
X182.0Y-49.0
X182.0Y-56.0
X182.0Y-63.0
X182.0Y-70.0
X182.0Y-77.0
X182.0Y-84.0
X182.0Y-91.0
X182.0Y-98.0
X182.0Y-105.0
T5
X98.35Y-98.35
X98.35Y-99.45
X98.35Y-100.55
X98.35Y-101.65
X99.45Y-98.35
X99.45Y-99.45
X99.45Y-100.55
X99.45Y-101.65
X100.55Y-98.35
X100.55Y-99.45
X100.55Y-100.55
X100.55Y-101.65
X101.65Y-98.35
X101.65Y-99.45
X101.65Y-100.55
X101.65Y-101.65
T7
X20.7Y-28.6
X22.99Y-28.6
X24.0Y-22.0
X25.016Y-23.78
X26.032Y-22.0
X27.048Y-23.78
X28.064Y-22.0
X29.08Y-23.78
X30.096Y-22.0
X31.112Y-23.78
X32.13Y-28.6
X34.42Y-28.6
X40.7Y-28.6
X42.99Y-28.6
X44.0Y-22.0
X45.016Y-23.78
X46.032Y-22.0
X47.048Y-23.78
X48.064Y-22.0
X49.08Y-23.78
X50.096Y-22.0
X51.112Y-23.78
X52.13Y-28.6
X54.42Y-28.6
X60.7Y-28.6
X62.99Y-28.6
X64.0Y-22.0
X65.016Y-23.78
X66.032Y-22.0
X67.048Y-23.78
X68.064Y-22.0
X69.08Y-23.78
X70.096Y-22.0
X71.112Y-23.78
X72.13Y-28.6
X74.42Y-28.6
X80.7Y-28.6
X82.99Y-28.6
X84.0Y-22.0
X85.016Y-23.78
X86.032Y-22.0
X87.048Y-23.78
X88.064Y-22.0
X89.08Y-23.78
X90.096Y-22.0
X91.112Y-23.78
X92.13Y-28.6
X94.42Y-28.6
X100.7Y-28.6
X102.99Y-28.6
X104.0Y-22.0
X105.016Y-23.78
X106.032Y-22.0
X107.048Y-23.78
X108.064Y-22.0
X109.08Y-23.78
X110.096Y-22.0
X111.112Y-23.78
X112.13Y-28.6
X114.42Y-28.6
X120.7Y-28.6
X122.99Y-28.6
X124.0Y-22.0
X125.016Y-23.78
X126.032Y-22.0
X127.048Y-23.78
X128.064Y-22.0
X129.08Y-23.78
X130.096Y-22.0
X131.112Y-23.78
X132.13Y-28.6
X134.42Y-28.6
X140.7Y-28.6
X142.99Y-28.6
X144.0Y-22.0
X145.016Y-23.78
X146.032Y-22.0
X147.048Y-23.78
X148.064Y-22.0
X149.08Y-23.78
X150.096Y-22.0
X151.112Y-23.78
X152.13Y-28.6
X154.42Y-28.6
X160.7Y-28.6
X162.99Y-28.6
X164.0Y-22.0
X165.016Y-23.78
X166.032Y-22.0
X167.048Y-23.78
X168.064Y-22.0
X169.08Y-23.78
X170.096Y-22.0
X171.112Y-23.78
X172.13Y-28.6
X174.42Y-28.6
T8
X166.0Y-120.0
X166.0Y-122.54
X170.0Y-112.0
X170.0Y-114.54
X180.0Y-112.0
X180.0Y-114.54
T9
X18.0Y-104.0
X21.5Y-104.0
T10
X19.43Y-22.89
X35.69Y-22.89
X39.43Y-22.89
X55.69Y-22.89
X59.43Y-22.89
X75.69Y-22.89
X79.43Y-22.89
X95.69Y-22.89
X99.43Y-22.89
X115.69Y-22.89
X119.43Y-22.89
X135.69Y-22.89
X139.43Y-22.89
X155.69Y-22.89
X159.43Y-22.89
X175.69Y-22.89
T6
G00X97.68Y-122.345
M15
G01X97.68Y-123.445
M16
G05
G00X97.68Y-126.675
M15
G01X97.68Y-127.475
M16
G05
G00X106.32Y-122.345
M15
G01X106.32Y-123.445
M16
G05
G00X106.32Y-126.675
M15
G01X106.32Y-127.475
M16
G05
T8
G00X17.0Y-115.0
M15
G01X17.0Y-117.0
M16
G05
G00X19.0Y-120.7
M15
G01X21.0Y-120.7
M16
G05
G00X23.0Y-115.0
M15
G01X23.0Y-117.0
M16
G05
M30
