%TF.GenerationSoftware,KiCad,Pcbnew,10.0.4-10.0.4~ubuntu24.04.1*%
%TF.CreationDate,2026-07-18T23:46:33-07:00*%
%TF.ProjectId,crow_array_central,63726f77-5f61-4727-9261-795f63656e74,rev?*%
%TF.SameCoordinates,Original*%
%TF.FileFunction,Paste,Top*%
%TF.FilePolarity,Positive*%
%FSLAX46Y46*%
G04 Gerber Fmt 4.6, Leading zero omitted, Abs format (unit mm)*
G04 Created by KiCad (PCBNEW 10.0.4-10.0.4~ubuntu24.04.1) date 2026-07-18 23:46:33*
%MOMM*%
%LPD*%
G01*
G04 APERTURE LIST*
G04 Aperture macros list*
%AMRoundRect*
0 Rectangle with rounded corners*
0 $1 Rounding radius*
0 $2 $3 $4 $5 $6 $7 $8 $9 X,Y pos of 4 corners*
0 Add a 4 corners polygon primitive as box body*
4,1,4,$2,$3,$4,$5,$6,$7,$8,$9,$2,$3,0*
0 Add four circle primitives for the rounded corners*
1,1,$1+$1,$2,$3*
1,1,$1+$1,$4,$5*
1,1,$1+$1,$6,$7*
1,1,$1+$1,$8,$9*
0 Add four rect primitives between the rounded corners*
20,1,$1+$1,$2,$3,$4,$5,0*
20,1,$1+$1,$4,$5,$6,$7,0*
20,1,$1+$1,$6,$7,$8,$9,0*
20,1,$1+$1,$8,$9,$2,$3,0*%
%AMFreePoly0*
4,1,13,0.900000,0.500000,2.600000,0.500000,2.600000,-0.500000,0.900000,-0.500000,0.400000,-1.000000,-0.400000,-1.000000,-0.900000,-0.500000,-2.600000,-0.500000,-2.600000,0.500000,-0.900000,0.500000,-0.400000,1.000000,0.400000,1.000000,0.900000,0.500000,0.900000,0.500000,$1*%
G04 Aperture macros list end*
%ADD10RoundRect,0.135000X-0.135000X-0.185000X0.135000X-0.185000X0.135000X0.185000X-0.135000X0.185000X0*%
%ADD11RoundRect,0.140000X-0.140000X-0.170000X0.140000X-0.170000X0.140000X0.170000X-0.140000X0.170000X0*%
%ADD12RoundRect,0.087500X-0.250000X-0.087500X0.250000X-0.087500X0.250000X0.087500X-0.250000X0.087500X0*%
%ADD13RoundRect,0.087500X-0.537500X-0.087500X0.537500X-0.087500X0.537500X0.087500X-0.537500X0.087500X0*%
%ADD14RoundRect,0.250000X-0.312500X-1.450000X0.312500X-1.450000X0.312500X1.450000X-0.312500X1.450000X0*%
%ADD15RoundRect,0.150000X-0.150000X-0.425000X0.150000X-0.425000X0.150000X0.425000X-0.150000X0.425000X0*%
%ADD16RoundRect,0.075000X-0.075000X-0.500000X0.075000X-0.500000X0.075000X0.500000X-0.075000X0.500000X0*%
%ADD17O,1.000000X2.100000*%
%ADD18O,1.000000X1.800000*%
%ADD19RoundRect,0.150000X-0.587500X-0.150000X0.587500X-0.150000X0.587500X0.150000X-0.587500X0.150000X0*%
%ADD20RoundRect,0.075000X-0.662500X-0.075000X0.662500X-0.075000X0.662500X0.075000X-0.662500X0.075000X0*%
%ADD21RoundRect,0.147500X-0.147500X-0.172500X0.147500X-0.172500X0.147500X0.172500X-0.147500X0.172500X0*%
%ADD22RoundRect,0.175000X-0.575000X-0.175000X0.575000X-0.175000X0.575000X0.175000X-0.575000X0.175000X0*%
%ADD23FreePoly0,0.000000*%
%ADD24RoundRect,0.250000X-0.450000X-0.350000X0.450000X-0.350000X0.450000X0.350000X-0.450000X0.350000X0*%
%ADD25RoundRect,0.075000X-0.200000X0.075000X-0.200000X-0.075000X0.200000X-0.075000X0.200000X0.075000X0*%
%ADD26RoundRect,0.250000X-1.050000X-0.550000X1.050000X-0.550000X1.050000X0.550000X-1.050000X0.550000X0*%
%ADD27RoundRect,0.250001X-0.499999X-0.999999X0.499999X-0.999999X0.499999X0.999999X-0.499999X0.999999X0*%
%ADD28RoundRect,0.062500X-0.675000X-0.062500X0.675000X-0.062500X0.675000X0.062500X-0.675000X0.062500X0*%
%ADD29RoundRect,0.062500X-0.062500X-0.675000X0.062500X-0.675000X0.062500X0.675000X-0.062500X0.675000X0*%
%ADD30R,4.700000X4.700000*%
%ADD31R,0.500000X0.300000*%
%ADD32RoundRect,0.150000X-0.512500X-0.150000X0.512500X-0.150000X0.512500X0.150000X-0.512500X0.150000X0*%
%ADD33RoundRect,0.250000X-1.000000X-0.900000X1.000000X-0.900000X1.000000X0.900000X-1.000000X0.900000X0*%
%ADD34RoundRect,0.162500X-0.650000X-0.162500X0.650000X-0.162500X0.650000X0.162500X-0.650000X0.162500X0*%
%ADD35O,0.600000X1.700000*%
%ADD36O,0.600000X1.400000*%
G04 APERTURE END LIST*
D10*
%TO.C,R280*%
X126690000Y-66300000D03*
X127710000Y-66300000D03*
%TD*%
%TO.C,R13*%
X46990000Y-128000000D03*
X48010000Y-128000000D03*
%TD*%
%TO.C,R230*%
X74490000Y-55000000D03*
X75510000Y-55000000D03*
%TD*%
D11*
%TO.C,C60*%
X122320000Y-75300000D03*
X123280000Y-75300000D03*
%TD*%
D12*
%TO.C,U11*%
X49287500Y-121500000D03*
X49287500Y-122000000D03*
X49287500Y-122500000D03*
X50712500Y-122500000D03*
X50712500Y-122000000D03*
X50712500Y-121500000D03*
%TD*%
D10*
%TO.C,R231*%
X79290000Y-58700000D03*
X80310000Y-58700000D03*
%TD*%
D12*
%TO.C,D23*%
X58687500Y-33500000D03*
X58687500Y-34000000D03*
X58687500Y-34500000D03*
X60112500Y-34500000D03*
X60112500Y-33500000D03*
%TD*%
D10*
%TO.C,R240*%
X78690000Y-66300000D03*
X79710000Y-66300000D03*
%TD*%
D13*
%TO.C,U5*%
X118600000Y-115250000D03*
X118600000Y-115750000D03*
X118600000Y-116250000D03*
X118600000Y-116750000D03*
X121400000Y-116750000D03*
X121400000Y-116250000D03*
X121400000Y-115750000D03*
X121400000Y-115250000D03*
%TD*%
D11*
%TO.C,C271*%
X127020000Y-60000000D03*
X127980000Y-60000000D03*
%TD*%
%TO.C,C302*%
X38920000Y-46000000D03*
X39880000Y-46000000D03*
%TD*%
%TO.C,C134*%
X103747897Y-83426225D03*
X104707897Y-83426225D03*
%TD*%
%TO.C,C308*%
X158920000Y-46000000D03*
X159880000Y-46000000D03*
%TD*%
%TO.C,C105*%
X115218536Y-109576440D03*
X116178536Y-109576440D03*
%TD*%
D10*
%TO.C,R42*%
X121990000Y-108000000D03*
X123010000Y-108000000D03*
%TD*%
D11*
%TO.C,C15*%
X48320000Y-130199999D03*
X49280000Y-130199999D03*
%TD*%
D14*
%TO.C,F23*%
X66462500Y-34000000D03*
X70737500Y-34000000D03*
%TD*%
D11*
%TO.C,C212*%
X69920000Y-54600000D03*
X70880000Y-54600000D03*
%TD*%
D10*
%TO.C,R270*%
X122490000Y-55000000D03*
X123510000Y-55000000D03*
%TD*%
D14*
%TO.C,F17*%
X146862500Y-38200000D03*
X151137500Y-38200000D03*
%TD*%
D15*
%TO.C,J12*%
X98800000Y-122320000D03*
X99600000Y-122320000D03*
D16*
X100750000Y-122320000D03*
X101750000Y-122320000D03*
X102250000Y-122320000D03*
X103250000Y-122320000D03*
D15*
X104400000Y-122320000D03*
X105200000Y-122320000D03*
X105200000Y-122320000D03*
X104400000Y-122320000D03*
D16*
X103750000Y-122320000D03*
X102750000Y-122320000D03*
X101250000Y-122320000D03*
X100250000Y-122320000D03*
D15*
X99600000Y-122320000D03*
X98800000Y-122320000D03*
D17*
X97680000Y-122895000D03*
D18*
X97680000Y-127075000D03*
D17*
X106320000Y-122895000D03*
D18*
X106320000Y-127075000D03*
%TD*%
D10*
%TO.C,R115*%
X108090000Y-42000000D03*
X109110000Y-42000000D03*
%TD*%
D19*
%TO.C,Q9*%
X39062500Y-111050000D03*
X39062500Y-112950000D03*
X40937500Y-112000000D03*
%TD*%
D20*
%TO.C,U2*%
X71137500Y-58500000D03*
X71137500Y-59000000D03*
X71137500Y-59500000D03*
X71137500Y-60000000D03*
X71137500Y-60500000D03*
X71137500Y-61000000D03*
X71137500Y-61500000D03*
X71137500Y-62000000D03*
X71137500Y-62500000D03*
X71137500Y-63000000D03*
X71137500Y-63500000D03*
X71137500Y-64000000D03*
X71137500Y-64500000D03*
X71137500Y-65000000D03*
X71137500Y-65500000D03*
X76862500Y-65500000D03*
X76862500Y-65000000D03*
X76862500Y-64500000D03*
X76862500Y-64000000D03*
X76862500Y-63500000D03*
X76862500Y-63000000D03*
X76862500Y-62500000D03*
X76862500Y-62000000D03*
X76862500Y-61500000D03*
X76862500Y-61000000D03*
X76862500Y-60500000D03*
X76862500Y-60000000D03*
X76862500Y-59500000D03*
X76862500Y-59000000D03*
X76862500Y-58500000D03*
%TD*%
D11*
%TO.C,C40*%
X138320000Y-113300000D03*
X139280000Y-113300000D03*
%TD*%
D10*
%TO.C,R250*%
X113990000Y-56000000D03*
X115010000Y-56000000D03*
%TD*%
D11*
%TO.C,C35*%
X120320000Y-109300000D03*
X121280000Y-109300000D03*
%TD*%
%TO.C,C12*%
X44120000Y-103400000D03*
X45080000Y-103400000D03*
%TD*%
D21*
%TO.C,FB3*%
X105515000Y-88000000D03*
X106485000Y-88000000D03*
%TD*%
D10*
%TO.C,R81*%
X159490000Y-118000000D03*
X160510000Y-118000000D03*
%TD*%
%TO.C,R90*%
X33990000Y-124000000D03*
X35010000Y-124000000D03*
%TD*%
%TO.C,R102*%
X38890000Y-42000000D03*
X39910000Y-42000000D03*
%TD*%
D11*
%TO.C,C303*%
X58920000Y-46000000D03*
X59880000Y-46000000D03*
%TD*%
%TO.C,C63*%
X122920000Y-72600000D03*
X123880000Y-72600000D03*
%TD*%
%TO.C,C282*%
X127320000Y-65000000D03*
X128280000Y-65000000D03*
%TD*%
D14*
%TO.C,F18*%
X166862500Y-38200000D03*
X171137500Y-38200000D03*
%TD*%
%TO.C,F24*%
X86462500Y-34000000D03*
X90737500Y-34000000D03*
%TD*%
D11*
%TO.C,C142*%
X118307785Y-97466281D03*
X119267785Y-97466281D03*
%TD*%
D22*
%TO.C,U13*%
X96150000Y-52500000D03*
D23*
X98000000Y-54000000D03*
D22*
X96150000Y-55500000D03*
X99850000Y-55500000D03*
X99850000Y-52500000D03*
%TD*%
D10*
%TO.C,R108*%
X158890000Y-42000000D03*
X159910000Y-42000000D03*
%TD*%
D11*
%TO.C,C272*%
X125720000Y-56800000D03*
X126680000Y-56800000D03*
%TD*%
D10*
%TO.C,R241*%
X82490000Y-62000000D03*
X83510000Y-62000000D03*
%TD*%
D11*
%TO.C,C18*%
X92320000Y-51300000D03*
X93280000Y-51300000D03*
%TD*%
%TO.C,C304*%
X78920000Y-46000000D03*
X79880000Y-46000000D03*
%TD*%
D19*
%TO.C,Q5*%
X98462500Y-37050000D03*
X98462500Y-38950000D03*
X100337500Y-38000000D03*
%TD*%
%TO.C,Q1*%
X18462500Y-37050000D03*
X18462500Y-38950000D03*
X20337500Y-38000000D03*
%TD*%
D10*
%TO.C,R60*%
X71990000Y-71400000D03*
X73010000Y-71400000D03*
%TD*%
D11*
%TO.C,C240*%
X78920000Y-63400000D03*
X79880000Y-63400000D03*
%TD*%
%TO.C,C306*%
X118920000Y-46000000D03*
X119880000Y-46000000D03*
%TD*%
D10*
%TO.C,R112*%
X48090000Y-42000000D03*
X49110000Y-42000000D03*
%TD*%
%TO.C,R104*%
X78890000Y-42000000D03*
X79910000Y-42000000D03*
%TD*%
D11*
%TO.C,C301*%
X18920000Y-46000000D03*
X19880000Y-46000000D03*
%TD*%
%TO.C,C261*%
X120920000Y-56600000D03*
X121880000Y-56600000D03*
%TD*%
D10*
%TO.C,R65*%
X122290000Y-71100000D03*
X123310000Y-71100000D03*
%TD*%
%TO.C,R15*%
X50690000Y-125800000D03*
X51710000Y-125800000D03*
%TD*%
D11*
%TO.C,C242*%
X79320000Y-65000000D03*
X80280000Y-65000000D03*
%TD*%
%TO.C,C50*%
X74320000Y-75300000D03*
X75280000Y-75300000D03*
%TD*%
D10*
%TO.C,R210*%
X65990000Y-56000000D03*
X67010000Y-56000000D03*
%TD*%
D14*
%TO.C,F16*%
X126862500Y-38200000D03*
X131137500Y-38200000D03*
%TD*%
D11*
%TO.C,C221*%
X72920000Y-56600000D03*
X73880000Y-56600000D03*
%TD*%
%TO.C,C54*%
X76020000Y-74000000D03*
X76980000Y-74000000D03*
%TD*%
%TO.C,C108*%
X109020000Y-114722431D03*
X109980000Y-114722431D03*
%TD*%
%TO.C,C231*%
X79020000Y-60000000D03*
X79980000Y-60000000D03*
%TD*%
D10*
%TO.C,R116*%
X128090000Y-42000000D03*
X129110000Y-42000000D03*
%TD*%
D11*
%TO.C,C280*%
X126920000Y-63400000D03*
X127880000Y-63400000D03*
%TD*%
%TO.C,C251*%
X115720000Y-54700000D03*
X116680000Y-54700000D03*
%TD*%
%TO.C,C121*%
X80732214Y-102533718D03*
X81692214Y-102533718D03*
%TD*%
%TO.C,C137*%
X111366306Y-86708864D03*
X112326306Y-86708864D03*
%TD*%
D10*
%TO.C,R260*%
X116090000Y-58900000D03*
X117110000Y-58900000D03*
%TD*%
%TO.C,R221*%
X68290000Y-61200000D03*
X69310000Y-61200000D03*
%TD*%
%TO.C,R50*%
X136090000Y-113400000D03*
X137110000Y-113400000D03*
%TD*%
D11*
%TO.C,C41*%
X136720000Y-110700000D03*
X137680000Y-110700000D03*
%TD*%
D14*
%TO.C,F13*%
X66862500Y-38200000D03*
X71137500Y-38200000D03*
%TD*%
D10*
%TO.C,R32*%
X100090000Y-119400000D03*
X101110000Y-119400000D03*
%TD*%
D14*
%TO.C,F15*%
X106862500Y-38200000D03*
X111137500Y-38200000D03*
%TD*%
D10*
%TO.C,R11*%
X47990000Y-102000000D03*
X49010000Y-102000000D03*
%TD*%
%TO.C,R271*%
X127290000Y-58700000D03*
X128310000Y-58700000D03*
%TD*%
D11*
%TO.C,C25*%
X88320000Y-123300000D03*
X89280000Y-123300000D03*
%TD*%
%TO.C,C112*%
X98100128Y-116952464D03*
X99060128Y-116952464D03*
%TD*%
%TO.C,C307*%
X138920000Y-46000000D03*
X139880000Y-46000000D03*
%TD*%
D20*
%TO.C,U3*%
X119137500Y-58500000D03*
X119137500Y-59000000D03*
X119137500Y-59500000D03*
X119137500Y-60000000D03*
X119137500Y-60500000D03*
X119137500Y-61000000D03*
X119137500Y-61500000D03*
X119137500Y-62000000D03*
X119137500Y-62500000D03*
X119137500Y-63000000D03*
X119137500Y-63500000D03*
X119137500Y-64000000D03*
X119137500Y-64500000D03*
X119137500Y-65000000D03*
X119137500Y-65500000D03*
X124862500Y-65500000D03*
X124862500Y-65000000D03*
X124862500Y-64500000D03*
X124862500Y-64000000D03*
X124862500Y-63500000D03*
X124862500Y-63000000D03*
X124862500Y-62500000D03*
X124862500Y-62000000D03*
X124862500Y-61500000D03*
X124862500Y-61000000D03*
X124862500Y-60500000D03*
X124862500Y-60000000D03*
X124862500Y-59500000D03*
X124862500Y-59000000D03*
X124862500Y-58500000D03*
%TD*%
D10*
%TO.C,R62*%
X77390000Y-76200000D03*
X78410000Y-76200000D03*
%TD*%
%TO.C,R281*%
X130490000Y-62000000D03*
X131510000Y-62000000D03*
%TD*%
D11*
%TO.C,C57*%
X72720000Y-76900000D03*
X73680000Y-76900000D03*
%TD*%
D10*
%TO.C,R16*%
X91490000Y-50000000D03*
X92510000Y-50000000D03*
%TD*%
D11*
%TO.C,C90i*%
X160320000Y-119300000D03*
X161280000Y-119300000D03*
%TD*%
D10*
%TO.C,R41*%
X118090000Y-109400000D03*
X119110000Y-109400000D03*
%TD*%
D11*
%TO.C,C107*%
X111366306Y-113291135D03*
X112326306Y-113291135D03*
%TD*%
D10*
%TO.C,R103*%
X58890000Y-42000000D03*
X59910000Y-42000000D03*
%TD*%
D19*
%TO.C,Q8*%
X158462500Y-37050000D03*
X158462500Y-38950000D03*
X160337500Y-38000000D03*
%TD*%
D11*
%TO.C,C31*%
X104020000Y-118000000D03*
X104980000Y-118000000D03*
%TD*%
D19*
%TO.C,Q4*%
X78462500Y-37050000D03*
X78462500Y-38950000D03*
X80337500Y-38000000D03*
%TD*%
D11*
%TO.C,C141*%
X117675883Y-94989162D03*
X118635883Y-94989162D03*
%TD*%
%TO.C,C130*%
X92578520Y-84175146D03*
X93538520Y-84175146D03*
%TD*%
D10*
%TO.C,R107*%
X138890000Y-42000000D03*
X139910000Y-42000000D03*
%TD*%
D11*
%TO.C,C123*%
X106320000Y-89300000D03*
X107280000Y-89300000D03*
%TD*%
%TO.C,C19*%
X90720000Y-48700000D03*
X91680000Y-48700000D03*
%TD*%
D19*
%TO.C,Q2*%
X38462500Y-37050000D03*
X38462500Y-38950000D03*
X40337500Y-38000000D03*
%TD*%
D11*
%TO.C,C13*%
X52020000Y-128000000D03*
X52980000Y-128000000D03*
%TD*%
%TO.C,C10*%
X46320000Y-103300000D03*
X47280000Y-103300000D03*
%TD*%
%TO.C,C101*%
X118520000Y-100000000D03*
X119480000Y-100000000D03*
%TD*%
%TO.C,C16*%
X68320000Y-123300000D03*
X69280000Y-123300000D03*
%TD*%
D10*
%TO.C,R105*%
X98890000Y-42000000D03*
X99910000Y-42000000D03*
%TD*%
%TO.C,R21*%
X87490000Y-122000000D03*
X88510000Y-122000000D03*
%TD*%
D11*
%TO.C,C135*%
X106461479Y-84175146D03*
X107421479Y-84175146D03*
%TD*%
%TO.C,C139*%
X115218536Y-90423559D03*
X116178536Y-90423559D03*
%TD*%
%TO.C,C64*%
X124020000Y-74000000D03*
X124980000Y-74000000D03*
%TD*%
%TO.C,C20*%
X90120000Y-51400000D03*
X91080000Y-51400000D03*
%TD*%
D10*
%TO.C,R118*%
X168090000Y-42000000D03*
X169110000Y-42000000D03*
%TD*%
%TO.C,R101*%
X18890000Y-42000000D03*
X19910000Y-42000000D03*
%TD*%
D11*
%TO.C,C52*%
X72120000Y-75400000D03*
X73080000Y-75400000D03*
%TD*%
%TO.C,C55*%
X71020000Y-74000000D03*
X71980000Y-74000000D03*
%TD*%
D14*
%TO.C,F14*%
X86862500Y-38200000D03*
X91137500Y-38200000D03*
%TD*%
%TO.C,F11*%
X26862500Y-38200000D03*
X31137500Y-38200000D03*
%TD*%
%TO.C,F27*%
X146462500Y-34000000D03*
X150737500Y-34000000D03*
%TD*%
D11*
%TO.C,C138*%
X113447985Y-88437063D03*
X114407985Y-88437063D03*
%TD*%
D10*
%TO.C,R43*%
X119490000Y-108000000D03*
X120510000Y-108000000D03*
%TD*%
D14*
%TO.C,F28*%
X166462500Y-34000000D03*
X170737500Y-34000000D03*
%TD*%
D12*
%TO.C,D21*%
X18687500Y-33500000D03*
X18687500Y-34000000D03*
X18687500Y-34500000D03*
X20112500Y-34500000D03*
X20112500Y-33500000D03*
%TD*%
D24*
%TO.C,Y1*%
X82900000Y-118850000D03*
X85100000Y-118850000D03*
X85100000Y-117150000D03*
X82900000Y-117150000D03*
%TD*%
D10*
%TO.C,R14*%
X48290000Y-125800000D03*
X49310000Y-125800000D03*
%TD*%
D14*
%TO.C,F22*%
X46462500Y-34000000D03*
X50737500Y-34000000D03*
%TD*%
D10*
%TO.C,R52*%
X137490000Y-112000000D03*
X138510000Y-112000000D03*
%TD*%
%TO.C,R261*%
X116290000Y-61200000D03*
X117310000Y-61200000D03*
%TD*%
D12*
%TO.C,D26*%
X118687500Y-33500000D03*
X118687500Y-34000000D03*
X118687500Y-34500000D03*
X120112500Y-34500000D03*
X120112500Y-33500000D03*
%TD*%
D10*
%TO.C,R40*%
X119090000Y-106600000D03*
X120110000Y-106600000D03*
%TD*%
D11*
%TO.C,C102*%
X118307785Y-102533718D03*
X119267785Y-102533718D03*
%TD*%
D10*
%TO.C,R117*%
X148090000Y-42000000D03*
X149110000Y-42000000D03*
%TD*%
D11*
%TO.C,C140*%
X116638408Y-92623976D03*
X117598408Y-92623976D03*
%TD*%
D10*
%TO.C,R211*%
X68490000Y-56000000D03*
X69510000Y-56000000D03*
%TD*%
D19*
%TO.C,Q3*%
X58462500Y-37050000D03*
X58462500Y-38950000D03*
X60337500Y-38000000D03*
%TD*%
D12*
%TO.C,D22*%
X38687500Y-33500000D03*
X38687500Y-34000000D03*
X38687500Y-34500000D03*
X40112500Y-34500000D03*
X40112500Y-33500000D03*
%TD*%
D11*
%TO.C,C250*%
X116120000Y-57400000D03*
X117080000Y-57400000D03*
%TD*%
%TO.C,C131*%
X95292102Y-83426225D03*
X96252102Y-83426225D03*
%TD*%
%TO.C,C211*%
X67720000Y-54700000D03*
X68680000Y-54700000D03*
%TD*%
D10*
%TO.C,R10*%
X46890000Y-100600000D03*
X47910000Y-100600000D03*
%TD*%
D11*
%TO.C,C51*%
X72720000Y-72700000D03*
X73680000Y-72700000D03*
%TD*%
D10*
%TO.C,R64*%
X119990000Y-71400000D03*
X121010000Y-71400000D03*
%TD*%
D25*
%TO.C,D10*%
X102815000Y-112700000D03*
X102815000Y-113200000D03*
X102815000Y-113700000D03*
X102815000Y-114200000D03*
X102815000Y-114700000D03*
X103585000Y-114700000D03*
X103585000Y-114200000D03*
X103585000Y-113700000D03*
X103585000Y-113200000D03*
X103585000Y-112700000D03*
%TD*%
D10*
%TO.C,R20*%
X86090000Y-123400000D03*
X87110000Y-123400000D03*
%TD*%
%TO.C,R113*%
X68090000Y-42000000D03*
X69110000Y-42000000D03*
%TD*%
%TO.C,R80*%
X158690000Y-116700000D03*
X159710000Y-116700000D03*
%TD*%
D12*
%TO.C,U10*%
X49287500Y-107500000D03*
X49287500Y-108000000D03*
X49287500Y-108500000D03*
X50712500Y-108500000D03*
X50712500Y-108000000D03*
X50712500Y-107500000D03*
%TD*%
D11*
%TO.C,C61*%
X120720000Y-72700000D03*
X121680000Y-72700000D03*
%TD*%
D26*
%TO.C,C90*%
X30200000Y-128000000D03*
X33800000Y-128000000D03*
%TD*%
D10*
%TO.C,R31*%
X102290000Y-119300000D03*
X103310000Y-119300000D03*
%TD*%
D12*
%TO.C,D25*%
X98687500Y-33500000D03*
X98687500Y-34000000D03*
X98687500Y-34500000D03*
X100112500Y-34500000D03*
X100112500Y-33500000D03*
%TD*%
D11*
%TO.C,C133*%
X100939871Y-83047535D03*
X101899871Y-83047535D03*
%TD*%
D27*
%TO.C,L10*%
X55150000Y-108000000D03*
X58850000Y-108000000D03*
%TD*%
D28*
%TO.C,U1*%
X92337500Y-93800000D03*
X92337500Y-94200000D03*
X92337500Y-94600000D03*
X92337500Y-95000000D03*
X92337500Y-95400000D03*
X92337500Y-95800000D03*
X92337500Y-96200000D03*
X92337500Y-96600000D03*
X92337500Y-97000000D03*
X92337500Y-97400000D03*
X92337500Y-97800000D03*
X92337500Y-98200000D03*
X92337500Y-98600000D03*
X92337500Y-99000000D03*
X92337500Y-99400000D03*
X92337500Y-99800000D03*
X92337500Y-100200000D03*
X92337500Y-100600000D03*
X92337500Y-101000000D03*
X92337500Y-101400000D03*
X92337500Y-101800000D03*
X92337500Y-102200000D03*
X92337500Y-102600000D03*
X92337500Y-103000000D03*
X92337500Y-103400000D03*
X92337500Y-103800000D03*
X92337500Y-104200000D03*
X92337500Y-104600000D03*
X92337500Y-105000000D03*
X92337500Y-105400000D03*
X92337500Y-105800000D03*
X92337500Y-106200000D03*
D29*
X93800000Y-107662500D03*
X94200000Y-107662500D03*
X94600000Y-107662500D03*
X95000000Y-107662500D03*
X95400000Y-107662500D03*
X95800000Y-107662500D03*
X96200000Y-107662500D03*
X96600000Y-107662500D03*
X97000000Y-107662500D03*
X97400000Y-107662500D03*
X97800000Y-107662500D03*
X98200000Y-107662500D03*
X98600000Y-107662500D03*
X99000000Y-107662500D03*
X99400000Y-107662500D03*
X99800000Y-107662500D03*
X100200000Y-107662500D03*
X100600000Y-107662500D03*
X101000000Y-107662500D03*
X101400000Y-107662500D03*
X101800000Y-107662500D03*
X102200000Y-107662500D03*
X102600000Y-107662500D03*
X103000000Y-107662500D03*
X103400000Y-107662500D03*
X103800000Y-107662500D03*
X104200000Y-107662500D03*
X104600000Y-107662500D03*
X105000000Y-107662500D03*
X105400000Y-107662500D03*
X105800000Y-107662500D03*
X106200000Y-107662500D03*
D28*
X107662500Y-106200000D03*
X107662500Y-105800000D03*
X107662500Y-105400000D03*
X107662500Y-105000000D03*
X107662500Y-104600000D03*
X107662500Y-104200000D03*
X107662500Y-103800000D03*
X107662500Y-103400000D03*
X107662500Y-103000000D03*
X107662500Y-102600000D03*
X107662500Y-102200000D03*
X107662500Y-101800000D03*
X107662500Y-101400000D03*
X107662500Y-101000000D03*
X107662500Y-100600000D03*
X107662500Y-100200000D03*
X107662500Y-99800000D03*
X107662500Y-99400000D03*
X107662500Y-99000000D03*
X107662500Y-98600000D03*
X107662500Y-98200000D03*
X107662500Y-97800000D03*
X107662500Y-97400000D03*
X107662500Y-97000000D03*
X107662500Y-96600000D03*
X107662500Y-96200000D03*
X107662500Y-95800000D03*
X107662500Y-95400000D03*
X107662500Y-95000000D03*
X107662500Y-94600000D03*
X107662500Y-94200000D03*
X107662500Y-93800000D03*
D29*
X106200000Y-92337500D03*
X105800000Y-92337500D03*
X105400000Y-92337500D03*
X105000000Y-92337500D03*
X104600000Y-92337500D03*
X104200000Y-92337500D03*
X103800000Y-92337500D03*
X103400000Y-92337500D03*
X103000000Y-92337500D03*
X102600000Y-92337500D03*
X102200000Y-92337500D03*
X101800000Y-92337500D03*
X101400000Y-92337500D03*
X101000000Y-92337500D03*
X100600000Y-92337500D03*
X100200000Y-92337500D03*
X99800000Y-92337500D03*
X99400000Y-92337500D03*
X99000000Y-92337500D03*
X98600000Y-92337500D03*
X98200000Y-92337500D03*
X97800000Y-92337500D03*
X97400000Y-92337500D03*
X97000000Y-92337500D03*
X96600000Y-92337500D03*
X96200000Y-92337500D03*
X95800000Y-92337500D03*
X95400000Y-92337500D03*
X95000000Y-92337500D03*
X94600000Y-92337500D03*
X94200000Y-92337500D03*
X93800000Y-92337500D03*
D30*
X100000000Y-100000000D03*
%TD*%
D10*
%TO.C,R111*%
X28090000Y-42000000D03*
X29110000Y-42000000D03*
%TD*%
D19*
%TO.C,Q6*%
X118462500Y-37050000D03*
X118462500Y-38950000D03*
X120337500Y-38000000D03*
%TD*%
D10*
%TO.C,R106*%
X118890000Y-42000000D03*
X119910000Y-42000000D03*
%TD*%
D11*
%TO.C,C11*%
X44720000Y-100700000D03*
X45680000Y-100700000D03*
%TD*%
%TO.C,C122*%
X80520000Y-100000000D03*
X81480000Y-100000000D03*
%TD*%
D10*
%TO.C,R251*%
X116490000Y-56000000D03*
X117510000Y-56000000D03*
%TD*%
D11*
%TO.C,C62*%
X120120000Y-75400000D03*
X121080000Y-75400000D03*
%TD*%
D14*
%TO.C,F1*%
X27862500Y-116000000D03*
X32137500Y-116000000D03*
%TD*%
D11*
%TO.C,C230*%
X75420000Y-56600000D03*
X76380000Y-56600000D03*
%TD*%
%TO.C,C241*%
X80020000Y-62000000D03*
X80980000Y-62000000D03*
%TD*%
%TO.C,C109*%
X106461479Y-115824853D03*
X107421479Y-115824853D03*
%TD*%
%TO.C,C17*%
X67520000Y-122000000D03*
X68480000Y-122000000D03*
%TD*%
%TO.C,C66*%
X123020000Y-76600000D03*
X123980000Y-76600000D03*
%TD*%
%TO.C,C26*%
X86720000Y-120700000D03*
X87680000Y-120700000D03*
%TD*%
%TO.C,C252*%
X117920000Y-54600000D03*
X118880000Y-54600000D03*
%TD*%
D10*
%TO.C,R12*%
X45490000Y-102000000D03*
X46510000Y-102000000D03*
%TD*%
D11*
%TO.C,C281*%
X128020000Y-62000000D03*
X128980000Y-62000000D03*
%TD*%
D10*
%TO.C,R33*%
X104490000Y-119800000D03*
X105510000Y-119800000D03*
%TD*%
D11*
%TO.C,C104*%
X116638408Y-107376023D03*
X117598408Y-107376023D03*
%TD*%
%TO.C,C103*%
X117675883Y-105010837D03*
X118635883Y-105010837D03*
%TD*%
D27*
%TO.C,L11*%
X55150000Y-122000000D03*
X58850000Y-122000000D03*
%TD*%
D11*
%TO.C,C56*%
X75020000Y-76600000D03*
X75980000Y-76600000D03*
%TD*%
D14*
%TO.C,F21*%
X26462500Y-34000000D03*
X30737500Y-34000000D03*
%TD*%
D11*
%TO.C,C65*%
X119020000Y-74000000D03*
X119980000Y-74000000D03*
%TD*%
D10*
%TO.C,R30*%
X69490000Y-118000000D03*
X70510000Y-118000000D03*
%TD*%
D11*
%TO.C,C262*%
X120320000Y-55100000D03*
X121280000Y-55100000D03*
%TD*%
%TO.C,C53*%
X74920000Y-72600000D03*
X75880000Y-72600000D03*
%TD*%
D14*
%TO.C,F26*%
X126462500Y-34000000D03*
X130737500Y-34000000D03*
%TD*%
D11*
%TO.C,C220*%
X70720000Y-56700000D03*
X71680000Y-56700000D03*
%TD*%
D10*
%TO.C,R34*%
X101490000Y-118000000D03*
X102510000Y-118000000D03*
%TD*%
D11*
%TO.C,C232*%
X77720000Y-56800000D03*
X78680000Y-56800000D03*
%TD*%
%TO.C,C210*%
X68120000Y-57400000D03*
X69080000Y-57400000D03*
%TD*%
%TO.C,C106*%
X113447985Y-111562936D03*
X114407985Y-111562936D03*
%TD*%
D10*
%TO.C,R114*%
X88090000Y-42000000D03*
X89110000Y-42000000D03*
%TD*%
D31*
%TO.C,U6*%
X137300000Y-119600000D03*
X137300000Y-120400000D03*
X138700000Y-120400000D03*
X138700000Y-119600000D03*
%TD*%
D11*
%TO.C,C110*%
X103747897Y-116573774D03*
X104707897Y-116573774D03*
%TD*%
D12*
%TO.C,D24*%
X78687500Y-33500000D03*
X78687500Y-34000000D03*
X78687500Y-34500000D03*
X80112500Y-34500000D03*
X80112500Y-33500000D03*
%TD*%
D19*
%TO.C,Q7*%
X138462500Y-37050000D03*
X138462500Y-38950000D03*
X140337500Y-38000000D03*
%TD*%
D11*
%TO.C,C305*%
X98920000Y-46000000D03*
X99880000Y-46000000D03*
%TD*%
D10*
%TO.C,R51*%
X138890000Y-110600000D03*
X139910000Y-110600000D03*
%TD*%
D11*
%TO.C,C270*%
X123420000Y-56600000D03*
X124380000Y-56600000D03*
%TD*%
%TO.C,C136*%
X109020000Y-85277568D03*
X109980000Y-85277568D03*
%TD*%
D10*
%TO.C,R220*%
X68090000Y-58900000D03*
X69110000Y-58900000D03*
%TD*%
D11*
%TO.C,C67*%
X120720000Y-76900000D03*
X121680000Y-76900000D03*
%TD*%
D10*
%TO.C,R66*%
X125390000Y-76200000D03*
X126410000Y-76200000D03*
%TD*%
D14*
%TO.C,F12*%
X46862500Y-38200000D03*
X51137500Y-38200000D03*
%TD*%
D11*
%TO.C,C260*%
X118720000Y-56700000D03*
X119680000Y-56700000D03*
%TD*%
D14*
%TO.C,F25*%
X106462500Y-34000000D03*
X110737500Y-34000000D03*
%TD*%
D32*
%TO.C,U12*%
X64862500Y-115050000D03*
X64862500Y-116000000D03*
X64862500Y-116950000D03*
X67137500Y-116950000D03*
X67137500Y-115050000D03*
%TD*%
D10*
%TO.C,R63*%
X73490000Y-74000000D03*
X74510000Y-74000000D03*
%TD*%
D11*
%TO.C,C132*%
X98100128Y-83047535D03*
X99060128Y-83047535D03*
%TD*%
D12*
%TO.C,D27*%
X138687500Y-33500000D03*
X138687500Y-34000000D03*
X138687500Y-34500000D03*
X140112500Y-34500000D03*
X140112500Y-33500000D03*
%TD*%
D33*
%TO.C,D9*%
X37850000Y-122000000D03*
X42150000Y-122000000D03*
%TD*%
D10*
%TO.C,R61*%
X74290000Y-71100000D03*
X75310000Y-71100000D03*
%TD*%
D11*
%TO.C,C222*%
X72320000Y-55100000D03*
X73280000Y-55100000D03*
%TD*%
%TO.C,C111*%
X100520000Y-115500000D03*
X101480000Y-115500000D03*
%TD*%
%TO.C,C14*%
X50720000Y-130199999D03*
X51680000Y-130199999D03*
%TD*%
D34*
%TO.C,U4*%
X72412500Y-112095000D03*
X72412500Y-113365000D03*
X72412500Y-114635000D03*
X72412500Y-115905000D03*
X79587500Y-115905000D03*
X79587500Y-114635000D03*
X79587500Y-113365000D03*
X79587500Y-112095000D03*
%TD*%
D12*
%TO.C,D28*%
X158687500Y-33500000D03*
X158687500Y-34000000D03*
X158687500Y-34500000D03*
X160112500Y-34500000D03*
X160112500Y-33500000D03*
%TD*%
D11*
%TO.C,C30*%
X70320000Y-119300000D03*
X71280000Y-119300000D03*
%TD*%
D10*
%TO.C,R67*%
X121490000Y-74000000D03*
X122510000Y-74000000D03*
%TD*%
D35*
X97680000Y-122895000D03*
D36*
X97680000Y-127075000D03*
D35*
X106320000Y-122895000D03*
D36*
X106320000Y-127075000D03*
M02*
