M48
; DRILL file KiCad 10.0.4-10.0.4~ubuntu24.04.1 date 2026-07-18T23:46:33
; FORMAT={-:-/ absolute / metric / decimal}
; #@! TF.CreationDate,2026-07-18T23:46:33-07:00
; #@! TF.GenerationSoftware,Kicad,Pcbnew,10.0.4-10.0.4~ubuntu24.04.1
; #@! TF.FileFunction,NonPlated,1,6,NPTH
FMAT,2
METRIC
; #@! TA.AperFunction,NonPlated,NPTH,ComponentDrill
T1C0.650
; #@! TA.AperFunction,NonPlated,NPTH,ComponentDrill
T2C3.200
; #@! TA.AperFunction,NonPlated,NPTH,ComponentDrill
T3C3.250
%
G90
G05
T1
X99.11Y-123.395
X104.89Y-123.395
T2
X13.8Y-13.8
X15.0Y-127.0
X181.0Y-127.0
X182.2Y-13.8
T3
X21.21Y-19.46
X33.91Y-19.46
X41.21Y-19.46
X53.91Y-19.46
X61.21Y-19.46
X73.91Y-19.46
X81.21Y-19.46
X93.91Y-19.46
X101.21Y-19.46
X113.91Y-19.46
X121.21Y-19.46
X133.91Y-19.46
X141.21Y-19.46
X153.91Y-19.46
X161.21Y-19.46
X173.91Y-19.46
M30
