%TF.GenerationSoftware,KiCad,Pcbnew,10.0.4-10.0.4~ubuntu24.04.1*%
%TF.CreationDate,2026-08-19T16:23:43-07:00*%
%TF.ProjectId,usb_controlled_debug_hub,7573625f-636f-46e7-9472-6f6c6c65645f,rev?*%
%TF.SameCoordinates,Original*%
%TF.FileFunction,Paste,Bot*%
%TF.FilePolarity,Positive*%
%FSLAX46Y46*%
G04 Gerber Fmt 4.6, Leading zero omitted, Abs format (unit mm)*
G04 Created by KiCad (PCBNEW 10.0.4-10.0.4~ubuntu24.04.1) date 2026-08-19 16:23:43*
%MOMM*%
%LPD*%
G01*
G04 APERTURE LIST*
G04 Aperture macros list*
%AMRoundRect*
0 Rectangle with rounded corners*
0 $1 Rounding radius*
0 $2 $3 $4 $5 $6 $7 $8 $9 X,Y pos of 4 corners*
0 Add a 4 corners polygon primitive as box body*
4,1,4,$2,$3,$4,$5,$6,$7,$8,$9,$2,$3,0*
0 Add four circle primitives for the rounded corners*
1,1,$1+$1,$2,$3*
1,1,$1+$1,$4,$5*
1,1,$1+$1,$6,$7*
1,1,$1+$1,$8,$9*
0 Add four rect primitives between the rounded corners*
20,1,$1+$1,$2,$3,$4,$5,0*
20,1,$1+$1,$4,$5,$6,$7,0*
20,1,$1+$1,$6,$7,$8,$9,0*
20,1,$1+$1,$8,$9,$2,$3,0*%
G04 Aperture macros list end*
%ADD10RoundRect,0.150000X-0.150000X0.587500X-0.150000X-0.587500X0.150000X-0.587500X0.150000X0.587500X0*%
%ADD11RoundRect,0.087500X0.662500X0.087500X-0.662500X0.087500X-0.662500X-0.087500X0.662500X-0.087500X0*%
%ADD12RoundRect,0.150000X-0.587500X-0.150000X0.587500X-0.150000X0.587500X0.150000X-0.587500X0.150000X0*%
%ADD13RoundRect,0.087500X-0.662500X-0.087500X0.662500X-0.087500X0.662500X0.087500X-0.662500X0.087500X0*%
G04 APERTURE END LIST*
D10*
%TO.C,U_ESD3*%
X106550000Y-35462500D03*
X108450000Y-35462500D03*
X107500000Y-37337500D03*
%TD*%
D11*
%TO.C,U_DATA1*%
X59100000Y-43500000D03*
X59100000Y-44000000D03*
X59100000Y-44500000D03*
X59100000Y-45000000D03*
X59100000Y-45500000D03*
X54900000Y-45500000D03*
X54900000Y-45000000D03*
X54900000Y-44500000D03*
X54900000Y-44000000D03*
X54900000Y-43500000D03*
%TD*%
D12*
%TO.C,U_ESD_UP*%
X29562500Y-57950000D03*
X29562500Y-56050000D03*
X31437500Y-57000000D03*
%TD*%
D10*
%TO.C,U_ESD2*%
X78550000Y-35462500D03*
X80450000Y-35462500D03*
X79500000Y-37337500D03*
%TD*%
%TO.C,U_ESD4*%
X134550000Y-35462500D03*
X136450000Y-35462500D03*
X135500000Y-37337500D03*
%TD*%
%TO.C,U_ESD1*%
X50550000Y-35462500D03*
X52450000Y-35462500D03*
X51500000Y-37337500D03*
%TD*%
D13*
%TO.C,U_DATA3*%
X102900000Y-45500000D03*
X102900000Y-45000000D03*
X102900000Y-44500000D03*
X102900000Y-44000000D03*
X102900000Y-43500000D03*
X107100000Y-43500000D03*
X107100000Y-44000000D03*
X107100000Y-44500000D03*
X107100000Y-45000000D03*
X107100000Y-45500000D03*
%TD*%
D11*
%TO.C,U_DATA2*%
X84100000Y-43500000D03*
X84100000Y-44000000D03*
X84100000Y-44500000D03*
X84100000Y-45000000D03*
X84100000Y-45500000D03*
X79900000Y-45500000D03*
X79900000Y-45000000D03*
X79900000Y-44500000D03*
X79900000Y-44000000D03*
X79900000Y-43500000D03*
%TD*%
D13*
%TO.C,U_DATA4*%
X123900000Y-45500000D03*
X123900000Y-45000000D03*
X123900000Y-44500000D03*
X123900000Y-44000000D03*
X123900000Y-43500000D03*
X128100000Y-43500000D03*
X128100000Y-44000000D03*
X128100000Y-44500000D03*
X128100000Y-45000000D03*
X128100000Y-45500000D03*
%TD*%
M02*
