%TF.GenerationSoftware,KiCad,Pcbnew,10.0.4-10.0.4~ubuntu24.04.1*%
%TF.CreationDate,2026-08-21T00:19:40-07:00*%
%TF.ProjectId,usb_controlled_debug_hub_2a,7573625f-636f-46e7-9472-6f6c6c65645f,rev?*%
%TF.SameCoordinates,Original*%
%TF.FileFunction,Paste,Bot*%
%TF.FilePolarity,Positive*%
%FSLAX46Y46*%
G04 Gerber Fmt 4.6, Leading zero omitted, Abs format (unit mm)*
G04 Created by KiCad (PCBNEW 10.0.4-10.0.4~ubuntu24.04.1) date 2026-08-21 00:19:40*
%MOMM*%
%LPD*%
G01*
G04 APERTURE LIST*
G04 Aperture macros list*
%AMRoundRect*
0 Rectangle with rounded corners*
0 $1 Rounding radius*
0 $2 $3 $4 $5 $6 $7 $8 $9 X,Y pos of 4 corners*
0 Add a 4 corners polygon primitive as box body*
4,1,4,$2,$3,$4,$5,$6,$7,$8,$9,$2,$3,0*
0 Add four circle primitives for the rounded corners*
1,1,$1+$1,$2,$3*
1,1,$1+$1,$4,$5*
1,1,$1+$1,$6,$7*
1,1,$1+$1,$8,$9*
0 Add four rect primitives between the rounded corners*
20,1,$1+$1,$2,$3,$4,$5,0*
20,1,$1+$1,$4,$5,$6,$7,0*
20,1,$1+$1,$6,$7,$8,$9,0*
20,1,$1+$1,$8,$9,$2,$3,0*%
G04 Aperture macros list end*
%ADD10RoundRect,0.150000X-0.587500X-0.150000X0.587500X-0.150000X0.587500X0.150000X-0.587500X0.150000X0*%
%ADD11RoundRect,0.087500X0.087500X-0.662500X0.087500X0.662500X-0.087500X0.662500X-0.087500X-0.662500X0*%
%ADD12RoundRect,0.150000X-0.150000X0.587500X-0.150000X-0.587500X0.150000X-0.587500X0.150000X0.587500X0*%
G04 APERTURE END LIST*
D10*
%TO.C,U_ESD_UP*%
X29562500Y-57950000D03*
X29562500Y-56050000D03*
X31437500Y-57000000D03*
%TD*%
D11*
%TO.C,U_DATA2*%
X84750000Y-42100000D03*
X84250000Y-42100000D03*
X83750000Y-42100000D03*
X83250000Y-42100000D03*
X82750000Y-42100000D03*
X82750000Y-37900000D03*
X83250000Y-37900000D03*
X83750000Y-37900000D03*
X84250000Y-37900000D03*
X84750000Y-37900000D03*
%TD*%
D12*
%TO.C,U_ESD3*%
X110050000Y-30562500D03*
X111950000Y-30562500D03*
X111000000Y-32437500D03*
%TD*%
D11*
%TO.C,U_DATA3*%
X112750000Y-42100000D03*
X112250000Y-42100000D03*
X111750000Y-42100000D03*
X111250000Y-42100000D03*
X110750000Y-42100000D03*
X110750000Y-37900000D03*
X111250000Y-37900000D03*
X111750000Y-37900000D03*
X112250000Y-37900000D03*
X112750000Y-37900000D03*
%TD*%
D12*
%TO.C,U_ESD4*%
X138050000Y-30562500D03*
X139950000Y-30562500D03*
X139000000Y-32437500D03*
%TD*%
%TO.C,U_ESD1*%
X54050000Y-30562500D03*
X55950000Y-30562500D03*
X55000000Y-32437500D03*
%TD*%
D11*
%TO.C,U_DATA4*%
X133000000Y-42100000D03*
X132500000Y-42100000D03*
X132000000Y-42100000D03*
X131500000Y-42100000D03*
X131000000Y-42100000D03*
X131000000Y-37900000D03*
X131500000Y-37900000D03*
X132000000Y-37900000D03*
X132500000Y-37900000D03*
X133000000Y-37900000D03*
%TD*%
D12*
%TO.C,U_ESD2*%
X82050000Y-30562500D03*
X83950000Y-30562500D03*
X83000000Y-32437500D03*
%TD*%
D11*
%TO.C,U_DATA1*%
X56750000Y-42100000D03*
X56250000Y-42100000D03*
X55750000Y-42100000D03*
X55250000Y-42100000D03*
X54750000Y-42100000D03*
X54750000Y-37900000D03*
X55250000Y-37900000D03*
X55750000Y-37900000D03*
X56250000Y-37900000D03*
X56750000Y-37900000D03*
%TD*%
M02*
