M48
; DRILL file KiCad 10.0.4-10.0.4~ubuntu24.04.1 date 2026-08-21T00:19:40
; FORMAT={-:-/ absolute / metric / decimal}
; #@! TF.CreationDate,2026-08-21T00:19:40-07:00
; #@! TF.GenerationSoftware,Kicad,Pcbnew,10.0.4-10.0.4~ubuntu24.04.1
; #@! TF.FileFunction,Plated,1,4,PTH
FMAT,2
METRIC
; #@! TA.AperFunction,Plated,PTH,ViaDrill
T1C0.200
; #@! TA.AperFunction,Plated,PTH,ComponentDrill
T2C0.200
; #@! TA.AperFunction,Plated,PTH,ComponentDrill
T3C0.600
; #@! TA.AperFunction,Plated,PTH,ComponentDrill
T4C0.920
; #@! TA.AperFunction,Plated,PTH,ComponentDrill
T5C2.260
%
G90
G05
T1
X27.32Y-53.8
X27.32Y-60.2
X27.32Y-114.8
X27.32Y-121.2
X28.0Y-59.4
X28.2Y-56.75
X28.2Y-57.75
X28.5Y-116.75
X28.5Y-119.75
X29.0Y-57.25
X29.5Y-64.5
X30.9Y-54.9
X30.9Y-59.1
X31.44Y-57.0
X32.0Y-24.0
X33.0Y-56.4
X33.0Y-58.4
X33.5Y-62.49
X33.5Y-113.5
X34.0Y-51.49
X34.35Y-127.89
X35.95Y-127.89
X36.0Y-58.5
X37.0Y-115.3
X37.0Y-117.0
X37.5Y-129.0
X38.0Y-56.8
X38.0Y-65.49
X38.0Y-119.0
X38.51Y-82.0
X39.0Y-63.51
X40.0Y-24.0
X40.68Y-72.0
X41.0Y-117.3
X41.0Y-118.7
X43.55Y-71.03
X44.5Y-68.5
X45.23Y-116.13
X45.4Y-52.08
X45.6Y-53.2
X45.6Y-54.4
X45.99Y-53.77
X46.4Y-53.2
X46.4Y-54.4
X46.51Y-85.0
X47.0Y-56.9
X47.0Y-116.22
X47.09Y-55.7
X47.45Y-121.171
X48.0Y-24.0
X48.0Y-32.0
X48.0Y-40.0
X48.0Y-48.0
X48.0Y-108.53
X48.27Y-56.52
X48.3Y-72.49
X48.4Y-114.725
X48.4Y-117.325
X48.83Y-57.48
X49.0Y-114.725
X49.0Y-117.325
X49.0Y-125.8
X49.03Y-119.28
X49.2Y-63.51
X49.5Y-61.7
X49.5Y-70.5
X49.52Y-74.0
X49.6Y-114.725
X49.6Y-117.325
X49.8Y-54.23
X50.0Y-62.49
X50.2Y-126.5
X50.3Y-74.8
X50.48Y-69.0
X50.48Y-73.0
X50.5Y-60.7
X50.51Y-85.0
X50.6Y-71.0
X50.62Y-49.5
X51.2Y-117.0
X51.6Y-71.0
X51.8Y-126.5
X52.0Y-108.53
X52.48Y-52.0
X52.6Y-117.0
X54.4Y-55.7
X54.51Y-85.0
X54.75Y-43.6
X54.97Y-119.28
X55.0Y-32.44
X55.5Y-113.0
X55.98Y-56.0
X56.0Y-24.0
X56.0Y-40.0
X56.0Y-48.0
X56.25Y-43.4
X56.51Y-126.5
X58.0Y-118.625
X58.0Y-120.0
X58.0Y-120.8
X58.4Y-114.8
X58.4Y-115.6
X58.4Y-116.4
X58.8Y-40.1
X58.8Y-120.0
X58.8Y-120.8
X59.2Y-114.8
X59.2Y-115.6
X59.2Y-116.4
X59.6Y-120.0
X59.6Y-120.8
X59.92Y-123.47
X60.0Y-114.8
X60.0Y-115.6
X60.1Y-44.0
X60.2Y-37.9
X60.4Y-120.0
X60.4Y-120.8
X60.48Y-35.0
X61.0Y-46.0
X62.6Y-54.2
X62.6Y-55.0
X62.7Y-48.0
X63.4Y-54.2
X63.4Y-55.0
X63.8Y-74.0
X64.0Y-24.0
X64.0Y-32.0
X64.0Y-116.22
X64.5Y-74.7
X64.51Y-48.0
X64.83Y-113.0
X66.2Y-71.6
X66.9Y-72.3
X67.14Y-123.95
X68.32Y-74.05
X68.6Y-64.0
X68.6Y-64.8
X69.4Y-64.0
X69.4Y-64.8
X69.6Y-65.6
X69.6Y-66.4
X70.4Y-65.6
X70.4Y-66.4
X70.49Y-49.2
X72.0Y-24.0
X72.0Y-32.0
X72.0Y-40.0
X72.0Y-48.0
X72.53Y-50.0
X72.69Y-53.77
X73.6Y-53.2
X73.6Y-54.4
X74.4Y-53.2
X74.4Y-54.4
X75.09Y-52.3
X75.77Y-57.48
X75.95Y-52.08
X76.27Y-56.52
X76.86Y-74.05
X77.1Y-51.4
X77.3Y-79.5
X77.634Y-54.424
X78.0Y-53.77
X78.0Y-64.3
X78.0Y-74.7
X78.2Y-80.0
X78.4Y-92.7
X78.6Y-77.1
X78.62Y-49.5
X78.65Y-64.95
X78.65Y-75.35
X78.8Y-50.5
X79.0Y-119.03
X79.0Y-124.53
X79.2Y-71.0
X79.2Y-74.0
X79.4Y-59.3
X79.6Y-92.7
X79.8Y-63.8
X80.0Y-76.7
X80.2Y-75.0
X80.4Y-84.4
X80.4Y-86.0
X80.5Y-69.5
X80.6Y-50.5
X80.7Y-78.1
X80.78Y-75.8
X81.01Y-71.0
X81.2Y-47.2
X81.3Y-61.2
X81.5Y-59.545
X81.5Y-60.455
X81.5Y-68.5
X81.51Y-52.0
X81.8Y-74.0
X82.0Y-78.7
X82.2Y-67.9
X82.4Y-63.095
X82.4Y-64.005
X82.5Y-48.5
X82.5Y-49.7
X82.646Y-42.691
X82.7Y-71.7
X82.8Y-67.0
X83.2Y-72.2
X83.4Y-32.438
X83.52Y-69.1
X83.8Y-70.8
X83.97Y-56.0
X84.0Y-73.0
X84.1Y-62.5
X84.25Y-41.2
X84.3Y-68.2
X84.4Y-112.5
X84.4Y-115.4
X84.4Y-116.2
X84.48Y-70.0
X84.5Y-66.1
X84.8Y-64.545
X84.8Y-65.455
X84.8Y-118.8
X84.8Y-119.6
X84.995Y-68.05
X85.0Y-72.0
X85.1Y-44.0
X85.2Y-112.5
X85.2Y-115.4
X85.2Y-116.2
X85.48Y-35.0
X85.6Y-118.8
X85.6Y-119.6
X85.905Y-68.05
X86.0Y-46.0
X86.0Y-112.5
X86.0Y-115.4
X86.0Y-116.2
X86.1Y-42.1
X86.3Y-72.2
X86.3Y-73.6
X86.4Y-60.8
X86.4Y-118.8
X86.4Y-119.6
X86.48Y-52.0
X86.49Y-124.5
X86.6Y-63.2
X86.9Y-45.8
X86.9Y-65.7
X87.1Y-117.25
X87.2Y-118.8
X87.2Y-119.6
X87.3Y-79.5
X87.4Y-54.65
X87.48Y-59.0
X87.7Y-63.25
X87.7Y-65.75
X87.8Y-79.0
X87.98Y-71.0
X88.0Y-41.1
X88.0Y-58.0
X88.0Y-109.53
X88.11Y-115.6
X88.8Y-71.7
X88.83Y-116.35
X88.98Y-50.0
X89.25Y-60.587
X89.4Y-75.5
X89.51Y-48.0
X90.0Y-56.35
X90.2Y-68.5
X90.48Y-71.6
X90.51Y-125.5
X90.7Y-61.5
X90.75Y-69.412
X91.0Y-50.0
X91.25Y-70.3
X91.4Y-61.5
X91.5Y-111.03
X91.75Y-68.45
X91.75Y-69.412
X92.0Y-71.88
X92.0Y-73.6
X92.1Y-61.7
X92.25Y-68.85
X92.3Y-74.7
X92.75Y-69.412
X92.8Y-73.6
X92.9Y-59.3
X93.6Y-73.6
X93.75Y-59.55
X93.98Y-58.5
X94.25Y-59.9
X94.25Y-69.412
X94.3Y-56.0
X94.3Y-71.3
X94.4Y-62.2
X94.9Y-85.4
X95.2Y-70.9
X95.4Y-72.0
X95.4Y-73.6
X95.52Y-59.0
X95.53Y-52.0
X95.75Y-70.3
X96.25Y-60.1
X96.3Y-62.6
X96.4Y-79.5
X96.48Y-55.0
X96.48Y-59.0
X96.5Y-64.1
X96.5Y-65.5
X96.5Y-68.4
X96.7Y-46.8
X96.7Y-48.0
X97.412Y-61.75
X97.412Y-62.75
X97.412Y-68.25
X97.6Y-70.0
X97.6Y-72.1
X97.9Y-64.25
X98.0Y-54.9
X98.15Y-63.35
X98.49Y-49.2
X98.51Y-48.0
X98.6Y-71.0
X98.74Y-64.0
X98.9Y-57.9
X99.0Y-46.0
X99.01Y-55.55
X99.1Y-70.5
X99.3Y-73.1
X99.464Y-61.45
X99.51Y-125.5
X99.8Y-85.35
X99.8Y-87.3
X99.88Y-59.0
X99.9Y-69.7
X100.1Y-64.6
X100.3Y-65.7
X100.39Y-49.46
X100.8Y-68.8
X101.0Y-56.0
X101.1Y-57.4
X101.2Y-65.8
X101.3Y-74.6
X101.4Y-87.95
X101.6Y-53.2
X101.6Y-54.4
X101.9Y-58.2
X101.99Y-53.77
X102.0Y-56.0
X102.2Y-61.2
X102.4Y-53.2
X102.4Y-54.4
X102.4Y-59.4
X102.48Y-35.0
X102.48Y-63.91
X102.48Y-65.0
X102.48Y-68.0
X102.7Y-71.5
X102.7Y-88.1
X102.7Y-89.7
X103.0Y-56.0
X103.09Y-52.3
X103.4Y-60.4
X103.8Y-66.5
X103.8Y-68.0
X103.97Y-52.08
X104.2Y-58.2
X104.2Y-61.9
X104.27Y-56.52
X104.6Y-57.7
X104.8Y-88.1
X104.8Y-90.2
X105.0Y-50.9
X105.0Y-67.43
X105.634Y-54.424
X105.7Y-62.0
X106.0Y-113.03
X106.0Y-118.53
X106.09Y-69.38
X106.2Y-81.4
X106.62Y-49.5
X106.9Y-80.7
X107.0Y-55.2
X107.3Y-59.6
X107.3Y-69.3
X107.7Y-71.1
X108.0Y-45.0
X108.0Y-49.0
X108.0Y-86.0
X108.2Y-87.95
X108.48Y-52.0
X108.5Y-45.5
X108.5Y-49.5
X108.51Y-92.0
X108.51Y-96.0
X109.0Y-108.2
X109.0Y-109.0
X109.18Y-83.48
X109.2Y-86.6
X109.5Y-58.5
X109.8Y-108.2
X109.8Y-109.0
X110.1Y-86.7
X110.29Y-43.4
X110.48Y-111.5
X110.48Y-117.0
X110.51Y-70.0
X110.6Y-108.2
X110.6Y-109.0
X110.7Y-90.7
X110.8Y-87.4
X111.0Y-32.44
X111.0Y-56.0
X111.3Y-86.9
X111.31Y-54.18
X111.4Y-58.2
X111.4Y-108.2
X111.4Y-109.0
X111.7Y-91.7
X112.25Y-43.4
X112.49Y-62.0
X112.75Y-36.8
X112.8Y-88.2
X113.0Y-54.0
X113.0Y-54.8
X113.0Y-56.0
X113.0Y-69.3
X113.51Y-70.0
X113.6Y-83.9
X113.6Y-92.8
X113.8Y-54.0
X113.8Y-54.8
X114.0Y-56.0
X114.2Y-34.3
X114.51Y-92.0
X114.51Y-96.0
X114.8Y-82.7
X115.0Y-56.0
X115.4Y-85.35
X115.4Y-86.65
X115.45Y-87.95
X115.69Y-116.0
X115.75Y-117.0
X115.8Y-34.3
X116.0Y-84.7
X116.0Y-86.0
X116.0Y-87.3
X116.42Y-111.99
X116.5Y-64.2
X116.5Y-78.1
X117.2Y-70.0
X117.55Y-76.37
X118.0Y-62.7
X118.1Y-78.2
X119.2Y-48.0
X119.2Y-70.0
X119.5Y-77.625
X119.78Y-108.0
X119.97Y-116.0
X120.03Y-112.8
X120.2Y-70.0
X121.01Y-49.07
X121.1Y-83.0
X121.2Y-119.6
X121.2Y-120.4
X121.5Y-46.0
X121.7Y-77.0
X121.7Y-79.0
X122.0Y-119.6
X122.0Y-120.4
X122.0Y-121.2
X122.2Y-70.0
X122.2Y-71.3
X122.3Y-75.8
X122.7Y-126.0
X122.8Y-120.4
X122.862Y-85.35
X122.862Y-87.3
X123.4Y-76.1
X123.4Y-81.4
X124.0Y-84.7
X124.0Y-86.0
X124.0Y-117.53
X124.2Y-76.1
X124.3Y-86.7
X124.3Y-93.6
X124.51Y-96.0
X124.98Y-35.0
X125.01Y-62.0
X125.2Y-70.0
X125.48Y-84.0
X125.53Y-92.0
X126.49Y-49.2
X126.5Y-78.92
X126.5Y-80.22
X127.1Y-93.6
X127.97Y-80.05
X128.0Y-71.775
X128.0Y-75.675
X128.4Y-40.2
X128.4Y-112.5
X128.4Y-115.4
X128.4Y-116.2
X128.53Y-50.0
X128.8Y-118.8
X128.8Y-119.6
X129.2Y-112.5
X129.2Y-115.4
X129.2Y-116.2
X129.5Y-75.7
X129.6Y-53.2
X129.6Y-54.4
X129.6Y-118.8
X129.6Y-119.6
X129.99Y-53.77
X130.0Y-112.5
X130.0Y-115.4
X130.0Y-116.2
X130.3Y-75.0
X130.4Y-53.2
X130.4Y-54.4
X130.4Y-118.8
X130.4Y-119.6
X130.49Y-124.5
X130.51Y-92.0
X130.51Y-96.0
X130.54Y-43.4
X130.6Y-84.8
X130.9Y-81.5
X131.0Y-80.7
X131.09Y-52.3
X131.1Y-117.25
X131.2Y-118.8
X131.2Y-119.6
X131.6Y-84.3
X132.0Y-109.53
X132.11Y-115.6
X132.27Y-56.52
X132.41Y-52.08
X132.5Y-43.4
X132.8Y-80.7
X132.83Y-57.48
X132.83Y-116.35
X133.2Y-41.3
X133.8Y-54.23
X134.51Y-125.5
X134.62Y-49.5
X135.5Y-111.03
X136.48Y-52.0
X139.0Y-32.44
X139.4Y-64.0
X139.4Y-64.8
X139.97Y-56.0
X140.2Y-64.0
X140.2Y-64.8
X143.51Y-125.5
X150.0Y-113.03
X150.0Y-118.53
X153.0Y-108.2
X153.0Y-109.0
X153.8Y-108.2
X153.8Y-109.0
X154.48Y-111.5
X154.48Y-117.0
X154.6Y-108.2
X154.6Y-109.0
X155.4Y-108.2
X155.4Y-109.0
X159.69Y-116.0
X159.75Y-117.0
X160.43Y-111.99
X160.7Y-127.0
X161.05Y-109.5
X163.78Y-108.0
X163.97Y-116.0
X164.0Y-120.53
X164.03Y-112.8
T2
X34.45Y-127.0
X35.55Y-127.0
X44.425Y-71.05
X44.425Y-72.0
X44.425Y-72.95
X45.575Y-71.05
X45.575Y-72.0
X45.575Y-72.95
X90.9Y-62.9
X90.9Y-64.3
X90.9Y-65.7
X90.9Y-67.1
X92.3Y-62.9
X92.3Y-64.3
X92.3Y-65.7
X92.3Y-67.1
X93.7Y-62.9
X93.7Y-64.3
X93.7Y-65.7
X93.7Y-67.1
X95.1Y-62.9
X95.1Y-64.3
X95.1Y-65.7
X95.1Y-67.1
T4
X52.0Y-28.51
X54.0Y-28.51
X56.0Y-28.51
X58.0Y-28.51
X80.0Y-28.51
X82.0Y-28.51
X84.0Y-28.51
X86.0Y-28.51
X108.0Y-28.51
X110.0Y-28.51
X112.0Y-28.51
X114.0Y-28.51
X136.0Y-28.51
X138.0Y-28.51
X140.0Y-28.51
X142.0Y-28.51
T5
X51.5Y-25.8
X58.5Y-25.8
X79.5Y-25.8
X86.5Y-25.8
X107.5Y-25.8
X114.5Y-25.8
X135.5Y-25.8
X142.5Y-25.8
T3
G00X22.97Y-52.675
M15
G01X22.17Y-52.675
M16
G05
G00X22.97Y-61.325
M15
G01X22.17Y-61.325
M16
G05
G00X22.97Y-113.675
M15
G01X22.17Y-113.675
M16
G05
G00X22.97Y-122.325
M15
G01X22.17Y-122.325
M16
G05
G00X27.3Y-52.675
M15
G01X26.2Y-52.675
M16
G05
G00X27.3Y-61.325
M15
G01X26.2Y-61.325
M16
G05
G00X27.3Y-113.675
M15
G01X26.2Y-113.675
M16
G05
G00X27.3Y-122.325
M15
G01X26.2Y-122.325
M16
G05
M30
