%TF.GenerationSoftware,KiCad,Pcbnew,10.0.4-10.0.4~ubuntu24.04.1*%
%TF.CreationDate,2026-08-21T00:19:40-07:00*%
%TF.ProjectId,usb_controlled_debug_hub_2a,7573625f-636f-46e7-9472-6f6c6c65645f,rev?*%
%TF.SameCoordinates,Original*%
%TF.FileFunction,Legend,Bot*%
%TF.FilePolarity,Positive*%
%FSLAX46Y46*%
G04 Gerber Fmt 4.6, Leading zero omitted, Abs format (unit mm)*
G04 Created by KiCad (PCBNEW 10.0.4-10.0.4~ubuntu24.04.1) date 2026-08-21 00:19:40*
%MOMM*%
%LPD*%
G01*
G04 APERTURE LIST*
G04 Aperture macros list*
%AMRoundRect*
0 Rectangle with rounded corners*
0 $1 Rounding radius*
0 $2 $3 $4 $5 $6 $7 $8 $9 X,Y pos of 4 corners*
0 Add a 4 corners polygon primitive as box body*
4,1,4,$2,$3,$4,$5,$6,$7,$8,$9,$2,$3,0*
0 Add four circle primitives for the rounded corners*
1,1,$1+$1,$2,$3*
1,1,$1+$1,$4,$5*
1,1,$1+$1,$6,$7*
1,1,$1+$1,$8,$9*
0 Add four rect primitives between the rounded corners*
20,1,$1+$1,$2,$3,$4,$5,0*
20,1,$1+$1,$4,$5,$6,$7,0*
20,1,$1+$1,$6,$7,$8,$9,0*
20,1,$1+$1,$8,$9,$2,$3,0*%
G04 Aperture macros list end*
%ADD10C,0.112500*%
%ADD11C,0.140000*%
%ADD12C,0.120000*%
%ADD13C,0.600000*%
%ADD14O,2.000000X0.900000*%
%ADD15O,1.700000X0.900000*%
%ADD16C,3.200000*%
%ADD17R,1.750000X1.750000*%
%ADD18C,1.750000*%
%ADD19O,3.300000X3.300000*%
%ADD20RoundRect,0.150000X-0.587500X-0.150000X0.587500X-0.150000X0.587500X0.150000X-0.587500X0.150000X0*%
%ADD21RoundRect,0.087500X0.087500X-0.662500X0.087500X0.662500X-0.087500X0.662500X-0.087500X-0.662500X0*%
%ADD22RoundRect,0.150000X-0.150000X0.587500X-0.150000X-0.587500X0.150000X-0.587500X0.150000X0.587500X0*%
G04 APERTURE END LIST*
D10*
X36749999Y-56725459D02*
X36749999Y-57130221D01*
X36749999Y-57130221D02*
X36726189Y-57177840D01*
X36726189Y-57177840D02*
X36702380Y-57201650D01*
X36702380Y-57201650D02*
X36654761Y-57225459D01*
X36654761Y-57225459D02*
X36559523Y-57225459D01*
X36559523Y-57225459D02*
X36511904Y-57201650D01*
X36511904Y-57201650D02*
X36488094Y-57177840D01*
X36488094Y-57177840D02*
X36464285Y-57130221D01*
X36464285Y-57130221D02*
X36464285Y-56725459D01*
X36345237Y-57273078D02*
X35964284Y-57273078D01*
X35845237Y-56963554D02*
X35678570Y-56963554D01*
X35607142Y-57225459D02*
X35845237Y-57225459D01*
X35845237Y-57225459D02*
X35845237Y-56725459D01*
X35845237Y-56725459D02*
X35607142Y-56725459D01*
X35416665Y-57201650D02*
X35345237Y-57225459D01*
X35345237Y-57225459D02*
X35226189Y-57225459D01*
X35226189Y-57225459D02*
X35178570Y-57201650D01*
X35178570Y-57201650D02*
X35154761Y-57177840D01*
X35154761Y-57177840D02*
X35130951Y-57130221D01*
X35130951Y-57130221D02*
X35130951Y-57082602D01*
X35130951Y-57082602D02*
X35154761Y-57034983D01*
X35154761Y-57034983D02*
X35178570Y-57011173D01*
X35178570Y-57011173D02*
X35226189Y-56987364D01*
X35226189Y-56987364D02*
X35321427Y-56963554D01*
X35321427Y-56963554D02*
X35369046Y-56939745D01*
X35369046Y-56939745D02*
X35392856Y-56915935D01*
X35392856Y-56915935D02*
X35416665Y-56868316D01*
X35416665Y-56868316D02*
X35416665Y-56820697D01*
X35416665Y-56820697D02*
X35392856Y-56773078D01*
X35392856Y-56773078D02*
X35369046Y-56749269D01*
X35369046Y-56749269D02*
X35321427Y-56725459D01*
X35321427Y-56725459D02*
X35202380Y-56725459D01*
X35202380Y-56725459D02*
X35130951Y-56749269D01*
X34916666Y-57225459D02*
X34916666Y-56725459D01*
X34916666Y-56725459D02*
X34797618Y-56725459D01*
X34797618Y-56725459D02*
X34726190Y-56749269D01*
X34726190Y-56749269D02*
X34678571Y-56796888D01*
X34678571Y-56796888D02*
X34654761Y-56844507D01*
X34654761Y-56844507D02*
X34630952Y-56939745D01*
X34630952Y-56939745D02*
X34630952Y-57011173D01*
X34630952Y-57011173D02*
X34654761Y-57106411D01*
X34654761Y-57106411D02*
X34678571Y-57154030D01*
X34678571Y-57154030D02*
X34726190Y-57201650D01*
X34726190Y-57201650D02*
X34797618Y-57225459D01*
X34797618Y-57225459D02*
X34916666Y-57225459D01*
X34535714Y-57273078D02*
X34154761Y-57273078D01*
X34035714Y-56725459D02*
X34035714Y-57130221D01*
X34035714Y-57130221D02*
X34011904Y-57177840D01*
X34011904Y-57177840D02*
X33988095Y-57201650D01*
X33988095Y-57201650D02*
X33940476Y-57225459D01*
X33940476Y-57225459D02*
X33845238Y-57225459D01*
X33845238Y-57225459D02*
X33797619Y-57201650D01*
X33797619Y-57201650D02*
X33773809Y-57177840D01*
X33773809Y-57177840D02*
X33750000Y-57130221D01*
X33750000Y-57130221D02*
X33750000Y-56725459D01*
X33511904Y-57225459D02*
X33511904Y-56725459D01*
X33511904Y-56725459D02*
X33321428Y-56725459D01*
X33321428Y-56725459D02*
X33273809Y-56749269D01*
X33273809Y-56749269D02*
X33249999Y-56773078D01*
X33249999Y-56773078D02*
X33226190Y-56820697D01*
X33226190Y-56820697D02*
X33226190Y-56892126D01*
X33226190Y-56892126D02*
X33249999Y-56939745D01*
X33249999Y-56939745D02*
X33273809Y-56963554D01*
X33273809Y-56963554D02*
X33321428Y-56987364D01*
X33321428Y-56987364D02*
X33511904Y-56987364D01*
D11*
X81266666Y-39616553D02*
X81266666Y-40183220D01*
X81266666Y-40183220D02*
X81233333Y-40249886D01*
X81233333Y-40249886D02*
X81199999Y-40283220D01*
X81199999Y-40283220D02*
X81133333Y-40316553D01*
X81133333Y-40316553D02*
X80999999Y-40316553D01*
X80999999Y-40316553D02*
X80933333Y-40283220D01*
X80933333Y-40283220D02*
X80899999Y-40249886D01*
X80899999Y-40249886D02*
X80866666Y-40183220D01*
X80866666Y-40183220D02*
X80866666Y-39616553D01*
X80700000Y-40383220D02*
X80166666Y-40383220D01*
X80000000Y-40316553D02*
X80000000Y-39616553D01*
X80000000Y-39616553D02*
X79833333Y-39616553D01*
X79833333Y-39616553D02*
X79733333Y-39649886D01*
X79733333Y-39649886D02*
X79666667Y-39716553D01*
X79666667Y-39716553D02*
X79633333Y-39783220D01*
X79633333Y-39783220D02*
X79600000Y-39916553D01*
X79600000Y-39916553D02*
X79600000Y-40016553D01*
X79600000Y-40016553D02*
X79633333Y-40149886D01*
X79633333Y-40149886D02*
X79666667Y-40216553D01*
X79666667Y-40216553D02*
X79733333Y-40283220D01*
X79733333Y-40283220D02*
X79833333Y-40316553D01*
X79833333Y-40316553D02*
X80000000Y-40316553D01*
X79333333Y-40116553D02*
X79000000Y-40116553D01*
X79400000Y-40316553D02*
X79166667Y-39616553D01*
X79166667Y-39616553D02*
X78933333Y-40316553D01*
X78800000Y-39616553D02*
X78400000Y-39616553D01*
X78600000Y-40316553D02*
X78600000Y-39616553D01*
X78200000Y-40116553D02*
X77866667Y-40116553D01*
X78266667Y-40316553D02*
X78033334Y-39616553D01*
X78033334Y-39616553D02*
X77800000Y-40316553D01*
X77600000Y-39683220D02*
X77566667Y-39649886D01*
X77566667Y-39649886D02*
X77500000Y-39616553D01*
X77500000Y-39616553D02*
X77333334Y-39616553D01*
X77333334Y-39616553D02*
X77266667Y-39649886D01*
X77266667Y-39649886D02*
X77233334Y-39683220D01*
X77233334Y-39683220D02*
X77200000Y-39749886D01*
X77200000Y-39749886D02*
X77200000Y-39816553D01*
X77200000Y-39816553D02*
X77233334Y-39916553D01*
X77233334Y-39916553D02*
X77633334Y-40316553D01*
X77633334Y-40316553D02*
X77200000Y-40316553D01*
X112799999Y-34016553D02*
X112799999Y-34583220D01*
X112799999Y-34583220D02*
X112766666Y-34649886D01*
X112766666Y-34649886D02*
X112733332Y-34683220D01*
X112733332Y-34683220D02*
X112666666Y-34716553D01*
X112666666Y-34716553D02*
X112533332Y-34716553D01*
X112533332Y-34716553D02*
X112466666Y-34683220D01*
X112466666Y-34683220D02*
X112433332Y-34649886D01*
X112433332Y-34649886D02*
X112399999Y-34583220D01*
X112399999Y-34583220D02*
X112399999Y-34016553D01*
X112233333Y-34783220D02*
X111699999Y-34783220D01*
X111533333Y-34349886D02*
X111300000Y-34349886D01*
X111200000Y-34716553D02*
X111533333Y-34716553D01*
X111533333Y-34716553D02*
X111533333Y-34016553D01*
X111533333Y-34016553D02*
X111200000Y-34016553D01*
X110933333Y-34683220D02*
X110833333Y-34716553D01*
X110833333Y-34716553D02*
X110666667Y-34716553D01*
X110666667Y-34716553D02*
X110600000Y-34683220D01*
X110600000Y-34683220D02*
X110566667Y-34649886D01*
X110566667Y-34649886D02*
X110533333Y-34583220D01*
X110533333Y-34583220D02*
X110533333Y-34516553D01*
X110533333Y-34516553D02*
X110566667Y-34449886D01*
X110566667Y-34449886D02*
X110600000Y-34416553D01*
X110600000Y-34416553D02*
X110666667Y-34383220D01*
X110666667Y-34383220D02*
X110800000Y-34349886D01*
X110800000Y-34349886D02*
X110866667Y-34316553D01*
X110866667Y-34316553D02*
X110900000Y-34283220D01*
X110900000Y-34283220D02*
X110933333Y-34216553D01*
X110933333Y-34216553D02*
X110933333Y-34149886D01*
X110933333Y-34149886D02*
X110900000Y-34083220D01*
X110900000Y-34083220D02*
X110866667Y-34049886D01*
X110866667Y-34049886D02*
X110800000Y-34016553D01*
X110800000Y-34016553D02*
X110633333Y-34016553D01*
X110633333Y-34016553D02*
X110533333Y-34049886D01*
X110233333Y-34716553D02*
X110233333Y-34016553D01*
X110233333Y-34016553D02*
X110066666Y-34016553D01*
X110066666Y-34016553D02*
X109966666Y-34049886D01*
X109966666Y-34049886D02*
X109900000Y-34116553D01*
X109900000Y-34116553D02*
X109866666Y-34183220D01*
X109866666Y-34183220D02*
X109833333Y-34316553D01*
X109833333Y-34316553D02*
X109833333Y-34416553D01*
X109833333Y-34416553D02*
X109866666Y-34549886D01*
X109866666Y-34549886D02*
X109900000Y-34616553D01*
X109900000Y-34616553D02*
X109966666Y-34683220D01*
X109966666Y-34683220D02*
X110066666Y-34716553D01*
X110066666Y-34716553D02*
X110233333Y-34716553D01*
X109600000Y-34016553D02*
X109166666Y-34016553D01*
X109166666Y-34016553D02*
X109400000Y-34283220D01*
X109400000Y-34283220D02*
X109300000Y-34283220D01*
X109300000Y-34283220D02*
X109233333Y-34316553D01*
X109233333Y-34316553D02*
X109200000Y-34349886D01*
X109200000Y-34349886D02*
X109166666Y-34416553D01*
X109166666Y-34416553D02*
X109166666Y-34583220D01*
X109166666Y-34583220D02*
X109200000Y-34649886D01*
X109200000Y-34649886D02*
X109233333Y-34683220D01*
X109233333Y-34683220D02*
X109300000Y-34716553D01*
X109300000Y-34716553D02*
X109500000Y-34716553D01*
X109500000Y-34716553D02*
X109566666Y-34683220D01*
X109566666Y-34683220D02*
X109600000Y-34649886D01*
X113766666Y-44016553D02*
X113766666Y-44583220D01*
X113766666Y-44583220D02*
X113733333Y-44649886D01*
X113733333Y-44649886D02*
X113699999Y-44683220D01*
X113699999Y-44683220D02*
X113633333Y-44716553D01*
X113633333Y-44716553D02*
X113499999Y-44716553D01*
X113499999Y-44716553D02*
X113433333Y-44683220D01*
X113433333Y-44683220D02*
X113399999Y-44649886D01*
X113399999Y-44649886D02*
X113366666Y-44583220D01*
X113366666Y-44583220D02*
X113366666Y-44016553D01*
X113200000Y-44783220D02*
X112666666Y-44783220D01*
X112500000Y-44716553D02*
X112500000Y-44016553D01*
X112500000Y-44016553D02*
X112333333Y-44016553D01*
X112333333Y-44016553D02*
X112233333Y-44049886D01*
X112233333Y-44049886D02*
X112166667Y-44116553D01*
X112166667Y-44116553D02*
X112133333Y-44183220D01*
X112133333Y-44183220D02*
X112100000Y-44316553D01*
X112100000Y-44316553D02*
X112100000Y-44416553D01*
X112100000Y-44416553D02*
X112133333Y-44549886D01*
X112133333Y-44549886D02*
X112166667Y-44616553D01*
X112166667Y-44616553D02*
X112233333Y-44683220D01*
X112233333Y-44683220D02*
X112333333Y-44716553D01*
X112333333Y-44716553D02*
X112500000Y-44716553D01*
X111833333Y-44516553D02*
X111500000Y-44516553D01*
X111900000Y-44716553D02*
X111666667Y-44016553D01*
X111666667Y-44016553D02*
X111433333Y-44716553D01*
X111300000Y-44016553D02*
X110900000Y-44016553D01*
X111100000Y-44716553D02*
X111100000Y-44016553D01*
X110700000Y-44516553D02*
X110366667Y-44516553D01*
X110766667Y-44716553D02*
X110533334Y-44016553D01*
X110533334Y-44016553D02*
X110300000Y-44716553D01*
X110133334Y-44016553D02*
X109700000Y-44016553D01*
X109700000Y-44016553D02*
X109933334Y-44283220D01*
X109933334Y-44283220D02*
X109833334Y-44283220D01*
X109833334Y-44283220D02*
X109766667Y-44316553D01*
X109766667Y-44316553D02*
X109733334Y-44349886D01*
X109733334Y-44349886D02*
X109700000Y-44416553D01*
X109700000Y-44416553D02*
X109700000Y-44583220D01*
X109700000Y-44583220D02*
X109733334Y-44649886D01*
X109733334Y-44649886D02*
X109766667Y-44683220D01*
X109766667Y-44683220D02*
X109833334Y-44716553D01*
X109833334Y-44716553D02*
X110033334Y-44716553D01*
X110033334Y-44716553D02*
X110100000Y-44683220D01*
X110100000Y-44683220D02*
X110133334Y-44649886D01*
X140799999Y-34016553D02*
X140799999Y-34583220D01*
X140799999Y-34583220D02*
X140766666Y-34649886D01*
X140766666Y-34649886D02*
X140733332Y-34683220D01*
X140733332Y-34683220D02*
X140666666Y-34716553D01*
X140666666Y-34716553D02*
X140533332Y-34716553D01*
X140533332Y-34716553D02*
X140466666Y-34683220D01*
X140466666Y-34683220D02*
X140433332Y-34649886D01*
X140433332Y-34649886D02*
X140399999Y-34583220D01*
X140399999Y-34583220D02*
X140399999Y-34016553D01*
X140233333Y-34783220D02*
X139699999Y-34783220D01*
X139533333Y-34349886D02*
X139300000Y-34349886D01*
X139200000Y-34716553D02*
X139533333Y-34716553D01*
X139533333Y-34716553D02*
X139533333Y-34016553D01*
X139533333Y-34016553D02*
X139200000Y-34016553D01*
X138933333Y-34683220D02*
X138833333Y-34716553D01*
X138833333Y-34716553D02*
X138666667Y-34716553D01*
X138666667Y-34716553D02*
X138600000Y-34683220D01*
X138600000Y-34683220D02*
X138566667Y-34649886D01*
X138566667Y-34649886D02*
X138533333Y-34583220D01*
X138533333Y-34583220D02*
X138533333Y-34516553D01*
X138533333Y-34516553D02*
X138566667Y-34449886D01*
X138566667Y-34449886D02*
X138600000Y-34416553D01*
X138600000Y-34416553D02*
X138666667Y-34383220D01*
X138666667Y-34383220D02*
X138800000Y-34349886D01*
X138800000Y-34349886D02*
X138866667Y-34316553D01*
X138866667Y-34316553D02*
X138900000Y-34283220D01*
X138900000Y-34283220D02*
X138933333Y-34216553D01*
X138933333Y-34216553D02*
X138933333Y-34149886D01*
X138933333Y-34149886D02*
X138900000Y-34083220D01*
X138900000Y-34083220D02*
X138866667Y-34049886D01*
X138866667Y-34049886D02*
X138800000Y-34016553D01*
X138800000Y-34016553D02*
X138633333Y-34016553D01*
X138633333Y-34016553D02*
X138533333Y-34049886D01*
X138233333Y-34716553D02*
X138233333Y-34016553D01*
X138233333Y-34016553D02*
X138066666Y-34016553D01*
X138066666Y-34016553D02*
X137966666Y-34049886D01*
X137966666Y-34049886D02*
X137900000Y-34116553D01*
X137900000Y-34116553D02*
X137866666Y-34183220D01*
X137866666Y-34183220D02*
X137833333Y-34316553D01*
X137833333Y-34316553D02*
X137833333Y-34416553D01*
X137833333Y-34416553D02*
X137866666Y-34549886D01*
X137866666Y-34549886D02*
X137900000Y-34616553D01*
X137900000Y-34616553D02*
X137966666Y-34683220D01*
X137966666Y-34683220D02*
X138066666Y-34716553D01*
X138066666Y-34716553D02*
X138233333Y-34716553D01*
X137233333Y-34249886D02*
X137233333Y-34716553D01*
X137400000Y-33983220D02*
X137566666Y-34483220D01*
X137566666Y-34483220D02*
X137133333Y-34483220D01*
X56799999Y-34016553D02*
X56799999Y-34583220D01*
X56799999Y-34583220D02*
X56766666Y-34649886D01*
X56766666Y-34649886D02*
X56733332Y-34683220D01*
X56733332Y-34683220D02*
X56666666Y-34716553D01*
X56666666Y-34716553D02*
X56533332Y-34716553D01*
X56533332Y-34716553D02*
X56466666Y-34683220D01*
X56466666Y-34683220D02*
X56433332Y-34649886D01*
X56433332Y-34649886D02*
X56399999Y-34583220D01*
X56399999Y-34583220D02*
X56399999Y-34016553D01*
X56233333Y-34783220D02*
X55699999Y-34783220D01*
X55533333Y-34349886D02*
X55300000Y-34349886D01*
X55200000Y-34716553D02*
X55533333Y-34716553D01*
X55533333Y-34716553D02*
X55533333Y-34016553D01*
X55533333Y-34016553D02*
X55200000Y-34016553D01*
X54933333Y-34683220D02*
X54833333Y-34716553D01*
X54833333Y-34716553D02*
X54666667Y-34716553D01*
X54666667Y-34716553D02*
X54600000Y-34683220D01*
X54600000Y-34683220D02*
X54566667Y-34649886D01*
X54566667Y-34649886D02*
X54533333Y-34583220D01*
X54533333Y-34583220D02*
X54533333Y-34516553D01*
X54533333Y-34516553D02*
X54566667Y-34449886D01*
X54566667Y-34449886D02*
X54600000Y-34416553D01*
X54600000Y-34416553D02*
X54666667Y-34383220D01*
X54666667Y-34383220D02*
X54800000Y-34349886D01*
X54800000Y-34349886D02*
X54866667Y-34316553D01*
X54866667Y-34316553D02*
X54900000Y-34283220D01*
X54900000Y-34283220D02*
X54933333Y-34216553D01*
X54933333Y-34216553D02*
X54933333Y-34149886D01*
X54933333Y-34149886D02*
X54900000Y-34083220D01*
X54900000Y-34083220D02*
X54866667Y-34049886D01*
X54866667Y-34049886D02*
X54800000Y-34016553D01*
X54800000Y-34016553D02*
X54633333Y-34016553D01*
X54633333Y-34016553D02*
X54533333Y-34049886D01*
X54233333Y-34716553D02*
X54233333Y-34016553D01*
X54233333Y-34016553D02*
X54066666Y-34016553D01*
X54066666Y-34016553D02*
X53966666Y-34049886D01*
X53966666Y-34049886D02*
X53900000Y-34116553D01*
X53900000Y-34116553D02*
X53866666Y-34183220D01*
X53866666Y-34183220D02*
X53833333Y-34316553D01*
X53833333Y-34316553D02*
X53833333Y-34416553D01*
X53833333Y-34416553D02*
X53866666Y-34549886D01*
X53866666Y-34549886D02*
X53900000Y-34616553D01*
X53900000Y-34616553D02*
X53966666Y-34683220D01*
X53966666Y-34683220D02*
X54066666Y-34716553D01*
X54066666Y-34716553D02*
X54233333Y-34716553D01*
X53166666Y-34716553D02*
X53566666Y-34716553D01*
X53366666Y-34716553D02*
X53366666Y-34016553D01*
X53366666Y-34016553D02*
X53433333Y-34116553D01*
X53433333Y-34116553D02*
X53500000Y-34183220D01*
X53500000Y-34183220D02*
X53566666Y-34216553D01*
X134016666Y-35216553D02*
X134016666Y-35783220D01*
X134016666Y-35783220D02*
X133983333Y-35849886D01*
X133983333Y-35849886D02*
X133949999Y-35883220D01*
X133949999Y-35883220D02*
X133883333Y-35916553D01*
X133883333Y-35916553D02*
X133749999Y-35916553D01*
X133749999Y-35916553D02*
X133683333Y-35883220D01*
X133683333Y-35883220D02*
X133649999Y-35849886D01*
X133649999Y-35849886D02*
X133616666Y-35783220D01*
X133616666Y-35783220D02*
X133616666Y-35216553D01*
X133450000Y-35983220D02*
X132916666Y-35983220D01*
X132750000Y-35916553D02*
X132750000Y-35216553D01*
X132750000Y-35216553D02*
X132583333Y-35216553D01*
X132583333Y-35216553D02*
X132483333Y-35249886D01*
X132483333Y-35249886D02*
X132416667Y-35316553D01*
X132416667Y-35316553D02*
X132383333Y-35383220D01*
X132383333Y-35383220D02*
X132350000Y-35516553D01*
X132350000Y-35516553D02*
X132350000Y-35616553D01*
X132350000Y-35616553D02*
X132383333Y-35749886D01*
X132383333Y-35749886D02*
X132416667Y-35816553D01*
X132416667Y-35816553D02*
X132483333Y-35883220D01*
X132483333Y-35883220D02*
X132583333Y-35916553D01*
X132583333Y-35916553D02*
X132750000Y-35916553D01*
X132083333Y-35716553D02*
X131750000Y-35716553D01*
X132150000Y-35916553D02*
X131916667Y-35216553D01*
X131916667Y-35216553D02*
X131683333Y-35916553D01*
X131550000Y-35216553D02*
X131150000Y-35216553D01*
X131350000Y-35916553D02*
X131350000Y-35216553D01*
X130950000Y-35716553D02*
X130616667Y-35716553D01*
X131016667Y-35916553D02*
X130783334Y-35216553D01*
X130783334Y-35216553D02*
X130550000Y-35916553D01*
X130016667Y-35449886D02*
X130016667Y-35916553D01*
X130183334Y-35183220D02*
X130350000Y-35683220D01*
X130350000Y-35683220D02*
X129916667Y-35683220D01*
X80299999Y-31116553D02*
X80299999Y-31683220D01*
X80299999Y-31683220D02*
X80266666Y-31749886D01*
X80266666Y-31749886D02*
X80233332Y-31783220D01*
X80233332Y-31783220D02*
X80166666Y-31816553D01*
X80166666Y-31816553D02*
X80033332Y-31816553D01*
X80033332Y-31816553D02*
X79966666Y-31783220D01*
X79966666Y-31783220D02*
X79933332Y-31749886D01*
X79933332Y-31749886D02*
X79899999Y-31683220D01*
X79899999Y-31683220D02*
X79899999Y-31116553D01*
X79733333Y-31883220D02*
X79199999Y-31883220D01*
X79033333Y-31449886D02*
X78800000Y-31449886D01*
X78700000Y-31816553D02*
X79033333Y-31816553D01*
X79033333Y-31816553D02*
X79033333Y-31116553D01*
X79033333Y-31116553D02*
X78700000Y-31116553D01*
X78433333Y-31783220D02*
X78333333Y-31816553D01*
X78333333Y-31816553D02*
X78166667Y-31816553D01*
X78166667Y-31816553D02*
X78100000Y-31783220D01*
X78100000Y-31783220D02*
X78066667Y-31749886D01*
X78066667Y-31749886D02*
X78033333Y-31683220D01*
X78033333Y-31683220D02*
X78033333Y-31616553D01*
X78033333Y-31616553D02*
X78066667Y-31549886D01*
X78066667Y-31549886D02*
X78100000Y-31516553D01*
X78100000Y-31516553D02*
X78166667Y-31483220D01*
X78166667Y-31483220D02*
X78300000Y-31449886D01*
X78300000Y-31449886D02*
X78366667Y-31416553D01*
X78366667Y-31416553D02*
X78400000Y-31383220D01*
X78400000Y-31383220D02*
X78433333Y-31316553D01*
X78433333Y-31316553D02*
X78433333Y-31249886D01*
X78433333Y-31249886D02*
X78400000Y-31183220D01*
X78400000Y-31183220D02*
X78366667Y-31149886D01*
X78366667Y-31149886D02*
X78300000Y-31116553D01*
X78300000Y-31116553D02*
X78133333Y-31116553D01*
X78133333Y-31116553D02*
X78033333Y-31149886D01*
X77733333Y-31816553D02*
X77733333Y-31116553D01*
X77733333Y-31116553D02*
X77566666Y-31116553D01*
X77566666Y-31116553D02*
X77466666Y-31149886D01*
X77466666Y-31149886D02*
X77400000Y-31216553D01*
X77400000Y-31216553D02*
X77366666Y-31283220D01*
X77366666Y-31283220D02*
X77333333Y-31416553D01*
X77333333Y-31416553D02*
X77333333Y-31516553D01*
X77333333Y-31516553D02*
X77366666Y-31649886D01*
X77366666Y-31649886D02*
X77400000Y-31716553D01*
X77400000Y-31716553D02*
X77466666Y-31783220D01*
X77466666Y-31783220D02*
X77566666Y-31816553D01*
X77566666Y-31816553D02*
X77733333Y-31816553D01*
X77066666Y-31183220D02*
X77033333Y-31149886D01*
X77033333Y-31149886D02*
X76966666Y-31116553D01*
X76966666Y-31116553D02*
X76800000Y-31116553D01*
X76800000Y-31116553D02*
X76733333Y-31149886D01*
X76733333Y-31149886D02*
X76700000Y-31183220D01*
X76700000Y-31183220D02*
X76666666Y-31249886D01*
X76666666Y-31249886D02*
X76666666Y-31316553D01*
X76666666Y-31316553D02*
X76700000Y-31416553D01*
X76700000Y-31416553D02*
X77100000Y-31816553D01*
X77100000Y-31816553D02*
X76666666Y-31816553D01*
X57766666Y-44016553D02*
X57766666Y-44583220D01*
X57766666Y-44583220D02*
X57733333Y-44649886D01*
X57733333Y-44649886D02*
X57699999Y-44683220D01*
X57699999Y-44683220D02*
X57633333Y-44716553D01*
X57633333Y-44716553D02*
X57499999Y-44716553D01*
X57499999Y-44716553D02*
X57433333Y-44683220D01*
X57433333Y-44683220D02*
X57399999Y-44649886D01*
X57399999Y-44649886D02*
X57366666Y-44583220D01*
X57366666Y-44583220D02*
X57366666Y-44016553D01*
X57200000Y-44783220D02*
X56666666Y-44783220D01*
X56500000Y-44716553D02*
X56500000Y-44016553D01*
X56500000Y-44016553D02*
X56333333Y-44016553D01*
X56333333Y-44016553D02*
X56233333Y-44049886D01*
X56233333Y-44049886D02*
X56166667Y-44116553D01*
X56166667Y-44116553D02*
X56133333Y-44183220D01*
X56133333Y-44183220D02*
X56100000Y-44316553D01*
X56100000Y-44316553D02*
X56100000Y-44416553D01*
X56100000Y-44416553D02*
X56133333Y-44549886D01*
X56133333Y-44549886D02*
X56166667Y-44616553D01*
X56166667Y-44616553D02*
X56233333Y-44683220D01*
X56233333Y-44683220D02*
X56333333Y-44716553D01*
X56333333Y-44716553D02*
X56500000Y-44716553D01*
X55833333Y-44516553D02*
X55500000Y-44516553D01*
X55900000Y-44716553D02*
X55666667Y-44016553D01*
X55666667Y-44016553D02*
X55433333Y-44716553D01*
X55300000Y-44016553D02*
X54900000Y-44016553D01*
X55100000Y-44716553D02*
X55100000Y-44016553D01*
X54700000Y-44516553D02*
X54366667Y-44516553D01*
X54766667Y-44716553D02*
X54533334Y-44016553D01*
X54533334Y-44016553D02*
X54300000Y-44716553D01*
X53700000Y-44716553D02*
X54100000Y-44716553D01*
X53900000Y-44716553D02*
X53900000Y-44016553D01*
X53900000Y-44016553D02*
X53966667Y-44116553D01*
X53966667Y-44116553D02*
X54033334Y-44183220D01*
X54033334Y-44183220D02*
X54100000Y-44216553D01*
%TO.C,U_ESD_UP*%
D12*
X29740000Y-55440000D02*
X29740000Y-55490000D01*
X29740000Y-56610000D02*
X29740000Y-57390000D01*
X29740000Y-58510000D02*
X29740000Y-58560000D01*
X29740000Y-58560000D02*
X31260000Y-58560000D01*
X31260000Y-55440000D02*
X29740000Y-55440000D01*
X31260000Y-56440000D02*
X31260000Y-55440000D01*
X31260000Y-58560000D02*
X31260000Y-57560000D01*
X29200000Y-57380000D02*
X29440000Y-57050000D01*
X28960000Y-57050000D01*
X29200000Y-57380000D01*
G36*
X29200000Y-57380000D02*
G01*
X28960000Y-57050000D01*
X29440000Y-57050000D01*
X29200000Y-57380000D01*
G37*
%TO.C,U_DATA2*%
X82140000Y-38390000D02*
X82140000Y-41610000D01*
X82140000Y-41610000D02*
X82315000Y-41610000D01*
X82315000Y-38390000D02*
X82140000Y-38390000D01*
X85185000Y-41610000D02*
X85360000Y-41610000D01*
X85360000Y-38390000D02*
X85185000Y-38390000D01*
X85360000Y-41610000D02*
X85360000Y-38390000D01*
X85190000Y-42160000D02*
X85520000Y-42400000D01*
X85520000Y-41920000D01*
X85190000Y-42160000D01*
G36*
X85520000Y-42400000D02*
G01*
X85190000Y-42160000D01*
X85520000Y-41920000D01*
X85520000Y-42400000D01*
G37*
%TO.C,U_ESD3*%
X109440000Y-30740000D02*
X109440000Y-32260000D01*
X109440000Y-32260000D02*
X110440000Y-32260000D01*
X109490000Y-30740000D02*
X109440000Y-30740000D01*
X111390000Y-30740000D02*
X110610000Y-30740000D01*
X111560000Y-32260000D02*
X112560000Y-32260000D01*
X112560000Y-30740000D02*
X112510000Y-30740000D01*
X112560000Y-32260000D02*
X112560000Y-30740000D01*
X110620000Y-30200000D02*
X110950000Y-30440000D01*
X110950000Y-29960000D01*
X110620000Y-30200000D01*
G36*
X110950000Y-30440000D02*
G01*
X110620000Y-30200000D01*
X110950000Y-29960000D01*
X110950000Y-30440000D01*
G37*
%TO.C,U_DATA3*%
X110140000Y-38390000D02*
X110140000Y-41610000D01*
X110140000Y-41610000D02*
X110315000Y-41610000D01*
X110315000Y-38390000D02*
X110140000Y-38390000D01*
X113185000Y-41610000D02*
X113360000Y-41610000D01*
X113360000Y-38390000D02*
X113185000Y-38390000D01*
X113360000Y-41610000D02*
X113360000Y-38390000D01*
X113190000Y-42160000D02*
X113520000Y-42400000D01*
X113520000Y-41920000D01*
X113190000Y-42160000D01*
G36*
X113520000Y-42400000D02*
G01*
X113190000Y-42160000D01*
X113520000Y-41920000D01*
X113520000Y-42400000D01*
G37*
%TO.C,U_ESD4*%
X137440000Y-30740000D02*
X137440000Y-32260000D01*
X137440000Y-32260000D02*
X138440000Y-32260000D01*
X137490000Y-30740000D02*
X137440000Y-30740000D01*
X139390000Y-30740000D02*
X138610000Y-30740000D01*
X139560000Y-32260000D02*
X140560000Y-32260000D01*
X140560000Y-30740000D02*
X140510000Y-30740000D01*
X140560000Y-32260000D02*
X140560000Y-30740000D01*
X138620000Y-30200000D02*
X138950000Y-30440000D01*
X138950000Y-29960000D01*
X138620000Y-30200000D01*
G36*
X138950000Y-30440000D02*
G01*
X138620000Y-30200000D01*
X138950000Y-29960000D01*
X138950000Y-30440000D01*
G37*
%TO.C,U_ESD1*%
X53440000Y-30740000D02*
X53440000Y-32260000D01*
X53440000Y-32260000D02*
X54440000Y-32260000D01*
X53490000Y-30740000D02*
X53440000Y-30740000D01*
X55390000Y-30740000D02*
X54610000Y-30740000D01*
X55560000Y-32260000D02*
X56560000Y-32260000D01*
X56560000Y-30740000D02*
X56510000Y-30740000D01*
X56560000Y-32260000D02*
X56560000Y-30740000D01*
X54620000Y-30200000D02*
X54950000Y-30440000D01*
X54950000Y-29960000D01*
X54620000Y-30200000D01*
G36*
X54950000Y-30440000D02*
G01*
X54620000Y-30200000D01*
X54950000Y-29960000D01*
X54950000Y-30440000D01*
G37*
%TO.C,U_DATA4*%
X130390000Y-38390000D02*
X130390000Y-41610000D01*
X130390000Y-41610000D02*
X130565000Y-41610000D01*
X130565000Y-38390000D02*
X130390000Y-38390000D01*
X133435000Y-41610000D02*
X133610000Y-41610000D01*
X133610000Y-38390000D02*
X133435000Y-38390000D01*
X133610000Y-41610000D02*
X133610000Y-38390000D01*
X133440000Y-42160000D02*
X133770000Y-42400000D01*
X133770000Y-41920000D01*
X133440000Y-42160000D01*
G36*
X133770000Y-42400000D02*
G01*
X133440000Y-42160000D01*
X133770000Y-41920000D01*
X133770000Y-42400000D01*
G37*
%TO.C,U_ESD2*%
X81440000Y-30740000D02*
X81440000Y-32260000D01*
X81440000Y-32260000D02*
X82440000Y-32260000D01*
X81490000Y-30740000D02*
X81440000Y-30740000D01*
X83390000Y-30740000D02*
X82610000Y-30740000D01*
X83560000Y-32260000D02*
X84560000Y-32260000D01*
X84560000Y-30740000D02*
X84510000Y-30740000D01*
X84560000Y-32260000D02*
X84560000Y-30740000D01*
X82620000Y-30200000D02*
X82950000Y-30440000D01*
X82950000Y-29960000D01*
X82620000Y-30200000D01*
G36*
X82950000Y-30440000D02*
G01*
X82620000Y-30200000D01*
X82950000Y-29960000D01*
X82950000Y-30440000D01*
G37*
%TO.C,U_DATA1*%
X54140000Y-38390000D02*
X54140000Y-41610000D01*
X54140000Y-41610000D02*
X54315000Y-41610000D01*
X54315000Y-38390000D02*
X54140000Y-38390000D01*
X57185000Y-41610000D02*
X57360000Y-41610000D01*
X57360000Y-38390000D02*
X57185000Y-38390000D01*
X57360000Y-41610000D02*
X57360000Y-38390000D01*
X57190000Y-42160000D02*
X57520000Y-42400000D01*
X57520000Y-41920000D01*
X57190000Y-42160000D01*
G36*
X57520000Y-42400000D02*
G01*
X57190000Y-42160000D01*
X57520000Y-41920000D01*
X57520000Y-42400000D01*
G37*
%TD*%
%LPC*%
D13*
%TO.C,J_DATA*%
X26250000Y-54110000D03*
X26250000Y-59890000D03*
D14*
X26750000Y-52675000D03*
D15*
X22570000Y-52675000D03*
D14*
X26750000Y-61325000D03*
D15*
X22570000Y-61325000D03*
%TD*%
D16*
%TO.C,H1*%
X24000000Y-24000000D03*
%TD*%
%TO.C,H2*%
X166000000Y-44000000D03*
%TD*%
D13*
%TO.C,J_POWER*%
X26250000Y-115110000D03*
X26250000Y-120890000D03*
D14*
X26750000Y-113675000D03*
D15*
X22570000Y-113675000D03*
D14*
X26750000Y-122325000D03*
D15*
X22570000Y-122325000D03*
%TD*%
D17*
%TO.C,J_PORT1*%
X58000000Y-28510000D03*
D18*
X56000000Y-28510000D03*
X54000000Y-28510000D03*
X52000000Y-28510000D03*
D19*
X58500000Y-25800000D03*
X51500000Y-25800000D03*
%TD*%
D17*
%TO.C,J_PORT2*%
X86000000Y-28510000D03*
D18*
X84000000Y-28510000D03*
X82000000Y-28510000D03*
X80000000Y-28510000D03*
D19*
X86500000Y-25800000D03*
X79500000Y-25800000D03*
%TD*%
D17*
%TO.C,J_PORT4*%
X142000000Y-28510000D03*
D18*
X140000000Y-28510000D03*
X138000000Y-28510000D03*
X136000000Y-28510000D03*
D19*
X142500000Y-25800000D03*
X135500000Y-25800000D03*
%TD*%
D16*
%TO.C,H4*%
X166000000Y-131000000D03*
%TD*%
%TO.C,H3*%
X24000000Y-131000000D03*
%TD*%
D17*
%TO.C,J_PORT3*%
X114000000Y-28510000D03*
D18*
X112000000Y-28510000D03*
X110000000Y-28510000D03*
X108000000Y-28510000D03*
D19*
X114500000Y-25800000D03*
X107500000Y-25800000D03*
%TD*%
D20*
%TO.C,U_ESD_UP*%
X29562500Y-57950000D03*
X29562500Y-56050000D03*
X31437500Y-57000000D03*
%TD*%
D21*
%TO.C,U_DATA2*%
X84750000Y-42100000D03*
X84250000Y-42100000D03*
X83750000Y-42100000D03*
X83250000Y-42100000D03*
X82750000Y-42100000D03*
X82750000Y-37900000D03*
X83250000Y-37900000D03*
X83750000Y-37900000D03*
X84250000Y-37900000D03*
X84750000Y-37900000D03*
%TD*%
D22*
%TO.C,U_ESD3*%
X110050000Y-30562500D03*
X111950000Y-30562500D03*
X111000000Y-32437500D03*
%TD*%
D21*
%TO.C,U_DATA3*%
X112750000Y-42100000D03*
X112250000Y-42100000D03*
X111750000Y-42100000D03*
X111250000Y-42100000D03*
X110750000Y-42100000D03*
X110750000Y-37900000D03*
X111250000Y-37900000D03*
X111750000Y-37900000D03*
X112250000Y-37900000D03*
X112750000Y-37900000D03*
%TD*%
D22*
%TO.C,U_ESD4*%
X138050000Y-30562500D03*
X139950000Y-30562500D03*
X139000000Y-32437500D03*
%TD*%
%TO.C,U_ESD1*%
X54050000Y-30562500D03*
X55950000Y-30562500D03*
X55000000Y-32437500D03*
%TD*%
D21*
%TO.C,U_DATA4*%
X133000000Y-42100000D03*
X132500000Y-42100000D03*
X132000000Y-42100000D03*
X131500000Y-42100000D03*
X131000000Y-42100000D03*
X131000000Y-37900000D03*
X131500000Y-37900000D03*
X132000000Y-37900000D03*
X132500000Y-37900000D03*
X133000000Y-37900000D03*
%TD*%
D22*
%TO.C,U_ESD2*%
X82050000Y-30562500D03*
X83950000Y-30562500D03*
X83000000Y-32437500D03*
%TD*%
D21*
%TO.C,U_DATA1*%
X56750000Y-42100000D03*
X56250000Y-42100000D03*
X55750000Y-42100000D03*
X55250000Y-42100000D03*
X54750000Y-42100000D03*
X54750000Y-37900000D03*
X55250000Y-37900000D03*
X55750000Y-37900000D03*
X56250000Y-37900000D03*
X56750000Y-37900000D03*
%TD*%
%LPD*%
M02*
