%TF.GenerationSoftware,KiCad,Pcbnew,10.0.4-10.0.4~ubuntu24.04.1*%
%TF.CreationDate,2026-08-21T00:19:40-07:00*%
%TF.ProjectId,usb_controlled_debug_hub_2a,7573625f-636f-46e7-9472-6f6c6c65645f,rev?*%
%TF.SameCoordinates,Original*%
%TF.FileFunction,Paste,Top*%
%TF.FilePolarity,Positive*%
%FSLAX46Y46*%
G04 Gerber Fmt 4.6, Leading zero omitted, Abs format (unit mm)*
G04 Created by KiCad (PCBNEW 10.0.4-10.0.4~ubuntu24.04.1) date 2026-08-21 00:19:40*
%MOMM*%
%LPD*%
G01*
G04 APERTURE LIST*
G04 Aperture macros list*
%AMRoundRect*
0 Rectangle with rounded corners*
0 $1 Rounding radius*
0 $2 $3 $4 $5 $6 $7 $8 $9 X,Y pos of 4 corners*
0 Add a 4 corners polygon primitive as box body*
4,1,4,$2,$3,$4,$5,$6,$7,$8,$9,$2,$3,0*
0 Add four circle primitives for the rounded corners*
1,1,$1+$1,$2,$3*
1,1,$1+$1,$4,$5*
1,1,$1+$1,$6,$7*
1,1,$1+$1,$8,$9*
0 Add four rect primitives between the rounded corners*
20,1,$1+$1,$2,$3,$4,$5,0*
20,1,$1+$1,$4,$5,$6,$7,0*
20,1,$1+$1,$6,$7,$8,$9,0*
20,1,$1+$1,$8,$9,$2,$3,0*%
%AMFreePoly0*
4,1,15,0.299847,0.000076,0.299898,0.000076,0.299898,-0.299923,-0.300101,-0.299923,-0.300101,0.000076,-0.002310,0.000076,-0.002310,0.000957,-0.000957,0.002310,0.000957,0.002310,0.002310,0.000957,0.002310,0.000076,0.049860,0.000076,0.049860,0.300076,0.299847,0.300076,0.299847,0.000076,0.299847,0.000076,$1*%
%AMFreePoly1*
4,1,15,0.299923,-0.000051,0.299872,-0.000051,0.299872,-0.300076,0.049886,-0.300076,0.049886,-0.000051,0.002310,-0.000051,0.002310,-0.000957,0.000957,-0.002310,-0.000957,-0.002310,-0.002310,-0.000957,-0.002310,-0.000051,-0.300076,-0.000051,-0.300076,0.299923,0.299923,0.299923,0.299923,-0.000051,0.299923,-0.000051,$1*%
%AMFreePoly2*
4,1,15,0.300076,-0.000051,0.002310,-0.000051,0.002310,-0.000957,0.000957,-0.002310,-0.000957,-0.002310,-0.002310,-0.000957,-0.002310,-0.000051,-0.049886,-0.000051,-0.049886,-0.300050,-0.299872,-0.300050,-0.299872,-0.000051,-0.299923,-0.000051,-0.299923,0.299949,0.300076,0.299949,0.300076,-0.000051,0.300076,-0.000051,$1*%
%AMFreePoly3*
4,1,15,-0.049886,0.000076,-0.002310,0.000076,-0.002310,0.000957,-0.000957,0.002310,0.000957,0.002310,0.002310,0.000957,0.002310,0.000076,0.300076,0.000076,0.300076,-0.299923,-0.299923,-0.299923,-0.299923,0.000076,-0.299872,0.000076,-0.299872,0.300076,-0.049886,0.300076,-0.049886,0.000076,-0.049886,0.000076,$1*%
G04 Aperture macros list end*
%ADD10RoundRect,0.135000X-0.135000X-0.185000X0.135000X-0.185000X0.135000X0.185000X-0.135000X0.185000X0*%
%ADD11RoundRect,0.140000X-0.140000X-0.170000X0.140000X-0.170000X0.140000X0.170000X-0.140000X0.170000X0*%
%ADD12RoundRect,0.150000X-0.420000X0.150000X-0.420000X-0.150000X0.420000X-0.150000X0.420000X0.150000X0*%
%ADD13RoundRect,0.075000X-0.495000X0.075000X-0.495000X-0.075000X0.495000X-0.075000X0.495000X0.075000X0*%
%ADD14RoundRect,0.135000X0.185000X-0.135000X0.185000X0.135000X-0.185000X0.135000X-0.185000X-0.135000X0*%
%ADD15RoundRect,0.250000X1.100000X-0.325000X1.100000X0.325000X-1.100000X0.325000X-1.100000X-0.325000X0*%
%ADD16RoundRect,0.160000X-0.240000X-0.290000X0.240000X-0.290000X0.240000X0.290000X-0.240000X0.290000X0*%
%ADD17RoundRect,0.180000X-0.495000X-0.270000X0.495000X-0.270000X0.495000X0.270000X-0.495000X0.270000X0*%
%ADD18RoundRect,0.140000X-0.170000X0.140000X-0.170000X-0.140000X0.170000X-0.140000X0.170000X0.140000X0*%
%ADD19RoundRect,0.225000X-0.225000X-0.250000X0.225000X-0.250000X0.225000X0.250000X-0.225000X0.250000X0*%
%ADD20RoundRect,0.140000X0.170000X-0.140000X0.170000X0.140000X-0.170000X0.140000X-0.170000X-0.140000X0*%
%ADD21RoundRect,0.250000X-0.325000X-1.100000X0.325000X-1.100000X0.325000X1.100000X-0.325000X1.100000X0*%
%ADD22FreePoly0,0.000000*%
%ADD23R,0.600000X0.250000*%
%ADD24FreePoly1,0.000000*%
%ADD25R,0.300000X2.400000*%
%ADD26FreePoly2,0.000000*%
%ADD27FreePoly3,0.000000*%
%ADD28RoundRect,0.100000X-0.850000X-0.100000X0.850000X-0.100000X0.850000X0.100000X-0.850000X0.100000X0*%
%ADD29RoundRect,0.135000X0.135000X0.185000X-0.135000X0.185000X-0.135000X-0.185000X0.135000X-0.185000X0*%
%ADD30R,1.100000X3.700000*%
%ADD31RoundRect,0.172500X0.172500X-0.262500X0.172500X0.262500X-0.172500X0.262500X-0.172500X-0.262500X0*%
%ADD32RoundRect,0.093750X0.106250X-0.093750X0.106250X0.093750X-0.106250X0.093750X-0.106250X-0.093750X0*%
%ADD33RoundRect,0.200000X-0.200000X-0.275000X0.200000X-0.275000X0.200000X0.275000X-0.200000X0.275000X0*%
%ADD34RoundRect,0.250000X-1.500000X-0.550000X1.500000X-0.550000X1.500000X0.550000X-1.500000X0.550000X0*%
%ADD35RoundRect,0.140000X0.140000X0.170000X-0.140000X0.170000X-0.140000X-0.170000X0.140000X-0.170000X0*%
%ADD36R,2.750000X5.500000*%
%ADD37RoundRect,0.100000X-0.637500X-0.100000X0.637500X-0.100000X0.637500X0.100000X-0.637500X0.100000X0*%
%ADD38R,1.275000X1.875000*%
%ADD39R,1.780000X0.420000*%
%ADD40R,0.250000X0.600000*%
%ADD41R,0.250000X1.700000*%
%ADD42R,0.400000X2.100000*%
%ADD43R,0.800000X0.250000*%
%ADD44RoundRect,0.250000X0.650000X-0.325000X0.650000X0.325000X-0.650000X0.325000X-0.650000X-0.325000X0*%
%ADD45RoundRect,0.150000X-0.512500X-0.150000X0.512500X-0.150000X0.512500X0.150000X-0.512500X0.150000X0*%
%ADD46RoundRect,0.242500X-0.422500X-0.242500X0.422500X-0.242500X0.422500X0.242500X-0.422500X0.242500X0*%
%ADD47RoundRect,0.087500X-0.337500X-0.087500X0.337500X-0.087500X0.337500X0.087500X-0.337500X0.087500X0*%
%ADD48RoundRect,0.250000X-0.312500X-1.075000X0.312500X-1.075000X0.312500X1.075000X-0.312500X1.075000X0*%
%ADD49R,1.050000X0.900000*%
%ADD50R,0.550000X0.900000*%
%ADD51RoundRect,0.062500X-0.062500X-0.337500X0.062500X-0.337500X0.062500X0.337500X-0.062500X0.337500X0*%
%ADD52RoundRect,0.062500X-0.337500X-0.062500X0.337500X-0.062500X0.337500X0.062500X-0.337500X0.062500X0*%
%ADD53RoundRect,0.250000X0.325000X0.650000X-0.325000X0.650000X-0.325000X-0.650000X0.325000X-0.650000X0*%
%ADD54RoundRect,0.250000X-0.375000X-0.625000X0.375000X-0.625000X0.375000X0.625000X-0.375000X0.625000X0*%
%ADD55RoundRect,0.250000X-0.450000X-0.350000X0.450000X-0.350000X0.450000X0.350000X-0.450000X0.350000X0*%
%ADD56RoundRect,0.250000X-0.380000X-0.380000X0.380000X-0.380000X0.380000X0.380000X-0.380000X0.380000X0*%
%ADD57RoundRect,0.050000X-0.387500X-0.050000X0.387500X-0.050000X0.387500X0.050000X-0.387500X0.050000X0*%
%ADD58RoundRect,0.050000X-0.050000X-0.387500X0.050000X-0.387500X0.050000X0.387500X-0.050000X0.387500X0*%
%ADD59RoundRect,0.225000X0.250000X-0.225000X0.250000X0.225000X-0.250000X0.225000X-0.250000X-0.225000X0*%
%ADD60R,1.500000X0.600000*%
%ADD61R,2.100000X3.300000*%
G04 APERTURE END LIST*
D10*
%TO.C,R_GANG*%
X104490000Y-69500000D03*
X105510000Y-69500000D03*
%TD*%
D11*
%TO.C,C_HUB_PLL*%
X89520000Y-71000000D03*
X90480000Y-71000000D03*
%TD*%
D12*
%TO.C,J_DATA*%
X27320000Y-53800000D03*
X27320000Y-54600000D03*
D13*
X27320000Y-55750000D03*
X27320000Y-56750000D03*
X27320000Y-57250000D03*
X27320000Y-58250000D03*
D12*
X27320000Y-59400000D03*
X27320000Y-60200000D03*
X27320000Y-60200000D03*
X27320000Y-59400000D03*
D13*
X27320000Y-58750000D03*
X27320000Y-57750000D03*
X27320000Y-56250000D03*
X27320000Y-55250000D03*
D12*
X27320000Y-54600000D03*
X27320000Y-53800000D03*
%TD*%
D10*
%TO.C,R_BUCK_B_EN_TOP*%
X130490000Y-125500000D03*
X131510000Y-125500000D03*
%TD*%
D14*
%TO.C,R_VBUS_BOT*%
X38000000Y-66510000D03*
X38000000Y-65490000D03*
%TD*%
D15*
%TO.C,C_BUCK_B_OUT1*%
X150000000Y-115975000D03*
X150000000Y-113025000D03*
%TD*%
D16*
%TO.C,Q_DATA1*%
X61000000Y-44000000D03*
X61000000Y-46000000D03*
D17*
X63000000Y-45000000D03*
%TD*%
D18*
%TO.C,C_HUB_18*%
X92000000Y-70920000D03*
X92000000Y-71880000D03*
%TD*%
D19*
%TO.C,C_AGG_A_DVDT*%
X118225000Y-108000000D03*
X119775000Y-108000000D03*
%TD*%
D10*
%TO.C,R_XTAL*%
X82990000Y-52000000D03*
X84010000Y-52000000D03*
%TD*%
D19*
%TO.C,C_AGG_A_TIMER*%
X118425000Y-116000000D03*
X119975000Y-116000000D03*
%TD*%
D20*
%TO.C,C_BST_A*%
X91900000Y-118580000D03*
X91900000Y-117620000D03*
%TD*%
D10*
%TO.C,R_DATA_CMD4*%
X129490000Y-96000000D03*
X130510000Y-96000000D03*
%TD*%
%TO.C,R_EXP_RESET*%
X129490000Y-79000000D03*
X130510000Y-79000000D03*
%TD*%
D21*
%TO.C,C_PORT2_BULK*%
X81025000Y-56000000D03*
X83975000Y-56000000D03*
%TD*%
D10*
%TO.C,R_PWR_CMD4*%
X129490000Y-92000000D03*
X130510000Y-92000000D03*
%TD*%
%TO.C,R_FB_A_TOP*%
X95490000Y-125500000D03*
X96510000Y-125500000D03*
%TD*%
%TO.C,R_SWAP6*%
X49490000Y-85000000D03*
X50510000Y-85000000D03*
%TD*%
%TO.C,R_FB_B_TOP*%
X139490000Y-125500000D03*
X140510000Y-125500000D03*
%TD*%
%TO.C,R_PD_UV_MID*%
X52490000Y-126500000D03*
X53510000Y-126500000D03*
%TD*%
D22*
%TO.C,U_PWR1*%
X47090000Y-53100000D03*
D23*
X47090000Y-53770000D03*
X47090000Y-54230000D03*
D24*
X47090000Y-54900000D03*
D25*
X47770000Y-54000000D03*
X48260000Y-54000000D03*
D26*
X48910000Y-54900000D03*
D23*
X48910000Y-54230000D03*
X48910000Y-53770000D03*
D27*
X48910000Y-53100000D03*
%TD*%
D10*
%TO.C,R_DATA_OE2*%
X88490000Y-35000000D03*
X89510000Y-35000000D03*
%TD*%
D28*
%TO.C,U_EXP*%
X119500000Y-71775000D03*
X119500000Y-72425000D03*
X119500000Y-73075000D03*
X119500000Y-73725000D03*
X119500000Y-74375000D03*
X119500000Y-75025000D03*
X119500000Y-75675000D03*
X119500000Y-76325000D03*
X119500000Y-76975000D03*
X119500000Y-77625000D03*
X119500000Y-78275000D03*
X119500000Y-78925000D03*
X119500000Y-79575000D03*
X119500000Y-80225000D03*
X126500000Y-80225000D03*
X126500000Y-79575000D03*
X126500000Y-78925000D03*
X126500000Y-78275000D03*
X126500000Y-77625000D03*
X126500000Y-76975000D03*
X126500000Y-76325000D03*
X126500000Y-75675000D03*
X126500000Y-75025000D03*
X126500000Y-74375000D03*
X126500000Y-73725000D03*
X126500000Y-73075000D03*
X126500000Y-72425000D03*
X126500000Y-71775000D03*
%TD*%
D10*
%TO.C,R_PWR_EN3*%
X98490000Y-50000000D03*
X99510000Y-50000000D03*
%TD*%
%TO.C,R_CFG0*%
X104490000Y-66500000D03*
X105510000Y-66500000D03*
%TD*%
D29*
%TO.C,R_NONREM0*%
X99760000Y-64000000D03*
X98740000Y-64000000D03*
%TD*%
D30*
%TO.C,L_MAIN*%
X70500000Y-123000000D03*
X73500000Y-123000000D03*
%TD*%
D18*
%TO.C,C_PWR1_IN*%
X47770000Y-56520000D03*
X47770000Y-57480000D03*
%TD*%
D10*
%TO.C,R_BUCK_A_EN_TOP*%
X86490000Y-125500000D03*
X87510000Y-125500000D03*
%TD*%
D29*
%TO.C,R_DIS6P*%
X122510000Y-70000000D03*
X121490000Y-70000000D03*
%TD*%
D18*
%TO.C,C_PWR3_IN*%
X103770000Y-56520000D03*
X103770000Y-57480000D03*
%TD*%
D10*
%TO.C,R_PD_UV_TOP_LO*%
X49490000Y-126500000D03*
X50510000Y-126500000D03*
%TD*%
%TO.C,R_DATA_OK3*%
X97490000Y-48000000D03*
X98510000Y-48000000D03*
%TD*%
D18*
%TO.C,C_BST*%
X68700000Y-122045000D03*
X68700000Y-123005000D03*
%TD*%
D31*
%TO.C,D_PD_TVS*%
X34600000Y-127000000D03*
X35400000Y-127000000D03*
D32*
X34350000Y-127887500D03*
X35000000Y-127887500D03*
X35650000Y-127887500D03*
X35650000Y-126112500D03*
X35000000Y-126112500D03*
X34350000Y-126112500D03*
%TD*%
D33*
%TO.C,R_ILIM2*%
X76975000Y-49500000D03*
X78625000Y-49500000D03*
%TD*%
D21*
%TO.C,C_PORT3_BULK*%
X109025000Y-56000000D03*
X111975000Y-56000000D03*
%TD*%
D16*
%TO.C,Q_DATA4*%
X121500000Y-44000000D03*
X121500000Y-46000000D03*
D17*
X123500000Y-45000000D03*
%TD*%
D15*
%TO.C,C_MAIN_OUT1*%
X79000000Y-121975000D03*
X79000000Y-119025000D03*
%TD*%
%TO.C,C_MAIN_OUT2*%
X79000000Y-127475000D03*
X79000000Y-124525000D03*
%TD*%
D33*
%TO.C,R_AGG_B_ILIM*%
X162375000Y-112800000D03*
X164025000Y-112800000D03*
%TD*%
D15*
%TO.C,C_BANK_A_BULK*%
X124000000Y-120475000D03*
X124000000Y-117525000D03*
%TD*%
D14*
%TO.C,R_PWR_EN1*%
X50000000Y-63510000D03*
X50000000Y-62490000D03*
%TD*%
D11*
%TO.C,C_PORT1_HF*%
X51520000Y-52000000D03*
X52480000Y-52000000D03*
%TD*%
D10*
%TO.C,R_FB_A_BOT*%
X98490000Y-125500000D03*
X99510000Y-125500000D03*
%TD*%
D33*
%TO.C,R_PD_IN_ILIM*%
X63175000Y-113000000D03*
X64825000Y-113000000D03*
%TD*%
D34*
%TO.C,C_BANK_B_POLY*%
X155300000Y-127000000D03*
X160700000Y-127000000D03*
%TD*%
D11*
%TO.C,C_HUB_A1*%
X86520000Y-59000000D03*
X87480000Y-59000000D03*
%TD*%
D35*
%TO.C,C_CTRL_VDD*%
X69280000Y-74050000D03*
X68320000Y-74050000D03*
%TD*%
D10*
%TO.C,R_BOOST1*%
X98790000Y-61250000D03*
X99810000Y-61250000D03*
%TD*%
%TO.C,R_CFG1*%
X123990000Y-62000000D03*
X125010000Y-62000000D03*
%TD*%
D36*
%TO.C,L_BUCK_A*%
X94625000Y-117000000D03*
X101375000Y-117000000D03*
%TD*%
D11*
%TO.C,C_DATA1*%
X59520000Y-35000000D03*
X60480000Y-35000000D03*
%TD*%
%TO.C,C_HUB_CR_BULK*%
X101520000Y-68000000D03*
X102480000Y-68000000D03*
%TD*%
D22*
%TO.C,U_PWR3*%
X103090000Y-53100000D03*
D23*
X103090000Y-53770000D03*
X103090000Y-54230000D03*
D24*
X103090000Y-54900000D03*
D25*
X103770000Y-54000000D03*
X104260000Y-54000000D03*
D26*
X104910000Y-54900000D03*
D23*
X104910000Y-54230000D03*
X104910000Y-53770000D03*
D27*
X104910000Y-53100000D03*
%TD*%
D10*
%TO.C,R_DATA_OE3*%
X97490000Y-35000000D03*
X98510000Y-35000000D03*
%TD*%
%TO.C,R_BUCK_A_EN_BOT*%
X89490000Y-125500000D03*
X90510000Y-125500000D03*
%TD*%
D37*
%TO.C,U_CTRL*%
X71137500Y-74050000D03*
X71137500Y-74700000D03*
X71137500Y-75350000D03*
X71137500Y-76000000D03*
X71137500Y-76650000D03*
X71137500Y-77300000D03*
X71137500Y-77950000D03*
X76862500Y-77950000D03*
X76862500Y-77300000D03*
X76862500Y-76650000D03*
X76862500Y-76000000D03*
X76862500Y-75350000D03*
X76862500Y-74700000D03*
X76862500Y-74050000D03*
%TD*%
D15*
%TO.C,C_BUCK_A_OUT1*%
X106000000Y-115975000D03*
X106000000Y-113025000D03*
%TD*%
D10*
%TO.C,R_I2C_SCL*%
X79990000Y-71000000D03*
X81010000Y-71000000D03*
%TD*%
%TO.C,R_PD_UV_TOP_HI*%
X46490000Y-126500000D03*
X47510000Y-126500000D03*
%TD*%
D15*
%TO.C,C_BUCK_B_OUT2*%
X150000000Y-121475000D03*
X150000000Y-118525000D03*
%TD*%
D10*
%TO.C,R_PWR_CMD2*%
X113490000Y-92000000D03*
X114510000Y-92000000D03*
%TD*%
D11*
%TO.C,C_HUB_CR_HF*%
X101520000Y-65000000D03*
X102480000Y-65000000D03*
%TD*%
D10*
%TO.C,R_HUB_RESET*%
X83490000Y-67000000D03*
X84510000Y-67000000D03*
%TD*%
D11*
%TO.C,C_PWR_CTRL_OUT_HF*%
X49520000Y-69000000D03*
X50480000Y-69000000D03*
%TD*%
D10*
%TO.C,R_SWAP5*%
X45490000Y-85000000D03*
X46510000Y-85000000D03*
%TD*%
%TO.C,R_BOOST0*%
X112490000Y-70000000D03*
X113510000Y-70000000D03*
%TD*%
D15*
%TO.C,C_BANK_B_BULK*%
X164000000Y-123475000D03*
X164000000Y-120525000D03*
%TD*%
D38*
%TO.C,U_PD_IN*%
X51287500Y-115987500D03*
X51287500Y-118012500D03*
X52712500Y-115987500D03*
X52712500Y-118012500D03*
D39*
X49030000Y-114075000D03*
X49030000Y-114725000D03*
X49030000Y-115375000D03*
X49030000Y-116025000D03*
X49030000Y-116675000D03*
X49030000Y-117325000D03*
X49030000Y-117975000D03*
X49030000Y-118625000D03*
X49030000Y-119275000D03*
X49030000Y-119925000D03*
X54970000Y-119925000D03*
X54970000Y-119275000D03*
X54970000Y-118625000D03*
X54970000Y-117975000D03*
X54970000Y-117325000D03*
X54970000Y-116675000D03*
X54970000Y-116025000D03*
X54970000Y-115375000D03*
X54970000Y-114725000D03*
X54970000Y-114075000D03*
%TD*%
D11*
%TO.C,C_XTAL1*%
X85520000Y-52000000D03*
X86480000Y-52000000D03*
%TD*%
D23*
%TO.C,U_BUCK_A*%
X87640000Y-116250000D03*
X87640000Y-116750000D03*
X87640000Y-117250000D03*
X87640000Y-117750000D03*
D40*
X88110000Y-118400000D03*
D41*
X89410000Y-117850000D03*
D40*
X89910000Y-118400000D03*
D42*
X89990000Y-116350000D03*
D43*
X90360000Y-116250000D03*
X90360000Y-116750000D03*
X90360000Y-117250000D03*
D42*
X88830000Y-116350000D03*
D40*
X88110000Y-115600000D03*
%TD*%
D11*
%TO.C,C_DATA2*%
X84520000Y-35000000D03*
X85480000Y-35000000D03*
%TD*%
D10*
%TO.C,R_DATA_OE4*%
X119990000Y-35000000D03*
X121010000Y-35000000D03*
%TD*%
%TO.C,R_SWAP1*%
X115490000Y-70000000D03*
X116510000Y-70000000D03*
%TD*%
D36*
%TO.C,L_BUCK_B*%
X138625000Y-117000000D03*
X145375000Y-117000000D03*
%TD*%
D23*
%TO.C,U_BUCK_B*%
X131640000Y-116250000D03*
X131640000Y-116750000D03*
X131640000Y-117250000D03*
X131640000Y-117750000D03*
D40*
X132110000Y-118400000D03*
D41*
X133410000Y-117850000D03*
D40*
X133910000Y-118400000D03*
D42*
X133990000Y-116350000D03*
D43*
X134360000Y-116250000D03*
X134360000Y-116750000D03*
X134360000Y-117250000D03*
D42*
X132830000Y-116350000D03*
D40*
X132110000Y-115600000D03*
%TD*%
D11*
%TO.C,C_PORT2_HF*%
X79520000Y-52000000D03*
X80480000Y-52000000D03*
%TD*%
D10*
%TO.C,R_PWR_EN2*%
X70490000Y-50000000D03*
X71510000Y-50000000D03*
%TD*%
D11*
%TO.C,C_CTRL_VUSB*%
X79820000Y-75800000D03*
X80780000Y-75800000D03*
%TD*%
D44*
%TO.C,C_BUCK_B_IN2*%
X132000000Y-112475000D03*
X132000000Y-109525000D03*
%TD*%
D11*
%TO.C,C_AND_PWR*%
X108520000Y-84000000D03*
X109480000Y-84000000D03*
%TD*%
%TO.C,C_PWR_CTRL_IN*%
X39720000Y-72000000D03*
X40680000Y-72000000D03*
%TD*%
D29*
%TO.C,R_DIS7P*%
X128510000Y-70000000D03*
X127490000Y-70000000D03*
%TD*%
D10*
%TO.C,R_RBIAS*%
X93490000Y-52000000D03*
X94510000Y-52000000D03*
%TD*%
D14*
%TO.C,R_CC1*%
X34000000Y-52510000D03*
X34000000Y-51490000D03*
%TD*%
D11*
%TO.C,C_HUB_A4*%
X98520000Y-59000000D03*
X99480000Y-59000000D03*
%TD*%
D12*
%TO.C,J_POWER*%
X27320000Y-114800000D03*
X27320000Y-115600000D03*
D13*
X27320000Y-116750000D03*
X27320000Y-117750000D03*
X27320000Y-118250000D03*
X27320000Y-119250000D03*
D12*
X27320000Y-120400000D03*
X27320000Y-121200000D03*
X27320000Y-121200000D03*
X27320000Y-120400000D03*
D13*
X27320000Y-119750000D03*
X27320000Y-118750000D03*
X27320000Y-117250000D03*
X27320000Y-116250000D03*
D12*
X27320000Y-115600000D03*
X27320000Y-114800000D03*
%TD*%
D33*
%TO.C,R_ILIM3*%
X104975000Y-49500000D03*
X106625000Y-49500000D03*
%TD*%
D10*
%TO.C,R_FB_B_BOT*%
X142490000Y-125500000D03*
X143510000Y-125500000D03*
%TD*%
D45*
%TO.C,U_MAIN*%
X64862500Y-122050000D03*
X64862500Y-123000000D03*
X64862500Y-123950000D03*
X67137500Y-123950000D03*
X67137500Y-123000000D03*
X67137500Y-122050000D03*
%TD*%
D18*
%TO.C,C_PWR2_IN*%
X75770000Y-56520000D03*
X75770000Y-57480000D03*
%TD*%
D10*
%TO.C,R_DATA_OE1*%
X63490000Y-35000000D03*
X64510000Y-35000000D03*
%TD*%
D11*
%TO.C,C_PWR_CTRL_OUT*%
X49520000Y-73000000D03*
X50480000Y-73000000D03*
%TD*%
D33*
%TO.C,R_ILIM1*%
X48975000Y-49500000D03*
X50625000Y-49500000D03*
%TD*%
D10*
%TO.C,R_BUCK_B_EN_BOT*%
X133490000Y-125500000D03*
X134510000Y-125500000D03*
%TD*%
D46*
%TO.C,U_PWR_CTRL*%
X45000000Y-71400000D03*
X45000000Y-72600000D03*
D47*
X43550000Y-71025000D03*
X43550000Y-71675000D03*
X43550000Y-72325000D03*
X43550000Y-72975000D03*
X46450000Y-72975000D03*
X46450000Y-72325000D03*
X46450000Y-71675000D03*
X46450000Y-71025000D03*
%TD*%
D44*
%TO.C,C_PD_IN1*%
X48000000Y-111475000D03*
X48000000Y-108525000D03*
%TD*%
D11*
%TO.C,C_PD_VDD*%
X46020000Y-121000000D03*
X46980000Y-121000000D03*
%TD*%
D20*
%TO.C,C_BST_B*%
X135900000Y-118580000D03*
X135900000Y-117620000D03*
%TD*%
D10*
%TO.C,R_NONREM1*%
X104490000Y-68000000D03*
X105510000Y-68000000D03*
%TD*%
D48*
%TO.C,R_PD_VDD*%
X37537500Y-131000000D03*
X40462500Y-131000000D03*
%TD*%
D10*
%TO.C,R_PWR_EN4*%
X126490000Y-50000000D03*
X127510000Y-50000000D03*
%TD*%
D11*
%TO.C,C_AND_DATA*%
X124520000Y-84000000D03*
X125480000Y-84000000D03*
%TD*%
D10*
%TO.C,R_SWAP2*%
X109490000Y-70000000D03*
X110510000Y-70000000D03*
%TD*%
%TO.C,R_DATA_OK2*%
X88490000Y-48000000D03*
X89510000Y-48000000D03*
%TD*%
D33*
%TO.C,R_AGG_A_ILIM*%
X118375000Y-112800000D03*
X120025000Y-112800000D03*
%TD*%
D44*
%TO.C,C_BUCK_B_IN1*%
X135500000Y-113975000D03*
X135500000Y-111025000D03*
%TD*%
D10*
%TO.C,R_DATA_CMD3*%
X123490000Y-96000000D03*
X124510000Y-96000000D03*
%TD*%
D49*
%TO.C,U_AGG_B*%
X158380000Y-112300000D03*
X158380000Y-113700000D03*
D50*
X159920000Y-112300000D03*
X159920000Y-113700000D03*
D51*
X157750000Y-115000000D03*
X158250000Y-115000000D03*
X158750000Y-115000000D03*
X159250000Y-115000000D03*
X159750000Y-115000000D03*
X160250000Y-115000000D03*
D52*
X161000000Y-114250000D03*
X161000000Y-113750000D03*
X161000000Y-113250000D03*
X161000000Y-112750000D03*
X161000000Y-112250000D03*
X161000000Y-111750000D03*
D51*
X160250000Y-111000000D03*
X159750000Y-111000000D03*
X159250000Y-111000000D03*
X158750000Y-111000000D03*
X158250000Y-111000000D03*
X157750000Y-111000000D03*
D52*
X157000000Y-111750000D03*
X157000000Y-112250000D03*
X157000000Y-112750000D03*
X157000000Y-113250000D03*
X157000000Y-113750000D03*
X157000000Y-114250000D03*
%TD*%
D10*
%TO.C,R_DATA_CMD1*%
X107490000Y-96000000D03*
X108510000Y-96000000D03*
%TD*%
D19*
%TO.C,C_AGG_B_DVDT*%
X162225000Y-108000000D03*
X163775000Y-108000000D03*
%TD*%
D11*
%TO.C,C_DATA4*%
X124020000Y-35000000D03*
X124980000Y-35000000D03*
%TD*%
%TO.C,C_HUB_RESET*%
X83520000Y-70000000D03*
X84480000Y-70000000D03*
%TD*%
D22*
%TO.C,U_PWR4*%
X131090000Y-53100000D03*
D23*
X131090000Y-53770000D03*
X131090000Y-54230000D03*
D24*
X131090000Y-54900000D03*
D25*
X131770000Y-54000000D03*
X132260000Y-54000000D03*
D26*
X132910000Y-54900000D03*
D23*
X132910000Y-54230000D03*
X132910000Y-53770000D03*
D27*
X132910000Y-53100000D03*
%TD*%
D10*
%TO.C,R_PWR_CMD3*%
X123490000Y-92000000D03*
X124510000Y-92000000D03*
%TD*%
D53*
%TO.C,C_MAIN_IN*%
X62875000Y-123475000D03*
X59925000Y-123475000D03*
%TD*%
D10*
%TO.C,R_SWAP7*%
X53490000Y-85000000D03*
X54510000Y-85000000D03*
%TD*%
D44*
%TO.C,C_BUCK_A_IN1*%
X91500000Y-113975000D03*
X91500000Y-111025000D03*
%TD*%
D14*
%TO.C,R_VBUS_TOP*%
X38000000Y-63510000D03*
X38000000Y-62490000D03*
%TD*%
D29*
%TO.C,R_SWAP3*%
X113510000Y-62000000D03*
X112490000Y-62000000D03*
%TD*%
D44*
%TO.C,C_PD_IN2*%
X52000000Y-111475000D03*
X52000000Y-108525000D03*
%TD*%
D54*
%TO.C,F_PD*%
X30600000Y-118000000D03*
X33400000Y-118000000D03*
%TD*%
D44*
%TO.C,C_BUCK_A_IN2*%
X88000000Y-112475000D03*
X88000000Y-109525000D03*
%TD*%
D14*
%TO.C,R_CC2*%
X33500000Y-63510000D03*
X33500000Y-62490000D03*
%TD*%
D10*
%TO.C,R_I2C_SDA*%
X79990000Y-74000000D03*
X81010000Y-74000000D03*
%TD*%
D11*
%TO.C,C_HUB_A2*%
X95520000Y-55000000D03*
X96480000Y-55000000D03*
%TD*%
D10*
%TO.C,R_DATA_CMD2*%
X113490000Y-96000000D03*
X114510000Y-96000000D03*
%TD*%
D16*
%TO.C,Q_DATA3*%
X99000000Y-44000000D03*
X99000000Y-46000000D03*
D17*
X101000000Y-45000000D03*
%TD*%
D37*
%TO.C,U_AND_PWR*%
X101137500Y-84050000D03*
X101137500Y-84700000D03*
X101137500Y-85350000D03*
X101137500Y-86000000D03*
X101137500Y-86650000D03*
X101137500Y-87300000D03*
X101137500Y-87950000D03*
X106862500Y-87950000D03*
X106862500Y-87300000D03*
X106862500Y-86650000D03*
X106862500Y-86000000D03*
X106862500Y-85350000D03*
X106862500Y-84700000D03*
X106862500Y-84050000D03*
%TD*%
D11*
%TO.C,C_AGG_B_IN*%
X153520000Y-117000000D03*
X154480000Y-117000000D03*
%TD*%
D15*
%TO.C,C_BUCK_A_OUT2*%
X106000000Y-121475000D03*
X106000000Y-118525000D03*
%TD*%
D16*
%TO.C,Q_DATA2*%
X86000000Y-44000000D03*
X86000000Y-46000000D03*
D17*
X88000000Y-45000000D03*
%TD*%
D11*
%TO.C,C_DATA3*%
X101520000Y-35000000D03*
X102480000Y-35000000D03*
%TD*%
D10*
%TO.C,R_DATA_OK4*%
X119990000Y-48000000D03*
X121010000Y-48000000D03*
%TD*%
D11*
%TO.C,C_HUB_A3*%
X95520000Y-59000000D03*
X96480000Y-59000000D03*
%TD*%
D55*
%TO.C,Y_HUB*%
X87400000Y-56350000D03*
X89600000Y-56350000D03*
X89600000Y-54650000D03*
X87400000Y-54650000D03*
%TD*%
D11*
%TO.C,C_HUB_A_BULK*%
X101520000Y-62000000D03*
X102480000Y-62000000D03*
%TD*%
D14*
%TO.C,R_ILIM_CTRL*%
X48300000Y-73510000D03*
X48300000Y-72490000D03*
%TD*%
D11*
%TO.C,C_BANK_A_HF*%
X109520000Y-111500000D03*
X110480000Y-111500000D03*
%TD*%
D21*
%TO.C,C_PORT1_BULK*%
X53025000Y-56000000D03*
X55975000Y-56000000D03*
%TD*%
D56*
%TO.C,U_HUB*%
X91430000Y-63430000D03*
X91430000Y-65000000D03*
X91430000Y-66570000D03*
X93000000Y-63430000D03*
X93000000Y-65000000D03*
X93000000Y-66570000D03*
X94570000Y-63430000D03*
X94570000Y-65000000D03*
X94570000Y-66570000D03*
D57*
X88587500Y-61250000D03*
X88587500Y-61750000D03*
X88587500Y-62250000D03*
X88587500Y-62750000D03*
X88587500Y-63250000D03*
X88587500Y-63750000D03*
X88587500Y-64250000D03*
X88587500Y-64750000D03*
X88587500Y-65250000D03*
X88587500Y-65750000D03*
X88587500Y-66250000D03*
X88587500Y-66750000D03*
X88587500Y-67250000D03*
X88587500Y-67750000D03*
X88587500Y-68250000D03*
X88587500Y-68750000D03*
D58*
X89250000Y-69412500D03*
X89750000Y-69412500D03*
X90250000Y-69412500D03*
X90750000Y-69412500D03*
X91250000Y-69412500D03*
X91750000Y-69412500D03*
X92250000Y-69412500D03*
X92750000Y-69412500D03*
X93250000Y-69412500D03*
X93750000Y-69412500D03*
X94250000Y-69412500D03*
X94750000Y-69412500D03*
X95250000Y-69412500D03*
X95750000Y-69412500D03*
X96250000Y-69412500D03*
X96750000Y-69412500D03*
D57*
X97412500Y-68750000D03*
X97412500Y-68250000D03*
X97412500Y-67750000D03*
X97412500Y-67250000D03*
X97412500Y-66750000D03*
X97412500Y-66250000D03*
X97412500Y-65750000D03*
X97412500Y-65250000D03*
X97412500Y-64750000D03*
X97412500Y-64250000D03*
X97412500Y-63750000D03*
X97412500Y-63250000D03*
X97412500Y-62750000D03*
X97412500Y-62250000D03*
X97412500Y-61750000D03*
X97412500Y-61250000D03*
D58*
X96750000Y-60587500D03*
X96250000Y-60587500D03*
X95750000Y-60587500D03*
X95250000Y-60587500D03*
X94750000Y-60587500D03*
X94250000Y-60587500D03*
X93750000Y-60587500D03*
X93250000Y-60587500D03*
X92750000Y-60587500D03*
X92250000Y-60587500D03*
X91750000Y-60587500D03*
X91250000Y-60587500D03*
X90750000Y-60587500D03*
X90250000Y-60587500D03*
X89750000Y-60587500D03*
X89250000Y-60587500D03*
%TD*%
D18*
%TO.C,C_PWR4_IN*%
X131770000Y-56520000D03*
X131770000Y-57480000D03*
%TD*%
D29*
%TO.C,R_DIS7N*%
X125510000Y-70000000D03*
X124490000Y-70000000D03*
%TD*%
D11*
%TO.C,C_HUB_18PLL*%
X93020000Y-58500000D03*
X93980000Y-58500000D03*
%TD*%
D19*
%TO.C,C_AGG_B_TIMER*%
X162425000Y-116000000D03*
X163975000Y-116000000D03*
%TD*%
D22*
%TO.C,U_PWR2*%
X75090000Y-53100000D03*
D23*
X75090000Y-53770000D03*
X75090000Y-54230000D03*
D24*
X75090000Y-54900000D03*
D25*
X75770000Y-54000000D03*
X76260000Y-54000000D03*
D26*
X76910000Y-54900000D03*
D23*
X76910000Y-54230000D03*
X76910000Y-53770000D03*
D27*
X76910000Y-53100000D03*
%TD*%
D59*
%TO.C,C_PD_IN_DVDT*%
X64000000Y-117775000D03*
X64000000Y-116225000D03*
%TD*%
D10*
%TO.C,R_PWR_CMD1*%
X107490000Y-92000000D03*
X108510000Y-92000000D03*
%TD*%
D11*
%TO.C,C_HUB_DD*%
X86520000Y-71000000D03*
X87480000Y-71000000D03*
%TD*%
D33*
%TO.C,R_ILIM4*%
X132975000Y-49500000D03*
X134625000Y-49500000D03*
%TD*%
D11*
%TO.C,C_BANK_B_HF*%
X153520000Y-111500000D03*
X154480000Y-111500000D03*
%TD*%
D10*
%TO.C,R_CTRL_RESET*%
X78990000Y-79500000D03*
X80010000Y-79500000D03*
%TD*%
D49*
%TO.C,U_AGG_A*%
X114380000Y-112300000D03*
X114380000Y-113700000D03*
D50*
X115920000Y-112300000D03*
X115920000Y-113700000D03*
D51*
X113750000Y-115000000D03*
X114250000Y-115000000D03*
X114750000Y-115000000D03*
X115250000Y-115000000D03*
X115750000Y-115000000D03*
X116250000Y-115000000D03*
D52*
X117000000Y-114250000D03*
X117000000Y-113750000D03*
X117000000Y-113250000D03*
X117000000Y-112750000D03*
X117000000Y-112250000D03*
X117000000Y-111750000D03*
D51*
X116250000Y-111000000D03*
X115750000Y-111000000D03*
X115250000Y-111000000D03*
X114750000Y-111000000D03*
X114250000Y-111000000D03*
X113750000Y-111000000D03*
D52*
X113000000Y-111750000D03*
X113000000Y-112250000D03*
X113000000Y-112750000D03*
X113000000Y-113250000D03*
X113000000Y-113750000D03*
X113000000Y-114250000D03*
%TD*%
D60*
%TO.C,U_PD*%
X44000000Y-120000000D03*
X44000000Y-119000000D03*
X44000000Y-118000000D03*
X44000000Y-117000000D03*
X44000000Y-116000000D03*
X38000000Y-116000000D03*
X38000000Y-117000000D03*
X38000000Y-118000000D03*
X38000000Y-119000000D03*
X38000000Y-120000000D03*
D61*
X41000000Y-118000000D03*
%TD*%
D11*
%TO.C,C_XTAL2*%
X88020000Y-50000000D03*
X88980000Y-50000000D03*
%TD*%
D10*
%TO.C,R_PD_OV_BOT*%
X55490000Y-126500000D03*
X56510000Y-126500000D03*
%TD*%
%TO.C,R_SWAP4*%
X104490000Y-71000000D03*
X105510000Y-71000000D03*
%TD*%
D11*
%TO.C,C_EXP_VDD*%
X115520000Y-77000000D03*
X116480000Y-77000000D03*
%TD*%
D10*
%TO.C,R_DATA_OK1*%
X63490000Y-48000000D03*
X64510000Y-48000000D03*
%TD*%
%TO.C,R_PD_VBUS*%
X34990000Y-122500000D03*
X36010000Y-122500000D03*
%TD*%
D11*
%TO.C,C_PORT3_HF*%
X107520000Y-52000000D03*
X108480000Y-52000000D03*
%TD*%
D37*
%TO.C,U_AND_DATA*%
X117137500Y-84050000D03*
X117137500Y-84700000D03*
X117137500Y-85350000D03*
X117137500Y-86000000D03*
X117137500Y-86650000D03*
X117137500Y-87300000D03*
X117137500Y-87950000D03*
X122862500Y-87950000D03*
X122862500Y-87300000D03*
X122862500Y-86650000D03*
X122862500Y-86000000D03*
X122862500Y-85350000D03*
X122862500Y-84700000D03*
X122862500Y-84050000D03*
%TD*%
D59*
%TO.C,C_PD_IN_HF*%
X47000000Y-117775000D03*
X47000000Y-116225000D03*
%TD*%
D11*
%TO.C,C_PORT4_HF*%
X135520000Y-52000000D03*
X136480000Y-52000000D03*
%TD*%
D10*
%TO.C,R_CFG2*%
X37490000Y-82000000D03*
X38510000Y-82000000D03*
%TD*%
D29*
%TO.C,R_DIS6N*%
X119510000Y-70000000D03*
X118490000Y-70000000D03*
%TD*%
D21*
%TO.C,C_PORT4_BULK*%
X137025000Y-56000000D03*
X139975000Y-56000000D03*
%TD*%
D34*
%TO.C,C_BANK_A_POLY*%
X117300000Y-126000000D03*
X122700000Y-126000000D03*
%TD*%
D11*
%TO.C,C_AGG_A_IN*%
X109520000Y-117000000D03*
X110480000Y-117000000D03*
%TD*%
M02*
