M48
; DRILL file KiCad 10.0.4-10.0.4~ubuntu24.04.1 date 2026-08-01T17:24:00
; FORMAT={-:-/ absolute / metric / decimal}
; #@! TF.CreationDate,2026-08-01T17:24:00-07:00
; #@! TF.GenerationSoftware,Kicad,Pcbnew,10.0.4-10.0.4~ubuntu24.04.1
; #@! TF.FileFunction,Plated,1,4,PTH
FMAT,2
METRIC
; #@! TA.AperFunction,Plated,PTH,ViaDrill
T1C0.150
; #@! TA.AperFunction,Plated,PTH,ComponentDrill
T2C0.150
; #@! TA.AperFunction,Plated,PTH,ViaDrill
T3C0.200
; #@! TA.AperFunction,Plated,PTH,ComponentDrill
T4C0.200
; #@! TA.AperFunction,Plated,PTH,ComponentDrill
T5C0.650
; #@! TA.AperFunction,Plated,PTH,ComponentDrill
T6C0.920
; #@! TA.AperFunction,Plated,PTH,ComponentDrill
T7C1.500
; #@! TA.AperFunction,Plated,PTH,ComponentDrill
T8C1.780
; #@! TA.AperFunction,Plated,PTH,ComponentDrill
T9C2.260
; #@! TA.AperFunction,Plated,PTH,ComponentDrill
T10C2.300
%
G90
G05
T1
X46.72Y-41.73
X47.0Y-37.53
X47.35Y-39.01
X48.862Y-31.05
X48.862Y-32.95
X49.28Y-40.49
X50.74Y-45.22
X50.9Y-44.288
X52.1Y-38.5
X52.1Y-39.0
X53.55Y-45.525
X53.65Y-49.49
X55.14Y-35.26
X55.2Y-92.2
X56.61Y-94.69
X57.562Y-90.25
X57.562Y-90.75
X58.1Y-37.46
X60.438Y-90.25
X60.438Y-90.75
X61.64Y-57.58
X62.2Y-91.61
X67.25Y-63.162
X67.26Y-66.69
X68.29Y-83.87
X72.02Y-36.24
X72.162Y-57.25
X72.162Y-57.75
X75.78Y-39.0
X77.0Y-37.53
X77.275Y-38.0
X77.275Y-38.5
X77.51Y-41.49
X77.7Y-56.85
X78.6Y-59.48
X78.76Y-46.41
X78.862Y-31.05
X78.862Y-32.95
X79.1Y-44.288
X79.29Y-61.17
X80.31Y-65.8
X81.4Y-45.24
X81.49Y-59.05
X82.1Y-38.5
X82.1Y-39.0
X82.11Y-94.43
X82.53Y-63.69
X84.4Y-56.15
X84.92Y-56.6
X86.55Y-84.05
X86.88Y-36.8
X86.95Y-64.16
X87.16Y-51.23
X87.39Y-58.9
X88.05Y-98.95
X88.62Y-56.96
X91.259Y-56.25
X91.259Y-56.75
X91.259Y-58.75
X91.259Y-59.25
X91.259Y-60.25
X91.259Y-60.75
X91.33Y-79.38
X93.23Y-40.14
X93.25Y-54.587
X93.85Y-92.5
X94.2Y-55.8
X94.25Y-63.412
X94.42Y-97.5
X94.75Y-63.412
X95.07Y-82.91
X95.75Y-54.587
X95.75Y-63.412
X95.75Y-90.75
X95.75Y-91.25
X96.25Y-90.75
X96.25Y-91.25
X97.17Y-77.34
X97.71Y-50.62
X98.7Y-89.25
X99.2Y-37.2
X101.5Y-57.8
X101.58Y-102.06
X103.54Y-62.48
X103.92Y-56.09
X106.14Y-41.48
X106.95Y-44.52
X107.0Y-37.53
X107.3Y-57.01
X108.4Y-40.77
X108.45Y-42.425
X108.862Y-31.05
X108.862Y-32.95
X109.9Y-48.87
X110.45Y-48.125
X110.75Y-45.22
X112.1Y-38.5
X112.1Y-39.0
X116.78Y-39.0
X117.9Y-98.2
X121.0Y-98.65
X121.94Y-98.84
X124.52Y-80.85
X126.04Y-101.02
X127.7Y-99.0
X127.74Y-40.09
X128.36Y-79.02
X128.5Y-92.0
X128.5Y-93.5
X129.0Y-44.68
X129.7Y-39.0
X129.95Y-36.97
X130.82Y-34.26
X132.77Y-37.42
X133.275Y-38.0
X133.275Y-38.5
X133.28Y-96.0
X133.67Y-102.3
X134.025Y-42.25
X134.59Y-103.02
X134.863Y-31.05
X134.863Y-32.95
X134.875Y-39.425
X136.3Y-42.09
X136.77Y-45.23
X136.9Y-45.712
X137.35Y-41.75
X137.5Y-43.7
X137.52Y-41.14
X138.1Y-38.5
X138.1Y-39.0
X139.83Y-78.35
X142.08Y-39.53
T2
X49.75Y-44.5
X49.75Y-44.95
X49.75Y-45.4
X49.75Y-45.85
X50.25Y-44.5
X50.25Y-44.95
X50.25Y-45.4
X50.25Y-45.85
X79.75Y-44.5
X79.75Y-44.95
X79.75Y-45.4
X79.75Y-45.85
X80.25Y-44.5
X80.25Y-44.95
X80.25Y-45.4
X80.25Y-45.85
X109.75Y-44.5
X109.75Y-44.95
X109.75Y-45.4
X109.75Y-45.85
X110.25Y-44.5
X110.25Y-44.95
X110.25Y-45.4
X110.25Y-45.85
X135.75Y-44.5
X135.75Y-44.95
X135.75Y-45.4
X135.75Y-45.85
X136.25Y-44.5
X136.25Y-44.95
X136.25Y-45.4
X136.25Y-45.85
T3
X36.6Y-51.2
X37.6Y-52.2
X40.7Y-40.0
X40.8Y-41.8
X41.0Y-90.4
X41.3Y-39.6
X42.0Y-82.5
X42.6Y-41.0
X43.4Y-40.4
X43.5Y-37.2
X43.6Y-42.9
X44.9Y-85.4
X45.3Y-40.7
X45.4Y-42.2
X45.5Y-47.2
X45.6Y-36.6
X45.7Y-45.1
X45.9Y-43.2
X45.9Y-48.0
X46.6Y-41.0
X47.5Y-43.5
X48.1Y-89.4
X48.2Y-44.1
X48.6Y-40.2
X49.0Y-45.8
X49.7Y-43.4
X50.1Y-86.1
X50.4Y-41.2
X50.5Y-24.8
X51.2Y-49.0
X51.4Y-91.8
X51.6Y-44.9
X51.6Y-98.4
X52.1Y-97.1
X52.1Y-98.4
X52.1Y-99.6
X52.3Y-44.0
X52.4Y-52.9
X52.4Y-57.5
X52.4Y-86.1
X52.5Y-36.2
X52.5Y-46.9
X52.6Y-34.0
X52.7Y-39.6
X52.7Y-44.5
X52.8Y-90.0
X53.1Y-56.8
X53.3Y-94.5
X53.4Y-53.9
X53.5Y-34.7
X54.1Y-52.5
X54.1Y-57.3
X55.0Y-39.0
X55.2Y-93.2
X55.2Y-94.2
X56.2Y-91.8
X56.2Y-93.2
X56.6Y-52.8
X56.9Y-39.5
X57.7Y-42.1
X57.7Y-44.6
X57.7Y-92.3
X57.9Y-57.8
X57.9Y-84.6
X58.7Y-35.5
X58.8Y-63.7
X58.8Y-86.2
X59.3Y-42.5
X59.4Y-57.5
X59.5Y-63.7
X59.7Y-34.5
X60.1Y-56.8
X60.3Y-45.7
X60.7Y-56.3
X60.7Y-57.3
X61.0Y-44.0
X61.5Y-81.0
X62.0Y-95.5
X62.1Y-90.2
X62.6Y-42.4
X62.7Y-60.5
X63.8Y-57.8
X64.3Y-58.0
X64.3Y-90.2
X65.1Y-60.5
X65.1Y-65.7
X65.3Y-61.9
X65.6Y-64.5
X65.9Y-82.0
X65.9Y-83.0
X65.9Y-98.4
X65.9Y-99.6
X65.9Y-100.9
X66.1Y-58.3
X66.2Y-62.0
X66.2Y-65.1
X66.6Y-45.3
X66.6Y-99.1
X67.3Y-45.3
X67.3Y-61.7
X68.2Y-56.3
X68.2Y-61.9
X68.2Y-64.7
X68.7Y-52.8
X68.8Y-66.3
X68.8Y-81.0
X69.2Y-56.3
X69.25Y-63.162
X69.3Y-57.4
X69.6Y-56.8
X69.6Y-81.8
X69.8Y-45.3
X69.8Y-52.8
X69.8Y-61.3
X69.8Y-64.3
X70.0Y-53.7
X70.3Y-56.0
X70.3Y-58.9
X70.3Y-71.1
X70.5Y-44.1
X70.5Y-46.4
X70.6Y-64.4
X70.9Y-57.7
X71.0Y-56.8
X71.0Y-61.4
X71.3Y-63.7
X71.3Y-65.1
X71.7Y-55.0
X71.7Y-56.1
X72.0Y-64.4
X72.0Y-69.4
X72.3Y-61.9
X72.5Y-45.2
X72.6Y-64.3
X73.138Y-71.3
X73.4Y-59.1
X73.4Y-60.8
X73.4Y-66.1
X73.7Y-68.0
X74.1Y-58.4
X74.4Y-71.3
X74.5Y-53.5
X74.5Y-56.6
X74.5Y-61.6
X74.6Y-47.0
X74.8Y-58.3
X75.0Y-56.2
X75.1Y-72.0
X75.4Y-59.6
X75.9Y-40.2
X75.9Y-43.6
X75.9Y-46.0
X76.1Y-87.0
X76.2Y-63.1
X76.7Y-40.9
X77.0Y-63.2
X77.6Y-60.4
X78.0Y-42.4
X78.2Y-43.6
X78.5Y-27.6
X78.6Y-62.7
X78.7Y-43.1
X78.7Y-67.3
X79.4Y-50.5
X79.5Y-56.2
X79.5Y-92.5
X79.5Y-98.0
X79.6Y-60.4
X79.7Y-43.8
X79.7Y-64.2
X79.8Y-46.4
X80.0Y-37.6
X80.2Y-63.7
X80.3Y-56.2
X80.4Y-62.1
X80.9Y-25.2
X80.9Y-45.712
X81.0Y-72.4
X81.1Y-56.6
X81.2Y-71.1
X81.3Y-42.2
X81.3Y-66.9
X81.3Y-73.4
X81.6Y-50.0
X81.7Y-80.8
X81.7Y-88.9
X81.9Y-35.6
X82.0Y-45.2
X82.0Y-64.1
X82.1Y-71.9
X82.6Y-86.9
X82.8Y-40.7
X83.0Y-82.1
X83.1Y-62.4
X83.8Y-63.1
X83.8Y-70.1
X83.8Y-73.0
X83.9Y-58.2
X83.9Y-62.5
X83.9Y-64.9
X83.9Y-68.0
X83.9Y-68.7
X83.9Y-70.7
X83.9Y-72.4
X84.0Y-40.7
X84.0Y-43.7
X84.5Y-53.5
X84.7Y-35.4
X84.9Y-51.6
X84.9Y-52.7
X84.9Y-64.8
X84.9Y-65.5
X84.9Y-68.0
X84.9Y-68.7
X84.9Y-70.7
X84.9Y-72.4
X84.9Y-73.1
X85.0Y-83.1
X85.1Y-34.9
X85.1Y-66.9
X85.1Y-106.0
X85.5Y-42.2
X85.5Y-48.7
X85.5Y-73.4
X85.6Y-86.9
X86.0Y-98.5
X86.4Y-53.5
X86.5Y-73.1
X86.9Y-56.2
X87.0Y-62.0
X87.2Y-39.0
X87.3Y-71.5
X87.3Y-73.0
X87.5Y-56.3
X87.7Y-84.0
X88.3Y-70.5
X88.3Y-81.7
X88.4Y-62.0
X88.9Y-39.1
X89.0Y-44.8
X89.0Y-61.9
X89.1Y-79.8
X89.2Y-59.8
X89.2Y-76.0
X89.4Y-37.9
X89.5Y-89.7
X89.8Y-85.1
X90.4Y-61.3
X90.5Y-74.7
X90.7Y-64.2
X91.0Y-39.5
X91.5Y-90.9
X91.5Y-99.3
X91.6Y-67.4
X91.9Y-95.5
X92.0Y-96.6
X92.0Y-105.9
X92.2Y-54.6
X92.3Y-83.6
X92.4Y-38.9
X92.5Y-52.8
X92.5Y-95.6
X93.0Y-56.0
X93.1Y-87.3
X93.1Y-88.7
X93.1Y-93.9
X93.138Y-91.975
X93.2Y-66.9
X93.25Y-90.6
X93.3Y-62.5
X93.3Y-103.3
X93.7Y-80.8
X93.8Y-55.4
X93.8Y-64.2
X93.8Y-84.6
X93.8Y-90.0
X94.0Y-53.0
X94.3Y-84.2
X94.3Y-85.9
X94.6Y-78.4
X94.8Y-67.3
X95.3Y-64.2
X95.5Y-67.3
X95.8Y-53.4
X95.8Y-100.9
X96.2Y-55.4
X96.2Y-62.2
X96.2Y-67.3
X96.7Y-64.2
X96.8Y-94.7
X97.0Y-53.7
X97.5Y-62.4
X98.2Y-64.2
X98.2Y-67.3
X98.2Y-88.7
X98.2Y-91.3
X98.2Y-92.6
X98.5Y-94.6
X98.7Y-53.6
X98.7Y-55.4
X98.862Y-93.275
X99.0Y-62.5
X99.0Y-67.3
X99.5Y-69.5
X99.5Y-103.3
X99.7Y-61.8
X100.1Y-89.7
X100.3Y-60.7
X100.6Y-105.7
X101.0Y-82.7
X101.3Y-56.3
X101.3Y-58.5
X101.4Y-57.2
X101.9Y-93.5
X101.9Y-100.2
X102.4Y-61.3
X102.4Y-63.7
X102.5Y-57.1
X102.5Y-59.9
X103.3Y-61.3
X103.7Y-64.1
X104.6Y-35.3
X105.0Y-65.6
X105.1Y-62.7
X105.4Y-43.1
X105.6Y-62.1
X105.8Y-62.7
X106.0Y-44.8
X106.8Y-51.2
X107.4Y-43.4
X107.4Y-48.1
X107.4Y-90.3
X107.8Y-81.9
X108.0Y-49.7
X108.9Y-40.3
X109.1Y-45.9
X109.2Y-48.4
X110.0Y-35.0
X110.5Y-24.8
X111.0Y-50.7
X111.0Y-52.5
X111.5Y-45.7
X111.5Y-47.0
X111.6Y-36.6
X111.7Y-43.2
X111.9Y-41.8
X112.1Y-45.2
X112.2Y-43.7
X112.6Y-63.7
X113.1Y-43.0
X113.1Y-62.7
X113.3Y-63.7
X113.3Y-86.2
X113.7Y-43.6
X113.8Y-62.7
X114.3Y-44.2
X114.6Y-34.5
X114.7Y-39.0
X115.3Y-33.0
X115.8Y-88.7
X116.7Y-33.5
X116.9Y-35.1
X118.0Y-39.9
X118.0Y-96.4
X118.2Y-80.0
X118.2Y-83.8
X118.9Y-36.9
X119.2Y-79.6
X120.5Y-100.2
X121.2Y-78.6
X121.8Y-87.6
X122.1Y-81.8
X122.6Y-91.1
X122.7Y-81.2
X122.8Y-73.4
X122.8Y-75.2
X123.2Y-93.3
X123.6Y-84.8
X123.8Y-90.2
X124.0Y-90.8
X124.2Y-84.8
X124.4Y-80.3
X124.5Y-38.6
X124.6Y-46.1
X124.7Y-90.0
X124.8Y-91.9
X125.0Y-80.4
X125.0Y-88.0
X125.1Y-93.9
X125.3Y-96.4
X125.3Y-98.3
X125.8Y-98.9
X126.2Y-48.9
X126.6Y-36.8
X126.7Y-76.9
X126.7Y-98.2
X127.0Y-46.1
X127.8Y-47.3
X128.0Y-42.3
X128.0Y-50.8
X128.4Y-83.0
X128.6Y-32.6
X128.6Y-95.1
X128.7Y-35.7
X128.7Y-50.9
X128.7Y-73.4
X128.8Y-80.0
X128.9Y-101.0
X128.9Y-103.0
X129.3Y-48.0
X129.5Y-35.9
X129.9Y-79.0
X130.0Y-32.6
X130.2Y-89.4
X130.3Y-48.5
X130.6Y-105.3
X130.862Y-93.275
X130.9Y-91.3
X131.0Y-88.7
X131.5Y-73.4
X131.5Y-75.2
X131.5Y-92.6
X131.6Y-96.4
X131.9Y-79.2
X132.1Y-89.3
X132.1Y-91.0
X132.1Y-95.0
X132.5Y-98.2
X132.5Y-108.8
X132.9Y-35.9
X132.9Y-43.2
X133.0Y-86.8
X133.1Y-90.0
X133.5Y-93.3
X133.6Y-36.6
X133.8Y-79.2
X133.8Y-94.2
X134.1Y-78.6
X134.2Y-40.9
X134.5Y-35.1
X134.6Y-102.4
X134.8Y-83.9
X135.0Y-44.2
X135.0Y-93.3
X135.1Y-80.9
X135.3Y-43.2
X135.3Y-52.2
X135.5Y-97.5
X135.5Y-100.7
X136.0Y-47.3
X136.1Y-105.7
X136.3Y-41.4
X136.3Y-42.7
X136.3Y-52.2
X136.6Y-97.9
X136.9Y-25.2
X137.8Y-45.5
X138.0Y-77.3
X138.1Y-48.5
X139.2Y-34.0
X140.9Y-33.1
X140.9Y-35.9
X141.6Y-41.7
X141.6Y-42.7
X142.2Y-37.6
X142.6Y-34.5
T4
X93.9Y-56.9
X93.9Y-58.3
X93.9Y-59.7
X93.9Y-61.1
X95.3Y-56.9
X95.3Y-58.3
X95.3Y-59.7
X95.3Y-61.1
X96.7Y-56.9
X96.7Y-58.3
X96.7Y-59.7
X96.7Y-61.1
X98.1Y-56.9
X98.1Y-58.3
X98.1Y-59.7
X98.1Y-61.1
T5
X25.5Y-68.73
X25.5Y-70.0
X26.77Y-68.73
X26.77Y-70.0
X28.04Y-68.73
X28.04Y-70.0
X29.31Y-68.73
X29.31Y-70.0
X30.58Y-68.73
X30.58Y-70.0
T6
X22.5Y-51.75
X22.5Y-54.25
X24.5Y-51.75
X24.5Y-54.25
X47.0Y-21.29
X49.0Y-21.29
X51.0Y-21.29
X53.0Y-21.29
X77.0Y-21.29
X79.0Y-21.29
X81.0Y-21.29
X83.0Y-21.29
X107.0Y-21.29
X109.0Y-21.29
X111.0Y-21.29
X113.0Y-21.29
X133.0Y-21.29
X135.0Y-21.29
X137.0Y-21.29
X139.0Y-21.29
T7
X25.5Y-92.0
X25.5Y-97.0
T8
X36.0Y-98.0
X36.0Y-101.4
X45.92Y-98.0
X45.92Y-101.4
T9
X46.5Y-24.0
X53.5Y-24.0
X76.5Y-24.0
X83.5Y-24.0
X106.5Y-24.0
X113.5Y-24.0
X132.5Y-24.0
X139.5Y-24.0
T10
X27.21Y-46.98
X27.21Y-59.02
M30
