#VRML V2.0 utf8
# 3D model generated by easyeda2kicad.py (https://github.com/uPesy/easyeda2kicad.py)

Shape{
    appearance Appearance {
        material  Material 	{
            diffuseColor 0.14901960784313725 0.14901960784313725 0.14901960784313725
            specularColor 0.07450980392156863 0.07450980392156863 0.07450980392156863
            ambientIntensity 0.149
            transparency 0.0
            shininess 0.5
        }
    }
    geometry IndexedFaceSet {
        ccw TRUE
        solid FALSE
        coord DEF co Coordinate {
            point [
                -0.4411 -0.1059 0.1969, -0.4411 0.0516 0.1969, -0.4249 0.0908 0.1969, 0.5197 0.2559 0.1969, 0.6083 0.374 0.1969, 0.874 0.126 0.1969, 1.5197 0.2559 0.1969, 1.6083 0.374 0.1969, 1.874 0.126 0.1969, 2.5197 0.2559 0.1969, 2.6083 0.374 0.1969, 2.874 0.126 0.1969, 3.5197 0.2559 0.1969, 3.6083 0.374 0.1969, 3.874 0.126 0.1969, 6.4803 0.2559 0.1969, 6.5 0.2559 0.1969, 6.5 0.0908 0.1969, 6.126 0.0908 0.1969, 6.126 0.126 0.1969, 6.3917 0.374 0.1969, 5.6083 0.374 0.1969, 5.874 0.126 0.1969, 5.5197 0.2559 0.1969, 5.874 0.0908 0.1969, 5.4803 0.2559 0.1969, 5.126 0.0908 0.1969, 5.3917 0.374 0.1969, 5.126 0.126 0.1969, 4.6083 0.374 0.1969, 4.874 0.126 0.1969, 4.5197 0.2559 0.1969, 4.874 0.0908 0.1969, 4.5 0.0908 0.1969, 4.5 0.2559 0.1969, 4.4803 0.2559 0.1969, 4.126 0.126 0.1969, 4.126 0.0908 0.1969, 4.3917 0.374 0.1969, 3.874 0.0908 0.1969, 3.5 0.0908 0.1969, 3.5 0.2559 0.1969, 3.4803 0.2559 0.1969, 3.126 0.126 0.1969, 3.126 0.0908 0.1969, 3.3917 0.374 0.1969, 2.874 0.0908 0.1969, 2.5 0.0908 0.1969, 2.5 0.2559 0.1969, 2.4803 0.2559 0.1969, 2.126 0.126 0.1969, 2.126 0.0908 0.1969, 2.3917 0.374 0.1969, 1.874 0.0908 0.1969, 1.5 0.0908 0.1969, 1.5 0.2559 0.1969, 1.4803 0.2559 0.1969, 1.126 0.126 0.1969, 1.126 0.0908 0.1969, 1.3917 0.374 0.1969, 0.874 0.0908 0.1969, 0.5 0.0908 0.1969, 0.5 0.2559 0.1969, 0.4803 0.2559 0.1969, 0.126 0.126 0.1969, -0.126 0.126 0.1969, -0.1442 0.374 0.1969, 0.126 0.0908 0.1969, 0.3917 0.374 0.1969, -0.126 0.0908 0.1969, -0.1442 0.0908 0.1969, -0.126 -0.126 0.1969, -0.874 -0.126 0.1969, -0.874 0.0908 0.1969, -0.8655 0.0908 0.1969, -0.874 0.126 0.1969, -1.5 0.0908 0.1969, -1.5 0.2559 0.1969, -1.4803 0.2559 0.1969, -1.4803 -0.2559 0.1969, -1.126 0.0908 0.1969, -1.3917 -0.374 0.1969, -1.126 -0.126 0.1969, -0.8655 -0.374 0.1969, -1.874 0.126 0.1969, -1.6083 0.374 0.1969, -1.5197 0.2559 0.1969, -2.5 0.0908 0.1969, -2.5 0.2559 0.1969, -2.4803 0.2559 0.1969, -1.874 0.0908 0.1969, -2.3917 0.374 0.1969, -2.126 0.126 0.1969, -2.126 0.0908 0.1969, -2.874 0.126 0.1969, -2.6083 0.374 0.1969, -2.5197 0.2559 0.1969, -3.5 0.0908 0.1969, -3.5 0.2559 0.1969, -3.4803 0.2559 0.1969, -2.874 0.0908 0.1969, -3.3917 0.374 0.1969, -3.126 0.126 0.1969, -3.126 0.0908 0.1969, -3.874 0.126 0.1969, -3.6083 0.374 0.1969, -3.5197 0.2559 0.1969, -4.5 0.0908 0.1969, -4.5 0.2559 0.1969, -4.4803 0.2559 0.1969, -3.874 0.0908 0.1969, -4.3917 0.374 0.1969, -4.126 0.126 0.1969, -4.126 0.0908 0.1969, -4.874 0.126 0.1969, -4.6083 0.374 0.1969, -4.5197 0.2559 0.1969, -5.5 0.0908 0.1969, -5.5 0.2559 0.1969, -5.4803 0.2559 0.1969, -4.874 0.0908 0.1969, -5.3917 0.374 0.1969, -5.126 0.126 0.1969, -5.126 0.0908 0.1969, -5.5197 0.2559 0.1969, -5.874 0.0908 0.1969, -5.874 0.126 0.1969, -1.5 -0.2559 0.1969, -1.5197 -0.2559 0.1969, -1.874 -0.126 0.1969, -1.6083 -0.374 0.1969, -2.126 -0.126 0.1969, -2.3917 -0.374 0.1969, -2.4803 -0.2559 0.1969, -2.5 -0.2559 0.1969, -2.5197 -0.2559 0.1969, -2.874 -0.126 0.1969, -2.6083 -0.374 0.1969, -3.126 -0.126 0.1969, -3.3917 -0.374 0.1969, -3.4803 -0.2559 0.1969, -3.5 -0.2559 0.1969, -3.5197 -0.2559 0.1969, -3.874 -0.126 0.1969, -3.6083 -0.374 0.1969, -4.126 -0.126 0.1969, -4.3917 -0.374 0.1969, -4.4803 -0.2559 0.1969, -4.5 -0.2559 0.1969, -4.5197 -0.2559 0.1969, -4.874 -0.126 0.1969, -4.6083 -0.374 0.1969, -5.126 -0.126 0.1969, -5.3917 -0.374 0.1969, -5.4803 -0.2559 0.1969, -5.5 -0.2559 0.1969, -5.5197 -0.2559 0.1969, -5.874 -0.126 0.1969, -5.6083 -0.374 0.1969, -6.126 -0.126 0.1969, -6.313 -0.374 0.1969, -6.126 0.0908 0.1969, -6.313 0.0908 0.1969, -6.126 0.126 0.1969, -6.313 0.374 0.1969, -5.6083 0.374 0.1969, -0.2462 0.0908 0.1969, -0.4249 0.3298 0.1969, -0.6083 0.374 0.1969, -0.5197 0.2559 0.1969, -0.6975 0.0908 0.1969, -0.4803 0.2559 0.1969, -6.3917 0.374 0.1969, -6.4803 0.2559 0.1969, -6.5 0.2559 0.1969, -6.5 0.0908 0.1969, -6.5 -0.2559 0.1969, -6.4803 -0.2559 0.1969, -6.3917 -0.374 0.1969, -0.6565 -0.0943 0.1969, -0.6446 -0.1004 0.1969, -0.5197 -0.2559 0.1969, -0.5582 -0.1059 0.1969, -0.5582 0.0516 0.1969, -0.5299 0.0355 0.1969, -0.5299 0.0516 0.1969, -0.6152 0.0506 0.1969, -0.6399 0.0459 0.1969, -0.6559 0.0379 0.1969, -0.6975 -0.374 0.1969, -0.679 -0.0677 0.1969, -0.6683 -0.0839 0.1969, -0.59 0.0516 0.1969, -0.6083 -0.374 0.1969, -0.5299 -0.0292 0.1969, -0.4552 -0.0292 0.1969, -0.4552 -0.0897 0.1969, -0.5299 -0.0897 0.1969, -0.5299 -0.1059 0.1969, -0.5299 -0.013 0.1969, -0.4552 -0.013 0.1969, -0.4552 0.0355 0.1969, -0.6674 0.0279 0.1969, -0.6774 0.0137 0.1969, -0.684 -0.0028 0.1969, -0.6254 -0.1048 0.1969, -0.607 -0.1059 0.1969, -0.4803 -0.2559 0.1969, -0.4249 -0.3298 0.1969, -0.6872 -0.0218 0.1969, -0.6874 -0.0291 0.1969, -0.6852 -0.0502 0.1969, -0.4088 -0.0769 0.1969, -0.3949 -0.0915 0.1969, -0.3945 0.0377 0.1969, -0.3773 0.0481 0.1969, -0.363 0.053 0.1969, -0.3964 -0.0675 0.1969, -0.4088 0.0227 0.1969, -0.4041 0.0285 0.1969, -0.2698 -0.0199 0.1969, -0.2694 -0.0273 0.1969, -0.3392 0.0395 0.1969, -0.2732 -0.0046 0.1969, -0.2968 -0.0999 0.1969, -0.2816 -0.0889 0.1969, -0.2462 -0.374 0.1969, -0.2753 -0.0824 0.1969, -0.2916 0.0419 0.1969, -0.3082 0.0503 0.1969, -0.3275 0.0549 0.1969, -0.34 0.0556 0.1969, -0.285 -0.0701 0.1969, -0.2964 -0.0805 0.1969, -0.2579 -0.0047 0.1969, -0.2643 0.012 0.1969, -0.2752 0.0275 0.1969, -0.3964 0.0132 0.1969, -0.3838 0.0255 0.1969, -0.3877 -0.0763 0.1969, -0.369 0.0338 0.1969, -0.3737 -0.0859 0.1969, -0.3586 -0.0916 0.1969, -0.3205 0.0372 0.1969, -0.3045 0.031 0.1969, -0.2715 -0.0446 0.1969, -0.2765 -0.0577 0.1969, -0.3621 0.0363 0.1969, -0.3447 0.0393 0.1969, -0.3276 -0.0929 0.1969, -0.3116 -0.0888 0.1969, -0.3917 -0.374 0.1969, -0.3402 -0.1099 0.1969, -0.3157 -0.1071 0.1969, -0.2638 -0.0651 0.1969, -0.2575 -0.047 0.1969, -0.2553 -0.0262 0.1969, -0.3401 -0.0938 0.1969, -0.29 0.0208 0.1969, -0.2802 0.0094 0.1969, -0.3786 -0.1017 0.1969, -0.3606 -0.1078 0.1969, -0.3481 -0.1096 0.1969, -0.723 -0.1059 0.1969, -0.7076 -0.1059 0.1969, -0.7823 0.0516 0.1969, -0.7843 0.0516 0.1969, -0.857 -0.1059 0.1969, -0.8416 -0.1059 0.1969, -0.8183 -0.0554 0.1969, -0.7469 -0.0554 0.1969, -0.6975 0.374 0.1969, -0.8655 0.374 0.1969, -1.3917 0.374 0.1969, -1.126 0.126 0.1969, -0.1624 0.0516 0.1969, -0.1766 0.0516 0.1969, -0.1766 -0.0897 0.1969, -0.2371 -0.0897 0.1969, -0.2371 -0.1059 0.1969, -0.1624 -0.1059 0.1969, -0.1442 -0.374 0.1969, 6.5 -0.2559 0.1969, 6.4803 -0.2559 0.1969, 6.126 -0.126 0.1969, 6.3917 -0.374 0.1969, 5.874 -0.126 0.1969, 5.6083 -0.374 0.1969, 5.5197 -0.2559 0.1969, 5.4803 -0.2559 0.1969, 5.126 -0.126 0.1969, 5.3917 -0.374 0.1969, 4.874 -0.126 0.1969, 4.6083 -0.374 0.1969, 4.5197 -0.2559 0.1969, 4.5 -0.2559 0.1969, 4.4803 -0.2559 0.1969, 4.126 -0.126 0.1969, 4.3917 -0.374 0.1969, 3.874 -0.126 0.1969, 3.6083 -0.374 0.1969, 3.5197 -0.2559 0.1969, 3.5 -0.2559 0.1969, 3.4803 -0.2559 0.1969, 3.126 -0.126 0.1969, 3.3917 -0.374 0.1969, 2.874 -0.126 0.1969, 2.6083 -0.374 0.1969, 2.5197 -0.2559 0.1969, 2.5 -0.2559 0.1969, 2.4803 -0.2559 0.1969, 2.126 -0.126 0.1969, 2.3917 -0.374 0.1969, 1.874 -0.126 0.1969, 1.6083 -0.374 0.1969, 1.5197 -0.2559 0.1969, 1.5 -0.2559 0.1969, 1.4803 -0.2559 0.1969, 1.126 -0.126 0.1969, 1.3917 -0.374 0.1969, 0.874 -0.126 0.1969, 0.6083 -0.374 0.1969, 0.5197 -0.2559 0.1969, 0.5 -0.2559 0.1969, 0.4803 -0.2559 0.1969, 0.126 -0.126 0.1969, 0.3917 -0.374 0.1969, -0.2462 0.374 0.1969, -0.3917 0.374 0.1969, -0.3917 0.374 0.0, -0.3031 0.4921 0.0, 0.3917 0.374 0.0, 0.3031 0.4921 0.0, -1.3917 0.374 0.0, -1.3031 0.4921 0.0, -0.6083 0.374 0.0, -0.6969 0.4921 0.0, 1.6083 0.374 0.0, 1.6969 0.4921 0.0, 2.3917 0.374 0.0, 2.3031 0.4921 0.0, 1.3031 0.4921 0.0, 1.3917 0.374 0.0, 0.6969 0.4921 0.0, 0.6083 0.374 0.0, -4.3917 0.374 0.0, -4.3031 0.4921 0.0, -3.6083 0.374 0.0, -3.6969 0.4921 0.0, -5.3917 0.374 0.0, -5.3031 0.4921 0.0, -4.6083 0.374 0.0, -4.6969 0.4921 0.0, -2.3917 0.374 0.0, -2.3031 0.4921 0.0, -1.6083 0.374 0.0, -1.6969 0.4921 0.0, -2.6969 0.4921 0.0, -2.6083 0.374 0.0, -3.3031 0.4921 0.0, -3.3917 0.374 0.0, 4.6083 0.374 0.0, 4.6969 0.4921 0.0, 5.3917 0.374 0.0, 5.3031 0.4921 0.0, 3.3031 0.4921 0.0, 3.3917 0.374 0.0, 2.6969 0.4921 0.0, 2.6083 0.374 0.0, 4.3031 0.4921 0.0, 4.3917 0.374 0.0, 3.6969 0.4921 0.0, 3.6083 0.374 0.0, -0.3031 -0.4921 0.0, -0.3917 -0.374 0.0, 0.3031 -0.4921 0.0, 0.3917 -0.374 0.0, -1.3031 -0.4921 0.0, -1.3917 -0.374 0.0, -0.6969 -0.4921 0.0, -0.6083 -0.374 0.0, 1.6969 -0.4921 0.0, 1.6083 -0.374 0.0, 2.3031 -0.4921 0.0, 2.3917 -0.374 0.0, 1.3917 -0.374 0.0, 1.3031 -0.4921 0.0, 0.6083 -0.374 0.0, 0.6969 -0.4921 0.0, -4.3031 -0.4921 0.0, -4.3917 -0.374 0.0, -3.6969 -0.4921 0.0, -3.6083 -0.374 0.0, -5.3031 -0.4921 0.0, -5.3917 -0.374 0.0, -4.6969 -0.4921 0.0, -4.6083 -0.374 0.0, -2.3031 -0.4921 0.0, -2.3917 -0.374 0.0, -1.6969 -0.4921 0.0, -1.6083 -0.374 0.0, -2.6083 -0.374 0.0, -2.6969 -0.4921 0.0, -3.3917 -0.374 0.0, -3.3031 -0.4921 0.0, 4.6969 -0.4921 0.0, 4.6083 -0.374 0.0, 5.3031 -0.4921 0.0, 5.3917 -0.374 0.0, 3.3917 -0.374 0.0, 3.3031 -0.4921 0.0, 2.6083 -0.374 0.0, 2.6969 -0.4921 0.0, 4.3917 -0.374 0.0, 4.3031 -0.4921 0.0, 3.6083 -0.374 0.0, 3.6969 -0.4921 0.0, 0.3031 -0.4921 0.9843, -0.3031 -0.4921 0.9843, -0.6969 -0.4921 0.9843, -1.3031 -0.4921 0.9843, 2.3031 -0.4921 0.9843, 1.6969 -0.4921 0.9843, 0.6969 -0.4921 0.9843, 1.3031 -0.4921 0.9843, -3.6969 -0.4921 0.9843, -4.3031 -0.4921 0.9843, -4.6969 -0.4921 0.9843, -5.3031 -0.4921 0.9843, -1.6969 -0.4921 0.9843, -2.3031 -0.4921 0.9843, -3.3031 -0.4921 0.9843, -2.6969 -0.4921 0.9843, 5.3031 -0.4921 0.9843, 4.6969 -0.4921 0.9843, 2.6969 -0.4921 0.9843, 3.3031 -0.4921 0.9843, 3.6969 -0.4921 0.9843, 4.3031 -0.4921 0.9843, 0.3031 0.4921 0.9843, -0.3031 0.4921 0.9843, -0.6969 0.4921 0.9843, -1.3031 0.4921 0.9843, 2.3031 0.4921 0.9843, 1.6969 0.4921 0.9843, 0.6969 0.4921 0.9843, 1.3031 0.4921 0.9843, -3.6969 0.4921 0.9843, -4.3031 0.4921 0.9843, -4.6969 0.4921 0.9843, -5.3031 0.4921 0.9843, -1.6969 0.4921 0.9843, -2.3031 0.4921 0.9843, -3.3031 0.4921 0.9843, -2.6969 0.4921 0.9843, 5.3031 0.4921 0.9843, 4.6969 0.4921 0.9843, 2.6969 0.4921 0.9843, 3.3031 0.4921 0.9843, 3.6969 0.4921 0.9843, 4.3031 0.4921 0.9843, -6.3031 0.4921 0.0, -5.6969 0.4921 0.0, -6.3917 0.374 0.0, -5.6083 0.374 0.0, 6.3031 0.4921 0.0, 6.3917 0.374 0.0, 5.6969 0.4921 0.0, 5.6083 0.374 0.0, 6.3917 -0.374 0.0, 6.3031 -0.4921 0.0, 5.6083 -0.374 0.0, 5.6969 -0.4921 0.0, -5.6969 0.4921 0.9843, -6.3031 0.4921 0.9843, 5.6969 -0.4921 0.9843, 6.3031 -0.4921 0.9843, 6.5 0.2559 0.9843, 6.5 -0.2559 0.9843, 5.6969 0.4921 0.9843, 6.3031 0.4921 0.9843, -6.5 -0.2559 0.9843, -6.5 0.2559 0.9843, -6.3031 -0.4921 0.0, -5.6969 -0.4921 0.0, -6.3031 -0.4921 0.9843, -5.6969 -0.4921 0.9843, 6.4803 0.2559 0.9843, 6.313 0.479 0.9843, 6.313 -0.3091 0.9843, 5.4803 0.2559 0.9843, 5.4803 -0.2559 0.9843, 1.126 0.126 0.9843, 1.5197 0.2559 0.9843, 1.4803 0.2559 0.9843, 0.5197 0.2559 0.9843, 0.874 -0.126 0.9843, 0.874 0.126 0.9843, 2.126 0.126 0.9843, 2.126 -0.126 0.9843, 2.4405 -0.3091 0.9843, 1.874 0.126 0.9843, 1.5197 -0.2559 0.9843, 1.874 -0.126 0.9843, 1.5595 -0.3091 0.9843, 3.126 0.126 0.9843, 3.126 -0.126 0.9843, 3.4405 -0.3091 0.9843, 2.874 0.126 0.9843, 2.5197 -0.2559 0.9843, 2.874 -0.126 0.9843, 2.5595 -0.3091 0.9843, 3.4803 -0.2559 0.9843, 2.5197 0.2559 0.9843, 2.5 -0.2559 0.9843, 2.5 0.2559 0.9843, 2.4803 -0.2559 0.9843, 2.4803 0.2559 0.9843, 4.126 0.126 0.9843, 4.126 -0.126 0.9843, 4.4405 -0.3091 0.9843, 3.874 0.126 0.9843, 3.5197 -0.2559 0.9843, 3.874 -0.126 0.9843, 3.5595 -0.3091 0.9843, 4.4803 -0.2559 0.9843, 3.5197 0.2559 0.9843, 3.5 -0.2559 0.9843, 3.5 0.2559 0.9843, 3.4803 0.2559 0.9843, 5.126 0.126 0.9843, 5.126 -0.126 0.9843, 5.4405 -0.3091 0.9843, 4.874 0.126 0.9843, 4.5197 -0.2559 0.9843, 4.874 -0.126 0.9843, 4.5595 -0.3091 0.9843, 4.5197 0.2559 0.9843, 4.5 -0.2559 0.9843, 4.5 0.2559 0.9843, 4.4803 0.2559 0.9843, 5.874 0.126 0.9843, 6.126 0.126 0.9843, 5.5 0.2559 0.9843, 5.5 -0.2559 0.9843, 5.5197 0.2559 0.9843, 5.5197 -0.2559 0.9843, 5.874 -0.126 0.9843, 5.5595 -0.3091 0.9843, 6.126 -0.126 0.9843, 6.313 -0.479 0.9843, 6.4405 -0.3091 0.9843, 6.4803 -0.2559 0.9843, 0.5595 -0.3091 0.9843, 1.4405 -0.3091 0.9843, 0.126 0.126 0.9843, -0.126 0.126 0.9843, -0.126 -0.126 0.9843, -0.4803 0.2559 0.9843, 1.4803 -0.2559 0.9843, 1.126 -0.126 0.9843, 0.5197 -0.2559 0.9843, 0.5 -0.2559 0.9843, 0.5 0.2559 0.9843, 0.4803 -0.2559 0.9843, 0.4803 0.2559 0.9843, -0.4405 -0.3091 0.9843, 0.4405 -0.3091 0.9843, -0.874 0.126 0.9843, -0.874 -0.126 0.9843, -0.5595 -0.3091 0.9843, -1.126 0.126 0.9843, -1.4803 -0.2559 0.9843, -1.126 -0.126 0.9843, -1.4405 -0.3091 0.9843, 0.126 -0.126 0.9843, -0.4803 -0.2559 0.9843, -0.5 -0.2559 0.9843, -0.5 0.2559 0.9843, -0.5197 -0.2559 0.9843, -0.5197 0.2559 0.9843, -1.874 0.126 0.9843, -1.874 -0.126 0.9843, -1.5595 -0.3091 0.9843, -2.126 0.126 0.9843, -2.4803 -0.2559 0.9843, -2.126 -0.126 0.9843, -2.4405 -0.3091 0.9843, -1.4803 0.2559 0.9843, -1.5 -0.2559 0.9843, -1.5 0.2559 0.9843, -1.5197 -0.2559 0.9843, -1.5197 0.2559 0.9843, -2.874 0.126 0.9843, -2.874 -0.126 0.9843, -2.5595 -0.3091 0.9843, -3.126 0.126 0.9843, -3.4803 -0.2559 0.9843, -3.126 -0.126 0.9843, -3.4405 -0.3091 0.9843, -2.4803 0.2559 0.9843, -2.5 -0.2559 0.9843, -2.5 0.2559 0.9843, -2.5197 -0.2559 0.9843, -2.5197 0.2559 0.9843, -3.874 0.126 0.9843, -3.874 -0.126 0.9843, -3.5595 -0.3091 0.9843, -4.126 0.126 0.9843, -4.4803 -0.2559 0.9843, -4.126 -0.126 0.9843, -4.4405 -0.3091 0.9843, -3.4803 0.2559 0.9843, -3.5 -0.2559 0.9843, -3.5 0.2559 0.9843, -3.5197 -0.2559 0.9843, -3.5197 0.2559 0.9843, -4.874 0.126 0.9843, -4.874 -0.126 0.9843, -4.5595 -0.3091 0.9843, -5.126 0.126 0.9843, -5.4803 -0.2559 0.9843, -5.126 -0.126 0.9843, -5.4405 -0.3091 0.9843, -4.4803 0.2559 0.9843, -4.5 -0.2559 0.9843, -4.5 0.2559 0.9843, -4.5197 -0.2559 0.9843, -4.5197 0.2559 0.9843, -6.4803 -0.2559 0.9843, -6.4405 -0.3091 0.9843, -6.126 -0.126 0.9843, -5.874 -0.126 0.9843, -5.874 0.126 0.9843, -5.5595 -0.3091 0.9843, -6.4803 0.2559 0.9843, -6.126 0.126 0.9843, -5.5197 -0.2559 0.9843, -5.4803 0.2559 0.9843, -5.5 -0.2559 0.9843, -5.5 0.2559 0.9843, -5.5197 0.2559 0.9843, -5.6083 -0.374 0.0, -6.3917 -0.374 0.0
            ]
        }
        coordIndex [
            0,1,2,-1,3,4,5,-1,6,7,8,-1,9,10,11,-1,12,13,14,-1,15,16,17,-1,17,18,15,-1,15,18,19,-1,15,19,20,-1,20,19,21,-1,21,19,22,-1,21,22,23,-1,23,22,24,-1,23,24,25,-1,25,24,26,-1,25,26,27,-1,27,26,28,-1,27,28,29,-1,29,28,30,-1,29,30,31,-1,30,32,31,-1,31,32,33,-1,31,33,34,-1,34,33,35,-1,14,13,36,-1,33,37,35,-1,35,37,36,-1,35,36,38,-1,38,36,13,-1,14,39,12,-1,12,39,40,-1,12,40,41,-1,41,40,42,-1,11,10,43,-1,40,44,42,-1,42,44,43,-1,42,43,45,-1,45,43,10,-1,11,46,9,-1,9,46,47,-1,9,47,48,-1,48,47,49,-1,8,7,50,-1,47,51,49,-1,49,51,50,-1,49,50,52,-1,52,50,7,-1,8,53,6,-1,6,53,54,-1,6,54,55,-1,55,54,56,-1,5,4,57,-1,54,58,56,-1,56,58,57,-1,56,57,59,-1,59,57,4,-1,5,60,3,-1,3,60,61,-1,3,61,62,-1,62,61,63,-1,64,65,66,-1,61,67,63,-1,63,67,64,-1,63,64,68,-1,68,64,66,-1,65,69,70,-1,70,69,71,-1,72,73,74,-1,74,73,75,-1,76,77,78,-1,79,80,81,-1,81,80,82,-1,81,82,83,-1,83,82,72,-1,84,85,86,-1,87,88,89,-1,77,76,86,-1,86,76,90,-1,86,90,84,-1,85,84,91,-1,91,84,92,-1,91,92,89,-1,89,92,93,-1,89,93,87,-1,94,95,96,-1,97,98,99,-1,88,87,96,-1,96,87,100,-1,96,100,94,-1,95,94,101,-1,101,94,102,-1,101,102,99,-1,99,102,103,-1,99,103,97,-1,104,105,106,-1,107,108,109,-1,98,97,106,-1,106,97,110,-1,106,110,104,-1,105,104,111,-1,111,104,112,-1,111,112,109,-1,109,112,113,-1,109,113,107,-1,114,115,116,-1,117,118,119,-1,108,107,116,-1,116,107,120,-1,116,120,114,-1,115,114,121,-1,121,114,122,-1,121,122,119,-1,119,122,123,-1,119,123,117,-1,118,117,124,-1,124,117,125,-1,124,125,126,-1,76,127,90,-1,90,127,128,-1,90,128,129,-1,129,128,130,-1,129,130,131,-1,131,130,132,-1,131,132,93,-1,93,132,133,-1,93,133,87,-1,87,133,134,-1,87,134,100,-1,100,134,135,-1,100,135,136,-1,136,135,137,-1,136,137,138,-1,138,137,139,-1,138,139,103,-1,103,139,140,-1,103,140,97,-1,97,140,141,-1,97,141,110,-1,110,141,142,-1,110,142,143,-1,143,142,144,-1,143,144,145,-1,145,144,146,-1,145,146,113,-1,113,146,147,-1,113,147,107,-1,107,147,148,-1,107,148,120,-1,120,148,149,-1,120,149,150,-1,150,149,151,-1,150,151,152,-1,152,151,153,-1,152,153,123,-1,123,153,154,-1,123,154,117,-1,117,154,155,-1,117,155,125,-1,125,155,156,-1,125,156,157,-1,157,156,158,-1,157,158,159,-1,159,158,160,-1,159,160,161,-1,161,160,162,-1,161,162,163,-1,163,162,164,-1,163,164,126,-1,126,164,165,-1,126,165,124,-1,166,2,167,-1,168,169,170,-1,170,169,2,-1,2,169,171,-1,2,171,167,-1,172,164,173,-1,173,164,162,-1,173,162,174,-1,174,162,175,-1,176,175,177,-1,177,175,162,-1,177,162,178,-1,178,162,160,-1,179,180,181,-1,182,183,184,-1,184,183,185,-1,186,187,170,-1,170,187,188,-1,189,190,191,-1,1,185,2,-1,2,185,183,-1,2,183,170,-1,170,183,192,-1,170,192,186,-1,179,181,191,-1,191,181,193,-1,191,193,189,-1,194,195,196,-1,197,198,182,-1,196,197,194,-1,194,197,182,-1,194,182,199,-1,199,182,184,-1,199,184,200,-1,200,184,201,-1,188,202,170,-1,170,202,203,-1,170,203,204,-1,180,205,181,-1,181,205,206,-1,181,206,207,-1,207,206,182,-1,207,182,208,-1,208,182,198,-1,208,198,0,-1,204,209,170,-1,170,209,210,-1,170,210,189,-1,189,210,211,-1,189,211,190,-1,0,2,208,-1,208,2,212,-1,208,212,213,-1,214,2,215,-1,215,2,216,-1,217,212,218,-1,218,212,2,-1,218,2,219,-1,219,2,214,-1,220,221,222,-1,220,222,223,-1,224,225,226,-1,226,225,227,-1,228,229,166,-1,166,229,230,-1,166,230,2,-1,2,230,231,-1,2,231,216,-1,222,232,233,-1,234,235,166,-1,166,235,236,-1,166,236,228,-1,218,237,217,-1,217,237,238,-1,217,238,239,-1,239,238,240,-1,239,240,241,-1,241,240,242,-1,222,243,244,-1,221,245,222,-1,222,245,246,-1,222,246,232,-1,247,248,249,-1,249,248,222,-1,249,222,250,-1,250,222,233,-1,251,252,226,-1,226,252,253,-1,226,253,224,-1,227,254,226,-1,226,254,255,-1,226,255,256,-1,247,249,240,-1,240,249,257,-1,240,257,242,-1,244,258,222,-1,222,258,259,-1,222,259,223,-1,213,260,208,-1,208,260,261,-1,208,261,251,-1,251,261,262,-1,251,262,252,-1,263,264,189,-1,189,264,170,-1,170,264,265,-1,170,265,74,-1,74,265,266,-1,74,266,267,-1,72,74,83,-1,83,74,267,-1,83,267,189,-1,189,267,268,-1,189,268,263,-1,263,268,269,-1,263,269,270,-1,168,170,271,-1,271,170,74,-1,271,74,272,-1,272,74,75,-1,272,75,273,-1,273,75,274,-1,273,274,78,-1,78,274,80,-1,78,80,76,-1,76,80,79,-1,76,79,127,-1,70,275,166,-1,166,275,276,-1,276,277,166,-1,166,277,278,-1,166,278,279,-1,280,281,279,-1,279,281,226,-1,279,226,166,-1,166,226,256,-1,166,256,234,-1,17,282,18,-1,18,282,283,-1,18,283,284,-1,284,283,285,-1,284,285,286,-1,286,285,287,-1,286,287,24,-1,24,287,288,-1,24,288,26,-1,26,288,289,-1,26,289,290,-1,290,289,291,-1,290,291,292,-1,292,291,293,-1,292,293,32,-1,32,293,294,-1,32,294,33,-1,33,294,295,-1,33,295,37,-1,37,295,296,-1,37,296,297,-1,297,296,298,-1,297,298,299,-1,299,298,300,-1,299,300,39,-1,39,300,301,-1,39,301,40,-1,40,301,302,-1,40,302,44,-1,44,302,303,-1,44,303,304,-1,304,303,305,-1,304,305,306,-1,306,305,307,-1,306,307,46,-1,46,307,308,-1,46,308,47,-1,47,308,309,-1,47,309,51,-1,51,309,310,-1,51,310,311,-1,311,310,312,-1,311,312,313,-1,313,312,314,-1,313,314,53,-1,53,314,315,-1,53,315,54,-1,54,315,316,-1,54,316,58,-1,58,316,317,-1,58,317,318,-1,318,317,319,-1,318,319,320,-1,320,319,321,-1,320,321,60,-1,60,321,322,-1,60,322,61,-1,61,322,323,-1,61,323,67,-1,67,323,324,-1,67,324,325,-1,325,324,326,-1,325,326,71,-1,71,326,281,-1,71,281,70,-1,70,281,280,-1,70,280,275,-1,65,70,66,-1,66,70,166,-1,66,166,327,-1,327,166,167,-1,327,167,328,-1,329,330,331,-1,331,330,332,-1,333,334,335,-1,335,334,336,-1,337,338,339,-1,339,338,340,-1,341,342,343,-1,343,342,344,-1,345,346,347,-1,347,346,348,-1,349,350,351,-1,351,350,352,-1,353,354,355,-1,355,354,356,-1,357,358,359,-1,359,358,360,-1,361,362,363,-1,363,362,364,-1,365,366,367,-1,367,366,368,-1,369,370,371,-1,371,370,372,-1,373,374,375,-1,375,374,376,-1,377,378,379,-1,379,378,380,-1,381,382,383,-1,383,382,384,-1,385,386,387,-1,387,386,388,-1,389,390,391,-1,391,390,392,-1,393,394,395,-1,395,394,396,-1,397,398,399,-1,399,398,400,-1,401,402,403,-1,403,402,404,-1,405,406,407,-1,407,406,408,-1,409,410,411,-1,411,410,412,-1,413,414,415,-1,415,414,416,-1,417,418,375,-1,375,418,373,-1,419,420,379,-1,379,420,377,-1,421,422,383,-1,383,422,381,-1,388,386,423,-1,423,386,424,-1,425,426,391,-1,391,426,389,-1,427,428,395,-1,395,428,393,-1,429,430,399,-1,399,430,397,-1,404,402,431,-1,431,402,432,-1,433,434,407,-1,407,434,405,-1,412,410,435,-1,435,410,436,-1,416,414,437,-1,437,414,438,-1,332,330,439,-1,439,330,440,-1,336,334,441,-1,441,334,442,-1,340,338,443,-1,443,338,444,-1,445,446,343,-1,343,446,341,-1,348,346,447,-1,447,346,448,-1,352,350,449,-1,449,350,450,-1,356,354,451,-1,451,354,452,-1,453,454,359,-1,359,454,357,-1,364,362,455,-1,455,362,456,-1,457,458,367,-1,367,458,365,-1,459,460,371,-1,371,460,369,-1,329,331,68,-1,68,66,329,-1,329,66,327,-1,329,327,328,-1,273,333,272,-1,272,333,335,-1,272,335,271,-1,271,335,168,-1,52,7,339,-1,339,7,337,-1,344,342,4,-1,4,342,59,-1,105,111,347,-1,347,111,345,-1,115,121,351,-1,351,121,349,-1,85,91,355,-1,355,91,353,-1,360,358,101,-1,101,358,95,-1,27,29,363,-1,363,29,361,-1,368,366,10,-1,10,366,45,-1,372,370,13,-1,13,370,38,-1,326,376,281,-1,281,376,374,-1,281,374,226,-1,226,374,251,-1,380,378,81,-1,81,83,380,-1,380,83,189,-1,380,189,193,-1,384,382,312,-1,312,382,314,-1,321,319,387,-1,387,319,385,-1,392,390,144,-1,144,390,146,-1,396,394,151,-1,151,394,153,-1,400,398,130,-1,130,398,132,-1,139,137,403,-1,403,137,401,-1,408,406,291,-1,291,406,293,-1,307,305,411,-1,411,305,409,-1,300,298,415,-1,415,298,413,-1,461,462,463,-1,463,462,464,-1,465,466,467,-1,467,466,468,-1,469,470,471,-1,471,470,472,-1,462,461,473,-1,473,461,474,-1,472,470,475,-1,475,470,476,-1,16,477,17,-1,17,477,478,-1,17,478,282,-1,479,480,467,-1,467,480,465,-1,176,481,174,-1,174,481,482,-1,483,484,485,-1,485,484,486,-1,487,488,489,-1,490,455,491,-1,492,493,494,-1,445,495,496,-1,494,446,492,-1,492,446,445,-1,492,445,497,-1,497,445,496,-1,498,499,500,-1,501,502,503,-1,503,502,504,-1,503,504,499,-1,505,506,507,-1,508,509,510,-1,510,509,511,-1,510,511,506,-1,507,512,505,-1,505,512,458,-1,505,458,508,-1,508,458,457,-1,508,457,509,-1,509,457,513,-1,509,513,514,-1,514,513,515,-1,514,515,516,-1,516,515,517,-1,516,517,443,-1,518,519,520,-1,521,522,523,-1,523,522,524,-1,523,524,519,-1,520,525,518,-1,518,525,460,-1,518,460,521,-1,521,460,459,-1,521,459,522,-1,522,459,526,-1,522,526,527,-1,527,526,528,-1,527,528,512,-1,512,528,529,-1,512,529,458,-1,530,531,532,-1,533,534,535,-1,535,534,536,-1,535,536,531,-1,532,491,530,-1,530,491,455,-1,530,455,533,-1,533,455,456,-1,533,456,534,-1,534,456,537,-1,534,537,538,-1,538,537,539,-1,538,539,525,-1,525,539,540,-1,525,540,460,-1,541,542,480,-1,490,491,543,-1,543,491,544,-1,543,544,545,-1,545,544,546,-1,545,546,479,-1,480,479,541,-1,541,479,546,-1,541,546,547,-1,547,546,548,-1,547,548,549,-1,549,548,489,-1,549,489,542,-1,542,489,488,-1,542,488,480,-1,475,476,548,-1,548,476,550,-1,548,550,489,-1,489,550,551,-1,489,551,487,-1,487,551,552,-1,487,552,477,-1,477,552,478,-1,531,536,532,-1,532,536,434,-1,532,434,433,-1,519,524,520,-1,520,524,437,-1,520,437,438,-1,506,511,507,-1,507,511,435,-1,507,435,436,-1,499,504,500,-1,500,504,422,-1,500,422,421,-1,553,423,554,-1,554,423,424,-1,555,439,556,-1,556,439,440,-1,556,440,557,-1,557,440,558,-1,500,516,498,-1,498,516,443,-1,498,443,501,-1,501,443,444,-1,501,444,502,-1,502,444,493,-1,502,493,559,-1,559,493,492,-1,559,492,554,-1,554,492,560,-1,554,560,553,-1,553,560,496,-1,553,496,561,-1,561,496,495,-1,561,495,562,-1,562,495,563,-1,562,563,564,-1,564,563,565,-1,566,418,567,-1,567,418,417,-1,568,569,570,-1,571,572,573,-1,573,572,574,-1,573,574,569,-1,565,439,564,-1,564,439,555,-1,564,555,567,-1,567,555,575,-1,567,575,566,-1,566,575,557,-1,566,557,576,-1,576,557,558,-1,576,558,577,-1,577,558,578,-1,577,578,579,-1,579,578,580,-1,579,580,441,-1,569,574,570,-1,570,574,420,-1,570,420,419,-1,581,582,583,-1,584,585,586,-1,586,585,587,-1,586,587,582,-1,570,579,568,-1,568,579,441,-1,568,441,571,-1,571,441,442,-1,571,442,572,-1,572,442,588,-1,572,588,589,-1,589,588,590,-1,589,590,591,-1,591,590,592,-1,591,592,451,-1,582,587,583,-1,583,587,430,-1,583,430,429,-1,593,594,595,-1,596,597,598,-1,598,597,599,-1,598,599,594,-1,583,591,581,-1,581,591,451,-1,581,451,584,-1,584,451,452,-1,584,452,585,-1,585,452,600,-1,585,600,601,-1,601,600,602,-1,601,602,603,-1,603,602,604,-1,603,604,454,-1,594,599,595,-1,595,599,431,-1,595,431,432,-1,605,606,607,-1,608,609,610,-1,610,609,611,-1,610,611,606,-1,595,603,593,-1,593,603,454,-1,593,454,596,-1,596,454,453,-1,596,453,597,-1,597,453,612,-1,597,612,613,-1,613,612,614,-1,613,614,615,-1,615,614,616,-1,615,616,447,-1,606,611,607,-1,607,611,426,-1,607,426,425,-1,617,618,619,-1,620,621,622,-1,622,621,623,-1,622,623,618,-1,607,615,605,-1,605,615,447,-1,605,447,608,-1,608,447,448,-1,608,448,609,-1,609,448,624,-1,609,624,625,-1,625,624,626,-1,625,626,627,-1,627,626,628,-1,627,628,449,-1,618,623,619,-1,619,623,428,-1,619,428,427,-1,629,630,631,-1,631,630,632,-1,633,632,634,-1,635,482,481,-1,481,629,635,-1,635,629,631,-1,635,631,474,-1,474,631,636,-1,474,636,473,-1,473,636,633,-1,473,633,637,-1,637,633,634,-1,619,627,617,-1,617,627,449,-1,617,449,620,-1,620,449,450,-1,620,450,621,-1,621,450,638,-1,621,638,639,-1,639,638,640,-1,639,640,637,-1,637,640,641,-1,637,641,473,-1,632,630,634,-1,634,630,485,-1,634,485,486,-1,484,483,642,-1,642,483,643,-1,461,463,172,-1,173,635,172,-1,172,635,474,-1,172,474,461,-1,174,482,173,-1,173,482,635,-1,464,462,165,-1,165,462,473,-1,165,473,124,-1,124,473,641,-1,638,119,640,-1,640,119,118,-1,640,118,641,-1,641,118,124,-1,154,621,155,-1,155,621,639,-1,155,639,156,-1,156,639,637,-1,484,642,158,-1,156,637,158,-1,158,637,486,-1,158,486,484,-1,643,483,178,-1,178,483,485,-1,178,485,177,-1,177,485,629,-1,177,629,176,-1,176,629,481,-1,165,172,464,-1,464,172,463,-1,468,466,21,-1,21,466,20,-1,287,285,471,-1,471,285,469,-1,178,158,643,-1,643,158,642,-1,
        ]
    }
}
Shape{
    appearance Appearance {
        material  Material 	{
            diffuseColor 0.7529411764705882 0.7529411764705882 0.7529411764705882
            specularColor 0.3764705882352941 0.3764705882352941 0.3764705882352941
            ambientIntensity 0.7529
            transparency 0.0
            shininess 0.5
        }
    }
    geometry IndexedFaceSet {
        ccw TRUE
        solid FALSE
        coord DEF co Coordinate {
            point [
                -6.126 0.0472 -1.1811, -6.126 0.126 -1.1024, -5.874 0.0472 -1.1811, -5.874 0.126 -1.1024, -6.126 -0.0472 -1.1811, -5.874 -0.0472 -1.1811, -6.126 -0.126 -1.1024, -5.874 -0.126 -1.1024, -5.874 0.126 0.1969, -5.874 -0.126 0.1969, -6.126 0.126 0.1969, -6.126 -0.126 0.1969, -5.874 -0.126 0.9843, -5.874 -0.126 3.2677, -6.126 -0.126 0.9843, -6.126 -0.126 3.2677, -6.126 0.126 0.9843, -6.126 0.126 3.2677, -5.874 0.126 0.9843, -5.874 0.126 3.2677, -6.126 -0.0472 3.3465, -6.126 0.0472 3.3465, -5.874 -0.0472 3.3465, -5.874 0.0472 3.3465
            ]
        }
        coordIndex [
            0,1,2,-1,2,1,3,-1,4,0,5,-1,5,0,2,-1,6,4,7,-1,7,4,5,-1,8,9,3,-1,3,9,7,-1,3,7,2,-1,2,7,5,-1,0,4,1,-1,1,4,6,-1,1,6,10,-1,10,6,11,-1,8,3,10,-1,10,3,1,-1,11,6,9,-1,9,6,7,-1,12,13,14,-1,14,13,15,-1,16,17,18,-1,18,17,19,-1,20,21,15,-1,15,21,17,-1,15,17,14,-1,14,17,16,-1,12,18,13,-1,13,18,19,-1,13,19,22,-1,22,19,23,-1,20,15,22,-1,22,15,13,-1,21,20,23,-1,23,20,22,-1,17,21,19,-1,19,21,23,-1,
        ]
    }
}
Shape{
    appearance Appearance {
        material  Material 	{
            diffuseColor 0.14901960784313725 0.14901960784313725 0.14901960784313725
            specularColor 0.07450980392156863 0.07450980392156863 0.07450980392156863
            ambientIntensity 0.149
            transparency 0.0
            shininess 0.5
        }
    }
    geometry IndexedFaceSet {
        ccw TRUE
        solid FALSE
        coord DEF co Coordinate {
            point [
                -5.3031 0.4921 0.0, -5.3917 0.374 0.0, -5.3917 0.374 0.1969, -5.4803 0.2559 0.1969, -5.4803 0.2559 0.9843, -5.3031 0.4921 0.9843, 4.3917 0.374 0.0, 4.3031 0.4921 0.0, 4.3917 0.374 0.1969, 4.3031 0.4921 0.9843, 4.4803 0.2559 0.1969, 4.4803 0.2559 0.9843, 4.5197 0.2559 0.9843, 4.5197 0.2559 0.1969, 4.5 0.2559 0.9843, 4.5 0.2559 0.1969, 4.6969 0.4921 0.0, 4.6083 0.374 0.0, 4.6083 0.374 0.1969, 4.6969 0.4921 0.9843, 4.4803 -0.2559 0.9843, 4.4803 -0.2559 0.1969, 4.5 -0.2559 0.9843, 4.5 -0.2559 0.1969, 4.5197 -0.2559 0.9843, 4.5197 -0.2559 0.1969, 4.3031 -0.4921 0.9843, 4.3031 -0.4921 0.0, 4.3917 -0.374 0.1969, 4.3917 -0.374 0.0, 4.4405 -0.3091 0.9843, 4.6083 -0.374 0.1969, 4.6083 -0.374 0.0, 4.6969 -0.4921 0.0, 4.5595 -0.3091 0.9843, 4.6969 -0.4921 0.9843, 3.3917 0.374 0.0, 3.3031 0.4921 0.0, 3.3917 0.374 0.1969, 3.3031 0.4921 0.9843, 3.4803 0.2559 0.1969, 3.4803 0.2559 0.9843, 3.5197 0.2559 0.9843, 3.5197 0.2559 0.1969, 3.5 0.2559 0.9843, 3.5 0.2559 0.1969, 3.6969 0.4921 0.0, 3.6083 0.374 0.0, 3.6083 0.374 0.1969, 3.6969 0.4921 0.9843, 3.4803 -0.2559 0.9843, 3.4803 -0.2559 0.1969, 3.5 -0.2559 0.9843, 3.5 -0.2559 0.1969, 3.5197 -0.2559 0.9843, 3.5197 -0.2559 0.1969, 3.3031 -0.4921 0.9843, 3.3031 -0.4921 0.0, 3.3917 -0.374 0.1969, 3.3917 -0.374 0.0, 3.4405 -0.3091 0.9843, 3.6083 -0.374 0.1969, 3.6083 -0.374 0.0, 3.6969 -0.4921 0.0, 3.5595 -0.3091 0.9843, 3.6969 -0.4921 0.9843, 6.4803 -0.2559 0.9843, 6.4803 -0.2559 0.1969, 6.5 -0.2559 0.9843, 6.5 -0.2559 0.1969, 6.3031 -0.4921 0.0, 6.3917 -0.374 0.0, 6.3917 -0.374 0.1969, 6.4405 -0.3091 0.9843, 6.313 -0.479 0.9843, 6.3031 -0.4921 0.9843, 6.3917 0.374 0.1969, 6.3917 0.374 0.0, 6.3031 0.4921 0.0, 6.4803 0.2559 0.9843, 6.4803 0.2559 0.1969, 6.313 0.479 0.9843, 6.3031 0.4921 0.9843
            ]
        }
        coordIndex [
            0,1,2,-1,3,4,2,-1,2,4,5,-1,2,5,0,-1,6,7,8,-1,8,7,9,-1,8,9,10,-1,10,9,11,-1,12,13,14,-1,14,13,15,-1,14,15,11,-1,11,15,10,-1,16,17,18,-1,13,12,18,-1,18,12,19,-1,18,19,16,-1,20,21,22,-1,22,21,23,-1,22,23,24,-1,24,23,25,-1,26,27,28,-1,28,27,29,-1,26,28,30,-1,30,28,21,-1,30,21,20,-1,31,32,33,-1,24,25,34,-1,34,25,31,-1,34,31,35,-1,35,31,33,-1,36,37,38,-1,38,37,39,-1,38,39,40,-1,40,39,41,-1,42,43,44,-1,44,43,45,-1,44,45,41,-1,41,45,40,-1,46,47,48,-1,43,42,48,-1,48,42,49,-1,48,49,46,-1,50,51,52,-1,52,51,53,-1,52,53,54,-1,54,53,55,-1,56,57,58,-1,58,57,59,-1,56,58,60,-1,60,58,51,-1,60,51,50,-1,61,62,63,-1,54,55,64,-1,64,55,61,-1,64,61,65,-1,65,61,63,-1,66,67,68,-1,68,67,69,-1,70,71,72,-1,66,73,67,-1,67,73,74,-1,67,74,72,-1,72,74,75,-1,72,75,70,-1,76,77,78,-1,79,80,81,-1,81,80,76,-1,81,76,82,-1,82,76,78,-1,
        ]
    }
}
Shape{
    appearance Appearance {
        material  Material 	{
            diffuseColor 0.7529411764705882 0.7529411764705882 0.7529411764705882
            specularColor 0.3764705882352941 0.3764705882352941 0.3764705882352941
            ambientIntensity 0.7529
            transparency 0.0
            shininess 0.5
        }
    }
    geometry IndexedFaceSet {
        ccw TRUE
        solid FALSE
        coord DEF co Coordinate {
            point [
                6.5 0.2559 0.9843, 6.5 0.2559 0.1969, 6.4803 0.2559 0.9843, 6.4803 0.2559 0.1969
            ]
        }
        coordIndex [
            0,1,2,-1,2,1,3,-1,
        ]
    }
}
Shape{
    appearance Appearance {
        material  Material 	{
            diffuseColor 0.14901960784313725 0.14901960784313725 0.14901960784313725
            specularColor 0.07450980392156863 0.07450980392156863 0.07450980392156863
            ambientIntensity 0.149
            transparency 0.0
            shininess 0.5
        }
    }
    geometry IndexedFaceSet {
        ccw TRUE
        solid FALSE
        coord DEF co Coordinate {
            point [
                5.3917 0.374 0.0, 5.3031 0.4921 0.0, 5.3917 0.374 0.1969, 5.3031 0.4921 0.9843, 5.4803 0.2559 0.1969, 5.4803 0.2559 0.9843, 5.5197 0.2559 0.9843, 5.5197 0.2559 0.1969, 5.5 0.2559 0.9843, 5.6969 0.4921 0.0, 5.6083 0.374 0.0, 5.6083 0.374 0.1969, 5.6969 0.4921 0.9843, 5.4803 -0.2559 0.9843, 5.4803 -0.2559 0.1969, 5.5 -0.2559 0.9843, 5.5197 -0.2559 0.1969, 5.5197 -0.2559 0.9843, 5.3031 -0.4921 0.9843, 5.3031 -0.4921 0.0, 5.3917 -0.374 0.1969, 5.3917 -0.374 0.0, 5.4405 -0.3091 0.9843, 5.6083 -0.374 0.1969, 5.6083 -0.374 0.0, 5.6969 -0.4921 0.0, 5.5595 -0.3091 0.9843, 5.6969 -0.4921 0.9843, -2.5197 -0.2559 0.9843, -2.5197 -0.2559 0.1969, -2.5 -0.2559 0.9843, -2.5 -0.2559 0.1969, -2.4803 -0.2559 0.9843, -2.4803 -0.2559 0.1969, -2.6969 -0.4921 0.9843, -2.6969 -0.4921 0.0, -2.6083 -0.374 0.1969, -2.6083 -0.374 0.0, -2.5595 -0.3091 0.9843, -2.3917 -0.374 0.1969, -2.3917 -0.374 0.0, -2.3031 -0.4921 0.0, -2.4405 -0.3091 0.9843, -2.3031 -0.4921 0.9843, -2.6083 0.374 0.0, -2.6969 0.4921 0.0, -2.6083 0.374 0.1969, -2.6969 0.4921 0.9843, -2.5197 0.2559 0.1969, -2.5197 0.2559 0.9843, -2.4803 0.2559 0.9843, -2.4803 0.2559 0.1969, -2.5 0.2559 0.9843, -2.5 0.2559 0.1969, -2.3031 0.4921 0.0, -2.3917 0.374 0.0, -2.3917 0.374 0.1969, -2.3031 0.4921 0.9843, -1.5197 -0.2559 0.9843, -1.5197 -0.2559 0.1969, -1.5 -0.2559 0.9843, -1.5 -0.2559 0.1969, -1.4803 -0.2559 0.9843, -1.4803 -0.2559 0.1969, -1.6969 -0.4921 0.9843, -1.6969 -0.4921 0.0, -1.6083 -0.374 0.1969, -1.6083 -0.374 0.0, -1.5595 -0.3091 0.9843, -1.3917 -0.374 0.1969, -1.3917 -0.374 0.0, -1.3031 -0.4921 0.0, -1.4405 -0.3091 0.9843, -1.3031 -0.4921 0.9843, -1.6083 0.374 0.0, -1.6969 0.4921 0.0, -1.6083 0.374 0.1969, -1.6969 0.4921 0.9843, -1.5197 0.2559 0.1969, -1.5197 0.2559 0.9843, -1.4803 0.2559 0.9843, -1.4803 0.2559 0.1969, -1.5 0.2559 0.9843, -1.5 0.2559 0.1969, -1.3031 0.4921 0.0, -1.3917 0.374 0.0, -1.3917 0.374 0.1969, -1.3031 0.4921 0.9843, -5.3917 -0.374 0.1969, -5.3917 -0.374 0.0, -5.3031 -0.4921 0.0, -5.4803 -0.2559 0.9843, -5.4803 -0.2559 0.1969, -5.4405 -0.3091 0.9843, -5.3031 -0.4921 0.9843, -4.5197 -0.2559 0.9843, -4.5197 -0.2559 0.1969, -4.5 -0.2559 0.9843, -4.5 -0.2559 0.1969, -4.4803 -0.2559 0.9843, -4.4803 -0.2559 0.1969, -4.6969 -0.4921 0.9843, -4.6969 -0.4921 0.0, -4.6083 -0.374 0.1969, -4.6083 -0.374 0.0, -4.5595 -0.3091 0.9843, -4.3917 -0.374 0.1969, -4.3917 -0.374 0.0, -4.3031 -0.4921 0.0, -4.4405 -0.3091 0.9843, -4.3031 -0.4921 0.9843, -4.6083 0.374 0.0, -4.6969 0.4921 0.0, -4.6083 0.374 0.1969, -4.6969 0.4921 0.9843, -4.5197 0.2559 0.1969, -4.5197 0.2559 0.9843, -4.4803 0.2559 0.9843, -4.4803 0.2559 0.1969, -4.5 0.2559 0.9843, -4.5 0.2559 0.1969, -4.3031 0.4921 0.0, -4.3917 0.374 0.0, -4.3917 0.374 0.1969, -4.3031 0.4921 0.9843, -3.5197 -0.2559 0.9843, -3.5197 -0.2559 0.1969, -3.5 -0.2559 0.9843, -3.5 -0.2559 0.1969, -3.4803 -0.2559 0.9843, -3.4803 -0.2559 0.1969, -3.6969 -0.4921 0.9843, -3.6969 -0.4921 0.0, -3.6083 -0.374 0.1969, -3.6083 -0.374 0.0, -3.5595 -0.3091 0.9843, -3.3917 -0.374 0.1969, -3.3917 -0.374 0.0, -3.3031 -0.4921 0.0, -3.4405 -0.3091 0.9843, -3.3031 -0.4921 0.9843, -3.6083 0.374 0.0, -3.6969 0.4921 0.0, -3.6083 0.374 0.1969, -3.6969 0.4921 0.9843, -3.5197 0.2559 0.1969, -3.5197 0.2559 0.9843, -3.4803 0.2559 0.9843, -3.4803 0.2559 0.1969, -3.5 0.2559 0.9843, -3.5 0.2559 0.1969, -3.3031 0.4921 0.0, -3.3917 0.374 0.0, -3.3917 0.374 0.1969, -3.3031 0.4921 0.9843, 1.5197 -0.2559 0.1969, 1.5197 -0.2559 0.9843, 1.5 -0.2559 0.1969, 1.4803 -0.2559 0.9843, 1.4803 -0.2559 0.1969, 1.3031 -0.4921 0.9843, 1.3031 -0.4921 0.0, 1.3917 -0.374 0.1969, 1.3917 -0.374 0.0, 1.4405 -0.3091 0.9843, 1.6083 -0.374 0.1969, 1.6083 -0.374 0.0, 1.6969 -0.4921 0.0, 1.5595 -0.3091 0.9843, 1.6969 -0.4921 0.9843, 1.3917 0.374 0.0, 1.3031 0.4921 0.0, 1.3917 0.374 0.1969, 1.3031 0.4921 0.9843, 1.4803 0.2559 0.1969, 1.4803 0.2559 0.9843, 1.5 0.2559 0.1969, 1.5197 0.2559 0.9843, 1.5197 0.2559 0.1969, 1.6969 0.4921 0.0, 1.6083 0.374 0.0, 1.6083 0.374 0.1969, 1.6969 0.4921 0.9843, 2.4803 -0.2559 0.9843, 2.4803 -0.2559 0.1969, 2.5 -0.2559 0.9843, 2.5 -0.2559 0.1969, 2.5197 -0.2559 0.9843, 2.5197 -0.2559 0.1969, 2.3031 -0.4921 0.9843, 2.3031 -0.4921 0.0, 2.3917 -0.374 0.1969, 2.3917 -0.374 0.0, 2.4405 -0.3091 0.9843, 2.6083 -0.374 0.1969, 2.6083 -0.374 0.0, 2.6969 -0.4921 0.0, 2.5595 -0.3091 0.9843, 2.6969 -0.4921 0.9843, 2.3917 0.374 0.0, 2.3031 0.4921 0.0, 2.3917 0.374 0.1969, 2.3031 0.4921 0.9843, 2.4803 0.2559 0.1969, 2.4803 0.2559 0.9843, 2.5197 0.2559 0.9843, 2.5197 0.2559 0.1969, 2.5 0.2559 0.9843, 2.5 0.2559 0.1969, 2.6969 0.4921 0.0, 2.6083 0.374 0.0, 2.6083 0.374 0.1969, 2.6969 0.4921 0.9843, -0.5197 -0.2559 0.9843, -0.5197 -0.2559 0.1969, -0.5 -0.2559 0.9843, -0.4803 -0.2559 0.1969, -0.4803 -0.2559 0.9843, -0.6969 -0.4921 0.9843, -0.6969 -0.4921 0.0, -0.6083 -0.374 0.1969, -0.6083 -0.374 0.0, -0.5595 -0.3091 0.9843, -0.4405 -0.3091 0.9843, -0.4249 -0.3298 0.1969, -0.3031 -0.4921 0.9843, -0.3917 -0.374 0.1969, -0.3031 -0.4921 0.0, -0.3917 -0.374 0.0, -0.6083 0.374 0.0, -0.6969 0.4921 0.0, -0.6083 0.374 0.1969, -0.6969 0.4921 0.9843, -0.5197 0.2559 0.1969, -0.5197 0.2559 0.9843, -0.4803 0.2559 0.9843, -0.4803 0.2559 0.1969, -0.5 0.2559 0.9843, -0.4249 0.3298 0.1969, -0.3031 0.4921 0.9843, -0.3917 0.374 0.1969, -0.3031 0.4921 0.0, -0.3917 0.374 0.0, 0.4803 -0.2559 0.9843, 0.4803 -0.2559 0.1969, 0.5 -0.2559 0.9843, 0.5 -0.2559 0.1969, 0.5197 -0.2559 0.9843, 0.5197 -0.2559 0.1969, 0.3031 -0.4921 0.9843, 0.3031 -0.4921 0.0, 0.3917 -0.374 0.1969, 0.3917 -0.374 0.0, 0.4405 -0.3091 0.9843, 0.6083 -0.374 0.1969, 0.6083 -0.374 0.0, 0.6969 -0.4921 0.0, 0.5595 -0.3091 0.9843, 0.6969 -0.4921 0.9843, 0.3917 0.374 0.0, 0.3031 0.4921 0.0, 0.3917 0.374 0.1969, 0.3031 0.4921 0.9843, 0.4803 0.2559 0.1969, 0.4803 0.2559 0.9843, 0.5197 0.2559 0.9843, 0.5197 0.2559 0.1969, 0.5 0.2559 0.9843, 0.5 0.2559 0.1969, 0.6969 0.4921 0.0, 0.6083 0.374 0.0, 0.6083 0.374 0.1969, 0.6969 0.4921 0.9843
            ]
        }
        coordIndex [
            0,1,2,-1,2,1,3,-1,2,3,4,-1,4,3,5,-1,6,7,8,-1,8,7,4,-1,8,4,5,-1,9,10,11,-1,7,6,11,-1,11,6,12,-1,11,12,9,-1,13,14,15,-1,15,14,16,-1,15,16,17,-1,18,19,20,-1,20,19,21,-1,18,20,22,-1,22,20,14,-1,22,14,13,-1,23,24,25,-1,17,16,26,-1,26,16,23,-1,26,23,27,-1,27,23,25,-1,28,29,30,-1,30,29,31,-1,30,31,32,-1,32,31,33,-1,34,35,36,-1,36,35,37,-1,34,36,38,-1,38,36,29,-1,38,29,28,-1,39,40,41,-1,32,33,42,-1,42,33,39,-1,42,39,43,-1,43,39,41,-1,44,45,46,-1,46,45,47,-1,46,47,48,-1,48,47,49,-1,50,51,52,-1,52,51,53,-1,52,53,49,-1,49,53,48,-1,54,55,56,-1,51,50,56,-1,56,50,57,-1,56,57,54,-1,58,59,60,-1,60,59,61,-1,60,61,62,-1,62,61,63,-1,64,65,66,-1,66,65,67,-1,64,66,68,-1,68,66,59,-1,68,59,58,-1,69,70,71,-1,62,63,72,-1,72,63,69,-1,72,69,73,-1,73,69,71,-1,74,75,76,-1,76,75,77,-1,76,77,78,-1,78,77,79,-1,80,81,82,-1,82,81,83,-1,82,83,79,-1,79,83,78,-1,84,85,86,-1,81,80,86,-1,86,80,87,-1,86,87,84,-1,88,89,90,-1,91,92,93,-1,93,92,88,-1,93,88,94,-1,94,88,90,-1,95,96,97,-1,97,96,98,-1,97,98,99,-1,99,98,100,-1,101,102,103,-1,103,102,104,-1,101,103,105,-1,105,103,96,-1,105,96,95,-1,106,107,108,-1,99,100,109,-1,109,100,106,-1,109,106,110,-1,110,106,108,-1,111,112,113,-1,113,112,114,-1,113,114,115,-1,115,114,116,-1,117,118,119,-1,119,118,120,-1,119,120,116,-1,116,120,115,-1,121,122,123,-1,118,117,123,-1,123,117,124,-1,123,124,121,-1,125,126,127,-1,127,126,128,-1,127,128,129,-1,129,128,130,-1,131,132,133,-1,133,132,134,-1,131,133,135,-1,135,133,126,-1,135,126,125,-1,136,137,138,-1,129,130,139,-1,139,130,136,-1,139,136,140,-1,140,136,138,-1,141,142,143,-1,143,142,144,-1,143,144,145,-1,145,144,146,-1,147,148,149,-1,149,148,150,-1,149,150,146,-1,146,150,145,-1,151,152,153,-1,148,147,153,-1,153,147,154,-1,153,154,151,-1,155,156,157,-1,157,156,158,-1,157,158,159,-1,160,161,162,-1,162,161,163,-1,160,162,164,-1,164,162,159,-1,164,159,158,-1,165,166,167,-1,156,155,168,-1,168,155,165,-1,168,165,169,-1,169,165,167,-1,170,171,172,-1,172,171,173,-1,172,173,174,-1,174,173,175,-1,174,175,176,-1,176,175,177,-1,176,177,178,-1,179,180,181,-1,178,177,181,-1,181,177,182,-1,181,182,179,-1,183,184,185,-1,185,184,186,-1,185,186,187,-1,187,186,188,-1,189,190,191,-1,191,190,192,-1,189,191,193,-1,193,191,184,-1,193,184,183,-1,194,195,196,-1,187,188,197,-1,197,188,194,-1,197,194,198,-1,198,194,196,-1,199,200,201,-1,201,200,202,-1,201,202,203,-1,203,202,204,-1,205,206,207,-1,207,206,208,-1,207,208,204,-1,204,208,203,-1,209,210,211,-1,206,205,211,-1,211,205,212,-1,211,212,209,-1,213,214,215,-1,215,214,216,-1,215,216,217,-1,218,219,220,-1,220,219,221,-1,218,220,222,-1,222,220,214,-1,222,214,213,-1,217,216,223,-1,223,216,224,-1,223,224,225,-1,225,224,226,-1,225,226,227,-1,227,226,228,-1,229,230,231,-1,231,230,232,-1,231,232,233,-1,233,232,234,-1,235,236,237,-1,237,236,233,-1,237,233,234,-1,236,235,238,-1,238,235,239,-1,238,239,240,-1,240,239,241,-1,240,241,242,-1,243,244,245,-1,245,244,246,-1,245,246,247,-1,247,246,248,-1,249,250,251,-1,251,250,252,-1,249,251,253,-1,253,251,244,-1,253,244,243,-1,254,255,256,-1,247,248,257,-1,257,248,254,-1,257,254,258,-1,258,254,256,-1,259,260,261,-1,261,260,262,-1,261,262,263,-1,263,262,264,-1,265,266,267,-1,267,266,268,-1,267,268,264,-1,264,268,263,-1,269,270,271,-1,266,265,271,-1,271,265,272,-1,271,272,269,-1,
        ]
    }
}
Shape{
    appearance Appearance {
        material  Material 	{
            diffuseColor 0.7529411764705882 0.7529411764705882 0.7529411764705882
            specularColor 0.3764705882352941 0.3764705882352941 0.3764705882352941
            ambientIntensity 0.7529
            transparency 0.0
            shininess 0.5
        }
    }
    geometry IndexedFaceSet {
        ccw TRUE
        solid FALSE
        coord DEF co Coordinate {
            point [
                -5.126 0.0472 -1.1811, -5.126 0.126 -1.1024, -4.874 0.0472 -1.1811, -4.874 0.126 -1.1024, -5.126 -0.0472 -1.1811, -4.874 -0.0472 -1.1811, -5.126 -0.126 -1.1024, -4.874 -0.126 -1.1024, -4.874 0.126 0.1969, -4.874 0.0908 0.1969, -4.874 -0.126 0.1969, -5.126 -0.126 0.1969, -5.126 0.0908 0.1969, -5.126 0.126 0.1969, -4.874 -0.126 0.9843, -4.874 -0.126 3.2677, -5.126 -0.126 0.9843, -5.126 -0.126 3.2677, -5.126 0.126 0.9843, -5.126 0.126 3.2677, -4.874 0.126 0.9843, -4.874 0.126 3.2677, -5.126 -0.0472 3.3465, -5.126 0.0472 3.3465, -4.874 -0.0472 3.3465, -4.874 0.0472 3.3465, -4.126 0.0472 -1.1811, -4.126 0.126 -1.1024, -3.874 0.0472 -1.1811, -3.874 0.126 -1.1024, -4.126 -0.0472 -1.1811, -3.874 -0.0472 -1.1811, -4.126 -0.126 -1.1024, -3.874 -0.126 -1.1024, -3.874 0.126 0.1969, -3.874 0.0908 0.1969, -3.874 -0.126 0.1969, -4.126 -0.126 0.1969, -4.126 0.0908 0.1969, -4.126 0.126 0.1969, -3.874 -0.126 0.9843, -3.874 -0.126 3.2677, -4.126 -0.126 0.9843, -4.126 -0.126 3.2677, -4.126 0.126 0.9843, -4.126 0.126 3.2677, -3.874 0.126 0.9843, -3.874 0.126 3.2677, -4.126 -0.0472 3.3465, -4.126 0.0472 3.3465, -3.874 -0.0472 3.3465, -3.874 0.0472 3.3465, -3.126 0.0472 -1.1811, -3.126 0.126 -1.1024, -2.874 0.0472 -1.1811, -2.874 0.126 -1.1024, -3.126 -0.0472 -1.1811, -2.874 -0.0472 -1.1811, -3.126 -0.126 -1.1024, -2.874 -0.126 -1.1024, -2.874 0.126 0.1969, -2.874 0.0908 0.1969, -2.874 -0.126 0.1969, -3.126 -0.126 0.1969, -3.126 0.0908 0.1969, -3.126 0.126 0.1969, -2.874 -0.126 0.9843, -2.874 -0.126 3.2677, -3.126 -0.126 0.9843, -3.126 -0.126 3.2677, -3.126 0.126 0.9843, -3.126 0.126 3.2677, -2.874 0.126 0.9843, -2.874 0.126 3.2677, -3.126 -0.0472 3.3465, -3.126 0.0472 3.3465, -2.874 -0.0472 3.3465, -2.874 0.0472 3.3465, -2.126 0.0472 -1.1811, -2.126 0.126 -1.1024, -1.874 0.0472 -1.1811, -1.874 0.126 -1.1024, -2.126 -0.0472 -1.1811, -1.874 -0.0472 -1.1811, -2.126 -0.126 -1.1024, -1.874 -0.126 -1.1024, -1.874 0.126 0.1969, -1.874 0.0908 0.1969, -1.874 -0.126 0.1969, -2.126 -0.126 0.1969, -2.126 0.0908 0.1969, -2.126 0.126 0.1969, -1.874 -0.126 0.9843, -1.874 -0.126 3.2677, -2.126 -0.126 0.9843, -2.126 -0.126 3.2677, -2.126 0.126 0.9843, -2.126 0.126 3.2677, -1.874 0.126 0.9843, -1.874 0.126 3.2677, -2.126 -0.0472 3.3465, -2.126 0.0472 3.3465, -1.874 -0.0472 3.3465, -1.874 0.0472 3.3465, -1.126 0.0472 -1.1811, -1.126 0.126 -1.1024, -0.874 0.0472 -1.1811, -0.874 0.126 -1.1024, -1.126 -0.0472 -1.1811, -0.874 -0.0472 -1.1811, -1.126 -0.126 -1.1024, -0.874 -0.126 -1.1024, -0.874 0.126 0.1969, -0.874 0.0908 0.1969, -0.874 -0.126 0.1969, -1.126 -0.126 0.1969, -1.126 0.0908 0.1969, -1.126 0.126 0.1969, -0.874 -0.126 0.9843, -0.874 -0.126 3.2677, -1.126 -0.126 0.9843, -1.126 -0.126 3.2677, -1.126 0.126 0.9843, -1.126 0.126 3.2677, -0.874 0.126 0.9843, -0.874 0.126 3.2677, -1.126 -0.0472 3.3465, -1.126 0.0472 3.3465, -0.874 -0.0472 3.3465, -0.874 0.0472 3.3465, -0.126 0.0472 -1.1811, -0.126 0.126 -1.1024, 0.126 0.0472 -1.1811, 0.126 0.126 -1.1024, -0.126 -0.0472 -1.1811, 0.126 -0.0472 -1.1811, -0.126 -0.126 -1.1024, 0.126 -0.126 -1.1024, 0.126 0.126 0.1969, 0.126 0.0908 0.1969, 0.126 -0.126 0.1969, -0.126 -0.126 0.1969, -0.126 0.0908 0.1969, -0.126 0.126 0.1969, 0.126 -0.126 0.9843, 0.126 -0.126 3.2677, -0.126 -0.126 0.9843, -0.126 -0.126 3.2677, -0.126 0.126 0.9843, -0.126 0.126 3.2677, 0.126 0.126 0.9843, 0.126 0.126 3.2677, -0.126 -0.0472 3.3465, -0.126 0.0472 3.3465, 0.126 -0.0472 3.3465, 0.126 0.0472 3.3465, 0.874 0.0472 -1.1811, 0.874 0.126 -1.1024, 1.126 0.0472 -1.1811, 1.126 0.126 -1.1024, 0.874 -0.0472 -1.1811, 1.126 -0.0472 -1.1811, 0.874 -0.126 -1.1024, 1.126 -0.126 -1.1024, 1.126 0.126 0.1969, 1.126 0.0908 0.1969, 1.126 -0.126 0.1969, 0.874 -0.126 0.1969, 0.874 0.0908 0.1969, 0.874 0.126 0.1969, 1.126 -0.126 0.9843, 1.126 -0.126 3.2677, 0.874 -0.126 0.9843, 0.874 -0.126 3.2677, 0.874 0.126 0.9843, 0.874 0.126 3.2677, 1.126 0.126 0.9843, 1.126 0.126 3.2677, 0.874 -0.0472 3.3465, 0.874 0.0472 3.3465, 1.126 -0.0472 3.3465, 1.126 0.0472 3.3465, 1.874 0.0472 -1.1811, 1.874 0.126 -1.1024, 2.126 0.0472 -1.1811, 2.126 0.126 -1.1024, 1.874 -0.0472 -1.1811, 2.126 -0.0472 -1.1811, 1.874 -0.126 -1.1024, 2.126 -0.126 -1.1024, 2.126 0.126 0.1969, 2.126 0.0908 0.1969, 2.126 -0.126 0.1969, 1.874 -0.126 0.1969, 1.874 0.0908 0.1969, 1.874 0.126 0.1969, 2.126 -0.126 0.9843, 2.126 -0.126 3.2677, 1.874 -0.126 0.9843, 1.874 -0.126 3.2677, 1.874 0.126 0.9843, 1.874 0.126 3.2677, 2.126 0.126 0.9843, 2.126 0.126 3.2677, 1.874 -0.0472 3.3465, 1.874 0.0472 3.3465, 2.126 -0.0472 3.3465, 2.126 0.0472 3.3465, 2.874 0.0472 -1.1811, 2.874 0.126 -1.1024, 3.126 0.0472 -1.1811, 3.126 0.126 -1.1024, 2.874 -0.0472 -1.1811, 3.126 -0.0472 -1.1811, 2.874 -0.126 -1.1024, 3.126 -0.126 -1.1024, 3.126 0.126 0.1969, 3.126 0.0908 0.1969, 3.126 -0.126 0.1969, 2.874 -0.126 0.1969, 2.874 0.0908 0.1969, 2.874 0.126 0.1969, 3.126 -0.126 0.9843, 3.126 -0.126 3.2677, 2.874 -0.126 0.9843, 2.874 -0.126 3.2677, 2.874 0.126 0.9843, 2.874 0.126 3.2677, 3.126 0.126 0.9843, 3.126 0.126 3.2677, 2.874 -0.0472 3.3465, 2.874 0.0472 3.3465, 3.126 -0.0472 3.3465, 3.126 0.0472 3.3465, 3.874 0.0472 -1.1811, 3.874 0.126 -1.1024, 4.126 0.0472 -1.1811, 4.126 0.126 -1.1024, 3.874 -0.0472 -1.1811, 4.126 -0.0472 -1.1811, 3.874 -0.126 -1.1024, 4.126 -0.126 -1.1024, 4.126 0.126 0.1969, 4.126 0.0908 0.1969, 4.126 -0.126 0.1969, 3.874 -0.126 0.1969, 3.874 0.0908 0.1969, 3.874 0.126 0.1969, 4.126 -0.126 0.9843, 4.126 -0.126 3.2677, 3.874 -0.126 0.9843, 3.874 -0.126 3.2677, 3.874 0.126 0.9843, 3.874 0.126 3.2677, 4.126 0.126 0.9843, 4.126 0.126 3.2677, 3.874 -0.0472 3.3465, 3.874 0.0472 3.3465, 4.126 -0.0472 3.3465, 4.126 0.0472 3.3465, 4.874 0.0472 -1.1811, 4.874 0.126 -1.1024, 5.126 0.0472 -1.1811, 5.126 0.126 -1.1024, 4.874 -0.0472 -1.1811, 5.126 -0.0472 -1.1811, 4.874 -0.126 -1.1024, 5.126 -0.126 -1.1024, 5.126 0.126 0.1969, 5.126 0.0908 0.1969, 5.126 -0.126 0.1969, 4.874 -0.126 0.1969, 4.874 0.0908 0.1969, 4.874 0.126 0.1969, 5.126 -0.126 0.9843, 5.126 -0.126 3.2677, 4.874 -0.126 0.9843, 4.874 -0.126 3.2677, 4.874 0.126 0.9843, 4.874 0.126 3.2677, 5.126 0.126 0.9843, 5.126 0.126 3.2677, 4.874 -0.0472 3.3465, 4.874 0.0472 3.3465, 5.126 -0.0472 3.3465, 5.126 0.0472 3.3465, 5.874 0.0472 -1.1811, 5.874 0.126 -1.1024, 6.126 0.0472 -1.1811, 6.126 0.126 -1.1024, 5.874 -0.0472 -1.1811, 6.126 -0.0472 -1.1811, 5.874 -0.126 -1.1024, 6.126 -0.126 -1.1024, 6.126 0.126 0.1969, 6.126 0.0908 0.1969, 6.126 -0.126 0.1969, 5.874 -0.126 0.1969, 5.874 0.0908 0.1969, 5.874 0.126 0.1969, 6.126 -0.126 0.9843, 6.126 -0.126 3.2677, 5.874 -0.126 0.9843, 5.874 -0.126 3.2677, 5.874 0.126 0.9843, 5.874 0.126 3.2677, 6.126 0.126 0.9843, 6.126 0.126 3.2677, 5.874 -0.0472 3.3465, 5.874 0.0472 3.3465, 6.126 -0.0472 3.3465, 6.126 0.0472 3.3465, -0.7823 0.0516 0.2362, -0.7843 0.0516 0.2362, -0.7823 0.0516 0.1969, -0.7843 0.0516 0.1969, -0.857 -0.1059 0.2362, -0.857 -0.1059 0.1969, -0.8416 -0.1059 0.2362, -0.8416 -0.1059 0.1969, -0.8183 -0.0554 0.2362, -0.8183 -0.0554 0.1969, -0.7469 -0.0554 0.2362, -0.7469 -0.0554 0.1969, -0.723 -0.1059 0.2362, -0.723 -0.1059 0.1969, -0.7076 -0.1059 0.2362, -0.7076 -0.1059 0.1969, -0.8109 -0.0392 0.2362, -0.7546 -0.0392 0.2362, -0.7831 0.0209 0.2362, -0.8109 -0.0392 0.1969, -0.7831 0.0209 0.1969, -0.7546 -0.0392 0.1969, -0.607 -0.1059 0.2362, -0.5582 -0.1059 0.2362, -0.607 -0.1059 0.1969, -0.5582 -0.1059 0.1969, -0.5582 0.0516 0.2362, -0.5582 0.0516 0.1969, -0.59 0.0516 0.2362, -0.59 0.0516 0.1969, -0.6399 0.0459 0.2362, -0.6399 0.0459 0.1969, -0.6152 0.0506 0.1969, -0.6152 0.0506 0.2362, -0.6874 -0.0291 0.2362, -0.6874 -0.0291 0.1969, -0.6872 -0.0218 0.1969, -0.6872 -0.0218 0.2362, -0.684 -0.0028 0.1969, -0.684 -0.0028 0.2362, -0.6774 0.0137 0.1969, -0.6774 0.0137 0.2362, -0.6674 0.0279 0.1969, -0.6674 0.0279 0.2362, -0.6559 0.0379 0.1969, -0.6559 0.0379 0.2362, -0.6254 -0.1048 0.1969, -0.6254 -0.1048 0.2362, -0.6446 -0.1004 0.1969, -0.6446 -0.1004 0.2362, -0.6565 -0.0943 0.1969, -0.6565 -0.0943 0.2362, -0.6683 -0.0839 0.1969, -0.6683 -0.0839 0.2362, -0.679 -0.0677 0.1969, -0.679 -0.0677 0.2362, -0.6852 -0.0502 0.1969, -0.6852 -0.0502 0.2362, -0.6077 0.0347 0.2362, -0.6318 0.031 0.2362, -0.6388 0.0285 0.2362, -0.6506 0.0216 0.2362, -0.6597 0.0127 0.2362, -0.6669 0.0012 0.2362, -0.6715 -0.0124 0.2362, -0.6732 -0.0291 0.2362, -0.6731 -0.0335 0.2362, -0.6703 -0.0501 0.2362, -0.6651 -0.062 0.2362, -0.6573 -0.0724 0.2362, -0.6479 -0.0799 0.2362, -0.6354 -0.0857 0.2362, -0.613 -0.0891 0.2362, -0.5904 -0.0897 0.2362, -0.5723 -0.0897 0.2362, -0.5723 0.0355 0.2362, -0.5834 0.0355 0.2362, -0.5723 0.0355 0.1969, -0.5723 -0.0897 0.1969, -0.5834 0.0355 0.1969, -0.6077 0.0347 0.1969, -0.6318 0.031 0.1969, -0.6388 0.0285 0.1969, -0.6506 0.0216 0.1969, -0.6597 0.0127 0.1969, -0.6669 0.0012 0.1969, -0.6715 -0.0124 0.1969, -0.6732 -0.0291 0.1969, -0.6731 -0.0335 0.1969, -0.6703 -0.0501 0.1969, -0.6651 -0.062 0.1969, -0.6573 -0.0724 0.1969, -0.6479 -0.0799 0.1969, -0.6354 -0.0857 0.1969, -0.613 -0.0891 0.1969, -0.5904 -0.0897 0.1969, -0.4411 -0.1059 0.2362, -0.4411 0.0516 0.2362, -0.4411 -0.1059 0.1969, -0.4411 0.0516 0.1969, -0.5299 0.0516 0.2362, -0.5299 0.0516 0.1969, -0.5299 0.0355 0.2362, -0.5299 0.0355 0.1969, -0.4552 0.0355 0.2362, -0.4552 0.0355 0.1969, -0.4552 -0.013 0.2362, -0.4552 -0.013 0.1969, -0.5299 -0.013 0.2362, -0.5299 -0.013 0.1969, -0.5299 -0.0292 0.2362, -0.5299 -0.0292 0.1969, -0.4552 -0.0292 0.2362, -0.4552 -0.0292 0.1969, -0.4552 -0.0897 0.2362, -0.4552 -0.0897 0.1969, -0.5299 -0.0897 0.2362, -0.5299 -0.0897 0.1969, -0.5299 -0.1059 0.2362, -0.5299 -0.1059 0.1969, -0.4088 0.0227 0.2362, -0.4088 0.0227 0.1969, -0.4041 0.0285 0.1969, -0.4041 0.0285 0.2362, -0.3945 0.0377 0.1969, -0.3945 0.0377 0.2362, -0.3773 0.0481 0.1969, -0.3773 0.0481 0.2362, -0.363 0.053 0.1969, -0.363 0.053 0.2362, -0.34 0.0556 0.1969, -0.34 0.0556 0.2362, -0.3964 0.0132 0.2362, -0.3964 0.0132 0.1969, -0.3392 0.0395 0.2362, -0.3392 0.0395 0.1969, -0.3447 0.0393 0.1969, -0.3447 0.0393 0.2362, -0.3621 0.0363 0.1969, -0.3621 0.0363 0.2362, -0.369 0.0338 0.1969, -0.369 0.0338 0.2362, -0.3838 0.0255 0.1969, -0.3838 0.0255 0.2362, -0.2694 -0.0273 0.2362, -0.2694 -0.0273 0.1969, -0.2698 -0.0199 0.1969, -0.2698 -0.0199 0.2362, -0.2732 -0.0046 0.1969, -0.2732 -0.0046 0.2362, -0.2802 0.0094 0.1969, -0.2802 0.0094 0.2362, -0.29 0.0208 0.1969, -0.29 0.0208 0.2362, -0.3045 0.031 0.1969, -0.3045 0.031 0.2362, -0.3205 0.0372 0.1969, -0.3205 0.0372 0.2362, -0.3401 -0.0938 0.2362, -0.3401 -0.0938 0.1969, -0.3276 -0.0929 0.1969, -0.3276 -0.0929 0.2362, -0.3116 -0.0888 0.1969, -0.3116 -0.0888 0.2362, -0.2964 -0.0805 0.1969, -0.2964 -0.0805 0.2362, -0.285 -0.0701 0.1969, -0.285 -0.0701 0.2362, -0.2765 -0.0577 0.1969, -0.2765 -0.0577 0.2362, -0.2715 -0.0446 0.1969, -0.2715 -0.0446 0.2362, -0.3964 -0.0675 0.2362, -0.3964 -0.0675 0.1969, -0.3877 -0.0763 0.1969, -0.3877 -0.0763 0.2362, -0.3737 -0.0859 0.1969, -0.3737 -0.0859 0.2362, -0.3586 -0.0916 0.1969, -0.3586 -0.0916 0.2362, -0.4088 -0.0769 0.2362, -0.4088 -0.0769 0.1969, -0.3402 -0.1099 0.2362, -0.3402 -0.1099 0.1969, -0.3481 -0.1096 0.1969, -0.3481 -0.1096 0.2362, -0.3606 -0.1078 0.1969, -0.3606 -0.1078 0.2362, -0.3786 -0.1017 0.1969, -0.3786 -0.1017 0.2362, -0.3949 -0.0915 0.1969, -0.3949 -0.0915 0.2362, -0.2753 -0.0824 0.2362, -0.2753 -0.0824 0.1969, -0.2816 -0.0889 0.1969, -0.2816 -0.0889 0.2362, -0.2968 -0.0999 0.1969, -0.2968 -0.0999 0.2362, -0.3157 -0.1071 0.1969, -0.3157 -0.1071 0.2362, -0.2553 -0.0262 0.2362, -0.2553 -0.0262 0.1969, -0.2575 -0.047 0.1969, -0.2575 -0.047 0.2362, -0.2638 -0.0651 0.1969, -0.2638 -0.0651 0.2362, -0.3275 0.0549 0.1969, -0.3275 0.0549 0.2362, -0.3082 0.0503 0.1969, -0.3082 0.0503 0.2362, -0.2916 0.0419 0.1969, -0.2916 0.0419 0.2362, -0.2752 0.0275 0.1969, -0.2752 0.0275 0.2362, -0.2643 0.012 0.1969, -0.2643 0.012 0.2362, -0.2579 -0.0047 0.1969, -0.2579 -0.0047 0.2362, -0.1624 -0.1059 0.2362, -0.1624 0.0516 0.2362, -0.1624 -0.1059 0.1969, -0.1624 0.0516 0.1969, -0.1766 0.0516 0.2362, -0.1766 0.0516 0.1969, -0.1766 -0.0897 0.2362, -0.1766 -0.0897 0.1969, -0.2371 -0.0897 0.2362, -0.2371 -0.0897 0.1969, -0.2371 -0.1059 0.2362, -0.2371 -0.1059 0.1969
            ]
        }
        coordIndex [
            0,1,2,-1,2,1,3,-1,4,0,5,-1,5,0,2,-1,6,4,7,-1,7,4,5,-1,3,8,9,-1,5,2,7,-1,7,2,3,-1,7,3,10,-1,10,3,9,-1,4,6,0,-1,0,6,11,-1,0,11,1,-1,1,11,12,-1,1,12,13,-1,8,3,13,-1,13,3,1,-1,11,6,10,-1,10,6,7,-1,14,15,16,-1,16,15,17,-1,18,19,20,-1,20,19,21,-1,22,23,17,-1,17,23,19,-1,17,19,16,-1,16,19,18,-1,14,20,15,-1,15,20,21,-1,15,21,24,-1,24,21,25,-1,22,17,24,-1,24,17,15,-1,23,22,25,-1,25,22,24,-1,19,23,21,-1,21,23,25,-1,26,27,28,-1,28,27,29,-1,30,26,31,-1,31,26,28,-1,32,30,33,-1,33,30,31,-1,29,34,35,-1,31,28,33,-1,33,28,29,-1,33,29,36,-1,36,29,35,-1,30,32,26,-1,26,32,37,-1,26,37,27,-1,27,37,38,-1,27,38,39,-1,34,29,39,-1,39,29,27,-1,37,32,36,-1,36,32,33,-1,40,41,42,-1,42,41,43,-1,44,45,46,-1,46,45,47,-1,48,49,43,-1,43,49,45,-1,43,45,42,-1,42,45,44,-1,40,46,41,-1,41,46,47,-1,41,47,50,-1,50,47,51,-1,48,43,50,-1,50,43,41,-1,49,48,51,-1,51,48,50,-1,45,49,47,-1,47,49,51,-1,52,53,54,-1,54,53,55,-1,56,52,57,-1,57,52,54,-1,58,56,59,-1,59,56,57,-1,55,60,61,-1,57,54,59,-1,59,54,55,-1,59,55,62,-1,62,55,61,-1,56,58,52,-1,52,58,63,-1,52,63,53,-1,53,63,64,-1,53,64,65,-1,60,55,65,-1,65,55,53,-1,63,58,62,-1,62,58,59,-1,66,67,68,-1,68,67,69,-1,70,71,72,-1,72,71,73,-1,74,75,69,-1,69,75,71,-1,69,71,68,-1,68,71,70,-1,66,72,67,-1,67,72,73,-1,67,73,76,-1,76,73,77,-1,74,69,76,-1,76,69,67,-1,75,74,77,-1,77,74,76,-1,71,75,73,-1,73,75,77,-1,78,79,80,-1,80,79,81,-1,82,78,83,-1,83,78,80,-1,84,82,85,-1,85,82,83,-1,81,86,87,-1,83,80,85,-1,85,80,81,-1,85,81,88,-1,88,81,87,-1,82,84,78,-1,78,84,89,-1,78,89,79,-1,79,89,90,-1,79,90,91,-1,86,81,91,-1,91,81,79,-1,89,84,88,-1,88,84,85,-1,92,93,94,-1,94,93,95,-1,96,97,98,-1,98,97,99,-1,100,101,95,-1,95,101,97,-1,95,97,94,-1,94,97,96,-1,92,98,93,-1,93,98,99,-1,93,99,102,-1,102,99,103,-1,100,95,102,-1,102,95,93,-1,101,100,103,-1,103,100,102,-1,97,101,99,-1,99,101,103,-1,104,105,106,-1,106,105,107,-1,108,104,109,-1,109,104,106,-1,110,108,111,-1,111,108,109,-1,107,112,113,-1,109,106,111,-1,111,106,107,-1,111,107,114,-1,114,107,113,-1,108,110,104,-1,104,110,115,-1,104,115,105,-1,105,115,116,-1,105,116,117,-1,112,107,117,-1,117,107,105,-1,115,110,114,-1,114,110,111,-1,118,119,120,-1,120,119,121,-1,122,123,124,-1,124,123,125,-1,126,127,121,-1,121,127,123,-1,121,123,120,-1,120,123,122,-1,118,124,119,-1,119,124,125,-1,119,125,128,-1,128,125,129,-1,126,121,128,-1,128,121,119,-1,127,126,129,-1,129,126,128,-1,123,127,125,-1,125,127,129,-1,130,131,132,-1,132,131,133,-1,134,130,135,-1,135,130,132,-1,136,134,137,-1,137,134,135,-1,133,138,139,-1,135,132,137,-1,137,132,133,-1,137,133,140,-1,140,133,139,-1,134,136,130,-1,130,136,141,-1,130,141,131,-1,131,141,142,-1,131,142,143,-1,138,133,143,-1,143,133,131,-1,141,136,140,-1,140,136,137,-1,144,145,146,-1,146,145,147,-1,148,149,150,-1,150,149,151,-1,152,153,147,-1,147,153,149,-1,147,149,146,-1,146,149,148,-1,144,150,145,-1,145,150,151,-1,145,151,154,-1,154,151,155,-1,152,147,154,-1,154,147,145,-1,153,152,155,-1,155,152,154,-1,149,153,151,-1,151,153,155,-1,156,157,158,-1,158,157,159,-1,160,156,161,-1,161,156,158,-1,162,160,163,-1,163,160,161,-1,159,164,165,-1,161,158,163,-1,163,158,159,-1,163,159,166,-1,166,159,165,-1,160,162,156,-1,156,162,167,-1,156,167,157,-1,157,167,168,-1,157,168,169,-1,164,159,169,-1,169,159,157,-1,167,162,166,-1,166,162,163,-1,170,171,172,-1,172,171,173,-1,174,175,176,-1,176,175,177,-1,178,179,173,-1,173,179,175,-1,173,175,172,-1,172,175,174,-1,170,176,171,-1,171,176,177,-1,171,177,180,-1,180,177,181,-1,178,173,180,-1,180,173,171,-1,179,178,181,-1,181,178,180,-1,175,179,177,-1,177,179,181,-1,182,183,184,-1,184,183,185,-1,186,182,187,-1,187,182,184,-1,188,186,189,-1,189,186,187,-1,185,190,191,-1,187,184,189,-1,189,184,185,-1,189,185,192,-1,192,185,191,-1,186,188,182,-1,182,188,193,-1,182,193,183,-1,183,193,194,-1,183,194,195,-1,190,185,195,-1,195,185,183,-1,193,188,192,-1,192,188,189,-1,196,197,198,-1,198,197,199,-1,200,201,202,-1,202,201,203,-1,204,205,199,-1,199,205,201,-1,199,201,198,-1,198,201,200,-1,196,202,197,-1,197,202,203,-1,197,203,206,-1,206,203,207,-1,204,199,206,-1,206,199,197,-1,205,204,207,-1,207,204,206,-1,201,205,203,-1,203,205,207,-1,208,209,210,-1,210,209,211,-1,212,208,213,-1,213,208,210,-1,214,212,215,-1,215,212,213,-1,211,216,217,-1,213,210,215,-1,215,210,211,-1,215,211,218,-1,218,211,217,-1,212,214,208,-1,208,214,219,-1,208,219,209,-1,209,219,220,-1,209,220,221,-1,216,211,221,-1,221,211,209,-1,219,214,218,-1,218,214,215,-1,222,223,224,-1,224,223,225,-1,226,227,228,-1,228,227,229,-1,230,231,225,-1,225,231,227,-1,225,227,224,-1,224,227,226,-1,222,228,223,-1,223,228,229,-1,223,229,232,-1,232,229,233,-1,230,225,232,-1,232,225,223,-1,231,230,233,-1,233,230,232,-1,227,231,229,-1,229,231,233,-1,234,235,236,-1,236,235,237,-1,238,234,239,-1,239,234,236,-1,240,238,241,-1,241,238,239,-1,237,242,243,-1,239,236,241,-1,241,236,237,-1,241,237,244,-1,244,237,243,-1,238,240,234,-1,234,240,245,-1,234,245,235,-1,235,245,246,-1,235,246,247,-1,242,237,247,-1,247,237,235,-1,245,240,244,-1,244,240,241,-1,248,249,250,-1,250,249,251,-1,252,253,254,-1,254,253,255,-1,256,257,251,-1,251,257,253,-1,251,253,250,-1,250,253,252,-1,248,254,249,-1,249,254,255,-1,249,255,258,-1,258,255,259,-1,256,251,258,-1,258,251,249,-1,257,256,259,-1,259,256,258,-1,253,257,255,-1,255,257,259,-1,260,261,262,-1,262,261,263,-1,264,260,265,-1,265,260,262,-1,266,264,267,-1,267,264,265,-1,263,268,269,-1,265,262,267,-1,267,262,263,-1,267,263,270,-1,270,263,269,-1,264,266,260,-1,260,266,271,-1,260,271,261,-1,261,271,272,-1,261,272,273,-1,268,263,273,-1,273,263,261,-1,271,266,270,-1,270,266,267,-1,274,275,276,-1,276,275,277,-1,278,279,280,-1,280,279,281,-1,282,283,277,-1,277,283,279,-1,277,279,276,-1,276,279,278,-1,274,280,275,-1,275,280,281,-1,275,281,284,-1,284,281,285,-1,282,277,284,-1,284,277,275,-1,283,282,285,-1,285,282,284,-1,279,283,281,-1,281,283,285,-1,286,287,288,-1,288,287,289,-1,290,286,291,-1,291,286,288,-1,292,290,293,-1,293,290,291,-1,289,294,295,-1,291,288,293,-1,293,288,289,-1,293,289,296,-1,296,289,295,-1,290,292,286,-1,286,292,297,-1,286,297,287,-1,287,297,298,-1,287,298,299,-1,294,289,299,-1,299,289,287,-1,297,292,296,-1,296,292,293,-1,300,301,302,-1,302,301,303,-1,304,305,306,-1,306,305,307,-1,308,309,303,-1,303,309,305,-1,303,305,302,-1,302,305,304,-1,300,306,301,-1,301,306,307,-1,301,307,310,-1,310,307,311,-1,308,303,310,-1,310,303,301,-1,309,308,311,-1,311,308,310,-1,305,309,307,-1,307,309,311,-1,312,313,314,-1,314,313,315,-1,313,316,315,-1,315,316,317,-1,316,318,317,-1,317,318,319,-1,318,320,319,-1,319,320,321,-1,320,322,321,-1,321,322,323,-1,322,324,323,-1,323,324,325,-1,324,326,325,-1,325,326,327,-1,326,312,327,-1,327,312,314,-1,328,316,313,-1,312,329,313,-1,313,329,330,-1,313,330,328,-1,326,324,322,-1,318,316,320,-1,320,316,328,-1,320,328,322,-1,322,328,329,-1,322,329,326,-1,326,329,312,-1,328,330,331,-1,331,330,332,-1,329,328,333,-1,333,328,331,-1,330,329,332,-1,332,329,333,-1,334,335,336,-1,336,335,337,-1,335,338,337,-1,337,338,339,-1,338,340,339,-1,339,340,341,-1,342,343,344,-1,342,344,345,-1,345,344,341,-1,345,341,340,-1,346,347,348,-1,346,348,349,-1,349,348,350,-1,349,350,351,-1,351,350,352,-1,351,352,353,-1,353,352,354,-1,353,354,355,-1,355,354,356,-1,355,356,357,-1,357,356,343,-1,357,343,342,-1,334,336,358,-1,334,358,359,-1,359,358,360,-1,359,360,361,-1,361,360,362,-1,361,362,363,-1,363,362,364,-1,363,364,365,-1,365,364,366,-1,365,366,367,-1,367,366,368,-1,367,368,369,-1,369,368,347,-1,369,347,346,-1,370,371,342,-1,342,371,372,-1,342,372,357,-1,357,372,373,-1,357,373,355,-1,355,373,374,-1,355,374,353,-1,353,374,375,-1,353,375,351,-1,351,375,376,-1,351,376,349,-1,349,376,377,-1,349,377,346,-1,346,377,378,-1,346,378,369,-1,369,378,379,-1,369,379,367,-1,367,379,380,-1,367,380,365,-1,365,380,381,-1,365,381,363,-1,363,381,382,-1,363,382,361,-1,361,382,383,-1,361,383,359,-1,359,383,384,-1,359,384,334,-1,334,384,385,-1,334,385,335,-1,335,385,386,-1,335,386,338,-1,338,386,387,-1,338,387,340,-1,340,387,388,-1,340,388,345,-1,345,388,370,-1,345,370,342,-1,387,386,389,-1,389,386,390,-1,388,387,391,-1,391,387,389,-1,388,391,392,-1,388,392,370,-1,370,392,393,-1,370,393,371,-1,371,393,394,-1,371,394,372,-1,372,394,395,-1,372,395,373,-1,373,395,396,-1,373,396,374,-1,374,396,397,-1,374,397,375,-1,375,397,398,-1,375,398,376,-1,376,398,399,-1,376,399,377,-1,377,399,400,-1,377,400,378,-1,378,400,401,-1,378,401,379,-1,379,401,402,-1,379,402,380,-1,380,402,403,-1,380,403,381,-1,381,403,404,-1,381,404,382,-1,382,404,405,-1,382,405,383,-1,383,405,406,-1,383,406,384,-1,384,406,407,-1,384,407,385,-1,386,385,390,-1,390,385,407,-1,408,409,410,-1,410,409,411,-1,409,412,411,-1,411,412,413,-1,412,414,413,-1,413,414,415,-1,414,416,415,-1,415,416,417,-1,416,418,417,-1,417,418,419,-1,418,420,419,-1,419,420,421,-1,420,422,421,-1,421,422,423,-1,422,424,423,-1,423,424,425,-1,424,426,425,-1,425,426,427,-1,426,428,427,-1,427,428,429,-1,428,430,429,-1,429,430,431,-1,430,408,431,-1,431,408,410,-1,408,430,428,-1,428,426,408,-1,408,426,424,-1,408,424,409,-1,414,412,416,-1,416,412,409,-1,416,409,418,-1,418,409,424,-1,418,424,420,-1,420,424,422,-1,432,433,434,-1,432,434,435,-1,435,434,436,-1,435,436,437,-1,437,436,438,-1,437,438,439,-1,439,438,440,-1,439,440,441,-1,441,440,442,-1,441,442,443,-1,432,444,433,-1,433,444,445,-1,446,447,448,-1,446,448,449,-1,449,448,450,-1,449,450,451,-1,451,450,452,-1,451,452,453,-1,453,452,454,-1,453,454,455,-1,455,454,445,-1,455,445,444,-1,456,457,458,-1,456,458,459,-1,459,458,460,-1,459,460,461,-1,461,460,462,-1,461,462,463,-1,463,462,464,-1,463,464,465,-1,465,464,466,-1,465,466,467,-1,467,466,468,-1,467,468,469,-1,469,468,447,-1,469,447,446,-1,470,471,472,-1,470,472,473,-1,473,472,474,-1,473,474,475,-1,475,474,476,-1,475,476,477,-1,477,476,478,-1,477,478,479,-1,479,478,480,-1,479,480,481,-1,481,480,482,-1,481,482,483,-1,483,482,457,-1,483,457,456,-1,484,485,486,-1,484,486,487,-1,487,486,488,-1,487,488,489,-1,489,488,490,-1,489,490,491,-1,491,490,471,-1,491,471,470,-1,484,492,485,-1,485,492,493,-1,494,495,496,-1,494,496,497,-1,497,496,498,-1,497,498,499,-1,499,498,500,-1,499,500,501,-1,501,500,502,-1,501,502,503,-1,503,502,493,-1,503,493,492,-1,504,505,506,-1,504,506,507,-1,507,506,508,-1,507,508,509,-1,509,508,510,-1,509,510,511,-1,511,510,495,-1,511,495,494,-1,512,513,514,-1,512,514,515,-1,515,514,516,-1,515,516,517,-1,517,516,505,-1,517,505,504,-1,443,442,518,-1,443,518,519,-1,519,518,520,-1,519,520,521,-1,521,520,522,-1,521,522,523,-1,523,522,524,-1,523,524,525,-1,525,524,526,-1,525,526,527,-1,527,526,528,-1,527,528,529,-1,529,528,513,-1,529,513,512,-1,444,432,435,-1,492,484,503,-1,503,484,487,-1,503,487,501,-1,501,487,489,-1,501,489,499,-1,499,489,491,-1,499,491,497,-1,497,491,470,-1,444,435,455,-1,455,435,437,-1,455,437,453,-1,453,437,439,-1,453,439,451,-1,451,439,441,-1,451,441,449,-1,449,441,443,-1,449,443,446,-1,446,443,519,-1,446,519,469,-1,469,519,521,-1,469,521,467,-1,467,521,523,-1,467,523,465,-1,465,523,525,-1,465,525,463,-1,463,525,527,-1,463,527,461,-1,461,527,529,-1,461,529,459,-1,459,529,512,-1,459,512,456,-1,456,512,483,-1,483,512,515,-1,483,515,481,-1,481,515,517,-1,481,517,479,-1,479,517,504,-1,479,504,477,-1,477,504,507,-1,477,507,475,-1,475,507,509,-1,475,509,473,-1,473,509,511,-1,473,511,470,-1,470,511,494,-1,470,494,497,-1,530,531,532,-1,532,531,533,-1,531,534,533,-1,533,534,535,-1,534,536,535,-1,535,536,537,-1,536,538,537,-1,537,538,539,-1,538,540,539,-1,539,540,541,-1,540,530,541,-1,541,530,532,-1,534,531,536,-1,536,531,530,-1,536,530,538,-1,538,530,540,-1,
        ]
    }
}
Shape{
    appearance Appearance {
        material  Material 	{
            diffuseColor 0.14901960784313725 0.14901960784313725 0.14901960784313725
            specularColor 0.07450980392156863 0.07450980392156863 0.07450980392156863
            ambientIntensity 0.149
            transparency 0.0
            shininess 0.5
        }
    }
    geometry IndexedFaceSet {
        ccw TRUE
        solid FALSE
        coord DEF co Coordinate {
            point [
                -0.7831 0.0209 0.1969, -0.7546 -0.0392 0.1969, -0.8109 -0.0392 0.1969, -0.5723 0.0355 0.1969, -0.5723 -0.0897 0.1969, -0.5834 0.0355 0.1969, -0.5904 -0.0897 0.1969, -0.6077 0.0347 0.1969, -0.613 -0.0891 0.1969, -0.6318 0.031 0.1969, -0.6651 -0.062 0.1969, -0.6703 -0.0501 0.1969, -0.6731 -0.0335 0.1969, -0.6732 -0.0291 0.1969, -0.6354 -0.0857 0.1969, -0.6479 -0.0799 0.1969, -0.6573 -0.0724 0.1969, -0.6715 -0.0124 0.1969, -0.6669 0.0012 0.1969, -0.6597 0.0127 0.1969, -0.6506 0.0216 0.1969, -0.6388 0.0285 0.1969
            ]
        }
        coordIndex [
            0,1,2,-1,3,4,5,-1,5,4,6,-1,5,6,7,-1,7,6,8,-1,7,8,9,-1,10,11,8,-1,8,11,12,-1,8,12,13,-1,14,15,8,-1,8,15,16,-1,8,16,10,-1,13,17,8,-1,8,17,18,-1,8,18,19,-1,19,20,8,-1,8,20,21,-1,8,21,9,-1,
        ]
    }
}