%TF.GenerationSoftware,KiCad,Pcbnew,10.0.4-10.0.4~ubuntu24.04.1*%
%TF.CreationDate,2026-08-17T14:25:24-07:00*%
%TF.ProjectId,usb_controlled_debug_hub,7573625f-636f-46e7-9472-6f6c6c65645f,rev?*%
%TF.SameCoordinates,Original*%
%TF.FileFunction,Soldermask,Top*%
%TF.FilePolarity,Negative*%
%FSLAX46Y46*%
G04 Gerber Fmt 4.6, Leading zero omitted, Abs format (unit mm)*
G04 Created by KiCad (PCBNEW 10.0.4-10.0.4~ubuntu24.04.1) date 2026-08-17 14:25:24*
%MOMM*%
%LPD*%
G01*
G04 APERTURE LIST*
G04 Aperture macros list*
%AMRoundRect*
0 Rectangle with rounded corners*
0 $1 Rounding radius*
0 $2 $3 $4 $5 $6 $7 $8 $9 X,Y pos of 4 corners*
0 Add a 4 corners polygon primitive as box body*
4,1,4,$2,$3,$4,$5,$6,$7,$8,$9,$2,$3,0*
0 Add four circle primitives for the rounded corners*
1,1,$1+$1,$2,$3*
1,1,$1+$1,$4,$5*
1,1,$1+$1,$6,$7*
1,1,$1+$1,$8,$9*
0 Add four rect primitives between the rounded corners*
20,1,$1+$1,$2,$3,$4,$5,0*
20,1,$1+$1,$4,$5,$6,$7,0*
20,1,$1+$1,$6,$7,$8,$9,0*
20,1,$1+$1,$8,$9,$2,$3,0*%
%AMFreePoly0*
4,1,15,0.299847,0.000076,0.299898,0.000076,0.299898,-0.299923,-0.300101,-0.299923,-0.300101,0.000076,-0.002310,0.000076,-0.002310,0.000957,-0.000957,0.002310,0.000957,0.002310,0.002310,0.000957,0.002310,0.000076,0.049860,0.000076,0.049860,0.300076,0.299847,0.300076,0.299847,0.000076,0.299847,0.000076,$1*%
%AMFreePoly1*
4,1,15,0.299923,-0.000051,0.299872,-0.000051,0.299872,-0.300076,0.049886,-0.300076,0.049886,-0.000051,0.002310,-0.000051,0.002310,-0.000957,0.000957,-0.002310,-0.000957,-0.002310,-0.002310,-0.000957,-0.002310,-0.000051,-0.300076,-0.000051,-0.300076,0.299923,0.299923,0.299923,0.299923,-0.000051,0.299923,-0.000051,$1*%
%AMFreePoly2*
4,1,15,0.300076,-0.000051,0.002310,-0.000051,0.002310,-0.000957,0.000957,-0.002310,-0.000957,-0.002310,-0.002310,-0.000957,-0.002310,-0.000051,-0.049886,-0.000051,-0.049886,-0.300050,-0.299872,-0.300050,-0.299872,-0.000051,-0.299923,-0.000051,-0.299923,0.299949,0.300076,0.299949,0.300076,-0.000051,0.300076,-0.000051,$1*%
%AMFreePoly3*
4,1,15,-0.049886,0.000076,-0.002310,0.000076,-0.002310,0.000957,-0.000957,0.002310,0.000957,0.002310,0.002310,0.000957,0.002310,0.000076,0.300076,0.000076,0.300076,-0.299923,-0.299923,-0.299923,-0.299923,0.000076,-0.299872,0.000076,-0.299872,0.300076,-0.049886,0.300076,-0.049886,0.000076,-0.049886,0.000076,$1*%
G04 Aperture macros list end*
%ADD10RoundRect,0.087500X-0.337500X-0.087500X0.337500X-0.087500X0.337500X0.087500X-0.337500X0.087500X0*%
%ADD11R,1.650000X2.400000*%
%ADD12RoundRect,0.250000X-0.325000X-1.100000X0.325000X-1.100000X0.325000X1.100000X-0.325000X1.100000X0*%
%ADD13RoundRect,0.135000X-0.135000X-0.185000X0.135000X-0.185000X0.135000X0.185000X-0.135000X0.185000X0*%
%ADD14RoundRect,0.140000X-0.140000X-0.170000X0.140000X-0.170000X0.140000X0.170000X-0.140000X0.170000X0*%
%ADD15C,2.000000*%
%ADD16RoundRect,0.160000X-0.240000X-0.290000X0.240000X-0.290000X0.240000X0.290000X-0.240000X0.290000X0*%
%ADD17RoundRect,0.180000X-0.495000X-0.270000X0.495000X-0.270000X0.495000X0.270000X-0.495000X0.270000X0*%
%ADD18RoundRect,0.135000X0.135000X0.185000X-0.135000X0.185000X-0.135000X-0.185000X0.135000X-0.185000X0*%
%ADD19RoundRect,0.050000X-0.387500X-0.050000X0.387500X-0.050000X0.387500X0.050000X-0.387500X0.050000X0*%
%ADD20RoundRect,0.050000X-0.050000X-0.387500X0.050000X-0.387500X0.050000X0.387500X-0.050000X0.387500X0*%
%ADD21R,4.700000X4.700000*%
%ADD22RoundRect,0.100000X-0.637500X-0.100000X0.637500X-0.100000X0.637500X0.100000X-0.637500X0.100000X0*%
%ADD23RoundRect,0.200000X-0.200000X-0.275000X0.200000X-0.275000X0.200000X0.275000X-0.200000X0.275000X0*%
%ADD24R,1.700000X1.700000*%
%ADD25C,1.700000*%
%ADD26C,4.000000*%
%ADD27RoundRect,0.250000X-0.450000X-0.350000X0.450000X-0.350000X0.450000X0.350000X-0.450000X0.350000X0*%
%ADD28RoundRect,0.225000X-0.225000X-0.250000X0.225000X-0.250000X0.225000X0.250000X-0.225000X0.250000X0*%
%ADD29C,3.200000*%
%ADD30RoundRect,0.250000X-1.500000X-0.550000X1.500000X-0.550000X1.500000X0.550000X-1.500000X0.550000X0*%
%ADD31RoundRect,0.225000X0.225000X0.250000X-0.225000X0.250000X-0.225000X-0.250000X0.225000X-0.250000X0*%
%ADD32RoundRect,0.100000X-0.850000X-0.100000X0.850000X-0.100000X0.850000X0.100000X-0.850000X0.100000X0*%
%ADD33RoundRect,0.140000X-0.170000X0.140000X-0.170000X-0.140000X0.170000X-0.140000X0.170000X0.140000X0*%
%ADD34RoundRect,0.135000X0.185000X-0.135000X0.185000X0.135000X-0.185000X0.135000X-0.185000X-0.135000X0*%
%ADD35C,2.780000*%
%ADD36R,1.100000X3.700000*%
%ADD37RoundRect,0.150000X-0.825000X-0.150000X0.825000X-0.150000X0.825000X0.150000X-0.825000X0.150000X0*%
%ADD38RoundRect,0.150000X-0.512500X-0.150000X0.512500X-0.150000X0.512500X0.150000X-0.512500X0.150000X0*%
%ADD39R,2.200000X2.200000*%
%ADD40C,2.200000*%
%ADD41FreePoly0,0.000000*%
%ADD42R,0.600000X0.250000*%
%ADD43FreePoly1,0.000000*%
%ADD44R,0.300000X2.400000*%
%ADD45FreePoly2,0.000000*%
%ADD46FreePoly3,0.000000*%
%ADD47RoundRect,0.140000X0.170000X-0.140000X0.170000X0.140000X-0.170000X0.140000X-0.170000X-0.140000X0*%
%ADD48O,3.500000X3.500000*%
%ADD49C,0.350000*%
G04 APERTURE END LIST*
D10*
%TO.C,U_PWR1*%
X46550000Y-53025000D03*
X46550000Y-53675000D03*
X46550000Y-54325000D03*
X46550000Y-54975000D03*
X49450000Y-54975000D03*
X49450000Y-54325000D03*
X49450000Y-53675000D03*
X49450000Y-53025000D03*
D11*
X48000000Y-54000000D03*
%TD*%
D12*
%TO.C,C_PORT1_BULK*%
X53025000Y-56000000D03*
X55975000Y-56000000D03*
%TD*%
D13*
%TO.C,R_HUB_RESET*%
X83490000Y-67000000D03*
X84510000Y-67000000D03*
%TD*%
D14*
%TO.C,C_HUB_A3*%
X95520000Y-59000000D03*
X96480000Y-59000000D03*
%TD*%
D13*
%TO.C,R_CFG0*%
X104490000Y-66500000D03*
X105510000Y-66500000D03*
%TD*%
%TO.C,R_GANG*%
X104490000Y-69500000D03*
X105510000Y-69500000D03*
%TD*%
D10*
%TO.C,U_PWR2*%
X74550000Y-53025000D03*
X74550000Y-53675000D03*
X74550000Y-54325000D03*
X74550000Y-54975000D03*
X77450000Y-54975000D03*
X77450000Y-54325000D03*
X77450000Y-53675000D03*
X77450000Y-53025000D03*
D11*
X76000000Y-54000000D03*
%TD*%
D15*
%TO.C,FID1*%
X28000000Y-28000000D03*
%TD*%
D13*
%TO.C,R_SWAP5*%
X45490000Y-85000000D03*
X46510000Y-85000000D03*
%TD*%
D16*
%TO.C,Q_DATA1*%
X61000000Y-41000000D03*
X61000000Y-43000000D03*
D17*
X63000000Y-42000000D03*
%TD*%
D14*
%TO.C,C_TRUNK_HF*%
X59520000Y-96000000D03*
X60480000Y-96000000D03*
%TD*%
D18*
%TO.C,R_DIS7P*%
X128510000Y-70000000D03*
X127490000Y-70000000D03*
%TD*%
D19*
%TO.C,U_HUB*%
X88587500Y-61250000D03*
X88587500Y-61750000D03*
X88587500Y-62250000D03*
X88587500Y-62750000D03*
X88587500Y-63250000D03*
X88587500Y-63750000D03*
X88587500Y-64250000D03*
X88587500Y-64750000D03*
X88587500Y-65250000D03*
X88587500Y-65750000D03*
X88587500Y-66250000D03*
X88587500Y-66750000D03*
X88587500Y-67250000D03*
X88587500Y-67750000D03*
X88587500Y-68250000D03*
X88587500Y-68750000D03*
D20*
X89250000Y-69412500D03*
X89750000Y-69412500D03*
X90250000Y-69412500D03*
X90750000Y-69412500D03*
X91250000Y-69412500D03*
X91750000Y-69412500D03*
X92250000Y-69412500D03*
X92750000Y-69412500D03*
X93250000Y-69412500D03*
X93750000Y-69412500D03*
X94250000Y-69412500D03*
X94750000Y-69412500D03*
X95250000Y-69412500D03*
X95750000Y-69412500D03*
X96250000Y-69412500D03*
X96750000Y-69412500D03*
D19*
X97412500Y-68750000D03*
X97412500Y-68250000D03*
X97412500Y-67750000D03*
X97412500Y-67250000D03*
X97412500Y-66750000D03*
X97412500Y-66250000D03*
X97412500Y-65750000D03*
X97412500Y-65250000D03*
X97412500Y-64750000D03*
X97412500Y-64250000D03*
X97412500Y-63750000D03*
X97412500Y-63250000D03*
X97412500Y-62750000D03*
X97412500Y-62250000D03*
X97412500Y-61750000D03*
X97412500Y-61250000D03*
D20*
X96750000Y-60587500D03*
X96250000Y-60587500D03*
X95750000Y-60587500D03*
X95250000Y-60587500D03*
X94750000Y-60587500D03*
X94250000Y-60587500D03*
X93750000Y-60587500D03*
X93250000Y-60587500D03*
X92750000Y-60587500D03*
X92250000Y-60587500D03*
X91750000Y-60587500D03*
X91250000Y-60587500D03*
X90750000Y-60587500D03*
X90250000Y-60587500D03*
X89750000Y-60587500D03*
X89250000Y-60587500D03*
D21*
X93000000Y-65000000D03*
%TD*%
D22*
%TO.C,U_AND_PWR*%
X101137500Y-84050000D03*
X101137500Y-84700000D03*
X101137500Y-85350000D03*
X101137500Y-86000000D03*
X101137500Y-86650000D03*
X101137500Y-87300000D03*
X101137500Y-87950000D03*
X106862500Y-87950000D03*
X106862500Y-87300000D03*
X106862500Y-86650000D03*
X106862500Y-86000000D03*
X106862500Y-85350000D03*
X106862500Y-84700000D03*
X106862500Y-84050000D03*
%TD*%
D14*
%TO.C,C_HUB_A_BULK*%
X101520000Y-62000000D03*
X102480000Y-62000000D03*
%TD*%
D13*
%TO.C,R_PWR_EN4*%
X126490000Y-50000000D03*
X127510000Y-50000000D03*
%TD*%
D14*
%TO.C,C_HUB_RESET*%
X83520000Y-70000000D03*
X84480000Y-70000000D03*
%TD*%
D23*
%TO.C,R_AGG_UV_TOP*%
X47175000Y-94000000D03*
X48825000Y-94000000D03*
%TD*%
D13*
%TO.C,R_CFG1*%
X123990000Y-62000000D03*
X125010000Y-62000000D03*
%TD*%
D14*
%TO.C,C_HUB_CR_BULK*%
X101520000Y-68000000D03*
X102480000Y-68000000D03*
%TD*%
D24*
%TO.C,J_PORT1*%
X55000000Y-33700000D03*
D25*
X52500000Y-33700000D03*
X50500000Y-33700000D03*
X48000000Y-33700000D03*
D26*
X58119000Y-31100000D03*
X44879000Y-31100000D03*
%TD*%
D13*
%TO.C,R_PWR_CMD1*%
X107490000Y-92000000D03*
X108510000Y-92000000D03*
%TD*%
%TO.C,R_I2C_SDA*%
X79990000Y-74000000D03*
X81010000Y-74000000D03*
%TD*%
D14*
%TO.C,C_HUB_A4*%
X98520000Y-59000000D03*
X99480000Y-59000000D03*
%TD*%
D13*
%TO.C,R_SWAP1*%
X115490000Y-70000000D03*
X116510000Y-70000000D03*
%TD*%
D10*
%TO.C,U_PWR_CTRL*%
X43550000Y-71025000D03*
X43550000Y-71675000D03*
X43550000Y-72325000D03*
X43550000Y-72975000D03*
X46450000Y-72975000D03*
X46450000Y-72325000D03*
X46450000Y-71675000D03*
X46450000Y-71025000D03*
D11*
X45000000Y-72000000D03*
%TD*%
D13*
%TO.C,R_DATA_CMD1*%
X107490000Y-96000000D03*
X108510000Y-96000000D03*
%TD*%
%TO.C,R_DATA_OK1*%
X63490000Y-45500000D03*
X64510000Y-45500000D03*
%TD*%
D27*
%TO.C,Y_HUB*%
X87400000Y-56350000D03*
X89600000Y-56350000D03*
X89600000Y-54650000D03*
X87400000Y-54650000D03*
%TD*%
D18*
%TO.C,R_DIS6P*%
X122510000Y-70000000D03*
X121490000Y-70000000D03*
%TD*%
D28*
%TO.C,C_AGG_TIMER*%
X55225000Y-101000000D03*
X56775000Y-101000000D03*
%TD*%
D13*
%TO.C,R_BOOST0*%
X112490000Y-70000000D03*
X113510000Y-70000000D03*
%TD*%
D14*
%TO.C,C_PORT4_HF*%
X135520000Y-52000000D03*
X136480000Y-52000000D03*
%TD*%
%TO.C,C_AGG_IN*%
X51520000Y-96000000D03*
X52480000Y-96000000D03*
%TD*%
D13*
%TO.C,R_CFG2*%
X37490000Y-82000000D03*
X38510000Y-82000000D03*
%TD*%
D22*
%TO.C,U_AND_DATA*%
X117137500Y-84050000D03*
X117137500Y-84700000D03*
X117137500Y-85350000D03*
X117137500Y-86000000D03*
X117137500Y-86650000D03*
X117137500Y-87300000D03*
X117137500Y-87950000D03*
X122862500Y-87950000D03*
X122862500Y-87300000D03*
X122862500Y-86650000D03*
X122862500Y-86000000D03*
X122862500Y-85350000D03*
X122862500Y-84700000D03*
X122862500Y-84050000D03*
%TD*%
D18*
%TO.C,R_DIS6N*%
X119510000Y-70000000D03*
X118490000Y-70000000D03*
%TD*%
D29*
%TO.C,H3*%
X24000000Y-106000000D03*
%TD*%
D13*
%TO.C,R_CTRL_RESET*%
X78490000Y-77000000D03*
X79510000Y-77000000D03*
%TD*%
%TO.C,R_VBUS_BOT*%
X77490000Y-62000000D03*
X78510000Y-62000000D03*
%TD*%
D23*
%TO.C,R_AGG_OV_BOT*%
X55175000Y-94000000D03*
X56825000Y-94000000D03*
%TD*%
D13*
%TO.C,R_NONREM1*%
X104490000Y-68000000D03*
X105510000Y-68000000D03*
%TD*%
D14*
%TO.C,C_DATA4*%
X124020000Y-38500000D03*
X124980000Y-38500000D03*
%TD*%
%TO.C,C_XTAL2*%
X88020000Y-50000000D03*
X88980000Y-50000000D03*
%TD*%
D12*
%TO.C,C_PORT3_BULK*%
X109025000Y-56000000D03*
X111975000Y-56000000D03*
%TD*%
D14*
%TO.C,C_HUB_PLL*%
X89520000Y-71000000D03*
X90480000Y-71000000D03*
%TD*%
D10*
%TO.C,U_PWR4*%
X130550000Y-53025000D03*
X130550000Y-53675000D03*
X130550000Y-54325000D03*
X130550000Y-54975000D03*
X133450000Y-54975000D03*
X133450000Y-54325000D03*
X133450000Y-53675000D03*
X133450000Y-53025000D03*
D11*
X132000000Y-54000000D03*
%TD*%
D18*
%TO.C,R_NONREM0*%
X99760000Y-64000000D03*
X98740000Y-64000000D03*
%TD*%
D28*
%TO.C,C_AGG_DVDT*%
X53725000Y-96000000D03*
X55275000Y-96000000D03*
%TD*%
D13*
%TO.C,R_DATA_OE2*%
X88490000Y-38500000D03*
X89510000Y-38500000D03*
%TD*%
%TO.C,R_DATA_CMD3*%
X123490000Y-96000000D03*
X124510000Y-96000000D03*
%TD*%
%TO.C,R_PWR_EN1*%
X42490000Y-50000000D03*
X43510000Y-50000000D03*
%TD*%
%TO.C,R_DATA_CMD2*%
X113490000Y-96000000D03*
X114510000Y-96000000D03*
%TD*%
D24*
%TO.C,J_PORT3*%
X111000000Y-33700000D03*
D25*
X108500000Y-33700000D03*
X106500000Y-33700000D03*
X104000000Y-33700000D03*
D26*
X114119000Y-31100000D03*
X100879000Y-31100000D03*
%TD*%
D13*
%TO.C,R_XTAL*%
X82990000Y-52000000D03*
X84010000Y-52000000D03*
%TD*%
D30*
%TO.C,C_TRUNK_USB*%
X59300000Y-104000000D03*
X64700000Y-104000000D03*
%TD*%
D31*
%TO.C,C_BUCK_IN*%
X65075000Y-91000000D03*
X63525000Y-91000000D03*
%TD*%
D13*
%TO.C,R_DATA_OK4*%
X119990000Y-45500000D03*
X121010000Y-45500000D03*
%TD*%
D18*
%TO.C,R_DIS7N*%
X125510000Y-70000000D03*
X124490000Y-70000000D03*
%TD*%
D14*
%TO.C,C_PWR_CTRL_IN*%
X39720000Y-72000000D03*
X40680000Y-72000000D03*
%TD*%
D12*
%TO.C,C_BUCK_OUT2*%
X78525000Y-94000000D03*
X81475000Y-94000000D03*
%TD*%
D14*
%TO.C,C_CTRL_VUSB*%
X79820000Y-75800000D03*
X80780000Y-75800000D03*
%TD*%
%TO.C,C_HUB_A2*%
X95520000Y-55000000D03*
X96480000Y-55000000D03*
%TD*%
%TO.C,C_PWR_CTRL_OUT_HF*%
X49520000Y-69000000D03*
X50480000Y-69000000D03*
%TD*%
%TO.C,C_PWR_CTRL_OUT*%
X49520000Y-73000000D03*
X50480000Y-73000000D03*
%TD*%
D32*
%TO.C,U_EXP*%
X119500000Y-71775000D03*
X119500000Y-72425000D03*
X119500000Y-73075000D03*
X119500000Y-73725000D03*
X119500000Y-74375000D03*
X119500000Y-75025000D03*
X119500000Y-75675000D03*
X119500000Y-76325000D03*
X119500000Y-76975000D03*
X119500000Y-77625000D03*
X119500000Y-78275000D03*
X119500000Y-78925000D03*
X119500000Y-79575000D03*
X119500000Y-80225000D03*
X126500000Y-80225000D03*
X126500000Y-79575000D03*
X126500000Y-78925000D03*
X126500000Y-78275000D03*
X126500000Y-77625000D03*
X126500000Y-76975000D03*
X126500000Y-76325000D03*
X126500000Y-75675000D03*
X126500000Y-75025000D03*
X126500000Y-74375000D03*
X126500000Y-73725000D03*
X126500000Y-73075000D03*
X126500000Y-72425000D03*
X126500000Y-71775000D03*
%TD*%
D14*
%TO.C,C_PWR1_IN*%
X43020000Y-54000000D03*
X43980000Y-54000000D03*
%TD*%
%TO.C,C_XTAL1*%
X85520000Y-52000000D03*
X86480000Y-52000000D03*
%TD*%
D13*
%TO.C,R_I2C_SCL*%
X79990000Y-71000000D03*
X81010000Y-71000000D03*
%TD*%
D33*
%TO.C,C_HUB_18*%
X93250000Y-70920000D03*
X93250000Y-71880000D03*
%TD*%
D34*
%TO.C,R_ILIM3*%
X107300000Y-55510000D03*
X107300000Y-54490000D03*
%TD*%
D13*
%TO.C,R_SWAP4*%
X104490000Y-71000000D03*
X105510000Y-71000000D03*
%TD*%
%TO.C,R_PWR_CMD2*%
X113490000Y-92000000D03*
X114510000Y-92000000D03*
%TD*%
D14*
%TO.C,C_PWR4_IN*%
X127020000Y-54000000D03*
X127980000Y-54000000D03*
%TD*%
%TO.C,C_HUB_CR_HF*%
X101520000Y-65000000D03*
X102480000Y-65000000D03*
%TD*%
%TO.C,C_DATA3*%
X101520000Y-38500000D03*
X102480000Y-38500000D03*
%TD*%
%TO.C,C_PORT3_HF*%
X107520000Y-52000000D03*
X108480000Y-52000000D03*
%TD*%
D35*
%TO.C,F_IN*%
X37000000Y-99000000D03*
X37000000Y-102400000D03*
X46920000Y-99000000D03*
X46920000Y-102400000D03*
%TD*%
D36*
%TO.C,L_MAIN*%
X72600000Y-91000000D03*
X75600000Y-91000000D03*
%TD*%
D12*
%TO.C,C_TRUNK_BULK*%
X62525000Y-96000000D03*
X65475000Y-96000000D03*
%TD*%
D14*
%TO.C,C_HUB_A1*%
X86520000Y-59000000D03*
X87480000Y-59000000D03*
%TD*%
D13*
%TO.C,R_EXP_RESET*%
X129490000Y-79000000D03*
X130510000Y-79000000D03*
%TD*%
%TO.C,R_PWR_EN3*%
X98490000Y-50000000D03*
X99510000Y-50000000D03*
%TD*%
D12*
%TO.C,C_PORT4_BULK*%
X137025000Y-56000000D03*
X139975000Y-56000000D03*
%TD*%
D14*
%TO.C,C_AND_PWR*%
X108520000Y-84000000D03*
X109480000Y-84000000D03*
%TD*%
D37*
%TO.C,U_CTRL*%
X71525000Y-72190000D03*
X71525000Y-73460000D03*
X71525000Y-74730000D03*
X71525000Y-76000000D03*
X71525000Y-77270000D03*
X71525000Y-78540000D03*
X71525000Y-79810000D03*
X76475000Y-79810000D03*
X76475000Y-78540000D03*
X76475000Y-77270000D03*
X76475000Y-76000000D03*
X76475000Y-74730000D03*
X76475000Y-73460000D03*
X76475000Y-72190000D03*
%TD*%
D16*
%TO.C,Q_DATA3*%
X99000000Y-41000000D03*
X99000000Y-43000000D03*
D17*
X101000000Y-42000000D03*
%TD*%
D14*
%TO.C,C_PWR3_IN*%
X99020000Y-54000000D03*
X99980000Y-54000000D03*
%TD*%
%TO.C,C_DATA1*%
X59520000Y-38500000D03*
X60480000Y-38500000D03*
%TD*%
%TO.C,C_EXP_VDD*%
X115520000Y-77000000D03*
X116480000Y-77000000D03*
%TD*%
D13*
%TO.C,R_DATA_OE3*%
X97490000Y-38500000D03*
X98510000Y-38500000D03*
%TD*%
D29*
%TO.C,H1*%
X24000000Y-24000000D03*
%TD*%
%TO.C,H4*%
X146000000Y-106000000D03*
%TD*%
D14*
%TO.C,C_AND_DATA*%
X124520000Y-84000000D03*
X125480000Y-84000000D03*
%TD*%
D13*
%TO.C,R_VBUS_TOP*%
X77490000Y-60000000D03*
X78510000Y-60000000D03*
%TD*%
D10*
%TO.C,U_PWR3*%
X102550000Y-53025000D03*
X102550000Y-53675000D03*
X102550000Y-54325000D03*
X102550000Y-54975000D03*
X105450000Y-54975000D03*
X105450000Y-54325000D03*
X105450000Y-53675000D03*
X105450000Y-53025000D03*
D11*
X104000000Y-54000000D03*
%TD*%
D34*
%TO.C,R_ILIM_CTRL*%
X48300000Y-73510000D03*
X48300000Y-72490000D03*
%TD*%
D13*
%TO.C,R_PWR_CMD3*%
X123490000Y-92000000D03*
X124510000Y-92000000D03*
%TD*%
D14*
%TO.C,C_DATA2*%
X84520000Y-38500000D03*
X85480000Y-38500000D03*
%TD*%
%TO.C,C_CTRL_VDD*%
X73520000Y-69500000D03*
X74480000Y-69500000D03*
%TD*%
D38*
%TO.C,U_BUCK*%
X66862500Y-90050000D03*
X66862500Y-91000000D03*
X66862500Y-91950000D03*
X69137500Y-91950000D03*
X69137500Y-91000000D03*
X69137500Y-90050000D03*
%TD*%
D34*
%TO.C,R_ILIM2*%
X79300000Y-55510000D03*
X79300000Y-54490000D03*
%TD*%
D18*
%TO.C,R_SWAP3*%
X113510000Y-62000000D03*
X112490000Y-62000000D03*
%TD*%
D14*
%TO.C,C_PORT1_HF*%
X51520000Y-52000000D03*
X52480000Y-52000000D03*
%TD*%
D34*
%TO.C,R_ILIM4*%
X135300000Y-55510000D03*
X135300000Y-54490000D03*
%TD*%
D13*
%TO.C,R_SWAP2*%
X109490000Y-70000000D03*
X110510000Y-70000000D03*
%TD*%
D15*
%TO.C,FID2*%
X140000000Y-101000000D03*
%TD*%
D13*
%TO.C,R_PWR_CMD4*%
X129490000Y-92000000D03*
X130510000Y-92000000D03*
%TD*%
%TO.C,R_SWAP7*%
X53490000Y-85000000D03*
X54510000Y-85000000D03*
%TD*%
D23*
%TO.C,R_AGG_UV_MID*%
X51175000Y-94000000D03*
X52825000Y-94000000D03*
%TD*%
D13*
%TO.C,R_SWAP6*%
X49490000Y-85000000D03*
X50510000Y-85000000D03*
%TD*%
D39*
%TO.C,J_PWR*%
X25500000Y-98000000D03*
D40*
X25500000Y-93000000D03*
%TD*%
D29*
%TO.C,H2*%
X146000000Y-44000000D03*
%TD*%
D14*
%TO.C,C_PORT2_HF*%
X79520000Y-52000000D03*
X80480000Y-52000000D03*
%TD*%
D12*
%TO.C,C_BUCK_OUT1*%
X78525000Y-89000000D03*
X81475000Y-89000000D03*
%TD*%
D41*
%TO.C,U_AGG*%
X51090000Y-98100000D03*
D42*
X51090000Y-98770000D03*
X51090000Y-99230000D03*
D43*
X51090000Y-99900000D03*
D44*
X51770000Y-99000000D03*
X52260000Y-99000000D03*
D45*
X52910000Y-99900000D03*
D42*
X52910000Y-99230000D03*
X52910000Y-98770000D03*
D46*
X52910000Y-98100000D03*
%TD*%
D16*
%TO.C,Q_DATA4*%
X121500000Y-41000000D03*
X121500000Y-43000000D03*
D17*
X123500000Y-42000000D03*
%TD*%
D13*
%TO.C,R_DATA_OK2*%
X88490000Y-45500000D03*
X89510000Y-45500000D03*
%TD*%
D47*
%TO.C,C_HUB_18PLL*%
X90200000Y-58880000D03*
X90200000Y-57920000D03*
%TD*%
D14*
%TO.C,C_PWR2_IN*%
X71020000Y-54000000D03*
X71980000Y-54000000D03*
%TD*%
%TO.C,C_HUB_DD*%
X86520000Y-71000000D03*
X87480000Y-71000000D03*
%TD*%
D13*
%TO.C,R_DATA_CMD4*%
X129490000Y-96000000D03*
X130510000Y-96000000D03*
%TD*%
%TO.C,R_PWR_EN2*%
X70490000Y-50000000D03*
X71510000Y-50000000D03*
%TD*%
D16*
%TO.C,Q_DATA2*%
X86000000Y-41000000D03*
X86000000Y-43000000D03*
D17*
X88000000Y-42000000D03*
%TD*%
D24*
%TO.C,J_PORT4*%
X139000000Y-33700000D03*
D25*
X136500000Y-33700000D03*
X134500000Y-33700000D03*
X132000000Y-33700000D03*
D26*
X142119000Y-31100000D03*
X128879000Y-31100000D03*
%TD*%
D24*
%TO.C,J_UP*%
X34200000Y-58250000D03*
D25*
X34200000Y-55750000D03*
X32200000Y-55750000D03*
X32200000Y-58250000D03*
D48*
X29490000Y-50980000D03*
X29490000Y-63020000D03*
%TD*%
D13*
%TO.C,R_DATA_OE1*%
X63490000Y-38500000D03*
X64510000Y-38500000D03*
%TD*%
D34*
%TO.C,R_ILIM1*%
X51300000Y-55510000D03*
X51300000Y-54490000D03*
%TD*%
D15*
%TO.C,FID3*%
X28000000Y-102000000D03*
%TD*%
D13*
%TO.C,R_DATA_OK3*%
X97490000Y-45500000D03*
X98510000Y-45500000D03*
%TD*%
D23*
%TO.C,R_AGG_ILIM*%
X55175000Y-98000000D03*
X56825000Y-98000000D03*
%TD*%
D12*
%TO.C,C_PORT2_BULK*%
X81025000Y-56000000D03*
X83975000Y-56000000D03*
%TD*%
D13*
%TO.C,R_RBIAS*%
X99490000Y-56000000D03*
X100510000Y-56000000D03*
%TD*%
D47*
%TO.C,C_BST*%
X71100000Y-91480000D03*
X71100000Y-90520000D03*
%TD*%
D13*
%TO.C,R_DATA_OE4*%
X119990000Y-38500000D03*
X121010000Y-38500000D03*
%TD*%
D24*
%TO.C,J_PORT2*%
X83000000Y-33700000D03*
D25*
X80500000Y-33700000D03*
X78500000Y-33700000D03*
X76000000Y-33700000D03*
D26*
X86119000Y-31100000D03*
X72879000Y-31100000D03*
%TD*%
D13*
%TO.C,R_BOOST1*%
X126990000Y-62000000D03*
X128010000Y-62000000D03*
%TD*%
D49*
X55000000Y-33700000D03*
X52500000Y-33700000D03*
X50500000Y-33700000D03*
X48000000Y-33700000D03*
X58119000Y-31100000D03*
X44879000Y-31100000D03*
X24000000Y-106000000D03*
X111000000Y-33700000D03*
X108500000Y-33700000D03*
X106500000Y-33700000D03*
X104000000Y-33700000D03*
X114119000Y-31100000D03*
X100879000Y-31100000D03*
X37000000Y-99000000D03*
X37000000Y-102400000D03*
X46920000Y-99000000D03*
X46920000Y-102400000D03*
X24000000Y-24000000D03*
X146000000Y-106000000D03*
X25500000Y-98000000D03*
X25500000Y-93000000D03*
X146000000Y-44000000D03*
X139000000Y-33700000D03*
X136500000Y-33700000D03*
X134500000Y-33700000D03*
X132000000Y-33700000D03*
X142119000Y-31100000D03*
X128879000Y-31100000D03*
X34200000Y-58250000D03*
X34200000Y-55750000D03*
X32200000Y-55750000D03*
X32200000Y-58250000D03*
X29490000Y-50980000D03*
X29490000Y-63020000D03*
X83000000Y-33700000D03*
X80500000Y-33700000D03*
X78500000Y-33700000D03*
X76000000Y-33700000D03*
X86119000Y-31100000D03*
X72879000Y-31100000D03*
M02*
