M48
; DRILL file KiCad 10.0.4-10.0.4~ubuntu24.04.1 date 2026-07-27T17:05:34
; FORMAT={-:-/ absolute / metric / decimal}
; #@! TF.CreationDate,2026-07-27T17:05:34-07:00
; #@! TF.GenerationSoftware,Kicad,Pcbnew,10.0.4-10.0.4~ubuntu24.04.1
; #@! TF.FileFunction,Plated,1,2,PTH
FMAT,2
METRIC
; #@! TA.AperFunction,Plated,PTH,ViaDrill
T1C0.300
; #@! TA.AperFunction,Plated,PTH,ComponentDrill
T2C0.900
%
G90
G05
T1
X17.5Y-27.4
X19.7Y-27.5
X20.8Y-24.2
X23.9Y-30.1
X23.9Y-36.6
X25.0Y-24.2
X25.0Y-26.4
X25.0Y-31.3
X25.0Y-36.0
X25.0Y-38.5
X26.1Y-30.1
X26.2Y-33.8
X26.2Y-36.0
X27.4Y-33.8
X28.4Y-37.1
X28.4Y-41.8
X28.6Y-30.0
X29.7Y-29.4
X29.8Y-37.1
X29.8Y-41.8
X30.9Y-30.8
X31.7Y-37.1
X31.7Y-41.8
X34.0Y-36.0
X35.1Y-31.1
X35.2Y-32.7
X35.2Y-37.1
X37.2Y-35.0
X37.7Y-38.5
X38.7Y-33.5
X40.2Y-38.5
X42.8Y-38.5
X45.9Y-43.9
X47.9Y-35.3
X47.9Y-37.5
T2
X25.0Y-20.0
X25.0Y-46.0
X27.54Y-20.0
X27.54Y-46.0
X30.08Y-20.0
X30.08Y-46.0
X32.62Y-20.0
X32.62Y-46.0
X35.16Y-20.0
X35.16Y-46.0
X37.7Y-20.0
X37.7Y-46.0
X40.24Y-20.0
X40.24Y-46.0
X42.78Y-20.0
X42.78Y-46.0
X45.32Y-20.0
X45.32Y-46.0
X47.86Y-20.0
X47.86Y-46.0
M30
