%TF.GenerationSoftware,KiCad,Pcbnew,10.0.4-10.0.4~ubuntu24.04.1*%
%TF.CreationDate,2026-07-29T22:45:10-07:00*%
%TF.ProjectId,cooksense,636f6f6b-7365-46e7-9365-2e6b69636164,rev?*%
%TF.SameCoordinates,Original*%
%TF.FileFunction,Paste,Top*%
%TF.FilePolarity,Positive*%
%FSLAX46Y46*%
G04 Gerber Fmt 4.6, Leading zero omitted, Abs format (unit mm)*
G04 Created by KiCad (PCBNEW 10.0.4-10.0.4~ubuntu24.04.1) date 2026-07-29 22:45:10*
%MOMM*%
%LPD*%
G01*
G04 APERTURE LIST*
G04 Aperture macros list*
%AMRoundRect*
0 Rectangle with rounded corners*
0 $1 Rounding radius*
0 $2 $3 $4 $5 $6 $7 $8 $9 X,Y pos of 4 corners*
0 Add a 4 corners polygon primitive as box body*
4,1,4,$2,$3,$4,$5,$6,$7,$8,$9,$2,$3,0*
0 Add four circle primitives for the rounded corners*
1,1,$1+$1,$2,$3*
1,1,$1+$1,$4,$5*
1,1,$1+$1,$6,$7*
1,1,$1+$1,$8,$9*
0 Add four rect primitives between the rounded corners*
20,1,$1+$1,$2,$3,$4,$5,0*
20,1,$1+$1,$4,$5,$6,$7,0*
20,1,$1+$1,$6,$7,$8,$9,0*
20,1,$1+$1,$8,$9,$2,$3,0*%
G04 Aperture macros list end*
%ADD10RoundRect,0.175000X1.175000X-0.175000X1.175000X0.175000X-1.175000X0.175000X-1.175000X-0.175000X0*%
%ADD11RoundRect,0.250000X0.700000X-0.300000X0.700000X0.300000X-0.700000X0.300000X-0.700000X-0.300000X0*%
%ADD12RoundRect,0.150000X-0.512500X-0.150000X0.512500X-0.150000X0.512500X0.150000X-0.512500X0.150000X0*%
%ADD13RoundRect,0.150000X-0.150000X-0.700000X0.150000X-0.700000X0.150000X0.700000X-0.150000X0.700000X0*%
%ADD14RoundRect,0.250000X-0.250000X-1.100000X0.250000X-1.100000X0.250000X1.100000X-0.250000X1.100000X0*%
%ADD15RoundRect,0.135000X-0.135000X-0.185000X0.135000X-0.185000X0.135000X0.185000X-0.135000X0.185000X0*%
%ADD16RoundRect,0.087500X-0.425000X-0.087500X0.425000X-0.087500X0.425000X0.087500X-0.425000X0.087500X0*%
%ADD17RoundRect,0.250000X-0.312500X-0.625000X0.312500X-0.625000X0.312500X0.625000X-0.312500X0.625000X0*%
%ADD18RoundRect,0.150000X-0.825000X-0.150000X0.825000X-0.150000X0.825000X0.150000X-0.825000X0.150000X0*%
%ADD19RoundRect,0.140000X-0.140000X-0.170000X0.140000X-0.170000X0.140000X0.170000X-0.140000X0.170000X0*%
%ADD20RoundRect,0.200000X-0.200000X-0.275000X0.200000X-0.275000X0.200000X0.275000X-0.200000X0.275000X0*%
%ADD21RoundRect,0.250000X-1.000000X-0.650000X1.000000X-0.650000X1.000000X0.650000X-1.000000X0.650000X0*%
%ADD22RoundRect,0.150000X-0.875000X-0.150000X0.875000X-0.150000X0.875000X0.150000X-0.875000X0.150000X0*%
%ADD23RoundRect,0.250000X-0.250000X-0.475000X0.250000X-0.475000X0.250000X0.475000X-0.250000X0.475000X0*%
%ADD24RoundRect,0.112500X-0.187500X-0.112500X0.187500X-0.112500X0.187500X0.112500X-0.187500X0.112500X0*%
%ADD25RoundRect,0.150000X-0.587500X-0.150000X0.587500X-0.150000X0.587500X0.150000X-0.587500X0.150000X0*%
%ADD26RoundRect,0.250000X-0.312500X-1.450000X0.312500X-1.450000X0.312500X1.450000X-0.312500X1.450000X0*%
%ADD27RoundRect,0.112500X0.112500X-0.187500X0.112500X0.187500X-0.112500X0.187500X-0.112500X-0.187500X0*%
%ADD28RoundRect,0.249999X-0.750001X-0.640001X0.750001X-0.640001X0.750001X0.640001X-0.750001X0.640001X0*%
%ADD29RoundRect,0.150000X-0.700000X0.150000X-0.700000X-0.150000X0.700000X-0.150000X0.700000X0.150000X0*%
%ADD30RoundRect,0.250000X-1.100000X0.250000X-1.100000X-0.250000X1.100000X-0.250000X1.100000X0.250000X0*%
%ADD31RoundRect,0.225000X-0.225000X-0.250000X0.225000X-0.250000X0.225000X0.250000X-0.225000X0.250000X0*%
%ADD32RoundRect,0.100000X-0.637500X-0.100000X0.637500X-0.100000X0.637500X0.100000X-0.637500X0.100000X0*%
%ADD33RoundRect,0.250000X-1.000000X-0.900000X1.000000X-0.900000X1.000000X0.900000X-1.000000X0.900000X0*%
%ADD34RoundRect,0.100000X-0.850000X-0.100000X0.850000X-0.100000X0.850000X0.100000X-0.850000X0.100000X0*%
%ADD35RoundRect,0.250000X-1.500000X-0.550000X1.500000X-0.550000X1.500000X0.550000X-1.500000X0.550000X0*%
%ADD36RoundRect,0.150000X0.625000X-0.150000X0.625000X0.150000X-0.625000X0.150000X-0.625000X-0.150000X0*%
%ADD37RoundRect,0.250000X0.650000X-0.350000X0.650000X0.350000X-0.650000X0.350000X-0.650000X-0.350000X0*%
%ADD38RoundRect,0.375000X-0.625000X-0.375000X0.625000X-0.375000X0.625000X0.375000X-0.625000X0.375000X0*%
%ADD39RoundRect,0.500000X-0.500000X-1.400000X0.500000X-1.400000X0.500000X1.400000X-0.500000X1.400000X0*%
%ADD40R,1.270000X2.540000*%
%ADD41R,3.430000X1.650000*%
%ADD42RoundRect,0.135000X0.135000X0.185000X-0.135000X0.185000X-0.135000X-0.185000X0.135000X-0.185000X0*%
%ADD43RoundRect,0.218750X-0.218750X-0.381250X0.218750X-0.381250X0.218750X0.381250X-0.218750X0.381250X0*%
%ADD44RoundRect,0.160000X-0.205000X-0.160000X0.205000X-0.160000X0.205000X0.160000X-0.205000X0.160000X0*%
%ADD45RoundRect,0.062500X-0.237500X-0.062500X0.237500X-0.062500X0.237500X0.062500X-0.237500X0.062500X0*%
%ADD46RoundRect,0.150000X0.587500X0.150000X-0.587500X0.150000X-0.587500X-0.150000X0.587500X-0.150000X0*%
G04 APERTURE END LIST*
D10*
%TO.C,J_MODE*%
X194300000Y-62250000D03*
X194300000Y-60750000D03*
X194300000Y-59250000D03*
X194300000Y-57750000D03*
D11*
X198000000Y-64200000D03*
X198000000Y-55800000D03*
%TD*%
D12*
%TO.C,U_DECUEN*%
X79362500Y-59050000D03*
X79362500Y-60000000D03*
X79362500Y-60950000D03*
X81637500Y-60950000D03*
X81637500Y-60000000D03*
X81637500Y-59050000D03*
%TD*%
D13*
%TO.C,J_RH_AMBIENT*%
X165500000Y-95150000D03*
X166750000Y-95150000D03*
X168000000Y-95150000D03*
X169250000Y-95150000D03*
X170500000Y-95150000D03*
D14*
X163650000Y-98350000D03*
X172350000Y-98350000D03*
%TD*%
D15*
%TO.C,R_ESTOPOKPD*%
X168490000Y-60000000D03*
X169510000Y-60000000D03*
%TD*%
D16*
%TO.C,U_STOPINV*%
X125162500Y-72350000D03*
X125162500Y-73000000D03*
X125162500Y-73650000D03*
X126837500Y-73650000D03*
X126837500Y-72350000D03*
%TD*%
D17*
%TO.C,R_STOP*%
X184537500Y-16000000D03*
X187462500Y-16000000D03*
%TD*%
D18*
%TO.C,U_SR1*%
X92525000Y-70555000D03*
X92525000Y-71825000D03*
X92525000Y-73095000D03*
X92525000Y-74365000D03*
X92525000Y-75635000D03*
X92525000Y-76905000D03*
X92525000Y-78175000D03*
X92525000Y-79445000D03*
X97475000Y-79445000D03*
X97475000Y-78175000D03*
X97475000Y-76905000D03*
X97475000Y-75635000D03*
X97475000Y-74365000D03*
X97475000Y-73095000D03*
X97475000Y-71825000D03*
X97475000Y-70555000D03*
%TD*%
D19*
%TO.C,C_OENAND*%
X160720000Y-82200000D03*
X161680000Y-82200000D03*
%TD*%
D20*
%TO.C,R_SHIELD*%
X60425000Y-92500000D03*
X62075000Y-92500000D03*
%TD*%
D21*
%TO.C,D_KSTOP*%
X130500000Y-58500000D03*
X134500000Y-58500000D03*
%TD*%
D18*
%TO.C,U_ADC*%
X39525000Y-71555000D03*
X39525000Y-72825000D03*
X39525000Y-74095000D03*
X39525000Y-75365000D03*
X39525000Y-76635000D03*
X39525000Y-77905000D03*
X39525000Y-79175000D03*
X39525000Y-80445000D03*
X44475000Y-80445000D03*
X44475000Y-79175000D03*
X44475000Y-77905000D03*
X44475000Y-76635000D03*
X44475000Y-75365000D03*
X44475000Y-74095000D03*
X44475000Y-72825000D03*
X44475000Y-71555000D03*
%TD*%
D22*
%TO.C,U_ULNB*%
X179350000Y-53920000D03*
X179350000Y-55190000D03*
X179350000Y-56460000D03*
X179350000Y-57730000D03*
X179350000Y-59000000D03*
X179350000Y-60270000D03*
X179350000Y-61540000D03*
X179350000Y-62810000D03*
X179350000Y-64080000D03*
X188650000Y-64080000D03*
X188650000Y-62810000D03*
X188650000Y-61540000D03*
X188650000Y-60270000D03*
X188650000Y-59000000D03*
X188650000Y-57730000D03*
X188650000Y-56460000D03*
X188650000Y-55190000D03*
X188650000Y-53920000D03*
%TD*%
D18*
%TO.C,U_DECU*%
X71525000Y-61555000D03*
X71525000Y-62825000D03*
X71525000Y-64095000D03*
X71525000Y-65365000D03*
X71525000Y-66635000D03*
X71525000Y-67905000D03*
X71525000Y-69175000D03*
X71525000Y-70445000D03*
X76475000Y-70445000D03*
X76475000Y-69175000D03*
X76475000Y-67905000D03*
X76475000Y-66635000D03*
X76475000Y-65365000D03*
X76475000Y-64095000D03*
X76475000Y-62825000D03*
X76475000Y-61555000D03*
%TD*%
D15*
%TO.C,R_GPB3PD*%
X114290000Y-66000000D03*
X115310000Y-66000000D03*
%TD*%
D19*
%TO.C,C_AND1*%
X159020000Y-70600000D03*
X159980000Y-70600000D03*
%TD*%
D22*
%TO.C,U_ULNA*%
X90350000Y-53920000D03*
X90350000Y-55190000D03*
X90350000Y-56460000D03*
X90350000Y-57730000D03*
X90350000Y-59000000D03*
X90350000Y-60270000D03*
X90350000Y-61540000D03*
X90350000Y-62810000D03*
X90350000Y-64080000D03*
X99650000Y-64080000D03*
X99650000Y-62810000D03*
X99650000Y-61540000D03*
X99650000Y-60270000D03*
X99650000Y-59000000D03*
X99650000Y-57730000D03*
X99650000Y-56460000D03*
X99650000Y-55190000D03*
X99650000Y-53920000D03*
%TD*%
D18*
%TO.C,U_COMP*%
X21525000Y-78095000D03*
X21525000Y-79365000D03*
X21525000Y-80635000D03*
X21525000Y-81905000D03*
X26475000Y-81905000D03*
X26475000Y-80635000D03*
X26475000Y-79365000D03*
X26475000Y-78095000D03*
%TD*%
D15*
%TO.C,R_OS*%
X144290000Y-63900000D03*
X145310000Y-63900000D03*
%TD*%
D23*
%TO.C,C_IN1*%
X55850000Y-53700000D03*
X57750000Y-53700000D03*
%TD*%
D19*
%TO.C,C_FLT2*%
X53320000Y-84800000D03*
X54280000Y-84800000D03*
%TD*%
D15*
%TO.C,R_REF7*%
X56690000Y-78100000D03*
X57710000Y-78100000D03*
%TD*%
D19*
%TO.C,C_TCD*%
X61820000Y-73100000D03*
X62780000Y-73100000D03*
%TD*%
D24*
%TO.C,D_LCDAT*%
X156950000Y-91000000D03*
X159050000Y-91000000D03*
%TD*%
D15*
%TO.C,R_TEMPOKSER*%
X107690000Y-65599999D03*
X108710000Y-65599999D03*
%TD*%
%TO.C,R_HOSTAUTHPD*%
X99490000Y-88000000D03*
X100510000Y-88000000D03*
%TD*%
D17*
%TO.C,R_TH2*%
X16037500Y-85500000D03*
X18962500Y-85500000D03*
%TD*%
D24*
%TO.C,D_ESD_IN*%
X31950000Y-55000000D03*
X34050000Y-55000000D03*
%TD*%
D15*
%TO.C,R_AND2PD*%
X168780000Y-70660000D03*
X169800000Y-70660000D03*
%TD*%
%TO.C,R_REF4*%
X58290000Y-83400000D03*
X59310000Y-83400000D03*
%TD*%
D25*
%TO.C,Q_SWRHE*%
X175062500Y-89050000D03*
X175062500Y-90950000D03*
X176937500Y-90000000D03*
%TD*%
D15*
%TO.C,R_HSG*%
X179990000Y-77400000D03*
X181010000Y-77400000D03*
%TD*%
D20*
%TO.C,R_STOPRAIL*%
X187175000Y-74000000D03*
X188825000Y-74000000D03*
%TD*%
D25*
%TO.C,Q_SWRHA*%
X163062500Y-89050000D03*
X163062500Y-90950000D03*
X164937500Y-90000000D03*
%TD*%
D19*
%TO.C,C_ADCV2*%
X36520000Y-76000000D03*
X37480000Y-76000000D03*
%TD*%
D15*
%TO.C,R_OE*%
X158290000Y-82200000D03*
X159310000Y-82200000D03*
%TD*%
D26*
%TO.C,F1*%
X37862500Y-58000000D03*
X42137500Y-58000000D03*
%TD*%
D19*
%TO.C,C_OSV*%
X154720000Y-63900000D03*
X155680000Y-63900000D03*
%TD*%
%TO.C,C_STOPINV*%
X128520000Y-73000000D03*
X129480000Y-73000000D03*
%TD*%
D15*
%TO.C,R_SCLB*%
X52690000Y-92600000D03*
X53710000Y-92600000D03*
%TD*%
D19*
%TO.C,C_SR1*%
X94520000Y-81500000D03*
X95480000Y-81500000D03*
%TD*%
D15*
%TO.C,R_SCLA*%
X30690000Y-92600000D03*
X31710000Y-92600000D03*
%TD*%
D27*
%TO.C,D_COILEN*%
X191210000Y-57650000D03*
X191210000Y-55550000D03*
%TD*%
D28*
%TO.C,U_OPTO*%
X180235000Y-88730000D03*
X180235000Y-91270000D03*
X189765000Y-91270000D03*
X189765000Y-88730000D03*
%TD*%
D15*
%TO.C,R_CTRSAFEPD*%
X176730000Y-85080000D03*
X177750000Y-85080000D03*
%TD*%
D19*
%TO.C,C_TCDV*%
X60320000Y-80900000D03*
X61280000Y-80900000D03*
%TD*%
D29*
%TO.C,J_KEY_MATRIX*%
X17850000Y-14375000D03*
X17850000Y-15625000D03*
X17850000Y-16875000D03*
X17850000Y-18125000D03*
X17850000Y-19375000D03*
X17850000Y-20625000D03*
X17850000Y-21875000D03*
X17850000Y-23125000D03*
X17850000Y-24375000D03*
X17850000Y-25625000D03*
D30*
X14650000Y-12525000D03*
X14650000Y-27475000D03*
%TD*%
D15*
%TO.C,R_SER4*%
X53490000Y-76600000D03*
X54510000Y-76600000D03*
%TD*%
D31*
%TO.C,C_OS*%
X155225000Y-62000000D03*
X156775000Y-62000000D03*
%TD*%
D18*
%TO.C,U_COMP2*%
X21525000Y-84595000D03*
X21525000Y-85865000D03*
X21525000Y-87135000D03*
X21525000Y-88405000D03*
X26475000Y-88405000D03*
X26475000Y-87135000D03*
X26475000Y-85865000D03*
X26475000Y-84595000D03*
%TD*%
D19*
%TO.C,C_SCHM*%
X168320000Y-61900000D03*
X169280000Y-61900000D03*
%TD*%
D15*
%TO.C,R_OS2*%
X146190000Y-55500000D03*
X147210000Y-55500000D03*
%TD*%
D19*
%TO.C,C_LATCHB*%
X182720000Y-76200000D03*
X183680000Y-76200000D03*
%TD*%
D13*
%TO.C,J_THERM_A*%
X27625000Y-95150000D03*
X28875000Y-95150000D03*
X30125000Y-95150000D03*
X31375000Y-95150000D03*
X32625000Y-95150000D03*
X33875000Y-95150000D03*
X35125000Y-95150000D03*
X36375000Y-95150000D03*
D14*
X25775000Y-98350000D03*
X38225000Y-98350000D03*
%TD*%
D32*
%TO.C,U_TC*%
X60137500Y-75050000D03*
X60137500Y-75700000D03*
X60137500Y-76350000D03*
X60137500Y-77000000D03*
X60137500Y-77650000D03*
X60137500Y-78300000D03*
X60137500Y-78950000D03*
X65862500Y-78950000D03*
X65862500Y-78300000D03*
X65862500Y-77650000D03*
X65862500Y-77000000D03*
X65862500Y-76350000D03*
X65862500Y-75700000D03*
X65862500Y-75050000D03*
%TD*%
D19*
%TO.C,C_MR*%
X153020000Y-82600000D03*
X153980000Y-82600000D03*
%TD*%
%TO.C,C_AND2*%
X171020000Y-70600000D03*
X171980000Y-70600000D03*
%TD*%
D31*
%TO.C,C_SWRHA*%
X162725000Y-87000000D03*
X164275000Y-87000000D03*
%TD*%
D15*
%TO.C,R_PG*%
X63490000Y-60000000D03*
X64510000Y-60000000D03*
%TD*%
%TO.C,R_TEMPOK*%
X28690000Y-78100000D03*
X29710000Y-78100000D03*
%TD*%
D31*
%TO.C,C_ULNA*%
X95525000Y-66400000D03*
X97075000Y-66400000D03*
%TD*%
D12*
%TO.C,U_CAND2*%
X185762500Y-80250000D03*
X185762500Y-81200000D03*
X185762500Y-82150000D03*
X188037500Y-82150000D03*
X188037500Y-81200000D03*
X188037500Y-80250000D03*
%TD*%
D19*
%TO.C,C_FLT4*%
X57520000Y-87000000D03*
X58480000Y-87000000D03*
%TD*%
D15*
%TO.C,R_OVB*%
X67490000Y-56000000D03*
X68510000Y-56000000D03*
%TD*%
D19*
%TO.C,C_DECDEN*%
X129020000Y-68500000D03*
X129980000Y-68500000D03*
%TD*%
D12*
%TO.C,U_LATCHG*%
X100862500Y-70050000D03*
X100862500Y-71000000D03*
X100862500Y-71950000D03*
X103137500Y-71950000D03*
X103137500Y-71000000D03*
X103137500Y-70050000D03*
%TD*%
D31*
%TO.C,C_SWB*%
X44725000Y-87000000D03*
X46275000Y-87000000D03*
%TD*%
D15*
%TO.C,R_OPENT*%
X24490000Y-91900000D03*
X25510000Y-91900000D03*
%TD*%
D23*
%TO.C,C_LDOIN*%
X18050000Y-75200000D03*
X19950000Y-75200000D03*
%TD*%
D33*
%TO.C,D_TVS*%
X60850000Y-68000000D03*
X65150000Y-68000000D03*
%TD*%
D15*
%TO.C,R_ESTOPOKSER*%
X110290000Y-64800000D03*
X111310000Y-64800000D03*
%TD*%
%TO.C,R_TCP*%
X67690000Y-78900000D03*
X68710000Y-78900000D03*
%TD*%
D18*
%TO.C,U_ONESHOT*%
X147525000Y-57555000D03*
X147525000Y-58825000D03*
X147525000Y-60095000D03*
X147525000Y-61365000D03*
X147525000Y-62635000D03*
X147525000Y-63905000D03*
X147525000Y-65175000D03*
X147525000Y-66445000D03*
X152475000Y-66445000D03*
X152475000Y-65175000D03*
X152475000Y-63905000D03*
X152475000Y-62635000D03*
X152475000Y-61365000D03*
X152475000Y-60095000D03*
X152475000Y-58825000D03*
X152475000Y-57555000D03*
%TD*%
D15*
%TO.C,R_SER3*%
X48990000Y-82000000D03*
X50010000Y-82000000D03*
%TD*%
D25*
%TO.C,Q_COILDRV*%
X169062500Y-79050000D03*
X169062500Y-80950000D03*
X170937500Y-80000000D03*
%TD*%
D15*
%TO.C,R_AND1PD*%
X156780000Y-70660000D03*
X157800000Y-70660000D03*
%TD*%
D34*
%TO.C,U_EXP*%
X136500000Y-77775000D03*
X136500000Y-78425000D03*
X136500000Y-79075000D03*
X136500000Y-79725000D03*
X136500000Y-80375000D03*
X136500000Y-81025000D03*
X136500000Y-81675000D03*
X136500000Y-82325000D03*
X136500000Y-82975000D03*
X136500000Y-83625000D03*
X136500000Y-84275000D03*
X136500000Y-84925000D03*
X136500000Y-85575000D03*
X136500000Y-86225000D03*
X143500000Y-86225000D03*
X143500000Y-85575000D03*
X143500000Y-84925000D03*
X143500000Y-84275000D03*
X143500000Y-83625000D03*
X143500000Y-82975000D03*
X143500000Y-82325000D03*
X143500000Y-81675000D03*
X143500000Y-81025000D03*
X143500000Y-80375000D03*
X143500000Y-79725000D03*
X143500000Y-79075000D03*
X143500000Y-78425000D03*
X143500000Y-77775000D03*
%TD*%
D15*
%TO.C,R_FAULTPU*%
X168370000Y-75950000D03*
X169390000Y-75950000D03*
%TD*%
D31*
%TO.C,C_3V3*%
X22125000Y-74900000D03*
X23675000Y-74900000D03*
%TD*%
D35*
%TO.C,CE1*%
X47300000Y-66000000D03*
X52700000Y-66000000D03*
%TD*%
D15*
%TO.C,R_ESTOPS*%
X191290000Y-75200000D03*
X192310000Y-75200000D03*
%TD*%
D19*
%TO.C,C_FLT7*%
X56520000Y-90500000D03*
X57480000Y-90500000D03*
%TD*%
D15*
%TO.C,R_SER7*%
X48390000Y-79800000D03*
X49410000Y-79800000D03*
%TD*%
D31*
%TO.C,C_ADCV*%
X47225000Y-76000000D03*
X48775000Y-76000000D03*
%TD*%
D15*
%TO.C,R_FAULTSER*%
X108490000Y-67000000D03*
X109510000Y-67000000D03*
%TD*%
D31*
%TO.C,C_OS2*%
X143525000Y-65700000D03*
X145075000Y-65700000D03*
%TD*%
D15*
%TO.C,R_SER2*%
X50690000Y-78800000D03*
X51710000Y-78800000D03*
%TD*%
D19*
%TO.C,C_DECD*%
X114320000Y-67900000D03*
X115280000Y-67900000D03*
%TD*%
D15*
%TO.C,R_OPENB*%
X21290000Y-90400000D03*
X22310000Y-90400000D03*
%TD*%
D19*
%TO.C,C_EFIN*%
X58920000Y-63200000D03*
X59880000Y-63200000D03*
%TD*%
D36*
%TO.C,J_ESTOP*%
X194600000Y-71880000D03*
X194600000Y-70880000D03*
X194600000Y-69880000D03*
D37*
X198475000Y-73180000D03*
X198475000Y-68580000D03*
%TD*%
D15*
%TO.C,R_MCUENPD*%
X102490000Y-88000000D03*
X103510000Y-88000000D03*
%TD*%
D19*
%TO.C,C_FLT5*%
X51520000Y-87000000D03*
X52480000Y-87000000D03*
%TD*%
D15*
%TO.C,R_OVT*%
X65490000Y-58000000D03*
X66510000Y-58000000D03*
%TD*%
%TO.C,R_REF1*%
X55690000Y-79800000D03*
X56710000Y-79800000D03*
%TD*%
D25*
%TO.C,Q_SWDRVRHE*%
X176062500Y-94950000D03*
X176062500Y-96850000D03*
X177937500Y-95900000D03*
%TD*%
D19*
%TO.C,C_FLT6*%
X58320000Y-88400000D03*
X59280000Y-88400000D03*
%TD*%
D21*
%TO.C,D_REVCLAMP*%
X38000000Y-64000000D03*
X42000000Y-64000000D03*
%TD*%
D16*
%TO.C,U_LATCHA*%
X169162500Y-73350000D03*
X169162500Y-74000000D03*
X169162500Y-74650000D03*
X170837500Y-74650000D03*
X170837500Y-73350000D03*
%TD*%
D13*
%TO.C,J_RH_EXHAUST*%
X183500000Y-95150000D03*
X184750000Y-95150000D03*
X186000000Y-95150000D03*
X187250000Y-95150000D03*
X188500000Y-95150000D03*
D14*
X181650000Y-98350000D03*
X190350000Y-98350000D03*
%TD*%
D25*
%TO.C,Q_COIL*%
X181062500Y-79050000D03*
X181062500Y-80950000D03*
X182937500Y-80000000D03*
%TD*%
D15*
%TO.C,R_REARMPU*%
X121490000Y-91500000D03*
X122510000Y-91500000D03*
%TD*%
D19*
%TO.C,C_AND3*%
X183020000Y-70600000D03*
X183980000Y-70600000D03*
%TD*%
D15*
%TO.C,R_RAENRHAPD*%
X124490000Y-91500000D03*
X125510000Y-91500000D03*
%TD*%
%TO.C,R_RAENBPD*%
X127490000Y-89000000D03*
X128510000Y-89000000D03*
%TD*%
%TO.C,R_SWPURHA*%
X164990000Y-92600000D03*
X166010000Y-92600000D03*
%TD*%
%TO.C,R_ESTOPPD*%
X195290000Y-66400000D03*
X196310000Y-66400000D03*
%TD*%
D19*
%TO.C,C_CAND1*%
X172220000Y-84600000D03*
X173180000Y-84600000D03*
%TD*%
%TO.C,C_DECU*%
X79020000Y-66000000D03*
X79980000Y-66000000D03*
%TD*%
D18*
%TO.C,U_SCHM*%
X171525000Y-56190000D03*
X171525000Y-57460000D03*
X171525000Y-58730000D03*
X171525000Y-60000000D03*
X171525000Y-61270000D03*
X171525000Y-62540000D03*
X171525000Y-63810000D03*
X176475000Y-63810000D03*
X176475000Y-62540000D03*
X176475000Y-61270000D03*
X176475000Y-60000000D03*
X176475000Y-58730000D03*
X176475000Y-57460000D03*
X176475000Y-56190000D03*
%TD*%
D12*
%TO.C,U_WD*%
X150862500Y-79050000D03*
X150862500Y-80000000D03*
X150862500Y-80950000D03*
X153137500Y-80950000D03*
X153137500Y-79050000D03*
%TD*%
D19*
%TO.C,C_TCNA*%
X64720000Y-73100000D03*
X65680000Y-73100000D03*
%TD*%
D15*
%TO.C,R_CLMPA*%
X28990000Y-80000000D03*
X30010000Y-80000000D03*
%TD*%
%TO.C,R_TCN*%
X67990000Y-77000000D03*
X69010000Y-77000000D03*
%TD*%
D17*
%TO.C,R_TH1*%
X28637500Y-74900000D03*
X31562500Y-74900000D03*
%TD*%
D15*
%TO.C,R_WDOKPD*%
X150780000Y-82660000D03*
X151800000Y-82660000D03*
%TD*%
%TO.C,R_STOPREQNPD*%
X126010000Y-74930000D03*
X127030000Y-74930000D03*
%TD*%
%TO.C,R_STOPPD*%
X146490000Y-92000000D03*
X147510000Y-92000000D03*
%TD*%
D31*
%TO.C,C_IN2*%
X52225000Y-55000000D03*
X53775000Y-55000000D03*
%TD*%
D15*
%TO.C,R_WDPETPD*%
X155090000Y-80950000D03*
X156110000Y-80950000D03*
%TD*%
D19*
%TO.C,C_DVDT*%
X56520000Y-60000000D03*
X57480000Y-60000000D03*
%TD*%
D31*
%TO.C,C_SWA*%
X29725000Y-91000000D03*
X31275000Y-91000000D03*
%TD*%
D19*
%TO.C,C_TCPA*%
X70020000Y-84000000D03*
X70980000Y-84000000D03*
%TD*%
%TO.C,C_FLT3*%
X55720000Y-84800000D03*
X56680000Y-84800000D03*
%TD*%
D15*
%TO.C,R_REF5*%
X50690000Y-80600000D03*
X51710000Y-80600000D03*
%TD*%
D38*
%TO.C,U_LDO*%
X18850000Y-67700000D03*
X18850000Y-70000000D03*
X18850000Y-72300000D03*
D39*
X25150000Y-70000000D03*
%TD*%
D19*
%TO.C,C_OSCLR*%
X148920000Y-68300000D03*
X149880000Y-68300000D03*
%TD*%
D12*
%TO.C,U_OSCLR*%
X144562500Y-68550000D03*
X144562500Y-69500000D03*
X144562500Y-70450000D03*
X146837500Y-70450000D03*
X146837500Y-69500000D03*
X146837500Y-68550000D03*
%TD*%
D18*
%TO.C,U_DECD*%
X117525000Y-61555000D03*
X117525000Y-62825000D03*
X117525000Y-64095000D03*
X117525000Y-65365000D03*
X117525000Y-66635000D03*
X117525000Y-67905000D03*
X117525000Y-69175000D03*
X117525000Y-70445000D03*
X122475000Y-70445000D03*
X122475000Y-69175000D03*
X122475000Y-67905000D03*
X122475000Y-66635000D03*
X122475000Y-65365000D03*
X122475000Y-64095000D03*
X122475000Y-62825000D03*
X122475000Y-61555000D03*
%TD*%
D19*
%TO.C,C_COMP2*%
X24220000Y-90400000D03*
X25180000Y-90400000D03*
%TD*%
%TO.C,C_FLT0*%
X55720000Y-89200000D03*
X56680000Y-89200000D03*
%TD*%
D15*
%TO.C,R_COILENS*%
X190700000Y-61600000D03*
X191720000Y-61600000D03*
%TD*%
%TO.C,R_SER6*%
X48390000Y-84200000D03*
X49410000Y-84200000D03*
%TD*%
%TO.C,R_CTRREQPD*%
X121490000Y-89000000D03*
X122510000Y-89000000D03*
%TD*%
%TO.C,R_SWPUB*%
X46990000Y-92600000D03*
X48010000Y-92600000D03*
%TD*%
%TO.C,R_HYS1*%
X17990000Y-80000000D03*
X19010000Y-80000000D03*
%TD*%
D25*
%TO.C,Q_STOPDRV*%
X139062500Y-57550000D03*
X139062500Y-59450000D03*
X140937500Y-58500000D03*
%TD*%
D17*
%TO.C,R_KEY*%
X168537500Y-16000000D03*
X171462500Y-16000000D03*
%TD*%
D25*
%TO.C,Q_SWDRVB*%
X49562500Y-89050000D03*
X49562500Y-90950000D03*
X51437500Y-90000000D03*
%TD*%
D19*
%TO.C,C_TCAV*%
X63220000Y-80900000D03*
X64180000Y-80900000D03*
%TD*%
%TO.C,C_CAND2*%
X176020000Y-87300000D03*
X176980000Y-87300000D03*
%TD*%
D15*
%TO.C,R_FLCPD*%
X180970000Y-72070000D03*
X181990000Y-72070000D03*
%TD*%
D16*
%TO.C,U_LATCHB*%
X181162500Y-73350000D03*
X181162500Y-74000000D03*
X181162500Y-74650000D03*
X182837500Y-74650000D03*
X182837500Y-73350000D03*
%TD*%
D15*
%TO.C,R_WDOKSER*%
X132490000Y-82325000D03*
X133510000Y-82325000D03*
%TD*%
%TO.C,R_SWPURHE*%
X172190000Y-91200000D03*
X173210000Y-91200000D03*
%TD*%
%TO.C,R_SER5*%
X60590000Y-84200000D03*
X61610000Y-84200000D03*
%TD*%
D23*
%TO.C,C_3V3A1*%
X39050000Y-68000000D03*
X40950000Y-68000000D03*
%TD*%
D19*
%TO.C,C_FAULTAND*%
X159020000Y-76600000D03*
X159980000Y-76600000D03*
%TD*%
D12*
%TO.C,U_CAND1*%
X175162500Y-81550000D03*
X175162500Y-82500000D03*
X175162500Y-83450000D03*
X177437500Y-83450000D03*
X177437500Y-82500000D03*
X177437500Y-81550000D03*
%TD*%
D23*
%TO.C,C_STOPR*%
X187050000Y-71500000D03*
X188950000Y-71500000D03*
%TD*%
D15*
%TO.C,R_CLMPB*%
X18290000Y-81900000D03*
X19310000Y-81900000D03*
%TD*%
D24*
%TO.C,D_LCCLK*%
X152950000Y-91000000D03*
X155050000Y-91000000D03*
%TD*%
D15*
%TO.C,R_KRSTPD*%
X105490000Y-88000000D03*
X106510000Y-88000000D03*
%TD*%
%TO.C,R_LCCLK*%
X145290000Y-90600000D03*
X146310000Y-90600000D03*
%TD*%
D12*
%TO.C,U_FAULTAND*%
X156862500Y-73050000D03*
X156862500Y-74000000D03*
X156862500Y-74950000D03*
X159137500Y-74950000D03*
X159137500Y-74000000D03*
X159137500Y-73050000D03*
%TD*%
D13*
%TO.C,J_THERM_B*%
X49625000Y-95150000D03*
X50875000Y-95150000D03*
X52125000Y-95150000D03*
X53375000Y-95150000D03*
X54625000Y-95150000D03*
X55875000Y-95150000D03*
X57125000Y-95150000D03*
X58375000Y-95150000D03*
D14*
X47775000Y-98350000D03*
X60225000Y-98350000D03*
%TD*%
D15*
%TO.C,R_LCDAT*%
X149490000Y-91000000D03*
X150510000Y-91000000D03*
%TD*%
D19*
%TO.C,C_EXP*%
X146020000Y-82000000D03*
X146980000Y-82000000D03*
%TD*%
D15*
%TO.C,R_DECDPD*%
X114290000Y-64099999D03*
X115310000Y-64099999D03*
%TD*%
D19*
%TO.C,C_FLT1*%
X53320000Y-89200000D03*
X54280000Y-89200000D03*
%TD*%
D31*
%TO.C,C_ULNB*%
X185225000Y-67500000D03*
X186775000Y-67500000D03*
%TD*%
D15*
%TO.C,R_REF2*%
X57490000Y-82000000D03*
X58510000Y-82000000D03*
%TD*%
D20*
%TO.C,R_OPTOLED*%
X183375000Y-85600000D03*
X185025000Y-85600000D03*
%TD*%
D19*
%TO.C,C_DECUEN*%
X83020000Y-63000000D03*
X83980000Y-63000000D03*
%TD*%
D15*
%TO.C,R_BID1*%
X121490000Y-86500000D03*
X122510000Y-86500000D03*
%TD*%
%TO.C,R_HYS2*%
X18290000Y-78100000D03*
X19310000Y-78100000D03*
%TD*%
D24*
%TO.C,D_ESTOP*%
X194650000Y-75800000D03*
X196750000Y-75800000D03*
%TD*%
D15*
%TO.C,R_SWPUA*%
X32990000Y-88000000D03*
X34010000Y-88000000D03*
%TD*%
D19*
%TO.C,C_WD*%
X153420000Y-75800000D03*
X154380000Y-75800000D03*
%TD*%
%TO.C,C_COMP*%
X25720000Y-76100000D03*
X26680000Y-76100000D03*
%TD*%
D15*
%TO.C,R_ILM*%
X66490000Y-61000000D03*
X67510000Y-61000000D03*
%TD*%
%TO.C,R_SER0*%
X58290000Y-85200000D03*
X59310000Y-85200000D03*
%TD*%
D12*
%TO.C,U_DECDEN*%
X125362500Y-64550000D03*
X125362500Y-65500000D03*
X125362500Y-66450000D03*
X127637500Y-66450000D03*
X127637500Y-65500000D03*
X127637500Y-64550000D03*
%TD*%
D15*
%TO.C,R_SER1*%
X50690000Y-85200000D03*
X51710000Y-85200000D03*
%TD*%
D23*
%TO.C,C_LDOOUT*%
X28050000Y-70000000D03*
X29950000Y-70000000D03*
%TD*%
D15*
%TO.C,R_REF3*%
X51690000Y-83000000D03*
X52710000Y-83000000D03*
%TD*%
%TO.C,R_MR*%
X150990000Y-77000000D03*
X152010000Y-77000000D03*
%TD*%
D25*
%TO.C,Q_SWB*%
X45062500Y-89050000D03*
X45062500Y-90950000D03*
X46937500Y-90000000D03*
%TD*%
D23*
%TO.C,C_KR*%
X181650000Y-83400000D03*
X183550000Y-83400000D03*
%TD*%
D19*
%TO.C,C_LATCHA*%
X170720000Y-76200000D03*
X171680000Y-76200000D03*
%TD*%
D31*
%TO.C,C_SWRHE*%
X175725000Y-93000000D03*
X177275000Y-93000000D03*
%TD*%
D12*
%TO.C,U_AND3*%
X180862500Y-67050000D03*
X180862500Y-68000000D03*
X180862500Y-68950000D03*
X183137500Y-68950000D03*
X183137500Y-68000000D03*
X183137500Y-67050000D03*
%TD*%
D31*
%TO.C,C_3V3A2*%
X47025000Y-71200000D03*
X48575000Y-71200000D03*
%TD*%
D40*
%TO.C,J_PWR*%
X20500000Y-63135000D03*
X23500000Y-63135000D03*
D41*
X16615000Y-59715000D03*
X27385000Y-59715000D03*
%TD*%
D15*
%TO.C,R_REF0*%
X53290000Y-79800000D03*
X54310000Y-79800000D03*
%TD*%
D42*
%TO.C,R_DECUPD*%
X76260000Y-57500000D03*
X75240000Y-57500000D03*
%TD*%
D19*
%TO.C,C_LATCHG*%
X105020000Y-71000000D03*
X105980000Y-71000000D03*
%TD*%
D43*
%TO.C,FB1*%
X31937500Y-70000000D03*
X34062500Y-70000000D03*
%TD*%
D25*
%TO.C,Q_SWDRVA*%
X29762500Y-83150000D03*
X29762500Y-85050000D03*
X31637500Y-84100000D03*
%TD*%
D12*
%TO.C,U_AND1*%
X156862500Y-67050000D03*
X156862500Y-68000000D03*
X156862500Y-68950000D03*
X159137500Y-68950000D03*
X159137500Y-68000000D03*
X159137500Y-67050000D03*
%TD*%
D15*
%TO.C,R_RAENAPD*%
X124490000Y-89000000D03*
X125510000Y-89000000D03*
%TD*%
%TO.C,R_MODEHWPD*%
X174450000Y-65420000D03*
X175470000Y-65420000D03*
%TD*%
%TO.C,R_BID0*%
X124490000Y-84000000D03*
X125510000Y-84000000D03*
%TD*%
D12*
%TO.C,U_AND2*%
X168862500Y-67050000D03*
X168862500Y-68000000D03*
X168862500Y-68950000D03*
X171137500Y-68950000D03*
X171137500Y-68000000D03*
X171137500Y-67050000D03*
%TD*%
D16*
%TO.C,U_OENAND*%
X159162500Y-79350000D03*
X159162500Y-80000000D03*
X159162500Y-80650000D03*
X160837500Y-80650000D03*
X160837500Y-79350000D03*
%TD*%
D44*
%TO.C,U_EFUSE*%
X60000000Y-56600000D03*
X60000000Y-57400000D03*
D45*
X59050000Y-56250000D03*
X59050000Y-56750000D03*
X59050000Y-57250000D03*
X59050000Y-57750000D03*
X60950000Y-57750000D03*
X60950000Y-57250000D03*
X60950000Y-56750000D03*
X60950000Y-56250000D03*
%TD*%
D15*
%TO.C,R_FSETNPD*%
X156780000Y-76660000D03*
X157800000Y-76660000D03*
%TD*%
D25*
%TO.C,Q_SWDRVRHA*%
X167562500Y-89050000D03*
X167562500Y-90950000D03*
X169437500Y-90000000D03*
%TD*%
D15*
%TO.C,R_SDAB*%
X55990000Y-92700000D03*
X57010000Y-92700000D03*
%TD*%
%TO.C,R_MODEPD*%
X190700000Y-63900000D03*
X191720000Y-63900000D03*
%TD*%
%TO.C,R_COILENPD*%
X190700000Y-59300000D03*
X191720000Y-59300000D03*
%TD*%
%TO.C,R_MODEHWSER*%
X108390000Y-69600000D03*
X109410000Y-69600000D03*
%TD*%
%TO.C,R_SDAA*%
X33990000Y-92700000D03*
X35010000Y-92700000D03*
%TD*%
%TO.C,R_RAENRHEPD*%
X127490000Y-91500000D03*
X128510000Y-91500000D03*
%TD*%
D25*
%TO.C,Q_SWA*%
X29062500Y-87050000D03*
X29062500Y-88950000D03*
X30937500Y-88000000D03*
%TD*%
D46*
%TO.C,Q_REV*%
X49937500Y-58950000D03*
X49937500Y-57050000D03*
X48062500Y-58000000D03*
%TD*%
D15*
%TO.C,R_REF6*%
X53790000Y-78100000D03*
X54810000Y-78100000D03*
%TD*%
M02*
