%TF.GenerationSoftware,KiCad,Pcbnew,10.0.4-10.0.4~ubuntu24.04.1*%
%TF.CreationDate,2026-07-29T22:45:10-07:00*%
%TF.ProjectId,cooksense,636f6f6b-7365-46e7-9365-2e6b69636164,rev?*%
%TF.SameCoordinates,Original*%
%TF.FileFunction,Soldermask,Bot*%
%TF.FilePolarity,Negative*%
%FSLAX46Y46*%
G04 Gerber Fmt 4.6, Leading zero omitted, Abs format (unit mm)*
G04 Created by KiCad (PCBNEW 10.0.4-10.0.4~ubuntu24.04.1) date 2026-07-29 22:45:10*
%MOMM*%
%LPD*%
G01*
G04 APERTURE LIST*
G04 Aperture macros list*
%AMRoundRect*
0 Rectangle with rounded corners*
0 $1 Rounding radius*
0 $2 $3 $4 $5 $6 $7 $8 $9 X,Y pos of 4 corners*
0 Add a 4 corners polygon primitive as box body*
4,1,4,$2,$3,$4,$5,$6,$7,$8,$9,$2,$3,0*
0 Add four circle primitives for the rounded corners*
1,1,$1+$1,$2,$3*
1,1,$1+$1,$4,$5*
1,1,$1+$1,$6,$7*
1,1,$1+$1,$8,$9*
0 Add four rect primitives between the rounded corners*
20,1,$1+$1,$2,$3,$4,$5,0*
20,1,$1+$1,$4,$5,$6,$7,0*
20,1,$1+$1,$6,$7,$8,$9,0*
20,1,$1+$1,$8,$9,$2,$3,0*%
G04 Aperture macros list end*
%ADD10R,1.500000X1.500000*%
%ADD11C,1.500000*%
%ADD12C,2.700000*%
%ADD13R,1.700000X1.700000*%
%ADD14C,1.700000*%
%ADD15RoundRect,0.250000X-0.600000X-0.725000X0.600000X-0.725000X0.600000X0.725000X-0.600000X0.725000X0*%
%ADD16O,1.700000X1.950000*%
%ADD17R,2.200000X2.200000*%
%ADD18C,2.200000*%
%ADD19C,1.770000*%
%ADD20R,2.800000X2.800000*%
%ADD21C,2.800000*%
%ADD22C,0.350000*%
G04 APERTURE END LIST*
D10*
%TO.C,K_D3*%
X151730000Y-43080000D03*
D11*
X151730000Y-32920000D03*
X144110000Y-30380000D03*
X144110000Y-45620000D03*
%TD*%
D12*
%TO.C,H4*%
X193000000Y-52000000D03*
%TD*%
%TO.C,H3*%
X17000000Y-90000000D03*
%TD*%
D13*
%TO.C,J_PI*%
X94000000Y-95000000D03*
D14*
X94000000Y-97540000D03*
X96540000Y-95000000D03*
X96540000Y-97540000D03*
X99080000Y-95000000D03*
X99080000Y-97540000D03*
X101620000Y-95000000D03*
X101620000Y-97540000D03*
X104160000Y-95000000D03*
X104160000Y-97540000D03*
X106700000Y-95000000D03*
X106700000Y-97540000D03*
X109240000Y-95000000D03*
X109240000Y-97540000D03*
X111780000Y-95000000D03*
X111780000Y-97540000D03*
X114320000Y-95000000D03*
X114320000Y-97540000D03*
X116860000Y-95000000D03*
X116860000Y-97540000D03*
X119400000Y-95000000D03*
X119400000Y-97540000D03*
X121940000Y-95000000D03*
X121940000Y-97540000D03*
X124480000Y-95000000D03*
X124480000Y-97540000D03*
X127020000Y-95000000D03*
X127020000Y-97540000D03*
X129560000Y-95000000D03*
X129560000Y-97540000D03*
X132100000Y-95000000D03*
X132100000Y-97540000D03*
X134640000Y-95000000D03*
X134640000Y-97540000D03*
X137180000Y-95000000D03*
X137180000Y-97540000D03*
X139720000Y-95000000D03*
X139720000Y-97540000D03*
X142260000Y-95000000D03*
X142260000Y-97540000D03*
%TD*%
D15*
%TO.C,J_LOADCELL*%
X148000000Y-97000000D03*
D16*
X150500000Y-97000000D03*
X153000000Y-97000000D03*
X155500000Y-97000000D03*
X158000000Y-97000000D03*
%TD*%
D10*
%TO.C,K_STOP*%
X189830000Y-32920000D03*
D11*
X189830000Y-43080000D03*
X197450000Y-45620000D03*
X197450000Y-30380000D03*
%TD*%
D10*
%TO.C,K_U6*%
X98390000Y-32920000D03*
D11*
X98390000Y-43080000D03*
X106010000Y-45620000D03*
X106010000Y-30380000D03*
%TD*%
D10*
%TO.C,K_D4*%
X159350000Y-32920000D03*
D11*
X159350000Y-43080000D03*
X166970000Y-45620000D03*
X166970000Y-30380000D03*
%TD*%
D10*
%TO.C,K_D2*%
X128870000Y-32920000D03*
D11*
X128870000Y-43080000D03*
X136490000Y-45620000D03*
X136490000Y-30380000D03*
%TD*%
D10*
%TO.C,K_D1*%
X121250000Y-43080000D03*
D11*
X121250000Y-32920000D03*
X113630000Y-30380000D03*
X113630000Y-45620000D03*
%TD*%
D17*
%TO.C,J_ISOLOOP*%
X195300000Y-100250000D03*
D18*
X195300000Y-96750000D03*
X195300000Y-93250000D03*
X195300000Y-89750000D03*
%TD*%
D10*
%TO.C,K_U5*%
X90770000Y-43080000D03*
D11*
X90770000Y-32920000D03*
X83150000Y-30380000D03*
X83150000Y-45620000D03*
%TD*%
D10*
%TO.C,K_PRESS*%
X182210000Y-43080000D03*
D11*
X182210000Y-32920000D03*
X174590000Y-30380000D03*
X174590000Y-45620000D03*
%TD*%
D10*
%TO.C,K_U2*%
X37430000Y-32920000D03*
D11*
X37430000Y-43080000D03*
X45050000Y-45620000D03*
X45050000Y-30380000D03*
%TD*%
D10*
%TO.C,K_U3*%
X60290000Y-43080000D03*
D11*
X60290000Y-32920000D03*
X52670000Y-30380000D03*
X52670000Y-45620000D03*
%TD*%
D12*
%TO.C,H2*%
X194000000Y-14000000D03*
%TD*%
D10*
%TO.C,K_U4*%
X67910000Y-32920000D03*
D11*
X67910000Y-43080000D03*
X75530000Y-45620000D03*
X75530000Y-30380000D03*
%TD*%
D12*
%TO.C,H1*%
X24000000Y-14000000D03*
%TD*%
D19*
%TO.C,J_TC*%
X66150000Y-89200000D03*
X81850000Y-89200000D03*
D20*
X70040000Y-96000000D03*
D21*
X77960000Y-96000000D03*
%TD*%
D10*
%TO.C,K_U1*%
X29810000Y-43080000D03*
D11*
X29810000Y-32920000D03*
X22190000Y-30380000D03*
X22190000Y-45620000D03*
%TD*%
D22*
X151730000Y-43080000D03*
X151730000Y-32920000D03*
X144110000Y-30380000D03*
X144110000Y-45620000D03*
X193000000Y-52000000D03*
X17000000Y-90000000D03*
X94000000Y-95000000D03*
X94000000Y-97540000D03*
X96540000Y-95000000D03*
X96540000Y-97540000D03*
X99080000Y-95000000D03*
X99080000Y-97540000D03*
X101620000Y-95000000D03*
X101620000Y-97540000D03*
X104160000Y-95000000D03*
X104160000Y-97540000D03*
X106700000Y-95000000D03*
X106700000Y-97540000D03*
X109240000Y-95000000D03*
X109240000Y-97540000D03*
X111780000Y-95000000D03*
X111780000Y-97540000D03*
X114320000Y-95000000D03*
X114320000Y-97540000D03*
X116860000Y-95000000D03*
X116860000Y-97540000D03*
X119400000Y-95000000D03*
X119400000Y-97540000D03*
X121940000Y-95000000D03*
X121940000Y-97540000D03*
X124480000Y-95000000D03*
X124480000Y-97540000D03*
X127020000Y-95000000D03*
X127020000Y-97540000D03*
X129560000Y-95000000D03*
X129560000Y-97540000D03*
X132100000Y-95000000D03*
X132100000Y-97540000D03*
X134640000Y-95000000D03*
X134640000Y-97540000D03*
X137180000Y-95000000D03*
X137180000Y-97540000D03*
X139720000Y-95000000D03*
X139720000Y-97540000D03*
X142260000Y-95000000D03*
X142260000Y-97540000D03*
X148000000Y-97000000D03*
X150500000Y-97000000D03*
X153000000Y-97000000D03*
X155500000Y-97000000D03*
X158000000Y-97000000D03*
X189830000Y-32920000D03*
X189830000Y-43080000D03*
X197450000Y-45620000D03*
X197450000Y-30380000D03*
X98390000Y-32920000D03*
X98390000Y-43080000D03*
X106010000Y-45620000D03*
X106010000Y-30380000D03*
X159350000Y-32920000D03*
X159350000Y-43080000D03*
X166970000Y-45620000D03*
X166970000Y-30380000D03*
X128870000Y-32920000D03*
X128870000Y-43080000D03*
X136490000Y-45620000D03*
X136490000Y-30380000D03*
X121250000Y-43080000D03*
X121250000Y-32920000D03*
X113630000Y-30380000D03*
X113630000Y-45620000D03*
X195300000Y-100250000D03*
X195300000Y-96750000D03*
X195300000Y-93250000D03*
X195300000Y-89750000D03*
X90770000Y-43080000D03*
X90770000Y-32920000D03*
X83150000Y-30380000D03*
X83150000Y-45620000D03*
X182210000Y-43080000D03*
X182210000Y-32920000D03*
X174590000Y-30380000D03*
X174590000Y-45620000D03*
X37430000Y-32920000D03*
X37430000Y-43080000D03*
X45050000Y-45620000D03*
X45050000Y-30380000D03*
X60290000Y-43080000D03*
X60290000Y-32920000D03*
X52670000Y-30380000D03*
X52670000Y-45620000D03*
X194000000Y-14000000D03*
X67910000Y-32920000D03*
X67910000Y-43080000D03*
X75530000Y-45620000D03*
X75530000Y-30380000D03*
X24000000Y-14000000D03*
X66150000Y-89200000D03*
X81850000Y-89200000D03*
X70040000Y-96000000D03*
X77960000Y-96000000D03*
X29810000Y-43080000D03*
X29810000Y-32920000D03*
X22190000Y-30380000D03*
X22190000Y-45620000D03*
M02*
