%TF.GenerationSoftware,KiCad,Pcbnew,10.0.4-10.0.4~ubuntu24.04.1*%
%TF.CreationDate,2026-08-01T17:24:00-07:00*%
%TF.ProjectId,programmable_usb2_hub,70726f67-7261-46d6-9d61-626c655f7573,rev?*%
%TF.SameCoordinates,Original*%
%TF.FileFunction,Soldermask,Top*%
%TF.FilePolarity,Negative*%
%FSLAX46Y46*%
G04 Gerber Fmt 4.6, Leading zero omitted, Abs format (unit mm)*
G04 Created by KiCad (PCBNEW 10.0.4-10.0.4~ubuntu24.04.1) date 2026-08-01 17:24:00*
%MOMM*%
%LPD*%
G01*
G04 APERTURE LIST*
G04 Aperture macros list*
%AMRoundRect*
0 Rectangle with rounded corners*
0 $1 Rounding radius*
0 $2 $3 $4 $5 $6 $7 $8 $9 X,Y pos of 4 corners*
0 Add a 4 corners polygon primitive as box body*
4,1,4,$2,$3,$4,$5,$6,$7,$8,$9,$2,$3,0*
0 Add four circle primitives for the rounded corners*
1,1,$1+$1,$2,$3*
1,1,$1+$1,$4,$5*
1,1,$1+$1,$6,$7*
1,1,$1+$1,$8,$9*
0 Add four rect primitives between the rounded corners*
20,1,$1+$1,$2,$3,$4,$5,0*
20,1,$1+$1,$4,$5,$6,$7,0*
20,1,$1+$1,$6,$7,$8,$9,0*
20,1,$1+$1,$8,$9,$2,$3,0*%
%AMFreePoly0*
4,1,17,2.675000,1.605000,1.875000,1.605000,1.875000,0.935000,2.675000,0.935000,2.675000,0.335000,1.875000,0.335000,1.875000,-0.335000,2.675000,-0.335000,2.675000,-0.935000,1.875000,-0.935000,1.875000,-1.605000,2.675000,-1.605000,2.675000,-2.205000,-1.875000,-2.205000,-1.875000,2.205000,2.675000,2.205000,2.675000,1.605000,2.675000,1.605000,$1*%
G04 Aperture macros list end*
%ADD10R,0.550000X0.500000*%
%ADD11R,4.120000X4.600000*%
%ADD12R,0.650000X0.500000*%
%ADD13RoundRect,0.087500X-0.662500X-0.087500X0.662500X-0.087500X0.662500X0.087500X-0.662500X0.087500X0*%
%ADD14RoundRect,0.050000X-0.250000X-0.075000X0.250000X-0.075000X0.250000X0.075000X-0.250000X0.075000X0*%
%ADD15RoundRect,0.045000X-0.255000X-0.067500X0.255000X-0.067500X0.255000X0.067500X-0.255000X0.067500X0*%
%ADD16RoundRect,0.060000X-0.240000X-0.090000X0.240000X-0.090000X0.240000X0.090000X-0.240000X0.090000X0*%
%ADD17C,0.250000*%
%ADD18RoundRect,0.060000X-0.090000X-0.815000X0.090000X-0.815000X0.090000X0.815000X-0.090000X0.815000X0*%
%ADD19RoundRect,0.200000X-0.200000X-0.275000X0.200000X-0.275000X0.200000X0.275000X-0.200000X0.275000X0*%
%ADD20RoundRect,0.250000X-0.325000X-1.100000X0.325000X-1.100000X0.325000X1.100000X-0.325000X1.100000X0*%
%ADD21RoundRect,0.225000X0.225000X0.250000X-0.225000X0.250000X-0.225000X-0.250000X0.225000X-0.250000X0*%
%ADD22RoundRect,0.225000X-0.225000X-0.250000X0.225000X-0.250000X0.225000X0.250000X-0.225000X0.250000X0*%
%ADD23RoundRect,0.050000X-0.387500X-0.050000X0.387500X-0.050000X0.387500X0.050000X-0.387500X0.050000X0*%
%ADD24RoundRect,0.050000X-0.050000X-0.387500X0.050000X-0.387500X0.050000X0.387500X-0.050000X0.387500X0*%
%ADD25R,4.700000X4.700000*%
%ADD26RoundRect,0.250000X-0.325000X-0.650000X0.325000X-0.650000X0.325000X0.650000X-0.325000X0.650000X0*%
%ADD27C,2.000000*%
%ADD28RoundRect,0.200000X0.275000X-0.200000X0.275000X0.200000X-0.275000X0.200000X-0.275000X-0.200000X0*%
%ADD29RoundRect,0.250000X2.500000X-1.375000X2.500000X1.375000X-2.500000X1.375000X-2.500000X-1.375000X0*%
%ADD30RoundRect,0.250000X-0.250000X-0.475000X0.250000X-0.475000X0.250000X0.475000X-0.250000X0.475000X0*%
%ADD31R,1.750000X1.750000*%
%ADD32C,1.750000*%
%ADD33O,3.300000X3.300000*%
%ADD34RoundRect,0.225000X0.250000X-0.225000X0.250000X0.225000X-0.250000X0.225000X-0.250000X-0.225000X0*%
%ADD35RoundRect,0.250000X0.900000X-1.000000X0.900000X1.000000X-0.900000X1.000000X-0.900000X-1.000000X0*%
%ADD36RoundRect,0.475000X-0.475000X-2.075000X0.475000X-2.075000X0.475000X2.075000X-0.475000X2.075000X0*%
%ADD37C,3.200000*%
%ADD38RoundRect,0.200000X0.200000X0.275000X-0.200000X0.275000X-0.200000X-0.275000X0.200000X-0.275000X0*%
%ADD39R,1.000000X1.000000*%
%ADD40C,1.000000*%
%ADD41RoundRect,0.100000X-0.637500X-0.100000X0.637500X-0.100000X0.637500X0.100000X-0.637500X0.100000X0*%
%ADD42RoundRect,0.250000X-1.000000X-0.650000X1.000000X-0.650000X1.000000X0.650000X-1.000000X0.650000X0*%
%ADD43RoundRect,0.062500X-0.375000X-0.062500X0.375000X-0.062500X0.375000X0.062500X-0.375000X0.062500X0*%
%ADD44R,1.500000X2.500000*%
%ADD45RoundRect,0.150000X-0.512500X-0.150000X0.512500X-0.150000X0.512500X0.150000X-0.512500X0.150000X0*%
%ADD46FreePoly0,0.000000*%
%ADD47RoundRect,0.125000X-0.300000X-0.125000X0.300000X-0.125000X0.300000X0.125000X-0.300000X0.125000X0*%
%ADD48R,2.750000X3.430000*%
%ADD49RoundRect,0.100000X-0.687500X-0.100000X0.687500X-0.100000X0.687500X0.100000X-0.687500X0.100000X0*%
%ADD50RoundRect,0.225000X-0.250000X0.225000X-0.250000X-0.225000X0.250000X-0.225000X0.250000X0.225000X0*%
%ADD51RoundRect,0.250000X0.325000X0.650000X-0.325000X0.650000X-0.325000X-0.650000X0.325000X-0.650000X0*%
%ADD52RoundRect,0.112500X-0.187500X-0.112500X0.187500X-0.112500X0.187500X0.112500X-0.187500X0.112500X0*%
%ADD53C,2.780000*%
%ADD54RoundRect,0.250000X-0.312500X-0.625000X0.312500X-0.625000X0.312500X0.625000X-0.312500X0.625000X0*%
%ADD55RoundRect,0.250000X-0.362500X-1.425000X0.362500X-1.425000X0.362500X1.425000X-0.362500X1.425000X0*%
%ADD56RoundRect,0.250000X-0.450000X-0.350000X0.450000X-0.350000X0.450000X0.350000X-0.450000X0.350000X0*%
%ADD57RoundRect,0.150000X0.150000X-0.512500X0.150000X0.512500X-0.150000X0.512500X-0.150000X-0.512500X0*%
%ADD58RoundRect,0.075000X-0.662500X-0.075000X0.662500X-0.075000X0.662500X0.075000X-0.662500X0.075000X0*%
%ADD59RoundRect,0.075000X-0.075000X-0.662500X0.075000X-0.662500X0.075000X0.662500X-0.075000X0.662500X0*%
%ADD60RoundRect,0.200000X-0.275000X0.200000X-0.275000X-0.200000X0.275000X-0.200000X0.275000X0.200000X0*%
%ADD61R,3.000000X3.000000*%
%ADD62C,3.000000*%
%ADD63FreePoly0,180.000000*%
%ADD64RoundRect,0.125000X0.300000X0.125000X-0.300000X0.125000X-0.300000X-0.125000X0.300000X-0.125000X0*%
%ADD65R,1.700000X1.700000*%
%ADD66C,1.700000*%
%ADD67O,3.500000X3.500000*%
%ADD68C,0.150000*%
%ADD69C,0.350000*%
G04 APERTURE END LIST*
D10*
%TO.C,Q3*%
X84200000Y-85095000D03*
X84200000Y-86365000D03*
X84200000Y-87635000D03*
X84200000Y-88905000D03*
D11*
X87460000Y-87000000D03*
D12*
X89750000Y-88905000D03*
X89750000Y-87635000D03*
X89750000Y-86365000D03*
X89750000Y-85095000D03*
%TD*%
D13*
%TO.C,U14*%
X77900000Y-37000000D03*
X77900000Y-37500000D03*
X77900000Y-38000000D03*
X77900000Y-38500000D03*
X77900000Y-39000000D03*
X82100000Y-39000000D03*
X82100000Y-38500000D03*
X82100000Y-38000000D03*
X82100000Y-37500000D03*
X82100000Y-37000000D03*
%TD*%
D14*
%TO.C,U10*%
X79100000Y-44287500D03*
D15*
X79100000Y-44762500D03*
X79100000Y-45237500D03*
D16*
X79100000Y-45712500D03*
D17*
X79750000Y-44500000D03*
X79750000Y-44950000D03*
D18*
X79750000Y-45162500D03*
D17*
X79750000Y-45400000D03*
X79750000Y-45850000D03*
X80250000Y-44500000D03*
X80250000Y-44950000D03*
D18*
X80250000Y-45162500D03*
D17*
X80250000Y-45400000D03*
X80250000Y-45850000D03*
D16*
X80900000Y-45712500D03*
D15*
X80900000Y-45237500D03*
X80900000Y-44762500D03*
D14*
X80900000Y-44287500D03*
%TD*%
D19*
%TO.C,R445*%
X133075000Y-47900000D03*
X134725000Y-47900000D03*
%TD*%
D20*
%TO.C,C210*%
X135325000Y-80800000D03*
X138275000Y-80800000D03*
%TD*%
D10*
%TO.C,Q5*%
X116200000Y-85095000D03*
X116200000Y-86365000D03*
X116200000Y-87635000D03*
X116200000Y-88905000D03*
D11*
X119460000Y-87000000D03*
D12*
X121750000Y-88905000D03*
X121750000Y-87635000D03*
X121750000Y-86365000D03*
X121750000Y-85095000D03*
%TD*%
D21*
%TO.C,C32*%
X89775000Y-57250000D03*
X88225000Y-57250000D03*
%TD*%
D22*
%TO.C,C420*%
X83025000Y-42200000D03*
X84575000Y-42200000D03*
%TD*%
D23*
%TO.C,U6*%
X91587500Y-55250000D03*
X91587500Y-55750000D03*
X91587500Y-56250000D03*
X91587500Y-56750000D03*
X91587500Y-57250000D03*
X91587500Y-57750000D03*
X91587500Y-58250000D03*
X91587500Y-58750000D03*
X91587500Y-59250000D03*
X91587500Y-59750000D03*
X91587500Y-60250000D03*
X91587500Y-60750000D03*
X91587500Y-61250000D03*
X91587500Y-61750000D03*
X91587500Y-62250000D03*
X91587500Y-62750000D03*
D24*
X92250000Y-63412500D03*
X92750000Y-63412500D03*
X93250000Y-63412500D03*
X93750000Y-63412500D03*
X94250000Y-63412500D03*
X94750000Y-63412500D03*
X95250000Y-63412500D03*
X95750000Y-63412500D03*
X96250000Y-63412500D03*
X96750000Y-63412500D03*
X97250000Y-63412500D03*
X97750000Y-63412500D03*
X98250000Y-63412500D03*
X98750000Y-63412500D03*
X99250000Y-63412500D03*
X99750000Y-63412500D03*
D23*
X100412500Y-62750000D03*
X100412500Y-62250000D03*
X100412500Y-61750000D03*
X100412500Y-61250000D03*
X100412500Y-60750000D03*
X100412500Y-60250000D03*
X100412500Y-59750000D03*
X100412500Y-59250000D03*
X100412500Y-58750000D03*
X100412500Y-58250000D03*
X100412500Y-57750000D03*
X100412500Y-57250000D03*
X100412500Y-56750000D03*
X100412500Y-56250000D03*
X100412500Y-55750000D03*
X100412500Y-55250000D03*
D24*
X99750000Y-54587500D03*
X99250000Y-54587500D03*
X98750000Y-54587500D03*
X98250000Y-54587500D03*
X97750000Y-54587500D03*
X97250000Y-54587500D03*
X96750000Y-54587500D03*
X96250000Y-54587500D03*
X95750000Y-54587500D03*
X95250000Y-54587500D03*
X94750000Y-54587500D03*
X94250000Y-54587500D03*
X93750000Y-54587500D03*
X93250000Y-54587500D03*
X92750000Y-54587500D03*
X92250000Y-54587500D03*
D25*
X96000000Y-59000000D03*
%TD*%
D26*
%TO.C,C21*%
X65525000Y-85200000D03*
X68475000Y-85200000D03*
%TD*%
D27*
%TO.C,FID2*%
X146000000Y-28000000D03*
%TD*%
D22*
%TO.C,C104*%
X94025000Y-85600000D03*
X95575000Y-85600000D03*
%TD*%
D19*
%TO.C,R415*%
X41675000Y-41700000D03*
X43325000Y-41700000D03*
%TD*%
D28*
%TO.C,R422*%
X85500000Y-40625000D03*
X85500000Y-38975000D03*
%TD*%
D19*
%TO.C,R205*%
X124175000Y-84800000D03*
X125825000Y-84800000D03*
%TD*%
%TO.C,R207*%
X137975000Y-77300000D03*
X139625000Y-77300000D03*
%TD*%
D22*
%TO.C,C105*%
X96725000Y-100900000D03*
X98275000Y-100900000D03*
%TD*%
D29*
%TO.C,L2*%
X143000000Y-96625000D03*
X143000000Y-85375000D03*
%TD*%
D22*
%TO.C,C440*%
X138650000Y-42200000D03*
X140200000Y-42200000D03*
%TD*%
D10*
%TO.C,Q4*%
X85200000Y-94095000D03*
X85200000Y-95365000D03*
X85200000Y-96635000D03*
X85200000Y-97905000D03*
D11*
X88460000Y-96000000D03*
D12*
X90750000Y-97905000D03*
X90750000Y-96635000D03*
X90750000Y-95365000D03*
X90750000Y-94095000D03*
%TD*%
D30*
%TO.C,C116*%
X97450000Y-106300000D03*
X99350000Y-106300000D03*
%TD*%
D21*
%TO.C,C33*%
X89275000Y-59750000D03*
X87725000Y-59750000D03*
%TD*%
D19*
%TO.C,R31*%
X80675000Y-58800000D03*
X82325000Y-58800000D03*
%TD*%
%TO.C,R440*%
X129275000Y-34500000D03*
X130925000Y-34500000D03*
%TD*%
%TO.C,R105*%
X79675000Y-86900000D03*
X81325000Y-86900000D03*
%TD*%
D20*
%TO.C,C212*%
X130925000Y-106300000D03*
X133875000Y-106300000D03*
%TD*%
%TO.C,C209*%
X138525000Y-100900000D03*
X141475000Y-100900000D03*
%TD*%
D31*
%TO.C,J6*%
X133000000Y-21290000D03*
D32*
X135000000Y-21290000D03*
X137000000Y-21290000D03*
X139000000Y-21290000D03*
D33*
X132500000Y-24000000D03*
X139500000Y-24000000D03*
%TD*%
D34*
%TO.C,C39*%
X92250000Y-52475000D03*
X92250000Y-50925000D03*
%TD*%
D19*
%TO.C,R430*%
X103775000Y-34500000D03*
X105425000Y-34500000D03*
%TD*%
%TO.C,R209*%
X120175000Y-108100000D03*
X121825000Y-108100000D03*
%TD*%
D22*
%TO.C,C444*%
X131424999Y-44600000D03*
X132974999Y-44600000D03*
%TD*%
D19*
%TO.C,R432*%
X116675000Y-41700000D03*
X118325000Y-41700000D03*
%TD*%
%TO.C,R104*%
X87175000Y-78600000D03*
X88825000Y-78600000D03*
%TD*%
%TO.C,R438*%
X101175000Y-32299999D03*
X102825000Y-32299999D03*
%TD*%
D27*
%TO.C,FID1*%
X28000000Y-28000000D03*
%TD*%
D22*
%TO.C,C40*%
X76425000Y-61800000D03*
X77975000Y-61800000D03*
%TD*%
D20*
%TO.C,C213*%
X125925000Y-77700000D03*
X128875000Y-77700000D03*
%TD*%
D22*
%TO.C,C415*%
X43725000Y-39000000D03*
X45275000Y-39000000D03*
%TD*%
D13*
%TO.C,U15*%
X107900000Y-37000000D03*
X107900000Y-37500000D03*
X107900000Y-38000000D03*
X107900000Y-38500000D03*
X107900000Y-39000000D03*
X112100000Y-39000000D03*
X112100000Y-38500000D03*
X112100000Y-38000000D03*
X112100000Y-37500000D03*
X112100000Y-37000000D03*
%TD*%
D19*
%TO.C,R201*%
X121375000Y-105900000D03*
X123025000Y-105900000D03*
%TD*%
D35*
%TO.C,D1*%
X70000000Y-101150000D03*
X70000000Y-96850000D03*
%TD*%
D36*
%TO.C,L3*%
X72900000Y-82000000D03*
X77100000Y-82000000D03*
%TD*%
D28*
%TO.C,R434*%
X108750000Y-42825000D03*
X108750000Y-41175000D03*
%TD*%
D37*
%TO.C,H4*%
X146000000Y-106000000D03*
%TD*%
D22*
%TO.C,C37*%
X102625000Y-56250000D03*
X104175000Y-56250000D03*
%TD*%
D19*
%TO.C,R429*%
X91175000Y-39000000D03*
X92825000Y-39000000D03*
%TD*%
D38*
%TO.C,R444*%
X137150000Y-42250000D03*
X135500000Y-42250000D03*
%TD*%
D19*
%TO.C,R417*%
X41875000Y-45100000D03*
X43525000Y-45100000D03*
%TD*%
D20*
%TO.C,C443*%
X141025000Y-39000000D03*
X143975000Y-39000000D03*
%TD*%
D19*
%TO.C,R35*%
X85175000Y-66700000D03*
X86825000Y-66700000D03*
%TD*%
%TO.C,R441*%
X140075000Y-34500000D03*
X141725000Y-34500000D03*
%TD*%
D22*
%TO.C,C1*%
X62725000Y-90200000D03*
X64275000Y-90200000D03*
%TD*%
D19*
%TO.C,R36*%
X83475000Y-56600000D03*
X85125000Y-56600000D03*
%TD*%
D39*
%TO.C,J7*%
X25500000Y-70000000D03*
D40*
X25500000Y-68730000D03*
X26770000Y-70000000D03*
X26770000Y-68730000D03*
X28040000Y-70000000D03*
X28040000Y-68730000D03*
X29310000Y-70000000D03*
X29310000Y-68730000D03*
X30580000Y-70000000D03*
X30580000Y-68730000D03*
%TD*%
D34*
%TO.C,C31*%
X99400000Y-48475000D03*
X99400000Y-46925000D03*
%TD*%
D28*
%TO.C,R34*%
X82100000Y-71625000D03*
X82100000Y-69975000D03*
%TD*%
D37*
%TO.C,H1*%
X24000000Y-24000000D03*
%TD*%
D41*
%TO.C,U8*%
X73137500Y-68050000D03*
X73137500Y-68700000D03*
X73137500Y-69350000D03*
X73137500Y-70000000D03*
X73137500Y-70650000D03*
X73137500Y-71300000D03*
X73137500Y-71950000D03*
X78862500Y-71950000D03*
X78862500Y-71300000D03*
X78862500Y-70650000D03*
X78862500Y-70000000D03*
X78862500Y-69350000D03*
X78862500Y-68700000D03*
X78862500Y-68050000D03*
%TD*%
D28*
%TO.C,R424*%
X81000000Y-43075000D03*
X81000000Y-41425000D03*
%TD*%
D19*
%TO.C,R446*%
X125675000Y-39000000D03*
X127325000Y-39000000D03*
%TD*%
D42*
%TO.C,D7*%
X139500000Y-46500000D03*
X143500000Y-46500000D03*
%TD*%
D22*
%TO.C,C421*%
X75425000Y-42200000D03*
X76975000Y-42200000D03*
%TD*%
D31*
%TO.C,J4*%
X77000000Y-21290000D03*
D32*
X79000000Y-21290000D03*
X81000000Y-21290000D03*
X83000000Y-21290000D03*
D33*
X76500000Y-24000000D03*
X83500000Y-24000000D03*
%TD*%
D19*
%TO.C,R435*%
X118675000Y-39000000D03*
X120325000Y-39000000D03*
%TD*%
D21*
%TO.C,C412*%
X51525000Y-48000000D03*
X49975000Y-48000000D03*
%TD*%
D19*
%TO.C,R449*%
X129374999Y-48100000D03*
X131024999Y-48100000D03*
%TD*%
%TO.C,R419*%
X58575000Y-35600000D03*
X60225000Y-35600000D03*
%TD*%
D21*
%TO.C,C422*%
X79775000Y-47250000D03*
X78225000Y-47250000D03*
%TD*%
D20*
%TO.C,C113*%
X79525000Y-92500000D03*
X82475000Y-92500000D03*
%TD*%
D19*
%TO.C,R428*%
X89075000Y-35400000D03*
X90725000Y-35400000D03*
%TD*%
D20*
%TO.C,C115*%
X102325000Y-79100000D03*
X105275000Y-79100000D03*
%TD*%
D43*
%TO.C,U1*%
X57562500Y-89750000D03*
X57562500Y-90250000D03*
X57562500Y-90750000D03*
X57562500Y-91250000D03*
X57562500Y-91750000D03*
X57562500Y-92250000D03*
X60437500Y-92250000D03*
X60437500Y-91750000D03*
X60437500Y-91250000D03*
X60437500Y-90750000D03*
X60437500Y-90250000D03*
X60437500Y-89750000D03*
D44*
X59000000Y-91000000D03*
%TD*%
D38*
%TO.C,R208*%
X135024999Y-93275000D03*
X133374999Y-93275000D03*
%TD*%
D19*
%TO.C,R426*%
X69675000Y-39000000D03*
X71325000Y-39000000D03*
%TD*%
D20*
%TO.C,C108*%
X88325000Y-81700000D03*
X91275000Y-81700000D03*
%TD*%
D19*
%TO.C,R431*%
X114575000Y-34500000D03*
X116225000Y-34500000D03*
%TD*%
D26*
%TO.C,C2*%
X47525000Y-90000000D03*
X50475000Y-90000000D03*
%TD*%
D19*
%TO.C,R204*%
X128175000Y-99000000D03*
X129825000Y-99000000D03*
%TD*%
D45*
%TO.C,U18*%
X78862500Y-31050000D03*
X78862500Y-32000000D03*
X78862500Y-32950000D03*
X81137500Y-32950000D03*
X81137500Y-32000000D03*
X81137500Y-31050000D03*
%TD*%
D19*
%TO.C,R33*%
X85675000Y-64000000D03*
X87325000Y-64000000D03*
%TD*%
D34*
%TO.C,C34*%
X92500000Y-67175000D03*
X92500000Y-65625000D03*
%TD*%
D22*
%TO.C,C206*%
X133025000Y-86000000D03*
X134575000Y-86000000D03*
%TD*%
D19*
%TO.C,R442*%
X127175000Y-41700000D03*
X128825000Y-41700000D03*
%TD*%
%TO.C,R106*%
X98075000Y-76300000D03*
X99725000Y-76300000D03*
%TD*%
%TO.C,R427*%
X87175000Y-32299999D03*
X88825000Y-32299999D03*
%TD*%
D45*
%TO.C,U17*%
X48862500Y-31050000D03*
X48862500Y-32000000D03*
X48862500Y-32950000D03*
X51137500Y-32950000D03*
X51137500Y-32000000D03*
X51137500Y-31050000D03*
%TD*%
D42*
%TO.C,D4*%
X55800000Y-47900000D03*
X59800000Y-47900000D03*
%TD*%
D46*
%TO.C,Q1*%
X55650000Y-99000000D03*
D47*
X52100000Y-97095000D03*
X52100000Y-98365000D03*
X52100000Y-99635000D03*
X52100000Y-100905000D03*
%TD*%
D20*
%TO.C,C112*%
X106025000Y-102100000D03*
X108975000Y-102100000D03*
%TD*%
D45*
%TO.C,U20*%
X134862500Y-31050000D03*
X134862500Y-32000000D03*
X134862500Y-32950000D03*
X137137500Y-32950000D03*
X137137500Y-32000000D03*
X137137500Y-31050000D03*
%TD*%
D22*
%TO.C,C106*%
X93625000Y-83100000D03*
X95175000Y-83100000D03*
%TD*%
D19*
%TO.C,R410*%
X43075000Y-36800000D03*
X44725000Y-36800000D03*
%TD*%
D22*
%TO.C,C201*%
X131225000Y-96000000D03*
X132775000Y-96000000D03*
%TD*%
%TO.C,C445*%
X128625000Y-36800000D03*
X130175000Y-36800000D03*
%TD*%
%TO.C,C202*%
X121625000Y-91500000D03*
X123175000Y-91500000D03*
%TD*%
D48*
%TO.C,U3*%
X128000000Y-91000000D03*
D49*
X125137500Y-88075000D03*
X125137500Y-88725000D03*
X125137500Y-89375000D03*
X125137500Y-90025000D03*
X125137500Y-90675000D03*
X125137500Y-91325000D03*
X125137500Y-91975000D03*
X125137500Y-92625000D03*
X125137500Y-93275000D03*
X125137500Y-93925000D03*
X130862500Y-93925000D03*
X130862500Y-93275000D03*
X130862500Y-92625000D03*
X130862500Y-91975000D03*
X130862500Y-91325000D03*
X130862500Y-90675000D03*
X130862500Y-90025000D03*
X130862500Y-89375000D03*
X130862500Y-88725000D03*
X130862500Y-88075000D03*
%TD*%
D29*
%TO.C,L1*%
X108000000Y-96625000D03*
X108000000Y-85375000D03*
%TD*%
D21*
%TO.C,C441*%
X133275000Y-40625000D03*
X131725000Y-40625000D03*
%TD*%
D20*
%TO.C,C208*%
X126625000Y-81700000D03*
X129575000Y-81700000D03*
%TD*%
D19*
%TO.C,R107*%
X107775000Y-81900000D03*
X109425000Y-81900000D03*
%TD*%
D50*
%TO.C,C432*%
X110750000Y-47725000D03*
X110750000Y-49275000D03*
%TD*%
D19*
%TO.C,R443*%
X130675000Y-32100000D03*
X132325000Y-32100000D03*
%TD*%
D51*
%TO.C,C23*%
X76675000Y-76000000D03*
X73725000Y-76000000D03*
%TD*%
D22*
%TO.C,C411*%
X53225000Y-44300000D03*
X54775000Y-44300000D03*
%TD*%
%TO.C,C434*%
X115325000Y-36800000D03*
X116875000Y-36800000D03*
%TD*%
%TO.C,C424*%
X85325000Y-36800000D03*
X86875000Y-36800000D03*
%TD*%
D52*
%TO.C,D3*%
X117050000Y-82500000D03*
X119150000Y-82500000D03*
%TD*%
D53*
%TO.C,F1*%
X36000000Y-98000000D03*
X36000000Y-101400000D03*
X45920000Y-98000000D03*
X45920000Y-101400000D03*
%TD*%
D22*
%TO.C,C431*%
X105425000Y-42200000D03*
X106975000Y-42200000D03*
%TD*%
D19*
%TO.C,R32*%
X76475000Y-57100000D03*
X78125000Y-57100000D03*
%TD*%
%TO.C,R412*%
X43775000Y-34500000D03*
X45425000Y-34500000D03*
%TD*%
D31*
%TO.C,J5*%
X107000000Y-21290000D03*
D32*
X109000000Y-21290000D03*
X111000000Y-21290000D03*
X113000000Y-21290000D03*
D33*
X106500000Y-24000000D03*
X113500000Y-24000000D03*
%TD*%
D20*
%TO.C,C110*%
X92025000Y-106800000D03*
X94975000Y-106800000D03*
%TD*%
%TO.C,C207*%
X130224999Y-102300000D03*
X133174999Y-102300000D03*
%TD*%
D14*
%TO.C,U12*%
X135100000Y-44287500D03*
D15*
X135100000Y-44762500D03*
X135100000Y-45237500D03*
D16*
X135100000Y-45712500D03*
D17*
X135750000Y-44500000D03*
X135750000Y-44950000D03*
D18*
X135750000Y-45162500D03*
D17*
X135750000Y-45400000D03*
X135750000Y-45850000D03*
X136250000Y-44500000D03*
X136250000Y-44950000D03*
D18*
X136250000Y-45162500D03*
D17*
X136250000Y-45400000D03*
X136250000Y-45850000D03*
D16*
X136900000Y-45712500D03*
D15*
X136900000Y-45237500D03*
X136900000Y-44762500D03*
D14*
X136900000Y-44287500D03*
%TD*%
D19*
%TO.C,R3*%
X53175000Y-92200000D03*
X54825000Y-92200000D03*
%TD*%
D20*
%TO.C,C413*%
X55025000Y-39000000D03*
X57975000Y-39000000D03*
%TD*%
D22*
%TO.C,C35*%
X102625000Y-62300000D03*
X104175000Y-62300000D03*
%TD*%
%TO.C,C36*%
X102625000Y-59800000D03*
X104175000Y-59800000D03*
%TD*%
D54*
%TO.C,R210*%
X119037500Y-76000000D03*
X121962500Y-76000000D03*
%TD*%
D22*
%TO.C,C45*%
X76925000Y-59600000D03*
X78475000Y-59600000D03*
%TD*%
D19*
%TO.C,R203*%
X141775000Y-81900000D03*
X143425000Y-81900000D03*
%TD*%
D22*
%TO.C,C204*%
X133424999Y-89000000D03*
X134974999Y-89000000D03*
%TD*%
D19*
%TO.C,R109*%
X86175000Y-108100000D03*
X87825000Y-108100000D03*
%TD*%
D22*
%TO.C,C430*%
X113025000Y-42200000D03*
X114575000Y-42200000D03*
%TD*%
%TO.C,C101*%
X97225000Y-96000000D03*
X98775000Y-96000000D03*
%TD*%
D34*
%TO.C,C30*%
X91200000Y-48475000D03*
X91200000Y-46925000D03*
%TD*%
D22*
%TO.C,C435*%
X105725000Y-45100000D03*
X107275000Y-45100000D03*
%TD*%
D20*
%TO.C,C433*%
X102025000Y-39000000D03*
X104975000Y-39000000D03*
%TD*%
D19*
%TO.C,R2*%
X49475000Y-93900000D03*
X51125000Y-93900000D03*
%TD*%
D45*
%TO.C,U4*%
X65862500Y-81050000D03*
X65862500Y-82000000D03*
X65862500Y-82950000D03*
X68137500Y-82950000D03*
X68137500Y-82000000D03*
X68137500Y-81050000D03*
%TD*%
D34*
%TO.C,C41*%
X94500000Y-52475000D03*
X94500000Y-50925000D03*
%TD*%
D22*
%TO.C,C44*%
X81725000Y-64000000D03*
X83275000Y-64000000D03*
%TD*%
D19*
%TO.C,R421*%
X87175000Y-39000000D03*
X88825000Y-39000000D03*
%TD*%
%TO.C,R433*%
X107575000Y-47900000D03*
X109225000Y-47900000D03*
%TD*%
D31*
%TO.C,J3*%
X47000000Y-21290000D03*
D32*
X49000000Y-21290000D03*
X51000000Y-21290000D03*
X53000000Y-21290000D03*
D33*
X46500000Y-24000000D03*
X53500000Y-24000000D03*
%TD*%
D19*
%TO.C,R418*%
X39675000Y-39000000D03*
X41325000Y-39000000D03*
%TD*%
D22*
%TO.C,C410*%
X45425000Y-42200000D03*
X46975000Y-42200000D03*
%TD*%
%TO.C,C414*%
X50425000Y-41200000D03*
X51975000Y-41200000D03*
%TD*%
D19*
%TO.C,R37*%
X77675000Y-64000000D03*
X79325000Y-64000000D03*
%TD*%
%TO.C,R4*%
X53275000Y-94500000D03*
X54925000Y-94500000D03*
%TD*%
D45*
%TO.C,U19*%
X108862500Y-31050000D03*
X108862500Y-32000000D03*
X108862500Y-32950000D03*
X111137500Y-32950000D03*
X111137500Y-32000000D03*
X111137500Y-31050000D03*
%TD*%
D19*
%TO.C,R411*%
X45675000Y-45100000D03*
X47325000Y-45100000D03*
%TD*%
D22*
%TO.C,C102*%
X93225000Y-96000000D03*
X94775000Y-96000000D03*
%TD*%
D20*
%TO.C,C423*%
X72425000Y-33900000D03*
X75375000Y-33900000D03*
%TD*%
D55*
%TO.C,RS2*%
X117037500Y-102500000D03*
X122962500Y-102500000D03*
%TD*%
D19*
%TO.C,R420*%
X84575000Y-34500000D03*
X86225000Y-34500000D03*
%TD*%
D22*
%TO.C,C43*%
X81325000Y-68050000D03*
X82875000Y-68050000D03*
%TD*%
D19*
%TO.C,R436*%
X101875000Y-45100000D03*
X103525000Y-45100000D03*
%TD*%
D56*
%TO.C,Y1*%
X94400000Y-48550000D03*
X96600000Y-48550000D03*
X96600000Y-46850000D03*
X94400000Y-46850000D03*
%TD*%
D26*
%TO.C,C3*%
X41025000Y-90400000D03*
X43975000Y-90400000D03*
%TD*%
D19*
%TO.C,R447*%
X127374999Y-45100000D03*
X129024999Y-45100000D03*
%TD*%
D20*
%TO.C,C214*%
X136325000Y-105900000D03*
X139275000Y-105900000D03*
%TD*%
D22*
%TO.C,C425*%
X75725000Y-45100000D03*
X77275000Y-45100000D03*
%TD*%
D20*
%TO.C,C215*%
X131325000Y-76700000D03*
X134275000Y-76700000D03*
%TD*%
D19*
%TO.C,R102*%
X83275000Y-82500000D03*
X84925000Y-82500000D03*
%TD*%
D57*
%TO.C,U5*%
X33050000Y-54137500D03*
X34000000Y-54137500D03*
X34950000Y-54137500D03*
X34950000Y-51862500D03*
X34000000Y-51862500D03*
X33050000Y-51862500D03*
%TD*%
D58*
%TO.C,U7*%
X63837500Y-56250000D03*
X63837500Y-56750000D03*
X63837500Y-57250000D03*
X63837500Y-57750000D03*
X63837500Y-58250000D03*
X63837500Y-58750000D03*
X63837500Y-59250000D03*
X63837500Y-59750000D03*
X63837500Y-60250000D03*
X63837500Y-60750000D03*
X63837500Y-61250000D03*
X63837500Y-61750000D03*
D59*
X65250000Y-63162500D03*
X65750000Y-63162500D03*
X66250000Y-63162500D03*
X66750000Y-63162500D03*
X67250000Y-63162500D03*
X67750000Y-63162500D03*
X68250000Y-63162500D03*
X68750000Y-63162500D03*
X69250000Y-63162500D03*
X69750000Y-63162500D03*
X70250000Y-63162500D03*
X70750000Y-63162500D03*
D58*
X72162500Y-61750000D03*
X72162500Y-61250000D03*
X72162500Y-60750000D03*
X72162500Y-60250000D03*
X72162500Y-59750000D03*
X72162500Y-59250000D03*
X72162500Y-58750000D03*
X72162500Y-58250000D03*
X72162500Y-57750000D03*
X72162500Y-57250000D03*
X72162500Y-56750000D03*
X72162500Y-56250000D03*
D59*
X70750000Y-54837500D03*
X70250000Y-54837500D03*
X69750000Y-54837500D03*
X69250000Y-54837500D03*
X68750000Y-54837500D03*
X68250000Y-54837500D03*
X67750000Y-54837500D03*
X67250000Y-54837500D03*
X66750000Y-54837500D03*
X66250000Y-54837500D03*
X65750000Y-54837500D03*
X65250000Y-54837500D03*
%TD*%
D52*
%TO.C,D2*%
X92450000Y-78200000D03*
X94550000Y-78200000D03*
%TD*%
D22*
%TO.C,C103*%
X96225000Y-98400000D03*
X97775000Y-98400000D03*
%TD*%
D27*
%TO.C,FID3*%
X28000000Y-102000000D03*
%TD*%
D19*
%TO.C,R437*%
X99775000Y-35600000D03*
X101425000Y-35600000D03*
%TD*%
%TO.C,R448*%
X144075000Y-35600000D03*
X145725000Y-35600000D03*
%TD*%
D13*
%TO.C,U13*%
X47900000Y-37000000D03*
X47900000Y-37500000D03*
X47900000Y-38000000D03*
X47900000Y-38500000D03*
X47900000Y-39000000D03*
X52100000Y-39000000D03*
X52100000Y-38500000D03*
X52100000Y-38000000D03*
X52100000Y-37500000D03*
X52100000Y-37000000D03*
%TD*%
D20*
%TO.C,C114*%
X79725000Y-97800000D03*
X82675000Y-97800000D03*
%TD*%
D42*
%TO.C,D6*%
X113500000Y-46500000D03*
X117500000Y-46500000D03*
%TD*%
D14*
%TO.C,U9*%
X49100000Y-44287500D03*
D15*
X49100000Y-44762500D03*
X49100000Y-45237500D03*
D16*
X49100000Y-45712500D03*
D17*
X49750000Y-44500000D03*
X49750000Y-44950000D03*
D18*
X49750000Y-45162500D03*
D17*
X49750000Y-45400000D03*
X49750000Y-45850000D03*
X50250000Y-44500000D03*
X50250000Y-44950000D03*
D18*
X50250000Y-45162500D03*
D17*
X50250000Y-45400000D03*
X50250000Y-45850000D03*
D16*
X50900000Y-45712500D03*
D15*
X50900000Y-45237500D03*
X50900000Y-44762500D03*
D14*
X50900000Y-44287500D03*
%TD*%
D19*
%TO.C,R439*%
X117175000Y-32299999D03*
X118825000Y-32299999D03*
%TD*%
D30*
%TO.C,C216*%
X126650000Y-106300000D03*
X128550000Y-106300000D03*
%TD*%
D55*
%TO.C,RS1*%
X85037500Y-102500000D03*
X90962500Y-102500000D03*
%TD*%
D13*
%TO.C,U16*%
X133900000Y-37000000D03*
X133900000Y-37500000D03*
X133900000Y-38000000D03*
X133900000Y-38500000D03*
X133900000Y-39000000D03*
X138100000Y-39000000D03*
X138100000Y-38500000D03*
X138100000Y-38000000D03*
X138100000Y-37500000D03*
X138100000Y-37000000D03*
%TD*%
D22*
%TO.C,C203*%
X127225000Y-96000000D03*
X128775000Y-96000000D03*
%TD*%
D10*
%TO.C,Q6*%
X117200000Y-94095000D03*
X117200000Y-95365000D03*
X117200000Y-96635000D03*
X117200000Y-97905000D03*
D11*
X120460000Y-96000000D03*
D12*
X122750000Y-97905000D03*
X122750000Y-96635000D03*
X122750000Y-95365000D03*
X122750000Y-94095000D03*
%TD*%
D19*
%TO.C,R202*%
X121175000Y-78600000D03*
X122825000Y-78600000D03*
%TD*%
D26*
%TO.C,C24*%
X78525000Y-76000000D03*
X81475000Y-76000000D03*
%TD*%
D60*
%TO.C,R414*%
X53250000Y-45925000D03*
X53250000Y-47575000D03*
%TD*%
D19*
%TO.C,R416*%
X57675000Y-42100000D03*
X59325000Y-42100000D03*
%TD*%
D37*
%TO.C,H2*%
X146000000Y-72000000D03*
%TD*%
D19*
%TO.C,R206*%
X127675000Y-84800000D03*
X129325000Y-84800000D03*
%TD*%
%TO.C,R108*%
X92175000Y-75800000D03*
X93825000Y-75800000D03*
%TD*%
%TO.C,R423*%
X71675000Y-41700000D03*
X73325000Y-41700000D03*
%TD*%
D42*
%TO.C,D5*%
X83500000Y-46500000D03*
X87500000Y-46500000D03*
%TD*%
D22*
%TO.C,C205*%
X132725000Y-98600000D03*
X134275000Y-98600000D03*
%TD*%
D61*
%TO.C,J1*%
X25500000Y-97000000D03*
D62*
X25500000Y-92000000D03*
%TD*%
D22*
%TO.C,C111*%
X93325000Y-103300000D03*
X94875000Y-103300000D03*
%TD*%
D48*
%TO.C,U2*%
X96000000Y-91000000D03*
D49*
X93137500Y-88075000D03*
X93137500Y-88725000D03*
X93137500Y-89375000D03*
X93137500Y-90025000D03*
X93137500Y-90675000D03*
X93137500Y-91325000D03*
X93137500Y-91975000D03*
X93137500Y-92625000D03*
X93137500Y-93275000D03*
X93137500Y-93925000D03*
X98862500Y-93925000D03*
X98862500Y-93275000D03*
X98862500Y-92625000D03*
X98862500Y-91975000D03*
X98862500Y-91325000D03*
X98862500Y-90675000D03*
X98862500Y-90025000D03*
X98862500Y-89375000D03*
X98862500Y-88725000D03*
X98862500Y-88075000D03*
%TD*%
D19*
%TO.C,R1*%
X52975000Y-89800000D03*
X54625000Y-89800000D03*
%TD*%
D54*
%TO.C,R110*%
X85037500Y-76000000D03*
X87962500Y-76000000D03*
%TD*%
D19*
%TO.C,R413*%
X46175000Y-48000000D03*
X47825000Y-48000000D03*
%TD*%
D34*
%TO.C,C38*%
X98250000Y-52475000D03*
X98250000Y-50925000D03*
%TD*%
D19*
%TO.C,R425*%
X71875000Y-45100000D03*
X73525000Y-45100000D03*
%TD*%
D63*
%TO.C,Q2*%
X62350000Y-99000000D03*
D64*
X65900000Y-100905000D03*
X65900000Y-99635000D03*
X65900000Y-98365000D03*
X65900000Y-97095000D03*
%TD*%
D34*
%TO.C,C22*%
X69900000Y-82275000D03*
X69900000Y-80725000D03*
%TD*%
D20*
%TO.C,C109*%
X96825000Y-79700000D03*
X99775000Y-79700000D03*
%TD*%
D22*
%TO.C,C211*%
X122725000Y-81200000D03*
X124275000Y-81200000D03*
%TD*%
D19*
%TO.C,R101*%
X87375000Y-105900000D03*
X89025000Y-105900000D03*
%TD*%
D65*
%TO.C,J2*%
X22500000Y-51750000D03*
D66*
X22500000Y-54250000D03*
X24500000Y-54250000D03*
X24500000Y-51750000D03*
D67*
X27210000Y-59020000D03*
X27210000Y-46980000D03*
%TD*%
D21*
%TO.C,C442*%
X134025000Y-42250000D03*
X132475000Y-42250000D03*
%TD*%
D14*
%TO.C,U11*%
X109100000Y-44287500D03*
D15*
X109100000Y-44762500D03*
X109100000Y-45237500D03*
D16*
X109100000Y-45712500D03*
D17*
X109750000Y-44500000D03*
X109750000Y-44950000D03*
D18*
X109750000Y-45162500D03*
D17*
X109750000Y-45400000D03*
X109750000Y-45850000D03*
X110250000Y-44500000D03*
X110250000Y-44950000D03*
D18*
X110250000Y-45162500D03*
D17*
X110250000Y-45400000D03*
X110250000Y-45850000D03*
D16*
X110900000Y-45712500D03*
D15*
X110900000Y-45237500D03*
X110900000Y-44762500D03*
D14*
X110900000Y-44287500D03*
%TD*%
D37*
%TO.C,H3*%
X24000000Y-106000000D03*
%TD*%
D28*
%TO.C,R5*%
X59000000Y-86425000D03*
X59000000Y-84775000D03*
%TD*%
D20*
%TO.C,C107*%
X100525000Y-102900000D03*
X103475000Y-102900000D03*
%TD*%
D28*
%TO.C,R30*%
X96375000Y-52525000D03*
X96375000Y-50875000D03*
%TD*%
D19*
%TO.C,R103*%
X103175000Y-106400000D03*
X104825000Y-106400000D03*
%TD*%
D22*
%TO.C,C42*%
X80425000Y-61800000D03*
X81975000Y-61800000D03*
%TD*%
D68*
X79750000Y-44500000D03*
X79750000Y-44950000D03*
X79750000Y-45400000D03*
X79750000Y-45850000D03*
X80250000Y-44500000D03*
X80250000Y-44950000D03*
X80250000Y-45400000D03*
X80250000Y-45850000D03*
D69*
X133000000Y-21290000D03*
X135000000Y-21290000D03*
X137000000Y-21290000D03*
X139000000Y-21290000D03*
X132500000Y-24000000D03*
X139500000Y-24000000D03*
X146000000Y-106000000D03*
X25500000Y-70000000D03*
X25500000Y-68730000D03*
X26770000Y-70000000D03*
X26770000Y-68730000D03*
X28040000Y-70000000D03*
X28040000Y-68730000D03*
X29310000Y-70000000D03*
X29310000Y-68730000D03*
X30580000Y-70000000D03*
X30580000Y-68730000D03*
X24000000Y-24000000D03*
X77000000Y-21290000D03*
X79000000Y-21290000D03*
X81000000Y-21290000D03*
X83000000Y-21290000D03*
X76500000Y-24000000D03*
X83500000Y-24000000D03*
X36000000Y-98000000D03*
X36000000Y-101400000D03*
X45920000Y-98000000D03*
X45920000Y-101400000D03*
X107000000Y-21290000D03*
X109000000Y-21290000D03*
X111000000Y-21290000D03*
X113000000Y-21290000D03*
X106500000Y-24000000D03*
X113500000Y-24000000D03*
D68*
X135750000Y-44500000D03*
X135750000Y-44950000D03*
X135750000Y-45400000D03*
X135750000Y-45850000D03*
X136250000Y-44500000D03*
X136250000Y-44950000D03*
X136250000Y-45400000D03*
X136250000Y-45850000D03*
D69*
X47000000Y-21290000D03*
X49000000Y-21290000D03*
X51000000Y-21290000D03*
X53000000Y-21290000D03*
X46500000Y-24000000D03*
X53500000Y-24000000D03*
D68*
X49750000Y-44500000D03*
X49750000Y-44950000D03*
X49750000Y-45400000D03*
X49750000Y-45850000D03*
X50250000Y-44500000D03*
X50250000Y-44950000D03*
X50250000Y-45400000D03*
X50250000Y-45850000D03*
D69*
X146000000Y-72000000D03*
X25500000Y-97000000D03*
X25500000Y-92000000D03*
X22500000Y-51750000D03*
X22500000Y-54250000D03*
X24500000Y-54250000D03*
X24500000Y-51750000D03*
X27210000Y-59020000D03*
X27210000Y-46980000D03*
D68*
X109750000Y-44500000D03*
X109750000Y-44950000D03*
X109750000Y-45400000D03*
X109750000Y-45850000D03*
X110250000Y-44500000D03*
X110250000Y-44950000D03*
X110250000Y-45400000D03*
X110250000Y-45850000D03*
D69*
X24000000Y-106000000D03*
M02*
