%TF.GenerationSoftware,KiCad,Pcbnew,10.0.4-10.0.4~ubuntu24.04.1*%
%TF.CreationDate,2026-08-01T17:24:00-07:00*%
%TF.ProjectId,programmable_usb2_hub,70726f67-7261-46d6-9d61-626c655f7573,rev?*%
%TF.SameCoordinates,Original*%
%TF.FileFunction,Legend,Bot*%
%TF.FilePolarity,Positive*%
%FSLAX46Y46*%
G04 Gerber Fmt 4.6, Leading zero omitted, Abs format (unit mm)*
G04 Created by KiCad (PCBNEW 10.0.4-10.0.4~ubuntu24.04.1) date 2026-08-01 17:24:00*
%MOMM*%
%LPD*%
G01*
G04 APERTURE LIST*
%ADD10C,0.250000*%
%ADD11R,1.750000X1.750000*%
%ADD12C,1.750000*%
%ADD13O,3.300000X3.300000*%
%ADD14C,3.200000*%
%ADD15R,1.000000X1.000000*%
%ADD16C,1.000000*%
%ADD17C,2.780000*%
%ADD18R,3.000000X3.000000*%
%ADD19C,3.000000*%
%ADD20R,1.700000X1.700000*%
%ADD21C,1.700000*%
%ADD22O,3.500000X3.500000*%
G04 APERTURE END LIST*
%LPC*%
D10*
%TO.C,U10*%
X79750000Y-44500000D03*
X79750000Y-44950000D03*
X79750000Y-45400000D03*
X79750000Y-45850000D03*
X80250000Y-44500000D03*
X80250000Y-44950000D03*
X80250000Y-45400000D03*
X80250000Y-45850000D03*
%TD*%
D11*
%TO.C,J6*%
X133000000Y-21290000D03*
D12*
X135000000Y-21290000D03*
X137000000Y-21290000D03*
X139000000Y-21290000D03*
D13*
X132500000Y-24000000D03*
X139500000Y-24000000D03*
%TD*%
D14*
%TO.C,H4*%
X146000000Y-106000000D03*
%TD*%
D15*
%TO.C,J7*%
X25500000Y-70000000D03*
D16*
X25500000Y-68730000D03*
X26770000Y-70000000D03*
X26770000Y-68730000D03*
X28040000Y-70000000D03*
X28040000Y-68730000D03*
X29310000Y-70000000D03*
X29310000Y-68730000D03*
X30580000Y-70000000D03*
X30580000Y-68730000D03*
%TD*%
D14*
%TO.C,H1*%
X24000000Y-24000000D03*
%TD*%
D11*
%TO.C,J4*%
X77000000Y-21290000D03*
D12*
X79000000Y-21290000D03*
X81000000Y-21290000D03*
X83000000Y-21290000D03*
D13*
X76500000Y-24000000D03*
X83500000Y-24000000D03*
%TD*%
D17*
%TO.C,F1*%
X36000000Y-98000000D03*
X36000000Y-101400000D03*
X45920000Y-98000000D03*
X45920000Y-101400000D03*
%TD*%
D11*
%TO.C,J5*%
X107000000Y-21290000D03*
D12*
X109000000Y-21290000D03*
X111000000Y-21290000D03*
X113000000Y-21290000D03*
D13*
X106500000Y-24000000D03*
X113500000Y-24000000D03*
%TD*%
D10*
%TO.C,U12*%
X135750000Y-44500000D03*
X135750000Y-44950000D03*
X135750000Y-45400000D03*
X135750000Y-45850000D03*
X136250000Y-44500000D03*
X136250000Y-44950000D03*
X136250000Y-45400000D03*
X136250000Y-45850000D03*
%TD*%
D11*
%TO.C,J3*%
X47000000Y-21290000D03*
D12*
X49000000Y-21290000D03*
X51000000Y-21290000D03*
X53000000Y-21290000D03*
D13*
X46500000Y-24000000D03*
X53500000Y-24000000D03*
%TD*%
D10*
%TO.C,U9*%
X49750000Y-44500000D03*
X49750000Y-44950000D03*
X49750000Y-45400000D03*
X49750000Y-45850000D03*
X50250000Y-44500000D03*
X50250000Y-44950000D03*
X50250000Y-45400000D03*
X50250000Y-45850000D03*
%TD*%
D14*
%TO.C,H2*%
X146000000Y-72000000D03*
%TD*%
D18*
%TO.C,J1*%
X25500000Y-97000000D03*
D19*
X25500000Y-92000000D03*
%TD*%
D20*
%TO.C,J2*%
X22500000Y-51750000D03*
D21*
X22500000Y-54250000D03*
X24500000Y-54250000D03*
X24500000Y-51750000D03*
D22*
X27210000Y-59020000D03*
X27210000Y-46980000D03*
%TD*%
D10*
%TO.C,U11*%
X109750000Y-44500000D03*
X109750000Y-44950000D03*
X109750000Y-45400000D03*
X109750000Y-45850000D03*
X110250000Y-44500000D03*
X110250000Y-44950000D03*
X110250000Y-45400000D03*
X110250000Y-45850000D03*
%TD*%
D14*
%TO.C,H3*%
X24000000Y-106000000D03*
%TD*%
%LPD*%
M02*
