v 0.6 -0.597991 0.908716
v 0.6 -0.625 0.6
v 0.602413 -0.597933 0.908921
newmtl 1
Ka 1.0 1.0 1.0
Kd 1.0 1.0 1.0
Ks 0.5019607843137255 0.5019607843137255 0.5019607843137255
d 0.0
endmtl
v 0.616751 -0.623587 0.6
v 0.640332 -0.616506 0.6
v 0.629276 -0.591445 0.910627
v 0.62779 -0.592176 0.910566
v 0.626188 -0.592964 0.910501
v 0.614186 -0.596502 0.909802
v 0.612196 -0.596744 0.909653
v 0.63741 -0.587446 0.910961
v 0.661468 -0.603878 0.6
v 0.640298 -0.585352 0.911024
v 0.647532 -0.580109 0.911182
v 0.646084 -0.581158 0.911151
v 0.644607 -0.582229 0.911118
v 0.660314 -0.565277 0.911019
v 0.657297 -0.56966 0.911128
v 0.678878 -0.586468 0.6
v 0.656261 -0.571164 0.911165
v 0.651272 -0.576276 0.911175
v 0.663349 -0.560869 0.91091
v 0.691506 -0.565332 0.6
v 0.666401 -0.554262 0.910622
v 0.671374 -0.539164 0.909788
v 0.66859 -0.549522 0.910416
v 0.667097 -0.552756 0.910557
v 0.671835 -0.537449 0.909684
v 0.698587 -0.541751 0.6
v 0.671858 -0.537211 0.909666
v 0.7 -0.525 0.6
v 0.672991 -0.525 0.908716
v 0.672991 0.525 0.908716
v 0.7 0.525 0.6
v 0.672933 0.527413 0.908921
v 0.698587 0.541751 0.6
v 0.691506 0.565332 0.6
v 0.666445 0.554276 0.910627
v 0.667176 0.55279 0.910566
v 0.667964 0.551188 0.910501
v 0.671502 0.539186 0.909802
v 0.671744 0.537196 0.909653
v 0.662446 0.56241 0.910961
v 0.678878 0.586468 0.6
v 0.660352 0.565298 0.911024
v 0.655109 0.572532 0.911182
v 0.656158 0.571084 0.911151
v 0.657229 0.569607 0.911118
v 0.640277 0.585314 0.911019
v 0.64466 0.582297 0.911128
v 0.661468 0.603878 0.6
v 0.646164 0.581261 0.911165
v 0.651276 0.576272 0.911175
v 0.63587 0.588349 0.91091
v 0.640332 0.616506 0.6
v 0.629262 0.591401 0.910622
v 0.614164 0.596374 0.909788
v 0.624522 0.59359 0.910416
v 0.627756 0.592097 0.910557
v 0.612449 0.596835 0.909684
v 0.616751 0.623587 0.6
v 0.612211 0.596858 0.909666
v 0.6 0.625 0.6
v 0.6 0.597991 0.908716
v -0.6 0.597991 0.908716
v -0.6 0.625 0.6
v -0.602413 0.597933 0.908921
v -0.616751 0.623587 0.6
v -0.640332 0.616506 0.6
v -0.629276 0.591445 0.910627
v -0.62779 0.592176 0.910566
v -0.626188 0.592964 0.910501
v -0.614186 0.596502 0.909802
v -0.612196 0.596744 0.909653
v -0.63741 0.587446 0.910961
v -0.661468 0.603878 0.6
v -0.640298 0.585352 0.911024
v -0.647532 0.580109 0.911182
v -0.646084 0.581158 0.911151
v -0.644607 0.582229 0.911118
v -0.660314 0.565277 0.911019
v -0.657297 0.56966 0.911128
v -0.678878 0.586468 0.6
v -0.656261 0.571164 0.911165
v -0.651272 0.576276 0.911175
v -0.663349 0.560869 0.91091
v -0.691506 0.565332 0.6
v -0.666401 0.554262 0.910622
v -0.671374 0.539164 0.909788
v -0.66859 0.549522 0.910416
v -0.667097 0.552756 0.910557
v -0.671835 0.537449 0.909684
v -0.698587 0.541751 0.6
v -0.671858 0.537211 0.909666
v -0.7 0.525 0.6
v -0.672991 0.525 0.908716
v -0.672991 -0.525 0.908716
v -0.7 -0.525 0.6
v -0.672933 -0.527413 0.908921
v -0.698587 -0.541751 0.6
v -0.691506 -0.565332 0.6
v -0.666445 -0.554276 0.910627
v -0.667176 -0.55279 0.910566
v -0.667964 -0.551188 0.910501
v -0.671502 -0.539186 0.909802
v -0.671744 -0.537196 0.909653
v -0.662446 -0.56241 0.910961
v -0.678878 -0.586468 0.6
v -0.660352 -0.565298 0.911024
v -0.655109 -0.572532 0.911182
v -0.656158 -0.571084 0.911151
v -0.657229 -0.569607 0.911118
v -0.640277 -0.585314 0.911019
v -0.64466 -0.582297 0.911128
v -0.661468 -0.603878 0.6
v -0.646164 -0.581261 0.911165
v -0.651276 -0.576272 0.911175
v -0.63587 -0.588349 0.91091
v -0.640332 -0.616506 0.6
v -0.629262 -0.591401 0.910622
v -0.614164 -0.596374 0.909788
v -0.624522 -0.59359 0.910416
v -0.627756 -0.592097 0.910557
v -0.612449 -0.596835 0.909684
v -0.616751 -0.623587 0.6
v -0.612211 -0.596858 0.909666
v -0.6 -0.625 0.6
v -0.6 -0.597991 0.908716
v 0.573371 -0.498371 1.0
v 0.573371 0.498371 1.0
v -0.573371 -0.498371 1.0
v -0.573371 0.498371 1.0
v 0.577366 0.512672 0.998972
v 0.584841 0.509841 0.998919
v 0.637239 0.581361 0.930169
v 0.630876 0.573214 0.949599
v 0.640213 0.565213 0.949689
v 0.630629 0.555629 0.966676
v 0.609425 0.571449 0.965101
v 0.613977 0.568796 0.965766
v 0.620486 0.579707 0.949149
v 0.589669 0.556796 0.980938
v 0.58789 0.550456 0.985319
v 0.593292 0.54653 0.987319
v 0.670036 0.538655 0.919254
v 0.659084 0.56434 0.920357
v 0.650179 0.575179 0.920501
v 0.654895 0.569974 0.920465
v 0.66577 0.552016 0.919926
v 0.648214 0.555876 0.949599
v 0.652665 0.559358 0.940057
v 0.647687 0.572687 0.930262
v 0.656361 0.562239 0.930169
v 0.671559 0.524799 0.917636
v 0.67026 0.524581 0.924344
v 0.668856 0.531047 0.928253
v 0.669481 0.524411 0.926825
v 0.665548 0.530021 0.937733
v 0.666593 0.52378 0.936019
v 0.637707 0.547659 0.966493
v 0.643796 0.538977 0.965766
v 0.663011 0.550415 0.929832
v 0.659259 0.548198 0.939704
v 0.654707 0.545486 0.949149
v 0.649515 0.542384 0.957876
v 0.651644 0.520043 0.962236
v 0.648841 0.529775 0.964116
v 0.648887 0.519312 0.965223
v 0.642647 0.527141 0.971038
v 0.659925 0.522163 0.950085
v 0.661379 0.528689 0.946748
v 0.657986 0.521667 0.95293
v 0.656491 0.527017 0.955068
v 0.652744 0.520325 0.960622
v 0.654502 0.532232 0.956433
v 0.659572 0.5344 0.947975
v 0.663948 0.536196 0.938777
v 0.667478 0.537623 0.929086
v 0.670715 0.52468 0.922896
v 0.661894 0.522643 0.946019
v 0.662532 0.522798 0.944704
v 0.666325 0.523722 0.936872
v 0.596712 0.521712 0.995514
v 0.588005 0.506654 0.998784
v 0.602975 0.515174 0.995035
v 0.617426 0.523519 0.98853
v 0.608454 0.533454 0.989388
v 0.630328 0.514261 0.982194
v 0.631821 0.514674 0.98099
v 0.638165 0.520709 0.97597
v 0.592585 0.503729 0.998137
v 0.62153 0.518292 0.987319
v 0.606027 0.51181 0.994391
v 0.605844 0.507406 0.994581
v 0.608998 0.508286 0.993246
v 0.611489 0.508981 0.992191
v 0.618666 0.510983 0.989154
v 0.623513 0.51564 0.98645
v 0.625369 0.512867 0.985154
v 0.587738 0.549915 0.985693
v 0.584495 0.538347 0.991662
v 0.58681 0.531027 0.994391
v 0.583994 0.536545 0.992309
v 0.606534 0.556157 0.97888
v 0.599365 0.560955 0.977235
v 0.596406 0.553883 0.982671
v 0.598519 0.542426 0.98853
v 0.583286 0.534 0.993223
v 0.581016 0.525837 0.996154
v 0.590174 0.527975 0.995035
v 0.613655 0.595036 0.919254
v 0.599555 0.595174 0.924321
v 0.612623 0.592478 0.929086
v 0.599767 0.596174 0.920848
v 0.599828 0.596653 0.917653
v 0.597826 0.587624 0.944758
v 0.603689 0.586379 0.946748
v 0.598944 0.592286 0.934352
v 0.606047 0.593856 0.928253
v 0.599403 0.594454 0.926821
v 0.627016 0.59077 0.919926
v 0.597683 0.587029 0.946087
v 0.597562 0.586523 0.947216
v 0.600076 0.575977 0.962691
v 0.59565 0.578983 0.959175
v 0.59533 0.577764 0.960618
v 0.594308 0.573871 0.965222
v 0.593325 0.570129 0.969648
v 0.595709 0.563165 0.97597
v 0.591964 0.565125 0.974162
v 0.590649 0.560289 0.978525
v 0.6094 0.584572 0.947975
v 0.604775 0.573841 0.964116
v 0.590009 0.558006 0.980102
v 0.615006 0.582347 0.948709
v 0.625415 0.588011 0.929832
v 0.619109 0.590523 0.929553
v 0.63934 0.584084 0.920357
v 0.644974 0.579895 0.920465
v 0.631157 0.531534 0.97888
v 0.625791 0.538409 0.979702
v 0.61986 0.54486 0.979937
v 0.613409 0.550791 0.979702
v 0.622659 0.562707 0.966493
v 0.625794 0.576658 0.949436
v 0.631473 0.584953 0.930036
v 0.579046 0.499963 0.999839
v 0.589177 0.502781 0.998565
v 0.591206 0.503345 0.99831
v 0.635955 0.524365 0.977235
v 0.640194 0.51699 0.974236
v 0.641658 0.517395 0.973055
v 0.646696 0.518731 0.967597
v 0.581654 0.513005 0.998784
v 0.57834 0.516184 0.99822
v 0.577784 0.51418 0.998649
v -0.596657 0.582878 0.952911
v -0.584007 0.53625 0.991645
v -0.580501 0.523698 0.996716
v -0.578368 0.516121 0.997699
v -0.577795 0.514086 0.997963
v -0.58331 0.533755 0.992653
v -0.587177 0.547602 0.987058
v -0.587916 0.5503 0.985114
v -0.594187 0.573455 0.964861
v -0.593631 0.571354 0.967291
v -0.589629 0.556547 0.980614
v -0.592018 0.565264 0.974333
v -0.595235 0.57741 0.960288
v -0.59636 0.581661 0.955371
v -0.599305 0.594085 0.926752
v -0.599065 0.592738 0.932973
v -0.598716 0.591309 0.935863
v -0.597679 0.58706 0.944454
v -0.597519 0.586405 0.945778
v -0.599403 0.594634 0.924218
v -0.599661 0.596085 0.917515
v 0.669184 -0.524335 0.926777
v 0.669719 -0.524429 0.92424
v 0.671133 -0.524676 0.91753
v 0.662087 -0.522687 0.944481
v 0.661452 -0.522533 0.945811
v 0.668109 -0.524147 0.931879
v 0.631851 -0.514725 0.981019
v 0.63305 -0.515054 0.980192
v 0.640163 -0.516986 0.974203
v 0.642726 -0.517683 0.972045
v 0.648551 -0.519217 0.964965
v 0.652393 -0.52023 0.960294
v 0.657495 -0.521574 0.954093
v 0.63249 -0.514902 0.980663
v 0.589108 -0.502802 0.998425
v 0.608985 -0.508383 0.993193
v 0.591089 -0.503358 0.997904
v 0.625153 -0.512869 0.984753
v 0.611521 -0.509092 0.992351
v 0.610929 -0.508928 0.992681
v 0.586588 -0.502094 0.999088
v -0.656361 0.562239 0.930169
v -0.648214 0.555876 0.949599
v -0.640213 0.565213 0.949689
v -0.630629 0.555629 0.966676
v -0.646449 0.534425 0.965101
v -0.643796 0.538977 0.965766
v -0.654707 0.545486 0.949149
v -0.631796 0.514669 0.980938
v -0.625456 0.51289 0.985319
v -0.62153 0.518292 0.987319
v -0.584841 0.509841 0.998919
v -0.581654 0.513005 0.998784
v -0.59064 0.548513 0.98645
v -0.593292 0.54653 0.987319
v -0.613655 0.595036 0.919254
v -0.63934 0.584084 0.920357
v -0.650179 0.575179 0.920501
v -0.644974 0.579895 0.920465
v -0.627016 0.59077 0.919926
v -0.630876 0.573214 0.949599
v -0.634358 0.577665 0.940057
v -0.647687 0.572687 0.930262
v -0.637239 0.581361 0.930169
v -0.612623 0.592478 0.929086
v -0.606047 0.593856 0.928253
v -0.611196 0.588948 0.938777
v -0.605021 0.590548 0.937733
v -0.6094 0.584572 0.947975
v -0.603689 0.586379 0.946748
v -0.622659 0.562707 0.966493
v -0.613977 0.568796 0.965766
v -0.625415 0.588011 0.929832
v -0.623198 0.584259 0.939704
v -0.620486 0.579707 0.949149
v -0.617384 0.574515 0.957876
v -0.607232 0.579502 0.956433
v -0.602017 0.581491 0.955068
v -0.596712 0.521712 0.995514
v -0.587672 0.502366 0.998972
v -0.595709 0.563165 0.97597
v -0.608454 0.533454 0.989388
v -0.590174 0.527975 0.995035
v -0.598519 0.542426 0.98853
v -0.58681 0.531027 0.994391
v -0.624915 0.512738 0.985693
v -0.613347 0.509495 0.991662
v -0.606027 0.51181 0.994391
v -0.611545 0.508994 0.992309
v -0.631157 0.531534 0.97888
v -0.635955 0.524365 0.977235
v -0.628883 0.521406 0.982671
v -0.617426 0.523519 0.98853
v -0.609 0.508286 0.993223
v -0.600837 0.506016 0.996154
v -0.602975 0.515174 0.995035
v -0.670036 0.538655 0.919254
v -0.670174 0.524555 0.924321
v -0.667478 0.537623 0.929086
v -0.671174 0.524767 0.920848
v -0.671653 0.524828 0.917653
v -0.662624 0.522826 0.944758
v -0.661379 0.528689 0.946748
v -0.667286 0.523944 0.934352
v -0.668856 0.531047 0.928253
v -0.669454 0.524403 0.926821
v -0.66577 0.552016 0.919926
v -0.662029 0.522683 0.946087
v -0.661523 0.522562 0.947216
v -0.650977 0.525076 0.962691
v -0.653983 0.520651 0.959175
v -0.652764 0.52033 0.960618
v -0.648871 0.519308 0.965222
v -0.645129 0.518325 0.969648
v -0.638165 0.520709 0.97597
v -0.640125 0.516964 0.974162
v -0.635289 0.515649 0.978525
v -0.659572 0.5344 0.947975
v -0.648841 0.529775 0.964116
v -0.633006 0.515009 0.980102
v -0.657347 0.540006 0.948709
v -0.663011 0.550415 0.929832
v -0.665523 0.544109 0.929553
v -0.659084 0.56434 0.920357
v -0.654895 0.569974 0.920465
v -0.606534 0.556157 0.97888
v -0.613409 0.550791 0.979702
v -0.61986 0.54486 0.979937
v -0.625791 0.538409 0.979702
v -0.637707 0.547659 0.966493
v -0.651658 0.550794 0.949436
v -0.659953 0.556473 0.930036
v -0.604775 0.573841 0.964116
v -0.602141 0.567647 0.971038
v -0.599365 0.560955 0.977235
v -0.588005 0.506654 0.998784
v -0.591184 0.50334 0.99822
v -0.58918 0.502784 0.998649
v 0.656361 -0.562239 0.930169
v 0.648214 -0.555876 0.949599
v 0.640213 -0.565213 0.949689
v 0.630629 -0.555629 0.966676
v 0.646449 -0.534425 0.965101
v 0.643796 -0.538977 0.965766
v 0.654707 -0.545486 0.949149
v 0.617426 -0.523519 0.98853
v 0.602975 -0.515174 0.995035
v 0.596712 -0.521712 0.995514
v 0.606027 -0.51181 0.994391
v 0.62153 -0.518292 0.987319
v 0.638165 -0.520709 0.97597
v 0.613655 -0.595036 0.919254
v 0.63934 -0.584084 0.920357
v 0.650179 -0.575179 0.920501
v 0.644974 -0.579895 0.920465
v 0.627016 -0.59077 0.919926
v 0.630876 -0.573214 0.949599
v 0.634358 -0.577665 0.940057
v 0.647687 -0.572687 0.930262
v 0.637239 -0.581361 0.930169
v 0.599799 -0.596559 0.917636
v 0.599581 -0.59526 0.924344
v 0.606047 -0.593856 0.928253
v 0.599411 -0.594481 0.926825
v 0.605021 -0.590548 0.937733
v 0.59878 -0.591593 0.936019
v 0.622659 -0.562707 0.966493
v 0.613977 -0.568796 0.965766
v 0.625415 -0.588011 0.929832
v 0.623198 -0.584259 0.939704
v 0.620486 -0.579707 0.949149
v 0.617384 -0.574515 0.957876
v 0.595043 -0.576644 0.962236
v 0.604775 -0.573841 0.964116
v 0.594312 -0.573887 0.965223
v 0.602141 -0.567647 0.971038
v 0.597163 -0.584925 0.950085
v 0.603689 -0.586379 0.946748
v 0.596667 -0.582986 0.95293
v 0.602017 -0.581491 0.955068
v 0.595325 -0.577744 0.960622
v 0.607232 -0.579502 0.956433
v 0.6094 -0.584572 0.947975
v 0.611196 -0.588948 0.938777
v 0.612623 -0.592478 0.929086
v 0.59968 -0.595715 0.922896
v 0.597643 -0.586894 0.946019
v 0.597798 -0.587532 0.944704
v 0.598722 -0.591325 0.936872
v 0.590174 -0.527975 0.995035
v 0.598519 -0.542426 0.98853
v 0.608454 -0.533454 0.989388
v 0.589261 -0.555328 0.982194
v 0.589674 -0.556821 0.98099
v 0.595709 -0.563165 0.97597
v 0.581654 -0.513005 0.998784
v 0.578729 -0.517585 0.998137
v 0.593292 -0.54653 0.987319
v 0.58681 -0.531027 0.994391
v 0.582406 -0.530844 0.994581
v 0.583286 -0.533998 0.993246
v 0.583981 -0.536489 0.992191
v 0.585983 -0.543666 0.989154
v 0.59064 -0.548513 0.98645
v 0.587867 -0.550369 0.985154
v 0.631157 -0.531534 0.97888
v 0.635955 -0.524365 0.977235
v 0.628883 -0.521406 0.982671
v 0.670036 -0.538655 0.919254
v 0.661379 -0.528689 0.946748
v 0.668856 -0.531047 0.928253
v 0.667478 -0.537623 0.929086
v 0.66577 -0.552016 0.919926
v 0.650977 -0.525076 0.962691
v 0.648841 -0.529775 0.964116
v 0.659572 -0.5344 0.947975
v 0.657347 -0.540006 0.948709
v 0.663011 -0.550415 0.929832
v 0.665523 -0.544109 0.929553
v 0.659084 -0.56434 0.920357
v 0.654895 -0.569974 0.920465
v 0.606534 -0.556157 0.97888
v 0.613409 -0.550791 0.979702
v 0.61986 -0.54486 0.979937
v 0.625791 -0.538409 0.979702
v 0.637707 -0.547659 0.966493
v 0.651658 -0.550794 0.949436
v 0.659953 -0.556473 0.930036
v 0.574963 -0.504046 0.999839
v 0.588005 -0.506654 0.998784
v 0.584841 -0.509841 0.998919
v 0.577781 -0.514178 0.998565
v 0.578345 -0.516206 0.99831
v 0.599365 -0.560955 0.977235
v 0.59199 -0.565194 0.974236
v 0.592395 -0.566658 0.973055
v 0.593731 -0.571696 0.967597
v -0.61125 -0.509007 0.991645
v -0.598698 -0.505501 0.996716
v -0.591121 -0.503368 0.997699
v -0.589086 -0.502795 0.997963
v -0.608755 -0.50831 0.992653
v -0.622602 -0.512177 0.987058
v -0.6253 -0.512916 0.985114
v -0.648455 -0.519187 0.964861
v -0.646354 -0.518631 0.967291
v -0.631547 -0.514629 0.980614
v -0.640264 -0.517018 0.974333
v -0.661405 -0.522519 0.945778
v -0.657878 -0.521657 0.952911
v -0.65241 -0.520235 0.960288
v -0.656661 -0.52136 0.955371
v -0.667738 -0.524065 0.932973
v -0.666309 -0.523716 0.935863
v -0.66206 -0.522679 0.944454
v -0.671085 -0.524661 0.917515
v -0.669634 -0.524403 0.924218
v -0.669085 -0.524305 0.926752
v -0.599676 -0.596133 0.91753
v -0.599429 -0.594719 0.92424
v -0.599335 -0.594184 0.926777
v -0.599147 -0.593109 0.931879
v -0.59523 -0.577393 0.960294
v -0.596574 -0.582495 0.954093
v -0.597533 -0.586452 0.945811
v -0.597687 -0.587087 0.944481
v -0.589902 -0.55749 0.980663
v -0.590054 -0.55805 0.980192
v -0.591986 -0.565163 0.974203
v -0.594217 -0.573551 0.964965
v -0.592683 -0.567726 0.972045
v -0.587869 -0.550153 0.984753
v -0.589725 -0.556851 0.981019
v -0.584092 -0.536521 0.992351
v -0.577802 -0.514108 0.998425
v -0.578358 -0.516089 0.997904
v -0.583383 -0.533985 0.993193
v -0.583928 -0.535929 0.992681
v -0.577094 -0.511588 0.999088
v -0.637239 -0.581361 0.930169
v -0.630876 -0.573214 0.949599
v -0.640213 -0.565213 0.949689
v -0.630629 -0.555629 0.966676
v -0.609425 -0.571449 0.965101
v -0.613977 -0.568796 0.965766
v -0.620486 -0.579707 0.949149
v -0.598519 -0.542426 0.98853
v -0.590174 -0.527975 0.995035
v -0.596712 -0.521712 0.995514
v -0.58681 -0.531027 0.994391
v -0.593292 -0.54653 0.987319
v -0.595709 -0.563165 0.97597
v -0.623513 -0.51564 0.98645
v -0.62153 -0.518292 0.987319
v -0.670036 -0.538655 0.919254
v -0.659084 -0.56434 0.920357
v -0.650179 -0.575179 0.920501
v -0.654895 -0.569974 0.920465
v -0.66577 -0.552016 0.919926
v -0.648214 -0.555876 0.949599
v -0.652665 -0.559358 0.940057
v -0.647687 -0.572687 0.930262
v -0.656361 -0.562239 0.930169
v -0.667478 -0.537623 0.929086
v -0.668856 -0.531047 0.928253
v -0.663948 -0.536196 0.938777
v -0.665548 -0.530021 0.937733
v -0.659572 -0.5344 0.947975
v -0.661379 -0.528689 0.946748
v -0.637707 -0.547659 0.966493
v -0.643796 -0.538977 0.965766
v -0.663011 -0.550415 0.929832
v -0.659259 -0.548198 0.939704
v -0.654707 -0.545486 0.949149
v -0.649515 -0.542384 0.957876
v -0.654502 -0.532232 0.956433
v -0.656491 -0.527017 0.955068
v -0.638165 -0.520709 0.97597
v -0.608454 -0.533454 0.989388
v -0.602975 -0.515174 0.995035
v -0.617426 -0.523519 0.98853
v -0.606027 -0.51181 0.994391
v -0.606534 -0.556157 0.97888
v -0.599365 -0.560955 0.977235
v -0.596406 -0.553883 0.982671
v -0.588005 -0.506654 0.998784
v -0.584841 -0.509841 0.998919
v -0.581654 -0.513005 0.998784
v -0.613655 -0.595036 0.919254
v -0.603689 -0.586379 0.946748
v -0.606047 -0.593856 0.928253
v -0.612623 -0.592478 0.929086
v -0.627016 -0.59077 0.919926
v -0.600076 -0.575977 0.962691
v -0.604775 -0.573841 0.964116
v -0.6094 -0.584572 0.947975
v -0.615006 -0.582347 0.948709
v -0.625415 -0.588011 0.929832
v -0.619109 -0.590523 0.929553
v -0.63934 -0.584084 0.920357
v -0.644974 -0.579895 0.920465
v -0.631157 -0.531534 0.97888
v -0.625791 -0.538409 0.979702
v -0.61986 -0.54486 0.979937
v -0.613409 -0.550791 0.979702
v -0.622659 -0.562707 0.966493
v -0.625794 -0.576658 0.949436
v -0.631473 -0.584953 0.930036
v -0.648841 -0.529775 0.964116
v -0.642647 -0.527141 0.971038
v -0.635955 -0.524365 0.977235
v -0.963186 0.142508 0.0
v -1.0 0.149666 0.0
v -1.0 0.625 0.0
v -0.037615 -0.625 0.0
v 0.929298 -0.126441 0.0
v 1.0 -0.625 0.0
v 0.963186 -0.142508 0.0
v 1.0 -0.149666 0.0
v 0.066076 -0.044391 0.0
v 0.070092 -0.044953 0.0
v 0.072827 -0.045 0.0
v -0.037615 0.625 0.0
v -0.027859 -0.032805 0.0
v -0.037615 -0.044391 0.0
v -0.027859 -0.043781 0.0
v 0.025799 -0.043781 0.0
v -0.02542 0.045244 0.0
v 0.012385 0.045244 0.0
v 0.012385 0.012317 0.0
v 0.045311 -0.038598 0.0
v 0.045311 -0.027622 0.0
v 0.025799 0.056219 0.0
v 0.055971 -0.042975 0.0
v 0.012385 0.001341 0.0
v 0.012385 -0.032805 0.0
v -0.022981 0.001341 0.0
v -0.022981 0.012317 0.0
v 0.094843 -0.040386 0.0
v 0.128238 -0.043781 0.0
v 0.08515 -0.043723 0.0
v 0.078707 -0.044391 0.0
v 0.179458 -0.043781 0.0
v 0.864688 -0.037209 0.0
v 0.867524 -0.044391 0.0
v -0.02542 0.056219 0.0
v 0.86 0.0 0.0
v 1.0 0.625 0.0
v 1.0 0.149666 0.0
v 0.963186 0.142508 0.0
v 0.114424 0.029881 0.0
v 0.108563 0.03923 0.0
v 0.166043 0.056219 0.0
v 0.078577 0.045357 0.0
v 0.086062 0.042656 0.0
v 0.047104 -0.028615 0.0
v 0.092983 0.038026 0.0
v 0.099022 0.031359 0.0
v 0.106287 0.005152 0.0
v 0.105274 -0.005673 0.0
v 0.102558 -0.014275 0.0
v 0.080306 -0.032978 0.0
v 0.070978 -0.034025 0.0
v 0.087592 -0.030296 0.0
v 0.093729 -0.02616 0.0
v 0.098422 -0.021209 0.0
v 0.057704 -0.032551 0.0
v 0.878461 -0.072093 0.0
v 0.900455 -0.10247 0.0
v 0.103144 0.023638 0.0
v 0.10581 0.012933 0.0
v 0.099535 0.047913 0.0
v 0.179458 0.056219 0.0
v 0.929298 0.126441 0.0
v 0.900455 0.10247 0.0
v 0.102886 -0.03525 0.0
v 0.110398 -0.027342 0.0
v 0.128238 -0.032805 0.0
v 0.115725 -0.017833 0.0
v 0.166043 -0.032805 0.0
v 0.878461 0.072093 0.0
v 0.864688 0.037209 0.0
v 0.118735 -0.007249 0.0
v 0.119702 0.004333 0.0
v 0.118263 0.01855 0.0
v 0.090036 0.05338 0.0
v 0.078888 0.056619 0.0
v 0.068844 0.057439 0.0
v 0.056873 0.056613 0.0
v 0.045311 0.053475 0.0
v 0.045311 0.040061 0.0
v 0.056575 0.044884 0.0
v 0.06873 0.046463 0.0
v -0.22542 -0.043781 0.0
v -0.210786 -0.043781 0.0
v -0.135176 -0.043781 0.0
v -0.122866 -0.016373 0.0
v -0.117131 -0.025317 0.0
v -0.172981 0.056219 0.0
v -0.186396 0.056219 0.0
v -0.1089 -0.033198 0.0
v -0.098459 -0.039266 0.0
v -0.086936 -0.042701 0.0
v -0.074563 -0.043781 0.0
v -0.047372 -0.043781 0.0
v -0.047372 0.056219 0.0
v -0.075592 0.056219 0.0
v -0.112728 0.04318 0.0
v -0.119799 0.035339 0.0
v -0.124447 0.026739 0.0
v -0.090039 0.054675 0.0
v -0.101739 0.050566 0.0
v -0.112623 0.043272 0.0
v -0.149811 -0.043781 0.0
v -0.159357 -0.015732 0.0
v -0.200668 -0.015732 0.0
v -0.127133 0.016886 0.0
v -0.127859 0.007477 0.0
v -0.126456 -0.005906 0.0
v -0.86 -0.0 0.0
v -0.864688 0.037209 0.0
v -0.878461 0.072093 0.0
v -0.900455 0.10247 0.0
v -0.929298 0.126441 0.0
v -0.929298 -0.126441 0.0
v -0.963186 -0.142508 0.0
v -1.0 -0.625 0.0
v -1.0 -0.149666 0.0
v -0.900455 -0.10247 0.0
v -0.878461 -0.072093 0.0
v -0.867524 -0.044391 0.0
v -0.864688 -0.037209 0.0
v -0.735424 -0.573913 0.6
v -0.984098 -0.573913 0.6
v -1.0 -0.625 0.6
v -0.984098 -0.454458 0.6
v 1.0 -0.149666 0.6
v 0.963186 -0.142508 0.6
v 1.0 -0.625 0.6
v 0.929298 -0.126441 0.6
v -0.219496 -0.089928 0.6
v 0.900455 -0.10247 0.6
v 0.878461 -0.072093 0.6
v 0.864688 -0.037209 0.6
v -0.219496 0.089928 0.6
v 0.86 0.0 0.6
v 0.900455 0.10247 0.6
v 0.929298 0.126441 0.6
v 1.0 0.625 0.6
v 0.963186 0.142508 0.6
v 1.0 0.149666 0.6
v 0.864688 0.037209 0.6
v 0.878461 0.072093 0.6
v -0.878461 -0.072093 0.6
v -0.900455 -0.10247 0.6
v -0.735424 -0.454458 0.6
v -0.900455 0.10247 0.6
v -0.878461 0.072093 0.6
v -0.735424 0.454458 0.6
v -0.929298 -0.126441 0.6
v -0.963186 -0.142508 0.6
v -1.0 -0.149666 0.6
v -0.929298 0.126441 0.6
v -1.0 0.625 0.6
v -0.735424 0.573913 0.6
v -0.984098 0.573913 0.6
v -0.413551 -0.089928 0.6
v -0.984098 0.454458 0.6
v -1.0 0.149666 0.6
v -0.963186 0.142508 0.6
v -0.864688 0.037209 0.6
v -0.86 -0.0 0.6
v -0.864688 -0.037209 0.6
v -0.413551 0.089928 0.6
newmtl 2
Ka 0.5019607843137255 0.25098039215686274 0.25098039215686274
Kd 0.5019607843137255 0.25098039215686274 0.25098039215686274
Ks 0.44313725490196076 0.2196078431372549 0.2196078431372549
d 0.0
endmtl
v -0.984098 -0.573913 0.599
v -0.984098 -0.454458 0.599
newmtl 3
Ka 0.7529411764705882 1.0 0.7529411764705882
Kd 0.7529411764705882 1.0 0.7529411764705882
Ks 0.3764705882352941 0.5019607843137255 0.3764705882352941
d 0.0
endmtl
v -0.735424 -0.454458 0.599
v -0.735424 -0.573913 0.599
v -0.735424 0.573913 0.599
v -0.735424 0.454458 0.599
v -0.984098 0.454458 0.599
v -0.984098 0.573913 0.599
v -0.219496 0.089928 0.7
v -0.219496 -0.089928 0.7
newmtl 4
Ka 0.5019607843137255 0.5019607843137255 0.5019607843137255
Kd 0.5019607843137255 0.5019607843137255 0.5019607843137255
Ks 0.25098039215686274 0.25098039215686274 0.25098039215686274
d 0.0
endmtl
v -0.413551 0.089928 0.7
v -0.413551 -0.089928 0.7
v -0.186396 0.056219 0.001
v -0.22542 -0.043781 0.001
newmtl 5
Ka 0.0 0.0 0.0
Kd 0.0 0.0 0.0
Ks 0.0 0.0 0.0
d 0.0
endmtl
v -0.210786 -0.043781 0.001
v -0.200668 -0.015732 0.001
v -0.159357 -0.015732 0.001
v -0.149811 -0.043781 0.001
v -0.135176 -0.043781 0.001
v -0.172981 0.056219 0.001
v -0.16273 -0.004756 0.001
v -0.196171 -0.004756 0.001
v -0.17765 0.037012 0.001
v -0.178612 0.04048 0.001
v -0.17925 0.044024 0.001
v -0.179574 0.044024 0.001
v -0.180227 0.040491 0.001
v -0.181118 0.037012 0.001
v -0.16273 -0.004756 0.0
v -0.196171 -0.004756 0.0
v -0.17765 0.037012 0.0
v -0.178612 0.04048 -0.0
v -0.17925 0.044024 0.0
v -0.179574 0.044024 0.0
v -0.180227 0.040491 0.0
v -0.181118 0.037012 0.0
v -0.074563 -0.043781 0.001
v -0.047372 -0.043781 0.001
v -0.047372 0.056219 0.001
v -0.075592 0.056219 0.001
v -0.127859 0.007477 0.001
v -0.127133 0.016886 0.001
v -0.124447 0.026739 0.001
v -0.119799 0.035339 0.001
v -0.112728 0.04318 0.001
v -0.112623 0.043272 0.001
v -0.101739 0.050566 0.001
v -0.090039 0.054675 0.001
v -0.086936 -0.042701 0.001
v -0.098459 -0.039266 0.001
v -0.1089 -0.033198 0.001
v -0.117131 -0.025317 0.001
v -0.122866 -0.016373 0.001
v -0.126456 -0.005906 0.001
v -0.107787 0.031221 0.001
v -0.102929 0.036378 0.001
v -0.095625 0.041097 0.001
v -0.087371 0.043985 0.001
v -0.075535 0.045244 0.001
v -0.060786 0.045244 0.001
v -0.060786 -0.032805 0.001
v -0.074982 -0.032805 0.001
v -0.085532 -0.031823 0.001
v -0.093947 -0.029197 0.001
v -0.100767 -0.025147 0.001
v -0.106376 -0.019607 0.001
v -0.110594 -0.012712 0.001
v -0.113527 -0.003312 0.001
v -0.114445 0.007191 0.001
v -0.113595 0.017143 0.001
v -0.111261 0.025053 0.001
v -0.075535 0.045244 0.0
v -0.060786 0.045244 0.0
v -0.087371 0.043985 0.0
v -0.095625 0.041097 0.0
v -0.102929 0.036378 0.0
v -0.107787 0.031221 -0.0
v -0.111261 0.025053 0.0
v -0.113595 0.017143 0.0
v -0.114445 0.007191 0.0
v -0.113527 -0.003312 0.0
v -0.110594 -0.012712 0.0
v -0.106376 -0.019607 0.0
v -0.100767 -0.025147 0.0
v -0.093947 -0.029197 -0.0
v -0.085532 -0.031823 0.0
v -0.074982 -0.032805 0.0
v -0.060786 -0.032805 0.0
v -0.027859 -0.032805 0.001
v -0.027859 -0.043781 0.001
v 0.025799 -0.043781 0.001
v 0.025799 0.056219 0.001
v -0.02542 0.056219 0.001
v -0.02542 0.045244 0.001
v 0.012385 0.045244 0.001
v 0.012385 0.012317 0.001
v -0.022981 0.012317 0.001
v -0.022981 0.001341 0.001
v 0.012385 0.001341 0.001
v 0.012385 -0.032805 0.001
v 0.045311 -0.027622 0.001
v 0.045311 -0.038598 0.001
v 0.055971 -0.042975 0.001
v 0.072827 -0.045 0.001
v 0.070092 -0.044953 0.001
v 0.08515 -0.043723 0.001
v 0.094843 -0.040386 0.001
v 0.102886 -0.03525 0.001
v 0.110398 -0.027342 0.001
v 0.115725 -0.017833 0.001
v 0.118735 -0.007249 0.001
v 0.119702 0.004333 0.001
v 0.068844 0.057439 0.001
v 0.078888 0.056619 0.001
v 0.090036 0.05338 0.001
v 0.099535 0.047913 0.001
v 0.108563 0.03923 0.001
v 0.114424 0.029881 0.001
v 0.118263 0.01855 0.001
v 0.045311 0.053475 0.001
v 0.056873 0.056613 0.001
v 0.045311 0.040061 0.001
v 0.06873 0.046463 0.001
v 0.056575 0.044884 0.001
v 0.106287 0.005152 0.001
v 0.10581 0.012933 0.001
v 0.103144 0.023638 0.001
v 0.099022 0.031359 0.001
v 0.092983 0.038026 0.001
v 0.086062 0.042656 0.001
v 0.078577 0.045357 0.001
v 0.070978 -0.034025 0.001
v 0.080306 -0.032978 0.001
v 0.087592 -0.030296 0.001
v 0.093729 -0.02616 0.001
v 0.098422 -0.021209 0.001
v 0.102558 -0.014275 0.001
v 0.105274 -0.005673 0.001
v 0.047104 -0.028615 0.001
v 0.057704 -0.032551 0.001
v 0.128238 -0.032805 0.001
v 0.128238 -0.043781 0.001
v 0.179458 -0.043781 0.001
v 0.179458 0.056219 0.001
v 0.166043 0.056219 0.001
v 0.166043 -0.032805 0.001
v -1.0 0.3 0.0
v -1.0 0.3 0.6
v -1.0 0.149666 -0.0
newmtl 6
Ka 1.0 1.0 0.0
Kd 1.0 1.0 0.0
Ks 0.5019607843137255 0.5019607843137255 0.0
d 0.0
endmtl
v -1.0 0.299833 0.6
v -1.01 0.3 -0.01
v -1.01 0.14 -0.01
v -1.01 0.3 0.6
v -1.01 0.14 0.61
v -1.01 0.3 0.61
v -0.95 0.3 -0.0
v -0.95 0.3 -0.01
v -1.0 -0.3 0.6
v -1.01 -0.3 0.6
v -1.0 -0.3 0.0
v -1.01 -0.3 -0.01
v -0.95 -0.3 0.0
v -0.95 -0.3 -0.01
v -0.980892 -0.136941 0.61
v -1.01 -0.14 0.61
v -1.01 -0.3 0.61
v -0.90596 0.093678 0.61
v -0.813542 0.226725 0.61
v -0.92771 0.113262 0.61
v -0.847808 0.252376 0.61
v -0.953057 0.127896 0.61
v -0.870767 -0.014634 0.61
v -0.71 -0.0 0.61
v -0.870767 0.014634 0.61
v -0.713054 0.042694 0.61
v -0.876852 0.043262 0.61
v -0.92771 -0.113262 0.61
v -0.813542 -0.226725 0.61
v -0.90596 -0.093678 0.61
v -0.783275 -0.196458 0.61
v -0.888756 -0.07 0.61
v -0.967306 -0.296946 0.61
v -0.92548 -0.287848 0.61
v -0.953057 -0.127896 0.61
v -0.885375 -0.27289 0.61
v -0.847808 -0.252376 0.61
v -0.967306 0.296946 0.61
v -0.980892 0.136941 0.61
v -0.92548 0.287848 0.61
v -0.885375 0.27289 0.61
v -0.722152 0.08452 0.61
v -0.73711 0.124625 0.61
v -0.888756 0.07 0.61
v -0.757624 0.162192 0.61
v -0.783275 0.196458 0.61
v -0.757624 -0.162192 0.61
v -0.73711 -0.124625 0.61
v -0.876852 -0.043262 0.61
v -0.722152 -0.08452 0.61
v -0.713054 -0.042694 0.61
v -1.0 -0.299833 0.6
v -0.967306 -0.296946 0.6
v -0.970387 -0.144675 0.6
v -0.895458 0.096851 0.6
v -0.783275 0.196458 0.6
v -0.813542 0.226725 0.6
v -0.917046 0.117727 0.6
v -0.847808 0.252376 0.6
v -0.942361 0.133884 0.6
v -0.885375 0.27289 0.6
v -0.92548 0.287848 0.6
v -0.970387 0.144675 0.6
v -0.967306 0.296946 0.6
v -0.917046 -0.117727 0.6
v -0.847808 -0.252376 0.6
v -0.942361 -0.133884 0.6
v -0.885375 -0.27289 0.6
v -0.92548 -0.287848 0.6
v -0.860753 0.015016 0.6
v -0.71 -0.0 0.6
v -0.860753 -0.015016 0.6
v -0.713054 -0.042694 0.6
v -0.866736 -0.044445 0.6
v -0.722152 -0.08452 0.6
v -0.73711 -0.124625 0.6
v -0.757624 -0.162192 0.6
v -0.895458 -0.096851 0.6
v -0.783275 -0.196458 0.6
v -0.813542 -0.226725 0.6
v -0.757624 0.162192 0.6
v -0.73711 0.124625 0.6
v -0.866736 0.044445 0.6
v -0.722152 0.08452 0.6
v -0.713054 0.042694 0.6
v -0.95 -0.5 -0.0
v -0.6 -0.5 -0.0
v -0.6 0.5 -0.0
v -0.895458 -0.096851 -0.0
v -0.917046 -0.117727 -0.0
v -0.970387 -0.144675 -0.0
v -0.942361 -0.133884 -0.0
v -0.970387 0.144675 -0.0
v -0.95 0.5 -0.0
v -0.942361 0.133884 -0.0
v -0.917046 0.117727 -0.0
v -0.895458 0.096851 -0.0
v -0.860753 0.015016 -0.0
v -0.866736 0.044445 -0.0
v -0.878461 0.072093 -0.0
v -0.860753 -0.015016 -0.0
v -0.866736 -0.044445 -0.0
v -0.878461 -0.072093 -0.0
v -0.6 -0.5 -0.01
v -0.6 0.5 -0.01
v -0.888756 -0.07 -0.01
v -0.876852 -0.043262 -0.01
v -0.95 0.5 -0.01
v -0.90596 0.093678 -0.01
v -0.92771 0.113262 -0.01
v -0.953057 -0.127896 -0.01
v -0.92771 -0.113262 -0.01
v -0.90596 -0.093678 -0.01
v -0.95 -0.5 -0.01
v -0.870767 -0.014634 -0.01
v -0.980892 0.136941 -0.01
v -0.953057 0.127896 -0.01
v -1.01 -0.14 -0.01
v -0.980892 -0.136941 -0.01
v -0.870767 0.014634 -0.01
v -0.876852 0.043262 -0.01
v -0.888756 0.07 -0.01
v 0.96 0.3 0.6
v 0.96 0.3 0.61
v 1.0 0.3 0.6
v 1.01 0.3 0.61
v 1.0 0.3 0.0
v 1.01 0.3 -0.01
v 0.95 0.3 -0.0
v 0.95 0.3 -0.01
v 0.7 0.3 0.6
v 0.7 0.3 0.61
v 0.76 0.3 0.6
v 0.76 0.3 0.61
v 0.95 -0.3 0.0
v 0.95 -0.3 -0.01
v 1.0 -0.3 0.0
v 1.01 -0.3 -0.01
v 1.0 -0.3 0.6
v 1.01 -0.3 0.61
v 0.96 -0.3 0.6
v 0.96 -0.3 0.61
v 0.76 -0.3 0.61
v 0.7 -0.3 0.61
v 0.76 -0.3 0.6
v 0.7 -0.3 0.6
v 1.0 0.149666 -0.0
v 1.01 0.14 0.61
v 1.01 0.14 -0.01
v 0.96 -0.625 0.61
v 0.76 -0.625 0.61
v 1.01 -0.14 0.61
v 0.76 0.625 0.61
v 0.96 0.625 0.61
v 0.87 0.0 0.61
v 0.87351 -0.031153 0.61
v 0.883864 -0.060744 0.61
v 0.978847 0.13649 0.61
v 0.949256 0.126136 0.61
v 0.922711 0.109456 0.61
v 0.978847 -0.13649 0.61
v 0.949256 -0.126136 0.61
v 0.922711 -0.109456 0.61
v 0.900544 -0.087289 0.61
v 0.87351 0.031153 0.61
v 0.883864 0.060744 0.61
v 0.900544 0.087289 0.61
v 0.76 -0.625 0.6
v 0.96 -0.625 0.6
v 0.96 0.625 0.6
v 0.76 0.625 0.6
v 0.863449 0.031983 0.6
v 0.968318 -0.144092 0.6
v 0.938553 -0.131892 0.6
v 0.912075 -0.113625 0.6
v 0.873639 0.062495 0.6
v 0.968318 0.144092 0.6
v 0.938553 0.131892 0.6
v 0.912075 0.113625 0.6
v 0.8901 0.090133 0.6
v 0.863449 -0.031983 0.6
v 0.873639 -0.062495 0.6
v 0.8901 -0.090133 0.6
v 0.95 0.5 -0.0
v 0.6 0.5 -0.0
v 0.6 -0.5 -0.0
v 0.968318 -0.144092 -0.0
v 0.938553 -0.131892 -0.0
v 0.912075 -0.113625 -0.0
v 0.8901 -0.090133 -0.0
v 0.873639 -0.062495 -0.0
v 0.863449 -0.031983 -0.0
v 0.95 -0.5 -0.0
v 0.86 0.0 -0.0
v 0.968318 0.144092 -0.0
v 0.938553 0.131892 -0.0
v 0.912075 0.113625 -0.0
v 0.863449 0.031983 -0.0
v 0.873639 0.062495 -0.0
v 0.8901 0.090133 -0.0
v 0.6 0.5 -0.01
v 0.6 -0.5 -0.01
v 0.95 -0.5 -0.01
v 0.95 0.5 -0.01
v 1.01 -0.14 -0.01
v 0.978847 -0.13649 -0.01
v 0.978847 0.13649 -0.01
v 0.949256 0.126136 -0.01
v 0.922711 0.109456 -0.01
v 0.900544 -0.087289 -0.01
v 0.922711 -0.109456 -0.01
v 0.949256 -0.126136 -0.01
v 0.87351 0.031153 -0.01
v 0.883864 0.060744 -0.01
v 0.900544 0.087289 -0.01
v 0.87 0.0 -0.01
v 0.87351 -0.031153 -0.01
v 0.883864 -0.060744 -0.01
usemtl 1
f 1// 2// 3//
f 3// 2// 4//
f 5// 6// 7//
f 7// 8// 5//
f 5// 8// 9//
f 5// 9// 4//
f 4// 9// 10//
f 4// 10// 3//
f 6// 5// 11//
f 11// 5// 12//
f 11// 12// 13//
f 14// 15// 12//
f 12// 15// 16//
f 12// 16// 13//
f 17// 18// 19//
f 19// 18// 20//
f 19// 20// 12//
f 12// 20// 21//
f 12// 21// 14//
f 17// 19// 22//
f 22// 19// 23//
f 22// 23// 24//
f 25// 26// 23//
f 23// 26// 27//
f 23// 27// 24//
f 25// 23// 28//
f 28// 23// 29//
f 28// 29// 30//
f 30// 29// 31//
f 30// 31// 32//
f 32// 31// 33//
f 33// 31// 34//
f 33// 34// 35//
f 35// 34// 36//
f 37// 38// 39//
f 39// 40// 37//
f 37// 40// 41//
f 37// 41// 36//
f 36// 41// 42//
f 36// 42// 35//
f 38// 37// 43//
f 43// 37// 44//
f 43// 44// 45//
f 46// 47// 44//
f 44// 47// 48//
f 44// 48// 45//
f 49// 50// 51//
f 51// 50// 52//
f 51// 52// 44//
f 44// 52// 53//
f 44// 53// 46//
f 49// 51// 54//
f 54// 51// 55//
f 54// 55// 56//
f 57// 58// 55//
f 55// 58// 59//
f 55// 59// 56//
f 57// 55// 60//
f 60// 55// 61//
f 60// 61// 62//
f 62// 61// 63//
f 62// 63// 64//
f 64// 63// 65//
f 65// 63// 66//
f 65// 66// 67//
f 67// 66// 68//
f 69// 70// 71//
f 71// 72// 69//
f 69// 72// 73//
f 69// 73// 68//
f 68// 73// 74//
f 68// 74// 67//
f 70// 69// 75//
f 75// 69// 76//
f 75// 76// 77//
f 78// 79// 76//
f 76// 79// 80//
f 76// 80// 77//
f 81// 82// 83//
f 83// 82// 84//
f 83// 84// 76//
f 76// 84// 85//
f 76// 85// 78//
f 81// 83// 86//
f 86// 83// 87//
f 86// 87// 88//
f 89// 90// 87//
f 87// 90// 91//
f 87// 91// 88//
f 89// 87// 92//
f 92// 87// 93//
f 92// 93// 94//
f 94// 93// 95//
f 94// 95// 96//
f 96// 95// 97//
f 97// 95// 98//
f 97// 98// 99//
f 99// 98// 100//
f 101// 102// 103//
f 103// 104// 101//
f 101// 104// 105//
f 101// 105// 100//
f 100// 105// 106//
f 100// 106// 99//
f 102// 101// 107//
f 107// 101// 108//
f 107// 108// 109//
f 110// 111// 108//
f 108// 111// 112//
f 108// 112// 109//
f 113// 114// 115//
f 115// 114// 116//
f 115// 116// 108//
f 108// 116// 117//
f 108// 117// 110//
f 113// 115// 118//
f 118// 115// 119//
f 118// 119// 120//
f 121// 122// 119//
f 119// 122// 123//
f 119// 123// 120//
f 121// 119// 124//
f 124// 119// 125//
f 124// 125// 126//
f 126// 125// 127//
f 126// 127// 128//
f 128// 127// 1//
f 1// 127// 2//
f 129// 130// 131//
f 131// 130// 132//
f 100// 98// 125//
f 95// 34// 98//
f 98// 34// 31//
f 4// 2// 31//
f 36// 34// 61//
f 61// 34// 63//
f 31// 2// 98//
f 98// 2// 127//
f 98// 127// 125//
f 83// 76// 69//
f 51// 44// 37//
f 115// 108// 101//
f 63// 34// 66//
f 66// 34// 95//
f 66// 95// 68//
f 68// 95// 93//
f 68// 93// 69//
f 69// 93// 87//
f 69// 87// 83//
f 31// 29// 4//
f 4// 29// 23//
f 4// 23// 5//
f 5// 23// 19//
f 5// 19// 12//
f 36// 61// 37//
f 37// 61// 55//
f 37// 55// 51//
f 100// 125// 101//
f 101// 125// 119//
f 101// 119// 115//
f 133// 130// 134//
f 135// 136// 137//
f 137// 136// 138//
f 139// 140// 141//
f 142// 143// 144//
f 42// 41// 145//
f 43// 45// 146//
f 53// 147// 46//
f 46// 147// 148//
f 46// 148// 47//
f 47// 148// 48//
f 40// 39// 149//
f 149// 39// 38//
f 150// 151// 152//
f 152// 151// 153//
f 152// 153// 146//
f 42// 145// 35//
f 35// 145// 154//
f 35// 154// 33//
f 155// 156// 157//
f 157// 156// 158//
f 157// 158// 159//
f 150// 160// 161//
f 38// 43// 149//
f 149// 43// 146//
f 149// 146// 162//
f 162// 146// 153//
f 162// 153// 163//
f 163// 153// 151//
f 163// 151// 164//
f 164// 151// 150//
f 164// 150// 165//
f 165// 150// 161//
f 166// 167// 168//
f 168// 167// 169//
f 170// 171// 172//
f 172// 171// 173//
f 172// 173// 174//
f 166// 174// 167//
f 167// 174// 173//
f 167// 173// 175//
f 175// 173// 171//
f 175// 171// 176//
f 176// 171// 158//
f 176// 158// 177//
f 177// 158// 156//
f 177// 156// 178//
f 178// 156// 155//
f 178// 155// 145//
f 145// 155// 179//
f 145// 179// 154//
f 170// 180// 171//
f 171// 180// 181//
f 171// 181// 158//
f 158// 181// 182//
f 158// 182// 159//
f 183// 134// 184//
f 185// 186// 187//
f 188// 189// 190//
f 185// 184// 191//
f 192// 186// 193//
f 193// 186// 185//
f 193// 185// 194//
f 194// 185// 191//
f 194// 195// 193//
f 193// 195// 196//
f 193// 196// 192//
f 192// 196// 197//
f 192// 197// 198//
f 198// 197// 199//
f 200// 201// 202//
f 202// 201// 203//
f 204// 205// 206//
f 142// 144// 206//
f 206// 144// 207//
f 206// 207// 204//
f 203// 208// 202//
f 202// 208// 209//
f 202// 209// 210//
f 62// 211// 60//
f 60// 211// 57//
f 212// 213// 214//
f 214// 213// 211//
f 214// 211// 215//
f 215// 211// 62//
f 215// 62// 64//
f 216// 217// 218//
f 218// 217// 219//
f 218// 219// 220//
f 220// 219// 212//
f 56// 59// 221//
f 221// 59// 58//
f 216// 222// 217//
f 217// 222// 223//
f 217// 223// 224//
f 224// 223// 225//
f 224// 225// 226//
f 226// 227// 224//
f 224// 227// 228//
f 224// 228// 229//
f 229// 228// 230//
f 229// 230// 231//
f 212// 219// 213//
f 213// 219// 217//
f 213// 217// 232//
f 232// 217// 224//
f 232// 224// 233//
f 233// 224// 229//
f 233// 229// 205//
f 205// 229// 231//
f 205// 231// 206//
f 206// 231// 234//
f 206// 234// 142//
f 139// 141// 235//
f 235// 141// 236//
f 235// 236// 237//
f 50// 49// 238//
f 238// 49// 54//
f 239// 52// 50//
f 45// 48// 146//
f 146// 48// 148//
f 146// 148// 152//
f 152// 148// 147//
f 152// 147// 239//
f 239// 147// 53//
f 239// 53// 52//
f 192// 240// 186//
f 186// 240// 241//
f 186// 241// 187//
f 187// 241// 242//
f 187// 242// 243//
f 243// 242// 244//
f 243// 244// 140//
f 140// 244// 245//
f 140// 245// 141//
f 141// 245// 246//
f 141// 246// 236//
f 236// 246// 221//
f 236// 221// 237//
f 50// 238// 239//
f 239// 238// 135//
f 239// 135// 152//
f 152// 135// 137//
f 152// 137// 150//
f 150// 137// 138//
f 150// 138// 160//
f 184// 185// 183//
f 183// 185// 187//
f 183// 187// 207//
f 207// 187// 243//
f 207// 243// 204//
f 204// 243// 140//
f 204// 140// 205//
f 205// 140// 139//
f 205// 139// 233//
f 233// 139// 235//
f 233// 235// 232//
f 232// 235// 237//
f 232// 237// 213//
f 213// 237// 221//
f 213// 221// 211//
f 211// 221// 58//
f 211// 58// 57//
f 184// 130// 247//
f 247// 248// 184//
f 184// 248// 249//
f 184// 249// 191//
f 134// 130// 184//
f 41// 40// 145//
f 145// 40// 149//
f 145// 149// 178//
f 178// 149// 162//
f 178// 162// 177//
f 177// 162// 163//
f 177// 163// 176//
f 176// 163// 164//
f 176// 164// 175//
f 175// 164// 165//
f 175// 165// 167//
f 167// 165// 161//
f 167// 161// 169//
f 169// 161// 250//
f 169// 250// 190//
f 189// 251// 190//
f 190// 251// 252//
f 190// 252// 169//
f 169// 252// 253//
f 169// 253// 168//
f 210// 209// 254//
f 254// 209// 255//
f 254// 255// 256//
f 143// 200// 144//
f 144// 200// 202//
f 144// 202// 207//
f 207// 202// 210//
f 207// 210// 183//
f 183// 210// 254//
f 183// 254// 134//
f 134// 254// 256//
f 134// 256// 133//
f 199// 188// 198//
f 198// 188// 190//
f 198// 190// 192//
f 192// 190// 250//
f 192// 250// 240//
f 240// 250// 161//
f 240// 161// 241//
f 241// 161// 160//
f 241// 160// 242//
f 242// 160// 138//
f 242// 138// 244//
f 244// 138// 136//
f 244// 136// 245//
f 245// 136// 135//
f 245// 135// 246//
f 246// 135// 238//
f 246// 238// 221//
f 221// 238// 54//
f 221// 54// 56//
f 223// 222// 257//
f 258// 255// 209//
f 259// 260// 256//
f 256// 260// 261//
f 256// 261// 133//
f 133// 261// 132//
f 133// 132// 130//
f 255// 258// 256//
f 256// 258// 262//
f 256// 262// 259//
f 209// 208// 258//
f 258// 208// 203//
f 258// 203// 263//
f 263// 203// 201//
f 263// 201// 264//
f 265// 266// 142//
f 142// 234// 265//
f 265// 234// 231//
f 265// 231// 230//
f 201// 200// 264//
f 264// 200// 143//
f 264// 143// 267//
f 267// 143// 142//
f 267// 142// 268//
f 268// 142// 266//
f 230// 228// 265//
f 265// 228// 227//
f 265// 227// 269//
f 269// 227// 226//
f 269// 226// 270//
f 270// 226// 257//
f 257// 226// 225//
f 257// 225// 223//
f 271// 272// 216//
f 272// 273// 216//
f 216// 273// 274//
f 216// 274// 222//
f 222// 274// 275//
f 222// 275// 257//
f 271// 216// 276//
f 276// 216// 218//
f 276// 218// 220//
f 64// 65// 277//
f 220// 212// 276//
f 276// 212// 214//
f 276// 214// 277//
f 277// 214// 215//
f 277// 215// 64//
f 278// 279// 155//
f 155// 279// 179//
f 179// 279// 280//
f 179// 280// 154//
f 154// 280// 32//
f 154// 32// 33//
f 157// 159// 281//
f 180// 282// 181//
f 181// 282// 281//
f 181// 281// 182//
f 182// 281// 159//
f 157// 281// 155//
f 155// 281// 283//
f 155// 283// 278//
f 180// 170// 282//
f 282// 170// 172//
f 282// 172// 174//
f 251// 189// 284//
f 168// 285// 286//
f 286// 287// 168//
f 168// 287// 288//
f 168// 288// 166//
f 166// 288// 289//
f 166// 289// 174//
f 174// 289// 290//
f 174// 290// 282//
f 285// 168// 291//
f 291// 168// 253//
f 291// 253// 284//
f 284// 253// 252//
f 284// 252// 251//
f 191// 249// 292//
f 293// 196// 294//
f 294// 196// 195//
f 294// 195// 292//
f 292// 195// 194//
f 292// 194// 191//
f 189// 188// 284//
f 284// 188// 199//
f 284// 199// 295//
f 295// 199// 197//
f 295// 197// 296//
f 296// 197// 196//
f 296// 196// 297//
f 297// 196// 293//
f 249// 248// 292//
f 292// 248// 247//
f 292// 247// 298//
f 298// 247// 130//
f 298// 130// 129//
f 299// 300// 301//
f 301// 300// 302//
f 303// 304// 305//
f 306// 307// 308//
f 309// 132// 310//
f 311// 312// 263//
f 74// 73// 313//
f 75// 77// 314//
f 85// 315// 78//
f 78// 315// 316//
f 78// 316// 79//
f 79// 316// 80//
f 72// 71// 317//
f 317// 71// 70//
f 318// 319// 320//
f 320// 319// 321//
f 320// 321// 314//
f 74// 313// 67//
f 65// 67// 277//
f 277// 67// 313//
f 277// 313// 276//
f 276// 313// 322//
f 276// 322// 323//
f 323// 322// 324//
f 323// 324// 325//
f 325// 324// 326//
f 325// 326// 327//
f 318// 328// 329//
f 70// 75// 317//
f 317// 75// 314//
f 317// 314// 330//
f 330// 314// 321//
f 330// 321// 331//
f 331// 321// 319//
f 331// 319// 332//
f 332// 319// 318//
f 332// 318// 333//
f 333// 318// 329//
f 326// 334// 327//
f 327// 334// 335//
f 327// 335// 275//
f 275// 274// 327//
f 327// 274// 273//
f 327// 273// 325//
f 325// 273// 272//
f 325// 272// 323//
f 323// 272// 271//
f 323// 271// 276//
f 309// 310// 336//
f 337// 132// 309//
f 264// 267// 338//
f 339// 340// 341//
f 341// 340// 342//
f 341// 342// 312//
f 312// 342// 258//
f 312// 258// 263//
f 343// 344// 345//
f 345// 344// 346//
f 347// 348// 349//
f 306// 308// 349//
f 349// 308// 350//
f 349// 350// 347//
f 346// 351// 345//
f 345// 351// 352//
f 345// 352// 353//
f 94// 354// 92//
f 92// 354// 89//
f 355// 356// 357//
f 357// 356// 354//
f 357// 354// 358//
f 358// 354// 94//
f 358// 94// 96//
f 359// 360// 361//
f 361// 360// 362//
f 361// 362// 363//
f 363// 362// 355//
f 88// 91// 364//
f 364// 91// 90//
f 359// 365// 360//
f 360// 365// 366//
f 360// 366// 367//
f 367// 366// 368//
f 367// 368// 369//
f 369// 370// 367//
f 367// 370// 371//
f 367// 371// 372//
f 372// 371// 373//
f 372// 373// 374//
f 355// 362// 356//
f 356// 362// 360//
f 356// 360// 375//
f 375// 360// 367//
f 375// 367// 376//
f 376// 367// 372//
f 376// 372// 348//
f 348// 372// 374//
f 348// 374// 349//
f 349// 374// 377//
f 349// 377// 306//
f 303// 305// 378//
f 378// 305// 379//
f 378// 379// 380//
f 82// 81// 381//
f 381// 81// 86//
f 382// 84// 82//
f 77// 80// 314//
f 314// 80// 316//
f 314// 316// 320//
f 320// 316// 315//
f 320// 315// 382//
f 382// 315// 85//
f 382// 85// 84//
f 312// 383// 341//
f 341// 383// 384//
f 341// 384// 339//
f 339// 384// 385//
f 339// 385// 386//
f 386// 385// 387//
f 386// 387// 304//
f 304// 387// 388//
f 304// 388// 305//
f 305// 388// 389//
f 305// 389// 379//
f 379// 389// 364//
f 379// 364// 380//
f 82// 381// 382//
f 382// 381// 299//
f 382// 299// 320//
f 320// 299// 301//
f 320// 301// 318//
f 318// 301// 302//
f 318// 302// 328//
f 310// 340// 336//
f 336// 340// 339//
f 336// 339// 350//
f 350// 339// 386//
f 350// 386// 347//
f 347// 386// 304//
f 347// 304// 348//
f 348// 304// 303//
f 348// 303// 376//
f 376// 303// 378//
f 376// 378// 375//
f 375// 378// 380//
f 375// 380// 356//
f 356// 380// 364//
f 356// 364// 354//
f 354// 364// 90//
f 354// 90// 89//
f 132// 261// 310//
f 310// 261// 260//
f 310// 260// 340//
f 340// 260// 259//
f 340// 259// 342//
f 342// 259// 262//
f 342// 262// 258//
f 73// 72// 313//
f 313// 72// 317//
f 313// 317// 322//
f 322// 317// 330//
f 322// 330// 324//
f 324// 330// 331//
f 324// 331// 326//
f 326// 331// 332//
f 326// 332// 334//
f 334// 332// 333//
f 334// 333// 390//
f 390// 333// 329//
f 390// 329// 391//
f 391// 329// 392//
f 391// 392// 338//
f 267// 268// 338//
f 338// 268// 266//
f 338// 266// 391//
f 391// 266// 265//
f 391// 265// 390//
f 390// 265// 269//
f 390// 269// 334//
f 334// 269// 270//
f 334// 270// 335//
f 335// 270// 257//
f 335// 257// 275//
f 353// 352// 393//
f 393// 352// 394//
f 393// 394// 395//
f 307// 343// 308//
f 308// 343// 345//
f 308// 345// 350//
f 350// 345// 353//
f 350// 353// 336//
f 336// 353// 393//
f 336// 393// 309//
f 309// 393// 395//
f 309// 395// 337//
f 263// 264// 311//
f 311// 264// 338//
f 311// 338// 312//
f 312// 338// 392//
f 312// 392// 383//
f 383// 392// 329//
f 383// 329// 384//
f 384// 329// 328//
f 384// 328// 385//
f 385// 328// 302//
f 385// 302// 387//
f 387// 302// 300//
f 387// 300// 388//
f 388// 300// 299//
f 388// 299// 389//
f 389// 299// 381//
f 389// 381// 364//
f 364// 381// 86//
f 364// 86// 88//
f 396// 397// 398//
f 398// 397// 399//
f 400// 401// 402//
f 30// 32// 280//
f 403// 404// 405//
f 406// 293// 294//
f 293// 406// 297//
f 284// 295// 407//
f 408// 286// 285//
f 10// 9// 409//
f 11// 13// 410//
f 21// 411// 14//
f 14// 411// 412//
f 14// 412// 15//
f 15// 412// 16//
f 8// 7// 413//
f 413// 7// 6//
f 414// 415// 416//
f 416// 415// 417//
f 416// 417// 410//
f 10// 409// 3//
f 3// 409// 418//
f 3// 418// 1//
f 419// 420// 421//
f 421// 420// 422//
f 421// 422// 423//
f 414// 424// 425//
f 6// 11// 413//
f 413// 11// 410//
f 413// 410// 426//
f 426// 410// 417//
f 426// 417// 427//
f 427// 417// 415//
f 427// 415// 428//
f 428// 415// 414//
f 428// 414// 429//
f 429// 414// 425//
f 430// 431// 432//
f 432// 431// 433//
f 434// 435// 436//
f 436// 435// 437//
f 436// 437// 438//
f 430// 438// 431//
f 431// 438// 437//
f 431// 437// 439//
f 439// 437// 435//
f 439// 435// 440//
f 440// 435// 422//
f 440// 422// 441//
f 441// 422// 420//
f 441// 420// 442//
f 442// 420// 419//
f 442// 419// 409//
f 409// 419// 443//
f 409// 443// 418//
f 434// 444// 435//
f 435// 444// 445//
f 435// 445// 422//
f 422// 445// 446//
f 422// 446// 423//
f 447// 448// 449//
f 450// 451// 452//
f 447// 453// 454//
f 455// 448// 456//
f 456// 448// 447//
f 456// 447// 457//
f 457// 447// 454//
f 457// 458// 456//
f 456// 458// 459//
f 456// 459// 455//
f 455// 459// 460//
f 455// 460// 461//
f 461// 460// 462//
f 407// 295// 406//
f 406// 295// 296//
f 406// 296// 297//
f 463// 464// 465//
f 463// 465// 403//
f 466// 25// 28//
f 281// 467// 283//
f 283// 467// 468//
f 283// 468// 278//
f 28// 30// 466//
f 466// 30// 280//
f 466// 280// 469//
f 469// 280// 279//
f 24// 27// 470//
f 470// 27// 26//
f 281// 282// 467//
f 467// 282// 290//
f 467// 290// 471//
f 290// 289// 471//
f 471// 289// 288//
f 471// 288// 408//
f 408// 288// 287//
f 408// 287// 286//
f 291// 465// 285//
f 285// 465// 464//
f 285// 464// 408//
f 408// 464// 472//
f 408// 472// 471//
f 471// 472// 473//
f 471// 473// 467//
f 467// 473// 469//
f 467// 469// 468//
f 468// 469// 279//
f 468// 279// 278//
f 400// 402// 474//
f 474// 402// 475//
f 474// 475// 476//
f 18// 17// 477//
f 477// 17// 22//
f 478// 20// 18//
f 13// 16// 410//
f 410// 16// 412//
f 410// 412// 416//
f 416// 412// 411//
f 416// 411// 478//
f 478// 411// 21//
f 478// 21// 20//
f 455// 479// 448//
f 448// 479// 480//
f 448// 480// 449//
f 449// 480// 481//
f 449// 481// 482//
f 482// 481// 483//
f 482// 483// 401//
f 401// 483// 484//
f 401// 484// 402//
f 402// 484// 485//
f 402// 485// 475//
f 475// 485// 470//
f 475// 470// 476//
f 18// 477// 478//
f 478// 477// 396//
f 478// 396// 416//
f 416// 396// 398//
f 416// 398// 414//
f 414// 398// 399//
f 414// 399// 424//
f 453// 447// 405//
f 405// 447// 449//
f 405// 449// 403//
f 403// 449// 482//
f 403// 482// 463//
f 463// 482// 401//
f 463// 401// 464//
f 464// 401// 400//
f 464// 400// 472//
f 472// 400// 474//
f 472// 474// 473//
f 473// 474// 476//
f 473// 476// 469//
f 469// 476// 470//
f 469// 470// 466//
f 466// 470// 26//
f 466// 26// 25//
f 453// 129// 486//
f 404// 487// 405//
f 405// 487// 488//
f 405// 488// 453//
f 453// 488// 129//
f 486// 489// 453//
f 453// 489// 490//
f 453// 490// 454//
f 9// 8// 409//
f 409// 8// 413//
f 409// 413// 442//
f 442// 413// 426//
f 442// 426// 441//
f 441// 426// 427//
f 441// 427// 440//
f 440// 427// 428//
f 440// 428// 439//
f 439// 428// 429//
f 439// 429// 431//
f 431// 429// 425//
f 431// 425// 433//
f 433// 425// 491//
f 433// 491// 452//
f 451// 492// 452//
f 452// 492// 493//
f 452// 493// 433//
f 433// 493// 494//
f 433// 494// 432//
f 291// 284// 465//
f 465// 284// 407//
f 465// 407// 403//
f 403// 407// 406//
f 403// 406// 404//
f 404// 406// 294//
f 404// 294// 487//
f 487// 294// 292//
f 487// 292// 488//
f 488// 292// 298//
f 488// 298// 129//
f 462// 450// 461//
f 461// 450// 452//
f 461// 452// 455//
f 455// 452// 491//
f 455// 491// 479//
f 479// 491// 425//
f 479// 425// 480//
f 480// 425// 424//
f 480// 424// 481//
f 481// 424// 399//
f 481// 399// 483//
f 483// 399// 397//
f 483// 397// 484//
f 484// 397// 396//
f 484// 396// 485//
f 485// 396// 477//
f 485// 477// 470//
f 470// 477// 22//
f 470// 22// 24//
f 495// 394// 352//
f 496// 497// 395//
f 395// 497// 498//
f 395// 498// 337//
f 337// 498// 131//
f 337// 131// 132//
f 394// 495// 395//
f 395// 495// 499//
f 395// 499// 496//
f 352// 351// 495//
f 495// 351// 346//
f 495// 346// 500//
f 500// 346// 344//
f 500// 344// 501//
f 502// 503// 306//
f 306// 377// 502//
f 502// 377// 374//
f 502// 374// 373//
f 344// 343// 501//
f 501// 343// 307//
f 501// 307// 504//
f 504// 307// 306//
f 504// 306// 505//
f 505// 306// 503//
f 365// 506// 507//
f 373// 371// 502//
f 502// 371// 370//
f 502// 370// 508//
f 508// 370// 369//
f 508// 369// 368//
f 507// 509// 365//
f 365// 509// 508//
f 365// 508// 366//
f 366// 508// 368//
f 510// 511// 355//
f 355// 511// 512//
f 355// 512// 363//
f 363// 512// 361//
f 506// 365// 512//
f 512// 365// 359//
f 512// 359// 361//
f 96// 97// 358//
f 358// 97// 513//
f 358// 513// 357//
f 357// 513// 514//
f 357// 514// 355//
f 355// 514// 515//
f 355// 515// 510//
f 516// 128// 1//
f 421// 423// 517//
f 1// 418// 516//
f 516// 418// 443//
f 516// 443// 517//
f 517// 443// 419//
f 517// 419// 421//
f 423// 446// 517//
f 517// 446// 445//
f 517// 445// 518//
f 518// 445// 519//
f 436// 520// 434//
f 434// 520// 444//
f 520// 521// 444//
f 444// 521// 522//
f 444// 522// 445//
f 445// 522// 523//
f 445// 523// 519//
f 451// 524// 492//
f 492// 524// 525//
f 492// 525// 493//
f 526// 432// 525//
f 525// 432// 494//
f 525// 494// 493//
f 436// 438// 520//
f 520// 438// 430//
f 520// 430// 527//
f 527// 430// 432//
f 527// 432// 528//
f 528// 432// 526//
f 450// 529// 451//
f 451// 529// 530//
f 451// 530// 524//
f 458// 457// 531//
f 450// 462// 529//
f 529// 462// 460//
f 529// 460// 531//
f 531// 460// 459//
f 531// 459// 458//
f 532// 533// 490//
f 490// 533// 534//
f 457// 454// 531//
f 531// 454// 490//
f 531// 490// 535//
f 535// 490// 534//
f 490// 489// 532//
f 532// 489// 486//
f 532// 486// 536//
f 536// 486// 129//
f 536// 129// 131//
f 537// 538// 539//
f 539// 538// 540//
f 541// 542// 543//
f 126// 128// 516//
f 544// 545// 546//
f 547// 534// 533//
f 534// 547// 535//
f 530// 529// 548//
f 549// 526// 525//
f 550// 551// 500//
f 106// 105// 552//
f 107// 109// 553//
f 117// 554// 110//
f 110// 554// 555//
f 110// 555// 111//
f 111// 555// 112//
f 104// 103// 556//
f 556// 103// 102//
f 557// 558// 559//
f 559// 558// 560//
f 559// 560// 553//
f 106// 552// 99//
f 97// 99// 513//
f 513// 99// 552//
f 513// 552// 514//
f 514// 552// 561//
f 514// 561// 562//
f 562// 561// 563//
f 562// 563// 564//
f 564// 563// 565//
f 564// 565// 566//
f 557// 567// 568//
f 102// 107// 556//
f 556// 107// 553//
f 556// 553// 569//
f 569// 553// 560//
f 569// 560// 570//
f 570// 560// 558//
f 570// 558// 571//
f 571// 558// 557//
f 571// 557// 572//
f 572// 557// 568//
f 565// 573// 566//
f 566// 573// 574//
f 566// 574// 506//
f 506// 512// 566//
f 566// 512// 511//
f 566// 511// 564//
f 564// 511// 510//
f 564// 510// 562//
f 562// 510// 515//
f 562// 515// 514//
f 501// 504// 575//
f 576// 577// 578//
f 578// 577// 579//
f 578// 579// 551//
f 551// 579// 495//
f 551// 495// 500//
f 548// 529// 547//
f 547// 529// 531//
f 547// 531// 535//
f 580// 581// 582//
f 580// 582// 544//
f 131// 583// 584//
f 584// 583// 546//
f 584// 546// 585//
f 585// 546// 545//
f 586// 121// 124//
f 523// 587// 519//
f 519// 587// 588//
f 519// 588// 518//
f 124// 126// 586//
f 586// 126// 516//
f 586// 516// 589//
f 589// 516// 517//
f 120// 123// 590//
f 590// 123// 122//
f 523// 522// 587//
f 587// 522// 521//
f 587// 521// 591//
f 521// 520// 591//
f 591// 520// 527//
f 591// 527// 549//
f 549// 527// 528//
f 549// 528// 526//
f 524// 582// 525//
f 525// 582// 581//
f 525// 581// 549//
f 549// 581// 592//
f 549// 592// 591//
f 591// 592// 593//
f 591// 593// 587//
f 587// 593// 589//
f 587// 589// 588//
f 588// 589// 517//
f 588// 517// 518//
f 541// 543// 594//
f 594// 543// 595//
f 594// 595// 596//
f 114// 113// 597//
f 597// 113// 118//
f 598// 116// 114//
f 109// 112// 553//
f 553// 112// 555//
f 553// 555// 559//
f 559// 555// 554//
f 559// 554// 598//
f 598// 554// 117//
f 598// 117// 116//
f 551// 599// 578//
f 578// 599// 600//
f 578// 600// 576//
f 576// 600// 601//
f 576// 601// 602//
f 602// 601// 603//
f 602// 603// 542//
f 542// 603// 604//
f 542// 604// 543//
f 543// 604// 605//
f 543// 605// 595//
f 595// 605// 590//
f 595// 590// 596//
f 114// 597// 598//
f 598// 597// 537//
f 598// 537// 559//
f 559// 537// 539//
f 559// 539// 557//
f 557// 539// 540//
f 557// 540// 567//
f 583// 577// 546//
f 546// 577// 576//
f 546// 576// 544//
f 544// 576// 602//
f 544// 602// 580//
f 580// 602// 542//
f 580// 542// 581//
f 581// 542// 541//
f 581// 541// 592//
f 592// 541// 594//
f 592// 594// 593//
f 593// 594// 596//
f 593// 596// 589//
f 589// 596// 590//
f 589// 590// 586//
f 586// 590// 122//
f 586// 122// 121//
f 131// 498// 583//
f 583// 498// 497//
f 583// 497// 577//
f 577// 497// 496//
f 577// 496// 579//
f 579// 496// 499//
f 579// 499// 495//
f 105// 104// 552//
f 552// 104// 556//
f 552// 556// 561//
f 561// 556// 569//
f 561// 569// 563//
f 563// 569// 570//
f 563// 570// 565//
f 565// 570// 571//
f 565// 571// 573//
f 573// 571// 572//
f 573// 572// 606//
f 606// 572// 568//
f 606// 568// 607//
f 607// 568// 608//
f 607// 608// 575//
f 504// 505// 575//
f 575// 505// 503//
f 575// 503// 607//
f 607// 503// 502//
f 607// 502// 606//
f 606// 502// 508//
f 606// 508// 573//
f 573// 508// 509//
f 573// 509// 574//
f 574// 509// 507//
f 574// 507// 506//
f 524// 530// 582//
f 582// 530// 548//
f 582// 548// 544//
f 544// 548// 547//
f 544// 547// 545//
f 545// 547// 533//
f 545// 533// 585//
f 585// 533// 532//
f 585// 532// 584//
f 584// 532// 536//
f 584// 536// 131//
f 500// 501// 550//
f 550// 501// 575//
f 550// 575// 551//
f 551// 575// 608//
f 551// 608// 599//
f 599// 608// 568//
f 599// 568// 600//
f 600// 568// 567//
f 600// 567// 601//
f 601// 567// 540//
f 601// 540// 603//
f 603// 540// 538//
f 603// 538// 604//
f 604// 538// 537//
f 604// 537// 605//
f 605// 537// 597//
f 605// 597// 590//
f 590// 597// 118//
f 590// 118// 120//
f 609// 610// 611//
f 612// 613// 614//
f 614// 613// 615//
f 614// 615// 616//
f 617// 618// 612//
f 612// 618// 619//
f 620// 621// 622//
f 622// 621// 623//
f 622// 623// 624//
f 625// 626// 627//
f 628// 624// 629//
f 629// 624// 630//
f 612// 622// 617//
f 617// 622// 624//
f 617// 624// 631//
f 631// 624// 628//
f 632// 633// 634//
f 634// 633// 621//
f 634// 621// 635//
f 636// 637// 638//
f 638// 637// 639//
f 640// 641// 642//
f 627// 635// 625//
f 625// 635// 621//
f 625// 621// 643//
f 643// 621// 620//
f 643// 620// 630//
f 641// 640// 644//
f 645// 646// 647//
f 648// 649// 650//
f 651// 652// 653//
f 653// 652// 654//
f 653// 654// 655//
f 656// 657// 653//
f 653// 657// 658//
f 659// 660// 661//
f 661// 660// 662//
f 658// 663// 653//
f 653// 663// 662//
f 653// 662// 664//
f 664// 662// 660//
f 637// 640// 639//
f 639// 640// 642//
f 639// 642// 619//
f 619// 642// 665//
f 619// 665// 612//
f 612// 665// 666//
f 612// 666// 613//
f 655// 667// 653//
f 653// 667// 668//
f 653// 668// 656//
f 649// 669// 650//
f 650// 669// 620//
f 650// 620// 670//
f 670// 620// 645//
f 670// 645// 640//
f 645// 647// 640//
f 640// 647// 671//
f 640// 671// 672//
f 636// 673// 637//
f 637// 673// 674//
f 637// 674// 675//
f 675// 674// 676//
f 675// 676// 677//
f 672// 678// 640//
f 640// 678// 679//
f 640// 679// 644//
f 676// 680// 677//
f 677// 680// 681//
f 677// 681// 650//
f 650// 681// 682//
f 650// 682// 648//
f 669// 683// 620//
f 620// 683// 684//
f 620// 684// 685//
f 685// 686// 620//
f 620// 686// 687//
f 620// 687// 630//
f 630// 687// 688//
f 630// 688// 629//
f 629// 688// 689//
f 629// 689// 653//
f 653// 689// 690//
f 653// 690// 651//
f 691// 692// 622//
f 693// 694// 695//
f 620// 696// 611//
f 611// 696// 697//
f 695// 698// 693//
f 693// 698// 699//
f 693// 699// 700//
f 701// 702// 622//
f 622// 702// 703//
f 622// 703// 620//
f 620// 703// 704//
f 705// 706// 696//
f 696// 706// 707//
f 704// 708// 620//
f 620// 708// 709//
f 620// 709// 696//
f 696// 709// 710//
f 696// 710// 705//
f 700// 701// 693//
f 693// 701// 622//
f 693// 622// 711//
f 711// 622// 692//
f 711// 692// 712//
f 712// 692// 713//
f 707// 714// 696//
f 696// 714// 715//
f 696// 715// 693//
f 693// 715// 716//
f 693// 716// 694//
f 691// 717// 697//
f 697// 717// 718//
f 718// 719// 697//
f 697// 719// 720//
f 697// 720// 611//
f 611// 720// 721//
f 611// 721// 609//
f 722// 612// 723//
f 723// 612// 724//
f 723// 724// 725//
f 722// 726// 612//
f 612// 726// 727//
f 612// 727// 622//
f 622// 727// 728//
f 622// 728// 691//
f 691// 728// 729//
f 691// 729// 717//
f 730// 731// 732//
f 732// 731// 733//
f 734// 735// 736//
f 736// 735// 737//
f 736// 737// 738//
f 738// 737// 739//
f 739// 740// 738//
f 738// 740// 741//
f 738// 741// 742//
f 742// 741// 743//
f 744// 745// 746//
f 746// 745// 747//
f 746// 747// 748//
f 743// 749// 742//
f 742// 749// 750//
f 742// 750// 744//
f 751// 752// 753//
f 754// 755// 756//
f 752// 757// 753//
f 753// 757// 758//
f 753// 758// 733//
f 733// 758// 759//
f 733// 759// 732//
f 754// 756// 760//
f 746// 761// 762//
f 762// 761// 763//
f 732// 736// 730//
f 730// 736// 738//
f 730// 738// 753//
f 753// 738// 764//
f 753// 764// 751//
f 763// 761// 765//
f 765// 761// 766//
f 765// 766// 756//
f 756// 766// 767//
f 756// 767// 760//
f 755// 768// 756//
f 756// 768// 769//
f 756// 769// 770//
f 744// 746// 742//
f 742// 746// 762//
f 742// 762// 771//
f 771// 762// 756//
f 771// 756// 764//
f 764// 756// 770//
f 764// 770// 751//
f 734// 736// 616//
f 616// 736// 614//
f 766// 761// 610//
f 610// 761// 611//
f 646// 645// 748//
f 748// 645// 746//
f 746// 645// 761//
f 761// 645// 620//
f 761// 620// 611//
f 725// 724// 759//
f 759// 724// 732//
f 614// 736// 612//
f 612// 736// 732//
f 612// 732// 724//
usemtl 2
f 646// 748// 647//
f 647// 748// 747//
f 647// 747// 671//
f 671// 747// 745//
f 671// 745// 672//
f 672// 745// 744//
f 672// 744// 678//
f 678// 744// 750//
f 678// 750// 679//
f 679// 750// 749//
f 679// 749// 644//
f 644// 749// 743//
f 644// 743// 641//
f 641// 743// 741//
f 641// 741// 642//
f 642// 741// 740//
f 734// 616// 735//
f 735// 616// 615//
f 735// 615// 737//
f 737// 615// 613//
f 737// 613// 739//
f 739// 613// 666//
f 739// 666// 740//
f 740// 666// 665//
f 740// 665// 642//
f 725// 759// 723//
f 723// 759// 758//
f 723// 758// 722//
f 722// 758// 757//
f 722// 757// 726//
f 726// 757// 752//
f 726// 752// 727//
f 727// 752// 751//
f 727// 751// 728//
f 728// 751// 770//
f 766// 610// 767//
f 767// 610// 609//
f 767// 609// 760//
f 760// 609// 721//
f 760// 721// 754//
f 754// 721// 720//
f 754// 720// 755//
f 755// 720// 719//
f 755// 719// 768//
f 768// 719// 718//
f 768// 718// 769//
f 769// 718// 717//
f 769// 717// 770//
f 770// 717// 729//
f 770// 729// 728//
usemtl 3
f 772// 773// 731//
f 731// 773// 733//
f 773// 774// 733//
f 733// 774// 753//
f 774// 775// 753//
f 753// 775// 730//
f 775// 772// 730//
f 730// 772// 731//
f 775// 774// 772//
f 772// 774// 773//
f 776// 777// 762//
f 762// 777// 756//
f 777// 778// 756//
f 756// 778// 765//
f 778// 779// 765//
f 765// 779// 763//
f 779// 776// 763//
f 763// 776// 762//
f 779// 778// 776//
f 776// 778// 777//
usemtl 4
f 780// 781// 742//
f 742// 781// 738//
f 782// 780// 771//
f 771// 780// 742//
f 783// 782// 764//
f 764// 782// 771//
f 781// 783// 738//
f 738// 783// 764//
f 782// 783// 780//
f 780// 783// 781//
usemtl 5
f 784// 785// 697//
f 697// 785// 691//
f 785// 786// 691//
f 691// 786// 692//
f 786// 787// 692//
f 692// 787// 713//
f 787// 788// 713//
f 713// 788// 712//
f 788// 789// 712//
f 712// 789// 711//
f 789// 790// 711//
f 711// 790// 693//
f 790// 791// 693//
f 693// 791// 696//
f 791// 784// 696//
f 696// 784// 697//
f 792// 788// 793//
f 793// 788// 787//
f 794// 791// 792//
f 792// 791// 790//
f 792// 790// 788//
f 788// 790// 789//
f 794// 795// 791//
f 791// 795// 796//
f 791// 796// 784//
f 784// 796// 797//
f 784// 797// 798//
f 798// 799// 784//
f 784// 799// 793//
f 784// 793// 785//
f 785// 793// 787//
f 785// 787// 786//
f 792// 793// 800//
f 800// 793// 801//
f 794// 792// 802//
f 802// 792// 800//
f 794// 802// 803//
f 794// 803// 795//
f 795// 803// 804//
f 795// 804// 796//
f 797// 796// 805//
f 805// 796// 804//
f 797// 805// 806//
f 797// 806// 798//
f 798// 806// 807//
f 798// 807// 799//
f 793// 799// 801//
f 801// 799// 807//
f 808// 809// 701//
f 701// 809// 702//
f 809// 810// 702//
f 702// 810// 703//
f 810// 811// 703//
f 703// 811// 704//
f 812// 715// 714//
f 812// 714// 813//
f 813// 714// 707//
f 813// 707// 814//
f 814// 707// 706//
f 814// 706// 815//
f 815// 706// 705//
f 815// 705// 816//
f 816// 705// 710//
f 816// 710// 817//
f 817// 710// 709//
f 817// 709// 818//
f 818// 709// 708//
f 818// 708// 819//
f 819// 708// 704//
f 819// 704// 811//
f 808// 701// 700//
f 808// 700// 820//
f 820// 700// 699//
f 820// 699// 821//
f 821// 699// 698//
f 821// 698// 822//
f 822// 698// 695//
f 822// 695// 823//
f 823// 695// 694//
f 823// 694// 824//
f 824// 694// 716//
f 824// 716// 825//
f 825// 716// 715//
f 825// 715// 812//
f 814// 815// 826//
f 826// 815// 816//
f 826// 816// 827//
f 827// 816// 817//
f 827// 817// 828//
f 828// 817// 818//
f 828// 818// 829//
f 829// 818// 819//
f 829// 819// 830//
f 830// 819// 811//
f 830// 811// 831//
f 831// 811// 810//
f 831// 810// 832//
f 832// 810// 809//
f 832// 809// 833//
f 833// 809// 808//
f 833// 808// 834//
f 834// 808// 820//
f 834// 820// 835//
f 835// 820// 821//
f 835// 821// 836//
f 836// 821// 822//
f 836// 822// 837//
f 837// 822// 823//
f 837// 823// 838//
f 838// 823// 824//
f 838// 824// 839//
f 839// 824// 825//
f 839// 825// 840//
f 840// 825// 812//
f 840// 812// 841//
f 841// 812// 813//
f 841// 813// 842//
f 842// 813// 814//
f 842// 814// 826//
f 830// 831// 843//
f 843// 831// 844//
f 830// 843// 845//
f 830// 845// 829//
f 829// 845// 846//
f 829// 846// 828//
f 828// 846// 847//
f 828// 847// 827//
f 827// 847// 848//
f 827// 848// 826//
f 826// 848// 849//
f 826// 849// 842//
f 842// 849// 850//
f 842// 850// 841//
f 841// 850// 851//
f 841// 851// 840//
f 840// 851// 852//
f 840// 852// 839//
f 839// 852// 853//
f 839// 853// 838//
f 838// 853// 854//
f 838// 854// 837//
f 837// 854// 855//
f 837// 855// 836//
f 836// 855// 856//
f 836// 856// 835//
f 835// 856// 857//
f 835// 857// 834//
f 834// 857// 858//
f 834// 858// 833//
f 832// 833// 859//
f 859// 833// 858//
f 831// 832// 844//
f 844// 832// 859//
f 860// 861// 621//
f 621// 861// 623//
f 861// 862// 623//
f 623// 862// 624//
f 862// 863// 624//
f 624// 863// 630//
f 863// 864// 630//
f 630// 864// 643//
f 864// 865// 643//
f 643// 865// 625//
f 865// 866// 625//
f 625// 866// 626//
f 866// 867// 626//
f 626// 867// 627//
f 867// 868// 627//
f 627// 868// 635//
f 868// 869// 635//
f 635// 869// 634//
f 869// 870// 634//
f 634// 870// 632//
f 870// 871// 632//
f 632// 871// 633//
f 871// 860// 633//
f 633// 860// 621//
f 862// 861// 860//
f 860// 871// 862//
f 862// 871// 870//
f 862// 870// 863//
f 865// 864// 866//
f 866// 864// 863//
f 866// 863// 867//
f 867// 863// 870//
f 867// 870// 868//
f 868// 870// 869//
f 872// 873// 629//
f 629// 873// 628//
f 628// 873// 874//
f 875// 619// 618//
f 875// 618// 876//
f 876// 618// 617//
f 876// 617// 874//
f 874// 617// 631//
f 874// 631// 628//
f 619// 875// 639//
f 639// 875// 877//
f 639// 877// 638//
f 638// 877// 878//
f 638// 878// 636//
f 636// 878// 879//
f 636// 879// 673//
f 673// 879// 880//
f 673// 880// 674//
f 674// 880// 881//
f 674// 881// 676//
f 676// 881// 882//
f 676// 882// 680//
f 680// 882// 883//
f 680// 883// 681//
f 884// 685// 684//
f 884// 684// 885//
f 885// 684// 683//
f 885// 683// 886//
f 886// 683// 669//
f 886// 669// 887//
f 887// 669// 649//
f 887// 649// 888//
f 888// 649// 648//
f 888// 648// 889//
f 889// 648// 682//
f 889// 682// 890//
f 890// 682// 681//
f 890// 681// 883//
f 891// 687// 686//
f 891// 686// 892//
f 892// 686// 685//
f 892// 685// 884//
f 891// 893// 687//
f 687// 893// 688//
f 894// 690// 689//
f 894// 689// 895//
f 895// 689// 688//
f 895// 688// 893//
f 896// 656// 668//
f 896// 668// 897//
f 897// 668// 667//
f 897// 667// 898//
f 898// 667// 655//
f 898// 655// 899//
f 899// 655// 654//
f 899// 654// 900//
f 900// 654// 652//
f 900// 652// 901//
f 901// 652// 651//
f 901// 651// 902//
f 902// 651// 690//
f 902// 690// 894//
f 903// 660// 659//
f 903// 659// 904//
f 904// 659// 661//
f 904// 661// 905//
f 905// 661// 662//
f 905// 662// 906//
f 906// 662// 663//
f 906// 663// 907//
f 907// 663// 658//
f 907// 658// 908//
f 908// 658// 657//
f 908// 657// 909//
f 909// 657// 656//
f 909// 656// 896//
f 872// 629// 653//
f 872// 653// 910//
f 910// 653// 664//
f 910// 664// 911//
f 911// 664// 660//
f 911// 660// 903//
f 904// 875// 903//
f 903// 875// 876//
f 903// 876// 911//
f 911// 876// 874//
f 911// 874// 910//
f 910// 874// 873//
f 910// 873// 872//
f 893// 891// 895//
f 895// 891// 892//
f 895// 892// 894//
f 894// 892// 884//
f 894// 884// 902//
f 902// 884// 885//
f 902// 885// 901//
f 901// 885// 886//
f 901// 886// 900//
f 900// 886// 887//
f 900// 887// 899//
f 899// 887// 888//
f 899// 888// 898//
f 898// 888// 889//
f 898// 889// 897//
f 897// 889// 890//
f 897// 890// 896//
f 896// 890// 883//
f 896// 883// 909//
f 909// 883// 882//
f 909// 882// 908//
f 908// 882// 881//
f 908// 881// 907//
f 907// 881// 880//
f 907// 880// 906//
f 906// 880// 879//
f 906// 879// 905//
f 905// 879// 878//
f 905// 878// 904//
f 904// 878// 877//
f 904// 877// 875//
f 912// 913// 675//
f 675// 913// 637//
f 913// 914// 637//
f 637// 914// 640//
f 914// 915// 640//
f 640// 915// 670//
f 915// 916// 670//
f 670// 916// 650//
f 916// 917// 650//
f 650// 917// 677//
f 917// 912// 677//
f 677// 912// 675//
f 916// 915// 917//
f 917// 915// 914//
f 917// 914// 912//
f 912// 914// 913//
usemtl 1
f 800// 801// 802//
f 802// 801// 807//
f 802// 807// 803//
f 803// 807// 806//
f 803// 806// 804//
f 804// 806// 805//
f 844// 859// 843//
f 843// 859// 858//
f 843// 858// 857//
f 851// 850// 843//
f 843// 850// 849//
f 843// 849// 845//
f 857// 856// 843//
f 843// 856// 855//
f 843// 855// 854//
f 854// 853// 843//
f 843// 853// 852//
f 843// 852// 851//
f 848// 847// 849//
f 849// 847// 846//
f 849// 846// 845//
usemtl 6
f 918// 919// 920//
f 920// 919// 921//
f 920// 921// 766//
f 922// 923// 924//
f 924// 923// 925//
f 924// 925// 926//
f 927// 928// 918//
f 918// 928// 922//
f 918// 922// 919//
f 919// 922// 924//
f 929// 930// 931//
f 931// 930// 932//
f 931// 932// 933//
f 933// 932// 934//
f 935// 936// 937//
f 938// 939// 940//
f 940// 939// 941//
f 940// 941// 942//
f 943// 944// 945//
f 945// 944// 946//
f 945// 946// 947//
f 948// 949// 950//
f 950// 949// 951//
f 950// 951// 952//
f 937// 953// 935//
f 935// 953// 954//
f 935// 954// 955//
f 955// 954// 956//
f 955// 956// 948//
f 948// 956// 957//
f 948// 957// 949//
f 926// 925// 958//
f 958// 925// 959//
f 958// 959// 960//
f 960// 959// 942//
f 960// 942// 961//
f 961// 942// 941//
f 946// 962// 947//
f 947// 962// 963//
f 947// 963// 964//
f 964// 963// 965//
f 964// 965// 938//
f 938// 965// 966//
f 938// 966// 939//
f 951// 967// 952//
f 952// 967// 968//
f 952// 968// 969//
f 969// 968// 970//
f 969// 970// 943//
f 943// 970// 971//
f 943// 971// 944//
f 972// 759// 973//
f 973// 759// 974//
f 755// 975// 976//
f 976// 975// 977//
f 977// 975// 978//
f 977// 978// 979//
f 979// 978// 980//
f 979// 980// 981//
f 981// 980// 982//
f 982// 980// 983//
f 982// 983// 984//
f 984// 983// 766//
f 984// 766// 921//
f 985// 986// 987//
f 987// 986// 988//
f 987// 988// 974//
f 974// 988// 989//
f 974// 989// 973//
f 990// 991// 992//
f 992// 991// 993//
f 992// 993// 994//
f 993// 995// 994//
f 994// 995// 996//
f 994// 996// 751//
f 751// 996// 997//
f 751// 997// 998//
f 998// 997// 999//
f 998// 999// 985//
f 985// 999// 1000//
f 985// 1000// 986//
f 976// 1001// 755//
f 755// 1001// 1002//
f 755// 1002// 1003//
f 1003// 1002// 1004//
f 1003// 1004// 990//
f 990// 1004// 1005//
f 990// 1005// 991//
f 929// 931// 972//
f 972// 931// 725//
f 972// 725// 759//
f 1006// 1007// 933//
f 933// 1007// 1008//
f 1009// 1010// 933//
f 725// 931// 1011//
f 1011// 931// 933//
f 1011// 933// 1012//
f 1012// 933// 1010//
f 918// 920// 927//
f 927// 920// 1013//
f 1008// 1014// 927//
f 1013// 1015// 927//
f 927// 1015// 1016//
f 927// 1016// 1017//
f 1018// 1008// 1019//
f 1019// 1008// 927//
f 1019// 927// 1020//
f 1020// 927// 1017//
f 1018// 1021// 1008//
f 1008// 1021// 1022//
f 1008// 1022// 933//
f 933// 1022// 1023//
f 933// 1023// 1009//
f 1024// 1025// 1007//
f 1007// 1025// 1008//
f 1026// 1027// 934//
f 1028// 1025// 928//
f 928// 1025// 1024//
f 1029// 1030// 928//
f 1031// 1032// 934//
f 934// 1032// 1033//
f 934// 1033// 1026//
f 1034// 934// 1024//
f 1024// 934// 1027//
f 1024// 1027// 1035//
f 923// 922// 1036//
f 1036// 922// 928//
f 1036// 928// 1037//
f 1037// 928// 1030//
f 932// 1038// 934//
f 934// 1038// 1039//
f 934// 1039// 1031//
f 1035// 1040// 1024//
f 1024// 1040// 1041//
f 1024// 1041// 928//
f 928// 1041// 1042//
f 928// 1042// 1029//
f 937// 936// 930//
f 930// 936// 1038//
f 930// 1038// 932//
f 1034// 1024// 1006//
f 1006// 1024// 1007//
f 1034// 1006// 934//
f 934// 1006// 933//
f 927// 1014// 928//
f 928// 1014// 1028//
f 1025// 1028// 1008//
f 1008// 1028// 1014//
f 1038// 936// 1039//
f 1039// 936// 935//
f 1039// 935// 1031//
f 1031// 935// 955//
f 1031// 955// 1032//
f 1032// 955// 948//
f 1032// 948// 1033//
f 1033// 948// 950//
f 1033// 950// 1026//
f 1026// 950// 952//
f 1026// 952// 1027//
f 1027// 952// 969//
f 1027// 969// 1035//
f 1035// 969// 943//
f 1035// 943// 1040//
f 1040// 943// 945//
f 1040// 945// 1041//
f 1041// 945// 947//
f 1041// 947// 1042//
f 1042// 947// 964//
f 1042// 964// 1029//
f 1029// 964// 938//
f 1029// 938// 1030//
f 1030// 938// 940//
f 1030// 940// 1037//
f 1037// 940// 942//
f 1037// 942// 1036//
f 1036// 942// 959//
f 1036// 959// 923//
f 923// 959// 925//
f 920// 766// 983//
f 920// 983// 1013//
f 1013// 983// 980//
f 1013// 980// 1015//
f 1015// 980// 978//
f 1015// 978// 1016//
f 1016// 978// 975//
f 1016// 975// 1017//
f 1017// 975// 755//
f 1017// 755// 1020//
f 1020// 755// 1003//
f 1020// 1003// 1019//
f 1019// 1003// 990//
f 1019// 990// 1018//
f 1018// 990// 992//
f 1018// 992// 1021//
f 1021// 992// 994//
f 1021// 994// 1022//
f 1022// 994// 751//
f 1022// 751// 1023//
f 1023// 751// 998//
f 1023// 998// 1009//
f 1009// 998// 985//
f 1009// 985// 1010//
f 1010// 985// 987//
f 1010// 987// 1012//
f 1012// 987// 974//
f 1012// 974// 1011//
f 1011// 974// 759//
f 1011// 759// 725//
usemtl 3
f 919// 924// 921//
usemtl 2
f 921// 924// 926//
f 921// 926// 984//
f 926// 958// 984//
f 984// 958// 960//
f 984// 960// 982//
f 982// 960// 961//
f 982// 961// 981//
f 981// 961// 941//
f 981// 941// 979//
f 979// 941// 939//
f 979// 939// 977//
f 977// 939// 966//
f 977// 966// 976//
f 976// 966// 965//
f 976// 965// 1001//
f 1001// 965// 963//
f 1001// 963// 1002//
f 1002// 963// 962//
f 1002// 962// 1004//
f 1004// 962// 946//
f 1004// 946// 1005//
f 1005// 946// 944//
f 1005// 944// 991//
f 991// 944// 971//
f 991// 971// 993//
f 993// 971// 970//
f 993// 970// 995//
f 995// 970// 968//
f 995// 968// 996//
f 996// 968// 967//
f 996// 967// 997//
f 997// 967// 951//
f 997// 951// 999//
f 999// 951// 949//
f 999// 949// 1000//
f 1000// 949// 957//
f 1000// 957// 986//
f 986// 957// 956//
f 986// 956// 988//
f 988// 956// 954//
f 988// 954// 989//
f 989// 954// 953//
f 989// 953// 973//
f 973// 953// 972//
f 972// 953// 937//
f 972// 937// 930//
usemtl 3
f 972// 930// 929//
usemtl 6
f 1043// 1044// 1045//
f 1045// 1044// 1046//
f 1045// 1046// 1047//
f 1047// 1046// 1048//
f 1047// 1048// 1049//
f 1049// 1048// 1050//
f 1051// 1052// 1053//
f 1053// 1052// 1054//
f 1055// 1056// 1057//
f 1057// 1056// 1058//
f 1057// 1058// 1059//
f 1059// 1058// 1060//
f 1059// 1060// 1061//
f 1061// 1060// 1062//
f 1063// 1064// 1065//
f 1065// 1064// 1066//
f 1045// 1047// 748//
f 748// 1047// 1067//
f 1046// 1068// 1048//
f 1048// 1068// 1069//
f 1070// 1062// 1071//
f 1071// 1062// 1063//
f 1062// 1060// 1072//
f 1052// 1064// 1054//
f 1054// 1064// 1044//
f 1054// 1044// 1073//
f 1073// 1044// 1074//
f 1075// 1064// 1076//
f 1076// 1064// 1077//
f 1068// 1046// 1078//
f 1078// 1046// 1044//
f 1078// 1044// 1079//
f 1079// 1044// 1080//
f 1072// 1081// 1062//
f 1062// 1081// 1082//
f 1062// 1082// 1063//
f 1063// 1082// 1083//
f 1063// 1083// 1064//
f 1064// 1083// 1084//
f 1064// 1084// 1077//
f 1075// 1085// 1064//
f 1064// 1085// 1086//
f 1064// 1086// 1044//
f 1044// 1086// 1087//
f 1044// 1087// 1080//
f 1052// 1051// 1064//
f 1064// 1051// 1066//
f 1066// 1051// 1065//
f 1065// 1051// 1061//
f 1065// 1061// 1088//
f 1088// 1061// 1089//
f 1090// 1043// 1091//
f 1091// 1043// 1053//
f 1043// 1045// 748//
f 1092// 743// 1051//
f 734// 1059// 1093//
f 1093// 1059// 1061//
f 1093// 1061// 1094//
f 1094// 1061// 1095//
f 1092// 1051// 1096//
f 748// 1097// 1043//
f 1043// 1097// 1098//
f 1043// 1098// 1053//
f 1053// 1098// 1099//
f 1053// 1099// 1051//
f 1051// 1099// 1100//
f 1051// 1100// 1096//
f 743// 1101// 1051//
f 1051// 1101// 1102//
f 1051// 1102// 1061//
f 1061// 1102// 1103//
f 1061// 1103// 1095//
f 1057// 1059// 616//
f 616// 1059// 734//
f 1104// 1105// 1049//
f 1049// 1105// 1106//
f 1055// 1057// 616//
f 616// 1107// 1055//
f 1055// 1107// 1108//
f 1055// 1108// 1109//
f 1109// 1110// 1055//
f 1055// 1110// 1111//
f 1055// 1111// 1112//
f 1113// 1055// 1106//
f 1106// 1055// 1112//
f 1106// 1112// 1114//
f 1067// 1047// 1115//
f 1115// 1047// 1049//
f 1115// 1049// 1116//
f 1116// 1049// 1117//
f 1114// 1118// 1106//
f 1106// 1118// 1119//
f 1106// 1119// 1049//
f 1049// 1119// 1120//
f 1049// 1120// 1117//
f 1121// 1122// 1105//
f 1105// 1122// 1106//
f 1056// 1123// 1122//
f 1121// 1124// 1122//
f 1122// 1124// 1050//
f 1050// 1048// 1069//
f 1125// 1058// 1126//
f 1126// 1058// 1056//
f 1069// 1127// 1050//
f 1050// 1127// 1128//
f 1050// 1128// 1129//
f 1130// 1131// 1056//
f 1056// 1131// 1132//
f 1056// 1132// 1126//
f 1133// 1122// 1134//
f 1134// 1122// 1050//
f 1134// 1050// 1135//
f 1135// 1050// 1129//
f 1133// 1136// 1122//
f 1122// 1136// 1137//
f 1122// 1137// 1056//
f 1056// 1137// 1138//
f 1056// 1138// 1130//
f 1058// 1125// 1060//
f 1060// 1125// 1072//
f 1122// 1123// 1106//
f 1106// 1123// 1113//
f 1113// 1123// 1055//
f 1055// 1123// 1056//
f 1104// 1049// 1124//
f 1124// 1049// 1050//
f 1124// 1121// 1104//
f 1104// 1121// 1105//
f 1069// 1068// 1127//
f 1127// 1068// 1078//
f 1127// 1078// 1128//
f 1128// 1078// 1079//
f 1128// 1079// 1129//
f 1129// 1079// 1080//
f 1129// 1080// 1135//
f 1135// 1080// 1087//
f 1135// 1087// 1134//
f 1134// 1087// 1086//
f 1134// 1086// 1133//
f 1133// 1086// 1085//
f 1133// 1085// 1136//
f 1136// 1085// 1075//
f 1136// 1075// 1137//
f 1137// 1075// 1076//
f 1137// 1076// 1138//
f 1138// 1076// 1077//
f 1138// 1077// 1130//
f 1130// 1077// 1084//
f 1130// 1084// 1131//
f 1131// 1084// 1083//
f 1131// 1083// 1132//
f 1132// 1083// 1082//
f 1132// 1082// 1126//
f 1126// 1082// 1081//
f 1126// 1081// 1125//
f 1125// 1081// 1072//
f 616// 734// 1093//
f 616// 1093// 1107//
f 1107// 1093// 1094//
f 1107// 1094// 1108//
f 1108// 1094// 1095//
f 1108// 1095// 1109//
f 1109// 1095// 1103//
f 1109// 1103// 1110//
f 1110// 1103// 1102//
f 1110// 1102// 1111//
f 1111// 1102// 1101//
f 1111// 1101// 1112//
f 1112// 1101// 743//
f 1112// 743// 1114//
f 1114// 743// 1092//
f 1114// 1092// 1118//
f 1118// 1092// 1096//
f 1118// 1096// 1119//
f 1119// 1096// 1100//
f 1119// 1100// 1120//
f 1120// 1100// 1099//
f 1120// 1099// 1117//
f 1117// 1099// 1098//
f 1117// 1098// 1116//
f 1116// 1098// 1097//
f 1116// 1097// 1115//
f 1115// 1097// 748//
f 1115// 748// 1067//
f 1070// 1071// 1089//
f 1089// 1071// 1088//
f 1088// 1071// 1065//
f 1065// 1071// 1063//
f 1070// 1089// 1062//
f 1062// 1089// 1061//
f 1054// 1073// 1053//
f 1053// 1073// 1091//
f 1043// 1090// 1044//
f 1044// 1090// 1074//
f 1073// 1074// 1091//
f 1091// 1074// 1090//
