M48
; DRILL file KiCad 10.0.4-10.0.4~ubuntu24.04.1 date 2026-07-24T01:49:54
; FORMAT={-:-/ absolute / metric / decimal}
; #@! TF.CreationDate,2026-07-24T01:49:54-07:00
; #@! TF.GenerationSoftware,Kicad,Pcbnew,10.0.4-10.0.4~ubuntu24.04.1
; #@! TF.FileFunction,Plated,1,4,PTH
FMAT,2
METRIC
; #@! TA.AperFunction,Plated,PTH,ViaDrill
T1C0.150
; #@! TA.AperFunction,Plated,PTH,ComponentDrill
T2C0.800
; #@! TA.AperFunction,Plated,PTH,ComponentDrill
T3C0.950
; #@! TA.AperFunction,Plated,PTH,ComponentDrill
T4C1.000
; #@! TA.AperFunction,Plated,PTH,ComponentDrill
T5C1.200
; #@! TA.AperFunction,Plated,PTH,ComponentDrill
T6C1.770
%
G90
G05
T1
X14.8Y-20.0
X16.3Y-20.0
X16.61Y-59.72
X17.46Y-59.72
X18.85Y-67.7
X18.85Y-70.0
X19.1Y-25.9
X19.1Y-28.5
X19.31Y-81.9
X19.5Y-20.4
X19.5Y-80.7
X19.95Y-75.2
X20.0Y-58.0
X20.0Y-66.0
X20.0Y-90.0
X20.5Y-19.4
X20.5Y-21.25
X20.8Y-18.2
X20.8Y-18.9
X21.1Y-20.4
X21.4Y-21.3
X21.52Y-81.91
X22.12Y-74.9
X22.3Y-79.8
X22.3Y-81.2
X22.5Y-18.4
X22.5Y-21.75
X22.8Y-17.2
X22.8Y-17.9
X23.1Y-20.9
X23.2Y-79.8
X23.5Y-63.13
X23.6Y-82.5
X23.68Y-74.9
X25.15Y-68.9
X25.15Y-70.0
X25.18Y-83.9
X25.77Y-98.35
X25.8Y-82.6
X27.1Y-76.7
X27.39Y-59.72
X28.0Y-58.0
X28.0Y-66.0
X28.0Y-90.0
X28.05Y-70.0
X28.2Y-79.8
X28.24Y-59.72
X28.6Y-74.6
X28.6Y-76.0
X28.88Y-95.15
X29.06Y-88.95
X29.5Y-86.8
X29.76Y-85.05
X29.95Y-70.0
X30.01Y-80.0
X30.2Y-86.1
X30.4Y-36.2
X30.4Y-94.9
X30.48Y-87.12
X30.6Y-92.8
X30.6Y-94.0
X31.27Y-91.0
X31.4Y-93.9
X31.5Y-96.0
X31.6Y-36.2
X31.94Y-70.0
X32.1Y-96.6
X33.9Y-93.4
X34.01Y-88.0
X34.05Y-55.0
X34.1Y-70.6
X35.1Y-71.6
X35.3Y-92.0
X36.0Y-66.0
X36.0Y-74.0
X36.4Y-82.9
X37.48Y-76.0
X37.6Y-79.3
X37.6Y-82.8
X37.7Y-92.0
X38.23Y-98.35
X38.3Y-82.9
X39.58Y-81.58
X39.6Y-79.3
X39.8Y-76.0
X40.1Y-95.2
X40.4Y-69.4
X40.5Y-81.9
X40.7Y-84.2
X40.7Y-85.1
X40.7Y-95.8
X40.9Y-73.7
X40.95Y-68.0
X41.0Y-79.3
X41.4Y-70.4
X41.4Y-84.2
X41.5Y-95.0
X42.0Y-64.0
X42.1Y-76.4
X42.9Y-71.0
X43.0Y-22.2
X43.02Y-73.59
X43.1Y-75.4
X43.1Y-80.2
X43.3Y-78.5
X43.8Y-22.3
X44.0Y-66.0
X44.1Y-21.1
X44.48Y-80.44
X44.6Y-23.7
X44.7Y-83.3
X44.9Y-77.2
X45.06Y-90.95
X45.2Y-82.3
X45.6Y-82.7
X45.7Y-77.3
X45.8Y-89.7
X46.0Y-75.9
X46.0Y-79.2
X46.2Y-80.0
X46.3Y-87.8
X46.6Y-72.8
X46.6Y-74.3
X46.6Y-75.0
X46.7Y-30.4
X46.7Y-80.9
X46.9Y-79.2
X47.0Y-85.6
X47.1Y-84.2
X47.19Y-87.25
X47.3Y-91.2
X47.65Y-78.8
X47.7Y-84.2
X47.77Y-98.35
X47.8Y-73.8
X47.9Y-83.1
X48.01Y-92.6
X48.1Y-81.3
X48.1Y-90.4
X48.58Y-71.2
X48.7Y-81.3
X48.775Y-76.0
X48.8Y-82.2
X48.9Y-27.3
X48.9Y-72.2
X49.1Y-77.1
X49.1Y-84.2
X49.2Y-80.0
X49.56Y-90.95
X49.58Y-91.83
X49.6Y-26.6
X49.7Y-25.8
X49.8Y-83.0
X49.94Y-58.95
X50.0Y-73.3
X50.0Y-79.2
X50.2Y-28.6
X50.5Y-78.6
X50.5Y-82.5
X50.7Y-80.6
X50.7Y-90.7
X50.8Y-87.2
X50.81Y-53.9
X50.88Y-95.15
X51.2Y-84.6
X51.3Y-85.2
X51.5Y-79.5
X51.6Y-81.9
X51.7Y-84.1
X52.0Y-58.0
X52.08Y-78.82
X52.1Y-80.7
X52.2Y-84.6
X52.2Y-88.1
X52.3Y-86.3
X52.48Y-87.0
X52.5Y-83.0
X52.6Y-79.9
X52.7Y-66.0
X52.7Y-85.3
X52.7Y-89.2
X52.7Y-95.1
X52.8Y-76.4
X52.8Y-76.9
X52.9Y-55.0
X53.3Y-54.16
X53.5Y-96.8
X53.6Y-74.3
X53.6Y-75.5
X53.7Y-85.5
X53.8Y-81.7
X53.9Y-80.2
X54.1Y-76.6
X54.28Y-84.8
X54.28Y-89.2
X54.3Y-75.0
X54.3Y-85.6
X54.4Y-87.5
X54.5Y-77.8
X54.5Y-89.9
X54.5Y-90.4
X54.6Y-92.1
X54.6Y-93.3
X55.0Y-86.3
X55.1Y-84.9
X55.1Y-94.0
X55.3Y-75.0
X55.4Y-90.4
X55.5Y-84.6
X55.7Y-83.8
X55.8Y-54.2
X55.8Y-85.5
X56.0Y-93.4
X56.2Y-82.5
X56.68Y-84.8
X56.68Y-89.2
X56.7Y-80.0
X56.7Y-88.0
X56.8Y-56.1
X57.2Y-57.2
X57.3Y-78.25
X57.4Y-77.4
X57.4Y-96.4
X57.48Y-60.0
X57.48Y-90.5
X57.5Y-80.0
X57.7Y-84.7
X57.7Y-86.8
X57.75Y-53.7
X58.1Y-90.4
X58.48Y-87.0
X58.8Y-86.3
X59.0Y-57.8
X59.0Y-82.6
X59.0Y-89.5
X59.05Y-57.25
X59.2Y-90.5
X59.28Y-88.4
X59.44Y-55.35
X59.9Y-52.7
X60.0Y-56.6
X60.0Y-58.0
X60.0Y-66.0
X60.0Y-75.6
X60.0Y-82.4
X60.14Y-77.65
X60.2Y-72.0
X60.23Y-92.5
X60.23Y-98.35
X60.3Y-95.7
X60.32Y-80.9
X60.35Y-55.36
X60.7Y-61.3
X60.8Y-79.7
X60.9Y-36.2
X60.9Y-57.9
X60.9Y-84.9
X61.08Y-81.68
X61.38Y-75.05
X61.7Y-97.1
X62.0Y-79.7
X62.0Y-80.6
X62.0Y-81.3
X62.1Y-36.2
X62.1Y-73.2
X62.6Y-58.2
X62.6Y-59.0
X62.9Y-57.5
X62.9Y-72.9
X63.22Y-80.9
X63.85Y-79.7
X64.18Y-80.9
X64.3Y-59.8
X64.4Y-72.4
X64.7Y-79.7
X65.15Y-68.0
X65.68Y-73.1
X65.8Y-77.6
X65.86Y-75.05
X65.86Y-78.95
X66.0Y-81.6
X66.3Y-80.6
X66.7Y-52.7
X67.0Y-75.4
X67.0Y-86.1
X67.1Y-76.3
X67.4Y-71.7
X67.4Y-78.2
X67.5Y-52.7
X67.5Y-54.5
X67.51Y-61.0
X67.9Y-77.1
X67.9Y-79.7
X68.0Y-66.0
X68.0Y-74.0
X68.0Y-80.6
X68.0Y-82.0
X68.0Y-90.0
X68.1Y-85.7
X68.3Y-52.7
X68.3Y-54.5
X68.3Y-76.3
X68.5Y-79.7
X68.5Y-80.6
X68.98Y-77.0
X69.05Y-56.58
X69.1Y-80.6
X69.2Y-55.7
X70.0Y-93.7
X70.2Y-81.1
X71.53Y-65.36
X71.53Y-66.64
X71.53Y-70.44
X73.3Y-66.8
X73.3Y-67.7
X73.7Y-86.4
X73.8Y-65.5
X73.8Y-72.9
X74.2Y-85.1
X74.3Y-22.3
X74.5Y-66.8
X74.5Y-72.9
X74.9Y-85.2
X76.0Y-58.0
X76.0Y-66.0
X76.0Y-74.0
X76.0Y-82.0
X76.0Y-90.0
X76.2Y-39.7
X76.3Y-80.8
X76.47Y-61.55
X76.5Y-67.9
X76.8Y-19.9
X76.8Y-97.4
X76.9Y-66.1
X77.2Y-39.7
X77.5Y-92.2
X77.7Y-98.3
X77.9Y-66.7
X77.9Y-67.9
X78.7Y-64.0
X78.72Y-66.2
X78.8Y-68.6
X79.35Y-64.6
X79.41Y-66.72
X79.71Y-65.78
X79.71Y-70.92
X79.8Y-69.6
X79.91Y-67.74
X80.31Y-66.84
X80.35Y-70.33
X80.4Y-69.0
X80.6Y-68.0
X80.74Y-66.06
X81.1Y-92.2
X81.19Y-65.28
X81.5Y-66.84
X81.71Y-68.45
X82.0Y-55.7
X82.28Y-66.39
X82.5Y-71.7
X82.5Y-72.9
X82.58Y-68.68
X83.4Y-55.1
X83.5Y-98.8
X84.0Y-54.5
X84.0Y-66.0
X84.0Y-74.0
X84.0Y-90.0
X84.9Y-101.1
X85.2Y-99.7
X85.6Y-96.7
X85.7Y-97.4
X85.7Y-100.6
X88.2Y-79.7
X88.3Y-53.9
X88.8Y-69.8
X89.1Y-53.3
X89.4Y-69.2
X90.0Y-70.4
X90.2Y-53.2
X90.35Y-64.08
X90.8Y-71.2
X91.5Y-83.6
X91.6Y-55.9
X91.8Y-55.3
X92.0Y-58.0
X92.0Y-66.0
X92.0Y-90.0
X92.4Y-53.1
X92.4Y-53.9
X92.4Y-56.5
X92.5Y-85.2
X92.53Y-79.44
X92.6Y-45.6
X93.0Y-57.8
X93.1Y-84.6
X93.7Y-99.7
X93.9Y-73.5
X93.98Y-76.32
X94.4Y-75.4
X94.4Y-77.4
X94.52Y-81.5
X94.8Y-73.5
X95.3Y-75.4
X95.48Y-81.5
X95.5Y-64.2
X95.5Y-66.0
X96.91Y-96.28
X97.08Y-66.4
X97.47Y-70.56
X97.7Y-58.4
X97.7Y-99.8
X97.8Y-51.3
X98.1Y-55.3
X98.2Y-98.4
X98.3Y-20.4
X98.5Y-74.5
X98.7Y-77.4
X98.8Y-52.3
X98.9Y-18.9
X98.9Y-73.3
X99.2Y-99.3
X99.5Y-76.0
X99.6Y-20.9
X100.0Y-66.0
X100.0Y-90.0
X100.1Y-98.4
X100.1Y-100.8
X100.5Y-21.1
X100.9Y-53.3
X101.0Y-62.3
X101.2Y-100.4
X101.6Y-19.5
X101.6Y-101.3
X101.79Y-93.05
X101.8Y-18.9
X102.2Y-62.3
X102.35Y-20.1
X102.44Y-95.81
X103.8Y-58.8
X104.78Y-95.63
X105.1Y-98.4
X105.1Y-101.3
X105.3Y-22.3
X105.6Y-38.3
X106.1Y-37.4
X106.49Y-99.43
X106.7Y-25.1
X107.2Y-22.3
X107.2Y-23.3
X107.7Y-24.5
X108.0Y-58.0
X108.0Y-66.0
X108.0Y-82.0
X108.1Y-25.6
X108.1Y-74.1
X108.2Y-23.3
X108.4Y-96.6
X108.8Y-24.9
X108.9Y-20.2
X108.9Y-88.7
X110.1Y-20.7
X110.28Y-95.6
X110.7Y-70.4
X111.0Y-60.2
X111.0Y-66.0
X111.2Y-21.8
X111.2Y-71.3
X111.6Y-68.7
X112.6Y-68.5
X113.3Y-68.5
X113.4Y-96.2
X113.6Y-87.5
X113.75Y-70.0
X113.9Y-68.5
X114.1Y-23.3
X114.3Y-60.2
X114.3Y-61.4
X114.3Y-100.3
X114.4Y-69.4
X115.0Y-85.2
X115.14Y-96.73
X115.5Y-61.4
X115.5Y-85.6
X115.9Y-85.2
X116.0Y-82.0
X116.4Y-20.1
X116.4Y-20.8
X116.7Y-60.2
X116.9Y-89.3
X117.1Y-90.3
X117.2Y-20.7
X117.4Y-83.7
X117.53Y-64.09
X117.53Y-65.36
X117.53Y-66.64
X117.53Y-70.44
X118.1Y-93.3
X118.6Y-89.4
X118.8Y-93.3
X119.1Y-76.0
X119.8Y-53.9
X120.3Y-89.8
X120.9Y-75.2
X120.9Y-81.4
X121.4Y-68.5
X121.8Y-52.1
X121.8Y-77.3
X121.8Y-84.4
X122.12Y-83.29
X122.31Y-96.11
X122.47Y-61.55
X122.5Y-73.9
X122.5Y-85.1
X122.51Y-86.5
X122.8Y-78.6
X123.0Y-45.6
X123.2Y-72.6
X123.4Y-52.1
X123.5Y-68.5
X123.6Y-74.9
X123.9Y-87.0
X124.0Y-58.0
X124.0Y-82.0
X124.0Y-90.0
X124.2Y-85.3
X124.8Y-84.7
X125.02Y-66.0
X125.29Y-95.58
X125.53Y-79.44
X125.71Y-67.9
X125.9Y-83.29
X125.98Y-66.0
X126.67Y-82.62
X126.7Y-84.2
X126.8Y-72.2
X127.4Y-84.1
X127.84Y-96.73
X128.1Y-71.2
X128.9Y-71.2
X129.1Y-90.2
X129.1Y-92.6
X129.2Y-79.8
X129.2Y-80.6
X129.5Y-73.1
X129.6Y-93.4
X130.0Y-83.4
X130.1Y-82.5
X130.14Y-96.73
X130.47Y-70.56
X130.7Y-83.2
X131.0Y-81.6
X131.6Y-82.3
X132.0Y-66.0
X132.0Y-75.4
X132.1Y-79.8
X132.1Y-85.1
X132.1Y-93.4
X132.6Y-79.8
X132.78Y-85.68
X133.02Y-75.0
X133.3Y-93.4
X133.59Y-75.7
X133.6Y-79.7
X134.1Y-82.2
X134.1Y-83.1
X134.1Y-85.3
X134.1Y-87.0
X134.4Y-98.8
X134.5Y-21.3
X134.6Y-93.4
X134.7Y-75.3
X134.9Y-81.0
X135.0Y-90.2
X135.12Y-96.71
X135.2Y-83.47
X136.1Y-76.7
X136.2Y-93.3
X136.2Y-94.2
X136.5Y-23.3
X136.5Y-83.62
X136.6Y-85.7
X136.7Y-76.1
X137.1Y-17.1
X137.1Y-24.6
X137.6Y-89.2
X137.7Y-29.2
X137.8Y-86.3
X137.8Y-88.4
X137.8Y-96.2
X137.9Y-82.2
X138.0Y-93.0
X138.0Y-93.6
X138.48Y-82.88
X138.8Y-96.7
X139.4Y-78.7
X139.5Y-93.7
X139.7Y-75.8
X140.0Y-58.0
X140.0Y-66.0
X140.1Y-88.0
X140.9Y-99.8
X141.0Y-86.2
X141.2Y-94.3
X141.5Y-86.3
X142.0Y-84.2
X142.0Y-88.4
X142.4Y-100.3
X142.7Y-70.8
X142.7Y-71.6
X143.0Y-88.6
X143.3Y-99.4
X143.4Y-88.2
X143.5Y-84.92
X143.5Y-86.22
X144.1Y-88.7
X144.6Y-87.6
X144.6Y-88.2
X144.6Y-94.4
X144.95Y-85.58
X145.28Y-95.08
X145.4Y-86.8
X145.4Y-93.6
X145.8Y-91.2
X146.02Y-82.0
X146.2Y-94.0
X146.82Y-79.72
X146.98Y-82.0
X147.1Y-80.6
X147.1Y-83.6
X148.0Y-58.0
X148.0Y-74.0
X148.3Y-61.02
X148.3Y-62.98
X149.02Y-59.0
X149.7Y-77.5
X149.7Y-79.8
X149.98Y-59.0
X150.86Y-80.0
X151.1Y-87.6
X151.4Y-81.5
X151.4Y-92.8
X151.5Y-59.2
X151.7Y-61.02
X152.01Y-77.0
X152.2Y-82.3
X152.8Y-81.5
X152.8Y-83.7
X152.9Y-62.5
X152.9Y-63.4
X153.08Y-59.0
X153.1Y-91.2
X153.14Y-79.05
X153.42Y-75.8
X153.98Y-82.6
X154.2Y-77.1
X154.2Y-85.1
X154.38Y-75.8
X154.7Y-17.1
X154.7Y-18.1
X154.8Y-18.9
X154.88Y-84.42
X155.05Y-91.0
X155.5Y-18.2
X156.0Y-58.0
X156.0Y-82.0
X156.0Y-90.0
X156.5Y-69.9
X156.86Y-68.0
X156.86Y-74.0
X157.3Y-69.6
X157.6Y-37.1
X157.6Y-53.3
X157.7Y-21.8
X157.7Y-75.8
X157.8Y-77.9
X157.8Y-81.9
X158.3Y-79.1
X158.4Y-36.3
X158.5Y-75.8
X158.6Y-21.3
X159.02Y-70.6
X159.02Y-76.6
X159.05Y-91.0
X159.14Y-68.0
X159.14Y-73.05
X159.14Y-74.0
X159.16Y-80.65
X159.3Y-66.2
X159.7Y-54.6
X159.8Y-79.1
X159.9Y-81.6
X159.98Y-70.6
X159.98Y-76.6
X160.1Y-55.8
X160.1Y-65.4
X160.25Y-82.46
X160.82Y-81.8
X160.84Y-79.35
X161.4Y-53.9
X161.68Y-82.2
X161.9Y-91.1
X161.9Y-92.3
X162.0Y-84.1
X162.6Y-83.5
X162.7Y-97.1
X163.01Y-92.6
X163.06Y-90.95
X163.5Y-85.6
X163.65Y-98.35
X164.0Y-58.0
X164.0Y-82.0
X164.1Y-85.0
X164.2Y-85.7
X164.2Y-100.6
X164.28Y-87.0
X164.3Y-78.9
X164.3Y-80.6
X165.1Y-86.6
X165.1Y-93.0
X165.51Y-78.47
X165.9Y-92.2
X166.0Y-94.0
X166.75Y-95.15
X166.9Y-62.6
X166.9Y-66.2
X167.0Y-18.4
X167.0Y-24.4
X167.1Y-96.4
X167.2Y-74.2
X167.3Y-72.2
X167.3Y-73.0
X167.3Y-75.3
X167.4Y-92.6
X167.56Y-90.95
X167.7Y-17.7
X167.7Y-20.0
X168.0Y-73.9
X168.1Y-23.3
X168.2Y-69.7
X168.3Y-96.5
X168.32Y-59.9
X168.5Y-19.9
X168.5Y-94.0
X168.6Y-94.7
X168.86Y-68.0
X169.0Y-93.9
X169.16Y-74.65
X169.2Y-19.2
X169.28Y-59.9
X169.3Y-79.2
X169.4Y-57.0
X169.5Y-76.5
X169.8Y-53.3
X170.0Y-66.2
X170.2Y-54.4
X170.3Y-54.9
X170.3Y-80.95
X170.4Y-56.1
X170.5Y-20.5
X170.7Y-82.3
X170.72Y-76.2
X170.84Y-73.35
X171.02Y-70.6
X171.14Y-68.0
X171.53Y-61.81
X171.68Y-76.2
X171.7Y-66.0
X171.98Y-70.6
X172.01Y-82.6
X172.35Y-98.35
X172.9Y-55.6
X172.9Y-80.0
X173.21Y-91.2
X173.5Y-80.6
X174.1Y-60.5
X174.36Y-87.05
X174.7Y-74.1
X174.8Y-58.7
X175.0Y-60.5
X175.06Y-90.95
X175.1Y-62.9
X175.2Y-59.7
X175.2Y-77.1
X175.3Y-88.8
X175.5Y-86.7
X176.47Y-54.19
X176.5Y-72.4
X177.28Y-93.0
X177.4Y-58.1
X177.4Y-76.3
X177.6Y-56.1
X177.9Y-54.0
X178.1Y-53.3
X178.1Y-76.3
X178.4Y-60.9
X178.6Y-74.5
X178.9Y-72.3
X179.35Y-64.08
X179.5Y-71.7
X179.5Y-83.7
X180.0Y-66.0
X180.0Y-74.0
X180.0Y-82.0
X180.24Y-91.27
X180.3Y-84.5
X180.6Y-53.3
X180.7Y-61.4
X180.8Y-54.3
X180.8Y-55.5
X180.86Y-68.0
X181.16Y-74.65
X181.6Y-53.5
X181.65Y-98.35
X181.7Y-70.1
X181.9Y-68.7
X181.97Y-78.11
X182.53Y-69.59
X182.72Y-76.2
X182.84Y-73.35
X183.14Y-68.0
X183.22Y-71.38
X183.43Y-70.03
X183.55Y-83.4
X183.68Y-76.2
X184.12Y-65.62
X184.2Y-71.3
X184.7Y-60.9
X184.7Y-66.3
X184.75Y-95.15
X184.9Y-97.8
X185.1Y-68.0
X185.1Y-69.2
X185.7Y-60.9
X186.53Y-66.56
X186.6Y-55.2
X186.9Y-52.7
X187.0Y-95.7
X187.1Y-68.7
X187.4Y-36.4
X187.6Y-68.5
X187.8Y-54.5
X187.8Y-55.2
X188.0Y-66.0
X188.0Y-74.0
X188.0Y-82.0
X188.0Y-90.0
X188.2Y-35.6
X188.3Y-68.5
X188.4Y-55.9
X190.35Y-98.35
X190.6Y-22.8
X191.5Y-22.3
X191.72Y-84.78
X192.08Y-82.5
X192.2Y-83.35
X192.31Y-73.9
X192.31Y-85.9
X192.55Y-72.0
X192.59Y-84.54
X192.81Y-61.7
X192.99Y-82.23
X193.2Y-83.15
X193.38Y-81.4
X193.4Y-85.2
X193.5Y-61.2
X193.5Y-73.2
X193.6Y-84.0
X193.62Y-86.17
X194.3Y-61.2
X194.3Y-73.2
X194.4Y-85.2
X194.46Y-81.97
X194.7Y-83.3
X195.0Y-83.8
X195.15Y-57.5
X195.15Y-62.5
X195.15Y-69.5
X195.15Y-74.5
X195.15Y-81.0
X195.15Y-86.5
X195.84Y-81.97
X196.9Y-84.0
X196.93Y-81.4
X196.93Y-86.6
X197.1Y-83.15
X197.1Y-84.85
X197.31Y-82.23
X197.31Y-85.77
X197.8Y-84.0
X198.22Y-82.5
X198.22Y-85.5
X198.35Y-55.65
X198.35Y-64.35
X198.35Y-67.65
X198.35Y-76.35
X198.35Y-79.65
X198.35Y-88.35
X198.6Y-29.2
X198.7Y-84.0
T2
X22.19Y-30.38
X22.19Y-45.62
X29.81Y-30.38
X29.81Y-45.62
X37.43Y-30.38
X37.43Y-45.62
X45.05Y-30.38
X45.05Y-45.62
X52.67Y-30.38
X52.67Y-45.62
X60.29Y-30.38
X60.29Y-45.62
X67.91Y-30.38
X67.91Y-45.62
X75.53Y-30.38
X75.53Y-45.62
X83.15Y-30.38
X83.15Y-45.62
X90.77Y-30.38
X90.77Y-45.62
X98.39Y-30.38
X98.39Y-45.62
X106.01Y-30.38
X106.01Y-45.62
X113.63Y-30.38
X113.63Y-45.62
X121.25Y-30.38
X121.25Y-45.62
X128.87Y-30.38
X128.87Y-45.62
X136.49Y-30.38
X136.49Y-45.62
X144.11Y-30.38
X144.11Y-45.62
X151.73Y-30.38
X151.73Y-45.62
X159.35Y-30.38
X159.35Y-45.62
X166.97Y-30.38
X166.97Y-45.62
X174.59Y-30.38
X174.59Y-45.62
X182.21Y-30.38
X182.21Y-45.62
X189.83Y-30.38
X189.83Y-45.62
X197.45Y-30.38
X197.45Y-45.62
T3
X148.0Y-97.0
X150.5Y-97.0
X153.0Y-97.0
X155.5Y-97.0
X158.0Y-97.0
T4
X94.0Y-95.0
X94.0Y-97.54
X96.54Y-95.0
X96.54Y-97.54
X99.08Y-95.0
X99.08Y-97.54
X101.62Y-95.0
X101.62Y-97.54
X104.16Y-95.0
X104.16Y-97.54
X106.7Y-95.0
X106.7Y-97.54
X109.24Y-95.0
X109.24Y-97.54
X111.78Y-95.0
X111.78Y-97.54
X114.32Y-95.0
X114.32Y-97.54
X116.86Y-95.0
X116.86Y-97.54
X119.4Y-95.0
X119.4Y-97.54
X121.94Y-95.0
X121.94Y-97.54
X124.48Y-95.0
X124.48Y-97.54
X127.02Y-95.0
X127.02Y-97.54
X129.56Y-95.0
X129.56Y-97.54
X132.1Y-95.0
X132.1Y-97.54
X134.64Y-95.0
X134.64Y-97.54
X137.18Y-95.0
X137.18Y-97.54
X139.72Y-95.0
X139.72Y-97.54
X142.26Y-95.0
X142.26Y-97.54
T5
X197.0Y-92.25
X197.0Y-95.75
T6
X70.04Y-96.0
X77.96Y-96.0
M30
