%TF.GenerationSoftware,KiCad,Pcbnew,10.0.4-10.0.4~ubuntu24.04.1*%
%TF.CreationDate,2026-08-14T16:25:44-07:00*%
%TF.ProjectId,pluto_rx2_8way_v5,706c7574-6f5f-4727-9832-5f387761795f,rev?*%
%TF.SameCoordinates,Original*%
%TF.FileFunction,Copper,L1,Top*%
%TF.FilePolarity,Positive*%
%FSLAX46Y46*%
G04 Gerber Fmt 4.6, Leading zero omitted, Abs format (unit mm)*
G04 Created by KiCad (PCBNEW 10.0.4-10.0.4~ubuntu24.04.1) date 2026-08-14 16:25:44*
%MOMM*%
%LPD*%
G01*
G04 APERTURE LIST*
G04 Aperture macros list*
%AMRoundRect*
0 Rectangle with rounded corners*
0 $1 Rounding radius*
0 $2 $3 $4 $5 $6 $7 $8 $9 X,Y pos of 4 corners*
0 Add a 4 corners polygon primitive as box body*
4,1,4,$2,$3,$4,$5,$6,$7,$8,$9,$2,$3,0*
0 Add four circle primitives for the rounded corners*
1,1,$1+$1,$2,$3*
1,1,$1+$1,$4,$5*
1,1,$1+$1,$6,$7*
1,1,$1+$1,$8,$9*
0 Add four rect primitives between the rounded corners*
20,1,$1+$1,$2,$3,$4,$5,0*
20,1,$1+$1,$4,$5,$6,$7,0*
20,1,$1+$1,$6,$7,$8,$9,0*
20,1,$1+$1,$8,$9,$2,$3,0*%
G04 Aperture macros list end*
%TA.AperFunction,SMDPad,CuDef*%
%ADD10RoundRect,0.225000X0.225000X0.250000X-0.225000X0.250000X-0.225000X-0.250000X0.225000X-0.250000X0*%
%TD*%
%TA.AperFunction,SMDPad,CuDef*%
%ADD11RoundRect,0.135000X-0.135000X-0.185000X0.135000X-0.185000X0.135000X0.185000X-0.135000X0.185000X0*%
%TD*%
%TA.AperFunction,SMDPad,CuDef*%
%ADD12RoundRect,0.087500X-0.250000X-0.087500X0.250000X-0.087500X0.250000X0.087500X-0.250000X0.087500X0*%
%TD*%
%TA.AperFunction,SMDPad,CuDef*%
%ADD13C,1.000000*%
%TD*%
%TA.AperFunction,SMDPad,CuDef*%
%ADD14R,0.600000X0.300000*%
%TD*%
%TA.AperFunction,SMDPad,CuDef*%
%ADD15R,0.300000X0.600000*%
%TD*%
%TA.AperFunction,SMDPad,CuDef*%
%ADD16R,2.750000X2.750000*%
%TD*%
%TA.AperFunction,ComponentPad*%
%ADD17C,2.400000*%
%TD*%
%TA.AperFunction,ComponentPad*%
%ADD18C,2.800000*%
%TD*%
%TA.AperFunction,SMDPad,CuDef*%
%ADD19RoundRect,0.150000X-0.150000X-0.425000X0.150000X-0.425000X0.150000X0.425000X-0.150000X0.425000X0*%
%TD*%
%TA.AperFunction,SMDPad,CuDef*%
%ADD20RoundRect,0.075000X-0.075000X-0.500000X0.075000X-0.500000X0.075000X0.500000X-0.075000X0.500000X0*%
%TD*%
%TA.AperFunction,ComponentPad*%
%ADD21O,1.000000X2.100000*%
%TD*%
%TA.AperFunction,ComponentPad*%
%ADD22O,1.000000X1.800000*%
%TD*%
%TA.AperFunction,SMDPad,CuDef*%
%ADD23RoundRect,0.135000X0.185000X-0.135000X0.185000X0.135000X-0.185000X0.135000X-0.185000X-0.135000X0*%
%TD*%
%TA.AperFunction,SMDPad,CuDef*%
%ADD24RoundRect,0.140000X0.170000X-0.140000X0.170000X0.140000X-0.170000X0.140000X-0.170000X-0.140000X0*%
%TD*%
%TA.AperFunction,SMDPad,CuDef*%
%ADD25RoundRect,0.150000X0.150000X-0.512500X0.150000X0.512500X-0.150000X0.512500X-0.150000X-0.512500X0*%
%TD*%
%TA.AperFunction,SMDPad,CuDef*%
%ADD26RoundRect,0.135000X-0.185000X0.135000X-0.185000X-0.135000X0.185000X-0.135000X0.185000X0.135000X0*%
%TD*%
%TA.AperFunction,ComponentPad*%
%ADD27R,1.700000X1.700000*%
%TD*%
%TA.AperFunction,ComponentPad*%
%ADD28C,1.700000*%
%TD*%
%TA.AperFunction,SMDPad,CuDef*%
%ADD29RoundRect,0.100000X-0.100000X0.637500X-0.100000X-0.637500X0.100000X-0.637500X0.100000X0.637500X0*%
%TD*%
%TA.AperFunction,SMDPad,CuDef*%
%ADD30RoundRect,0.140000X-0.170000X0.140000X-0.170000X-0.140000X0.170000X-0.140000X0.170000X0.140000X0*%
%TD*%
%TA.AperFunction,SMDPad,CuDef*%
%ADD31RoundRect,0.250000X-1.000000X-0.900000X1.000000X-0.900000X1.000000X0.900000X-1.000000X0.900000X0*%
%TD*%
%TA.AperFunction,SMDPad,CuDef*%
%ADD32RoundRect,0.218750X0.256250X-0.218750X0.256250X0.218750X-0.256250X0.218750X-0.256250X-0.218750X0*%
%TD*%
%TA.AperFunction,SMDPad,CuDef*%
%ADD33RoundRect,0.111000X-0.259000X-1.284000X0.259000X-1.284000X0.259000X1.284000X-0.259000X1.284000X0*%
%TD*%
%TA.AperFunction,ViaPad*%
%ADD34C,0.450000*%
%TD*%
%TA.AperFunction,Conductor*%
%ADD35C,0.250000*%
%TD*%
%TA.AperFunction,Conductor*%
%ADD36C,0.300000*%
%TD*%
%TA.AperFunction,Conductor*%
%ADD37C,0.180000*%
%TD*%
%TA.AperFunction,Conductor*%
%ADD38C,0.295000*%
%TD*%
%ADD39C,0.200000*%
%ADD40C,0.250000*%
%ADD41C,0.350000*%
%ADD42O,0.600000X1.700000*%
%ADD43O,0.600000X1.400000*%
G04 APERTURE END LIST*
D10*
%TO.P,C2,1*%
%TO.N,3V3*%
X86175000Y-72360000D03*
%TO.P,C2,2*%
%TO.N,GND*%
X84625000Y-72360000D03*
%TD*%
D11*
%TO.P,R1,1*%
%TO.N,USB_CC1*%
X60490000Y-70500000D03*
%TO.P,R1,2*%
%TO.N,GND*%
X61510000Y-70500000D03*
%TD*%
D12*
%TO.P,U4,1*%
%TO.N,unconnected-(U4-NC1-Pad1)*%
X64287500Y-74800000D03*
%TO.P,U4,2*%
%TO.N,unconnected-(U4-NC2-Pad2)*%
X64287500Y-75300000D03*
%TO.P,U4,3*%
%TO.N,USB_CC1*%
X64287500Y-75800000D03*
%TO.P,U4,4*%
%TO.N,GND*%
X65712500Y-75800000D03*
%TO.P,U4,5*%
%TO.N,USB_CC2*%
X65712500Y-74800000D03*
%TD*%
D13*
%TO.P,FID1,*%
%TO.N,*%
X26500000Y-37000000D03*
%TD*%
D14*
%TO.P,U1,1*%
%TO.N,GND*%
X63100000Y-46750000D03*
%TO.P,U1,2*%
%TO.N,RF_ANT2*%
X63100000Y-47250000D03*
%TO.P,U1,3*%
%TO.N,GND*%
X63100000Y-47750000D03*
%TO.P,U1,4*%
%TO.N,RF_ANT3*%
X63100000Y-48250000D03*
%TO.P,U1,5*%
%TO.N,GND*%
X63100000Y-48750000D03*
%TO.P,U1,6*%
%TO.N,RF_ANT4*%
X63100000Y-49250000D03*
D15*
%TO.P,U1,7*%
%TO.N,GND*%
X63750000Y-49900000D03*
%TO.P,U1,8*%
%TO.N,3V3*%
X64250000Y-49900000D03*
%TO.P,U1,9*%
%TO.N,SW_V1*%
X64750000Y-49900000D03*
%TO.P,U1,10*%
%TO.N,SW_V2*%
X65250000Y-49900000D03*
%TO.P,U1,11*%
%TO.N,SW_V3*%
X65750000Y-49900000D03*
%TO.P,U1,12*%
%TO.N,SW_V4*%
X66250000Y-49900000D03*
D14*
%TO.P,U1,13*%
%TO.N,RF_ANT5*%
X66900000Y-49250000D03*
%TO.P,U1,14*%
%TO.N,GND*%
X66900000Y-48750000D03*
%TO.P,U1,15*%
%TO.N,RF_ANT6*%
X66900000Y-48250000D03*
%TO.P,U1,16*%
%TO.N,GND*%
X66900000Y-47750000D03*
%TO.P,U1,17*%
%TO.N,RF_ANT7*%
X66900000Y-47250000D03*
%TO.P,U1,18*%
%TO.N,GND*%
X66900000Y-46750000D03*
D15*
%TO.P,U1,19*%
%TO.N,RF_ANT8*%
X66250000Y-46100000D03*
%TO.P,U1,20*%
%TO.N,unconnected-(U1-NC-Pad20)*%
X65750000Y-46100000D03*
%TO.P,U1,21*%
%TO.N,GND*%
X65250000Y-46100000D03*
%TO.P,U1,22*%
%TO.N,RF_COMMON*%
X64750000Y-46100000D03*
%TO.P,U1,23*%
%TO.N,GND*%
X64250000Y-46100000D03*
%TO.P,U1,24*%
%TO.N,RF_ANT1*%
X63750000Y-46100000D03*
D16*
%TO.P,U1,25*%
%TO.N,GND*%
X65000000Y-48000000D03*
%TD*%
D17*
%TO.P,J9,1*%
%TO.N,RF_ANT7*%
X95000000Y-31600000D03*
D18*
%TO.P,J9,2*%
%TO.N,GND*%
X97540000Y-34140000D03*
%TO.P,J9,3*%
X92460000Y-34140000D03*
%TO.P,J9,4*%
X97540000Y-29060000D03*
%TO.P,J9,5*%
X92460000Y-29060000D03*
%TD*%
D19*
%TO.P,J1,A1*%
%TO.N,GND*%
X61800000Y-77645000D03*
%TO.P,J1,A4*%
%TO.N,VBUS_RAW*%
X62600000Y-77645000D03*
D20*
%TO.P,J1,A5*%
%TO.N,USB_CC1*%
X63750000Y-77645000D03*
%TO.P,J1,A6*%
%TO.N,unconnected-(J1-A6_DP_NC-PadA6)*%
X64750000Y-77645000D03*
%TO.P,J1,A7*%
%TO.N,unconnected-(J1-A7_DM_NC-PadA7)*%
X65250000Y-77645000D03*
%TO.P,J1,A8*%
%TO.N,unconnected-(J1-A8_SBU1_NC-PadA8)*%
X66250000Y-77645000D03*
D19*
%TO.P,J1,A9*%
%TO.N,VBUS_RAW*%
X67400000Y-77645000D03*
%TO.P,J1,A12*%
%TO.N,GND*%
X68200000Y-77645000D03*
%TO.P,J1,B1*%
X68200000Y-77645000D03*
%TO.P,J1,B4*%
%TO.N,VBUS_RAW*%
X67400000Y-77645000D03*
D20*
%TO.P,J1,B5*%
%TO.N,USB_CC2*%
X66750000Y-77645000D03*
%TO.P,J1,B6*%
%TO.N,unconnected-(J1-B6_DP_NC-PadB6)*%
X65750000Y-77645000D03*
%TO.P,J1,B7*%
%TO.N,unconnected-(J1-B7_DM_NC-PadB7)*%
X64250000Y-77645000D03*
%TO.P,J1,B8*%
%TO.N,unconnected-(J1-B8_SBU2_NC-PadB8)*%
X63250000Y-77645000D03*
D19*
%TO.P,J1,B9*%
%TO.N,VBUS_RAW*%
X62600000Y-77645000D03*
%TO.P,J1,B12*%
%TO.N,GND*%
X61800000Y-77645000D03*
D21*
%TO.P,J1,SH*%
X60680000Y-78220000D03*
D22*
X60680000Y-82400000D03*
D21*
X69320000Y-78220000D03*
D22*
X69320000Y-82400000D03*
%TD*%
D10*
%TO.P,C1,1*%
%TO.N,VBUS_PROTECTED*%
X86175000Y-74640000D03*
%TO.P,C1,2*%
%TO.N,GND*%
X84625000Y-74640000D03*
%TD*%
D17*
%TO.P,J8,1*%
%TO.N,RF_ANT6*%
X98400000Y-48000000D03*
D18*
%TO.P,J8,2*%
%TO.N,GND*%
X95860000Y-50540000D03*
%TO.P,J8,3*%
X95860000Y-45460000D03*
%TO.P,J8,4*%
X100940000Y-50540000D03*
%TO.P,J8,5*%
X100940000Y-45460000D03*
%TD*%
D23*
%TO.P,R3,1*%
%TO.N,3V3*%
X68000000Y-57010000D03*
%TO.P,R3,2*%
%TO.N,SW_V4*%
X68000000Y-55990000D03*
%TD*%
D24*
%TO.P,C5,1*%
%TO.N,3V3*%
X67500000Y-60280000D03*
%TO.P,C5,2*%
%TO.N,GND*%
X67500000Y-59320000D03*
%TD*%
%TO.P,C6,1*%
%TO.N,NRST*%
X61500000Y-60280000D03*
%TO.P,C6,2*%
%TO.N,GND*%
X61500000Y-59320000D03*
%TD*%
D25*
%TO.P,U3,1*%
%TO.N,VBUS_PROTECTED*%
X88050000Y-74637500D03*
%TO.P,U3,2*%
%TO.N,GND*%
X89000000Y-74637500D03*
%TO.P,U3,3*%
%TO.N,VBUS_PROTECTED*%
X89950000Y-74637500D03*
%TO.P,U3,4*%
%TO.N,unconnected-(U3-NC-Pad4)*%
X89950000Y-72362500D03*
%TO.P,U3,5*%
%TO.N,3V3*%
X88050000Y-72362500D03*
%TD*%
D10*
%TO.P,C3,1*%
%TO.N,3V3*%
X71275000Y-60000000D03*
%TO.P,C3,2*%
%TO.N,GND*%
X69725000Y-60000000D03*
%TD*%
D17*
%TO.P,J6,1*%
%TO.N,RF_ANT4*%
X31600000Y-66000000D03*
D18*
%TO.P,J6,2*%
%TO.N,GND*%
X34140000Y-63460000D03*
%TO.P,J6,3*%
X34140000Y-68540000D03*
%TO.P,J6,4*%
X29060000Y-63460000D03*
%TO.P,J6,5*%
X29060000Y-68540000D03*
%TD*%
D26*
%TO.P,R6,1*%
%TO.N,SW_V3*%
X65500000Y-56490000D03*
%TO.P,R6,2*%
%TO.N,GND*%
X65500000Y-57510000D03*
%TD*%
D17*
%TO.P,J5,1*%
%TO.N,RF_ANT3*%
X31600000Y-48000000D03*
D18*
%TO.P,J5,2*%
%TO.N,GND*%
X34140000Y-45460000D03*
%TO.P,J5,3*%
X34140000Y-50540000D03*
%TO.P,J5,4*%
X29060000Y-45460000D03*
%TO.P,J5,5*%
X29060000Y-50540000D03*
%TD*%
D26*
%TO.P,R5,1*%
%TO.N,SW_V2*%
X63000000Y-56490000D03*
%TO.P,R5,2*%
%TO.N,GND*%
X63000000Y-57510000D03*
%TD*%
D27*
%TO.P,J12,1*%
%TO.N,VBUS_RAW*%
X54000000Y-77000000D03*
D28*
%TO.P,J12,2*%
%TO.N,GND*%
X51460000Y-77000000D03*
%TD*%
D17*
%TO.P,J2,1*%
%TO.N,RF_COMMON*%
X65000000Y-31600000D03*
D18*
%TO.P,J2,2*%
%TO.N,GND*%
X67540000Y-34140000D03*
%TO.P,J2,3*%
X62460000Y-34140000D03*
%TO.P,J2,4*%
X67540000Y-29060000D03*
%TO.P,J2,5*%
X62460000Y-29060000D03*
%TD*%
D13*
%TO.P,FID3,*%
%TO.N,*%
X38000000Y-80000000D03*
%TD*%
D17*
%TO.P,J7,1*%
%TO.N,RF_ANT5*%
X98400000Y-66000000D03*
D18*
%TO.P,J7,2*%
%TO.N,GND*%
X95860000Y-68540000D03*
%TO.P,J7,3*%
X95860000Y-63460000D03*
%TO.P,J7,4*%
X100940000Y-68540000D03*
%TO.P,J7,5*%
X100940000Y-63460000D03*
%TD*%
D29*
%TO.P,U2,1*%
%TO.N,unconnected-(U2-PB7_NC-Pad1)*%
X67925000Y-62137500D03*
%TO.P,U2,2*%
%TO.N,unconnected-(U2-PC14_OSCX_IN_NC-Pad2)*%
X67275000Y-62137500D03*
%TO.P,U2,3*%
%TO.N,unconnected-(U2-PC15_OSCX_OUT_NC-Pad3)*%
X66625000Y-62137500D03*
%TO.P,U2,4*%
%TO.N,3V3*%
X65975000Y-62137500D03*
%TO.P,U2,5*%
%TO.N,GND*%
X65325000Y-62137500D03*
%TO.P,U2,6*%
%TO.N,NRST*%
X64675000Y-62137500D03*
%TO.P,U2,7*%
%TO.N,SW_V1*%
X64025000Y-62137500D03*
%TO.P,U2,8*%
%TO.N,SW_V2*%
X63375000Y-62137500D03*
%TO.P,U2,9*%
%TO.N,SW_V3*%
X62725000Y-62137500D03*
%TO.P,U2,10*%
%TO.N,SW_V4*%
X62075000Y-62137500D03*
%TO.P,U2,11*%
%TO.N,unconnected-(U2-PA4_NC-Pad11)*%
X62075000Y-67862500D03*
%TO.P,U2,12*%
%TO.N,unconnected-(U2-PA5_NC-Pad12)*%
X62725000Y-67862500D03*
%TO.P,U2,13*%
%TO.N,unconnected-(U2-PA6_NC-Pad13)*%
X63375000Y-67862500D03*
%TO.P,U2,14*%
%TO.N,unconnected-(U2-PA7_NC-Pad14)*%
X64025000Y-67862500D03*
%TO.P,U2,15*%
%TO.N,unconnected-(U2-PA8_NC-Pad15)*%
X64675000Y-67862500D03*
%TO.P,U2,16*%
%TO.N,unconnected-(U2-PA11_PA9_NC-Pad16)*%
X65325000Y-67862500D03*
%TO.P,U2,17*%
%TO.N,unconnected-(U2-PA12_PA10_NC-Pad17)*%
X65975000Y-67862500D03*
%TO.P,U2,18*%
%TO.N,SWDIO*%
X66625000Y-67862500D03*
%TO.P,U2,19*%
%TO.N,SWCLK*%
X67275000Y-67862500D03*
%TO.P,U2,20*%
%TO.N,unconnected-(U2-PB6_NC-Pad20)*%
X67925000Y-67862500D03*
%TD*%
D17*
%TO.P,J4,1*%
%TO.N,RF_ANT2*%
X35000000Y-31600000D03*
D18*
%TO.P,J4,2*%
%TO.N,GND*%
X37540000Y-34140000D03*
%TO.P,J4,3*%
X32460000Y-34140000D03*
%TO.P,J4,4*%
X37540000Y-29060000D03*
%TO.P,J4,5*%
X32460000Y-29060000D03*
%TD*%
D13*
%TO.P,FID2,*%
%TO.N,*%
X103500000Y-37000000D03*
%TD*%
D30*
%TO.P,C4,1*%
%TO.N,3V3*%
X64250000Y-51120000D03*
%TO.P,C4,2*%
%TO.N,GND*%
X64250000Y-52080000D03*
%TD*%
D31*
%TO.P,D1,1*%
%TO.N,VBUS_PROTECTED*%
X75350000Y-74500000D03*
%TO.P,D1,2*%
%TO.N,GND*%
X79650000Y-74500000D03*
%TD*%
D32*
%TO.P,F1,1*%
%TO.N,VBUS_RAW*%
X72000000Y-75287500D03*
%TO.P,F1,2*%
%TO.N,VBUS_PROTECTED*%
X72000000Y-73712500D03*
%TD*%
D17*
%TO.P,J3,1*%
%TO.N,RF_ANT1*%
X50000000Y-31600000D03*
D18*
%TO.P,J3,2*%
%TO.N,GND*%
X52540000Y-34140000D03*
%TO.P,J3,3*%
X47460000Y-34140000D03*
%TO.P,J3,4*%
X52540000Y-29060000D03*
%TO.P,J3,5*%
X47460000Y-29060000D03*
%TD*%
D11*
%TO.P,R2,1*%
%TO.N,USB_CC2*%
X67990000Y-70500000D03*
%TO.P,R2,2*%
%TO.N,GND*%
X69010000Y-70500000D03*
%TD*%
D33*
%TO.P,J11,1*%
%TO.N,3V3*%
X41460000Y-78032500D03*
%TO.P,J11,2*%
%TO.N,SWDIO*%
X41460000Y-73967500D03*
%TO.P,J11,3*%
%TO.N,GND*%
X42730000Y-78032500D03*
%TO.P,J11,4*%
%TO.N,SWCLK*%
X42730000Y-73967500D03*
%TO.P,J11,5*%
%TO.N,GND*%
X44000000Y-78032500D03*
%TO.P,J11,6*%
%TO.N,unconnected-(J11-SWO_NC-Pad6)*%
X44000000Y-73967500D03*
%TO.P,J11,7*%
%TO.N,unconnected-(J11-KEY_NC-Pad7)*%
X45270000Y-78032500D03*
%TO.P,J11,8*%
%TO.N,unconnected-(J11-TDI_NC-Pad8)*%
X45270000Y-73967500D03*
%TO.P,J11,9*%
%TO.N,GND*%
X46540000Y-78032500D03*
%TO.P,J11,10*%
%TO.N,NRST*%
X46540000Y-73967500D03*
%TD*%
D26*
%TO.P,R4,1*%
%TO.N,SW_V1*%
X60500000Y-55990000D03*
%TO.P,R4,2*%
%TO.N,GND*%
X60500000Y-57010000D03*
%TD*%
D17*
%TO.P,J10,1*%
%TO.N,RF_ANT8*%
X80000000Y-31600000D03*
D18*
%TO.P,J10,2*%
%TO.N,GND*%
X82540000Y-34140000D03*
%TO.P,J10,3*%
X77460000Y-34140000D03*
%TO.P,J10,4*%
X82540000Y-29060000D03*
%TO.P,J10,5*%
X77460000Y-29060000D03*
%TD*%
D34*
%TO.N,GND*%
X87220000Y-62640000D03*
X68420000Y-44050000D03*
X97500000Y-72500000D03*
X77500000Y-22500000D03*
X55400000Y-54180000D03*
X56530000Y-48900000D03*
X47500000Y-32500000D03*
X89840000Y-62710000D03*
X37500000Y-67500000D03*
X51250000Y-56960000D03*
X59470000Y-41200000D03*
X71010000Y-42540000D03*
X97500000Y-27500000D03*
X65610000Y-39520000D03*
X51530000Y-48860000D03*
X42730000Y-80000000D03*
X81450000Y-57080000D03*
X22500000Y-72500000D03*
X38850000Y-63580000D03*
X48530000Y-48830000D03*
X67970000Y-42690000D03*
X92500000Y-52500000D03*
X73890000Y-52020000D03*
X35770000Y-36020000D03*
X74740000Y-48890000D03*
X58610000Y-40700000D03*
X82500000Y-82500000D03*
X79700000Y-55910000D03*
X67500000Y-42500000D03*
X42500000Y-37500000D03*
X57030000Y-44680000D03*
X67500000Y-32500000D03*
X59960000Y-47380000D03*
X79750000Y-57630000D03*
X82500000Y-62500000D03*
X107500000Y-47500000D03*
X83370000Y-41970000D03*
X62330000Y-44490000D03*
X87500000Y-52500000D03*
X80590000Y-43100000D03*
X63300000Y-50810000D03*
X40930000Y-39660000D03*
X65569999Y-40520000D03*
X77440000Y-37180000D03*
X75670000Y-43590000D03*
X77810000Y-44230000D03*
X43780000Y-61960000D03*
X72280000Y-52630000D03*
X76170000Y-39540000D03*
X107500000Y-82500000D03*
X41450000Y-38360000D03*
X42500000Y-67500000D03*
X53740000Y-55290000D03*
X102500000Y-22500000D03*
X40510000Y-62470000D03*
X55530000Y-48890000D03*
X51710000Y-36690000D03*
X73160000Y-46120000D03*
X22500000Y-62500000D03*
X44610000Y-61410000D03*
X32500000Y-42500000D03*
X49800000Y-41750000D03*
X73110000Y-53180000D03*
X56880000Y-39690000D03*
X77500000Y-62500000D03*
X50500000Y-47450000D03*
X76740000Y-48870000D03*
X69790000Y-50960000D03*
X97500000Y-32500000D03*
X71400000Y-50350000D03*
X54570000Y-54730000D03*
X72270000Y-40190000D03*
X64180000Y-40480000D03*
X69690000Y-41690000D03*
X27500000Y-82500000D03*
X78090000Y-56520000D03*
X37500000Y-22500000D03*
X27500000Y-32500000D03*
X90740000Y-48760000D03*
X68960000Y-50400000D03*
X87500000Y-82500000D03*
X92500000Y-47350000D03*
X65480000Y-43520000D03*
X51500000Y-47460000D03*
X77500000Y-27500000D03*
X40550000Y-47370000D03*
X102500000Y-62500000D03*
X57500000Y-37500000D03*
X52500000Y-82500000D03*
X36810000Y-36480000D03*
X72500000Y-47500000D03*
X32500000Y-37500000D03*
X85980000Y-39400000D03*
X79670000Y-43480000D03*
X69280000Y-43550000D03*
X70620000Y-51510000D03*
X65750000Y-47250000D03*
X57530000Y-48910000D03*
X79500000Y-47450000D03*
X52610000Y-54360000D03*
X52500000Y-22500000D03*
X32500000Y-52500000D03*
X80740000Y-48840000D03*
X70100000Y-45850000D03*
X55930000Y-52140000D03*
X62500000Y-42500000D03*
X70570000Y-49790000D03*
X38020000Y-64140000D03*
X48500000Y-47430000D03*
X80580000Y-58190000D03*
X67500000Y-37500000D03*
X89010000Y-62150000D03*
X49530000Y-48840000D03*
X79200000Y-36140000D03*
X46270000Y-60300000D03*
X47500000Y-77500000D03*
X54980000Y-45360000D03*
X37190000Y-64690000D03*
X53310000Y-43170000D03*
X52500000Y-77500000D03*
X50530000Y-48850000D03*
X47500000Y-37500000D03*
X56100000Y-44300000D03*
X85050000Y-39780000D03*
X71410000Y-40690000D03*
X102500000Y-57500000D03*
X84860000Y-59370000D03*
X37500000Y-52500000D03*
X36290000Y-37780000D03*
X50420000Y-57510000D03*
X102500000Y-47500000D03*
X74770000Y-54290000D03*
X72500000Y-42500000D03*
X65540000Y-41520000D03*
X77500000Y-47500000D03*
X51010000Y-37900000D03*
X47930000Y-59180000D03*
X51780000Y-54920000D03*
X97500000Y-52500000D03*
X81740000Y-48830000D03*
X27500000Y-22500000D03*
X87500000Y-27500000D03*
X32500000Y-67500000D03*
X77260000Y-55960000D03*
X27500000Y-57500000D03*
X65510000Y-42520000D03*
X77030000Y-39040000D03*
X102500000Y-72500000D03*
X85740000Y-48800000D03*
X59530000Y-48920000D03*
X44000000Y-80000000D03*
X70320000Y-61060000D03*
X92470000Y-36770000D03*
X64069998Y-57510000D03*
X39550000Y-47360000D03*
X67500000Y-27500000D03*
X22500000Y-52500000D03*
X78500000Y-47460000D03*
X83070000Y-59860000D03*
X44660000Y-59690000D03*
X66569998Y-57510000D03*
X72500000Y-62500000D03*
X52500000Y-52500000D03*
X57500000Y-62500000D03*
X69740000Y-49230000D03*
X82500000Y-42500000D03*
X86520000Y-60480000D03*
X47500000Y-52500000D03*
X39590000Y-37610000D03*
X80410000Y-41660000D03*
X38530000Y-48760000D03*
X54500000Y-47480000D03*
X77500000Y-67500000D03*
X60510000Y-48930000D03*
X77500000Y-32500000D03*
X75020000Y-45360000D03*
X36770000Y-66599999D03*
X54470000Y-39910000D03*
X102500000Y-52500000D03*
X72500000Y-22500000D03*
X72500000Y-77500000D03*
X44530000Y-48800000D03*
X80530000Y-56470000D03*
X56760000Y-51580000D03*
X54240000Y-43550000D03*
X60440000Y-59320000D03*
X42500000Y-47500000D03*
X107500000Y-52500000D03*
X59500000Y-49750000D03*
X45530000Y-48810000D03*
X76580000Y-37680000D03*
X86500000Y-47390000D03*
X52500000Y-47500000D03*
X66900000Y-45850000D03*
X62010000Y-42680000D03*
X45160000Y-39860000D03*
X62500000Y-27500000D03*
X62500000Y-22500000D03*
X92500000Y-82500000D03*
X48870000Y-41370000D03*
X64080000Y-43480000D03*
X78870000Y-55360000D03*
X22500000Y-77500000D03*
X27500000Y-52500000D03*
X72230000Y-50910000D03*
X52500000Y-72500000D03*
X79740000Y-48850000D03*
X84300000Y-41600000D03*
X56500000Y-47500000D03*
X75310000Y-40040000D03*
X36530000Y-48740000D03*
X49500000Y-47440000D03*
X85690000Y-59930000D03*
X82500000Y-57500000D03*
X82500000Y-22500000D03*
X47500000Y-67500000D03*
X73130000Y-39690000D03*
X87840000Y-38650000D03*
X102500000Y-42500000D03*
X60660000Y-47530000D03*
X65640000Y-38520000D03*
X74500000Y-47490000D03*
X75550000Y-53130000D03*
X72500000Y-27500000D03*
X70490000Y-47520000D03*
X52580000Y-37190000D03*
X86910000Y-39030000D03*
X72890000Y-44720000D03*
X57760000Y-46490000D03*
X54270000Y-53250000D03*
X53440000Y-37690000D03*
X89700000Y-37900000D03*
X22500000Y-82500000D03*
X51090000Y-42270000D03*
X55170000Y-43930000D03*
X52500000Y-27500000D03*
X46560000Y-58420000D03*
X45440000Y-60850000D03*
X61290000Y-50230000D03*
X69490000Y-47530000D03*
X54050000Y-44980000D03*
X89500000Y-47370000D03*
X72230000Y-46490000D03*
X32500000Y-22500000D03*
X80500000Y-47440000D03*
X65000000Y-47250000D03*
X87090000Y-40470000D03*
X77500000Y-42500000D03*
X94270000Y-35960000D03*
X74090000Y-45740000D03*
X61360000Y-43920000D03*
X92500000Y-77500000D03*
X42500000Y-32500000D03*
X93580000Y-37830000D03*
X32500000Y-57500000D03*
X91740000Y-48750000D03*
X61570000Y-57010000D03*
X32500000Y-77500000D03*
X85500000Y-47400000D03*
X64209999Y-39480000D03*
X102500000Y-27500000D03*
X56020000Y-39190000D03*
X92500000Y-42500000D03*
X22500000Y-67500000D03*
X52190000Y-44230000D03*
X75950000Y-44980000D03*
X77500000Y-52500000D03*
X37220000Y-38150000D03*
X72500000Y-37500000D03*
X45490000Y-59130000D03*
X87500000Y-57500000D03*
X55330000Y-40410000D03*
X77890000Y-38540000D03*
X47500000Y-42500000D03*
X50120000Y-56030000D03*
X72500000Y-32500000D03*
X92500000Y-62500000D03*
X72500000Y-82500000D03*
X46540000Y-80000000D03*
X68730000Y-78790000D03*
X37550000Y-47350000D03*
X71740000Y-48910000D03*
X37500000Y-77500000D03*
X97500000Y-37500000D03*
X107500000Y-72500000D03*
X97500000Y-77500000D03*
X72500000Y-72500000D03*
X55100000Y-52690000D03*
X61190000Y-42200000D03*
X41290000Y-63630000D03*
X86740000Y-48790000D03*
X38660000Y-37230000D03*
X60490000Y-43420000D03*
X52500000Y-32500000D03*
X88500000Y-47380000D03*
X91730000Y-38580000D03*
X90670000Y-63260000D03*
X38550000Y-47360000D03*
X82270000Y-40910000D03*
X41530000Y-48780000D03*
X73060000Y-51460000D03*
X78300000Y-36680000D03*
X52740000Y-38910000D03*
X47530000Y-48830000D03*
X56230000Y-53620000D03*
X88940000Y-39710000D03*
X83200000Y-58260000D03*
X64250000Y-48000000D03*
X92500000Y-22500000D03*
X85560000Y-61520000D03*
X42380000Y-38740000D03*
X77210000Y-54240000D03*
X90620000Y-37520000D03*
X59630000Y-42910000D03*
X91550000Y-37150000D03*
X62500000Y-32500000D03*
X52910000Y-55850000D03*
X53500000Y-47470000D03*
X42170000Y-61360000D03*
X107500000Y-62500000D03*
X78550000Y-42420000D03*
X83900000Y-60410000D03*
X62190000Y-46300000D03*
X107500000Y-57500000D03*
X43710000Y-40790000D03*
X84030000Y-58810000D03*
X32500000Y-27500000D03*
X42120000Y-63080000D03*
X43000000Y-60800000D03*
X85230000Y-41220000D03*
X37740000Y-36850000D03*
X82500000Y-77500000D03*
X68560000Y-59320000D03*
X39680000Y-63030000D03*
X73500000Y-47500000D03*
X90500000Y-47360000D03*
X32500000Y-62500000D03*
X92500000Y-67500000D03*
X64269999Y-37480000D03*
X84500000Y-47410000D03*
X84130000Y-40160000D03*
X41340000Y-61910000D03*
X107500000Y-32500000D03*
X32500000Y-72500000D03*
X73740000Y-48900000D03*
X83500000Y-47420000D03*
X86160000Y-40840000D03*
X47500000Y-27500000D03*
X42790000Y-40410000D03*
X92330000Y-64379999D03*
X72500000Y-57500000D03*
X38140000Y-38530000D03*
X60710000Y-50620000D03*
X48490000Y-42730000D03*
X72740000Y-48900000D03*
X92500000Y-32500000D03*
X51270000Y-43850000D03*
X87500000Y-47500000D03*
X60780000Y-46200000D03*
X47100000Y-59740000D03*
X58890000Y-45430000D03*
X71030000Y-45470000D03*
X88010000Y-40090000D03*
X48760000Y-58630000D03*
X36550000Y-47340000D03*
X32500000Y-82500000D03*
X92660000Y-38210000D03*
X27500000Y-47500000D03*
X42500000Y-82500000D03*
X40000000Y-39280000D03*
X82500000Y-47500000D03*
X102500000Y-77500000D03*
X76430000Y-55410000D03*
X32500000Y-32500000D03*
X57500000Y-22500000D03*
X22500000Y-42500000D03*
X93160000Y-64930000D03*
X27500000Y-72500000D03*
X88050000Y-63190000D03*
X87740000Y-48780000D03*
X49610000Y-36910000D03*
X57910000Y-41910000D03*
X78750000Y-38040000D03*
X37500000Y-57500000D03*
X47500000Y-82500000D03*
X40520000Y-37980000D03*
X43530000Y-48790000D03*
X47500000Y-57500000D03*
X49420000Y-43100000D03*
X97500000Y-62500000D03*
X57500000Y-72500000D03*
X88180000Y-61590000D03*
X77500000Y-72500000D03*
X102500000Y-67500000D03*
X57740000Y-40200000D03*
X38800000Y-65300000D03*
X83740000Y-48820000D03*
X58690000Y-46860000D03*
X41860000Y-40040000D03*
X74450000Y-40540000D03*
X94890000Y-37280000D03*
X62500000Y-37500000D03*
X70550000Y-41190000D03*
X60330000Y-41700000D03*
X57060000Y-53070000D03*
X78040000Y-54800000D03*
X75500000Y-47480000D03*
X62880000Y-43180000D03*
X65750000Y-48000000D03*
X46560000Y-41950000D03*
X43310000Y-39110000D03*
X22500000Y-22500000D03*
X44500000Y-47400000D03*
X47500000Y-47500000D03*
X71490000Y-47510000D03*
X79960000Y-37330000D03*
X97500000Y-82500000D03*
X64110000Y-42480000D03*
X41530000Y-47380000D03*
X50760000Y-36100000D03*
X58420000Y-50470000D03*
X57500000Y-82500000D03*
X65170000Y-76600000D03*
X88880000Y-63750000D03*
X64250000Y-47250000D03*
X65330000Y-63620000D03*
X77500000Y-77500000D03*
X59550000Y-51400000D03*
X84730000Y-60970000D03*
X73810000Y-44340000D03*
X48460000Y-57140000D03*
X42500000Y-42500000D03*
X102500000Y-82500000D03*
X82740000Y-48820000D03*
X71960000Y-45090000D03*
X92500000Y-27500000D03*
X50950000Y-55470000D03*
X97500000Y-22500000D03*
X72730000Y-41540000D03*
X73940000Y-53740000D03*
X45500000Y-47410000D03*
X37530000Y-48750000D03*
X27500000Y-27500000D03*
X37500000Y-72500000D03*
X49590000Y-58070000D03*
X62530000Y-70500000D03*
X77500000Y-82500000D03*
X87500000Y-37500000D03*
X89710000Y-64300000D03*
X34720000Y-36940000D03*
X87500000Y-42500000D03*
X89740000Y-48770000D03*
X68830000Y-42190000D03*
X42500000Y-27500000D03*
X40530000Y-48770000D03*
X65000000Y-48750000D03*
X107500000Y-42500000D03*
X88770000Y-38270000D03*
X77740000Y-48860000D03*
X93400000Y-36390000D03*
X71870000Y-42040000D03*
X53440000Y-53810000D03*
X39530000Y-48760000D03*
X58770000Y-42410000D03*
X65670000Y-37520000D03*
X83200000Y-40530000D03*
X55910000Y-45740000D03*
X27500000Y-62500000D03*
X79480000Y-42040000D03*
X78920000Y-57080000D03*
X73990000Y-39190000D03*
X88740000Y-48780000D03*
X47010000Y-40620000D03*
X40460000Y-64190000D03*
X97500000Y-42500000D03*
X36300000Y-65280000D03*
X57590000Y-51030000D03*
X57050000Y-41410000D03*
X52080000Y-56400000D03*
X74850000Y-38680000D03*
X57500000Y-42500000D03*
X97500000Y-57500000D03*
X75720000Y-38180000D03*
X27500000Y-67500000D03*
X52500000Y-62500000D03*
X78740000Y-43850000D03*
X91500000Y-47350000D03*
X76880000Y-44610000D03*
X71300000Y-46870000D03*
X44640000Y-41160000D03*
X37500000Y-62500000D03*
X70740000Y-48920000D03*
X92500000Y-57500000D03*
X50340000Y-43480000D03*
X58530000Y-48910000D03*
X53610000Y-39410000D03*
X64250000Y-53110000D03*
X87500000Y-67500000D03*
X56190000Y-40910000D03*
X107500000Y-37500000D03*
X37970000Y-65860000D03*
X54300000Y-38190000D03*
X42500000Y-52500000D03*
X81500000Y-47430000D03*
X102500000Y-32500000D03*
X90800000Y-38960000D03*
X52530000Y-48870000D03*
X87500000Y-32500000D03*
X53120000Y-44610000D03*
X69170000Y-46220000D03*
X64239999Y-38480000D03*
X89870000Y-39340000D03*
X91370000Y-65420000D03*
X82500000Y-32500000D03*
X59810000Y-45810000D03*
X90540000Y-64860000D03*
X22500000Y-32500000D03*
X78740000Y-48860000D03*
X22500000Y-27500000D03*
X53530000Y-48870000D03*
X64250000Y-48750000D03*
X64140000Y-41480000D03*
X55500000Y-47490000D03*
X37500000Y-42500000D03*
X85220000Y-75700000D03*
X81340000Y-41290000D03*
X67500000Y-22500000D03*
X67560000Y-44550000D03*
X57500000Y-67500000D03*
X51880000Y-38400000D03*
X47500000Y-62500000D03*
X86390000Y-62080000D03*
X54530000Y-48880000D03*
X47940000Y-40990000D03*
X77500000Y-57500000D03*
X75600000Y-54850000D03*
X58720000Y-51950000D03*
X57500000Y-32500000D03*
X97500000Y-67500000D03*
X82500000Y-37500000D03*
X107500000Y-77500000D03*
X107500000Y-27500000D03*
X39070000Y-38910000D03*
X72500000Y-67500000D03*
X87500000Y-77500000D03*
X42950000Y-62520000D03*
X82500000Y-72500000D03*
X52500000Y-42500000D03*
X74740000Y-43960000D03*
X87350000Y-61040000D03*
X42500000Y-57500000D03*
X70140000Y-43040000D03*
X46500000Y-47420000D03*
X39630000Y-64739999D03*
X57500000Y-47500000D03*
X92500000Y-72500000D03*
X44230000Y-39490000D03*
X107500000Y-22500000D03*
X47500000Y-22500000D03*
X58730000Y-47520000D03*
X43830000Y-60250000D03*
X92200000Y-65970000D03*
X93100000Y-48740000D03*
X82240000Y-59300000D03*
X62500000Y-72500000D03*
X45560000Y-41540000D03*
X37500000Y-27500000D03*
X57500000Y-27500000D03*
X82500000Y-67500000D03*
X89530000Y-75860000D03*
X27500000Y-42500000D03*
X81410000Y-58740000D03*
X70030000Y-70500000D03*
X46530000Y-48820000D03*
X37500000Y-82500000D03*
X107500000Y-67500000D03*
X22500000Y-57500000D03*
X57960000Y-45060000D03*
X76640000Y-43190000D03*
X75740000Y-48880000D03*
X46080000Y-40240000D03*
X43500000Y-47390000D03*
X42500000Y-22500000D03*
X49290000Y-56590000D03*
X76500000Y-47470000D03*
X85220000Y-73420000D03*
X82500000Y-27500000D03*
X81650000Y-74500000D03*
X56840000Y-46110000D03*
X71450000Y-52070000D03*
X42530000Y-48790000D03*
X84740000Y-48810000D03*
X55160000Y-38690000D03*
X82500000Y-52500000D03*
X61270000Y-78790000D03*
X73590000Y-41040000D03*
X57890000Y-52510000D03*
X74720000Y-52580000D03*
X22500000Y-37500000D03*
X37500000Y-32500000D03*
X76380000Y-53690000D03*
X93480000Y-47340000D03*
X65750000Y-48750000D03*
X27500000Y-77500000D03*
X81510000Y-42730000D03*
X65000000Y-48000000D03*
X52500000Y-57500000D03*
X22500000Y-47500000D03*
X91500000Y-63820000D03*
X87500000Y-22500000D03*
X66849999Y-43340000D03*
%TO.N,SW_V2*%
X64400000Y-56800000D03*
X65099999Y-58300000D03*
%TO.N,SW_V3*%
X66300000Y-55200000D03*
X66300000Y-56490000D03*
%TO.N,SW_V4*%
X63800000Y-56000000D03*
X62200000Y-57600000D03*
%TO.N,NRST*%
X47300000Y-72600000D03*
X60700000Y-60280000D03*
X65000000Y-60900000D03*
X47300000Y-71400000D03*
X58900000Y-62100000D03*
%TO.N,SWDIO*%
X50600000Y-70300000D03*
X51200000Y-69100000D03*
%TD*%
%TO.N,3V3*%
D35*
X52800000Y-66700000D02*
X47500000Y-72000000D01*
X85300000Y-71500000D02*
X86200000Y-72400000D01*
X66800000Y-58900000D02*
X68500000Y-57200000D01*
X63800000Y-66099999D02*
X63200000Y-66700000D01*
X41500000Y-78000000D02*
X41460000Y-78032500D01*
X68500000Y-57200000D02*
X68700000Y-57000000D01*
X64250000Y-49900000D02*
X64250000Y-51120000D01*
X64200000Y-51100000D02*
X64250000Y-51120000D01*
X67000000Y-60300000D02*
X67500000Y-60300000D01*
X63200000Y-66700000D02*
X52800000Y-66700000D01*
X68000000Y-57010000D02*
X68800000Y-57000000D01*
X63100000Y-51500000D02*
X63800000Y-51500000D01*
X86200000Y-72400000D02*
X86175000Y-72360000D01*
X57900000Y-57400000D02*
X58800000Y-56500000D01*
X58800000Y-55800000D02*
X63100000Y-51500000D01*
X67400000Y-60300000D02*
X66800000Y-59700000D01*
X86200000Y-72400000D02*
X88000000Y-72400000D01*
X71300000Y-60000000D02*
X71275000Y-60000000D01*
X83500000Y-72100000D02*
X84100000Y-71500000D01*
X57900000Y-60200000D02*
X57900000Y-57400000D01*
X40700000Y-72500000D02*
X40700000Y-77200000D01*
X68500000Y-57200000D02*
X71300000Y-60000000D01*
X66000000Y-62100000D02*
X66000000Y-61300000D01*
X58800000Y-56500000D02*
X58800000Y-55800000D01*
X84100000Y-71500000D02*
X85300000Y-71500000D01*
X67500000Y-60300000D02*
X67500000Y-60280000D01*
X66000000Y-61300000D02*
X67000000Y-60300000D01*
X66000000Y-62100000D02*
X66000000Y-63900000D01*
X88000000Y-72400000D02*
X88050000Y-72362500D01*
X41200000Y-72000000D02*
X40700000Y-72500000D01*
X66000000Y-63900000D02*
X63800000Y-66099999D01*
X63800000Y-66099999D02*
X57900000Y-60200000D01*
X66800000Y-59700000D02*
X66800000Y-58900000D01*
X68700000Y-57000000D02*
X68800000Y-57000000D01*
X71300000Y-60000000D02*
X83400000Y-72100000D01*
X47500000Y-72000000D02*
X41200000Y-72000000D01*
X65974999Y-62137500D02*
X66000000Y-62100000D01*
X83400000Y-72100000D02*
X83500000Y-72100000D01*
X40700000Y-77200000D02*
X41500000Y-78000000D01*
X63800000Y-51500000D02*
X64200000Y-51100000D01*
%TO.N,GND*%
D36*
X65325000Y-62137500D02*
X65330000Y-63620000D01*
X61510000Y-70500000D02*
X62530000Y-70500000D01*
X84625000Y-72360000D02*
X85220000Y-73420000D01*
X61800000Y-77645000D02*
X61270000Y-78790000D01*
X66900000Y-48750000D02*
X66300000Y-48750000D01*
X42730000Y-78032000D02*
X42730000Y-80000000D01*
X79650000Y-74500000D02*
X81650000Y-74500000D01*
X65250000Y-46100000D02*
X65250000Y-46700000D01*
X66900000Y-46750000D02*
X66900000Y-45850000D01*
X64250000Y-46100000D02*
X64250000Y-46700000D01*
X65712500Y-75800000D02*
X65170000Y-76600000D01*
X67500000Y-59320000D02*
X68560000Y-59320000D01*
X63100000Y-48750000D02*
X63700000Y-48750000D01*
X89000000Y-74637500D02*
X89530000Y-75860000D01*
X69725000Y-60000000D02*
X70320000Y-61060000D01*
X63100000Y-46750000D02*
X62190000Y-46300000D01*
X69010000Y-70500000D02*
X70030000Y-70500000D01*
X66900000Y-47750000D02*
X66300000Y-47750000D01*
X63750000Y-49900000D02*
X63300000Y-50810000D01*
X63000000Y-57510000D02*
X64069998Y-57510000D01*
X65500000Y-57510000D02*
X66569998Y-57510000D01*
X60500000Y-57010000D02*
X61570000Y-57010000D01*
X44000000Y-78032000D02*
X44000000Y-80000000D01*
X61500000Y-59320000D02*
X60440000Y-59320000D01*
X63100000Y-47750000D02*
X63700000Y-47750000D01*
X64250000Y-52080000D02*
X64250000Y-53110000D01*
X68200000Y-77645000D02*
X68730000Y-78790000D01*
X46540000Y-78032000D02*
X46540000Y-80000000D01*
X84625000Y-74640000D02*
X85220000Y-75700000D01*
%TO.N,USB_CC1*%
D37*
X63400000Y-75800000D02*
X60500000Y-72900000D01*
X60500000Y-72900000D02*
X60500000Y-70500000D01*
X63750000Y-77645000D02*
X63750000Y-76600000D01*
X63750000Y-76600000D02*
X63400000Y-76300000D01*
X63400000Y-76300000D02*
X63400000Y-75800000D01*
X63400000Y-75800000D02*
X64287000Y-75800000D01*
%TO.N,USB_CC2*%
X66750000Y-74800000D02*
X66800000Y-74800000D01*
X66750000Y-77645000D02*
X66750000Y-74800000D01*
X66750000Y-74800000D02*
X65712999Y-74800000D01*
X66800000Y-74800000D02*
X68000000Y-73600000D01*
X68000000Y-73600000D02*
X68000000Y-70500000D01*
%TO.N,RF_ANT2*%
D38*
X61319000Y-47177000D02*
X35624000Y-36753000D01*
X63100000Y-47250000D02*
X61695000Y-47250000D01*
X35000000Y-35827000D02*
X35000000Y-31600000D01*
X61695000Y-47250000D02*
G75*
G02*
X61319001Y-47176997I-3200J988300D01*
G01*
X35624000Y-36753000D02*
G75*
G02*
X34999968Y-35827000I377700J927800D01*
G01*
%TO.N,RF_ANT3*%
X63100000Y-48250000D02*
X31600000Y-48000000D01*
%TO.N,RF_ANT4*%
X63100000Y-49250000D02*
X61804000Y-49250000D01*
X36196000Y-66000000D02*
X31600000Y-66000000D01*
X61247000Y-49419000D02*
X36753000Y-65831000D01*
X61804000Y-49250000D02*
G75*
G03*
X61246997Y-49418996I-1100J-998800D01*
G01*
X36753000Y-65831000D02*
G75*
G02*
X36196000Y-65999995I-555900J829800D01*
G01*
%TO.N,SW_V1*%
D37*
X63600000Y-63300000D02*
X64000000Y-62900000D01*
X59500000Y-56000000D02*
X59500000Y-58300000D01*
X65000000Y-52800000D02*
X65000000Y-52850000D01*
X64750000Y-50500000D02*
X64860000Y-50500000D01*
X59800000Y-55700000D02*
X59500000Y-56000000D01*
X60500000Y-55990000D02*
X59500000Y-55990000D01*
X58400000Y-59900000D02*
X61800000Y-63300000D01*
X59500000Y-58300000D02*
X58400000Y-59400000D01*
X64860000Y-50500000D02*
X64860000Y-52850000D01*
X64025000Y-61000000D02*
X65400000Y-59700000D01*
X64025000Y-62138000D02*
X64025000Y-61000000D01*
X64000000Y-62900000D02*
X64000000Y-61100000D01*
X64000000Y-61100000D02*
X65400000Y-59700000D01*
X58400000Y-59400000D02*
X58400000Y-59900000D01*
X65000000Y-53300000D02*
X62600000Y-55700000D01*
X64860000Y-52850000D02*
X65000000Y-52850000D01*
X62600000Y-55700000D02*
X59800000Y-55700000D01*
X64750000Y-49900000D02*
X64750000Y-50500000D01*
X65000000Y-52800000D02*
X65000000Y-53300000D01*
X61800000Y-63300000D02*
X63600000Y-63300000D01*
%TO.N,SW_V2*%
X65800000Y-53100000D02*
X65800000Y-52000000D01*
X63000000Y-56490000D02*
X62200000Y-56490000D01*
X63500000Y-56800000D02*
X64400000Y-56800000D01*
X63375000Y-62138000D02*
X63375000Y-61000000D01*
X62800000Y-56100000D02*
X65800000Y-53100000D01*
X65250000Y-50500000D02*
X65800000Y-52000000D01*
X62200000Y-56500000D02*
X62600000Y-56100000D01*
X65250000Y-49900000D02*
X65250000Y-50500000D01*
X65099999Y-58300000D02*
X64400000Y-59000000D01*
X63375000Y-61000000D02*
X64400000Y-59200000D01*
X64400000Y-59000000D02*
X64400000Y-59200000D01*
X62600000Y-56100000D02*
X62800000Y-56100000D01*
X62800000Y-56100000D02*
X63500000Y-56800000D01*
%TO.N,SW_V3*%
X65900000Y-56900000D02*
X65099999Y-56900000D01*
X62725000Y-62138000D02*
X62725000Y-61000000D01*
X65750000Y-50500000D02*
X66599999Y-52000000D01*
X64800000Y-57800000D02*
X63800000Y-58800000D01*
X65750000Y-49900000D02*
X65750000Y-50500000D01*
X64800000Y-57200000D02*
X64800000Y-57800000D01*
X63800000Y-58800000D02*
X63400000Y-58800000D01*
X66300000Y-56500000D02*
X65900000Y-56900000D01*
X66300000Y-55200000D02*
X66599999Y-54900000D01*
X66599999Y-54900000D02*
X66599999Y-52000000D01*
X65099999Y-56900000D02*
X64800000Y-57200000D01*
X65500000Y-56490000D02*
X66300000Y-56490000D01*
X62725000Y-61000000D02*
X63400000Y-58800000D01*
%TO.N,SW_V4*%
X62200000Y-58300000D02*
X62400000Y-58500000D01*
X66250000Y-50500000D02*
X67400000Y-52000000D01*
X67400000Y-56000000D02*
X66700000Y-56000000D01*
X66250000Y-49900000D02*
X66250000Y-50500000D01*
X69000000Y-56000000D02*
X67400000Y-56000000D01*
X68000000Y-55990000D02*
X69000000Y-55990000D01*
X66700000Y-56000000D02*
X66500000Y-55800000D01*
X62200000Y-57600000D02*
X62200000Y-58300000D01*
X62075000Y-62138000D02*
X62075000Y-61000000D01*
X64000000Y-55800000D02*
X63800000Y-56000000D01*
X66500000Y-55800000D02*
X64000000Y-55800000D01*
X62075000Y-61000000D02*
X62400000Y-58500000D01*
X67400000Y-56000000D02*
X67400000Y-52000000D01*
%TO.N,RF_ANT5*%
D38*
X93804000Y-66000000D02*
X98400000Y-66000000D01*
X68753000Y-49419000D02*
X93247000Y-65831000D01*
X66900000Y-49250000D02*
X68196000Y-49250000D01*
X93247000Y-65831000D02*
G75*
G03*
X93804000Y-65999995I555900J829800D01*
G01*
X68196000Y-49250000D02*
G75*
G02*
X68753003Y-49418996I1100J-998800D01*
G01*
%TO.N,RF_ANT6*%
X66900000Y-48250000D02*
X98400000Y-48000000D01*
%TO.N,RF_ANT7*%
X68681000Y-47177000D02*
X94376000Y-36753000D01*
X66900000Y-47250000D02*
X68305000Y-47250000D01*
X95000000Y-35827000D02*
X95000000Y-31600000D01*
X68305000Y-47250000D02*
G75*
G03*
X68680999Y-47176997I3200J988300D01*
G01*
X94376000Y-36753000D02*
G75*
G03*
X95000032Y-35827000I-377700J927800D01*
G01*
%TO.N,RF_ANT8*%
X66250000Y-46100000D02*
X66250000Y-45075000D01*
X66747000Y-44211000D02*
X79503000Y-36789000D01*
X80000000Y-35925000D02*
X80000000Y-31600000D01*
X66250000Y-45075000D02*
G75*
G02*
X66746981Y-44210967I1000100J-300D01*
G01*
X79503000Y-36789000D02*
G75*
G03*
X79999962Y-35925000I-503100J864300D01*
G01*
%TO.N,RF_COMMON*%
X64760000Y-44188000D02*
X64989999Y-36812000D01*
X65000000Y-36188000D02*
X65000000Y-31600000D01*
X64750000Y-46100000D02*
X64750000Y-44812000D01*
X64750000Y-44812000D02*
G75*
G02*
X64760002Y-44188000I16226300J52000D01*
G01*
X64989999Y-36812000D02*
G75*
G03*
X64999999Y-36188000I-16218999J572000D01*
G01*
%TO.N,RF_ANT1*%
X50000000Y-35925000D02*
X50000000Y-31600000D01*
X63750000Y-46100000D02*
X63750000Y-45075000D01*
X63253000Y-44211000D02*
X50497000Y-36789000D01*
X50497000Y-36789000D02*
G75*
G02*
X50000038Y-35925000I503100J864300D01*
G01*
X63750000Y-45075000D02*
G75*
G03*
X63253019Y-44210967I-1000100J-300D01*
G01*
%TO.N,VBUS_RAW*%
D36*
X62600000Y-77600000D02*
X62600000Y-77645000D01*
X67500000Y-76900000D02*
X69100000Y-75300000D01*
X57500000Y-77000000D02*
X59700000Y-77300000D01*
X70600000Y-75300000D02*
X72000000Y-75300000D01*
X67200000Y-82200000D02*
X62600000Y-82200000D01*
X62600000Y-82200000D02*
X59700000Y-79300000D01*
X67400000Y-77600000D02*
X67500000Y-77500000D01*
X67500000Y-77500000D02*
X67500000Y-76900000D01*
X59700000Y-77300000D02*
X60900000Y-76100000D01*
X61400000Y-76100000D02*
X61800000Y-76500000D01*
X62600000Y-77000000D02*
X62600000Y-77600000D01*
X59700000Y-79300000D02*
X59700000Y-77300000D01*
X69100000Y-75300000D02*
X70600000Y-75300000D01*
X61800000Y-76500000D02*
X62100000Y-76500000D01*
X60900000Y-76100000D02*
X61400000Y-76100000D01*
X70600000Y-75300000D02*
X70600000Y-78800000D01*
X62100000Y-76500000D02*
X62600000Y-77000000D01*
X67400000Y-77645000D02*
X67400000Y-77600000D01*
X54000000Y-77000000D02*
X57500000Y-77000000D01*
X70600000Y-78800000D02*
X67200000Y-82200000D01*
%TO.N,VBUS_PROTECTED*%
X88700000Y-73500000D02*
X89300000Y-73500000D01*
X74600000Y-73700000D02*
X72000000Y-73700000D01*
X86200000Y-74600000D02*
X86200000Y-75700000D01*
X90000000Y-74600000D02*
X89950000Y-74637500D01*
X75400000Y-74500000D02*
X74600000Y-73700000D01*
X85500000Y-76400000D02*
X77300000Y-76400000D01*
X77300000Y-76400000D02*
X75400000Y-74500000D01*
X86175000Y-74640000D02*
X86200000Y-74600000D01*
X86200000Y-75700000D02*
X85500000Y-76400000D01*
X90000000Y-74200000D02*
X90000000Y-74600000D01*
X88000000Y-74600000D02*
X88000000Y-74200000D01*
X86200000Y-74600000D02*
X88000000Y-74600000D01*
X75400000Y-74500000D02*
X75350000Y-74500000D01*
X88000000Y-74600000D02*
X88050000Y-74637500D01*
X88000000Y-74200000D02*
X88700000Y-73500000D01*
X89300000Y-73500000D02*
X90000000Y-74200000D01*
%TO.N,NRST*%
D37*
X64700000Y-62100000D02*
X64675000Y-62137500D01*
X58900000Y-62100000D02*
X54800000Y-66200000D01*
X52700000Y-66200000D02*
X47500000Y-71400000D01*
X61500000Y-60280000D02*
X60700000Y-60280000D01*
X46500000Y-74000000D02*
X46540000Y-73967500D01*
X46500000Y-73400000D02*
X46500000Y-74000000D01*
X47300000Y-72600000D02*
X46500000Y-73400000D01*
X65000000Y-60900000D02*
X64700000Y-61200000D01*
X47500000Y-71400000D02*
X47300000Y-71400000D01*
X54800000Y-66200000D02*
X52700000Y-66200000D01*
X64700000Y-61200000D02*
X64700000Y-62100000D01*
%TO.N,SWDIO*%
X66625000Y-67862500D02*
X66599999Y-67900000D01*
X66599999Y-68600000D02*
X64800000Y-70400000D01*
X41500000Y-74000000D02*
X41460000Y-73967500D01*
X51400000Y-69300000D02*
X51200000Y-69100000D01*
X48800000Y-72100000D02*
X48800000Y-74500000D01*
X50600000Y-70300000D02*
X48800000Y-72100000D01*
X48800000Y-74500000D02*
X47100000Y-76200000D01*
X47100000Y-76200000D02*
X43400000Y-76200000D01*
X42900000Y-75700000D02*
X42200000Y-75700000D01*
X42200000Y-75700000D02*
X41500000Y-75000000D01*
X41500000Y-75000000D02*
X41500000Y-74000000D01*
X43400000Y-76200000D02*
X42900000Y-75700000D01*
X64800000Y-70400000D02*
X63700000Y-69300000D01*
X63700000Y-69300000D02*
X51400000Y-69300000D01*
%TO.N,SWCLK*%
X67275000Y-67862500D02*
X67300000Y-67900000D01*
X46900000Y-75800000D02*
X43600000Y-75800000D01*
X67300000Y-68600000D02*
X64800000Y-71100000D01*
X48400000Y-74300000D02*
X46900000Y-75800000D01*
X63400000Y-69700000D02*
X50400000Y-69700000D01*
X43600000Y-75800000D02*
X42700000Y-74900000D01*
X42700000Y-74000000D02*
X42730000Y-73967500D01*
X42700000Y-74900000D02*
X42700000Y-74000000D01*
X64800000Y-71100000D02*
X63400000Y-69700000D01*
X48400000Y-71700000D02*
X48400000Y-74300000D01*
X50400000Y-69700000D02*
X48400000Y-71700000D01*
%TD*%
%TA.AperFunction,Conductor*%
%TO.N,GND*%
G36*
X70208691Y-75669407D02*
G01*
X70244655Y-75718907D01*
X70249500Y-75749500D01*
X70249500Y-78613810D01*
X70230593Y-78672001D01*
X70220504Y-78683814D01*
X67083814Y-81820504D01*
X67029297Y-81848281D01*
X67013810Y-81849500D01*
X62786189Y-81849500D01*
X62727998Y-81830593D01*
X62716185Y-81820504D01*
X60079496Y-79183814D01*
X60051719Y-79129297D01*
X60050500Y-79113810D01*
X60050500Y-77486189D01*
X60069407Y-77427998D01*
X60079496Y-77416185D01*
X61016185Y-76479496D01*
X61023302Y-76475869D01*
X61027998Y-76469407D01*
X61050046Y-76462243D01*
X61070702Y-76451719D01*
X61086189Y-76450500D01*
X61213811Y-76450500D01*
X61272002Y-76469407D01*
X61283814Y-76479496D01*
X61519530Y-76715211D01*
X61519531Y-76715213D01*
X61584787Y-76780468D01*
X61584789Y-76780470D01*
X61592270Y-76784789D01*
X61664712Y-76826614D01*
X61753856Y-76850500D01*
X61913810Y-76850500D01*
X61921407Y-76852968D01*
X61929297Y-76851719D01*
X61949952Y-76862243D01*
X61972001Y-76869407D01*
X61983814Y-76879496D01*
X62096712Y-76992394D01*
X62124489Y-77046911D01*
X62115650Y-77105875D01*
X62109428Y-77118603D01*
X62099500Y-77186743D01*
X62099500Y-78103267D01*
X62099690Y-78105891D01*
X62099500Y-78106661D01*
X62099500Y-78106842D01*
X62099455Y-78106842D01*
X62085036Y-78165296D01*
X62038263Y-78204741D01*
X62026573Y-78208668D01*
X61911025Y-78239630D01*
X61911021Y-78239632D01*
X61793478Y-78307496D01*
X61697496Y-78403478D01*
X61629632Y-78521021D01*
X61629630Y-78521025D01*
X61594500Y-78652130D01*
X61594500Y-78787869D01*
X61629630Y-78918974D01*
X61629632Y-78918978D01*
X61697496Y-79036521D01*
X61697498Y-79036524D01*
X61793476Y-79132502D01*
X61793478Y-79132503D01*
X61911021Y-79200367D01*
X61911025Y-79200369D01*
X62042130Y-79235499D01*
X62042132Y-79235500D01*
X62042133Y-79235500D01*
X62177868Y-79235500D01*
X62177868Y-79235499D01*
X62308975Y-79200369D01*
X62426524Y-79132502D01*
X62522502Y-79036524D01*
X62590369Y-78918975D01*
X62625500Y-78787867D01*
X62625500Y-78652133D01*
X62596826Y-78545122D01*
X62600028Y-78484022D01*
X62638533Y-78436472D01*
X62692453Y-78420500D01*
X62783257Y-78420500D01*
X62783260Y-78420500D01*
X62851393Y-78410573D01*
X62930286Y-78372004D01*
X62990866Y-78363434D01*
X63028767Y-78378631D01*
X63055001Y-78396160D01*
X63067505Y-78404515D01*
X63147867Y-78420500D01*
X63352132Y-78420499D01*
X63432495Y-78404515D01*
X63444996Y-78396161D01*
X63503883Y-78379551D01*
X63555000Y-78396159D01*
X63567505Y-78404515D01*
X63647867Y-78420500D01*
X63852132Y-78420499D01*
X63932495Y-78404515D01*
X63944996Y-78396161D01*
X64003883Y-78379551D01*
X64055000Y-78396159D01*
X64067505Y-78404515D01*
X64147867Y-78420500D01*
X64352132Y-78420499D01*
X64432495Y-78404515D01*
X64444996Y-78396161D01*
X64503883Y-78379551D01*
X64555000Y-78396159D01*
X64567505Y-78404515D01*
X64647867Y-78420500D01*
X64852132Y-78420499D01*
X64932495Y-78404515D01*
X64944996Y-78396161D01*
X65003883Y-78379551D01*
X65055000Y-78396159D01*
X65067505Y-78404515D01*
X65147867Y-78420500D01*
X65352132Y-78420499D01*
X65432495Y-78404515D01*
X65444996Y-78396161D01*
X65503883Y-78379551D01*
X65555000Y-78396159D01*
X65567505Y-78404515D01*
X65647867Y-78420500D01*
X65852132Y-78420499D01*
X65932495Y-78404515D01*
X65944996Y-78396161D01*
X66003883Y-78379551D01*
X66055000Y-78396159D01*
X66067505Y-78404515D01*
X66147867Y-78420500D01*
X66352132Y-78420499D01*
X66432495Y-78404515D01*
X66444996Y-78396161D01*
X66503883Y-78379551D01*
X66555000Y-78396159D01*
X66567505Y-78404515D01*
X66647867Y-78420500D01*
X66852132Y-78420499D01*
X66932495Y-78404515D01*
X66971234Y-78378630D01*
X67030119Y-78362022D01*
X67069714Y-78372005D01*
X67148604Y-78410572D01*
X67148605Y-78410572D01*
X67148607Y-78410573D01*
X67216740Y-78420500D01*
X67307547Y-78420500D01*
X67365738Y-78439407D01*
X67401702Y-78488907D01*
X67403174Y-78545123D01*
X67374500Y-78652133D01*
X67374500Y-78787869D01*
X67409630Y-78918974D01*
X67409632Y-78918978D01*
X67477496Y-79036521D01*
X67477498Y-79036524D01*
X67573476Y-79132502D01*
X67573478Y-79132503D01*
X67691021Y-79200367D01*
X67691025Y-79200369D01*
X67822130Y-79235499D01*
X67822132Y-79235500D01*
X67822133Y-79235500D01*
X67957868Y-79235500D01*
X67957868Y-79235499D01*
X68088975Y-79200369D01*
X68206524Y-79132502D01*
X68302502Y-79036524D01*
X68370369Y-78918975D01*
X68405500Y-78787867D01*
X68405500Y-78652133D01*
X68370369Y-78521025D01*
X68302502Y-78403476D01*
X68206524Y-78307498D01*
X68195070Y-78300885D01*
X68088978Y-78239632D01*
X68088974Y-78239630D01*
X67973426Y-78208668D01*
X67922112Y-78175344D01*
X67900186Y-78118222D01*
X67900310Y-78105875D01*
X67900500Y-78103257D01*
X67900500Y-77186743D01*
X67896188Y-77157147D01*
X67890573Y-77118607D01*
X67884349Y-77105877D01*
X67875779Y-77045296D01*
X67903285Y-76992395D01*
X69216186Y-75679496D01*
X69270703Y-75651719D01*
X69286190Y-75650500D01*
X70150500Y-75650500D01*
X70208691Y-75669407D01*
G37*
%TD.AperFunction*%
%TA.AperFunction,Conductor*%
G36*
X61610044Y-67034249D02*
G01*
X61637355Y-67041679D01*
X61638924Y-67043632D01*
X61641308Y-67044407D01*
X61657951Y-67067314D01*
X61675677Y-67089377D01*
X61675798Y-67091878D01*
X61677272Y-67093907D01*
X61678645Y-67150490D01*
X61677414Y-67155013D01*
X61674500Y-67180130D01*
X61674500Y-68544860D01*
X61674501Y-68544863D01*
X61677414Y-68569990D01*
X61678722Y-68572952D01*
X61722794Y-68672765D01*
X61802235Y-68752206D01*
X61905009Y-68797585D01*
X61930135Y-68800500D01*
X62219864Y-68800499D01*
X62244991Y-68797585D01*
X62347765Y-68752206D01*
X62347766Y-68752204D01*
X62356157Y-68748500D01*
X62357205Y-68750875D01*
X62402739Y-68737462D01*
X62442948Y-68750526D01*
X62443843Y-68748500D01*
X62452233Y-68752204D01*
X62452235Y-68752206D01*
X62555009Y-68797585D01*
X62580135Y-68800500D01*
X62869864Y-68800499D01*
X62894991Y-68797585D01*
X62997765Y-68752206D01*
X62997766Y-68752204D01*
X63006157Y-68748500D01*
X63007205Y-68750875D01*
X63052739Y-68737462D01*
X63092948Y-68750526D01*
X63093843Y-68748500D01*
X63102233Y-68752204D01*
X63102235Y-68752206D01*
X63205009Y-68797585D01*
X63230135Y-68800500D01*
X63519864Y-68800499D01*
X63544991Y-68797585D01*
X63647765Y-68752206D01*
X63647766Y-68752204D01*
X63656157Y-68748500D01*
X63657205Y-68750875D01*
X63702739Y-68737462D01*
X63742948Y-68750526D01*
X63743843Y-68748500D01*
X63752233Y-68752204D01*
X63752235Y-68752206D01*
X63855009Y-68797585D01*
X63880135Y-68800500D01*
X64169864Y-68800499D01*
X64194991Y-68797585D01*
X64297765Y-68752206D01*
X64297766Y-68752204D01*
X64306157Y-68748500D01*
X64307205Y-68750875D01*
X64352739Y-68737462D01*
X64392948Y-68750526D01*
X64393843Y-68748500D01*
X64402233Y-68752204D01*
X64402235Y-68752206D01*
X64505009Y-68797585D01*
X64530135Y-68800500D01*
X64819864Y-68800499D01*
X64844991Y-68797585D01*
X64947765Y-68752206D01*
X64947766Y-68752204D01*
X64956157Y-68748500D01*
X64957205Y-68750875D01*
X65002739Y-68737462D01*
X65042948Y-68750526D01*
X65043843Y-68748500D01*
X65052233Y-68752204D01*
X65052235Y-68752206D01*
X65155009Y-68797585D01*
X65180135Y-68800500D01*
X65469864Y-68800499D01*
X65494991Y-68797585D01*
X65597765Y-68752206D01*
X65597766Y-68752204D01*
X65606157Y-68748500D01*
X65607205Y-68750875D01*
X65652739Y-68737462D01*
X65690619Y-68746141D01*
X65700710Y-68750681D01*
X65702235Y-68752206D01*
X65802528Y-68796489D01*
X65802858Y-68796638D01*
X65825250Y-68816957D01*
X65847823Y-68837157D01*
X65847899Y-68837511D01*
X65848168Y-68837755D01*
X65854350Y-68867411D01*
X65860728Y-68896966D01*
X65860581Y-68897297D01*
X65860656Y-68897653D01*
X65848215Y-68925304D01*
X65836014Y-68952938D01*
X65835573Y-68953404D01*
X65835552Y-68953451D01*
X65835501Y-68953479D01*
X65832243Y-68956925D01*
X64870002Y-69919166D01*
X64815485Y-69946943D01*
X64755053Y-69937372D01*
X64729997Y-69919168D01*
X63878371Y-69067542D01*
X63878368Y-69067540D01*
X63878366Y-69067538D01*
X63812132Y-69029298D01*
X63812134Y-69029298D01*
X63783465Y-69021616D01*
X63738245Y-69009500D01*
X63738243Y-69009500D01*
X51692226Y-69009500D01*
X51634035Y-68990593D01*
X51598071Y-68941093D01*
X51596606Y-68936149D01*
X51596503Y-68935763D01*
X51590464Y-68925304D01*
X51540486Y-68838739D01*
X51540485Y-68838737D01*
X51461263Y-68759515D01*
X51448808Y-68752324D01*
X51407877Y-68728692D01*
X51366936Y-68683222D01*
X51360541Y-68622372D01*
X51387371Y-68572954D01*
X52905831Y-67054496D01*
X52960348Y-67026719D01*
X52975835Y-67025500D01*
X61583117Y-67025500D01*
X61610044Y-67034249D01*
G37*
%TD.AperFunction*%
%TA.AperFunction,Conductor*%
G36*
X65484191Y-62156407D02*
G01*
X65520155Y-62205907D01*
X65525000Y-62236500D01*
X65525000Y-63367011D01*
X65562578Y-63362064D01*
X65622739Y-63373214D01*
X65664856Y-63417597D01*
X65674500Y-63460217D01*
X65674500Y-63724164D01*
X65655593Y-63782355D01*
X65645504Y-63794168D01*
X63870003Y-65569668D01*
X63815486Y-65597445D01*
X63755054Y-65587874D01*
X63729998Y-65569670D01*
X61919830Y-63759503D01*
X61892054Y-63704987D01*
X61901625Y-63644555D01*
X61944890Y-63601290D01*
X61989835Y-63590500D01*
X63638243Y-63590500D01*
X63638245Y-63590500D01*
X63712129Y-63570703D01*
X63712131Y-63570701D01*
X63712133Y-63570701D01*
X63778366Y-63532461D01*
X63778366Y-63532460D01*
X63778371Y-63532458D01*
X64232458Y-63078372D01*
X64233587Y-63076416D01*
X64234850Y-63075252D01*
X64236408Y-63073223D01*
X64236760Y-63073493D01*
X64277064Y-63036379D01*
X64278142Y-63035869D01*
X64297765Y-63027206D01*
X64298901Y-63026069D01*
X64307735Y-63021899D01*
X64330614Y-63018979D01*
X64352734Y-63012462D01*
X64360899Y-63015114D01*
X64368428Y-63014154D01*
X64383689Y-63022519D01*
X64392947Y-63025527D01*
X64393843Y-63023500D01*
X64402233Y-63027204D01*
X64402235Y-63027206D01*
X64505009Y-63072585D01*
X64530135Y-63075500D01*
X64650476Y-63075499D01*
X64708666Y-63094406D01*
X64729018Y-63114231D01*
X64797074Y-63202923D01*
X64797080Y-63202929D01*
X64922410Y-63299098D01*
X64922414Y-63299100D01*
X65068364Y-63359554D01*
X65068372Y-63359556D01*
X65124999Y-63367011D01*
X65125000Y-63367010D01*
X65125000Y-62236500D01*
X65143907Y-62178309D01*
X65193407Y-62142345D01*
X65224000Y-62137500D01*
X65426000Y-62137500D01*
X65484191Y-62156407D01*
G37*
%TD.AperFunction*%
%TA.AperFunction,Conductor*%
G36*
X62117853Y-56009407D02*
G01*
X62153817Y-56058907D01*
X62153817Y-56120093D01*
X62129665Y-56159504D01*
X62054501Y-56234667D01*
X62034005Y-56250396D01*
X62021629Y-56257542D01*
X61967538Y-56311633D01*
X61929298Y-56377866D01*
X61919315Y-56415124D01*
X61909500Y-56451755D01*
X61909500Y-56461755D01*
X61909500Y-56538245D01*
X61911583Y-56546018D01*
X61929298Y-56612133D01*
X61967538Y-56678366D01*
X61967540Y-56678368D01*
X61967542Y-56678371D01*
X62021629Y-56732458D01*
X62021631Y-56732459D01*
X62021633Y-56732461D01*
X62087867Y-56770701D01*
X62087865Y-56770701D01*
X62087869Y-56770702D01*
X62087871Y-56770703D01*
X62161755Y-56790500D01*
X62161757Y-56790500D01*
X62238242Y-56790500D01*
X62238245Y-56790500D01*
X62240938Y-56789778D01*
X62242933Y-56789882D01*
X62244677Y-56789653D01*
X62244719Y-56789976D01*
X62302038Y-56792978D01*
X62349589Y-56831482D01*
X62365428Y-56890581D01*
X62343503Y-56947704D01*
X62336568Y-56955406D01*
X62309263Y-56982710D01*
X62309262Y-56982713D01*
X62224584Y-57125895D01*
X62178688Y-57166358D01*
X62150231Y-57172250D01*
X62150416Y-57173653D01*
X62143984Y-57174499D01*
X62035758Y-57203498D01*
X61938739Y-57259513D01*
X61859513Y-57338739D01*
X61803498Y-57435758D01*
X61787286Y-57496263D01*
X61774500Y-57543982D01*
X61774500Y-57656018D01*
X61797296Y-57741093D01*
X61803498Y-57764241D01*
X61859513Y-57861260D01*
X61859515Y-57861263D01*
X61880505Y-57882253D01*
X61908281Y-57936768D01*
X61909500Y-57952255D01*
X61909500Y-58261754D01*
X61909500Y-58261755D01*
X61909500Y-58338245D01*
X61918285Y-58371032D01*
X61929298Y-58412134D01*
X61931781Y-58418127D01*
X61930364Y-58418713D01*
X61941487Y-58471076D01*
X61916593Y-58526968D01*
X61863601Y-58557553D01*
X61815411Y-58555783D01*
X61770912Y-58542855D01*
X61750000Y-58541209D01*
X61750000Y-59221000D01*
X61731093Y-59279191D01*
X61681593Y-59315155D01*
X61651000Y-59320000D01*
X61500001Y-59320000D01*
X61500000Y-59320001D01*
X61500000Y-59471000D01*
X61481093Y-59529191D01*
X61431593Y-59565155D01*
X61401000Y-59570000D01*
X60695495Y-59570000D01*
X60739706Y-59722176D01*
X60738562Y-59722508D01*
X60743720Y-59777101D01*
X60712571Y-59829764D01*
X60656417Y-59854061D01*
X60647105Y-59854500D01*
X60643982Y-59854500D01*
X60577748Y-59872247D01*
X60535758Y-59883498D01*
X60438739Y-59939513D01*
X60359513Y-60018739D01*
X60303498Y-60115758D01*
X60287286Y-60176263D01*
X60274500Y-60223982D01*
X60274500Y-60336018D01*
X60291606Y-60399858D01*
X60303498Y-60444241D01*
X60359513Y-60541260D01*
X60359515Y-60541263D01*
X60438737Y-60620485D01*
X60438739Y-60620486D01*
X60535759Y-60676501D01*
X60535757Y-60676501D01*
X60535761Y-60676502D01*
X60535763Y-60676503D01*
X60643982Y-60705500D01*
X60643984Y-60705500D01*
X60756016Y-60705500D01*
X60756018Y-60705500D01*
X60864237Y-60676503D01*
X60951063Y-60626373D01*
X61010911Y-60613652D01*
X61066806Y-60638538D01*
X61070547Y-60642087D01*
X61131684Y-60703224D01*
X61240513Y-60753972D01*
X61290099Y-60760500D01*
X61700486Y-60760499D01*
X61721280Y-60767255D01*
X61742961Y-60770074D01*
X61749766Y-60776510D01*
X61758677Y-60779406D01*
X61771530Y-60797096D01*
X61787412Y-60812119D01*
X61789133Y-60821326D01*
X61794641Y-60828906D01*
X61798660Y-60872261D01*
X61790255Y-60936917D01*
X61787710Y-60949771D01*
X61784500Y-60961752D01*
X61784500Y-60961755D01*
X61784500Y-60981199D01*
X61781994Y-61000476D01*
X61784500Y-61019275D01*
X61784500Y-61224521D01*
X61765593Y-61282712D01*
X61755504Y-61294524D01*
X61722795Y-61327233D01*
X61677414Y-61430011D01*
X61674500Y-61455130D01*
X61674500Y-62524663D01*
X61655593Y-62582854D01*
X61606093Y-62618818D01*
X61544907Y-62618818D01*
X61505496Y-62594667D01*
X58719496Y-59808667D01*
X58715869Y-59801549D01*
X58709407Y-59796854D01*
X58702243Y-59774805D01*
X58691719Y-59754150D01*
X58690500Y-59738663D01*
X58690500Y-59561336D01*
X58709407Y-59503145D01*
X58719490Y-59491338D01*
X59140829Y-59069999D01*
X60695495Y-59069999D01*
X60695496Y-59070000D01*
X61249999Y-59070000D01*
X61250000Y-59069999D01*
X61250000Y-58541209D01*
X61229087Y-58542855D01*
X61073802Y-58587969D01*
X61073801Y-58587969D01*
X60934625Y-58670278D01*
X60820278Y-58784625D01*
X60737969Y-58923801D01*
X60737969Y-58923802D01*
X60695495Y-59069999D01*
X59140829Y-59069999D01*
X59732458Y-58478371D01*
X59770703Y-58412129D01*
X59790500Y-58338245D01*
X59790500Y-58261755D01*
X59790500Y-58261754D01*
X59790500Y-57746112D01*
X59809407Y-57687921D01*
X59858907Y-57651957D01*
X59920093Y-57651957D01*
X59939895Y-57660899D01*
X60060804Y-57732404D01*
X60214872Y-57777165D01*
X60214878Y-57777167D01*
X60249999Y-57779930D01*
X60250000Y-57779930D01*
X60250000Y-57260001D01*
X60750000Y-57260001D01*
X60750000Y-57779930D01*
X60785121Y-57777167D01*
X60785127Y-57777165D01*
X60939195Y-57732404D01*
X60939196Y-57732404D01*
X61077285Y-57650738D01*
X61190738Y-57537285D01*
X61272404Y-57399196D01*
X61272404Y-57399195D01*
X61312844Y-57260000D01*
X60750001Y-57260000D01*
X60750000Y-57260001D01*
X60250000Y-57260001D01*
X60250000Y-57109000D01*
X60268907Y-57050809D01*
X60318407Y-57014845D01*
X60349000Y-57010000D01*
X60499999Y-57010000D01*
X60500000Y-57009999D01*
X60500000Y-56859000D01*
X60518907Y-56800809D01*
X60568407Y-56764845D01*
X60599000Y-56760000D01*
X61312844Y-56760000D01*
X61312844Y-56759999D01*
X61272404Y-56620804D01*
X61272404Y-56620803D01*
X61190738Y-56482714D01*
X61077287Y-56369263D01*
X61047947Y-56351912D01*
X61007485Y-56306016D01*
X61000040Y-56254960D01*
X61001918Y-56239227D01*
X61014068Y-56213173D01*
X61020500Y-56164316D01*
X61020500Y-56083607D01*
X61021198Y-56077762D01*
X61031684Y-56055076D01*
X61039407Y-56031309D01*
X61044322Y-56027737D01*
X61046871Y-56022224D01*
X61068686Y-56010035D01*
X61088907Y-55995345D01*
X61097385Y-55994002D01*
X61100286Y-55992382D01*
X61104465Y-55992881D01*
X61119500Y-55990500D01*
X62059662Y-55990500D01*
X62117853Y-56009407D01*
G37*
%TD.AperFunction*%
%TA.AperFunction,Conductor*%
G36*
X67469487Y-56291950D02*
G01*
X67474063Y-56290914D01*
X67498211Y-56301283D01*
X67523215Y-56309407D01*
X67529366Y-56314660D01*
X67530285Y-56315055D01*
X67535622Y-56319734D01*
X67535935Y-56320404D01*
X67619596Y-56404065D01*
X67645715Y-56416244D01*
X67656336Y-56425555D01*
X67687630Y-56478132D01*
X67682043Y-56539062D01*
X67641710Y-56585071D01*
X67632915Y-56589724D01*
X67619598Y-56595933D01*
X67535933Y-56679598D01*
X67485932Y-56786824D01*
X67485932Y-56786825D01*
X67484179Y-56800140D01*
X67479500Y-56835684D01*
X67479500Y-57184316D01*
X67481906Y-57202594D01*
X67485932Y-57233174D01*
X67485932Y-57233175D01*
X67535933Y-57340401D01*
X67535934Y-57340402D01*
X67535935Y-57340404D01*
X67619596Y-57424065D01*
X67619597Y-57424065D01*
X67619598Y-57424066D01*
X67625132Y-57426647D01*
X67669880Y-57468375D01*
X67681555Y-57528436D01*
X67655697Y-57583889D01*
X67653297Y-57586375D01*
X66539532Y-58700141D01*
X66539531Y-58700142D01*
X66496682Y-58774360D01*
X66496681Y-58774360D01*
X66496682Y-58774361D01*
X66496682Y-58774362D01*
X66474500Y-58857147D01*
X66474500Y-59657147D01*
X66474500Y-59742853D01*
X66493062Y-59812129D01*
X66496683Y-59825643D01*
X66539531Y-59899857D01*
X66539533Y-59899859D01*
X66539535Y-59899862D01*
X66669670Y-60029997D01*
X66697446Y-60084512D01*
X66687875Y-60144944D01*
X66669669Y-60170003D01*
X65866035Y-60973636D01*
X65811518Y-61001413D01*
X65751086Y-60991842D01*
X65735761Y-60982172D01*
X65727590Y-60975902D01*
X65727585Y-60975899D01*
X65581630Y-60915444D01*
X65505221Y-60905384D01*
X65449996Y-60879043D01*
X65422518Y-60832856D01*
X65396503Y-60735763D01*
X65392322Y-60728522D01*
X65340486Y-60638739D01*
X65340485Y-60638737D01*
X65261263Y-60559515D01*
X65261260Y-60559513D01*
X65176497Y-60510575D01*
X65135556Y-60465106D01*
X65129160Y-60404256D01*
X65155993Y-60354836D01*
X65601577Y-59909251D01*
X65601576Y-59909251D01*
X65602543Y-59908285D01*
X65627367Y-59884816D01*
X65629533Y-59881295D01*
X65632458Y-59878371D01*
X65649552Y-59848762D01*
X65667454Y-59819671D01*
X65668635Y-59815710D01*
X65670703Y-59812129D01*
X65679548Y-59779116D01*
X65689314Y-59746372D01*
X65689428Y-59742244D01*
X65690498Y-59738255D01*
X65690498Y-59738249D01*
X65690500Y-59738245D01*
X65690500Y-59705459D01*
X65690539Y-59702684D01*
X65691458Y-59669910D01*
X65691042Y-59665878D01*
X65690500Y-59661760D01*
X65690500Y-59661755D01*
X65681655Y-59628747D01*
X65673739Y-59595502D01*
X65671773Y-59591865D01*
X65670703Y-59587871D01*
X65657598Y-59565173D01*
X65654299Y-59559459D01*
X65653609Y-59558264D01*
X65637366Y-59528214D01*
X65634525Y-59525209D01*
X65632458Y-59521629D01*
X65608290Y-59497461D01*
X65584816Y-59472633D01*
X65581295Y-59470466D01*
X65578371Y-59467542D01*
X65578368Y-59467540D01*
X65549976Y-59451147D01*
X65549976Y-59451148D01*
X65548771Y-59450452D01*
X65519672Y-59432546D01*
X65515710Y-59431364D01*
X65512126Y-59429295D01*
X65480462Y-59420811D01*
X65477795Y-59420057D01*
X65446372Y-59410686D01*
X65446369Y-59410685D01*
X65446366Y-59410685D01*
X65442334Y-59410038D01*
X65438245Y-59409500D01*
X65438244Y-59409500D01*
X65404076Y-59409500D01*
X65369911Y-59408542D01*
X65365888Y-59409500D01*
X65361755Y-59409500D01*
X65361754Y-59409500D01*
X65330091Y-59417983D01*
X65327407Y-59418662D01*
X65295500Y-59426260D01*
X65291674Y-59427720D01*
X65287874Y-59429295D01*
X65259479Y-59445687D01*
X65259480Y-59445688D01*
X65258266Y-59446388D01*
X65228214Y-59462634D01*
X65225212Y-59465471D01*
X65221630Y-59467540D01*
X65198447Y-59490722D01*
X65196460Y-59492654D01*
X64317137Y-60324014D01*
X64261863Y-60350253D01*
X64201723Y-60338991D01*
X64159688Y-60294531D01*
X64151814Y-60233855D01*
X64163091Y-60203092D01*
X64652017Y-59344493D01*
X64670703Y-59312129D01*
X64670928Y-59311286D01*
X64671363Y-59310523D01*
X64675292Y-59295504D01*
X64680813Y-59274396D01*
X64690500Y-59238245D01*
X64690500Y-59237364D01*
X64690722Y-59236516D01*
X64690502Y-59199532D01*
X64690500Y-59198942D01*
X64690500Y-59161336D01*
X64709407Y-59103145D01*
X64719496Y-59091332D01*
X65056332Y-58754496D01*
X65110849Y-58726719D01*
X65126336Y-58725500D01*
X65156015Y-58725500D01*
X65156017Y-58725500D01*
X65264236Y-58696503D01*
X65264238Y-58696501D01*
X65264240Y-58696501D01*
X65309659Y-58670278D01*
X65361262Y-58640485D01*
X65440484Y-58561263D01*
X65496502Y-58464237D01*
X65525499Y-58356018D01*
X65525499Y-58356015D01*
X65526206Y-58353377D01*
X65559530Y-58302063D01*
X65616651Y-58280136D01*
X65621833Y-58280000D01*
X65749123Y-58280000D01*
X65785121Y-58277167D01*
X65785128Y-58277165D01*
X65939195Y-58232404D01*
X65939196Y-58232404D01*
X66077285Y-58150738D01*
X66190738Y-58037285D01*
X66272404Y-57899196D01*
X66272404Y-57899195D01*
X66312844Y-57760000D01*
X65599000Y-57760000D01*
X65540809Y-57741093D01*
X65504845Y-57691593D01*
X65500000Y-57661000D01*
X65500000Y-57359000D01*
X65518907Y-57300809D01*
X65568407Y-57264845D01*
X65599000Y-57260000D01*
X66312844Y-57260000D01*
X66312844Y-57259999D01*
X66272405Y-57120806D01*
X66243718Y-57072300D01*
X66243010Y-57069136D01*
X66240718Y-57066843D01*
X66236398Y-57039555D01*
X66230370Y-57012589D01*
X66231657Y-57009612D01*
X66231151Y-57006410D01*
X66243695Y-56981793D01*
X66254669Y-56956435D01*
X66258916Y-56951912D01*
X66266337Y-56944492D01*
X66320856Y-56916718D01*
X66336336Y-56915500D01*
X66356016Y-56915500D01*
X66356018Y-56915500D01*
X66464237Y-56886503D01*
X66464239Y-56886501D01*
X66464241Y-56886501D01*
X66493064Y-56869859D01*
X66561263Y-56830485D01*
X66640485Y-56751263D01*
X66683398Y-56676935D01*
X66696501Y-56654241D01*
X66696501Y-56654239D01*
X66696503Y-56654237D01*
X66725500Y-56546018D01*
X66725500Y-56433982D01*
X66720447Y-56415123D01*
X66723648Y-56354022D01*
X66762153Y-56306472D01*
X66816073Y-56290500D01*
X67361755Y-56290500D01*
X67438245Y-56290500D01*
X67465024Y-56290500D01*
X67469487Y-56291950D01*
G37*
%TD.AperFunction*%
%TA.AperFunction,Conductor*%
G36*
X64055342Y-57092968D02*
G01*
X64063232Y-57091719D01*
X64083887Y-57102243D01*
X64105936Y-57109407D01*
X64117742Y-57119490D01*
X64138737Y-57140485D01*
X64138739Y-57140486D01*
X64235759Y-57196501D01*
X64235757Y-57196501D01*
X64235761Y-57196502D01*
X64235763Y-57196503D01*
X64343982Y-57225500D01*
X64343984Y-57225500D01*
X64410500Y-57225500D01*
X64468691Y-57244407D01*
X64504655Y-57293907D01*
X64509500Y-57324500D01*
X64509500Y-57638663D01*
X64490593Y-57696854D01*
X64480504Y-57708667D01*
X63708667Y-58480504D01*
X63654150Y-58508281D01*
X63638663Y-58509500D01*
X63405234Y-58509500D01*
X63372207Y-58508314D01*
X63367046Y-58509500D01*
X63361751Y-58509500D01*
X63331574Y-58517585D01*
X63328134Y-58518441D01*
X63297662Y-58525444D01*
X63297658Y-58525446D01*
X63292979Y-58527927D01*
X63287871Y-58529297D01*
X63259311Y-58545784D01*
X63257718Y-58546630D01*
X63257711Y-58546635D01*
X63237130Y-58557553D01*
X63230087Y-58561289D01*
X63226209Y-58564897D01*
X63221629Y-58567542D01*
X63198303Y-58590866D01*
X63196992Y-58592087D01*
X63174093Y-58613398D01*
X63171279Y-58617890D01*
X63167542Y-58621629D01*
X63151060Y-58650176D01*
X63150099Y-58651711D01*
X63150097Y-58651716D01*
X63133495Y-58678226D01*
X63133495Y-58678228D01*
X63131943Y-58683287D01*
X63129297Y-58687871D01*
X63120748Y-58719772D01*
X63120221Y-58721493D01*
X63120219Y-58721494D01*
X63120220Y-58721494D01*
X62672851Y-60179586D01*
X62637707Y-60229671D01*
X62579835Y-60249534D01*
X62521341Y-60231587D01*
X62484568Y-60182685D01*
X62480032Y-60137786D01*
X62684743Y-58563076D01*
X62687292Y-58550216D01*
X62690500Y-58538246D01*
X62690500Y-58518800D01*
X62693006Y-58499524D01*
X62690500Y-58480724D01*
X62690500Y-58461755D01*
X62687114Y-58449121D01*
X62686582Y-58447040D01*
X62685321Y-58441882D01*
X62682899Y-58423705D01*
X62678007Y-58411951D01*
X62676186Y-58404497D01*
X62677919Y-58381266D01*
X62676053Y-58358045D01*
X62680153Y-58351328D01*
X62680739Y-58343481D01*
X62695796Y-58325706D01*
X62707935Y-58305823D01*
X62715200Y-58302799D01*
X62720287Y-58296795D01*
X62735876Y-58292985D01*
X62750000Y-58279930D01*
X62750000Y-57760001D01*
X63250000Y-57760001D01*
X63250000Y-58279930D01*
X63285121Y-58277167D01*
X63285127Y-58277165D01*
X63439195Y-58232404D01*
X63439196Y-58232404D01*
X63577285Y-58150738D01*
X63690738Y-58037285D01*
X63772404Y-57899196D01*
X63772404Y-57899195D01*
X63812844Y-57760000D01*
X63250001Y-57760000D01*
X63250000Y-57760001D01*
X62750000Y-57760001D01*
X62750000Y-57609000D01*
X62768907Y-57550809D01*
X62818407Y-57514845D01*
X62849000Y-57510000D01*
X62999999Y-57510000D01*
X63000000Y-57509999D01*
X63000000Y-57359000D01*
X63018907Y-57300809D01*
X63068407Y-57264845D01*
X63099000Y-57260000D01*
X63812844Y-57260000D01*
X63812844Y-57259999D01*
X63800387Y-57217120D01*
X63802309Y-57155965D01*
X63839809Y-57107619D01*
X63895456Y-57090500D01*
X64047745Y-57090500D01*
X64055342Y-57092968D01*
G37*
%TD.AperFunction*%
%TA.AperFunction,Conductor*%
G36*
X63406501Y-51830000D02*
G01*
X63413824Y-51830000D01*
X63421757Y-51829875D01*
X63421935Y-51830000D01*
X64470500Y-51830000D01*
X64528691Y-51848907D01*
X64564655Y-51898407D01*
X64569500Y-51929000D01*
X64569500Y-52231000D01*
X64550593Y-52289191D01*
X64514817Y-52315183D01*
X64500000Y-52330001D01*
X64500000Y-52858790D01*
X64510128Y-52868153D01*
X64537746Y-52874784D01*
X64577482Y-52921310D01*
X64581644Y-52933570D01*
X64589297Y-52962130D01*
X64589298Y-52962132D01*
X64627538Y-53028366D01*
X64627540Y-53028368D01*
X64627542Y-53028371D01*
X64674168Y-53074997D01*
X64701944Y-53129512D01*
X64692373Y-53189944D01*
X64674167Y-53215003D01*
X62508667Y-55380504D01*
X62454150Y-55408281D01*
X62438663Y-55409500D01*
X59889835Y-55409500D01*
X59831644Y-55390593D01*
X59795680Y-55341093D01*
X59795680Y-55279907D01*
X59819831Y-55240496D01*
X62730327Y-52330000D01*
X63445495Y-52330000D01*
X63487969Y-52476197D01*
X63487969Y-52476198D01*
X63570278Y-52615374D01*
X63684625Y-52729721D01*
X63823802Y-52812030D01*
X63979079Y-52857143D01*
X63979087Y-52857144D01*
X64000000Y-52858789D01*
X64000000Y-52330001D01*
X63999999Y-52330000D01*
X63445495Y-52330000D01*
X62730327Y-52330000D01*
X63205831Y-51854496D01*
X63260348Y-51826719D01*
X63275835Y-51825500D01*
X63392651Y-51825500D01*
X63406501Y-51830000D01*
G37*
%TD.AperFunction*%
%TA.AperFunction,Conductor*%
G36*
X109658691Y-20319407D02*
G01*
X109694655Y-20368907D01*
X109699500Y-20399500D01*
X109699500Y-84600500D01*
X109680593Y-84658691D01*
X109631093Y-84694655D01*
X109600500Y-84699500D01*
X20399500Y-84699500D01*
X20341309Y-84680593D01*
X20305345Y-84631093D01*
X20300500Y-84600500D01*
X20300500Y-79882643D01*
X23209500Y-79882643D01*
X23209500Y-80117356D01*
X23240136Y-80350059D01*
X23259530Y-80422441D01*
X23300883Y-80576772D01*
X23300890Y-80576788D01*
X23390701Y-80793612D01*
X23508061Y-80996886D01*
X23650936Y-81183085D01*
X23650938Y-81183087D01*
X23650942Y-81183092D01*
X23816908Y-81349058D01*
X23816912Y-81349061D01*
X23816914Y-81349063D01*
X24003113Y-81491938D01*
X24003117Y-81491941D01*
X24206383Y-81609296D01*
X24206384Y-81609296D01*
X24206387Y-81609298D01*
X24264877Y-81633525D01*
X24423228Y-81699117D01*
X24649941Y-81759864D01*
X24882644Y-81790500D01*
X24882645Y-81790500D01*
X25117355Y-81790500D01*
X25117356Y-81790500D01*
X25350059Y-81759864D01*
X25576772Y-81699117D01*
X25793617Y-81609296D01*
X25996883Y-81491941D01*
X26183092Y-81349058D01*
X26349058Y-81183092D01*
X26491941Y-80996883D01*
X26609296Y-80793617D01*
X26699117Y-80576772D01*
X26759864Y-80350059D01*
X26790500Y-80117356D01*
X26790500Y-79913385D01*
X36899500Y-79913385D01*
X36899500Y-80086614D01*
X36926597Y-80257702D01*
X36926598Y-80257706D01*
X36980123Y-80422438D01*
X36980125Y-80422441D01*
X37058761Y-80576776D01*
X37058768Y-80576788D01*
X37160586Y-80716928D01*
X37283072Y-80839414D01*
X37423212Y-80941232D01*
X37577555Y-81019873D01*
X37577557Y-81019873D01*
X37577558Y-81019874D01*
X37577561Y-81019876D01*
X37742293Y-81073401D01*
X37742297Y-81073402D01*
X37913386Y-81100500D01*
X37913389Y-81100500D01*
X38086614Y-81100500D01*
X38257702Y-81073402D01*
X38257706Y-81073401D01*
X38422438Y-81019876D01*
X38422440Y-81019874D01*
X38422445Y-81019873D01*
X38576788Y-80941232D01*
X38716928Y-80839414D01*
X38839414Y-80716928D01*
X38941232Y-80576788D01*
X39019873Y-80422445D01*
X39019874Y-80422440D01*
X39019876Y-80422438D01*
X39073401Y-80257706D01*
X39073402Y-80257702D01*
X39100500Y-80086614D01*
X39100500Y-79913385D01*
X39073402Y-79742297D01*
X39073401Y-79742293D01*
X39019876Y-79577561D01*
X39019874Y-79577558D01*
X39019873Y-79577557D01*
X39019873Y-79577555D01*
X38941232Y-79423212D01*
X38839414Y-79283072D01*
X38716928Y-79160586D01*
X38576788Y-79058768D01*
X38576787Y-79058767D01*
X38576785Y-79058766D01*
X38422441Y-78980125D01*
X38422438Y-78980123D01*
X38257706Y-78926598D01*
X38257702Y-78926597D01*
X38086614Y-78899500D01*
X38086611Y-78899500D01*
X37913389Y-78899500D01*
X37913386Y-78899500D01*
X37742297Y-78926597D01*
X37742293Y-78926598D01*
X37577561Y-78980123D01*
X37577558Y-78980125D01*
X37423214Y-79058766D01*
X37283073Y-79160585D01*
X37160585Y-79283073D01*
X37058766Y-79423214D01*
X36980125Y-79577558D01*
X36980123Y-79577561D01*
X36926598Y-79742293D01*
X36926597Y-79742297D01*
X36899500Y-79913385D01*
X26790500Y-79913385D01*
X26790500Y-79882644D01*
X26759864Y-79649941D01*
X26699117Y-79423228D01*
X26621357Y-79235500D01*
X26609298Y-79206387D01*
X26605824Y-79200369D01*
X26491941Y-79003117D01*
X26412433Y-78899500D01*
X26349063Y-78816914D01*
X26349061Y-78816912D01*
X26349058Y-78816908D01*
X26183092Y-78650942D01*
X26183087Y-78650938D01*
X26183085Y-78650936D01*
X25996886Y-78508061D01*
X25963710Y-78488907D01*
X25854006Y-78425569D01*
X25793612Y-78390701D01*
X25635266Y-78325112D01*
X25576772Y-78300883D01*
X25576770Y-78300882D01*
X25576769Y-78300882D01*
X25350059Y-78240136D01*
X25117356Y-78209500D01*
X24882644Y-78209500D01*
X24882643Y-78209500D01*
X24649940Y-78240136D01*
X24423230Y-78300882D01*
X24423223Y-78300885D01*
X24206387Y-78390701D01*
X24003113Y-78508061D01*
X23816914Y-78650936D01*
X23650936Y-78816914D01*
X23508061Y-79003113D01*
X23390701Y-79206387D01*
X23300885Y-79423223D01*
X23300882Y-79423230D01*
X23240136Y-79649940D01*
X23209500Y-79882643D01*
X20300500Y-79882643D01*
X20300500Y-72457147D01*
X40374500Y-72457147D01*
X40374500Y-77157147D01*
X40374500Y-77242853D01*
X40394062Y-77315863D01*
X40396683Y-77325643D01*
X40439531Y-77399857D01*
X40439533Y-77399859D01*
X40439535Y-77399862D01*
X40860505Y-77820832D01*
X40888281Y-77875347D01*
X40889500Y-77890834D01*
X40889500Y-79352992D01*
X40889501Y-79353003D01*
X40895472Y-79398365D01*
X40941896Y-79497922D01*
X40941897Y-79497923D01*
X40941898Y-79497925D01*
X41019575Y-79575602D01*
X41119134Y-79622027D01*
X41164503Y-79628000D01*
X41755496Y-79627999D01*
X41800866Y-79622027D01*
X41800867Y-79622027D01*
X41854521Y-79597007D01*
X41900425Y-79575602D01*
X41978102Y-79497925D01*
X42024527Y-79398366D01*
X42030500Y-79352997D01*
X42030499Y-76712004D01*
X42024527Y-76666634D01*
X42024527Y-76666632D01*
X41978103Y-76567077D01*
X41978102Y-76567076D01*
X41978102Y-76567075D01*
X41900425Y-76489398D01*
X41800866Y-76442973D01*
X41755497Y-76437000D01*
X41755495Y-76437000D01*
X41164507Y-76437000D01*
X41164506Y-76437000D01*
X41164504Y-76437001D01*
X41154220Y-76438354D01*
X41137417Y-76440566D01*
X41077257Y-76429412D01*
X41035142Y-76385028D01*
X41025500Y-76342412D01*
X41025500Y-75657587D01*
X41044407Y-75599396D01*
X41093907Y-75563432D01*
X41137419Y-75559434D01*
X41164503Y-75563000D01*
X41611162Y-75562999D01*
X41669353Y-75581906D01*
X41681166Y-75591995D01*
X41967542Y-75878371D01*
X41967541Y-75878371D01*
X42021628Y-75932457D01*
X42021630Y-75932459D01*
X42077490Y-75964710D01*
X42087869Y-75970702D01*
X42087871Y-75970703D01*
X42161754Y-75990500D01*
X42161755Y-75990500D01*
X42738663Y-75990500D01*
X42796854Y-76009407D01*
X42808666Y-76019496D01*
X43221628Y-76432457D01*
X43221633Y-76432461D01*
X43287867Y-76470701D01*
X43287865Y-76470701D01*
X43287869Y-76470702D01*
X43287871Y-76470703D01*
X43361755Y-76490500D01*
X43438245Y-76490500D01*
X44632207Y-76490500D01*
X44690398Y-76509407D01*
X44726362Y-76558907D01*
X44726362Y-76620093D01*
X44721935Y-76631329D01*
X44705473Y-76666634D01*
X44702698Y-76687716D01*
X44699500Y-76712004D01*
X44699500Y-79352992D01*
X44699501Y-79353003D01*
X44705472Y-79398365D01*
X44751896Y-79497922D01*
X44751897Y-79497923D01*
X44751898Y-79497925D01*
X44829575Y-79575602D01*
X44929134Y-79622027D01*
X44974503Y-79628000D01*
X45565496Y-79627999D01*
X45610866Y-79622027D01*
X45610867Y-79622027D01*
X45664521Y-79597007D01*
X45710425Y-79575602D01*
X45788102Y-79497925D01*
X45834527Y-79398366D01*
X45840500Y-79352997D01*
X45840499Y-76712004D01*
X45834527Y-76666634D01*
X45818068Y-76631339D01*
X45810612Y-76570611D01*
X45840275Y-76517097D01*
X45895727Y-76491238D01*
X45907793Y-76490500D01*
X47138243Y-76490500D01*
X47138245Y-76490500D01*
X47212129Y-76470703D01*
X47212131Y-76470701D01*
X47212133Y-76470701D01*
X47278366Y-76432461D01*
X47278366Y-76432460D01*
X47278371Y-76432458D01*
X49032458Y-74678371D01*
X49040149Y-74665050D01*
X49070701Y-74612133D01*
X49070701Y-74612131D01*
X49070703Y-74612129D01*
X49090500Y-74538245D01*
X49090500Y-74461755D01*
X49090500Y-72261337D01*
X49109407Y-72203146D01*
X49119496Y-72191333D01*
X50556334Y-70754496D01*
X50610851Y-70726719D01*
X50626338Y-70725500D01*
X50656016Y-70725500D01*
X50656018Y-70725500D01*
X50764237Y-70696503D01*
X50764239Y-70696501D01*
X50764241Y-70696501D01*
X50793064Y-70679859D01*
X50861263Y-70640485D01*
X50940485Y-70561263D01*
X50996503Y-70464237D01*
X51025500Y-70356018D01*
X51025500Y-70243982D01*
X50996503Y-70135763D01*
X50996502Y-70135761D01*
X50996501Y-70135757D01*
X50994019Y-70129765D01*
X50996214Y-70128855D01*
X50985652Y-70079144D01*
X51010543Y-70023250D01*
X51063533Y-69992662D01*
X51084109Y-69990500D01*
X59980735Y-69990500D01*
X60038926Y-70009407D01*
X60074890Y-70058907D01*
X60074890Y-70120093D01*
X60070459Y-70131340D01*
X60025933Y-70226825D01*
X60025932Y-70226827D01*
X60019500Y-70275684D01*
X60019500Y-70724316D01*
X60022881Y-70750000D01*
X60025932Y-70773174D01*
X60025932Y-70773175D01*
X60075933Y-70880401D01*
X60075934Y-70880402D01*
X60075935Y-70880404D01*
X60159596Y-70964065D01*
X60159600Y-70964066D01*
X60166690Y-70969031D01*
X60164557Y-70972076D01*
X60197084Y-71002402D01*
X60209500Y-71050405D01*
X60209500Y-72861755D01*
X60209500Y-72938245D01*
X60225110Y-72996501D01*
X60229298Y-73012133D01*
X60267538Y-73078366D01*
X60267540Y-73078368D01*
X60267542Y-73078371D01*
X63080505Y-75891334D01*
X63108281Y-75945849D01*
X63109500Y-75961336D01*
X63109500Y-76273045D01*
X63107422Y-76284148D01*
X63109500Y-76311159D01*
X63109500Y-76338245D01*
X63110047Y-76340288D01*
X63113125Y-76358296D01*
X63113287Y-76360410D01*
X63121021Y-76382375D01*
X63122285Y-76385963D01*
X63129297Y-76412129D01*
X63134942Y-76421906D01*
X63137992Y-76430567D01*
X63137993Y-76430568D01*
X63138695Y-76432562D01*
X63151811Y-76451719D01*
X63153998Y-76454913D01*
X63167542Y-76478371D01*
X63175525Y-76486354D01*
X63181907Y-76495675D01*
X63202479Y-76513308D01*
X63221629Y-76532458D01*
X63231406Y-76538103D01*
X63238377Y-76544078D01*
X63238378Y-76544079D01*
X63414843Y-76695333D01*
X63446720Y-76747559D01*
X63441812Y-76808547D01*
X63401994Y-76855002D01*
X63350415Y-76869500D01*
X63147870Y-76869500D01*
X63147862Y-76869501D01*
X63067505Y-76885484D01*
X63067499Y-76885487D01*
X63062372Y-76888913D01*
X63044259Y-76894020D01*
X63027958Y-76903432D01*
X63015518Y-76902124D01*
X63003483Y-76905518D01*
X62985827Y-76899003D01*
X62967108Y-76897036D01*
X62957813Y-76888666D01*
X62946081Y-76884338D01*
X62921639Y-76856095D01*
X62901852Y-76821823D01*
X62901851Y-76821821D01*
X62897332Y-76813995D01*
X62880470Y-76784788D01*
X62315212Y-76219530D01*
X62235288Y-76173386D01*
X62146144Y-76149500D01*
X62146142Y-76149500D01*
X61986188Y-76149500D01*
X61927997Y-76130593D01*
X61916184Y-76120503D01*
X61776774Y-75981093D01*
X61615212Y-75819530D01*
X61535288Y-75773386D01*
X61446144Y-75749500D01*
X60853856Y-75749500D01*
X60764712Y-75773386D01*
X60764711Y-75773386D01*
X60764709Y-75773387D01*
X60684789Y-75819529D01*
X60684787Y-75819531D01*
X59609816Y-76894499D01*
X59555300Y-76922276D01*
X59526437Y-76922587D01*
X57575513Y-76656553D01*
X57569309Y-76655707D01*
X57546144Y-76649500D01*
X57523791Y-76649500D01*
X57517132Y-76648592D01*
X57517131Y-76648592D01*
X57501636Y-76646479D01*
X57484047Y-76648712D01*
X57471579Y-76649500D01*
X55149500Y-76649500D01*
X55091309Y-76630593D01*
X55055345Y-76581093D01*
X55050500Y-76550500D01*
X55050500Y-76130253D01*
X55050498Y-76130241D01*
X55045476Y-76104997D01*
X55038867Y-76071769D01*
X54994552Y-76005448D01*
X54979582Y-75995445D01*
X54928233Y-75961134D01*
X54928231Y-75961133D01*
X54928228Y-75961132D01*
X54928227Y-75961132D01*
X54869758Y-75949501D01*
X54869748Y-75949500D01*
X53130252Y-75949500D01*
X53130251Y-75949500D01*
X53130241Y-75949501D01*
X53071772Y-75961132D01*
X53071766Y-75961134D01*
X53005451Y-76005445D01*
X53005445Y-76005451D01*
X52961134Y-76071766D01*
X52961132Y-76071772D01*
X52949501Y-76130241D01*
X52949500Y-76130253D01*
X52949500Y-77869746D01*
X52949501Y-77869758D01*
X52953694Y-77890834D01*
X52961133Y-77928231D01*
X53005448Y-77994552D01*
X53071769Y-78038867D01*
X53116231Y-78047711D01*
X53130241Y-78050498D01*
X53130246Y-78050498D01*
X53130252Y-78050500D01*
X53130253Y-78050500D01*
X54869747Y-78050500D01*
X54869748Y-78050500D01*
X54928231Y-78038867D01*
X54994552Y-77994552D01*
X55038867Y-77928231D01*
X55050500Y-77869748D01*
X55050500Y-77449500D01*
X55069407Y-77391309D01*
X55118907Y-77355345D01*
X55149500Y-77350500D01*
X57469497Y-77350500D01*
X57482872Y-77351407D01*
X57838202Y-77399862D01*
X59263876Y-77594272D01*
X59318979Y-77620868D01*
X59347925Y-77674773D01*
X59349500Y-77692364D01*
X59349500Y-79346144D01*
X59351338Y-79353003D01*
X59363493Y-79398366D01*
X59363492Y-79398366D01*
X59370155Y-79423230D01*
X59373386Y-79435288D01*
X59419530Y-79515212D01*
X62319531Y-82415212D01*
X62319530Y-82415212D01*
X62384787Y-82480468D01*
X62384789Y-82480470D01*
X62433702Y-82508710D01*
X62464712Y-82526614D01*
X62553856Y-82550500D01*
X62553858Y-82550500D01*
X67246142Y-82550500D01*
X67246144Y-82550500D01*
X67335288Y-82526614D01*
X67415212Y-82480470D01*
X70013039Y-79882643D01*
X103209500Y-79882643D01*
X103209500Y-80117356D01*
X103240136Y-80350059D01*
X103259530Y-80422441D01*
X103300883Y-80576772D01*
X103300890Y-80576788D01*
X103390701Y-80793612D01*
X103508061Y-80996886D01*
X103650936Y-81183085D01*
X103650938Y-81183087D01*
X103650942Y-81183092D01*
X103816908Y-81349058D01*
X103816912Y-81349061D01*
X103816914Y-81349063D01*
X104003113Y-81491938D01*
X104003117Y-81491941D01*
X104206383Y-81609296D01*
X104206384Y-81609296D01*
X104206387Y-81609298D01*
X104264877Y-81633525D01*
X104423228Y-81699117D01*
X104649941Y-81759864D01*
X104882644Y-81790500D01*
X104882645Y-81790500D01*
X105117355Y-81790500D01*
X105117356Y-81790500D01*
X105350059Y-81759864D01*
X105576772Y-81699117D01*
X105793617Y-81609296D01*
X105996883Y-81491941D01*
X106183092Y-81349058D01*
X106349058Y-81183092D01*
X106491941Y-80996883D01*
X106609296Y-80793617D01*
X106699117Y-80576772D01*
X106759864Y-80350059D01*
X106790500Y-80117356D01*
X106790500Y-79882644D01*
X106759864Y-79649941D01*
X106699117Y-79423228D01*
X106621357Y-79235500D01*
X106609298Y-79206387D01*
X106605824Y-79200369D01*
X106491941Y-79003117D01*
X106412433Y-78899500D01*
X106349063Y-78816914D01*
X106349061Y-78816912D01*
X106349058Y-78816908D01*
X106183092Y-78650942D01*
X106183087Y-78650938D01*
X106183085Y-78650936D01*
X105996886Y-78508061D01*
X105963710Y-78488907D01*
X105854006Y-78425569D01*
X105793612Y-78390701D01*
X105635266Y-78325112D01*
X105576772Y-78300883D01*
X105576770Y-78300882D01*
X105576769Y-78300882D01*
X105350059Y-78240136D01*
X105117356Y-78209500D01*
X104882644Y-78209500D01*
X104882643Y-78209500D01*
X104649940Y-78240136D01*
X104423230Y-78300882D01*
X104423223Y-78300885D01*
X104206387Y-78390701D01*
X104003113Y-78508061D01*
X103816914Y-78650936D01*
X103650936Y-78816914D01*
X103508061Y-79003113D01*
X103390701Y-79206387D01*
X103300885Y-79423223D01*
X103300882Y-79423230D01*
X103240136Y-79649940D01*
X103209500Y-79882643D01*
X70013039Y-79882643D01*
X70880470Y-79015212D01*
X70926614Y-78935288D01*
X70936203Y-78899500D01*
X70950500Y-78846144D01*
X70950500Y-75749500D01*
X70969407Y-75691309D01*
X71018907Y-75655345D01*
X71049500Y-75650500D01*
X71286047Y-75650500D01*
X71344238Y-75669407D01*
X71374255Y-75704553D01*
X71400342Y-75755751D01*
X71494249Y-75849658D01*
X71612580Y-75909951D01*
X71675441Y-75919907D01*
X71710751Y-75925500D01*
X71710754Y-75925500D01*
X72289249Y-75925500D01*
X72317803Y-75920976D01*
X72387420Y-75909951D01*
X72505751Y-75849658D01*
X72599658Y-75755751D01*
X72659951Y-75637420D01*
X72674306Y-75546787D01*
X72675500Y-75539248D01*
X72675500Y-75035751D01*
X72667399Y-74984608D01*
X72659951Y-74937580D01*
X72599658Y-74819249D01*
X72505751Y-74725342D01*
X72467608Y-74705907D01*
X72387423Y-74665050D01*
X72387420Y-74665049D01*
X72362876Y-74661161D01*
X72289249Y-74649500D01*
X72289246Y-74649500D01*
X71710754Y-74649500D01*
X71710751Y-74649500D01*
X71612580Y-74665049D01*
X71612576Y-74665050D01*
X71494250Y-74725341D01*
X71400341Y-74819250D01*
X71361517Y-74895446D01*
X71318252Y-74938710D01*
X71273308Y-74949500D01*
X70646144Y-74949500D01*
X69053856Y-74949500D01*
X69008400Y-74961680D01*
X69008399Y-74961679D01*
X68964715Y-74973384D01*
X68884788Y-75019530D01*
X67219525Y-76684793D01*
X67218042Y-76686727D01*
X67216602Y-76687716D01*
X67214942Y-76689377D01*
X67214634Y-76689069D01*
X67167618Y-76721383D01*
X67106454Y-76719782D01*
X67057912Y-76682535D01*
X67040500Y-76626460D01*
X67040500Y-75011336D01*
X67059407Y-74953145D01*
X67069490Y-74941338D01*
X68232458Y-73778371D01*
X68270703Y-73712129D01*
X68290500Y-73638245D01*
X68290500Y-73561755D01*
X68290500Y-71237532D01*
X68309407Y-71179341D01*
X68358907Y-71143377D01*
X68420093Y-71143377D01*
X68459504Y-71167528D01*
X68482714Y-71190738D01*
X68620804Y-71272404D01*
X68759999Y-71312844D01*
X68760000Y-71312844D01*
X68760000Y-70750001D01*
X69260000Y-70750001D01*
X69260000Y-71312844D01*
X69399195Y-71272404D01*
X69399196Y-71272404D01*
X69537285Y-71190738D01*
X69650738Y-71077285D01*
X69732404Y-70939196D01*
X69732404Y-70939195D01*
X69777165Y-70785127D01*
X69777167Y-70785121D01*
X69779930Y-70750000D01*
X69260001Y-70750000D01*
X69260000Y-70750001D01*
X68760000Y-70750001D01*
X68760000Y-70249999D01*
X69260000Y-70249999D01*
X69260001Y-70250000D01*
X69779930Y-70250000D01*
X69779930Y-70249999D01*
X69777167Y-70214878D01*
X69777165Y-70214872D01*
X69732404Y-70060804D01*
X69732404Y-70060803D01*
X69650738Y-69922714D01*
X69537285Y-69809261D01*
X69399196Y-69727595D01*
X69399194Y-69727594D01*
X69260000Y-69687154D01*
X69260000Y-70249999D01*
X68760000Y-70249999D01*
X68760000Y-69687154D01*
X68620805Y-69727594D01*
X68620803Y-69727595D01*
X68482714Y-69809261D01*
X68369261Y-69922714D01*
X68351911Y-69952052D01*
X68306015Y-69992514D01*
X68245101Y-69998272D01*
X68224861Y-69991381D01*
X68213182Y-69985935D01*
X68213175Y-69985933D01*
X68213173Y-69985932D01*
X68164316Y-69979500D01*
X67815684Y-69979500D01*
X67799398Y-69981644D01*
X67766825Y-69985932D01*
X67766824Y-69985932D01*
X67659598Y-70035933D01*
X67575933Y-70119598D01*
X67525932Y-70226824D01*
X67525932Y-70226825D01*
X67523673Y-70243983D01*
X67519500Y-70275684D01*
X67519500Y-70724316D01*
X67522881Y-70750000D01*
X67525932Y-70773174D01*
X67525932Y-70773175D01*
X67575933Y-70880401D01*
X67575934Y-70880402D01*
X67575935Y-70880404D01*
X67659596Y-70964065D01*
X67659600Y-70964066D01*
X67666690Y-70969031D01*
X67664557Y-70972076D01*
X67697084Y-71002402D01*
X67709500Y-71050405D01*
X67709500Y-73438663D01*
X67690593Y-73496854D01*
X67680504Y-73508667D01*
X66708667Y-74480504D01*
X66654150Y-74508281D01*
X66638663Y-74509500D01*
X66117109Y-74509500D01*
X66062107Y-74492815D01*
X66055366Y-74488310D01*
X66055363Y-74488309D01*
X66055361Y-74488308D01*
X66055359Y-74488308D01*
X65985952Y-74474501D01*
X65985942Y-74474500D01*
X65439058Y-74474500D01*
X65439057Y-74474500D01*
X65439047Y-74474501D01*
X65369640Y-74488308D01*
X65369634Y-74488310D01*
X65290912Y-74540909D01*
X65290909Y-74540912D01*
X65238310Y-74619634D01*
X65238308Y-74619640D01*
X65224501Y-74689047D01*
X65224500Y-74689059D01*
X65224500Y-74910940D01*
X65224501Y-74910952D01*
X65238308Y-74980359D01*
X65238310Y-74980365D01*
X65290909Y-75059087D01*
X65290912Y-75059090D01*
X65362893Y-75107185D01*
X65369637Y-75111691D01*
X65422413Y-75122189D01*
X65439047Y-75125498D01*
X65439052Y-75125498D01*
X65439058Y-75125500D01*
X65439059Y-75125500D01*
X65985941Y-75125500D01*
X65985942Y-75125500D01*
X66055363Y-75111691D01*
X66062107Y-75107185D01*
X66117109Y-75090500D01*
X66360500Y-75090500D01*
X66418691Y-75109407D01*
X66454655Y-75158907D01*
X66459500Y-75189500D01*
X66459500Y-76770844D01*
X66440593Y-76829035D01*
X66391093Y-76864999D01*
X66356996Y-76868700D01*
X66356996Y-76869500D01*
X66147870Y-76869500D01*
X66147862Y-76869501D01*
X66067505Y-76885484D01*
X66067501Y-76885486D01*
X66054999Y-76893840D01*
X65996111Y-76910447D01*
X65945001Y-76893840D01*
X65932496Y-76885485D01*
X65932495Y-76885484D01*
X65852134Y-76869500D01*
X65647870Y-76869500D01*
X65647862Y-76869501D01*
X65567505Y-76885484D01*
X65567501Y-76885486D01*
X65554999Y-76893840D01*
X65496111Y-76910447D01*
X65445001Y-76893840D01*
X65432496Y-76885485D01*
X65432495Y-76885484D01*
X65352134Y-76869500D01*
X65147870Y-76869500D01*
X65147862Y-76869501D01*
X65067505Y-76885484D01*
X65067501Y-76885486D01*
X65054999Y-76893840D01*
X64996111Y-76910447D01*
X64945001Y-76893840D01*
X64932496Y-76885485D01*
X64932495Y-76885484D01*
X64852134Y-76869500D01*
X64647870Y-76869500D01*
X64647862Y-76869501D01*
X64567505Y-76885484D01*
X64567501Y-76885486D01*
X64554999Y-76893840D01*
X64496111Y-76910447D01*
X64445001Y-76893840D01*
X64432496Y-76885485D01*
X64432495Y-76885484D01*
X64352134Y-76869500D01*
X64352133Y-76869500D01*
X64352091Y-76869500D01*
X64143004Y-76869501D01*
X64143004Y-76868010D01*
X64129292Y-76865001D01*
X64108907Y-76865001D01*
X64100085Y-76858591D01*
X64089437Y-76856255D01*
X64075899Y-76841019D01*
X64059407Y-76829037D01*
X64056037Y-76818666D01*
X64048796Y-76810517D01*
X64040500Y-76770846D01*
X64040500Y-76636133D01*
X64042191Y-76617916D01*
X64042319Y-76617226D01*
X64042577Y-76615852D01*
X64040792Y-76592644D01*
X64040500Y-76585051D01*
X64040500Y-76561756D01*
X64040500Y-76561755D01*
X64037577Y-76550846D01*
X64036711Y-76539587D01*
X64027713Y-76514035D01*
X64020703Y-76487871D01*
X64020700Y-76487865D01*
X64019649Y-76486044D01*
X64012004Y-76469422D01*
X64011999Y-76469407D01*
X64011306Y-76467439D01*
X64011305Y-76467437D01*
X63998146Y-76448218D01*
X63995998Y-76445081D01*
X63982458Y-76421629D01*
X63974472Y-76413643D01*
X63968092Y-76404325D01*
X63968088Y-76404322D01*
X63968088Y-76404321D01*
X63950416Y-76389173D01*
X63944842Y-76384012D01*
X63928371Y-76367541D01*
X63926544Y-76366487D01*
X63911619Y-76355919D01*
X63805157Y-76264666D01*
X63791193Y-76241788D01*
X63775431Y-76220093D01*
X63775431Y-76215962D01*
X63773281Y-76212440D01*
X63775431Y-76185723D01*
X63775431Y-76158907D01*
X63777857Y-76155566D01*
X63778189Y-76151452D01*
X63795633Y-76131101D01*
X63811395Y-76109407D01*
X63815322Y-76108130D01*
X63818009Y-76104997D01*
X63869586Y-76090500D01*
X63882891Y-76090500D01*
X63937893Y-76107185D01*
X63944633Y-76111689D01*
X63944634Y-76111689D01*
X63944637Y-76111691D01*
X63988937Y-76120503D01*
X64014047Y-76125498D01*
X64014052Y-76125498D01*
X64014058Y-76125500D01*
X64014059Y-76125500D01*
X64560941Y-76125500D01*
X64560942Y-76125500D01*
X64630363Y-76111691D01*
X64709089Y-76059089D01*
X64761691Y-75980363D01*
X64775500Y-75910942D01*
X64775500Y-75689058D01*
X64761691Y-75619637D01*
X64757178Y-75612883D01*
X64751913Y-75605003D01*
X64735303Y-75546115D01*
X64751913Y-75494997D01*
X64753570Y-75492516D01*
X64761691Y-75480363D01*
X64775500Y-75410942D01*
X64775500Y-75189058D01*
X64761691Y-75119637D01*
X64751913Y-75105003D01*
X64735303Y-75046115D01*
X64751913Y-74994997D01*
X64753570Y-74992516D01*
X64761691Y-74980363D01*
X64775500Y-74910942D01*
X64775500Y-74689058D01*
X64761691Y-74619637D01*
X64709089Y-74540911D01*
X64709087Y-74540909D01*
X64630365Y-74488310D01*
X64630363Y-74488309D01*
X64630360Y-74488308D01*
X64630359Y-74488308D01*
X64560952Y-74474501D01*
X64560942Y-74474500D01*
X64014058Y-74474500D01*
X64014057Y-74474500D01*
X64014047Y-74474501D01*
X63944640Y-74488308D01*
X63944634Y-74488310D01*
X63865912Y-74540909D01*
X63865909Y-74540912D01*
X63813310Y-74619634D01*
X63813308Y-74619640D01*
X63799501Y-74689047D01*
X63799500Y-74689059D01*
X63799500Y-74910940D01*
X63799501Y-74910952D01*
X63813308Y-74980359D01*
X63813311Y-74980368D01*
X63823088Y-74995000D01*
X63839696Y-75053888D01*
X63823088Y-75105000D01*
X63813311Y-75119631D01*
X63813308Y-75119640D01*
X63799501Y-75189047D01*
X63799500Y-75189059D01*
X63799500Y-75410500D01*
X63794655Y-75425411D01*
X63794655Y-75441093D01*
X63785438Y-75453778D01*
X63780593Y-75468691D01*
X63767907Y-75477907D01*
X63758691Y-75490593D01*
X63743778Y-75495438D01*
X63731093Y-75504655D01*
X63700500Y-75509500D01*
X63561337Y-75509500D01*
X63503146Y-75490593D01*
X63491333Y-75480504D01*
X60819496Y-72808667D01*
X60791719Y-72754150D01*
X60790500Y-72738663D01*
X60790500Y-71237532D01*
X60809407Y-71179341D01*
X60858907Y-71143377D01*
X60920093Y-71143377D01*
X60959504Y-71167528D01*
X60982714Y-71190738D01*
X61120804Y-71272404D01*
X61259999Y-71312844D01*
X61260000Y-71312844D01*
X61260000Y-70750001D01*
X61760000Y-70750001D01*
X61760000Y-71312844D01*
X61899195Y-71272404D01*
X61899196Y-71272404D01*
X62037285Y-71190738D01*
X62150738Y-71077285D01*
X62232404Y-70939196D01*
X62232404Y-70939195D01*
X62277165Y-70785127D01*
X62277167Y-70785121D01*
X62279930Y-70750000D01*
X61760001Y-70750000D01*
X61760000Y-70750001D01*
X61260000Y-70750001D01*
X61260000Y-70599000D01*
X61278907Y-70540809D01*
X61328407Y-70504845D01*
X61359000Y-70500000D01*
X61509999Y-70500000D01*
X61510000Y-70499999D01*
X61510000Y-70349000D01*
X61528907Y-70290809D01*
X61578407Y-70254845D01*
X61609000Y-70250000D01*
X62279930Y-70250000D01*
X62279930Y-70249999D01*
X62277167Y-70214878D01*
X62277165Y-70214872D01*
X62248766Y-70117120D01*
X62250688Y-70055965D01*
X62288189Y-70007619D01*
X62343835Y-69990500D01*
X63238663Y-69990500D01*
X63296854Y-70009407D01*
X63308667Y-70019496D01*
X64621629Y-71332458D01*
X64621631Y-71332459D01*
X64621632Y-71332460D01*
X64621633Y-71332461D01*
X64687867Y-71370701D01*
X64687865Y-71370701D01*
X64687869Y-71370702D01*
X64687871Y-71370703D01*
X64761755Y-71390500D01*
X64761757Y-71390500D01*
X64838243Y-71390500D01*
X64838245Y-71390500D01*
X64912129Y-71370703D01*
X64912131Y-71370701D01*
X64912133Y-71370701D01*
X64978366Y-71332461D01*
X64978366Y-71332460D01*
X64978371Y-71332458D01*
X65032458Y-71278371D01*
X67532458Y-68778371D01*
X67532459Y-68778368D01*
X67537046Y-68773782D01*
X67538648Y-68775384D01*
X67580815Y-68746394D01*
X67641980Y-68747986D01*
X67648935Y-68750748D01*
X67652233Y-68752204D01*
X67652235Y-68752206D01*
X67755009Y-68797585D01*
X67780135Y-68800500D01*
X68069864Y-68800499D01*
X68094991Y-68797585D01*
X68197765Y-68752206D01*
X68277206Y-68672765D01*
X68322585Y-68569991D01*
X68325500Y-68544865D01*
X68325499Y-67180136D01*
X68322585Y-67155009D01*
X68277206Y-67052235D01*
X68197765Y-66972794D01*
X68094991Y-66927415D01*
X68094990Y-66927414D01*
X68094988Y-66927414D01*
X68069868Y-66924500D01*
X67780140Y-66924500D01*
X67780135Y-66924501D01*
X67755009Y-66927414D01*
X67701734Y-66950938D01*
X67652235Y-66972794D01*
X67652234Y-66972794D01*
X67643843Y-66976500D01*
X67642794Y-66974126D01*
X67597243Y-66987537D01*
X67557050Y-66974477D01*
X67556157Y-66976500D01*
X67547766Y-66972795D01*
X67547765Y-66972794D01*
X67444991Y-66927415D01*
X67444990Y-66927414D01*
X67444988Y-66927414D01*
X67419868Y-66924500D01*
X67130140Y-66924500D01*
X67130135Y-66924501D01*
X67105009Y-66927414D01*
X67051734Y-66950938D01*
X67002235Y-66972794D01*
X67002234Y-66972794D01*
X66993843Y-66976500D01*
X66992794Y-66974126D01*
X66947243Y-66987537D01*
X66907050Y-66974477D01*
X66906157Y-66976500D01*
X66897766Y-66972795D01*
X66897765Y-66972794D01*
X66794991Y-66927415D01*
X66794990Y-66927414D01*
X66794988Y-66927414D01*
X66769868Y-66924500D01*
X66480140Y-66924500D01*
X66480135Y-66924501D01*
X66455009Y-66927414D01*
X66401734Y-66950938D01*
X66352235Y-66972794D01*
X66352234Y-66972794D01*
X66343843Y-66976500D01*
X66342794Y-66974126D01*
X66297243Y-66987537D01*
X66257050Y-66974477D01*
X66256157Y-66976500D01*
X66247766Y-66972795D01*
X66247765Y-66972794D01*
X66144991Y-66927415D01*
X66144990Y-66927414D01*
X66144988Y-66927414D01*
X66119868Y-66924500D01*
X65830140Y-66924500D01*
X65830135Y-66924501D01*
X65805009Y-66927414D01*
X65751734Y-66950938D01*
X65702235Y-66972794D01*
X65702234Y-66972794D01*
X65693843Y-66976500D01*
X65692794Y-66974126D01*
X65647243Y-66987537D01*
X65607050Y-66974477D01*
X65606157Y-66976500D01*
X65597766Y-66972795D01*
X65597765Y-66972794D01*
X65494991Y-66927415D01*
X65494990Y-66927414D01*
X65494988Y-66927414D01*
X65469868Y-66924500D01*
X65180140Y-66924500D01*
X65180135Y-66924501D01*
X65155009Y-66927414D01*
X65101734Y-66950938D01*
X65052235Y-66972794D01*
X65052234Y-66972794D01*
X65043843Y-66976500D01*
X65042794Y-66974126D01*
X64997243Y-66987537D01*
X64957050Y-66974477D01*
X64956157Y-66976500D01*
X64947766Y-66972795D01*
X64947765Y-66972794D01*
X64844991Y-66927415D01*
X64844990Y-66927414D01*
X64844988Y-66927414D01*
X64819868Y-66924500D01*
X64530140Y-66924500D01*
X64530135Y-66924501D01*
X64505009Y-66927414D01*
X64451734Y-66950938D01*
X64402235Y-66972794D01*
X64402234Y-66972794D01*
X64393843Y-66976500D01*
X64392794Y-66974126D01*
X64347243Y-66987537D01*
X64307050Y-66974477D01*
X64306157Y-66976500D01*
X64297766Y-66972795D01*
X64297765Y-66972794D01*
X64194991Y-66927415D01*
X64194990Y-66927414D01*
X64194988Y-66927414D01*
X64169868Y-66924500D01*
X63880140Y-66924500D01*
X63880135Y-66924501D01*
X63855009Y-66927414D01*
X63801734Y-66950938D01*
X63752235Y-66972794D01*
X63752234Y-66972794D01*
X63743843Y-66976500D01*
X63742794Y-66974126D01*
X63697243Y-66987537D01*
X63658848Y-66978617D01*
X63649160Y-66974189D01*
X63647765Y-66972794D01*
X63598835Y-66951189D01*
X63598285Y-66950938D01*
X63576200Y-66930657D01*
X63553853Y-66910660D01*
X63553711Y-66910005D01*
X63553219Y-66909553D01*
X63547276Y-66880179D01*
X63540948Y-66850851D01*
X63541218Y-66850238D01*
X63541086Y-66849583D01*
X63553538Y-66822335D01*
X63565662Y-66794879D01*
X63566484Y-66794009D01*
X63566519Y-66793934D01*
X63566597Y-66793889D01*
X63569419Y-66790906D01*
X63999860Y-66360465D01*
X63999862Y-66360464D01*
X66260465Y-64099862D01*
X66303318Y-64025639D01*
X66325500Y-63942853D01*
X66325500Y-63857147D01*
X66325500Y-63166882D01*
X66344407Y-63108691D01*
X66393907Y-63072727D01*
X66450498Y-63071356D01*
X66455000Y-63072581D01*
X66455009Y-63072585D01*
X66480135Y-63075500D01*
X66769864Y-63075499D01*
X66794991Y-63072585D01*
X66897765Y-63027206D01*
X66897766Y-63027204D01*
X66906157Y-63023500D01*
X66907205Y-63025875D01*
X66952739Y-63012462D01*
X66992948Y-63025526D01*
X66993843Y-63023500D01*
X67002233Y-63027204D01*
X67002235Y-63027206D01*
X67105009Y-63072585D01*
X67130135Y-63075500D01*
X67419864Y-63075499D01*
X67444991Y-63072585D01*
X67547765Y-63027206D01*
X67547766Y-63027204D01*
X67556157Y-63023500D01*
X67557205Y-63025875D01*
X67602739Y-63012462D01*
X67642948Y-63025526D01*
X67643843Y-63023500D01*
X67652233Y-63027204D01*
X67652235Y-63027206D01*
X67755009Y-63072585D01*
X67780135Y-63075500D01*
X68069864Y-63075499D01*
X68094991Y-63072585D01*
X68197765Y-63027206D01*
X68277206Y-62947765D01*
X68322585Y-62844991D01*
X68325500Y-62819865D01*
X68325499Y-61455136D01*
X68322585Y-61430009D01*
X68277206Y-61327235D01*
X68197765Y-61247794D01*
X68094991Y-61202415D01*
X68094990Y-61202414D01*
X68094988Y-61202414D01*
X68069868Y-61199500D01*
X67780140Y-61199500D01*
X67780135Y-61199501D01*
X67755009Y-61202414D01*
X67684766Y-61233430D01*
X67652235Y-61247794D01*
X67652234Y-61247794D01*
X67643843Y-61251500D01*
X67642794Y-61249126D01*
X67597243Y-61262537D01*
X67557050Y-61249477D01*
X67556157Y-61251500D01*
X67547766Y-61247795D01*
X67547765Y-61247794D01*
X67444991Y-61202415D01*
X67444990Y-61202414D01*
X67444988Y-61202414D01*
X67419868Y-61199500D01*
X67130140Y-61199500D01*
X67130135Y-61199501D01*
X67105009Y-61202414D01*
X67034766Y-61233430D01*
X67002235Y-61247794D01*
X67002234Y-61247794D01*
X66993843Y-61251500D01*
X66992794Y-61249126D01*
X66947243Y-61262537D01*
X66913503Y-61255602D01*
X66900360Y-61250389D01*
X66897765Y-61247794D01*
X66794991Y-61202415D01*
X66772943Y-61199857D01*
X66760815Y-61195047D01*
X66746808Y-61183446D01*
X66730277Y-61175871D01*
X66723824Y-61164410D01*
X66713693Y-61156019D01*
X66709180Y-61138399D01*
X66700259Y-61122555D01*
X66701774Y-61109489D01*
X66698511Y-61096747D01*
X66705214Y-61079842D01*
X66707311Y-61061778D01*
X66719107Y-61044811D01*
X66721067Y-61039871D01*
X66723705Y-61038198D01*
X66727309Y-61033016D01*
X66834667Y-60925659D01*
X67031804Y-60728522D01*
X67086320Y-60700745D01*
X67143645Y-60708801D01*
X67240513Y-60753972D01*
X67290099Y-60760500D01*
X67709900Y-60760499D01*
X67759487Y-60753972D01*
X67759488Y-60753972D01*
X67818137Y-60726622D01*
X67868316Y-60703224D01*
X67953224Y-60618316D01*
X68003972Y-60509487D01*
X68010500Y-60459901D01*
X68010499Y-60250001D01*
X68775001Y-60250001D01*
X68775001Y-60298322D01*
X68785142Y-60397597D01*
X68785145Y-60397609D01*
X68838454Y-60558487D01*
X68927425Y-60702729D01*
X69047270Y-60822574D01*
X69191512Y-60911545D01*
X69352396Y-60964856D01*
X69451676Y-60974999D01*
X69475000Y-60974998D01*
X69475000Y-60250001D01*
X69474999Y-60250000D01*
X68775002Y-60250000D01*
X68775001Y-60250001D01*
X68010499Y-60250001D01*
X68010499Y-60100100D01*
X68006414Y-60069070D01*
X68006269Y-60064027D01*
X68013527Y-60039279D01*
X68018226Y-60013928D01*
X68022158Y-60009849D01*
X68023488Y-60005315D01*
X68035364Y-59996150D01*
X68054836Y-59975953D01*
X68065375Y-59969720D01*
X68179721Y-59855374D01*
X68262030Y-59716198D01*
X68266249Y-59701676D01*
X68775000Y-59701676D01*
X68775000Y-59749999D01*
X68775001Y-59750000D01*
X69474999Y-59750000D01*
X69475000Y-59749999D01*
X69475000Y-59025000D01*
X69474999Y-59024999D01*
X69451689Y-59025000D01*
X69451684Y-59025001D01*
X69352401Y-59035142D01*
X69352390Y-59035145D01*
X69191512Y-59088454D01*
X69047270Y-59177425D01*
X68927425Y-59297270D01*
X68838454Y-59441512D01*
X68785143Y-59602396D01*
X68775000Y-59701676D01*
X68266249Y-59701676D01*
X68275004Y-59671544D01*
X68275004Y-59671543D01*
X68304504Y-59570001D01*
X68304504Y-59570000D01*
X67599000Y-59570000D01*
X67540809Y-59551093D01*
X67504845Y-59501593D01*
X67500000Y-59471000D01*
X67500000Y-59169000D01*
X67518907Y-59110809D01*
X67568407Y-59074845D01*
X67599000Y-59070000D01*
X68304504Y-59070000D01*
X68304504Y-59069999D01*
X68262030Y-58923802D01*
X68262030Y-58923801D01*
X68179721Y-58784625D01*
X68065374Y-58670278D01*
X67926197Y-58587969D01*
X67812768Y-58555015D01*
X67762163Y-58520624D01*
X67741437Y-58463056D01*
X67758507Y-58404300D01*
X67770379Y-58389947D01*
X68429999Y-57730327D01*
X68484512Y-57702553D01*
X68544944Y-57712124D01*
X68570003Y-57730330D01*
X69946004Y-59106331D01*
X69973781Y-59160848D01*
X69975000Y-59176335D01*
X69975000Y-60974998D01*
X69975001Y-60974999D01*
X69998322Y-60974999D01*
X70097597Y-60964857D01*
X70097609Y-60964854D01*
X70258487Y-60911545D01*
X70402729Y-60822574D01*
X70522571Y-60702732D01*
X70601205Y-60575248D01*
X70647847Y-60535647D01*
X70708857Y-60531024D01*
X70755467Y-60557215D01*
X70796780Y-60598528D01*
X70796782Y-60598529D01*
X70916867Y-60659716D01*
X70916869Y-60659716D01*
X70916874Y-60659719D01*
X70992541Y-60671703D01*
X71016510Y-60675500D01*
X71016512Y-60675500D01*
X71474165Y-60675500D01*
X71532356Y-60694407D01*
X71544169Y-60704496D01*
X83200138Y-72360465D01*
X83200140Y-72360466D01*
X83200141Y-72360467D01*
X83200142Y-72360468D01*
X83274357Y-72403316D01*
X83274355Y-72403316D01*
X83274359Y-72403317D01*
X83274361Y-72403318D01*
X83357147Y-72425500D01*
X83357149Y-72425500D01*
X83542851Y-72425500D01*
X83542853Y-72425500D01*
X83550376Y-72423484D01*
X83611476Y-72426684D01*
X83659027Y-72465188D01*
X83675000Y-72519109D01*
X83675000Y-72658322D01*
X83685142Y-72757597D01*
X83685145Y-72757609D01*
X83738454Y-72918487D01*
X83827425Y-73062729D01*
X83947270Y-73182574D01*
X84091512Y-73271545D01*
X84252396Y-73324856D01*
X84351676Y-73334999D01*
X84375000Y-73334998D01*
X84375000Y-72459000D01*
X84393907Y-72400809D01*
X84443407Y-72364845D01*
X84474000Y-72360000D01*
X84776000Y-72360000D01*
X84834191Y-72378907D01*
X84870155Y-72428407D01*
X84875000Y-72459000D01*
X84875000Y-73334998D01*
X84875001Y-73334999D01*
X84898322Y-73334999D01*
X84997597Y-73324857D01*
X84997609Y-73324854D01*
X85158487Y-73271545D01*
X85302729Y-73182574D01*
X85422571Y-73062732D01*
X85501205Y-72935248D01*
X85547847Y-72895647D01*
X85608857Y-72891024D01*
X85655467Y-72917215D01*
X85696780Y-72958528D01*
X85696782Y-72958529D01*
X85816867Y-73019716D01*
X85816869Y-73019716D01*
X85816874Y-73019719D01*
X85892541Y-73031703D01*
X85916510Y-73035500D01*
X85916512Y-73035500D01*
X86433490Y-73035500D01*
X86454885Y-73032111D01*
X86533126Y-73019719D01*
X86653220Y-72958528D01*
X86748528Y-72863220D01*
X86783845Y-72793907D01*
X86791158Y-72779555D01*
X86834422Y-72736290D01*
X86879367Y-72725500D01*
X87450500Y-72725500D01*
X87508691Y-72744407D01*
X87544655Y-72793907D01*
X87549500Y-72824500D01*
X87549500Y-72908260D01*
X87556118Y-72953682D01*
X87559427Y-72976395D01*
X87588322Y-73035500D01*
X87610802Y-73081483D01*
X87693517Y-73164198D01*
X87731106Y-73182574D01*
X87798604Y-73215572D01*
X87798605Y-73215572D01*
X87798607Y-73215573D01*
X87866740Y-73225500D01*
X87866743Y-73225500D01*
X88236842Y-73225500D01*
X88236842Y-73226503D01*
X88292289Y-73240177D01*
X88331738Y-73286947D01*
X88336162Y-73347972D01*
X88310046Y-73394272D01*
X87958814Y-73745504D01*
X87904297Y-73773281D01*
X87888810Y-73774500D01*
X87866740Y-73774500D01*
X87840172Y-73778371D01*
X87798604Y-73784427D01*
X87693518Y-73835801D01*
X87610801Y-73918518D01*
X87559427Y-74023604D01*
X87559427Y-74023607D01*
X87550806Y-74082782D01*
X87549500Y-74091743D01*
X87549500Y-74150500D01*
X87530593Y-74208691D01*
X87481093Y-74244655D01*
X87450500Y-74249500D01*
X86866629Y-74249500D01*
X86808438Y-74230593D01*
X86778420Y-74195446D01*
X86770382Y-74179671D01*
X86748528Y-74136780D01*
X86653220Y-74041472D01*
X86653217Y-74041470D01*
X86533132Y-73980283D01*
X86533127Y-73980281D01*
X86533126Y-73980281D01*
X86499913Y-73975020D01*
X86433490Y-73964500D01*
X86433488Y-73964500D01*
X85916512Y-73964500D01*
X85916510Y-73964500D01*
X85816874Y-73980281D01*
X85816867Y-73980283D01*
X85696782Y-74041470D01*
X85696778Y-74041473D01*
X85655469Y-74082782D01*
X85600952Y-74110559D01*
X85540520Y-74100987D01*
X85501206Y-74064751D01*
X85422573Y-73937269D01*
X85302729Y-73817425D01*
X85158487Y-73728454D01*
X84997603Y-73675143D01*
X84898323Y-73665000D01*
X84875001Y-73665000D01*
X84875000Y-73665001D01*
X84875000Y-75614998D01*
X84875001Y-75614999D01*
X84898322Y-75614999D01*
X84997597Y-75604857D01*
X84997609Y-75604854D01*
X85158487Y-75551545D01*
X85302729Y-75462574D01*
X85422571Y-75342732D01*
X85501205Y-75215248D01*
X85547847Y-75175647D01*
X85608857Y-75171024D01*
X85640300Y-75184794D01*
X85648503Y-75190251D01*
X85696780Y-75238528D01*
X85800556Y-75291404D01*
X85805334Y-75294583D01*
X85820935Y-75314290D01*
X85838710Y-75332065D01*
X85840322Y-75338780D01*
X85843311Y-75342556D01*
X85843743Y-75353033D01*
X85849500Y-75377010D01*
X85849500Y-75513810D01*
X85830593Y-75572001D01*
X85820504Y-75583814D01*
X85383814Y-76020504D01*
X85329297Y-76048281D01*
X85313810Y-76049500D01*
X81300168Y-76049500D01*
X81241977Y-76030593D01*
X81206013Y-75981093D01*
X81206013Y-75919907D01*
X81230164Y-75880496D01*
X81242319Y-75868340D01*
X81334356Y-75719124D01*
X81389506Y-75552693D01*
X81400000Y-75449987D01*
X81400000Y-74890001D01*
X83675001Y-74890001D01*
X83675001Y-74938322D01*
X83685142Y-75037597D01*
X83685145Y-75037609D01*
X83738454Y-75198487D01*
X83827425Y-75342729D01*
X83947270Y-75462574D01*
X84091512Y-75551545D01*
X84252396Y-75604856D01*
X84351676Y-75614999D01*
X84375000Y-75614998D01*
X84375000Y-74890001D01*
X84374999Y-74890000D01*
X83675002Y-74890000D01*
X83675001Y-74890001D01*
X81400000Y-74890001D01*
X81400000Y-74750001D01*
X81399999Y-74750000D01*
X77900002Y-74750000D01*
X77900001Y-74750001D01*
X77900001Y-75449986D01*
X77910492Y-75552687D01*
X77910495Y-75552699D01*
X77965643Y-75719124D01*
X78057680Y-75868340D01*
X78069836Y-75880496D01*
X78097613Y-75935013D01*
X78088042Y-75995445D01*
X78044777Y-76038710D01*
X77999832Y-76049500D01*
X77486190Y-76049500D01*
X77427999Y-76030593D01*
X77416186Y-76020504D01*
X76829496Y-75433814D01*
X76801719Y-75379297D01*
X76800500Y-75363810D01*
X76800500Y-74341676D01*
X83675000Y-74341676D01*
X83675000Y-74389999D01*
X83675001Y-74390000D01*
X84374999Y-74390000D01*
X84375000Y-74389999D01*
X84375000Y-73665000D01*
X84374999Y-73664999D01*
X84351689Y-73665000D01*
X84351684Y-73665001D01*
X84252401Y-73675142D01*
X84252390Y-73675145D01*
X84091512Y-73728454D01*
X83947270Y-73817425D01*
X83827425Y-73937270D01*
X83738454Y-74081512D01*
X83685143Y-74242396D01*
X83675000Y-74341676D01*
X76800500Y-74341676D01*
X76800500Y-73550012D01*
X77900000Y-73550012D01*
X77900000Y-74249999D01*
X77900001Y-74250000D01*
X79399999Y-74250000D01*
X79400000Y-74249999D01*
X79400000Y-72850001D01*
X79900000Y-72850001D01*
X79900000Y-74249999D01*
X79900001Y-74250000D01*
X81399998Y-74250000D01*
X81399999Y-74249999D01*
X81399999Y-73550013D01*
X81389507Y-73447312D01*
X81389504Y-73447300D01*
X81334356Y-73280875D01*
X81242319Y-73131659D01*
X81118340Y-73007680D01*
X80969124Y-72915643D01*
X80802693Y-72860493D01*
X80699987Y-72850000D01*
X79900001Y-72850000D01*
X79900000Y-72850001D01*
X79400000Y-72850001D01*
X79399999Y-72850000D01*
X78600013Y-72850000D01*
X78497312Y-72860492D01*
X78497300Y-72860495D01*
X78330875Y-72915643D01*
X78181659Y-73007680D01*
X78057680Y-73131659D01*
X77965643Y-73280875D01*
X77910493Y-73447306D01*
X77900000Y-73550012D01*
X76800500Y-73550012D01*
X76800500Y-73545727D01*
X76800499Y-73545725D01*
X76797646Y-73515305D01*
X76797646Y-73515301D01*
X76752793Y-73387118D01*
X76734683Y-73362580D01*
X76672154Y-73277855D01*
X76672152Y-73277853D01*
X76672150Y-73277850D01*
X76672146Y-73277847D01*
X76672144Y-73277845D01*
X76562883Y-73197207D01*
X76434703Y-73152355D01*
X76434694Y-73152353D01*
X76404274Y-73149500D01*
X76404266Y-73149500D01*
X74295734Y-73149500D01*
X74295725Y-73149500D01*
X74265305Y-73152353D01*
X74265296Y-73152355D01*
X74137116Y-73197207D01*
X74027850Y-73277849D01*
X74004648Y-73309288D01*
X73954880Y-73344881D01*
X73924992Y-73349500D01*
X72713953Y-73349500D01*
X72655762Y-73330593D01*
X72625744Y-73295446D01*
X72599658Y-73244249D01*
X72505751Y-73150342D01*
X72431522Y-73112520D01*
X72387423Y-73090050D01*
X72387420Y-73090049D01*
X72362876Y-73086161D01*
X72289249Y-73074500D01*
X72289246Y-73074500D01*
X71710754Y-73074500D01*
X71710751Y-73074500D01*
X71612580Y-73090049D01*
X71612576Y-73090050D01*
X71494250Y-73150341D01*
X71400341Y-73244250D01*
X71340050Y-73362576D01*
X71340049Y-73362580D01*
X71324500Y-73460751D01*
X71324500Y-73964248D01*
X71340049Y-74062419D01*
X71340050Y-74062423D01*
X71384419Y-74149500D01*
X71400342Y-74180751D01*
X71494249Y-74274658D01*
X71612580Y-74334951D01*
X71679130Y-74345491D01*
X71710751Y-74350500D01*
X71710754Y-74350500D01*
X72289249Y-74350500D01*
X72317803Y-74345976D01*
X72387420Y-74334951D01*
X72505751Y-74274658D01*
X72599658Y-74180751D01*
X72638483Y-74104554D01*
X72681748Y-74061290D01*
X72726692Y-74050500D01*
X73800500Y-74050500D01*
X73858691Y-74069407D01*
X73894655Y-74118907D01*
X73899500Y-74149500D01*
X73899500Y-75454274D01*
X73902353Y-75484694D01*
X73902355Y-75484703D01*
X73947207Y-75612883D01*
X74027845Y-75722144D01*
X74027847Y-75722146D01*
X74027850Y-75722150D01*
X74027853Y-75722152D01*
X74027855Y-75722154D01*
X74137116Y-75802792D01*
X74137117Y-75802792D01*
X74137118Y-75802793D01*
X74265301Y-75847646D01*
X74295725Y-75850499D01*
X74295727Y-75850500D01*
X74295734Y-75850500D01*
X76213810Y-75850500D01*
X76272001Y-75869407D01*
X76283814Y-75879496D01*
X77084788Y-76680470D01*
X77164712Y-76726614D01*
X77253856Y-76750500D01*
X77253858Y-76750500D01*
X85546142Y-76750500D01*
X85546144Y-76750500D01*
X85635288Y-76726614D01*
X85647552Y-76719532D01*
X85647555Y-76719532D01*
X85665683Y-76709065D01*
X85715212Y-76680470D01*
X86480469Y-75915213D01*
X86526614Y-75835288D01*
X86532819Y-75812129D01*
X86550500Y-75746144D01*
X86550500Y-75351533D01*
X86569407Y-75293342D01*
X86604555Y-75263323D01*
X86653220Y-75238528D01*
X86748528Y-75143220D01*
X86809719Y-75023126D01*
X86809719Y-75023119D01*
X86811088Y-75018911D01*
X86847050Y-74969410D01*
X86905240Y-74950500D01*
X87450500Y-74950500D01*
X87508691Y-74969407D01*
X87544655Y-75018907D01*
X87549500Y-75049500D01*
X87549500Y-75183260D01*
X87556118Y-75228682D01*
X87559427Y-75251395D01*
X87608382Y-75351533D01*
X87610802Y-75356483D01*
X87693517Y-75439198D01*
X87724356Y-75454274D01*
X87798604Y-75490572D01*
X87798605Y-75490572D01*
X87798607Y-75490573D01*
X87866740Y-75500500D01*
X87866743Y-75500500D01*
X88233258Y-75500500D01*
X88233260Y-75500500D01*
X88233261Y-75500499D01*
X88236831Y-75500241D01*
X88236949Y-75501874D01*
X88291214Y-75511122D01*
X88330451Y-75548401D01*
X88332315Y-75551553D01*
X88448447Y-75667685D01*
X88589799Y-75751280D01*
X88747506Y-75797098D01*
X88747513Y-75797100D01*
X88750000Y-75797295D01*
X88750000Y-74736500D01*
X88768907Y-74678309D01*
X88818407Y-74642345D01*
X88849000Y-74637500D01*
X89151000Y-74637500D01*
X89209191Y-74656407D01*
X89245155Y-74705907D01*
X89250000Y-74736500D01*
X89250000Y-75797295D01*
X89252486Y-75797100D01*
X89252493Y-75797098D01*
X89410200Y-75751280D01*
X89410201Y-75751280D01*
X89551552Y-75667685D01*
X89667683Y-75551554D01*
X89669544Y-75548408D01*
X89671381Y-75546787D01*
X89671501Y-75546634D01*
X89671530Y-75546656D01*
X89715438Y-75507943D01*
X89763067Y-75501639D01*
X89763169Y-75500241D01*
X89766738Y-75500499D01*
X89766740Y-75500500D01*
X89766742Y-75500500D01*
X90133257Y-75500500D01*
X90133260Y-75500500D01*
X90201393Y-75490573D01*
X90306483Y-75439198D01*
X90389198Y-75356483D01*
X90440573Y-75251393D01*
X90450500Y-75183260D01*
X90450500Y-74091740D01*
X90440573Y-74023607D01*
X90389198Y-73918517D01*
X90306483Y-73835802D01*
X90306481Y-73835801D01*
X90201395Y-73784427D01*
X90174139Y-73780456D01*
X90133260Y-73774500D01*
X90133257Y-73774500D01*
X90111190Y-73774500D01*
X90052999Y-73755593D01*
X90041187Y-73745504D01*
X89689954Y-73394272D01*
X89662176Y-73339755D01*
X89671747Y-73279323D01*
X89715012Y-73236058D01*
X89763158Y-73226326D01*
X89763158Y-73225500D01*
X90133257Y-73225500D01*
X90133260Y-73225500D01*
X90201393Y-73215573D01*
X90306483Y-73164198D01*
X90389198Y-73081483D01*
X90440573Y-72976393D01*
X90450500Y-72908260D01*
X90450500Y-71816740D01*
X90440573Y-71748607D01*
X90389198Y-71643517D01*
X90306483Y-71560802D01*
X90306481Y-71560801D01*
X90201395Y-71509427D01*
X90174139Y-71505456D01*
X90133260Y-71499500D01*
X89766740Y-71499500D01*
X89732673Y-71504463D01*
X89698604Y-71509427D01*
X89593518Y-71560801D01*
X89510801Y-71643518D01*
X89459427Y-71748604D01*
X89454463Y-71782673D01*
X89449500Y-71816740D01*
X89449500Y-72908260D01*
X89456118Y-72953682D01*
X89459427Y-72976395D01*
X89478360Y-73015123D01*
X89486931Y-73075706D01*
X89458255Y-73129755D01*
X89403286Y-73156627D01*
X89363797Y-73154230D01*
X89356795Y-73152354D01*
X89346144Y-73149500D01*
X88653856Y-73149500D01*
X88653853Y-73149500D01*
X88636201Y-73154230D01*
X88575099Y-73151027D01*
X88527550Y-73112520D01*
X88511716Y-73053419D01*
X88521640Y-73015122D01*
X88530743Y-72996501D01*
X88540573Y-72976393D01*
X88550500Y-72908260D01*
X88550500Y-71816740D01*
X88540573Y-71748607D01*
X88489198Y-71643517D01*
X88406483Y-71560802D01*
X88406481Y-71560801D01*
X88301395Y-71509427D01*
X88274139Y-71505456D01*
X88233260Y-71499500D01*
X87866740Y-71499500D01*
X87832673Y-71504463D01*
X87798604Y-71509427D01*
X87693518Y-71560801D01*
X87610801Y-71643518D01*
X87559427Y-71748604D01*
X87549500Y-71816743D01*
X87549500Y-71975500D01*
X87530593Y-72033691D01*
X87481093Y-72069655D01*
X87450500Y-72074500D01*
X86909735Y-72074500D01*
X86851544Y-72055593D01*
X86815580Y-72006093D01*
X86811954Y-71990987D01*
X86809719Y-71976874D01*
X86809716Y-71976869D01*
X86809716Y-71976867D01*
X86748529Y-71856782D01*
X86748528Y-71856780D01*
X86653220Y-71761472D01*
X86653217Y-71761470D01*
X86533132Y-71700283D01*
X86533127Y-71700281D01*
X86533126Y-71700281D01*
X86499913Y-71695020D01*
X86433490Y-71684500D01*
X86433488Y-71684500D01*
X85985835Y-71684500D01*
X85927644Y-71665593D01*
X85915832Y-71655504D01*
X85499862Y-71239535D01*
X85499857Y-71239531D01*
X85425642Y-71196683D01*
X85425644Y-71196683D01*
X85393521Y-71188076D01*
X85342853Y-71174500D01*
X84142853Y-71174500D01*
X84057147Y-71174500D01*
X84006478Y-71188076D01*
X83974356Y-71196683D01*
X83900142Y-71239531D01*
X83900137Y-71239535D01*
X83520003Y-71619669D01*
X83465487Y-71647446D01*
X83405055Y-71637875D01*
X83379996Y-71619669D01*
X71954496Y-60194169D01*
X71926719Y-60139652D01*
X71925500Y-60124165D01*
X71925500Y-59716510D01*
X71918378Y-59671544D01*
X71909719Y-59616874D01*
X71909716Y-59616869D01*
X71909716Y-59616867D01*
X71848529Y-59496782D01*
X71848528Y-59496780D01*
X71753220Y-59401472D01*
X71753217Y-59401470D01*
X71633132Y-59340283D01*
X71633127Y-59340281D01*
X71633126Y-59340281D01*
X71599913Y-59335020D01*
X71533490Y-59324500D01*
X71533488Y-59324500D01*
X71125835Y-59324500D01*
X71067644Y-59305593D01*
X71055831Y-59295504D01*
X69077870Y-57317543D01*
X69076933Y-57315705D01*
X69075136Y-57314697D01*
X69063131Y-57288615D01*
X69050093Y-57263026D01*
X69050415Y-57260989D01*
X69049553Y-57259116D01*
X69055172Y-57230956D01*
X69059664Y-57202594D01*
X69061526Y-57199114D01*
X69062939Y-57196593D01*
X69062942Y-57196591D01*
X69082603Y-57161531D01*
X69083161Y-57160548D01*
X69103318Y-57125638D01*
X69103318Y-57125636D01*
X69103400Y-57125495D01*
X69103843Y-57124388D01*
X69104310Y-57123241D01*
X69104817Y-57122014D01*
X69104860Y-57121843D01*
X69104864Y-57121837D01*
X69114926Y-57082314D01*
X69125500Y-57042853D01*
X69125500Y-57040784D01*
X69126010Y-57038781D01*
X69125508Y-56998649D01*
X69125500Y-56997411D01*
X69125500Y-56957151D01*
X69125500Y-56957147D01*
X69125498Y-56957143D01*
X69125164Y-56954598D01*
X69125164Y-56954597D01*
X69124987Y-56953259D01*
X69124938Y-56953084D01*
X69124938Y-56953082D01*
X69114054Y-56914405D01*
X69113763Y-56913348D01*
X69103318Y-56874362D01*
X69103316Y-56874358D01*
X69102327Y-56871967D01*
X69101820Y-56870744D01*
X69094842Y-56859000D01*
X69081147Y-56835950D01*
X69080649Y-56835098D01*
X69060465Y-56800138D01*
X69060458Y-56800131D01*
X69058861Y-56798048D01*
X69058860Y-56798047D01*
X69058074Y-56797023D01*
X69050517Y-56789653D01*
X69029231Y-56768892D01*
X69028351Y-56768024D01*
X69020326Y-56759999D01*
X68999862Y-56739535D01*
X68999859Y-56739533D01*
X68997784Y-56737941D01*
X68997780Y-56737938D01*
X68996745Y-56737144D01*
X68961566Y-56717415D01*
X68960493Y-56716805D01*
X68925636Y-56696681D01*
X68923114Y-56695637D01*
X68923112Y-56695636D01*
X68923103Y-56695632D01*
X68922004Y-56695176D01*
X68882865Y-56685212D01*
X68882865Y-56685213D01*
X68882248Y-56685056D01*
X68842853Y-56674500D01*
X68840785Y-56674500D01*
X68838782Y-56673990D01*
X68838781Y-56673990D01*
X68799240Y-56674484D01*
X68798620Y-56674492D01*
X68797383Y-56674500D01*
X68748932Y-56674500D01*
X68748916Y-56674499D01*
X68742853Y-56674499D01*
X68657147Y-56674499D01*
X68657146Y-56674499D01*
X68650719Y-56675345D01*
X68650639Y-56674741D01*
X68637853Y-56676500D01*
X68504885Y-56678163D01*
X68500939Y-56676935D01*
X68496932Y-56677943D01*
X68481210Y-56670796D01*
X68446462Y-56659985D01*
X68440158Y-56655132D01*
X68436765Y-56652296D01*
X68380404Y-56595935D01*
X68355360Y-56584256D01*
X68345435Y-56575961D01*
X68335713Y-56560470D01*
X68322337Y-56547997D01*
X68319847Y-56535188D01*
X68312911Y-56524136D01*
X68314151Y-56505887D01*
X68310662Y-56487936D01*
X68316175Y-56476110D01*
X68317061Y-56463091D01*
X68328790Y-56449057D01*
X68336519Y-56432483D01*
X68352115Y-56421151D01*
X68356300Y-56416145D01*
X68360438Y-56415104D01*
X68367084Y-56410275D01*
X68380404Y-56404065D01*
X68464065Y-56320404D01*
X68464065Y-56320402D01*
X68464972Y-56319496D01*
X68519489Y-56291719D01*
X68534976Y-56290500D01*
X69038243Y-56290500D01*
X69038245Y-56290500D01*
X69112129Y-56270703D01*
X69112131Y-56270701D01*
X69112133Y-56270701D01*
X69178366Y-56232461D01*
X69178366Y-56232460D01*
X69178371Y-56232458D01*
X69232458Y-56178371D01*
X69249118Y-56149515D01*
X69270701Y-56112133D01*
X69270701Y-56112131D01*
X69270703Y-56112129D01*
X69290500Y-56038245D01*
X69290500Y-55961755D01*
X69290500Y-55951755D01*
X69270703Y-55877871D01*
X69270701Y-55877868D01*
X69270701Y-55877866D01*
X69232461Y-55811633D01*
X69232459Y-55811631D01*
X69232458Y-55811629D01*
X69178371Y-55757542D01*
X69178368Y-55757540D01*
X69178366Y-55757538D01*
X69112132Y-55719298D01*
X69112134Y-55719298D01*
X69083465Y-55711616D01*
X69038245Y-55699500D01*
X69038243Y-55699500D01*
X68543542Y-55699500D01*
X68485351Y-55680593D01*
X68470465Y-55665444D01*
X68470189Y-55665721D01*
X68464065Y-55659597D01*
X68464065Y-55659596D01*
X68380404Y-55575935D01*
X68380402Y-55575934D01*
X68380401Y-55575933D01*
X68273175Y-55525932D01*
X68235041Y-55520912D01*
X68224316Y-55519500D01*
X67789500Y-55519500D01*
X67731309Y-55500593D01*
X67695345Y-55451093D01*
X67690500Y-55420500D01*
X67690500Y-52019102D01*
X67693007Y-52000122D01*
X67690500Y-51981017D01*
X67690500Y-51961755D01*
X67687230Y-51949553D01*
X67684700Y-51936816D01*
X67683674Y-51929000D01*
X67683055Y-51924282D01*
X67675688Y-51906477D01*
X67670703Y-51887871D01*
X67661130Y-51871291D01*
X67657605Y-51862770D01*
X67653813Y-51853603D01*
X67650212Y-51848907D01*
X67646024Y-51843444D01*
X67638856Y-51832711D01*
X67636820Y-51829186D01*
X67632458Y-51821629D01*
X67632455Y-51821626D01*
X67632453Y-51821623D01*
X67623519Y-51812689D01*
X67614958Y-51802923D01*
X66565494Y-50434056D01*
X66545094Y-50376371D01*
X66561745Y-50318821D01*
X66588867Y-50278231D01*
X66600500Y-50219748D01*
X66600500Y-49699500D01*
X66619407Y-49641309D01*
X66668907Y-49605345D01*
X66699500Y-49600500D01*
X67219747Y-49600500D01*
X67219748Y-49600500D01*
X67222754Y-49599901D01*
X67242069Y-49598000D01*
X68133139Y-49598000D01*
X68141077Y-49598000D01*
X68141260Y-49598060D01*
X68191612Y-49598005D01*
X68191632Y-49598011D01*
X68201233Y-49598474D01*
X68314110Y-49609511D01*
X68333212Y-49613305D01*
X68424791Y-49641091D01*
X68437041Y-49644808D01*
X68455036Y-49652271D01*
X68554996Y-49705805D01*
X68563363Y-49710831D01*
X93007512Y-66089429D01*
X93007523Y-66089443D01*
X93053315Y-66120120D01*
X93053831Y-66120465D01*
X93083506Y-66140348D01*
X93096343Y-66148950D01*
X93096978Y-66149317D01*
X93136212Y-66175552D01*
X93136216Y-66175555D01*
X93194158Y-66203004D01*
X93316470Y-66260947D01*
X93507335Y-66318857D01*
X93507338Y-66318857D01*
X93507340Y-66318858D01*
X93535135Y-66322966D01*
X93704647Y-66348023D01*
X93804376Y-66348000D01*
X96968571Y-66348000D01*
X97026762Y-66366907D01*
X97062726Y-66416407D01*
X97062726Y-66416408D01*
X97102103Y-66537602D01*
X97102104Y-66537605D01*
X97102105Y-66537606D01*
X97202185Y-66734022D01*
X97331758Y-66912365D01*
X97487635Y-67068242D01*
X97665978Y-67197815D01*
X97862394Y-67297895D01*
X98072049Y-67366015D01*
X98159140Y-67379809D01*
X98289775Y-67400500D01*
X98289778Y-67400500D01*
X98510225Y-67400500D01*
X98619086Y-67383257D01*
X98727951Y-67366015D01*
X98937606Y-67297895D01*
X99134022Y-67197815D01*
X99312365Y-67068242D01*
X99468242Y-66912365D01*
X99597815Y-66734022D01*
X99697895Y-66537606D01*
X99766015Y-66327951D01*
X99794366Y-66148950D01*
X99800500Y-66110225D01*
X99800500Y-65889774D01*
X99766015Y-65672051D01*
X99766015Y-65672049D01*
X99697895Y-65462394D01*
X99597815Y-65265978D01*
X99468242Y-65087635D01*
X99312365Y-64931758D01*
X99134022Y-64802185D01*
X99134021Y-64802184D01*
X99134019Y-64802183D01*
X99044825Y-64756736D01*
X98937606Y-64702105D01*
X98937602Y-64702104D01*
X98937599Y-64702102D01*
X98727948Y-64633984D01*
X98510225Y-64599500D01*
X98510222Y-64599500D01*
X98289778Y-64599500D01*
X98289775Y-64599500D01*
X98072051Y-64633984D01*
X97862400Y-64702102D01*
X97665980Y-64802183D01*
X97576806Y-64866971D01*
X97487635Y-64931758D01*
X97331758Y-65087635D01*
X97266971Y-65176806D01*
X97202183Y-65265980D01*
X97102103Y-65462397D01*
X97062726Y-65583592D01*
X97026762Y-65633092D01*
X96968572Y-65652000D01*
X93866852Y-65652000D01*
X93858921Y-65651999D01*
X93858742Y-65651941D01*
X93809155Y-65651994D01*
X93808389Y-65651994D01*
X93808369Y-65651987D01*
X93798764Y-65651524D01*
X93685896Y-65640487D01*
X93666788Y-65636693D01*
X93562957Y-65605190D01*
X93544960Y-65597726D01*
X93444996Y-65544188D01*
X93436629Y-65539161D01*
X74509420Y-52857144D01*
X68992488Y-49160570D01*
X68992479Y-49160558D01*
X68951064Y-49132814D01*
X68946688Y-49129882D01*
X68903628Y-49101030D01*
X68902975Y-49100652D01*
X68863785Y-49074446D01*
X68683533Y-48989053D01*
X68683528Y-48989051D01*
X68655288Y-48980483D01*
X68492665Y-48931142D01*
X68492661Y-48931141D01*
X68492660Y-48931141D01*
X68295345Y-48901975D01*
X68195622Y-48902000D01*
X67242069Y-48902000D01*
X67236454Y-48900175D01*
X67222754Y-48900098D01*
X67219748Y-48899500D01*
X66580252Y-48899500D01*
X66580251Y-48899500D01*
X66580241Y-48899501D01*
X66521772Y-48911132D01*
X66521766Y-48911134D01*
X66455451Y-48955445D01*
X66455445Y-48955451D01*
X66411134Y-49021766D01*
X66411132Y-49021772D01*
X66399501Y-49080241D01*
X66399500Y-49080253D01*
X66399500Y-49300500D01*
X66380593Y-49358691D01*
X66331093Y-49394655D01*
X66300500Y-49399500D01*
X66080248Y-49399500D01*
X66019314Y-49411621D01*
X65980686Y-49411621D01*
X65919751Y-49399500D01*
X65919748Y-49399500D01*
X65580252Y-49399500D01*
X65580248Y-49399500D01*
X65519314Y-49411621D01*
X65480686Y-49411621D01*
X65419751Y-49399500D01*
X65419748Y-49399500D01*
X65080252Y-49399500D01*
X65080248Y-49399500D01*
X65019314Y-49411621D01*
X64980686Y-49411621D01*
X64919751Y-49399500D01*
X64919748Y-49399500D01*
X64580252Y-49399500D01*
X64580248Y-49399500D01*
X64519314Y-49411621D01*
X64480686Y-49411621D01*
X64419751Y-49399500D01*
X64419748Y-49399500D01*
X64080252Y-49399500D01*
X64080251Y-49399500D01*
X64080241Y-49399501D01*
X64021772Y-49411132D01*
X64021766Y-49411134D01*
X63955451Y-49455445D01*
X63955445Y-49455451D01*
X63911134Y-49521766D01*
X63911132Y-49521772D01*
X63899501Y-49580241D01*
X63899500Y-49580251D01*
X63899500Y-49580252D01*
X63899500Y-50219748D01*
X63911133Y-50278231D01*
X63911133Y-50278232D01*
X63911134Y-50278233D01*
X63914866Y-50287243D01*
X63912367Y-50288277D01*
X63924500Y-50328268D01*
X63924500Y-50615259D01*
X63905593Y-50673450D01*
X63882290Y-50696351D01*
X63881689Y-50696771D01*
X63796774Y-50781686D01*
X63746029Y-50890510D01*
X63746028Y-50890511D01*
X63739500Y-50940100D01*
X63739500Y-51059165D01*
X63737032Y-51066760D01*
X63738282Y-51074649D01*
X63727757Y-51095306D01*
X63720593Y-51117356D01*
X63710506Y-51129166D01*
X63694172Y-51145501D01*
X63639656Y-51173281D01*
X63624166Y-51174500D01*
X63057147Y-51174500D01*
X63015754Y-51185591D01*
X62974360Y-51196682D01*
X62966710Y-51201100D01*
X62966709Y-51201099D01*
X62900140Y-51239533D01*
X58539531Y-55600142D01*
X58496682Y-55674360D01*
X58496681Y-55674360D01*
X58496682Y-55674361D01*
X58474500Y-55757147D01*
X58474500Y-56324165D01*
X58455593Y-56382356D01*
X58445504Y-56394169D01*
X57639531Y-57200142D01*
X57596683Y-57274358D01*
X57596682Y-57274360D01*
X57596682Y-57274361D01*
X57596682Y-57274362D01*
X57574500Y-57357147D01*
X57574500Y-60157147D01*
X57574500Y-60242853D01*
X57580691Y-60265957D01*
X57596683Y-60325643D01*
X57639531Y-60399857D01*
X57639532Y-60399858D01*
X57639533Y-60399859D01*
X57639535Y-60399862D01*
X58213309Y-60973636D01*
X58778089Y-61538416D01*
X58805866Y-61592933D01*
X58796295Y-61653365D01*
X58753030Y-61696630D01*
X58741735Y-61700966D01*
X58741755Y-61701015D01*
X58735759Y-61703498D01*
X58638739Y-61759513D01*
X58559513Y-61838739D01*
X58503498Y-61935758D01*
X58474500Y-62043983D01*
X58474500Y-62073663D01*
X58455593Y-62131854D01*
X58445504Y-62143667D01*
X54708667Y-65880504D01*
X54654150Y-65908281D01*
X54638663Y-65909500D01*
X52661755Y-65909500D01*
X52616534Y-65921616D01*
X52587866Y-65929298D01*
X52544765Y-65954182D01*
X52544766Y-65954183D01*
X52521631Y-65967540D01*
X47521559Y-70967610D01*
X47467042Y-70995387D01*
X47425933Y-70993233D01*
X47379127Y-70980692D01*
X47356018Y-70974500D01*
X47243982Y-70974500D01*
X47196081Y-70987335D01*
X47135758Y-71003498D01*
X47038739Y-71059513D01*
X46959513Y-71138739D01*
X46903498Y-71235758D01*
X46903497Y-71235763D01*
X46874500Y-71343982D01*
X46874500Y-71456018D01*
X46899649Y-71549879D01*
X46896447Y-71610978D01*
X46857942Y-71658528D01*
X46804023Y-71674500D01*
X41242853Y-71674500D01*
X41157147Y-71674500D01*
X41084136Y-71694062D01*
X41074357Y-71696683D01*
X41037250Y-71718108D01*
X41013721Y-71731692D01*
X41000137Y-71739535D01*
X40939534Y-71800137D01*
X40939535Y-71800138D01*
X40439531Y-72300142D01*
X40396682Y-72374360D01*
X40396681Y-72374360D01*
X40396682Y-72374361D01*
X40388924Y-72403316D01*
X40374500Y-72457147D01*
X20300500Y-72457147D01*
X20300500Y-65889774D01*
X30199500Y-65889774D01*
X30199500Y-66110225D01*
X30233984Y-66327948D01*
X30302102Y-66537599D01*
X30302104Y-66537602D01*
X30302105Y-66537606D01*
X30402185Y-66734022D01*
X30531758Y-66912365D01*
X30687635Y-67068242D01*
X30865978Y-67197815D01*
X31062394Y-67297895D01*
X31272049Y-67366015D01*
X31359140Y-67379809D01*
X31489775Y-67400500D01*
X31489778Y-67400500D01*
X31710225Y-67400500D01*
X31819086Y-67383257D01*
X31927951Y-67366015D01*
X32137606Y-67297895D01*
X32334022Y-67197815D01*
X32512365Y-67068242D01*
X32668242Y-66912365D01*
X32797815Y-66734022D01*
X32897895Y-66537606D01*
X32937274Y-66416407D01*
X32973238Y-66366908D01*
X33031428Y-66348000D01*
X36195624Y-66348000D01*
X36295351Y-66348023D01*
X36295351Y-66348022D01*
X36295353Y-66348023D01*
X36438062Y-66326928D01*
X36492659Y-66318858D01*
X36492659Y-66318857D01*
X36492665Y-66318857D01*
X36683530Y-66260947D01*
X36863783Y-66175555D01*
X36908492Y-66145658D01*
X36908650Y-66145605D01*
X36946685Y-66120120D01*
X36992477Y-66089443D01*
X36992479Y-66089440D01*
X36999389Y-66084811D01*
X36999431Y-66084777D01*
X61436652Y-49710820D01*
X61444976Y-49705819D01*
X61544970Y-49652267D01*
X61562955Y-49644808D01*
X61666789Y-49613304D01*
X61685887Y-49609512D01*
X61798767Y-49598474D01*
X61808495Y-49598005D01*
X61858740Y-49598060D01*
X61858742Y-49598059D01*
X61866007Y-49598067D01*
X61866869Y-49598000D01*
X62757931Y-49598000D01*
X62777245Y-49599901D01*
X62780252Y-49600500D01*
X62780253Y-49600500D01*
X63419747Y-49600500D01*
X63419748Y-49600500D01*
X63478231Y-49588867D01*
X63544552Y-49544552D01*
X63588867Y-49478231D01*
X63600500Y-49419748D01*
X63600500Y-49080252D01*
X63588867Y-49021769D01*
X63544552Y-48955448D01*
X63544548Y-48955445D01*
X63478233Y-48911134D01*
X63478231Y-48911133D01*
X63478228Y-48911132D01*
X63478227Y-48911132D01*
X63419758Y-48899501D01*
X63419748Y-48899500D01*
X62780252Y-48899500D01*
X62780251Y-48899500D01*
X62777246Y-48900098D01*
X62775853Y-48899933D01*
X62775408Y-48899977D01*
X62775398Y-48899879D01*
X62770114Y-48899253D01*
X62757931Y-48902000D01*
X61804378Y-48902000D01*
X61704650Y-48901975D01*
X61507339Y-48931141D01*
X61507336Y-48931141D01*
X61507335Y-48931142D01*
X61440144Y-48951528D01*
X61316471Y-48989051D01*
X61316466Y-48989053D01*
X61136216Y-49074445D01*
X61136214Y-49074446D01*
X61096900Y-49100732D01*
X61096901Y-49100733D01*
X61091504Y-49104341D01*
X61091351Y-49104395D01*
X61053344Y-49129860D01*
X61053313Y-49129882D01*
X61053001Y-49130090D01*
X61052204Y-49130624D01*
X61001826Y-49164373D01*
X61001770Y-49164416D01*
X36563363Y-65539165D01*
X36554996Y-65544192D01*
X36455039Y-65597726D01*
X36437042Y-65605190D01*
X36333211Y-65636693D01*
X36314103Y-65640487D01*
X36201235Y-65651524D01*
X36191496Y-65651994D01*
X36133986Y-65651933D01*
X36133138Y-65652000D01*
X33031429Y-65652000D01*
X32973238Y-65633093D01*
X32937274Y-65583593D01*
X32937274Y-65583592D01*
X32897896Y-65462397D01*
X32897895Y-65462396D01*
X32897895Y-65462394D01*
X32797815Y-65265978D01*
X32668242Y-65087635D01*
X32512365Y-64931758D01*
X32334022Y-64802185D01*
X32334021Y-64802184D01*
X32334019Y-64802183D01*
X32244825Y-64756736D01*
X32137606Y-64702105D01*
X32137602Y-64702104D01*
X32137599Y-64702102D01*
X31927948Y-64633984D01*
X31710225Y-64599500D01*
X31710222Y-64599500D01*
X31489778Y-64599500D01*
X31489775Y-64599500D01*
X31272051Y-64633984D01*
X31062400Y-64702102D01*
X30865980Y-64802183D01*
X30776806Y-64866971D01*
X30687635Y-64931758D01*
X30531758Y-65087635D01*
X30466971Y-65176806D01*
X30402183Y-65265980D01*
X30302102Y-65462400D01*
X30233984Y-65672051D01*
X30199500Y-65889774D01*
X20300500Y-65889774D01*
X20300500Y-47889774D01*
X30199500Y-47889774D01*
X30199500Y-48110225D01*
X30233984Y-48327948D01*
X30302102Y-48537599D01*
X30302104Y-48537602D01*
X30302105Y-48537606D01*
X30356736Y-48644825D01*
X30402182Y-48734018D01*
X30402185Y-48734022D01*
X30531758Y-48912365D01*
X30687635Y-49068242D01*
X30865978Y-49197815D01*
X31062394Y-49297895D01*
X31272049Y-49366015D01*
X31359140Y-49379809D01*
X31489775Y-49400500D01*
X31489778Y-49400500D01*
X31710225Y-49400500D01*
X31819086Y-49383257D01*
X31927951Y-49366015D01*
X32137606Y-49297895D01*
X32334022Y-49197815D01*
X32512365Y-49068242D01*
X32668242Y-48912365D01*
X32797815Y-48734022D01*
X32867696Y-48596875D01*
X32897892Y-48537613D01*
X32897896Y-48537604D01*
X32933587Y-48427753D01*
X32969550Y-48378252D01*
X33027740Y-48359344D01*
X33028377Y-48359346D01*
X62744587Y-48595189D01*
X62761564Y-48596930D01*
X62761999Y-48596874D01*
X62762226Y-48596998D01*
X62763099Y-48597087D01*
X62780252Y-48600500D01*
X62780255Y-48600500D01*
X63419747Y-48600500D01*
X63419748Y-48600500D01*
X63478231Y-48588867D01*
X63544552Y-48544552D01*
X63588867Y-48478231D01*
X63600500Y-48419748D01*
X63600500Y-48080253D01*
X66399500Y-48080253D01*
X66399500Y-48419746D01*
X66399501Y-48419758D01*
X66411132Y-48478227D01*
X66411134Y-48478233D01*
X66450811Y-48537613D01*
X66455448Y-48544552D01*
X66521769Y-48588867D01*
X66563104Y-48597089D01*
X66580241Y-48600498D01*
X66580246Y-48600498D01*
X66580252Y-48600500D01*
X66580253Y-48600500D01*
X67219743Y-48600500D01*
X67219748Y-48600500D01*
X67236901Y-48597087D01*
X67237773Y-48596998D01*
X67237999Y-48596875D01*
X67238428Y-48596930D01*
X67255411Y-48595189D01*
X96971471Y-48359347D01*
X97029809Y-48377792D01*
X97066165Y-48427005D01*
X97066411Y-48427751D01*
X97102105Y-48537606D01*
X97155004Y-48641427D01*
X97202182Y-48734018D01*
X97202185Y-48734022D01*
X97331758Y-48912365D01*
X97487635Y-49068242D01*
X97665978Y-49197815D01*
X97862394Y-49297895D01*
X98072049Y-49366015D01*
X98159140Y-49379809D01*
X98289775Y-49400500D01*
X98289778Y-49400500D01*
X98510225Y-49400500D01*
X98619086Y-49383257D01*
X98727951Y-49366015D01*
X98937606Y-49297895D01*
X99134022Y-49197815D01*
X99312365Y-49068242D01*
X99468242Y-48912365D01*
X99597815Y-48734022D01*
X99697895Y-48537606D01*
X99766015Y-48327951D01*
X99800500Y-48110222D01*
X99800500Y-47889778D01*
X99800500Y-47889774D01*
X99766015Y-47672051D01*
X99766015Y-47672049D01*
X99697895Y-47462394D01*
X99597815Y-47265978D01*
X99468242Y-47087635D01*
X99312365Y-46931758D01*
X99134022Y-46802185D01*
X99134021Y-46802184D01*
X99134019Y-46802183D01*
X99044825Y-46756736D01*
X98937606Y-46702105D01*
X98937602Y-46702104D01*
X98937599Y-46702102D01*
X98727948Y-46633984D01*
X98510225Y-46599500D01*
X98510222Y-46599500D01*
X98289778Y-46599500D01*
X98289775Y-46599500D01*
X98072051Y-46633984D01*
X97862400Y-46702102D01*
X97665980Y-46802183D01*
X97576806Y-46866971D01*
X97487635Y-46931758D01*
X97331758Y-47087635D01*
X97266971Y-47176806D01*
X97202183Y-47265980D01*
X97102104Y-47462396D01*
X97059029Y-47594968D01*
X97023065Y-47644468D01*
X96965660Y-47663372D01*
X67214052Y-47899497D01*
X67214011Y-47899484D01*
X67213266Y-47899500D01*
X66580252Y-47899500D01*
X66580251Y-47899500D01*
X66580241Y-47899501D01*
X66521772Y-47911132D01*
X66521766Y-47911134D01*
X66455451Y-47955445D01*
X66455445Y-47955451D01*
X66411134Y-48021766D01*
X66411132Y-48021772D01*
X66399501Y-48080241D01*
X66399500Y-48080253D01*
X63600500Y-48080253D01*
X63600500Y-48080252D01*
X63588867Y-48021769D01*
X63544552Y-47955448D01*
X63544548Y-47955445D01*
X63478233Y-47911134D01*
X63478231Y-47911133D01*
X63478228Y-47911132D01*
X63478227Y-47911132D01*
X63419758Y-47899501D01*
X63419748Y-47899500D01*
X63419747Y-47899500D01*
X62786734Y-47899500D01*
X62786353Y-47899376D01*
X62785948Y-47899497D01*
X33034338Y-47663372D01*
X32976299Y-47644003D01*
X32940969Y-47594967D01*
X32938986Y-47588865D01*
X32897895Y-47462394D01*
X32897894Y-47462392D01*
X32897892Y-47462386D01*
X32797821Y-47265988D01*
X32797817Y-47265981D01*
X32797815Y-47265978D01*
X32668242Y-47087635D01*
X32512365Y-46931758D01*
X32334022Y-46802185D01*
X32334021Y-46802184D01*
X32334019Y-46802183D01*
X32244825Y-46756736D01*
X32137606Y-46702105D01*
X32137602Y-46702104D01*
X32137599Y-46702102D01*
X31927948Y-46633984D01*
X31710225Y-46599500D01*
X31710222Y-46599500D01*
X31489778Y-46599500D01*
X31489775Y-46599500D01*
X31272051Y-46633984D01*
X31062400Y-46702102D01*
X30865980Y-46802183D01*
X30776806Y-46866971D01*
X30687635Y-46931758D01*
X30531758Y-47087635D01*
X30466971Y-47176806D01*
X30402183Y-47265980D01*
X30302102Y-47462400D01*
X30233984Y-47672051D01*
X30199500Y-47889774D01*
X20300500Y-47889774D01*
X20300500Y-36913385D01*
X25399500Y-36913385D01*
X25399500Y-37086614D01*
X25426597Y-37257702D01*
X25426598Y-37257706D01*
X25480123Y-37422438D01*
X25480125Y-37422441D01*
X25480126Y-37422444D01*
X25480127Y-37422445D01*
X25558768Y-37576788D01*
X25660586Y-37716928D01*
X25783072Y-37839414D01*
X25923212Y-37941232D01*
X26077555Y-38019873D01*
X26077557Y-38019873D01*
X26077558Y-38019874D01*
X26077561Y-38019876D01*
X26242293Y-38073401D01*
X26242297Y-38073402D01*
X26413386Y-38100500D01*
X26413389Y-38100500D01*
X26586614Y-38100500D01*
X26757702Y-38073402D01*
X26757706Y-38073401D01*
X26922438Y-38019876D01*
X26922440Y-38019874D01*
X26922445Y-38019873D01*
X27076788Y-37941232D01*
X27216928Y-37839414D01*
X27339414Y-37716928D01*
X27441232Y-37576788D01*
X27519873Y-37422445D01*
X27519874Y-37422440D01*
X27519876Y-37422438D01*
X27573401Y-37257706D01*
X27573402Y-37257702D01*
X27600500Y-37086614D01*
X27600500Y-36913385D01*
X27573402Y-36742297D01*
X27573401Y-36742293D01*
X27519876Y-36577561D01*
X27519874Y-36577558D01*
X27519873Y-36577557D01*
X27519873Y-36577555D01*
X27441232Y-36423212D01*
X27339414Y-36283072D01*
X27216928Y-36160586D01*
X27076788Y-36058768D01*
X27076787Y-36058767D01*
X27076785Y-36058766D01*
X26922441Y-35980125D01*
X26922438Y-35980123D01*
X26757706Y-35926598D01*
X26757702Y-35926597D01*
X26586614Y-35899500D01*
X26586611Y-35899500D01*
X26413389Y-35899500D01*
X26413386Y-35899500D01*
X26242297Y-35926597D01*
X26242293Y-35926598D01*
X26077561Y-35980123D01*
X26077558Y-35980125D01*
X25923214Y-36058766D01*
X25783073Y-36160585D01*
X25660585Y-36283073D01*
X25558766Y-36423214D01*
X25480125Y-36577558D01*
X25480123Y-36577561D01*
X25426598Y-36742293D01*
X25426597Y-36742297D01*
X25399500Y-36913385D01*
X20300500Y-36913385D01*
X20300500Y-31489774D01*
X33599500Y-31489774D01*
X33599500Y-31710225D01*
X33633984Y-31927948D01*
X33702102Y-32137599D01*
X33702104Y-32137602D01*
X33702105Y-32137606D01*
X33802185Y-32334022D01*
X33931758Y-32512365D01*
X34087635Y-32668242D01*
X34265978Y-32797815D01*
X34265981Y-32797817D01*
X34265988Y-32797821D01*
X34462386Y-32897892D01*
X34462396Y-32897896D01*
X34540892Y-32923399D01*
X34583591Y-32937273D01*
X34633092Y-32973236D01*
X34652000Y-33031427D01*
X34652000Y-35772198D01*
X34651903Y-35772499D01*
X34652000Y-35826972D01*
X34652000Y-35878007D01*
X34652136Y-35880060D01*
X34652254Y-35924885D01*
X34652261Y-35927536D01*
X34682040Y-36125144D01*
X34740595Y-36316212D01*
X34740597Y-36316216D01*
X34740598Y-36316219D01*
X34826646Y-36496571D01*
X34826647Y-36496573D01*
X34826648Y-36496574D01*
X34893357Y-36595568D01*
X34938321Y-36662294D01*
X34938323Y-36662297D01*
X35064600Y-36800380D01*
X35073186Y-36809768D01*
X35228295Y-36935771D01*
X35400268Y-37037559D01*
X35404189Y-37039159D01*
X35444130Y-37055459D01*
X35450433Y-37058031D01*
X35450724Y-37058251D01*
X35492516Y-37075205D01*
X35492780Y-37075313D01*
X35543830Y-37096096D01*
X35543831Y-37096096D01*
X35550483Y-37098804D01*
X35551413Y-37099099D01*
X61187569Y-47499227D01*
X61187712Y-47499347D01*
X61187734Y-47499294D01*
X61268283Y-47532142D01*
X61436558Y-47576325D01*
X61609141Y-47598319D01*
X61609145Y-47598318D01*
X61609146Y-47598319D01*
X61695317Y-47598001D01*
X61695682Y-47598000D01*
X62757931Y-47598000D01*
X62761294Y-47598331D01*
X62762161Y-47598090D01*
X62763350Y-47598533D01*
X62777245Y-47599901D01*
X62780252Y-47600500D01*
X62780253Y-47600500D01*
X63419747Y-47600500D01*
X63419748Y-47600500D01*
X63478231Y-47588867D01*
X63544552Y-47544552D01*
X63588867Y-47478231D01*
X63600500Y-47419748D01*
X63600500Y-47419737D01*
X63600976Y-47414912D01*
X63603388Y-47415149D01*
X63619407Y-47365850D01*
X63640171Y-47344788D01*
X63757184Y-47257192D01*
X63757192Y-47257184D01*
X63843352Y-47142090D01*
X63866416Y-47080253D01*
X66399500Y-47080253D01*
X66399500Y-47419746D01*
X66399501Y-47419758D01*
X66411132Y-47478227D01*
X66411134Y-47478233D01*
X66447157Y-47532144D01*
X66455448Y-47544552D01*
X66521769Y-47588867D01*
X66566231Y-47597711D01*
X66580241Y-47600498D01*
X66580246Y-47600498D01*
X66580252Y-47600500D01*
X66580253Y-47600500D01*
X67219747Y-47600500D01*
X67219748Y-47600500D01*
X67222754Y-47599901D01*
X67236649Y-47598533D01*
X67237839Y-47598090D01*
X67238705Y-47598331D01*
X67242069Y-47598000D01*
X68304318Y-47598000D01*
X68304683Y-47598001D01*
X68390853Y-47598319D01*
X68390853Y-47598318D01*
X68390859Y-47598319D01*
X68563442Y-47576325D01*
X68731717Y-47532142D01*
X68812266Y-47499294D01*
X68812268Y-47499300D01*
X68812409Y-47499235D01*
X94455949Y-37096112D01*
X94456170Y-37096096D01*
X94507220Y-37075313D01*
X94507483Y-37075205D01*
X94549276Y-37058251D01*
X94549277Y-37058249D01*
X94554390Y-37056176D01*
X94555852Y-37055465D01*
X94599732Y-37037559D01*
X94771705Y-36935771D01*
X94799262Y-36913385D01*
X102399500Y-36913385D01*
X102399500Y-37086614D01*
X102426597Y-37257702D01*
X102426598Y-37257706D01*
X102480123Y-37422438D01*
X102480125Y-37422441D01*
X102480126Y-37422444D01*
X102480127Y-37422445D01*
X102558768Y-37576788D01*
X102660586Y-37716928D01*
X102783072Y-37839414D01*
X102923212Y-37941232D01*
X103077555Y-38019873D01*
X103077557Y-38019873D01*
X103077558Y-38019874D01*
X103077561Y-38019876D01*
X103242293Y-38073401D01*
X103242297Y-38073402D01*
X103413386Y-38100500D01*
X103413389Y-38100500D01*
X103586614Y-38100500D01*
X103757702Y-38073402D01*
X103757706Y-38073401D01*
X103922438Y-38019876D01*
X103922440Y-38019874D01*
X103922445Y-38019873D01*
X104076788Y-37941232D01*
X104216928Y-37839414D01*
X104339414Y-37716928D01*
X104441232Y-37576788D01*
X104519873Y-37422445D01*
X104519874Y-37422440D01*
X104519876Y-37422438D01*
X104573401Y-37257706D01*
X104573402Y-37257702D01*
X104600500Y-37086614D01*
X104600500Y-36913385D01*
X104573402Y-36742297D01*
X104573401Y-36742293D01*
X104519876Y-36577561D01*
X104519874Y-36577558D01*
X104519873Y-36577557D01*
X104519873Y-36577555D01*
X104441232Y-36423212D01*
X104339414Y-36283072D01*
X104216928Y-36160586D01*
X104076788Y-36058768D01*
X104076787Y-36058767D01*
X104076785Y-36058766D01*
X103922441Y-35980125D01*
X103922438Y-35980123D01*
X103757706Y-35926598D01*
X103757702Y-35926597D01*
X103586614Y-35899500D01*
X103586611Y-35899500D01*
X103413389Y-35899500D01*
X103413386Y-35899500D01*
X103242297Y-35926597D01*
X103242293Y-35926598D01*
X103077561Y-35980123D01*
X103077558Y-35980125D01*
X102923214Y-36058766D01*
X102783073Y-36160585D01*
X102660585Y-36283073D01*
X102558766Y-36423214D01*
X102480125Y-36577558D01*
X102480123Y-36577561D01*
X102426598Y-36742293D01*
X102426597Y-36742297D01*
X102399500Y-36913385D01*
X94799262Y-36913385D01*
X94926814Y-36809768D01*
X95061677Y-36662297D01*
X95173352Y-36496574D01*
X95259405Y-36316212D01*
X95317960Y-36125144D01*
X95347739Y-35927536D01*
X95347880Y-35873261D01*
X95348000Y-35872815D01*
X95348000Y-35827054D01*
X95348097Y-35772499D01*
X95348096Y-35772498D01*
X95348109Y-35765598D01*
X95348000Y-35764188D01*
X95348000Y-33031428D01*
X95366907Y-32973237D01*
X95416404Y-32937274D01*
X95537606Y-32897895D01*
X95537607Y-32897894D01*
X95537613Y-32897892D01*
X95734011Y-32797821D01*
X95734018Y-32797817D01*
X95734017Y-32797817D01*
X95734022Y-32797815D01*
X95912365Y-32668242D01*
X96068242Y-32512365D01*
X96197815Y-32334022D01*
X96297895Y-32137606D01*
X96366015Y-31927951D01*
X96400500Y-31710222D01*
X96400500Y-31489778D01*
X96400500Y-31489774D01*
X96366015Y-31272051D01*
X96366015Y-31272049D01*
X96297895Y-31062394D01*
X96197815Y-30865978D01*
X96068242Y-30687635D01*
X95912365Y-30531758D01*
X95734022Y-30402185D01*
X95734021Y-30402184D01*
X95734019Y-30402183D01*
X95644825Y-30356736D01*
X95537606Y-30302105D01*
X95537602Y-30302104D01*
X95537599Y-30302102D01*
X95327948Y-30233984D01*
X95110225Y-30199500D01*
X95110222Y-30199500D01*
X94889778Y-30199500D01*
X94889775Y-30199500D01*
X94672051Y-30233984D01*
X94462400Y-30302102D01*
X94265980Y-30402183D01*
X94176806Y-30466971D01*
X94087635Y-30531758D01*
X93931758Y-30687635D01*
X93866971Y-30776806D01*
X93802183Y-30865980D01*
X93702102Y-31062400D01*
X93633984Y-31272051D01*
X93599500Y-31489774D01*
X93599500Y-31710225D01*
X93633984Y-31927948D01*
X93702102Y-32137599D01*
X93702104Y-32137602D01*
X93702105Y-32137606D01*
X93802185Y-32334022D01*
X93931758Y-32512365D01*
X94087635Y-32668242D01*
X94265978Y-32797815D01*
X94265981Y-32797817D01*
X94265988Y-32797821D01*
X94462386Y-32897892D01*
X94462396Y-32897896D01*
X94540892Y-32923399D01*
X94583591Y-32937273D01*
X94633092Y-32973236D01*
X94652000Y-33031427D01*
X94652000Y-35821425D01*
X94651502Y-35831338D01*
X94651502Y-35831339D01*
X94640101Y-35944614D01*
X94636254Y-35963709D01*
X94604302Y-36067967D01*
X94596791Y-36085937D01*
X94545045Y-36181924D01*
X94534160Y-36198076D01*
X94464624Y-36282072D01*
X94450787Y-36295782D01*
X94366151Y-36364536D01*
X94349897Y-36375271D01*
X94249149Y-36428383D01*
X94240198Y-36432545D01*
X68608393Y-46830908D01*
X68607360Y-46831236D01*
X68600780Y-46833916D01*
X68552706Y-46853495D01*
X68546688Y-46855721D01*
X68476927Y-46878977D01*
X68464494Y-46882241D01*
X68397851Y-46895179D01*
X68395482Y-46895640D01*
X68382725Y-46897265D01*
X68309339Y-46901803D01*
X68302907Y-46901991D01*
X68244807Y-46901802D01*
X68242241Y-46902000D01*
X67242069Y-46902000D01*
X67222754Y-46900098D01*
X67222266Y-46900001D01*
X67219748Y-46899500D01*
X66580252Y-46899500D01*
X66580251Y-46899500D01*
X66580241Y-46899501D01*
X66521772Y-46911132D01*
X66521766Y-46911134D01*
X66455451Y-46955445D01*
X66455445Y-46955451D01*
X66411134Y-47021766D01*
X66411132Y-47021772D01*
X66399501Y-47080241D01*
X66399500Y-47080253D01*
X63866416Y-47080253D01*
X63881135Y-47040791D01*
X63881135Y-47040790D01*
X63893596Y-47007381D01*
X63893598Y-47007370D01*
X63900000Y-46947824D01*
X63900000Y-46900001D01*
X63899999Y-46900000D01*
X63429689Y-46900000D01*
X63429650Y-46899987D01*
X63429612Y-46900000D01*
X63419988Y-46899524D01*
X63419751Y-46899500D01*
X63419748Y-46899500D01*
X62780252Y-46899500D01*
X62780248Y-46899500D01*
X62780012Y-46899524D01*
X62770311Y-46900000D01*
X62274013Y-46900000D01*
X62272480Y-46900781D01*
X62256993Y-46902000D01*
X61757746Y-46902000D01*
X61749535Y-46901998D01*
X61748988Y-46901823D01*
X61696941Y-46901992D01*
X61696757Y-46901992D01*
X61696720Y-46901980D01*
X61690660Y-46901803D01*
X61617274Y-46897265D01*
X61604519Y-46895640D01*
X61535501Y-46882240D01*
X61523074Y-46878977D01*
X61453311Y-46855721D01*
X61447424Y-46853548D01*
X61399220Y-46833916D01*
X61398976Y-46833898D01*
X61391602Y-46830907D01*
X61391599Y-46830905D01*
X61391596Y-46830904D01*
X60924124Y-46641259D01*
X60704533Y-46552175D01*
X62300000Y-46552175D01*
X62300000Y-46599999D01*
X62300001Y-46600000D01*
X62949999Y-46600000D01*
X62950000Y-46599999D01*
X62950000Y-46100001D01*
X62949999Y-46100000D01*
X62752176Y-46100000D01*
X62692629Y-46106401D01*
X62692618Y-46106403D01*
X62557911Y-46156646D01*
X62557909Y-46156647D01*
X62442815Y-46242807D01*
X62442807Y-46242815D01*
X62356647Y-46357909D01*
X62356646Y-46357911D01*
X62306403Y-46492618D01*
X62306401Y-46492629D01*
X62300000Y-46552175D01*
X60704533Y-46552175D01*
X35759801Y-36432545D01*
X35750850Y-36428383D01*
X35650102Y-36375271D01*
X35633850Y-36364537D01*
X35549209Y-36295779D01*
X35535375Y-36282072D01*
X35465839Y-36198076D01*
X35454954Y-36181924D01*
X35403208Y-36085937D01*
X35395697Y-36067967D01*
X35392877Y-36058766D01*
X35363743Y-35963699D01*
X35359899Y-35944618D01*
X35348498Y-35831338D01*
X35348000Y-35821425D01*
X35348000Y-33031428D01*
X35366907Y-32973237D01*
X35416404Y-32937274D01*
X35537606Y-32897895D01*
X35537607Y-32897894D01*
X35537613Y-32897892D01*
X35734011Y-32797821D01*
X35734018Y-32797817D01*
X35734017Y-32797817D01*
X35734022Y-32797815D01*
X35912365Y-32668242D01*
X36068242Y-32512365D01*
X36197815Y-32334022D01*
X36297895Y-32137606D01*
X36366015Y-31927951D01*
X36400500Y-31710222D01*
X36400500Y-31489778D01*
X36400500Y-31489774D01*
X48599500Y-31489774D01*
X48599500Y-31710225D01*
X48633984Y-31927948D01*
X48702102Y-32137599D01*
X48702104Y-32137602D01*
X48702105Y-32137606D01*
X48802185Y-32334022D01*
X48931758Y-32512365D01*
X49087635Y-32668242D01*
X49265978Y-32797815D01*
X49265981Y-32797817D01*
X49265988Y-32797821D01*
X49462386Y-32897892D01*
X49462396Y-32897896D01*
X49540892Y-32923399D01*
X49583591Y-32937273D01*
X49633092Y-32973236D01*
X49652000Y-33031427D01*
X49652000Y-35869940D01*
X49651982Y-35869996D01*
X49652000Y-35924885D01*
X49652000Y-35976861D01*
X49652002Y-35976898D01*
X49652004Y-36025766D01*
X49652005Y-36025777D01*
X49681962Y-36224822D01*
X49681967Y-36224843D01*
X49741152Y-36417244D01*
X49741154Y-36417248D01*
X49828262Y-36598740D01*
X49941347Y-36765271D01*
X49941352Y-36765277D01*
X50029376Y-36860605D01*
X50077920Y-36913176D01*
X50234937Y-37039156D01*
X50321944Y-37089765D01*
X50369580Y-37117491D01*
X50369604Y-37117495D01*
X50376846Y-37121709D01*
X52059069Y-38100500D01*
X63073479Y-44509167D01*
X63082120Y-44514819D01*
X63082130Y-44514826D01*
X63179209Y-44585823D01*
X63194495Y-44599663D01*
X63271300Y-44685369D01*
X63283388Y-44702075D01*
X63340775Y-44801837D01*
X63349140Y-44820686D01*
X63384615Y-44930174D01*
X63388893Y-44950346D01*
X63401458Y-45069953D01*
X63402000Y-45080296D01*
X63402000Y-45757931D01*
X63400098Y-45777243D01*
X63399500Y-45780245D01*
X63399500Y-46001000D01*
X63380593Y-46059191D01*
X63331093Y-46095155D01*
X63300500Y-46100000D01*
X63250001Y-46100000D01*
X63250000Y-46100001D01*
X63250000Y-46599999D01*
X63250001Y-46600000D01*
X63570311Y-46600000D01*
X63570377Y-46600003D01*
X63570388Y-46600000D01*
X63570401Y-46600004D01*
X63580012Y-46600476D01*
X63580248Y-46600499D01*
X63580252Y-46600500D01*
X63580256Y-46600500D01*
X63919747Y-46600500D01*
X63919748Y-46600500D01*
X63978231Y-46588867D01*
X64044552Y-46544552D01*
X64088867Y-46478231D01*
X64100500Y-46419748D01*
X64100500Y-45780252D01*
X64099902Y-45777243D01*
X64100066Y-45775852D01*
X64100023Y-45775409D01*
X64100120Y-45775399D01*
X64100396Y-45773064D01*
X64098000Y-45757931D01*
X64098000Y-45137955D01*
X64098020Y-45137692D01*
X64098000Y-45074887D01*
X64098000Y-45074861D01*
X64098000Y-45069953D01*
X64098000Y-45029185D01*
X64097997Y-45029176D01*
X64097995Y-44974231D01*
X64094400Y-44950347D01*
X64068037Y-44775177D01*
X64068036Y-44775176D01*
X64068035Y-44775164D01*
X64011673Y-44591942D01*
X64008847Y-44582755D01*
X64008845Y-44582751D01*
X63923258Y-44404428D01*
X63921740Y-44401265D01*
X63921739Y-44401264D01*
X63921737Y-44401259D01*
X63808652Y-44234728D01*
X63808647Y-44234722D01*
X63672084Y-44086828D01*
X63672082Y-44086827D01*
X63672080Y-44086824D01*
X63515063Y-43960844D01*
X63515060Y-43960842D01*
X63515057Y-43960840D01*
X63428056Y-43910235D01*
X63428044Y-43910228D01*
X63427956Y-43910176D01*
X63380420Y-43882509D01*
X63380396Y-43882503D01*
X63373947Y-43878751D01*
X63373943Y-43878749D01*
X50676525Y-36490835D01*
X50667872Y-36485175D01*
X50570790Y-36414176D01*
X50555504Y-36400336D01*
X50478699Y-36314630D01*
X50466611Y-36297924D01*
X50424560Y-36224822D01*
X50409221Y-36198157D01*
X50400861Y-36179318D01*
X50365382Y-36069818D01*
X50361107Y-36049657D01*
X50348542Y-35930044D01*
X50348000Y-35919702D01*
X50348000Y-33031428D01*
X50366907Y-32973237D01*
X50416404Y-32937274D01*
X50537606Y-32897895D01*
X50537607Y-32897894D01*
X50537613Y-32897892D01*
X50734011Y-32797821D01*
X50734018Y-32797817D01*
X50734017Y-32797817D01*
X50734022Y-32797815D01*
X50912365Y-32668242D01*
X51068242Y-32512365D01*
X51197815Y-32334022D01*
X51297895Y-32137606D01*
X51366015Y-31927951D01*
X51400500Y-31710222D01*
X51400500Y-31489778D01*
X51400500Y-31489774D01*
X63599500Y-31489774D01*
X63599500Y-31710225D01*
X63633984Y-31927948D01*
X63702102Y-32137599D01*
X63702104Y-32137602D01*
X63702105Y-32137606D01*
X63802185Y-32334022D01*
X63931758Y-32512365D01*
X64087635Y-32668242D01*
X64265978Y-32797815D01*
X64265981Y-32797817D01*
X64265988Y-32797821D01*
X64462386Y-32897892D01*
X64462396Y-32897896D01*
X64540892Y-32923399D01*
X64583591Y-32937273D01*
X64633092Y-32973236D01*
X64652000Y-33031427D01*
X64652000Y-36133452D01*
X64651825Y-36133997D01*
X64652000Y-36188491D01*
X64652000Y-36189737D01*
X64651999Y-36190055D01*
X64651351Y-36392041D01*
X64651339Y-36393310D01*
X64648097Y-36595568D01*
X64648069Y-36596836D01*
X64642253Y-36798400D01*
X64642247Y-36798606D01*
X64642195Y-36800287D01*
X64642180Y-36800716D01*
X64640067Y-36860605D01*
X64640212Y-36863825D01*
X64412193Y-44176357D01*
X64412179Y-44176760D01*
X64408471Y-44281887D01*
X64403702Y-44494396D01*
X64401660Y-44706869D01*
X64401999Y-44812173D01*
X64402000Y-44812492D01*
X64402000Y-45757931D01*
X64400098Y-45777243D01*
X64399500Y-45780245D01*
X64399500Y-46419746D01*
X64399501Y-46419758D01*
X64411132Y-46478227D01*
X64411134Y-46478233D01*
X64455445Y-46544548D01*
X64455448Y-46544552D01*
X64521769Y-46588867D01*
X64566231Y-46597711D01*
X64580241Y-46600498D01*
X64580246Y-46600498D01*
X64580252Y-46600500D01*
X64580253Y-46600500D01*
X64919747Y-46600500D01*
X64919748Y-46600500D01*
X64978231Y-46588867D01*
X65044552Y-46544552D01*
X65088867Y-46478231D01*
X65100500Y-46419748D01*
X65100500Y-45780253D01*
X65399500Y-45780253D01*
X65399500Y-46419746D01*
X65399501Y-46419758D01*
X65411132Y-46478227D01*
X65411134Y-46478233D01*
X65455445Y-46544548D01*
X65455448Y-46544552D01*
X65521769Y-46588867D01*
X65566231Y-46597711D01*
X65580241Y-46600498D01*
X65580246Y-46600498D01*
X65580252Y-46600500D01*
X65580253Y-46600500D01*
X65919747Y-46600500D01*
X65919748Y-46600500D01*
X65924775Y-46599500D01*
X65980685Y-46588379D01*
X66019315Y-46588379D01*
X66080241Y-46600498D01*
X66080246Y-46600498D01*
X66080252Y-46600500D01*
X66080253Y-46600500D01*
X66419747Y-46600500D01*
X66419748Y-46600500D01*
X66478231Y-46588867D01*
X66544552Y-46544552D01*
X66588867Y-46478231D01*
X66600500Y-46419748D01*
X66600500Y-45780252D01*
X66599902Y-45777243D01*
X66598000Y-45757931D01*
X66598000Y-45080295D01*
X66598542Y-45069953D01*
X66603664Y-45021190D01*
X66611106Y-44950338D01*
X66615381Y-44930180D01*
X66650861Y-44820679D01*
X66659219Y-44801844D01*
X66716611Y-44702073D01*
X66728695Y-44685372D01*
X66798070Y-44607958D01*
X66805508Y-44599657D01*
X66820789Y-44585823D01*
X66917870Y-44514824D01*
X66926521Y-44509166D01*
X67111970Y-44401264D01*
X79623153Y-37121709D01*
X79623154Y-37121709D01*
X79630395Y-37117495D01*
X79630420Y-37117491D01*
X79678056Y-37089765D01*
X79765063Y-37039156D01*
X79922080Y-36913176D01*
X80058649Y-36765276D01*
X80171740Y-36598735D01*
X80258846Y-36417247D01*
X80318035Y-36224836D01*
X80347995Y-36025769D01*
X80347997Y-35970823D01*
X80348000Y-35970815D01*
X80348000Y-35924886D01*
X80348018Y-35869996D01*
X80348017Y-35869994D01*
X80348020Y-35862443D01*
X80348000Y-35862173D01*
X80348000Y-33031428D01*
X80366907Y-32973237D01*
X80416404Y-32937274D01*
X80537606Y-32897895D01*
X80537607Y-32897894D01*
X80537613Y-32897892D01*
X80734011Y-32797821D01*
X80734018Y-32797817D01*
X80734017Y-32797817D01*
X80734022Y-32797815D01*
X80912365Y-32668242D01*
X81068242Y-32512365D01*
X81197815Y-32334022D01*
X81297895Y-32137606D01*
X81366015Y-31927951D01*
X81400500Y-31710222D01*
X81400500Y-31489778D01*
X81400500Y-31489774D01*
X81366015Y-31272051D01*
X81366015Y-31272049D01*
X81297895Y-31062394D01*
X81197815Y-30865978D01*
X81068242Y-30687635D01*
X80912365Y-30531758D01*
X80734022Y-30402185D01*
X80734021Y-30402184D01*
X80734019Y-30402183D01*
X80644825Y-30356736D01*
X80537606Y-30302105D01*
X80537602Y-30302104D01*
X80537599Y-30302102D01*
X80327948Y-30233984D01*
X80110225Y-30199500D01*
X80110222Y-30199500D01*
X79889778Y-30199500D01*
X79889775Y-30199500D01*
X79672051Y-30233984D01*
X79462400Y-30302102D01*
X79265980Y-30402183D01*
X79176806Y-30466971D01*
X79087635Y-30531758D01*
X78931758Y-30687635D01*
X78866971Y-30776806D01*
X78802183Y-30865980D01*
X78702102Y-31062400D01*
X78633984Y-31272051D01*
X78599500Y-31489774D01*
X78599500Y-31710225D01*
X78633984Y-31927948D01*
X78702102Y-32137599D01*
X78702104Y-32137602D01*
X78702105Y-32137606D01*
X78802185Y-32334022D01*
X78931758Y-32512365D01*
X79087635Y-32668242D01*
X79265978Y-32797815D01*
X79265981Y-32797817D01*
X79265988Y-32797821D01*
X79462386Y-32897892D01*
X79462396Y-32897896D01*
X79540892Y-32923399D01*
X79583591Y-32937273D01*
X79633092Y-32973236D01*
X79652000Y-33031427D01*
X79652000Y-35919702D01*
X79651458Y-35930044D01*
X79651458Y-35930045D01*
X79638893Y-36049653D01*
X79634615Y-36069825D01*
X79599140Y-36179313D01*
X79590775Y-36198162D01*
X79533388Y-36297924D01*
X79521300Y-36314630D01*
X79444496Y-36400335D01*
X79429209Y-36414176D01*
X79332123Y-36485177D01*
X79323471Y-36490836D01*
X66625869Y-43878858D01*
X66619603Y-43882503D01*
X66619581Y-43882509D01*
X66572157Y-43910111D01*
X66571969Y-43910221D01*
X66571945Y-43910235D01*
X66484943Y-43960840D01*
X66484940Y-43960842D01*
X66327918Y-44086824D01*
X66191347Y-44234726D01*
X66191346Y-44234728D01*
X66078261Y-44401258D01*
X65991153Y-44582751D01*
X65991151Y-44582755D01*
X65931966Y-44775157D01*
X65931964Y-44775165D01*
X65902004Y-44974235D01*
X65902002Y-45021185D01*
X65902002Y-45029176D01*
X65902000Y-45029185D01*
X65902000Y-45069953D01*
X65902000Y-45074888D01*
X65901979Y-45137693D01*
X65902000Y-45137956D01*
X65902000Y-45500500D01*
X65883093Y-45558691D01*
X65833593Y-45594655D01*
X65803000Y-45599500D01*
X65580252Y-45599500D01*
X65580251Y-45599500D01*
X65580241Y-45599501D01*
X65521772Y-45611132D01*
X65521766Y-45611134D01*
X65455451Y-45655445D01*
X65455445Y-45655451D01*
X65411134Y-45721766D01*
X65411132Y-45721772D01*
X65399501Y-45780241D01*
X65399500Y-45780253D01*
X65100500Y-45780253D01*
X65100500Y-45780252D01*
X65099380Y-45774625D01*
X65099000Y-45771966D01*
X65099243Y-45770561D01*
X65098000Y-45757931D01*
X65098000Y-44874770D01*
X65098195Y-44872230D01*
X65098001Y-44811825D01*
X65098000Y-44811506D01*
X65098000Y-44810259D01*
X65098001Y-44809942D01*
X65098375Y-44693091D01*
X65098648Y-44607810D01*
X65098657Y-44606830D01*
X65101901Y-44404384D01*
X65101929Y-44403160D01*
X65107744Y-44201624D01*
X65107751Y-44201390D01*
X65107806Y-44199628D01*
X65107820Y-44199225D01*
X65109932Y-44139378D01*
X65109785Y-44136159D01*
X65337807Y-36823580D01*
X65341528Y-36718080D01*
X65346295Y-36505630D01*
X65348339Y-36293137D01*
X65348303Y-36282072D01*
X65348001Y-36187828D01*
X65348000Y-36187509D01*
X65348000Y-33031428D01*
X65366907Y-32973237D01*
X65416404Y-32937274D01*
X65537606Y-32897895D01*
X65537607Y-32897894D01*
X65537613Y-32897892D01*
X65734011Y-32797821D01*
X65734018Y-32797817D01*
X65734017Y-32797817D01*
X65734022Y-32797815D01*
X65912365Y-32668242D01*
X66068242Y-32512365D01*
X66197815Y-32334022D01*
X66297895Y-32137606D01*
X66366015Y-31927951D01*
X66400500Y-31710222D01*
X66400500Y-31489778D01*
X66400500Y-31489774D01*
X66366015Y-31272051D01*
X66366015Y-31272049D01*
X66297895Y-31062394D01*
X66197815Y-30865978D01*
X66068242Y-30687635D01*
X65912365Y-30531758D01*
X65734022Y-30402185D01*
X65734021Y-30402184D01*
X65734019Y-30402183D01*
X65644825Y-30356736D01*
X65537606Y-30302105D01*
X65537602Y-30302104D01*
X65537599Y-30302102D01*
X65327948Y-30233984D01*
X65110225Y-30199500D01*
X65110222Y-30199500D01*
X64889778Y-30199500D01*
X64889775Y-30199500D01*
X64672051Y-30233984D01*
X64462400Y-30302102D01*
X64265980Y-30402183D01*
X64176806Y-30466971D01*
X64087635Y-30531758D01*
X63931758Y-30687635D01*
X63866971Y-30776806D01*
X63802183Y-30865980D01*
X63702102Y-31062400D01*
X63633984Y-31272051D01*
X63599500Y-31489774D01*
X51400500Y-31489774D01*
X51366015Y-31272051D01*
X51366015Y-31272049D01*
X51297895Y-31062394D01*
X51197815Y-30865978D01*
X51068242Y-30687635D01*
X50912365Y-30531758D01*
X50734022Y-30402185D01*
X50734021Y-30402184D01*
X50734019Y-30402183D01*
X50644825Y-30356736D01*
X50537606Y-30302105D01*
X50537602Y-30302104D01*
X50537599Y-30302102D01*
X50327948Y-30233984D01*
X50110225Y-30199500D01*
X50110222Y-30199500D01*
X49889778Y-30199500D01*
X49889775Y-30199500D01*
X49672051Y-30233984D01*
X49462400Y-30302102D01*
X49265980Y-30402183D01*
X49176806Y-30466971D01*
X49087635Y-30531758D01*
X48931758Y-30687635D01*
X48866971Y-30776806D01*
X48802183Y-30865980D01*
X48702102Y-31062400D01*
X48633984Y-31272051D01*
X48599500Y-31489774D01*
X36400500Y-31489774D01*
X36366015Y-31272051D01*
X36366015Y-31272049D01*
X36297895Y-31062394D01*
X36197815Y-30865978D01*
X36068242Y-30687635D01*
X35912365Y-30531758D01*
X35734022Y-30402185D01*
X35734021Y-30402184D01*
X35734019Y-30402183D01*
X35644825Y-30356736D01*
X35537606Y-30302105D01*
X35537602Y-30302104D01*
X35537599Y-30302102D01*
X35327948Y-30233984D01*
X35110225Y-30199500D01*
X35110222Y-30199500D01*
X34889778Y-30199500D01*
X34889775Y-30199500D01*
X34672051Y-30233984D01*
X34462400Y-30302102D01*
X34265980Y-30402183D01*
X34176806Y-30466971D01*
X34087635Y-30531758D01*
X33931758Y-30687635D01*
X33866971Y-30776806D01*
X33802183Y-30865980D01*
X33702102Y-31062400D01*
X33633984Y-31272051D01*
X33599500Y-31489774D01*
X20300500Y-31489774D01*
X20300500Y-24882643D01*
X23209500Y-24882643D01*
X23209500Y-25117356D01*
X23240136Y-25350059D01*
X23300882Y-25576769D01*
X23300885Y-25576776D01*
X23390701Y-25793612D01*
X23508061Y-25996886D01*
X23650936Y-26183085D01*
X23650938Y-26183087D01*
X23650942Y-26183092D01*
X23816908Y-26349058D01*
X23816912Y-26349061D01*
X23816914Y-26349063D01*
X24003113Y-26491938D01*
X24003117Y-26491941D01*
X24206383Y-26609296D01*
X24206384Y-26609296D01*
X24206387Y-26609298D01*
X24264877Y-26633525D01*
X24423228Y-26699117D01*
X24649941Y-26759864D01*
X24882644Y-26790500D01*
X24882645Y-26790500D01*
X25117355Y-26790500D01*
X25117356Y-26790500D01*
X25350059Y-26759864D01*
X25576772Y-26699117D01*
X25793617Y-26609296D01*
X25996883Y-26491941D01*
X26183092Y-26349058D01*
X26349058Y-26183092D01*
X26491941Y-25996883D01*
X26609296Y-25793617D01*
X26699117Y-25576772D01*
X26759864Y-25350059D01*
X26790500Y-25117356D01*
X26790500Y-24882644D01*
X26790500Y-24882643D01*
X103209500Y-24882643D01*
X103209500Y-25117356D01*
X103240136Y-25350059D01*
X103300882Y-25576769D01*
X103300885Y-25576776D01*
X103390701Y-25793612D01*
X103508061Y-25996886D01*
X103650936Y-26183085D01*
X103650938Y-26183087D01*
X103650942Y-26183092D01*
X103816908Y-26349058D01*
X103816912Y-26349061D01*
X103816914Y-26349063D01*
X104003113Y-26491938D01*
X104003117Y-26491941D01*
X104206383Y-26609296D01*
X104206384Y-26609296D01*
X104206387Y-26609298D01*
X104264877Y-26633525D01*
X104423228Y-26699117D01*
X104649941Y-26759864D01*
X104882644Y-26790500D01*
X104882645Y-26790500D01*
X105117355Y-26790500D01*
X105117356Y-26790500D01*
X105350059Y-26759864D01*
X105576772Y-26699117D01*
X105793617Y-26609296D01*
X105996883Y-26491941D01*
X106183092Y-26349058D01*
X106349058Y-26183092D01*
X106491941Y-25996883D01*
X106609296Y-25793617D01*
X106699117Y-25576772D01*
X106759864Y-25350059D01*
X106790500Y-25117356D01*
X106790500Y-24882644D01*
X106759864Y-24649941D01*
X106699117Y-24423228D01*
X106609296Y-24206383D01*
X106491941Y-24003117D01*
X106349058Y-23816908D01*
X106183092Y-23650942D01*
X106183087Y-23650938D01*
X106183085Y-23650936D01*
X105996886Y-23508061D01*
X105793612Y-23390701D01*
X105635266Y-23325112D01*
X105576772Y-23300883D01*
X105576770Y-23300882D01*
X105576769Y-23300882D01*
X105350059Y-23240136D01*
X105117356Y-23209500D01*
X104882644Y-23209500D01*
X104882643Y-23209500D01*
X104649940Y-23240136D01*
X104423230Y-23300882D01*
X104423223Y-23300885D01*
X104206387Y-23390701D01*
X104003113Y-23508061D01*
X103816914Y-23650936D01*
X103650936Y-23816914D01*
X103508061Y-24003113D01*
X103390701Y-24206387D01*
X103300885Y-24423223D01*
X103300882Y-24423230D01*
X103240136Y-24649940D01*
X103209500Y-24882643D01*
X26790500Y-24882643D01*
X26759864Y-24649941D01*
X26699117Y-24423228D01*
X26609296Y-24206383D01*
X26491941Y-24003117D01*
X26349058Y-23816908D01*
X26183092Y-23650942D01*
X26183087Y-23650938D01*
X26183085Y-23650936D01*
X25996886Y-23508061D01*
X25793612Y-23390701D01*
X25635266Y-23325112D01*
X25576772Y-23300883D01*
X25576770Y-23300882D01*
X25576769Y-23300882D01*
X25350059Y-23240136D01*
X25117356Y-23209500D01*
X24882644Y-23209500D01*
X24882643Y-23209500D01*
X24649940Y-23240136D01*
X24423230Y-23300882D01*
X24423223Y-23300885D01*
X24206387Y-23390701D01*
X24003113Y-23508061D01*
X23816914Y-23650936D01*
X23650936Y-23816914D01*
X23508061Y-24003113D01*
X23390701Y-24206387D01*
X23300885Y-24423223D01*
X23300882Y-24423230D01*
X23240136Y-24649940D01*
X23209500Y-24882643D01*
X20300500Y-24882643D01*
X20300500Y-20399500D01*
X20319407Y-20341309D01*
X20368907Y-20305345D01*
X20399500Y-20300500D01*
X109600500Y-20300500D01*
X109658691Y-20319407D01*
G37*
%TD.AperFunction*%
%TD*%
D39*
X87220000Y-62640000D03*
X68420000Y-44050000D03*
X97500000Y-72500000D03*
X77500000Y-22500000D03*
X55400000Y-54180000D03*
X56530000Y-48900000D03*
X47500000Y-32500000D03*
X89840000Y-62710000D03*
X37500000Y-67500000D03*
X51250000Y-56960000D03*
X59470000Y-41200000D03*
X71010000Y-42540000D03*
X97500000Y-27500000D03*
X65610000Y-39520000D03*
X51530000Y-48860000D03*
X42730000Y-80000000D03*
X81450000Y-57080000D03*
X22500000Y-72500000D03*
X38850000Y-63580000D03*
X48530000Y-48830000D03*
X67970000Y-42690000D03*
X92500000Y-52500000D03*
X73890000Y-52020000D03*
X35770000Y-36020000D03*
X74740000Y-48890000D03*
X58610000Y-40700000D03*
X82500000Y-82500000D03*
X79700000Y-55910000D03*
X67500000Y-42500000D03*
X42500000Y-37500000D03*
X57030000Y-44680000D03*
X67500000Y-32500000D03*
X59960000Y-47380000D03*
X79750000Y-57630000D03*
X82500000Y-62500000D03*
X107500000Y-47500000D03*
X83370000Y-41970000D03*
X62330000Y-44490000D03*
X87500000Y-52500000D03*
X80590000Y-43100000D03*
X63300000Y-50810000D03*
X40930000Y-39660000D03*
X65569999Y-40520000D03*
X77440000Y-37180000D03*
X75670000Y-43590000D03*
X77810000Y-44230000D03*
X43780000Y-61960000D03*
X72280000Y-52630000D03*
X76170000Y-39540000D03*
X107500000Y-82500000D03*
X41450000Y-38360000D03*
X42500000Y-67500000D03*
X53740000Y-55290000D03*
X102500000Y-22500000D03*
X40510000Y-62470000D03*
X55530000Y-48890000D03*
X51710000Y-36690000D03*
X73160000Y-46120000D03*
X22500000Y-62500000D03*
X44610000Y-61410000D03*
X32500000Y-42500000D03*
X49800000Y-41750000D03*
X73110000Y-53180000D03*
X56880000Y-39690000D03*
X77500000Y-62500000D03*
X50500000Y-47450000D03*
X76740000Y-48870000D03*
X69790000Y-50960000D03*
X97500000Y-32500000D03*
X71400000Y-50350000D03*
X54570000Y-54730000D03*
X72270000Y-40190000D03*
X64180000Y-40480000D03*
X69690000Y-41690000D03*
X27500000Y-82500000D03*
X78090000Y-56520000D03*
X37500000Y-22500000D03*
X27500000Y-32500000D03*
X90740000Y-48760000D03*
X68960000Y-50400000D03*
X87500000Y-82500000D03*
X92500000Y-47350000D03*
X65480000Y-43520000D03*
X51500000Y-47460000D03*
X77500000Y-27500000D03*
X40550000Y-47370000D03*
X102500000Y-62500000D03*
X57500000Y-37500000D03*
X52500000Y-82500000D03*
X36810000Y-36480000D03*
X72500000Y-47500000D03*
X32500000Y-37500000D03*
X85980000Y-39400000D03*
X79670000Y-43480000D03*
X69280000Y-43550000D03*
X70620000Y-51510000D03*
D40*
X65750000Y-47250000D03*
D39*
X57530000Y-48910000D03*
X79500000Y-47450000D03*
X52610000Y-54360000D03*
X52500000Y-22500000D03*
X32500000Y-52500000D03*
X80740000Y-48840000D03*
X70100000Y-45850000D03*
X55930000Y-52140000D03*
X62500000Y-42500000D03*
X70570000Y-49790000D03*
X38020000Y-64140000D03*
X48500000Y-47430000D03*
X80580000Y-58190000D03*
X67500000Y-37500000D03*
X89010000Y-62150000D03*
X49530000Y-48840000D03*
X79200000Y-36140000D03*
X46270000Y-60300000D03*
X47500000Y-77500000D03*
X54980000Y-45360000D03*
X37190000Y-64690000D03*
X53310000Y-43170000D03*
X52500000Y-77500000D03*
X50530000Y-48850000D03*
X47500000Y-37500000D03*
X56100000Y-44300000D03*
X85050000Y-39780000D03*
X71410000Y-40690000D03*
X102500000Y-57500000D03*
X84860000Y-59370000D03*
X37500000Y-52500000D03*
X36290000Y-37780000D03*
X50420000Y-57510000D03*
X102500000Y-47500000D03*
X74770000Y-54290000D03*
X72500000Y-42500000D03*
X65540000Y-41520000D03*
X77500000Y-47500000D03*
X51010000Y-37900000D03*
X47930000Y-59180000D03*
X51780000Y-54920000D03*
X97500000Y-52500000D03*
X81740000Y-48830000D03*
X27500000Y-22500000D03*
X87500000Y-27500000D03*
X32500000Y-67500000D03*
X77260000Y-55960000D03*
X27500000Y-57500000D03*
X65510000Y-42520000D03*
X77030000Y-39040000D03*
X102500000Y-72500000D03*
X85740000Y-48800000D03*
X59530000Y-48920000D03*
X44000000Y-80000000D03*
X70320000Y-61060000D03*
X92470000Y-36770000D03*
X64069998Y-57510000D03*
X39550000Y-47360000D03*
X67500000Y-27500000D03*
X22500000Y-52500000D03*
X78500000Y-47460000D03*
X83070000Y-59860000D03*
X44660000Y-59690000D03*
X66569998Y-57510000D03*
X72500000Y-62500000D03*
X52500000Y-52500000D03*
X57500000Y-62500000D03*
X69740000Y-49230000D03*
X82500000Y-42500000D03*
X86520000Y-60480000D03*
X47500000Y-52500000D03*
X39590000Y-37610000D03*
X80410000Y-41660000D03*
X38530000Y-48760000D03*
X54500000Y-47480000D03*
X77500000Y-67500000D03*
X60510000Y-48930000D03*
X77500000Y-32500000D03*
X75020000Y-45360000D03*
X36770000Y-66599999D03*
X54470000Y-39910000D03*
X102500000Y-52500000D03*
X72500000Y-22500000D03*
X72500000Y-77500000D03*
X44530000Y-48800000D03*
X80530000Y-56470000D03*
X56760000Y-51580000D03*
X54240000Y-43550000D03*
X60440000Y-59320000D03*
X42500000Y-47500000D03*
X107500000Y-52500000D03*
X59500000Y-49750000D03*
X45530000Y-48810000D03*
X76580000Y-37680000D03*
X86500000Y-47390000D03*
X52500000Y-47500000D03*
X66900000Y-45850000D03*
X62010000Y-42680000D03*
X45160000Y-39860000D03*
X62500000Y-27500000D03*
X62500000Y-22500000D03*
X92500000Y-82500000D03*
X48870000Y-41370000D03*
X64080000Y-43480000D03*
X78870000Y-55360000D03*
X22500000Y-77500000D03*
X27500000Y-52500000D03*
X72230000Y-50910000D03*
X52500000Y-72500000D03*
X79740000Y-48850000D03*
X84300000Y-41600000D03*
X56500000Y-47500000D03*
X75310000Y-40040000D03*
X36530000Y-48740000D03*
X49500000Y-47440000D03*
X85690000Y-59930000D03*
X82500000Y-57500000D03*
X82500000Y-22500000D03*
X47500000Y-67500000D03*
X73130000Y-39690000D03*
X87840000Y-38650000D03*
X102500000Y-42500000D03*
X60660000Y-47530000D03*
X65640000Y-38520000D03*
X74500000Y-47490000D03*
X75550000Y-53130000D03*
X72500000Y-27500000D03*
X70490000Y-47520000D03*
X52580000Y-37190000D03*
X86910000Y-39030000D03*
X72890000Y-44720000D03*
X57760000Y-46490000D03*
X54270000Y-53250000D03*
X53440000Y-37690000D03*
X89700000Y-37900000D03*
X22500000Y-82500000D03*
X51090000Y-42270000D03*
X55170000Y-43930000D03*
X52500000Y-27500000D03*
X46560000Y-58420000D03*
X45440000Y-60850000D03*
X61290000Y-50230000D03*
X69490000Y-47530000D03*
X54050000Y-44980000D03*
X89500000Y-47370000D03*
X72230000Y-46490000D03*
X32500000Y-22500000D03*
X80500000Y-47440000D03*
D40*
X65000000Y-47250000D03*
D39*
X87090000Y-40470000D03*
X77500000Y-42500000D03*
X94270000Y-35960000D03*
X74090000Y-45740000D03*
X61360000Y-43920000D03*
X92500000Y-77500000D03*
X42500000Y-32500000D03*
X93580000Y-37830000D03*
X32500000Y-57500000D03*
X91740000Y-48750000D03*
X61570000Y-57010000D03*
X32500000Y-77500000D03*
X85500000Y-47400000D03*
X64209999Y-39480000D03*
X102500000Y-27500000D03*
X56020000Y-39190000D03*
X92500000Y-42500000D03*
X22500000Y-67500000D03*
X52190000Y-44230000D03*
X75950000Y-44980000D03*
X77500000Y-52500000D03*
X37220000Y-38150000D03*
X72500000Y-37500000D03*
X45490000Y-59130000D03*
X87500000Y-57500000D03*
X55330000Y-40410000D03*
X77890000Y-38540000D03*
X47500000Y-42500000D03*
X50120000Y-56030000D03*
X72500000Y-32500000D03*
X92500000Y-62500000D03*
X72500000Y-82500000D03*
X46540000Y-80000000D03*
X68730000Y-78790000D03*
X37550000Y-47350000D03*
X71740000Y-48910000D03*
X37500000Y-77500000D03*
X97500000Y-37500000D03*
X107500000Y-72500000D03*
X97500000Y-77500000D03*
X72500000Y-72500000D03*
X55100000Y-52690000D03*
X61190000Y-42200000D03*
X41290000Y-63630000D03*
X86740000Y-48790000D03*
X38660000Y-37230000D03*
X60490000Y-43420000D03*
X52500000Y-32500000D03*
X88500000Y-47380000D03*
X91730000Y-38580000D03*
X90670000Y-63260000D03*
X38550000Y-47360000D03*
X82270000Y-40910000D03*
X41530000Y-48780000D03*
X73060000Y-51460000D03*
X78300000Y-36680000D03*
X52740000Y-38910000D03*
X47530000Y-48830000D03*
X56230000Y-53620000D03*
X88940000Y-39710000D03*
X83200000Y-58260000D03*
D40*
X64250000Y-48000000D03*
D39*
X92500000Y-22500000D03*
X85560000Y-61520000D03*
X42380000Y-38740000D03*
X77210000Y-54240000D03*
X90620000Y-37520000D03*
X59630000Y-42910000D03*
X91550000Y-37150000D03*
X62500000Y-32500000D03*
X52910000Y-55850000D03*
X53500000Y-47470000D03*
X42170000Y-61360000D03*
X107500000Y-62500000D03*
X78550000Y-42420000D03*
X83900000Y-60410000D03*
X62190000Y-46300000D03*
X107500000Y-57500000D03*
X43710000Y-40790000D03*
X84030000Y-58810000D03*
X32500000Y-27500000D03*
X42120000Y-63080000D03*
X43000000Y-60800000D03*
X85230000Y-41220000D03*
X37740000Y-36850000D03*
X82500000Y-77500000D03*
X68560000Y-59320000D03*
X39680000Y-63030000D03*
X73500000Y-47500000D03*
X90500000Y-47360000D03*
X32500000Y-62500000D03*
X92500000Y-67500000D03*
X64269999Y-37480000D03*
X84500000Y-47410000D03*
X84130000Y-40160000D03*
X41340000Y-61910000D03*
X107500000Y-32500000D03*
X32500000Y-72500000D03*
X73740000Y-48900000D03*
X83500000Y-47420000D03*
X86160000Y-40840000D03*
X47500000Y-27500000D03*
X42790000Y-40410000D03*
X92330000Y-64379999D03*
X72500000Y-57500000D03*
X38140000Y-38530000D03*
X60710000Y-50620000D03*
X48490000Y-42730000D03*
X72740000Y-48900000D03*
X92500000Y-32500000D03*
X51270000Y-43850000D03*
X87500000Y-47500000D03*
X60780000Y-46200000D03*
X47100000Y-59740000D03*
X58890000Y-45430000D03*
X71030000Y-45470000D03*
X88010000Y-40090000D03*
X48760000Y-58630000D03*
X36550000Y-47340000D03*
X32500000Y-82500000D03*
X92660000Y-38210000D03*
X27500000Y-47500000D03*
X42500000Y-82500000D03*
X40000000Y-39280000D03*
X82500000Y-47500000D03*
X102500000Y-77500000D03*
X76430000Y-55410000D03*
X32500000Y-32500000D03*
X57500000Y-22500000D03*
X22500000Y-42500000D03*
X93160000Y-64930000D03*
X27500000Y-72500000D03*
X88050000Y-63190000D03*
X87740000Y-48780000D03*
X49610000Y-36910000D03*
X57910000Y-41910000D03*
X78750000Y-38040000D03*
X37500000Y-57500000D03*
X47500000Y-82500000D03*
X40520000Y-37980000D03*
X43530000Y-48790000D03*
X47500000Y-57500000D03*
X49420000Y-43100000D03*
X97500000Y-62500000D03*
X57500000Y-72500000D03*
X88180000Y-61590000D03*
X77500000Y-72500000D03*
X102500000Y-67500000D03*
X57740000Y-40200000D03*
X38800000Y-65300000D03*
X83740000Y-48820000D03*
X58690000Y-46860000D03*
X41860000Y-40040000D03*
X74450000Y-40540000D03*
X94890000Y-37280000D03*
X62500000Y-37500000D03*
X70550000Y-41190000D03*
X60330000Y-41700000D03*
X57060000Y-53070000D03*
X78040000Y-54800000D03*
X75500000Y-47480000D03*
X62880000Y-43180000D03*
D40*
X65750000Y-48000000D03*
D39*
X46560000Y-41950000D03*
X43310000Y-39110000D03*
X22500000Y-22500000D03*
X44500000Y-47400000D03*
X47500000Y-47500000D03*
X71490000Y-47510000D03*
X79960000Y-37330000D03*
X97500000Y-82500000D03*
X64110000Y-42480000D03*
X41530000Y-47380000D03*
X50760000Y-36100000D03*
X58420000Y-50470000D03*
X57500000Y-82500000D03*
X65170000Y-76600000D03*
X88880000Y-63750000D03*
D40*
X64250000Y-47250000D03*
D39*
X65330000Y-63620000D03*
X77500000Y-77500000D03*
X59550000Y-51400000D03*
X84730000Y-60970000D03*
X73810000Y-44340000D03*
X48460000Y-57140000D03*
X42500000Y-42500000D03*
X102500000Y-82500000D03*
X82740000Y-48820000D03*
X71960000Y-45090000D03*
X92500000Y-27500000D03*
X50950000Y-55470000D03*
X97500000Y-22500000D03*
X72730000Y-41540000D03*
X73940000Y-53740000D03*
X45500000Y-47410000D03*
X37530000Y-48750000D03*
X27500000Y-27500000D03*
X37500000Y-72500000D03*
X49590000Y-58070000D03*
X62530000Y-70500000D03*
X77500000Y-82500000D03*
X87500000Y-37500000D03*
X89710000Y-64300000D03*
X34720000Y-36940000D03*
X87500000Y-42500000D03*
X89740000Y-48770000D03*
X68830000Y-42190000D03*
X42500000Y-27500000D03*
X40530000Y-48770000D03*
D40*
X65000000Y-48750000D03*
D39*
X107500000Y-42500000D03*
X88770000Y-38270000D03*
X77740000Y-48860000D03*
X93400000Y-36390000D03*
X71870000Y-42040000D03*
X53440000Y-53810000D03*
X39530000Y-48760000D03*
X58770000Y-42410000D03*
X65670000Y-37520000D03*
X83200000Y-40530000D03*
X55910000Y-45740000D03*
X27500000Y-62500000D03*
X79480000Y-42040000D03*
X78920000Y-57080000D03*
X73990000Y-39190000D03*
X88740000Y-48780000D03*
X47010000Y-40620000D03*
X40460000Y-64190000D03*
X97500000Y-42500000D03*
X36300000Y-65280000D03*
X57590000Y-51030000D03*
X57050000Y-41410000D03*
X52080000Y-56400000D03*
X74850000Y-38680000D03*
X57500000Y-42500000D03*
X97500000Y-57500000D03*
X75720000Y-38180000D03*
X27500000Y-67500000D03*
X52500000Y-62500000D03*
X78740000Y-43850000D03*
X91500000Y-47350000D03*
X76880000Y-44610000D03*
X71300000Y-46870000D03*
X44640000Y-41160000D03*
X37500000Y-62500000D03*
X70740000Y-48920000D03*
X92500000Y-57500000D03*
X50340000Y-43480000D03*
X58530000Y-48910000D03*
X53610000Y-39410000D03*
X64250000Y-53110000D03*
X87500000Y-67500000D03*
X56190000Y-40910000D03*
X107500000Y-37500000D03*
X37970000Y-65860000D03*
X54300000Y-38190000D03*
X42500000Y-52500000D03*
X81500000Y-47430000D03*
X102500000Y-32500000D03*
X90800000Y-38960000D03*
X52530000Y-48870000D03*
X87500000Y-32500000D03*
X53120000Y-44610000D03*
X69170000Y-46220000D03*
X64239999Y-38480000D03*
X89870000Y-39340000D03*
X91370000Y-65420000D03*
X82500000Y-32500000D03*
X59810000Y-45810000D03*
X90540000Y-64860000D03*
X22500000Y-32500000D03*
X78740000Y-48860000D03*
X22500000Y-27500000D03*
X53530000Y-48870000D03*
D40*
X64250000Y-48750000D03*
D39*
X64140000Y-41480000D03*
X55500000Y-47490000D03*
X37500000Y-42500000D03*
X85220000Y-75700000D03*
X81340000Y-41290000D03*
X67500000Y-22500000D03*
X67560000Y-44550000D03*
X57500000Y-67500000D03*
X51880000Y-38400000D03*
X47500000Y-62500000D03*
X86390000Y-62080000D03*
X54530000Y-48880000D03*
X47940000Y-40990000D03*
X77500000Y-57500000D03*
X75600000Y-54850000D03*
X58720000Y-51950000D03*
X57500000Y-32500000D03*
X97500000Y-67500000D03*
X82500000Y-37500000D03*
X107500000Y-77500000D03*
X107500000Y-27500000D03*
X39070000Y-38910000D03*
X72500000Y-67500000D03*
X87500000Y-77500000D03*
X42950000Y-62520000D03*
X82500000Y-72500000D03*
X52500000Y-42500000D03*
X74740000Y-43960000D03*
X87350000Y-61040000D03*
X42500000Y-57500000D03*
X70140000Y-43040000D03*
X46500000Y-47420000D03*
X39630000Y-64739999D03*
X57500000Y-47500000D03*
X92500000Y-72500000D03*
X44230000Y-39490000D03*
X107500000Y-22500000D03*
X47500000Y-22500000D03*
X58730000Y-47520000D03*
X43830000Y-60250000D03*
X92200000Y-65970000D03*
X93100000Y-48740000D03*
X82240000Y-59300000D03*
X62500000Y-72500000D03*
X45560000Y-41540000D03*
X37500000Y-27500000D03*
X57500000Y-27500000D03*
X82500000Y-67500000D03*
X89530000Y-75860000D03*
X27500000Y-42500000D03*
X81410000Y-58740000D03*
X70030000Y-70500000D03*
X46530000Y-48820000D03*
X37500000Y-82500000D03*
X107500000Y-67500000D03*
X22500000Y-57500000D03*
X57960000Y-45060000D03*
X76640000Y-43190000D03*
X75740000Y-48880000D03*
X46080000Y-40240000D03*
X43500000Y-47390000D03*
X42500000Y-22500000D03*
X49290000Y-56590000D03*
X76500000Y-47470000D03*
X85220000Y-73420000D03*
X82500000Y-27500000D03*
X81650000Y-74500000D03*
X56840000Y-46110000D03*
X71450000Y-52070000D03*
X42530000Y-48790000D03*
X84740000Y-48810000D03*
X55160000Y-38690000D03*
X82500000Y-52500000D03*
X61270000Y-78790000D03*
X73590000Y-41040000D03*
X57890000Y-52510000D03*
X74720000Y-52580000D03*
X22500000Y-37500000D03*
X37500000Y-32500000D03*
X76380000Y-53690000D03*
X93480000Y-47340000D03*
D40*
X65750000Y-48750000D03*
D39*
X27500000Y-77500000D03*
X81510000Y-42730000D03*
D40*
X65000000Y-48000000D03*
D39*
X52500000Y-57500000D03*
X22500000Y-47500000D03*
X91500000Y-63820000D03*
X87500000Y-22500000D03*
X66849999Y-43340000D03*
X64400000Y-56800000D03*
X65099999Y-58300000D03*
X66300000Y-55200000D03*
X66300000Y-56490000D03*
X63800000Y-56000000D03*
X62200000Y-57600000D03*
X47300000Y-72600000D03*
X60700000Y-60280000D03*
X65000000Y-60900000D03*
X47300000Y-71400000D03*
X58900000Y-62100000D03*
X50600000Y-70300000D03*
X51200000Y-69100000D03*
D41*
X95000000Y-31600000D03*
X97540000Y-34140000D03*
X92460000Y-34140000D03*
X97540000Y-29060000D03*
X92460000Y-29060000D03*
X62110000Y-78720000D03*
X67890000Y-78720000D03*
D42*
X60680000Y-78220000D03*
D43*
X60680000Y-82400000D03*
D42*
X69320000Y-78220000D03*
D43*
X69320000Y-82400000D03*
D41*
X98400000Y-48000000D03*
X95860000Y-50540000D03*
X95860000Y-45460000D03*
X100940000Y-50540000D03*
X100940000Y-45460000D03*
X31600000Y-66000000D03*
X34140000Y-63460000D03*
X34140000Y-68540000D03*
X29060000Y-63460000D03*
X29060000Y-68540000D03*
X31600000Y-48000000D03*
X34140000Y-45460000D03*
X34140000Y-50540000D03*
X29060000Y-45460000D03*
X29060000Y-50540000D03*
X105000000Y-80000000D03*
X54000000Y-77000000D03*
X51460000Y-77000000D03*
X105000000Y-25000000D03*
X25000000Y-25000000D03*
X65000000Y-31600000D03*
X67540000Y-34140000D03*
X62460000Y-34140000D03*
X67540000Y-29060000D03*
X62460000Y-29060000D03*
X98400000Y-66000000D03*
X95860000Y-68540000D03*
X95860000Y-63460000D03*
X100940000Y-68540000D03*
X100940000Y-63460000D03*
X35000000Y-31600000D03*
X37540000Y-34140000D03*
X32460000Y-34140000D03*
X37540000Y-29060000D03*
X32460000Y-29060000D03*
X50000000Y-31600000D03*
X52540000Y-34140000D03*
X47460000Y-34140000D03*
X52540000Y-29060000D03*
X47460000Y-29060000D03*
X25000000Y-80000000D03*
X80000000Y-31600000D03*
X82540000Y-34140000D03*
X77460000Y-34140000D03*
X82540000Y-29060000D03*
X77460000Y-29060000D03*
M02*
