%TF.GenerationSoftware,KiCad,Pcbnew,10.0.4-10.0.4~ubuntu24.04.1*%
%TF.CreationDate,2026-08-14T16:25:44-07:00*%
%TF.ProjectId,pluto_rx2_8way_v5,706c7574-6f5f-4727-9832-5f387761795f,rev?*%
%TF.SameCoordinates,Original*%
%TF.FileFunction,Copper,L4,Bot*%
%TF.FilePolarity,Positive*%
%FSLAX46Y46*%
G04 Gerber Fmt 4.6, Leading zero omitted, Abs format (unit mm)*
G04 Created by KiCad (PCBNEW 10.0.4-10.0.4~ubuntu24.04.1) date 2026-08-14 16:25:44*
%MOMM*%
%LPD*%
G01*
G04 APERTURE LIST*
%TA.AperFunction,ComponentPad*%
%ADD10C,2.400000*%
%TD*%
%TA.AperFunction,ComponentPad*%
%ADD11C,2.800000*%
%TD*%
%TA.AperFunction,ComponentPad*%
%ADD12O,1.000000X2.100000*%
%TD*%
%TA.AperFunction,ComponentPad*%
%ADD13O,1.000000X1.800000*%
%TD*%
%TA.AperFunction,ComponentPad*%
%ADD14R,1.700000X1.700000*%
%TD*%
%TA.AperFunction,ComponentPad*%
%ADD15C,1.700000*%
%TD*%
%TA.AperFunction,ViaPad*%
%ADD16C,0.450000*%
%TD*%
%TA.AperFunction,Conductor*%
%ADD17C,0.180000*%
%TD*%
%ADD18C,0.200000*%
%ADD19C,0.250000*%
%ADD20C,0.350000*%
%ADD21O,0.600000X1.700000*%
%ADD22O,0.600000X1.400000*%
G04 APERTURE END LIST*
D10*
%TO.P,J9,1*%
%TO.N,RF_ANT7*%
X95000000Y-31600000D03*
D11*
%TO.P,J9,2*%
%TO.N,GND*%
X97540000Y-34140000D03*
%TO.P,J9,3*%
X92460000Y-34140000D03*
%TO.P,J9,4*%
X97540000Y-29060000D03*
%TO.P,J9,5*%
X92460000Y-29060000D03*
%TD*%
D12*
%TO.P,J1,SH*%
%TO.N,GND*%
X60680000Y-78220000D03*
D13*
X60680000Y-82400000D03*
D12*
X69320000Y-78220000D03*
D13*
X69320000Y-82400000D03*
%TD*%
D10*
%TO.P,J8,1*%
%TO.N,RF_ANT6*%
X98400000Y-48000000D03*
D11*
%TO.P,J8,2*%
%TO.N,GND*%
X95860000Y-50540000D03*
%TO.P,J8,3*%
X95860000Y-45460000D03*
%TO.P,J8,4*%
X100940000Y-50540000D03*
%TO.P,J8,5*%
X100940000Y-45460000D03*
%TD*%
D10*
%TO.P,J6,1*%
%TO.N,RF_ANT4*%
X31600000Y-66000000D03*
D11*
%TO.P,J6,2*%
%TO.N,GND*%
X34140000Y-63460000D03*
%TO.P,J6,3*%
X34140000Y-68540000D03*
%TO.P,J6,4*%
X29060000Y-63460000D03*
%TO.P,J6,5*%
X29060000Y-68540000D03*
%TD*%
D10*
%TO.P,J5,1*%
%TO.N,RF_ANT3*%
X31600000Y-48000000D03*
D11*
%TO.P,J5,2*%
%TO.N,GND*%
X34140000Y-45460000D03*
%TO.P,J5,3*%
X34140000Y-50540000D03*
%TO.P,J5,4*%
X29060000Y-45460000D03*
%TO.P,J5,5*%
X29060000Y-50540000D03*
%TD*%
D14*
%TO.P,J12,1*%
%TO.N,VBUS_RAW*%
X54000000Y-77000000D03*
D15*
%TO.P,J12,2*%
%TO.N,GND*%
X51460000Y-77000000D03*
%TD*%
D10*
%TO.P,J2,1*%
%TO.N,RF_COMMON*%
X65000000Y-31600000D03*
D11*
%TO.P,J2,2*%
%TO.N,GND*%
X67540000Y-34140000D03*
%TO.P,J2,3*%
X62460000Y-34140000D03*
%TO.P,J2,4*%
X67540000Y-29060000D03*
%TO.P,J2,5*%
X62460000Y-29060000D03*
%TD*%
D10*
%TO.P,J7,1*%
%TO.N,RF_ANT5*%
X98400000Y-66000000D03*
D11*
%TO.P,J7,2*%
%TO.N,GND*%
X95860000Y-68540000D03*
%TO.P,J7,3*%
X95860000Y-63460000D03*
%TO.P,J7,4*%
X100940000Y-68540000D03*
%TO.P,J7,5*%
X100940000Y-63460000D03*
%TD*%
D10*
%TO.P,J4,1*%
%TO.N,RF_ANT2*%
X35000000Y-31600000D03*
D11*
%TO.P,J4,2*%
%TO.N,GND*%
X37540000Y-34140000D03*
%TO.P,J4,3*%
X32460000Y-34140000D03*
%TO.P,J4,4*%
X37540000Y-29060000D03*
%TO.P,J4,5*%
X32460000Y-29060000D03*
%TD*%
D10*
%TO.P,J3,1*%
%TO.N,RF_ANT1*%
X50000000Y-31600000D03*
D11*
%TO.P,J3,2*%
%TO.N,GND*%
X52540000Y-34140000D03*
%TO.P,J3,3*%
X47460000Y-34140000D03*
%TO.P,J3,4*%
X52540000Y-29060000D03*
%TO.P,J3,5*%
X47460000Y-29060000D03*
%TD*%
D10*
%TO.P,J10,1*%
%TO.N,RF_ANT8*%
X80000000Y-31600000D03*
D11*
%TO.P,J10,2*%
%TO.N,GND*%
X82540000Y-34140000D03*
%TO.P,J10,3*%
X77460000Y-34140000D03*
%TO.P,J10,4*%
X82540000Y-29060000D03*
%TO.P,J10,5*%
X77460000Y-29060000D03*
%TD*%
D16*
%TO.N,GND*%
X87220000Y-62640000D03*
X68420000Y-44050000D03*
X97500000Y-72500000D03*
X77500000Y-22500000D03*
X55400000Y-54180000D03*
X56530000Y-48900000D03*
X47500000Y-32500000D03*
X89840000Y-62710000D03*
X37500000Y-67500000D03*
X51250000Y-56960000D03*
X59470000Y-41200000D03*
X71010000Y-42540000D03*
X97500000Y-27500000D03*
X65610000Y-39520000D03*
X51530000Y-48860000D03*
X42730000Y-80000000D03*
X81450000Y-57080000D03*
X22500000Y-72500000D03*
X38850000Y-63580000D03*
X48530000Y-48830000D03*
X67970000Y-42690000D03*
X92500000Y-52500000D03*
X73890000Y-52020000D03*
X35770000Y-36020000D03*
X74740000Y-48890000D03*
X58610000Y-40700000D03*
X82500000Y-82500000D03*
X79700000Y-55910000D03*
X67500000Y-42500000D03*
X42500000Y-37500000D03*
X57030000Y-44680000D03*
X67500000Y-32500000D03*
X59960000Y-47380000D03*
X79750000Y-57630000D03*
X82500000Y-62500000D03*
X107500000Y-47500000D03*
X83370000Y-41970000D03*
X62330000Y-44490000D03*
X87500000Y-52500000D03*
X80590000Y-43100000D03*
X63300000Y-50810000D03*
X40930000Y-39660000D03*
X65569999Y-40520000D03*
X77440000Y-37180000D03*
X75670000Y-43590000D03*
X77810000Y-44230000D03*
X43780000Y-61960000D03*
X72280000Y-52630000D03*
X76170000Y-39540000D03*
X107500000Y-82500000D03*
X41450000Y-38360000D03*
X42500000Y-67500000D03*
X53740000Y-55290000D03*
X102500000Y-22500000D03*
X40510000Y-62470000D03*
X55530000Y-48890000D03*
X51710000Y-36690000D03*
X73160000Y-46120000D03*
X22500000Y-62500000D03*
X44610000Y-61410000D03*
X32500000Y-42500000D03*
X49800000Y-41750000D03*
X73110000Y-53180000D03*
X56880000Y-39690000D03*
X77500000Y-62500000D03*
X50500000Y-47450000D03*
X76740000Y-48870000D03*
X69790000Y-50960000D03*
X97500000Y-32500000D03*
X71400000Y-50350000D03*
X54570000Y-54730000D03*
X72270000Y-40190000D03*
X64180000Y-40480000D03*
X69690000Y-41690000D03*
X27500000Y-82500000D03*
X78090000Y-56520000D03*
X37500000Y-22500000D03*
X27500000Y-32500000D03*
X90740000Y-48760000D03*
X68960000Y-50400000D03*
X87500000Y-82500000D03*
X92500000Y-47350000D03*
X65480000Y-43520000D03*
X51500000Y-47460000D03*
X77500000Y-27500000D03*
X40550000Y-47370000D03*
X102500000Y-62500000D03*
X57500000Y-37500000D03*
X52500000Y-82500000D03*
X36810000Y-36480000D03*
X72500000Y-47500000D03*
X32500000Y-37500000D03*
X85980000Y-39400000D03*
X79670000Y-43480000D03*
X69280000Y-43550000D03*
X70620000Y-51510000D03*
X65750000Y-47250000D03*
X57530000Y-48910000D03*
X79500000Y-47450000D03*
X52610000Y-54360000D03*
X52500000Y-22500000D03*
X32500000Y-52500000D03*
X80740000Y-48840000D03*
X70100000Y-45850000D03*
X55930000Y-52140000D03*
X62500000Y-42500000D03*
X70570000Y-49790000D03*
X38020000Y-64140000D03*
X48500000Y-47430000D03*
X80580000Y-58190000D03*
X67500000Y-37500000D03*
X89010000Y-62150000D03*
X49530000Y-48840000D03*
X79200000Y-36140000D03*
X46270000Y-60300000D03*
X47500000Y-77500000D03*
X54980000Y-45360000D03*
X37190000Y-64690000D03*
X53310000Y-43170000D03*
X52500000Y-77500000D03*
X50530000Y-48850000D03*
X47500000Y-37500000D03*
X56100000Y-44300000D03*
X85050000Y-39780000D03*
X71410000Y-40690000D03*
X102500000Y-57500000D03*
X84860000Y-59370000D03*
X37500000Y-52500000D03*
X36290000Y-37780000D03*
X50420000Y-57510000D03*
X102500000Y-47500000D03*
X74770000Y-54290000D03*
X72500000Y-42500000D03*
X65540000Y-41520000D03*
X77500000Y-47500000D03*
X51010000Y-37900000D03*
X47930000Y-59180000D03*
X51780000Y-54920000D03*
X97500000Y-52500000D03*
X81740000Y-48830000D03*
X27500000Y-22500000D03*
X87500000Y-27500000D03*
X32500000Y-67500000D03*
X77260000Y-55960000D03*
X27500000Y-57500000D03*
X65510000Y-42520000D03*
X77030000Y-39040000D03*
X102500000Y-72500000D03*
X85740000Y-48800000D03*
X59530000Y-48920000D03*
X44000000Y-80000000D03*
X70320000Y-61060000D03*
X92470000Y-36770000D03*
X64069998Y-57510000D03*
X39550000Y-47360000D03*
X67500000Y-27500000D03*
X22500000Y-52500000D03*
X78500000Y-47460000D03*
X83070000Y-59860000D03*
X44660000Y-59690000D03*
X66569998Y-57510000D03*
X72500000Y-62500000D03*
X52500000Y-52500000D03*
X57500000Y-62500000D03*
X69740000Y-49230000D03*
X82500000Y-42500000D03*
X86520000Y-60480000D03*
X47500000Y-52500000D03*
X39590000Y-37610000D03*
X80410000Y-41660000D03*
X38530000Y-48760000D03*
X54500000Y-47480000D03*
X77500000Y-67500000D03*
X60510000Y-48930000D03*
X77500000Y-32500000D03*
X75020000Y-45360000D03*
X36770000Y-66599999D03*
X54470000Y-39910000D03*
X102500000Y-52500000D03*
X72500000Y-22500000D03*
X72500000Y-77500000D03*
X44530000Y-48800000D03*
X80530000Y-56470000D03*
X56760000Y-51580000D03*
X54240000Y-43550000D03*
X60440000Y-59320000D03*
X42500000Y-47500000D03*
X107500000Y-52500000D03*
X59500000Y-49750000D03*
X45530000Y-48810000D03*
X76580000Y-37680000D03*
X86500000Y-47390000D03*
X52500000Y-47500000D03*
X66900000Y-45850000D03*
X62010000Y-42680000D03*
X45160000Y-39860000D03*
X62500000Y-27500000D03*
X62500000Y-22500000D03*
X92500000Y-82500000D03*
X48870000Y-41370000D03*
X64080000Y-43480000D03*
X78870000Y-55360000D03*
X22500000Y-77500000D03*
X27500000Y-52500000D03*
X72230000Y-50910000D03*
X52500000Y-72500000D03*
X79740000Y-48850000D03*
X84300000Y-41600000D03*
X56500000Y-47500000D03*
X75310000Y-40040000D03*
X36530000Y-48740000D03*
X49500000Y-47440000D03*
X85690000Y-59930000D03*
X82500000Y-57500000D03*
X82500000Y-22500000D03*
X47500000Y-67500000D03*
X73130000Y-39690000D03*
X87840000Y-38650000D03*
X102500000Y-42500000D03*
X60660000Y-47530000D03*
X65640000Y-38520000D03*
X74500000Y-47490000D03*
X75550000Y-53130000D03*
X72500000Y-27500000D03*
X70490000Y-47520000D03*
X52580000Y-37190000D03*
X86910000Y-39030000D03*
X72890000Y-44720000D03*
X57760000Y-46490000D03*
X54270000Y-53250000D03*
X53440000Y-37690000D03*
X89700000Y-37900000D03*
X22500000Y-82500000D03*
X51090000Y-42270000D03*
X55170000Y-43930000D03*
X52500000Y-27500000D03*
X46560000Y-58420000D03*
X45440000Y-60850000D03*
X61290000Y-50230000D03*
X69490000Y-47530000D03*
X54050000Y-44980000D03*
X89500000Y-47370000D03*
X72230000Y-46490000D03*
X32500000Y-22500000D03*
X80500000Y-47440000D03*
X65000000Y-47250000D03*
X87090000Y-40470000D03*
X77500000Y-42500000D03*
X94270000Y-35960000D03*
X74090000Y-45740000D03*
X61360000Y-43920000D03*
X92500000Y-77500000D03*
X42500000Y-32500000D03*
X93580000Y-37830000D03*
X32500000Y-57500000D03*
X91740000Y-48750000D03*
X61570000Y-57010000D03*
X32500000Y-77500000D03*
X85500000Y-47400000D03*
X64209999Y-39480000D03*
X102500000Y-27500000D03*
X56020000Y-39190000D03*
X92500000Y-42500000D03*
X22500000Y-67500000D03*
X52190000Y-44230000D03*
X75950000Y-44980000D03*
X77500000Y-52500000D03*
X37220000Y-38150000D03*
X72500000Y-37500000D03*
X45490000Y-59130000D03*
X87500000Y-57500000D03*
X55330000Y-40410000D03*
X77890000Y-38540000D03*
X47500000Y-42500000D03*
X50120000Y-56030000D03*
X72500000Y-32500000D03*
X92500000Y-62500000D03*
X72500000Y-82500000D03*
X46540000Y-80000000D03*
X68730000Y-78790000D03*
X37550000Y-47350000D03*
X71740000Y-48910000D03*
X37500000Y-77500000D03*
X97500000Y-37500000D03*
X107500000Y-72500000D03*
X97500000Y-77500000D03*
X72500000Y-72500000D03*
X55100000Y-52690000D03*
X61190000Y-42200000D03*
X41290000Y-63630000D03*
X86740000Y-48790000D03*
X38660000Y-37230000D03*
X60490000Y-43420000D03*
X52500000Y-32500000D03*
X88500000Y-47380000D03*
X91730000Y-38580000D03*
X90670000Y-63260000D03*
X38550000Y-47360000D03*
X82270000Y-40910000D03*
X41530000Y-48780000D03*
X73060000Y-51460000D03*
X78300000Y-36680000D03*
X52740000Y-38910000D03*
X47530000Y-48830000D03*
X56230000Y-53620000D03*
X88940000Y-39710000D03*
X83200000Y-58260000D03*
X64250000Y-48000000D03*
X92500000Y-22500000D03*
X85560000Y-61520000D03*
X42380000Y-38740000D03*
X77210000Y-54240000D03*
X90620000Y-37520000D03*
X59630000Y-42910000D03*
X91550000Y-37150000D03*
X62500000Y-32500000D03*
X52910000Y-55850000D03*
X53500000Y-47470000D03*
X42170000Y-61360000D03*
X107500000Y-62500000D03*
X78550000Y-42420000D03*
X83900000Y-60410000D03*
X62190000Y-46300000D03*
X107500000Y-57500000D03*
X43710000Y-40790000D03*
X84030000Y-58810000D03*
X32500000Y-27500000D03*
X42120000Y-63080000D03*
X43000000Y-60800000D03*
X85230000Y-41220000D03*
X37740000Y-36850000D03*
X82500000Y-77500000D03*
X68560000Y-59320000D03*
X39680000Y-63030000D03*
X73500000Y-47500000D03*
X90500000Y-47360000D03*
X32500000Y-62500000D03*
X92500000Y-67500000D03*
X64269999Y-37480000D03*
X84500000Y-47410000D03*
X84130000Y-40160000D03*
X41340000Y-61910000D03*
X107500000Y-32500000D03*
X32500000Y-72500000D03*
X73740000Y-48900000D03*
X83500000Y-47420000D03*
X86160000Y-40840000D03*
X47500000Y-27500000D03*
X42790000Y-40410000D03*
X92330000Y-64379999D03*
X72500000Y-57500000D03*
X38140000Y-38530000D03*
X60710000Y-50620000D03*
X48490000Y-42730000D03*
X72740000Y-48900000D03*
X92500000Y-32500000D03*
X51270000Y-43850000D03*
X87500000Y-47500000D03*
X60780000Y-46200000D03*
X47100000Y-59740000D03*
X58890000Y-45430000D03*
X71030000Y-45470000D03*
X88010000Y-40090000D03*
X48760000Y-58630000D03*
X36550000Y-47340000D03*
X32500000Y-82500000D03*
X92660000Y-38210000D03*
X27500000Y-47500000D03*
X42500000Y-82500000D03*
X40000000Y-39280000D03*
X82500000Y-47500000D03*
X102500000Y-77500000D03*
X76430000Y-55410000D03*
X32500000Y-32500000D03*
X57500000Y-22500000D03*
X22500000Y-42500000D03*
X93160000Y-64930000D03*
X27500000Y-72500000D03*
X88050000Y-63190000D03*
X87740000Y-48780000D03*
X49610000Y-36910000D03*
X57910000Y-41910000D03*
X78750000Y-38040000D03*
X37500000Y-57500000D03*
X47500000Y-82500000D03*
X40520000Y-37980000D03*
X43530000Y-48790000D03*
X47500000Y-57500000D03*
X49420000Y-43100000D03*
X97500000Y-62500000D03*
X57500000Y-72500000D03*
X88180000Y-61590000D03*
X77500000Y-72500000D03*
X102500000Y-67500000D03*
X57740000Y-40200000D03*
X38800000Y-65300000D03*
X83740000Y-48820000D03*
X58690000Y-46860000D03*
X41860000Y-40040000D03*
X74450000Y-40540000D03*
X94890000Y-37280000D03*
X62500000Y-37500000D03*
X70550000Y-41190000D03*
X60330000Y-41700000D03*
X57060000Y-53070000D03*
X78040000Y-54800000D03*
X75500000Y-47480000D03*
X62880000Y-43180000D03*
X65750000Y-48000000D03*
X46560000Y-41950000D03*
X43310000Y-39110000D03*
X22500000Y-22500000D03*
X44500000Y-47400000D03*
X47500000Y-47500000D03*
X71490000Y-47510000D03*
X79960000Y-37330000D03*
X97500000Y-82500000D03*
X64110000Y-42480000D03*
X41530000Y-47380000D03*
X50760000Y-36100000D03*
X58420000Y-50470000D03*
X57500000Y-82500000D03*
X65170000Y-76600000D03*
X88880000Y-63750000D03*
X64250000Y-47250000D03*
X65330000Y-63620000D03*
X77500000Y-77500000D03*
X59550000Y-51400000D03*
X84730000Y-60970000D03*
X73810000Y-44340000D03*
X48460000Y-57140000D03*
X42500000Y-42500000D03*
X102500000Y-82500000D03*
X82740000Y-48820000D03*
X71960000Y-45090000D03*
X92500000Y-27500000D03*
X50950000Y-55470000D03*
X97500000Y-22500000D03*
X72730000Y-41540000D03*
X73940000Y-53740000D03*
X45500000Y-47410000D03*
X37530000Y-48750000D03*
X27500000Y-27500000D03*
X37500000Y-72500000D03*
X49590000Y-58070000D03*
X62530000Y-70500000D03*
X77500000Y-82500000D03*
X87500000Y-37500000D03*
X89710000Y-64300000D03*
X34720000Y-36940000D03*
X87500000Y-42500000D03*
X89740000Y-48770000D03*
X68830000Y-42190000D03*
X42500000Y-27500000D03*
X40530000Y-48770000D03*
X65000000Y-48750000D03*
X107500000Y-42500000D03*
X88770000Y-38270000D03*
X77740000Y-48860000D03*
X93400000Y-36390000D03*
X71870000Y-42040000D03*
X53440000Y-53810000D03*
X39530000Y-48760000D03*
X58770000Y-42410000D03*
X65670000Y-37520000D03*
X83200000Y-40530000D03*
X55910000Y-45740000D03*
X27500000Y-62500000D03*
X79480000Y-42040000D03*
X78920000Y-57080000D03*
X73990000Y-39190000D03*
X88740000Y-48780000D03*
X47010000Y-40620000D03*
X40460000Y-64190000D03*
X97500000Y-42500000D03*
X36300000Y-65280000D03*
X57590000Y-51030000D03*
X57050000Y-41410000D03*
X52080000Y-56400000D03*
X74850000Y-38680000D03*
X57500000Y-42500000D03*
X97500000Y-57500000D03*
X75720000Y-38180000D03*
X27500000Y-67500000D03*
X52500000Y-62500000D03*
X78740000Y-43850000D03*
X91500000Y-47350000D03*
X76880000Y-44610000D03*
X71300000Y-46870000D03*
X44640000Y-41160000D03*
X37500000Y-62500000D03*
X70740000Y-48920000D03*
X92500000Y-57500000D03*
X50340000Y-43480000D03*
X58530000Y-48910000D03*
X53610000Y-39410000D03*
X64250000Y-53110000D03*
X87500000Y-67500000D03*
X56190000Y-40910000D03*
X107500000Y-37500000D03*
X37970000Y-65860000D03*
X54300000Y-38190000D03*
X42500000Y-52500000D03*
X81500000Y-47430000D03*
X102500000Y-32500000D03*
X90800000Y-38960000D03*
X52530000Y-48870000D03*
X87500000Y-32500000D03*
X53120000Y-44610000D03*
X69170000Y-46220000D03*
X64239999Y-38480000D03*
X89870000Y-39340000D03*
X91370000Y-65420000D03*
X82500000Y-32500000D03*
X59810000Y-45810000D03*
X90540000Y-64860000D03*
X22500000Y-32500000D03*
X78740000Y-48860000D03*
X22500000Y-27500000D03*
X53530000Y-48870000D03*
X64250000Y-48750000D03*
X64140000Y-41480000D03*
X55500000Y-47490000D03*
X37500000Y-42500000D03*
X85220000Y-75700000D03*
X81340000Y-41290000D03*
X67500000Y-22500000D03*
X67560000Y-44550000D03*
X57500000Y-67500000D03*
X51880000Y-38400000D03*
X47500000Y-62500000D03*
X86390000Y-62080000D03*
X54530000Y-48880000D03*
X47940000Y-40990000D03*
X77500000Y-57500000D03*
X75600000Y-54850000D03*
X58720000Y-51950000D03*
X57500000Y-32500000D03*
X97500000Y-67500000D03*
X82500000Y-37500000D03*
X107500000Y-77500000D03*
X107500000Y-27500000D03*
X39070000Y-38910000D03*
X72500000Y-67500000D03*
X87500000Y-77500000D03*
X42950000Y-62520000D03*
X82500000Y-72500000D03*
X52500000Y-42500000D03*
X74740000Y-43960000D03*
X87350000Y-61040000D03*
X42500000Y-57500000D03*
X70140000Y-43040000D03*
X46500000Y-47420000D03*
X39630000Y-64739999D03*
X57500000Y-47500000D03*
X92500000Y-72500000D03*
X44230000Y-39490000D03*
X107500000Y-22500000D03*
X47500000Y-22500000D03*
X58730000Y-47520000D03*
X43830000Y-60250000D03*
X92200000Y-65970000D03*
X93100000Y-48740000D03*
X82240000Y-59300000D03*
X62500000Y-72500000D03*
X45560000Y-41540000D03*
X37500000Y-27500000D03*
X57500000Y-27500000D03*
X82500000Y-67500000D03*
X89530000Y-75860000D03*
X27500000Y-42500000D03*
X81410000Y-58740000D03*
X70030000Y-70500000D03*
X46530000Y-48820000D03*
X37500000Y-82500000D03*
X107500000Y-67500000D03*
X22500000Y-57500000D03*
X57960000Y-45060000D03*
X76640000Y-43190000D03*
X75740000Y-48880000D03*
X46080000Y-40240000D03*
X43500000Y-47390000D03*
X42500000Y-22500000D03*
X49290000Y-56590000D03*
X76500000Y-47470000D03*
X85220000Y-73420000D03*
X82500000Y-27500000D03*
X81650000Y-74500000D03*
X56840000Y-46110000D03*
X71450000Y-52070000D03*
X42530000Y-48790000D03*
X84740000Y-48810000D03*
X55160000Y-38690000D03*
X82500000Y-52500000D03*
X61270000Y-78790000D03*
X73590000Y-41040000D03*
X57890000Y-52510000D03*
X74720000Y-52580000D03*
X22500000Y-37500000D03*
X37500000Y-32500000D03*
X76380000Y-53690000D03*
X93480000Y-47340000D03*
X65750000Y-48750000D03*
X27500000Y-77500000D03*
X81510000Y-42730000D03*
X65000000Y-48000000D03*
X52500000Y-57500000D03*
X22500000Y-47500000D03*
X91500000Y-63820000D03*
X87500000Y-22500000D03*
X66849999Y-43340000D03*
%TO.N,SW_V2*%
X64400000Y-56800000D03*
X65099999Y-58300000D03*
%TO.N,SW_V3*%
X66300000Y-55200000D03*
X66300000Y-56490000D03*
%TO.N,SW_V4*%
X63800000Y-56000000D03*
X62200000Y-57600000D03*
%TO.N,NRST*%
X47300000Y-72600000D03*
X60700000Y-60280000D03*
X65000000Y-60900000D03*
X47300000Y-71400000D03*
X58900000Y-62100000D03*
%TO.N,SWDIO*%
X50600000Y-70300000D03*
X51200000Y-69100000D03*
%TD*%
%TO.N,SW_V2*%
D17*
X64400000Y-56800000D02*
X65099999Y-57500000D01*
X65099999Y-57500000D02*
X65099999Y-58300000D01*
%TO.N,SW_V3*%
X66300000Y-56500000D02*
X66300000Y-55200000D01*
%TO.N,SW_V4*%
X63800000Y-56000000D02*
X62200000Y-57600000D01*
%TO.N,NRST*%
X60700000Y-60300000D02*
X64400000Y-60300000D01*
X60700000Y-60300000D02*
X58900000Y-62100000D01*
X47300000Y-71400000D02*
X47300000Y-72600000D01*
X64400000Y-60300000D02*
X65000000Y-60900000D01*
%TO.N,SWDIO*%
X51200000Y-69100000D02*
X50600000Y-69700000D01*
X50600000Y-69700000D02*
X50600000Y-70300000D01*
%TD*%
%TA.AperFunction,Conductor*%
%TO.N,GND*%
G36*
X109658691Y-20319407D02*
G01*
X109694655Y-20368907D01*
X109699500Y-20399500D01*
X109699500Y-84600500D01*
X109680593Y-84658691D01*
X109631093Y-84694655D01*
X109600500Y-84699500D01*
X20399500Y-84699500D01*
X20341309Y-84680593D01*
X20305345Y-84631093D01*
X20300500Y-84600500D01*
X20300500Y-79882643D01*
X23209500Y-79882643D01*
X23209500Y-80117356D01*
X23240136Y-80350059D01*
X23300882Y-80576769D01*
X23300885Y-80576776D01*
X23390701Y-80793612D01*
X23508061Y-80996886D01*
X23650936Y-81183085D01*
X23650938Y-81183087D01*
X23650942Y-81183092D01*
X23816908Y-81349058D01*
X23816912Y-81349061D01*
X23816914Y-81349063D01*
X24003113Y-81491938D01*
X24003117Y-81491941D01*
X24206383Y-81609296D01*
X24206384Y-81609296D01*
X24206387Y-81609298D01*
X24264877Y-81633525D01*
X24423228Y-81699117D01*
X24649941Y-81759864D01*
X24882644Y-81790500D01*
X24882645Y-81790500D01*
X25117355Y-81790500D01*
X25117356Y-81790500D01*
X25350059Y-81759864D01*
X25576772Y-81699117D01*
X25793617Y-81609296D01*
X25996883Y-81491941D01*
X26183092Y-81349058D01*
X26349058Y-81183092D01*
X26491941Y-80996883D01*
X26609296Y-80793617D01*
X26699117Y-80576772D01*
X26759864Y-80350059D01*
X26790500Y-80117356D01*
X26790500Y-79882644D01*
X26790500Y-79882643D01*
X103209500Y-79882643D01*
X103209500Y-80117356D01*
X103240136Y-80350059D01*
X103300882Y-80576769D01*
X103300885Y-80576776D01*
X103390701Y-80793612D01*
X103508061Y-80996886D01*
X103650936Y-81183085D01*
X103650938Y-81183087D01*
X103650942Y-81183092D01*
X103816908Y-81349058D01*
X103816912Y-81349061D01*
X103816914Y-81349063D01*
X104003113Y-81491938D01*
X104003117Y-81491941D01*
X104206383Y-81609296D01*
X104206384Y-81609296D01*
X104206387Y-81609298D01*
X104264877Y-81633525D01*
X104423228Y-81699117D01*
X104649941Y-81759864D01*
X104882644Y-81790500D01*
X104882645Y-81790500D01*
X105117355Y-81790500D01*
X105117356Y-81790500D01*
X105350059Y-81759864D01*
X105576772Y-81699117D01*
X105793617Y-81609296D01*
X105996883Y-81491941D01*
X106183092Y-81349058D01*
X106349058Y-81183092D01*
X106491941Y-80996883D01*
X106609296Y-80793617D01*
X106699117Y-80576772D01*
X106759864Y-80350059D01*
X106790500Y-80117356D01*
X106790500Y-79882644D01*
X106759864Y-79649941D01*
X106699117Y-79423228D01*
X106621357Y-79235500D01*
X106609298Y-79206387D01*
X106605824Y-79200369D01*
X106491941Y-79003117D01*
X106349058Y-78816908D01*
X106183092Y-78650942D01*
X106183087Y-78650938D01*
X106183085Y-78650936D01*
X105996886Y-78508061D01*
X105793612Y-78390701D01*
X105635266Y-78325112D01*
X105576772Y-78300883D01*
X105576770Y-78300882D01*
X105576769Y-78300882D01*
X105350059Y-78240136D01*
X105117356Y-78209500D01*
X104882644Y-78209500D01*
X104882643Y-78209500D01*
X104649940Y-78240136D01*
X104423230Y-78300882D01*
X104423223Y-78300885D01*
X104206387Y-78390701D01*
X104003113Y-78508061D01*
X103816914Y-78650936D01*
X103650936Y-78816914D01*
X103508061Y-79003113D01*
X103390701Y-79206387D01*
X103300885Y-79423223D01*
X103300882Y-79423230D01*
X103240136Y-79649940D01*
X103209500Y-79882643D01*
X26790500Y-79882643D01*
X26759864Y-79649941D01*
X26699117Y-79423228D01*
X26621357Y-79235500D01*
X26609298Y-79206387D01*
X26605824Y-79200369D01*
X26491941Y-79003117D01*
X26349058Y-78816908D01*
X26184280Y-78652130D01*
X61594500Y-78652130D01*
X61594500Y-78787869D01*
X61629630Y-78918974D01*
X61629632Y-78918978D01*
X61678208Y-79003113D01*
X61697498Y-79036524D01*
X61793476Y-79132502D01*
X61793478Y-79132503D01*
X61911021Y-79200367D01*
X61911025Y-79200369D01*
X62042130Y-79235499D01*
X62042132Y-79235500D01*
X62042133Y-79235500D01*
X62177868Y-79235500D01*
X62177868Y-79235499D01*
X62308975Y-79200369D01*
X62426524Y-79132502D01*
X62522502Y-79036524D01*
X62590369Y-78918975D01*
X62625500Y-78787867D01*
X62625500Y-78652133D01*
X62625499Y-78652130D01*
X67374500Y-78652130D01*
X67374500Y-78787869D01*
X67409630Y-78918974D01*
X67409632Y-78918978D01*
X67458208Y-79003113D01*
X67477498Y-79036524D01*
X67573476Y-79132502D01*
X67573478Y-79132503D01*
X67691021Y-79200367D01*
X67691025Y-79200369D01*
X67822130Y-79235499D01*
X67822132Y-79235500D01*
X67822133Y-79235500D01*
X67957868Y-79235500D01*
X67957868Y-79235499D01*
X68088975Y-79200369D01*
X68206524Y-79132502D01*
X68302502Y-79036524D01*
X68370369Y-78918975D01*
X68405500Y-78787867D01*
X68405500Y-78652133D01*
X68370369Y-78521025D01*
X68302502Y-78403476D01*
X68206524Y-78307498D01*
X68195070Y-78300885D01*
X68088978Y-78239632D01*
X68088974Y-78239630D01*
X67957869Y-78204500D01*
X67957867Y-78204500D01*
X67822133Y-78204500D01*
X67822130Y-78204500D01*
X67691025Y-78239630D01*
X67691021Y-78239632D01*
X67573478Y-78307496D01*
X67477496Y-78403478D01*
X67409632Y-78521021D01*
X67409630Y-78521025D01*
X67374500Y-78652130D01*
X62625499Y-78652130D01*
X62590369Y-78521025D01*
X62522502Y-78403476D01*
X62426524Y-78307498D01*
X62415070Y-78300885D01*
X62308978Y-78239632D01*
X62308974Y-78239630D01*
X62177869Y-78204500D01*
X62177867Y-78204500D01*
X62042133Y-78204500D01*
X62042130Y-78204500D01*
X61911025Y-78239630D01*
X61911021Y-78239632D01*
X61793478Y-78307496D01*
X61697496Y-78403478D01*
X61629632Y-78521021D01*
X61629630Y-78521025D01*
X61594500Y-78652130D01*
X26184280Y-78652130D01*
X26183092Y-78650942D01*
X26183087Y-78650938D01*
X26183085Y-78650936D01*
X25996886Y-78508061D01*
X25793612Y-78390701D01*
X25635266Y-78325112D01*
X25576772Y-78300883D01*
X25576770Y-78300882D01*
X25576769Y-78300882D01*
X25350059Y-78240136D01*
X25117356Y-78209500D01*
X24882644Y-78209500D01*
X24882643Y-78209500D01*
X24649940Y-78240136D01*
X24423230Y-78300882D01*
X24423223Y-78300885D01*
X24206387Y-78390701D01*
X24003113Y-78508061D01*
X23816914Y-78650936D01*
X23650936Y-78816914D01*
X23508061Y-79003113D01*
X23390701Y-79206387D01*
X23300885Y-79423223D01*
X23300882Y-79423230D01*
X23240136Y-79649940D01*
X23209500Y-79882643D01*
X20300500Y-79882643D01*
X20300500Y-76130253D01*
X52949500Y-76130253D01*
X52949500Y-77869746D01*
X52949501Y-77869758D01*
X52961132Y-77928227D01*
X52961133Y-77928231D01*
X53005448Y-77994552D01*
X53071769Y-78038867D01*
X53116231Y-78047711D01*
X53130241Y-78050498D01*
X53130246Y-78050498D01*
X53130252Y-78050500D01*
X53130253Y-78050500D01*
X54869747Y-78050500D01*
X54869748Y-78050500D01*
X54928231Y-78038867D01*
X54994552Y-77994552D01*
X55038867Y-77928231D01*
X55050500Y-77869748D01*
X55050500Y-76130252D01*
X55038867Y-76071769D01*
X54994552Y-76005448D01*
X54994548Y-76005445D01*
X54928233Y-75961134D01*
X54928231Y-75961133D01*
X54928228Y-75961132D01*
X54928227Y-75961132D01*
X54869758Y-75949501D01*
X54869748Y-75949500D01*
X53130252Y-75949500D01*
X53130251Y-75949500D01*
X53130241Y-75949501D01*
X53071772Y-75961132D01*
X53071766Y-75961134D01*
X53005451Y-76005445D01*
X53005445Y-76005451D01*
X52961134Y-76071766D01*
X52961132Y-76071772D01*
X52949501Y-76130241D01*
X52949500Y-76130253D01*
X20300500Y-76130253D01*
X20300500Y-71343982D01*
X46874500Y-71343982D01*
X46874500Y-71456018D01*
X46900072Y-71551455D01*
X46903498Y-71564241D01*
X46959513Y-71661260D01*
X46959515Y-71661263D01*
X46980505Y-71682253D01*
X47008281Y-71736768D01*
X47009500Y-71752255D01*
X47009500Y-72247744D01*
X46990593Y-72305935D01*
X46980505Y-72317746D01*
X46959514Y-72338736D01*
X46903498Y-72435758D01*
X46903497Y-72435763D01*
X46874500Y-72543982D01*
X46874500Y-72656018D01*
X46900072Y-72751455D01*
X46903498Y-72764241D01*
X46959513Y-72861260D01*
X46959515Y-72861263D01*
X47038737Y-72940485D01*
X47038739Y-72940486D01*
X47135759Y-72996501D01*
X47135757Y-72996501D01*
X47135761Y-72996502D01*
X47135763Y-72996503D01*
X47243982Y-73025500D01*
X47243984Y-73025500D01*
X47356016Y-73025500D01*
X47356018Y-73025500D01*
X47464237Y-72996503D01*
X47464239Y-72996501D01*
X47464241Y-72996501D01*
X47493064Y-72979859D01*
X47561263Y-72940485D01*
X47640485Y-72861263D01*
X47696503Y-72764237D01*
X47725500Y-72656018D01*
X47725500Y-72543982D01*
X47696503Y-72435763D01*
X47696501Y-72435760D01*
X47696501Y-72435758D01*
X47640485Y-72338736D01*
X47619495Y-72317746D01*
X47591719Y-72263229D01*
X47590500Y-72247744D01*
X47590500Y-71752255D01*
X47609407Y-71694064D01*
X47619490Y-71682257D01*
X47640485Y-71661263D01*
X47696503Y-71564237D01*
X47725500Y-71456018D01*
X47725500Y-71343982D01*
X47696503Y-71235763D01*
X47696501Y-71235760D01*
X47696501Y-71235758D01*
X47640486Y-71138739D01*
X47640485Y-71138737D01*
X47561263Y-71059515D01*
X47561260Y-71059513D01*
X47464240Y-71003498D01*
X47464242Y-71003498D01*
X47422251Y-70992247D01*
X47356018Y-70974500D01*
X47243982Y-70974500D01*
X47177748Y-70992247D01*
X47135758Y-71003498D01*
X47038739Y-71059513D01*
X46959513Y-71138739D01*
X46903498Y-71235758D01*
X46903497Y-71235763D01*
X46874500Y-71343982D01*
X20300500Y-71343982D01*
X20300500Y-70243982D01*
X50174500Y-70243982D01*
X50174500Y-70356018D01*
X50200072Y-70451455D01*
X50203498Y-70464241D01*
X50259513Y-70561260D01*
X50259515Y-70561263D01*
X50338737Y-70640485D01*
X50338739Y-70640486D01*
X50435759Y-70696501D01*
X50435757Y-70696501D01*
X50435761Y-70696502D01*
X50435763Y-70696503D01*
X50543982Y-70725500D01*
X50543984Y-70725500D01*
X50656016Y-70725500D01*
X50656018Y-70725500D01*
X50764237Y-70696503D01*
X50764239Y-70696501D01*
X50764241Y-70696501D01*
X50793064Y-70679859D01*
X50861263Y-70640485D01*
X50940485Y-70561263D01*
X50996503Y-70464237D01*
X51025500Y-70356018D01*
X51025500Y-70243982D01*
X50996503Y-70135763D01*
X50996501Y-70135760D01*
X50996501Y-70135758D01*
X50940485Y-70038736D01*
X50919495Y-70017746D01*
X50915869Y-70010630D01*
X50909407Y-70005935D01*
X50902241Y-69983882D01*
X50891719Y-69963229D01*
X50890500Y-69947744D01*
X50890500Y-69861337D01*
X50909407Y-69803146D01*
X50919496Y-69791333D01*
X51156333Y-69554496D01*
X51210850Y-69526719D01*
X51226337Y-69525500D01*
X51256016Y-69525500D01*
X51256018Y-69525500D01*
X51364237Y-69496503D01*
X51364239Y-69496501D01*
X51364241Y-69496501D01*
X51414399Y-69467542D01*
X51461263Y-69440485D01*
X51540485Y-69361263D01*
X51596503Y-69264237D01*
X51625500Y-69156018D01*
X51625500Y-69043982D01*
X51596503Y-68935763D01*
X51596501Y-68935760D01*
X51596501Y-68935758D01*
X51540486Y-68838739D01*
X51540485Y-68838737D01*
X51461263Y-68759515D01*
X51461260Y-68759513D01*
X51364240Y-68703498D01*
X51364242Y-68703498D01*
X51322251Y-68692247D01*
X51256018Y-68674500D01*
X51143982Y-68674500D01*
X51077748Y-68692247D01*
X51035758Y-68703498D01*
X50938739Y-68759513D01*
X50859513Y-68838739D01*
X50803498Y-68935758D01*
X50774500Y-69043983D01*
X50774500Y-69073663D01*
X50755593Y-69131854D01*
X50745504Y-69143667D01*
X50421629Y-69467542D01*
X50421628Y-69467541D01*
X50367542Y-69521628D01*
X50367538Y-69521633D01*
X50329298Y-69587866D01*
X50309500Y-69661756D01*
X50309500Y-69947744D01*
X50290593Y-70005935D01*
X50280505Y-70017746D01*
X50259514Y-70038736D01*
X50203498Y-70135758D01*
X50203497Y-70135763D01*
X50174500Y-70243982D01*
X20300500Y-70243982D01*
X20300500Y-65889774D01*
X30199500Y-65889774D01*
X30199500Y-66110225D01*
X30233984Y-66327948D01*
X30302102Y-66537599D01*
X30302104Y-66537602D01*
X30302105Y-66537606D01*
X30402185Y-66734022D01*
X30531758Y-66912365D01*
X30687635Y-67068242D01*
X30865978Y-67197815D01*
X31062394Y-67297895D01*
X31272049Y-67366015D01*
X31359140Y-67379809D01*
X31489775Y-67400500D01*
X31489778Y-67400500D01*
X31710225Y-67400500D01*
X31819086Y-67383257D01*
X31927951Y-67366015D01*
X32137606Y-67297895D01*
X32334022Y-67197815D01*
X32512365Y-67068242D01*
X32668242Y-66912365D01*
X32797815Y-66734022D01*
X32897895Y-66537606D01*
X32966015Y-66327951D01*
X33000500Y-66110222D01*
X33000500Y-65889778D01*
X33000500Y-65889774D01*
X96999500Y-65889774D01*
X96999500Y-66110225D01*
X97033984Y-66327948D01*
X97102102Y-66537599D01*
X97102104Y-66537602D01*
X97102105Y-66537606D01*
X97202185Y-66734022D01*
X97331758Y-66912365D01*
X97487635Y-67068242D01*
X97665978Y-67197815D01*
X97862394Y-67297895D01*
X98072049Y-67366015D01*
X98159140Y-67379809D01*
X98289775Y-67400500D01*
X98289778Y-67400500D01*
X98510225Y-67400500D01*
X98619086Y-67383257D01*
X98727951Y-67366015D01*
X98937606Y-67297895D01*
X99134022Y-67197815D01*
X99312365Y-67068242D01*
X99468242Y-66912365D01*
X99597815Y-66734022D01*
X99697895Y-66537606D01*
X99766015Y-66327951D01*
X99800500Y-66110222D01*
X99800500Y-65889778D01*
X99800500Y-65889774D01*
X99766015Y-65672051D01*
X99766015Y-65672049D01*
X99697895Y-65462394D01*
X99597815Y-65265978D01*
X99468242Y-65087635D01*
X99312365Y-64931758D01*
X99134022Y-64802185D01*
X99134021Y-64802184D01*
X99134019Y-64802183D01*
X99044825Y-64756736D01*
X98937606Y-64702105D01*
X98937602Y-64702104D01*
X98937599Y-64702102D01*
X98727948Y-64633984D01*
X98510225Y-64599500D01*
X98510222Y-64599500D01*
X98289778Y-64599500D01*
X98289775Y-64599500D01*
X98072051Y-64633984D01*
X97862400Y-64702102D01*
X97665980Y-64802183D01*
X97576806Y-64866971D01*
X97487635Y-64931758D01*
X97331758Y-65087635D01*
X97266971Y-65176806D01*
X97202183Y-65265980D01*
X97102102Y-65462400D01*
X97033984Y-65672051D01*
X96999500Y-65889774D01*
X33000500Y-65889774D01*
X32966015Y-65672051D01*
X32966015Y-65672049D01*
X32897895Y-65462394D01*
X32797815Y-65265978D01*
X32668242Y-65087635D01*
X32512365Y-64931758D01*
X32334022Y-64802185D01*
X32334021Y-64802184D01*
X32334019Y-64802183D01*
X32244825Y-64756736D01*
X32137606Y-64702105D01*
X32137602Y-64702104D01*
X32137599Y-64702102D01*
X31927948Y-64633984D01*
X31710225Y-64599500D01*
X31710222Y-64599500D01*
X31489778Y-64599500D01*
X31489775Y-64599500D01*
X31272051Y-64633984D01*
X31062400Y-64702102D01*
X30865980Y-64802183D01*
X30776806Y-64866971D01*
X30687635Y-64931758D01*
X30531758Y-65087635D01*
X30466971Y-65176806D01*
X30402183Y-65265980D01*
X30302102Y-65462400D01*
X30233984Y-65672051D01*
X30199500Y-65889774D01*
X20300500Y-65889774D01*
X20300500Y-62043982D01*
X58474500Y-62043982D01*
X58474500Y-62156018D01*
X58500072Y-62251455D01*
X58503498Y-62264241D01*
X58559513Y-62361260D01*
X58559515Y-62361263D01*
X58638737Y-62440485D01*
X58638739Y-62440486D01*
X58735759Y-62496501D01*
X58735757Y-62496501D01*
X58735761Y-62496502D01*
X58735763Y-62496503D01*
X58843982Y-62525500D01*
X58843984Y-62525500D01*
X58956016Y-62525500D01*
X58956018Y-62525500D01*
X59064237Y-62496503D01*
X59064239Y-62496501D01*
X59064241Y-62496501D01*
X59093064Y-62479859D01*
X59161263Y-62440485D01*
X59240485Y-62361263D01*
X59296503Y-62264237D01*
X59325500Y-62156018D01*
X59325500Y-62126337D01*
X59344407Y-62068146D01*
X59354496Y-62056333D01*
X60676334Y-60734496D01*
X60730851Y-60706719D01*
X60746338Y-60705500D01*
X60756016Y-60705500D01*
X60756018Y-60705500D01*
X60864237Y-60676503D01*
X60864239Y-60676501D01*
X60864241Y-60676501D01*
X60893064Y-60659859D01*
X60961263Y-60620485D01*
X60962253Y-60619494D01*
X60963148Y-60619038D01*
X60966413Y-60616534D01*
X60966877Y-60617138D01*
X61016768Y-60591719D01*
X61032255Y-60590500D01*
X64238663Y-60590500D01*
X64296854Y-60609407D01*
X64308667Y-60619496D01*
X64545504Y-60856333D01*
X64573281Y-60910850D01*
X64574500Y-60926337D01*
X64574500Y-60956018D01*
X64600072Y-61051455D01*
X64603498Y-61064241D01*
X64659513Y-61161260D01*
X64659515Y-61161263D01*
X64738737Y-61240485D01*
X64738739Y-61240486D01*
X64835759Y-61296501D01*
X64835757Y-61296501D01*
X64835761Y-61296502D01*
X64835763Y-61296503D01*
X64943982Y-61325500D01*
X64943984Y-61325500D01*
X65056016Y-61325500D01*
X65056018Y-61325500D01*
X65164237Y-61296503D01*
X65164239Y-61296501D01*
X65164241Y-61296501D01*
X65193064Y-61279859D01*
X65261263Y-61240485D01*
X65340485Y-61161263D01*
X65396503Y-61064237D01*
X65425500Y-60956018D01*
X65425500Y-60843982D01*
X65396503Y-60735763D01*
X65396501Y-60735760D01*
X65396501Y-60735758D01*
X65340486Y-60638739D01*
X65340485Y-60638737D01*
X65261263Y-60559515D01*
X65261260Y-60559513D01*
X65164240Y-60503498D01*
X65164242Y-60503498D01*
X65122251Y-60492247D01*
X65056018Y-60474500D01*
X65056016Y-60474500D01*
X65026337Y-60474500D01*
X64968146Y-60455593D01*
X64956334Y-60445504D01*
X64578371Y-60067542D01*
X64578366Y-60067538D01*
X64512132Y-60029298D01*
X64512134Y-60029298D01*
X64483465Y-60021616D01*
X64438245Y-60009500D01*
X64438243Y-60009500D01*
X61072256Y-60009500D01*
X61014065Y-59990593D01*
X61002253Y-59980504D01*
X60961262Y-59939514D01*
X60864240Y-59883498D01*
X60864242Y-59883498D01*
X60822251Y-59872247D01*
X60756018Y-59854500D01*
X60643982Y-59854500D01*
X60577748Y-59872247D01*
X60535758Y-59883498D01*
X60438739Y-59939513D01*
X60359513Y-60018739D01*
X60303498Y-60115758D01*
X60274500Y-60223983D01*
X60274500Y-60273662D01*
X60255593Y-60331853D01*
X60245504Y-60343666D01*
X58943667Y-61645504D01*
X58889150Y-61673281D01*
X58873663Y-61674500D01*
X58843982Y-61674500D01*
X58777748Y-61692247D01*
X58735758Y-61703498D01*
X58638739Y-61759513D01*
X58559513Y-61838739D01*
X58503498Y-61935758D01*
X58503497Y-61935763D01*
X58474500Y-62043982D01*
X20300500Y-62043982D01*
X20300500Y-57543982D01*
X61774500Y-57543982D01*
X61774500Y-57656018D01*
X61775925Y-57661336D01*
X61803498Y-57764241D01*
X61859513Y-57861260D01*
X61859515Y-57861263D01*
X61938737Y-57940485D01*
X61938739Y-57940486D01*
X62035759Y-57996501D01*
X62035757Y-57996501D01*
X62035761Y-57996502D01*
X62035763Y-57996503D01*
X62143982Y-58025500D01*
X62143984Y-58025500D01*
X62256016Y-58025500D01*
X62256018Y-58025500D01*
X62364237Y-57996503D01*
X62364239Y-57996501D01*
X62364241Y-57996501D01*
X62421869Y-57963229D01*
X62461263Y-57940485D01*
X62540485Y-57861263D01*
X62596503Y-57764237D01*
X62625500Y-57656018D01*
X62625500Y-57626337D01*
X62644407Y-57568146D01*
X62654496Y-57556333D01*
X63756333Y-56454496D01*
X63808079Y-56427198D01*
X63817128Y-56425500D01*
X63856018Y-56425500D01*
X63946896Y-56401149D01*
X63950602Y-56400454D01*
X63977374Y-56403917D01*
X64004338Y-56405331D01*
X64007388Y-56407801D01*
X64011281Y-56408305D01*
X64030908Y-56426847D01*
X64051888Y-56443837D01*
X64052903Y-56447627D01*
X64055757Y-56450323D01*
X64060737Y-56476863D01*
X64067724Y-56502937D01*
X64066442Y-56507263D01*
X64067042Y-56510459D01*
X64062923Y-56519143D01*
X64054596Y-56547256D01*
X64003498Y-56635758D01*
X64003497Y-56635763D01*
X63974500Y-56743982D01*
X63974500Y-56856018D01*
X63990438Y-56915500D01*
X64003498Y-56964241D01*
X64059513Y-57061260D01*
X64059515Y-57061263D01*
X64138737Y-57140485D01*
X64138739Y-57140486D01*
X64235759Y-57196501D01*
X64235757Y-57196501D01*
X64235761Y-57196502D01*
X64235763Y-57196503D01*
X64343982Y-57225500D01*
X64373663Y-57225500D01*
X64431854Y-57244407D01*
X64443667Y-57254496D01*
X64780503Y-57591332D01*
X64808280Y-57645849D01*
X64809499Y-57661336D01*
X64809499Y-57947744D01*
X64790592Y-58005935D01*
X64780504Y-58017746D01*
X64759513Y-58038736D01*
X64703497Y-58135758D01*
X64703496Y-58135763D01*
X64674499Y-58243982D01*
X64674499Y-58356018D01*
X64700071Y-58451455D01*
X64703497Y-58464241D01*
X64759512Y-58561260D01*
X64759514Y-58561263D01*
X64838736Y-58640485D01*
X64838738Y-58640486D01*
X64935758Y-58696501D01*
X64935756Y-58696501D01*
X64935760Y-58696502D01*
X64935762Y-58696503D01*
X65043981Y-58725500D01*
X65043983Y-58725500D01*
X65156015Y-58725500D01*
X65156017Y-58725500D01*
X65264236Y-58696503D01*
X65264238Y-58696501D01*
X65264240Y-58696501D01*
X65293063Y-58679859D01*
X65361262Y-58640485D01*
X65440484Y-58561263D01*
X65496502Y-58464237D01*
X65525499Y-58356018D01*
X65525499Y-58243982D01*
X65496502Y-58135763D01*
X65496500Y-58135760D01*
X65496500Y-58135758D01*
X65440484Y-58038736D01*
X65419494Y-58017746D01*
X65391718Y-57963229D01*
X65390499Y-57947744D01*
X65390499Y-57461756D01*
X65390499Y-57461755D01*
X65370702Y-57387871D01*
X65370700Y-57387868D01*
X65370700Y-57387866D01*
X65332460Y-57321633D01*
X65332456Y-57321628D01*
X65278375Y-57267546D01*
X65278369Y-57267541D01*
X64854496Y-56843667D01*
X64826719Y-56789151D01*
X64825500Y-56773664D01*
X64825500Y-56743983D01*
X64801454Y-56654241D01*
X64796503Y-56635763D01*
X64796501Y-56635760D01*
X64796501Y-56635758D01*
X64744689Y-56546018D01*
X64740485Y-56538737D01*
X64661263Y-56459515D01*
X64652570Y-56454496D01*
X64564240Y-56403498D01*
X64564242Y-56403498D01*
X64522251Y-56392247D01*
X64456018Y-56374500D01*
X64343982Y-56374500D01*
X64318254Y-56381393D01*
X64256761Y-56397870D01*
X64195660Y-56394667D01*
X64148110Y-56356161D01*
X64132275Y-56297061D01*
X64145401Y-56252747D01*
X64196503Y-56164237D01*
X64225500Y-56056018D01*
X64225500Y-55943982D01*
X64196503Y-55835763D01*
X64196501Y-55835760D01*
X64196501Y-55835758D01*
X64140486Y-55738739D01*
X64140485Y-55738737D01*
X64061263Y-55659515D01*
X64061260Y-55659513D01*
X63964240Y-55603498D01*
X63964242Y-55603498D01*
X63922251Y-55592247D01*
X63856018Y-55574500D01*
X63743982Y-55574500D01*
X63677748Y-55592247D01*
X63635758Y-55603498D01*
X63538739Y-55659513D01*
X63459513Y-55738739D01*
X63403498Y-55835758D01*
X63374500Y-55943983D01*
X63374500Y-55973663D01*
X63355593Y-56031854D01*
X63345504Y-56043667D01*
X62243667Y-57145504D01*
X62189150Y-57173281D01*
X62173663Y-57174500D01*
X62143982Y-57174500D01*
X62077748Y-57192247D01*
X62035758Y-57203498D01*
X61938739Y-57259513D01*
X61859513Y-57338739D01*
X61803498Y-57435758D01*
X61796532Y-57461756D01*
X61774500Y-57543982D01*
X20300500Y-57543982D01*
X20300500Y-55143982D01*
X65874500Y-55143982D01*
X65874500Y-55256018D01*
X65900072Y-55351455D01*
X65903498Y-55364241D01*
X65959513Y-55461260D01*
X65959515Y-55461263D01*
X65980505Y-55482253D01*
X66008281Y-55536768D01*
X66009500Y-55552255D01*
X66009500Y-56137744D01*
X65990593Y-56195935D01*
X65980505Y-56207746D01*
X65959514Y-56228736D01*
X65903498Y-56325758D01*
X65903497Y-56325763D01*
X65874500Y-56433982D01*
X65874500Y-56546018D01*
X65874832Y-56547256D01*
X65903498Y-56654241D01*
X65955311Y-56743982D01*
X65959515Y-56751263D01*
X66038737Y-56830485D01*
X66038739Y-56830486D01*
X66135759Y-56886501D01*
X66135757Y-56886501D01*
X66135761Y-56886502D01*
X66135763Y-56886503D01*
X66243982Y-56915500D01*
X66243984Y-56915500D01*
X66356016Y-56915500D01*
X66356018Y-56915500D01*
X66464237Y-56886503D01*
X66464239Y-56886501D01*
X66464241Y-56886501D01*
X66493064Y-56869859D01*
X66561263Y-56830485D01*
X66640485Y-56751263D01*
X66696503Y-56654237D01*
X66725500Y-56546018D01*
X66725500Y-56433982D01*
X66696503Y-56325763D01*
X66696501Y-56325760D01*
X66696501Y-56325758D01*
X66640485Y-56228736D01*
X66619495Y-56207746D01*
X66591719Y-56153229D01*
X66590500Y-56137744D01*
X66590500Y-55552255D01*
X66609407Y-55494064D01*
X66619490Y-55482257D01*
X66640485Y-55461263D01*
X66696503Y-55364237D01*
X66725500Y-55256018D01*
X66725500Y-55143982D01*
X66696503Y-55035763D01*
X66696501Y-55035760D01*
X66696501Y-55035758D01*
X66640486Y-54938739D01*
X66640485Y-54938737D01*
X66561263Y-54859515D01*
X66561260Y-54859513D01*
X66464240Y-54803498D01*
X66464242Y-54803498D01*
X66422251Y-54792247D01*
X66356018Y-54774500D01*
X66243982Y-54774500D01*
X66177748Y-54792247D01*
X66135758Y-54803498D01*
X66038739Y-54859513D01*
X65959513Y-54938739D01*
X65903498Y-55035758D01*
X65903497Y-55035763D01*
X65874500Y-55143982D01*
X20300500Y-55143982D01*
X20300500Y-47889774D01*
X30199500Y-47889774D01*
X30199500Y-48110225D01*
X30233984Y-48327948D01*
X30302102Y-48537599D01*
X30302104Y-48537602D01*
X30302105Y-48537606D01*
X30402185Y-48734022D01*
X30531758Y-48912365D01*
X30687635Y-49068242D01*
X30865978Y-49197815D01*
X31062394Y-49297895D01*
X31272049Y-49366015D01*
X31359140Y-49379809D01*
X31489775Y-49400500D01*
X31489778Y-49400500D01*
X31710225Y-49400500D01*
X31819086Y-49383257D01*
X31927951Y-49366015D01*
X32137606Y-49297895D01*
X32334022Y-49197815D01*
X32512365Y-49068242D01*
X32668242Y-48912365D01*
X32797815Y-48734022D01*
X32897895Y-48537606D01*
X32966015Y-48327951D01*
X33000500Y-48110222D01*
X33000500Y-47889778D01*
X33000500Y-47889774D01*
X96999500Y-47889774D01*
X96999500Y-48110225D01*
X97033984Y-48327948D01*
X97102102Y-48537599D01*
X97102104Y-48537602D01*
X97102105Y-48537606D01*
X97202185Y-48734022D01*
X97331758Y-48912365D01*
X97487635Y-49068242D01*
X97665978Y-49197815D01*
X97862394Y-49297895D01*
X98072049Y-49366015D01*
X98159140Y-49379809D01*
X98289775Y-49400500D01*
X98289778Y-49400500D01*
X98510225Y-49400500D01*
X98619086Y-49383257D01*
X98727951Y-49366015D01*
X98937606Y-49297895D01*
X99134022Y-49197815D01*
X99312365Y-49068242D01*
X99468242Y-48912365D01*
X99597815Y-48734022D01*
X99697895Y-48537606D01*
X99766015Y-48327951D01*
X99800500Y-48110222D01*
X99800500Y-47889778D01*
X99800500Y-47889774D01*
X99766015Y-47672051D01*
X99766015Y-47672049D01*
X99697895Y-47462394D01*
X99597815Y-47265978D01*
X99468242Y-47087635D01*
X99312365Y-46931758D01*
X99134022Y-46802185D01*
X99134021Y-46802184D01*
X99134019Y-46802183D01*
X99044825Y-46756736D01*
X98937606Y-46702105D01*
X98937602Y-46702104D01*
X98937599Y-46702102D01*
X98727948Y-46633984D01*
X98510225Y-46599500D01*
X98510222Y-46599500D01*
X98289778Y-46599500D01*
X98289775Y-46599500D01*
X98072051Y-46633984D01*
X97862400Y-46702102D01*
X97665980Y-46802183D01*
X97576806Y-46866971D01*
X97487635Y-46931758D01*
X97331758Y-47087635D01*
X97266971Y-47176806D01*
X97202183Y-47265980D01*
X97102102Y-47462400D01*
X97033984Y-47672051D01*
X96999500Y-47889774D01*
X33000500Y-47889774D01*
X32966015Y-47672051D01*
X32966015Y-47672049D01*
X32897895Y-47462394D01*
X32797815Y-47265978D01*
X32668242Y-47087635D01*
X32512365Y-46931758D01*
X32334022Y-46802185D01*
X32334021Y-46802184D01*
X32334019Y-46802183D01*
X32244825Y-46756736D01*
X32137606Y-46702105D01*
X32137602Y-46702104D01*
X32137599Y-46702102D01*
X31927948Y-46633984D01*
X31710225Y-46599500D01*
X31710222Y-46599500D01*
X31489778Y-46599500D01*
X31489775Y-46599500D01*
X31272051Y-46633984D01*
X31062400Y-46702102D01*
X30865980Y-46802183D01*
X30776806Y-46866971D01*
X30687635Y-46931758D01*
X30531758Y-47087635D01*
X30466971Y-47176806D01*
X30402183Y-47265980D01*
X30302102Y-47462400D01*
X30233984Y-47672051D01*
X30199500Y-47889774D01*
X20300500Y-47889774D01*
X20300500Y-31489774D01*
X33599500Y-31489774D01*
X33599500Y-31710225D01*
X33633984Y-31927948D01*
X33702102Y-32137599D01*
X33702104Y-32137602D01*
X33702105Y-32137606D01*
X33802185Y-32334022D01*
X33931758Y-32512365D01*
X34087635Y-32668242D01*
X34265978Y-32797815D01*
X34462394Y-32897895D01*
X34672049Y-32966015D01*
X34759140Y-32979809D01*
X34889775Y-33000500D01*
X34889778Y-33000500D01*
X35110225Y-33000500D01*
X35219086Y-32983257D01*
X35327951Y-32966015D01*
X35537606Y-32897895D01*
X35734022Y-32797815D01*
X35912365Y-32668242D01*
X36068242Y-32512365D01*
X36197815Y-32334022D01*
X36297895Y-32137606D01*
X36366015Y-31927951D01*
X36400500Y-31710222D01*
X36400500Y-31489778D01*
X36400500Y-31489774D01*
X48599500Y-31489774D01*
X48599500Y-31710225D01*
X48633984Y-31927948D01*
X48702102Y-32137599D01*
X48702104Y-32137602D01*
X48702105Y-32137606D01*
X48802185Y-32334022D01*
X48931758Y-32512365D01*
X49087635Y-32668242D01*
X49265978Y-32797815D01*
X49462394Y-32897895D01*
X49672049Y-32966015D01*
X49759140Y-32979809D01*
X49889775Y-33000500D01*
X49889778Y-33000500D01*
X50110225Y-33000500D01*
X50219086Y-32983257D01*
X50327951Y-32966015D01*
X50537606Y-32897895D01*
X50734022Y-32797815D01*
X50912365Y-32668242D01*
X51068242Y-32512365D01*
X51197815Y-32334022D01*
X51297895Y-32137606D01*
X51366015Y-31927951D01*
X51400500Y-31710222D01*
X51400500Y-31489778D01*
X51400500Y-31489774D01*
X63599500Y-31489774D01*
X63599500Y-31710225D01*
X63633984Y-31927948D01*
X63702102Y-32137599D01*
X63702104Y-32137602D01*
X63702105Y-32137606D01*
X63802185Y-32334022D01*
X63931758Y-32512365D01*
X64087635Y-32668242D01*
X64265978Y-32797815D01*
X64462394Y-32897895D01*
X64672049Y-32966015D01*
X64759140Y-32979809D01*
X64889775Y-33000500D01*
X64889778Y-33000500D01*
X65110225Y-33000500D01*
X65219086Y-32983257D01*
X65327951Y-32966015D01*
X65537606Y-32897895D01*
X65734022Y-32797815D01*
X65912365Y-32668242D01*
X66068242Y-32512365D01*
X66197815Y-32334022D01*
X66297895Y-32137606D01*
X66366015Y-31927951D01*
X66400500Y-31710222D01*
X66400500Y-31489778D01*
X66400500Y-31489774D01*
X78599500Y-31489774D01*
X78599500Y-31710225D01*
X78633984Y-31927948D01*
X78702102Y-32137599D01*
X78702104Y-32137602D01*
X78702105Y-32137606D01*
X78802185Y-32334022D01*
X78931758Y-32512365D01*
X79087635Y-32668242D01*
X79265978Y-32797815D01*
X79462394Y-32897895D01*
X79672049Y-32966015D01*
X79759140Y-32979809D01*
X79889775Y-33000500D01*
X79889778Y-33000500D01*
X80110225Y-33000500D01*
X80219086Y-32983257D01*
X80327951Y-32966015D01*
X80537606Y-32897895D01*
X80734022Y-32797815D01*
X80912365Y-32668242D01*
X81068242Y-32512365D01*
X81197815Y-32334022D01*
X81297895Y-32137606D01*
X81366015Y-31927951D01*
X81400500Y-31710222D01*
X81400500Y-31489778D01*
X81400500Y-31489774D01*
X93599500Y-31489774D01*
X93599500Y-31710225D01*
X93633984Y-31927948D01*
X93702102Y-32137599D01*
X93702104Y-32137602D01*
X93702105Y-32137606D01*
X93802185Y-32334022D01*
X93931758Y-32512365D01*
X94087635Y-32668242D01*
X94265978Y-32797815D01*
X94462394Y-32897895D01*
X94672049Y-32966015D01*
X94759140Y-32979809D01*
X94889775Y-33000500D01*
X94889778Y-33000500D01*
X95110225Y-33000500D01*
X95219086Y-32983257D01*
X95327951Y-32966015D01*
X95537606Y-32897895D01*
X95734022Y-32797815D01*
X95912365Y-32668242D01*
X96068242Y-32512365D01*
X96197815Y-32334022D01*
X96297895Y-32137606D01*
X96366015Y-31927951D01*
X96400500Y-31710222D01*
X96400500Y-31489778D01*
X96400500Y-31489774D01*
X96366015Y-31272051D01*
X96366015Y-31272049D01*
X96297895Y-31062394D01*
X96197815Y-30865978D01*
X96068242Y-30687635D01*
X95912365Y-30531758D01*
X95734022Y-30402185D01*
X95734021Y-30402184D01*
X95734019Y-30402183D01*
X95644825Y-30356736D01*
X95537606Y-30302105D01*
X95537602Y-30302104D01*
X95537599Y-30302102D01*
X95327948Y-30233984D01*
X95110225Y-30199500D01*
X95110222Y-30199500D01*
X94889778Y-30199500D01*
X94889775Y-30199500D01*
X94672051Y-30233984D01*
X94462400Y-30302102D01*
X94265980Y-30402183D01*
X94176806Y-30466971D01*
X94087635Y-30531758D01*
X93931758Y-30687635D01*
X93866971Y-30776806D01*
X93802183Y-30865980D01*
X93702102Y-31062400D01*
X93633984Y-31272051D01*
X93599500Y-31489774D01*
X81400500Y-31489774D01*
X81366015Y-31272051D01*
X81366015Y-31272049D01*
X81297895Y-31062394D01*
X81197815Y-30865978D01*
X81068242Y-30687635D01*
X80912365Y-30531758D01*
X80734022Y-30402185D01*
X80734021Y-30402184D01*
X80734019Y-30402183D01*
X80644825Y-30356736D01*
X80537606Y-30302105D01*
X80537602Y-30302104D01*
X80537599Y-30302102D01*
X80327948Y-30233984D01*
X80110225Y-30199500D01*
X80110222Y-30199500D01*
X79889778Y-30199500D01*
X79889775Y-30199500D01*
X79672051Y-30233984D01*
X79462400Y-30302102D01*
X79265980Y-30402183D01*
X79176806Y-30466971D01*
X79087635Y-30531758D01*
X78931758Y-30687635D01*
X78866971Y-30776806D01*
X78802183Y-30865980D01*
X78702102Y-31062400D01*
X78633984Y-31272051D01*
X78599500Y-31489774D01*
X66400500Y-31489774D01*
X66366015Y-31272051D01*
X66366015Y-31272049D01*
X66297895Y-31062394D01*
X66197815Y-30865978D01*
X66068242Y-30687635D01*
X65912365Y-30531758D01*
X65734022Y-30402185D01*
X65734021Y-30402184D01*
X65734019Y-30402183D01*
X65644825Y-30356736D01*
X65537606Y-30302105D01*
X65537602Y-30302104D01*
X65537599Y-30302102D01*
X65327948Y-30233984D01*
X65110225Y-30199500D01*
X65110222Y-30199500D01*
X64889778Y-30199500D01*
X64889775Y-30199500D01*
X64672051Y-30233984D01*
X64462400Y-30302102D01*
X64265980Y-30402183D01*
X64176806Y-30466971D01*
X64087635Y-30531758D01*
X63931758Y-30687635D01*
X63866971Y-30776806D01*
X63802183Y-30865980D01*
X63702102Y-31062400D01*
X63633984Y-31272051D01*
X63599500Y-31489774D01*
X51400500Y-31489774D01*
X51366015Y-31272051D01*
X51366015Y-31272049D01*
X51297895Y-31062394D01*
X51197815Y-30865978D01*
X51068242Y-30687635D01*
X50912365Y-30531758D01*
X50734022Y-30402185D01*
X50734021Y-30402184D01*
X50734019Y-30402183D01*
X50644825Y-30356736D01*
X50537606Y-30302105D01*
X50537602Y-30302104D01*
X50537599Y-30302102D01*
X50327948Y-30233984D01*
X50110225Y-30199500D01*
X50110222Y-30199500D01*
X49889778Y-30199500D01*
X49889775Y-30199500D01*
X49672051Y-30233984D01*
X49462400Y-30302102D01*
X49265980Y-30402183D01*
X49176806Y-30466971D01*
X49087635Y-30531758D01*
X48931758Y-30687635D01*
X48866971Y-30776806D01*
X48802183Y-30865980D01*
X48702102Y-31062400D01*
X48633984Y-31272051D01*
X48599500Y-31489774D01*
X36400500Y-31489774D01*
X36366015Y-31272051D01*
X36366015Y-31272049D01*
X36297895Y-31062394D01*
X36197815Y-30865978D01*
X36068242Y-30687635D01*
X35912365Y-30531758D01*
X35734022Y-30402185D01*
X35734021Y-30402184D01*
X35734019Y-30402183D01*
X35644825Y-30356736D01*
X35537606Y-30302105D01*
X35537602Y-30302104D01*
X35537599Y-30302102D01*
X35327948Y-30233984D01*
X35110225Y-30199500D01*
X35110222Y-30199500D01*
X34889778Y-30199500D01*
X34889775Y-30199500D01*
X34672051Y-30233984D01*
X34462400Y-30302102D01*
X34265980Y-30402183D01*
X34176806Y-30466971D01*
X34087635Y-30531758D01*
X33931758Y-30687635D01*
X33866971Y-30776806D01*
X33802183Y-30865980D01*
X33702102Y-31062400D01*
X33633984Y-31272051D01*
X33599500Y-31489774D01*
X20300500Y-31489774D01*
X20300500Y-24882643D01*
X23209500Y-24882643D01*
X23209500Y-25117356D01*
X23240136Y-25350059D01*
X23300882Y-25576769D01*
X23300885Y-25576776D01*
X23390701Y-25793612D01*
X23508061Y-25996886D01*
X23650936Y-26183085D01*
X23650938Y-26183087D01*
X23650942Y-26183092D01*
X23816908Y-26349058D01*
X23816912Y-26349061D01*
X23816914Y-26349063D01*
X24003113Y-26491938D01*
X24003117Y-26491941D01*
X24206383Y-26609296D01*
X24206384Y-26609296D01*
X24206387Y-26609298D01*
X24264877Y-26633525D01*
X24423228Y-26699117D01*
X24649941Y-26759864D01*
X24882644Y-26790500D01*
X24882645Y-26790500D01*
X25117355Y-26790500D01*
X25117356Y-26790500D01*
X25350059Y-26759864D01*
X25576772Y-26699117D01*
X25793617Y-26609296D01*
X25996883Y-26491941D01*
X26183092Y-26349058D01*
X26349058Y-26183092D01*
X26491941Y-25996883D01*
X26609296Y-25793617D01*
X26699117Y-25576772D01*
X26759864Y-25350059D01*
X26790500Y-25117356D01*
X26790500Y-24882644D01*
X26790500Y-24882643D01*
X103209500Y-24882643D01*
X103209500Y-25117356D01*
X103240136Y-25350059D01*
X103300882Y-25576769D01*
X103300885Y-25576776D01*
X103390701Y-25793612D01*
X103508061Y-25996886D01*
X103650936Y-26183085D01*
X103650938Y-26183087D01*
X103650942Y-26183092D01*
X103816908Y-26349058D01*
X103816912Y-26349061D01*
X103816914Y-26349063D01*
X104003113Y-26491938D01*
X104003117Y-26491941D01*
X104206383Y-26609296D01*
X104206384Y-26609296D01*
X104206387Y-26609298D01*
X104264877Y-26633525D01*
X104423228Y-26699117D01*
X104649941Y-26759864D01*
X104882644Y-26790500D01*
X104882645Y-26790500D01*
X105117355Y-26790500D01*
X105117356Y-26790500D01*
X105350059Y-26759864D01*
X105576772Y-26699117D01*
X105793617Y-26609296D01*
X105996883Y-26491941D01*
X106183092Y-26349058D01*
X106349058Y-26183092D01*
X106491941Y-25996883D01*
X106609296Y-25793617D01*
X106699117Y-25576772D01*
X106759864Y-25350059D01*
X106790500Y-25117356D01*
X106790500Y-24882644D01*
X106759864Y-24649941D01*
X106699117Y-24423228D01*
X106609296Y-24206383D01*
X106491941Y-24003117D01*
X106349058Y-23816908D01*
X106183092Y-23650942D01*
X106183087Y-23650938D01*
X106183085Y-23650936D01*
X105996886Y-23508061D01*
X105793612Y-23390701D01*
X105635266Y-23325112D01*
X105576772Y-23300883D01*
X105576770Y-23300882D01*
X105576769Y-23300882D01*
X105350059Y-23240136D01*
X105117356Y-23209500D01*
X104882644Y-23209500D01*
X104882643Y-23209500D01*
X104649940Y-23240136D01*
X104423230Y-23300882D01*
X104423223Y-23300885D01*
X104206387Y-23390701D01*
X104003113Y-23508061D01*
X103816914Y-23650936D01*
X103650936Y-23816914D01*
X103508061Y-24003113D01*
X103390701Y-24206387D01*
X103300885Y-24423223D01*
X103300882Y-24423230D01*
X103240136Y-24649940D01*
X103209500Y-24882643D01*
X26790500Y-24882643D01*
X26759864Y-24649941D01*
X26699117Y-24423228D01*
X26609296Y-24206383D01*
X26491941Y-24003117D01*
X26349058Y-23816908D01*
X26183092Y-23650942D01*
X26183087Y-23650938D01*
X26183085Y-23650936D01*
X25996886Y-23508061D01*
X25793612Y-23390701D01*
X25635266Y-23325112D01*
X25576772Y-23300883D01*
X25576770Y-23300882D01*
X25576769Y-23300882D01*
X25350059Y-23240136D01*
X25117356Y-23209500D01*
X24882644Y-23209500D01*
X24882643Y-23209500D01*
X24649940Y-23240136D01*
X24423230Y-23300882D01*
X24423223Y-23300885D01*
X24206387Y-23390701D01*
X24003113Y-23508061D01*
X23816914Y-23650936D01*
X23650936Y-23816914D01*
X23508061Y-24003113D01*
X23390701Y-24206387D01*
X23300885Y-24423223D01*
X23300882Y-24423230D01*
X23240136Y-24649940D01*
X23209500Y-24882643D01*
X20300500Y-24882643D01*
X20300500Y-20399500D01*
X20319407Y-20341309D01*
X20368907Y-20305345D01*
X20399500Y-20300500D01*
X109600500Y-20300500D01*
X109658691Y-20319407D01*
G37*
%TD.AperFunction*%
%TD*%
D18*
X87220000Y-62640000D03*
X68420000Y-44050000D03*
X97500000Y-72500000D03*
X77500000Y-22500000D03*
X55400000Y-54180000D03*
X56530000Y-48900000D03*
X47500000Y-32500000D03*
X89840000Y-62710000D03*
X37500000Y-67500000D03*
X51250000Y-56960000D03*
X59470000Y-41200000D03*
X71010000Y-42540000D03*
X97500000Y-27500000D03*
X65610000Y-39520000D03*
X51530000Y-48860000D03*
X42730000Y-80000000D03*
X81450000Y-57080000D03*
X22500000Y-72500000D03*
X38850000Y-63580000D03*
X48530000Y-48830000D03*
X67970000Y-42690000D03*
X92500000Y-52500000D03*
X73890000Y-52020000D03*
X35770000Y-36020000D03*
X74740000Y-48890000D03*
X58610000Y-40700000D03*
X82500000Y-82500000D03*
X79700000Y-55910000D03*
X67500000Y-42500000D03*
X42500000Y-37500000D03*
X57030000Y-44680000D03*
X67500000Y-32500000D03*
X59960000Y-47380000D03*
X79750000Y-57630000D03*
X82500000Y-62500000D03*
X107500000Y-47500000D03*
X83370000Y-41970000D03*
X62330000Y-44490000D03*
X87500000Y-52500000D03*
X80590000Y-43100000D03*
X63300000Y-50810000D03*
X40930000Y-39660000D03*
X65569999Y-40520000D03*
X77440000Y-37180000D03*
X75670000Y-43590000D03*
X77810000Y-44230000D03*
X43780000Y-61960000D03*
X72280000Y-52630000D03*
X76170000Y-39540000D03*
X107500000Y-82500000D03*
X41450000Y-38360000D03*
X42500000Y-67500000D03*
X53740000Y-55290000D03*
X102500000Y-22500000D03*
X40510000Y-62470000D03*
X55530000Y-48890000D03*
X51710000Y-36690000D03*
X73160000Y-46120000D03*
X22500000Y-62500000D03*
X44610000Y-61410000D03*
X32500000Y-42500000D03*
X49800000Y-41750000D03*
X73110000Y-53180000D03*
X56880000Y-39690000D03*
X77500000Y-62500000D03*
X50500000Y-47450000D03*
X76740000Y-48870000D03*
X69790000Y-50960000D03*
X97500000Y-32500000D03*
X71400000Y-50350000D03*
X54570000Y-54730000D03*
X72270000Y-40190000D03*
X64180000Y-40480000D03*
X69690000Y-41690000D03*
X27500000Y-82500000D03*
X78090000Y-56520000D03*
X37500000Y-22500000D03*
X27500000Y-32500000D03*
X90740000Y-48760000D03*
X68960000Y-50400000D03*
X87500000Y-82500000D03*
X92500000Y-47350000D03*
X65480000Y-43520000D03*
X51500000Y-47460000D03*
X77500000Y-27500000D03*
X40550000Y-47370000D03*
X102500000Y-62500000D03*
X57500000Y-37500000D03*
X52500000Y-82500000D03*
X36810000Y-36480000D03*
X72500000Y-47500000D03*
X32500000Y-37500000D03*
X85980000Y-39400000D03*
X79670000Y-43480000D03*
X69280000Y-43550000D03*
X70620000Y-51510000D03*
D19*
X65750000Y-47250000D03*
D18*
X57530000Y-48910000D03*
X79500000Y-47450000D03*
X52610000Y-54360000D03*
X52500000Y-22500000D03*
X32500000Y-52500000D03*
X80740000Y-48840000D03*
X70100000Y-45850000D03*
X55930000Y-52140000D03*
X62500000Y-42500000D03*
X70570000Y-49790000D03*
X38020000Y-64140000D03*
X48500000Y-47430000D03*
X80580000Y-58190000D03*
X67500000Y-37500000D03*
X89010000Y-62150000D03*
X49530000Y-48840000D03*
X79200000Y-36140000D03*
X46270000Y-60300000D03*
X47500000Y-77500000D03*
X54980000Y-45360000D03*
X37190000Y-64690000D03*
X53310000Y-43170000D03*
X52500000Y-77500000D03*
X50530000Y-48850000D03*
X47500000Y-37500000D03*
X56100000Y-44300000D03*
X85050000Y-39780000D03*
X71410000Y-40690000D03*
X102500000Y-57500000D03*
X84860000Y-59370000D03*
X37500000Y-52500000D03*
X36290000Y-37780000D03*
X50420000Y-57510000D03*
X102500000Y-47500000D03*
X74770000Y-54290000D03*
X72500000Y-42500000D03*
X65540000Y-41520000D03*
X77500000Y-47500000D03*
X51010000Y-37900000D03*
X47930000Y-59180000D03*
X51780000Y-54920000D03*
X97500000Y-52500000D03*
X81740000Y-48830000D03*
X27500000Y-22500000D03*
X87500000Y-27500000D03*
X32500000Y-67500000D03*
X77260000Y-55960000D03*
X27500000Y-57500000D03*
X65510000Y-42520000D03*
X77030000Y-39040000D03*
X102500000Y-72500000D03*
X85740000Y-48800000D03*
X59530000Y-48920000D03*
X44000000Y-80000000D03*
X70320000Y-61060000D03*
X92470000Y-36770000D03*
X64069998Y-57510000D03*
X39550000Y-47360000D03*
X67500000Y-27500000D03*
X22500000Y-52500000D03*
X78500000Y-47460000D03*
X83070000Y-59860000D03*
X44660000Y-59690000D03*
X66569998Y-57510000D03*
X72500000Y-62500000D03*
X52500000Y-52500000D03*
X57500000Y-62500000D03*
X69740000Y-49230000D03*
X82500000Y-42500000D03*
X86520000Y-60480000D03*
X47500000Y-52500000D03*
X39590000Y-37610000D03*
X80410000Y-41660000D03*
X38530000Y-48760000D03*
X54500000Y-47480000D03*
X77500000Y-67500000D03*
X60510000Y-48930000D03*
X77500000Y-32500000D03*
X75020000Y-45360000D03*
X36770000Y-66599999D03*
X54470000Y-39910000D03*
X102500000Y-52500000D03*
X72500000Y-22500000D03*
X72500000Y-77500000D03*
X44530000Y-48800000D03*
X80530000Y-56470000D03*
X56760000Y-51580000D03*
X54240000Y-43550000D03*
X60440000Y-59320000D03*
X42500000Y-47500000D03*
X107500000Y-52500000D03*
X59500000Y-49750000D03*
X45530000Y-48810000D03*
X76580000Y-37680000D03*
X86500000Y-47390000D03*
X52500000Y-47500000D03*
X66900000Y-45850000D03*
X62010000Y-42680000D03*
X45160000Y-39860000D03*
X62500000Y-27500000D03*
X62500000Y-22500000D03*
X92500000Y-82500000D03*
X48870000Y-41370000D03*
X64080000Y-43480000D03*
X78870000Y-55360000D03*
X22500000Y-77500000D03*
X27500000Y-52500000D03*
X72230000Y-50910000D03*
X52500000Y-72500000D03*
X79740000Y-48850000D03*
X84300000Y-41600000D03*
X56500000Y-47500000D03*
X75310000Y-40040000D03*
X36530000Y-48740000D03*
X49500000Y-47440000D03*
X85690000Y-59930000D03*
X82500000Y-57500000D03*
X82500000Y-22500000D03*
X47500000Y-67500000D03*
X73130000Y-39690000D03*
X87840000Y-38650000D03*
X102500000Y-42500000D03*
X60660000Y-47530000D03*
X65640000Y-38520000D03*
X74500000Y-47490000D03*
X75550000Y-53130000D03*
X72500000Y-27500000D03*
X70490000Y-47520000D03*
X52580000Y-37190000D03*
X86910000Y-39030000D03*
X72890000Y-44720000D03*
X57760000Y-46490000D03*
X54270000Y-53250000D03*
X53440000Y-37690000D03*
X89700000Y-37900000D03*
X22500000Y-82500000D03*
X51090000Y-42270000D03*
X55170000Y-43930000D03*
X52500000Y-27500000D03*
X46560000Y-58420000D03*
X45440000Y-60850000D03*
X61290000Y-50230000D03*
X69490000Y-47530000D03*
X54050000Y-44980000D03*
X89500000Y-47370000D03*
X72230000Y-46490000D03*
X32500000Y-22500000D03*
X80500000Y-47440000D03*
D19*
X65000000Y-47250000D03*
D18*
X87090000Y-40470000D03*
X77500000Y-42500000D03*
X94270000Y-35960000D03*
X74090000Y-45740000D03*
X61360000Y-43920000D03*
X92500000Y-77500000D03*
X42500000Y-32500000D03*
X93580000Y-37830000D03*
X32500000Y-57500000D03*
X91740000Y-48750000D03*
X61570000Y-57010000D03*
X32500000Y-77500000D03*
X85500000Y-47400000D03*
X64209999Y-39480000D03*
X102500000Y-27500000D03*
X56020000Y-39190000D03*
X92500000Y-42500000D03*
X22500000Y-67500000D03*
X52190000Y-44230000D03*
X75950000Y-44980000D03*
X77500000Y-52500000D03*
X37220000Y-38150000D03*
X72500000Y-37500000D03*
X45490000Y-59130000D03*
X87500000Y-57500000D03*
X55330000Y-40410000D03*
X77890000Y-38540000D03*
X47500000Y-42500000D03*
X50120000Y-56030000D03*
X72500000Y-32500000D03*
X92500000Y-62500000D03*
X72500000Y-82500000D03*
X46540000Y-80000000D03*
X68730000Y-78790000D03*
X37550000Y-47350000D03*
X71740000Y-48910000D03*
X37500000Y-77500000D03*
X97500000Y-37500000D03*
X107500000Y-72500000D03*
X97500000Y-77500000D03*
X72500000Y-72500000D03*
X55100000Y-52690000D03*
X61190000Y-42200000D03*
X41290000Y-63630000D03*
X86740000Y-48790000D03*
X38660000Y-37230000D03*
X60490000Y-43420000D03*
X52500000Y-32500000D03*
X88500000Y-47380000D03*
X91730000Y-38580000D03*
X90670000Y-63260000D03*
X38550000Y-47360000D03*
X82270000Y-40910000D03*
X41530000Y-48780000D03*
X73060000Y-51460000D03*
X78300000Y-36680000D03*
X52740000Y-38910000D03*
X47530000Y-48830000D03*
X56230000Y-53620000D03*
X88940000Y-39710000D03*
X83200000Y-58260000D03*
D19*
X64250000Y-48000000D03*
D18*
X92500000Y-22500000D03*
X85560000Y-61520000D03*
X42380000Y-38740000D03*
X77210000Y-54240000D03*
X90620000Y-37520000D03*
X59630000Y-42910000D03*
X91550000Y-37150000D03*
X62500000Y-32500000D03*
X52910000Y-55850000D03*
X53500000Y-47470000D03*
X42170000Y-61360000D03*
X107500000Y-62500000D03*
X78550000Y-42420000D03*
X83900000Y-60410000D03*
X62190000Y-46300000D03*
X107500000Y-57500000D03*
X43710000Y-40790000D03*
X84030000Y-58810000D03*
X32500000Y-27500000D03*
X42120000Y-63080000D03*
X43000000Y-60800000D03*
X85230000Y-41220000D03*
X37740000Y-36850000D03*
X82500000Y-77500000D03*
X68560000Y-59320000D03*
X39680000Y-63030000D03*
X73500000Y-47500000D03*
X90500000Y-47360000D03*
X32500000Y-62500000D03*
X92500000Y-67500000D03*
X64269999Y-37480000D03*
X84500000Y-47410000D03*
X84130000Y-40160000D03*
X41340000Y-61910000D03*
X107500000Y-32500000D03*
X32500000Y-72500000D03*
X73740000Y-48900000D03*
X83500000Y-47420000D03*
X86160000Y-40840000D03*
X47500000Y-27500000D03*
X42790000Y-40410000D03*
X92330000Y-64379999D03*
X72500000Y-57500000D03*
X38140000Y-38530000D03*
X60710000Y-50620000D03*
X48490000Y-42730000D03*
X72740000Y-48900000D03*
X92500000Y-32500000D03*
X51270000Y-43850000D03*
X87500000Y-47500000D03*
X60780000Y-46200000D03*
X47100000Y-59740000D03*
X58890000Y-45430000D03*
X71030000Y-45470000D03*
X88010000Y-40090000D03*
X48760000Y-58630000D03*
X36550000Y-47340000D03*
X32500000Y-82500000D03*
X92660000Y-38210000D03*
X27500000Y-47500000D03*
X42500000Y-82500000D03*
X40000000Y-39280000D03*
X82500000Y-47500000D03*
X102500000Y-77500000D03*
X76430000Y-55410000D03*
X32500000Y-32500000D03*
X57500000Y-22500000D03*
X22500000Y-42500000D03*
X93160000Y-64930000D03*
X27500000Y-72500000D03*
X88050000Y-63190000D03*
X87740000Y-48780000D03*
X49610000Y-36910000D03*
X57910000Y-41910000D03*
X78750000Y-38040000D03*
X37500000Y-57500000D03*
X47500000Y-82500000D03*
X40520000Y-37980000D03*
X43530000Y-48790000D03*
X47500000Y-57500000D03*
X49420000Y-43100000D03*
X97500000Y-62500000D03*
X57500000Y-72500000D03*
X88180000Y-61590000D03*
X77500000Y-72500000D03*
X102500000Y-67500000D03*
X57740000Y-40200000D03*
X38800000Y-65300000D03*
X83740000Y-48820000D03*
X58690000Y-46860000D03*
X41860000Y-40040000D03*
X74450000Y-40540000D03*
X94890000Y-37280000D03*
X62500000Y-37500000D03*
X70550000Y-41190000D03*
X60330000Y-41700000D03*
X57060000Y-53070000D03*
X78040000Y-54800000D03*
X75500000Y-47480000D03*
X62880000Y-43180000D03*
D19*
X65750000Y-48000000D03*
D18*
X46560000Y-41950000D03*
X43310000Y-39110000D03*
X22500000Y-22500000D03*
X44500000Y-47400000D03*
X47500000Y-47500000D03*
X71490000Y-47510000D03*
X79960000Y-37330000D03*
X97500000Y-82500000D03*
X64110000Y-42480000D03*
X41530000Y-47380000D03*
X50760000Y-36100000D03*
X58420000Y-50470000D03*
X57500000Y-82500000D03*
X65170000Y-76600000D03*
X88880000Y-63750000D03*
D19*
X64250000Y-47250000D03*
D18*
X65330000Y-63620000D03*
X77500000Y-77500000D03*
X59550000Y-51400000D03*
X84730000Y-60970000D03*
X73810000Y-44340000D03*
X48460000Y-57140000D03*
X42500000Y-42500000D03*
X102500000Y-82500000D03*
X82740000Y-48820000D03*
X71960000Y-45090000D03*
X92500000Y-27500000D03*
X50950000Y-55470000D03*
X97500000Y-22500000D03*
X72730000Y-41540000D03*
X73940000Y-53740000D03*
X45500000Y-47410000D03*
X37530000Y-48750000D03*
X27500000Y-27500000D03*
X37500000Y-72500000D03*
X49590000Y-58070000D03*
X62530000Y-70500000D03*
X77500000Y-82500000D03*
X87500000Y-37500000D03*
X89710000Y-64300000D03*
X34720000Y-36940000D03*
X87500000Y-42500000D03*
X89740000Y-48770000D03*
X68830000Y-42190000D03*
X42500000Y-27500000D03*
X40530000Y-48770000D03*
D19*
X65000000Y-48750000D03*
D18*
X107500000Y-42500000D03*
X88770000Y-38270000D03*
X77740000Y-48860000D03*
X93400000Y-36390000D03*
X71870000Y-42040000D03*
X53440000Y-53810000D03*
X39530000Y-48760000D03*
X58770000Y-42410000D03*
X65670000Y-37520000D03*
X83200000Y-40530000D03*
X55910000Y-45740000D03*
X27500000Y-62500000D03*
X79480000Y-42040000D03*
X78920000Y-57080000D03*
X73990000Y-39190000D03*
X88740000Y-48780000D03*
X47010000Y-40620000D03*
X40460000Y-64190000D03*
X97500000Y-42500000D03*
X36300000Y-65280000D03*
X57590000Y-51030000D03*
X57050000Y-41410000D03*
X52080000Y-56400000D03*
X74850000Y-38680000D03*
X57500000Y-42500000D03*
X97500000Y-57500000D03*
X75720000Y-38180000D03*
X27500000Y-67500000D03*
X52500000Y-62500000D03*
X78740000Y-43850000D03*
X91500000Y-47350000D03*
X76880000Y-44610000D03*
X71300000Y-46870000D03*
X44640000Y-41160000D03*
X37500000Y-62500000D03*
X70740000Y-48920000D03*
X92500000Y-57500000D03*
X50340000Y-43480000D03*
X58530000Y-48910000D03*
X53610000Y-39410000D03*
X64250000Y-53110000D03*
X87500000Y-67500000D03*
X56190000Y-40910000D03*
X107500000Y-37500000D03*
X37970000Y-65860000D03*
X54300000Y-38190000D03*
X42500000Y-52500000D03*
X81500000Y-47430000D03*
X102500000Y-32500000D03*
X90800000Y-38960000D03*
X52530000Y-48870000D03*
X87500000Y-32500000D03*
X53120000Y-44610000D03*
X69170000Y-46220000D03*
X64239999Y-38480000D03*
X89870000Y-39340000D03*
X91370000Y-65420000D03*
X82500000Y-32500000D03*
X59810000Y-45810000D03*
X90540000Y-64860000D03*
X22500000Y-32500000D03*
X78740000Y-48860000D03*
X22500000Y-27500000D03*
X53530000Y-48870000D03*
D19*
X64250000Y-48750000D03*
D18*
X64140000Y-41480000D03*
X55500000Y-47490000D03*
X37500000Y-42500000D03*
X85220000Y-75700000D03*
X81340000Y-41290000D03*
X67500000Y-22500000D03*
X67560000Y-44550000D03*
X57500000Y-67500000D03*
X51880000Y-38400000D03*
X47500000Y-62500000D03*
X86390000Y-62080000D03*
X54530000Y-48880000D03*
X47940000Y-40990000D03*
X77500000Y-57500000D03*
X75600000Y-54850000D03*
X58720000Y-51950000D03*
X57500000Y-32500000D03*
X97500000Y-67500000D03*
X82500000Y-37500000D03*
X107500000Y-77500000D03*
X107500000Y-27500000D03*
X39070000Y-38910000D03*
X72500000Y-67500000D03*
X87500000Y-77500000D03*
X42950000Y-62520000D03*
X82500000Y-72500000D03*
X52500000Y-42500000D03*
X74740000Y-43960000D03*
X87350000Y-61040000D03*
X42500000Y-57500000D03*
X70140000Y-43040000D03*
X46500000Y-47420000D03*
X39630000Y-64739999D03*
X57500000Y-47500000D03*
X92500000Y-72500000D03*
X44230000Y-39490000D03*
X107500000Y-22500000D03*
X47500000Y-22500000D03*
X58730000Y-47520000D03*
X43830000Y-60250000D03*
X92200000Y-65970000D03*
X93100000Y-48740000D03*
X82240000Y-59300000D03*
X62500000Y-72500000D03*
X45560000Y-41540000D03*
X37500000Y-27500000D03*
X57500000Y-27500000D03*
X82500000Y-67500000D03*
X89530000Y-75860000D03*
X27500000Y-42500000D03*
X81410000Y-58740000D03*
X70030000Y-70500000D03*
X46530000Y-48820000D03*
X37500000Y-82500000D03*
X107500000Y-67500000D03*
X22500000Y-57500000D03*
X57960000Y-45060000D03*
X76640000Y-43190000D03*
X75740000Y-48880000D03*
X46080000Y-40240000D03*
X43500000Y-47390000D03*
X42500000Y-22500000D03*
X49290000Y-56590000D03*
X76500000Y-47470000D03*
X85220000Y-73420000D03*
X82500000Y-27500000D03*
X81650000Y-74500000D03*
X56840000Y-46110000D03*
X71450000Y-52070000D03*
X42530000Y-48790000D03*
X84740000Y-48810000D03*
X55160000Y-38690000D03*
X82500000Y-52500000D03*
X61270000Y-78790000D03*
X73590000Y-41040000D03*
X57890000Y-52510000D03*
X74720000Y-52580000D03*
X22500000Y-37500000D03*
X37500000Y-32500000D03*
X76380000Y-53690000D03*
X93480000Y-47340000D03*
D19*
X65750000Y-48750000D03*
D18*
X27500000Y-77500000D03*
X81510000Y-42730000D03*
D19*
X65000000Y-48000000D03*
D18*
X52500000Y-57500000D03*
X22500000Y-47500000D03*
X91500000Y-63820000D03*
X87500000Y-22500000D03*
X66849999Y-43340000D03*
X64400000Y-56800000D03*
X65099999Y-58300000D03*
X66300000Y-55200000D03*
X66300000Y-56490000D03*
X63800000Y-56000000D03*
X62200000Y-57600000D03*
X47300000Y-72600000D03*
X60700000Y-60280000D03*
X65000000Y-60900000D03*
X47300000Y-71400000D03*
X58900000Y-62100000D03*
X50600000Y-70300000D03*
X51200000Y-69100000D03*
D20*
X95000000Y-31600000D03*
X97540000Y-34140000D03*
X92460000Y-34140000D03*
X97540000Y-29060000D03*
X92460000Y-29060000D03*
X62110000Y-78720000D03*
X67890000Y-78720000D03*
D21*
X60680000Y-78220000D03*
D22*
X60680000Y-82400000D03*
D21*
X69320000Y-78220000D03*
D22*
X69320000Y-82400000D03*
D20*
X98400000Y-48000000D03*
X95860000Y-50540000D03*
X95860000Y-45460000D03*
X100940000Y-50540000D03*
X100940000Y-45460000D03*
X31600000Y-66000000D03*
X34140000Y-63460000D03*
X34140000Y-68540000D03*
X29060000Y-63460000D03*
X29060000Y-68540000D03*
X31600000Y-48000000D03*
X34140000Y-45460000D03*
X34140000Y-50540000D03*
X29060000Y-45460000D03*
X29060000Y-50540000D03*
X105000000Y-80000000D03*
X54000000Y-77000000D03*
X51460000Y-77000000D03*
X105000000Y-25000000D03*
X25000000Y-25000000D03*
X65000000Y-31600000D03*
X67540000Y-34140000D03*
X62460000Y-34140000D03*
X67540000Y-29060000D03*
X62460000Y-29060000D03*
X98400000Y-66000000D03*
X95860000Y-68540000D03*
X95860000Y-63460000D03*
X100940000Y-68540000D03*
X100940000Y-63460000D03*
X35000000Y-31600000D03*
X37540000Y-34140000D03*
X32460000Y-34140000D03*
X37540000Y-29060000D03*
X32460000Y-29060000D03*
X50000000Y-31600000D03*
X52540000Y-34140000D03*
X47460000Y-34140000D03*
X52540000Y-29060000D03*
X47460000Y-29060000D03*
X25000000Y-80000000D03*
X80000000Y-31600000D03*
X82540000Y-34140000D03*
X77460000Y-34140000D03*
X82540000Y-29060000D03*
X77460000Y-29060000D03*
M02*
