%TF.GenerationSoftware,KiCad,Pcbnew,10.0.4-10.0.4~ubuntu24.04.1*%
%TF.CreationDate,2026-08-14T16:25:44-07:00*%
%TF.ProjectId,pluto_rx2_8way_v5,706c7574-6f5f-4727-9832-5f387761795f,rev?*%
%TF.SameCoordinates,Original*%
%TF.FileFunction,Soldermask,Top*%
%TF.FilePolarity,Negative*%
%FSLAX46Y46*%
G04 Gerber Fmt 4.6, Leading zero omitted, Abs format (unit mm)*
G04 Created by KiCad (PCBNEW 10.0.4-10.0.4~ubuntu24.04.1) date 2026-08-14 16:25:44*
%MOMM*%
%LPD*%
G01*
G04 APERTURE LIST*
G04 Aperture macros list*
%AMRoundRect*
0 Rectangle with rounded corners*
0 $1 Rounding radius*
0 $2 $3 $4 $5 $6 $7 $8 $9 X,Y pos of 4 corners*
0 Add a 4 corners polygon primitive as box body*
4,1,4,$2,$3,$4,$5,$6,$7,$8,$9,$2,$3,0*
0 Add four circle primitives for the rounded corners*
1,1,$1+$1,$2,$3*
1,1,$1+$1,$4,$5*
1,1,$1+$1,$6,$7*
1,1,$1+$1,$8,$9*
0 Add four rect primitives between the rounded corners*
20,1,$1+$1,$2,$3,$4,$5,0*
20,1,$1+$1,$4,$5,$6,$7,0*
20,1,$1+$1,$6,$7,$8,$9,0*
20,1,$1+$1,$8,$9,$2,$3,0*%
G04 Aperture macros list end*
%ADD10RoundRect,0.225000X0.225000X0.250000X-0.225000X0.250000X-0.225000X-0.250000X0.225000X-0.250000X0*%
%ADD11RoundRect,0.135000X-0.135000X-0.185000X0.135000X-0.185000X0.135000X0.185000X-0.135000X0.185000X0*%
%ADD12RoundRect,0.087500X-0.250000X-0.087500X0.250000X-0.087500X0.250000X0.087500X-0.250000X0.087500X0*%
%ADD13C,2.000000*%
%ADD14R,0.600000X0.300000*%
%ADD15R,0.300000X0.600000*%
%ADD16R,2.750000X2.750000*%
%ADD17C,2.400000*%
%ADD18C,2.800000*%
%ADD19C,0.650000*%
%ADD20RoundRect,0.150000X-0.150000X-0.425000X0.150000X-0.425000X0.150000X0.425000X-0.150000X0.425000X0*%
%ADD21RoundRect,0.075000X-0.075000X-0.500000X0.075000X-0.500000X0.075000X0.500000X-0.075000X0.500000X0*%
%ADD22O,1.000000X2.100000*%
%ADD23O,1.000000X1.800000*%
%ADD24RoundRect,0.135000X0.185000X-0.135000X0.185000X0.135000X-0.185000X0.135000X-0.185000X-0.135000X0*%
%ADD25RoundRect,0.140000X0.170000X-0.140000X0.170000X0.140000X-0.170000X0.140000X-0.170000X-0.140000X0*%
%ADD26RoundRect,0.150000X0.150000X-0.512500X0.150000X0.512500X-0.150000X0.512500X-0.150000X-0.512500X0*%
%ADD27RoundRect,0.135000X-0.185000X0.135000X-0.185000X-0.135000X0.185000X-0.135000X0.185000X0.135000X0*%
%ADD28C,3.200000*%
%ADD29R,1.700000X1.700000*%
%ADD30C,1.700000*%
%ADD31RoundRect,0.100000X-0.100000X0.637500X-0.100000X-0.637500X0.100000X-0.637500X0.100000X0.637500X0*%
%ADD32RoundRect,0.140000X-0.170000X0.140000X-0.170000X-0.140000X0.170000X-0.140000X0.170000X0.140000X0*%
%ADD33RoundRect,0.250000X-1.000000X-0.900000X1.000000X-0.900000X1.000000X0.900000X-1.000000X0.900000X0*%
%ADD34RoundRect,0.218750X0.256250X-0.218750X0.256250X0.218750X-0.256250X0.218750X-0.256250X-0.218750X0*%
%ADD35RoundRect,0.111000X-0.259000X-1.284000X0.259000X-1.284000X0.259000X1.284000X-0.259000X1.284000X0*%
%ADD36C,0.350000*%
%ADD37O,0.600000X1.700000*%
%ADD38O,0.600000X1.400000*%
G04 APERTURE END LIST*
D10*
%TO.C,C2*%
X86175000Y-72360000D03*
X84625000Y-72360000D03*
%TD*%
D11*
%TO.C,R1*%
X60490000Y-70500000D03*
X61510000Y-70500000D03*
%TD*%
D12*
%TO.C,U4*%
X64287500Y-74800000D03*
X64287500Y-75300000D03*
X64287500Y-75800000D03*
X65712500Y-75800000D03*
X65712500Y-74800000D03*
%TD*%
D13*
%TO.C,FID1*%
X26500000Y-37000000D03*
%TD*%
D14*
%TO.C,U1*%
X63100000Y-46750000D03*
X63100000Y-47250000D03*
X63100000Y-47750000D03*
X63100000Y-48250000D03*
X63100000Y-48750000D03*
X63100000Y-49250000D03*
D15*
X63750000Y-49900000D03*
X64250000Y-49900000D03*
X64750000Y-49900000D03*
X65250000Y-49900000D03*
X65750000Y-49900000D03*
X66250000Y-49900000D03*
D14*
X66900000Y-49250000D03*
X66900000Y-48750000D03*
X66900000Y-48250000D03*
X66900000Y-47750000D03*
X66900000Y-47250000D03*
X66900000Y-46750000D03*
D15*
X66250000Y-46100000D03*
X65750000Y-46100000D03*
X65250000Y-46100000D03*
X64750000Y-46100000D03*
X64250000Y-46100000D03*
X63750000Y-46100000D03*
D16*
X65000000Y-48000000D03*
%TD*%
D17*
%TO.C,J9*%
X95000000Y-31600000D03*
D18*
X97540000Y-34140000D03*
X92460000Y-34140000D03*
X97540000Y-29060000D03*
X92460000Y-29060000D03*
%TD*%
D19*
%TO.C,J1*%
X62110000Y-78720000D03*
X67890000Y-78720000D03*
D20*
X61800000Y-77645000D03*
X62600000Y-77645000D03*
D21*
X63750000Y-77645000D03*
X64750000Y-77645000D03*
X65250000Y-77645000D03*
X66250000Y-77645000D03*
D20*
X67400000Y-77645000D03*
X68200000Y-77645000D03*
X68200000Y-77645000D03*
X67400000Y-77645000D03*
D21*
X66750000Y-77645000D03*
X65750000Y-77645000D03*
X64250000Y-77645000D03*
X63250000Y-77645000D03*
D20*
X62600000Y-77645000D03*
X61800000Y-77645000D03*
D22*
X60680000Y-78220000D03*
D23*
X60680000Y-82400000D03*
D22*
X69320000Y-78220000D03*
D23*
X69320000Y-82400000D03*
%TD*%
D10*
%TO.C,C1*%
X86175000Y-74640000D03*
X84625000Y-74640000D03*
%TD*%
D17*
%TO.C,J8*%
X98400000Y-48000000D03*
D18*
X95860000Y-50540000D03*
X95860000Y-45460000D03*
X100940000Y-50540000D03*
X100940000Y-45460000D03*
%TD*%
D24*
%TO.C,R3*%
X68000000Y-57010000D03*
X68000000Y-55990000D03*
%TD*%
D25*
%TO.C,C5*%
X67500000Y-60280000D03*
X67500000Y-59320000D03*
%TD*%
%TO.C,C6*%
X61500000Y-60280000D03*
X61500000Y-59320000D03*
%TD*%
D26*
%TO.C,U3*%
X88050000Y-74637500D03*
X89000000Y-74637500D03*
X89950000Y-74637500D03*
X89950000Y-72362500D03*
X88050000Y-72362500D03*
%TD*%
D10*
%TO.C,C3*%
X71275000Y-60000000D03*
X69725000Y-60000000D03*
%TD*%
D17*
%TO.C,J6*%
X31600000Y-66000000D03*
D18*
X34140000Y-63460000D03*
X34140000Y-68540000D03*
X29060000Y-63460000D03*
X29060000Y-68540000D03*
%TD*%
D27*
%TO.C,R6*%
X65500000Y-56490000D03*
X65500000Y-57510000D03*
%TD*%
D17*
%TO.C,J5*%
X31600000Y-48000000D03*
D18*
X34140000Y-45460000D03*
X34140000Y-50540000D03*
X29060000Y-45460000D03*
X29060000Y-50540000D03*
%TD*%
D28*
%TO.C,H4*%
X105000000Y-80000000D03*
%TD*%
D27*
%TO.C,R5*%
X63000000Y-56490000D03*
X63000000Y-57510000D03*
%TD*%
D29*
%TO.C,J12*%
X54000000Y-77000000D03*
D30*
X51460000Y-77000000D03*
%TD*%
D28*
%TO.C,H2*%
X105000000Y-25000000D03*
%TD*%
%TO.C,H1*%
X25000000Y-25000000D03*
%TD*%
D17*
%TO.C,J2*%
X65000000Y-31600000D03*
D18*
X67540000Y-34140000D03*
X62460000Y-34140000D03*
X67540000Y-29060000D03*
X62460000Y-29060000D03*
%TD*%
D13*
%TO.C,FID3*%
X38000000Y-80000000D03*
%TD*%
D17*
%TO.C,J7*%
X98400000Y-66000000D03*
D18*
X95860000Y-68540000D03*
X95860000Y-63460000D03*
X100940000Y-68540000D03*
X100940000Y-63460000D03*
%TD*%
D31*
%TO.C,U2*%
X67925000Y-62137500D03*
X67275000Y-62137500D03*
X66625000Y-62137500D03*
X65975000Y-62137500D03*
X65325000Y-62137500D03*
X64675000Y-62137500D03*
X64025000Y-62137500D03*
X63375000Y-62137500D03*
X62725000Y-62137500D03*
X62075000Y-62137500D03*
X62075000Y-67862500D03*
X62725000Y-67862500D03*
X63375000Y-67862500D03*
X64025000Y-67862500D03*
X64675000Y-67862500D03*
X65325000Y-67862500D03*
X65975000Y-67862500D03*
X66625000Y-67862500D03*
X67275000Y-67862500D03*
X67925000Y-67862500D03*
%TD*%
D17*
%TO.C,J4*%
X35000000Y-31600000D03*
D18*
X37540000Y-34140000D03*
X32460000Y-34140000D03*
X37540000Y-29060000D03*
X32460000Y-29060000D03*
%TD*%
D13*
%TO.C,FID2*%
X103500000Y-37000000D03*
%TD*%
D32*
%TO.C,C4*%
X64250000Y-51120000D03*
X64250000Y-52080000D03*
%TD*%
D33*
%TO.C,D1*%
X75350000Y-74500000D03*
X79650000Y-74500000D03*
%TD*%
D34*
%TO.C,F1*%
X72000000Y-75287500D03*
X72000000Y-73712500D03*
%TD*%
D17*
%TO.C,J3*%
X50000000Y-31600000D03*
D18*
X52540000Y-34140000D03*
X47460000Y-34140000D03*
X52540000Y-29060000D03*
X47460000Y-29060000D03*
%TD*%
D28*
%TO.C,H3*%
X25000000Y-80000000D03*
%TD*%
D11*
%TO.C,R2*%
X67990000Y-70500000D03*
X69010000Y-70500000D03*
%TD*%
D35*
%TO.C,J11*%
X41460000Y-78032500D03*
X41460000Y-73967500D03*
X42730000Y-78032500D03*
X42730000Y-73967500D03*
X44000000Y-78032500D03*
X44000000Y-73967500D03*
X45270000Y-78032500D03*
X45270000Y-73967500D03*
X46540000Y-78032500D03*
X46540000Y-73967500D03*
%TD*%
D27*
%TO.C,R4*%
X60500000Y-55990000D03*
X60500000Y-57010000D03*
%TD*%
D17*
%TO.C,J10*%
X80000000Y-31600000D03*
D18*
X82540000Y-34140000D03*
X77460000Y-34140000D03*
X82540000Y-29060000D03*
X77460000Y-29060000D03*
%TD*%
D36*
X95000000Y-31600000D03*
X97540000Y-34140000D03*
X92460000Y-34140000D03*
X97540000Y-29060000D03*
X92460000Y-29060000D03*
X62110000Y-78720000D03*
X67890000Y-78720000D03*
D37*
X60680000Y-78220000D03*
D38*
X60680000Y-82400000D03*
D37*
X69320000Y-78220000D03*
D38*
X69320000Y-82400000D03*
D36*
X98400000Y-48000000D03*
X95860000Y-50540000D03*
X95860000Y-45460000D03*
X100940000Y-50540000D03*
X100940000Y-45460000D03*
X31600000Y-66000000D03*
X34140000Y-63460000D03*
X34140000Y-68540000D03*
X29060000Y-63460000D03*
X29060000Y-68540000D03*
X31600000Y-48000000D03*
X34140000Y-45460000D03*
X34140000Y-50540000D03*
X29060000Y-45460000D03*
X29060000Y-50540000D03*
X105000000Y-80000000D03*
X54000000Y-77000000D03*
X51460000Y-77000000D03*
X105000000Y-25000000D03*
X25000000Y-25000000D03*
X65000000Y-31600000D03*
X67540000Y-34140000D03*
X62460000Y-34140000D03*
X67540000Y-29060000D03*
X62460000Y-29060000D03*
X98400000Y-66000000D03*
X95860000Y-68540000D03*
X95860000Y-63460000D03*
X100940000Y-68540000D03*
X100940000Y-63460000D03*
X35000000Y-31600000D03*
X37540000Y-34140000D03*
X32460000Y-34140000D03*
X37540000Y-29060000D03*
X32460000Y-29060000D03*
X50000000Y-31600000D03*
X52540000Y-34140000D03*
X47460000Y-34140000D03*
X52540000Y-29060000D03*
X47460000Y-29060000D03*
X25000000Y-80000000D03*
X80000000Y-31600000D03*
X82540000Y-34140000D03*
X77460000Y-34140000D03*
X82540000Y-29060000D03*
X77460000Y-29060000D03*
M02*
