M48
; DRILL file KiCad 10.0.4-10.0.4~ubuntu24.04.1 date 2026-08-14T16:25:44
; FORMAT={-:-/ absolute / metric / decimal}
; #@! TF.CreationDate,2026-08-14T16:25:44-07:00
; #@! TF.GenerationSoftware,Kicad,Pcbnew,10.0.4-10.0.4~ubuntu24.04.1
; #@! TF.FileFunction,Plated,1,4,PTH
FMAT,2
METRIC
; #@! TA.AperFunction,Plated,PTH,ViaDrill
T1C0.200
; #@! TA.AperFunction,Plated,PTH,ViaDrill
T2C0.250
; #@! TA.AperFunction,Plated,PTH,ComponentDrill
T3C0.600
; #@! TA.AperFunction,Plated,PTH,ComponentDrill
T4C1.000
; #@! TA.AperFunction,Plated,PTH,ComponentDrill
T5C1.500
; #@! TA.AperFunction,Plated,PTH,ComponentDrill
T6C1.700
%
G90
G05
T1
X22.5Y-22.5
X22.5Y-27.5
X22.5Y-32.5
X22.5Y-37.5
X22.5Y-42.5
X22.5Y-47.5
X22.5Y-52.5
X22.5Y-57.5
X22.5Y-62.5
X22.5Y-67.5
X22.5Y-72.5
X22.5Y-77.5
X22.5Y-82.5
X27.5Y-22.5
X27.5Y-27.5
X27.5Y-32.5
X27.5Y-42.5
X27.5Y-47.5
X27.5Y-52.5
X27.5Y-57.5
X27.5Y-62.5
X27.5Y-67.5
X27.5Y-72.5
X27.5Y-77.5
X27.5Y-82.5
X32.5Y-22.5
X32.5Y-27.5
X32.5Y-32.5
X32.5Y-37.5
X32.5Y-42.5
X32.5Y-52.5
X32.5Y-57.5
X32.5Y-62.5
X32.5Y-67.5
X32.5Y-72.5
X32.5Y-77.5
X32.5Y-82.5
X34.72Y-36.94
X35.77Y-36.02
X36.29Y-37.78
X36.3Y-65.28
X36.53Y-48.74
X36.55Y-47.34
X36.77Y-66.6
X36.81Y-36.48
X37.19Y-64.69
X37.22Y-38.15
X37.5Y-22.5
X37.5Y-27.5
X37.5Y-32.5
X37.5Y-42.5
X37.5Y-52.5
X37.5Y-57.5
X37.5Y-62.5
X37.5Y-67.5
X37.5Y-72.5
X37.5Y-77.5
X37.5Y-82.5
X37.53Y-48.75
X37.55Y-47.35
X37.74Y-36.85
X37.97Y-65.86
X38.02Y-64.14
X38.14Y-38.53
X38.53Y-48.76
X38.55Y-47.36
X38.66Y-37.23
X38.8Y-65.3
X38.85Y-63.58
X39.07Y-38.91
X39.53Y-48.76
X39.55Y-47.36
X39.59Y-37.61
X39.63Y-64.74
X39.68Y-63.03
X40.0Y-39.28
X40.46Y-64.19
X40.51Y-62.47
X40.52Y-37.98
X40.53Y-48.77
X40.55Y-47.37
X40.93Y-39.66
X41.29Y-63.63
X41.34Y-61.91
X41.45Y-38.36
X41.53Y-47.38
X41.53Y-48.78
X41.86Y-40.04
X42.12Y-63.08
X42.17Y-61.36
X42.38Y-38.74
X42.5Y-22.5
X42.5Y-27.5
X42.5Y-32.5
X42.5Y-37.5
X42.5Y-42.5
X42.5Y-47.5
X42.5Y-52.5
X42.5Y-57.5
X42.5Y-67.5
X42.5Y-82.5
X42.53Y-48.79
X42.73Y-80.0
X42.79Y-40.41
X42.95Y-62.52
X43.0Y-60.8
X43.31Y-39.11
X43.5Y-47.39
X43.53Y-48.79
X43.71Y-40.79
X43.78Y-61.96
X43.83Y-60.25
X44.0Y-80.0
X44.23Y-39.49
X44.5Y-47.4
X44.53Y-48.8
X44.61Y-61.41
X44.64Y-41.16
X44.66Y-59.69
X45.16Y-39.86
X45.44Y-60.85
X45.49Y-59.13
X45.5Y-47.41
X45.53Y-48.81
X45.56Y-41.54
X46.08Y-40.24
X46.27Y-60.3
X46.5Y-47.42
X46.53Y-48.82
X46.54Y-80.0
X46.56Y-41.95
X46.56Y-58.42
X47.01Y-40.62
X47.1Y-59.74
X47.3Y-71.4
X47.3Y-72.6
X47.5Y-22.5
X47.5Y-27.5
X47.5Y-32.5
X47.5Y-37.5
X47.5Y-42.5
X47.5Y-47.5
X47.5Y-52.5
X47.5Y-57.5
X47.5Y-62.5
X47.5Y-67.5
X47.5Y-77.5
X47.5Y-82.5
X47.53Y-48.83
X47.93Y-59.18
X47.94Y-40.99
X48.46Y-57.14
X48.49Y-42.73
X48.5Y-47.43
X48.53Y-48.83
X48.76Y-58.63
X48.87Y-41.37
X49.29Y-56.59
X49.42Y-43.1
X49.5Y-47.44
X49.53Y-48.84
X49.59Y-58.07
X49.61Y-36.91
X49.8Y-41.75
X50.12Y-56.03
X50.34Y-43.48
X50.42Y-57.51
X50.5Y-47.45
X50.53Y-48.85
X50.6Y-70.3
X50.76Y-36.1
X50.95Y-55.47
X51.01Y-37.9
X51.09Y-42.27
X51.2Y-69.1
X51.25Y-56.96
X51.27Y-43.85
X51.5Y-47.46
X51.53Y-48.86
X51.71Y-36.69
X51.78Y-54.92
X51.88Y-38.4
X52.08Y-56.4
X52.19Y-44.23
X52.5Y-22.5
X52.5Y-27.5
X52.5Y-32.5
X52.5Y-42.5
X52.5Y-47.5
X52.5Y-52.5
X52.5Y-57.5
X52.5Y-62.5
X52.5Y-72.5
X52.5Y-77.5
X52.5Y-82.5
X52.53Y-48.87
X52.58Y-37.19
X52.61Y-54.36
X52.74Y-38.91
X52.91Y-55.85
X53.12Y-44.61
X53.31Y-43.17
X53.44Y-37.69
X53.44Y-53.81
X53.5Y-47.47
X53.53Y-48.87
X53.61Y-39.41
X53.74Y-55.29
X54.05Y-44.98
X54.24Y-43.55
X54.27Y-53.25
X54.3Y-38.19
X54.47Y-39.91
X54.5Y-47.48
X54.53Y-48.88
X54.57Y-54.73
X54.98Y-45.36
X55.1Y-52.69
X55.16Y-38.69
X55.17Y-43.93
X55.33Y-40.41
X55.4Y-54.18
X55.5Y-47.49
X55.53Y-48.89
X55.91Y-45.74
X55.93Y-52.14
X56.02Y-39.19
X56.1Y-44.3
X56.19Y-40.91
X56.23Y-53.62
X56.5Y-47.5
X56.53Y-48.9
X56.76Y-51.58
X56.84Y-46.11
X56.88Y-39.69
X57.03Y-44.68
X57.05Y-41.41
X57.06Y-53.07
X57.5Y-22.5
X57.5Y-27.5
X57.5Y-32.5
X57.5Y-37.5
X57.5Y-42.5
X57.5Y-47.5
X57.5Y-62.5
X57.5Y-67.5
X57.5Y-72.5
X57.5Y-82.5
X57.53Y-48.91
X57.59Y-51.03
X57.74Y-40.2
X57.76Y-46.49
X57.89Y-52.51
X57.91Y-41.91
X57.96Y-45.06
X58.42Y-50.47
X58.53Y-48.91
X58.61Y-40.7
X58.69Y-46.86
X58.72Y-51.95
X58.73Y-47.52
X58.77Y-42.41
X58.89Y-45.43
X58.9Y-62.1
X59.47Y-41.2
X59.5Y-49.75
X59.53Y-48.92
X59.55Y-51.4
X59.63Y-42.91
X59.81Y-45.81
X59.96Y-47.38
X60.33Y-41.7
X60.44Y-59.32
X60.49Y-43.42
X60.51Y-48.93
X60.66Y-47.53
X60.7Y-60.28
X60.71Y-50.62
X60.78Y-46.2
X61.19Y-42.2
X61.27Y-78.79
X61.29Y-50.23
X61.36Y-43.92
X61.57Y-57.01
X62.01Y-42.68
X62.19Y-46.3
X62.2Y-57.6
X62.33Y-44.49
X62.5Y-22.5
X62.5Y-27.5
X62.5Y-32.5
X62.5Y-37.5
X62.5Y-42.5
X62.5Y-72.5
X62.53Y-70.5
X62.88Y-43.18
X63.3Y-50.81
X63.8Y-56.0
X64.07Y-57.51
X64.08Y-43.48
X64.11Y-42.48
X64.14Y-41.48
X64.18Y-40.48
X64.21Y-39.48
X64.24Y-38.48
X64.25Y-53.11
X64.27Y-37.48
X64.4Y-56.8
X65.0Y-60.9
X65.1Y-58.3
X65.17Y-76.6
X65.33Y-63.62
X65.48Y-43.52
X65.51Y-42.52
X65.54Y-41.52
X65.57Y-40.52
X65.61Y-39.52
X65.64Y-38.52
X65.67Y-37.52
X66.3Y-55.2
X66.3Y-56.49
X66.57Y-57.51
X66.85Y-43.34
X66.9Y-45.85
X67.5Y-22.5
X67.5Y-27.5
X67.5Y-32.5
X67.5Y-37.5
X67.5Y-42.5
X67.56Y-44.55
X67.97Y-42.69
X68.42Y-44.05
X68.56Y-59.32
X68.73Y-78.79
X68.83Y-42.19
X68.96Y-50.4
X69.17Y-46.22
X69.28Y-43.55
X69.49Y-47.53
X69.69Y-41.69
X69.74Y-49.23
X69.79Y-50.96
X70.03Y-70.5
X70.1Y-45.85
X70.14Y-43.04
X70.32Y-61.06
X70.49Y-47.52
X70.55Y-41.19
X70.57Y-49.79
X70.62Y-51.51
X70.74Y-48.92
X71.01Y-42.54
X71.03Y-45.47
X71.3Y-46.87
X71.4Y-50.35
X71.41Y-40.69
X71.45Y-52.07
X71.49Y-47.51
X71.74Y-48.91
X71.87Y-42.04
X71.96Y-45.09
X72.23Y-46.49
X72.23Y-50.91
X72.27Y-40.19
X72.28Y-52.63
X72.5Y-22.5
X72.5Y-27.5
X72.5Y-32.5
X72.5Y-37.5
X72.5Y-42.5
X72.5Y-47.5
X72.5Y-57.5
X72.5Y-62.5
X72.5Y-67.5
X72.5Y-72.5
X72.5Y-77.5
X72.5Y-82.5
X72.73Y-41.54
X72.74Y-48.9
X72.89Y-44.72
X73.06Y-51.46
X73.11Y-53.18
X73.13Y-39.69
X73.16Y-46.12
X73.5Y-47.5
X73.59Y-41.04
X73.74Y-48.9
X73.81Y-44.34
X73.89Y-52.02
X73.94Y-53.74
X73.99Y-39.19
X74.09Y-45.74
X74.45Y-40.54
X74.5Y-47.49
X74.72Y-52.58
X74.74Y-43.96
X74.74Y-48.89
X74.77Y-54.29
X74.85Y-38.68
X75.02Y-45.36
X75.31Y-40.04
X75.5Y-47.48
X75.55Y-53.13
X75.6Y-54.85
X75.67Y-43.59
X75.72Y-38.18
X75.74Y-48.88
X75.95Y-44.98
X76.17Y-39.54
X76.38Y-53.69
X76.43Y-55.41
X76.5Y-47.47
X76.58Y-37.68
X76.64Y-43.19
X76.74Y-48.87
X76.88Y-44.61
X77.03Y-39.04
X77.21Y-54.24
X77.26Y-55.96
X77.44Y-37.18
X77.5Y-22.5
X77.5Y-27.5
X77.5Y-32.5
X77.5Y-42.5
X77.5Y-47.5
X77.5Y-52.5
X77.5Y-57.5
X77.5Y-62.5
X77.5Y-67.5
X77.5Y-72.5
X77.5Y-77.5
X77.5Y-82.5
X77.74Y-48.86
X77.81Y-44.23
X77.89Y-38.54
X78.04Y-54.8
X78.09Y-56.52
X78.3Y-36.68
X78.5Y-47.46
X78.55Y-42.42
X78.74Y-43.85
X78.74Y-48.86
X78.75Y-38.04
X78.87Y-55.36
X78.92Y-57.08
X79.2Y-36.14
X79.48Y-42.04
X79.5Y-47.45
X79.67Y-43.48
X79.7Y-55.91
X79.74Y-48.85
X79.75Y-57.63
X79.96Y-37.33
X80.41Y-41.66
X80.5Y-47.44
X80.53Y-56.47
X80.58Y-58.19
X80.59Y-43.1
X80.74Y-48.84
X81.34Y-41.29
X81.41Y-58.74
X81.45Y-57.08
X81.5Y-47.43
X81.51Y-42.73
X81.65Y-74.5
X81.74Y-48.83
X82.24Y-59.3
X82.27Y-40.91
X82.5Y-22.5
X82.5Y-27.5
X82.5Y-32.5
X82.5Y-37.5
X82.5Y-42.5
X82.5Y-47.5
X82.5Y-52.5
X82.5Y-57.5
X82.5Y-62.5
X82.5Y-67.5
X82.5Y-72.5
X82.5Y-77.5
X82.5Y-82.5
X82.74Y-48.82
X83.07Y-59.86
X83.2Y-40.53
X83.2Y-58.26
X83.37Y-41.97
X83.5Y-47.42
X83.74Y-48.82
X83.9Y-60.41
X84.03Y-58.81
X84.13Y-40.16
X84.3Y-41.6
X84.5Y-47.41
X84.73Y-60.97
X84.74Y-48.81
X84.86Y-59.37
X85.05Y-39.78
X85.22Y-73.42
X85.22Y-75.7
X85.23Y-41.22
X85.5Y-47.4
X85.56Y-61.52
X85.69Y-59.93
X85.74Y-48.8
X85.98Y-39.4
X86.16Y-40.84
X86.39Y-62.08
X86.5Y-47.39
X86.52Y-60.48
X86.74Y-48.79
X86.91Y-39.03
X87.09Y-40.47
X87.22Y-62.64
X87.35Y-61.04
X87.5Y-22.5
X87.5Y-27.5
X87.5Y-32.5
X87.5Y-37.5
X87.5Y-42.5
X87.5Y-47.5
X87.5Y-52.5
X87.5Y-57.5
X87.5Y-67.5
X87.5Y-77.5
X87.5Y-82.5
X87.74Y-48.78
X87.84Y-38.65
X88.01Y-40.09
X88.05Y-63.19
X88.18Y-61.59
X88.5Y-47.38
X88.74Y-48.78
X88.77Y-38.27
X88.88Y-63.75
X88.94Y-39.71
X89.01Y-62.15
X89.5Y-47.37
X89.53Y-75.86
X89.7Y-37.9
X89.71Y-64.3
X89.74Y-48.77
X89.84Y-62.71
X89.87Y-39.34
X90.5Y-47.36
X90.54Y-64.86
X90.62Y-37.52
X90.67Y-63.26
X90.74Y-48.76
X90.8Y-38.96
X91.37Y-65.42
X91.5Y-47.35
X91.5Y-63.82
X91.55Y-37.15
X91.73Y-38.58
X91.74Y-48.75
X92.2Y-65.97
X92.33Y-64.38
X92.47Y-36.77
X92.5Y-22.5
X92.5Y-27.5
X92.5Y-32.5
X92.5Y-42.5
X92.5Y-47.35
X92.5Y-52.5
X92.5Y-57.5
X92.5Y-62.5
X92.5Y-67.5
X92.5Y-72.5
X92.5Y-77.5
X92.5Y-82.5
X92.66Y-38.21
X93.1Y-48.74
X93.16Y-64.93
X93.4Y-36.39
X93.48Y-47.34
X93.58Y-37.83
X94.27Y-35.96
X94.89Y-37.28
X97.5Y-22.5
X97.5Y-27.5
X97.5Y-32.5
X97.5Y-37.5
X97.5Y-42.5
X97.5Y-52.5
X97.5Y-57.5
X97.5Y-62.5
X97.5Y-67.5
X97.5Y-72.5
X97.5Y-77.5
X97.5Y-82.5
X102.5Y-22.5
X102.5Y-27.5
X102.5Y-32.5
X102.5Y-42.5
X102.5Y-47.5
X102.5Y-52.5
X102.5Y-57.5
X102.5Y-62.5
X102.5Y-67.5
X102.5Y-72.5
X102.5Y-77.5
X102.5Y-82.5
X107.5Y-22.5
X107.5Y-27.5
X107.5Y-32.5
X107.5Y-37.5
X107.5Y-42.5
X107.5Y-47.5
X107.5Y-52.5
X107.5Y-57.5
X107.5Y-62.5
X107.5Y-67.5
X107.5Y-72.5
X107.5Y-77.5
X107.5Y-82.5
T2
X64.25Y-47.25
X64.25Y-48.0
X64.25Y-48.75
X65.0Y-47.25
X65.0Y-48.0
X65.0Y-48.75
X65.75Y-47.25
X65.75Y-48.0
X65.75Y-48.75
T4
X51.46Y-77.0
X54.0Y-77.0
T5
X31.6Y-48.0
X31.6Y-66.0
X35.0Y-31.6
X50.0Y-31.6
X65.0Y-31.6
X80.0Y-31.6
X95.0Y-31.6
X98.4Y-48.0
X98.4Y-66.0
T6
X29.06Y-45.46
X29.06Y-50.54
X29.06Y-63.46
X29.06Y-68.54
X32.46Y-29.06
X32.46Y-34.14
X34.14Y-45.46
X34.14Y-50.54
X34.14Y-63.46
X34.14Y-68.54
X37.54Y-29.06
X37.54Y-34.14
X47.46Y-29.06
X47.46Y-34.14
X52.54Y-29.06
X52.54Y-34.14
X62.46Y-29.06
X62.46Y-34.14
X67.54Y-29.06
X67.54Y-34.14
X77.46Y-29.06
X77.46Y-34.14
X82.54Y-29.06
X82.54Y-34.14
X92.46Y-29.06
X92.46Y-34.14
X95.86Y-45.46
X95.86Y-50.54
X95.86Y-63.46
X95.86Y-68.54
X97.54Y-29.06
X97.54Y-34.14
X100.94Y-45.46
X100.94Y-50.54
X100.94Y-63.46
X100.94Y-68.54
T3
G00X60.68Y-77.67
M15
G01X60.68Y-78.77
M16
G05
G00X60.68Y-82.0
M15
G01X60.68Y-82.8
M16
G05
G00X69.32Y-77.67
M15
G01X69.32Y-78.77
M16
G05
G00X69.32Y-82.0
M15
G01X69.32Y-82.8
M16
G05
M30
