#VRML V2.0 utf8
# 3D model generated by easyeda2kicad.py (https://github.com/uPesy/easyeda2kicad.py)

Shape{
    appearance Appearance {
        material  Material 	{
            diffuseColor 0.25098039215686274 0.25098039215686274 0.25098039215686274
            specularColor 0.12549019607843137 0.12549019607843137 0.12549019607843137
            ambientIntensity 0.251
            transparency 0.0
            shininess 0.5
        }
    }
    geometry IndexedFaceSet {
        ccw TRUE
        solid FALSE
        coord DEF co Coordinate {
            point [
                0.4232 -0.1476 0.0039, 0.4967 -0.1476 0.0039, 0.4967 -0.2999 0.0039, 0.0474 -0.0336 0.0039, 0.0505 -0.034 0.0039, -0.0343 -0.2999 0.0039, 0.0527 -0.0341 0.0039, 0.0573 -0.0336 0.0039, -0.0343 0.2999 0.0039, -0.0266 -0.0245 0.0039, -0.0343 -0.0336 0.0039, -0.0266 -0.0331 0.0039, 0.0156 -0.0331 0.0039, 0.4967 0.2999 0.0039, 0.4967 0.1476 0.0039, 0.4232 0.1476 0.0039, 0.031 -0.029 0.0039, 0.031 -0.0204 0.0039, 0.0156 0.0456 0.0039, 0.0394 -0.0325 0.0039, 0.0051 0.037 0.0039, 0.0051 0.0111 0.0039, -0.0247 0.037 0.0039, -0.0228 0.0111 0.0039, 0.0051 0.0024 0.0039, 0.0051 -0.0245 0.0039, -0.0228 0.0024 0.0039, 0.1366 -0.0331 0.0039, 0.0963 -0.0331 0.0039, 0.0624 -0.0331 0.0039, 0.07 -0.0304 0.0039, -0.0247 0.0456 0.0039, 0.0572 0.0371 0.0039, 0.0631 0.0349 0.0039, 0.0324 -0.0212 0.0039, 0.0685 0.0313 0.0039, 0.0733 0.026 0.0039, 0.079 0.0054 0.0039, 0.0782 -0.0031 0.0039, 0.0761 -0.0099 0.0039, 0.0586 -0.0246 0.0039, 0.0512 -0.0254 0.0039, 0.0643 -0.0225 0.0039, 0.0691 -0.0192 0.0039, 0.0728 -0.0153 0.0039, 0.0408 -0.0243 0.0039, 0.0854 0.0249 0.0039, 0.0808 0.0322 0.0039, 0.1261 0.0456 0.0039, 0.0765 0.02 0.0039, 0.0786 0.0115 0.0039, 0.0737 0.0391 0.0039, 0.1366 0.0456 0.0039, 0.4232 -0.0336 0.0039, 0.0763 -0.0264 0.0039, 0.0823 -0.0202 0.0039, 0.0963 -0.0245 0.0039, 0.0865 -0.0127 0.0039, 0.1261 -0.0245 0.0039, 0.0888 -0.0044 0.0039, 0.0896 0.0048 0.0039, 0.0885 0.016 0.0039, 0.0662 0.0434 0.0039, 0.0574 0.0459 0.0039, 0.0495 0.0466 0.0039, 0.0401 0.0459 0.0039, 0.031 0.0435 0.0039, 0.031 0.0329 0.0039, 0.0399 0.0367 0.0039, 0.0494 0.0379 0.0039, -0.4967 0.1476 0.0039, -0.4967 0.2999 0.0039, -0.4232 0.1476 0.0039, -0.1822 -0.0331 0.0039, -0.1706 -0.0331 0.0039, -0.1111 -0.0331 0.0039, -0.1014 -0.0115 0.0039, -0.0969 -0.0186 0.0039, -0.0904 -0.0248 0.0039, -0.0822 -0.0296 0.0039, -0.0731 -0.0323 0.0039, -0.1409 0.0456 0.0039, -0.1514 0.0456 0.0039, -0.4232 -0.0336 0.0039, -0.0634 -0.0331 0.0039, -0.042 -0.0331 0.0039, -0.042 0.0456 0.0039, -0.0642 0.0456 0.0039, -0.0934 0.0354 0.0039, -0.099 0.0292 0.0039, -0.1027 0.0224 0.0039, -0.1226 -0.0331 0.0039, -0.1301 -0.011 0.0039, -0.1627 -0.011 0.0039, -0.0756 0.0444 0.0039, -0.0848 0.0412 0.0039, -0.0934 0.0354 0.0039, -0.1048 0.0146 0.0039, -0.1053 0.0072 0.0039, -0.1042 -0.0033 0.0039, -0.4232 -0.1476 0.0039, -0.4967 -0.1476 0.0039, -0.4967 -0.2999 0.0039, 0.5217 -0.1476 0.0827, 0.5217 -0.3052 0.0827, 0.5163 -0.1476 0.0219, 0.5163 -0.2999 0.0219, 0.5163 0.1476 0.0219, 0.5163 0.2999 0.0219, 0.5217 0.1476 0.0827, 0.5217 0.3052 0.0827, 0.5154 -0.2999 0.0173, 0.5153 -0.1476 0.0172, 0.5153 -0.2999 0.0172, 0.5132 -0.2999 0.0129, 0.5132 -0.1476 0.0128, 0.5132 -0.2999 0.0128, 0.5101 -0.2999 0.0092, 0.51 -0.1476 0.0091, 0.51 -0.2999 0.0091, 0.5061 -0.2999 0.0063, 0.5061 -0.1476 0.0063, 0.5061 -0.2999 0.0063, 0.5016 -0.2999 0.0045, 0.5015 -0.1476 0.0045, 0.5015 -0.2999 0.0045, 0.5153 0.1476 0.0172, 0.5153 0.2999 0.0172, 0.5154 0.2999 0.0173, 0.5132 0.1476 0.0128, 0.51 0.1476 0.0091, 0.51 0.2999 0.0091, 0.5101 0.2999 0.0092, 0.5132 0.2999 0.0128, 0.5132 0.2999 0.0129, 0.5015 0.2999 0.0045, 0.5016 0.2999 0.0045, 0.5061 0.1476 0.0063, 0.5061 0.2999 0.0063, 0.5061 0.2999 0.0063, 0.5015 0.1476 0.0045, -0.5217 0.3052 0.0827, -0.5163 0.2999 0.0219, -0.5217 0.1476 0.0827, -0.5163 0.1476 0.0219, -0.5154 0.2999 0.0173, -0.5153 0.1476 0.0172, -0.5153 0.2999 0.0172, -0.5132 0.2999 0.0129, -0.5132 0.1476 0.0128, -0.5132 0.2999 0.0128, -0.5101 0.2999 0.0092, -0.51 0.1476 0.0091, -0.51 0.2999 0.0091, -0.5061 0.2999 0.0063, -0.5061 0.1476 0.0063, -0.5061 0.2999 0.0063, -0.5016 0.2999 0.0045, -0.5015 0.1476 0.0045, -0.5015 0.2999 0.0045, 0.4537 -0.2568 0.6535, 0.4537 0.2568 0.6535, -0.3 -0.2568 0.6535, -0.3 0.2568 0.6535, 0.502 -0.3248 0.0827, -0.502 -0.3248 0.0827, 0.4967 -0.3195 0.0219, -0.4967 -0.3195 0.0219, -0.5163 -0.2999 0.0219, -0.5217 -0.3052 0.0827, -0.5163 -0.1476 0.0219, -0.5217 -0.1476 0.0827, 0.4967 0.3195 0.0219, -0.4967 0.3195 0.0219, 0.502 0.3248 0.0827, -0.502 0.3248 0.0827, 0.4733 0.2568 0.6356, 0.4733 -0.2568 0.6356, 0.4537 0.2764 0.6356, -0.4537 0.2764 0.6356, -0.4733 -0.2568 0.6356, -0.4733 0.2568 0.6356, 0.4537 -0.2764 0.6356, -0.4537 -0.2764 0.6356, -0.4537 0.2568 0.6535, -0.4537 -0.2568 0.6535, -0.3793 0.2568 0.6535, -0.3793 -0.2568 0.6535, 0.4537 -0.2616 0.6529, -0.3793 -0.2607 0.6531, -0.4537 -0.2616 0.6529, -0.3 -0.2607 0.6531, -0.4537 -0.2755 0.6402, 0.4537 -0.2755 0.6402, -0.4537 -0.2754 0.6403, 0.4537 -0.2754 0.6403, -0.4537 -0.2733 0.6446, 0.4537 -0.2733 0.6446, -0.4537 -0.2733 0.6447, 0.4537 -0.2733 0.6447, -0.4537 -0.2702 0.6483, 0.4537 -0.2702 0.6483, -0.4537 -0.2701 0.6484, 0.4537 -0.2701 0.6484, -0.4537 -0.2662 0.6512, 0.4537 -0.2662 0.6512, -0.4537 -0.2662 0.6512, 0.4537 -0.2662 0.6512, -0.4537 -0.2617 0.6529, 0.4537 -0.2617 0.6529, 0.4722 -0.2568 0.6403, 0.4702 -0.2568 0.6446, 0.4698 -0.2605 0.6446, 0.4701 -0.2568 0.6447, 0.467 -0.2568 0.6483, 0.4667 -0.2598 0.6483, 0.4628 -0.2589 0.6512, 0.4584 -0.2579 0.6529, 0.458 -0.2589 0.6529, 0.4558 -0.2612 0.6529, 0.4567 -0.2606 0.6529, 0.4547 -0.2615 0.6529, 0.4585 -0.2568 0.6529, 0.4727 -0.2612 0.6359, 0.4718 -0.261 0.6402, 0.4726 -0.2619 0.636, 0.4705 -0.2649 0.6402, 0.4712 -0.2653 0.6361, 0.4706 -0.2666 0.6362, 0.4682 -0.2684 0.6402, 0.4688 -0.2689 0.6362, 0.4675 -0.2706 0.6363, 0.4653 -0.2714 0.6402, 0.4658 -0.272 0.6362, 0.4634 -0.2738 0.6362, 0.4618 -0.2736 0.6402, 0.4621 -0.2743 0.6361, 0.4587 -0.2757 0.636, 0.4578 -0.275 0.6402, 0.458 -0.2758 0.6359, 0.467 -0.2568 0.6484, 0.4631 -0.2568 0.6512, 0.463 -0.2568 0.6512, 0.4585 -0.2568 0.6529, 0.461 -0.2627 0.6512, 0.4595 -0.2642 0.6512, 0.4577 -0.2653 0.6512, 0.4558 -0.266 0.6512, 0.4621 -0.2609 0.6512, 0.4575 -0.2598 0.6529, 0.4657 -0.2626 0.6483, 0.4641 -0.2652 0.6483, 0.462 -0.2673 0.6483, 0.4595 -0.2689 0.6483, 0.4566 -0.2698 0.6483, 0.4685 -0.264 0.6446, 0.4666 -0.2671 0.6446, 0.464 -0.2697 0.6446, 0.4608 -0.2717 0.6446, 0.4573 -0.2729 0.6446, 0.4723 -0.2568 0.6402, -0.4573 -0.2729 0.6446, -0.4566 -0.2698 0.6483, -0.4558 -0.266 0.6512, -0.4547 -0.2615 0.6529, -0.4558 -0.2612 0.6529, -0.458 -0.2589 0.6529, -0.4575 -0.2598 0.6529, -0.4584 -0.2579 0.6529, -0.458 -0.2758 0.6359, -0.4578 -0.275 0.6402, -0.4587 -0.2757 0.636, -0.4618 -0.2736 0.6402, -0.4621 -0.2743 0.6361, -0.4634 -0.2738 0.6362, -0.4653 -0.2714 0.6402, -0.4658 -0.272 0.6362, -0.4675 -0.2706 0.6363, -0.4682 -0.2684 0.6402, -0.4688 -0.2689 0.6362, -0.4706 -0.2666 0.6362, -0.4705 -0.2649 0.6402, -0.4712 -0.2653 0.6361, -0.4726 -0.2619 0.636, -0.4718 -0.261 0.6402, -0.4727 -0.2612 0.6359, -0.4723 -0.2568 0.6402, -0.4585 -0.2568 0.6529, -0.4595 -0.2642 0.6512, -0.461 -0.2627 0.6512, -0.4621 -0.2609 0.6512, -0.4628 -0.2589 0.6512, -0.4577 -0.2653 0.6512, -0.4567 -0.2606 0.6529, -0.4585 -0.2568 0.6529, -0.463 -0.2568 0.6512, -0.4631 -0.2568 0.6512, -0.467 -0.2568 0.6484, -0.4595 -0.2689 0.6483, -0.462 -0.2673 0.6483, -0.4641 -0.2652 0.6483, -0.4657 -0.2626 0.6483, -0.4667 -0.2598 0.6483, -0.4608 -0.2717 0.6446, -0.464 -0.2697 0.6446, -0.4666 -0.2671 0.6446, -0.4685 -0.264 0.6446, -0.4698 -0.2605 0.6446, -0.467 -0.2568 0.6483, -0.4701 -0.2568 0.6447, -0.4702 -0.2568 0.6446, -0.4722 -0.2568 0.6403, 0.521 -0.3103 0.0827, 0.5202 -0.3127 0.0827, 0.519 -0.315 0.0827, 0.5176 -0.3171 0.0827, 0.5159 -0.3191 0.0827, 0.514 -0.3208 0.0827, 0.5119 -0.3222 0.0827, 0.5096 -0.3233 0.0827, 0.5071 -0.3241 0.0827, 0.4723 0.2568 0.6402, 0.4722 0.2568 0.6403, 0.4702 0.2568 0.6446, 0.4701 0.2568 0.6447, 0.467 0.2568 0.6483, 0.467 0.2568 0.6484, 0.4631 0.2568 0.6512, 0.463 0.2568 0.6512, 0.4585 0.2568 0.6529, 0.4585 0.2568 0.6529, -0.4537 0.2616 0.6529, -0.3793 0.2607 0.6531, -0.3 0.2607 0.6531, 0.4537 0.2616 0.6529, 0.4537 0.2755 0.6402, -0.4537 0.2755 0.6402, 0.4537 0.2754 0.6403, -0.4537 0.2754 0.6403, 0.4537 0.2733 0.6446, -0.4537 0.2733 0.6446, 0.4537 0.2733 0.6447, -0.4537 0.2733 0.6447, 0.4537 0.2702 0.6483, -0.4537 0.2702 0.6483, 0.4537 0.2701 0.6484, -0.4537 0.2701 0.6484, 0.4537 0.2662 0.6512, -0.4537 0.2662 0.6512, 0.4537 0.2662 0.6512, -0.4537 0.2662 0.6512, 0.4537 0.2617 0.6529, -0.4537 0.2617 0.6529, -0.4723 0.2568 0.6402, -0.4722 0.2568 0.6403, -0.4702 0.2568 0.6446, -0.4701 0.2568 0.6447, -0.467 0.2568 0.6483, -0.467 0.2568 0.6484, -0.4631 0.2568 0.6512, -0.463 0.2568 0.6512, -0.4585 0.2568 0.6529, -0.4585 0.2568 0.6529, -0.5071 -0.3241 0.0827, -0.5096 -0.3233 0.0827, -0.5119 -0.3222 0.0827, -0.514 -0.3208 0.0827, -0.5159 -0.3191 0.0827, -0.5176 -0.3171 0.0827, -0.519 -0.315 0.0827, -0.5202 -0.3127 0.0827, -0.521 -0.3103 0.0827, 0.5018 -0.3188 0.0215, 0.5018 -0.3188 0.0215, 0.5065 -0.3168 0.0213, 0.5065 -0.3168 0.0213, 0.5105 -0.3137 0.0212, 0.5137 -0.3096 0.0213, 0.5137 -0.3096 0.0213, 0.5156 -0.3049 0.0215, 0.5156 -0.3049 0.0215, 0.4571 0.2697 0.6483, 0.4561 0.2659 0.6512, 0.4549 0.2615 0.6529, 0.4561 0.261 0.6529, 0.4579 0.2592 0.6529, 0.4571 0.2602 0.6529, 0.4584 0.2581 0.6529, 0.4585 0.2748 0.6402, 0.4587 0.2757 0.636, 0.4587 0.2757 0.636, 0.4634 0.2738 0.6362, 0.463 0.273 0.6402, 0.4634 0.2737 0.6362, 0.4669 0.27 0.6402, 0.4675 0.2706 0.6363, 0.4698 0.2661 0.6402, 0.4706 0.2666 0.6362, 0.4706 0.2666 0.6362, 0.4717 0.2616 0.6402, 0.4726 0.2619 0.636, 0.4726 0.2619 0.636, 0.4584 0.265 0.6512, 0.4603 0.2635 0.6512, 0.4618 0.2615 0.6512, 0.4627 0.2593 0.6512, 0.4604 0.2684 0.6483, 0.4631 0.2663 0.6483, 0.4652 0.2635 0.6483, 0.4666 0.2603 0.6483, 0.4579 0.2728 0.6446, 0.4619 0.2711 0.6446, 0.4653 0.2685 0.6446, 0.468 0.2651 0.6446, 0.4696 0.2611 0.6446, -0.4666 0.2603 0.6483, -0.4627 0.2593 0.6512, -0.4584 0.2581 0.6529, -0.4579 0.2592 0.6529, -0.4561 0.261 0.6529, -0.4571 0.2602 0.6529, -0.4549 0.2615 0.6529, -0.4717 0.2616 0.6402, -0.4726 0.2619 0.636, -0.4726 0.2619 0.636, -0.4706 0.2666 0.6362, -0.4698 0.2661 0.6402, -0.4706 0.2666 0.6362, -0.4669 0.27 0.6402, -0.4675 0.2706 0.6363, -0.463 0.273 0.6402, -0.4634 0.2737 0.6362, -0.4634 0.2738 0.6362, -0.4585 0.2748 0.6402, -0.4587 0.2757 0.636, -0.4587 0.2757 0.636, -0.4618 0.2615 0.6512, -0.4603 0.2635 0.6512, -0.4584 0.265 0.6512, -0.4561 0.2659 0.6512, -0.4652 0.2635 0.6483, -0.4631 0.2663 0.6483, -0.4604 0.2684 0.6483, -0.4571 0.2697 0.6483, -0.4696 0.2611 0.6446, -0.468 0.2651 0.6446, -0.4653 0.2685 0.6446, -0.4619 0.2711 0.6446, -0.4579 0.2728 0.6446, -0.5156 -0.3049 0.0215, -0.5156 -0.3049 0.0215, -0.5137 -0.3096 0.0213, -0.5137 -0.3096 0.0213, -0.5105 -0.3137 0.0212, -0.5065 -0.3168 0.0213, -0.5065 -0.3168 0.0213, -0.5018 -0.3188 0.0215, -0.5018 -0.3188 0.0215, 0.4967 -0.3047 0.0045, -0.4967 -0.3047 0.0045, -0.4967 -0.3047 0.0045, 0.4967 -0.3047 0.0045, -0.4967 -0.3092 0.0063, 0.4967 -0.3092 0.0063, -0.4967 -0.3093 0.0063, 0.4967 -0.3093 0.0063, -0.4967 -0.3132 0.0091, 0.4967 -0.3132 0.0091, -0.4967 -0.3132 0.0092, 0.4967 -0.3132 0.0092, -0.4967 -0.3163 0.0128, 0.4967 -0.3163 0.0128, -0.4967 -0.3164 0.0129, 0.4967 -0.3164 0.0129, -0.4967 -0.3185 0.0172, 0.4967 -0.3185 0.0172, -0.4967 -0.3185 0.0173, 0.4967 -0.3185 0.0173, 0.498 -0.3046 0.0045, 0.5058 -0.3023 0.0063, 0.5096 -0.3033 0.0092, 0.5127 -0.3041 0.0129, 0.5147 -0.3047 0.0173, 0.5129 -0.3092 0.0173, 0.5016 -0.3179 0.0173, 0.501 -0.3158 0.0129, 0.511 -0.3081 0.0129, 0.5099 -0.3131 0.0173, 0.5002 -0.3128 0.0092, 0.5083 -0.3066 0.0092, 0.5084 -0.3116 0.0129, 0.4992 -0.309 0.0063, 0.5062 -0.3093 0.0092, 0.5049 -0.3046 0.0063, 0.5014 -0.3011 0.0045, 0.506 -0.316 0.0173, 0.505 -0.3142 0.0129, 0.5034 -0.3114 0.0092, 0.5014 -0.308 0.0063, 0.4991 -0.3041 0.0045, 0.5034 -0.3065 0.0063, 0.5009 -0.3023 0.0045, 0.5002 -0.3033 0.0045, 0.5071 0.3241 0.0827, 0.5096 0.3233 0.0827, 0.5119 0.3222 0.0827, 0.514 0.3208 0.0827, 0.5159 0.3191 0.0827, 0.5176 0.3171 0.0827, 0.519 0.315 0.0827, 0.5202 0.3127 0.0827, 0.521 0.3103 0.0827, -0.521 0.3103 0.0827, -0.5202 0.3127 0.0827, -0.519 0.315 0.0827, -0.5176 0.3171 0.0827, -0.5159 0.3191 0.0827, -0.514 0.3208 0.0827, -0.5119 0.3222 0.0827, -0.5096 0.3233 0.0827, -0.5071 0.3241 0.0827, -0.5015 -0.2999 0.0045, -0.5014 -0.3011 0.0045, -0.4992 -0.309 0.0063, -0.5002 -0.3128 0.0092, -0.501 -0.3158 0.0129, -0.5016 -0.3179 0.0173, -0.506 -0.316 0.0173, -0.5154 -0.2999 0.0173, -0.5147 -0.3047 0.0173, -0.5153 -0.2999 0.0172, -0.5127 -0.3041 0.0129, -0.505 -0.3142 0.0129, -0.5099 -0.3131 0.0173, -0.5132 -0.2999 0.0129, -0.5132 -0.2999 0.0128, -0.5096 -0.3033 0.0092, -0.5034 -0.3114 0.0092, -0.5084 -0.3116 0.0129, -0.5101 -0.2999 0.0092, -0.51 -0.2999 0.0091, -0.5058 -0.3023 0.0063, -0.5062 -0.3093 0.0092, -0.5014 -0.308 0.0063, -0.498 -0.3046 0.0045, -0.5129 -0.3092 0.0173, -0.511 -0.3081 0.0129, -0.5083 -0.3066 0.0092, -0.5049 -0.3046 0.0063, -0.5009 -0.3023 0.0045, -0.5034 -0.3065 0.0063, -0.4991 -0.3041 0.0045, -0.5002 -0.3033 0.0045, -0.5061 -0.2999 0.0063, -0.5061 -0.2999 0.0063, -0.5016 -0.2999 0.0045, 0.5157 0.3042 0.0216, 0.5156 0.3049 0.0215, 0.5142 0.3083 0.0214, 0.5137 0.3096 0.0213, 0.5119 0.312 0.0212, 0.5105 0.3137 0.0212, 0.5088 0.315 0.0212, 0.5065 0.3168 0.0213, 0.5052 0.3174 0.0214, 0.5011 0.3189 0.0216, 0.5018 0.3188 0.0215, -0.5018 0.3188 0.0215, -0.5018 0.3188 0.0215, -0.5065 0.3168 0.0213, -0.5065 0.3168 0.0213, -0.5105 0.3137 0.0212, -0.5137 0.3096 0.0213, -0.5137 0.3096 0.0213, -0.5156 0.3049 0.0215, -0.5156 0.3049 0.0215, -0.5153 -0.1476 0.0172, -0.5132 -0.1476 0.0128, -0.51 -0.1476 0.0091, -0.5061 -0.1476 0.0063, -0.5015 -0.1476 0.0045, 0.5015 0.301 0.0045, 0.4997 0.3037 0.0045, 0.5005 0.3029 0.0045, 0.4967 0.3092 0.0063, 0.4967 0.3093 0.0063, 0.4988 0.309 0.0063, 0.4967 0.3132 0.0091, 0.4967 0.3132 0.0092, 0.4997 0.3129 0.0092, 0.5004 0.316 0.0129, 0.5009 0.318 0.0173, 0.5048 0.3167 0.0173, 0.5135 0.308 0.0173, 0.5149 0.304 0.0173, 0.5083 0.3145 0.0173, 0.4967 0.3185 0.0173, 0.4967 0.3185 0.0172, 0.4967 0.3164 0.0129, 0.4967 0.3163 0.0128, 0.5128 0.3035 0.0129, 0.5039 0.3148 0.0129, 0.5098 0.3029 0.0092, 0.5025 0.3119 0.0092, 0.507 0.3128 0.0129, 0.5113 0.3115 0.0173, 0.5059 0.302 0.0063, 0.5096 0.3102 0.0129, 0.5051 0.3103 0.0092, 0.5008 0.3083 0.0063, 0.4978 0.3046 0.0045, 0.5041 0.3057 0.0063, 0.5116 0.307 0.0129, 0.5088 0.3057 0.0092, 0.5052 0.304 0.0063, 0.5011 0.302 0.0045, 0.4967 0.3047 0.0045, 0.4967 0.3047 0.0045, 0.5072 0.3082 0.0092, 0.5026 0.3072 0.0063, 0.4988 0.3042 0.0045, -0.4967 0.3047 0.0045, -0.498 0.3046 0.0045, -0.5058 0.3023 0.0063, -0.5096 0.3033 0.0092, -0.5127 0.3041 0.0129, -0.5147 0.3047 0.0173, -0.5129 0.3092 0.0173, -0.4967 0.3185 0.0173, -0.5016 0.3179 0.0173, -0.4967 0.3185 0.0172, -0.501 0.3158 0.0129, -0.511 0.3081 0.0129, -0.5099 0.3131 0.0173, -0.4967 0.3164 0.0129, -0.4967 0.3163 0.0128, -0.5002 0.3128 0.0092, -0.5083 0.3066 0.0092, -0.5084 0.3116 0.0129, -0.4967 0.3132 0.0092, -0.4967 0.3132 0.0091, -0.4992 0.309 0.0063, -0.5062 0.3093 0.0092, -0.5049 0.3046 0.0063, -0.5014 0.3011 0.0045, -0.506 0.316 0.0173, -0.505 0.3142 0.0129, -0.5034 0.3114 0.0092, -0.5014 0.308 0.0063, -0.4991 0.3041 0.0045, -0.5034 0.3065 0.0063, -0.5009 0.3023 0.0045, -0.5002 0.3033 0.0045, -0.4967 0.3093 0.0063, -0.4967 0.3092 0.0063, -0.4967 0.3047 0.0045
            ]
        }
        coordIndex [
            0,1,2,-1,3,4,5,-1,5,4,6,-1,5,6,7,-1,8,9,10,-1,10,9,11,-1,10,11,12,-1,13,14,8,-1,8,14,15,-1,16,12,17,-1,17,12,18,-1,5,10,3,-1,3,10,12,-1,3,12,19,-1,19,12,16,-1,20,21,22,-1,22,21,23,-1,24,25,26,-1,26,25,9,-1,27,7,28,-1,28,7,29,-1,28,29,30,-1,18,31,8,-1,8,31,22,-1,8,22,9,-1,9,22,23,-1,9,23,26,-1,32,33,34,-1,34,33,35,-1,34,35,36,-1,37,38,34,-1,34,38,39,-1,40,41,42,-1,42,41,43,-1,39,44,34,-1,34,44,43,-1,34,43,45,-1,45,43,41,-1,46,47,48,-1,36,49,34,-1,34,49,50,-1,34,50,37,-1,47,51,48,-1,48,51,8,-1,48,8,52,-1,52,8,15,-1,52,15,27,-1,27,15,53,-1,27,53,7,-1,7,53,0,-1,7,0,5,-1,5,0,2,-1,30,54,28,-1,28,54,55,-1,28,55,56,-1,56,55,57,-1,56,57,58,-1,57,59,58,-1,58,59,60,-1,58,60,48,-1,48,60,61,-1,48,61,46,-1,51,62,8,-1,8,62,63,-1,8,63,64,-1,64,65,8,-1,8,65,66,-1,8,66,18,-1,18,66,67,-1,18,67,17,-1,17,67,68,-1,17,68,34,-1,34,68,69,-1,34,69,32,-1,70,71,72,-1,72,71,8,-1,73,74,10,-1,75,76,77,-1,77,78,75,-1,75,78,79,-1,75,79,80,-1,8,81,72,-1,72,81,82,-1,72,82,83,-1,84,85,10,-1,10,85,86,-1,10,86,8,-1,8,86,87,-1,88,89,81,-1,81,89,90,-1,80,84,75,-1,75,84,10,-1,75,10,91,-1,91,10,74,-1,91,74,92,-1,92,74,93,-1,87,94,8,-1,8,94,95,-1,8,95,81,-1,81,95,96,-1,81,96,88,-1,90,97,81,-1,81,97,98,-1,81,98,75,-1,75,98,99,-1,75,99,76,-1,82,73,83,-1,83,73,10,-1,83,10,100,-1,100,10,5,-1,100,5,101,-1,101,5,102,-1,103,104,105,-1,105,104,106,-1,107,108,109,-1,109,108,110,-1,106,111,105,-1,105,111,112,-1,111,113,112,-1,112,113,114,-1,112,114,115,-1,114,116,115,-1,115,116,117,-1,115,117,118,-1,117,119,118,-1,118,119,120,-1,118,120,121,-1,120,122,121,-1,121,122,123,-1,121,123,124,-1,123,125,124,-1,124,125,2,-1,124,2,1,-1,126,127,107,-1,107,127,128,-1,107,128,108,-1,129,130,131,-1,131,132,129,-1,129,132,133,-1,129,133,126,-1,126,133,134,-1,126,134,127,-1,135,136,137,-1,137,136,138,-1,137,138,130,-1,130,138,139,-1,130,139,131,-1,137,140,135,-1,135,140,14,-1,135,14,13,-1,141,142,143,-1,143,142,144,-1,142,145,144,-1,144,145,146,-1,145,147,146,-1,146,147,148,-1,146,148,149,-1,148,150,149,-1,149,150,151,-1,149,151,152,-1,151,153,152,-1,152,153,154,-1,152,154,155,-1,154,156,155,-1,155,156,157,-1,155,157,158,-1,157,159,158,-1,158,159,71,-1,158,71,70,-1,160,161,162,-1,162,161,163,-1,164,165,166,-1,166,165,167,-1,168,169,170,-1,170,169,171,-1,172,173,174,-1,174,173,175,-1,110,176,109,-1,109,176,177,-1,109,177,103,-1,103,177,104,-1,174,175,178,-1,178,175,179,-1,169,180,171,-1,171,180,181,-1,171,181,143,-1,143,181,141,-1,182,183,164,-1,164,183,165,-1,184,185,186,-1,186,185,187,-1,188,160,162,-1,187,185,189,-1,189,185,190,-1,189,190,191,-1,183,182,192,-1,192,182,193,-1,192,193,194,-1,194,193,195,-1,194,195,196,-1,196,195,197,-1,196,197,198,-1,198,197,199,-1,198,199,200,-1,200,199,201,-1,200,201,202,-1,202,201,203,-1,202,203,204,-1,204,203,205,-1,204,205,206,-1,206,205,207,-1,206,207,208,-1,208,207,209,-1,208,209,190,-1,190,209,188,-1,190,188,191,-1,191,188,162,-1,210,211,212,-1,213,214,215,-1,216,217,218,-1,160,219,220,-1,221,219,160,-1,218,217,160,-1,222,160,217,-1,223,224,225,-1,225,224,226,-1,225,226,227,-1,227,226,228,-1,228,226,229,-1,228,229,230,-1,230,229,231,-1,231,229,232,-1,231,232,233,-1,233,232,234,-1,234,232,235,-1,234,235,236,-1,236,235,237,-1,237,235,238,-1,237,238,239,-1,239,238,193,-1,239,193,182,-1,188,221,160,-1,240,241,216,-1,216,241,242,-1,216,242,217,-1,217,242,243,-1,217,243,222,-1,244,220,245,-1,245,220,219,-1,245,219,246,-1,246,219,221,-1,246,221,247,-1,214,240,215,-1,215,240,216,-1,215,216,248,-1,248,216,218,-1,248,218,249,-1,249,218,160,-1,188,209,221,-1,221,209,207,-1,221,207,247,-1,247,207,205,-1,247,205,203,-1,250,244,251,-1,251,244,245,-1,251,245,252,-1,252,245,246,-1,252,246,253,-1,253,246,247,-1,253,247,254,-1,254,247,203,-1,212,250,255,-1,255,250,251,-1,255,251,256,-1,256,251,252,-1,256,252,257,-1,257,252,253,-1,257,253,258,-1,258,253,254,-1,258,254,259,-1,211,213,212,-1,212,213,215,-1,212,215,250,-1,250,215,248,-1,250,248,244,-1,244,248,249,-1,244,249,220,-1,220,249,160,-1,223,177,224,-1,224,177,260,-1,224,260,210,-1,203,201,254,-1,254,201,199,-1,254,199,259,-1,259,199,197,-1,259,197,195,-1,210,212,224,-1,224,212,255,-1,224,255,226,-1,226,255,256,-1,226,256,229,-1,229,256,257,-1,229,257,232,-1,232,257,258,-1,232,258,235,-1,235,258,259,-1,235,259,238,-1,238,259,195,-1,238,195,193,-1,194,196,261,-1,198,200,262,-1,263,264,265,-1,185,266,267,-1,268,266,185,-1,265,264,185,-1,190,185,264,-1,269,270,271,-1,271,270,272,-1,271,272,273,-1,273,272,274,-1,274,272,275,-1,274,275,276,-1,276,275,277,-1,277,275,278,-1,277,278,279,-1,279,278,280,-1,280,278,281,-1,280,281,282,-1,282,281,283,-1,283,281,284,-1,283,284,285,-1,285,284,286,-1,285,286,180,-1,287,268,185,-1,202,204,263,-1,263,204,206,-1,263,206,264,-1,264,206,208,-1,264,208,190,-1,288,267,289,-1,289,267,266,-1,289,266,290,-1,290,266,268,-1,290,268,291,-1,200,202,262,-1,262,202,263,-1,262,263,292,-1,292,263,265,-1,292,265,293,-1,293,265,185,-1,287,294,268,-1,268,294,295,-1,268,295,291,-1,291,295,296,-1,291,296,297,-1,298,288,299,-1,299,288,289,-1,299,289,300,-1,300,289,290,-1,300,290,301,-1,301,290,291,-1,301,291,302,-1,302,291,297,-1,261,298,303,-1,303,298,299,-1,303,299,304,-1,304,299,300,-1,304,300,305,-1,305,300,301,-1,305,301,306,-1,306,301,302,-1,306,302,307,-1,196,198,261,-1,261,198,262,-1,261,262,298,-1,298,262,292,-1,298,292,288,-1,288,292,293,-1,288,293,267,-1,267,293,185,-1,269,183,270,-1,270,183,192,-1,270,192,194,-1,297,308,302,-1,302,308,309,-1,302,309,307,-1,307,309,310,-1,307,310,311,-1,194,261,270,-1,270,261,303,-1,270,303,272,-1,272,303,304,-1,272,304,275,-1,275,304,305,-1,275,305,278,-1,278,305,306,-1,278,306,281,-1,281,306,307,-1,281,307,284,-1,284,307,311,-1,284,311,286,-1,104,177,223,-1,104,223,312,-1,312,223,225,-1,312,225,313,-1,313,225,227,-1,313,227,314,-1,314,227,228,-1,314,228,315,-1,315,228,230,-1,315,230,316,-1,316,230,231,-1,316,231,317,-1,317,231,233,-1,317,233,318,-1,318,233,234,-1,318,234,319,-1,319,234,236,-1,319,236,320,-1,320,236,237,-1,320,237,164,-1,164,237,239,-1,164,239,182,-1,177,176,260,-1,260,176,321,-1,260,321,210,-1,210,321,322,-1,210,322,211,-1,211,322,323,-1,211,323,213,-1,213,323,324,-1,213,324,214,-1,214,324,325,-1,214,325,240,-1,240,325,326,-1,240,326,241,-1,241,326,327,-1,241,327,242,-1,242,327,328,-1,242,328,243,-1,243,328,329,-1,243,329,222,-1,329,330,222,-1,222,330,161,-1,222,161,160,-1,184,186,331,-1,331,186,332,-1,163,161,333,-1,333,161,334,-1,178,179,335,-1,335,179,336,-1,335,336,337,-1,337,336,338,-1,337,338,339,-1,339,338,340,-1,339,340,341,-1,341,340,342,-1,341,342,343,-1,343,342,344,-1,343,344,345,-1,345,344,346,-1,345,346,347,-1,347,346,348,-1,347,348,349,-1,349,348,350,-1,349,350,351,-1,351,350,352,-1,351,352,334,-1,334,352,331,-1,334,331,333,-1,333,331,332,-1,181,180,353,-1,353,180,286,-1,353,286,354,-1,354,286,311,-1,354,311,355,-1,355,311,310,-1,355,310,356,-1,356,310,309,-1,356,309,357,-1,357,309,308,-1,357,308,358,-1,358,308,297,-1,358,297,359,-1,359,297,296,-1,359,296,360,-1,360,296,295,-1,360,295,361,-1,361,295,294,-1,361,294,362,-1,294,287,362,-1,362,287,185,-1,362,185,184,-1,165,183,269,-1,165,269,363,-1,363,269,271,-1,363,271,364,-1,364,271,273,-1,364,273,365,-1,365,273,274,-1,365,274,366,-1,366,274,276,-1,366,276,367,-1,367,276,277,-1,367,277,368,-1,368,277,279,-1,368,279,369,-1,369,279,280,-1,369,280,370,-1,370,280,282,-1,370,282,371,-1,371,282,283,-1,371,283,169,-1,169,283,285,-1,169,285,180,-1,166,372,164,-1,164,372,320,-1,320,372,319,-1,319,372,373,-1,319,373,318,-1,318,373,374,-1,318,374,317,-1,317,374,375,-1,317,375,316,-1,316,375,376,-1,316,376,315,-1,315,376,377,-1,315,377,314,-1,314,377,378,-1,314,378,313,-1,313,378,379,-1,313,379,312,-1,379,380,312,-1,312,380,106,-1,312,106,104,-1,341,343,381,-1,382,383,384,-1,161,385,386,-1,387,385,161,-1,384,383,161,-1,334,161,383,-1,388,389,390,-1,389,388,391,-1,391,388,392,-1,391,392,393,-1,393,392,394,-1,393,394,395,-1,395,394,396,-1,395,396,397,-1,397,396,398,-1,398,396,399,-1,398,399,400,-1,400,399,401,-1,401,399,321,-1,401,321,176,-1,330,387,161,-1,345,347,382,-1,382,347,349,-1,382,349,383,-1,383,349,351,-1,383,351,334,-1,402,386,403,-1,403,386,385,-1,403,385,404,-1,404,385,387,-1,404,387,405,-1,330,329,387,-1,387,329,328,-1,387,328,405,-1,405,328,327,-1,405,327,326,-1,381,402,406,-1,406,402,403,-1,406,403,407,-1,407,403,404,-1,407,404,408,-1,408,404,405,-1,408,405,409,-1,409,405,326,-1,337,339,410,-1,410,339,341,-1,341,381,410,-1,410,381,406,-1,410,406,411,-1,411,406,407,-1,411,407,412,-1,412,407,408,-1,412,408,413,-1,413,408,409,-1,413,409,414,-1,343,345,381,-1,381,345,382,-1,381,382,402,-1,402,382,384,-1,402,384,386,-1,386,384,161,-1,337,388,335,-1,335,388,390,-1,335,390,178,-1,326,325,409,-1,409,325,324,-1,409,324,414,-1,414,324,323,-1,414,323,322,-1,337,410,388,-1,388,410,411,-1,388,411,392,-1,392,411,412,-1,392,412,394,-1,394,412,413,-1,394,413,396,-1,396,413,414,-1,396,414,399,-1,399,414,322,-1,399,322,321,-1,356,357,415,-1,416,417,418,-1,184,419,420,-1,421,419,184,-1,418,417,184,-1,362,184,417,-1,422,423,424,-1,423,422,425,-1,425,422,426,-1,425,426,427,-1,427,426,428,-1,427,428,429,-1,429,428,430,-1,429,430,431,-1,431,430,432,-1,432,430,433,-1,432,433,434,-1,434,433,435,-1,435,433,336,-1,435,336,179,-1,331,421,184,-1,358,359,416,-1,416,359,360,-1,416,360,417,-1,417,360,361,-1,417,361,362,-1,436,420,437,-1,437,420,419,-1,437,419,438,-1,438,419,421,-1,438,421,439,-1,331,352,421,-1,421,352,350,-1,421,350,439,-1,439,350,348,-1,439,348,346,-1,415,436,440,-1,440,436,437,-1,440,437,441,-1,441,437,438,-1,441,438,442,-1,442,438,439,-1,442,439,443,-1,443,439,346,-1,354,355,444,-1,444,355,356,-1,356,415,444,-1,444,415,440,-1,444,440,445,-1,445,440,441,-1,445,441,446,-1,446,441,442,-1,446,442,447,-1,447,442,443,-1,447,443,448,-1,357,358,415,-1,415,358,416,-1,415,416,436,-1,436,416,418,-1,436,418,420,-1,420,418,184,-1,354,422,353,-1,353,422,424,-1,353,424,181,-1,346,344,443,-1,443,344,342,-1,443,342,448,-1,448,342,340,-1,448,340,338,-1,354,444,422,-1,422,444,445,-1,422,445,426,-1,426,445,446,-1,426,446,428,-1,428,446,447,-1,428,447,430,-1,430,447,448,-1,430,448,433,-1,433,448,338,-1,433,338,336,-1,168,449,169,-1,169,449,371,-1,371,449,370,-1,370,449,450,-1,370,450,369,-1,369,450,451,-1,369,451,368,-1,368,451,452,-1,368,452,367,-1,367,452,453,-1,367,453,366,-1,366,453,454,-1,366,454,365,-1,365,454,455,-1,365,455,364,-1,364,455,456,-1,364,456,363,-1,456,457,363,-1,363,457,167,-1,363,167,165,-1,5,2,458,-1,102,5,459,-1,459,5,458,-1,459,458,460,-1,460,458,461,-1,460,461,462,-1,462,461,463,-1,462,463,464,-1,464,463,465,-1,464,465,466,-1,466,465,467,-1,466,467,468,-1,468,467,469,-1,468,469,470,-1,470,469,471,-1,470,471,472,-1,472,471,473,-1,472,473,474,-1,474,473,475,-1,474,475,476,-1,476,475,477,-1,476,477,167,-1,167,477,166,-1,458,2,478,-1,122,120,479,-1,119,117,480,-1,481,482,483,-1,372,166,477,-1,374,373,484,-1,484,373,372,-1,380,379,482,-1,482,379,378,-1,482,378,483,-1,483,378,377,-1,483,377,376,-1,106,380,111,-1,111,380,482,-1,111,482,113,-1,113,482,481,-1,113,481,114,-1,114,481,116,-1,372,477,484,-1,484,477,475,-1,484,475,485,-1,117,116,480,-1,480,116,481,-1,480,481,486,-1,486,481,483,-1,486,483,487,-1,487,483,376,-1,475,473,485,-1,485,473,471,-1,485,471,488,-1,120,119,479,-1,479,119,480,-1,479,480,489,-1,489,480,486,-1,489,486,490,-1,490,486,487,-1,471,469,488,-1,488,469,467,-1,488,467,491,-1,490,492,489,-1,489,492,493,-1,489,493,479,-1,479,493,494,-1,479,494,122,-1,375,374,495,-1,495,374,484,-1,495,484,496,-1,496,484,485,-1,496,485,497,-1,497,485,488,-1,497,488,498,-1,498,488,491,-1,498,491,499,-1,499,491,478,-1,499,478,2,-1,2,125,494,-1,494,125,123,-1,494,123,122,-1,492,500,493,-1,493,500,501,-1,493,501,494,-1,494,501,2,-1,500,502,501,-1,501,502,2,-1,467,465,491,-1,491,465,463,-1,491,463,478,-1,478,463,461,-1,478,461,458,-1,376,375,487,-1,487,375,495,-1,487,495,490,-1,490,495,496,-1,490,496,492,-1,492,496,497,-1,492,497,500,-1,500,497,498,-1,500,498,502,-1,502,498,499,-1,502,499,2,-1,178,390,174,-1,174,390,503,-1,503,390,504,-1,504,390,389,-1,504,389,505,-1,505,389,391,-1,505,391,506,-1,506,391,393,-1,506,393,507,-1,507,393,395,-1,507,395,508,-1,508,395,397,-1,508,397,509,-1,509,397,398,-1,509,398,510,-1,510,398,400,-1,510,400,511,-1,400,401,511,-1,511,401,176,-1,511,176,110,-1,181,424,141,-1,141,424,512,-1,512,424,513,-1,513,424,423,-1,513,423,514,-1,514,423,425,-1,514,425,515,-1,515,425,427,-1,515,427,516,-1,516,427,429,-1,516,429,517,-1,517,429,431,-1,517,431,518,-1,518,431,432,-1,518,432,519,-1,519,432,434,-1,519,434,520,-1,434,435,520,-1,520,435,179,-1,520,179,175,-1,521,102,522,-1,462,464,523,-1,466,468,524,-1,525,526,527,-1,449,168,528,-1,451,450,529,-1,529,450,449,-1,457,456,526,-1,526,456,455,-1,526,455,527,-1,527,455,454,-1,527,454,453,-1,167,457,476,-1,476,457,526,-1,476,526,474,-1,474,526,525,-1,474,525,472,-1,472,525,470,-1,449,528,529,-1,529,528,530,-1,529,530,531,-1,468,470,524,-1,524,470,525,-1,524,525,532,-1,532,525,527,-1,532,527,533,-1,533,527,453,-1,530,534,531,-1,531,534,535,-1,531,535,536,-1,464,466,523,-1,523,466,524,-1,523,524,537,-1,537,524,532,-1,537,532,538,-1,538,532,533,-1,535,539,536,-1,536,539,540,-1,536,540,541,-1,538,542,537,-1,537,542,543,-1,537,543,523,-1,523,543,544,-1,523,544,462,-1,452,451,545,-1,545,451,529,-1,545,529,546,-1,546,529,531,-1,546,531,547,-1,547,531,536,-1,547,536,548,-1,548,536,541,-1,548,541,549,-1,549,541,522,-1,549,522,102,-1,102,459,544,-1,544,459,460,-1,544,460,462,-1,542,550,543,-1,543,550,551,-1,543,551,544,-1,544,551,102,-1,550,552,551,-1,551,552,102,-1,540,553,541,-1,541,553,554,-1,541,554,522,-1,522,554,555,-1,522,555,521,-1,453,452,533,-1,533,452,545,-1,533,545,538,-1,538,545,546,-1,538,546,542,-1,542,546,547,-1,542,547,550,-1,550,547,548,-1,550,548,552,-1,552,548,549,-1,552,549,102,-1,110,108,556,-1,110,556,511,-1,511,556,557,-1,511,557,510,-1,510,557,558,-1,510,558,509,-1,509,558,559,-1,509,559,508,-1,508,559,560,-1,508,560,507,-1,507,560,561,-1,507,561,506,-1,506,561,562,-1,506,562,505,-1,505,562,563,-1,505,563,504,-1,504,563,564,-1,504,564,503,-1,172,174,565,-1,565,174,503,-1,565,503,566,-1,566,503,564,-1,173,567,175,-1,175,567,520,-1,520,567,519,-1,519,567,568,-1,519,568,518,-1,518,568,569,-1,518,569,517,-1,517,569,570,-1,517,570,516,-1,516,570,571,-1,516,571,515,-1,515,571,572,-1,515,572,514,-1,514,572,573,-1,514,573,513,-1,513,573,574,-1,513,574,512,-1,574,575,512,-1,512,575,142,-1,512,142,141,-1,576,530,170,-1,170,530,528,-1,170,528,168,-1,577,578,540,-1,540,539,577,-1,577,539,535,-1,577,535,576,-1,576,535,534,-1,576,534,530,-1,521,555,579,-1,579,555,554,-1,579,554,578,-1,578,554,553,-1,578,553,540,-1,579,580,521,-1,521,580,101,-1,521,101,102,-1,135,13,581,-1,582,583,13,-1,584,585,586,-1,587,588,589,-1,590,591,592,-1,559,558,593,-1,557,556,594,-1,594,556,108,-1,595,562,561,-1,592,564,563,-1,564,592,566,-1,566,592,591,-1,566,591,565,-1,172,565,596,-1,596,565,591,-1,596,591,597,-1,597,591,590,-1,597,590,598,-1,598,590,599,-1,108,128,594,-1,594,128,127,-1,594,127,600,-1,588,599,589,-1,589,599,590,-1,589,590,601,-1,601,590,592,-1,601,592,595,-1,595,592,563,-1,595,563,562,-1,127,134,600,-1,600,134,133,-1,600,133,602,-1,585,587,586,-1,586,587,589,-1,586,589,603,-1,603,589,601,-1,603,601,604,-1,604,601,595,-1,604,595,605,-1,605,595,561,-1,605,561,560,-1,133,132,602,-1,602,132,131,-1,602,131,606,-1,605,607,604,-1,604,607,608,-1,604,608,603,-1,603,608,609,-1,603,609,586,-1,586,609,610,-1,586,610,584,-1,583,582,611,-1,558,557,593,-1,593,557,594,-1,593,594,612,-1,612,594,600,-1,612,600,613,-1,613,600,602,-1,613,602,614,-1,614,602,606,-1,614,606,615,-1,615,606,581,-1,615,581,13,-1,13,616,610,-1,610,616,617,-1,610,617,584,-1,607,618,608,-1,608,618,619,-1,608,619,609,-1,609,619,620,-1,609,620,610,-1,610,620,13,-1,618,611,619,-1,619,611,582,-1,619,582,620,-1,620,582,13,-1,131,139,606,-1,606,139,138,-1,606,138,581,-1,581,138,136,-1,581,136,135,-1,560,559,605,-1,605,559,593,-1,605,593,607,-1,607,593,612,-1,607,612,618,-1,618,612,613,-1,618,613,611,-1,611,613,614,-1,611,614,583,-1,583,614,615,-1,583,615,13,-1,621,71,622,-1,156,154,623,-1,153,151,624,-1,625,626,627,-1,567,173,628,-1,569,568,629,-1,629,568,567,-1,575,574,626,-1,626,574,573,-1,626,573,627,-1,627,573,572,-1,627,572,571,-1,142,575,145,-1,145,575,626,-1,145,626,147,-1,147,626,625,-1,147,625,148,-1,148,625,150,-1,567,628,629,-1,629,628,630,-1,629,630,631,-1,151,150,624,-1,624,150,625,-1,624,625,632,-1,632,625,627,-1,632,627,633,-1,633,627,571,-1,630,634,631,-1,631,634,635,-1,631,635,636,-1,154,153,623,-1,623,153,624,-1,623,624,637,-1,637,624,632,-1,637,632,638,-1,638,632,633,-1,635,639,636,-1,636,639,640,-1,636,640,641,-1,638,642,637,-1,637,642,643,-1,637,643,623,-1,623,643,644,-1,623,644,156,-1,570,569,645,-1,645,569,629,-1,645,629,646,-1,646,629,631,-1,646,631,647,-1,647,631,636,-1,647,636,648,-1,648,636,641,-1,648,641,649,-1,649,641,622,-1,649,622,71,-1,71,159,644,-1,644,159,157,-1,644,157,156,-1,642,650,643,-1,643,650,651,-1,643,651,644,-1,644,651,71,-1,650,652,651,-1,651,652,71,-1,640,653,641,-1,641,653,654,-1,641,654,622,-1,622,654,655,-1,622,655,621,-1,571,570,633,-1,633,570,645,-1,633,645,638,-1,638,645,646,-1,638,646,642,-1,642,646,647,-1,642,647,650,-1,650,647,648,-1,650,648,652,-1,652,648,649,-1,652,649,71,-1,8,71,621,-1,173,172,628,-1,628,172,596,-1,628,596,630,-1,630,596,597,-1,630,597,634,-1,634,597,598,-1,634,598,635,-1,635,598,599,-1,635,599,639,-1,639,599,588,-1,639,588,640,-1,640,588,587,-1,640,587,653,-1,653,587,585,-1,653,585,654,-1,654,585,584,-1,654,584,655,-1,655,584,617,-1,655,617,621,-1,621,617,616,-1,621,616,8,-1,8,616,13,-1,
        ]
    }
}
Shape{
    appearance Appearance {
        material  Material 	{
            diffuseColor 0.5019607843137255 0.5019607843137255 0.5019607843137255
            specularColor 0.25098039215686274 0.25098039215686274 0.25098039215686274
            ambientIntensity 0.502
            transparency 0.0
            shininess 0.5
        }
    }
    geometry IndexedFaceSet {
        ccw TRUE
        solid FALSE
        coord DEF co Coordinate {
            point [
                -0.3 0.2568 0.6535, -0.3 0.2607 0.6531, -0.3 -0.2568 0.6535, -0.3 -0.2607 0.6531, -0.3793 -0.2568 0.6535, -0.3793 -0.2607 0.6531, -0.3793 0.2568 0.6535, -0.3793 0.2607 0.6531
            ]
        }
        coordIndex [
            0,1,2,-1,2,1,3,-1,4,5,6,-1,6,5,7,-1,7,5,1,-1,1,5,3,-1,
        ]
    }
}
Shape{
    appearance Appearance {
        material  Material 	{
            diffuseColor 1.0 1.0 1.0
            specularColor 0.5019607843137255 0.5019607843137255 0.5019607843137255
            ambientIntensity 1.0
            transparency 0.0
            shininess 0.5
        }
    }
    geometry IndexedFaceSet {
        ccw TRUE
        solid FALSE
        coord DEF co Coordinate {
            point [
                -0.4232 -0.1476 0.0039, -0.4232 -0.1476 0.0, -0.4232 -0.0336 0.0039, -0.4232 0.1476 0.0, -0.4232 0.1476 0.0039, -0.5217 0.1476 0.0827, -0.7382 0.1476 0.0827, -0.5217 -0.1476 0.0827, -0.7382 -0.1476 0.0827, -0.5153 0.1476 0.0172, -0.5132 0.1476 0.0128, -0.7382 0.1476 0.0, -0.51 0.1476 0.0091, -0.5061 0.1476 0.0063, -0.5163 0.1476 0.0219, -0.5015 0.1476 0.0045, -0.4967 0.1476 0.0039, -0.7382 -0.1476 0.0, -0.5015 -0.1476 0.0045, -0.5061 -0.1476 0.0063, -0.51 -0.1476 0.0091, -0.5132 -0.1476 0.0128, -0.4967 -0.1476 0.0039, -0.5163 -0.1476 0.0219, -0.5153 -0.1476 0.0172, 0.4232 0.1476 0.0039, 0.4232 0.1476 0.0, 0.4232 -0.0336 0.0039, 0.4232 -0.1476 0.0, 0.4232 -0.1476 0.0039, 0.5217 -0.1476 0.0827, 0.7382 -0.1476 0.0827, 0.5217 0.1476 0.0827, 0.7382 0.1476 0.0827, 0.5153 -0.1476 0.0172, 0.5132 -0.1476 0.0128, 0.7382 -0.1476 0.0, 0.51 -0.1476 0.0091, 0.5061 -0.1476 0.0063, 0.5015 -0.1476 0.0045, 0.4967 -0.1476 0.0039, 0.5163 -0.1476 0.0219, 0.7382 0.1476 0.0, 0.5015 0.1476 0.0045, 0.5061 0.1476 0.0063, 0.51 0.1476 0.0091, 0.5132 0.1476 0.0128, 0.4967 0.1476 0.0039, 0.5163 0.1476 0.0219, 0.5153 0.1476 0.0172
            ]
        }
        coordIndex [
            0,1,2,-1,2,1,3,-1,2,3,4,-1,5,6,7,-1,7,6,8,-1,9,10,11,-1,11,10,12,-1,11,12,13,-1,6,5,11,-1,11,5,14,-1,11,14,9,-1,13,15,11,-1,11,15,16,-1,11,16,3,-1,3,16,4,-1,17,8,11,-1,11,8,6,-1,18,19,17,-1,17,19,20,-1,17,20,21,-1,18,17,22,-1,22,17,1,-1,22,1,0,-1,7,8,23,-1,23,8,17,-1,23,17,24,-1,24,17,21,-1,17,11,1,-1,1,11,3,-1,25,26,27,-1,27,26,28,-1,27,28,29,-1,30,31,32,-1,32,31,33,-1,34,35,36,-1,36,35,37,-1,36,37,38,-1,38,39,36,-1,36,39,40,-1,36,40,28,-1,28,40,29,-1,31,30,36,-1,36,30,41,-1,36,41,34,-1,42,33,36,-1,36,33,31,-1,43,44,42,-1,42,44,45,-1,42,45,46,-1,43,42,47,-1,47,42,26,-1,47,26,25,-1,32,33,48,-1,48,33,42,-1,48,42,49,-1,49,42,46,-1,42,36,26,-1,26,36,28,-1,
        ]
    }
}
Shape{
    appearance Appearance {
        material  Material 	{
            diffuseColor 0.7529411764705882 0.7529411764705882 0.7529411764705882
            specularColor 0.3764705882352941 0.3764705882352941 0.3764705882352941
            ambientIntensity 0.7529
            transparency 0.0
            shininess 0.5
        }
    }
    geometry IndexedFaceSet {
        ccw TRUE
        solid FALSE
        coord DEF co Coordinate {
            point [
                -0.1514 0.0456 0.0043, -0.1822 -0.0331 0.0043, -0.1514 0.0456 0.0039, -0.1822 -0.0331 0.0039, -0.1706 -0.0331 0.0043, -0.1706 -0.0331 0.0039, -0.1627 -0.011 0.0043, -0.1627 -0.011 0.0039, -0.1301 -0.011 0.0043, -0.1301 -0.011 0.0039, -0.1226 -0.0331 0.0043, -0.1226 -0.0331 0.0039, -0.1111 -0.0331 0.0043, -0.1111 -0.0331 0.0039, -0.1409 0.0456 0.0043, -0.1409 0.0456 0.0039, -0.1328 -0.0024 0.0043, -0.1591 -0.0024 0.0043, -0.1446 0.0305 0.0043, -0.1453 0.0332 0.0043, -0.1458 0.036 0.0043, -0.1461 0.036 0.0043, -0.1466 0.0332 0.0043, -0.1473 0.0305 0.0043, -0.1328 -0.0024 0.0039, -0.1591 -0.0024 0.0039, -0.1446 0.0305 0.0039, -0.1453 0.0332 0.0039, -0.1458 0.036 0.0039, -0.1461 0.036 0.0039, -0.1466 0.0332 0.0039, -0.1473 0.0305 0.0039, -0.0634 -0.0331 0.0043, -0.042 -0.0331 0.0043, -0.0634 -0.0331 0.0039, -0.042 -0.0331 0.0039, -0.042 0.0456 0.0043, -0.042 0.0456 0.0039, -0.0642 0.0456 0.0043, -0.0642 0.0456 0.0039, -0.1053 0.0072 0.0043, -0.1053 0.0072 0.0039, -0.1048 0.0146 0.0039, -0.1048 0.0146 0.0043, -0.1027 0.0224 0.0039, -0.1027 0.0224 0.0043, -0.099 0.0292 0.0039, -0.099 0.0292 0.0043, -0.0934 0.0354 0.0039, -0.0934 0.0354 0.0043, -0.0934 0.0354 0.0039, -0.0934 0.0354 0.0043, -0.0848 0.0412 0.0039, -0.0848 0.0412 0.0043, -0.0756 0.0444 0.0039, -0.0756 0.0444 0.0043, -0.0731 -0.0323 0.0039, -0.0731 -0.0323 0.0043, -0.0822 -0.0296 0.0039, -0.0822 -0.0296 0.0043, -0.0904 -0.0248 0.0039, -0.0904 -0.0248 0.0043, -0.0969 -0.0186 0.0039, -0.0969 -0.0186 0.0043, -0.1014 -0.0115 0.0039, -0.1014 -0.0115 0.0043, -0.1042 -0.0033 0.0039, -0.1042 -0.0033 0.0043, -0.0895 0.0259 0.0043, -0.0857 0.03 0.0043, -0.08 0.0337 0.0043, -0.0735 0.036 0.0043, -0.0641 0.037 0.0043, -0.0525 0.037 0.0043, -0.0525 -0.0245 0.0043, -0.0637 -0.0245 0.0043, -0.072 -0.0237 0.0043, -0.0786 -0.0216 0.0043, -0.084 -0.0184 0.0043, -0.0884 -0.0141 0.0043, -0.0918 -0.0087 0.0043, -0.0941 -0.0013 0.0043, -0.0948 0.007 0.0043, -0.0941 0.0149 0.0043, -0.0923 0.0211 0.0043, -0.0641 0.037 0.0039, -0.0525 0.037 0.0039, -0.0735 0.036 0.0039, -0.08 0.0337 0.0039, -0.0857 0.03 0.0039, -0.0895 0.0259 0.0039, -0.0923 0.0211 0.0039, -0.0941 0.0149 0.0039, -0.0948 0.007 0.0039, -0.0941 -0.0013 0.0039, -0.0918 -0.0087 0.0039, -0.0884 -0.0141 0.0039, -0.084 -0.0184 0.0039, -0.0786 -0.0216 0.0039, -0.072 -0.0237 0.0039, -0.0637 -0.0245 0.0039, -0.0525 -0.0245 0.0039, -0.0266 -0.0245 0.0043, -0.0266 -0.0331 0.0043, -0.0266 -0.0245 0.0039, -0.0266 -0.0331 0.0039, 0.0156 -0.0331 0.0043, 0.0156 -0.0331 0.0039, 0.0156 0.0456 0.0043, 0.0156 0.0456 0.0039, -0.0247 0.0456 0.0043, -0.0247 0.0456 0.0039, -0.0247 0.037 0.0043, -0.0247 0.037 0.0039, 0.0051 0.037 0.0043, 0.0051 0.037 0.0039, 0.0051 0.0111 0.0043, 0.0051 0.0111 0.0039, -0.0228 0.0111 0.0043, -0.0228 0.0111 0.0039, -0.0228 0.0024 0.0043, -0.0228 0.0024 0.0039, 0.0051 0.0024 0.0043, 0.0051 0.0024 0.0039, 0.0051 -0.0245 0.0043, 0.0051 -0.0245 0.0039, 0.031 -0.0204 0.0043, 0.031 -0.029 0.0043, 0.031 -0.0204 0.0039, 0.031 -0.029 0.0039, 0.0394 -0.0325 0.0043, 0.0527 -0.0341 0.0043, 0.0527 -0.0341 0.0039, 0.0505 -0.034 0.0039, 0.0505 -0.034 0.0043, 0.0474 -0.0336 0.0039, 0.0394 -0.0325 0.0039, 0.0573 -0.0336 0.0039, 0.0624 -0.0331 0.0043, 0.0624 -0.0331 0.0039, 0.07 -0.0304 0.0043, 0.07 -0.0304 0.0039, 0.0763 -0.0264 0.0043, 0.0763 -0.0264 0.0039, 0.0823 -0.0202 0.0043, 0.0823 -0.0202 0.0039, 0.0865 -0.0127 0.0043, 0.0865 -0.0127 0.0039, 0.0888 -0.0044 0.0043, 0.0888 -0.0044 0.0039, 0.0896 0.0048 0.0043, 0.0896 0.0048 0.0039, 0.0495 0.0466 0.0043, 0.0495 0.0466 0.0039, 0.0574 0.0459 0.0039, 0.0574 0.0459 0.0043, 0.0662 0.0434 0.0039, 0.0662 0.0434 0.0043, 0.0737 0.0391 0.0039, 0.0737 0.0391 0.0043, 0.0808 0.0322 0.0039, 0.0808 0.0322 0.0043, 0.0854 0.0249 0.0039, 0.0854 0.0249 0.0043, 0.0885 0.016 0.0039, 0.0885 0.016 0.0043, 0.031 0.0435 0.0043, 0.031 0.0435 0.0039, 0.0401 0.0459 0.0039, 0.0401 0.0459 0.0043, 0.031 0.0329 0.0043, 0.031 0.0329 0.0039, 0.0494 0.0379 0.0043, 0.0494 0.0379 0.0039, 0.0399 0.0367 0.0039, 0.0399 0.0367 0.0043, 0.079 0.0054 0.0043, 0.079 0.0054 0.0039, 0.0786 0.0115 0.0039, 0.0786 0.0115 0.0043, 0.0765 0.02 0.0039, 0.0765 0.02 0.0043, 0.0733 0.026 0.0039, 0.0733 0.026 0.0043, 0.0685 0.0313 0.0039, 0.0685 0.0313 0.0043, 0.0631 0.0349 0.0039, 0.0631 0.0349 0.0043, 0.0572 0.0371 0.0039, 0.0572 0.0371 0.0043, 0.0512 -0.0254 0.0043, 0.0512 -0.0254 0.0039, 0.0586 -0.0246 0.0039, 0.0586 -0.0246 0.0043, 0.0643 -0.0225 0.0039, 0.0643 -0.0225 0.0043, 0.0691 -0.0192 0.0039, 0.0691 -0.0192 0.0043, 0.0728 -0.0153 0.0039, 0.0728 -0.0153 0.0043, 0.0761 -0.0099 0.0039, 0.0761 -0.0099 0.0043, 0.0782 -0.0031 0.0039, 0.0782 -0.0031 0.0043, 0.0324 -0.0212 0.0039, 0.0324 -0.0212 0.0043, 0.0408 -0.0243 0.0039, 0.0408 -0.0243 0.0043, 0.0963 -0.0245 0.0043, 0.0963 -0.0331 0.0043, 0.0963 -0.0245 0.0039, 0.0963 -0.0331 0.0039, 0.1366 -0.0331 0.0043, 0.1366 -0.0331 0.0039, 0.1366 0.0456 0.0043, 0.1366 0.0456 0.0039, 0.1261 0.0456 0.0043, 0.1261 0.0456 0.0039, 0.1261 -0.0245 0.0043, 0.1261 -0.0245 0.0039
            ]
        }
        coordIndex [
            0,1,2,-1,2,1,3,-1,1,4,3,-1,3,4,5,-1,4,6,5,-1,5,6,7,-1,6,8,7,-1,7,8,9,-1,8,10,9,-1,9,10,11,-1,10,12,11,-1,11,12,13,-1,12,14,13,-1,13,14,15,-1,14,0,15,-1,15,0,2,-1,16,8,17,-1,17,8,6,-1,18,14,16,-1,16,14,12,-1,16,12,8,-1,8,12,10,-1,18,19,14,-1,14,19,20,-1,14,20,0,-1,0,20,21,-1,0,21,22,-1,22,23,0,-1,0,23,17,-1,0,17,1,-1,1,17,6,-1,1,6,4,-1,16,17,24,-1,24,17,25,-1,18,16,26,-1,26,16,24,-1,18,26,27,-1,18,27,19,-1,19,27,28,-1,19,28,20,-1,21,20,29,-1,29,20,28,-1,21,29,30,-1,21,30,22,-1,22,30,31,-1,22,31,23,-1,17,23,25,-1,25,23,31,-1,32,33,34,-1,34,33,35,-1,33,36,35,-1,35,36,37,-1,36,38,37,-1,37,38,39,-1,40,41,42,-1,40,42,43,-1,43,42,44,-1,43,44,45,-1,45,44,46,-1,45,46,47,-1,47,46,48,-1,47,48,49,-1,49,48,50,-1,49,50,51,-1,51,50,52,-1,51,52,53,-1,53,52,54,-1,53,54,55,-1,55,54,39,-1,55,39,38,-1,32,34,56,-1,32,56,57,-1,57,56,58,-1,57,58,59,-1,59,58,60,-1,59,60,61,-1,61,60,62,-1,61,62,63,-1,63,62,64,-1,63,64,65,-1,65,64,66,-1,65,66,67,-1,67,66,41,-1,67,41,40,-1,45,47,68,-1,68,47,49,-1,68,49,69,-1,69,49,51,-1,69,51,70,-1,70,51,53,-1,70,53,71,-1,71,53,55,-1,71,55,72,-1,72,55,38,-1,72,38,73,-1,73,38,36,-1,73,36,74,-1,74,36,33,-1,74,33,75,-1,75,33,32,-1,75,32,76,-1,76,32,57,-1,76,57,77,-1,77,57,59,-1,77,59,78,-1,78,59,61,-1,78,61,79,-1,79,61,63,-1,79,63,80,-1,80,63,65,-1,80,65,81,-1,81,65,67,-1,81,67,82,-1,82,67,40,-1,82,40,83,-1,83,40,43,-1,83,43,84,-1,84,43,45,-1,84,45,68,-1,72,73,85,-1,85,73,86,-1,72,85,87,-1,72,87,71,-1,71,87,88,-1,71,88,70,-1,70,88,89,-1,70,89,69,-1,69,89,90,-1,69,90,68,-1,68,90,91,-1,68,91,84,-1,84,91,92,-1,84,92,83,-1,83,92,93,-1,83,93,82,-1,82,93,94,-1,82,94,81,-1,81,94,95,-1,81,95,80,-1,80,95,96,-1,80,96,79,-1,79,96,97,-1,79,97,78,-1,78,97,98,-1,78,98,77,-1,77,98,99,-1,77,99,76,-1,76,99,100,-1,76,100,75,-1,74,75,101,-1,101,75,100,-1,73,74,86,-1,86,74,101,-1,102,103,104,-1,104,103,105,-1,103,106,105,-1,105,106,107,-1,106,108,107,-1,107,108,109,-1,108,110,109,-1,109,110,111,-1,110,112,111,-1,111,112,113,-1,112,114,113,-1,113,114,115,-1,114,116,115,-1,115,116,117,-1,116,118,117,-1,117,118,119,-1,118,120,119,-1,119,120,121,-1,120,122,121,-1,121,122,123,-1,122,124,123,-1,123,124,125,-1,124,102,125,-1,125,102,104,-1,106,103,102,-1,102,124,106,-1,106,124,122,-1,106,122,108,-1,112,110,114,-1,114,110,108,-1,114,108,116,-1,116,108,122,-1,116,122,118,-1,118,122,120,-1,126,127,128,-1,128,127,129,-1,129,127,130,-1,131,132,133,-1,131,133,134,-1,134,133,135,-1,134,135,130,-1,130,135,136,-1,130,136,129,-1,132,131,137,-1,137,131,138,-1,137,138,139,-1,139,138,140,-1,139,140,141,-1,141,140,142,-1,141,142,143,-1,143,142,144,-1,143,144,145,-1,145,144,146,-1,145,146,147,-1,147,146,148,-1,147,148,149,-1,149,148,150,-1,149,150,151,-1,152,153,154,-1,152,154,155,-1,155,154,156,-1,155,156,157,-1,157,156,158,-1,157,158,159,-1,159,158,160,-1,159,160,161,-1,161,160,162,-1,161,162,163,-1,163,162,164,-1,163,164,165,-1,165,164,151,-1,165,151,150,-1,166,167,168,-1,166,168,169,-1,169,168,153,-1,169,153,152,-1,166,170,167,-1,167,170,171,-1,172,173,174,-1,172,174,175,-1,175,174,171,-1,175,171,170,-1,176,177,178,-1,176,178,179,-1,179,178,180,-1,179,180,181,-1,181,180,182,-1,181,182,183,-1,183,182,184,-1,183,184,185,-1,185,184,186,-1,185,186,187,-1,187,186,188,-1,187,188,189,-1,189,188,173,-1,189,173,172,-1,190,191,192,-1,190,192,193,-1,193,192,194,-1,193,194,195,-1,195,194,196,-1,195,196,197,-1,197,196,198,-1,197,198,199,-1,199,198,200,-1,199,200,201,-1,201,200,202,-1,201,202,203,-1,203,202,177,-1,203,177,176,-1,126,128,204,-1,126,204,205,-1,205,204,206,-1,205,206,207,-1,207,206,191,-1,207,191,190,-1,193,131,190,-1,190,131,134,-1,190,134,207,-1,207,134,130,-1,207,130,205,-1,205,130,127,-1,205,127,126,-1,170,166,175,-1,175,166,169,-1,175,169,172,-1,172,169,152,-1,172,152,189,-1,189,152,155,-1,189,155,187,-1,187,155,157,-1,187,157,185,-1,185,157,159,-1,185,159,183,-1,183,159,161,-1,183,161,181,-1,181,161,163,-1,181,163,179,-1,179,163,165,-1,179,165,176,-1,176,165,150,-1,176,150,203,-1,203,150,148,-1,203,148,201,-1,201,148,146,-1,201,146,199,-1,199,146,144,-1,199,144,197,-1,197,144,142,-1,197,142,195,-1,195,142,140,-1,195,140,193,-1,193,140,138,-1,193,138,131,-1,208,209,210,-1,210,209,211,-1,209,212,211,-1,211,212,213,-1,212,214,213,-1,213,214,215,-1,214,216,215,-1,215,216,217,-1,216,218,217,-1,217,218,219,-1,218,208,219,-1,219,208,210,-1,216,214,218,-1,218,214,212,-1,218,212,208,-1,208,212,209,-1,
        ]
    }
}
Shape{
    appearance Appearance {
        material  Material 	{
            diffuseColor 0.25098039215686274 0.25098039215686274 0.25098039215686274
            specularColor 0.12549019607843137 0.12549019607843137 0.12549019607843137
            ambientIntensity 0.251
            transparency 0.0
            shininess 0.5
        }
    }
    geometry IndexedFaceSet {
        ccw TRUE
        solid FALSE
        coord DEF co Coordinate {
            point [
                -0.1328 -0.0024 0.0039, -0.1591 -0.0024 0.0039, -0.1446 0.0305 0.0039, -0.1473 0.0305 0.0039, -0.1453 0.0332 0.0039, -0.1466 0.0332 0.0039, -0.1458 0.036 0.0039, -0.1461 0.036 0.0039, -0.0525 0.037 0.0039, -0.0525 -0.0245 0.0039, -0.0641 0.037 0.0039, -0.0637 -0.0245 0.0039, -0.072 -0.0237 0.0039, -0.0948 0.007 0.0039, -0.0941 0.0149 0.0039, -0.0923 0.0211 0.0039, -0.0735 0.036 0.0039, -0.0786 -0.0216 0.0039, -0.084 -0.0184 0.0039, -0.0884 -0.0141 0.0039, -0.0918 -0.0087 0.0039, -0.0941 -0.0013 0.0039, -0.0895 0.0259 0.0039, -0.0857 0.03 0.0039, -0.08 0.0337 0.0039
            ]
        }
        coordIndex [
            0,1,2,-1,2,1,3,-1,2,3,4,-1,4,3,5,-1,4,5,6,-1,6,5,7,-1,8,9,10,-1,10,9,11,-1,10,11,12,-1,13,14,10,-1,10,14,15,-1,10,15,16,-1,12,17,10,-1,10,17,18,-1,10,18,19,-1,19,20,10,-1,10,20,21,-1,10,21,13,-1,22,23,15,-1,15,23,24,-1,15,24,16,-1,
        ]
    }
}