M48
; DRILL file KiCad 10.0.4-10.0.4~ubuntu24.04.1 date 2026-07-27T20:08:10
; FORMAT={-:-/ absolute / metric / decimal}
; #@! TF.CreationDate,2026-07-27T20:08:10-07:00
; #@! TF.GenerationSoftware,Kicad,Pcbnew,10.0.4-10.0.4~ubuntu24.04.1
; #@! TF.FileFunction,Plated,1,4,PTH
FMAT,2
METRIC
; #@! TA.AperFunction,Plated,PTH,ViaDrill
T1C0.150
; #@! TA.AperFunction,Plated,PTH,ComponentDrill
T2C0.800
; #@! TA.AperFunction,Plated,PTH,ComponentDrill
T3C0.950
; #@! TA.AperFunction,Plated,PTH,ComponentDrill
T4C1.000
; #@! TA.AperFunction,Plated,PTH,ComponentDrill
T5C1.200
; #@! TA.AperFunction,Plated,PTH,ComponentDrill
T6C1.770
%
G90
G05
T1
X15.6Y-14.4
X16.61Y-59.72
X17.1Y-14.4
X17.46Y-59.72
X18.3Y-81.6
X18.5Y-20.4
X18.5Y-79.4
X18.85Y-67.7
X18.85Y-70.0
X18.96Y-85.5
X19.2Y-24.2
X19.31Y-81.9
X19.8Y-83.1
X19.95Y-75.2
X20.0Y-58.0
X20.0Y-66.0
X20.0Y-74.0
X20.0Y-90.0
X20.2Y-23.2
X20.3Y-19.4
X20.3Y-20.4
X20.8Y-24.2
X20.9Y-18.0
X21.0Y-29.9
X21.52Y-81.91
X21.52Y-88.41
X21.6Y-19.4
X21.6Y-20.9
X21.7Y-29.2
X21.8Y-23.2
X22.12Y-74.9
X22.3Y-79.1
X22.3Y-80.5
X22.31Y-90.4
X22.6Y-18.9
X22.6Y-23.8
X23.2Y-83.1
X23.2Y-84.3
X23.5Y-63.13
X23.6Y-85.3
X23.6Y-92.7
X23.68Y-74.9
X24.6Y-92.7
X25.0Y-78.2
X25.0Y-79.1
X25.1Y-81.5
X25.15Y-68.9
X25.15Y-70.0
X25.18Y-90.4
X25.77Y-98.35
X26.5Y-89.4
X26.5Y-90.6
X26.68Y-76.1
X27.3Y-81.3
X27.39Y-59.72
X28.0Y-66.0
X28.05Y-70.0
X28.24Y-59.72
X28.5Y-80.5
X28.88Y-95.15
X29.06Y-88.95
X29.76Y-85.05
X29.8Y-76.6
X29.8Y-78.0
X29.9Y-90.7
X29.95Y-70.0
X30.01Y-80.0
X30.3Y-80.8
X30.3Y-89.3
X30.5Y-83.8
X30.7Y-94.5
X30.8Y-87.0
X30.9Y-92.8
X31.27Y-91.0
X31.3Y-93.9
X31.6Y-86.2
X31.7Y-94.3
X31.73Y-89.84
X31.94Y-70.0
X33.7Y-96.7
X34.01Y-88.0
X34.05Y-55.0
X34.6Y-97.6
X34.7Y-93.4
X35.6Y-37.0
X36.0Y-66.0
X36.0Y-82.0
X36.4Y-36.2
X36.6Y-51.8
X37.48Y-76.0
X37.7Y-91.0
X37.9Y-77.7
X38.23Y-98.35
X38.5Y-89.6
X38.9Y-87.6
X39.1Y-53.5
X39.3Y-75.5
X39.4Y-95.9
X39.7Y-88.7
X40.0Y-76.0
X40.0Y-81.4
X40.1Y-18.6
X40.4Y-96.1
X40.5Y-19.0
X40.5Y-85.1
X40.95Y-68.0
X41.0Y-21.4
X41.3Y-74.2
X41.3Y-77.7
X41.5Y-84.8
X41.6Y-19.4
X41.6Y-88.7
X41.73Y-72.84
X41.88Y-71.97
X41.9Y-21.1
X41.9Y-74.8
X41.9Y-84.4
X42.0Y-64.0
X42.1Y-77.7
X42.2Y-88.1
X42.5Y-18.8
X42.5Y-85.0
X42.6Y-20.4
X42.6Y-73.5
X42.66Y-74.41
X42.7Y-70.6
X42.7Y-72.6
X42.7Y-80.7
X42.7Y-82.3
X43.0Y-22.2
X43.1Y-76.8
X43.5Y-69.8
X43.8Y-22.3
X43.9Y-21.7
X43.9Y-81.7
X43.9Y-86.7
X43.9Y-91.2
X44.0Y-66.0
X44.0Y-74.0
X44.3Y-70.0
X44.48Y-80.44
X44.6Y-20.9
X44.6Y-23.3
X44.6Y-92.5
X44.7Y-25.1
X45.062Y-90.95
X45.1Y-81.2
X45.2Y-23.8
X45.7Y-39.6
X45.8Y-22.3
X45.8Y-78.3
X45.8Y-85.4
X46.1Y-81.5
X46.2Y-93.0
X46.275Y-87.0
X46.29Y-74.41
X46.3Y-87.8
X46.4Y-101.1
X46.6Y-73.3
X46.7Y-39.6
X46.8Y-81.6
X47.0Y-87.9
X47.1Y-78.5
X47.2Y-80.9
X47.3Y-100.6
X47.6Y-88.8
X47.65Y-69.58
X47.7Y-80.0
X47.77Y-98.35
X47.8Y-72.5
X47.8Y-75.2
X47.8Y-91.7
X48.01Y-92.6
X48.3Y-73.6
X48.49Y-90.55
X48.5Y-78.5
X48.58Y-69.33
X48.7Y-85.8
X48.775Y-76.0
X48.8Y-76.8
X48.8Y-82.2
X48.8Y-86.8
X49.3Y-91.7
X49.5Y-88.0
X49.53Y-70.23
X49.6Y-72.0
X49.9Y-73.0
X49.9Y-81.3
X49.9Y-82.7
X49.94Y-58.95
X50.0Y-78.4
X50.1Y-90.3
X50.3Y-80.2
X50.4Y-73.5
X50.4Y-87.8
X50.5Y-77.4
X50.7Y-78.6
X50.7Y-85.6
X50.75Y-71.79
X50.88Y-95.15
X51.0Y-83.2
X51.2Y-76.2
X51.2Y-77.1
X51.7Y-78.6
X52.0Y-58.0
X52.0Y-92.9
X52.2Y-83.7
X52.3Y-75.9
X52.4Y-86.3
X52.48Y-87.0
X52.5Y-82.9
X52.6Y-81.4
X52.7Y-66.0
X52.7Y-85.4
X52.7Y-95.1
X52.9Y-55.0
X53.1Y-93.4
X53.1Y-94.3
X53.3Y-54.16
X53.3Y-87.0
X53.3Y-88.8
X53.3Y-90.05
X53.8Y-77.0
X53.9Y-83.4
X54.02Y-85.69
X54.28Y-84.8
X54.28Y-89.2
X54.3Y-76.4
X54.3Y-87.4
X54.6Y-92.1
X54.9Y-86.8
X54.9Y-88.4
X55.6Y-101.1
X55.7Y-99.2
X55.8Y-54.2
X55.8Y-80.6
X55.8Y-93.9
X56.1Y-100.6
X56.5Y-93.3
X56.56Y-84.7
X56.6Y-97.1
X56.6Y-100.1
X56.68Y-89.2
X56.8Y-57.4
X56.8Y-80.9
X56.9Y-98.0
X57.0Y-86.4
X57.3Y-73.23
X57.48Y-60.0
X57.48Y-90.5
X57.5Y-54.8
X57.5Y-75.0
X57.5Y-77.5
X57.6Y-83.7
X57.75Y-53.7
X57.8Y-58.4
X57.8Y-84.2
X58.19Y-59.18
X58.2Y-88.4
X58.3Y-80.0
X58.47Y-60.02
X58.48Y-87.0
X58.6Y-53.9
X58.6Y-86.1
X58.9Y-55.1
X58.9Y-78.8
X58.9Y-80.8
X59.0Y-76.6
X59.1Y-56.7
X59.1Y-61.3
X59.28Y-88.4
X59.5Y-55.8
X59.5Y-83.6
X59.5Y-89.1
X59.5Y-95.4
X59.7Y-80.8
X59.8Y-84.5
X59.9Y-54.1
X59.9Y-79.2
X60.0Y-56.6
X60.0Y-57.6
X60.0Y-66.0
X60.0Y-88.6
X60.14Y-75.05
X60.14Y-77.65
X60.23Y-98.35
X60.3Y-59.2
X60.32Y-80.9
X60.88Y-55.91
X60.9Y-84.9
X60.9Y-85.9
X61.0Y-57.8
X61.1Y-75.5
X61.2Y-79.7
X61.2Y-100.2
X61.305Y-81.055
X61.53Y-60.02
X61.87Y-56.34
X61.87Y-58.46
X62.075Y-92.8
X62.16Y-57.4
X62.4Y-74.8
X62.4Y-76.1
X62.5Y-79.7
X62.5Y-80.6
X62.5Y-83.7
X62.65Y-55.89
X62.8Y-98.7
X62.96Y-58.18
X63.1Y-85.7
X63.1Y-98.3
X63.2Y-73.2
X63.2Y-99.8
X63.22Y-80.9
X63.5Y-61.0
X63.8Y-72.6
X63.9Y-75.3
X63.9Y-76.1
X63.9Y-81.6
X64.18Y-80.9
X64.4Y-75.3
X64.5Y-58.0
X64.5Y-60.0
X64.5Y-79.7
X64.9Y-77.5
X65.0Y-81.2
X65.1Y-77.0
X65.15Y-68.0
X65.68Y-73.1
X65.86Y-75.05
X65.86Y-78.95
X66.0Y-80.6
X66.1Y-37.0
X66.5Y-74.4
X66.8Y-53.3
X66.9Y-36.2
X67.3Y-79.7
X67.51Y-61.0
X67.8Y-53.3
X67.9Y-75.0
X67.9Y-80.9
X68.0Y-58.0
X68.0Y-66.0
X68.0Y-90.0
X68.5Y-79.7
X68.6Y-53.3
X68.8Y-55.3
X69.0Y-76.7
X69.0Y-85.3
X69.1Y-81.6
X69.25Y-56.21
X69.5Y-79.7
X69.8Y-81.5
X69.9Y-84.7
X69.9Y-85.3
X70.1Y-86.1
X70.5Y-84.6
X70.98Y-84.0
X71.53Y-65.36
X71.53Y-66.64
X71.53Y-70.44
X72.0Y-77.7
X72.0Y-80.6
X72.2Y-20.9
X72.3Y-66.0
X72.5Y-77.7
X72.6Y-22.3
X72.7Y-80.7
X72.9Y-67.7
X73.2Y-70.1
X73.3Y-59.3
X73.3Y-69.6
X73.4Y-81.4
X73.5Y-22.2
X73.5Y-66.8
X73.5Y-67.7
X73.6Y-19.5
X74.0Y-66.8
X74.3Y-22.3
X74.5Y-64.2
X75.1Y-23.8
X75.13Y-59.86
X75.24Y-57.5
X75.5Y-21.4
X75.7Y-64.2
X76.0Y-74.0
X76.0Y-82.0
X76.0Y-92.0
X76.1Y-20.1
X76.47Y-61.55
X76.7Y-31.6
X77.4Y-67.9
X77.7Y-55.1
X77.7Y-58.1
X78.2Y-67.9
X78.4Y-90.3
X78.8Y-91.3
X78.9Y-57.7
X79.02Y-66.0
X79.3Y-27.3
X79.36Y-60.0
X79.7Y-56.3
X79.8Y-95.8
X80.0Y-26.6
X80.0Y-61.0
X80.6Y-62.6
X80.73Y-66.21
X81.0Y-61.5
X81.64Y-59.05
X81.64Y-60.0
X81.8Y-62.2
X82.3Y-62.7
X82.7Y-60.5
X83.04Y-63.1
X83.98Y-63.0
X84.0Y-66.0
X84.0Y-82.0
X84.0Y-90.0
X84.2Y-53.5
X84.7Y-61.7
X85.2Y-91.7
X86.6Y-68.2
X86.7Y-66.9
X86.7Y-67.7
X87.0Y-68.6
X87.4Y-67.8
X87.8Y-68.2
X88.7Y-98.7
X88.9Y-53.5
X88.9Y-56.4
X88.9Y-57.7
X89.2Y-101.1
X89.7Y-98.9
X90.1Y-99.3
X90.2Y-53.2
X90.35Y-64.08
X90.4Y-96.8
X90.5Y-79.7
X90.6Y-81.4
X90.8Y-97.1
X90.9Y-100.2
X91.0Y-80.6
X91.1Y-97.5
X91.4Y-100.6
X91.6Y-52.6
X91.6Y-58.3
X91.8Y-56.4
X92.0Y-90.0
X92.4Y-81.4
X92.4Y-83.2
X92.53Y-79.44
X92.7Y-56.5
X92.8Y-99.2
X93.8Y-82.8
X94.52Y-81.5
X94.7Y-66.8
X95.1Y-72.5
X95.48Y-81.5
X95.5Y-64.2
X95.5Y-66.0
X95.6Y-71.4
X96.2Y-72.0
X96.3Y-77.6
X96.8Y-66.19
X97.0Y-52.0
X97.0Y-69.9
X97.2Y-58.3
X97.29Y-98.39
X97.4Y-88.2
X97.7Y-78.4
X97.7Y-80.6
X97.8Y-51.2
X97.8Y-52.0
X97.9Y-66.8
X98.0Y-86.9
X98.3Y-87.3
X98.4Y-58.3
X98.5Y-88.7
X98.8Y-52.3
X98.8Y-59.0
X98.8Y-81.0
X98.9Y-19.5
X98.9Y-77.9
X98.95Y-70.56
X99.3Y-20.6
X99.3Y-89.5
X99.5Y-99.2
X99.6Y-80.6
X99.7Y-89.9
X100.22Y-94.66
X100.51Y-88.0
X100.6Y-96.7
X100.86Y-71.0
X100.9Y-83.1
X100.9Y-89.9
X101.0Y-62.3
X101.1Y-59.2
X101.5Y-20.1
X101.6Y-91.8
X102.0Y-90.4
X102.2Y-60.2
X102.2Y-61.4
X102.8Y-62.3
X102.8Y-75.0
X103.14Y-70.05
X103.14Y-71.0
X103.2Y-85.4
X103.5Y-85.8
X103.51Y-88.0
X103.6Y-93.8
X104.1Y-73.7
X104.7Y-74.3
X105.0Y-95.9
X105.02Y-71.0
X105.3Y-22.3
X105.3Y-86.9
X105.3Y-87.8
X105.5Y-80.6
X105.6Y-38.3
X105.98Y-71.0
X106.1Y-37.4
X106.2Y-80.7
X106.4Y-22.2
X106.51Y-88.0
X106.7Y-26.3
X106.7Y-88.7
X106.9Y-70.9
X107.0Y-79.2
X107.1Y-21.5
X107.2Y-22.3
X107.2Y-23.3
X107.4Y-81.9
X107.5Y-71.5
X107.7Y-24.5
X107.7Y-92.9
X108.0Y-74.0
X108.1Y-25.6
X108.3Y-21.3
X108.3Y-92.9
X108.4Y-90.4
X108.4Y-93.4
X108.6Y-20.8
X109.2Y-68.6
X109.6Y-66.8
X109.6Y-68.1
X110.0Y-92.0
X110.0Y-94.0
X110.1Y-67.7
X110.3Y-66.8
X110.6Y-67.7
X110.7Y-92.0
X110.7Y-98.2
X110.8Y-66.9
X111.1Y-64.6
X111.5Y-70.0
X111.8Y-87.5
X112.3Y-68.2
X112.7Y-88.4
X112.8Y-66.2
X112.8Y-95.8
X112.9Y-76.3
X112.9Y-98.2
X113.6Y-64.7
X114.1Y-23.3
X114.32Y-67.9
X114.4Y-61.9
X114.4Y-89.4
X114.7Y-58.4
X114.8Y-78.3
X114.8Y-89.8
X115.0Y-62.5
X115.1Y-59.6
X115.1Y-61.4
X115.1Y-92.6
X115.1Y-96.6
X115.28Y-67.9
X115.31Y-64.1
X115.6Y-100.8
X115.7Y-79.2
X115.8Y-92.7
X115.9Y-59.6
X116.0Y-74.0
X116.0Y-82.0
X116.0Y-90.0
X116.0Y-96.6
X116.2Y-93.2
X116.4Y-20.8
X116.5Y-20.0
X116.9Y-93.3
X117.0Y-92.0
X117.1Y-87.5
X117.2Y-20.7
X117.53Y-64.09
X117.53Y-65.36
X117.53Y-66.64
X117.53Y-70.44
X117.7Y-78.4
X117.7Y-80.6
X117.7Y-93.3
X118.0Y-88.4
X119.7Y-90.1
X120.2Y-96.6
X120.3Y-78.4
X120.3Y-80.6
X120.4Y-77.5
X120.5Y-84.0
X120.7Y-99.1
X120.9Y-100.8
X121.0Y-78.4
X121.0Y-80.6
X121.4Y-85.5
X121.8Y-85.9
X122.0Y-84.9
X122.0Y-88.4
X122.3Y-83.3
X122.47Y-61.55
X122.51Y-84.0
X122.51Y-86.42
X122.51Y-89.0
X122.51Y-91.5
X122.7Y-47.1
X123.3Y-82.3
X123.4Y-65.3
X123.9Y-87.3
X124.0Y-58.0
X124.0Y-64.1
X124.0Y-74.0
X124.5Y-100.4
X124.8Y-91.2
X125.0Y-78.3
X125.0Y-79.6
X125.16Y-73.65
X125.3Y-85.2
X125.36Y-65.5
X125.5Y-79.2
X125.51Y-84.0
X125.51Y-89.0
X125.51Y-91.5
X125.6Y-50.0
X126.0Y-77.4
X126.0Y-79.2
X126.4Y-76.9
X126.4Y-91.7
X126.5Y-66.8
X126.5Y-89.6
X126.6Y-90.1
X126.7Y-86.0
X126.8Y-71.4
X126.84Y-72.35
X126.9Y-84.9
X127.1Y-76.8
X127.2Y-66.8
X127.2Y-67.8
X127.2Y-81.0
X127.64Y-64.55
X127.64Y-65.5
X127.8Y-80.4
X127.9Y-76.0
X128.0Y-69.0
X128.365Y-91.605
X128.51Y-89.0
X128.52Y-73.0
X128.6Y-77.3
X128.9Y-69.2
X129.2Y-89.2
X129.3Y-81.9
X129.4Y-87.4
X129.4Y-99.1
X129.41Y-67.8
X129.48Y-73.0
X129.98Y-68.5
X130.1Y-83.9
X130.8Y-87.6
X130.9Y-93.3
X131.0Y-83.0
X131.6Y-91.9
X131.9Y-87.1
X132.0Y-66.0
X132.0Y-82.0
X132.1Y-59.1
X132.1Y-90.1
X132.1Y-91.1
X132.8Y-91.1
X132.8Y-91.9
X133.0Y-76.9
X133.0Y-78.2
X133.2Y-100.4
X133.3Y-90.7
X133.4Y-84.8
X133.7Y-93.4
X134.1Y-82.4
X134.3Y-88.7
X134.6Y-80.4
X135.0Y-88.8
X135.2Y-85.9
X135.3Y-62.3
X135.4Y-22.3
X135.4Y-89.2
X135.6Y-80.4
X135.7Y-85.5
X135.9Y-53.7
X135.9Y-82.975
X136.0Y-19.0
X136.0Y-22.3
X136.0Y-23.7
X136.1Y-69.6
X136.2Y-98.3
X136.4Y-58.5
X136.4Y-89.0
X136.4Y-99.2
X136.5Y-83.62
X136.7Y-54.5
X136.7Y-70.2
X137.0Y-99.1
X137.1Y-39.6
X137.8Y-20.5
X137.8Y-86.0
X138.1Y-39.6
X138.1Y-82.4
X138.1Y-84.5
X138.3Y-20.8
X138.5Y-78.0
X138.5Y-79.5
X138.5Y-85.5
X138.8Y-58.5
X139.06Y-59.45
X139.2Y-82.7
X139.3Y-19.0
X139.4Y-85.8
X139.5Y-79.5
X139.6Y-87.2
X139.7Y-84.9
X139.9Y-100.0
X140.0Y-58.0
X140.0Y-66.0
X140.0Y-74.0
X140.1Y-82.7
X140.1Y-83.8
X140.1Y-84.4
X140.5Y-85.6
X140.6Y-82.1
X140.8Y-86.0
X140.9Y-95.7
X142.2Y-78.4
X142.8Y-78.5
X143.1Y-77.2
X143.2Y-72.7
X143.5Y-84.92
X143.5Y-86.22
X143.5Y-91.5
X143.7Y-71.0
X143.9Y-72.0
X144.2Y-65.3
X144.3Y-64.6
X144.3Y-71.6
X144.4Y-75.9
X144.56Y-69.5
X144.6Y-76.7
X144.95Y-85.58
X145.3Y-54.5
X145.3Y-91.0
X145.31Y-63.9
X146.02Y-82.0
X146.2Y-55.8
X146.2Y-56.8
X146.2Y-63.3
X146.4Y-74.5
X146.7Y-61.4
X146.84Y-68.55
X146.84Y-69.5
X146.9Y-59.4
X146.985Y-81.955
X147.0Y-80.7
X147.1Y-83.6
X147.21Y-55.5
X147.3Y-92.7
X147.51Y-92.0
X147.53Y-57.55
X147.53Y-66.44
X147.6Y-90.1
X147.7Y-80.8
X147.7Y-88.0
X147.9Y-55.3
X148.0Y-74.0
X148.0Y-82.0
X148.0Y-94.1
X148.5Y-88.0
X149.0Y-82.9
X149.0Y-83.7
X149.2Y-64.6
X149.2Y-67.5
X149.31Y-69.0
X149.4Y-78.6
X149.6Y-80.1
X149.88Y-68.3
X150.2Y-91.2
X150.51Y-95.24
X150.86Y-80.0
X151.7Y-81.8
X151.71Y-79.93
X152.01Y-77.0
X152.1Y-89.8
X152.3Y-36.3
X152.3Y-82.4
X152.47Y-57.55
X152.47Y-63.91
X152.47Y-65.17
X152.47Y-66.44
X152.7Y-90.4
X152.7Y-91.5
X152.8Y-93.0
X153.14Y-79.05
X153.42Y-75.8
X153.5Y-36.3
X153.5Y-92.3
X153.7Y-63.3
X153.9Y-76.8
X153.98Y-82.6
X154.1Y-89.0
X154.38Y-75.8
X154.72Y-63.9
X155.0Y-88.1
X155.05Y-91.0
X155.68Y-63.9
X155.7Y-88.0
X155.8Y-72.8
X156.0Y-58.0
X156.0Y-60.2
X156.0Y-61.2
X156.11Y-80.95
X156.5Y-76.8
X156.86Y-68.0
X156.86Y-74.0
X156.9Y-72.0
X156.9Y-72.8
X156.9Y-77.3
X156.9Y-78.1
X157.3Y-70.9
X157.3Y-80.4
X157.5Y-81.2
X157.5Y-81.9
X157.8Y-56.9
X158.2Y-79.6
X158.4Y-51.7
X158.4Y-53.3
X158.4Y-55.3
X158.4Y-78.1
X158.737Y-74.0
X158.9Y-77.3
X159.0Y-53.9
X159.02Y-70.6
X159.02Y-76.6
X159.05Y-91.0
X159.14Y-68.0
X159.16Y-80.65
X159.3Y-66.2
X159.31Y-82.2
X159.98Y-70.6
X159.98Y-76.6
X160.0Y-81.0
X160.1Y-66.6
X160.1Y-75.9
X160.2Y-53.5
X160.65Y-79.35
X160.72Y-82.2
X161.3Y-74.5
X161.68Y-82.2
X161.9Y-73.9
X162.8Y-87.2
X163.06Y-90.95
X163.1Y-100.0
X163.65Y-98.35
X163.7Y-89.3
X164.2Y-100.0
X164.28Y-87.0
X164.3Y-88.7
X164.4Y-76.4
X164.4Y-78.5
X164.9Y-76.9
X164.9Y-81.9
X164.9Y-89.2
X165.1Y-20.3
X165.8Y-19.6
X166.1Y-69.1
X166.1Y-93.3
X166.6Y-21.8
X166.75Y-95.15
X166.78Y-92.6
X167.0Y-65.1
X167.2Y-87.4
X167.2Y-88.6
X167.3Y-21.1
X167.56Y-90.95
X168.6Y-70.9
X168.6Y-73.4
X168.71Y-61.2
X168.73Y-62.47
X168.86Y-68.0
X169.06Y-80.95
X169.1Y-30.4
X169.16Y-74.65
X169.2Y-75.6
X169.6Y-58.1
X169.7Y-61.2
X169.7Y-62.6
X169.7Y-87.4
X169.7Y-88.6
X169.8Y-55.3
X170.7Y-65.3
X170.72Y-76.2
X170.8Y-95.2
X170.84Y-73.35
X171.0Y-79.3
X171.0Y-82.0
X171.02Y-70.6
X171.14Y-68.0
X171.3Y-64.7
X171.525Y-63.81
X171.6Y-55.3
X171.6Y-95.2
X171.68Y-76.2
X171.98Y-70.6
X172.0Y-74.0
X172.0Y-90.0
X172.01Y-82.6
X172.12Y-84.3
X172.35Y-98.35
X172.5Y-78.5
X173.0Y-66.0
X173.08Y-84.3
X173.1Y-67.7
X173.21Y-91.2
X174.1Y-87.2
X174.2Y-68.8
X174.3Y-66.5
X174.5Y-78.1
X174.5Y-80.0
X174.5Y-94.5
X174.9Y-88.0
X175.0Y-77.3
X175.0Y-78.1
X175.06Y-90.95
X175.1Y-76.5
X175.16Y-82.5
X175.3Y-94.5
X175.4Y-79.2
X175.7Y-67.3
X176.0Y-80.4
X176.02Y-87.3
X176.06Y-96.85
X176.475Y-56.295
X176.58Y-67.73
X176.9Y-54.1
X176.98Y-87.3
X177.05Y-96.69
X177.28Y-93.0
X177.44Y-82.5
X177.8Y-83.8
X179.0Y-85.0
X179.35Y-57.73
X179.35Y-64.08
X180.0Y-66.0
X180.0Y-77.7
X180.0Y-90.0
X180.24Y-91.27
X180.5Y-81.8
X180.6Y-79.4
X180.7Y-61.8
X180.7Y-62.6
X180.8Y-53.9
X181.16Y-74.65
X181.3Y-59.4
X181.5Y-95.7
X181.6Y-63.3
X181.65Y-98.35
X181.8Y-51.5
X181.8Y-52.3
X181.8Y-69.6
X181.97Y-75.99
X182.0Y-57.9
X182.0Y-70.5
X182.0Y-71.3
X182.03Y-68.0
X182.2Y-84.9
X182.7Y-63.2
X182.838Y-73.35
X183.02Y-70.45
X183.13Y-75.63
X183.14Y-68.0
X183.2Y-81.8
X183.5Y-69.8
X183.55Y-83.4
X183.7Y-72.9
X183.7Y-77.0
X183.98Y-70.6
X184.1Y-85.3
X184.2Y-84.4
X184.4Y-68.5
X184.4Y-73.8
X184.7Y-84.7
X184.75Y-95.15
X184.8Y-48.3
X184.8Y-51.1
X185.2Y-68.4
X185.76Y-81.2
X185.8Y-97.2
X185.9Y-65.1
X186.5Y-55.6
X186.6Y-61.7
X186.7Y-64.3
X186.7Y-74.3
X186.78Y-67.5
X187.3Y-53.4
X187.7Y-55.2
X187.9Y-37.1
X188.0Y-46.1
X188.0Y-74.0
X188.04Y-81.2
X188.1Y-52.6
X188.9Y-36.1
X188.95Y-71.5
X190.35Y-98.35
X190.4Y-69.0
X190.4Y-69.8
X191.9Y-90.8
X191.9Y-91.8
X192.31Y-79.9
X192.45Y-68.8
X192.55Y-81.8
X192.81Y-61.7
X192.81Y-72.6
X195.15Y-57.5
X195.15Y-62.5
X195.15Y-68.38
X195.15Y-69.63
X195.15Y-70.88
X195.15Y-73.38
X195.15Y-79.26
X195.15Y-81.76
X195.15Y-84.26
X198.35Y-55.65
X198.35Y-64.35
X198.35Y-66.53
X198.35Y-75.23
X198.35Y-77.41
X198.35Y-86.11
X198.6Y-29.2
T2
X22.19Y-30.38
X22.19Y-45.62
X29.81Y-30.38
X29.81Y-45.62
X37.43Y-30.38
X37.43Y-45.62
X45.05Y-30.38
X45.05Y-45.62
X52.67Y-30.38
X52.67Y-45.62
X60.29Y-30.38
X60.29Y-45.62
X67.91Y-30.38
X67.91Y-45.62
X75.53Y-30.38
X75.53Y-45.62
X83.15Y-30.38
X83.15Y-45.62
X90.77Y-30.38
X90.77Y-45.62
X98.39Y-30.38
X98.39Y-45.62
X106.01Y-30.38
X106.01Y-45.62
X113.63Y-30.38
X113.63Y-45.62
X121.25Y-30.38
X121.25Y-45.62
X128.87Y-30.38
X128.87Y-45.62
X136.49Y-30.38
X136.49Y-45.62
X144.11Y-30.38
X144.11Y-45.62
X151.73Y-30.38
X151.73Y-45.62
X159.35Y-30.38
X159.35Y-45.62
X166.97Y-30.38
X166.97Y-45.62
X174.59Y-30.38
X174.59Y-45.62
X182.21Y-30.38
X182.21Y-45.62
X189.83Y-30.38
X189.83Y-45.62
X197.45Y-30.38
X197.45Y-45.62
T3
X148.0Y-97.0
X150.5Y-97.0
X153.0Y-97.0
X155.5Y-97.0
X158.0Y-97.0
T4
X94.0Y-95.0
X94.0Y-97.54
X96.54Y-95.0
X96.54Y-97.54
X99.08Y-95.0
X99.08Y-97.54
X101.62Y-95.0
X101.62Y-97.54
X104.16Y-95.0
X104.16Y-97.54
X106.7Y-95.0
X106.7Y-97.54
X109.24Y-95.0
X109.24Y-97.54
X111.78Y-95.0
X111.78Y-97.54
X114.32Y-95.0
X114.32Y-97.54
X116.86Y-95.0
X116.86Y-97.54
X119.4Y-95.0
X119.4Y-97.54
X121.94Y-95.0
X121.94Y-97.54
X124.48Y-95.0
X124.48Y-97.54
X127.02Y-95.0
X127.02Y-97.54
X129.56Y-95.0
X129.56Y-97.54
X132.1Y-95.0
X132.1Y-97.54
X134.64Y-95.0
X134.64Y-97.54
X137.18Y-95.0
X137.18Y-97.54
X139.72Y-95.0
X139.72Y-97.54
X142.26Y-95.0
X142.26Y-97.54
T5
X195.3Y-89.75
X195.3Y-93.25
X195.3Y-96.75
X195.3Y-100.25
T6
X70.04Y-96.0
X77.96Y-96.0
M30
