M48
; DRILL file KiCad 10.0.4-10.0.4~ubuntu24.04.1 date 2026-08-01T00:58:12
; FORMAT={-:-/ absolute / metric / decimal}
; #@! TF.CreationDate,2026-08-01T00:58:12-07:00
; #@! TF.GenerationSoftware,Kicad,Pcbnew,10.0.4-10.0.4~ubuntu24.04.1
; #@! TF.FileFunction,Plated,1,4,PTH
FMAT,2
METRIC
; #@! TA.AperFunction,Plated,PTH,ViaDrill
T1C0.150
; #@! TA.AperFunction,Plated,PTH,ComponentDrill
T2C1.400
%
G90
G05
T1
X23.0Y-26.2
X23.0Y-27.0
X23.0Y-27.8
X23.0Y-28.6
X23.0Y-29.4
X23.0Y-30.2
X23.0Y-31.0
X23.0Y-31.8
X23.0Y-32.6
X23.0Y-33.4
X23.0Y-34.2
X23.0Y-35.0
X23.0Y-35.8
X23.0Y-36.6
X23.0Y-37.4
X23.0Y-38.2
X23.0Y-39.0
X23.0Y-39.8
X23.0Y-40.6
X23.0Y-41.4
X23.0Y-42.2
X23.0Y-43.0
X23.0Y-43.8
X23.0Y-44.6
X23.0Y-47.0
X23.0Y-47.8
X23.0Y-48.6
X23.0Y-49.4
X23.0Y-51.8
X23.0Y-52.6
X23.0Y-53.4
X23.0Y-54.2
X23.0Y-55.0
X23.0Y-55.8
X23.0Y-56.6
X23.0Y-57.4
X23.0Y-58.2
X23.0Y-59.0
X23.0Y-59.8
X23.0Y-60.6
X23.0Y-61.4
X23.0Y-62.2
X23.0Y-63.0
X23.0Y-63.8
X23.0Y-64.6
X23.0Y-65.4
X23.0Y-66.2
X23.0Y-67.0
X23.0Y-67.8
X23.0Y-68.6
X23.0Y-69.4
X23.0Y-70.2
X23.0Y-71.0
X23.0Y-71.8
X23.0Y-72.6
X23.0Y-73.4
X23.0Y-74.2
X23.0Y-75.0
X23.0Y-75.8
X23.0Y-76.6
X23.0Y-77.4
X23.0Y-78.2
X23.0Y-79.0
X23.0Y-79.8
X23.0Y-80.6
X23.0Y-81.4
X23.0Y-82.2
X23.0Y-83.0
X23.0Y-83.8
X23.0Y-84.6
X23.0Y-85.4
X23.0Y-86.2
X23.0Y-87.0
X23.8Y-26.2
X23.8Y-27.0
X23.8Y-27.8
X23.8Y-28.6
X23.8Y-29.4
X23.8Y-30.2
X23.8Y-31.0
X23.8Y-31.8
X23.8Y-32.6
X23.8Y-33.4
X23.8Y-34.2
X23.8Y-35.0
X23.8Y-35.8
X23.8Y-36.6
X23.8Y-37.4
X23.8Y-38.2
X23.8Y-39.0
X23.8Y-39.8
X23.8Y-40.6
X23.8Y-41.4
X23.8Y-42.2
X23.8Y-43.0
X23.8Y-43.8
X23.8Y-44.6
X23.8Y-45.4
X23.8Y-46.2
X23.8Y-50.2
X23.8Y-51.0
X23.8Y-51.8
X23.8Y-52.6
X23.8Y-53.4
X23.8Y-54.2
X23.8Y-55.0
X23.8Y-55.8
X23.8Y-56.6
X23.8Y-57.4
X23.8Y-58.2
X23.8Y-59.0
X23.8Y-59.8
X23.8Y-60.6
X23.8Y-61.4
X23.8Y-62.2
X23.8Y-63.0
X23.8Y-63.8
X23.8Y-64.6
X23.8Y-65.4
X23.8Y-66.2
X23.8Y-67.0
X23.8Y-67.8
X23.8Y-68.6
X23.8Y-69.4
X23.8Y-70.2
X23.8Y-71.0
X23.8Y-71.8
X23.8Y-72.6
X23.8Y-73.4
X23.8Y-74.2
X23.8Y-75.0
X23.8Y-75.8
X23.8Y-76.6
X23.8Y-77.4
X23.8Y-78.2
X23.8Y-79.0
X23.8Y-79.8
X23.8Y-80.6
X23.8Y-81.4
X23.8Y-82.2
X23.8Y-83.0
X23.8Y-83.8
X23.8Y-84.6
X23.8Y-85.4
X23.8Y-86.2
X23.8Y-87.0
X24.6Y-26.2
X24.6Y-27.0
X24.6Y-27.8
X24.6Y-28.6
X24.6Y-29.4
X24.6Y-30.2
X24.6Y-31.0
X24.6Y-31.8
X24.6Y-32.6
X24.6Y-33.4
X24.6Y-34.2
X24.6Y-35.0
X24.6Y-35.8
X24.6Y-36.6
X24.6Y-37.4
X24.6Y-38.2
X24.6Y-39.0
X24.6Y-39.8
X24.6Y-40.6
X24.6Y-41.4
X24.6Y-42.2
X24.6Y-43.0
X24.6Y-43.8
X24.6Y-44.6
X24.6Y-45.4
X24.6Y-46.2
X24.6Y-50.2
X24.6Y-51.0
X24.6Y-51.8
X24.6Y-52.6
X24.6Y-53.4
X24.6Y-54.2
X24.6Y-55.0
X24.6Y-55.8
X24.6Y-56.6
X24.6Y-57.4
X24.6Y-58.2
X24.6Y-59.8
X24.6Y-60.6
X24.6Y-61.4
X24.6Y-62.2
X24.6Y-63.0
X24.6Y-63.8
X24.6Y-64.6
X24.6Y-65.4
X24.6Y-66.2
X24.6Y-67.0
X24.6Y-67.8
X24.6Y-68.6
X24.6Y-69.4
X24.6Y-70.2
X24.6Y-71.0
X24.6Y-71.8
X24.6Y-72.6
X24.6Y-73.4
X24.6Y-74.2
X24.6Y-75.0
X24.6Y-75.8
X24.6Y-76.6
X24.6Y-77.4
X24.6Y-78.2
X24.6Y-79.0
X24.6Y-79.8
X24.6Y-80.6
X24.6Y-81.4
X24.6Y-82.2
X24.6Y-83.0
X24.6Y-83.8
X24.6Y-84.6
X24.6Y-85.4
X24.6Y-86.2
X24.6Y-87.0
X25.4Y-25.4
X25.4Y-26.2
X25.4Y-27.0
X25.4Y-27.8
X25.4Y-28.6
X25.4Y-29.4
X25.4Y-30.2
X25.4Y-31.0
X25.4Y-31.8
X25.4Y-32.6
X25.4Y-33.4
X25.4Y-34.2
X25.4Y-35.0
X25.4Y-35.8
X25.4Y-38.2
X25.4Y-39.0
X25.4Y-39.8
X25.4Y-40.6
X25.4Y-41.4
X25.4Y-42.2
X25.4Y-43.0
X25.4Y-43.8
X25.4Y-44.6
X25.4Y-45.4
X25.4Y-46.2
X25.4Y-50.2
X25.4Y-51.0
X25.4Y-51.8
X25.4Y-52.6
X25.4Y-53.4
X25.4Y-54.2
X25.4Y-55.0
X25.4Y-55.8
X25.4Y-56.6
X25.4Y-57.4
X25.4Y-60.6
X25.4Y-61.4
X25.4Y-62.2
X25.4Y-63.0
X25.4Y-63.8
X25.4Y-64.6
X25.4Y-65.4
X25.4Y-66.2
X25.4Y-67.0
X25.4Y-67.8
X25.4Y-68.6
X25.4Y-69.4
X25.4Y-70.2
X25.4Y-71.0
X25.4Y-71.8
X25.4Y-72.6
X25.4Y-73.4
X25.4Y-74.2
X25.4Y-75.0
X25.4Y-75.8
X25.4Y-76.6
X25.4Y-77.4
X25.4Y-78.2
X25.4Y-79.0
X25.4Y-79.8
X25.4Y-80.6
X25.4Y-81.4
X25.4Y-82.2
X25.4Y-83.0
X25.4Y-83.8
X25.4Y-84.6
X25.4Y-85.4
X25.4Y-86.2
X25.4Y-87.0
X25.4Y-87.8
X26.2Y-23.0
X26.2Y-23.8
X26.2Y-24.6
X26.2Y-25.4
X26.2Y-26.2
X26.2Y-27.0
X26.2Y-27.8
X26.2Y-28.6
X26.2Y-29.4
X26.2Y-30.2
X26.2Y-31.0
X26.2Y-31.8
X26.2Y-32.6
X26.2Y-33.4
X26.2Y-34.2
X26.2Y-35.0
X26.2Y-35.8
X26.2Y-39.0
X26.2Y-39.8
X26.2Y-40.6
X26.2Y-41.4
X26.2Y-42.2
X26.2Y-43.0
X26.2Y-43.8
X26.2Y-44.6
X26.2Y-45.4
X26.2Y-46.2
X26.2Y-50.2
X26.2Y-51.0
X26.2Y-51.8
X26.2Y-52.6
X26.2Y-53.4
X26.2Y-54.2
X26.2Y-55.0
X26.2Y-55.8
X26.2Y-56.6
X26.2Y-57.4
X26.2Y-58.2
X26.2Y-60.6
X26.2Y-61.4
X26.2Y-62.2
X26.2Y-63.0
X26.2Y-63.8
X26.2Y-64.6
X26.2Y-65.4
X26.2Y-66.2
X26.2Y-67.0
X26.2Y-67.8
X26.2Y-68.6
X26.2Y-69.4
X26.2Y-70.2
X26.2Y-71.0
X26.2Y-71.8
X26.2Y-72.6
X26.2Y-73.4
X26.2Y-74.2
X26.2Y-75.0
X26.2Y-75.8
X26.2Y-76.6
X26.2Y-77.4
X26.2Y-78.2
X26.2Y-79.0
X26.2Y-79.8
X26.2Y-80.6
X26.2Y-81.4
X26.2Y-82.2
X26.2Y-83.0
X26.2Y-83.8
X26.2Y-84.6
X26.2Y-85.4
X26.2Y-86.2
X26.2Y-87.0
X26.2Y-87.8
X26.2Y-88.6
X26.2Y-89.4
X27.0Y-23.0
X27.0Y-23.8
X27.0Y-24.6
X27.0Y-25.4
X27.0Y-26.2
X27.0Y-27.0
X27.0Y-27.8
X27.0Y-28.6
X27.0Y-29.4
X27.0Y-30.2
X27.0Y-31.0
X27.0Y-31.8
X27.0Y-32.6
X27.0Y-33.4
X27.0Y-34.2
X27.0Y-35.0
X27.0Y-35.8
X27.0Y-38.2
X27.0Y-39.0
X27.0Y-39.8
X27.0Y-40.6
X27.0Y-41.4
X27.0Y-42.2
X27.0Y-43.0
X27.0Y-43.8
X27.0Y-44.6
X27.0Y-47.0
X27.0Y-49.4
X27.0Y-51.8
X27.0Y-52.6
X27.0Y-53.4
X27.0Y-54.2
X27.0Y-55.0
X27.0Y-55.8
X27.0Y-56.6
X27.0Y-57.4
X27.0Y-58.2
X27.0Y-59.0
X27.0Y-59.8
X27.0Y-60.6
X27.0Y-61.4
X27.0Y-62.2
X27.0Y-63.0
X27.0Y-63.8
X27.0Y-64.6
X27.0Y-65.4
X27.0Y-66.2
X27.0Y-67.0
X27.0Y-67.8
X27.0Y-68.6
X27.0Y-69.4
X27.0Y-70.2
X27.0Y-71.0
X27.0Y-71.8
X27.0Y-72.6
X27.0Y-73.4
X27.0Y-74.2
X27.0Y-75.0
X27.0Y-75.8
X27.0Y-76.6
X27.0Y-77.4
X27.0Y-78.2
X27.0Y-79.0
X27.0Y-79.8
X27.0Y-80.6
X27.0Y-81.4
X27.0Y-82.2
X27.0Y-83.0
X27.0Y-83.8
X27.0Y-84.6
X27.0Y-85.4
X27.0Y-86.2
X27.0Y-87.0
X27.0Y-87.8
X27.0Y-88.6
X27.0Y-89.4
X27.8Y-23.0
X27.8Y-23.8
X27.8Y-24.6
X27.8Y-25.4
X27.8Y-26.2
X27.8Y-27.0
X27.8Y-27.8
X27.8Y-28.6
X27.8Y-29.4
X27.8Y-30.2
X27.8Y-31.0
X27.8Y-31.8
X27.8Y-32.6
X27.8Y-33.4
X27.8Y-34.2
X27.8Y-35.0
X27.8Y-35.8
X27.8Y-36.6
X27.8Y-37.4
X27.8Y-38.2
X27.8Y-39.0
X27.8Y-39.8
X27.8Y-40.6
X27.8Y-41.4
X27.8Y-42.2
X27.8Y-43.0
X27.8Y-43.8
X27.8Y-44.6
X27.8Y-47.0
X27.8Y-49.4
X27.8Y-52.6
X27.8Y-53.4
X27.8Y-54.2
X27.8Y-55.0
X27.8Y-55.8
X27.8Y-56.6
X27.8Y-61.4
X27.8Y-62.2
X27.8Y-63.0
X27.8Y-63.8
X27.8Y-64.6
X27.8Y-65.4
X27.8Y-66.2
X27.8Y-67.0
X27.8Y-67.8
X27.8Y-68.6
X27.8Y-69.4
X27.8Y-70.2
X27.8Y-71.0
X27.8Y-71.8
X27.8Y-72.6
X27.8Y-73.4
X27.8Y-74.2
X27.8Y-75.0
X27.8Y-75.8
X27.8Y-76.6
X27.8Y-77.4
X27.8Y-78.2
X27.8Y-79.0
X27.8Y-79.8
X27.8Y-80.6
X27.8Y-81.4
X27.8Y-82.2
X27.8Y-83.0
X27.8Y-83.8
X27.8Y-84.6
X27.8Y-85.4
X27.8Y-86.2
X27.8Y-87.0
X27.8Y-87.8
X27.8Y-88.6
X27.8Y-89.4
X28.6Y-23.0
X28.6Y-23.8
X28.6Y-24.6
X28.6Y-25.4
X28.6Y-26.2
X28.6Y-27.0
X28.6Y-27.8
X28.6Y-28.6
X28.6Y-29.4
X28.6Y-30.2
X28.6Y-31.0
X28.6Y-31.8
X28.6Y-32.6
X28.6Y-33.4
X28.6Y-34.2
X28.6Y-35.0
X28.6Y-39.8
X28.6Y-40.6
X28.6Y-41.4
X28.6Y-42.2
X28.6Y-43.0
X28.6Y-43.8
X28.6Y-44.6
X28.6Y-47.0
X28.6Y-49.4
X28.6Y-50.2
X28.6Y-51.8
X28.6Y-52.6
X28.6Y-53.4
X28.6Y-54.2
X28.6Y-56.6
X28.6Y-61.4
X28.6Y-63.8
X28.6Y-64.6
X28.6Y-65.4
X28.6Y-66.2
X28.6Y-67.0
X28.6Y-67.8
X28.6Y-68.6
X28.6Y-69.4
X28.6Y-70.2
X28.6Y-71.0
X28.6Y-71.8
X28.6Y-72.6
X28.6Y-73.4
X28.6Y-74.2
X28.6Y-75.0
X28.6Y-75.8
X28.6Y-76.6
X28.6Y-77.4
X28.6Y-78.2
X28.6Y-79.0
X28.6Y-79.8
X28.6Y-80.6
X28.6Y-81.4
X28.6Y-82.2
X28.6Y-83.0
X28.6Y-83.8
X28.6Y-84.6
X28.6Y-85.4
X28.6Y-86.2
X28.6Y-87.0
X28.6Y-87.8
X28.6Y-88.6
X28.6Y-89.4
X28.631Y-46.216
X29.386Y-39.768
X29.4Y-23.0
X29.4Y-23.8
X29.4Y-24.6
X29.4Y-25.4
X29.4Y-26.2
X29.4Y-27.0
X29.4Y-27.8
X29.4Y-28.6
X29.4Y-29.4
X29.4Y-30.2
X29.4Y-31.0
X29.4Y-31.8
X29.4Y-32.6
X29.4Y-35.0
X29.4Y-42.2
X29.4Y-43.0
X29.4Y-43.8
X29.4Y-44.6
X29.4Y-45.4
X29.4Y-46.2
X29.4Y-47.0
X29.4Y-49.4
X29.4Y-50.2
X29.4Y-51.0
X29.4Y-51.8
X29.4Y-52.6
X29.4Y-53.4
X29.4Y-54.2
X29.4Y-61.4
X29.4Y-64.6
X29.4Y-65.4
X29.4Y-66.2
X29.4Y-67.0
X29.4Y-67.8
X29.4Y-68.6
X29.4Y-69.4
X29.4Y-70.2
X29.4Y-71.0
X29.4Y-71.8
X29.4Y-72.6
X29.4Y-73.4
X29.4Y-74.2
X29.4Y-75.0
X29.4Y-75.8
X29.4Y-76.6
X29.4Y-77.4
X29.4Y-78.2
X29.4Y-79.0
X29.4Y-79.8
X29.4Y-80.6
X29.4Y-81.4
X29.4Y-82.2
X29.4Y-83.0
X29.4Y-83.8
X29.4Y-84.6
X29.4Y-85.4
X29.4Y-86.2
X29.4Y-87.0
X29.4Y-87.8
X29.4Y-88.6
X29.4Y-89.4
X29.407Y-63.834
X30.2Y-23.0
X30.2Y-23.8
X30.2Y-24.6
X30.2Y-25.4
X30.2Y-26.2
X30.2Y-27.0
X30.2Y-27.8
X30.2Y-28.6
X30.2Y-29.4
X30.2Y-30.2
X30.2Y-31.0
X30.2Y-31.8
X30.2Y-35.0
X30.2Y-42.2
X30.2Y-43.0
X30.2Y-43.8
X30.2Y-44.6
X30.2Y-45.4
X30.2Y-46.2
X30.2Y-47.0
X30.2Y-49.4
X30.2Y-50.2
X30.2Y-51.0
X30.2Y-51.8
X30.2Y-52.6
X30.2Y-53.4
X30.2Y-54.2
X30.2Y-55.0
X30.2Y-56.6
X30.2Y-61.4
X30.2Y-62.2
X30.2Y-63.8
X30.2Y-64.6
X30.2Y-65.4
X30.2Y-66.2
X30.2Y-67.0
X30.2Y-67.8
X30.2Y-68.6
X30.2Y-69.4
X30.2Y-70.2
X30.2Y-71.0
X30.2Y-71.8
X30.2Y-72.6
X30.2Y-73.4
X30.2Y-74.2
X30.2Y-75.0
X30.2Y-75.8
X30.2Y-76.6
X30.2Y-77.4
X30.2Y-78.2
X30.2Y-79.0
X30.2Y-79.8
X30.2Y-80.6
X30.2Y-81.4
X30.2Y-82.2
X30.2Y-83.0
X30.2Y-83.8
X30.2Y-84.6
X30.2Y-85.4
X30.2Y-86.2
X30.2Y-87.0
X30.2Y-87.8
X30.2Y-88.6
X30.2Y-89.4
X31.0Y-23.0
X31.0Y-23.8
X31.0Y-24.6
X31.0Y-25.4
X31.0Y-26.2
X31.0Y-27.0
X31.0Y-27.8
X31.0Y-28.6
X31.0Y-29.4
X31.0Y-30.2
X31.0Y-31.0
X31.0Y-31.8
X31.0Y-32.6
X31.0Y-33.4
X31.0Y-34.2
X31.0Y-35.0
X31.0Y-39.8
X31.0Y-40.6
X31.0Y-41.4
X31.0Y-42.2
X31.0Y-43.0
X31.0Y-43.8
X31.0Y-44.6
X31.0Y-45.4
X31.0Y-46.2
X31.0Y-47.0
X31.0Y-49.4
X31.0Y-50.2
X31.0Y-51.0
X31.0Y-51.8
X31.0Y-52.6
X31.0Y-53.4
X31.0Y-54.2
X31.0Y-55.0
X31.0Y-55.8
X31.0Y-61.4
X31.0Y-62.2
X31.0Y-63.0
X31.0Y-63.8
X31.0Y-64.6
X31.0Y-65.4
X31.0Y-66.2
X31.0Y-67.0
X31.0Y-67.8
X31.0Y-68.6
X31.0Y-69.4
X31.0Y-70.2
X31.0Y-71.0
X31.0Y-71.8
X31.0Y-72.6
X31.0Y-73.4
X31.0Y-74.2
X31.0Y-75.0
X31.0Y-75.8
X31.0Y-76.6
X31.0Y-77.4
X31.0Y-78.2
X31.0Y-79.0
X31.0Y-79.8
X31.0Y-80.6
X31.0Y-81.4
X31.0Y-82.2
X31.0Y-83.0
X31.0Y-83.8
X31.0Y-84.6
X31.0Y-85.4
X31.0Y-86.2
X31.0Y-87.0
X31.0Y-87.8
X31.0Y-88.6
X31.0Y-89.4
X31.8Y-23.0
X31.8Y-23.8
X31.8Y-24.6
X31.8Y-25.4
X31.8Y-26.2
X31.8Y-27.0
X31.8Y-27.8
X31.8Y-28.6
X31.8Y-29.4
X31.8Y-30.2
X31.8Y-31.0
X31.8Y-31.8
X31.8Y-32.6
X31.8Y-33.4
X31.8Y-34.2
X31.8Y-35.0
X31.8Y-35.8
X31.8Y-36.6
X31.8Y-37.4
X31.8Y-38.2
X31.8Y-40.6
X31.8Y-41.4
X31.8Y-42.2
X31.8Y-43.0
X31.8Y-43.8
X31.8Y-44.6
X31.8Y-45.4
X31.8Y-46.2
X31.8Y-47.0
X31.8Y-49.4
X31.8Y-50.2
X31.8Y-51.0
X31.8Y-51.8
X31.8Y-52.6
X31.8Y-53.4
X31.8Y-54.2
X31.8Y-55.0
X31.8Y-57.4
X31.8Y-58.2
X31.8Y-59.8
X31.8Y-60.6
X31.8Y-61.4
X31.8Y-62.2
X31.8Y-63.0
X31.8Y-63.8
X31.8Y-64.6
X31.8Y-65.4
X31.8Y-66.2
X31.8Y-67.0
X31.8Y-67.8
X31.8Y-68.6
X31.8Y-69.4
X31.8Y-70.2
X31.8Y-71.0
X31.8Y-71.8
X31.8Y-72.6
X31.8Y-73.4
X31.8Y-74.2
X31.8Y-75.0
X31.8Y-75.8
X31.8Y-76.6
X31.8Y-77.4
X31.8Y-78.2
X31.8Y-79.0
X31.8Y-79.8
X31.8Y-80.6
X31.8Y-81.4
X31.8Y-82.2
X31.8Y-83.0
X31.8Y-83.8
X31.8Y-84.6
X31.8Y-85.4
X31.8Y-86.2
X31.8Y-87.0
X31.8Y-87.8
X31.8Y-88.6
X31.8Y-89.4
X32.6Y-23.0
X32.6Y-23.8
X32.6Y-24.6
X32.6Y-25.4
X32.6Y-26.2
X32.6Y-27.0
X32.6Y-27.8
X32.6Y-28.6
X32.6Y-29.4
X32.6Y-30.2
X32.6Y-31.0
X32.6Y-31.8
X32.6Y-32.6
X32.6Y-33.4
X32.6Y-34.2
X32.6Y-35.0
X32.6Y-35.8
X32.6Y-38.2
X32.6Y-39.0
X32.6Y-41.4
X32.6Y-42.2
X32.6Y-43.0
X32.6Y-43.8
X32.6Y-44.6
X32.6Y-45.4
X32.6Y-46.2
X32.6Y-47.0
X32.6Y-49.4
X32.6Y-50.2
X32.6Y-51.0
X32.6Y-51.8
X32.6Y-52.6
X32.6Y-53.4
X32.6Y-54.2
X32.6Y-56.6
X32.6Y-57.4
X32.6Y-60.6
X32.6Y-61.4
X32.6Y-62.2
X32.6Y-63.0
X32.6Y-63.8
X32.6Y-64.6
X32.6Y-65.4
X32.6Y-66.2
X32.6Y-67.0
X32.6Y-67.8
X32.6Y-68.6
X32.6Y-69.4
X32.6Y-70.2
X32.6Y-71.0
X32.6Y-71.8
X32.6Y-72.6
X32.6Y-73.4
X32.6Y-74.2
X32.6Y-75.0
X32.6Y-75.8
X32.6Y-76.6
X32.6Y-77.4
X32.6Y-78.2
X32.6Y-79.0
X32.6Y-79.8
X32.6Y-80.6
X32.6Y-81.4
X32.6Y-82.2
X32.6Y-83.0
X32.6Y-83.8
X32.6Y-84.6
X32.6Y-85.4
X32.6Y-86.2
X32.6Y-87.0
X32.6Y-87.8
X32.6Y-88.6
X32.6Y-89.4
X33.4Y-23.0
X33.4Y-23.8
X33.4Y-24.6
X33.4Y-25.4
X33.4Y-26.2
X33.4Y-27.0
X33.4Y-27.8
X33.4Y-28.6
X33.4Y-29.4
X33.4Y-30.2
X33.4Y-31.0
X33.4Y-31.8
X33.4Y-32.6
X33.4Y-33.4
X33.4Y-34.2
X33.4Y-35.0
X33.4Y-35.8
X33.4Y-39.0
X33.4Y-39.8
X33.4Y-42.2
X33.4Y-43.0
X33.4Y-43.8
X33.4Y-44.6
X33.4Y-45.4
X33.4Y-46.2
X33.4Y-47.0
X33.4Y-49.4
X33.4Y-50.2
X33.4Y-51.0
X33.4Y-51.8
X33.4Y-52.6
X33.4Y-53.4
X33.4Y-55.8
X33.4Y-56.6
X33.4Y-57.4
X33.4Y-58.2
X33.4Y-60.6
X33.4Y-61.4
X33.4Y-62.2
X33.4Y-63.0
X33.4Y-63.8
X33.4Y-64.6
X33.4Y-65.4
X33.4Y-66.2
X33.4Y-67.0
X33.4Y-67.8
X33.4Y-68.6
X33.4Y-69.4
X33.4Y-70.2
X33.4Y-71.0
X33.4Y-71.8
X33.4Y-72.6
X33.4Y-73.4
X33.4Y-74.2
X33.4Y-75.0
X33.4Y-75.8
X33.4Y-76.6
X33.4Y-77.4
X33.4Y-78.2
X33.4Y-79.0
X33.4Y-79.8
X33.4Y-80.6
X33.4Y-81.4
X33.4Y-82.2
X33.4Y-83.0
X33.4Y-83.8
X33.4Y-84.6
X33.4Y-85.4
X33.4Y-86.2
X33.4Y-87.0
X33.4Y-87.8
X33.4Y-88.6
X33.4Y-89.4
X34.2Y-23.0
X34.2Y-23.8
X34.2Y-24.6
X34.2Y-25.4
X34.2Y-26.2
X34.2Y-27.0
X34.2Y-27.8
X34.2Y-28.6
X34.2Y-29.4
X34.2Y-30.2
X34.2Y-31.0
X34.2Y-31.8
X34.2Y-32.6
X34.2Y-33.4
X34.2Y-34.2
X34.2Y-35.0
X34.2Y-35.8
X34.2Y-38.2
X34.2Y-39.0
X34.2Y-39.8
X34.2Y-40.6
X34.2Y-43.0
X34.2Y-43.8
X34.2Y-44.6
X34.2Y-45.4
X34.2Y-46.2
X34.2Y-47.0
X34.2Y-49.4
X34.2Y-50.2
X34.2Y-51.0
X34.2Y-51.8
X34.2Y-52.6
X34.2Y-55.0
X34.2Y-55.8
X34.2Y-56.6
X34.2Y-57.4
X34.2Y-58.2
X34.2Y-59.0
X34.2Y-59.8
X34.2Y-60.6
X34.2Y-61.4
X34.2Y-62.2
X34.2Y-63.0
X34.2Y-63.8
X34.2Y-64.6
X34.2Y-65.4
X34.2Y-66.2
X34.2Y-67.0
X34.2Y-67.8
X34.2Y-68.6
X34.2Y-69.4
X34.2Y-70.2
X34.2Y-71.0
X34.2Y-71.8
X34.2Y-72.6
X34.2Y-73.4
X34.2Y-74.2
X34.2Y-75.0
X34.2Y-75.8
X34.2Y-76.6
X34.2Y-77.4
X34.2Y-78.2
X34.2Y-79.0
X34.2Y-79.8
X34.2Y-80.6
X34.2Y-81.4
X34.2Y-82.2
X34.2Y-83.0
X34.2Y-83.8
X34.2Y-84.6
X34.2Y-85.4
X34.2Y-86.2
X34.2Y-87.0
X34.2Y-87.8
X34.2Y-88.6
X34.2Y-89.4
X35.0Y-23.0
X35.0Y-23.8
X35.0Y-24.6
X35.0Y-25.4
X35.0Y-26.2
X35.0Y-27.0
X35.0Y-27.8
X35.0Y-28.6
X35.0Y-29.4
X35.0Y-30.2
X35.0Y-31.0
X35.0Y-31.8
X35.0Y-32.6
X35.0Y-33.4
X35.0Y-34.2
X35.0Y-35.0
X35.0Y-35.8
X35.0Y-36.6
X35.0Y-37.4
X35.0Y-38.2
X35.0Y-39.0
X35.0Y-39.8
X35.0Y-40.6
X35.0Y-41.4
X35.0Y-43.8
X35.0Y-44.6
X35.0Y-45.4
X35.0Y-46.2
X35.0Y-47.0
X35.0Y-49.4
X35.0Y-50.2
X35.0Y-51.0
X35.0Y-51.8
X35.0Y-54.2
X35.0Y-55.0
X35.0Y-55.8
X35.0Y-56.6
X35.0Y-57.4
X35.0Y-58.2
X35.0Y-59.0
X35.0Y-59.8
X35.0Y-60.6
X35.0Y-61.4
X35.0Y-62.2
X35.0Y-63.0
X35.0Y-63.8
X35.0Y-64.6
X35.0Y-65.4
X35.0Y-66.2
X35.0Y-67.0
X35.0Y-67.8
X35.0Y-68.6
X35.0Y-69.4
X35.0Y-70.2
X35.0Y-71.0
X35.0Y-71.8
X35.0Y-72.6
X35.0Y-73.4
X35.0Y-74.2
X35.0Y-75.0
X35.0Y-75.8
X35.0Y-76.6
X35.0Y-77.4
X35.0Y-78.2
X35.0Y-79.0
X35.0Y-79.8
X35.0Y-80.6
X35.0Y-81.4
X35.0Y-82.2
X35.0Y-83.0
X35.0Y-83.8
X35.0Y-84.6
X35.0Y-85.4
X35.0Y-86.2
X35.0Y-87.0
X35.0Y-87.8
X35.8Y-23.0
X35.8Y-23.8
X35.8Y-24.6
X35.8Y-25.4
X35.8Y-26.2
X35.8Y-27.0
X35.8Y-27.8
X35.8Y-28.6
X35.8Y-29.4
X35.8Y-30.2
X35.8Y-31.0
X35.8Y-31.8
X35.8Y-32.6
X35.8Y-33.4
X35.8Y-34.2
X35.8Y-35.0
X35.8Y-35.8
X35.8Y-36.6
X35.8Y-37.4
X35.8Y-38.2
X35.8Y-39.0
X35.8Y-39.8
X35.8Y-40.6
X35.8Y-41.4
X35.8Y-42.2
X35.8Y-44.6
X35.8Y-45.4
X35.8Y-46.2
X35.8Y-47.0
X35.8Y-49.4
X35.8Y-50.2
X35.8Y-51.0
X35.8Y-53.4
X35.8Y-54.2
X35.8Y-55.0
X35.8Y-55.8
X35.8Y-56.6
X35.8Y-57.4
X35.8Y-58.2
X35.8Y-59.0
X35.8Y-59.8
X35.8Y-60.6
X35.8Y-63.0
X35.8Y-63.8
X35.8Y-64.6
X35.8Y-65.4
X35.8Y-67.8
X35.8Y-68.6
X35.8Y-69.4
X35.8Y-70.2
X35.8Y-71.0
X35.8Y-71.8
X35.8Y-72.6
X35.8Y-73.4
X35.8Y-74.2
X35.8Y-75.0
X35.8Y-75.8
X35.8Y-76.6
X35.8Y-77.4
X35.8Y-78.2
X35.8Y-79.0
X35.8Y-79.8
X35.8Y-80.6
X35.8Y-81.4
X35.8Y-82.2
X35.8Y-83.0
X35.8Y-83.8
X35.8Y-84.6
X35.8Y-85.4
X35.8Y-86.2
X35.8Y-87.0
X36.6Y-23.0
X36.6Y-23.8
X36.6Y-24.6
X36.6Y-25.4
X36.6Y-26.2
X36.6Y-27.0
X36.6Y-27.8
X36.6Y-28.6
X36.6Y-29.4
X36.6Y-30.2
X36.6Y-31.0
X36.6Y-31.8
X36.6Y-32.6
X36.6Y-33.4
X36.6Y-34.2
X36.6Y-35.0
X36.6Y-35.8
X36.6Y-36.6
X36.6Y-37.4
X36.6Y-38.2
X36.6Y-39.0
X36.6Y-39.8
X36.6Y-40.6
X36.6Y-41.4
X36.6Y-42.2
X36.6Y-43.0
X36.6Y-45.4
X36.6Y-46.2
X36.6Y-52.6
X36.6Y-53.4
X36.6Y-54.2
X36.6Y-55.0
X36.6Y-55.8
X36.6Y-56.6
X36.6Y-57.4
X36.6Y-58.2
X36.6Y-59.0
X36.6Y-59.8
X36.6Y-60.6
X36.6Y-63.0
X36.6Y-63.8
X36.6Y-64.6
X36.6Y-65.4
X36.6Y-68.6
X36.6Y-69.4
X36.6Y-70.2
X36.6Y-71.0
X36.6Y-71.8
X36.6Y-72.6
X36.6Y-73.4
X36.6Y-74.2
X36.6Y-75.0
X36.6Y-75.8
X36.6Y-76.6
X36.6Y-77.4
X36.6Y-78.2
X36.6Y-79.0
X36.6Y-79.8
X36.6Y-80.6
X36.6Y-81.4
X36.6Y-82.2
X36.6Y-83.0
X36.6Y-83.8
X36.6Y-84.6
X36.6Y-85.4
X36.6Y-86.2
X36.6Y-87.0
X36.68Y-50.08
X37.19Y-46.73
X37.19Y-47.73
X37.19Y-48.77
X37.4Y-23.0
X37.4Y-23.8
X37.4Y-24.6
X37.4Y-25.4
X37.4Y-26.2
X37.4Y-27.0
X37.4Y-27.8
X37.4Y-28.6
X37.4Y-29.4
X37.4Y-31.8
X37.4Y-32.6
X37.4Y-33.4
X37.4Y-34.2
X37.4Y-36.6
X37.4Y-37.4
X37.4Y-38.2
X37.4Y-39.0
X37.4Y-39.8
X37.4Y-40.6
X37.4Y-41.4
X37.4Y-42.2
X37.4Y-43.0
X37.4Y-43.8
X37.4Y-53.4
X37.4Y-54.2
X37.4Y-55.0
X37.4Y-55.8
X37.4Y-56.6
X37.4Y-57.4
X37.4Y-58.2
X37.4Y-59.0
X37.4Y-59.8
X37.4Y-60.6
X37.4Y-67.8
X37.4Y-68.6
X37.4Y-69.4
X37.4Y-70.2
X37.4Y-71.0
X37.4Y-71.8
X37.4Y-72.6
X37.4Y-73.4
X37.4Y-74.2
X37.4Y-75.0
X37.4Y-75.8
X37.4Y-76.6
X37.4Y-77.4
X37.4Y-78.2
X37.4Y-79.0
X37.4Y-79.8
X37.4Y-81.4
X37.4Y-82.2
X37.4Y-83.0
X37.4Y-83.8
X37.4Y-84.6
X37.4Y-85.4
X37.4Y-86.2
X37.4Y-87.0
X37.63Y-49.52
X37.7Y-51.04
X37.7Y-52.04
X37.97Y-47.17
X38.01Y-80.75
X38.2Y-23.0
X38.2Y-23.8
X38.2Y-24.6
X38.2Y-25.4
X38.2Y-26.2
X38.2Y-27.0
X38.2Y-27.8
X38.2Y-28.6
X38.2Y-29.4
X38.2Y-31.8
X38.2Y-32.6
X38.2Y-33.4
X38.2Y-34.2
X38.2Y-37.4
X38.2Y-38.2
X38.2Y-39.0
X38.2Y-39.8
X38.2Y-40.6
X38.2Y-41.4
X38.2Y-42.2
X38.2Y-43.0
X38.2Y-43.8
X38.2Y-52.6
X38.2Y-54.2
X38.2Y-55.0
X38.2Y-55.8
X38.2Y-56.6
X38.2Y-57.4
X38.2Y-58.2
X38.2Y-59.0
X38.2Y-59.8
X38.2Y-60.6
X38.2Y-61.4
X38.2Y-62.2
X38.2Y-66.2
X38.2Y-67.0
X38.2Y-67.8
X38.2Y-68.6
X38.2Y-69.4
X38.2Y-70.2
X38.2Y-71.0
X38.2Y-71.8
X38.2Y-72.6
X38.2Y-73.4
X38.2Y-74.2
X38.2Y-75.0
X38.2Y-75.8
X38.2Y-76.6
X38.2Y-77.4
X38.2Y-78.2
X38.2Y-79.0
X38.2Y-79.8
X38.2Y-82.2
X38.2Y-83.0
X38.2Y-83.8
X38.2Y-84.6
X38.2Y-85.4
X38.2Y-86.2
X38.2Y-87.0
X38.2Y-87.8
X38.25Y-46.41
X38.41Y-51.75
X38.42Y-53.32
X38.55Y-50.57
X38.71Y-47.6
X38.92Y-44.68
X39.0Y-23.0
X39.0Y-23.8
X39.0Y-24.6
X39.0Y-25.4
X39.0Y-26.2
X39.0Y-27.0
X39.0Y-27.8
X39.0Y-28.6
X39.0Y-29.4
X39.0Y-36.6
X39.0Y-37.4
X39.0Y-38.2
X39.0Y-39.0
X39.0Y-39.8
X39.0Y-40.6
X39.0Y-41.4
X39.0Y-42.2
X39.0Y-43.0
X39.0Y-43.8
X39.0Y-66.2
X39.0Y-67.0
X39.0Y-67.8
X39.0Y-68.6
X39.0Y-69.4
X39.0Y-70.2
X39.0Y-71.0
X39.0Y-71.8
X39.0Y-72.6
X39.0Y-73.4
X39.0Y-74.2
X39.0Y-75.0
X39.0Y-75.8
X39.0Y-76.6
X39.0Y-77.4
X39.0Y-78.2
X39.0Y-79.0
X39.0Y-79.8
X39.0Y-82.2
X39.0Y-83.0
X39.0Y-83.8
X39.0Y-84.6
X39.0Y-85.4
X39.0Y-86.2
X39.0Y-87.0
X39.0Y-87.8
X39.0Y-88.6
X39.0Y-89.4
X39.1Y-45.7
X39.55Y-47.75
X39.55Y-48.75
X39.55Y-49.75
X39.61Y-56.46
X39.8Y-23.0
X39.8Y-23.8
X39.8Y-24.6
X39.8Y-25.4
X39.8Y-26.2
X39.8Y-27.0
X39.8Y-27.8
X39.8Y-28.6
X39.8Y-29.4
X39.8Y-30.2
X39.8Y-31.0
X39.8Y-35.0
X39.8Y-35.8
X39.8Y-36.6
X39.8Y-37.4
X39.8Y-38.2
X39.8Y-39.0
X39.8Y-39.8
X39.8Y-40.6
X39.8Y-41.4
X39.8Y-42.2
X39.8Y-43.0
X39.8Y-43.8
X39.8Y-54.2
X39.8Y-55.0
X39.8Y-58.2
X39.8Y-59.0
X39.8Y-59.8
X39.8Y-60.6
X39.8Y-61.4
X39.8Y-62.2
X39.8Y-67.0
X39.8Y-67.8
X39.8Y-68.6
X39.8Y-69.4
X39.8Y-70.2
X39.8Y-71.0
X39.8Y-71.8
X39.8Y-72.6
X39.8Y-73.4
X39.8Y-74.2
X39.8Y-75.0
X39.8Y-75.8
X39.8Y-76.6
X39.8Y-77.4
X39.8Y-78.2
X39.8Y-79.0
X39.8Y-79.8
X39.8Y-82.2
X39.8Y-83.0
X39.8Y-83.8
X39.8Y-84.6
X39.8Y-85.4
X39.8Y-86.2
X39.8Y-87.0
X39.8Y-87.8
X39.8Y-88.6
X39.8Y-89.4
X39.85Y-80.75
X39.95Y-46.41
X40.2Y-53.11
X40.2Y-55.8
X40.23Y-45.19
X40.25Y-50.9
X40.3Y-48.3
X40.3Y-49.7
X40.35Y-66.4
X40.5Y-57.85
X40.6Y-23.0
X40.6Y-23.8
X40.6Y-24.6
X40.6Y-25.4
X40.6Y-26.2
X40.6Y-27.0
X40.6Y-27.8
X40.6Y-28.6
X40.6Y-29.4
X40.6Y-30.2
X40.6Y-31.0
X40.6Y-62.2
X40.6Y-83.8
X40.6Y-84.6
X40.6Y-85.4
X40.6Y-86.2
X40.6Y-87.0
X40.825Y-57.0
X40.85Y-53.65
X40.85Y-80.75
X40.86Y-60.45
X41.0Y-49.0
X41.01Y-47.73
X41.06Y-57.8
X41.06Y-59.3
X41.2Y-55.31
X41.4Y-23.0
X41.4Y-23.8
X41.4Y-24.6
X41.4Y-25.4
X41.4Y-26.2
X41.4Y-27.0
X41.4Y-27.8
X41.4Y-28.6
X41.4Y-29.4
X41.4Y-30.2
X41.4Y-31.0
X41.4Y-35.0
X41.4Y-35.8
X41.4Y-36.6
X41.4Y-37.4
X41.4Y-38.2
X41.4Y-39.0
X41.4Y-39.8
X41.4Y-40.6
X41.4Y-41.4
X41.4Y-42.2
X41.4Y-43.0
X41.4Y-63.0
X41.4Y-63.8
X41.4Y-64.6
X41.4Y-65.4
X41.4Y-69.4
X41.4Y-79.0
X41.4Y-79.8
X41.4Y-81.4
X41.4Y-82.2
X41.4Y-84.6
X41.4Y-89.4
X41.5Y-53.11
X41.52Y-46.42
X41.6Y-57.5
X41.7Y-48.3
X41.7Y-49.7
X41.75Y-44.3
X41.75Y-45.4
X41.75Y-47.55
X41.75Y-50.9
X42.2Y-23.0
X42.2Y-23.8
X42.2Y-24.6
X42.2Y-25.4
X42.2Y-26.2
X42.2Y-27.0
X42.2Y-27.8
X42.2Y-28.6
X42.2Y-29.4
X42.2Y-30.2
X42.2Y-31.0
X42.2Y-35.0
X42.2Y-35.8
X42.2Y-36.6
X42.2Y-37.4
X42.2Y-38.2
X42.2Y-39.0
X42.2Y-39.8
X42.2Y-40.6
X42.2Y-41.4
X42.2Y-42.2
X42.2Y-43.0
X42.2Y-53.65
X42.2Y-58.2
X42.2Y-63.0
X42.2Y-63.8
X42.2Y-64.6
X42.2Y-65.4
X42.2Y-71.0
X42.2Y-71.8
X42.2Y-72.6
X42.2Y-73.4
X42.2Y-74.2
X42.2Y-75.0
X42.2Y-75.8
X42.2Y-76.6
X42.2Y-77.4
X42.2Y-79.8
X42.2Y-81.4
X42.2Y-82.2
X42.23Y-46.15
X42.25Y-52.1
X42.35Y-48.93
X42.45Y-49.75
X42.5Y-55.31
X42.6Y-51.05
X42.7Y-54.1
X42.77Y-45.19
X42.8Y-53.08
X42.9Y-47.7
X43.0Y-23.0
X43.0Y-23.8
X43.0Y-24.6
X43.0Y-25.4
X43.0Y-26.2
X43.0Y-27.0
X43.0Y-28.6
X43.0Y-29.4
X43.0Y-31.8
X43.0Y-32.6
X43.0Y-33.4
X43.0Y-34.2
X43.0Y-37.4
X43.0Y-38.2
X43.0Y-39.0
X43.0Y-39.8
X43.0Y-40.6
X43.0Y-41.4
X43.0Y-42.2
X43.0Y-43.0
X43.0Y-43.8
X43.0Y-71.8
X43.0Y-74.2
X43.0Y-76.6
X43.0Y-79.8
X43.0Y-82.2
X43.3Y-58.65
X43.68Y-50.12
X43.8Y-23.8
X43.8Y-24.6
X43.8Y-25.4
X43.8Y-26.2
X43.8Y-29.4
X43.8Y-31.8
X43.8Y-32.6
X43.8Y-33.4
X43.8Y-34.2
X43.8Y-37.4
X43.8Y-38.2
X43.8Y-39.0
X43.8Y-39.8
X43.8Y-40.6
X43.8Y-41.4
X43.8Y-42.2
X43.8Y-43.0
X43.8Y-43.8
X43.8Y-44.6
X43.8Y-48.6
X43.8Y-59.8
X43.8Y-69.4
X43.8Y-71.8
X43.8Y-74.2
X43.8Y-76.6
X43.8Y-79.8
X43.8Y-82.2
X43.816Y-36.631
X44.05Y-57.9
X44.3Y-46.46
X44.37Y-47.98
X44.37Y-50.52
X44.6Y-23.8
X44.6Y-24.6
X44.6Y-25.4
X44.6Y-26.2
X44.6Y-28.6
X44.6Y-29.4
X44.6Y-30.2
X44.6Y-31.0
X44.6Y-31.8
X44.6Y-32.6
X44.6Y-33.4
X44.6Y-34.2
X44.6Y-35.0
X44.6Y-35.8
X44.6Y-36.6
X44.6Y-37.4
X44.6Y-38.2
X44.6Y-39.0
X44.6Y-39.8
X44.6Y-40.6
X44.6Y-41.4
X44.6Y-42.2
X44.6Y-43.0
X44.6Y-43.8
X44.6Y-54.2
X44.6Y-55.0
X44.6Y-71.8
X44.6Y-74.2
X44.6Y-76.6
X44.6Y-79.8
X44.6Y-82.2
X44.647Y-52.86
X44.81Y-48.73
X44.81Y-49.77
X44.87Y-45.343
X45.32Y-47.42
X45.32Y-51.08
X45.4Y-23.0
X45.4Y-27.0
X45.4Y-27.8
X45.4Y-28.6
X45.4Y-29.4
X45.4Y-30.2
X45.4Y-31.0
X45.4Y-31.8
X45.4Y-32.6
X45.4Y-33.4
X45.4Y-34.2
X45.4Y-35.0
X45.4Y-35.8
X45.4Y-36.6
X45.4Y-37.4
X45.4Y-38.2
X45.4Y-39.0
X45.4Y-39.8
X45.4Y-40.6
X45.4Y-41.4
X45.4Y-42.2
X45.4Y-43.0
X45.4Y-54.2
X45.4Y-55.0
X45.4Y-55.8
X45.4Y-56.6
X45.4Y-57.4
X45.4Y-58.2
X45.4Y-59.0
X45.4Y-61.4
X45.4Y-62.2
X45.4Y-63.0
X45.4Y-63.8
X45.4Y-64.6
X45.4Y-65.4
X45.4Y-66.2
X45.4Y-67.0
X45.4Y-67.8
X46.0Y-69.6
X46.1Y-71.05
X46.2Y-23.0
X46.2Y-27.0
X46.2Y-27.8
X46.2Y-28.6
X46.2Y-29.4
X46.2Y-30.2
X46.2Y-31.0
X46.2Y-31.8
X46.2Y-32.6
X46.2Y-33.4
X46.2Y-34.2
X46.2Y-35.0
X46.2Y-35.8
X46.2Y-36.6
X46.2Y-37.4
X46.2Y-38.2
X46.2Y-39.0
X46.2Y-39.8
X46.2Y-40.6
X46.2Y-46.2
X46.2Y-47.0
X46.2Y-47.8
X46.2Y-48.6
X46.2Y-50.2
X46.2Y-51.0
X46.2Y-51.8
X46.2Y-52.6
X46.2Y-55.0
X46.2Y-55.8
X46.2Y-56.6
X46.2Y-57.4
X46.2Y-58.2
X46.2Y-59.0
X46.2Y-59.8
X46.2Y-62.2
X46.2Y-63.0
X46.2Y-63.8
X46.2Y-64.6
X46.2Y-65.4
X46.2Y-66.2
X46.2Y-67.0
X46.2Y-67.8
X46.2Y-68.6
X46.2Y-89.4
X46.312Y-42.281
X46.739Y-41.749
X47.0Y-23.0
X47.0Y-27.0
X47.0Y-27.8
X47.0Y-28.6
X47.0Y-45.4
X47.0Y-46.2
X47.0Y-47.0
X47.0Y-47.8
X47.0Y-48.6
X47.0Y-50.2
X47.0Y-51.0
X47.0Y-51.8
X47.0Y-52.6
X47.0Y-53.4
X47.0Y-55.8
X47.0Y-56.6
X47.0Y-57.4
X47.0Y-58.2
X47.0Y-59.0
X47.0Y-59.8
X47.0Y-60.6
X47.0Y-71.0
X47.0Y-71.8
X47.0Y-72.6
X47.0Y-73.4
X47.0Y-74.2
X47.0Y-75.0
X47.0Y-75.8
X47.0Y-76.6
X47.0Y-77.4
X47.0Y-78.2
X47.0Y-79.0
X47.0Y-79.8
X47.0Y-80.6
X47.0Y-81.4
X47.0Y-82.2
X47.0Y-83.0
X47.0Y-83.8
X47.0Y-84.6
X47.0Y-85.4
X47.0Y-86.2
X47.0Y-87.0
X47.0Y-87.8
X47.0Y-88.6
X47.0Y-89.4
X47.8Y-23.0
X47.8Y-27.0
X47.8Y-27.8
X47.8Y-31.0
X47.8Y-31.8
X47.8Y-32.6
X47.8Y-33.4
X47.8Y-34.2
X47.8Y-35.0
X47.8Y-35.8
X47.8Y-36.6
X47.8Y-37.4
X47.8Y-38.2
X47.8Y-39.0
X47.8Y-39.8
X47.8Y-40.6
X47.8Y-41.4
X47.8Y-42.2
X47.8Y-44.6
X47.8Y-45.4
X47.8Y-46.2
X47.8Y-47.0
X47.8Y-47.8
X47.8Y-48.6
X47.8Y-50.2
X47.8Y-51.0
X47.8Y-51.8
X47.8Y-52.6
X47.8Y-53.4
X47.8Y-54.2
X47.8Y-56.6
X47.8Y-57.4
X47.8Y-58.2
X47.8Y-59.0
X47.8Y-59.8
X47.8Y-60.6
X47.8Y-61.4
X47.8Y-71.0
X47.8Y-71.8
X47.8Y-72.6
X47.8Y-73.4
X47.8Y-74.2
X47.8Y-75.0
X47.8Y-75.8
X47.8Y-76.6
X47.8Y-77.4
X47.8Y-78.2
X47.8Y-79.0
X47.8Y-79.8
X47.8Y-80.6
X47.8Y-81.4
X47.8Y-82.2
X47.8Y-83.0
X47.8Y-83.8
X47.8Y-84.6
X47.8Y-85.4
X47.8Y-86.2
X47.8Y-87.0
X47.8Y-87.8
X47.8Y-88.6
X47.8Y-89.4
X48.043Y-29.66
X48.06Y-30.2
X48.3Y-28.39
X48.584Y-30.131
X48.6Y-23.8
X48.6Y-26.2
X48.6Y-31.0
X48.6Y-31.8
X48.6Y-32.6
X48.6Y-33.4
X48.6Y-34.2
X48.6Y-35.0
X48.6Y-35.8
X48.6Y-36.6
X48.6Y-37.4
X48.6Y-39.8
X48.6Y-40.6
X48.6Y-41.4
X48.6Y-43.8
X48.6Y-44.6
X48.6Y-45.4
X48.6Y-46.2
X48.6Y-47.0
X48.6Y-47.8
X48.6Y-48.6
X48.6Y-50.2
X48.6Y-51.0
X48.6Y-51.8
X48.6Y-52.6
X48.6Y-53.4
X48.6Y-54.2
X48.6Y-55.0
X48.6Y-57.4
X48.6Y-58.2
X48.6Y-59.0
X48.6Y-61.4
X48.6Y-62.2
X48.6Y-63.0
X48.6Y-63.8
X48.6Y-64.6
X48.6Y-65.4
X48.6Y-66.2
X48.6Y-67.8
X48.6Y-68.6
X48.6Y-69.4
X48.6Y-70.2
X48.6Y-71.0
X48.6Y-71.8
X48.6Y-72.6
X48.6Y-73.4
X48.6Y-74.2
X48.6Y-75.0
X48.6Y-75.8
X48.6Y-76.6
X48.6Y-77.4
X48.6Y-78.2
X48.6Y-79.0
X48.6Y-79.8
X48.6Y-80.6
X48.6Y-81.4
X48.6Y-82.2
X48.6Y-83.0
X48.6Y-83.8
X48.6Y-84.6
X48.6Y-85.4
X48.6Y-86.2
X48.6Y-87.0
X48.6Y-87.8
X48.6Y-88.6
X48.6Y-89.4
X49.4Y-23.8
X49.4Y-26.2
X49.4Y-30.2
X49.4Y-31.0
X49.4Y-31.8
X49.4Y-32.6
X49.4Y-33.4
X49.4Y-34.2
X49.4Y-35.0
X49.4Y-35.8
X49.4Y-36.6
X49.4Y-39.8
X49.4Y-40.6
X49.4Y-43.0
X49.4Y-43.8
X49.4Y-44.6
X49.4Y-45.4
X49.4Y-46.2
X49.4Y-47.0
X49.4Y-47.8
X49.4Y-48.6
X49.4Y-50.2
X49.4Y-51.0
X49.4Y-51.8
X49.4Y-52.6
X49.4Y-53.4
X49.4Y-54.2
X49.4Y-55.0
X49.4Y-55.8
X49.4Y-58.2
X49.4Y-59.0
X49.4Y-61.4
X49.4Y-62.2
X49.4Y-63.0
X49.4Y-63.8
X49.4Y-64.6
X49.4Y-65.4
X49.4Y-66.2
X49.4Y-71.0
X49.4Y-71.8
X49.4Y-72.6
X49.4Y-73.4
X49.4Y-74.2
X49.4Y-75.0
X49.4Y-75.8
X49.4Y-76.6
X49.4Y-77.4
X49.4Y-78.2
X49.4Y-79.0
X49.4Y-79.8
X49.4Y-80.6
X49.4Y-81.4
X49.4Y-82.2
X49.4Y-83.0
X49.4Y-83.8
X49.4Y-84.6
X49.4Y-85.4
X49.4Y-86.2
X49.4Y-87.0
X49.4Y-87.8
X49.4Y-88.6
X49.4Y-89.4
X50.2Y-23.0
X50.2Y-23.8
X50.2Y-26.2
X50.2Y-27.0
X50.2Y-27.8
X50.2Y-30.2
X50.2Y-31.0
X50.2Y-31.8
X50.2Y-32.6
X50.2Y-33.4
X50.2Y-34.2
X50.2Y-35.0
X50.2Y-35.8
X50.2Y-36.6
X50.2Y-37.4
X50.2Y-39.0
X50.2Y-39.8
X50.2Y-42.2
X50.2Y-43.0
X50.2Y-43.8
X50.2Y-44.6
X50.2Y-45.4
X50.2Y-46.2
X50.2Y-47.0
X50.2Y-47.8
X50.2Y-48.6
X50.2Y-50.2
X50.2Y-51.0
X50.2Y-51.8
X50.2Y-52.6
X50.2Y-53.4
X50.2Y-54.2
X50.2Y-55.0
X50.2Y-55.8
X50.2Y-56.6
X50.2Y-59.0
X50.2Y-61.4
X50.2Y-62.2
X50.2Y-63.0
X50.2Y-63.8
X50.2Y-64.6
X50.2Y-65.4
X50.2Y-66.2
X50.2Y-71.0
X50.2Y-71.8
X50.2Y-72.6
X50.2Y-73.4
X50.2Y-74.2
X50.2Y-75.0
X50.2Y-75.8
X50.2Y-76.6
X50.2Y-77.4
X50.2Y-78.2
X50.2Y-79.0
X50.2Y-79.8
X50.2Y-80.6
X50.2Y-81.4
X50.2Y-82.2
X50.2Y-83.0
X50.2Y-83.8
X50.2Y-84.6
X50.2Y-85.4
X50.2Y-86.2
X50.2Y-87.0
X50.2Y-87.8
X50.2Y-88.6
X50.2Y-89.4
X50.232Y-60.614
X51.0Y-23.0
X51.0Y-23.8
X51.0Y-26.2
X51.0Y-27.0
X51.0Y-30.2
X51.0Y-31.0
X51.0Y-31.8
X51.0Y-32.6
X51.0Y-33.4
X51.0Y-34.2
X51.0Y-35.0
X51.0Y-35.8
X51.0Y-41.4
X51.0Y-42.2
X51.0Y-43.0
X51.0Y-43.8
X51.0Y-44.6
X51.0Y-45.4
X51.0Y-46.2
X51.0Y-47.0
X51.0Y-47.8
X51.0Y-48.6
X51.0Y-50.2
X51.0Y-51.0
X51.0Y-51.8
X51.0Y-52.6
X51.0Y-53.4
X51.0Y-54.2
X51.0Y-55.0
X51.0Y-55.8
X51.0Y-56.6
X51.0Y-57.4
X51.0Y-62.2
X51.0Y-63.0
X51.0Y-63.8
X51.0Y-64.6
X51.0Y-65.4
X51.0Y-66.2
X51.0Y-71.0
X51.0Y-71.8
X51.0Y-72.6
X51.0Y-73.4
X51.0Y-74.2
X51.0Y-75.0
X51.0Y-75.8
X51.0Y-76.6
X51.0Y-77.4
X51.0Y-78.2
X51.0Y-79.0
X51.0Y-79.8
X51.0Y-80.6
X51.0Y-81.4
X51.0Y-82.2
X51.0Y-83.0
X51.0Y-83.8
X51.0Y-84.6
X51.0Y-85.4
X51.0Y-86.2
X51.0Y-87.0
X51.0Y-87.8
X51.0Y-88.6
X51.0Y-89.4
X51.05Y-28.39
X51.5Y-25.51
X51.8Y-23.0
X51.8Y-23.8
X51.8Y-29.4
X51.8Y-30.2
X51.8Y-31.0
X51.8Y-31.8
X51.8Y-32.6
X51.8Y-33.4
X51.8Y-34.2
X51.8Y-35.8
X51.8Y-40.6
X51.8Y-41.4
X51.8Y-43.0
X51.8Y-43.8
X51.8Y-44.6
X51.8Y-45.4
X51.8Y-46.2
X51.8Y-47.0
X51.8Y-47.8
X51.8Y-48.6
X51.8Y-50.2
X51.8Y-51.0
X51.8Y-51.8
X51.8Y-52.6
X51.8Y-53.4
X51.8Y-54.2
X51.8Y-55.0
X51.8Y-55.8
X51.8Y-57.4
X51.8Y-58.2
X51.8Y-62.2
X51.8Y-63.0
X51.8Y-64.6
X51.8Y-65.4
X51.8Y-66.2
X51.8Y-67.8
X51.8Y-71.0
X51.8Y-71.8
X51.8Y-72.6
X51.8Y-73.4
X51.8Y-74.2
X51.8Y-75.0
X51.8Y-75.8
X51.8Y-76.6
X51.8Y-77.4
X51.8Y-78.2
X51.8Y-79.0
X51.8Y-79.8
X51.8Y-80.6
X51.8Y-81.4
X51.8Y-82.2
X51.8Y-83.0
X51.8Y-83.8
X51.8Y-84.6
X51.8Y-85.4
X51.8Y-86.2
X51.8Y-87.0
X51.8Y-87.8
X51.8Y-88.6
X51.8Y-89.4
X52.593Y-43.034
X52.6Y-23.0
X52.6Y-23.8
X52.6Y-28.6
X52.6Y-29.4
X52.6Y-30.2
X52.6Y-31.0
X52.6Y-31.8
X52.6Y-32.6
X52.6Y-33.4
X52.6Y-40.6
X52.6Y-43.8
X52.6Y-44.6
X52.6Y-45.4
X52.6Y-46.2
X52.6Y-47.0
X52.6Y-47.8
X52.6Y-48.6
X52.6Y-50.2
X52.6Y-51.0
X52.6Y-51.8
X52.6Y-52.6
X52.6Y-53.4
X52.6Y-54.2
X52.6Y-55.0
X52.6Y-58.2
X52.6Y-62.2
X52.6Y-65.4
X52.6Y-66.2
X52.6Y-71.0
X52.6Y-71.8
X52.6Y-72.6
X52.6Y-73.4
X52.6Y-74.2
X52.6Y-75.0
X52.6Y-75.8
X52.6Y-76.6
X52.6Y-77.4
X52.6Y-78.2
X52.6Y-79.0
X52.6Y-79.8
X52.6Y-80.6
X52.6Y-81.4
X52.6Y-82.2
X52.6Y-83.0
X52.6Y-83.8
X52.6Y-84.6
X52.6Y-85.4
X52.6Y-86.2
X52.6Y-87.0
X52.6Y-87.8
X52.6Y-88.6
X52.6Y-89.4
X52.65Y-27.26
X53.369Y-46.184
X53.4Y-23.0
X53.4Y-23.8
X53.4Y-26.2
X53.4Y-27.0
X53.4Y-27.8
X53.4Y-28.6
X53.4Y-29.4
X53.4Y-30.2
X53.4Y-31.0
X53.4Y-31.8
X53.4Y-32.6
X53.4Y-33.4
X53.4Y-35.8
X53.4Y-40.6
X53.4Y-43.0
X53.4Y-43.8
X53.4Y-44.6
X53.4Y-45.4
X53.4Y-47.8
X53.4Y-48.6
X53.4Y-50.2
X53.4Y-51.0
X53.4Y-52.6
X53.4Y-53.4
X53.4Y-54.2
X53.4Y-55.0
X53.4Y-58.2
X53.4Y-62.2
X53.4Y-65.4
X53.4Y-66.2
X53.4Y-71.0
X53.4Y-71.8
X53.4Y-72.6
X53.4Y-73.4
X53.4Y-74.2
X53.4Y-75.0
X53.4Y-75.8
X53.4Y-76.6
X53.4Y-77.4
X53.4Y-78.2
X53.4Y-79.0
X53.4Y-79.8
X53.4Y-80.6
X53.4Y-81.4
X53.4Y-82.2
X53.4Y-83.0
X53.4Y-83.8
X53.4Y-84.6
X53.4Y-85.4
X53.4Y-86.2
X53.4Y-87.0
X53.4Y-87.8
X53.4Y-88.6
X53.4Y-89.4
X54.2Y-23.8
X54.2Y-26.2
X54.2Y-28.6
X54.2Y-29.4
X54.2Y-30.2
X54.2Y-31.0
X54.2Y-31.8
X54.2Y-32.6
X54.2Y-33.4
X54.2Y-34.2
X54.2Y-35.0
X54.2Y-35.8
X54.2Y-40.6
X54.2Y-41.4
X54.2Y-42.2
X54.2Y-43.0
X54.2Y-43.8
X54.2Y-44.6
X54.2Y-45.4
X54.2Y-47.8
X54.2Y-48.6
X54.2Y-50.2
X54.2Y-53.4
X54.2Y-54.2
X54.2Y-55.0
X54.2Y-55.8
X54.2Y-56.6
X54.2Y-57.4
X54.2Y-58.2
X54.2Y-62.2
X54.2Y-63.0
X54.2Y-63.8
X54.2Y-64.6
X54.2Y-65.4
X54.2Y-66.2
X54.2Y-67.8
X54.2Y-68.6
X54.2Y-69.4
X54.2Y-70.2
X54.2Y-71.0
X54.2Y-71.8
X54.2Y-72.6
X54.2Y-73.4
X54.2Y-74.2
X54.2Y-75.0
X54.2Y-75.8
X54.2Y-76.6
X54.2Y-77.4
X54.2Y-78.2
X54.2Y-79.0
X54.2Y-79.8
X54.2Y-80.6
X54.2Y-81.4
X54.2Y-82.2
X54.2Y-83.0
X54.2Y-83.8
X54.2Y-84.6
X54.2Y-85.4
X54.2Y-86.2
X54.2Y-87.0
X54.2Y-87.8
X54.2Y-88.6
X54.2Y-89.4
X55.0Y-23.8
X55.0Y-26.2
X55.0Y-29.4
X55.0Y-30.2
X55.0Y-31.0
X55.0Y-31.8
X55.0Y-32.6
X55.0Y-33.4
X55.0Y-34.2
X55.0Y-35.0
X55.0Y-35.8
X55.0Y-36.6
X55.0Y-37.4
X55.0Y-38.2
X55.0Y-39.0
X55.0Y-39.8
X55.0Y-40.6
X55.0Y-41.4
X55.0Y-42.2
X55.0Y-43.0
X55.0Y-43.8
X55.0Y-44.6
X55.0Y-45.4
X55.0Y-47.8
X55.0Y-48.6
X55.0Y-50.2
X55.0Y-53.4
X55.0Y-54.2
X55.0Y-55.0
X55.0Y-55.8
X55.0Y-56.6
X55.0Y-57.4
X55.0Y-58.2
X55.0Y-59.0
X55.0Y-59.8
X55.0Y-60.6
X55.0Y-61.4
X55.0Y-62.2
X55.0Y-63.0
X55.0Y-63.8
X55.0Y-64.6
X55.0Y-65.4
X55.0Y-66.2
X55.0Y-71.0
X55.0Y-71.8
X55.0Y-72.6
X55.0Y-73.4
X55.0Y-74.2
X55.0Y-75.0
X55.0Y-75.8
X55.0Y-76.6
X55.0Y-77.4
X55.0Y-78.2
X55.0Y-79.0
X55.0Y-79.8
X55.0Y-80.6
X55.0Y-81.4
X55.0Y-82.2
X55.0Y-83.0
X55.0Y-83.8
X55.0Y-84.6
X55.0Y-85.4
X55.0Y-86.2
X55.0Y-87.0
X55.0Y-87.8
X55.0Y-88.6
X55.0Y-89.4
X55.8Y-28.6
X55.8Y-29.4
X55.8Y-30.2
X55.8Y-31.0
X55.8Y-31.8
X55.8Y-32.6
X55.8Y-33.4
X55.8Y-34.2
X55.8Y-35.0
X55.8Y-35.8
X55.8Y-36.6
X55.8Y-37.4
X55.8Y-39.8
X55.8Y-40.6
X55.8Y-41.4
X55.8Y-42.2
X55.8Y-43.0
X55.8Y-43.8
X55.8Y-44.6
X55.8Y-45.4
X55.8Y-46.2
X55.8Y-47.0
X55.8Y-51.8
X55.8Y-52.6
X55.8Y-53.4
X55.8Y-54.2
X55.8Y-55.0
X55.8Y-55.8
X55.8Y-56.6
X55.8Y-57.4
X55.8Y-58.2
X55.8Y-59.0
X55.8Y-61.4
X55.8Y-62.2
X55.8Y-63.0
X55.8Y-63.8
X55.8Y-64.6
X55.8Y-65.4
X55.8Y-66.2
X55.8Y-71.0
X55.8Y-71.8
X55.8Y-72.6
X55.8Y-73.4
X55.8Y-74.2
X55.8Y-75.0
X55.8Y-75.8
X55.8Y-76.6
X55.8Y-77.4
X55.8Y-78.2
X55.8Y-79.0
X55.8Y-79.8
X55.8Y-80.6
X55.8Y-81.4
X55.8Y-82.2
X55.8Y-83.0
X55.8Y-83.8
X55.8Y-84.6
X55.8Y-85.4
X55.8Y-86.2
X55.8Y-87.0
X55.8Y-87.8
X55.8Y-88.6
X55.8Y-89.4
X56.15Y-23.64
X56.15Y-26.46
X56.6Y-23.0
X56.6Y-28.6
X56.6Y-29.4
X56.6Y-30.2
X56.6Y-31.0
X56.6Y-31.8
X56.6Y-32.6
X56.6Y-33.4
X56.6Y-34.2
X56.6Y-35.0
X56.6Y-35.8
X56.6Y-36.6
X56.6Y-39.8
X56.6Y-40.6
X56.6Y-41.4
X56.6Y-42.2
X56.6Y-43.0
X56.6Y-43.8
X56.6Y-44.6
X56.6Y-45.4
X56.6Y-46.2
X56.6Y-47.0
X56.6Y-51.8
X56.6Y-52.6
X56.6Y-53.4
X56.6Y-54.2
X56.6Y-55.0
X56.6Y-55.8
X56.6Y-56.6
X56.6Y-57.4
X56.6Y-58.2
X56.6Y-59.0
X56.6Y-61.4
X56.6Y-62.2
X56.6Y-63.0
X56.6Y-63.8
X56.6Y-64.6
X56.6Y-65.4
X56.6Y-66.2
X56.6Y-67.8
X56.6Y-68.6
X56.6Y-69.4
X56.6Y-70.2
X56.6Y-71.0
X56.6Y-71.8
X56.6Y-72.6
X56.6Y-73.4
X56.6Y-74.2
X56.6Y-75.0
X56.6Y-75.8
X56.6Y-76.6
X56.6Y-77.4
X56.6Y-78.2
X56.6Y-79.0
X56.6Y-79.8
X56.6Y-80.6
X56.6Y-81.4
X56.6Y-82.2
X56.6Y-83.0
X56.6Y-83.8
X56.6Y-84.6
X56.6Y-85.4
X56.6Y-86.2
X56.6Y-87.0
X56.6Y-87.8
X56.6Y-88.6
X56.6Y-89.4
X56.9Y-27.26
X57.4Y-23.0
X57.4Y-28.6
X57.4Y-29.4
X57.4Y-30.2
X57.4Y-31.0
X57.4Y-31.8
X57.4Y-32.6
X57.4Y-33.4
X57.4Y-34.2
X57.4Y-35.0
X57.4Y-35.8
X57.4Y-36.6
X57.4Y-37.4
X57.4Y-39.0
X57.4Y-39.8
X57.4Y-40.6
X57.4Y-41.4
X57.4Y-42.2
X57.4Y-43.0
X57.4Y-43.8
X57.4Y-44.6
X57.4Y-45.4
X57.4Y-46.2
X57.4Y-47.0
X57.4Y-51.8
X57.4Y-52.6
X57.4Y-53.4
X57.4Y-54.2
X57.4Y-55.0
X57.4Y-55.8
X57.4Y-56.6
X57.4Y-57.4
X57.4Y-58.2
X57.4Y-59.0
X57.4Y-60.6
X57.4Y-61.4
X57.4Y-62.2
X57.4Y-63.0
X57.4Y-63.8
X57.4Y-64.6
X57.4Y-65.4
X57.4Y-66.2
X57.4Y-71.0
X57.4Y-71.8
X57.4Y-72.6
X57.4Y-73.4
X57.4Y-74.2
X57.4Y-75.0
X57.4Y-75.8
X57.4Y-76.6
X57.4Y-77.4
X57.4Y-78.2
X57.4Y-79.0
X57.4Y-79.8
X57.4Y-80.6
X57.4Y-81.4
X57.4Y-82.2
X57.4Y-83.0
X57.4Y-83.8
X57.4Y-84.6
X57.4Y-85.4
X57.4Y-86.2
X57.4Y-87.0
X57.4Y-87.8
X57.4Y-88.6
X57.4Y-89.4
X58.2Y-23.0
X58.2Y-27.0
X58.2Y-27.8
X58.2Y-28.6
X58.2Y-29.4
X58.2Y-30.2
X58.2Y-31.0
X58.2Y-31.8
X58.2Y-32.6
X58.2Y-33.4
X58.2Y-34.2
X58.2Y-35.0
X58.2Y-35.8
X58.2Y-36.6
X58.2Y-37.4
X58.2Y-38.2
X58.2Y-39.0
X58.2Y-39.8
X58.2Y-40.6
X58.2Y-41.4
X58.2Y-42.2
X58.2Y-43.0
X58.2Y-43.8
X58.2Y-44.6
X58.2Y-45.4
X58.2Y-46.2
X58.2Y-47.0
X58.2Y-51.8
X58.2Y-52.6
X58.2Y-53.4
X58.2Y-54.2
X58.2Y-55.0
X58.2Y-55.8
X58.2Y-56.6
X58.2Y-57.4
X58.2Y-58.2
X58.2Y-59.0
X58.2Y-59.8
X58.2Y-60.6
X58.2Y-61.4
X58.2Y-62.2
X58.2Y-63.0
X58.2Y-63.8
X58.2Y-64.6
X58.2Y-65.4
X58.2Y-66.2
X58.2Y-71.0
X58.2Y-71.8
X58.2Y-72.6
X58.2Y-73.4
X58.2Y-87.0
X58.2Y-87.8
X58.2Y-88.6
X58.2Y-89.4
X59.0Y-23.0
X59.0Y-27.0
X59.0Y-28.6
X59.0Y-29.4
X59.0Y-30.2
X59.0Y-31.0
X59.0Y-31.8
X59.0Y-32.6
X59.0Y-33.4
X59.0Y-34.2
X59.0Y-35.0
X59.0Y-35.8
X59.0Y-36.6
X59.0Y-37.4
X59.0Y-38.2
X59.0Y-39.0
X59.0Y-39.8
X59.0Y-40.6
X59.0Y-41.4
X59.0Y-42.2
X59.0Y-43.0
X59.0Y-43.8
X59.0Y-44.6
X59.0Y-45.4
X59.0Y-47.8
X59.0Y-48.6
X59.0Y-49.4
X59.0Y-50.2
X59.0Y-53.4
X59.0Y-54.2
X59.0Y-55.0
X59.0Y-55.8
X59.0Y-56.6
X59.0Y-57.4
X59.0Y-58.2
X59.0Y-59.0
X59.0Y-59.8
X59.0Y-60.6
X59.0Y-61.4
X59.0Y-62.2
X59.0Y-63.0
X59.0Y-63.8
X59.0Y-64.6
X59.0Y-65.4
X59.0Y-66.2
X59.0Y-67.8
X59.0Y-68.6
X59.0Y-69.4
X59.0Y-70.2
X59.0Y-71.0
X59.0Y-71.8
X59.0Y-72.6
X59.0Y-73.4
X59.0Y-87.0
X59.0Y-87.8
X59.0Y-88.6
X59.0Y-89.4
X59.792Y-28.634
X59.8Y-23.8
X59.8Y-24.6
X59.8Y-25.4
X59.8Y-26.2
X59.8Y-29.4
X59.8Y-30.2
X59.8Y-31.0
X59.8Y-31.8
X59.8Y-32.6
X59.8Y-33.4
X59.8Y-34.2
X59.8Y-35.0
X59.8Y-35.8
X59.8Y-36.6
X59.8Y-37.4
X59.8Y-38.2
X59.8Y-39.0
X59.8Y-39.8
X59.8Y-40.6
X59.8Y-41.4
X59.8Y-42.2
X59.8Y-43.0
X59.8Y-43.8
X59.8Y-44.6
X59.8Y-45.4
X59.8Y-47.8
X59.8Y-48.6
X59.8Y-49.4
X59.8Y-50.2
X59.8Y-53.4
X59.8Y-54.2
X59.8Y-55.0
X59.8Y-55.8
X59.8Y-56.6
X59.8Y-57.4
X59.8Y-58.2
X59.8Y-59.0
X59.8Y-59.8
X59.8Y-60.6
X59.8Y-61.4
X59.8Y-62.2
X59.8Y-63.0
X59.8Y-63.8
X59.8Y-64.6
X59.8Y-65.4
X59.8Y-66.2
X59.8Y-67.8
X59.8Y-68.6
X59.8Y-69.4
X59.8Y-71.8
X59.8Y-74.2
X59.8Y-76.6
X59.8Y-77.4
X59.8Y-79.0
X59.8Y-79.8
X59.8Y-82.2
X59.8Y-84.6
X59.8Y-87.0
X59.8Y-87.8
X59.8Y-88.6
X59.8Y-89.4
X60.6Y-23.8
X60.6Y-24.6
X60.6Y-25.4
X60.6Y-26.2
X60.6Y-28.6
X60.6Y-29.4
X60.6Y-30.2
X60.6Y-31.0
X60.6Y-31.8
X60.6Y-32.6
X60.6Y-33.4
X60.6Y-34.2
X60.6Y-35.0
X60.6Y-35.8
X60.6Y-36.6
X60.6Y-37.4
X60.6Y-38.2
X60.6Y-39.0
X60.6Y-39.8
X60.6Y-40.6
X60.6Y-41.4
X60.6Y-42.2
X60.6Y-43.0
X60.6Y-43.8
X60.6Y-44.6
X60.6Y-45.4
X60.6Y-46.2
X60.6Y-47.0
X60.6Y-47.8
X60.6Y-48.6
X60.6Y-49.4
X60.6Y-50.2
X60.6Y-51.0
X60.6Y-51.8
X60.6Y-52.6
X60.6Y-53.4
X60.6Y-54.2
X60.6Y-55.0
X60.6Y-55.8
X60.6Y-56.6
X60.6Y-57.4
X60.6Y-58.2
X60.6Y-59.0
X60.6Y-59.8
X60.6Y-60.6
X60.6Y-61.4
X60.6Y-62.2
X60.6Y-63.0
X60.6Y-63.8
X60.6Y-64.6
X60.6Y-65.4
X60.6Y-66.2
X60.6Y-67.8
X60.6Y-68.6
X60.6Y-69.4
X60.6Y-71.8
X60.6Y-74.2
X60.6Y-76.6
X60.6Y-79.8
X60.6Y-82.2
X60.6Y-84.6
X60.6Y-87.0
X60.6Y-87.8
X60.6Y-88.6
X60.6Y-89.4
X61.4Y-23.0
X61.4Y-23.8
X61.4Y-24.6
X61.4Y-25.4
X61.4Y-26.2
X61.4Y-27.0
X61.4Y-27.8
X61.4Y-28.6
X61.4Y-29.4
X61.4Y-30.2
X61.4Y-31.0
X61.4Y-31.8
X61.4Y-32.6
X61.4Y-33.4
X61.4Y-34.2
X61.4Y-35.0
X61.4Y-35.8
X61.4Y-36.6
X61.4Y-37.4
X61.4Y-38.2
X61.4Y-39.0
X61.4Y-39.8
X61.4Y-40.6
X61.4Y-41.4
X61.4Y-42.2
X61.4Y-43.0
X61.4Y-43.8
X61.4Y-44.6
X61.4Y-45.4
X61.4Y-46.2
X61.4Y-47.0
X61.4Y-47.8
X61.4Y-48.6
X61.4Y-49.4
X61.4Y-50.2
X61.4Y-51.0
X61.4Y-51.8
X61.4Y-52.6
X61.4Y-53.4
X61.4Y-54.2
X61.4Y-55.0
X61.4Y-55.8
X61.4Y-56.6
X61.4Y-57.4
X61.4Y-58.2
X61.4Y-59.0
X61.4Y-59.8
X61.4Y-60.6
X61.4Y-61.4
X61.4Y-62.2
X61.4Y-63.0
X61.4Y-63.8
X61.4Y-64.6
X61.4Y-65.4
X61.4Y-66.2
X61.4Y-67.8
X61.4Y-68.6
X61.4Y-69.4
X61.4Y-71.8
X61.4Y-74.2
X61.4Y-76.6
X61.4Y-79.8
X61.4Y-82.2
X61.4Y-84.6
X61.4Y-87.0
X61.4Y-88.37
X61.4Y-89.4
X62.2Y-23.0
X62.2Y-23.8
X62.2Y-24.6
X62.2Y-25.4
X62.2Y-26.2
X62.2Y-27.0
X62.2Y-27.8
X62.2Y-28.6
X62.2Y-29.4
X62.2Y-30.2
X62.2Y-31.0
X62.2Y-31.8
X62.2Y-32.6
X62.2Y-33.4
X62.2Y-34.2
X62.2Y-35.0
X62.2Y-35.8
X62.2Y-36.6
X62.2Y-37.4
X62.2Y-38.2
X62.2Y-39.0
X62.2Y-39.8
X62.2Y-40.6
X62.2Y-41.4
X62.2Y-42.2
X62.2Y-43.0
X62.2Y-43.8
X62.2Y-44.6
X62.2Y-45.4
X62.2Y-46.2
X62.2Y-47.0
X62.2Y-47.8
X62.2Y-48.6
X62.2Y-49.4
X62.2Y-50.2
X62.2Y-51.0
X62.2Y-51.8
X62.2Y-52.6
X62.2Y-53.4
X62.2Y-54.2
X62.2Y-55.0
X62.2Y-55.8
X62.2Y-56.6
X62.2Y-57.4
X62.2Y-58.2
X62.2Y-59.0
X62.2Y-59.8
X62.2Y-60.6
X62.2Y-61.4
X62.2Y-62.2
X62.2Y-63.0
X62.2Y-63.8
X62.2Y-64.6
X62.2Y-65.4
X62.2Y-66.2
X62.2Y-67.8
X62.2Y-68.6
X62.2Y-69.4
X62.2Y-71.8
X62.2Y-74.2
X62.2Y-76.6
X62.2Y-79.8
X62.2Y-82.2
X62.2Y-84.6
X62.2Y-87.0
X62.2Y-87.8
X62.2Y-88.6
X62.2Y-89.4
X63.0Y-23.0
X63.0Y-23.8
X63.0Y-24.6
X63.0Y-25.4
X63.0Y-26.2
X63.0Y-27.0
X63.0Y-27.8
X63.0Y-28.6
X63.0Y-29.4
X63.0Y-30.2
X63.0Y-31.0
X63.0Y-31.8
X63.0Y-32.6
X63.0Y-33.4
X63.0Y-34.2
X63.0Y-35.0
X63.0Y-35.8
X63.0Y-36.6
X63.0Y-37.4
X63.0Y-38.2
X63.0Y-39.0
X63.0Y-39.8
X63.0Y-40.6
X63.0Y-41.4
X63.0Y-42.2
X63.0Y-43.0
X63.0Y-43.8
X63.0Y-44.6
X63.0Y-45.4
X63.0Y-46.2
X63.0Y-47.0
X63.0Y-47.8
X63.0Y-48.6
X63.0Y-49.4
X63.0Y-50.2
X63.0Y-51.0
X63.0Y-51.8
X63.0Y-52.6
X63.0Y-53.4
X63.0Y-54.2
X63.0Y-55.0
X63.0Y-55.8
X63.0Y-56.6
X63.0Y-57.4
X63.0Y-58.2
X63.0Y-59.0
X63.0Y-59.8
X63.0Y-60.6
X63.0Y-61.4
X63.0Y-62.2
X63.0Y-63.0
X63.0Y-63.8
X63.0Y-64.6
X63.0Y-65.4
X63.0Y-66.2
X63.0Y-67.8
X63.0Y-68.6
X63.0Y-69.4
X63.0Y-71.8
X63.0Y-74.2
X63.0Y-76.6
X63.0Y-77.4
X63.0Y-79.0
X63.0Y-79.8
X63.0Y-82.2
X63.0Y-84.6
X63.0Y-87.0
X63.0Y-87.8
X63.0Y-88.6
X63.0Y-89.4
X63.8Y-23.0
X63.8Y-23.8
X63.8Y-24.6
X63.8Y-25.4
X63.8Y-26.2
X63.8Y-27.0
X63.8Y-27.8
X63.8Y-28.6
X63.8Y-29.4
X63.8Y-30.2
X63.8Y-31.0
X63.8Y-31.8
X63.8Y-32.6
X63.8Y-33.4
X63.8Y-34.2
X63.8Y-35.0
X63.8Y-35.8
X63.8Y-36.6
X63.8Y-37.4
X63.8Y-38.2
X63.8Y-39.0
X63.8Y-39.8
X63.8Y-40.6
X63.8Y-41.4
X63.8Y-42.2
X63.8Y-43.0
X63.8Y-43.8
X63.8Y-44.6
X63.8Y-45.4
X63.8Y-46.2
X63.8Y-47.0
X63.8Y-47.8
X63.8Y-48.6
X63.8Y-49.4
X63.8Y-50.2
X63.8Y-51.0
X63.8Y-51.8
X63.8Y-52.6
X63.8Y-53.4
X63.8Y-54.2
X63.8Y-55.0
X63.8Y-55.8
X63.8Y-56.6
X63.8Y-57.4
X63.8Y-58.2
X63.8Y-59.0
X63.8Y-59.8
X63.8Y-60.6
X63.8Y-61.4
X63.8Y-62.2
X63.8Y-63.0
X63.8Y-63.8
X63.8Y-64.6
X63.8Y-65.4
X63.8Y-66.2
X63.8Y-87.8
X63.8Y-88.6
X63.8Y-89.4
X64.6Y-25.4
X64.6Y-26.2
X64.6Y-27.0
X64.6Y-27.8
X64.6Y-28.6
X64.6Y-29.4
X64.6Y-30.2
X64.6Y-31.0
X64.6Y-31.8
X64.6Y-32.6
X64.6Y-33.4
X64.6Y-34.2
X64.6Y-35.0
X64.6Y-35.8
X64.6Y-36.6
X64.6Y-37.4
X64.6Y-38.2
X64.6Y-39.0
X64.6Y-39.8
X64.6Y-40.6
X64.6Y-41.4
X64.6Y-42.2
X64.6Y-43.0
X64.6Y-43.8
X64.6Y-44.6
X64.6Y-45.4
X64.6Y-46.2
X64.6Y-47.0
X64.6Y-47.8
X64.6Y-48.6
X64.6Y-49.4
X64.6Y-50.2
X64.6Y-51.0
X64.6Y-51.8
X64.6Y-52.6
X64.6Y-53.4
X64.6Y-54.2
X64.6Y-55.0
X64.6Y-55.8
X64.6Y-56.6
X64.6Y-57.4
X64.6Y-58.2
X64.6Y-59.0
X64.6Y-59.8
X64.6Y-60.6
X64.6Y-61.4
X64.6Y-62.2
X64.6Y-63.0
X64.6Y-63.8
X64.6Y-64.6
X64.6Y-65.4
X64.6Y-66.2
X64.6Y-67.0
X64.6Y-67.8
X64.6Y-68.6
X64.6Y-69.4
X64.6Y-70.2
X64.6Y-71.0
X64.6Y-71.8
X64.6Y-72.6
X64.6Y-73.4
X64.6Y-74.2
X64.6Y-75.0
X64.6Y-75.8
X64.6Y-76.6
X64.6Y-77.4
X64.6Y-78.2
X64.6Y-79.0
X64.6Y-79.8
X64.6Y-80.6
X64.6Y-81.4
X64.6Y-87.8
X64.6Y-88.6
X64.6Y-89.4
X65.4Y-26.2
X65.4Y-27.0
X65.4Y-27.8
X65.4Y-28.6
X65.4Y-29.4
X65.4Y-30.2
X65.4Y-31.0
X65.4Y-31.8
X65.4Y-32.6
X65.4Y-33.4
X65.4Y-34.2
X65.4Y-35.0
X65.4Y-35.8
X65.4Y-36.6
X65.4Y-37.4
X65.4Y-38.2
X65.4Y-39.0
X65.4Y-39.8
X65.4Y-40.6
X65.4Y-41.4
X65.4Y-42.2
X65.4Y-43.0
X65.4Y-43.8
X65.4Y-44.6
X65.4Y-45.4
X65.4Y-46.2
X65.4Y-47.0
X65.4Y-47.8
X65.4Y-48.6
X65.4Y-49.4
X65.4Y-50.2
X65.4Y-51.0
X65.4Y-51.8
X65.4Y-52.6
X65.4Y-53.4
X65.4Y-54.2
X65.4Y-55.0
X65.4Y-55.8
X65.4Y-56.6
X65.4Y-57.4
X65.4Y-58.2
X65.4Y-59.0
X65.4Y-59.8
X65.4Y-60.6
X65.4Y-61.4
X65.4Y-62.2
X65.4Y-63.0
X65.4Y-63.8
X65.4Y-64.6
X65.4Y-65.4
X65.4Y-66.2
X65.4Y-67.0
X65.4Y-67.8
X65.4Y-68.6
X65.4Y-69.4
X65.4Y-70.2
X65.4Y-71.0
X65.4Y-71.8
X65.4Y-72.6
X65.4Y-73.4
X65.4Y-74.2
X65.4Y-75.0
X65.4Y-75.8
X65.4Y-76.6
X65.4Y-77.4
X65.4Y-78.2
X65.4Y-79.0
X65.4Y-79.8
X65.4Y-80.6
X65.4Y-81.4
X65.4Y-83.8
X65.4Y-84.6
X65.4Y-85.4
X65.4Y-86.2
X65.4Y-87.0
X65.4Y-87.8
X65.4Y-88.6
X65.4Y-89.4
X66.2Y-26.2
X66.2Y-27.0
X66.2Y-27.8
X66.2Y-28.6
X66.2Y-29.4
X66.2Y-30.2
X66.2Y-31.0
X66.2Y-31.8
X66.2Y-32.6
X66.2Y-33.4
X66.2Y-34.2
X66.2Y-35.0
X66.2Y-35.8
X66.2Y-36.6
X66.2Y-37.4
X66.2Y-38.2
X66.2Y-39.0
X66.2Y-39.8
X66.2Y-40.6
X66.2Y-41.4
X66.2Y-42.2
X66.2Y-43.0
X66.2Y-43.8
X66.2Y-44.6
X66.2Y-45.4
X66.2Y-46.2
X66.2Y-47.0
X66.2Y-47.8
X66.2Y-48.6
X66.2Y-49.4
X66.2Y-50.2
X66.2Y-51.0
X66.2Y-51.8
X66.2Y-52.6
X66.2Y-53.4
X66.2Y-54.2
X66.2Y-55.0
X66.2Y-55.8
X66.2Y-56.6
X66.2Y-57.4
X66.2Y-58.2
X66.2Y-59.0
X66.2Y-59.8
X66.2Y-60.6
X66.2Y-61.4
X66.2Y-62.2
X66.2Y-63.0
X66.2Y-63.8
X66.2Y-64.6
X66.2Y-65.4
X66.2Y-66.2
X66.2Y-67.0
X66.2Y-67.8
X66.2Y-68.6
X66.2Y-69.4
X66.2Y-70.2
X66.2Y-71.0
X66.2Y-71.8
X66.2Y-72.6
X66.2Y-73.4
X66.2Y-74.2
X66.2Y-75.0
X66.2Y-75.8
X66.2Y-76.6
X66.2Y-77.4
X66.2Y-78.2
X66.2Y-79.0
X66.2Y-79.8
X66.2Y-80.6
X66.2Y-81.4
X66.2Y-82.2
X66.2Y-83.8
X66.2Y-84.6
X66.2Y-85.4
X66.2Y-86.2
X66.2Y-87.0
X66.2Y-87.8
X66.2Y-88.6
X66.2Y-89.4
X66.75Y-82.75
T2
X22.56Y-45.71
X22.56Y-50.79
X25.1Y-48.25
X25.608Y-59.15
X26.258Y-37.2
X27.64Y-45.71
X27.64Y-50.79
X29.2Y-55.558
X29.2Y-59.15
X29.2Y-62.742
X29.85Y-33.608
X29.85Y-37.2
X29.85Y-40.792
X32.792Y-59.15
X33.442Y-37.2
X36.56Y-61.71
X36.56Y-66.79
X38.21Y-30.56
X38.21Y-35.64
X39.1Y-64.25
X40.75Y-33.1
X41.64Y-61.71
X41.64Y-66.79
X43.29Y-30.56
X43.29Y-35.64
X43.96Y-22.46
X43.96Y-27.54
X46.5Y-25.0
X49.04Y-22.46
X49.04Y-27.54
X49.208Y-38.35
X49.208Y-60.15
X52.8Y-34.758
X52.8Y-38.35
X52.8Y-41.942
X52.8Y-56.558
X52.8Y-60.15
X52.8Y-63.742
X54.36Y-46.71
X54.36Y-51.79
X54.96Y-22.46
X54.96Y-27.54
X56.392Y-38.35
X56.392Y-60.15
X56.9Y-49.25
X57.5Y-25.0
X59.44Y-46.71
X59.44Y-51.79
X60.04Y-22.46
X60.04Y-27.54
M30
