M48
; DRILL file KiCad 10.0.4-10.0.4~ubuntu24.04.1 date 2026-07-23T12:37:48
; FORMAT={-:-/ absolute / metric / decimal}
; #@! TF.CreationDate,2026-07-23T12:37:48-07:00
; #@! TF.GenerationSoftware,Kicad,Pcbnew,10.0.4-10.0.4~ubuntu24.04.1
; #@! TF.FileFunction,Plated,1,4,PTH
FMAT,2
METRIC
; #@! TA.AperFunction,Plated,PTH,ViaDrill
T1C0.300
; #@! TA.AperFunction,Plated,PTH,ComponentDrill
T2C0.600
; #@! TA.AperFunction,Plated,PTH,ComponentDrill
T3C1.000
; #@! TA.AperFunction,Plated,PTH,ComponentDrill
T4C1.780
; #@! TA.AperFunction,Plated,PTH,ComponentDrill
T5C2.700
; #@! TA.AperFunction,Plated,PTH,ComponentDrill
T6C3.000
%
G90
G05
T1
X26.0Y-34.0
X26.0Y-42.0
X26.0Y-50.0
X26.0Y-58.0
X26.0Y-66.0
X26.0Y-82.0
X26.0Y-90.0
X26.0Y-98.0
X26.5Y-57.3
X26.5Y-62.7
X26.5Y-69.3
X26.5Y-74.7
X31.35Y-73.0
X31.7Y-61.35
X34.0Y-26.0
X34.0Y-34.0
X34.0Y-42.0
X34.0Y-50.0
X34.0Y-74.0
X34.0Y-82.0
X34.0Y-90.0
X34.0Y-98.0
X34.0Y-106.0
X35.3Y-64.6
X35.3Y-67.4
X38.5Y-62.5
X38.67Y-65.36
X38.67Y-66.64
X38.67Y-67.91
X40.0Y-58.0
X41.0Y-60.5
X41.83Y-72.0
X41.85Y-66.0
X42.0Y-26.0
X42.0Y-34.0
X42.0Y-42.0
X42.0Y-50.0
X42.0Y-74.0
X42.0Y-82.0
X42.0Y-90.0
X42.0Y-98.0
X42.0Y-106.0
X43.0Y-57.5
X46.15Y-66.0
X50.0Y-26.0
X50.0Y-34.0
X50.0Y-42.0
X50.0Y-50.0
X50.0Y-58.0
X50.0Y-66.0
X50.0Y-74.0
X50.0Y-82.0
X50.0Y-90.0
X50.0Y-98.0
X50.0Y-106.0
X51.77Y-44.0
X51.8Y-83.6
X52.17Y-36.0
X52.17Y-40.0
X52.17Y-74.0
X52.17Y-78.0
X52.175Y-82.0
X52.42Y-46.5
X52.42Y-84.5
X52.675Y-44.25
X53.6Y-82.2
X53.83Y-34.0
X53.83Y-38.0
X53.83Y-72.0
X53.83Y-76.0
X54.58Y-41.8
X54.58Y-79.8
X55.1Y-45.3
X55.5Y-79.4
X56.2Y-80.1
X56.8Y-44.9
X57.1Y-41.6
X57.1Y-77.6
X57.1Y-79.6
X57.137Y-39.625
X57.14Y-35.08
X57.14Y-38.33
X57.14Y-73.08
X57.14Y-76.33
X57.77Y-82.0
X57.938Y-40.925
X57.938Y-78.925
X58.0Y-26.0
X58.0Y-34.0
X58.0Y-50.0
X58.0Y-58.0
X58.0Y-66.0
X58.0Y-90.0
X58.0Y-98.0
X58.0Y-106.0
X58.42Y-31.1
X58.42Y-69.1
X58.81Y-44.61
X59.15Y-35.9
X59.15Y-38.0
X59.15Y-40.1
X59.15Y-73.9
X59.15Y-76.0
X59.15Y-78.1
X59.62Y-64.3
X60.0Y-38.0
X60.0Y-76.0
X60.52Y-26.0
X60.85Y-35.9
X60.85Y-38.0
X60.85Y-40.1
X60.85Y-73.9
X60.85Y-76.0
X60.85Y-78.1
X61.38Y-31.1
X61.38Y-69.1
X62.58Y-64.3
X62.86Y-37.02
X62.86Y-38.98
X62.86Y-40.92
X62.86Y-75.03
X62.86Y-76.97
X62.86Y-78.92
X62.862Y-35.075
X62.862Y-73.075
X63.4Y-73.7
X63.46Y-35.73
X63.48Y-26.0
X64.62Y-35.98
X64.62Y-73.98
X64.78Y-70.0
X65.3Y-34.5
X65.3Y-72.5
X65.38Y-30.94
X65.5Y-35.9
X65.5Y-73.9
X66.0Y-26.0
X66.0Y-42.0
X66.0Y-50.0
X66.0Y-66.0
X66.0Y-82.0
X66.0Y-90.0
X66.0Y-98.0
X66.0Y-106.0
X67.62Y-26.3
X67.62Y-64.3
X70.275Y-30.0
X70.275Y-68.0
X70.58Y-26.3
X70.58Y-64.3
X72.0Y-48.96
X72.0Y-86.96
X73.03Y-23.0
X73.03Y-61.0
X73.2Y-28.09
X73.2Y-29.36
X73.2Y-66.09
X73.2Y-67.36
X73.2Y-69.91
X74.0Y-26.0
X74.0Y-42.0
X74.0Y-50.0
X74.0Y-58.0
X74.0Y-90.0
X74.0Y-98.0
X74.0Y-106.0
X74.06Y-33.21
X74.47Y-30.64
X74.47Y-68.64
X75.17Y-47.0
X75.17Y-85.0
X75.31Y-30.0
X75.31Y-68.0
X75.97Y-23.0
X75.97Y-61.0
X77.22Y-26.0
X77.22Y-64.0
X78.78Y-26.0
X78.78Y-64.0
X79.0Y-34.0
X79.0Y-74.0
X81.0Y-34.0
X81.0Y-72.0
X82.0Y-26.0
X82.0Y-42.0
X82.0Y-50.0
X82.0Y-58.0
X82.0Y-82.0
X82.0Y-90.0
X82.0Y-98.0
X82.0Y-106.0
X86.52Y-62.27
X89.85Y-47.0
X89.85Y-85.0
X90.0Y-50.0
X90.0Y-58.0
X90.0Y-90.0
X90.0Y-98.0
X90.0Y-106.0
X91.97Y-25.4
X91.97Y-63.4
X95.47Y-43.5
X95.47Y-81.5
X95.925Y-86.0
X97.08Y-25.5
X97.08Y-63.5
X97.925Y-46.0
X98.0Y-26.0
X98.0Y-50.0
X98.0Y-58.0
X98.0Y-98.0
X98.0Y-106.0
X100.58Y-42.6
X100.58Y-80.6
X103.06Y-96.95
X104.78Y-30.0
X104.78Y-52.0
X104.78Y-74.0
X105.84Y-88.9
X106.0Y-98.0
X106.0Y-106.0
X106.55Y-33.02
X106.55Y-55.02
X106.55Y-77.03
X108.0Y-34.0
X108.0Y-56.0
X108.0Y-78.0
X108.07Y-88.2
X109.45Y-34.325
X109.45Y-56.325
X109.45Y-78.325
X109.86Y-49.0
X109.86Y-72.0
X110.83Y-46.88
X111.27Y-100.23
X112.83Y-30.0
X112.83Y-52.0
X113.33Y-74.9
X113.69Y-71.75
X113.78Y-46.0
X114.0Y-90.0
X114.0Y-98.0
X115.72Y-88.75
X116.28Y-73.0
X116.75Y-104.95
X120.25Y-104.155
X120.45Y-31.8
X120.45Y-53.8
X120.45Y-75.8
X121.15Y-96.0
X121.38Y-35.06
X121.38Y-57.06
X121.38Y-79.06
X122.7Y-101.2
X122.97Y-99.59
X122.97Y-103.0
X123.0Y-34.0
X123.0Y-56.0
X123.0Y-78.0
X123.17Y-87.1
X123.25Y-104.95
X124.862Y-100.75
X126.97Y-91.0
X127.14Y-101.7
X129.86Y-41.0
X129.86Y-63.0
X129.86Y-85.0
X131.4Y-62.94
X131.42Y-40.94
X131.42Y-84.94
T3
X63.5Y-58.0
X66.0Y-58.0
X68.5Y-58.0
X139.0Y-31.0
X139.0Y-33.5
X139.0Y-35.5
X139.0Y-38.0
X139.0Y-53.0
X139.0Y-55.5
X139.0Y-57.5
X139.0Y-60.0
X139.0Y-75.0
X139.0Y-77.5
X139.0Y-79.5
X139.0Y-82.0
T4
X35.0Y-56.0
X35.0Y-59.4
X44.92Y-56.0
X44.92Y-59.4
T5
X30.0Y-36.8
X30.0Y-44.0
T6
X141.6Y-27.879
X141.6Y-41.119
X141.6Y-49.879
X141.6Y-63.119
X141.6Y-71.879
X141.6Y-85.119
T2
G00X23.45Y-33.65
M15
G01X24.55Y-33.65
M16
G05
G00X23.45Y-47.15
M15
G01X24.55Y-47.15
M16
G05
G00X115.68Y-105.32
M15
G01X115.68Y-106.42
M16
G05
G00X115.68Y-109.75
M15
G01X115.68Y-110.35
M16
G05
G00X124.32Y-105.32
M15
G01X124.32Y-106.42
M16
G05
G00X124.32Y-109.75
M15
G01X124.32Y-110.35
M16
G05
M30
