%TF.GenerationSoftware,KiCad,Pcbnew,10.0.4-10.0.4~ubuntu24.04.1*%
%TF.CreationDate,2026-07-16T10:07:51-07:00*%
%TF.ProjectId,usb_power_3s,7573625f-706f-4776-9572-5f33732e6b69,rev?*%
%TF.SameCoordinates,Original*%
%TF.FileFunction,Legend,Top*%
%TF.FilePolarity,Positive*%
%FSLAX46Y46*%
G04 Gerber Fmt 4.6, Leading zero omitted, Abs format (unit mm)*
G04 Created by KiCad (PCBNEW 10.0.4-10.0.4~ubuntu24.04.1) date 2026-07-16 10:07:51*
%MOMM*%
%LPD*%
G01*
G04 APERTURE LIST*
G04 Aperture macros list*
%AMRoundRect*
0 Rectangle with rounded corners*
0 $1 Rounding radius*
0 $2 $3 $4 $5 $6 $7 $8 $9 X,Y pos of 4 corners*
0 Add a 4 corners polygon primitive as box body*
4,1,4,$2,$3,$4,$5,$6,$7,$8,$9,$2,$3,0*
0 Add four circle primitives for the rounded corners*
1,1,$1+$1,$2,$3*
1,1,$1+$1,$4,$5*
1,1,$1+$1,$6,$7*
1,1,$1+$1,$8,$9*
0 Add four rect primitives between the rounded corners*
20,1,$1+$1,$2,$3,$4,$5,0*
20,1,$1+$1,$4,$5,$6,$7,0*
20,1,$1+$1,$6,$7,$8,$9,0*
20,1,$1+$1,$8,$9,$2,$3,0*%
%AMFreePoly0*
4,1,17,1.371000,0.720000,0.950000,0.720000,0.950000,0.580000,1.370000,0.580000,1.370000,0.080000,0.950000,0.080000,0.950000,-0.080000,1.370000,-0.080000,1.370000,-0.580000,0.950000,-0.580000,0.950000,-0.720000,1.370000,-0.720000,1.370000,-1.225000,-0.950000,-1.225000,-0.950000,1.225000,1.371000,1.225000,1.371000,0.720000,1.371000,0.720000,$1*%
G04 Aperture macros list end*
%ADD10C,0.150000*%
%ADD11C,0.120000*%
%ADD12C,0.200000*%
%ADD13RoundRect,0.140000X-0.140000X-0.170000X0.140000X-0.170000X0.140000X0.170000X-0.140000X0.170000X0*%
%ADD14RoundRect,0.225000X-0.225000X-0.250000X0.225000X-0.250000X0.225000X0.250000X-0.225000X0.250000X0*%
%ADD15RoundRect,0.125000X-0.190000X-0.125000X0.190000X-0.125000X0.190000X0.125000X-0.190000X0.125000X0*%
%ADD16FreePoly0,0.000000*%
%ADD17RoundRect,0.250000X-1.000000X-0.900000X1.000000X-0.900000X1.000000X0.900000X-1.000000X0.900000X0*%
%ADD18RoundRect,0.250000X-0.325000X-0.650000X0.325000X-0.650000X0.325000X0.650000X-0.325000X0.650000X0*%
%ADD19RoundRect,0.140000X0.170000X-0.140000X0.170000X0.140000X-0.170000X0.140000X-0.170000X-0.140000X0*%
%ADD20RoundRect,0.135000X-0.135000X-0.185000X0.135000X-0.185000X0.135000X0.185000X-0.135000X0.185000X0*%
%ADD21RoundRect,0.250000X1.100000X-0.325000X1.100000X0.325000X-1.100000X0.325000X-1.100000X-0.325000X0*%
%ADD22C,2.400000*%
%ADD23C,2.200000*%
%ADD24RoundRect,0.062500X-0.062500X-0.237500X0.062500X-0.237500X0.062500X0.237500X-0.062500X0.237500X0*%
%ADD25RoundRect,0.062500X-0.237500X-0.062500X0.237500X-0.062500X0.237500X0.062500X-0.237500X0.062500X0*%
%ADD26R,1.700000X2.700000*%
%ADD27C,3.200000*%
%ADD28RoundRect,0.087500X-0.337500X-0.087500X0.337500X-0.087500X0.337500X0.087500X-0.337500X0.087500X0*%
%ADD29R,1.650000X2.400000*%
%ADD30RoundRect,0.243750X-0.243750X-0.456250X0.243750X-0.456250X0.243750X0.456250X-0.243750X0.456250X0*%
%ADD31RoundRect,0.250000X-1.500000X-1.000000X1.500000X-1.000000X1.500000X1.000000X-1.500000X1.000000X0*%
%ADD32C,1.100000*%
%ADD33RoundRect,0.250000X-1.000000X-0.300000X1.000000X-0.300000X1.000000X0.300000X-1.000000X0.300000X0*%
%ADD34O,3.500000X1.900000*%
%ADD35RoundRect,0.250002X-1.799998X-1.799998X1.799998X-1.799998X1.799998X1.799998X-1.799998X1.799998X0*%
%ADD36R,2.000000X0.900000*%
%ADD37RoundRect,1.025000X1.025000X-1.025000X1.025000X1.025000X-1.025000X1.025000X-1.025000X-1.025000X0*%
%ADD38C,4.100000*%
%ADD39RoundRect,0.250000X-1.500000X-0.550000X1.500000X-0.550000X1.500000X0.550000X-1.500000X0.550000X0*%
%ADD40C,0.650000*%
%ADD41RoundRect,0.150000X0.150000X0.425000X-0.150000X0.425000X-0.150000X-0.425000X0.150000X-0.425000X0*%
%ADD42RoundRect,0.075000X0.075000X0.500000X-0.075000X0.500000X-0.075000X-0.500000X0.075000X-0.500000X0*%
%ADD43O,1.000000X2.100000*%
%ADD44O,1.000000X1.800000*%
%ADD45RoundRect,0.250000X1.500000X0.550000X-1.500000X0.550000X-1.500000X-0.550000X1.500000X-0.550000X0*%
%ADD46RoundRect,0.050000X-0.260000X-0.075000X0.260000X-0.075000X0.260000X0.075000X-0.260000X0.075000X0*%
%ADD47R,1.300000X2.500000*%
G04 APERTURE END LIST*
D10*
X60214700Y-71071428D02*
X60214700Y-69928571D01*
X60786128Y-70499999D02*
X59643271Y-70499999D01*
X60214700Y-83371428D02*
X60214700Y-82228571D01*
%TO.C,CB1*%
D11*
X64392164Y-95640000D02*
X64607836Y-95640000D01*
X64392164Y-96360000D02*
X64607836Y-96360000D01*
%TO.C,CB9*%
X64392164Y-104040000D02*
X64607836Y-104040000D01*
X64392164Y-104760000D02*
X64607836Y-104760000D01*
%TO.C,CA2*%
X72859420Y-51990000D02*
X73140580Y-51990000D01*
X72859420Y-53010000D02*
X73140580Y-53010000D01*
%TO.C,QB1*%
X91750000Y-96500000D02*
X91750000Y-96760000D01*
X91750000Y-96760000D02*
X95250000Y-96760000D01*
X92070000Y-93260000D02*
X95250000Y-93260000D01*
X95250000Y-93260000D02*
X95250000Y-93520000D01*
X95250000Y-96500000D02*
X95250000Y-96760000D01*
X91750000Y-93520000D02*
X91270000Y-93520000D01*
X91750000Y-93040000D01*
X91750000Y-93520000D01*
G36*
X91750000Y-93520000D02*
G01*
X91270000Y-93520000D01*
X91750000Y-93040000D01*
X91750000Y-93520000D01*
G37*
%TO.C,D1*%
X51240000Y-92350000D02*
X51240000Y-96650000D01*
X51240000Y-92350000D02*
X57050000Y-92350000D01*
X51240000Y-96650000D02*
X57050000Y-96650000D01*
%TO.C,C30*%
X126788748Y-70590000D02*
X128211252Y-70590000D01*
X126788748Y-72410000D02*
X128211252Y-72410000D01*
%TO.C,C1*%
X81140000Y-78307836D02*
X81140000Y-78092164D01*
X81860000Y-78307836D02*
X81860000Y-78092164D01*
%TO.C,R17*%
X121846359Y-80620000D02*
X122153641Y-80620000D01*
X121846359Y-81380000D02*
X122153641Y-81380000D01*
%TO.C,CB62*%
X117140000Y-95711252D02*
X117140000Y-94288748D01*
X119860000Y-95711252D02*
X119860000Y-94288748D01*
%TO.C,RB1*%
X59846359Y-95620000D02*
X60153641Y-95620000D01*
X59846359Y-96380000D02*
X60153641Y-96380000D01*
%TO.C,F1*%
X70560000Y-69910000D02*
X63940000Y-69910000D01*
%TO.C,CB8*%
X59892164Y-104040000D02*
X60107836Y-104040000D01*
X59892164Y-104760000D02*
X60107836Y-104760000D01*
%TO.C,C15*%
X55892164Y-98640000D02*
X56107836Y-98640000D01*
X55892164Y-99360000D02*
X56107836Y-99360000D01*
%TO.C,R5*%
X77346359Y-54620000D02*
X77653641Y-54620000D01*
X77346359Y-55380000D02*
X77653641Y-55380000D01*
%TO.C,C33*%
X119288748Y-66590000D02*
X120711252Y-66590000D01*
X119288748Y-68410000D02*
X120711252Y-68410000D01*
%TO.C,U3*%
D12*
X83750000Y-100600000D02*
G75*
G02*
X83550000Y-100600000I-100000J0D01*
G01*
X83550000Y-100600000D02*
G75*
G02*
X83750000Y-100600000I100000J0D01*
G01*
%TO.C,Q2*%
D11*
X74250000Y-85500000D02*
X74250000Y-85760000D01*
X74250000Y-85760000D02*
X77750000Y-85760000D01*
X74570000Y-82260000D02*
X77750000Y-82260000D01*
X77750000Y-82260000D02*
X77750000Y-82520000D01*
X77750000Y-85500000D02*
X77750000Y-85760000D01*
X74250000Y-82520000D02*
X73770000Y-82520000D01*
X74250000Y-82040000D01*
X74250000Y-82520000D01*
G36*
X74250000Y-82520000D02*
G01*
X73770000Y-82520000D01*
X74250000Y-82040000D01*
X74250000Y-82520000D01*
G37*
%TO.C,RB5*%
X68846359Y-101220000D02*
X69153641Y-101220000D01*
X68846359Y-101980000D02*
X69153641Y-101980000D01*
%TO.C,U2*%
D12*
X83750000Y-60600000D02*
G75*
G02*
X83550000Y-60600000I-100000J0D01*
G01*
X83550000Y-60600000D02*
G75*
G02*
X83750000Y-60600000I100000J0D01*
G01*
%TO.C,R19*%
D11*
X124346359Y-60120000D02*
X124653641Y-60120000D01*
X124346359Y-60880000D02*
X124653641Y-60880000D01*
%TO.C,C3*%
X81640000Y-88107836D02*
X81640000Y-87892164D01*
X82360000Y-88107836D02*
X82360000Y-87892164D01*
%TO.C,CB63*%
X113140000Y-101211252D02*
X113140000Y-99788748D01*
X115860000Y-101211252D02*
X115860000Y-99788748D01*
%TO.C,C32*%
X126788748Y-105590000D02*
X128211252Y-105590000D01*
X126788748Y-107410000D02*
X128211252Y-107410000D01*
%TO.C,CB10*%
X68892164Y-104040000D02*
X69107836Y-104040000D01*
X68892164Y-104760000D02*
X69107836Y-104760000D01*
%TO.C,R22*%
X133646359Y-91820000D02*
X133953641Y-91820000D01*
X133646359Y-92580000D02*
X133953641Y-92580000D01*
%TO.C,CB4*%
X68892164Y-98440000D02*
X69107836Y-98440000D01*
X68892164Y-99160000D02*
X69107836Y-99160000D01*
%TO.C,RA5*%
X72346359Y-57720000D02*
X72653641Y-57720000D01*
X72346359Y-58480000D02*
X72653641Y-58480000D01*
%TO.C,CA64*%
X117140000Y-60711252D02*
X117140000Y-59288748D01*
X119860000Y-60711252D02*
X119860000Y-59288748D01*
%TO.C,U4*%
X125390000Y-64390000D02*
X128610000Y-64390000D01*
X125390000Y-64590000D02*
X125390000Y-64390000D01*
X125390000Y-67610000D02*
X125390000Y-67410000D01*
X128610000Y-64390000D02*
X128610000Y-64590000D01*
X128610000Y-67410000D02*
X128610000Y-67610000D01*
X128610000Y-67610000D02*
X125390000Y-67610000D01*
X124860000Y-65020000D02*
X124530000Y-65260000D01*
X124530000Y-64780000D01*
X124860000Y-65020000D01*
G36*
X124860000Y-65020000D02*
G01*
X124530000Y-65260000D01*
X124530000Y-64780000D01*
X124860000Y-65020000D01*
G37*
%TO.C,D3*%
X115440000Y-72450000D02*
X115440000Y-76750000D01*
X115440000Y-72450000D02*
X121250000Y-72450000D01*
X115440000Y-76750000D02*
X121250000Y-76750000D01*
%TO.C,RB3*%
X59846359Y-101220000D02*
X60153641Y-101220000D01*
X59846359Y-101980000D02*
X60153641Y-101980000D01*
%TO.C,CA3*%
X59892164Y-54940000D02*
X60107836Y-54940000D01*
X59892164Y-55660000D02*
X60107836Y-55660000D01*
%TO.C,U6*%
X125390000Y-99390000D02*
X128610000Y-99390000D01*
X125390000Y-99590000D02*
X125390000Y-99390000D01*
X125390000Y-102610000D02*
X125390000Y-102410000D01*
X128610000Y-99390000D02*
X128610000Y-99590000D01*
X128610000Y-102410000D02*
X128610000Y-102610000D01*
X128610000Y-102610000D02*
X125390000Y-102610000D01*
X124860000Y-100020000D02*
X124530000Y-100260000D01*
X124530000Y-99780000D01*
X124860000Y-100020000D01*
G36*
X124860000Y-100020000D02*
G01*
X124530000Y-100260000D01*
X124530000Y-99780000D01*
X124860000Y-100020000D01*
G37*
%TO.C,R2*%
X66846359Y-91120000D02*
X67153641Y-91120000D01*
X66846359Y-91880000D02*
X67153641Y-91880000D01*
%TO.C,RA6*%
X59846359Y-63320000D02*
X60153641Y-63320000D01*
X59846359Y-64080000D02*
X60153641Y-64080000D01*
%TO.C,R23*%
X133646359Y-74420000D02*
X133953641Y-74420000D01*
X133646359Y-75180000D02*
X133953641Y-75180000D01*
%TO.C,CA8*%
X59892164Y-60540000D02*
X60107836Y-60540000D01*
X59892164Y-61260000D02*
X60107836Y-61260000D01*
%TO.C,RB6*%
X59846359Y-106820000D02*
X60153641Y-106820000D01*
X59846359Y-107580000D02*
X60153641Y-107580000D01*
%TO.C,U5*%
X125390000Y-81890000D02*
X128610000Y-81890000D01*
X125390000Y-82090000D02*
X125390000Y-81890000D01*
X125390000Y-85110000D02*
X125390000Y-84910000D01*
X128610000Y-81890000D02*
X128610000Y-82090000D01*
X128610000Y-84910000D02*
X128610000Y-85110000D01*
X128610000Y-85110000D02*
X125390000Y-85110000D01*
X124860000Y-82520000D02*
X124530000Y-82760000D01*
X124530000Y-82280000D01*
X124860000Y-82520000D01*
G36*
X124860000Y-82520000D02*
G01*
X124530000Y-82760000D01*
X124530000Y-82280000D01*
X124860000Y-82520000D01*
G37*
%TO.C,CA9*%
X60592164Y-61940000D02*
X60807836Y-61940000D01*
X60592164Y-62660000D02*
X60807836Y-62660000D01*
%TO.C,CB3*%
X59892164Y-98440000D02*
X60107836Y-98440000D01*
X59892164Y-99160000D02*
X60107836Y-99160000D01*
%TO.C,R34*%
X77346359Y-65620000D02*
X77653641Y-65620000D01*
X77346359Y-66380000D02*
X77653641Y-66380000D01*
%TO.C,Q1*%
X74250000Y-75500000D02*
X74250000Y-75760000D01*
X74250000Y-75760000D02*
X77750000Y-75760000D01*
X74570000Y-72260000D02*
X77750000Y-72260000D01*
X77750000Y-72260000D02*
X77750000Y-72520000D01*
X77750000Y-75500000D02*
X77750000Y-75760000D01*
X74250000Y-72520000D02*
X73770000Y-72520000D01*
X74250000Y-72040000D01*
X74250000Y-72520000D01*
G36*
X74250000Y-72520000D02*
G01*
X73770000Y-72520000D01*
X74250000Y-72040000D01*
X74250000Y-72520000D01*
G37*
%TO.C,CB53*%
X99140000Y-89211252D02*
X99140000Y-87788748D01*
X101860000Y-89211252D02*
X101860000Y-87788748D01*
%TO.C,RA3*%
X59846359Y-57720000D02*
X60153641Y-57720000D01*
X59846359Y-58480000D02*
X60153641Y-58480000D01*
%TO.C,CB61*%
X113140000Y-95711252D02*
X113140000Y-94288748D01*
X115860000Y-95711252D02*
X115860000Y-94288748D01*
%TO.C,QA2*%
X91750000Y-63500000D02*
X91750000Y-63760000D01*
X91750000Y-63760000D02*
X95250000Y-63760000D01*
X92070000Y-60260000D02*
X95250000Y-60260000D01*
X95250000Y-60260000D02*
X95250000Y-60520000D01*
X95250000Y-63500000D02*
X95250000Y-63760000D01*
X91750000Y-60520000D02*
X91270000Y-60520000D01*
X91750000Y-60040000D01*
X91750000Y-60520000D01*
G36*
X91750000Y-60520000D02*
G01*
X91270000Y-60520000D01*
X91750000Y-60040000D01*
X91750000Y-60520000D01*
G37*
%TO.C,CA61*%
X113140000Y-54711252D02*
X113140000Y-53288748D01*
X115860000Y-54711252D02*
X115860000Y-53288748D01*
%TO.C,CA62*%
X117140000Y-54711252D02*
X117140000Y-53288748D01*
X119860000Y-54711252D02*
X119860000Y-53288748D01*
%TO.C,C16*%
X74859420Y-90990000D02*
X75140580Y-90990000D01*
X74859420Y-92010000D02*
X75140580Y-92010000D01*
%TO.C,R18*%
X121846359Y-98120000D02*
X122153641Y-98120000D01*
X121846359Y-98880000D02*
X122153641Y-98880000D01*
%TO.C,D4*%
X135815000Y-91240000D02*
X135815000Y-93160000D01*
X135815000Y-93160000D02*
X138500000Y-93160000D01*
X138500000Y-91240000D02*
X135815000Y-91240000D01*
%TO.C,CB64*%
X117140000Y-101211252D02*
X117140000Y-99788748D01*
X119860000Y-101211252D02*
X119860000Y-99788748D01*
%TO.C,C31*%
X126788748Y-88090000D02*
X128211252Y-88090000D01*
X126788748Y-89910000D02*
X128211252Y-89910000D01*
%TO.C,CA52*%
X94140000Y-69211252D02*
X94140000Y-67788748D01*
X96860000Y-69211252D02*
X96860000Y-67788748D01*
%TO.C,R33*%
X77346359Y-63120000D02*
X77653641Y-63120000D01*
X77346359Y-63880000D02*
X77653641Y-63880000D01*
%TO.C,D2*%
X102240000Y-104350000D02*
X102240000Y-108650000D01*
X102240000Y-104350000D02*
X108050000Y-104350000D01*
X102240000Y-108650000D02*
X108050000Y-108650000D01*
%TO.C,CA51*%
X89140000Y-69211252D02*
X89140000Y-67788748D01*
X91860000Y-69211252D02*
X91860000Y-67788748D01*
%TO.C,QB2*%
X91750000Y-103500000D02*
X91750000Y-103760000D01*
X91750000Y-103760000D02*
X95250000Y-103760000D01*
X92070000Y-100260000D02*
X95250000Y-100260000D01*
X95250000Y-100260000D02*
X95250000Y-100520000D01*
X95250000Y-103500000D02*
X95250000Y-103760000D01*
X91750000Y-100520000D02*
X91270000Y-100520000D01*
X91750000Y-100040000D01*
X91750000Y-100520000D01*
G36*
X91750000Y-100520000D02*
G01*
X91270000Y-100520000D01*
X91750000Y-100040000D01*
X91750000Y-100520000D01*
G37*
%TO.C,CB51*%
X89140000Y-89211252D02*
X89140000Y-87788748D01*
X91860000Y-89211252D02*
X91860000Y-87788748D01*
%TO.C,QA1*%
X91750000Y-56500000D02*
X91750000Y-56760000D01*
X91750000Y-56760000D02*
X95250000Y-56760000D01*
X92070000Y-53260000D02*
X95250000Y-53260000D01*
X95250000Y-53260000D02*
X95250000Y-53520000D01*
X95250000Y-56500000D02*
X95250000Y-56760000D01*
X91750000Y-53520000D02*
X91270000Y-53520000D01*
X91750000Y-53040000D01*
X91750000Y-53520000D01*
G36*
X91750000Y-53520000D02*
G01*
X91270000Y-53520000D01*
X91750000Y-53040000D01*
X91750000Y-53520000D01*
G37*
%TO.C,C34*%
X123188748Y-57490000D02*
X124611252Y-57490000D01*
X123188748Y-59310000D02*
X124611252Y-59310000D01*
%TO.C,CE1*%
X82500000Y-73990000D02*
X83500000Y-73990000D01*
X83000000Y-73490000D02*
X83000000Y-74490000D01*
X83740000Y-73304437D02*
X83740000Y-74990000D01*
X83740000Y-73304437D02*
X84804437Y-72240000D01*
X83740000Y-79695563D02*
X83740000Y-78010000D01*
X83740000Y-79695563D02*
X84804437Y-80760000D01*
X84804437Y-72240000D02*
X92260000Y-72240000D01*
X84804437Y-80760000D02*
X92260000Y-80760000D01*
X92260000Y-72240000D02*
X92260000Y-74990000D01*
X92260000Y-80760000D02*
X92260000Y-78010000D01*
%TO.C,RA1*%
X59846359Y-52120000D02*
X60153641Y-52120000D01*
X59846359Y-52880000D02*
X60153641Y-52880000D01*
%TO.C,J4*%
X136480000Y-96600000D02*
X135725000Y-96600000D01*
X136480000Y-96600000D02*
X136480000Y-105400000D01*
X139650000Y-94855000D02*
X140700000Y-94855000D01*
X139650000Y-107145000D02*
X140700000Y-107145000D01*
%TO.C,CA10*%
X72392164Y-60540000D02*
X72607836Y-60540000D01*
X72392164Y-61260000D02*
X72607836Y-61260000D01*
%TO.C,CA63*%
X113140000Y-60711252D02*
X113140000Y-59288748D01*
X115860000Y-60711252D02*
X115860000Y-59288748D01*
%TO.C,CA1*%
X60592164Y-53540000D02*
X60807836Y-53540000D01*
X60592164Y-54260000D02*
X60807836Y-54260000D01*
%TO.C,D5*%
X135815000Y-73840000D02*
X135815000Y-75760000D01*
X135815000Y-75760000D02*
X138500000Y-75760000D01*
X138500000Y-73840000D02*
X135815000Y-73840000D01*
%TO.C,LB1*%
X97140000Y-92890000D02*
X108860000Y-92890000D01*
X97140000Y-95690000D02*
X97140000Y-92890000D01*
X97140000Y-103110000D02*
X97140000Y-100310000D01*
X108860000Y-92890000D02*
X108860000Y-95690000D01*
X108860000Y-100310000D02*
X108860000Y-103110000D01*
X108860000Y-103110000D02*
X97140000Y-103110000D01*
%TO.C,C20*%
X121092164Y-65040000D02*
X121307836Y-65040000D01*
X121092164Y-65760000D02*
X121307836Y-65760000D01*
%TO.C,R1*%
X62846359Y-91120000D02*
X63153641Y-91120000D01*
X62846359Y-91880000D02*
X63153641Y-91880000D01*
%TO.C,LA1*%
X97140000Y-52890000D02*
X108860000Y-52890000D01*
X97140000Y-55690000D02*
X97140000Y-52890000D01*
X97140000Y-63110000D02*
X97140000Y-60310000D01*
X108860000Y-52890000D02*
X108860000Y-55690000D01*
X108860000Y-60310000D02*
X108860000Y-63110000D01*
X108860000Y-63110000D02*
X97140000Y-63110000D01*
%TO.C,CA53*%
X99140000Y-69211252D02*
X99140000Y-67788748D01*
X101860000Y-69211252D02*
X101860000Y-67788748D01*
%TO.C,CB52*%
X94140000Y-89211252D02*
X94140000Y-87788748D01*
X96860000Y-89211252D02*
X96860000Y-87788748D01*
%TO.C,J3*%
X136480000Y-79100000D02*
X135725000Y-79100000D01*
X136480000Y-79100000D02*
X136480000Y-87900000D01*
X139650000Y-77355000D02*
X140700000Y-77355000D01*
X139650000Y-89645000D02*
X140700000Y-89645000D01*
%TO.C,R21*%
X77346359Y-60620000D02*
X77653641Y-60620000D01*
X77346359Y-61380000D02*
X77653641Y-61380000D01*
%TO.C,RA4*%
X60546359Y-59120000D02*
X60853641Y-59120000D01*
X60546359Y-59880000D02*
X60853641Y-59880000D01*
%TO.C,R16*%
X121846359Y-63120000D02*
X122153641Y-63120000D01*
X121846359Y-63880000D02*
X122153641Y-63880000D01*
%TO.C,J1*%
X59560000Y-77690000D02*
X59560000Y-73950000D01*
X55450000Y-68540000D02*
G75*
G02*
X59380413Y-71448352I0J-4110000D01*
G01*
X58972958Y-82266806D02*
G75*
G02*
X55450000Y-84260000I-3522957J2116805D01*
G01*
%TO.C,CB7*%
X112562500Y-86852500D02*
X113350000Y-86852500D01*
X112956250Y-86458750D02*
X112956250Y-87246250D01*
X113590000Y-86354437D02*
X113590000Y-87640000D01*
X113590000Y-86354437D02*
X114654437Y-85290000D01*
X113590000Y-91045563D02*
X113590000Y-89760000D01*
X113590000Y-91045563D02*
X114654437Y-92110000D01*
X114654437Y-85290000D02*
X120410000Y-85290000D01*
X114654437Y-92110000D02*
X120410000Y-92110000D01*
X120410000Y-85290000D02*
X120410000Y-87640000D01*
X120410000Y-92110000D02*
X120410000Y-89760000D01*
%TO.C,J2*%
X136480000Y-61600000D02*
X135725000Y-61600000D01*
X136480000Y-61600000D02*
X136480000Y-70400000D01*
X139650000Y-59855000D02*
X140700000Y-59855000D01*
X139650000Y-72145000D02*
X140700000Y-72145000D01*
%TO.C,J5*%
X129330000Y-53300000D02*
X129330000Y-55000000D01*
X138670000Y-53300000D02*
X138670000Y-55000000D01*
%TO.C,C22*%
X121892164Y-100640000D02*
X122107836Y-100640000D01*
X121892164Y-101360000D02*
X122107836Y-101360000D01*
%TO.C,R4*%
X77346359Y-52120000D02*
X77653641Y-52120000D01*
X77346359Y-52880000D02*
X77653641Y-52880000D01*
%TO.C,RB4*%
X64346359Y-101220000D02*
X64653641Y-101220000D01*
X64346359Y-101980000D02*
X64653641Y-101980000D01*
%TO.C,CA4*%
X72392164Y-54940000D02*
X72607836Y-54940000D01*
X72392164Y-55660000D02*
X72607836Y-55660000D01*
%TO.C,R20*%
X124346359Y-62620000D02*
X124653641Y-62620000D01*
X124346359Y-63380000D02*
X124653641Y-63380000D01*
%TO.C,RA2*%
X60546359Y-56320000D02*
X60853641Y-56320000D01*
X60546359Y-57080000D02*
X60853641Y-57080000D01*
%TO.C,C21*%
X121892164Y-83140000D02*
X122107836Y-83140000D01*
X121892164Y-83860000D02*
X122107836Y-83860000D01*
%TO.C,CA7*%
X108590000Y-64890000D02*
X108590000Y-67240000D01*
X108590000Y-71710000D02*
X108590000Y-69360000D01*
X114345563Y-64890000D02*
X108590000Y-64890000D01*
X114345563Y-71710000D02*
X108590000Y-71710000D01*
X115410000Y-65954437D02*
X114345563Y-64890000D01*
X115410000Y-65954437D02*
X115410000Y-67240000D01*
X115410000Y-70645563D02*
X114345563Y-71710000D01*
X115410000Y-70645563D02*
X115410000Y-69360000D01*
X116043750Y-70541250D02*
X116043750Y-69753750D01*
X116437500Y-70147500D02*
X115650000Y-70147500D01*
%TO.C,CB2*%
X68859420Y-95490000D02*
X69140580Y-95490000D01*
X68859420Y-96510000D02*
X69140580Y-96510000D01*
%TO.C,R3*%
X70846359Y-91120000D02*
X71153641Y-91120000D01*
X70846359Y-91880000D02*
X71153641Y-91880000D01*
%TO.C,RB2*%
X64346359Y-98420000D02*
X64653641Y-98420000D01*
X64346359Y-99180000D02*
X64653641Y-99180000D01*
%TO.C,C2*%
X81640000Y-83107836D02*
X81640000Y-82892164D01*
X82360000Y-83107836D02*
X82360000Y-82892164D01*
%TO.C,U1*%
D12*
X66000000Y-77750000D02*
G75*
G02*
X65800000Y-77750000I-100000J0D01*
G01*
X65800000Y-77750000D02*
G75*
G02*
X66000000Y-77750000I100000J0D01*
G01*
%TD*%
%LPC*%
D13*
%TO.C,CB1*%
X64020000Y-96000000D03*
X64980000Y-96000000D03*
%TD*%
%TO.C,CB9*%
X64020000Y-104400000D03*
X64980000Y-104400000D03*
%TD*%
D14*
%TO.C,CA2*%
X72225000Y-52500000D03*
X73775000Y-52500000D03*
%TD*%
D15*
%TO.C,QB1*%
X92060000Y-94030000D03*
X92060000Y-94670000D03*
X92060000Y-95330000D03*
X92060000Y-95970000D03*
D16*
X93885000Y-95000000D03*
%TD*%
D17*
%TO.C,D1*%
X52750000Y-94500000D03*
X57050000Y-94500000D03*
%TD*%
D18*
%TO.C,C30*%
X126025000Y-71500000D03*
X128975000Y-71500000D03*
%TD*%
D19*
%TO.C,C1*%
X81500000Y-78680000D03*
X81500000Y-77720000D03*
%TD*%
D20*
%TO.C,R17*%
X121490000Y-81000000D03*
X122510000Y-81000000D03*
%TD*%
D21*
%TO.C,CB62*%
X118500000Y-96475000D03*
X118500000Y-93525000D03*
%TD*%
D20*
%TO.C,RB1*%
X59490000Y-96000000D03*
X60510000Y-96000000D03*
%TD*%
D22*
%TO.C,F1*%
X67250000Y-59600000D03*
D23*
X66000000Y-66000000D03*
X68500000Y-66000000D03*
X66000000Y-62500000D03*
X68500000Y-62500000D03*
X66000000Y-56700000D03*
X68500000Y-56700000D03*
X66000000Y-53200000D03*
X68500000Y-53200000D03*
%TD*%
D13*
%TO.C,CB8*%
X59520000Y-104400000D03*
X60480000Y-104400000D03*
%TD*%
%TO.C,C15*%
X55520000Y-99000000D03*
X56480000Y-99000000D03*
%TD*%
D20*
%TO.C,R5*%
X76990000Y-55000000D03*
X78010000Y-55000000D03*
%TD*%
D18*
%TO.C,C33*%
X118525000Y-67500000D03*
X121475000Y-67500000D03*
%TD*%
D24*
%TO.C,U3*%
X84250000Y-99850000D03*
D25*
X83650000Y-99750000D03*
X83650000Y-99250000D03*
X83650000Y-98750000D03*
X83650000Y-98250000D03*
X83650000Y-97750000D03*
X83650000Y-97250000D03*
X83650000Y-96750000D03*
X83650000Y-96250000D03*
D24*
X84250000Y-96150000D03*
X85750000Y-96150000D03*
D25*
X86350000Y-96250000D03*
X86350000Y-96750000D03*
X86350000Y-97250000D03*
X86350000Y-97750000D03*
X86350000Y-98250000D03*
X86350000Y-98750000D03*
X86350000Y-99250000D03*
X86350000Y-99750000D03*
D24*
X85750000Y-99850000D03*
D26*
X85000000Y-98000000D03*
%TD*%
D15*
%TO.C,Q2*%
X74560000Y-83030000D03*
X74560000Y-83670000D03*
X74560000Y-84330000D03*
X74560000Y-84970000D03*
D16*
X76385000Y-84000000D03*
%TD*%
D20*
%TO.C,RB5*%
X68490000Y-101600000D03*
X69510000Y-101600000D03*
%TD*%
D24*
%TO.C,U2*%
X84250000Y-59850000D03*
D25*
X83650000Y-59750000D03*
X83650000Y-59250000D03*
X83650000Y-58750000D03*
X83650000Y-58250000D03*
X83650000Y-57750000D03*
X83650000Y-57250000D03*
X83650000Y-56750000D03*
X83650000Y-56250000D03*
D24*
X84250000Y-56150000D03*
X85750000Y-56150000D03*
D25*
X86350000Y-56250000D03*
X86350000Y-56750000D03*
X86350000Y-57250000D03*
X86350000Y-57750000D03*
X86350000Y-58250000D03*
X86350000Y-58750000D03*
X86350000Y-59250000D03*
X86350000Y-59750000D03*
D24*
X85750000Y-59850000D03*
D26*
X85000000Y-58000000D03*
%TD*%
D20*
%TO.C,R19*%
X123990000Y-60500000D03*
X125010000Y-60500000D03*
%TD*%
D27*
%TO.C,H4*%
X113000000Y-106500000D03*
%TD*%
D19*
%TO.C,C3*%
X82000000Y-88480000D03*
X82000000Y-87520000D03*
%TD*%
D21*
%TO.C,CB63*%
X114500000Y-101975000D03*
X114500000Y-99025000D03*
%TD*%
D18*
%TO.C,C32*%
X126025000Y-106500000D03*
X128975000Y-106500000D03*
%TD*%
D13*
%TO.C,CB10*%
X68520000Y-104400000D03*
X69480000Y-104400000D03*
%TD*%
D20*
%TO.C,R22*%
X133290000Y-92200000D03*
X134310000Y-92200000D03*
%TD*%
D13*
%TO.C,CB4*%
X68520000Y-98800000D03*
X69480000Y-98800000D03*
%TD*%
D20*
%TO.C,RA5*%
X71990000Y-58100000D03*
X73010000Y-58100000D03*
%TD*%
D21*
%TO.C,CA64*%
X118500000Y-61475000D03*
X118500000Y-58525000D03*
%TD*%
D28*
%TO.C,U4*%
X125550000Y-65025000D03*
X125550000Y-65675000D03*
X125550000Y-66325000D03*
X125550000Y-66975000D03*
X128450000Y-66975000D03*
X128450000Y-66325000D03*
X128450000Y-65675000D03*
X128450000Y-65025000D03*
D29*
X127000000Y-66000000D03*
%TD*%
D17*
%TO.C,D3*%
X116950000Y-74600000D03*
X121250000Y-74600000D03*
%TD*%
D20*
%TO.C,RB3*%
X59490000Y-101600000D03*
X60510000Y-101600000D03*
%TD*%
D13*
%TO.C,CA3*%
X59520000Y-55300000D03*
X60480000Y-55300000D03*
%TD*%
D27*
%TO.C,H3*%
X146000000Y-55000000D03*
%TD*%
D28*
%TO.C,U6*%
X125550000Y-100025000D03*
X125550000Y-100675000D03*
X125550000Y-101325000D03*
X125550000Y-101975000D03*
X128450000Y-101975000D03*
X128450000Y-101325000D03*
X128450000Y-100675000D03*
X128450000Y-100025000D03*
D29*
X127000000Y-101000000D03*
%TD*%
D20*
%TO.C,R2*%
X66490000Y-91500000D03*
X67510000Y-91500000D03*
%TD*%
%TO.C,RA6*%
X59490000Y-63700000D03*
X60510000Y-63700000D03*
%TD*%
%TO.C,R23*%
X133290000Y-74800000D03*
X134310000Y-74800000D03*
%TD*%
D13*
%TO.C,CA8*%
X59520000Y-60900000D03*
X60480000Y-60900000D03*
%TD*%
D20*
%TO.C,RB6*%
X59490000Y-107200000D03*
X60510000Y-107200000D03*
%TD*%
D28*
%TO.C,U5*%
X125550000Y-82525000D03*
X125550000Y-83175000D03*
X125550000Y-83825000D03*
X125550000Y-84475000D03*
X128450000Y-84475000D03*
X128450000Y-83825000D03*
X128450000Y-83175000D03*
X128450000Y-82525000D03*
D29*
X127000000Y-83500000D03*
%TD*%
D13*
%TO.C,CA9*%
X60220000Y-62300000D03*
X61180000Y-62300000D03*
%TD*%
%TO.C,CB3*%
X59520000Y-98800000D03*
X60480000Y-98800000D03*
%TD*%
D20*
%TO.C,R34*%
X76990000Y-66000000D03*
X78010000Y-66000000D03*
%TD*%
D15*
%TO.C,Q1*%
X74560000Y-73030000D03*
X74560000Y-73670000D03*
X74560000Y-74330000D03*
X74560000Y-74970000D03*
D16*
X76385000Y-74000000D03*
%TD*%
D21*
%TO.C,CB53*%
X100500000Y-89975000D03*
X100500000Y-87025000D03*
%TD*%
D20*
%TO.C,RA3*%
X59490000Y-58100000D03*
X60510000Y-58100000D03*
%TD*%
D21*
%TO.C,CB61*%
X114500000Y-96475000D03*
X114500000Y-93525000D03*
%TD*%
D15*
%TO.C,QA2*%
X92060000Y-61030000D03*
X92060000Y-61670000D03*
X92060000Y-62330000D03*
X92060000Y-62970000D03*
D16*
X93885000Y-62000000D03*
%TD*%
D21*
%TO.C,CA61*%
X114500000Y-55475000D03*
X114500000Y-52525000D03*
%TD*%
%TO.C,CA62*%
X118500000Y-55475000D03*
X118500000Y-52525000D03*
%TD*%
D14*
%TO.C,C16*%
X74225000Y-91500000D03*
X75775000Y-91500000D03*
%TD*%
D20*
%TO.C,R18*%
X121490000Y-98500000D03*
X122510000Y-98500000D03*
%TD*%
D30*
%TO.C,D4*%
X136562500Y-92200000D03*
X138437500Y-92200000D03*
%TD*%
D21*
%TO.C,CB64*%
X118500000Y-101975000D03*
X118500000Y-99025000D03*
%TD*%
D18*
%TO.C,C31*%
X126025000Y-89000000D03*
X128975000Y-89000000D03*
%TD*%
D21*
%TO.C,CA52*%
X95500000Y-69975000D03*
X95500000Y-67025000D03*
%TD*%
D20*
%TO.C,R33*%
X76990000Y-63500000D03*
X78010000Y-63500000D03*
%TD*%
D17*
%TO.C,D2*%
X103750000Y-106500000D03*
X108050000Y-106500000D03*
%TD*%
D21*
%TO.C,CA51*%
X90500000Y-69975000D03*
X90500000Y-67025000D03*
%TD*%
D15*
%TO.C,QB2*%
X92060000Y-101030000D03*
X92060000Y-101670000D03*
X92060000Y-102330000D03*
X92060000Y-102970000D03*
D16*
X93885000Y-102000000D03*
%TD*%
D21*
%TO.C,CB51*%
X90500000Y-89975000D03*
X90500000Y-87025000D03*
%TD*%
D15*
%TO.C,QA1*%
X92060000Y-54030000D03*
X92060000Y-54670000D03*
X92060000Y-55330000D03*
X92060000Y-55970000D03*
D16*
X93885000Y-55000000D03*
%TD*%
D18*
%TO.C,C34*%
X122425000Y-58400000D03*
X125375000Y-58400000D03*
%TD*%
D31*
%TO.C,CE1*%
X84750000Y-76500000D03*
X91250000Y-76500000D03*
%TD*%
D27*
%TO.C,H1*%
X55000000Y-55000000D03*
%TD*%
D20*
%TO.C,RA1*%
X59490000Y-52500000D03*
X60510000Y-52500000D03*
%TD*%
D32*
%TO.C,J4*%
X137600000Y-98700000D03*
X137600000Y-103300000D03*
D33*
X134850000Y-97500000D03*
X134850000Y-100000000D03*
X134850000Y-102000000D03*
X134850000Y-104500000D03*
D34*
X137600000Y-95300000D03*
X137600000Y-106700000D03*
%TD*%
D13*
%TO.C,CA10*%
X72020000Y-60900000D03*
X72980000Y-60900000D03*
%TD*%
D21*
%TO.C,CA63*%
X114500000Y-61475000D03*
X114500000Y-58525000D03*
%TD*%
D13*
%TO.C,CA1*%
X60220000Y-53900000D03*
X61180000Y-53900000D03*
%TD*%
D30*
%TO.C,D5*%
X136562500Y-74800000D03*
X138437500Y-74800000D03*
%TD*%
D35*
%TO.C,LB1*%
X98250000Y-98000000D03*
X107750000Y-98000000D03*
%TD*%
D13*
%TO.C,C20*%
X120720000Y-65400000D03*
X121680000Y-65400000D03*
%TD*%
D20*
%TO.C,R1*%
X62490000Y-91500000D03*
X63510000Y-91500000D03*
%TD*%
D27*
%TO.C,H2*%
X55000000Y-105000000D03*
%TD*%
D35*
%TO.C,LA1*%
X98250000Y-58000000D03*
X107750000Y-58000000D03*
%TD*%
D21*
%TO.C,CA53*%
X100500000Y-69975000D03*
X100500000Y-67025000D03*
%TD*%
%TO.C,CB52*%
X95500000Y-89975000D03*
X95500000Y-87025000D03*
%TD*%
D32*
%TO.C,J3*%
X137600000Y-81200000D03*
X137600000Y-85800000D03*
D33*
X134850000Y-80000000D03*
X134850000Y-82500000D03*
X134850000Y-84500000D03*
X134850000Y-87000000D03*
D34*
X137600000Y-77800000D03*
X137600000Y-89200000D03*
%TD*%
D20*
%TO.C,R21*%
X76990000Y-61000000D03*
X78010000Y-61000000D03*
%TD*%
%TO.C,RA4*%
X60190000Y-59500000D03*
X61210000Y-59500000D03*
%TD*%
%TO.C,R16*%
X121490000Y-63500000D03*
X122510000Y-63500000D03*
%TD*%
D36*
%TO.C,J1*%
X51600000Y-83150000D03*
X51600000Y-69650000D03*
D37*
X57600000Y-80000000D03*
D38*
X57600000Y-72800000D03*
%TD*%
D39*
%TO.C,CB7*%
X114200000Y-88700000D03*
X119800000Y-88700000D03*
%TD*%
D32*
%TO.C,J2*%
X137600000Y-63700000D03*
X137600000Y-68300000D03*
D33*
X134850000Y-62500000D03*
X134850000Y-65000000D03*
X134850000Y-67000000D03*
X134850000Y-69500000D03*
D34*
X137600000Y-60300000D03*
X137600000Y-71700000D03*
%TD*%
D40*
%TO.C,J5*%
X136890000Y-55805000D03*
X131110000Y-55805000D03*
D41*
X137200000Y-56880000D03*
X136400000Y-56880000D03*
D42*
X135250000Y-56880000D03*
X134250000Y-56880000D03*
X133750000Y-56880000D03*
X132750000Y-56880000D03*
D41*
X131600000Y-56880000D03*
X130800000Y-56880000D03*
X130800000Y-56880000D03*
X131600000Y-56880000D03*
D42*
X132250000Y-56880000D03*
X133250000Y-56880000D03*
X134750000Y-56880000D03*
X135750000Y-56880000D03*
D41*
X136400000Y-56880000D03*
X137200000Y-56880000D03*
D43*
X138320000Y-56305000D03*
D44*
X138320000Y-52125000D03*
D43*
X129680000Y-56305000D03*
D44*
X129680000Y-52125000D03*
%TD*%
D13*
%TO.C,C22*%
X121520000Y-101000000D03*
X122480000Y-101000000D03*
%TD*%
D20*
%TO.C,R4*%
X76990000Y-52500000D03*
X78010000Y-52500000D03*
%TD*%
%TO.C,RB4*%
X63990000Y-101600000D03*
X65010000Y-101600000D03*
%TD*%
D13*
%TO.C,CA4*%
X72020000Y-55300000D03*
X72980000Y-55300000D03*
%TD*%
D20*
%TO.C,R20*%
X123990000Y-63000000D03*
X125010000Y-63000000D03*
%TD*%
%TO.C,RA2*%
X60190000Y-56700000D03*
X61210000Y-56700000D03*
%TD*%
D13*
%TO.C,C21*%
X121520000Y-83500000D03*
X122480000Y-83500000D03*
%TD*%
D45*
%TO.C,CA7*%
X114800000Y-68300000D03*
X109200000Y-68300000D03*
%TD*%
D14*
%TO.C,CB2*%
X68225000Y-96000000D03*
X69775000Y-96000000D03*
%TD*%
D20*
%TO.C,R3*%
X70490000Y-91500000D03*
X71510000Y-91500000D03*
%TD*%
%TO.C,RB2*%
X63990000Y-98800000D03*
X65010000Y-98800000D03*
%TD*%
D19*
%TO.C,C2*%
X82000000Y-83480000D03*
X82000000Y-82520000D03*
%TD*%
D46*
%TO.C,U1*%
X66610000Y-77750000D03*
X66610000Y-78250000D03*
X66610000Y-78750000D03*
X66610000Y-79250000D03*
X66610000Y-79750000D03*
X66610000Y-80250000D03*
X69390000Y-80250000D03*
X69390000Y-79750000D03*
X69390000Y-79250000D03*
X69390000Y-78750000D03*
X69390000Y-78250000D03*
X69390000Y-77750000D03*
D47*
X68000000Y-79000000D03*
%TD*%
%LPD*%
M02*
