%TF.GenerationSoftware,KiCad,Pcbnew,10.0.4-10.0.4~ubuntu24.04.1*%
%TF.CreationDate,2026-07-16T10:07:51-07:00*%
%TF.ProjectId,usb_power_3s,7573625f-706f-4776-9572-5f33732e6b69,rev?*%
%TF.SameCoordinates,Original*%
%TF.FileFunction,Paste,Top*%
%TF.FilePolarity,Positive*%
%FSLAX46Y46*%
G04 Gerber Fmt 4.6, Leading zero omitted, Abs format (unit mm)*
G04 Created by KiCad (PCBNEW 10.0.4-10.0.4~ubuntu24.04.1) date 2026-07-16 10:07:51*
%MOMM*%
%LPD*%
G01*
G04 APERTURE LIST*
G04 Aperture macros list*
%AMRoundRect*
0 Rectangle with rounded corners*
0 $1 Rounding radius*
0 $2 $3 $4 $5 $6 $7 $8 $9 X,Y pos of 4 corners*
0 Add a 4 corners polygon primitive as box body*
4,1,4,$2,$3,$4,$5,$6,$7,$8,$9,$2,$3,0*
0 Add four circle primitives for the rounded corners*
1,1,$1+$1,$2,$3*
1,1,$1+$1,$4,$5*
1,1,$1+$1,$6,$7*
1,1,$1+$1,$8,$9*
0 Add four rect primitives between the rounded corners*
20,1,$1+$1,$2,$3,$4,$5,0*
20,1,$1+$1,$4,$5,$6,$7,0*
20,1,$1+$1,$6,$7,$8,$9,0*
20,1,$1+$1,$8,$9,$2,$3,0*%
G04 Aperture macros list end*
%ADD10RoundRect,0.140000X-0.140000X-0.170000X0.140000X-0.170000X0.140000X0.170000X-0.140000X0.170000X0*%
%ADD11RoundRect,0.225000X-0.225000X-0.250000X0.225000X-0.250000X0.225000X0.250000X-0.225000X0.250000X0*%
%ADD12R,0.570000X0.738000*%
%ADD13RoundRect,0.125000X-0.190000X-0.125000X0.190000X-0.125000X0.190000X0.125000X-0.190000X0.125000X0*%
%ADD14RoundRect,0.250000X-1.000000X-0.900000X1.000000X-0.900000X1.000000X0.900000X-1.000000X0.900000X0*%
%ADD15RoundRect,0.250000X-0.325000X-0.650000X0.325000X-0.650000X0.325000X0.650000X-0.325000X0.650000X0*%
%ADD16RoundRect,0.140000X0.170000X-0.140000X0.170000X0.140000X-0.170000X0.140000X-0.170000X-0.140000X0*%
%ADD17RoundRect,0.135000X-0.135000X-0.185000X0.135000X-0.185000X0.135000X0.185000X-0.135000X0.185000X0*%
%ADD18RoundRect,0.250000X1.100000X-0.325000X1.100000X0.325000X-1.100000X0.325000X-1.100000X-0.325000X0*%
%ADD19RoundRect,0.062500X-0.062500X-0.237500X0.062500X-0.237500X0.062500X0.237500X-0.062500X0.237500X0*%
%ADD20RoundRect,0.062500X-0.237500X-0.062500X0.237500X-0.062500X0.237500X0.062500X-0.237500X0.062500X0*%
%ADD21R,1.530000X2.430000*%
%ADD22RoundRect,0.242500X-0.422500X-0.242500X0.422500X-0.242500X0.422500X0.242500X-0.422500X0.242500X0*%
%ADD23RoundRect,0.087500X-0.337500X-0.087500X0.337500X-0.087500X0.337500X0.087500X-0.337500X0.087500X0*%
%ADD24RoundRect,0.243750X-0.243750X-0.456250X0.243750X-0.456250X0.243750X0.456250X-0.243750X0.456250X0*%
%ADD25RoundRect,0.250000X-1.500000X-1.000000X1.500000X-1.000000X1.500000X1.000000X-1.500000X1.000000X0*%
%ADD26RoundRect,0.250000X-1.000000X-0.300000X1.000000X-0.300000X1.000000X0.300000X-1.000000X0.300000X0*%
%ADD27RoundRect,0.250002X-1.799998X-1.799998X1.799998X-1.799998X1.799998X1.799998X-1.799998X1.799998X0*%
%ADD28RoundRect,0.250000X-1.500000X-0.550000X1.500000X-0.550000X1.500000X0.550000X-1.500000X0.550000X0*%
%ADD29RoundRect,0.150000X0.150000X0.425000X-0.150000X0.425000X-0.150000X-0.425000X0.150000X-0.425000X0*%
%ADD30RoundRect,0.075000X0.075000X0.500000X-0.075000X0.500000X-0.075000X-0.500000X0.075000X-0.500000X0*%
%ADD31O,1.000000X2.100000*%
%ADD32O,1.000000X1.800000*%
%ADD33RoundRect,0.250000X1.500000X0.550000X-1.500000X0.550000X-1.500000X-0.550000X1.500000X-0.550000X0*%
%ADD34RoundRect,0.050000X-0.260000X-0.075000X0.260000X-0.075000X0.260000X0.075000X-0.260000X0.075000X0*%
%ADD35R,1.170000X2.250000*%
%ADD36O,0.600000X1.700000*%
%ADD37O,0.600000X1.400000*%
G04 APERTURE END LIST*
D10*
%TO.C,CB1*%
X64020000Y-96000000D03*
X64980000Y-96000000D03*
%TD*%
%TO.C,CB9*%
X64020000Y-104400000D03*
X64980000Y-104400000D03*
%TD*%
D11*
%TO.C,CA2*%
X72225000Y-52500000D03*
X73775000Y-52500000D03*
%TD*%
D12*
%TO.C,QB1*%
X93410000Y-94390000D03*
X93410000Y-95610000D03*
X94360000Y-94390000D03*
X94360000Y-95610000D03*
D13*
X94940000Y-94027500D03*
X94940000Y-94670000D03*
X94940000Y-95330000D03*
X94940000Y-95972500D03*
X92060000Y-94030000D03*
X92060000Y-94670000D03*
X92060000Y-95330000D03*
X92060000Y-95970000D03*
%TD*%
D14*
%TO.C,D1*%
X52750000Y-94500000D03*
X57050000Y-94500000D03*
%TD*%
D15*
%TO.C,C30*%
X126025000Y-71500000D03*
X128975000Y-71500000D03*
%TD*%
D16*
%TO.C,C1*%
X81500000Y-78680000D03*
X81500000Y-77720000D03*
%TD*%
D17*
%TO.C,R17*%
X121490000Y-81000000D03*
X122510000Y-81000000D03*
%TD*%
D18*
%TO.C,CB62*%
X118500000Y-96475000D03*
X118500000Y-93525000D03*
%TD*%
D17*
%TO.C,RB1*%
X59490000Y-96000000D03*
X60510000Y-96000000D03*
%TD*%
D10*
%TO.C,CB8*%
X59520000Y-104400000D03*
X60480000Y-104400000D03*
%TD*%
%TO.C,C15*%
X55520000Y-99000000D03*
X56480000Y-99000000D03*
%TD*%
D17*
%TO.C,R5*%
X76990000Y-55000000D03*
X78010000Y-55000000D03*
%TD*%
D15*
%TO.C,C33*%
X118525000Y-67500000D03*
X121475000Y-67500000D03*
%TD*%
D19*
%TO.C,U3*%
X84250000Y-99850000D03*
D20*
X83650000Y-99750000D03*
X83650000Y-99250000D03*
X83650000Y-98750000D03*
X83650000Y-98250000D03*
X83650000Y-97750000D03*
X83650000Y-97250000D03*
X83650000Y-96750000D03*
X83650000Y-96250000D03*
D19*
X84250000Y-96150000D03*
X85750000Y-96150000D03*
D20*
X86350000Y-96250000D03*
X86350000Y-96750000D03*
X86350000Y-97250000D03*
X86350000Y-97750000D03*
X86350000Y-98250000D03*
X86350000Y-98750000D03*
X86350000Y-99250000D03*
X86350000Y-99750000D03*
D19*
X85750000Y-99850000D03*
D21*
X85000000Y-98000000D03*
%TD*%
D12*
%TO.C,Q2*%
X75910000Y-83390000D03*
X75910000Y-84610000D03*
X76860000Y-83390000D03*
X76860000Y-84610000D03*
D13*
X77440000Y-83027500D03*
X77440000Y-83670000D03*
X77440000Y-84330000D03*
X77440000Y-84972500D03*
X74560000Y-83030000D03*
X74560000Y-83670000D03*
X74560000Y-84330000D03*
X74560000Y-84970000D03*
%TD*%
D17*
%TO.C,RB5*%
X68490000Y-101600000D03*
X69510000Y-101600000D03*
%TD*%
D19*
%TO.C,U2*%
X84250000Y-59850000D03*
D20*
X83650000Y-59750000D03*
X83650000Y-59250000D03*
X83650000Y-58750000D03*
X83650000Y-58250000D03*
X83650000Y-57750000D03*
X83650000Y-57250000D03*
X83650000Y-56750000D03*
X83650000Y-56250000D03*
D19*
X84250000Y-56150000D03*
X85750000Y-56150000D03*
D20*
X86350000Y-56250000D03*
X86350000Y-56750000D03*
X86350000Y-57250000D03*
X86350000Y-57750000D03*
X86350000Y-58250000D03*
X86350000Y-58750000D03*
X86350000Y-59250000D03*
X86350000Y-59750000D03*
D19*
X85750000Y-59850000D03*
D21*
X85000000Y-58000000D03*
%TD*%
D17*
%TO.C,R19*%
X123990000Y-60500000D03*
X125010000Y-60500000D03*
%TD*%
D16*
%TO.C,C3*%
X82000000Y-88480000D03*
X82000000Y-87520000D03*
%TD*%
D18*
%TO.C,CB63*%
X114500000Y-101975000D03*
X114500000Y-99025000D03*
%TD*%
D15*
%TO.C,C32*%
X126025000Y-106500000D03*
X128975000Y-106500000D03*
%TD*%
D10*
%TO.C,CB10*%
X68520000Y-104400000D03*
X69480000Y-104400000D03*
%TD*%
D17*
%TO.C,R22*%
X133290000Y-92200000D03*
X134310000Y-92200000D03*
%TD*%
D10*
%TO.C,CB4*%
X68520000Y-98800000D03*
X69480000Y-98800000D03*
%TD*%
D17*
%TO.C,RA5*%
X71990000Y-58100000D03*
X73010000Y-58100000D03*
%TD*%
D18*
%TO.C,CA64*%
X118500000Y-61475000D03*
X118500000Y-58525000D03*
%TD*%
D22*
%TO.C,U4*%
X127000000Y-65400000D03*
X127000000Y-66600000D03*
D23*
X125550000Y-65025000D03*
X125550000Y-65675000D03*
X125550000Y-66325000D03*
X125550000Y-66975000D03*
X128450000Y-66975000D03*
X128450000Y-66325000D03*
X128450000Y-65675000D03*
X128450000Y-65025000D03*
%TD*%
D14*
%TO.C,D3*%
X116950000Y-74600000D03*
X121250000Y-74600000D03*
%TD*%
D17*
%TO.C,RB3*%
X59490000Y-101600000D03*
X60510000Y-101600000D03*
%TD*%
D10*
%TO.C,CA3*%
X59520000Y-55300000D03*
X60480000Y-55300000D03*
%TD*%
D22*
%TO.C,U6*%
X127000000Y-100400000D03*
X127000000Y-101600000D03*
D23*
X125550000Y-100025000D03*
X125550000Y-100675000D03*
X125550000Y-101325000D03*
X125550000Y-101975000D03*
X128450000Y-101975000D03*
X128450000Y-101325000D03*
X128450000Y-100675000D03*
X128450000Y-100025000D03*
%TD*%
D17*
%TO.C,R2*%
X66490000Y-91500000D03*
X67510000Y-91500000D03*
%TD*%
%TO.C,RA6*%
X59490000Y-63700000D03*
X60510000Y-63700000D03*
%TD*%
%TO.C,R23*%
X133290000Y-74800000D03*
X134310000Y-74800000D03*
%TD*%
D10*
%TO.C,CA8*%
X59520000Y-60900000D03*
X60480000Y-60900000D03*
%TD*%
D17*
%TO.C,RB6*%
X59490000Y-107200000D03*
X60510000Y-107200000D03*
%TD*%
D22*
%TO.C,U5*%
X127000000Y-82900000D03*
X127000000Y-84100000D03*
D23*
X125550000Y-82525000D03*
X125550000Y-83175000D03*
X125550000Y-83825000D03*
X125550000Y-84475000D03*
X128450000Y-84475000D03*
X128450000Y-83825000D03*
X128450000Y-83175000D03*
X128450000Y-82525000D03*
%TD*%
D10*
%TO.C,CA9*%
X60220000Y-62300000D03*
X61180000Y-62300000D03*
%TD*%
%TO.C,CB3*%
X59520000Y-98800000D03*
X60480000Y-98800000D03*
%TD*%
D17*
%TO.C,R34*%
X76990000Y-66000000D03*
X78010000Y-66000000D03*
%TD*%
D12*
%TO.C,Q1*%
X75910000Y-73390000D03*
X75910000Y-74610000D03*
X76860000Y-73390000D03*
X76860000Y-74610000D03*
D13*
X77440000Y-73027500D03*
X77440000Y-73670000D03*
X77440000Y-74330000D03*
X77440000Y-74972500D03*
X74560000Y-73030000D03*
X74560000Y-73670000D03*
X74560000Y-74330000D03*
X74560000Y-74970000D03*
%TD*%
D18*
%TO.C,CB53*%
X100500000Y-89975000D03*
X100500000Y-87025000D03*
%TD*%
D17*
%TO.C,RA3*%
X59490000Y-58100000D03*
X60510000Y-58100000D03*
%TD*%
D18*
%TO.C,CB61*%
X114500000Y-96475000D03*
X114500000Y-93525000D03*
%TD*%
D12*
%TO.C,QA2*%
X93410000Y-61390000D03*
X93410000Y-62610000D03*
X94360000Y-61390000D03*
X94360000Y-62610000D03*
D13*
X94940000Y-61027500D03*
X94940000Y-61670000D03*
X94940000Y-62330000D03*
X94940000Y-62972500D03*
X92060000Y-61030000D03*
X92060000Y-61670000D03*
X92060000Y-62330000D03*
X92060000Y-62970000D03*
%TD*%
D18*
%TO.C,CA61*%
X114500000Y-55475000D03*
X114500000Y-52525000D03*
%TD*%
%TO.C,CA62*%
X118500000Y-55475000D03*
X118500000Y-52525000D03*
%TD*%
D11*
%TO.C,C16*%
X74225000Y-91500000D03*
X75775000Y-91500000D03*
%TD*%
D17*
%TO.C,R18*%
X121490000Y-98500000D03*
X122510000Y-98500000D03*
%TD*%
D24*
%TO.C,D4*%
X136562500Y-92200000D03*
X138437500Y-92200000D03*
%TD*%
D18*
%TO.C,CB64*%
X118500000Y-101975000D03*
X118500000Y-99025000D03*
%TD*%
D15*
%TO.C,C31*%
X126025000Y-89000000D03*
X128975000Y-89000000D03*
%TD*%
D18*
%TO.C,CA52*%
X95500000Y-69975000D03*
X95500000Y-67025000D03*
%TD*%
D17*
%TO.C,R33*%
X76990000Y-63500000D03*
X78010000Y-63500000D03*
%TD*%
D14*
%TO.C,D2*%
X103750000Y-106500000D03*
X108050000Y-106500000D03*
%TD*%
D18*
%TO.C,CA51*%
X90500000Y-69975000D03*
X90500000Y-67025000D03*
%TD*%
D12*
%TO.C,QB2*%
X93410000Y-101390000D03*
X93410000Y-102610000D03*
X94360000Y-101390000D03*
X94360000Y-102610000D03*
D13*
X94940000Y-101027500D03*
X94940000Y-101670000D03*
X94940000Y-102330000D03*
X94940000Y-102972500D03*
X92060000Y-101030000D03*
X92060000Y-101670000D03*
X92060000Y-102330000D03*
X92060000Y-102970000D03*
%TD*%
D18*
%TO.C,CB51*%
X90500000Y-89975000D03*
X90500000Y-87025000D03*
%TD*%
D12*
%TO.C,QA1*%
X93410000Y-54390000D03*
X93410000Y-55610000D03*
X94360000Y-54390000D03*
X94360000Y-55610000D03*
D13*
X94940000Y-54027500D03*
X94940000Y-54670000D03*
X94940000Y-55330000D03*
X94940000Y-55972500D03*
X92060000Y-54030000D03*
X92060000Y-54670000D03*
X92060000Y-55330000D03*
X92060000Y-55970000D03*
%TD*%
D15*
%TO.C,C34*%
X122425000Y-58400000D03*
X125375000Y-58400000D03*
%TD*%
D25*
%TO.C,CE1*%
X84750000Y-76500000D03*
X91250000Y-76500000D03*
%TD*%
D17*
%TO.C,RA1*%
X59490000Y-52500000D03*
X60510000Y-52500000D03*
%TD*%
D26*
%TO.C,J4*%
X134850000Y-97500000D03*
X134850000Y-100000000D03*
X134850000Y-102000000D03*
X134850000Y-104500000D03*
%TD*%
D10*
%TO.C,CA10*%
X72020000Y-60900000D03*
X72980000Y-60900000D03*
%TD*%
D18*
%TO.C,CA63*%
X114500000Y-61475000D03*
X114500000Y-58525000D03*
%TD*%
D10*
%TO.C,CA1*%
X60220000Y-53900000D03*
X61180000Y-53900000D03*
%TD*%
D24*
%TO.C,D5*%
X136562500Y-74800000D03*
X138437500Y-74800000D03*
%TD*%
D27*
%TO.C,LB1*%
X98250000Y-98000000D03*
X107750000Y-98000000D03*
%TD*%
D10*
%TO.C,C20*%
X120720000Y-65400000D03*
X121680000Y-65400000D03*
%TD*%
D17*
%TO.C,R1*%
X62490000Y-91500000D03*
X63510000Y-91500000D03*
%TD*%
D27*
%TO.C,LA1*%
X98250000Y-58000000D03*
X107750000Y-58000000D03*
%TD*%
D18*
%TO.C,CA53*%
X100500000Y-69975000D03*
X100500000Y-67025000D03*
%TD*%
%TO.C,CB52*%
X95500000Y-89975000D03*
X95500000Y-87025000D03*
%TD*%
D26*
%TO.C,J3*%
X134850000Y-80000000D03*
X134850000Y-82500000D03*
X134850000Y-84500000D03*
X134850000Y-87000000D03*
%TD*%
D17*
%TO.C,R21*%
X76990000Y-61000000D03*
X78010000Y-61000000D03*
%TD*%
%TO.C,RA4*%
X60190000Y-59500000D03*
X61210000Y-59500000D03*
%TD*%
%TO.C,R16*%
X121490000Y-63500000D03*
X122510000Y-63500000D03*
%TD*%
D28*
%TO.C,CB7*%
X114200000Y-88700000D03*
X119800000Y-88700000D03*
%TD*%
D26*
%TO.C,J2*%
X134850000Y-62500000D03*
X134850000Y-65000000D03*
X134850000Y-67000000D03*
X134850000Y-69500000D03*
%TD*%
D29*
%TO.C,J5*%
X137200000Y-56880000D03*
X136400000Y-56880000D03*
D30*
X135250000Y-56880000D03*
X134250000Y-56880000D03*
X133750000Y-56880000D03*
X132750000Y-56880000D03*
D29*
X131600000Y-56880000D03*
X130800000Y-56880000D03*
X130800000Y-56880000D03*
X131600000Y-56880000D03*
D30*
X132250000Y-56880000D03*
X133250000Y-56880000D03*
X134750000Y-56880000D03*
X135750000Y-56880000D03*
D29*
X136400000Y-56880000D03*
X137200000Y-56880000D03*
D31*
X138320000Y-56305000D03*
D32*
X138320000Y-52125000D03*
D31*
X129680000Y-56305000D03*
D32*
X129680000Y-52125000D03*
%TD*%
D10*
%TO.C,C22*%
X121520000Y-101000000D03*
X122480000Y-101000000D03*
%TD*%
D17*
%TO.C,R4*%
X76990000Y-52500000D03*
X78010000Y-52500000D03*
%TD*%
%TO.C,RB4*%
X63990000Y-101600000D03*
X65010000Y-101600000D03*
%TD*%
D10*
%TO.C,CA4*%
X72020000Y-55300000D03*
X72980000Y-55300000D03*
%TD*%
D17*
%TO.C,R20*%
X123990000Y-63000000D03*
X125010000Y-63000000D03*
%TD*%
%TO.C,RA2*%
X60190000Y-56700000D03*
X61210000Y-56700000D03*
%TD*%
D10*
%TO.C,C21*%
X121520000Y-83500000D03*
X122480000Y-83500000D03*
%TD*%
D33*
%TO.C,CA7*%
X114800000Y-68300000D03*
X109200000Y-68300000D03*
%TD*%
D11*
%TO.C,CB2*%
X68225000Y-96000000D03*
X69775000Y-96000000D03*
%TD*%
D17*
%TO.C,R3*%
X70490000Y-91500000D03*
X71510000Y-91500000D03*
%TD*%
%TO.C,RB2*%
X63990000Y-98800000D03*
X65010000Y-98800000D03*
%TD*%
D16*
%TO.C,C2*%
X82000000Y-83480000D03*
X82000000Y-82520000D03*
%TD*%
D34*
%TO.C,U1*%
X66610000Y-77750000D03*
X66610000Y-78250000D03*
X66610000Y-78750000D03*
X66610000Y-79250000D03*
X66610000Y-79750000D03*
X66610000Y-80250000D03*
X69390000Y-80250000D03*
X69390000Y-79750000D03*
X69390000Y-79250000D03*
X69390000Y-78750000D03*
X69390000Y-78250000D03*
X69390000Y-77750000D03*
D35*
X68000000Y-79000000D03*
%TD*%
D36*
X138320000Y-56305000D03*
D37*
X138320000Y-52125000D03*
D36*
X129680000Y-56305000D03*
D37*
X129680000Y-52125000D03*
M02*
