#VRML V2.0 utf8
# 3D model generated by easyeda2kicad.py (https://github.com/uPesy/easyeda2kicad.py)

Shape{
    appearance Appearance {
        material  Material 	{
            diffuseColor 0.996078431372549 0.8705882352941177 0.7607843137254902
            specularColor 0.4980392156862745 0.43529411764705883 0.3803921568627451
            ambientIntensity 0.8956
            transparency 0.0
            shininess 0.5
        }
    }
    geometry IndexedFaceSet {
        ccw TRUE
        solid FALSE
        coord DEF co Coordinate {
            point [
                -0.085 -0.4508 0.9449, -0.085 -1.5031 0.9449, -0.2056 -1.5176 0.9449, -0.5905 -1.6626 0.9449, -1.2004 -1.6626 0.9449, -0.4684 -1.599 0.9449, -1.2004 -0.4508 0.9449, -0.3394 -1.5504 0.9449, 1.2004 -1.6626 0.9449, 0.5906 -1.6626 0.9449, 1.2004 -0.4508 0.9449, 0.4684 -1.599 0.9449, 0.3395 -1.5504 0.9449, -0.0689 -1.5011 0.9449, 0.1191 -0.4508 0.9449, 0.0689 -1.5011 0.9449, 0.127 -0.4519 0.9449, 0.2057 -1.5176 0.9449, 0.1324 -0.452 0.9449, 0.1439 -0.4508 0.9449, -0.085 0.9358 0.9449, -0.0658 -0.428 0.9449, -0.0658 -0.4496 0.9449, 0.0398 -0.4496 0.9449, -0.061 -0.2744 0.9449, 0.0134 -0.2744 0.9449, 0.0134 -0.3392 0.9449, 0.0782 -0.4394 0.9449, 0.0782 -0.4178 0.9449, 0.0398 -0.2528 0.9449, 0.0992 -0.4481 0.9449, 0.0134 -0.3608 0.9449, 0.0134 -0.428 0.9449, -0.0562 -0.3608 0.9449, -0.0562 -0.3392 0.9449, 0.3423 -0.4496 0.9449, 0.2414 -0.4496 0.9449, 0.1566 -0.4495 0.9449, 0.1757 -0.443 0.9449, -0.061 -0.2528 0.9449, 0.2143 -0.3046 0.9449, 0.2027 -0.2862 0.9449, 0.3159 -0.2528 0.9449, 0.1437 -0.2742 0.9449, 0.1584 -0.2795 0.9449, 0.0817 -0.4198 0.9449, 0.172 -0.2886 0.9449, 0.1839 -0.3017 0.9449, 0.1982 -0.3533 0.9449, 0.1962 -0.3746 0.9449, 0.1909 -0.3916 0.9449, 0.1471 -0.4284 0.9449, 0.1287 -0.4304 0.9449, 0.1614 -0.4231 0.9449, 0.1735 -0.4149 0.9449, 0.1828 -0.4052 0.9449, 0.1026 -0.4275 0.9449, 0.192 -0.3169 0.9449, 0.1973 -0.338 0.9449, 0.1849 -0.2691 0.9449, 0.3423 -0.2528 0.9449, 1.2004 0.9358 0.9449, 0.1915 -0.4328 0.9449, 0.2063 -0.4173 0.9449, 0.2414 -0.428 0.9449, 0.2168 -0.3986 0.9449, 0.3159 -0.428 0.9449, 0.2227 -0.3777 0.9449, 0.2246 -0.3549 0.9449, 0.2218 -0.3269 0.9449, 0.1662 -0.2584 0.9449, 0.1443 -0.252 0.9449, 0.1245 -0.2504 0.9449, 0.101 -0.252 0.9449, 0.0782 -0.2582 0.9449, 0.0782 -0.2846 0.9449, 0.1004 -0.2751 0.9449, 0.1243 -0.272 0.9449, -0.2771 -0.4496 0.9449, -0.2529 -0.3957 0.9449, -0.2416 -0.4133 0.9449, -0.4259 -0.4496 0.9449, -0.4547 -0.4496 0.9449, -0.3779 -0.2528 0.9449, -1.2004 0.9358 0.9449, -0.3515 -0.2528 0.9449, -0.2254 -0.4288 0.9449, -0.2048 -0.4408 0.9449, -0.1821 -0.4475 0.9449, -0.1578 -0.4496 0.9449, -0.1042 -0.4496 0.9449, -0.1042 -0.2528 0.9449, -0.1598 -0.2528 0.9449, -0.2329 -0.2785 0.9449, -0.2468 -0.2939 0.9449, -0.256 -0.3108 0.9449, -0.1882 -0.2558 0.9449, -0.2113 -0.2639 0.9449, -0.2327 -0.2783 0.9449, -0.3059 -0.4496 0.9449, -0.3247 -0.3944 0.9449, -0.406 -0.3944 0.9449, -0.2613 -0.3302 0.9449, -0.2627 -0.3487 0.9449, -0.2599 -0.3751 0.9449, 1.1024 -1.6626 1.1024, 1.2004 -1.6626 1.1024, 1.1024 0.9358 1.1024, 1.2004 0.9358 1.1024, -1.1023 0.9358 1.1024, -1.2004 0.9358 1.1024, -1.1023 -1.6626 1.1024, -1.2004 -1.6626 1.1024, 1.1024 -1.6626 1.1614, 0.5906 -1.6626 1.1614, 1.3583 0.6602 0.1579, 1.3583 0.9358 0.1579, 1.3583 0.6602 0.3937, 1.3583 0.9358 0.9445, 1.3583 0.3059 0.3937, 1.3583 -1.6626 0.9445, 1.3583 0.3059 0.1579, 1.3583 -1.6626 0.1579, 1.2008 0.3059 0.3937, 1.2008 0.3059 0.1579, 1.2008 -1.6626 0.1579, 1.2008 0.9358 0.9445, 1.2008 0.9358 0.1579, 1.2008 0.6602 0.1579, 1.2008 0.6602 0.3937, 1.2008 -1.6626 0.9445, -1.3582 0.3059 0.3937, -1.3582 0.3059 0.1579, -1.3582 -1.6626 0.1579, -1.3582 0.9358 0.9445, -1.3582 0.9358 0.1579, -1.3582 0.6602 0.1579, -1.3582 0.6602 0.3937, -1.3582 -1.6626 0.9445, -1.2008 0.6602 0.1579, -1.2008 0.9358 0.1579, -1.2008 0.6602 0.3937, -1.2008 0.9358 0.9445, -1.2008 0.3059 0.3937, -1.2008 -1.6626 0.9445, -1.2008 0.3059 0.1579, -1.2008 -1.6626 0.1579, -1.1023 -1.6626 1.1614, -0.5905 -1.6626 1.1614, 1.1024 0.9358 1.1614, -1.1023 0.9358 1.1614, -1.2005 -1.6626 0.9449, -1.2412 -1.6626 1.097, -1.2006 -1.6626 0.9448, -1.2793 -1.6626 1.0812, -1.2007 -1.6626 0.9448, -1.312 -1.6626 1.0561, -1.2007 -1.6626 0.9447, -1.3371 -1.6626 1.0234, -1.2008 -1.6626 0.9446, -1.3529 -1.6626 0.9853, -1.2008 0.9358 0.9446, -1.3529 0.9358 0.9853, -1.2007 0.9358 0.9447, -1.3371 0.9358 1.0234, -1.2007 0.9358 0.9448, -1.312 0.9358 1.0561, -1.2006 0.9358 0.9448, -1.2793 0.9358 1.0812, -1.2005 0.9358 0.9449, -1.2412 0.9358 1.097, 1.2005 0.9358 0.9449, 1.2413 0.9358 1.097, 1.2006 0.9358 0.9448, 1.2794 0.9358 1.0812, 1.2007 0.9358 0.9448, 1.312 0.9358 1.0561, 1.2008 0.9358 0.9447, 1.3371 0.9358 1.0234, 1.2008 0.9358 0.9446, 1.3529 0.9358 0.9853, 1.2008 -1.6626 0.9446, 1.3529 -1.6626 0.9853, 1.2008 -1.6626 0.9447, 1.3371 -1.6626 1.0234, 1.2007 -1.6626 0.9448, 1.312 -1.6626 1.0561, 1.2006 -1.6626 0.9448, 1.2794 -1.6626 1.0812, 1.2005 -1.6626 0.9449, 1.2413 -1.6626 1.097, -1.2008 -1.6626 0.1578, -1.3529 -1.6626 0.117, -1.2007 -1.6626 0.1577, -1.3371 -1.6626 0.0789, -1.2007 -1.6626 0.1576, -1.312 -1.6626 0.0462, -1.2006 -1.6626 0.1575, -1.2793 -1.6626 0.0212, -1.2005 -1.6626 0.1575, -1.2412 -1.6626 0.0054, -1.2004 -1.6626 0.1575, -1.2004 -1.6626 0.0, -1.2004 0.3059 0.1575, -1.2004 0.3059 0.0, -1.2005 0.3059 0.1575, -1.2412 0.3059 0.0054, -1.2006 0.3059 0.1575, -1.2793 0.3059 0.0212, -1.2007 0.3059 0.1576, -1.312 0.3059 0.0462, -1.2007 0.3059 0.1577, -1.3371 0.3059 0.0789, -1.2008 0.3059 0.1578, -1.3529 0.3059 0.117, -0.5708 0.3059 0.1575, -0.5708 0.3059 0.0, -0.5708 -1.6626 0.0, -0.5708 -1.6626 0.1575, -1.2008 0.6602 0.1578, -1.3529 0.6602 0.117, -1.2007 0.6602 0.1577, -1.3371 0.6602 0.0789, -1.2007 0.6602 0.1576, -1.312 0.6602 0.0462, -1.2006 0.6602 0.1575, -1.2793 0.6602 0.0212, -1.2005 0.6602 0.1575, -1.2412 0.6602 0.0054, -1.2004 0.6602 0.1575, -1.2004 0.6602 0.0, -1.2004 0.9358 0.1575, -1.2004 0.9358 0.0, -1.2005 0.9358 0.1575, -1.2412 0.9358 0.0054, -1.2006 0.9358 0.1575, -1.2793 0.9358 0.0212, -1.2007 0.9358 0.1576, -1.312 0.9358 0.0462, -1.2007 0.9358 0.1577, -1.3371 0.9358 0.0789, -1.2008 0.9358 0.1578, -1.3529 0.9358 0.117, -0.5708 0.9358 0.1575, -0.5708 0.9358 0.0, -0.5708 0.6602 0.0, -0.5708 0.6602 0.1575, 1.2008 0.3059 0.1578, 1.3529 0.3059 0.117, 1.2008 0.3059 0.1577, 1.3371 0.3059 0.0789, 1.2007 0.3059 0.1576, 1.312 0.3059 0.0462, 1.2006 0.3059 0.1575, 1.2794 0.3059 0.0212, 1.2005 0.3059 0.1575, 1.2413 0.3059 0.0054, 1.2004 0.3059 0.1575, 1.2004 0.3059 0.0, 1.2004 -1.6626 0.1575, 1.2004 -1.6626 0.0, 1.2005 -1.6626 0.1575, 1.2413 -1.6626 0.0054, 1.2006 -1.6626 0.1575, 1.2794 -1.6626 0.0212, 1.2007 -1.6626 0.1576, 1.312 -1.6626 0.0462, 1.2008 -1.6626 0.1577, 1.3371 -1.6626 0.0789, 1.2008 -1.6626 0.1578, 1.3529 -1.6626 0.117, 0.5709 -1.6626 0.1575, 0.5709 -1.6626 0.0, 0.5709 0.3059 0.0, 0.5709 0.3059 0.1575, 1.2008 0.9358 0.1578, 1.3529 0.9358 0.117, 1.2008 0.9358 0.1577, 1.3371 0.9358 0.0789, 1.2007 0.9358 0.1576, 1.312 0.9358 0.0462, 1.2006 0.9358 0.1575, 1.2794 0.9358 0.0212, 1.2005 0.9358 0.1575, 1.2413 0.9358 0.0054, 1.2004 0.9358 0.1575, 1.2004 0.9358 0.0, 1.2004 0.6602 0.1575, 1.2004 0.6602 0.0, 1.2005 0.6602 0.1575, 1.2413 0.6602 0.0054, 1.2006 0.6602 0.1575, 1.2794 0.6602 0.0212, 1.2007 0.6602 0.1576, 1.312 0.6602 0.0462, 1.2008 0.6602 0.1577, 1.3371 0.6602 0.0789, 1.2008 0.6602 0.1578, 1.3529 0.6602 0.117, 0.5709 0.6602 0.1575, 0.5709 0.6602 0.0, 0.5709 0.9358 0.0, 0.5709 0.9358 0.1575
            ]
        }
        coordIndex [
            0,1,2,-1,3,4,5,-1,5,4,6,-1,0,2,6,-1,6,2,7,-1,6,7,5,-1,8,9,10,-1,10,9,11,-1,10,11,12,-1,13,14,15,-1,15,14,16,-1,15,16,17,-1,17,16,18,-1,17,18,19,-1,20,21,0,-1,0,21,22,-1,0,22,23,-1,24,25,26,-1,27,23,28,-1,28,23,29,-1,27,30,23,-1,23,30,14,-1,23,14,0,-1,0,14,13,-1,0,13,1,-1,31,32,33,-1,33,32,21,-1,33,21,34,-1,35,19,36,-1,36,19,37,-1,36,37,38,-1,26,34,24,-1,24,34,21,-1,24,21,39,-1,39,21,20,-1,39,20,29,-1,40,41,42,-1,43,44,45,-1,45,44,46,-1,45,46,47,-1,48,49,45,-1,45,49,50,-1,51,52,53,-1,53,52,54,-1,50,55,45,-1,45,55,54,-1,45,54,56,-1,56,54,52,-1,47,57,45,-1,45,57,58,-1,45,58,48,-1,41,59,42,-1,42,59,20,-1,42,20,60,-1,60,20,61,-1,60,61,35,-1,35,61,10,-1,35,10,19,-1,19,10,12,-1,19,12,17,-1,38,62,36,-1,36,62,63,-1,36,63,64,-1,64,63,65,-1,64,65,66,-1,65,67,66,-1,66,67,68,-1,66,68,42,-1,42,68,69,-1,42,69,40,-1,59,70,20,-1,20,70,71,-1,20,71,72,-1,72,73,20,-1,20,73,74,-1,20,74,29,-1,29,74,75,-1,29,75,28,-1,28,75,76,-1,28,76,45,-1,45,76,77,-1,45,77,43,-1,78,79,80,-1,81,0,82,-1,82,0,6,-1,82,6,83,-1,83,6,84,-1,83,84,85,-1,85,84,20,-1,80,86,78,-1,78,86,87,-1,78,87,88,-1,89,90,0,-1,0,90,91,-1,0,91,20,-1,20,91,92,-1,93,94,85,-1,85,94,95,-1,92,96,20,-1,20,96,97,-1,20,97,85,-1,85,97,98,-1,85,98,93,-1,88,89,78,-1,78,89,0,-1,78,0,99,-1,99,0,81,-1,99,81,100,-1,100,81,101,-1,95,102,85,-1,85,102,103,-1,85,103,78,-1,78,103,104,-1,78,104,79,-1,105,106,107,-1,107,106,108,-1,109,110,111,-1,111,110,112,-1,8,106,105,-1,113,114,105,-1,105,114,9,-1,105,9,8,-1,115,116,117,-1,117,116,118,-1,117,118,119,-1,119,118,120,-1,119,120,121,-1,121,120,122,-1,123,124,125,-1,126,127,128,-1,128,129,126,-1,126,129,123,-1,126,123,130,-1,130,123,125,-1,126,118,127,-1,127,118,116,-1,117,129,115,-1,115,129,128,-1,120,130,122,-1,122,130,125,-1,131,132,133,-1,134,135,136,-1,136,137,134,-1,134,137,131,-1,134,131,138,-1,138,131,133,-1,139,140,141,-1,141,140,142,-1,141,142,143,-1,143,142,144,-1,143,144,145,-1,145,144,146,-1,134,142,135,-1,135,142,140,-1,141,137,139,-1,139,137,136,-1,144,138,146,-1,146,138,133,-1,132,131,145,-1,145,131,143,-1,112,4,111,-1,111,4,3,-1,111,3,147,-1,147,3,148,-1,108,61,107,-1,107,61,20,-1,149,107,150,-1,150,107,20,-1,150,20,109,-1,109,20,84,-1,109,84,110,-1,4,112,151,-1,151,112,152,-1,151,152,153,-1,153,152,154,-1,153,154,155,-1,155,154,156,-1,155,156,157,-1,157,156,158,-1,157,158,159,-1,159,158,160,-1,159,160,144,-1,144,160,138,-1,142,134,161,-1,161,134,162,-1,161,162,163,-1,163,162,164,-1,163,164,165,-1,165,164,166,-1,165,166,167,-1,167,166,168,-1,167,168,169,-1,169,168,170,-1,169,170,84,-1,84,170,110,-1,112,110,170,-1,112,170,152,-1,152,170,168,-1,152,168,154,-1,154,168,166,-1,154,166,156,-1,156,166,164,-1,156,164,158,-1,158,164,162,-1,158,162,160,-1,160,162,134,-1,160,134,138,-1,6,4,151,-1,84,6,169,-1,169,6,151,-1,169,151,167,-1,167,151,153,-1,167,153,165,-1,165,153,155,-1,165,155,163,-1,163,155,157,-1,163,157,161,-1,161,157,159,-1,161,159,142,-1,142,159,144,-1,61,108,171,-1,171,108,172,-1,171,172,173,-1,173,172,174,-1,173,174,175,-1,175,174,176,-1,175,176,177,-1,177,176,178,-1,177,178,179,-1,179,178,180,-1,179,180,126,-1,126,180,118,-1,130,120,181,-1,181,120,182,-1,181,182,183,-1,183,182,184,-1,183,184,185,-1,185,184,186,-1,185,186,187,-1,187,186,188,-1,187,188,189,-1,189,188,190,-1,189,190,8,-1,8,190,106,-1,108,106,190,-1,108,190,172,-1,172,190,188,-1,172,188,174,-1,174,188,186,-1,174,186,176,-1,176,186,184,-1,176,184,178,-1,178,184,182,-1,178,182,180,-1,180,182,120,-1,180,120,118,-1,10,61,171,-1,8,10,189,-1,189,10,171,-1,189,171,187,-1,187,171,173,-1,187,173,185,-1,185,173,175,-1,185,175,183,-1,183,175,177,-1,183,177,181,-1,181,177,179,-1,181,179,130,-1,130,179,126,-1,123,119,124,-1,124,119,121,-1,119,123,117,-1,117,123,129,-1,137,141,131,-1,131,141,143,-1,146,133,191,-1,191,133,192,-1,191,192,193,-1,193,192,194,-1,193,194,195,-1,195,194,196,-1,195,196,197,-1,197,196,198,-1,197,198,199,-1,199,198,200,-1,199,200,201,-1,201,200,202,-1,203,204,205,-1,205,204,206,-1,205,206,207,-1,207,206,208,-1,207,208,209,-1,209,208,210,-1,209,210,211,-1,211,210,212,-1,211,212,213,-1,213,212,214,-1,213,214,145,-1,145,214,132,-1,133,132,214,-1,133,214,192,-1,192,214,212,-1,192,212,194,-1,194,212,210,-1,194,210,196,-1,196,210,208,-1,196,208,198,-1,198,208,206,-1,198,206,200,-1,200,206,204,-1,200,204,202,-1,201,203,199,-1,199,203,205,-1,199,205,197,-1,197,205,207,-1,197,207,195,-1,195,207,209,-1,195,209,193,-1,193,209,211,-1,193,211,191,-1,191,211,213,-1,191,213,146,-1,146,213,145,-1,215,216,203,-1,203,216,204,-1,217,218,202,-1,202,218,201,-1,216,217,204,-1,204,217,202,-1,201,218,203,-1,203,218,215,-1,217,216,218,-1,218,216,215,-1,139,136,219,-1,219,136,220,-1,219,220,221,-1,221,220,222,-1,221,222,223,-1,223,222,224,-1,223,224,225,-1,225,224,226,-1,225,226,227,-1,227,226,228,-1,227,228,229,-1,229,228,230,-1,231,232,233,-1,233,232,234,-1,233,234,235,-1,235,234,236,-1,235,236,237,-1,237,236,238,-1,237,238,239,-1,239,238,240,-1,239,240,241,-1,241,240,242,-1,241,242,140,-1,140,242,135,-1,136,135,242,-1,136,242,220,-1,220,242,240,-1,220,240,222,-1,222,240,238,-1,222,238,224,-1,224,238,236,-1,224,236,226,-1,226,236,234,-1,226,234,228,-1,228,234,232,-1,228,232,230,-1,229,231,227,-1,227,231,233,-1,227,233,225,-1,225,233,235,-1,225,235,223,-1,223,235,237,-1,223,237,221,-1,221,237,239,-1,221,239,219,-1,219,239,241,-1,219,241,139,-1,139,241,140,-1,243,244,231,-1,231,244,232,-1,245,246,230,-1,230,246,229,-1,244,245,232,-1,232,245,230,-1,229,246,231,-1,231,246,243,-1,245,244,246,-1,246,244,243,-1,124,121,247,-1,247,121,248,-1,247,248,249,-1,249,248,250,-1,249,250,251,-1,251,250,252,-1,251,252,253,-1,253,252,254,-1,253,254,255,-1,255,254,256,-1,255,256,257,-1,257,256,258,-1,259,260,261,-1,261,260,262,-1,261,262,263,-1,263,262,264,-1,263,264,265,-1,265,264,266,-1,265,266,267,-1,267,266,268,-1,267,268,269,-1,269,268,270,-1,269,270,125,-1,125,270,122,-1,121,122,270,-1,121,270,248,-1,248,270,268,-1,248,268,250,-1,250,268,266,-1,250,266,252,-1,252,266,264,-1,252,264,254,-1,254,264,262,-1,254,262,256,-1,256,262,260,-1,256,260,258,-1,257,259,255,-1,255,259,261,-1,255,261,253,-1,253,261,263,-1,253,263,251,-1,251,263,265,-1,251,265,249,-1,249,265,267,-1,249,267,247,-1,247,267,269,-1,247,269,124,-1,124,269,125,-1,271,272,259,-1,259,272,260,-1,273,274,258,-1,258,274,257,-1,272,273,260,-1,260,273,258,-1,257,274,259,-1,259,274,271,-1,273,272,274,-1,274,272,271,-1,127,116,275,-1,275,116,276,-1,275,276,277,-1,277,276,278,-1,277,278,279,-1,279,278,280,-1,279,280,281,-1,281,280,282,-1,281,282,283,-1,283,282,284,-1,283,284,285,-1,285,284,286,-1,287,288,289,-1,289,288,290,-1,289,290,291,-1,291,290,292,-1,291,292,293,-1,293,292,294,-1,293,294,295,-1,295,294,296,-1,295,296,297,-1,297,296,298,-1,297,298,128,-1,128,298,115,-1,116,115,298,-1,116,298,276,-1,276,298,296,-1,276,296,278,-1,278,296,294,-1,278,294,280,-1,280,294,292,-1,280,292,282,-1,282,292,290,-1,282,290,284,-1,284,290,288,-1,284,288,286,-1,285,287,283,-1,283,287,289,-1,283,289,281,-1,281,289,291,-1,281,291,279,-1,279,291,293,-1,279,293,277,-1,277,293,295,-1,277,295,275,-1,275,295,297,-1,275,297,127,-1,127,297,128,-1,299,300,287,-1,287,300,288,-1,301,302,286,-1,286,302,285,-1,300,301,288,-1,288,301,286,-1,285,302,287,-1,287,302,299,-1,301,300,302,-1,302,300,299,-1,
        ]
    }
}
Shape{
    appearance Appearance {
        material  Material 	{
            diffuseColor 0.7529411764705882 0.7529411764705882 0.7529411764705882
            specularColor 0.3764705882352941 0.3764705882352941 0.3764705882352941
            ambientIntensity 0.7529
            transparency 0.0
            shininess 0.5
        }
    }
    geometry IndexedFaceSet {
        ccw TRUE
        solid FALSE
        coord DEF co Coordinate {
            point [
                0.5906 -1.6626 0.9449, 0.5906 -1.6626 1.1614, 0.4684 -1.599 0.9449, 0.4684 -1.599 1.1614, 0.3395 -1.5504 0.9449, 0.3395 -1.5504 1.1614, 0.2057 -1.5176 0.9449, 0.2057 -1.5176 1.1614, 0.0689 -1.5011 0.9449, 0.0689 -1.5011 1.1614, -0.0689 -1.5011 0.9449, -0.0689 -1.5011 1.1614, -0.085 -1.5031 0.9449, -0.2056 -1.5176 1.1614, -0.5905 -1.6626 1.1614, -0.5905 -1.6626 0.9449, -0.4684 -1.599 1.1614, -0.4684 -1.599 0.9449, -0.3394 -1.5504 1.1614, -0.3394 -1.5504 0.9449, -0.2056 -1.5176 0.9449, 1.1024 0.9358 1.1614, 1.1024 -1.6626 1.1614, 1.1024 0.9358 1.1024, 1.1024 -1.6626 1.1024, -1.1023 -1.6626 1.1614, -1.1023 0.9358 1.1614, -1.1023 -1.6626 1.1024, -1.1023 0.9358 1.1024
            ]
        }
        coordIndex [
            0,1,2,-1,2,1,3,-1,2,3,4,-1,4,3,5,-1,4,5,6,-1,6,5,7,-1,6,7,8,-1,8,7,9,-1,8,9,10,-1,10,9,11,-1,10,11,12,-1,12,11,13,-1,14,15,16,-1,16,15,17,-1,16,17,18,-1,18,17,19,-1,18,19,13,-1,13,19,20,-1,13,20,12,-1,21,22,23,-1,23,22,24,-1,25,26,27,-1,27,26,28,-1,25,14,26,-1,26,14,16,-1,26,16,18,-1,1,22,3,-1,3,22,21,-1,3,21,5,-1,5,21,7,-1,18,13,26,-1,26,13,11,-1,26,11,21,-1,21,11,9,-1,21,9,7,-1,
        ]
    }
}
Shape{
    appearance Appearance {
        material  Material 	{
            diffuseColor 0.0 0.0 0.0
            specularColor 0.0 0.0 0.0
            ambientIntensity 0.0
            transparency 0.0
            shininess 0.5
        }
    }
    geometry IndexedFaceSet {
        ccw TRUE
        solid FALSE
        coord DEF co Coordinate {
            point [
                -0.3779 -0.2528 0.9453, -0.4547 -0.4496 0.9453, -0.3779 -0.2528 0.9449, -0.4547 -0.4496 0.9449, -0.4259 -0.4496 0.9453, -0.4259 -0.4496 0.9449, -0.406 -0.3944 0.9453, -0.406 -0.3944 0.9449, -0.3247 -0.3944 0.9453, -0.3247 -0.3944 0.9449, -0.3059 -0.4496 0.9453, -0.3059 -0.4496 0.9449, -0.2771 -0.4496 0.9453, -0.2771 -0.4496 0.9449, -0.3515 -0.2528 0.9453, -0.3515 -0.2528 0.9449, -0.3313 -0.3728 0.9453, -0.3972 -0.3728 0.9453, -0.3607 -0.2906 0.9453, -0.3626 -0.2838 0.9453, -0.3638 -0.2768 0.9453, -0.3645 -0.2768 0.9453, -0.3658 -0.2837 0.9453, -0.3675 -0.2906 0.9453, -0.3313 -0.3728 0.9449, -0.3972 -0.3728 0.9449, -0.3607 -0.2906 0.9449, -0.3626 -0.2838 0.9449, -0.3638 -0.2768 0.9449, -0.3645 -0.2768 0.9449, -0.3658 -0.2837 0.9449, -0.3675 -0.2906 0.9449, -0.1578 -0.4496 0.9453, -0.1042 -0.4496 0.9453, -0.1578 -0.4496 0.9449, -0.1042 -0.4496 0.9449, -0.1042 -0.2528 0.9453, -0.1042 -0.2528 0.9449, -0.1598 -0.2528 0.9453, -0.1598 -0.2528 0.9449, -0.2627 -0.3487 0.9453, -0.2627 -0.3487 0.9449, -0.2613 -0.3302 0.9449, -0.2613 -0.3302 0.9453, -0.256 -0.3108 0.9449, -0.256 -0.3108 0.9453, -0.2468 -0.2939 0.9449, -0.2468 -0.2939 0.9453, -0.2329 -0.2785 0.9449, -0.2329 -0.2785 0.9453, -0.2327 -0.2783 0.9449, -0.2327 -0.2783 0.9453, -0.2113 -0.2639 0.9449, -0.2113 -0.2639 0.9453, -0.1882 -0.2558 0.9449, -0.1882 -0.2558 0.9453, -0.1821 -0.4475 0.9449, -0.1821 -0.4475 0.9453, -0.2048 -0.4408 0.9449, -0.2048 -0.4408 0.9453, -0.2254 -0.4288 0.9449, -0.2254 -0.4288 0.9453, -0.2416 -0.4133 0.9449, -0.2416 -0.4133 0.9453, -0.2529 -0.3957 0.9449, -0.2529 -0.3957 0.9453, -0.2599 -0.3751 0.9449, -0.2599 -0.3751 0.9453, -0.2232 -0.302 0.9453, -0.2136 -0.2918 0.9453, -0.1992 -0.2826 0.9453, -0.183 -0.2769 0.9453, -0.1597 -0.2744 0.9453, -0.1306 -0.2744 0.9453, -0.1306 -0.428 0.9453, -0.1586 -0.428 0.9453, -0.1794 -0.4261 0.9453, -0.1959 -0.4209 0.9453, -0.2094 -0.413 0.9453, -0.2204 -0.4021 0.9453, -0.2287 -0.3885 0.9453, -0.2345 -0.37 0.9453, -0.2363 -0.3493 0.9453, -0.2346 -0.3297 0.9453, -0.23 -0.3141 0.9453, -0.1597 -0.2744 0.9449, -0.1306 -0.2744 0.9449, -0.183 -0.2769 0.9449, -0.1992 -0.2826 0.9449, -0.2136 -0.2918 0.9449, -0.2232 -0.302 0.9449, -0.23 -0.3141 0.9449, -0.2346 -0.3297 0.9449, -0.2363 -0.3493 0.9449, -0.2345 -0.37 0.9449, -0.2287 -0.3885 0.9449, -0.2204 -0.4021 0.9449, -0.2094 -0.413 0.9449, -0.1959 -0.4209 0.9449, -0.1794 -0.4261 0.9449, -0.1586 -0.428 0.9449, -0.1306 -0.428 0.9449, -0.0658 -0.428 0.9453, -0.0658 -0.4496 0.9453, -0.0658 -0.428 0.9449, -0.0658 -0.4496 0.9449, 0.0398 -0.4496 0.9453, 0.0398 -0.4496 0.9449, 0.0398 -0.2528 0.9453, 0.0398 -0.2528 0.9449, -0.061 -0.2528 0.9453, -0.061 -0.2528 0.9449, -0.061 -0.2744 0.9453, -0.061 -0.2744 0.9449, 0.0134 -0.2744 0.9453, 0.0134 -0.2744 0.9449, 0.0134 -0.3392 0.9453, 0.0134 -0.3392 0.9449, -0.0562 -0.3392 0.9453, -0.0562 -0.3392 0.9449, -0.0562 -0.3608 0.9453, -0.0562 -0.3608 0.9449, 0.0134 -0.3608 0.9453, 0.0134 -0.3608 0.9449, 0.0134 -0.428 0.9453, 0.0134 -0.428 0.9449, 0.0782 -0.4178 0.9453, 0.0782 -0.4394 0.9453, 0.0782 -0.4178 0.9449, 0.0782 -0.4394 0.9449, 0.0992 -0.4481 0.9453, 0.1324 -0.452 0.9453, 0.1324 -0.452 0.9449, 0.127 -0.4519 0.9449, 0.127 -0.4519 0.9453, 0.1191 -0.4508 0.9449, 0.0992 -0.4481 0.9449, 0.1439 -0.4508 0.9449, 0.1566 -0.4495 0.9453, 0.1566 -0.4495 0.9449, 0.1757 -0.443 0.9453, 0.1757 -0.443 0.9449, 0.1915 -0.4328 0.9453, 0.1915 -0.4328 0.9449, 0.2063 -0.4173 0.9453, 0.2063 -0.4173 0.9449, 0.2168 -0.3986 0.9453, 0.2168 -0.3986 0.9449, 0.2227 -0.3777 0.9453, 0.2227 -0.3777 0.9449, 0.2246 -0.3549 0.9453, 0.2246 -0.3549 0.9449, 0.1245 -0.2504 0.9453, 0.1245 -0.2504 0.9449, 0.1443 -0.252 0.9449, 0.1443 -0.252 0.9453, 0.1662 -0.2584 0.9449, 0.1662 -0.2584 0.9453, 0.1849 -0.2691 0.9449, 0.1849 -0.2691 0.9453, 0.2027 -0.2862 0.9449, 0.2027 -0.2862 0.9453, 0.2143 -0.3046 0.9449, 0.2143 -0.3046 0.9453, 0.2218 -0.3269 0.9449, 0.2218 -0.3269 0.9453, 0.0782 -0.2582 0.9453, 0.0782 -0.2582 0.9449, 0.101 -0.252 0.9449, 0.101 -0.252 0.9453, 0.0782 -0.2846 0.9453, 0.0782 -0.2846 0.9449, 0.1243 -0.272 0.9453, 0.1243 -0.272 0.9449, 0.1004 -0.2751 0.9449, 0.1004 -0.2751 0.9453, 0.1982 -0.3533 0.9453, 0.1982 -0.3533 0.9449, 0.1973 -0.338 0.9449, 0.1973 -0.338 0.9453, 0.192 -0.3169 0.9449, 0.192 -0.3169 0.9453, 0.1839 -0.3017 0.9449, 0.1839 -0.3017 0.9453, 0.172 -0.2886 0.9449, 0.172 -0.2886 0.9453, 0.1584 -0.2795 0.9449, 0.1584 -0.2795 0.9453, 0.1437 -0.2742 0.9449, 0.1437 -0.2742 0.9453, 0.1287 -0.4304 0.9453, 0.1287 -0.4304 0.9449, 0.1471 -0.4284 0.9449, 0.1471 -0.4284 0.9453, 0.1614 -0.4231 0.9449, 0.1614 -0.4231 0.9453, 0.1735 -0.4149 0.9449, 0.1735 -0.4149 0.9453, 0.1828 -0.4052 0.9449, 0.1828 -0.4052 0.9453, 0.1909 -0.3916 0.9449, 0.1909 -0.3916 0.9453, 0.1962 -0.3746 0.9449, 0.1962 -0.3746 0.9453, 0.0817 -0.4198 0.9449, 0.0817 -0.4198 0.9453, 0.1026 -0.4275 0.9449, 0.1026 -0.4275 0.9453, 0.2414 -0.428 0.9453, 0.2414 -0.4496 0.9453, 0.2414 -0.428 0.9449, 0.2414 -0.4496 0.9449, 0.3423 -0.4496 0.9453, 0.3423 -0.4496 0.9449, 0.3423 -0.2528 0.9453, 0.3423 -0.2528 0.9449, 0.3159 -0.2528 0.9453, 0.3159 -0.2528 0.9449, 0.3159 -0.428 0.9453, 0.3159 -0.428 0.9449
            ]
        }
        coordIndex [
            0,1,2,-1,2,1,3,-1,1,4,3,-1,3,4,5,-1,4,6,5,-1,5,6,7,-1,6,8,7,-1,7,8,9,-1,8,10,9,-1,9,10,11,-1,10,12,11,-1,11,12,13,-1,12,14,13,-1,13,14,15,-1,14,0,15,-1,15,0,2,-1,16,8,17,-1,17,8,6,-1,18,14,16,-1,16,14,12,-1,16,12,8,-1,8,12,10,-1,18,19,14,-1,14,19,20,-1,14,20,0,-1,0,20,21,-1,0,21,22,-1,22,23,0,-1,0,23,17,-1,0,17,1,-1,1,17,6,-1,1,6,4,-1,16,17,24,-1,24,17,25,-1,18,16,26,-1,26,16,24,-1,18,26,27,-1,18,27,19,-1,19,27,28,-1,19,28,20,-1,21,20,29,-1,29,20,28,-1,21,29,30,-1,21,30,22,-1,22,30,31,-1,22,31,23,-1,17,23,25,-1,25,23,31,-1,32,33,34,-1,34,33,35,-1,33,36,35,-1,35,36,37,-1,36,38,37,-1,37,38,39,-1,40,41,42,-1,40,42,43,-1,43,42,44,-1,43,44,45,-1,45,44,46,-1,45,46,47,-1,47,46,48,-1,47,48,49,-1,49,48,50,-1,49,50,51,-1,51,50,52,-1,51,52,53,-1,53,52,54,-1,53,54,55,-1,55,54,39,-1,55,39,38,-1,32,34,56,-1,32,56,57,-1,57,56,58,-1,57,58,59,-1,59,58,60,-1,59,60,61,-1,61,60,62,-1,61,62,63,-1,63,62,64,-1,63,64,65,-1,65,64,66,-1,65,66,67,-1,67,66,41,-1,67,41,40,-1,45,47,68,-1,68,47,49,-1,68,49,69,-1,69,49,51,-1,69,51,70,-1,70,51,53,-1,70,53,71,-1,71,53,55,-1,71,55,72,-1,72,55,38,-1,72,38,73,-1,73,38,36,-1,73,36,74,-1,74,36,33,-1,74,33,75,-1,75,33,32,-1,75,32,76,-1,76,32,57,-1,76,57,77,-1,77,57,59,-1,77,59,78,-1,78,59,61,-1,78,61,79,-1,79,61,63,-1,79,63,80,-1,80,63,65,-1,80,65,81,-1,81,65,67,-1,81,67,82,-1,82,67,40,-1,82,40,83,-1,83,40,43,-1,83,43,84,-1,84,43,45,-1,84,45,68,-1,72,73,85,-1,85,73,86,-1,72,85,87,-1,72,87,71,-1,71,87,88,-1,71,88,70,-1,70,88,89,-1,70,89,69,-1,69,89,90,-1,69,90,68,-1,68,90,91,-1,68,91,84,-1,84,91,92,-1,84,92,83,-1,83,92,93,-1,83,93,82,-1,82,93,94,-1,82,94,81,-1,81,94,95,-1,81,95,80,-1,80,95,96,-1,80,96,79,-1,79,96,97,-1,79,97,78,-1,78,97,98,-1,78,98,77,-1,77,98,99,-1,77,99,76,-1,76,99,100,-1,76,100,75,-1,74,75,101,-1,101,75,100,-1,73,74,86,-1,86,74,101,-1,102,103,104,-1,104,103,105,-1,103,106,105,-1,105,106,107,-1,106,108,107,-1,107,108,109,-1,108,110,109,-1,109,110,111,-1,110,112,111,-1,111,112,113,-1,112,114,113,-1,113,114,115,-1,114,116,115,-1,115,116,117,-1,116,118,117,-1,117,118,119,-1,118,120,119,-1,119,120,121,-1,120,122,121,-1,121,122,123,-1,122,124,123,-1,123,124,125,-1,124,102,125,-1,125,102,104,-1,106,103,102,-1,102,124,106,-1,106,124,122,-1,106,122,108,-1,112,110,114,-1,114,110,108,-1,114,108,116,-1,116,108,122,-1,116,122,118,-1,118,122,120,-1,126,127,128,-1,128,127,129,-1,129,127,130,-1,131,132,133,-1,131,133,134,-1,134,133,135,-1,134,135,130,-1,130,135,136,-1,130,136,129,-1,132,131,137,-1,137,131,138,-1,137,138,139,-1,139,138,140,-1,139,140,141,-1,141,140,142,-1,141,142,143,-1,143,142,144,-1,143,144,145,-1,145,144,146,-1,145,146,147,-1,147,146,148,-1,147,148,149,-1,149,148,150,-1,149,150,151,-1,152,153,154,-1,152,154,155,-1,155,154,156,-1,155,156,157,-1,157,156,158,-1,157,158,159,-1,159,158,160,-1,159,160,161,-1,161,160,162,-1,161,162,163,-1,163,162,164,-1,163,164,165,-1,165,164,151,-1,165,151,150,-1,166,167,168,-1,166,168,169,-1,169,168,153,-1,169,153,152,-1,166,170,167,-1,167,170,171,-1,172,173,174,-1,172,174,175,-1,175,174,171,-1,175,171,170,-1,176,177,178,-1,176,178,179,-1,179,178,180,-1,179,180,181,-1,181,180,182,-1,181,182,183,-1,183,182,184,-1,183,184,185,-1,185,184,186,-1,185,186,187,-1,187,186,188,-1,187,188,189,-1,189,188,173,-1,189,173,172,-1,190,191,192,-1,190,192,193,-1,193,192,194,-1,193,194,195,-1,195,194,196,-1,195,196,197,-1,197,196,198,-1,197,198,199,-1,199,198,200,-1,199,200,201,-1,201,200,202,-1,201,202,203,-1,203,202,177,-1,203,177,176,-1,126,128,204,-1,126,204,205,-1,205,204,206,-1,205,206,207,-1,207,206,191,-1,207,191,190,-1,193,131,190,-1,190,131,134,-1,190,134,207,-1,207,134,130,-1,207,130,205,-1,205,130,127,-1,205,127,126,-1,170,166,175,-1,175,166,169,-1,175,169,172,-1,172,169,152,-1,172,152,189,-1,189,152,155,-1,189,155,187,-1,187,155,157,-1,187,157,185,-1,185,157,159,-1,185,159,183,-1,183,159,161,-1,183,161,181,-1,181,161,163,-1,181,163,179,-1,179,163,165,-1,179,165,176,-1,176,165,150,-1,176,150,203,-1,203,150,148,-1,203,148,201,-1,201,148,146,-1,201,146,199,-1,199,146,144,-1,199,144,197,-1,197,144,142,-1,197,142,195,-1,195,142,140,-1,195,140,193,-1,193,140,138,-1,193,138,131,-1,208,209,210,-1,210,209,211,-1,209,212,211,-1,211,212,213,-1,212,214,213,-1,213,214,215,-1,214,216,215,-1,215,216,217,-1,216,218,217,-1,217,218,219,-1,218,208,219,-1,219,208,210,-1,216,214,218,-1,218,214,212,-1,218,212,208,-1,208,212,209,-1,
        ]
    }
}
Shape{
    appearance Appearance {
        material  Material 	{
            diffuseColor 0.996078431372549 0.8705882352941177 0.7607843137254902
            specularColor 0.4980392156862745 0.43529411764705883 0.3803921568627451
            ambientIntensity 0.8956
            transparency 0.0
            shininess 0.5
        }
    }
    geometry IndexedFaceSet {
        ccw TRUE
        solid FALSE
        coord DEF co Coordinate {
            point [
                -0.3313 -0.3728 0.9449, -0.3972 -0.3728 0.9449, -0.3607 -0.2906 0.9449, -0.3675 -0.2906 0.9449, -0.3626 -0.2838 0.9449, -0.3658 -0.2837 0.9449, -0.3638 -0.2768 0.9449, -0.3645 -0.2768 0.9449, -0.1306 -0.2744 0.9449, -0.1306 -0.428 0.9449, -0.1597 -0.2744 0.9449, -0.1586 -0.428 0.9449, -0.1794 -0.4261 0.9449, -0.2363 -0.3493 0.9449, -0.2346 -0.3297 0.9449, -0.23 -0.3141 0.9449, -0.183 -0.2769 0.9449, -0.1959 -0.4209 0.9449, -0.2094 -0.413 0.9449, -0.2204 -0.4021 0.9449, -0.2287 -0.3885 0.9449, -0.2345 -0.37 0.9449, -0.2232 -0.302 0.9449, -0.2136 -0.2918 0.9449, -0.1992 -0.2826 0.9449
            ]
        }
        coordIndex [
            0,1,2,-1,2,1,3,-1,2,3,4,-1,4,3,5,-1,4,5,6,-1,6,5,7,-1,8,9,10,-1,10,9,11,-1,10,11,12,-1,13,14,10,-1,10,14,15,-1,10,15,16,-1,12,17,10,-1,10,17,18,-1,10,18,19,-1,19,20,10,-1,10,20,21,-1,10,21,13,-1,22,23,15,-1,15,23,24,-1,15,24,16,-1,
        ]
    }
}