M48
; DRILL file KiCad 10.0.4-10.0.4~ubuntu24.04.1 date 2026-07-29T22:45:10
; FORMAT={-:-/ absolute / metric / decimal}
; #@! TF.CreationDate,2026-07-29T22:45:10-07:00
; #@! TF.GenerationSoftware,Kicad,Pcbnew,10.0.4-10.0.4~ubuntu24.04.1
; #@! TF.FileFunction,Plated,1,4,PTH
FMAT,2
METRIC
; #@! TA.AperFunction,Plated,PTH,ViaDrill
T1C0.150
; #@! TA.AperFunction,Plated,PTH,ComponentDrill
T2C0.800
; #@! TA.AperFunction,Plated,PTH,ComponentDrill
T3C0.950
; #@! TA.AperFunction,Plated,PTH,ComponentDrill
T4C1.000
; #@! TA.AperFunction,Plated,PTH,ComponentDrill
T5C1.200
; #@! TA.AperFunction,Plated,PTH,ComponentDrill
T6C1.770
%
G90
G05
T1
X16.1Y-15.9
X16.61Y-59.72
X17.1Y-14.9
X17.46Y-59.72
X17.8Y-23.8
X18.1Y-20.4
X18.6Y-82.9
X18.85Y-67.7
X18.85Y-70.0
X18.96Y-85.5
X19.1Y-19.4
X19.2Y-80.1
X19.9Y-80.8
X19.95Y-75.2
X20.0Y-16.9
X20.0Y-20.4
X20.0Y-58.0
X20.0Y-66.0
X20.0Y-74.0
X20.0Y-90.0
X20.05Y-82.11
X20.6Y-18.2
X20.8Y-24.2
X21.0Y-30.9
X21.1Y-29.8
X21.52Y-81.91
X21.52Y-88.41
X21.8Y-23.2
X22.12Y-74.9
X22.3Y-79.8
X22.3Y-80.5
X22.3Y-82.6
X22.31Y-90.4
X22.6Y-21.3
X22.6Y-23.8
X22.8Y-83.9
X23.3Y-80.0
X23.3Y-82.6
X23.5Y-63.13
X23.68Y-74.9
X25.15Y-68.9
X25.15Y-70.0
X25.18Y-90.4
X25.77Y-98.35
X26.68Y-76.1
X27.3Y-81.2
X27.3Y-82.0
X27.39Y-59.72
X27.9Y-90.6
X28.0Y-66.0
X28.05Y-70.0
X28.24Y-59.72
X28.5Y-80.5
X28.5Y-82.0
X28.6Y-84.7
X28.88Y-95.15
X29.06Y-88.95
X29.2Y-86.8
X29.5Y-19.2
X29.6Y-85.7
X29.8Y-76.6
X29.8Y-78.0
X29.9Y-90.7
X29.95Y-70.0
X30.3Y-89.3
X30.6Y-92.8
X30.6Y-94.0
X30.78Y-80.0
X31.0Y-85.05
X31.27Y-91.0
X31.58Y-89.91
X31.6Y-17.9
X31.6Y-43.1
X31.7Y-96.4
X31.8Y-76.0
X31.94Y-70.0
X32.4Y-81.5
X32.4Y-82.5
X32.7Y-16.0
X32.9Y-96.7
X32.9Y-97.6
X33.0Y-83.1
X33.1Y-16.4
X33.7Y-93.5
X33.7Y-98.1
X34.01Y-88.0
X34.05Y-55.0
X34.5Y-93.3
X35.3Y-92.0
X36.0Y-66.0
X36.0Y-90.0
X36.8Y-52.0
X37.48Y-76.0
X38.2Y-76.7
X38.2Y-96.0
X38.23Y-98.35
X39.0Y-96.8
X39.3Y-87.6
X39.3Y-88.6
X39.5Y-54.1
X39.8Y-89.5
X40.3Y-59.9
X40.3Y-80.6
X40.6Y-86.5
X40.6Y-87.4
X40.9Y-77.8
X40.95Y-68.0
X41.0Y-19.4
X41.2Y-89.3
X41.3Y-58.9
X41.3Y-76.5
X41.7Y-90.4
X42.0Y-20.4
X42.0Y-64.0
X42.2Y-21.3
X42.6Y-79.4
X42.7Y-21.8
X42.7Y-76.8
X42.8Y-70.7
X42.9Y-20.6
X43.15Y-74.94
X43.2Y-22.3
X43.2Y-69.5
X43.3Y-73.5
X43.6Y-69.9
X43.6Y-82.5
X43.6Y-84.7
X43.7Y-83.2
X44.0Y-66.0
X44.0Y-90.0
X44.1Y-21.8
X44.1Y-83.6
X44.26Y-81.37
X44.48Y-80.44
X44.6Y-25.1
X44.7Y-23.3
X44.9Y-82.0
X45.0Y-88.1
X45.062Y-90.95
X45.4Y-69.7
X45.6Y-19.4
X45.6Y-23.3
X45.7Y-39.6
X45.8Y-89.7
X46.275Y-87.0
X46.4Y-76.2
X46.5Y-69.7
X46.5Y-72.0
X46.5Y-78.6
X46.6Y-73.0
X46.6Y-86.1
X46.7Y-39.6
X46.8Y-18.4
X46.8Y-20.6
X47.0Y-80.1
X47.1Y-77.6
X47.1Y-78.6
X47.1Y-86.6
X47.5Y-85.2
X47.77Y-98.35
X47.8Y-74.4
X47.8Y-83.2
X47.8Y-91.7
X47.8Y-96.5
X47.92Y-72.29
X48.01Y-92.6
X48.2Y-84.0
X48.58Y-71.2
X48.6Y-78.6
X48.7Y-80.5
X48.775Y-76.0
X49.062Y-90.93
X49.3Y-86.5
X49.3Y-91.7
X49.6Y-89.2
X49.6Y-96.5
X49.8Y-75.6
X49.8Y-77.4
X49.9Y-84.7
X49.94Y-58.95
X50.0Y-78.4
X50.3Y-80.2
X50.3Y-87.5
X50.3Y-89.9
X50.3Y-98.5
X50.4Y-82.2
X50.6Y-72.5
X50.7Y-78.6
X50.88Y-95.15
X50.9Y-87.5
X51.0Y-86.4
X51.1Y-85.3
X51.4Y-89.2
X51.4Y-91.2
X51.6Y-82.1
X51.7Y-81.4
X51.9Y-78.6
X52.0Y-58.0
X52.0Y-87.75
X52.1Y-76.9
X52.1Y-89.3
X52.2Y-83.6
X52.3Y-75.5
X52.3Y-98.5
X52.4Y-84.2
X52.48Y-87.0
X52.7Y-66.0
X52.8Y-83.3
X52.8Y-84.8
X52.9Y-55.0
X52.9Y-85.5
X53.0Y-73.7
X53.3Y-54.16
X53.3Y-89.6
X53.8Y-81.7
X53.9Y-76.7
X53.9Y-94.7
X54.1Y-94.0
X54.23Y-98.16
X54.28Y-84.8
X54.28Y-89.2
X54.7Y-90.0
X54.7Y-93.3
X55.2Y-94.1
X55.3Y-93.0
X55.4Y-80.9
X55.4Y-85.1
X55.4Y-90.5
X55.8Y-54.2
X55.8Y-85.5
X56.0Y-77.9
X56.2Y-59.2
X56.2Y-88.5
X56.4Y-75.9
X56.4Y-77.4
X56.4Y-90.5
X56.56Y-84.7
X56.68Y-89.2
X56.7Y-93.4
X56.9Y-80.0
X56.9Y-86.0
X56.94Y-57.4
X56.94Y-75.12
X57.0Y-80.9
X57.2Y-55.5
X57.48Y-60.0
X57.48Y-90.5
X57.75Y-53.7
X57.78Y-56.14
X58.13Y-58.46
X58.4Y-80.9
X58.48Y-87.0
X58.6Y-54.1
X58.72Y-55.22
X58.9Y-91.8
X58.9Y-95.5
X59.0Y-77.8
X59.1Y-56.7
X59.1Y-62.5
X59.2Y-67.4
X59.2Y-79.9
X59.2Y-84.6
X59.2Y-85.9
X59.28Y-88.4
X59.417Y-77.53
X59.5Y-55.8
X59.5Y-91.1
X59.88Y-63.2
X60.0Y-56.6
X60.0Y-82.0
X60.1Y-66.5
X60.1Y-79.4
X60.14Y-75.05
X60.23Y-98.35
X60.3Y-59.2
X60.32Y-80.9
X60.5Y-86.1
X60.5Y-86.9
X60.7Y-80.0
X60.88Y-55.91
X60.9Y-100.5
X61.0Y-57.8
X61.2Y-75.5
X61.305Y-81.055
X61.7Y-44.6
X61.7Y-91.1
X61.8Y-73.6
X61.8Y-74.9
X61.8Y-99.6
X61.87Y-56.34
X62.075Y-92.8
X62.1Y-58.5
X62.16Y-57.4
X62.3Y-59.9
X62.3Y-62.5
X62.4Y-76.2
X62.65Y-55.89
X62.7Y-99.3
X62.96Y-58.18
X63.2Y-100.9
X63.22Y-80.9
X63.3Y-49.6
X63.3Y-93.4
X63.4Y-72.1
X63.5Y-60.8
X64.0Y-76.2
X64.1Y-48.8
X64.18Y-80.9
X64.2Y-72.5
X64.5Y-58.0
X64.51Y-60.0
X64.7Y-77.7
X64.987Y-78.95
X65.0Y-60.7
X65.15Y-68.0
X65.68Y-73.1
X65.86Y-75.05
X67.0Y-71.7
X67.3Y-52.0
X67.3Y-76.9
X67.4Y-97.4
X67.51Y-61.0
X67.6Y-78.2
X67.9Y-76.3
X67.9Y-79.1
X68.0Y-58.0
X68.0Y-66.0
X68.0Y-90.0
X68.2Y-72.9
X68.4Y-74.5
X68.5Y-75.1
X68.5Y-76.2
X68.51Y-56.0
X68.6Y-80.0
X68.9Y-78.7
X69.5Y-77.7
X69.5Y-80.0
X69.7Y-76.8
X69.9Y-83.0
X69.9Y-83.8
X70.0Y-82.3
X70.1Y-77.8
X70.13Y-85.04
X70.98Y-84.0
X71.2Y-81.1
X71.2Y-100.5
X71.53Y-65.36
X71.53Y-66.64
X71.53Y-70.44
X72.0Y-101.0
X72.1Y-99.6
X72.3Y-66.0
X72.9Y-67.7
X73.2Y-70.1
X73.3Y-69.6
X73.5Y-66.8
X73.5Y-67.7
X73.8Y-21.8
X74.0Y-66.8
X74.0Y-87.9
X74.3Y-22.3
X75.1Y-23.8
X75.16Y-59.43
X75.24Y-57.5
X75.5Y-21.4
X76.0Y-66.0
X76.0Y-74.0
X76.0Y-82.0
X76.0Y-90.0
X76.1Y-20.4
X76.2Y-39.7
X76.3Y-85.6
X76.47Y-61.55
X77.2Y-39.7
X77.7Y-58.1
X78.8Y-91.5
X78.9Y-55.3
X78.9Y-57.7
X79.02Y-66.0
X79.3Y-27.3
X79.36Y-60.0
X79.6Y-92.6
X79.9Y-55.9
X79.98Y-66.0
X80.0Y-26.6
X80.1Y-54.9
X80.2Y-93.2
X80.4Y-92.2
X80.8Y-92.6
X80.9Y-54.1
X80.9Y-55.7
X81.2Y-63.1
X81.3Y-53.7
X81.64Y-59.05
X81.64Y-60.0
X81.7Y-54.9
X81.7Y-63.2
X81.8Y-61.9
X82.0Y-67.9
X82.0Y-95.0
X82.1Y-54.5
X82.5Y-62.4
X82.5Y-64.5
X82.6Y-95.6
X82.9Y-94.1
X83.04Y-63.1
X83.3Y-63.7
X83.8Y-95.6
X83.98Y-63.0
X84.0Y-74.0
X84.0Y-82.0
X84.0Y-90.0
X84.8Y-65.1
X85.8Y-58.3
X85.9Y-66.3
X85.9Y-67.9
X86.7Y-66.2
X86.9Y-100.5
X87.0Y-68.2
X87.1Y-66.9
X87.1Y-67.7
X87.2Y-55.7
X87.3Y-100.9
X87.4Y-68.6
X87.8Y-67.8
X88.2Y-68.2
X88.2Y-82.7
X88.2Y-87.5
X88.2Y-88.0
X88.2Y-88.6
X88.5Y-57.1
X88.5Y-77.7
X88.5Y-80.0
X88.9Y-55.2
X89.1Y-54.6
X89.4Y-96.2
X89.8Y-55.8
X89.9Y-74.4
X90.0Y-14.9
X90.0Y-15.9
X90.2Y-53.2
X90.35Y-64.08
X90.5Y-75.0
X90.5Y-80.2
X90.7Y-71.9
X91.2Y-79.1
X91.6Y-54.6
X91.6Y-58.3
X92.0Y-90.0
X92.4Y-55.7
X92.4Y-56.5
X92.53Y-79.44
X92.6Y-43.1
X92.8Y-80.7
X93.3Y-87.5
X93.3Y-96.2
X95.0Y-65.6
X95.07Y-82.07
X95.5Y-61.5
X95.5Y-63.9
X95.9Y-72.0
X96.1Y-75.6
X96.23Y-81.71
X96.3Y-77.6
X96.33Y-64.36
X96.8Y-66.19
X96.9Y-80.7
X97.0Y-57.8
X97.47Y-70.56
X97.5Y-78.4
X97.5Y-80.6
X97.6Y-51.1
X97.6Y-51.9
X97.6Y-54.5
X97.6Y-55.3
X97.6Y-57.8
X98.2Y-56.5
X98.4Y-55.3
X98.4Y-62.1
X98.4Y-67.7
X98.5Y-99.9
X99.0Y-54.5
X99.3Y-66.8
X99.3Y-81.2
X99.3Y-90.0
X99.4Y-78.4
X99.4Y-79.2
X99.6Y-20.9
X100.0Y-14.9
X100.0Y-15.9
X100.0Y-90.1
X100.1Y-81.4
X100.1Y-98.3
X100.3Y-63.5
X100.5Y-76.7
X100.51Y-88.0
X100.8Y-81.5
X100.86Y-71.0
X100.9Y-54.5
X100.9Y-62.1
X101.1Y-61.5
X101.1Y-77.3
X101.5Y-20.1
X101.6Y-77.1
X102.0Y-75.8
X102.1Y-68.4
X102.14Y-93.88
X102.3Y-93.0
X103.1Y-79.2
X103.14Y-70.05
X103.14Y-71.0
X103.51Y-88.0
X103.6Y-73.3
X103.6Y-79.2
X103.6Y-86.8
X103.7Y-93.8
X104.1Y-73.7
X104.2Y-85.5
X104.8Y-90.5
X104.83Y-95.62
X104.9Y-86.8
X105.0Y-74.6
X105.02Y-71.0
X105.3Y-22.3
X105.4Y-19.0
X105.6Y-38.3
X105.9Y-91.0
X105.98Y-71.0
X106.1Y-37.4
X106.2Y-60.3
X106.4Y-22.2
X106.4Y-93.8
X106.51Y-88.0
X106.7Y-25.1
X107.0Y-65.3
X107.1Y-21.5
X107.2Y-22.3
X107.2Y-23.3
X107.2Y-70.5
X107.3Y-96.2
X107.5Y-90.1
X107.7Y-24.5
X107.8Y-19.0
X107.8Y-20.7
X107.8Y-23.3
X107.8Y-66.9
X107.8Y-78.0
X108.0Y-58.0
X108.0Y-74.0
X108.0Y-90.6
X108.1Y-25.6
X108.1Y-71.4
X108.2Y-70.8
X108.2Y-99.9
X108.5Y-71.8
X108.7Y-69.9
X108.7Y-70.7
X108.8Y-24.9
X108.9Y-69.0
X109.0Y-65.9
X109.1Y-63.4
X109.1Y-92.9
X109.4Y-69.8
X109.5Y-68.4
X109.5Y-93.3
X109.8Y-62.2
X110.0Y-22.3
X110.4Y-60.8
X110.5Y-68.6
X110.5Y-69.4
X110.5Y-98.19
X110.7Y-22.3
X110.7Y-85.0
X111.2Y-61.6
X111.2Y-65.7
X111.2Y-74.6
X111.3Y-85.6
X111.4Y-20.8
X111.4Y-68.3
X111.5Y-66.8
X112.05Y-70.2
X112.1Y-82.6
X112.4Y-64.5
X112.4Y-65.7
X112.6Y-83.1
X112.9Y-82.6
X113.0Y-94.4
X113.1Y-81.6
X113.12Y-67.2
X113.3Y-83.0
X113.6Y-82.1
X113.8Y-68.5
X114.1Y-23.3
X114.2Y-91.2
X114.29Y-66.0
X114.3Y-82.8
X114.4Y-93.0
X114.9Y-91.3
X115.0Y-92.4
X115.28Y-67.9
X115.31Y-64.1
X115.4Y-62.9
X115.5Y-66.8
X116.0Y-58.0
X116.0Y-90.0
X116.3Y-63.6
X116.3Y-78.4
X116.3Y-79.2
X116.3Y-93.3
X116.4Y-20.0
X116.5Y-59.7
X116.7Y-54.6
X116.8Y-71.5
X116.9Y-20.3
X117.0Y-79.3
X117.4Y-19.0
X117.53Y-64.09
X117.53Y-65.36
X117.53Y-66.64
X117.53Y-70.44
X118.39Y-98.15
X118.9Y-78.4
X118.9Y-79.2
X118.9Y-88.6
X119.4Y-89.1
X120.1Y-89.2
X120.1Y-90.0
X120.4Y-92.4
X120.9Y-92.9
X121.0Y-100.9
X121.4Y-68.5
X121.6Y-100.4
X121.7Y-89.2
X121.7Y-93.7
X122.3Y-85.8
X122.47Y-61.55
X122.49Y-93.16
X122.5Y-66.6
X122.51Y-86.42
X122.51Y-89.0
X122.51Y-91.5
X122.6Y-65.3
X123.0Y-43.1
X123.2Y-86.6
X123.8Y-64.0
X123.8Y-68.0
X123.8Y-69.4
X123.8Y-70.2
X123.9Y-63.1
X124.0Y-58.0
X124.0Y-74.0
X124.0Y-82.0
X124.4Y-92.6
X124.7Y-89.2
X125.0Y-75.6
X125.0Y-76.6
X125.0Y-77.5
X125.0Y-84.9
X125.0Y-88.4
X125.14Y-95.68
X125.16Y-73.65
X125.36Y-65.5
X125.4Y-72.2
X125.4Y-78.4
X125.4Y-79.2
X125.51Y-84.0
X125.51Y-89.0
X125.51Y-91.5
X125.7Y-85.0
X125.8Y-76.1
X125.9Y-75.6
X126.0Y-72.7
X126.4Y-64.4
X126.4Y-66.8
X126.5Y-66.1
X126.5Y-89.7
X126.838Y-72.35
X126.9Y-79.2
X127.0Y-86.9
X127.03Y-74.93
X127.3Y-90.8
X127.4Y-89.7
X127.64Y-64.55
X127.64Y-65.5
X127.7Y-88.8
X127.7Y-91.7
X127.8Y-82.2
X127.8Y-87.7
X128.3Y-45.6
X128.365Y-91.605
X128.4Y-81.6
X128.51Y-89.0
X128.52Y-73.0
X128.7Y-66.8
X128.8Y-93.2
X128.9Y-46.6
X128.9Y-82.1
X129.0Y-71.2
X129.0Y-72.2
X129.02Y-68.5
X129.23Y-69.46
X129.98Y-68.5
X130.16Y-73.41
X130.24Y-74.3
X130.5Y-95.8
X131.13Y-94.36
X131.6Y-86.0
X132.0Y-66.0
X132.8Y-59.1
X132.9Y-69.8
X133.0Y-78.3
X133.1Y-87.5
X133.11Y-98.15
X133.17Y-83.04
X133.2Y-63.5
X134.2Y-78.8
X134.2Y-84.9
X134.5Y-81.5
X134.7Y-76.6
X134.9Y-85.6
X135.0Y-21.3
X135.1Y-78.0
X135.1Y-81.8
X135.3Y-76.0
X135.3Y-87.9
X135.7Y-62.0
X135.7Y-90.7
X135.9Y-82.975
X136.0Y-80.3
X136.2Y-95.8
X136.5Y-22.8
X136.5Y-81.1
X136.5Y-83.62
X136.6Y-58.5
X136.7Y-70.8
X136.7Y-75.2
X136.83Y-60.7
X137.1Y-21.3
X137.1Y-24.1
X137.4Y-56.8
X137.6Y-29.2
X137.8Y-86.4
X138.9Y-85.3
X139.0Y-56.8
X139.0Y-58.5
X139.06Y-59.45
X139.2Y-93.6
X139.3Y-55.0
X140.0Y-58.0
X140.0Y-66.0
X140.0Y-74.0
X140.43Y-96.6
X140.5Y-81.1
X140.5Y-84.3
X140.5Y-87.6
X140.5Y-92.9
X140.7Y-53.5
X141.3Y-81.1
X141.3Y-82.3
X141.3Y-84.3
X141.3Y-87.6
X141.3Y-92.2
X141.3Y-92.9
X141.3Y-94.2
X141.7Y-77.1
X141.8Y-80.7
X142.2Y-83.8
X142.3Y-66.8
X142.3Y-68.1
X142.6Y-77.1
X142.6Y-78.4
X142.75Y-93.33
X142.8Y-67.7
X143.2Y-62.6
X143.5Y-84.92
X143.5Y-86.22
X143.7Y-23.0
X143.7Y-62.6
X144.1Y-96.3
X144.3Y-65.5
X144.4Y-22.3
X144.5Y-63.7
X144.56Y-69.5
X144.95Y-85.58
X145.2Y-83.9
X145.31Y-63.9
X145.4Y-100.4
X145.5Y-56.2
X145.5Y-57.4
X145.6Y-61.3
X145.7Y-65.5
X145.7Y-90.7
X145.8Y-64.5
X145.8Y-100.0
X145.9Y-67.9
X146.02Y-82.0
X146.1Y-62.7
X146.1Y-79.7
X146.3Y-91.3
X146.3Y-93.2
X146.48Y-58.12
X146.5Y-65.2
X146.84Y-68.55
X146.84Y-69.5
X146.9Y-56.2
X146.985Y-81.955
X147.21Y-55.5
X147.51Y-92.0
X147.53Y-66.44
X147.6Y-56.9
X148.0Y-58.0
X148.0Y-74.0
X148.0Y-99.4
X148.2Y-84.7
X148.5Y-90.4
X148.92Y-68.3
X149.0Y-62.7
X149.6Y-91.7
X149.7Y-61.2
X149.88Y-68.3
X150.0Y-88.7
X150.07Y-84.03
X150.2Y-91.0
X150.2Y-91.7
X150.5Y-62.0
X150.57Y-98.79
X150.86Y-80.0
X151.1Y-53.3
X151.1Y-60.2
X151.4Y-81.5
X151.8Y-82.66
X152.01Y-77.0
X152.2Y-66.7
X152.2Y-73.4
X152.2Y-92.0
X152.2Y-93.7
X152.47Y-57.55
X152.47Y-65.17
X152.8Y-67.1
X152.8Y-82.6
X152.8Y-84.7
X153.1Y-84.3
X153.1Y-91.1
X153.14Y-79.05
X153.4Y-85.3
X153.4Y-92.4
X153.42Y-75.8
X153.9Y-59.4
X153.94Y-76.65
X153.98Y-82.6
X154.0Y-65.4
X154.0Y-67.4
X154.0Y-90.4
X154.2Y-67.9
X154.3Y-89.9
X154.38Y-75.8
X154.5Y-60.0
X154.72Y-63.9
X155.05Y-91.0
X155.2Y-78.0
X155.4Y-72.2
X155.5Y-66.6
X155.68Y-63.9
X156.0Y-58.0
X156.11Y-80.95
X156.2Y-87.4
X156.4Y-38.4
X156.4Y-78.5
X156.86Y-68.0
X156.86Y-74.0
X157.2Y-37.6
X157.2Y-82.4
X157.3Y-72.2
X157.42Y-77.37
X157.6Y-56.0
X157.8Y-70.66
X158.0Y-75.9
X158.1Y-66.8
X158.1Y-81.1
X158.1Y-82.4
X158.2Y-52.2
X158.3Y-80.4
X158.737Y-74.0
X158.738Y-68.0
X158.8Y-75.9
X159.02Y-70.6
X159.02Y-76.6
X159.05Y-91.0
X159.1Y-54.8
X159.1Y-79.5
X159.16Y-80.65
X159.31Y-82.2
X159.4Y-50.2
X159.4Y-52.2
X159.6Y-66.8
X159.6Y-77.8
X159.98Y-70.6
X159.98Y-76.6
X160.2Y-66.2
X160.3Y-56.0
X160.4Y-77.5
X160.4Y-78.2
X160.65Y-79.35
X160.72Y-82.2
X160.85Y-81.34
X160.9Y-68.7
X160.9Y-82.9
X161.0Y-84.2
X161.3Y-65.7
X161.6Y-83.0
X161.8Y-67.8
X161.9Y-81.5
X162.2Y-70.0
X162.3Y-75.0
X162.6Y-63.2
X162.7Y-82.81
X163.06Y-90.95
X163.1Y-69.1
X163.2Y-63.8
X163.6Y-92.8
X163.65Y-98.35
X163.7Y-89.0
X164.0Y-66.0
X164.2Y-93.8
X164.28Y-87.0
X164.8Y-73.2
X164.8Y-95.4
X164.9Y-89.0
X165.1Y-20.3
X165.2Y-73.6
X165.3Y-93.3
X165.8Y-19.6
X165.8Y-96.4
X166.0Y-72.0
X166.5Y-21.8
X166.5Y-23.8
X166.5Y-70.9
X166.75Y-95.15
X166.78Y-92.6
X167.3Y-21.0
X167.3Y-73.3
X167.4Y-94.5
X167.56Y-90.95
X168.0Y-58.7
X168.32Y-61.9
X168.45Y-62.76
X168.86Y-68.0
X169.06Y-80.95
X169.16Y-74.65
X169.39Y-75.95
X169.6Y-58.0
X169.64Y-60.0
X169.8Y-60.7
X169.8Y-70.66
X169.9Y-65.0
X170.1Y-56.0
X170.1Y-59.0
X170.2Y-59.9
X170.6Y-60.6
X170.72Y-76.2
X170.838Y-73.35
X171.02Y-70.6
X171.458Y-67.86
X171.525Y-63.81
X171.68Y-76.2
X171.7Y-73.1
X171.98Y-70.6
X172.0Y-74.0
X172.0Y-90.0
X172.2Y-94.4
X172.22Y-84.6
X172.35Y-98.35
X172.76Y-60.32
X172.9Y-66.5
X173.0Y-95.2
X173.18Y-84.6
X173.21Y-91.2
X173.3Y-78.8
X173.5Y-66.1
X173.7Y-92.9
X174.0Y-78.8
X174.1Y-65.5
X174.1Y-68.5
X174.1Y-92.5
X174.3Y-76.9
X174.5Y-68.9
X174.6Y-80.0
X174.9Y-76.3
X174.9Y-93.3
X175.06Y-90.95
X175.16Y-82.5
X175.3Y-94.2
X175.47Y-65.42
X175.5Y-53.5
X175.8Y-77.3
X175.8Y-80.0
X176.02Y-87.3
X176.06Y-96.85
X176.47Y-57.46
X176.475Y-56.295
X176.6Y-76.3
X176.9Y-54.1
X176.98Y-87.3
X177.1Y-83.7
X177.1Y-84.6
X177.1Y-90.1
X177.1Y-91.5
X177.17Y-96.69
X177.28Y-93.0
X177.44Y-82.5
X177.9Y-60.21
X177.9Y-67.0
X178.13Y-85.79
X178.2Y-84.1
X179.2Y-72.7
X179.35Y-57.73
X179.35Y-64.08
X179.4Y-86.0
X179.5Y-70.8
X179.8Y-68.9
X179.9Y-72.7
X180.0Y-66.0
X180.0Y-80.4
X180.0Y-90.0
X180.24Y-91.27
X180.5Y-69.6
X180.5Y-70.8
X180.6Y-59.6
X180.8Y-53.9
X180.8Y-54.7
X180.86Y-68.0
X181.1Y-70.2
X181.16Y-74.65
X181.3Y-58.1
X181.3Y-62.8
X181.65Y-98.35
X181.99Y-72.07
X182.66Y-76.18
X182.68Y-82.79
X182.838Y-73.35
X183.02Y-70.45
X183.14Y-68.0
X183.3Y-69.8
X183.4Y-75.5
X183.55Y-82.18
X183.57Y-96.33
X183.82Y-76.19
X183.9Y-76.9
X183.98Y-70.6
X184.2Y-85.2
X184.2Y-97.3
X184.75Y-95.15
X184.8Y-84.7
X184.9Y-75.9
X185.0Y-51.3
X185.1Y-68.4
X185.1Y-71.9
X185.2Y-80.4
X185.2Y-84.3
X185.7Y-81.9
X185.7Y-85.1
X186.1Y-53.3
X186.1Y-54.5
X186.1Y-97.3
X186.25Y-81.2
X186.4Y-55.6
X186.78Y-67.5
X187.6Y-55.2
X188.0Y-66.0
X188.04Y-81.2
X188.95Y-71.5
X189.1Y-46.2
X189.9Y-47.4
X189.9Y-53.3
X190.1Y-55.1
X190.35Y-98.35
X190.7Y-60.3
X190.7Y-61.2
X190.7Y-89.7
X191.21Y-55.55
X191.4Y-90.4
X191.7Y-75.2
X191.72Y-59.3
X191.75Y-63.9
X191.9Y-63.0
X193.7Y-64.8
X194.1Y-75.2
X194.3Y-62.25
X194.6Y-70.88
X194.6Y-71.88
X196.31Y-66.4
X196.75Y-75.8
X198.0Y-55.8
X198.0Y-64.2
X198.47Y-68.58
X198.47Y-73.18
X198.6Y-29.2
T2
X22.19Y-30.38
X22.19Y-45.62
X29.81Y-32.92
X29.81Y-43.08
X37.43Y-32.92
X37.43Y-43.08
X45.05Y-30.38
X45.05Y-45.62
X52.67Y-30.38
X52.67Y-45.62
X60.29Y-32.92
X60.29Y-43.08
X67.91Y-32.92
X67.91Y-43.08
X75.53Y-30.38
X75.53Y-45.62
X83.15Y-30.38
X83.15Y-45.62
X90.77Y-32.92
X90.77Y-43.08
X98.39Y-32.92
X98.39Y-43.08
X106.01Y-30.38
X106.01Y-45.62
X113.63Y-30.38
X113.63Y-45.62
X121.25Y-32.92
X121.25Y-43.08
X128.87Y-32.92
X128.87Y-43.08
X136.49Y-30.38
X136.49Y-45.62
X144.11Y-30.38
X144.11Y-45.62
X151.73Y-32.92
X151.73Y-43.08
X159.35Y-32.92
X159.35Y-43.08
X166.97Y-30.38
X166.97Y-45.62
X174.59Y-30.38
X174.59Y-45.62
X182.21Y-32.92
X182.21Y-43.08
X189.83Y-32.92
X189.83Y-43.08
X197.45Y-30.38
X197.45Y-45.62
T3
X148.0Y-97.0
X150.5Y-97.0
X153.0Y-97.0
X155.5Y-97.0
X158.0Y-97.0
T4
X94.0Y-95.0
X94.0Y-97.54
X96.54Y-95.0
X96.54Y-97.54
X99.08Y-95.0
X99.08Y-97.54
X101.62Y-95.0
X101.62Y-97.54
X104.16Y-95.0
X104.16Y-97.54
X106.7Y-95.0
X106.7Y-97.54
X109.24Y-95.0
X109.24Y-97.54
X111.78Y-95.0
X111.78Y-97.54
X114.32Y-95.0
X114.32Y-97.54
X116.86Y-95.0
X116.86Y-97.54
X119.4Y-95.0
X119.4Y-97.54
X121.94Y-95.0
X121.94Y-97.54
X124.48Y-95.0
X124.48Y-97.54
X127.02Y-95.0
X127.02Y-97.54
X129.56Y-95.0
X129.56Y-97.54
X132.1Y-95.0
X132.1Y-97.54
X134.64Y-95.0
X134.64Y-97.54
X137.18Y-95.0
X137.18Y-97.54
X139.72Y-95.0
X139.72Y-97.54
X142.26Y-95.0
X142.26Y-97.54
T5
X195.3Y-89.75
X195.3Y-93.25
X195.3Y-96.75
X195.3Y-100.25
T6
X70.04Y-96.0
X77.96Y-96.0
M30
