%TF.GenerationSoftware,KiCad,Pcbnew,10.0.4-10.0.4~ubuntu24.04.1*%
%TF.CreationDate,2026-07-19T09:45:36-07:00*%
%TF.ProjectId,crow_array_pod,63726f77-5f61-4727-9261-795f706f642e,rev?*%
%TF.SameCoordinates,Original*%
%TF.FileFunction,Copper,L2,Bot*%
%TF.FilePolarity,Positive*%
%FSLAX46Y46*%
G04 Gerber Fmt 4.6, Leading zero omitted, Abs format (unit mm)*
G04 Created by KiCad (PCBNEW 10.0.4-10.0.4~ubuntu24.04.1) date 2026-07-19 09:45:36*
%MOMM*%
%LPD*%
G01*
G04 APERTURE LIST*
%TA.AperFunction,ComponentPad*%
%ADD10R,1.500000X1.500000*%
%TD*%
%TA.AperFunction,ComponentPad*%
%ADD11C,1.500000*%
%TD*%
%TA.AperFunction,ComponentPad*%
%ADD12C,2.300000*%
%TD*%
%TA.AperFunction,ComponentPad*%
%ADD13R,1.700000X1.700000*%
%TD*%
%TA.AperFunction,ComponentPad*%
%ADD14C,1.700000*%
%TD*%
%TA.AperFunction,ViaPad*%
%ADD15C,0.600000*%
%TD*%
%TA.AperFunction,Conductor*%
%ADD16C,0.500000*%
%TD*%
%TA.AperFunction,Conductor*%
%ADD17C,0.600000*%
%TD*%
%TA.AperFunction,Conductor*%
%ADD18C,0.300000*%
%TD*%
%ADD19C,0.300000*%
%ADD20C,0.350000*%
G04 APERTURE END LIST*
D10*
%TO.P,J1,1*%
%TO.N,AUDIO_P*%
X78000000Y-71000000D03*
D11*
%TO.P,J1,2*%
%TO.N,AUDIO_N*%
X79780000Y-69984000D03*
%TO.P,J1,3*%
%TO.N,BEEP_5V*%
X78000000Y-68968000D03*
%TO.P,J1,4*%
%TO.N,5V*%
X79780000Y-67952000D03*
%TO.P,J1,5*%
%TO.N,GND*%
X78000000Y-66936000D03*
%TO.P,J1,6*%
%TO.N,BEEP_RET*%
X79780000Y-65920000D03*
%TO.P,J1,7*%
%TO.N,5V*%
X78000000Y-64904000D03*
%TO.P,J1,8*%
%TO.N,GND*%
X79780000Y-63888000D03*
%TO.P,J1,9*%
%TO.N,unconnected-(J1-LED1A-Pad9)*%
X84600000Y-74300000D03*
%TO.P,J1,10*%
%TO.N,unconnected-(J1-LED1B-Pad10)*%
X84600000Y-72010000D03*
%TO.P,J1,11*%
%TO.N,unconnected-(J1-LED2A-Pad11)*%
X84600000Y-62870000D03*
%TO.P,J1,12*%
%TO.N,unconnected-(J1-LED2B-Pad12)*%
X84600000Y-60580000D03*
D12*
%TO.P,J1,SH*%
%TO.N,SHIELD*%
X78890000Y-75570000D03*
X78890000Y-59310000D03*
%TD*%
D13*
%TO.P,J2,1*%
%TO.N,MIC*%
X139500000Y-70500000D03*
D14*
%TO.P,J2,2*%
%TO.N,GND*%
X139500000Y-73040000D03*
%TD*%
D15*
%TO.N,5V*%
X81700000Y-62600000D03*
X80200000Y-62600000D03*
X81700000Y-69900000D03*
%TO.N,GND*%
X137000000Y-65000000D03*
X131000000Y-77000000D03*
X125000000Y-53000000D03*
X53000000Y-65000000D03*
X77000000Y-53000000D03*
X109250000Y-61500000D03*
X77000000Y-59000000D03*
X59000000Y-77000000D03*
X107000000Y-53000000D03*
X101000000Y-71000000D03*
X125000000Y-77000000D03*
X53000000Y-71000000D03*
X125000000Y-59000000D03*
X65000000Y-71000000D03*
X83000000Y-89000000D03*
X122210000Y-84000000D03*
X65000000Y-89000000D03*
X101000000Y-65000000D03*
X125000000Y-83000000D03*
X83000000Y-53000000D03*
X101000000Y-53000000D03*
X119000000Y-77000000D03*
X65000000Y-83000000D03*
X107000000Y-65000000D03*
X97550000Y-59100000D03*
X71000000Y-59000000D03*
X88640000Y-68790000D03*
X131000000Y-83000000D03*
X119000000Y-59000000D03*
X101000000Y-89000000D03*
X107000000Y-89000000D03*
X137000000Y-89000000D03*
X125000000Y-89000000D03*
X113000000Y-53000000D03*
X59000000Y-71000000D03*
X53000000Y-59000000D03*
X71000000Y-65000000D03*
X71000000Y-53000000D03*
X113000000Y-65000000D03*
X131000000Y-59000000D03*
X83000000Y-65000000D03*
X95000000Y-71000000D03*
X95000000Y-77000000D03*
X119000000Y-71000000D03*
X107000000Y-59000000D03*
X122250000Y-87500000D03*
X113000000Y-59000000D03*
X113000000Y-71000000D03*
X89000000Y-71000000D03*
X100220000Y-68310000D03*
X125000000Y-71000000D03*
X131000000Y-65000000D03*
X65000000Y-59000000D03*
X71000000Y-77000000D03*
X131000000Y-89000000D03*
X119000000Y-53000000D03*
X89000000Y-77000000D03*
X137000000Y-77000000D03*
X89000000Y-65000000D03*
X59000000Y-59000000D03*
X101000000Y-59000000D03*
X137000000Y-53000000D03*
X53000000Y-77000000D03*
X59000000Y-65000000D03*
X107000000Y-83000000D03*
X131000000Y-53000000D03*
X137000000Y-83000000D03*
X113000000Y-77000000D03*
X119000000Y-89000000D03*
X113000000Y-89000000D03*
X137000000Y-59000000D03*
X65000000Y-65000000D03*
X77000000Y-77000000D03*
X95000000Y-83000000D03*
X119000000Y-65000000D03*
X59000000Y-83000000D03*
X53000000Y-83000000D03*
X71000000Y-89000000D03*
%TO.N,BZ_P*%
X77700000Y-83900000D03*
X77700000Y-82300000D03*
%TO.N,BEEP_RET*%
X82400000Y-71700000D03*
%TO.N,AUDIO_P*%
X76900000Y-68200000D03*
X85200000Y-73200000D03*
X92900000Y-58000000D03*
X74200000Y-53600000D03*
X92900000Y-60900000D03*
X92000000Y-61800000D03*
X73200000Y-54600000D03*
%TO.N,AUD_N_I*%
X90000000Y-58300000D03*
X91300000Y-66700000D03*
X90000000Y-59800000D03*
X92600000Y-66700000D03*
%TO.N,AUDIO_N*%
X82600000Y-60700000D03*
X83600000Y-61700000D03*
X83600000Y-70800000D03*
X92600000Y-68000000D03*
X90000000Y-68000000D03*
%TO.N,VMID*%
X106900000Y-70800000D03*
X113500000Y-82600000D03*
X106000000Y-69900000D03*
X114500000Y-83600000D03*
%TO.N,FB_A*%
X103800000Y-77500000D03*
X102500000Y-77500000D03*
%TO.N,MIC*%
X103300000Y-70800000D03*
X106000000Y-70800000D03*
%TO.N,AUD_P_I*%
X90800000Y-59500000D03*
X90800000Y-53800000D03*
%TO.N,B_OUT*%
X95600000Y-66099999D03*
X97900000Y-63800000D03*
%TO.N,AIN*%
X103300000Y-73500000D03*
X100200000Y-66599999D03*
X104600000Y-70100000D03*
X104600000Y-72200000D03*
%TD*%
%TO.N,5V*%
D16*
X81700000Y-62600000D02*
X80200000Y-62600000D01*
X79800000Y-68000000D02*
X81700000Y-69900000D01*
%TO.N,BZ_P*%
D17*
X77700000Y-82300000D02*
X77700000Y-83900000D01*
%TO.N,BEEP_RET*%
X82600000Y-68700000D02*
X79800000Y-65900000D01*
X82400000Y-71700000D02*
X82600000Y-71500000D01*
X82600000Y-71500000D02*
X82600000Y-68700000D01*
%TO.N,AUDIO_P*%
D18*
X92900000Y-60900000D02*
X92900000Y-58000000D01*
X76900000Y-69500000D02*
X76900000Y-68200000D01*
X78000000Y-70600000D02*
X76900000Y-69500000D01*
X92000000Y-61800000D02*
X92900000Y-60900000D01*
X79300000Y-71000000D02*
X81500000Y-73200000D01*
X73200000Y-54600000D02*
X74200000Y-53600000D01*
X81500000Y-73200000D02*
X85200000Y-73200000D01*
X78000000Y-71000000D02*
X78000000Y-70600000D01*
X78000000Y-71000000D02*
X79300000Y-71000000D01*
%TO.N,AUD_N_I*%
X90000000Y-58300000D02*
X90000000Y-59800000D01*
X91300000Y-66700000D02*
X92600000Y-66700000D01*
%TO.N,AUDIO_N*%
X82600000Y-72400000D02*
X83600000Y-71400000D01*
X83600000Y-71400000D02*
X83600000Y-70800000D01*
X90000000Y-68000000D02*
X92600000Y-68000000D01*
X79800000Y-70000000D02*
X82200000Y-72400000D01*
X82200000Y-72400000D02*
X82600000Y-72400000D01*
X83600000Y-61700000D02*
X82600000Y-60700000D01*
%TO.N,VMID*%
X114500000Y-83600000D02*
X113500000Y-82600000D01*
X106900000Y-70800000D02*
X106000000Y-69900000D01*
%TO.N,FB_A*%
X102500000Y-77500000D02*
X103800000Y-77500000D01*
%TO.N,MIC*%
X103300000Y-70800000D02*
X106000000Y-70800000D01*
%TO.N,AUD_P_I*%
X90800000Y-59500000D02*
X90800000Y-53800000D01*
%TO.N,B_OUT*%
X97900000Y-63800000D02*
X95600000Y-66099999D01*
%TO.N,AIN*%
X101100000Y-66599999D02*
X104600000Y-70100000D01*
X100200000Y-66599999D02*
X101100000Y-66599999D01*
X104600000Y-72200000D02*
X103300000Y-73500000D01*
%TD*%
%TA.AperFunction,Conductor*%
%TO.N,GND*%
G36*
X137998421Y-50220185D02*
G01*
X138044176Y-50272989D01*
X138055035Y-50315233D01*
X138085573Y-50722733D01*
X138157521Y-51200069D01*
X138264936Y-51670685D01*
X138407225Y-52131973D01*
X138583567Y-52581283D01*
X138583571Y-52581291D01*
X138583578Y-52581309D01*
X138583586Y-52581325D01*
X138793022Y-53016226D01*
X138793024Y-53016229D01*
X138991208Y-53359493D01*
X139034383Y-53434275D01*
X139306310Y-53833118D01*
X139306315Y-53833125D01*
X139389964Y-53938017D01*
X139566584Y-54159491D01*
X139607287Y-54210530D01*
X139935610Y-54564378D01*
X139935621Y-54564389D01*
X140289469Y-54892712D01*
X140289472Y-54892715D01*
X140289476Y-54892718D01*
X140346279Y-54938017D01*
X140612723Y-55150500D01*
X140666882Y-55193690D01*
X141065725Y-55465617D01*
X141279163Y-55588845D01*
X141483770Y-55706975D01*
X141483773Y-55706977D01*
X141645524Y-55784872D01*
X141918691Y-55916422D01*
X141918712Y-55916430D01*
X141918716Y-55916432D01*
X142368026Y-56092774D01*
X142368038Y-56092777D01*
X142368044Y-56092780D01*
X142829319Y-56235065D01*
X143299938Y-56342480D01*
X143645933Y-56394630D01*
X143777266Y-56414426D01*
X144184767Y-56444964D01*
X144250147Y-56469603D01*
X144291828Y-56525679D01*
X144299500Y-56568617D01*
X144299500Y-87931382D01*
X144279815Y-87998421D01*
X144227011Y-88044176D01*
X144184767Y-88055035D01*
X143777266Y-88085573D01*
X143375914Y-88146067D01*
X143299938Y-88157519D01*
X143299934Y-88157519D01*
X143299933Y-88157520D01*
X142829321Y-88264934D01*
X142829306Y-88264938D01*
X142368049Y-88407216D01*
X142368036Y-88407221D01*
X141918716Y-88583566D01*
X141918696Y-88583574D01*
X141918691Y-88583577D01*
X141918689Y-88583578D01*
X141918674Y-88583585D01*
X141483773Y-88793021D01*
X141483770Y-88793023D01*
X141065731Y-89034379D01*
X140666874Y-89306314D01*
X140289468Y-89607286D01*
X139935620Y-89935609D01*
X139935609Y-89935620D01*
X139607286Y-90289468D01*
X139306314Y-90666874D01*
X139034379Y-91065731D01*
X138793023Y-91483770D01*
X138793021Y-91483773D01*
X138583585Y-91918674D01*
X138583566Y-91918716D01*
X138407221Y-92368036D01*
X138407216Y-92368049D01*
X138264938Y-92829306D01*
X138264934Y-92829321D01*
X138157520Y-93299933D01*
X138085573Y-93777266D01*
X138055035Y-94184767D01*
X138030396Y-94250148D01*
X137974320Y-94291829D01*
X137931382Y-94299500D01*
X56568618Y-94299500D01*
X56501579Y-94279815D01*
X56455824Y-94227011D01*
X56444965Y-94184767D01*
X56414426Y-93777266D01*
X56380721Y-93553650D01*
X56342480Y-93299938D01*
X56235065Y-92829319D01*
X56092780Y-92368044D01*
X56092777Y-92368036D01*
X56092774Y-92368026D01*
X55916432Y-91918716D01*
X55916430Y-91918712D01*
X55916422Y-91918691D01*
X55706977Y-91483774D01*
X55706977Y-91483773D01*
X55706975Y-91483770D01*
X55465620Y-91065731D01*
X55465617Y-91065725D01*
X55193690Y-90666882D01*
X55131457Y-90588845D01*
X54892712Y-90289469D01*
X54564389Y-89935621D01*
X54564378Y-89935610D01*
X54321302Y-89710068D01*
X54321298Y-89710065D01*
X54228583Y-89624038D01*
X58149500Y-89624038D01*
X58149500Y-89875962D01*
X58158948Y-89935615D01*
X58188910Y-90124785D01*
X58266760Y-90364383D01*
X58381132Y-90588848D01*
X58529201Y-90792649D01*
X58529205Y-90792654D01*
X58707345Y-90970794D01*
X58707350Y-90970798D01*
X58838007Y-91065725D01*
X58911155Y-91118870D01*
X59054184Y-91191747D01*
X59135616Y-91233239D01*
X59135618Y-91233239D01*
X59135621Y-91233241D01*
X59375215Y-91311090D01*
X59624038Y-91350500D01*
X59624039Y-91350500D01*
X59875961Y-91350500D01*
X59875962Y-91350500D01*
X60124785Y-91311090D01*
X60364379Y-91233241D01*
X60588845Y-91118870D01*
X60792656Y-90970793D01*
X60970793Y-90792656D01*
X61118870Y-90588845D01*
X61233241Y-90364379D01*
X61311090Y-90124785D01*
X61350500Y-89875962D01*
X61350500Y-89624038D01*
X133149500Y-89624038D01*
X133149500Y-89875962D01*
X133158948Y-89935615D01*
X133188910Y-90124785D01*
X133266760Y-90364383D01*
X133381132Y-90588848D01*
X133529201Y-90792649D01*
X133529205Y-90792654D01*
X133707345Y-90970794D01*
X133707350Y-90970798D01*
X133838007Y-91065725D01*
X133911155Y-91118870D01*
X134054184Y-91191747D01*
X134135616Y-91233239D01*
X134135618Y-91233239D01*
X134135621Y-91233241D01*
X134375215Y-91311090D01*
X134624038Y-91350500D01*
X134624039Y-91350500D01*
X134875961Y-91350500D01*
X134875962Y-91350500D01*
X135124785Y-91311090D01*
X135364379Y-91233241D01*
X135588845Y-91118870D01*
X135792656Y-90970793D01*
X135970793Y-90792656D01*
X136118870Y-90588845D01*
X136233241Y-90364379D01*
X136311090Y-90124785D01*
X136350500Y-89875962D01*
X136350500Y-89624038D01*
X136311090Y-89375215D01*
X136233241Y-89135621D01*
X136233239Y-89135618D01*
X136233239Y-89135616D01*
X136181656Y-89034379D01*
X136118870Y-88911155D01*
X136033043Y-88793024D01*
X135970798Y-88707350D01*
X135970794Y-88707345D01*
X135792654Y-88529205D01*
X135792649Y-88529201D01*
X135588848Y-88381132D01*
X135588847Y-88381131D01*
X135588845Y-88381130D01*
X135518747Y-88345413D01*
X135364383Y-88266760D01*
X135124785Y-88188910D01*
X134875962Y-88149500D01*
X134624038Y-88149500D01*
X134573396Y-88157521D01*
X134375214Y-88188910D01*
X134135616Y-88266760D01*
X133911151Y-88381132D01*
X133707350Y-88529201D01*
X133707345Y-88529205D01*
X133529205Y-88707345D01*
X133529201Y-88707350D01*
X133381132Y-88911151D01*
X133266760Y-89135616D01*
X133188910Y-89375214D01*
X133188910Y-89375215D01*
X133149500Y-89624038D01*
X61350500Y-89624038D01*
X61311090Y-89375215D01*
X61233241Y-89135621D01*
X61233239Y-89135618D01*
X61233239Y-89135616D01*
X61181656Y-89034379D01*
X61118870Y-88911155D01*
X61033043Y-88793024D01*
X60970798Y-88707350D01*
X60970794Y-88707345D01*
X60792654Y-88529205D01*
X60792649Y-88529201D01*
X60588848Y-88381132D01*
X60588847Y-88381131D01*
X60588845Y-88381130D01*
X60518747Y-88345413D01*
X60364383Y-88266760D01*
X60124785Y-88188910D01*
X59875962Y-88149500D01*
X59624038Y-88149500D01*
X59573396Y-88157521D01*
X59375214Y-88188910D01*
X59135616Y-88266760D01*
X58911151Y-88381132D01*
X58707350Y-88529201D01*
X58707345Y-88529205D01*
X58529205Y-88707345D01*
X58529201Y-88707350D01*
X58381132Y-88911151D01*
X58266760Y-89135616D01*
X58188910Y-89375214D01*
X58188910Y-89375215D01*
X58149500Y-89624038D01*
X54228583Y-89624038D01*
X54210524Y-89607282D01*
X54208730Y-89605851D01*
X53833125Y-89306315D01*
X53833118Y-89306310D01*
X53434275Y-89034383D01*
X53411871Y-89021448D01*
X53016229Y-88793024D01*
X53016226Y-88793022D01*
X52652056Y-88617648D01*
X52581309Y-88583578D01*
X52581296Y-88583573D01*
X52581283Y-88583567D01*
X52131973Y-88407225D01*
X51670685Y-88264936D01*
X51670676Y-88264934D01*
X51610867Y-88251283D01*
X51200069Y-88157521D01*
X50722733Y-88085573D01*
X50315233Y-88055035D01*
X50249852Y-88030396D01*
X50208171Y-87974320D01*
X50200500Y-87931382D01*
X50200500Y-82227525D01*
X77149500Y-82227525D01*
X77149500Y-83972475D01*
X77187016Y-84112485D01*
X77187017Y-84112488D01*
X77259488Y-84238011D01*
X77259490Y-84238013D01*
X77259491Y-84238015D01*
X77361985Y-84340509D01*
X77361986Y-84340510D01*
X77361988Y-84340511D01*
X77487511Y-84412982D01*
X77487512Y-84412982D01*
X77487515Y-84412984D01*
X77627525Y-84450500D01*
X77627528Y-84450500D01*
X77772472Y-84450500D01*
X77772475Y-84450500D01*
X77912485Y-84412984D01*
X78038015Y-84340509D01*
X78140509Y-84238015D01*
X78212984Y-84112485D01*
X78250500Y-83972475D01*
X78250500Y-82527525D01*
X112949500Y-82527525D01*
X112949500Y-82672475D01*
X112987016Y-82812485D01*
X112987017Y-82812488D01*
X113059488Y-82938011D01*
X113059490Y-82938013D01*
X113059491Y-82938015D01*
X113161985Y-83040509D01*
X113161986Y-83040510D01*
X113161988Y-83040511D01*
X113287511Y-83112982D01*
X113287512Y-83112982D01*
X113287515Y-83112984D01*
X113427525Y-83150500D01*
X113432745Y-83150500D01*
X113499784Y-83170185D01*
X113520426Y-83186819D01*
X113913181Y-83579573D01*
X113946666Y-83640896D01*
X113949500Y-83667254D01*
X113949500Y-83672475D01*
X113987016Y-83812485D01*
X113987017Y-83812488D01*
X114059488Y-83938011D01*
X114059490Y-83938013D01*
X114059491Y-83938015D01*
X114161985Y-84040509D01*
X114161986Y-84040510D01*
X114161988Y-84040511D01*
X114287511Y-84112982D01*
X114287512Y-84112982D01*
X114287515Y-84112984D01*
X114427525Y-84150500D01*
X114427528Y-84150500D01*
X114572472Y-84150500D01*
X114572475Y-84150500D01*
X114712485Y-84112984D01*
X114838015Y-84040509D01*
X114940509Y-83938015D01*
X115012984Y-83812485D01*
X115050500Y-83672475D01*
X115050500Y-83527525D01*
X115012984Y-83387515D01*
X114940509Y-83261985D01*
X114838015Y-83159491D01*
X114838013Y-83159490D01*
X114838011Y-83159488D01*
X114712488Y-83087017D01*
X114712489Y-83087017D01*
X114701006Y-83083940D01*
X114572475Y-83049500D01*
X114572472Y-83049500D01*
X114567254Y-83049500D01*
X114500215Y-83029815D01*
X114479573Y-83013181D01*
X114086819Y-82620426D01*
X114053334Y-82559103D01*
X114050500Y-82532745D01*
X114050500Y-82527527D01*
X114050500Y-82527525D01*
X114012984Y-82387515D01*
X113940509Y-82261985D01*
X113838015Y-82159491D01*
X113838013Y-82159490D01*
X113838011Y-82159488D01*
X113712488Y-82087017D01*
X113712489Y-82087017D01*
X113701006Y-82083940D01*
X113572475Y-82049500D01*
X113427525Y-82049500D01*
X113298993Y-82083940D01*
X113287511Y-82087017D01*
X113161988Y-82159488D01*
X113161982Y-82159493D01*
X113059493Y-82261982D01*
X113059488Y-82261988D01*
X112987017Y-82387511D01*
X112987016Y-82387515D01*
X112949500Y-82527525D01*
X78250500Y-82527525D01*
X78250500Y-82227525D01*
X78212984Y-82087515D01*
X78212696Y-82087017D01*
X78140511Y-81961988D01*
X78140506Y-81961982D01*
X78038017Y-81859493D01*
X78038011Y-81859488D01*
X77912488Y-81787017D01*
X77912489Y-81787017D01*
X77901006Y-81783940D01*
X77772475Y-81749500D01*
X77627525Y-81749500D01*
X77498993Y-81783940D01*
X77487511Y-81787017D01*
X77361988Y-81859488D01*
X77361982Y-81859493D01*
X77259493Y-81961982D01*
X77259488Y-81961988D01*
X77187017Y-82087511D01*
X77187016Y-82087515D01*
X77149500Y-82227525D01*
X50200500Y-82227525D01*
X50200500Y-77427525D01*
X101949500Y-77427525D01*
X101949500Y-77572475D01*
X101987016Y-77712485D01*
X101987017Y-77712488D01*
X102059488Y-77838011D01*
X102059490Y-77838013D01*
X102059491Y-77838015D01*
X102161985Y-77940509D01*
X102161986Y-77940510D01*
X102161988Y-77940511D01*
X102287511Y-78012982D01*
X102287512Y-78012982D01*
X102287515Y-78012984D01*
X102427525Y-78050500D01*
X102427528Y-78050500D01*
X102572472Y-78050500D01*
X102572475Y-78050500D01*
X102712485Y-78012984D01*
X102838015Y-77940509D01*
X102841705Y-77936819D01*
X102903028Y-77903334D01*
X102929386Y-77900500D01*
X103370614Y-77900500D01*
X103437653Y-77920185D01*
X103458295Y-77936819D01*
X103461985Y-77940509D01*
X103461986Y-77940510D01*
X103461988Y-77940511D01*
X103587511Y-78012982D01*
X103587512Y-78012982D01*
X103587515Y-78012984D01*
X103727525Y-78050500D01*
X103727528Y-78050500D01*
X103872472Y-78050500D01*
X103872475Y-78050500D01*
X104012485Y-78012984D01*
X104138015Y-77940509D01*
X104240509Y-77838015D01*
X104312984Y-77712485D01*
X104350500Y-77572475D01*
X104350500Y-77427525D01*
X104312984Y-77287515D01*
X104240509Y-77161985D01*
X104138015Y-77059491D01*
X104138013Y-77059490D01*
X104138011Y-77059488D01*
X104012488Y-76987017D01*
X104012489Y-76987017D01*
X104001006Y-76983940D01*
X103872475Y-76949500D01*
X103727525Y-76949500D01*
X103598993Y-76983940D01*
X103587511Y-76987017D01*
X103461988Y-77059488D01*
X103461982Y-77059493D01*
X103458295Y-77063181D01*
X103396972Y-77096666D01*
X103370614Y-77099500D01*
X102929386Y-77099500D01*
X102862347Y-77079815D01*
X102841705Y-77063181D01*
X102838017Y-77059493D01*
X102838011Y-77059488D01*
X102712488Y-76987017D01*
X102712489Y-76987017D01*
X102701006Y-76983940D01*
X102572475Y-76949500D01*
X102427525Y-76949500D01*
X102298993Y-76983940D01*
X102287511Y-76987017D01*
X102161988Y-77059488D01*
X102161982Y-77059493D01*
X102059493Y-77161982D01*
X102059488Y-77161988D01*
X101987017Y-77287511D01*
X101987016Y-77287515D01*
X101949500Y-77427525D01*
X50200500Y-77427525D01*
X50200500Y-73667065D01*
X73584500Y-73667065D01*
X73584500Y-73912934D01*
X73597673Y-74012984D01*
X73616591Y-74156677D01*
X73679109Y-74390000D01*
X73680222Y-74394152D01*
X73680225Y-74394162D01*
X73762106Y-74591839D01*
X73774306Y-74621292D01*
X73897233Y-74834208D01*
X73897235Y-74834211D01*
X73897236Y-74834212D01*
X74046897Y-75029254D01*
X74046903Y-75029261D01*
X74220738Y-75203096D01*
X74220744Y-75203101D01*
X74415792Y-75352767D01*
X74628708Y-75475694D01*
X74855847Y-75569778D01*
X75093323Y-75633409D01*
X75337073Y-75665500D01*
X75337080Y-75665500D01*
X75582920Y-75665500D01*
X75582927Y-75665500D01*
X75826677Y-75633409D01*
X76064153Y-75569778D01*
X76291292Y-75475694D01*
X76318859Y-75459778D01*
X77489500Y-75459778D01*
X77489500Y-75680221D01*
X77523985Y-75897952D01*
X77592103Y-76107603D01*
X77592104Y-76107606D01*
X77692187Y-76304025D01*
X77821752Y-76482358D01*
X77821756Y-76482363D01*
X77977636Y-76638243D01*
X77977641Y-76638247D01*
X78133192Y-76751260D01*
X78155978Y-76767815D01*
X78284375Y-76833237D01*
X78352393Y-76867895D01*
X78352396Y-76867896D01*
X78457221Y-76901955D01*
X78562049Y-76936015D01*
X78779778Y-76970500D01*
X78779779Y-76970500D01*
X79000221Y-76970500D01*
X79000222Y-76970500D01*
X79217951Y-76936015D01*
X79427606Y-76867895D01*
X79624022Y-76767815D01*
X79802365Y-76638242D01*
X79958242Y-76482365D01*
X80087815Y-76304022D01*
X80187895Y-76107606D01*
X80256015Y-75897951D01*
X80290500Y-75680222D01*
X80290500Y-75459778D01*
X80256015Y-75242049D01*
X80221955Y-75137221D01*
X80187896Y-75032396D01*
X80187895Y-75032393D01*
X80139687Y-74937781D01*
X80087815Y-74835978D01*
X80071260Y-74813192D01*
X79958247Y-74657641D01*
X79958243Y-74657636D01*
X79802363Y-74501756D01*
X79802358Y-74501752D01*
X79624025Y-74372187D01*
X79624024Y-74372186D01*
X79624022Y-74372185D01*
X79561096Y-74340122D01*
X79427606Y-74272104D01*
X79427603Y-74272103D01*
X79217952Y-74203985D01*
X79109086Y-74186742D01*
X79000222Y-74169500D01*
X78779778Y-74169500D01*
X78707201Y-74180995D01*
X78562047Y-74203985D01*
X78352396Y-74272103D01*
X78352393Y-74272104D01*
X78155974Y-74372187D01*
X77977641Y-74501752D01*
X77977636Y-74501756D01*
X77821756Y-74657636D01*
X77821752Y-74657641D01*
X77692187Y-74835974D01*
X77592104Y-75032393D01*
X77592103Y-75032396D01*
X77523985Y-75242047D01*
X77489500Y-75459778D01*
X76318859Y-75459778D01*
X76504208Y-75352767D01*
X76699256Y-75203101D01*
X76873101Y-75029256D01*
X77022767Y-74834208D01*
X77145694Y-74621292D01*
X77239778Y-74394153D01*
X77303409Y-74156677D01*
X77335500Y-73912927D01*
X77335500Y-73667073D01*
X77303409Y-73423323D01*
X77239778Y-73185847D01*
X77145694Y-72958708D01*
X77022767Y-72745792D01*
X76915968Y-72606609D01*
X76873102Y-72550745D01*
X76873096Y-72550738D01*
X76699261Y-72376903D01*
X76699254Y-72376897D01*
X76504212Y-72227236D01*
X76504211Y-72227235D01*
X76504208Y-72227233D01*
X76320117Y-72120948D01*
X76291294Y-72104307D01*
X76291285Y-72104303D01*
X76064162Y-72010225D01*
X76064155Y-72010223D01*
X76064153Y-72010222D01*
X75826677Y-71946591D01*
X75785939Y-71941227D01*
X75582934Y-71914500D01*
X75582927Y-71914500D01*
X75337073Y-71914500D01*
X75337065Y-71914500D01*
X75105059Y-71945045D01*
X75093323Y-71946591D01*
X74892134Y-72000499D01*
X74855847Y-72010222D01*
X74855837Y-72010225D01*
X74628714Y-72104303D01*
X74628705Y-72104307D01*
X74415787Y-72227236D01*
X74220745Y-72376897D01*
X74220738Y-72376903D01*
X74046903Y-72550738D01*
X74046897Y-72550745D01*
X73897236Y-72745787D01*
X73897233Y-72745791D01*
X73897233Y-72745792D01*
X73886729Y-72763985D01*
X73774307Y-72958705D01*
X73774303Y-72958714D01*
X73680225Y-73185837D01*
X73680222Y-73185847D01*
X73652982Y-73287511D01*
X73616592Y-73423320D01*
X73616590Y-73423331D01*
X73584500Y-73667065D01*
X50200500Y-73667065D01*
X50200500Y-68127525D01*
X76349500Y-68127525D01*
X76349500Y-68272475D01*
X76383805Y-68400500D01*
X76387017Y-68412488D01*
X76459488Y-68538011D01*
X76459493Y-68538017D01*
X76463181Y-68541705D01*
X76496666Y-68603028D01*
X76499500Y-68629386D01*
X76499500Y-69447273D01*
X76499500Y-69552727D01*
X76508688Y-69587016D01*
X76526793Y-69654589D01*
X76548488Y-69692165D01*
X76579520Y-69745913D01*
X76579522Y-69745915D01*
X76963358Y-70129751D01*
X76996843Y-70191074D01*
X76998483Y-70219235D01*
X76999500Y-70219235D01*
X76999500Y-71774678D01*
X77014032Y-71847735D01*
X77014033Y-71847739D01*
X77014034Y-71847740D01*
X77069399Y-71930601D01*
X77152260Y-71985966D01*
X77152264Y-71985967D01*
X77225321Y-72000499D01*
X77225324Y-72000500D01*
X77225326Y-72000500D01*
X78774676Y-72000500D01*
X78774677Y-72000499D01*
X78847740Y-71985966D01*
X78930601Y-71930601D01*
X78985966Y-71847740D01*
X79000500Y-71774674D01*
X79000500Y-71566255D01*
X79020185Y-71499216D01*
X79072989Y-71453461D01*
X79142147Y-71443517D01*
X79205703Y-71472542D01*
X79212181Y-71478574D01*
X81254087Y-73520480D01*
X81345412Y-73573207D01*
X81447273Y-73600500D01*
X83632111Y-73600500D01*
X83699150Y-73620185D01*
X83744905Y-73672989D01*
X83754849Y-73742147D01*
X83735214Y-73793390D01*
X83713370Y-73826081D01*
X83713364Y-73826092D01*
X83637950Y-74008160D01*
X83637947Y-74008170D01*
X83599500Y-74201456D01*
X83599500Y-74201459D01*
X83599500Y-74398541D01*
X83599500Y-74398543D01*
X83599499Y-74398543D01*
X83637947Y-74591829D01*
X83637950Y-74591839D01*
X83713364Y-74773907D01*
X83713371Y-74773920D01*
X83822860Y-74937781D01*
X83822863Y-74937785D01*
X83962214Y-75077136D01*
X83962218Y-75077139D01*
X84126079Y-75186628D01*
X84126092Y-75186635D01*
X84308160Y-75262049D01*
X84308165Y-75262051D01*
X84308169Y-75262051D01*
X84308170Y-75262052D01*
X84501456Y-75300500D01*
X84501459Y-75300500D01*
X84698543Y-75300500D01*
X84828582Y-75274632D01*
X84891835Y-75262051D01*
X85073914Y-75186632D01*
X85237782Y-75077139D01*
X85377139Y-74937782D01*
X85486632Y-74773914D01*
X85562051Y-74591835D01*
X85600500Y-74398541D01*
X85600500Y-74201459D01*
X85600500Y-74201456D01*
X85562052Y-74008170D01*
X85562051Y-74008169D01*
X85562051Y-74008165D01*
X85558928Y-74000625D01*
X85486635Y-73826093D01*
X85486634Y-73826092D01*
X85486632Y-73826086D01*
X85485011Y-73823661D01*
X85484553Y-73822199D01*
X85483759Y-73820712D01*
X85484041Y-73820561D01*
X85464132Y-73756985D01*
X85482615Y-73689604D01*
X85526111Y-73647381D01*
X85538015Y-73640509D01*
X85640509Y-73538015D01*
X85704301Y-73427525D01*
X102749500Y-73427525D01*
X102749500Y-73572475D01*
X102776433Y-73672989D01*
X102787017Y-73712488D01*
X102859488Y-73838011D01*
X102859490Y-73838013D01*
X102859491Y-73838015D01*
X102961985Y-73940509D01*
X102961986Y-73940510D01*
X102961988Y-73940511D01*
X103087511Y-74012982D01*
X103087512Y-74012982D01*
X103087515Y-74012984D01*
X103227525Y-74050500D01*
X103227528Y-74050500D01*
X103372472Y-74050500D01*
X103372475Y-74050500D01*
X103512485Y-74012984D01*
X103638015Y-73940509D01*
X103740509Y-73838015D01*
X103812984Y-73712485D01*
X103850500Y-73572475D01*
X103850500Y-73567254D01*
X103870185Y-73500215D01*
X103886819Y-73479573D01*
X104432639Y-72933753D01*
X138150000Y-72933753D01*
X138150000Y-73146246D01*
X138183242Y-73356127D01*
X138183242Y-73356130D01*
X138248904Y-73558217D01*
X138345375Y-73747550D01*
X138384728Y-73801716D01*
X139017037Y-73169408D01*
X139034075Y-73232993D01*
X139099901Y-73347007D01*
X139192993Y-73440099D01*
X139307007Y-73505925D01*
X139370590Y-73522962D01*
X138738282Y-74155269D01*
X138738282Y-74155270D01*
X138792449Y-74194624D01*
X138981782Y-74291095D01*
X139183870Y-74356757D01*
X139393754Y-74390000D01*
X139606246Y-74390000D01*
X139816127Y-74356757D01*
X139816130Y-74356757D01*
X140018217Y-74291095D01*
X140207554Y-74194622D01*
X140261716Y-74155270D01*
X140261717Y-74155270D01*
X139629408Y-73522962D01*
X139692993Y-73505925D01*
X139807007Y-73440099D01*
X139900099Y-73347007D01*
X139965925Y-73232993D01*
X139982962Y-73169408D01*
X140615270Y-73801717D01*
X140615270Y-73801716D01*
X140654622Y-73747554D01*
X140751095Y-73558217D01*
X140816757Y-73356130D01*
X140816757Y-73356127D01*
X140850000Y-73146246D01*
X140850000Y-72933753D01*
X140816757Y-72723872D01*
X140816757Y-72723869D01*
X140751095Y-72521782D01*
X140654624Y-72332449D01*
X140615270Y-72278282D01*
X140615269Y-72278282D01*
X139982962Y-72910590D01*
X139965925Y-72847007D01*
X139900099Y-72732993D01*
X139807007Y-72639901D01*
X139692993Y-72574075D01*
X139629409Y-72557037D01*
X140261716Y-71924728D01*
X140207550Y-71885375D01*
X140108655Y-71834985D01*
X140057859Y-71787010D01*
X140041064Y-71719189D01*
X140063602Y-71653054D01*
X140118317Y-71609603D01*
X140164950Y-71600500D01*
X140374676Y-71600500D01*
X140374677Y-71600499D01*
X140447740Y-71585966D01*
X140530601Y-71530601D01*
X140585966Y-71447740D01*
X140600500Y-71374674D01*
X140600500Y-69625326D01*
X140600500Y-69625323D01*
X140600499Y-69625321D01*
X140585967Y-69552264D01*
X140585966Y-69552260D01*
X140570969Y-69529815D01*
X140530601Y-69469399D01*
X140447740Y-69414034D01*
X140447739Y-69414033D01*
X140447735Y-69414032D01*
X140374677Y-69399500D01*
X140374674Y-69399500D01*
X138625326Y-69399500D01*
X138625323Y-69399500D01*
X138552264Y-69414032D01*
X138552260Y-69414033D01*
X138469399Y-69469399D01*
X138414033Y-69552260D01*
X138414032Y-69552264D01*
X138399500Y-69625321D01*
X138399500Y-71374678D01*
X138414032Y-71447735D01*
X138414033Y-71447739D01*
X138428754Y-71469770D01*
X138469399Y-71530601D01*
X138522760Y-71566255D01*
X138552260Y-71585966D01*
X138552264Y-71585967D01*
X138625321Y-71600499D01*
X138625324Y-71600500D01*
X138835051Y-71600500D01*
X138902090Y-71620185D01*
X138947845Y-71672989D01*
X138957789Y-71742147D01*
X138928764Y-71805703D01*
X138891346Y-71834985D01*
X138792439Y-71885380D01*
X138738282Y-71924727D01*
X138738282Y-71924728D01*
X139370591Y-72557037D01*
X139307007Y-72574075D01*
X139192993Y-72639901D01*
X139099901Y-72732993D01*
X139034075Y-72847007D01*
X139017037Y-72910591D01*
X138384728Y-72278282D01*
X138384727Y-72278282D01*
X138345380Y-72332439D01*
X138248904Y-72521782D01*
X138183242Y-72723869D01*
X138183242Y-72723872D01*
X138150000Y-72933753D01*
X104432639Y-72933753D01*
X104579573Y-72786819D01*
X104640896Y-72753334D01*
X104667254Y-72750500D01*
X104672472Y-72750500D01*
X104672475Y-72750500D01*
X104812485Y-72712984D01*
X104938015Y-72640509D01*
X105040509Y-72538015D01*
X105112984Y-72412485D01*
X105150500Y-72272475D01*
X105150500Y-72127525D01*
X105112984Y-71987515D01*
X105112090Y-71985967D01*
X105040511Y-71861988D01*
X105040506Y-71861982D01*
X104938017Y-71759493D01*
X104938011Y-71759488D01*
X104812488Y-71687017D01*
X104812489Y-71687017D01*
X104801006Y-71683940D01*
X104672475Y-71649500D01*
X104527525Y-71649500D01*
X104398993Y-71683940D01*
X104387511Y-71687017D01*
X104261988Y-71759488D01*
X104261982Y-71759493D01*
X104159493Y-71861982D01*
X104159488Y-71861988D01*
X104087017Y-71987511D01*
X104087016Y-71987515D01*
X104049500Y-72127525D01*
X104049500Y-72127527D01*
X104049500Y-72132745D01*
X104029815Y-72199784D01*
X104013181Y-72220426D01*
X103320426Y-72913181D01*
X103259103Y-72946666D01*
X103232745Y-72949500D01*
X103227525Y-72949500D01*
X103098993Y-72983940D01*
X103087511Y-72987017D01*
X102961988Y-73059488D01*
X102961982Y-73059493D01*
X102859493Y-73161982D01*
X102859488Y-73161988D01*
X102787017Y-73287511D01*
X102787016Y-73287515D01*
X102749500Y-73427525D01*
X85704301Y-73427525D01*
X85712984Y-73412485D01*
X85750500Y-73272475D01*
X85750500Y-73127525D01*
X85712984Y-72987515D01*
X85712696Y-72987017D01*
X85640511Y-72861988D01*
X85640506Y-72861982D01*
X85538017Y-72759493D01*
X85538015Y-72759491D01*
X85482716Y-72727564D01*
X85434501Y-72676996D01*
X85421279Y-72608389D01*
X85441616Y-72551285D01*
X85441978Y-72550744D01*
X85486632Y-72483914D01*
X85562051Y-72301835D01*
X85578743Y-72217922D01*
X85600500Y-72108543D01*
X85600500Y-71911456D01*
X85562052Y-71718170D01*
X85562051Y-71718169D01*
X85562051Y-71718165D01*
X85543339Y-71672989D01*
X85486635Y-71536092D01*
X85486628Y-71536079D01*
X85377139Y-71372218D01*
X85377136Y-71372214D01*
X85237785Y-71232863D01*
X85237781Y-71232860D01*
X85073920Y-71123371D01*
X85073907Y-71123364D01*
X84891839Y-71047950D01*
X84891829Y-71047947D01*
X84698543Y-71009500D01*
X84698541Y-71009500D01*
X84501459Y-71009500D01*
X84501457Y-71009500D01*
X84308170Y-71047947D01*
X84302338Y-71049717D01*
X84301818Y-71048003D01*
X84240730Y-71054554D01*
X84178259Y-71023261D01*
X84142624Y-70963162D01*
X84143006Y-70900439D01*
X84150500Y-70872475D01*
X84150500Y-70727525D01*
X84112984Y-70587515D01*
X84084321Y-70537870D01*
X84040511Y-70461988D01*
X84040506Y-70461982D01*
X83938017Y-70359493D01*
X83938011Y-70359488D01*
X83812488Y-70287017D01*
X83812489Y-70287017D01*
X83791160Y-70281302D01*
X83672475Y-70249500D01*
X83527525Y-70249500D01*
X83408840Y-70281302D01*
X83387511Y-70287017D01*
X83336500Y-70316469D01*
X83268600Y-70332942D01*
X83202573Y-70310089D01*
X83159382Y-70255168D01*
X83150500Y-70209082D01*
X83150500Y-68627527D01*
X83150500Y-68627525D01*
X83112984Y-68487515D01*
X83085845Y-68440509D01*
X83040510Y-68361985D01*
X82606050Y-67927525D01*
X89449500Y-67927525D01*
X89449500Y-68072475D01*
X89477321Y-68176303D01*
X89487017Y-68212488D01*
X89559488Y-68338011D01*
X89559490Y-68338013D01*
X89559491Y-68338015D01*
X89661985Y-68440509D01*
X89661987Y-68440510D01*
X89787511Y-68512982D01*
X89787512Y-68512982D01*
X89787515Y-68512984D01*
X89927525Y-68550500D01*
X89927528Y-68550500D01*
X90072472Y-68550500D01*
X90072475Y-68550500D01*
X90212485Y-68512984D01*
X90338015Y-68440509D01*
X90341705Y-68436819D01*
X90403028Y-68403334D01*
X90429386Y-68400500D01*
X92170614Y-68400500D01*
X92237653Y-68420185D01*
X92258295Y-68436819D01*
X92261985Y-68440509D01*
X92261987Y-68440510D01*
X92387511Y-68512982D01*
X92387512Y-68512982D01*
X92387515Y-68512984D01*
X92527525Y-68550500D01*
X92527528Y-68550500D01*
X92672472Y-68550500D01*
X92672475Y-68550500D01*
X92812485Y-68512984D01*
X92938015Y-68440509D01*
X93040509Y-68338015D01*
X93112984Y-68212485D01*
X93150500Y-68072475D01*
X93150500Y-67927525D01*
X93112984Y-67787515D01*
X93096805Y-67759493D01*
X93040511Y-67661988D01*
X93040506Y-67661982D01*
X92938017Y-67559493D01*
X92938011Y-67559488D01*
X92812488Y-67487017D01*
X92812489Y-67487017D01*
X92806157Y-67485320D01*
X92748137Y-67469773D01*
X92688479Y-67433410D01*
X92657950Y-67370563D01*
X92666245Y-67301187D01*
X92710730Y-67247309D01*
X92748135Y-67230226D01*
X92812485Y-67212984D01*
X92938015Y-67140509D01*
X93040509Y-67038015D01*
X93112984Y-66912485D01*
X93150500Y-66772475D01*
X93150500Y-66627525D01*
X93112984Y-66487515D01*
X93084404Y-66438014D01*
X93040511Y-66361988D01*
X93040506Y-66361982D01*
X92938017Y-66259493D01*
X92938011Y-66259488D01*
X92812488Y-66187017D01*
X92812489Y-66187017D01*
X92785607Y-66179814D01*
X92672475Y-66149500D01*
X92527525Y-66149500D01*
X92414393Y-66179814D01*
X92387511Y-66187017D01*
X92261988Y-66259488D01*
X92261982Y-66259493D01*
X92258295Y-66263181D01*
X92196972Y-66296666D01*
X92170614Y-66299500D01*
X91729386Y-66299500D01*
X91662347Y-66279815D01*
X91641705Y-66263181D01*
X91638017Y-66259493D01*
X91638011Y-66259488D01*
X91512488Y-66187017D01*
X91512489Y-66187017D01*
X91485607Y-66179814D01*
X91372475Y-66149500D01*
X91227525Y-66149500D01*
X91114393Y-66179814D01*
X91087511Y-66187017D01*
X90961988Y-66259488D01*
X90961982Y-66259493D01*
X90859493Y-66361982D01*
X90859488Y-66361988D01*
X90787017Y-66487511D01*
X90787016Y-66487515D01*
X90749500Y-66627525D01*
X90749500Y-66772475D01*
X90778861Y-66882051D01*
X90787017Y-66912488D01*
X90859488Y-67038011D01*
X90859490Y-67038013D01*
X90859491Y-67038015D01*
X90961985Y-67140509D01*
X90961986Y-67140510D01*
X90961988Y-67140511D01*
X91087511Y-67212982D01*
X91087512Y-67212982D01*
X91087515Y-67212984D01*
X91227525Y-67250500D01*
X91227528Y-67250500D01*
X91372472Y-67250500D01*
X91372475Y-67250500D01*
X91512485Y-67212984D01*
X91638015Y-67140509D01*
X91641705Y-67136819D01*
X91703028Y-67103334D01*
X91729386Y-67100500D01*
X92170614Y-67100500D01*
X92237653Y-67120185D01*
X92258295Y-67136819D01*
X92261985Y-67140509D01*
X92261986Y-67140510D01*
X92261988Y-67140511D01*
X92387511Y-67212982D01*
X92387512Y-67212982D01*
X92387515Y-67212984D01*
X92451861Y-67230225D01*
X92511520Y-67266591D01*
X92542049Y-67329438D01*
X92533754Y-67398813D01*
X92489268Y-67452691D01*
X92451862Y-67469774D01*
X92397516Y-67484336D01*
X92387511Y-67487017D01*
X92261988Y-67559488D01*
X92261982Y-67559493D01*
X92258295Y-67563181D01*
X92196972Y-67596666D01*
X92170614Y-67599500D01*
X90429386Y-67599500D01*
X90362347Y-67579815D01*
X90341705Y-67563181D01*
X90338017Y-67559493D01*
X90338011Y-67559488D01*
X90212488Y-67487017D01*
X90212489Y-67487017D01*
X90201006Y-67483940D01*
X90072475Y-67449500D01*
X89927525Y-67449500D01*
X89798993Y-67483940D01*
X89787511Y-67487017D01*
X89661988Y-67559488D01*
X89661982Y-67559493D01*
X89559493Y-67661982D01*
X89559488Y-67661988D01*
X89487017Y-67787511D01*
X89487016Y-67787515D01*
X89449500Y-67927525D01*
X82606050Y-67927525D01*
X80813524Y-66134999D01*
X80812106Y-66132403D01*
X80809579Y-66130868D01*
X80795464Y-66101925D01*
X80780039Y-66073676D01*
X80779857Y-66069922D01*
X80778953Y-66068068D01*
X80779137Y-66055044D01*
X80778060Y-66032785D01*
X80778633Y-66027922D01*
X80778712Y-66027524D01*
X95049500Y-66027524D01*
X95049500Y-66172474D01*
X95082778Y-66296666D01*
X95087017Y-66312487D01*
X95159488Y-66438010D01*
X95159490Y-66438012D01*
X95159491Y-66438014D01*
X95261985Y-66540508D01*
X95261986Y-66540509D01*
X95261988Y-66540510D01*
X95387511Y-66612981D01*
X95387512Y-66612981D01*
X95387515Y-66612983D01*
X95527525Y-66650499D01*
X95527528Y-66650499D01*
X95672472Y-66650499D01*
X95672475Y-66650499D01*
X95812485Y-66612983D01*
X95938015Y-66540508D01*
X95950999Y-66527524D01*
X99649500Y-66527524D01*
X99649500Y-66672474D01*
X99685447Y-66806628D01*
X99687017Y-66812487D01*
X99759488Y-66938010D01*
X99759490Y-66938012D01*
X99759491Y-66938014D01*
X99861985Y-67040508D01*
X99861986Y-67040509D01*
X99861988Y-67040510D01*
X99987511Y-67112981D01*
X99987512Y-67112981D01*
X99987515Y-67112983D01*
X100127525Y-67150499D01*
X100127528Y-67150499D01*
X100272472Y-67150499D01*
X100272475Y-67150499D01*
X100412485Y-67112983D01*
X100538015Y-67040508D01*
X100541705Y-67036818D01*
X100603028Y-67003333D01*
X100629386Y-67000499D01*
X100882745Y-67000499D01*
X100949784Y-67020184D01*
X100970426Y-67036818D01*
X104013181Y-70079573D01*
X104046666Y-70140896D01*
X104046739Y-70141233D01*
X104049500Y-70154097D01*
X104049500Y-70172475D01*
X104069317Y-70246433D01*
X104069971Y-70249479D01*
X104067604Y-70281328D01*
X104066844Y-70313256D01*
X104065032Y-70315932D01*
X104064793Y-70319157D01*
X104045576Y-70344679D01*
X104027682Y-70371118D01*
X104024711Y-70372390D01*
X104022766Y-70374974D01*
X103992805Y-70386053D01*
X103963454Y-70398623D01*
X103957925Y-70398952D01*
X103957234Y-70399208D01*
X103956468Y-70399039D01*
X103948732Y-70399500D01*
X103729386Y-70399500D01*
X103662347Y-70379815D01*
X103641705Y-70363181D01*
X103638017Y-70359493D01*
X103638011Y-70359488D01*
X103512488Y-70287017D01*
X103512489Y-70287017D01*
X103491160Y-70281302D01*
X103372475Y-70249500D01*
X103227525Y-70249500D01*
X103108840Y-70281302D01*
X103087511Y-70287017D01*
X102961988Y-70359488D01*
X102961982Y-70359493D01*
X102859493Y-70461982D01*
X102859488Y-70461988D01*
X102787017Y-70587511D01*
X102787016Y-70587515D01*
X102749500Y-70727525D01*
X102749500Y-70872475D01*
X102786216Y-71009500D01*
X102787017Y-71012488D01*
X102859488Y-71138011D01*
X102859490Y-71138013D01*
X102859491Y-71138015D01*
X102961985Y-71240509D01*
X102961986Y-71240510D01*
X102961988Y-71240511D01*
X103087511Y-71312982D01*
X103087512Y-71312982D01*
X103087515Y-71312984D01*
X103227525Y-71350500D01*
X103227528Y-71350500D01*
X103372472Y-71350500D01*
X103372475Y-71350500D01*
X103512485Y-71312984D01*
X103638015Y-71240509D01*
X103641705Y-71236819D01*
X103703028Y-71203334D01*
X103729386Y-71200500D01*
X105570614Y-71200500D01*
X105637653Y-71220185D01*
X105658295Y-71236819D01*
X105661985Y-71240509D01*
X105661986Y-71240510D01*
X105661988Y-71240511D01*
X105787511Y-71312982D01*
X105787512Y-71312982D01*
X105787515Y-71312984D01*
X105927525Y-71350500D01*
X105927528Y-71350500D01*
X106072472Y-71350500D01*
X106072475Y-71350500D01*
X106212485Y-71312984D01*
X106338015Y-71240509D01*
X106362319Y-71216205D01*
X106423642Y-71182720D01*
X106493334Y-71187704D01*
X106537681Y-71216205D01*
X106561985Y-71240509D01*
X106561986Y-71240510D01*
X106561988Y-71240511D01*
X106687511Y-71312982D01*
X106687512Y-71312982D01*
X106687515Y-71312984D01*
X106827525Y-71350500D01*
X106827528Y-71350500D01*
X106972472Y-71350500D01*
X106972475Y-71350500D01*
X107112485Y-71312984D01*
X107238015Y-71240509D01*
X107340509Y-71138015D01*
X107412984Y-71012485D01*
X107450500Y-70872475D01*
X107450500Y-70727525D01*
X107412984Y-70587515D01*
X107384321Y-70537870D01*
X107340511Y-70461988D01*
X107340506Y-70461982D01*
X107238017Y-70359493D01*
X107238011Y-70359488D01*
X107112488Y-70287017D01*
X107112489Y-70287017D01*
X107091160Y-70281302D01*
X106972475Y-70249500D01*
X106972472Y-70249500D01*
X106967255Y-70249500D01*
X106900216Y-70229815D01*
X106879574Y-70213181D01*
X106586819Y-69920426D01*
X106554802Y-69865123D01*
X106550500Y-69849219D01*
X106550500Y-69827525D01*
X106512984Y-69687515D01*
X106440509Y-69561985D01*
X106338015Y-69459491D01*
X106338013Y-69459490D01*
X106338011Y-69459488D01*
X106212488Y-69387017D01*
X106212489Y-69387017D01*
X106188365Y-69380553D01*
X106072475Y-69349500D01*
X105927525Y-69349500D01*
X105811635Y-69380553D01*
X105787511Y-69387017D01*
X105661988Y-69459488D01*
X105661982Y-69459493D01*
X105559493Y-69561982D01*
X105559488Y-69561988D01*
X105487017Y-69687511D01*
X105487016Y-69687515D01*
X105449500Y-69827525D01*
X105449500Y-69972475D01*
X105478993Y-70082543D01*
X105487017Y-70112488D01*
X105545337Y-70213500D01*
X105546768Y-70219401D01*
X105550744Y-70223989D01*
X105554908Y-70252953D01*
X105561810Y-70281400D01*
X105559824Y-70287138D01*
X105560688Y-70293147D01*
X105548531Y-70319766D01*
X105538958Y-70347427D01*
X105534185Y-70351180D01*
X105531663Y-70356703D01*
X105507041Y-70372525D01*
X105484037Y-70390617D01*
X105476686Y-70392033D01*
X105472885Y-70394477D01*
X105437950Y-70399500D01*
X105251268Y-70399500D01*
X105184229Y-70379815D01*
X105138474Y-70327011D01*
X105128530Y-70257853D01*
X105131490Y-70243419D01*
X105150500Y-70172475D01*
X105150500Y-70027525D01*
X105112984Y-69887515D01*
X105111016Y-69884107D01*
X105040511Y-69761988D01*
X105040506Y-69761982D01*
X104938017Y-69659493D01*
X104938011Y-69659488D01*
X104812488Y-69587017D01*
X104812489Y-69587017D01*
X104801006Y-69583940D01*
X104672475Y-69549500D01*
X104672472Y-69549500D01*
X104667255Y-69549500D01*
X104600216Y-69529815D01*
X104579574Y-69513181D01*
X101345915Y-66279521D01*
X101345914Y-66279520D01*
X101345913Y-66279519D01*
X101300250Y-66253155D01*
X101254589Y-66226792D01*
X101198781Y-66211839D01*
X101152727Y-66199499D01*
X101152726Y-66199499D01*
X100629386Y-66199499D01*
X100562347Y-66179814D01*
X100541705Y-66163180D01*
X100538017Y-66159492D01*
X100538011Y-66159487D01*
X100412488Y-66087016D01*
X100412489Y-66087016D01*
X100384711Y-66079573D01*
X100272475Y-66049499D01*
X100127525Y-66049499D01*
X100015289Y-66079573D01*
X99987511Y-66087016D01*
X99861988Y-66159487D01*
X99861982Y-66159492D01*
X99759493Y-66261981D01*
X99759488Y-66261987D01*
X99687017Y-66387510D01*
X99687016Y-66387514D01*
X99649500Y-66527524D01*
X95950999Y-66527524D01*
X96040509Y-66438014D01*
X96112984Y-66312484D01*
X96150500Y-66172474D01*
X96150500Y-66167254D01*
X96170185Y-66100215D01*
X96186819Y-66079573D01*
X97879573Y-64386819D01*
X97940896Y-64353334D01*
X97967254Y-64350500D01*
X97972472Y-64350500D01*
X97972475Y-64350500D01*
X98112485Y-64312984D01*
X98238015Y-64240509D01*
X98340509Y-64138015D01*
X98412984Y-64012485D01*
X98450500Y-63872475D01*
X98450500Y-63727525D01*
X98412984Y-63587515D01*
X98366949Y-63507781D01*
X98340511Y-63461988D01*
X98340506Y-63461982D01*
X98238017Y-63359493D01*
X98238011Y-63359488D01*
X98112488Y-63287017D01*
X98112489Y-63287017D01*
X98101006Y-63283940D01*
X97972475Y-63249500D01*
X97827525Y-63249500D01*
X97698993Y-63283940D01*
X97687511Y-63287017D01*
X97561988Y-63359488D01*
X97561982Y-63359493D01*
X97459493Y-63461982D01*
X97459488Y-63461988D01*
X97387017Y-63587511D01*
X97387016Y-63587515D01*
X97349500Y-63727525D01*
X97349500Y-63727527D01*
X97349500Y-63732744D01*
X97329815Y-63799783D01*
X97313181Y-63820425D01*
X95620426Y-65513180D01*
X95559103Y-65546665D01*
X95532745Y-65549499D01*
X95527525Y-65549499D01*
X95398993Y-65583939D01*
X95387511Y-65587016D01*
X95261988Y-65659487D01*
X95261982Y-65659492D01*
X95159493Y-65761981D01*
X95159488Y-65761987D01*
X95087017Y-65887510D01*
X95087016Y-65887514D01*
X95049500Y-66027524D01*
X80778712Y-66027524D01*
X80780500Y-66018541D01*
X80780500Y-65821459D01*
X80780500Y-65821456D01*
X80742052Y-65628170D01*
X80742051Y-65628169D01*
X80742051Y-65628165D01*
X80706272Y-65541785D01*
X80666635Y-65446092D01*
X80666628Y-65446079D01*
X80557139Y-65282218D01*
X80557136Y-65282214D01*
X80417785Y-65142863D01*
X80417781Y-65142860D01*
X80253920Y-65033371D01*
X80253907Y-65033364D01*
X80071839Y-64957950D01*
X80071829Y-64957947D01*
X79878543Y-64919500D01*
X79878541Y-64919500D01*
X79681459Y-64919500D01*
X79681457Y-64919500D01*
X79488170Y-64957947D01*
X79488160Y-64957950D01*
X79306092Y-65033364D01*
X79306081Y-65033370D01*
X79193390Y-65108668D01*
X79126713Y-65129545D01*
X79059333Y-65111060D01*
X79012643Y-65059081D01*
X79000500Y-65005565D01*
X79000500Y-64805456D01*
X78962052Y-64612170D01*
X78962051Y-64612169D01*
X78962051Y-64612165D01*
X78962049Y-64612160D01*
X78886635Y-64430092D01*
X78886628Y-64430079D01*
X78777139Y-64266218D01*
X78777136Y-64266214D01*
X78637785Y-64126863D01*
X78637781Y-64126860D01*
X78473920Y-64017371D01*
X78473907Y-64017364D01*
X78291839Y-63941950D01*
X78291829Y-63941947D01*
X78098543Y-63903500D01*
X78098541Y-63903500D01*
X77901459Y-63903500D01*
X77901457Y-63903500D01*
X77708170Y-63941947D01*
X77708160Y-63941950D01*
X77526092Y-64017364D01*
X77526079Y-64017371D01*
X77362218Y-64126860D01*
X77362214Y-64126863D01*
X77222863Y-64266214D01*
X77222860Y-64266218D01*
X77113371Y-64430079D01*
X77113364Y-64430092D01*
X77037950Y-64612160D01*
X77037947Y-64612170D01*
X76999500Y-64805456D01*
X76999500Y-64805459D01*
X76999500Y-65002541D01*
X76999500Y-65002543D01*
X76999499Y-65002543D01*
X77037947Y-65195829D01*
X77037950Y-65195839D01*
X77113364Y-65377907D01*
X77113371Y-65377920D01*
X77222860Y-65541781D01*
X77222863Y-65541785D01*
X77362214Y-65681136D01*
X77362218Y-65681139D01*
X77526079Y-65790628D01*
X77526092Y-65790635D01*
X77708160Y-65866049D01*
X77708165Y-65866051D01*
X77708169Y-65866051D01*
X77708170Y-65866052D01*
X77901456Y-65904500D01*
X77901459Y-65904500D01*
X78098543Y-65904500D01*
X78228582Y-65878632D01*
X78291835Y-65866051D01*
X78473914Y-65790632D01*
X78512399Y-65764917D01*
X78586609Y-65715332D01*
X78653287Y-65694454D01*
X78720667Y-65712938D01*
X78767357Y-65764917D01*
X78779500Y-65818434D01*
X78779500Y-65821459D01*
X78779500Y-66018541D01*
X78779500Y-66018543D01*
X78779499Y-66018543D01*
X78817947Y-66211829D01*
X78817950Y-66211839D01*
X78893364Y-66393907D01*
X78893371Y-66393920D01*
X79002860Y-66557781D01*
X79002863Y-66557785D01*
X79142214Y-66697136D01*
X79142218Y-66697139D01*
X79306079Y-66806628D01*
X79306088Y-66806633D01*
X79341833Y-66821439D01*
X79396236Y-66865280D01*
X79418301Y-66931574D01*
X79401022Y-66999273D01*
X79349885Y-67046884D01*
X79341833Y-67050561D01*
X79306088Y-67065366D01*
X79306079Y-67065371D01*
X79142218Y-67174860D01*
X79142214Y-67174863D01*
X79002863Y-67314214D01*
X79002860Y-67314218D01*
X78893371Y-67478079D01*
X78893364Y-67478092D01*
X78817950Y-67660160D01*
X78817947Y-67660170D01*
X78779500Y-67853456D01*
X78779500Y-68053565D01*
X78759815Y-68120604D01*
X78707011Y-68166359D01*
X78637853Y-68176303D01*
X78586610Y-68156668D01*
X78473918Y-68081370D01*
X78473907Y-68081364D01*
X78291839Y-68005950D01*
X78291829Y-68005947D01*
X78098543Y-67967500D01*
X78098541Y-67967500D01*
X77901459Y-67967500D01*
X77901457Y-67967500D01*
X77708170Y-68005947D01*
X77708160Y-68005950D01*
X77577289Y-68060158D01*
X77507819Y-68067627D01*
X77445340Y-68036351D01*
X77415273Y-67993042D01*
X77412982Y-67987511D01*
X77340511Y-67861988D01*
X77340506Y-67861982D01*
X77238017Y-67759493D01*
X77238011Y-67759488D01*
X77112488Y-67687017D01*
X77112489Y-67687017D01*
X77101006Y-67683940D01*
X76972475Y-67649500D01*
X76827525Y-67649500D01*
X76698993Y-67683940D01*
X76687511Y-67687017D01*
X76561988Y-67759488D01*
X76561982Y-67759493D01*
X76459493Y-67861982D01*
X76459488Y-67861988D01*
X76387017Y-67987511D01*
X76387016Y-67987515D01*
X76349500Y-68127525D01*
X50200500Y-68127525D01*
X50200500Y-60967065D01*
X73584500Y-60967065D01*
X73584500Y-61212934D01*
X73603796Y-61359491D01*
X73616591Y-61456677D01*
X73680222Y-61694152D01*
X73680225Y-61694162D01*
X73768851Y-61908122D01*
X73774306Y-61921292D01*
X73897233Y-62134208D01*
X73897235Y-62134211D01*
X73897236Y-62134212D01*
X74046897Y-62329254D01*
X74046903Y-62329261D01*
X74220738Y-62503096D01*
X74220745Y-62503102D01*
X74318568Y-62578164D01*
X74415792Y-62652767D01*
X74628708Y-62775694D01*
X74855847Y-62869778D01*
X75093323Y-62933409D01*
X75337073Y-62965500D01*
X75337080Y-62965500D01*
X75582920Y-62965500D01*
X75582927Y-62965500D01*
X75826677Y-62933409D01*
X76064153Y-62869778D01*
X76291292Y-62775694D01*
X76504208Y-62652767D01*
X76667426Y-62527525D01*
X79649500Y-62527525D01*
X79649500Y-62672475D01*
X79687016Y-62812485D01*
X79687017Y-62812488D01*
X79759488Y-62938011D01*
X79759490Y-62938013D01*
X79759491Y-62938015D01*
X79861985Y-63040509D01*
X79861986Y-63040510D01*
X79861988Y-63040511D01*
X79987511Y-63112982D01*
X79987512Y-63112982D01*
X79987515Y-63112984D01*
X80127525Y-63150500D01*
X80127528Y-63150500D01*
X80272472Y-63150500D01*
X80272475Y-63150500D01*
X80412485Y-63112984D01*
X80412488Y-63112981D01*
X80419838Y-63109938D01*
X80467289Y-63100500D01*
X81432711Y-63100500D01*
X81480162Y-63109938D01*
X81487513Y-63112983D01*
X81487515Y-63112984D01*
X81627525Y-63150500D01*
X81627528Y-63150500D01*
X81772472Y-63150500D01*
X81772475Y-63150500D01*
X81912485Y-63112984D01*
X82038015Y-63040509D01*
X82140509Y-62938015D01*
X82212984Y-62812485D01*
X82250500Y-62672475D01*
X82250500Y-62527525D01*
X82212984Y-62387515D01*
X82191613Y-62350500D01*
X82140511Y-62261988D01*
X82140506Y-62261982D01*
X82038017Y-62159493D01*
X82038011Y-62159488D01*
X81912488Y-62087017D01*
X81912489Y-62087017D01*
X81901006Y-62083940D01*
X81772475Y-62049500D01*
X81627525Y-62049500D01*
X81543519Y-62072009D01*
X81487513Y-62087016D01*
X81480162Y-62090062D01*
X81432711Y-62099500D01*
X80467289Y-62099500D01*
X80419838Y-62090062D01*
X80412486Y-62087016D01*
X80377482Y-62077637D01*
X80272475Y-62049500D01*
X80127525Y-62049500D01*
X79998993Y-62083940D01*
X79987511Y-62087017D01*
X79861988Y-62159488D01*
X79861982Y-62159493D01*
X79759493Y-62261982D01*
X79759488Y-62261988D01*
X79687017Y-62387511D01*
X79687016Y-62387515D01*
X79649500Y-62527525D01*
X76667426Y-62527525D01*
X76699256Y-62503101D01*
X76699261Y-62503096D01*
X76770641Y-62431717D01*
X76873096Y-62329261D01*
X76873101Y-62329256D01*
X77022767Y-62134208D01*
X77145694Y-61921292D01*
X77239778Y-61694153D01*
X77303409Y-61456677D01*
X77335500Y-61212927D01*
X77335500Y-60967073D01*
X77303409Y-60723323D01*
X77239778Y-60485847D01*
X77237960Y-60481459D01*
X77218461Y-60434384D01*
X77145694Y-60258708D01*
X77022767Y-60045792D01*
X76873101Y-59850744D01*
X76873096Y-59850738D01*
X76699261Y-59676903D01*
X76699254Y-59676897D01*
X76504212Y-59527236D01*
X76504211Y-59527235D01*
X76504208Y-59527233D01*
X76291292Y-59404306D01*
X76291285Y-59404303D01*
X76064163Y-59310225D01*
X76064154Y-59310222D01*
X76064153Y-59310222D01*
X75826677Y-59246591D01*
X75785939Y-59241227D01*
X75582934Y-59214500D01*
X75582927Y-59214500D01*
X75337073Y-59214500D01*
X75337065Y-59214500D01*
X75105059Y-59245045D01*
X75093323Y-59246591D01*
X74855847Y-59310222D01*
X74855837Y-59310225D01*
X74628714Y-59404303D01*
X74628705Y-59404307D01*
X74415787Y-59527236D01*
X74220745Y-59676897D01*
X74220738Y-59676903D01*
X74046903Y-59850738D01*
X74046897Y-59850745D01*
X73897236Y-60045787D01*
X73774307Y-60258705D01*
X73774303Y-60258714D01*
X73680225Y-60485837D01*
X73680222Y-60485847D01*
X73616592Y-60723320D01*
X73616590Y-60723331D01*
X73584500Y-60967065D01*
X50200500Y-60967065D01*
X50200500Y-59199778D01*
X77489500Y-59199778D01*
X77489500Y-59420221D01*
X77523985Y-59637952D01*
X77592103Y-59847603D01*
X77592104Y-59847606D01*
X77657348Y-59975651D01*
X77676117Y-60012488D01*
X77692187Y-60044025D01*
X77821752Y-60222358D01*
X77821756Y-60222363D01*
X77977636Y-60378243D01*
X77977641Y-60378247D01*
X78104775Y-60470614D01*
X78155978Y-60507815D01*
X78284375Y-60573237D01*
X78352393Y-60607895D01*
X78352396Y-60607896D01*
X78457221Y-60641955D01*
X78562049Y-60676015D01*
X78779778Y-60710500D01*
X78779779Y-60710500D01*
X79000221Y-60710500D01*
X79000222Y-60710500D01*
X79217951Y-60676015D01*
X79367190Y-60627525D01*
X82049500Y-60627525D01*
X82049500Y-60772475D01*
X82076124Y-60871835D01*
X82087017Y-60912488D01*
X82159488Y-61038011D01*
X82159490Y-61038013D01*
X82159491Y-61038015D01*
X82261985Y-61140509D01*
X82261986Y-61140510D01*
X82261988Y-61140511D01*
X82387511Y-61212982D01*
X82387512Y-61212982D01*
X82387515Y-61212984D01*
X82527525Y-61250500D01*
X82532745Y-61250500D01*
X82599784Y-61270185D01*
X82620426Y-61286819D01*
X83013181Y-61679573D01*
X83046666Y-61740896D01*
X83049500Y-61767254D01*
X83049500Y-61772475D01*
X83081942Y-61893549D01*
X83087017Y-61912488D01*
X83159488Y-62038011D01*
X83159490Y-62038013D01*
X83159491Y-62038015D01*
X83261985Y-62140509D01*
X83261986Y-62140510D01*
X83261988Y-62140511D01*
X83387511Y-62212982D01*
X83387512Y-62212982D01*
X83387515Y-62212984D01*
X83527525Y-62250500D01*
X83527528Y-62250500D01*
X83588093Y-62250500D01*
X83655132Y-62270185D01*
X83700887Y-62322989D01*
X83710831Y-62392147D01*
X83702654Y-62421950D01*
X83671770Y-62496511D01*
X83637949Y-62578164D01*
X83637947Y-62578170D01*
X83599500Y-62771456D01*
X83599500Y-62771459D01*
X83599500Y-62968541D01*
X83599500Y-62968543D01*
X83599499Y-62968543D01*
X83637947Y-63161829D01*
X83637950Y-63161839D01*
X83713364Y-63343907D01*
X83713371Y-63343920D01*
X83822860Y-63507781D01*
X83822863Y-63507785D01*
X83962214Y-63647136D01*
X83962218Y-63647139D01*
X84126079Y-63756628D01*
X84126092Y-63756635D01*
X84280097Y-63820425D01*
X84308165Y-63832051D01*
X84308169Y-63832051D01*
X84308170Y-63832052D01*
X84501456Y-63870500D01*
X84501459Y-63870500D01*
X84698543Y-63870500D01*
X84828582Y-63844632D01*
X84891835Y-63832051D01*
X85073914Y-63756632D01*
X85237782Y-63647139D01*
X85377139Y-63507782D01*
X85486632Y-63343914D01*
X85562051Y-63161835D01*
X85600500Y-62968541D01*
X85600500Y-62771459D01*
X85600500Y-62771456D01*
X85562052Y-62578170D01*
X85562051Y-62578169D01*
X85562051Y-62578165D01*
X85541076Y-62527527D01*
X85486635Y-62396092D01*
X85486628Y-62396079D01*
X85377139Y-62232218D01*
X85377136Y-62232214D01*
X85237785Y-62092863D01*
X85237781Y-62092860D01*
X85073920Y-61983371D01*
X85073907Y-61983364D01*
X84891839Y-61907950D01*
X84891829Y-61907947D01*
X84698543Y-61869500D01*
X84698541Y-61869500D01*
X84501459Y-61869500D01*
X84501457Y-61869500D01*
X84302191Y-61909137D01*
X84301894Y-61907643D01*
X84281924Y-61907819D01*
X84254705Y-61911495D01*
X84247485Y-61908122D01*
X84239520Y-61908193D01*
X84216287Y-61893549D01*
X84191400Y-61881925D01*
X84187150Y-61875185D01*
X84180411Y-61870938D01*
X84168782Y-61846057D01*
X84154132Y-61822825D01*
X84153428Y-61813207D01*
X84150827Y-61807641D01*
X84149410Y-61787848D01*
X84149510Y-61776168D01*
X84150500Y-61772475D01*
X84150500Y-61727525D01*
X91449500Y-61727525D01*
X91449500Y-61872475D01*
X91479213Y-61983364D01*
X91487017Y-62012488D01*
X91559488Y-62138011D01*
X91559490Y-62138013D01*
X91559491Y-62138015D01*
X91661985Y-62240509D01*
X91661986Y-62240510D01*
X91661988Y-62240511D01*
X91787511Y-62312982D01*
X91787512Y-62312982D01*
X91787515Y-62312984D01*
X91927525Y-62350500D01*
X91927528Y-62350500D01*
X92072472Y-62350500D01*
X92072475Y-62350500D01*
X92212485Y-62312984D01*
X92338015Y-62240509D01*
X92440509Y-62138015D01*
X92512984Y-62012485D01*
X92550500Y-61872475D01*
X92550500Y-61867255D01*
X92570185Y-61800216D01*
X92586819Y-61779574D01*
X92879574Y-61486819D01*
X92940897Y-61453334D01*
X92967255Y-61450500D01*
X92972472Y-61450500D01*
X92972475Y-61450500D01*
X93112485Y-61412984D01*
X93238015Y-61340509D01*
X93340509Y-61238015D01*
X93412984Y-61112485D01*
X93450500Y-60972475D01*
X93450500Y-60827525D01*
X93412984Y-60687515D01*
X93411016Y-60684107D01*
X93340511Y-60561988D01*
X93340506Y-60561982D01*
X93336819Y-60558295D01*
X93303334Y-60496972D01*
X93300500Y-60470614D01*
X93300500Y-58429386D01*
X93320185Y-58362347D01*
X93336819Y-58341705D01*
X93340509Y-58338015D01*
X93412984Y-58212485D01*
X93450500Y-58072475D01*
X93450500Y-57927525D01*
X93412984Y-57787515D01*
X93412696Y-57787017D01*
X93340511Y-57661988D01*
X93340506Y-57661982D01*
X93238017Y-57559493D01*
X93238011Y-57559488D01*
X93112488Y-57487017D01*
X93112489Y-57487017D01*
X93101006Y-57483940D01*
X92972475Y-57449500D01*
X92827525Y-57449500D01*
X92698993Y-57483940D01*
X92687511Y-57487017D01*
X92561988Y-57559488D01*
X92561982Y-57559493D01*
X92459493Y-57661982D01*
X92459488Y-57661988D01*
X92387017Y-57787511D01*
X92387016Y-57787515D01*
X92349500Y-57927525D01*
X92349500Y-58072475D01*
X92387016Y-58212485D01*
X92387017Y-58212488D01*
X92459488Y-58338011D01*
X92459493Y-58338017D01*
X92463181Y-58341705D01*
X92496666Y-58403028D01*
X92499500Y-58429386D01*
X92499500Y-60470614D01*
X92479815Y-60537653D01*
X92463181Y-60558295D01*
X92459493Y-60561982D01*
X92459488Y-60561988D01*
X92387017Y-60687511D01*
X92387016Y-60687515D01*
X92349500Y-60827525D01*
X92349500Y-60827527D01*
X92349500Y-60832745D01*
X92329815Y-60899784D01*
X92313181Y-60920426D01*
X92020426Y-61213181D01*
X91959103Y-61246666D01*
X91932745Y-61249500D01*
X91927525Y-61249500D01*
X91798993Y-61283940D01*
X91787511Y-61287017D01*
X91661988Y-61359488D01*
X91661982Y-61359493D01*
X91559493Y-61461982D01*
X91559488Y-61461988D01*
X91487017Y-61587511D01*
X91487016Y-61587515D01*
X91449500Y-61727525D01*
X84150500Y-61727525D01*
X84150500Y-61660935D01*
X84150505Y-61660353D01*
X84160492Y-61627388D01*
X84170185Y-61594379D01*
X84170602Y-61594016D01*
X84170764Y-61593485D01*
X84197052Y-61571098D01*
X84222989Y-61548624D01*
X84223535Y-61548545D01*
X84223959Y-61548185D01*
X84258129Y-61543571D01*
X84292147Y-61538680D01*
X84292981Y-61538865D01*
X84293200Y-61538836D01*
X84293518Y-61538984D01*
X84302181Y-61540910D01*
X84302191Y-61540863D01*
X84501456Y-61580500D01*
X84501459Y-61580500D01*
X84698543Y-61580500D01*
X84828582Y-61554632D01*
X84891835Y-61542051D01*
X85073914Y-61466632D01*
X85237782Y-61357139D01*
X85377139Y-61217782D01*
X85486632Y-61053914D01*
X85562051Y-60871835D01*
X85591593Y-60723320D01*
X85600500Y-60678543D01*
X85600500Y-60481456D01*
X85562052Y-60288170D01*
X85562051Y-60288169D01*
X85562051Y-60288165D01*
X85549850Y-60258708D01*
X85486635Y-60106092D01*
X85486628Y-60106079D01*
X85377139Y-59942218D01*
X85377136Y-59942214D01*
X85237785Y-59802863D01*
X85237781Y-59802860D01*
X85073920Y-59693371D01*
X85073907Y-59693364D01*
X84891839Y-59617950D01*
X84891829Y-59617947D01*
X84698543Y-59579500D01*
X84698541Y-59579500D01*
X84501459Y-59579500D01*
X84501457Y-59579500D01*
X84308170Y-59617947D01*
X84308160Y-59617950D01*
X84126092Y-59693364D01*
X84126079Y-59693371D01*
X83962218Y-59802860D01*
X83962214Y-59802863D01*
X83822863Y-59942214D01*
X83822860Y-59942218D01*
X83713371Y-60106079D01*
X83713364Y-60106092D01*
X83637950Y-60288160D01*
X83637947Y-60288170D01*
X83599500Y-60481456D01*
X83599500Y-60678545D01*
X83632622Y-60845060D01*
X83626395Y-60914651D01*
X83583532Y-60969829D01*
X83517642Y-60993073D01*
X83449645Y-60977005D01*
X83423324Y-60956932D01*
X83381043Y-60914651D01*
X83186819Y-60720426D01*
X83153334Y-60659103D01*
X83150500Y-60632745D01*
X83150500Y-60627527D01*
X83150500Y-60627525D01*
X83112984Y-60487515D01*
X83112015Y-60485837D01*
X83040511Y-60361988D01*
X83040506Y-60361982D01*
X82938017Y-60259493D01*
X82938011Y-60259488D01*
X82812488Y-60187017D01*
X82812489Y-60187017D01*
X82801006Y-60183940D01*
X82672475Y-60149500D01*
X82527525Y-60149500D01*
X82398993Y-60183940D01*
X82387511Y-60187017D01*
X82261988Y-60259488D01*
X82261982Y-60259493D01*
X82159493Y-60361982D01*
X82159488Y-60361988D01*
X82087017Y-60487511D01*
X82087016Y-60487515D01*
X82049500Y-60627525D01*
X79367190Y-60627525D01*
X79427606Y-60607895D01*
X79624022Y-60507815D01*
X79802365Y-60378242D01*
X79958242Y-60222365D01*
X80087815Y-60044022D01*
X80187895Y-59847606D01*
X80256015Y-59637951D01*
X80290500Y-59420222D01*
X80290500Y-59199778D01*
X80256015Y-58982049D01*
X80187895Y-58772394D01*
X80187895Y-58772393D01*
X80152551Y-58703028D01*
X80087815Y-58575978D01*
X80041685Y-58512485D01*
X79958247Y-58397641D01*
X79958243Y-58397636D01*
X79802363Y-58241756D01*
X79802358Y-58241752D01*
X79782776Y-58227525D01*
X89449500Y-58227525D01*
X89449500Y-58372475D01*
X89487016Y-58512485D01*
X89487017Y-58512488D01*
X89559488Y-58638011D01*
X89559493Y-58638017D01*
X89563181Y-58641705D01*
X89596666Y-58703028D01*
X89599500Y-58729386D01*
X89599500Y-59370614D01*
X89579815Y-59437653D01*
X89563181Y-59458295D01*
X89559493Y-59461982D01*
X89559488Y-59461988D01*
X89487017Y-59587511D01*
X89487016Y-59587515D01*
X89449500Y-59727525D01*
X89449500Y-59872475D01*
X89487016Y-60012485D01*
X89487017Y-60012488D01*
X89559488Y-60138011D01*
X89559490Y-60138013D01*
X89559491Y-60138015D01*
X89661985Y-60240509D01*
X89661986Y-60240510D01*
X89661988Y-60240511D01*
X89787511Y-60312982D01*
X89787512Y-60312982D01*
X89787515Y-60312984D01*
X89927525Y-60350500D01*
X89927528Y-60350500D01*
X90072472Y-60350500D01*
X90072475Y-60350500D01*
X90212485Y-60312984D01*
X90338015Y-60240509D01*
X90440509Y-60138015D01*
X90475147Y-60078019D01*
X90525711Y-60029807D01*
X90594318Y-60016583D01*
X90614607Y-60020243D01*
X90727525Y-60050500D01*
X90727529Y-60050500D01*
X90872472Y-60050500D01*
X90872475Y-60050500D01*
X91012485Y-60012984D01*
X91138015Y-59940509D01*
X91240509Y-59838015D01*
X91312984Y-59712485D01*
X91350500Y-59572475D01*
X91350500Y-59427525D01*
X91312984Y-59287515D01*
X91289356Y-59246591D01*
X91240511Y-59161988D01*
X91240506Y-59161982D01*
X91236819Y-59158295D01*
X91203334Y-59096972D01*
X91200500Y-59070614D01*
X91200500Y-54624038D01*
X133149500Y-54624038D01*
X133149500Y-54875962D01*
X133159328Y-54938011D01*
X133188910Y-55124785D01*
X133266760Y-55364383D01*
X133381132Y-55588848D01*
X133529201Y-55792649D01*
X133529205Y-55792654D01*
X133707345Y-55970794D01*
X133707350Y-55970798D01*
X133815675Y-56049500D01*
X133911155Y-56118870D01*
X134054184Y-56191747D01*
X134135616Y-56233239D01*
X134135618Y-56233239D01*
X134135621Y-56233241D01*
X134375215Y-56311090D01*
X134624038Y-56350500D01*
X134624039Y-56350500D01*
X134875961Y-56350500D01*
X134875962Y-56350500D01*
X135124785Y-56311090D01*
X135364379Y-56233241D01*
X135588845Y-56118870D01*
X135792656Y-55970793D01*
X135970793Y-55792656D01*
X136118870Y-55588845D01*
X136233241Y-55364379D01*
X136311090Y-55124785D01*
X136350500Y-54875962D01*
X136350500Y-54624038D01*
X136311090Y-54375215D01*
X136233241Y-54135621D01*
X136233239Y-54135618D01*
X136233239Y-54135616D01*
X136184779Y-54040509D01*
X136118870Y-53911155D01*
X136062172Y-53833117D01*
X135970798Y-53707350D01*
X135970794Y-53707345D01*
X135792654Y-53529205D01*
X135792649Y-53529201D01*
X135588848Y-53381132D01*
X135588847Y-53381131D01*
X135588845Y-53381130D01*
X135518747Y-53345413D01*
X135364383Y-53266760D01*
X135124785Y-53188910D01*
X134875962Y-53149500D01*
X134624038Y-53149500D01*
X134552346Y-53160855D01*
X134375214Y-53188910D01*
X134135616Y-53266760D01*
X133911151Y-53381132D01*
X133707350Y-53529201D01*
X133707345Y-53529205D01*
X133529205Y-53707345D01*
X133529201Y-53707350D01*
X133381132Y-53911151D01*
X133266760Y-54135616D01*
X133220613Y-54277642D01*
X133188910Y-54375215D01*
X133149500Y-54624038D01*
X91200500Y-54624038D01*
X91200500Y-54229386D01*
X91220185Y-54162347D01*
X91236819Y-54141705D01*
X91240509Y-54138015D01*
X91312984Y-54012485D01*
X91350500Y-53872475D01*
X91350500Y-53727525D01*
X91312984Y-53587515D01*
X91311016Y-53584107D01*
X91240511Y-53461988D01*
X91240506Y-53461982D01*
X91138017Y-53359493D01*
X91138011Y-53359488D01*
X91012488Y-53287017D01*
X91012489Y-53287017D01*
X91001006Y-53283940D01*
X90872475Y-53249500D01*
X90727525Y-53249500D01*
X90598993Y-53283940D01*
X90587511Y-53287017D01*
X90461988Y-53359488D01*
X90461982Y-53359493D01*
X90359493Y-53461982D01*
X90359488Y-53461988D01*
X90287017Y-53587511D01*
X90287016Y-53587515D01*
X90249500Y-53727525D01*
X90249500Y-53872475D01*
X90287016Y-54012485D01*
X90287017Y-54012488D01*
X90359488Y-54138011D01*
X90359493Y-54138017D01*
X90363181Y-54141705D01*
X90396666Y-54203028D01*
X90399500Y-54229386D01*
X90399500Y-57680214D01*
X90379815Y-57747253D01*
X90327011Y-57793008D01*
X90257853Y-57802952D01*
X90220099Y-57789885D01*
X90219999Y-57790128D01*
X90215928Y-57788442D01*
X90213504Y-57787603D01*
X90212492Y-57787018D01*
X90212489Y-57787017D01*
X90201006Y-57783940D01*
X90072475Y-57749500D01*
X89927525Y-57749500D01*
X89798993Y-57783940D01*
X89787511Y-57787017D01*
X89661988Y-57859488D01*
X89661982Y-57859493D01*
X89559493Y-57961982D01*
X89559488Y-57961988D01*
X89487017Y-58087511D01*
X89487016Y-58087515D01*
X89449500Y-58227525D01*
X79782776Y-58227525D01*
X79624025Y-58112187D01*
X79624024Y-58112186D01*
X79624022Y-58112185D01*
X79546082Y-58072472D01*
X79427606Y-58012104D01*
X79427603Y-58012103D01*
X79217952Y-57943985D01*
X79072678Y-57920976D01*
X79000222Y-57909500D01*
X78779778Y-57909500D01*
X78707322Y-57920976D01*
X78562047Y-57943985D01*
X78352396Y-58012103D01*
X78352393Y-58012104D01*
X78155974Y-58112187D01*
X77977641Y-58241752D01*
X77977636Y-58241756D01*
X77821756Y-58397636D01*
X77821752Y-58397641D01*
X77692187Y-58575974D01*
X77592104Y-58772393D01*
X77592103Y-58772396D01*
X77523985Y-58982047D01*
X77489500Y-59199778D01*
X50200500Y-59199778D01*
X50200500Y-56568617D01*
X50220185Y-56501578D01*
X50272989Y-56455823D01*
X50315233Y-56444964D01*
X50722733Y-56414426D01*
X50769215Y-56407419D01*
X51200062Y-56342480D01*
X51670680Y-56235064D01*
X51852768Y-56178897D01*
X52131951Y-56092782D01*
X52131953Y-56092780D01*
X52131956Y-56092780D01*
X52581308Y-55916422D01*
X53016225Y-55706977D01*
X53434274Y-55465616D01*
X53833117Y-55193690D01*
X54210524Y-54892718D01*
X54500092Y-54624038D01*
X58149500Y-54624038D01*
X58149500Y-54875962D01*
X58159328Y-54938011D01*
X58188910Y-55124785D01*
X58266760Y-55364383D01*
X58381132Y-55588848D01*
X58529201Y-55792649D01*
X58529205Y-55792654D01*
X58707345Y-55970794D01*
X58707350Y-55970798D01*
X58815675Y-56049500D01*
X58911155Y-56118870D01*
X59054184Y-56191747D01*
X59135616Y-56233239D01*
X59135618Y-56233239D01*
X59135621Y-56233241D01*
X59375215Y-56311090D01*
X59624038Y-56350500D01*
X59624039Y-56350500D01*
X59875961Y-56350500D01*
X59875962Y-56350500D01*
X60124785Y-56311090D01*
X60364379Y-56233241D01*
X60588845Y-56118870D01*
X60792656Y-55970793D01*
X60970793Y-55792656D01*
X61118870Y-55588845D01*
X61233241Y-55364379D01*
X61311090Y-55124785D01*
X61350500Y-54875962D01*
X61350500Y-54624038D01*
X61341053Y-54564390D01*
X61336999Y-54538796D01*
X61335214Y-54527525D01*
X72649500Y-54527525D01*
X72649500Y-54672475D01*
X72687016Y-54812485D01*
X72687017Y-54812488D01*
X72759488Y-54938011D01*
X72759490Y-54938013D01*
X72759491Y-54938015D01*
X72861985Y-55040509D01*
X72861986Y-55040510D01*
X72861988Y-55040511D01*
X72987511Y-55112982D01*
X72987512Y-55112982D01*
X72987515Y-55112984D01*
X73127525Y-55150500D01*
X73127528Y-55150500D01*
X73272472Y-55150500D01*
X73272475Y-55150500D01*
X73412485Y-55112984D01*
X73538015Y-55040509D01*
X73640509Y-54938015D01*
X73712984Y-54812485D01*
X73750500Y-54672475D01*
X73750500Y-54667254D01*
X73770185Y-54600215D01*
X73786819Y-54579573D01*
X74179573Y-54186819D01*
X74240896Y-54153334D01*
X74267254Y-54150500D01*
X74272472Y-54150500D01*
X74272475Y-54150500D01*
X74412485Y-54112984D01*
X74538015Y-54040509D01*
X74640509Y-53938015D01*
X74712984Y-53812485D01*
X74750500Y-53672475D01*
X74750500Y-53527525D01*
X74712984Y-53387515D01*
X74696805Y-53359493D01*
X74640511Y-53261988D01*
X74640506Y-53261982D01*
X74538017Y-53159493D01*
X74538011Y-53159488D01*
X74412488Y-53087017D01*
X74412489Y-53087017D01*
X74401006Y-53083940D01*
X74272475Y-53049500D01*
X74127525Y-53049500D01*
X73998993Y-53083940D01*
X73987511Y-53087017D01*
X73861988Y-53159488D01*
X73861982Y-53159493D01*
X73759493Y-53261982D01*
X73759488Y-53261988D01*
X73687017Y-53387511D01*
X73687016Y-53387515D01*
X73649500Y-53527525D01*
X73649500Y-53527527D01*
X73649500Y-53532745D01*
X73629815Y-53599784D01*
X73613181Y-53620426D01*
X73220426Y-54013181D01*
X73159103Y-54046666D01*
X73132745Y-54049500D01*
X73127525Y-54049500D01*
X72998993Y-54083940D01*
X72987511Y-54087017D01*
X72861988Y-54159488D01*
X72861982Y-54159493D01*
X72759493Y-54261982D01*
X72759488Y-54261988D01*
X72687017Y-54387511D01*
X72687016Y-54387515D01*
X72649500Y-54527525D01*
X61335214Y-54527525D01*
X61311090Y-54375214D01*
X61257580Y-54210530D01*
X61233241Y-54135621D01*
X61233239Y-54135618D01*
X61233239Y-54135616D01*
X61184779Y-54040509D01*
X61118870Y-53911155D01*
X61062172Y-53833117D01*
X60970798Y-53707350D01*
X60970794Y-53707345D01*
X60792654Y-53529205D01*
X60792649Y-53529201D01*
X60588848Y-53381132D01*
X60588847Y-53381131D01*
X60588845Y-53381130D01*
X60518747Y-53345413D01*
X60364383Y-53266760D01*
X60124785Y-53188910D01*
X59875962Y-53149500D01*
X59624038Y-53149500D01*
X59552346Y-53160855D01*
X59375214Y-53188910D01*
X59135616Y-53266760D01*
X58911151Y-53381132D01*
X58707350Y-53529201D01*
X58707345Y-53529205D01*
X58529205Y-53707345D01*
X58529201Y-53707350D01*
X58381132Y-53911151D01*
X58266760Y-54135616D01*
X58220613Y-54277642D01*
X58188910Y-54375215D01*
X58149500Y-54624038D01*
X54500092Y-54624038D01*
X54564384Y-54564384D01*
X54892718Y-54210524D01*
X55193690Y-53833117D01*
X55465616Y-53434274D01*
X55706977Y-53016225D01*
X55916422Y-52581308D01*
X56092780Y-52131956D01*
X56235064Y-51670680D01*
X56342480Y-51200062D01*
X56414426Y-50722732D01*
X56444965Y-50315233D01*
X56469604Y-50249852D01*
X56525680Y-50208171D01*
X56568618Y-50200500D01*
X137931382Y-50200500D01*
X137998421Y-50220185D01*
G37*
%TD.AperFunction*%
%TD*%
D19*
X81700000Y-62600000D03*
X80200000Y-62600000D03*
X81700000Y-69900000D03*
X137000000Y-65000000D03*
X131000000Y-77000000D03*
X125000000Y-53000000D03*
X53000000Y-65000000D03*
X77000000Y-53000000D03*
X109250000Y-61500000D03*
X77000000Y-59000000D03*
X59000000Y-77000000D03*
X107000000Y-53000000D03*
X101000000Y-71000000D03*
X125000000Y-77000000D03*
X53000000Y-71000000D03*
X125000000Y-59000000D03*
X65000000Y-71000000D03*
X83000000Y-89000000D03*
X122210000Y-84000000D03*
X65000000Y-89000000D03*
X101000000Y-65000000D03*
X125000000Y-83000000D03*
X83000000Y-53000000D03*
X101000000Y-53000000D03*
X119000000Y-77000000D03*
X65000000Y-83000000D03*
X107000000Y-65000000D03*
X97550000Y-59100000D03*
X71000000Y-59000000D03*
X88640000Y-68790000D03*
X131000000Y-83000000D03*
X119000000Y-59000000D03*
X101000000Y-89000000D03*
X107000000Y-89000000D03*
X137000000Y-89000000D03*
X125000000Y-89000000D03*
X113000000Y-53000000D03*
X59000000Y-71000000D03*
X53000000Y-59000000D03*
X71000000Y-65000000D03*
X71000000Y-53000000D03*
X113000000Y-65000000D03*
X131000000Y-59000000D03*
X83000000Y-65000000D03*
X95000000Y-71000000D03*
X95000000Y-77000000D03*
X119000000Y-71000000D03*
X107000000Y-59000000D03*
X122250000Y-87500000D03*
X113000000Y-59000000D03*
X113000000Y-71000000D03*
X89000000Y-71000000D03*
X100220000Y-68310000D03*
X125000000Y-71000000D03*
X131000000Y-65000000D03*
X65000000Y-59000000D03*
X71000000Y-77000000D03*
X131000000Y-89000000D03*
X119000000Y-53000000D03*
X89000000Y-77000000D03*
X137000000Y-77000000D03*
X89000000Y-65000000D03*
X59000000Y-59000000D03*
X101000000Y-59000000D03*
X137000000Y-53000000D03*
X53000000Y-77000000D03*
X59000000Y-65000000D03*
X107000000Y-83000000D03*
X131000000Y-53000000D03*
X137000000Y-83000000D03*
X113000000Y-77000000D03*
X119000000Y-89000000D03*
X113000000Y-89000000D03*
X137000000Y-59000000D03*
X65000000Y-65000000D03*
X77000000Y-77000000D03*
X95000000Y-83000000D03*
X119000000Y-65000000D03*
X59000000Y-83000000D03*
X53000000Y-83000000D03*
X71000000Y-89000000D03*
X77700000Y-83900000D03*
X77700000Y-82300000D03*
X82400000Y-71700000D03*
X76900000Y-68200000D03*
X85200000Y-73200000D03*
X92900000Y-58000000D03*
X74200000Y-53600000D03*
X92900000Y-60900000D03*
X92000000Y-61800000D03*
X73200000Y-54600000D03*
X90000000Y-58300000D03*
X91300000Y-66700000D03*
X90000000Y-59800000D03*
X92600000Y-66700000D03*
X82600000Y-60700000D03*
X83600000Y-61700000D03*
X83600000Y-70800000D03*
X92600000Y-68000000D03*
X90000000Y-68000000D03*
X106900000Y-70800000D03*
X113500000Y-82600000D03*
X106000000Y-69900000D03*
X114500000Y-83600000D03*
X103800000Y-77500000D03*
X102500000Y-77500000D03*
X103300000Y-70800000D03*
X106000000Y-70800000D03*
X90800000Y-59500000D03*
X90800000Y-53800000D03*
X95600000Y-66099999D03*
X97900000Y-63800000D03*
X103300000Y-73500000D03*
X100200000Y-66599999D03*
X104600000Y-70100000D03*
X104600000Y-72200000D03*
D20*
X59750000Y-54750000D03*
X59750000Y-89750000D03*
X134750000Y-54750000D03*
X75460000Y-73790000D03*
X75460000Y-61090000D03*
X78000000Y-71000000D03*
X79780000Y-69984000D03*
X78000000Y-68968000D03*
X79780000Y-67952000D03*
X78000000Y-66936000D03*
X79780000Y-65920000D03*
X78000000Y-64904000D03*
X79780000Y-63888000D03*
X84600000Y-74300000D03*
X84600000Y-72010000D03*
X84600000Y-62870000D03*
X84600000Y-60580000D03*
X78890000Y-75570000D03*
X78890000Y-59310000D03*
X139500000Y-70500000D03*
X139500000Y-73040000D03*
X134750000Y-89750000D03*
M02*
