M48
; DRILL file KiCad 10.0.4-10.0.4~ubuntu24.04.1 date 2026-07-19T09:45:36
; FORMAT={-:-/ absolute / metric / decimal}
; #@! TF.CreationDate,2026-07-19T09:45:36-07:00
; #@! TF.GenerationSoftware,Kicad,Pcbnew,10.0.4-10.0.4~ubuntu24.04.1
; #@! TF.FileFunction,Plated,1,2,PTH
FMAT,2
METRIC
; #@! TA.AperFunction,Plated,PTH,ViaDrill
T1C0.300
; #@! TA.AperFunction,Plated,PTH,ComponentDrill
T2C0.890
; #@! TA.AperFunction,Plated,PTH,ComponentDrill
T3C1.000
; #@! TA.AperFunction,Plated,PTH,ComponentDrill
T4C1.570
%
G90
G05
T1
X53.0Y-59.0
X53.0Y-65.0
X53.0Y-71.0
X53.0Y-77.0
X53.0Y-83.0
X59.0Y-59.0
X59.0Y-65.0
X59.0Y-71.0
X59.0Y-77.0
X59.0Y-83.0
X65.0Y-59.0
X65.0Y-65.0
X65.0Y-71.0
X65.0Y-83.0
X65.0Y-89.0
X71.0Y-53.0
X71.0Y-59.0
X71.0Y-65.0
X71.0Y-77.0
X71.0Y-89.0
X73.2Y-54.6
X74.2Y-53.6
X76.9Y-68.2
X77.0Y-53.0
X77.0Y-59.0
X77.0Y-77.0
X77.7Y-82.3
X77.7Y-83.9
X80.2Y-62.6
X81.7Y-62.6
X81.7Y-69.9
X82.4Y-71.7
X82.6Y-60.7
X83.0Y-53.0
X83.0Y-65.0
X83.0Y-89.0
X83.6Y-61.7
X83.6Y-70.8
X85.2Y-73.2
X88.64Y-68.79
X89.0Y-65.0
X89.0Y-71.0
X89.0Y-77.0
X90.0Y-58.3
X90.0Y-59.8
X90.0Y-68.0
X90.8Y-53.8
X90.8Y-59.5
X91.3Y-66.7
X92.0Y-61.8
X92.6Y-66.7
X92.6Y-68.0
X92.9Y-58.0
X92.9Y-60.9
X95.0Y-71.0
X95.0Y-77.0
X95.0Y-83.0
X95.6Y-66.1
X97.55Y-59.1
X97.9Y-63.8
X100.2Y-66.6
X100.22Y-68.31
X101.0Y-53.0
X101.0Y-59.0
X101.0Y-65.0
X101.0Y-71.0
X101.0Y-89.0
X102.5Y-77.5
X103.3Y-70.8
X103.3Y-73.5
X103.8Y-77.5
X104.6Y-70.1
X104.6Y-72.2
X106.0Y-69.9
X106.0Y-70.8
X106.9Y-70.8
X107.0Y-53.0
X107.0Y-59.0
X107.0Y-65.0
X107.0Y-83.0
X107.0Y-89.0
X109.25Y-61.5
X113.0Y-53.0
X113.0Y-59.0
X113.0Y-65.0
X113.0Y-71.0
X113.0Y-77.0
X113.0Y-89.0
X113.5Y-82.6
X114.5Y-83.6
X119.0Y-53.0
X119.0Y-59.0
X119.0Y-65.0
X119.0Y-71.0
X119.0Y-77.0
X119.0Y-89.0
X122.21Y-84.0
X122.25Y-87.5
X125.0Y-53.0
X125.0Y-59.0
X125.0Y-71.0
X125.0Y-77.0
X125.0Y-83.0
X125.0Y-89.0
X131.0Y-53.0
X131.0Y-59.0
X131.0Y-65.0
X131.0Y-77.0
X131.0Y-83.0
X131.0Y-89.0
X137.0Y-53.0
X137.0Y-59.0
X137.0Y-65.0
X137.0Y-77.0
X137.0Y-83.0
X137.0Y-89.0
T2
X78.0Y-64.904
X78.0Y-66.936
X78.0Y-68.968
X78.0Y-71.0
X79.78Y-63.888
X79.78Y-65.92
X79.78Y-67.952
X79.78Y-69.984
X84.6Y-60.58
X84.6Y-62.87
X84.6Y-72.01
X84.6Y-74.3
T3
X139.5Y-70.5
X139.5Y-73.04
T4
X78.89Y-59.31
X78.89Y-75.57
M30
