M48
; DRILL file KiCad 10.0.4-10.0.4~ubuntu24.04.1 date 2026-08-13T21:20:46
; FORMAT={-:-/ absolute / metric / decimal}
; #@! TF.CreationDate,2026-08-13T21:20:46-07:00
; #@! TF.GenerationSoftware,Kicad,Pcbnew,10.0.4-10.0.4~ubuntu24.04.1
; #@! TF.FileFunction,Plated,1,4,PTH
FMAT,2
METRIC
; #@! TA.AperFunction,Plated,PTH,ViaDrill
T1C0.200
; #@! TA.AperFunction,Plated,PTH,ViaDrill
T2C0.250
; #@! TA.AperFunction,Plated,PTH,ComponentDrill
T3C0.600
; #@! TA.AperFunction,Plated,PTH,ComponentDrill
T4C1.500
; #@! TA.AperFunction,Plated,PTH,ComponentDrill
T5C1.700
%
G90
G05
T1
X22.5Y-22.5
X22.5Y-27.5
X22.5Y-32.5
X22.5Y-37.5
X22.5Y-42.5
X22.5Y-47.5
X22.5Y-52.5
X22.5Y-57.5
X22.5Y-62.5
X22.5Y-67.5
X22.5Y-72.5
X22.5Y-77.5
X22.5Y-82.5
X27.5Y-22.5
X27.5Y-27.5
X27.5Y-32.5
X27.5Y-42.5
X27.5Y-47.5
X27.5Y-52.5
X27.5Y-57.5
X27.5Y-62.5
X27.5Y-67.5
X27.5Y-72.5
X27.5Y-77.5
X27.5Y-82.5
X32.5Y-22.5
X32.5Y-27.5
X32.5Y-32.5
X32.5Y-37.5
X32.5Y-42.5
X32.5Y-52.5
X32.5Y-57.5
X32.5Y-62.5
X32.5Y-67.5
X32.5Y-72.5
X32.5Y-77.5
X32.5Y-82.5
X34.3Y-36.97
X35.66Y-37.52
X35.7Y-36.03
X36.29Y-65.3
X36.53Y-48.74
X36.55Y-47.34
X36.59Y-37.9
X36.63Y-36.4
X36.71Y-66.7
X37.12Y-64.74
X37.5Y-22.5
X37.5Y-27.5
X37.5Y-32.5
X37.5Y-42.5
X37.5Y-52.5
X37.5Y-57.5
X37.5Y-62.5
X37.5Y-67.5
X37.5Y-72.5
X37.5Y-77.5
X37.5Y-82.5
X37.52Y-38.28
X37.53Y-48.75
X37.55Y-36.78
X37.55Y-47.35
X37.72Y-66.02
X37.95Y-64.18
X38.45Y-38.65
X38.48Y-37.16
X38.53Y-48.76
X38.55Y-47.36
X38.55Y-65.47
X38.78Y-63.63
X39.37Y-39.03
X39.38Y-64.91
X39.41Y-37.53
X39.53Y-48.76
X39.55Y-47.36
X39.61Y-63.07
X40.21Y-64.36
X40.3Y-39.4
X40.34Y-37.91
X40.44Y-62.52
X40.53Y-48.77
X40.55Y-47.37
X41.04Y-63.8
X41.22Y-39.78
X41.27Y-38.29
X41.27Y-61.96
X41.53Y-47.38
X41.53Y-48.78
X41.87Y-63.24
X42.1Y-61.4
X42.15Y-40.15
X42.2Y-38.66
X42.5Y-22.5
X42.5Y-27.5
X42.5Y-32.5
X42.5Y-37.5
X42.5Y-42.5
X42.5Y-47.5
X42.5Y-52.5
X42.5Y-57.5
X42.5Y-67.5
X42.5Y-82.5
X42.53Y-48.79
X42.7Y-62.69
X42.73Y-80.0
X42.93Y-60.85
X43.07Y-40.53
X43.12Y-39.04
X43.5Y-47.39
X43.53Y-48.79
X43.53Y-62.13
X43.76Y-60.29
X44.0Y-40.91
X44.0Y-80.0
X44.05Y-39.41
X44.36Y-61.58
X44.5Y-47.4
X44.53Y-48.8
X44.59Y-59.74
X44.93Y-41.28
X44.97Y-39.79
X45.19Y-61.02
X45.42Y-59.18
X45.5Y-47.41
X45.53Y-48.81
X45.86Y-41.66
X45.9Y-40.17
X46.02Y-60.46
X46.5Y-47.42
X46.53Y-48.82
X46.53Y-58.44
X46.54Y-80.0
X46.71Y-42.01
X46.83Y-40.54
X46.85Y-59.91
X47.3Y-71.4
X47.3Y-72.6
X47.5Y-22.5
X47.5Y-27.5
X47.5Y-32.5
X47.5Y-37.5
X47.5Y-42.5
X47.5Y-47.5
X47.5Y-52.5
X47.5Y-57.5
X47.5Y-62.5
X47.5Y-67.5
X47.5Y-77.5
X47.5Y-82.5
X47.53Y-48.83
X47.68Y-59.35
X47.76Y-40.92
X48.46Y-57.14
X48.49Y-42.73
X48.5Y-47.43
X48.51Y-58.79
X48.53Y-48.83
X48.69Y-41.3
X49.29Y-56.59
X49.3Y-36.9
X49.34Y-58.24
X49.42Y-43.1
X49.5Y-47.44
X49.53Y-48.84
X49.62Y-41.67
X50.12Y-56.03
X50.17Y-57.68
X50.34Y-43.48
X50.5Y-47.45
X50.51Y-37.61
X50.53Y-48.85
X50.54Y-42.05
X50.6Y-70.3
X50.7Y-36.1
X50.95Y-55.47
X51.0Y-57.13
X51.2Y-69.1
X51.27Y-43.85
X51.38Y-38.11
X51.46Y-42.42
X51.5Y-47.46
X51.53Y-48.86
X51.57Y-36.6
X51.78Y-54.92
X51.83Y-56.57
X52.19Y-44.23
X52.24Y-38.61
X52.43Y-37.11
X52.5Y-22.5
X52.5Y-27.5
X52.5Y-32.5
X52.5Y-42.5
X52.5Y-47.5
X52.5Y-52.5
X52.5Y-57.5
X52.5Y-62.5
X52.5Y-72.5
X52.5Y-77.5
X52.5Y-82.5
X52.53Y-48.87
X52.61Y-54.36
X52.66Y-56.01
X53.1Y-39.12
X53.12Y-44.6
X53.3Y-37.61
X53.31Y-43.17
X53.44Y-53.81
X53.49Y-55.46
X53.5Y-47.47
X53.53Y-48.87
X53.97Y-39.62
X54.04Y-44.98
X54.16Y-38.11
X54.24Y-43.55
X54.27Y-53.25
X54.32Y-54.9
X54.5Y-47.48
X54.53Y-48.88
X54.83Y-40.12
X54.97Y-45.36
X55.02Y-38.61
X55.1Y-52.69
X55.15Y-54.35
X55.17Y-43.93
X55.5Y-47.49
X55.53Y-48.89
X55.69Y-40.62
X55.88Y-39.11
X55.9Y-45.73
X55.93Y-52.14
X55.98Y-53.79
X56.1Y-44.3
X56.5Y-47.5
X56.53Y-48.9
X56.55Y-41.12
X56.74Y-39.61
X56.76Y-51.58
X56.81Y-53.23
X56.83Y-46.11
X57.03Y-44.68
X57.41Y-41.62
X57.5Y-22.5
X57.5Y-27.5
X57.5Y-32.5
X57.5Y-37.5
X57.5Y-42.5
X57.5Y-47.5
X57.5Y-62.5
X57.5Y-67.5
X57.5Y-72.5
X57.5Y-77.5
X57.5Y-82.5
X57.53Y-48.91
X57.59Y-51.03
X57.6Y-40.11
X57.64Y-52.68
X57.76Y-46.49
X57.96Y-45.06
X58.27Y-42.12
X58.42Y-50.47
X58.46Y-40.61
X58.47Y-52.12
X58.53Y-48.91
X58.69Y-46.86
X58.73Y-47.52
X58.89Y-45.43
X58.9Y-62.1
X59.13Y-42.62
X59.3Y-51.57
X59.32Y-41.11
X59.5Y-49.75
X59.53Y-48.92
X59.81Y-45.81
X59.96Y-47.38
X59.99Y-43.12
X60.13Y-51.01
X60.18Y-41.61
X60.44Y-59.32
X60.51Y-48.93
X60.66Y-47.53
X60.7Y-60.28
X60.72Y-46.18
X60.85Y-43.62
X60.92Y-50.48
X61.04Y-42.12
X61.27Y-78.79
X61.57Y-57.01
X61.64Y-46.55
X61.71Y-49.95
X61.91Y-42.62
X61.95Y-44.26
X62.19Y-46.3
X62.2Y-57.6
X62.5Y-22.5
X62.5Y-27.5
X62.5Y-32.5
X62.5Y-37.5
X62.5Y-42.5
X62.5Y-72.5
X62.53Y-70.5
X62.91Y-43.2
X63.05Y-44.9
X63.3Y-50.81
X63.8Y-56.0
X64.07Y-57.51
X64.08Y-43.48
X64.11Y-42.48
X64.14Y-41.48
X64.18Y-40.48
X64.21Y-39.48
X64.24Y-38.48
X64.25Y-53.11
X64.27Y-37.48
X64.3Y-36.49
X64.4Y-56.8
X65.0Y-60.9
X65.1Y-58.3
X65.17Y-76.6
X65.33Y-63.62
X65.35Y-43.98
X65.45Y-44.51
X65.5Y-42.98
X65.53Y-41.98
X65.56Y-40.98
X65.59Y-39.98
X65.62Y-38.98
X65.66Y-37.75
X65.7Y-36.51
X66.3Y-55.2
X66.3Y-56.49
X66.57Y-57.51
X66.76Y-43.39
X66.9Y-45.85
X66.95Y-44.9
X67.41Y-43.02
X67.5Y-22.5
X67.5Y-27.5
X67.5Y-32.5
X67.5Y-37.5
X67.5Y-42.5
X67.82Y-44.4
X68.27Y-42.51
X68.29Y-49.95
X68.36Y-46.55
X68.56Y-59.32
X68.68Y-43.89
X68.73Y-78.79
X69.12Y-50.51
X69.14Y-42.01
X69.29Y-46.18
X69.49Y-47.53
X69.55Y-43.39
X69.72Y-49.23
X69.95Y-51.07
X70.0Y-41.51
X70.03Y-70.5
X70.21Y-45.8
X70.32Y-61.06
X70.41Y-42.89
X70.49Y-47.52
X70.55Y-49.78
X70.72Y-48.92
X70.78Y-51.62
X70.86Y-41.01
X71.14Y-45.42
X71.27Y-42.39
X71.3Y-46.87
X71.38Y-50.34
X71.49Y-47.51
X71.61Y-52.18
X71.72Y-40.51
X71.72Y-48.91
X72.07Y-45.05
X72.13Y-41.89
X72.21Y-50.89
X72.23Y-46.49
X72.44Y-52.73
X72.5Y-22.5
X72.5Y-27.5
X72.5Y-32.5
X72.5Y-37.5
X72.5Y-42.5
X72.5Y-47.5
X72.5Y-57.5
X72.5Y-62.5
X72.5Y-67.5
X72.5Y-72.5
X72.5Y-77.5
X72.5Y-82.5
X72.58Y-40.01
X72.72Y-48.9
X72.99Y-41.39
X73.0Y-44.67
X73.04Y-51.45
X73.16Y-46.12
X73.27Y-53.29
X73.44Y-39.51
X73.5Y-47.5
X73.72Y-48.9
X73.85Y-40.89
X73.87Y-52.01
X73.93Y-44.29
X74.08Y-45.74
X74.1Y-53.85
X74.3Y-39.0
X74.5Y-47.49
X74.7Y-52.56
X74.71Y-40.39
X74.72Y-48.89
X74.86Y-43.92
X74.93Y-54.4
X75.01Y-45.37
X75.17Y-38.5
X75.5Y-47.48
X75.53Y-53.12
X75.57Y-39.89
X75.72Y-48.88
X75.76Y-54.96
X75.78Y-43.54
X75.93Y-44.99
X76.03Y-38.0
X76.36Y-53.67
X76.43Y-39.39
X76.5Y-47.47
X76.59Y-55.51
X76.7Y-43.17
X76.72Y-48.87
X76.86Y-44.62
X76.89Y-37.5
X77.19Y-54.23
X77.29Y-38.88
X77.42Y-56.07
X77.5Y-22.5
X77.5Y-27.5
X77.5Y-32.5
X77.5Y-42.5
X77.5Y-47.5
X77.5Y-52.5
X77.5Y-57.5
X77.5Y-62.5
X77.5Y-67.5
X77.5Y-72.5
X77.5Y-77.5
X77.5Y-82.5
X77.72Y-48.86
X77.78Y-44.24
X78.02Y-54.79
X78.09Y-36.8
X78.16Y-38.38
X78.25Y-56.63
X78.5Y-47.46
X78.55Y-42.42
X78.71Y-43.86
X78.72Y-48.86
X78.85Y-55.34
X79.08Y-57.18
X79.26Y-37.74
X79.3Y-36.1
X79.48Y-42.04
X79.5Y-47.45
X79.64Y-43.49
X79.68Y-55.9
X79.72Y-48.85
X79.91Y-57.74
X80.41Y-41.66
X80.5Y-47.44
X80.51Y-56.46
X80.57Y-43.11
X80.7Y-36.9
X80.72Y-48.84
X80.74Y-58.29
X81.34Y-41.29
X81.44Y-57.08
X81.5Y-42.73
X81.5Y-47.43
X81.57Y-58.85
X81.65Y-74.5
X81.72Y-48.83
X82.27Y-40.91
X82.4Y-59.41
X82.5Y-22.5
X82.5Y-27.5
X82.5Y-32.5
X82.5Y-37.5
X82.5Y-42.5
X82.5Y-47.5
X82.5Y-52.5
X82.5Y-57.5
X82.5Y-62.5
X82.5Y-67.5
X82.5Y-72.5
X82.5Y-77.5
X82.5Y-82.5
X82.72Y-48.82
X83.2Y-40.53
X83.2Y-58.26
X83.23Y-59.96
X83.37Y-41.97
X83.5Y-47.42
X83.72Y-48.82
X84.03Y-58.81
X84.06Y-60.52
X84.13Y-40.16
X84.3Y-41.6
X84.5Y-47.41
X84.72Y-48.81
X84.86Y-59.37
X84.89Y-61.08
X85.05Y-39.78
X85.22Y-73.42
X85.22Y-75.7
X85.23Y-41.22
X85.5Y-47.4
X85.69Y-59.93
X85.72Y-48.8
X85.72Y-61.63
X85.98Y-39.4
X86.16Y-40.84
X86.5Y-47.39
X86.52Y-60.48
X86.55Y-62.19
X86.72Y-48.79
X86.91Y-39.03
X87.09Y-40.47
X87.35Y-61.04
X87.38Y-62.74
X87.5Y-22.5
X87.5Y-27.5
X87.5Y-32.5
X87.5Y-37.5
X87.5Y-42.5
X87.5Y-47.5
X87.5Y-52.5
X87.5Y-57.5
X87.5Y-67.5
X87.5Y-77.5
X87.5Y-82.5
X87.72Y-48.78
X87.84Y-38.65
X88.01Y-40.09
X88.18Y-61.59
X88.21Y-63.3
X88.5Y-47.38
X88.72Y-48.78
X88.77Y-38.27
X88.94Y-39.71
X89.01Y-62.15
X89.04Y-63.86
X89.5Y-47.37
X89.53Y-75.86
X89.7Y-37.9
X89.72Y-48.77
X89.84Y-62.71
X89.87Y-39.34
X89.87Y-64.41
X90.5Y-47.36
X90.62Y-37.52
X90.67Y-63.26
X90.7Y-64.97
X90.72Y-48.76
X90.8Y-38.96
X91.5Y-47.35
X91.5Y-63.82
X91.53Y-65.52
X91.55Y-37.15
X91.72Y-48.75
X91.73Y-38.58
X92.32Y-66.05
X92.47Y-36.77
X92.5Y-22.5
X92.5Y-27.5
X92.5Y-32.5
X92.5Y-42.5
X92.5Y-47.35
X92.5Y-52.5
X92.5Y-57.5
X92.5Y-62.5
X92.5Y-67.5
X92.5Y-72.5
X92.5Y-77.5
X92.5Y-82.5
X92.61Y-64.56
X92.66Y-38.21
X93.09Y-48.74
X93.29Y-66.7
X93.38Y-36.4
X93.48Y-47.34
X93.58Y-37.83
X93.71Y-65.3
X94.3Y-36.03
X94.42Y-37.49
X95.7Y-36.97
X97.5Y-22.5
X97.5Y-27.5
X97.5Y-32.5
X97.5Y-37.5
X97.5Y-42.5
X97.5Y-52.5
X97.5Y-57.5
X97.5Y-62.5
X97.5Y-67.5
X97.5Y-72.5
X97.5Y-77.5
X97.5Y-82.5
X102.5Y-22.5
X102.5Y-27.5
X102.5Y-32.5
X102.5Y-42.5
X102.5Y-47.5
X102.5Y-52.5
X102.5Y-57.5
X102.5Y-62.5
X102.5Y-67.5
X102.5Y-72.5
X102.5Y-77.5
X102.5Y-82.5
X107.5Y-22.5
X107.5Y-27.5
X107.5Y-32.5
X107.5Y-37.5
X107.5Y-42.5
X107.5Y-47.5
X107.5Y-52.5
X107.5Y-57.5
X107.5Y-62.5
X107.5Y-67.5
X107.5Y-72.5
X107.5Y-77.5
X107.5Y-82.5
T2
X64.25Y-47.25
X64.25Y-48.0
X64.25Y-48.75
X65.0Y-47.25
X65.0Y-48.0
X65.0Y-48.75
X65.75Y-47.25
X65.75Y-48.0
X65.75Y-48.75
T4
X31.6Y-48.0
X31.6Y-66.0
X35.0Y-31.6
X50.0Y-31.6
X65.0Y-31.6
X80.0Y-31.6
X95.0Y-31.6
X98.4Y-48.0
X98.4Y-66.0
T5
X29.06Y-45.46
X29.06Y-50.54
X29.06Y-63.46
X29.06Y-68.54
X32.46Y-29.06
X32.46Y-34.14
X34.14Y-45.46
X34.14Y-50.54
X34.14Y-63.46
X34.14Y-68.54
X37.54Y-29.06
X37.54Y-34.14
X47.46Y-29.06
X47.46Y-34.14
X52.54Y-29.06
X52.54Y-34.14
X62.46Y-29.06
X62.46Y-34.14
X67.54Y-29.06
X67.54Y-34.14
X77.46Y-29.06
X77.46Y-34.14
X82.54Y-29.06
X82.54Y-34.14
X92.46Y-29.06
X92.46Y-34.14
X95.86Y-45.46
X95.86Y-50.54
X95.86Y-63.46
X95.86Y-68.54
X97.54Y-29.06
X97.54Y-34.14
X100.94Y-45.46
X100.94Y-50.54
X100.94Y-63.46
X100.94Y-68.54
T3
G00X60.68Y-77.67
M15
G01X60.68Y-78.77
M16
G05
G00X60.68Y-82.0
M15
G01X60.68Y-82.8
M16
G05
G00X69.32Y-77.67
M15
G01X69.32Y-78.77
M16
G05
G00X69.32Y-82.0
M15
G01X69.32Y-82.8
M16
G05
M30
