%TF.GenerationSoftware,KiCad,Pcbnew,10.0.4-10.0.4~ubuntu24.04.1*%
%TF.CreationDate,2026-08-12T06:49:33-07:00*%
%TF.ProjectId,usb_hub_3s_v4,7573625f-6875-4625-9f33-735f76342e6b,rev?*%
%TF.SameCoordinates,Original*%
%TF.FileFunction,Copper,L2,Inr*%
%TF.FilePolarity,Positive*%
%FSLAX46Y46*%
G04 Gerber Fmt 4.6, Leading zero omitted, Abs format (unit mm)*
G04 Created by KiCad (PCBNEW 10.0.4-10.0.4~ubuntu24.04.1) date 2026-08-12 06:49:33*
%MOMM*%
%LPD*%
G01*
G04 APERTURE LIST*
%TA.AperFunction,ComponentPad*%
%ADD10R,1.750000X1.750000*%
%TD*%
%TA.AperFunction,ComponentPad*%
%ADD11C,1.750000*%
%TD*%
%TA.AperFunction,ComponentPad*%
%ADD12O,3.300000X3.300000*%
%TD*%
%TA.AperFunction,ComponentPad*%
%ADD13R,2.300000X2.300000*%
%TD*%
%TA.AperFunction,ComponentPad*%
%ADD14C,2.300000*%
%TD*%
%TA.AperFunction,ComponentPad*%
%ADD15C,2.780000*%
%TD*%
%TA.AperFunction,ComponentPad*%
%ADD16R,1.700000X1.700000*%
%TD*%
%TA.AperFunction,ComponentPad*%
%ADD17C,1.700000*%
%TD*%
%TA.AperFunction,ComponentPad*%
%ADD18O,1.000000X2.100000*%
%TD*%
%TA.AperFunction,ComponentPad*%
%ADD19O,1.000000X1.800000*%
%TD*%
%TA.AperFunction,ViaPad*%
%ADD20C,0.600000*%
%TD*%
%TA.AperFunction,ViaPad*%
%ADD21C,0.500000*%
%TD*%
%TA.AperFunction,ViaPad*%
%ADD22C,0.700000*%
%TD*%
%ADD23C,0.300000*%
%ADD24C,0.200000*%
%ADD25C,0.350000*%
%ADD26O,0.600000X1.700000*%
%ADD27O,0.600000X1.400000*%
G04 APERTURE END LIST*
D10*
%TO.N,VBUSA1*%
%TO.C,J2*%
X146910000Y-29000000D03*
D11*
%TO.N,DM_A1*%
X146910000Y-31000000D03*
%TO.N,DP_A1*%
X146910000Y-33000000D03*
%TO.N,GND*%
X146910000Y-35000000D03*
D12*
X144200000Y-28500000D03*
X144200000Y-35500000D03*
%TD*%
D13*
%TO.N,BAT_POS*%
%TO.C,J1*%
X27000000Y-38000000D03*
D14*
%TO.N,GND*%
X27000000Y-33000000D03*
%TD*%
D10*
%TO.N,VBUSA2*%
%TO.C,J3*%
X146910000Y-53000000D03*
D11*
%TO.N,DM_A2*%
X146910000Y-55000000D03*
%TO.N,DP_A2*%
X146910000Y-57000000D03*
%TO.N,GND*%
X146910000Y-59000000D03*
D12*
X144200000Y-52500000D03*
X144200000Y-59500000D03*
%TD*%
D15*
%TO.N,BAT_POS*%
%TO.C,F1*%
X40000000Y-38000000D03*
X40000000Y-41400000D03*
%TO.N,VBAT_FUSED*%
X49920000Y-38000000D03*
X49920000Y-41400000D03*
%TD*%
D16*
%TO.N,GND*%
%TO.C,SW1*%
X39500000Y-27000000D03*
D17*
%TO.N,EN_BUS*%
X42000000Y-27000000D03*
%TO.N,unconnected-(SW1-ON_NC-Pad3)*%
X44500000Y-27000000D03*
%TD*%
D18*
%TO.N,GND*%
%TO.C,J5*%
X110680000Y-103220000D03*
D19*
X110680000Y-107400000D03*
D18*
X119320000Y-103220000D03*
D19*
X119320000Y-107400000D03*
%TD*%
D10*
%TO.N,VBUSA3*%
%TO.C,J4*%
X146910000Y-77000000D03*
D11*
%TO.N,DM_A3*%
X146910000Y-79000000D03*
%TO.N,DP_A3*%
X146910000Y-81000000D03*
%TO.N,GND*%
X146910000Y-83000000D03*
D12*
X144200000Y-76500000D03*
X144200000Y-83500000D03*
%TD*%
D20*
%TO.N,VIN*%
X58500000Y-38975000D03*
X54550000Y-54130000D03*
X68010000Y-52670000D03*
X49975000Y-33000000D03*
X52000000Y-32000000D03*
X60000000Y-39000000D03*
%TO.N,EN_BUS*%
X87050000Y-89550000D03*
X86100000Y-87800000D03*
%TO.N,GND*%
X120700000Y-32000000D03*
X91500000Y-61980000D03*
X78920000Y-58000000D03*
D21*
X88338000Y-90550000D03*
D20*
X69000000Y-48670000D03*
X88770000Y-87560000D03*
X146000000Y-67140000D03*
D21*
X68750000Y-54250000D03*
X94300000Y-101900000D03*
D20*
X62770000Y-57500000D03*
X105520000Y-56000000D03*
D21*
X89413000Y-91450000D03*
D20*
X146000000Y-91140000D03*
D21*
X110300000Y-80000000D03*
X110300000Y-55000000D03*
D20*
X126860000Y-44000000D03*
D21*
X70250000Y-55750000D03*
X109700000Y-31000000D03*
X110300000Y-79000000D03*
X87262000Y-90550000D03*
D20*
X94700000Y-60080000D03*
D21*
X109700000Y-79000000D03*
D20*
X105520000Y-80000000D03*
X72300000Y-59200000D03*
X83670000Y-50000000D03*
X81080000Y-93000000D03*
X114470000Y-98620000D03*
D21*
X110300000Y-56000000D03*
D20*
X96000000Y-80000000D03*
X146000000Y-43140000D03*
D21*
X71750000Y-55750000D03*
D20*
X112000000Y-59380000D03*
D21*
X86187000Y-91450000D03*
X110300000Y-57000000D03*
D20*
X72950000Y-52150000D03*
D21*
X94300000Y-101100000D03*
D20*
X58020000Y-29500000D03*
X96170000Y-96000000D03*
D21*
X109700000Y-56000000D03*
X68750000Y-55750000D03*
X109700000Y-57000000D03*
X109700000Y-80000000D03*
X110300000Y-33000000D03*
X105500000Y-97000000D03*
D20*
X88550000Y-94450000D03*
D21*
X110300000Y-81000000D03*
D20*
X98970000Y-55250000D03*
X78920000Y-50000000D03*
D21*
X110300000Y-31000000D03*
D20*
X96170000Y-92000000D03*
D21*
X105500000Y-98000000D03*
D20*
X91500000Y-89170000D03*
D21*
X104500000Y-96000000D03*
X110300000Y-32000000D03*
X88338000Y-91450000D03*
D20*
X75830000Y-63000000D03*
D21*
X89413000Y-90550000D03*
D20*
X112000000Y-83380000D03*
X83670000Y-54000000D03*
D21*
X109700000Y-55000000D03*
X70250000Y-54250000D03*
D20*
X90000000Y-55750000D03*
X96170000Y-88000000D03*
D21*
X87262000Y-91450000D03*
X109700000Y-32000000D03*
D20*
X83670000Y-58000000D03*
X124480000Y-72000000D03*
D21*
X73250000Y-55750000D03*
D20*
X78920000Y-54000000D03*
X91000000Y-55690000D03*
D21*
X71750000Y-54250000D03*
D20*
X81080000Y-89000000D03*
X54000000Y-47300000D03*
D21*
X93450000Y-55920000D03*
X94550000Y-55920000D03*
D20*
X65150000Y-43000000D03*
X120700000Y-56000000D03*
X100520000Y-94500000D03*
X126860000Y-72000000D03*
X118200000Y-102640000D03*
X124480000Y-44000000D03*
X120700000Y-80000000D03*
X96120000Y-57000000D03*
X62770000Y-52500000D03*
X112000000Y-35380000D03*
D21*
X109700000Y-33000000D03*
D20*
X112470000Y-97000000D03*
D21*
X104500000Y-97000000D03*
D20*
X86700000Y-66500000D03*
X105520000Y-32000000D03*
D21*
X104500000Y-98000000D03*
D20*
X70350000Y-52150000D03*
D21*
X109700000Y-81000000D03*
X86187000Y-90550000D03*
X73250000Y-54250000D03*
D20*
X71500000Y-48670000D03*
X111800000Y-102640000D03*
D21*
X105500000Y-96000000D03*
D20*
X87500000Y-85170000D03*
%TO.N,5VA*%
X107100000Y-80600000D03*
X107100000Y-55400000D03*
D22*
X101000000Y-52700000D03*
X97000000Y-52700000D03*
X100000000Y-52700000D03*
D21*
X106480000Y-80000000D03*
D22*
X102000000Y-52700000D03*
D21*
X106480000Y-32000000D03*
X107675000Y-36500000D03*
D20*
X107100000Y-56600000D03*
D22*
X99000000Y-51800000D03*
D20*
X122860000Y-42800000D03*
D21*
X108600000Y-80500000D03*
X101000000Y-41000000D03*
D22*
X98000000Y-51800000D03*
D21*
X106480000Y-56000000D03*
X129137499Y-44000000D03*
D22*
X96000000Y-51800000D03*
D21*
X107675000Y-84500000D03*
D20*
X95100000Y-49400000D03*
D22*
X96000000Y-52700000D03*
X100000000Y-51800000D03*
D20*
X107100000Y-80000000D03*
D21*
X108600000Y-56500000D03*
D20*
X107100000Y-56000000D03*
X107100000Y-79400000D03*
X107100000Y-33200000D03*
D22*
X98000000Y-52700000D03*
X101000000Y-51800000D03*
D20*
X107100000Y-32000000D03*
X122860000Y-70800000D03*
D22*
X102000000Y-51800000D03*
D20*
X107100000Y-32600000D03*
D21*
X129137499Y-72000000D03*
D20*
X107100000Y-81200000D03*
D21*
X107675000Y-60500000D03*
D22*
X97000000Y-51800000D03*
D21*
X108600000Y-32500000D03*
D20*
X107100000Y-57200000D03*
X107100000Y-31400000D03*
D22*
X99000000Y-52700000D03*
D20*
%TO.N,5VC_RAW*%
X91500000Y-93000000D03*
X89925000Y-93000000D03*
X93000000Y-87000000D03*
X100070000Y-88700000D03*
X89580000Y-89560000D03*
D21*
X99700000Y-101500000D03*
D20*
X92000000Y-83675000D03*
D21*
X93225000Y-88000000D03*
D20*
%TO.N,VBUSC*%
X108000000Y-97000000D03*
X107100000Y-95400000D03*
X106310000Y-96330000D03*
X109525000Y-97000000D03*
%TO.N,VBUSA1*%
X143440000Y-37720000D03*
%TO.N,VBUSA3*%
X112000000Y-80500000D03*
X145760000Y-89820000D03*
X112000000Y-79500000D03*
%TO.N,5VA_RAW*%
X73540000Y-60730000D03*
X73750000Y-57850000D03*
D21*
X81300000Y-66500000D03*
D20*
X71000000Y-57850000D03*
D21*
X93450000Y-54100000D03*
D20*
X75000000Y-57700000D03*
D21*
X93450000Y-54650000D03*
X74000000Y-48675000D03*
X94550000Y-54650000D03*
X75975000Y-50000000D03*
X94550000Y-54100000D03*
D20*
%TO.N,VBUSA2*%
X143110000Y-61710000D03*
X112000000Y-55500000D03*
X112000000Y-56500000D03*
%TO.N,VBAT_FUSED*%
X51310000Y-34570000D03*
%TO.N,FAULT_C*%
X101950000Y-90900000D03*
X101950000Y-89700000D03*
%TO.N,PG_C*%
X92050000Y-88250000D03*
X90900000Y-87100000D03*
%TD*%
%TA.AperFunction,Conductor*%
%TO.N,GND*%
G36*
X149642539Y-20320185D02*
G01*
X149688294Y-20372989D01*
X149699500Y-20424500D01*
X149699500Y-109575500D01*
X149679815Y-109642539D01*
X149627011Y-109688294D01*
X149575500Y-109699500D01*
X20424500Y-109699500D01*
X20357461Y-109679815D01*
X20311706Y-109627011D01*
X20300500Y-109575500D01*
X20300500Y-104878711D01*
X23149500Y-104878711D01*
X23149500Y-105121288D01*
X23181161Y-105361785D01*
X23243947Y-105596104D01*
X23336773Y-105820205D01*
X23336776Y-105820212D01*
X23458064Y-106030289D01*
X23458066Y-106030292D01*
X23458067Y-106030293D01*
X23605733Y-106222736D01*
X23605739Y-106222743D01*
X23777256Y-106394260D01*
X23777262Y-106394265D01*
X23969711Y-106541936D01*
X24179788Y-106663224D01*
X24403900Y-106756054D01*
X24638211Y-106818838D01*
X24818586Y-106842584D01*
X24878711Y-106850500D01*
X24878712Y-106850500D01*
X25121289Y-106850500D01*
X25169388Y-106844167D01*
X25361789Y-106818838D01*
X25596100Y-106756054D01*
X25820212Y-106663224D01*
X26030289Y-106541936D01*
X26222738Y-106394265D01*
X26394265Y-106222738D01*
X26541936Y-106030289D01*
X26663224Y-105820212D01*
X26756054Y-105596100D01*
X26818838Y-105361789D01*
X26850500Y-105121288D01*
X26850500Y-104878712D01*
X26850500Y-104878711D01*
X143149500Y-104878711D01*
X143149500Y-105121288D01*
X143181161Y-105361785D01*
X143243947Y-105596104D01*
X143336773Y-105820205D01*
X143336776Y-105820212D01*
X143458064Y-106030289D01*
X143458066Y-106030292D01*
X143458067Y-106030293D01*
X143605733Y-106222736D01*
X143605739Y-106222743D01*
X143777256Y-106394260D01*
X143777262Y-106394265D01*
X143969711Y-106541936D01*
X144179788Y-106663224D01*
X144403900Y-106756054D01*
X144638211Y-106818838D01*
X144818586Y-106842584D01*
X144878711Y-106850500D01*
X144878712Y-106850500D01*
X145121289Y-106850500D01*
X145169388Y-106844167D01*
X145361789Y-106818838D01*
X145596100Y-106756054D01*
X145820212Y-106663224D01*
X146030289Y-106541936D01*
X146222738Y-106394265D01*
X146394265Y-106222738D01*
X146541936Y-106030289D01*
X146663224Y-105820212D01*
X146756054Y-105596100D01*
X146818838Y-105361789D01*
X146850500Y-105121288D01*
X146850500Y-104878712D01*
X146818838Y-104638211D01*
X146756054Y-104403900D01*
X146663224Y-104179788D01*
X146541936Y-103969711D01*
X146394265Y-103777262D01*
X146394260Y-103777256D01*
X146222743Y-103605739D01*
X146222736Y-103605733D01*
X146030293Y-103458067D01*
X146030292Y-103458066D01*
X146030289Y-103458064D01*
X145820212Y-103336776D01*
X145820205Y-103336773D01*
X145596104Y-103243947D01*
X145361785Y-103181161D01*
X145121289Y-103149500D01*
X145121288Y-103149500D01*
X144878712Y-103149500D01*
X144878711Y-103149500D01*
X144638214Y-103181161D01*
X144403895Y-103243947D01*
X144179794Y-103336773D01*
X144179785Y-103336777D01*
X143969706Y-103458067D01*
X143777263Y-103605733D01*
X143777256Y-103605739D01*
X143605739Y-103777256D01*
X143605733Y-103777263D01*
X143458067Y-103969706D01*
X143336777Y-104179785D01*
X143336773Y-104179794D01*
X143243947Y-104403895D01*
X143181161Y-104638214D01*
X143149500Y-104878711D01*
X26850500Y-104878711D01*
X26818838Y-104638211D01*
X26756054Y-104403900D01*
X26663224Y-104179788D01*
X26541936Y-103969711D01*
X26394265Y-103777262D01*
X26394260Y-103777256D01*
X26261238Y-103644234D01*
X111534500Y-103644234D01*
X111534500Y-103795765D01*
X111573719Y-103942136D01*
X111589637Y-103969706D01*
X111649485Y-104073365D01*
X111756635Y-104180515D01*
X111887865Y-104256281D01*
X112034234Y-104295500D01*
X112034236Y-104295500D01*
X112185764Y-104295500D01*
X112185766Y-104295500D01*
X112332135Y-104256281D01*
X112463365Y-104180515D01*
X112570515Y-104073365D01*
X112646281Y-103942135D01*
X112685500Y-103795766D01*
X112685500Y-103644234D01*
X117314500Y-103644234D01*
X117314500Y-103795765D01*
X117353719Y-103942136D01*
X117369637Y-103969706D01*
X117429485Y-104073365D01*
X117536635Y-104180515D01*
X117667865Y-104256281D01*
X117814234Y-104295500D01*
X117814236Y-104295500D01*
X117965764Y-104295500D01*
X117965766Y-104295500D01*
X118112135Y-104256281D01*
X118243365Y-104180515D01*
X118350515Y-104073365D01*
X118426281Y-103942135D01*
X118465500Y-103795766D01*
X118465500Y-103644234D01*
X118426281Y-103497865D01*
X118350515Y-103366635D01*
X118243365Y-103259485D01*
X118177750Y-103221602D01*
X118112136Y-103183719D01*
X117984426Y-103149500D01*
X117965766Y-103144500D01*
X117814234Y-103144500D01*
X117667863Y-103183719D01*
X117536635Y-103259485D01*
X117536632Y-103259487D01*
X117429487Y-103366632D01*
X117429485Y-103366635D01*
X117353719Y-103497863D01*
X117314500Y-103644234D01*
X112685500Y-103644234D01*
X112646281Y-103497865D01*
X112570515Y-103366635D01*
X112463365Y-103259485D01*
X112397750Y-103221602D01*
X112332136Y-103183719D01*
X112204426Y-103149500D01*
X112185766Y-103144500D01*
X112034234Y-103144500D01*
X111887863Y-103183719D01*
X111756635Y-103259485D01*
X111756632Y-103259487D01*
X111649487Y-103366632D01*
X111649485Y-103366635D01*
X111573719Y-103497863D01*
X111534500Y-103644234D01*
X26261238Y-103644234D01*
X26222743Y-103605739D01*
X26222736Y-103605733D01*
X26030293Y-103458067D01*
X26030292Y-103458066D01*
X26030289Y-103458064D01*
X25820212Y-103336776D01*
X25820205Y-103336773D01*
X25596104Y-103243947D01*
X25361785Y-103181161D01*
X25121289Y-103149500D01*
X25121288Y-103149500D01*
X24878712Y-103149500D01*
X24878711Y-103149500D01*
X24638214Y-103181161D01*
X24403895Y-103243947D01*
X24179794Y-103336773D01*
X24179785Y-103336777D01*
X23969706Y-103458067D01*
X23777263Y-103605733D01*
X23777256Y-103605739D01*
X23605739Y-103777256D01*
X23605733Y-103777263D01*
X23458067Y-103969706D01*
X23336777Y-104179785D01*
X23336773Y-104179794D01*
X23243947Y-104403895D01*
X23181161Y-104638214D01*
X23149500Y-104878711D01*
X20300500Y-104878711D01*
X20300500Y-101440691D01*
X99249500Y-101440691D01*
X99249500Y-101559309D01*
X99280201Y-101673886D01*
X99339511Y-101776613D01*
X99423387Y-101860489D01*
X99526114Y-101919799D01*
X99640691Y-101950500D01*
X99640694Y-101950500D01*
X99759306Y-101950500D01*
X99759309Y-101950500D01*
X99873886Y-101919799D01*
X99976613Y-101860489D01*
X100060489Y-101776613D01*
X100119799Y-101673886D01*
X100150500Y-101559309D01*
X100150500Y-101440691D01*
X100119799Y-101326114D01*
X100060489Y-101223387D01*
X99976613Y-101139511D01*
X99873886Y-101080201D01*
X99759309Y-101049500D01*
X99640691Y-101049500D01*
X99526114Y-101080201D01*
X99526112Y-101080201D01*
X99526112Y-101080202D01*
X99423387Y-101139511D01*
X99423384Y-101139513D01*
X99339513Y-101223384D01*
X99339511Y-101223387D01*
X99280201Y-101326114D01*
X99249500Y-101440691D01*
X20300500Y-101440691D01*
X20300500Y-96934108D01*
X107499500Y-96934108D01*
X107499500Y-97065891D01*
X107533608Y-97193187D01*
X107566554Y-97250250D01*
X107599500Y-97307314D01*
X107692686Y-97400500D01*
X107806814Y-97466392D01*
X107934108Y-97500500D01*
X107934110Y-97500500D01*
X108065890Y-97500500D01*
X108065892Y-97500500D01*
X108193186Y-97466392D01*
X108307314Y-97400500D01*
X108400500Y-97307314D01*
X108466392Y-97193186D01*
X108500500Y-97065892D01*
X108500500Y-96934108D01*
X109024500Y-96934108D01*
X109024500Y-97065891D01*
X109058608Y-97193187D01*
X109091554Y-97250250D01*
X109124500Y-97307314D01*
X109217686Y-97400500D01*
X109331814Y-97466392D01*
X109459108Y-97500500D01*
X109459110Y-97500500D01*
X109590890Y-97500500D01*
X109590892Y-97500500D01*
X109718186Y-97466392D01*
X109832314Y-97400500D01*
X109925500Y-97307314D01*
X109991392Y-97193186D01*
X110025500Y-97065892D01*
X110025500Y-96934108D01*
X109991392Y-96806814D01*
X109925500Y-96692686D01*
X109832314Y-96599500D01*
X109775250Y-96566554D01*
X109718187Y-96533608D01*
X109654539Y-96516554D01*
X109590892Y-96499500D01*
X109459108Y-96499500D01*
X109331812Y-96533608D01*
X109217686Y-96599500D01*
X109217683Y-96599502D01*
X109124502Y-96692683D01*
X109124500Y-96692686D01*
X109058608Y-96806812D01*
X109024500Y-96934108D01*
X108500500Y-96934108D01*
X108466392Y-96806814D01*
X108400500Y-96692686D01*
X108307314Y-96599500D01*
X108250250Y-96566554D01*
X108193187Y-96533608D01*
X108129539Y-96516554D01*
X108065892Y-96499500D01*
X107934108Y-96499500D01*
X107806812Y-96533608D01*
X107692686Y-96599500D01*
X107692683Y-96599502D01*
X107599502Y-96692683D01*
X107599500Y-96692686D01*
X107533608Y-96806812D01*
X107499500Y-96934108D01*
X20300500Y-96934108D01*
X20300500Y-96264108D01*
X105809500Y-96264108D01*
X105809500Y-96395891D01*
X105843608Y-96523187D01*
X105849625Y-96533608D01*
X105909500Y-96637314D01*
X106002686Y-96730500D01*
X106116814Y-96796392D01*
X106244108Y-96830500D01*
X106244110Y-96830500D01*
X106375890Y-96830500D01*
X106375892Y-96830500D01*
X106503186Y-96796392D01*
X106617314Y-96730500D01*
X106710500Y-96637314D01*
X106776392Y-96523186D01*
X106810500Y-96395892D01*
X106810500Y-96264108D01*
X106776392Y-96136814D01*
X106710500Y-96022686D01*
X106710497Y-96022683D01*
X106708375Y-96019007D01*
X106691902Y-95951107D01*
X106714754Y-95885080D01*
X106769675Y-95841889D01*
X106839228Y-95835247D01*
X106877761Y-95849618D01*
X106906814Y-95866392D01*
X107034108Y-95900500D01*
X107034110Y-95900500D01*
X107165890Y-95900500D01*
X107165892Y-95900500D01*
X107293186Y-95866392D01*
X107407314Y-95800500D01*
X107500500Y-95707314D01*
X107566392Y-95593186D01*
X107600500Y-95465892D01*
X107600500Y-95334108D01*
X107566392Y-95206814D01*
X107500500Y-95092686D01*
X107407314Y-94999500D01*
X107350250Y-94966554D01*
X107293187Y-94933608D01*
X107229539Y-94916554D01*
X107165892Y-94899500D01*
X107034108Y-94899500D01*
X106906812Y-94933608D01*
X106792686Y-94999500D01*
X106792683Y-94999502D01*
X106699502Y-95092683D01*
X106699500Y-95092686D01*
X106633608Y-95206812D01*
X106599500Y-95334108D01*
X106599500Y-95465891D01*
X106633609Y-95593188D01*
X106633609Y-95593189D01*
X106701624Y-95710993D01*
X106718097Y-95778893D01*
X106695245Y-95844920D01*
X106640324Y-95888110D01*
X106570770Y-95894752D01*
X106532237Y-95880380D01*
X106503189Y-95863609D01*
X106503186Y-95863608D01*
X106375892Y-95829500D01*
X106244108Y-95829500D01*
X106116812Y-95863608D01*
X106002686Y-95929500D01*
X106002683Y-95929502D01*
X105909502Y-96022683D01*
X105909500Y-96022686D01*
X105843608Y-96136812D01*
X105809500Y-96264108D01*
X20300500Y-96264108D01*
X20300500Y-92934108D01*
X89424500Y-92934108D01*
X89424500Y-93065891D01*
X89458608Y-93193187D01*
X89491554Y-93250250D01*
X89524500Y-93307314D01*
X89617686Y-93400500D01*
X89731814Y-93466392D01*
X89859108Y-93500500D01*
X89859110Y-93500500D01*
X89990890Y-93500500D01*
X89990892Y-93500500D01*
X90118186Y-93466392D01*
X90232314Y-93400500D01*
X90325500Y-93307314D01*
X90391392Y-93193186D01*
X90425500Y-93065892D01*
X90425500Y-92934108D01*
X90999500Y-92934108D01*
X90999500Y-93065891D01*
X91033608Y-93193187D01*
X91066554Y-93250250D01*
X91099500Y-93307314D01*
X91192686Y-93400500D01*
X91306814Y-93466392D01*
X91434108Y-93500500D01*
X91434110Y-93500500D01*
X91565890Y-93500500D01*
X91565892Y-93500500D01*
X91693186Y-93466392D01*
X91807314Y-93400500D01*
X91900500Y-93307314D01*
X91966392Y-93193186D01*
X92000500Y-93065892D01*
X92000500Y-92934108D01*
X91966392Y-92806814D01*
X91900500Y-92692686D01*
X91807314Y-92599500D01*
X91750250Y-92566554D01*
X91693187Y-92533608D01*
X91629539Y-92516554D01*
X91565892Y-92499500D01*
X91434108Y-92499500D01*
X91306812Y-92533608D01*
X91192686Y-92599500D01*
X91192683Y-92599502D01*
X91099502Y-92692683D01*
X91099500Y-92692686D01*
X91033608Y-92806812D01*
X90999500Y-92934108D01*
X90425500Y-92934108D01*
X90391392Y-92806814D01*
X90325500Y-92692686D01*
X90232314Y-92599500D01*
X90175250Y-92566554D01*
X90118187Y-92533608D01*
X90054539Y-92516554D01*
X89990892Y-92499500D01*
X89859108Y-92499500D01*
X89731812Y-92533608D01*
X89617686Y-92599500D01*
X89617683Y-92599502D01*
X89524502Y-92692683D01*
X89524500Y-92692686D01*
X89458608Y-92806812D01*
X89424500Y-92934108D01*
X20300500Y-92934108D01*
X20300500Y-89484108D01*
X86549500Y-89484108D01*
X86549500Y-89615892D01*
X86566554Y-89679539D01*
X86583608Y-89743187D01*
X86596717Y-89765892D01*
X86649500Y-89857314D01*
X86742686Y-89950500D01*
X86856814Y-90016392D01*
X86984108Y-90050500D01*
X86984110Y-90050500D01*
X87115890Y-90050500D01*
X87115892Y-90050500D01*
X87243186Y-90016392D01*
X87357314Y-89950500D01*
X87450500Y-89857314D01*
X87516392Y-89743186D01*
X87550500Y-89615892D01*
X87550500Y-89494108D01*
X89079500Y-89494108D01*
X89079500Y-89625892D01*
X89081702Y-89634110D01*
X89113608Y-89753187D01*
X89146554Y-89810250D01*
X89179500Y-89867314D01*
X89272686Y-89960500D01*
X89386814Y-90026392D01*
X89514108Y-90060500D01*
X89514110Y-90060500D01*
X89645890Y-90060500D01*
X89645892Y-90060500D01*
X89773186Y-90026392D01*
X89887314Y-89960500D01*
X89980500Y-89867314D01*
X90046392Y-89753186D01*
X90078299Y-89634108D01*
X101449500Y-89634108D01*
X101449500Y-89765891D01*
X101483608Y-89893187D01*
X101516554Y-89950250D01*
X101549500Y-90007314D01*
X101642686Y-90100500D01*
X101756814Y-90166392D01*
X101808441Y-90180225D01*
X101868102Y-90216590D01*
X101898631Y-90279437D01*
X101890336Y-90348812D01*
X101845851Y-90402690D01*
X101808442Y-90419774D01*
X101790666Y-90424537D01*
X101756812Y-90433608D01*
X101642686Y-90499500D01*
X101642683Y-90499502D01*
X101549502Y-90592683D01*
X101549500Y-90592686D01*
X101483608Y-90706812D01*
X101449500Y-90834108D01*
X101449500Y-90965891D01*
X101483608Y-91093187D01*
X101516554Y-91150250D01*
X101549500Y-91207314D01*
X101642686Y-91300500D01*
X101756814Y-91366392D01*
X101884108Y-91400500D01*
X101884110Y-91400500D01*
X102015890Y-91400500D01*
X102015892Y-91400500D01*
X102143186Y-91366392D01*
X102257314Y-91300500D01*
X102350500Y-91207314D01*
X102416392Y-91093186D01*
X102450500Y-90965892D01*
X102450500Y-90834108D01*
X102416392Y-90706814D01*
X102350500Y-90592686D01*
X102257314Y-90499500D01*
X102200250Y-90466554D01*
X102143187Y-90433608D01*
X102126259Y-90429072D01*
X102091556Y-90419774D01*
X102031897Y-90383410D01*
X102001368Y-90320564D01*
X102009662Y-90251188D01*
X102054147Y-90197310D01*
X102091555Y-90180226D01*
X102143186Y-90166392D01*
X102257314Y-90100500D01*
X102350500Y-90007314D01*
X102416392Y-89893186D01*
X102450500Y-89765892D01*
X102450500Y-89754108D01*
X145259500Y-89754108D01*
X145259500Y-89885892D01*
X145261455Y-89893187D01*
X145293608Y-90013187D01*
X145315151Y-90050499D01*
X145359500Y-90127314D01*
X145452686Y-90220500D01*
X145566814Y-90286392D01*
X145694108Y-90320500D01*
X145694110Y-90320500D01*
X145825890Y-90320500D01*
X145825892Y-90320500D01*
X145953186Y-90286392D01*
X146067314Y-90220500D01*
X146160500Y-90127314D01*
X146226392Y-90013186D01*
X146260500Y-89885892D01*
X146260500Y-89754108D01*
X146226392Y-89626814D01*
X146160500Y-89512686D01*
X146067314Y-89419500D01*
X146010250Y-89386554D01*
X145953187Y-89353608D01*
X145889539Y-89336554D01*
X145825892Y-89319500D01*
X145694108Y-89319500D01*
X145566812Y-89353608D01*
X145452686Y-89419500D01*
X145452683Y-89419502D01*
X145359502Y-89512683D01*
X145359500Y-89512686D01*
X145293608Y-89626812D01*
X145262426Y-89743187D01*
X145259500Y-89754108D01*
X102450500Y-89754108D01*
X102450500Y-89634108D01*
X102416392Y-89506814D01*
X102350500Y-89392686D01*
X102257314Y-89299500D01*
X102158910Y-89242686D01*
X102143187Y-89233608D01*
X102079539Y-89216554D01*
X102015892Y-89199500D01*
X101884108Y-89199500D01*
X101756812Y-89233608D01*
X101642686Y-89299500D01*
X101642683Y-89299502D01*
X101549502Y-89392683D01*
X101549500Y-89392686D01*
X101483608Y-89506812D01*
X101449500Y-89634108D01*
X90078299Y-89634108D01*
X90080500Y-89625892D01*
X90080500Y-89494108D01*
X90046392Y-89366814D01*
X90040618Y-89356814D01*
X90007528Y-89299500D01*
X89980500Y-89252686D01*
X89887314Y-89159500D01*
X89830250Y-89126554D01*
X89773187Y-89093608D01*
X89709539Y-89076554D01*
X89645892Y-89059500D01*
X89514108Y-89059500D01*
X89386812Y-89093608D01*
X89272686Y-89159500D01*
X89272683Y-89159502D01*
X89179502Y-89252683D01*
X89179500Y-89252686D01*
X89113608Y-89366812D01*
X89099491Y-89419500D01*
X89079500Y-89494108D01*
X87550500Y-89494108D01*
X87550500Y-89484108D01*
X87516392Y-89356814D01*
X87450500Y-89242686D01*
X87357314Y-89149500D01*
X87272439Y-89100497D01*
X87243187Y-89083608D01*
X87179539Y-89066554D01*
X87115892Y-89049500D01*
X86984108Y-89049500D01*
X86856812Y-89083608D01*
X86742686Y-89149500D01*
X86742683Y-89149502D01*
X86649502Y-89242683D01*
X86649500Y-89242686D01*
X86583608Y-89356812D01*
X86573997Y-89392683D01*
X86549500Y-89484108D01*
X20300500Y-89484108D01*
X20300500Y-87734108D01*
X85599500Y-87734108D01*
X85599500Y-87865891D01*
X85633608Y-87993187D01*
X85666554Y-88050250D01*
X85699500Y-88107314D01*
X85792686Y-88200500D01*
X85906814Y-88266392D01*
X86034108Y-88300500D01*
X86034110Y-88300500D01*
X86165890Y-88300500D01*
X86165892Y-88300500D01*
X86293186Y-88266392D01*
X86407314Y-88200500D01*
X86423706Y-88184108D01*
X91549500Y-88184108D01*
X91549500Y-88315891D01*
X91583608Y-88443187D01*
X91616554Y-88500250D01*
X91649500Y-88557314D01*
X91742686Y-88650500D01*
X91856814Y-88716392D01*
X91984108Y-88750500D01*
X91984110Y-88750500D01*
X92115890Y-88750500D01*
X92115892Y-88750500D01*
X92243186Y-88716392D01*
X92357314Y-88650500D01*
X92373706Y-88634108D01*
X99569500Y-88634108D01*
X99569500Y-88765891D01*
X99603608Y-88893187D01*
X99636554Y-88950250D01*
X99669500Y-89007314D01*
X99762686Y-89100500D01*
X99876814Y-89166392D01*
X100004108Y-89200500D01*
X100004110Y-89200500D01*
X100135890Y-89200500D01*
X100135892Y-89200500D01*
X100263186Y-89166392D01*
X100377314Y-89100500D01*
X100470500Y-89007314D01*
X100536392Y-88893186D01*
X100570500Y-88765892D01*
X100570500Y-88634108D01*
X100536392Y-88506814D01*
X100470500Y-88392686D01*
X100377314Y-88299500D01*
X100319968Y-88266391D01*
X100263187Y-88233608D01*
X100199539Y-88216554D01*
X100135892Y-88199500D01*
X100004108Y-88199500D01*
X99876812Y-88233608D01*
X99762686Y-88299500D01*
X99762683Y-88299502D01*
X99669502Y-88392683D01*
X99669500Y-88392686D01*
X99603608Y-88506812D01*
X99569500Y-88634108D01*
X92373706Y-88634108D01*
X92450500Y-88557314D01*
X92516392Y-88443186D01*
X92550500Y-88315892D01*
X92550500Y-88184108D01*
X92516392Y-88056814D01*
X92450500Y-87942686D01*
X92357314Y-87849500D01*
X92300250Y-87816554D01*
X92243187Y-87783608D01*
X92179539Y-87766554D01*
X92115892Y-87749500D01*
X91984108Y-87749500D01*
X91856812Y-87783608D01*
X91742686Y-87849500D01*
X91742683Y-87849502D01*
X91649502Y-87942683D01*
X91649500Y-87942686D01*
X91583608Y-88056812D01*
X91549500Y-88184108D01*
X86423706Y-88184108D01*
X86500500Y-88107314D01*
X86566392Y-87993186D01*
X86600500Y-87865892D01*
X86600500Y-87734108D01*
X86566392Y-87606814D01*
X86500500Y-87492686D01*
X86407314Y-87399500D01*
X86350250Y-87366554D01*
X86293187Y-87333608D01*
X86229539Y-87316554D01*
X86165892Y-87299500D01*
X86034108Y-87299500D01*
X85906812Y-87333608D01*
X85792686Y-87399500D01*
X85792683Y-87399502D01*
X85699502Y-87492683D01*
X85699500Y-87492686D01*
X85633608Y-87606812D01*
X85599500Y-87734108D01*
X20300500Y-87734108D01*
X20300500Y-87034108D01*
X90399500Y-87034108D01*
X90399500Y-87165891D01*
X90433608Y-87293187D01*
X90441766Y-87307316D01*
X90499500Y-87407314D01*
X90592686Y-87500500D01*
X90706814Y-87566392D01*
X90834108Y-87600500D01*
X90834110Y-87600500D01*
X90965890Y-87600500D01*
X90965892Y-87600500D01*
X91093186Y-87566392D01*
X91207314Y-87500500D01*
X91300500Y-87407314D01*
X91366392Y-87293186D01*
X91400500Y-87165892D01*
X91400500Y-87034108D01*
X91373705Y-86934108D01*
X92499500Y-86934108D01*
X92499500Y-87065891D01*
X92533608Y-87193187D01*
X92566554Y-87250250D01*
X92599500Y-87307314D01*
X92692686Y-87400500D01*
X92806814Y-87466392D01*
X92847547Y-87477306D01*
X92907208Y-87513671D01*
X92937737Y-87576518D01*
X92929442Y-87645894D01*
X92903136Y-87684761D01*
X92864514Y-87723383D01*
X92864511Y-87723387D01*
X92849435Y-87749500D01*
X92805201Y-87826114D01*
X92774500Y-87940691D01*
X92774500Y-88059309D01*
X92805201Y-88173886D01*
X92864511Y-88276613D01*
X92948387Y-88360489D01*
X93051114Y-88419799D01*
X93165691Y-88450500D01*
X93165694Y-88450500D01*
X93284306Y-88450500D01*
X93284309Y-88450500D01*
X93398886Y-88419799D01*
X93501613Y-88360489D01*
X93585489Y-88276613D01*
X93644799Y-88173886D01*
X93675500Y-88059309D01*
X93675500Y-87940691D01*
X93644799Y-87826114D01*
X93585489Y-87723387D01*
X93501613Y-87639511D01*
X93398886Y-87580201D01*
X93392392Y-87578461D01*
X93332734Y-87542096D01*
X93302205Y-87479249D01*
X93310500Y-87409874D01*
X93336802Y-87371011D01*
X93400500Y-87307314D01*
X93466392Y-87193186D01*
X93500500Y-87065892D01*
X93500500Y-86934108D01*
X93466392Y-86806814D01*
X93400500Y-86692686D01*
X93307314Y-86599500D01*
X93250250Y-86566554D01*
X93193187Y-86533608D01*
X93129539Y-86516554D01*
X93065892Y-86499500D01*
X92934108Y-86499500D01*
X92806812Y-86533608D01*
X92692686Y-86599500D01*
X92692683Y-86599502D01*
X92599502Y-86692683D01*
X92599500Y-86692686D01*
X92533608Y-86806812D01*
X92499500Y-86934108D01*
X91373705Y-86934108D01*
X91366392Y-86906814D01*
X91300500Y-86792686D01*
X91207314Y-86699500D01*
X91150250Y-86666554D01*
X91093187Y-86633608D01*
X91029539Y-86616554D01*
X90965892Y-86599500D01*
X90834108Y-86599500D01*
X90706812Y-86633608D01*
X90592686Y-86699500D01*
X90592683Y-86699502D01*
X90499502Y-86792683D01*
X90499500Y-86792686D01*
X90433608Y-86906812D01*
X90399500Y-87034108D01*
X20300500Y-87034108D01*
X20300500Y-84440691D01*
X107224500Y-84440691D01*
X107224500Y-84559309D01*
X107255201Y-84673886D01*
X107314511Y-84776613D01*
X107398387Y-84860489D01*
X107501114Y-84919799D01*
X107615691Y-84950500D01*
X107615694Y-84950500D01*
X107734306Y-84950500D01*
X107734309Y-84950500D01*
X107848886Y-84919799D01*
X107951613Y-84860489D01*
X108035489Y-84776613D01*
X108094799Y-84673886D01*
X108125500Y-84559309D01*
X108125500Y-84440691D01*
X108094799Y-84326114D01*
X108035489Y-84223387D01*
X107951613Y-84139511D01*
X107848886Y-84080201D01*
X107734309Y-84049500D01*
X107615691Y-84049500D01*
X107501114Y-84080201D01*
X107501112Y-84080201D01*
X107501112Y-84080202D01*
X107398387Y-84139511D01*
X107398384Y-84139513D01*
X107314513Y-84223384D01*
X107314511Y-84223387D01*
X107255201Y-84326114D01*
X107224500Y-84440691D01*
X20300500Y-84440691D01*
X20300500Y-83609108D01*
X91499500Y-83609108D01*
X91499500Y-83740891D01*
X91533608Y-83868187D01*
X91566554Y-83925250D01*
X91599500Y-83982314D01*
X91692686Y-84075500D01*
X91806814Y-84141392D01*
X91934108Y-84175500D01*
X91934110Y-84175500D01*
X92065890Y-84175500D01*
X92065892Y-84175500D01*
X92193186Y-84141392D01*
X92307314Y-84075500D01*
X92400500Y-83982314D01*
X92466392Y-83868186D01*
X92500500Y-83740892D01*
X92500500Y-83609108D01*
X92466392Y-83481814D01*
X92400500Y-83367686D01*
X92307314Y-83274500D01*
X92250250Y-83241554D01*
X92193187Y-83208608D01*
X92129539Y-83191554D01*
X92065892Y-83174500D01*
X91934108Y-83174500D01*
X91806812Y-83208608D01*
X91692686Y-83274500D01*
X91692683Y-83274502D01*
X91599502Y-83367683D01*
X91599500Y-83367686D01*
X91533608Y-83481812D01*
X91499500Y-83609108D01*
X20300500Y-83609108D01*
X20300500Y-79940691D01*
X106029500Y-79940691D01*
X106029500Y-80059309D01*
X106060201Y-80173886D01*
X106119511Y-80276613D01*
X106203387Y-80360489D01*
X106306114Y-80419799D01*
X106420691Y-80450500D01*
X106420694Y-80450500D01*
X106475500Y-80450500D01*
X106542539Y-80470185D01*
X106588294Y-80522989D01*
X106599500Y-80574500D01*
X106599500Y-80665892D01*
X106629168Y-80776613D01*
X106633608Y-80793185D01*
X106633611Y-80793192D01*
X106659481Y-80838001D01*
X106675954Y-80905901D01*
X106659481Y-80961999D01*
X106633611Y-81006807D01*
X106633608Y-81006814D01*
X106599500Y-81134108D01*
X106599500Y-81265891D01*
X106633608Y-81393187D01*
X106666554Y-81450250D01*
X106699500Y-81507314D01*
X106792686Y-81600500D01*
X106906814Y-81666392D01*
X107034108Y-81700500D01*
X107034110Y-81700500D01*
X107165890Y-81700500D01*
X107165892Y-81700500D01*
X107293186Y-81666392D01*
X107407314Y-81600500D01*
X107500500Y-81507314D01*
X107566392Y-81393186D01*
X107600500Y-81265892D01*
X107600500Y-81134108D01*
X107566392Y-81006814D01*
X107566391Y-81006813D01*
X107566391Y-81006811D01*
X107540519Y-80962002D01*
X107524045Y-80894102D01*
X107540519Y-80837998D01*
X107566391Y-80793188D01*
X107570832Y-80776615D01*
X107600500Y-80665892D01*
X107600500Y-80534108D01*
X107575469Y-80440691D01*
X108149500Y-80440691D01*
X108149500Y-80559309D01*
X108180201Y-80673886D01*
X108239511Y-80776613D01*
X108323387Y-80860489D01*
X108426114Y-80919799D01*
X108540691Y-80950500D01*
X108540694Y-80950500D01*
X108659306Y-80950500D01*
X108659309Y-80950500D01*
X108773886Y-80919799D01*
X108876613Y-80860489D01*
X108960489Y-80776613D01*
X109019799Y-80673886D01*
X109050500Y-80559309D01*
X109050500Y-80440691D01*
X109019799Y-80326114D01*
X108960489Y-80223387D01*
X108876613Y-80139511D01*
X108773886Y-80080201D01*
X108659309Y-80049500D01*
X108540691Y-80049500D01*
X108426114Y-80080201D01*
X108426112Y-80080201D01*
X108426112Y-80080202D01*
X108323387Y-80139511D01*
X108323384Y-80139513D01*
X108239513Y-80223384D01*
X108239511Y-80223387D01*
X108195648Y-80299360D01*
X108180201Y-80326114D01*
X108149500Y-80440691D01*
X107575469Y-80440691D01*
X107566392Y-80406814D01*
X107536222Y-80354559D01*
X107532995Y-80346601D01*
X107530338Y-80320043D01*
X107524045Y-80294102D01*
X107526804Y-80284703D01*
X107526042Y-80277078D01*
X107533119Y-80263197D01*
X107540519Y-80237998D01*
X107566391Y-80193188D01*
X107566526Y-80192686D01*
X107600500Y-80065892D01*
X107600500Y-79934108D01*
X107566392Y-79806814D01*
X107566391Y-79806813D01*
X107566391Y-79806811D01*
X107540519Y-79762002D01*
X107524045Y-79694102D01*
X107540519Y-79637998D01*
X107566391Y-79593188D01*
X107566392Y-79593186D01*
X107600500Y-79465892D01*
X107600500Y-79434108D01*
X111499500Y-79434108D01*
X111499500Y-79565892D01*
X111506813Y-79593186D01*
X111533608Y-79693187D01*
X111566554Y-79750250D01*
X111599500Y-79807314D01*
X111599502Y-79807316D01*
X111692687Y-79900501D01*
X111694158Y-79901630D01*
X111695083Y-79902897D01*
X111698433Y-79906247D01*
X111697910Y-79906769D01*
X111735356Y-79958060D01*
X111739506Y-80027807D01*
X111705289Y-80088725D01*
X111694158Y-80098370D01*
X111692687Y-80099498D01*
X111599502Y-80192683D01*
X111599500Y-80192686D01*
X111533608Y-80306812D01*
X111519226Y-80360488D01*
X111499500Y-80434108D01*
X111499500Y-80565892D01*
X111505195Y-80587146D01*
X111533608Y-80693187D01*
X111565340Y-80748148D01*
X111599500Y-80807314D01*
X111692686Y-80900500D01*
X111806814Y-80966392D01*
X111934108Y-81000500D01*
X111934110Y-81000500D01*
X112065890Y-81000500D01*
X112065892Y-81000500D01*
X112193186Y-80966392D01*
X112307314Y-80900500D01*
X112400500Y-80807314D01*
X112466392Y-80693186D01*
X112500500Y-80565892D01*
X112500500Y-80434108D01*
X112466392Y-80306814D01*
X112400500Y-80192686D01*
X112307314Y-80099500D01*
X112307311Y-80099498D01*
X112305847Y-80098375D01*
X112304921Y-80097107D01*
X112301567Y-80093753D01*
X112302090Y-80093229D01*
X112264645Y-80041947D01*
X112260491Y-79972201D01*
X112294704Y-79911281D01*
X112305847Y-79901625D01*
X112307306Y-79900504D01*
X112307314Y-79900500D01*
X112400500Y-79807314D01*
X112466392Y-79693186D01*
X112500500Y-79565892D01*
X112500500Y-79434108D01*
X112466392Y-79306814D01*
X112400500Y-79192686D01*
X112307314Y-79099500D01*
X112250250Y-79066554D01*
X112193187Y-79033608D01*
X112129539Y-79016554D01*
X112065892Y-78999500D01*
X111934108Y-78999500D01*
X111806812Y-79033608D01*
X111692686Y-79099500D01*
X111692683Y-79099502D01*
X111599502Y-79192683D01*
X111599500Y-79192686D01*
X111533608Y-79306812D01*
X111526294Y-79334110D01*
X111499500Y-79434108D01*
X107600500Y-79434108D01*
X107600500Y-79334108D01*
X107566392Y-79206814D01*
X107500500Y-79092686D01*
X107407314Y-78999500D01*
X107350250Y-78966554D01*
X107293187Y-78933608D01*
X107225068Y-78915356D01*
X107165892Y-78899500D01*
X107034108Y-78899500D01*
X106906812Y-78933608D01*
X106792686Y-78999500D01*
X106792683Y-78999502D01*
X106699502Y-79092683D01*
X106699500Y-79092686D01*
X106633608Y-79206812D01*
X106599500Y-79334108D01*
X106599500Y-79425500D01*
X106579815Y-79492539D01*
X106527011Y-79538294D01*
X106475500Y-79549500D01*
X106420691Y-79549500D01*
X106306114Y-79580201D01*
X106306112Y-79580201D01*
X106306112Y-79580202D01*
X106203387Y-79639511D01*
X106203384Y-79639513D01*
X106119513Y-79723384D01*
X106119511Y-79723387D01*
X106063531Y-79820347D01*
X106060201Y-79826114D01*
X106029500Y-79940691D01*
X20300500Y-79940691D01*
X20300500Y-76105247D01*
X145834500Y-76105247D01*
X145834500Y-77894752D01*
X145846131Y-77953229D01*
X145846132Y-77953230D01*
X145890447Y-78019552D01*
X145956769Y-78063867D01*
X145956770Y-78063868D01*
X146014852Y-78075420D01*
X146015252Y-78075500D01*
X146015257Y-78075500D01*
X146021312Y-78076097D01*
X146021167Y-78077560D01*
X146081190Y-78095185D01*
X146126945Y-78147989D01*
X146136889Y-78217147D01*
X146107864Y-78280703D01*
X146101832Y-78287181D01*
X146089652Y-78299360D01*
X146089648Y-78299365D01*
X145990152Y-78436311D01*
X145913296Y-78587146D01*
X145860981Y-78748152D01*
X145834500Y-78915350D01*
X145834500Y-79084649D01*
X145860981Y-79251847D01*
X145913296Y-79412853D01*
X145953899Y-79492539D01*
X145982922Y-79549500D01*
X145990152Y-79563688D01*
X146089648Y-79700634D01*
X146089652Y-79700639D01*
X146209360Y-79820347D01*
X146209365Y-79820351D01*
X146318554Y-79899682D01*
X146361220Y-79955012D01*
X146367199Y-80024625D01*
X146334593Y-80086420D01*
X146318554Y-80100318D01*
X146209365Y-80179648D01*
X146209360Y-80179652D01*
X146089652Y-80299360D01*
X146089648Y-80299365D01*
X145990152Y-80436311D01*
X145913296Y-80587146D01*
X145860983Y-80748148D01*
X145834500Y-80915350D01*
X145834500Y-81084649D01*
X145860981Y-81251847D01*
X145913296Y-81412853D01*
X145990152Y-81563688D01*
X146089648Y-81700634D01*
X146089652Y-81700639D01*
X146209360Y-81820347D01*
X146209365Y-81820351D01*
X146328817Y-81907137D01*
X146346315Y-81919850D01*
X146442425Y-81968820D01*
X146497146Y-81996703D01*
X146497148Y-81996703D01*
X146497151Y-81996705D01*
X146583450Y-82024745D01*
X146658152Y-82049018D01*
X146825351Y-82075500D01*
X146825356Y-82075500D01*
X146994649Y-82075500D01*
X147161847Y-82049018D01*
X147322849Y-81996705D01*
X147473685Y-81919850D01*
X147610641Y-81820346D01*
X147730346Y-81700641D01*
X147829850Y-81563685D01*
X147906705Y-81412849D01*
X147959018Y-81251847D01*
X147985500Y-81084649D01*
X147985500Y-80915350D01*
X147959017Y-80748148D01*
X147906703Y-80587146D01*
X147874013Y-80522989D01*
X147829850Y-80436315D01*
X147808416Y-80406814D01*
X147730351Y-80299365D01*
X147730347Y-80299360D01*
X147610639Y-80179652D01*
X147610634Y-80179648D01*
X147501445Y-80100318D01*
X147458779Y-80044989D01*
X147452800Y-79975375D01*
X147485405Y-79913580D01*
X147501445Y-79899682D01*
X147610634Y-79820351D01*
X147610632Y-79820351D01*
X147610641Y-79820346D01*
X147730346Y-79700641D01*
X147829850Y-79563685D01*
X147906705Y-79412849D01*
X147959018Y-79251847D01*
X147985500Y-79084649D01*
X147985500Y-78915350D01*
X147959018Y-78748152D01*
X147906703Y-78587146D01*
X147878820Y-78532425D01*
X147829850Y-78436315D01*
X147817137Y-78418817D01*
X147730351Y-78299365D01*
X147730347Y-78299360D01*
X147718168Y-78287181D01*
X147684683Y-78225858D01*
X147689667Y-78156166D01*
X147731539Y-78100233D01*
X147797003Y-78075816D01*
X147804125Y-78075561D01*
X147804742Y-78075500D01*
X147804748Y-78075500D01*
X147819568Y-78072552D01*
X147863229Y-78063868D01*
X147863229Y-78063867D01*
X147863231Y-78063867D01*
X147929552Y-78019552D01*
X147973867Y-77953231D01*
X147973867Y-77953229D01*
X147973868Y-77953229D01*
X147985499Y-77894752D01*
X147985500Y-77894750D01*
X147985500Y-76105249D01*
X147985499Y-76105247D01*
X147973868Y-76046770D01*
X147973867Y-76046769D01*
X147929552Y-75980447D01*
X147863230Y-75936132D01*
X147863229Y-75936131D01*
X147804752Y-75924500D01*
X147804748Y-75924500D01*
X146015252Y-75924500D01*
X146015247Y-75924500D01*
X145956770Y-75936131D01*
X145956769Y-75936132D01*
X145890447Y-75980447D01*
X145846132Y-76046769D01*
X145846131Y-76046770D01*
X145834500Y-76105247D01*
X20300500Y-76105247D01*
X20300500Y-71940691D01*
X128686999Y-71940691D01*
X128686999Y-72059309D01*
X128717700Y-72173886D01*
X128777010Y-72276613D01*
X128860886Y-72360489D01*
X128963613Y-72419799D01*
X129078190Y-72450500D01*
X129078193Y-72450500D01*
X129196805Y-72450500D01*
X129196808Y-72450500D01*
X129311385Y-72419799D01*
X129414112Y-72360489D01*
X129497988Y-72276613D01*
X129557298Y-72173886D01*
X129587999Y-72059309D01*
X129587999Y-71940691D01*
X129557298Y-71826114D01*
X129497988Y-71723387D01*
X129414112Y-71639511D01*
X129311385Y-71580201D01*
X129196808Y-71549500D01*
X129078190Y-71549500D01*
X128963613Y-71580201D01*
X128963611Y-71580201D01*
X128963611Y-71580202D01*
X128860886Y-71639511D01*
X128860883Y-71639513D01*
X128777012Y-71723384D01*
X128777010Y-71723387D01*
X128717700Y-71826114D01*
X128686999Y-71940691D01*
X20300500Y-71940691D01*
X20300500Y-70734108D01*
X122359500Y-70734108D01*
X122359500Y-70865891D01*
X122393608Y-70993187D01*
X122426554Y-71050250D01*
X122459500Y-71107314D01*
X122552686Y-71200500D01*
X122666814Y-71266392D01*
X122794108Y-71300500D01*
X122794110Y-71300500D01*
X122925890Y-71300500D01*
X122925892Y-71300500D01*
X123053186Y-71266392D01*
X123167314Y-71200500D01*
X123260500Y-71107314D01*
X123326392Y-70993186D01*
X123360500Y-70865892D01*
X123360500Y-70734108D01*
X123326392Y-70606814D01*
X123260500Y-70492686D01*
X123167314Y-70399500D01*
X123110250Y-70366554D01*
X123053187Y-70333608D01*
X122989539Y-70316554D01*
X122925892Y-70299500D01*
X122794108Y-70299500D01*
X122666812Y-70333608D01*
X122552686Y-70399500D01*
X122552683Y-70399502D01*
X122459502Y-70492683D01*
X122459500Y-70492686D01*
X122393608Y-70606812D01*
X122359500Y-70734108D01*
X20300500Y-70734108D01*
X20300500Y-66440691D01*
X80849500Y-66440691D01*
X80849500Y-66559309D01*
X80880201Y-66673886D01*
X80939511Y-66776613D01*
X81023387Y-66860489D01*
X81126114Y-66919799D01*
X81240691Y-66950500D01*
X81240694Y-66950500D01*
X81359306Y-66950500D01*
X81359309Y-66950500D01*
X81473886Y-66919799D01*
X81576613Y-66860489D01*
X81660489Y-66776613D01*
X81719799Y-66673886D01*
X81750500Y-66559309D01*
X81750500Y-66440691D01*
X81719799Y-66326114D01*
X81660489Y-66223387D01*
X81576613Y-66139511D01*
X81473886Y-66080201D01*
X81359309Y-66049500D01*
X81240691Y-66049500D01*
X81126114Y-66080201D01*
X81126112Y-66080201D01*
X81126112Y-66080202D01*
X81023387Y-66139511D01*
X81023384Y-66139513D01*
X80939513Y-66223384D01*
X80939511Y-66223387D01*
X80880201Y-66326114D01*
X80849500Y-66440691D01*
X20300500Y-66440691D01*
X20300500Y-61644108D01*
X142609500Y-61644108D01*
X142609500Y-61775891D01*
X142643608Y-61903187D01*
X142676554Y-61960250D01*
X142709500Y-62017314D01*
X142802686Y-62110500D01*
X142916814Y-62176392D01*
X143044108Y-62210500D01*
X143044110Y-62210500D01*
X143175890Y-62210500D01*
X143175892Y-62210500D01*
X143303186Y-62176392D01*
X143417314Y-62110500D01*
X143510500Y-62017314D01*
X143576392Y-61903186D01*
X143610500Y-61775892D01*
X143610500Y-61644108D01*
X143576392Y-61516814D01*
X143510500Y-61402686D01*
X143417314Y-61309500D01*
X143360250Y-61276554D01*
X143303187Y-61243608D01*
X143239539Y-61226554D01*
X143175892Y-61209500D01*
X143044108Y-61209500D01*
X142916812Y-61243608D01*
X142802686Y-61309500D01*
X142802683Y-61309502D01*
X142709502Y-61402683D01*
X142709500Y-61402686D01*
X142643608Y-61516812D01*
X142609500Y-61644108D01*
X20300500Y-61644108D01*
X20300500Y-60664108D01*
X73039500Y-60664108D01*
X73039500Y-60795891D01*
X73073608Y-60923187D01*
X73106554Y-60980250D01*
X73139500Y-61037314D01*
X73232686Y-61130500D01*
X73346814Y-61196392D01*
X73474108Y-61230500D01*
X73474110Y-61230500D01*
X73605890Y-61230500D01*
X73605892Y-61230500D01*
X73733186Y-61196392D01*
X73847314Y-61130500D01*
X73940500Y-61037314D01*
X74006392Y-60923186D01*
X74040500Y-60795892D01*
X74040500Y-60664108D01*
X74006392Y-60536814D01*
X73950895Y-60440691D01*
X107224500Y-60440691D01*
X107224500Y-60559309D01*
X107255201Y-60673886D01*
X107314511Y-60776613D01*
X107398387Y-60860489D01*
X107501114Y-60919799D01*
X107615691Y-60950500D01*
X107615694Y-60950500D01*
X107734306Y-60950500D01*
X107734309Y-60950500D01*
X107848886Y-60919799D01*
X107951613Y-60860489D01*
X108035489Y-60776613D01*
X108094799Y-60673886D01*
X108125500Y-60559309D01*
X108125500Y-60440691D01*
X108094799Y-60326114D01*
X108035489Y-60223387D01*
X107951613Y-60139511D01*
X107848886Y-60080201D01*
X107734309Y-60049500D01*
X107615691Y-60049500D01*
X107501114Y-60080201D01*
X107501112Y-60080201D01*
X107501112Y-60080202D01*
X107398387Y-60139511D01*
X107398384Y-60139513D01*
X107314513Y-60223384D01*
X107314511Y-60223387D01*
X107255201Y-60326114D01*
X107224500Y-60440691D01*
X73950895Y-60440691D01*
X73940500Y-60422686D01*
X73847314Y-60329500D01*
X73790250Y-60296554D01*
X73733187Y-60263608D01*
X73669539Y-60246554D01*
X73605892Y-60229500D01*
X73474108Y-60229500D01*
X73346812Y-60263608D01*
X73232686Y-60329500D01*
X73232683Y-60329502D01*
X73139502Y-60422683D01*
X73139500Y-60422686D01*
X73073608Y-60536812D01*
X73039500Y-60664108D01*
X20300500Y-60664108D01*
X20300500Y-57784108D01*
X70499500Y-57784108D01*
X70499500Y-57915891D01*
X70533608Y-58043187D01*
X70566554Y-58100250D01*
X70599500Y-58157314D01*
X70692686Y-58250500D01*
X70806814Y-58316392D01*
X70934108Y-58350500D01*
X70934110Y-58350500D01*
X71065890Y-58350500D01*
X71065892Y-58350500D01*
X71193186Y-58316392D01*
X71307314Y-58250500D01*
X71400500Y-58157314D01*
X71466392Y-58043186D01*
X71500500Y-57915892D01*
X71500500Y-57784108D01*
X73249500Y-57784108D01*
X73249500Y-57915891D01*
X73283608Y-58043187D01*
X73316554Y-58100250D01*
X73349500Y-58157314D01*
X73442686Y-58250500D01*
X73556814Y-58316392D01*
X73684108Y-58350500D01*
X73684110Y-58350500D01*
X73815890Y-58350500D01*
X73815892Y-58350500D01*
X73943186Y-58316392D01*
X74057314Y-58250500D01*
X74150500Y-58157314D01*
X74216392Y-58043186D01*
X74250500Y-57915892D01*
X74250500Y-57784108D01*
X74216392Y-57656814D01*
X74203283Y-57634108D01*
X74499500Y-57634108D01*
X74499500Y-57765892D01*
X74514091Y-57820346D01*
X74533608Y-57893187D01*
X74566554Y-57950250D01*
X74599500Y-58007314D01*
X74692686Y-58100500D01*
X74806814Y-58166392D01*
X74934108Y-58200500D01*
X74934110Y-58200500D01*
X75065890Y-58200500D01*
X75065892Y-58200500D01*
X75193186Y-58166392D01*
X75307314Y-58100500D01*
X75400500Y-58007314D01*
X75466392Y-57893186D01*
X75500500Y-57765892D01*
X75500500Y-57634108D01*
X75466392Y-57506814D01*
X75400500Y-57392686D01*
X75307314Y-57299500D01*
X75224777Y-57251847D01*
X75193187Y-57233608D01*
X75129539Y-57216554D01*
X75065892Y-57199500D01*
X74934108Y-57199500D01*
X74806812Y-57233608D01*
X74692686Y-57299500D01*
X74692683Y-57299502D01*
X74599502Y-57392683D01*
X74599500Y-57392686D01*
X74533608Y-57506812D01*
X74518369Y-57563688D01*
X74499500Y-57634108D01*
X74203283Y-57634108D01*
X74150500Y-57542686D01*
X74057314Y-57449500D01*
X73993833Y-57412849D01*
X73943187Y-57383608D01*
X73879539Y-57366554D01*
X73815892Y-57349500D01*
X73684108Y-57349500D01*
X73556812Y-57383608D01*
X73442686Y-57449500D01*
X73442683Y-57449502D01*
X73349502Y-57542683D01*
X73349500Y-57542686D01*
X73283608Y-57656812D01*
X73249500Y-57784108D01*
X71500500Y-57784108D01*
X71466392Y-57656814D01*
X71400500Y-57542686D01*
X71307314Y-57449500D01*
X71243833Y-57412849D01*
X71193187Y-57383608D01*
X71129539Y-57366554D01*
X71065892Y-57349500D01*
X70934108Y-57349500D01*
X70806812Y-57383608D01*
X70692686Y-57449500D01*
X70692683Y-57449502D01*
X70599502Y-57542683D01*
X70599500Y-57542686D01*
X70533608Y-57656812D01*
X70499500Y-57784108D01*
X20300500Y-57784108D01*
X20300500Y-55940691D01*
X106029500Y-55940691D01*
X106029500Y-56059309D01*
X106060201Y-56173886D01*
X106119511Y-56276613D01*
X106203387Y-56360489D01*
X106306114Y-56419799D01*
X106420691Y-56450500D01*
X106420694Y-56450500D01*
X106475500Y-56450500D01*
X106542539Y-56470185D01*
X106588294Y-56522989D01*
X106599500Y-56574500D01*
X106599500Y-56665892D01*
X106629168Y-56776613D01*
X106633608Y-56793185D01*
X106633611Y-56793192D01*
X106659481Y-56838001D01*
X106675954Y-56905901D01*
X106659481Y-56961999D01*
X106633611Y-57006807D01*
X106633608Y-57006814D01*
X106599500Y-57134108D01*
X106599500Y-57265891D01*
X106633608Y-57393187D01*
X106666121Y-57449500D01*
X106699500Y-57507314D01*
X106792686Y-57600500D01*
X106906814Y-57666392D01*
X107034108Y-57700500D01*
X107034110Y-57700500D01*
X107165890Y-57700500D01*
X107165892Y-57700500D01*
X107293186Y-57666392D01*
X107407314Y-57600500D01*
X107500500Y-57507314D01*
X107566392Y-57393186D01*
X107600500Y-57265892D01*
X107600500Y-57134108D01*
X107566392Y-57006814D01*
X107566391Y-57006813D01*
X107566391Y-57006811D01*
X107540519Y-56962002D01*
X107524045Y-56894102D01*
X107540519Y-56837998D01*
X107566391Y-56793188D01*
X107570832Y-56776615D01*
X107600500Y-56665892D01*
X107600500Y-56534108D01*
X107575469Y-56440691D01*
X108149500Y-56440691D01*
X108149500Y-56559309D01*
X108180201Y-56673886D01*
X108239511Y-56776613D01*
X108323387Y-56860489D01*
X108426114Y-56919799D01*
X108540691Y-56950500D01*
X108540694Y-56950500D01*
X108659306Y-56950500D01*
X108659309Y-56950500D01*
X108773886Y-56919799D01*
X108876613Y-56860489D01*
X108960489Y-56776613D01*
X109019799Y-56673886D01*
X109050500Y-56559309D01*
X109050500Y-56440691D01*
X109019799Y-56326114D01*
X108960489Y-56223387D01*
X108876613Y-56139511D01*
X108773886Y-56080201D01*
X108659309Y-56049500D01*
X108540691Y-56049500D01*
X108426114Y-56080201D01*
X108426112Y-56080201D01*
X108426112Y-56080202D01*
X108323387Y-56139511D01*
X108323384Y-56139513D01*
X108239513Y-56223384D01*
X108239511Y-56223387D01*
X108195648Y-56299360D01*
X108180201Y-56326114D01*
X108149500Y-56440691D01*
X107575469Y-56440691D01*
X107566392Y-56406814D01*
X107536222Y-56354559D01*
X107532995Y-56346601D01*
X107530338Y-56320043D01*
X107524045Y-56294102D01*
X107526804Y-56284703D01*
X107526042Y-56277078D01*
X107533119Y-56263197D01*
X107540519Y-56237998D01*
X107566391Y-56193188D01*
X107566526Y-56192686D01*
X107600500Y-56065892D01*
X107600500Y-55934108D01*
X107566392Y-55806814D01*
X107566391Y-55806813D01*
X107566391Y-55806811D01*
X107540519Y-55762002D01*
X107524045Y-55694102D01*
X107540519Y-55637998D01*
X107566391Y-55593188D01*
X107566392Y-55593186D01*
X107600500Y-55465892D01*
X107600500Y-55434108D01*
X111499500Y-55434108D01*
X111499500Y-55565892D01*
X111506813Y-55593186D01*
X111533608Y-55693187D01*
X111566554Y-55750250D01*
X111599500Y-55807314D01*
X111599502Y-55807316D01*
X111692687Y-55900501D01*
X111694158Y-55901630D01*
X111695083Y-55902897D01*
X111698433Y-55906247D01*
X111697910Y-55906769D01*
X111735356Y-55958060D01*
X111739506Y-56027807D01*
X111705289Y-56088725D01*
X111694158Y-56098370D01*
X111692687Y-56099498D01*
X111599502Y-56192683D01*
X111599500Y-56192686D01*
X111533608Y-56306812D01*
X111519226Y-56360488D01*
X111499500Y-56434108D01*
X111499500Y-56565892D01*
X111505195Y-56587146D01*
X111533608Y-56693187D01*
X111565340Y-56748148D01*
X111599500Y-56807314D01*
X111692686Y-56900500D01*
X111806814Y-56966392D01*
X111934108Y-57000500D01*
X111934110Y-57000500D01*
X112065890Y-57000500D01*
X112065892Y-57000500D01*
X112193186Y-56966392D01*
X112307314Y-56900500D01*
X112400500Y-56807314D01*
X112466392Y-56693186D01*
X112500500Y-56565892D01*
X112500500Y-56434108D01*
X112466392Y-56306814D01*
X112400500Y-56192686D01*
X112307314Y-56099500D01*
X112307311Y-56099498D01*
X112305847Y-56098375D01*
X112304921Y-56097107D01*
X112301567Y-56093753D01*
X112302090Y-56093229D01*
X112264645Y-56041947D01*
X112260491Y-55972201D01*
X112294704Y-55911281D01*
X112305847Y-55901625D01*
X112307306Y-55900504D01*
X112307314Y-55900500D01*
X112400500Y-55807314D01*
X112466392Y-55693186D01*
X112500500Y-55565892D01*
X112500500Y-55434108D01*
X112466392Y-55306814D01*
X112400500Y-55192686D01*
X112307314Y-55099500D01*
X112250250Y-55066554D01*
X112193187Y-55033608D01*
X112106900Y-55010488D01*
X112065892Y-54999500D01*
X111934108Y-54999500D01*
X111806812Y-55033608D01*
X111692686Y-55099500D01*
X111692683Y-55099502D01*
X111599502Y-55192683D01*
X111599500Y-55192686D01*
X111533608Y-55306812D01*
X111526294Y-55334110D01*
X111499500Y-55434108D01*
X107600500Y-55434108D01*
X107600500Y-55334108D01*
X107566392Y-55206814D01*
X107500500Y-55092686D01*
X107407314Y-54999500D01*
X107350250Y-54966554D01*
X107293187Y-54933608D01*
X107225068Y-54915356D01*
X107165892Y-54899500D01*
X107034108Y-54899500D01*
X106906812Y-54933608D01*
X106792686Y-54999500D01*
X106792683Y-54999502D01*
X106699502Y-55092683D01*
X106699500Y-55092686D01*
X106633608Y-55206812D01*
X106599500Y-55334108D01*
X106599500Y-55425500D01*
X106579815Y-55492539D01*
X106527011Y-55538294D01*
X106475500Y-55549500D01*
X106420691Y-55549500D01*
X106306114Y-55580201D01*
X106306112Y-55580201D01*
X106306112Y-55580202D01*
X106203387Y-55639511D01*
X106203384Y-55639513D01*
X106119513Y-55723384D01*
X106119511Y-55723387D01*
X106063531Y-55820347D01*
X106060201Y-55826114D01*
X106029500Y-55940691D01*
X20300500Y-55940691D01*
X20300500Y-54064108D01*
X54049500Y-54064108D01*
X54049500Y-54195891D01*
X54083608Y-54323187D01*
X54110118Y-54369102D01*
X54149500Y-54437314D01*
X54242686Y-54530500D01*
X54356814Y-54596392D01*
X54484108Y-54630500D01*
X54484110Y-54630500D01*
X54615890Y-54630500D01*
X54615892Y-54630500D01*
X54743186Y-54596392D01*
X54857314Y-54530500D01*
X54950500Y-54437314D01*
X55016392Y-54323186D01*
X55050500Y-54195892D01*
X55050500Y-54064108D01*
X55044225Y-54040691D01*
X92999500Y-54040691D01*
X92999500Y-54159309D01*
X93014998Y-54217147D01*
X93030201Y-54273886D01*
X93052784Y-54313001D01*
X93069256Y-54380901D01*
X93052784Y-54436999D01*
X93030201Y-54476113D01*
X93030201Y-54476114D01*
X92999500Y-54590691D01*
X92999500Y-54709309D01*
X93030201Y-54823886D01*
X93089511Y-54926613D01*
X93173387Y-55010489D01*
X93276114Y-55069799D01*
X93390691Y-55100500D01*
X93390694Y-55100500D01*
X93509306Y-55100500D01*
X93509309Y-55100500D01*
X93623886Y-55069799D01*
X93726613Y-55010489D01*
X93810489Y-54926613D01*
X93869799Y-54823886D01*
X93880225Y-54784972D01*
X93916590Y-54725313D01*
X93979437Y-54694784D01*
X94048812Y-54703079D01*
X94102690Y-54747564D01*
X94119773Y-54784971D01*
X94126572Y-54810343D01*
X94130201Y-54823887D01*
X94159856Y-54875249D01*
X94189511Y-54926613D01*
X94273387Y-55010489D01*
X94376114Y-55069799D01*
X94490691Y-55100500D01*
X94490694Y-55100500D01*
X94609306Y-55100500D01*
X94609309Y-55100500D01*
X94723886Y-55069799D01*
X94826613Y-55010489D01*
X94910489Y-54926613D01*
X94969799Y-54823886D01*
X95000500Y-54709309D01*
X95000500Y-54590691D01*
X94969799Y-54476114D01*
X94947216Y-54436999D01*
X94930743Y-54369102D01*
X94947217Y-54312998D01*
X94955091Y-54299360D01*
X94969799Y-54273886D01*
X95000500Y-54159309D01*
X95000500Y-54040691D01*
X94969799Y-53926114D01*
X94910489Y-53823387D01*
X94826613Y-53739511D01*
X94723886Y-53680201D01*
X94609309Y-53649500D01*
X94490691Y-53649500D01*
X94376114Y-53680201D01*
X94376112Y-53680201D01*
X94376112Y-53680202D01*
X94273387Y-53739511D01*
X94273384Y-53739513D01*
X94189513Y-53823384D01*
X94189511Y-53823387D01*
X94130201Y-53926114D01*
X94119774Y-53965027D01*
X94083410Y-54024686D01*
X94020563Y-54055215D01*
X93951187Y-54046920D01*
X93897309Y-54002435D01*
X93880226Y-53965028D01*
X93869799Y-53926114D01*
X93810489Y-53823387D01*
X93726613Y-53739511D01*
X93623886Y-53680201D01*
X93509309Y-53649500D01*
X93390691Y-53649500D01*
X93276114Y-53680201D01*
X93276112Y-53680201D01*
X93276112Y-53680202D01*
X93173387Y-53739511D01*
X93173384Y-53739513D01*
X93089513Y-53823384D01*
X93089511Y-53823387D01*
X93030201Y-53926114D01*
X92999500Y-54040691D01*
X55044225Y-54040691D01*
X55016392Y-53936814D01*
X54950500Y-53822686D01*
X54857314Y-53729500D01*
X54771926Y-53680201D01*
X54743187Y-53663608D01*
X54679539Y-53646554D01*
X54615892Y-53629500D01*
X54484108Y-53629500D01*
X54356812Y-53663608D01*
X54242686Y-53729500D01*
X54242683Y-53729502D01*
X54149502Y-53822683D01*
X54149500Y-53822686D01*
X54083608Y-53936812D01*
X54049500Y-54064108D01*
X20300500Y-54064108D01*
X20300500Y-52604108D01*
X67509500Y-52604108D01*
X67509500Y-52735892D01*
X67519302Y-52772475D01*
X67543608Y-52863187D01*
X67572071Y-52912485D01*
X67609500Y-52977314D01*
X67702686Y-53070500D01*
X67816814Y-53136392D01*
X67944108Y-53170500D01*
X67944110Y-53170500D01*
X68075890Y-53170500D01*
X68075892Y-53170500D01*
X68203186Y-53136392D01*
X68317314Y-53070500D01*
X68410500Y-52977314D01*
X68476392Y-52863186D01*
X68510500Y-52735892D01*
X68510500Y-52604108D01*
X68476392Y-52476814D01*
X68410500Y-52362686D01*
X68317314Y-52269500D01*
X68260250Y-52236554D01*
X68203187Y-52203608D01*
X68116676Y-52180428D01*
X68075892Y-52169500D01*
X67944108Y-52169500D01*
X67816812Y-52203608D01*
X67702686Y-52269500D01*
X67702683Y-52269502D01*
X67609502Y-52362683D01*
X67609500Y-52362686D01*
X67543608Y-52476812D01*
X67509500Y-52604108D01*
X20300500Y-52604108D01*
X20300500Y-51727525D01*
X95449500Y-51727525D01*
X95449500Y-51872475D01*
X95478432Y-51980448D01*
X95487017Y-52012488D01*
X95559488Y-52138011D01*
X95559489Y-52138012D01*
X95559491Y-52138015D01*
X95583796Y-52162320D01*
X95617280Y-52223644D01*
X95612294Y-52293335D01*
X95583796Y-52337680D01*
X95559488Y-52361988D01*
X95487017Y-52487511D01*
X95487016Y-52487515D01*
X95449500Y-52627525D01*
X95449500Y-52772475D01*
X95487016Y-52912485D01*
X95487017Y-52912488D01*
X95559488Y-53038011D01*
X95559490Y-53038013D01*
X95559491Y-53038015D01*
X95661985Y-53140509D01*
X95661986Y-53140510D01*
X95661988Y-53140511D01*
X95787511Y-53212982D01*
X95787512Y-53212982D01*
X95787515Y-53212984D01*
X95927525Y-53250500D01*
X95927528Y-53250500D01*
X96072472Y-53250500D01*
X96072475Y-53250500D01*
X96212485Y-53212984D01*
X96338015Y-53140509D01*
X96412319Y-53066205D01*
X96473642Y-53032720D01*
X96543334Y-53037704D01*
X96587681Y-53066205D01*
X96661985Y-53140509D01*
X96661986Y-53140510D01*
X96661988Y-53140511D01*
X96787511Y-53212982D01*
X96787512Y-53212982D01*
X96787515Y-53212984D01*
X96927525Y-53250500D01*
X96927528Y-53250500D01*
X97072472Y-53250500D01*
X97072475Y-53250500D01*
X97212485Y-53212984D01*
X97338015Y-53140509D01*
X97412319Y-53066205D01*
X97473642Y-53032720D01*
X97543334Y-53037704D01*
X97587681Y-53066205D01*
X97661985Y-53140509D01*
X97661986Y-53140510D01*
X97661988Y-53140511D01*
X97787511Y-53212982D01*
X97787512Y-53212982D01*
X97787515Y-53212984D01*
X97927525Y-53250500D01*
X97927528Y-53250500D01*
X98072472Y-53250500D01*
X98072475Y-53250500D01*
X98212485Y-53212984D01*
X98338015Y-53140509D01*
X98412319Y-53066205D01*
X98473642Y-53032720D01*
X98543334Y-53037704D01*
X98587681Y-53066205D01*
X98661985Y-53140509D01*
X98661986Y-53140510D01*
X98661988Y-53140511D01*
X98787511Y-53212982D01*
X98787512Y-53212982D01*
X98787515Y-53212984D01*
X98927525Y-53250500D01*
X98927528Y-53250500D01*
X99072472Y-53250500D01*
X99072475Y-53250500D01*
X99212485Y-53212984D01*
X99338015Y-53140509D01*
X99412319Y-53066205D01*
X99473642Y-53032720D01*
X99543334Y-53037704D01*
X99587681Y-53066205D01*
X99661985Y-53140509D01*
X99661986Y-53140510D01*
X99661988Y-53140511D01*
X99787511Y-53212982D01*
X99787512Y-53212982D01*
X99787515Y-53212984D01*
X99927525Y-53250500D01*
X99927528Y-53250500D01*
X100072472Y-53250500D01*
X100072475Y-53250500D01*
X100212485Y-53212984D01*
X100338015Y-53140509D01*
X100412319Y-53066205D01*
X100473642Y-53032720D01*
X100543334Y-53037704D01*
X100587681Y-53066205D01*
X100661985Y-53140509D01*
X100661986Y-53140510D01*
X100661988Y-53140511D01*
X100787511Y-53212982D01*
X100787512Y-53212982D01*
X100787515Y-53212984D01*
X100927525Y-53250500D01*
X100927528Y-53250500D01*
X101072472Y-53250500D01*
X101072475Y-53250500D01*
X101212485Y-53212984D01*
X101338015Y-53140509D01*
X101412319Y-53066205D01*
X101473642Y-53032720D01*
X101543334Y-53037704D01*
X101587681Y-53066205D01*
X101661985Y-53140509D01*
X101661986Y-53140510D01*
X101661988Y-53140511D01*
X101787511Y-53212982D01*
X101787512Y-53212982D01*
X101787515Y-53212984D01*
X101927525Y-53250500D01*
X101927528Y-53250500D01*
X102072472Y-53250500D01*
X102072475Y-53250500D01*
X102212485Y-53212984D01*
X102338015Y-53140509D01*
X102440509Y-53038015D01*
X102512984Y-52912485D01*
X102550500Y-52772475D01*
X102550500Y-52627525D01*
X102512984Y-52487515D01*
X102440509Y-52361985D01*
X102416204Y-52337680D01*
X102382720Y-52276358D01*
X102387704Y-52206666D01*
X102401242Y-52180428D01*
X102407859Y-52170664D01*
X102440509Y-52138015D01*
X102459428Y-52105247D01*
X145834500Y-52105247D01*
X145834500Y-53894752D01*
X145846131Y-53953229D01*
X145846132Y-53953230D01*
X145890447Y-54019552D01*
X145956769Y-54063867D01*
X145956770Y-54063868D01*
X146014852Y-54075420D01*
X146015252Y-54075500D01*
X146015257Y-54075500D01*
X146021312Y-54076097D01*
X146021167Y-54077560D01*
X146081190Y-54095185D01*
X146126945Y-54147989D01*
X146136889Y-54217147D01*
X146107864Y-54280703D01*
X146101832Y-54287181D01*
X146089652Y-54299360D01*
X146089648Y-54299365D01*
X145990152Y-54436311D01*
X145913296Y-54587146D01*
X145860981Y-54748152D01*
X145834500Y-54915350D01*
X145834500Y-55084649D01*
X145860981Y-55251847D01*
X145913296Y-55412853D01*
X145953899Y-55492539D01*
X145982922Y-55549500D01*
X145990152Y-55563688D01*
X146089648Y-55700634D01*
X146089652Y-55700639D01*
X146209360Y-55820347D01*
X146209365Y-55820351D01*
X146318554Y-55899682D01*
X146361220Y-55955012D01*
X146367199Y-56024625D01*
X146334593Y-56086420D01*
X146318554Y-56100318D01*
X146209365Y-56179648D01*
X146209360Y-56179652D01*
X146089652Y-56299360D01*
X146089648Y-56299365D01*
X145990152Y-56436311D01*
X145913296Y-56587146D01*
X145860983Y-56748148D01*
X145834500Y-56915350D01*
X145834500Y-57084649D01*
X145860981Y-57251847D01*
X145913296Y-57412853D01*
X145961172Y-57506812D01*
X145979450Y-57542686D01*
X145990152Y-57563688D01*
X146089648Y-57700634D01*
X146089652Y-57700639D01*
X146209360Y-57820347D01*
X146209365Y-57820351D01*
X146309615Y-57893186D01*
X146346315Y-57919850D01*
X146442425Y-57968820D01*
X146497146Y-57996703D01*
X146497148Y-57996703D01*
X146497151Y-57996705D01*
X146583450Y-58024745D01*
X146658152Y-58049018D01*
X146825351Y-58075500D01*
X146825356Y-58075500D01*
X146994649Y-58075500D01*
X147161847Y-58049018D01*
X147179796Y-58043186D01*
X147322849Y-57996705D01*
X147473685Y-57919850D01*
X147610641Y-57820346D01*
X147730346Y-57700641D01*
X147829850Y-57563685D01*
X147906705Y-57412849D01*
X147959018Y-57251847D01*
X147967309Y-57199500D01*
X147985500Y-57084649D01*
X147985500Y-56915350D01*
X147959017Y-56748148D01*
X147906703Y-56587146D01*
X147874013Y-56522989D01*
X147829850Y-56436315D01*
X147808416Y-56406814D01*
X147730351Y-56299365D01*
X147730347Y-56299360D01*
X147610639Y-56179652D01*
X147610634Y-56179648D01*
X147501445Y-56100318D01*
X147458779Y-56044989D01*
X147452800Y-55975375D01*
X147485405Y-55913580D01*
X147501445Y-55899682D01*
X147610634Y-55820351D01*
X147610632Y-55820351D01*
X147610641Y-55820346D01*
X147730346Y-55700641D01*
X147829850Y-55563685D01*
X147906705Y-55412849D01*
X147959018Y-55251847D01*
X147985500Y-55084649D01*
X147985500Y-54915350D01*
X147959018Y-54748152D01*
X147920790Y-54630499D01*
X147906705Y-54587151D01*
X147906703Y-54587148D01*
X147906703Y-54587146D01*
X147877838Y-54530497D01*
X147829850Y-54436315D01*
X147781017Y-54369102D01*
X147730351Y-54299365D01*
X147730347Y-54299360D01*
X147718168Y-54287181D01*
X147684683Y-54225858D01*
X147689667Y-54156166D01*
X147731539Y-54100233D01*
X147797003Y-54075816D01*
X147804125Y-54075561D01*
X147804742Y-54075500D01*
X147804748Y-54075500D01*
X147819568Y-54072552D01*
X147863229Y-54063868D01*
X147863229Y-54063867D01*
X147863231Y-54063867D01*
X147929552Y-54019552D01*
X147973867Y-53953231D01*
X147973867Y-53953229D01*
X147973868Y-53953229D01*
X147985499Y-53894752D01*
X147985500Y-53894750D01*
X147985500Y-52105249D01*
X147985499Y-52105247D01*
X147973868Y-52046770D01*
X147973867Y-52046769D01*
X147929552Y-51980447D01*
X147863230Y-51936132D01*
X147863229Y-51936131D01*
X147804752Y-51924500D01*
X147804748Y-51924500D01*
X146015252Y-51924500D01*
X146015247Y-51924500D01*
X145956770Y-51936131D01*
X145956769Y-51936132D01*
X145890447Y-51980447D01*
X145846132Y-52046769D01*
X145846131Y-52046770D01*
X145834500Y-52105247D01*
X102459428Y-52105247D01*
X102512984Y-52012485D01*
X102550500Y-51872475D01*
X102550500Y-51727525D01*
X102512984Y-51587515D01*
X102440509Y-51461985D01*
X102338015Y-51359491D01*
X102338013Y-51359490D01*
X102338011Y-51359488D01*
X102212488Y-51287017D01*
X102212489Y-51287017D01*
X102201006Y-51283940D01*
X102072475Y-51249500D01*
X101927525Y-51249500D01*
X101798993Y-51283940D01*
X101787511Y-51287017D01*
X101661988Y-51359488D01*
X101661982Y-51359493D01*
X101587681Y-51433795D01*
X101526358Y-51467280D01*
X101456666Y-51462296D01*
X101412319Y-51433795D01*
X101338017Y-51359493D01*
X101338011Y-51359488D01*
X101212488Y-51287017D01*
X101212489Y-51287017D01*
X101201006Y-51283940D01*
X101072475Y-51249500D01*
X100927525Y-51249500D01*
X100798993Y-51283940D01*
X100787511Y-51287017D01*
X100661988Y-51359488D01*
X100661982Y-51359493D01*
X100587681Y-51433795D01*
X100526358Y-51467280D01*
X100456666Y-51462296D01*
X100412319Y-51433795D01*
X100338017Y-51359493D01*
X100338011Y-51359488D01*
X100212488Y-51287017D01*
X100212489Y-51287017D01*
X100201006Y-51283940D01*
X100072475Y-51249500D01*
X99927525Y-51249500D01*
X99798993Y-51283940D01*
X99787511Y-51287017D01*
X99661988Y-51359488D01*
X99661982Y-51359493D01*
X99587681Y-51433795D01*
X99526358Y-51467280D01*
X99456666Y-51462296D01*
X99412319Y-51433795D01*
X99338017Y-51359493D01*
X99338011Y-51359488D01*
X99212488Y-51287017D01*
X99212489Y-51287017D01*
X99201006Y-51283940D01*
X99072475Y-51249500D01*
X98927525Y-51249500D01*
X98798993Y-51283940D01*
X98787511Y-51287017D01*
X98661988Y-51359488D01*
X98661982Y-51359493D01*
X98587681Y-51433795D01*
X98526358Y-51467280D01*
X98456666Y-51462296D01*
X98412319Y-51433795D01*
X98338017Y-51359493D01*
X98338011Y-51359488D01*
X98212488Y-51287017D01*
X98212489Y-51287017D01*
X98201006Y-51283940D01*
X98072475Y-51249500D01*
X97927525Y-51249500D01*
X97798993Y-51283940D01*
X97787511Y-51287017D01*
X97661988Y-51359488D01*
X97661982Y-51359493D01*
X97587681Y-51433795D01*
X97526358Y-51467280D01*
X97456666Y-51462296D01*
X97412319Y-51433795D01*
X97338017Y-51359493D01*
X97338011Y-51359488D01*
X97212488Y-51287017D01*
X97212489Y-51287017D01*
X97201006Y-51283940D01*
X97072475Y-51249500D01*
X96927525Y-51249500D01*
X96798993Y-51283940D01*
X96787511Y-51287017D01*
X96661988Y-51359488D01*
X96661982Y-51359493D01*
X96587681Y-51433795D01*
X96526358Y-51467280D01*
X96456666Y-51462296D01*
X96412319Y-51433795D01*
X96338017Y-51359493D01*
X96338011Y-51359488D01*
X96212488Y-51287017D01*
X96212489Y-51287017D01*
X96201006Y-51283940D01*
X96072475Y-51249500D01*
X95927525Y-51249500D01*
X95798993Y-51283940D01*
X95787511Y-51287017D01*
X95661988Y-51359488D01*
X95661982Y-51359493D01*
X95559493Y-51461982D01*
X95559488Y-51461988D01*
X95487017Y-51587511D01*
X95487016Y-51587515D01*
X95449500Y-51727525D01*
X20300500Y-51727525D01*
X20300500Y-49940691D01*
X75524500Y-49940691D01*
X75524500Y-50059309D01*
X75555201Y-50173886D01*
X75614511Y-50276613D01*
X75698387Y-50360489D01*
X75801114Y-50419799D01*
X75915691Y-50450500D01*
X75915694Y-50450500D01*
X76034306Y-50450500D01*
X76034309Y-50450500D01*
X76148886Y-50419799D01*
X76251613Y-50360489D01*
X76335489Y-50276613D01*
X76394799Y-50173886D01*
X76425500Y-50059309D01*
X76425500Y-49940691D01*
X76394799Y-49826114D01*
X76335489Y-49723387D01*
X76251613Y-49639511D01*
X76148886Y-49580201D01*
X76034309Y-49549500D01*
X75915691Y-49549500D01*
X75801114Y-49580201D01*
X75801112Y-49580201D01*
X75801112Y-49580202D01*
X75698387Y-49639511D01*
X75698384Y-49639513D01*
X75614513Y-49723384D01*
X75614511Y-49723387D01*
X75555201Y-49826114D01*
X75524500Y-49940691D01*
X20300500Y-49940691D01*
X20300500Y-49334108D01*
X94599500Y-49334108D01*
X94599500Y-49465891D01*
X94633608Y-49593187D01*
X94660354Y-49639511D01*
X94699500Y-49707314D01*
X94792686Y-49800500D01*
X94906814Y-49866392D01*
X95034108Y-49900500D01*
X95034110Y-49900500D01*
X95165890Y-49900500D01*
X95165892Y-49900500D01*
X95293186Y-49866392D01*
X95407314Y-49800500D01*
X95500500Y-49707314D01*
X95566392Y-49593186D01*
X95600500Y-49465892D01*
X95600500Y-49334108D01*
X95566392Y-49206814D01*
X95500500Y-49092686D01*
X95407314Y-48999500D01*
X95324375Y-48951615D01*
X95293187Y-48933608D01*
X95229539Y-48916554D01*
X95165892Y-48899500D01*
X95034108Y-48899500D01*
X94906812Y-48933608D01*
X94792686Y-48999500D01*
X94792683Y-48999502D01*
X94699502Y-49092683D01*
X94699500Y-49092686D01*
X94633608Y-49206812D01*
X94599500Y-49334108D01*
X20300500Y-49334108D01*
X20300500Y-48615691D01*
X73549500Y-48615691D01*
X73549500Y-48734309D01*
X73580201Y-48848886D01*
X73639511Y-48951613D01*
X73723387Y-49035489D01*
X73826114Y-49094799D01*
X73940691Y-49125500D01*
X73940694Y-49125500D01*
X74059306Y-49125500D01*
X74059309Y-49125500D01*
X74173886Y-49094799D01*
X74276613Y-49035489D01*
X74360489Y-48951613D01*
X74419799Y-48848886D01*
X74450500Y-48734309D01*
X74450500Y-48615691D01*
X74419799Y-48501114D01*
X74360489Y-48398387D01*
X74276613Y-48314511D01*
X74173886Y-48255201D01*
X74059309Y-48224500D01*
X73940691Y-48224500D01*
X73826114Y-48255201D01*
X73826112Y-48255201D01*
X73826112Y-48255202D01*
X73723387Y-48314511D01*
X73723384Y-48314513D01*
X73639513Y-48398384D01*
X73639511Y-48398387D01*
X73580201Y-48501114D01*
X73549500Y-48615691D01*
X20300500Y-48615691D01*
X20300500Y-43940691D01*
X128686999Y-43940691D01*
X128686999Y-44059309D01*
X128717700Y-44173886D01*
X128777010Y-44276613D01*
X128860886Y-44360489D01*
X128963613Y-44419799D01*
X129078190Y-44450500D01*
X129078193Y-44450500D01*
X129196805Y-44450500D01*
X129196808Y-44450500D01*
X129311385Y-44419799D01*
X129414112Y-44360489D01*
X129497988Y-44276613D01*
X129557298Y-44173886D01*
X129587999Y-44059309D01*
X129587999Y-43940691D01*
X129557298Y-43826114D01*
X129497988Y-43723387D01*
X129414112Y-43639511D01*
X129311385Y-43580201D01*
X129196808Y-43549500D01*
X129078190Y-43549500D01*
X128963613Y-43580201D01*
X128963611Y-43580201D01*
X128963611Y-43580202D01*
X128860886Y-43639511D01*
X128860883Y-43639513D01*
X128777012Y-43723384D01*
X128777010Y-43723387D01*
X128717700Y-43826114D01*
X128686999Y-43940691D01*
X20300500Y-43940691D01*
X20300500Y-36830247D01*
X25649500Y-36830247D01*
X25649500Y-39169752D01*
X25661131Y-39228229D01*
X25661132Y-39228230D01*
X25705447Y-39294552D01*
X25771769Y-39338867D01*
X25771770Y-39338868D01*
X25830247Y-39350499D01*
X25830250Y-39350500D01*
X25830252Y-39350500D01*
X28169750Y-39350500D01*
X28169751Y-39350499D01*
X28184568Y-39347552D01*
X28228229Y-39338868D01*
X28228229Y-39338867D01*
X28228231Y-39338867D01*
X28294552Y-39294552D01*
X28338867Y-39228231D01*
X28338867Y-39228229D01*
X28338868Y-39228229D01*
X28350499Y-39169752D01*
X28350500Y-39169750D01*
X28350500Y-37874825D01*
X38409500Y-37874825D01*
X38409500Y-38125174D01*
X38448664Y-38372444D01*
X38448664Y-38372447D01*
X38526024Y-38610537D01*
X38613295Y-38781814D01*
X38639683Y-38833604D01*
X38786835Y-39036141D01*
X38963859Y-39213165D01*
X39166396Y-39360317D01*
X39374578Y-39466391D01*
X39389462Y-39473975D01*
X39627553Y-39551335D01*
X39627554Y-39551335D01*
X39627557Y-39551336D01*
X39792918Y-39577527D01*
X39856053Y-39607456D01*
X39892984Y-39666768D01*
X39891986Y-39736630D01*
X39853376Y-39794863D01*
X39792918Y-39822473D01*
X39627555Y-39848664D01*
X39627552Y-39848664D01*
X39389462Y-39926024D01*
X39166395Y-40039683D01*
X39050841Y-40123638D01*
X38963859Y-40186835D01*
X38963857Y-40186837D01*
X38963856Y-40186837D01*
X38786837Y-40363856D01*
X38786837Y-40363857D01*
X38786835Y-40363859D01*
X38723638Y-40450841D01*
X38639683Y-40566395D01*
X38526024Y-40789462D01*
X38448664Y-41027552D01*
X38448664Y-41027555D01*
X38409500Y-41274825D01*
X38409500Y-41525174D01*
X38448664Y-41772444D01*
X38448664Y-41772447D01*
X38526024Y-42010537D01*
X38526026Y-42010540D01*
X38639683Y-42233604D01*
X38786835Y-42436141D01*
X38963859Y-42613165D01*
X39166396Y-42760317D01*
X39373594Y-42865890D01*
X39389462Y-42873975D01*
X39627553Y-42951335D01*
X39627554Y-42951335D01*
X39627557Y-42951336D01*
X39874825Y-42990500D01*
X39874826Y-42990500D01*
X40125174Y-42990500D01*
X40125175Y-42990500D01*
X40372443Y-42951336D01*
X40372446Y-42951335D01*
X40372447Y-42951335D01*
X40610537Y-42873975D01*
X40610537Y-42873974D01*
X40610540Y-42873974D01*
X40833604Y-42760317D01*
X41036141Y-42613165D01*
X41213165Y-42436141D01*
X41360317Y-42233604D01*
X41473974Y-42010540D01*
X41551336Y-41772443D01*
X41590500Y-41525175D01*
X41590500Y-41274825D01*
X41551336Y-41027557D01*
X41551335Y-41027553D01*
X41551335Y-41027552D01*
X41473975Y-40789462D01*
X41440308Y-40723387D01*
X41360317Y-40566396D01*
X41213165Y-40363859D01*
X41036141Y-40186835D01*
X40833604Y-40039683D01*
X40610537Y-39926024D01*
X40372446Y-39848664D01*
X40249998Y-39829270D01*
X40207080Y-39822472D01*
X40143946Y-39792544D01*
X40107015Y-39733232D01*
X40108013Y-39663370D01*
X40146623Y-39605137D01*
X40207080Y-39577527D01*
X40372443Y-39551336D01*
X40372446Y-39551335D01*
X40372447Y-39551335D01*
X40610537Y-39473975D01*
X40610537Y-39473974D01*
X40610540Y-39473974D01*
X40833604Y-39360317D01*
X41036141Y-39213165D01*
X41213165Y-39036141D01*
X41360317Y-38833604D01*
X41473974Y-38610540D01*
X41551336Y-38372443D01*
X41590500Y-38125175D01*
X41590500Y-37874825D01*
X48329500Y-37874825D01*
X48329500Y-38125174D01*
X48368664Y-38372444D01*
X48368664Y-38372447D01*
X48446024Y-38610537D01*
X48533295Y-38781814D01*
X48559683Y-38833604D01*
X48706835Y-39036141D01*
X48883859Y-39213165D01*
X49086396Y-39360317D01*
X49294578Y-39466391D01*
X49309462Y-39473975D01*
X49547553Y-39551335D01*
X49547554Y-39551335D01*
X49547557Y-39551336D01*
X49712918Y-39577527D01*
X49776053Y-39607456D01*
X49812984Y-39666768D01*
X49811986Y-39736630D01*
X49773376Y-39794863D01*
X49712918Y-39822473D01*
X49547555Y-39848664D01*
X49547552Y-39848664D01*
X49309462Y-39926024D01*
X49086395Y-40039683D01*
X48970841Y-40123638D01*
X48883859Y-40186835D01*
X48883857Y-40186837D01*
X48883856Y-40186837D01*
X48706837Y-40363856D01*
X48706837Y-40363857D01*
X48706835Y-40363859D01*
X48643638Y-40450841D01*
X48559683Y-40566395D01*
X48446024Y-40789462D01*
X48368664Y-41027552D01*
X48368664Y-41027555D01*
X48329500Y-41274825D01*
X48329500Y-41525174D01*
X48368664Y-41772444D01*
X48368664Y-41772447D01*
X48446024Y-42010537D01*
X48446026Y-42010540D01*
X48559683Y-42233604D01*
X48706835Y-42436141D01*
X48883859Y-42613165D01*
X49086396Y-42760317D01*
X49293594Y-42865890D01*
X49309462Y-42873975D01*
X49547553Y-42951335D01*
X49547554Y-42951335D01*
X49547557Y-42951336D01*
X49794825Y-42990500D01*
X49794826Y-42990500D01*
X50045174Y-42990500D01*
X50045175Y-42990500D01*
X50292443Y-42951336D01*
X50292446Y-42951335D01*
X50292447Y-42951335D01*
X50530537Y-42873975D01*
X50530537Y-42873974D01*
X50530540Y-42873974D01*
X50753604Y-42760317D01*
X50789678Y-42734108D01*
X122359500Y-42734108D01*
X122359500Y-42865891D01*
X122393608Y-42993187D01*
X122426554Y-43050250D01*
X122459500Y-43107314D01*
X122552686Y-43200500D01*
X122666814Y-43266392D01*
X122794108Y-43300500D01*
X122794110Y-43300500D01*
X122925890Y-43300500D01*
X122925892Y-43300500D01*
X123053186Y-43266392D01*
X123167314Y-43200500D01*
X123260500Y-43107314D01*
X123326392Y-42993186D01*
X123360500Y-42865892D01*
X123360500Y-42734108D01*
X123326392Y-42606814D01*
X123260500Y-42492686D01*
X123167314Y-42399500D01*
X123110250Y-42366554D01*
X123053187Y-42333608D01*
X122989539Y-42316554D01*
X122925892Y-42299500D01*
X122794108Y-42299500D01*
X122666812Y-42333608D01*
X122552686Y-42399500D01*
X122552683Y-42399502D01*
X122459502Y-42492683D01*
X122459500Y-42492686D01*
X122393608Y-42606812D01*
X122359500Y-42734108D01*
X50789678Y-42734108D01*
X50956141Y-42613165D01*
X51133165Y-42436141D01*
X51280317Y-42233604D01*
X51393974Y-42010540D01*
X51471336Y-41772443D01*
X51510500Y-41525175D01*
X51510500Y-41274825D01*
X51471336Y-41027557D01*
X51471335Y-41027553D01*
X51471335Y-41027552D01*
X51452922Y-40970882D01*
X51443112Y-40940691D01*
X100549500Y-40940691D01*
X100549500Y-41059309D01*
X100580201Y-41173886D01*
X100639511Y-41276613D01*
X100723387Y-41360489D01*
X100826114Y-41419799D01*
X100940691Y-41450500D01*
X100940694Y-41450500D01*
X101059306Y-41450500D01*
X101059309Y-41450500D01*
X101173886Y-41419799D01*
X101276613Y-41360489D01*
X101360489Y-41276613D01*
X101419799Y-41173886D01*
X101450500Y-41059309D01*
X101450500Y-40940691D01*
X101419799Y-40826114D01*
X101360489Y-40723387D01*
X101276613Y-40639511D01*
X101173886Y-40580201D01*
X101059309Y-40549500D01*
X100940691Y-40549500D01*
X100826114Y-40580201D01*
X100826112Y-40580201D01*
X100826112Y-40580202D01*
X100723387Y-40639511D01*
X100723384Y-40639513D01*
X100639513Y-40723384D01*
X100639511Y-40723387D01*
X100580201Y-40826114D01*
X100549500Y-40940691D01*
X51443112Y-40940691D01*
X51393975Y-40789462D01*
X51360308Y-40723387D01*
X51280317Y-40566396D01*
X51133165Y-40363859D01*
X50956141Y-40186835D01*
X50753604Y-40039683D01*
X50530537Y-39926024D01*
X50292446Y-39848664D01*
X50169998Y-39829270D01*
X50127080Y-39822472D01*
X50063946Y-39792544D01*
X50027015Y-39733232D01*
X50028013Y-39663370D01*
X50066623Y-39605137D01*
X50127080Y-39577527D01*
X50292443Y-39551336D01*
X50292446Y-39551335D01*
X50292447Y-39551335D01*
X50530537Y-39473975D01*
X50530537Y-39473974D01*
X50530540Y-39473974D01*
X50753604Y-39360317D01*
X50956141Y-39213165D01*
X51133165Y-39036141D01*
X51225460Y-38909108D01*
X57999500Y-38909108D01*
X57999500Y-39040892D01*
X58006199Y-39065892D01*
X58033608Y-39168187D01*
X58048042Y-39193187D01*
X58099500Y-39282314D01*
X58192686Y-39375500D01*
X58306814Y-39441392D01*
X58434108Y-39475500D01*
X58434110Y-39475500D01*
X58565890Y-39475500D01*
X58565892Y-39475500D01*
X58693186Y-39441392D01*
X58807314Y-39375500D01*
X58900500Y-39282314D01*
X58966392Y-39168186D01*
X59000500Y-39040892D01*
X59000500Y-38934108D01*
X59499500Y-38934108D01*
X59499500Y-39065891D01*
X59533608Y-39193187D01*
X59553841Y-39228231D01*
X59599500Y-39307314D01*
X59692686Y-39400500D01*
X59806814Y-39466392D01*
X59934108Y-39500500D01*
X59934110Y-39500500D01*
X60065890Y-39500500D01*
X60065892Y-39500500D01*
X60193186Y-39466392D01*
X60307314Y-39400500D01*
X60400500Y-39307314D01*
X60466392Y-39193186D01*
X60500500Y-39065892D01*
X60500500Y-38934108D01*
X60466392Y-38806814D01*
X60400500Y-38692686D01*
X60307314Y-38599500D01*
X60250250Y-38566554D01*
X60193187Y-38533608D01*
X60129539Y-38516554D01*
X60065892Y-38499500D01*
X59934108Y-38499500D01*
X59806812Y-38533608D01*
X59692686Y-38599500D01*
X59692683Y-38599502D01*
X59599502Y-38692683D01*
X59599500Y-38692686D01*
X59533608Y-38806812D01*
X59499500Y-38934108D01*
X59000500Y-38934108D01*
X59000500Y-38909108D01*
X58966392Y-38781814D01*
X58900500Y-38667686D01*
X58807314Y-38574500D01*
X58736487Y-38533608D01*
X58693187Y-38508608D01*
X58629539Y-38491554D01*
X58565892Y-38474500D01*
X58434108Y-38474500D01*
X58306812Y-38508608D01*
X58192686Y-38574500D01*
X58192683Y-38574502D01*
X58099502Y-38667683D01*
X58099500Y-38667686D01*
X58033608Y-38781812D01*
X57999500Y-38909108D01*
X51225460Y-38909108D01*
X51280317Y-38833604D01*
X51393974Y-38610540D01*
X51471336Y-38372443D01*
X51510500Y-38125175D01*
X51510500Y-37874825D01*
X51475541Y-37654108D01*
X142939500Y-37654108D01*
X142939500Y-37785891D01*
X142973608Y-37913187D01*
X143006554Y-37970250D01*
X143039500Y-38027314D01*
X143132686Y-38120500D01*
X143246814Y-38186392D01*
X143374108Y-38220500D01*
X143374110Y-38220500D01*
X143505890Y-38220500D01*
X143505892Y-38220500D01*
X143633186Y-38186392D01*
X143747314Y-38120500D01*
X143840500Y-38027314D01*
X143906392Y-37913186D01*
X143940500Y-37785892D01*
X143940500Y-37654108D01*
X143906392Y-37526814D01*
X143840500Y-37412686D01*
X143747314Y-37319500D01*
X143690250Y-37286554D01*
X143633187Y-37253608D01*
X143569539Y-37236554D01*
X143505892Y-37219500D01*
X143374108Y-37219500D01*
X143246812Y-37253608D01*
X143132686Y-37319500D01*
X143132683Y-37319502D01*
X143039502Y-37412683D01*
X143039500Y-37412686D01*
X142973608Y-37526812D01*
X142939500Y-37654108D01*
X51475541Y-37654108D01*
X51474426Y-37647067D01*
X51471336Y-37627557D01*
X51471335Y-37627553D01*
X51471335Y-37627552D01*
X51393975Y-37389462D01*
X51393974Y-37389460D01*
X51280317Y-37166396D01*
X51133165Y-36963859D01*
X50956141Y-36786835D01*
X50753604Y-36639683D01*
X50563950Y-36543049D01*
X50530537Y-36526024D01*
X50292446Y-36448664D01*
X50242106Y-36440691D01*
X107224500Y-36440691D01*
X107224500Y-36559309D01*
X107255201Y-36673886D01*
X107314511Y-36776613D01*
X107398387Y-36860489D01*
X107501114Y-36919799D01*
X107615691Y-36950500D01*
X107615694Y-36950500D01*
X107734306Y-36950500D01*
X107734309Y-36950500D01*
X107848886Y-36919799D01*
X107951613Y-36860489D01*
X108035489Y-36776613D01*
X108094799Y-36673886D01*
X108125500Y-36559309D01*
X108125500Y-36440691D01*
X108094799Y-36326114D01*
X108035489Y-36223387D01*
X107951613Y-36139511D01*
X107848886Y-36080201D01*
X107734309Y-36049500D01*
X107615691Y-36049500D01*
X107501114Y-36080201D01*
X107501112Y-36080201D01*
X107501112Y-36080202D01*
X107398387Y-36139511D01*
X107398384Y-36139513D01*
X107314513Y-36223384D01*
X107314511Y-36223387D01*
X107255201Y-36326114D01*
X107224500Y-36440691D01*
X50242106Y-36440691D01*
X50106992Y-36419291D01*
X50045175Y-36409500D01*
X49794825Y-36409500D01*
X49712402Y-36422554D01*
X49547555Y-36448664D01*
X49547552Y-36448664D01*
X49309462Y-36526024D01*
X49086395Y-36639683D01*
X49039318Y-36673887D01*
X48883859Y-36786835D01*
X48883857Y-36786837D01*
X48883856Y-36786837D01*
X48706837Y-36963856D01*
X48706837Y-36963857D01*
X48706835Y-36963859D01*
X48643638Y-37050841D01*
X48559683Y-37166395D01*
X48446024Y-37389462D01*
X48368664Y-37627552D01*
X48368664Y-37627555D01*
X48329500Y-37874825D01*
X41590500Y-37874825D01*
X41551336Y-37627557D01*
X41551335Y-37627553D01*
X41551335Y-37627552D01*
X41473975Y-37389462D01*
X41473974Y-37389460D01*
X41360317Y-37166396D01*
X41213165Y-36963859D01*
X41036141Y-36786835D01*
X40833604Y-36639683D01*
X40610537Y-36526024D01*
X40372446Y-36448664D01*
X40186992Y-36419291D01*
X40125175Y-36409500D01*
X39874825Y-36409500D01*
X39792402Y-36422554D01*
X39627555Y-36448664D01*
X39627552Y-36448664D01*
X39389462Y-36526024D01*
X39166395Y-36639683D01*
X39119318Y-36673887D01*
X38963859Y-36786835D01*
X38963857Y-36786837D01*
X38963856Y-36786837D01*
X38786837Y-36963856D01*
X38786837Y-36963857D01*
X38786835Y-36963859D01*
X38723638Y-37050841D01*
X38639683Y-37166395D01*
X38526024Y-37389462D01*
X38448664Y-37627552D01*
X38448664Y-37627555D01*
X38409500Y-37874825D01*
X28350500Y-37874825D01*
X28350500Y-36830249D01*
X28350499Y-36830247D01*
X28338868Y-36771770D01*
X28338867Y-36771769D01*
X28294552Y-36705447D01*
X28228230Y-36661132D01*
X28228229Y-36661131D01*
X28169752Y-36649500D01*
X28169748Y-36649500D01*
X25830252Y-36649500D01*
X25830247Y-36649500D01*
X25771770Y-36661131D01*
X25771769Y-36661132D01*
X25705447Y-36705447D01*
X25661132Y-36771769D01*
X25661131Y-36771770D01*
X25649500Y-36830247D01*
X20300500Y-36830247D01*
X20300500Y-34504108D01*
X50809500Y-34504108D01*
X50809500Y-34635891D01*
X50843608Y-34763187D01*
X50876554Y-34820250D01*
X50909500Y-34877314D01*
X51002686Y-34970500D01*
X51116814Y-35036392D01*
X51244108Y-35070500D01*
X51244110Y-35070500D01*
X51375890Y-35070500D01*
X51375892Y-35070500D01*
X51503186Y-35036392D01*
X51617314Y-34970500D01*
X51710500Y-34877314D01*
X51776392Y-34763186D01*
X51810500Y-34635892D01*
X51810500Y-34504108D01*
X51776392Y-34376814D01*
X51710500Y-34262686D01*
X51617314Y-34169500D01*
X51560250Y-34136554D01*
X51503187Y-34103608D01*
X51439539Y-34086554D01*
X51375892Y-34069500D01*
X51244108Y-34069500D01*
X51116812Y-34103608D01*
X51002686Y-34169500D01*
X51002683Y-34169502D01*
X50909502Y-34262683D01*
X50909500Y-34262686D01*
X50843608Y-34376812D01*
X50809500Y-34504108D01*
X20300500Y-34504108D01*
X20300500Y-32934108D01*
X49474500Y-32934108D01*
X49474500Y-33065891D01*
X49508608Y-33193187D01*
X49541554Y-33250250D01*
X49574500Y-33307314D01*
X49667686Y-33400500D01*
X49781814Y-33466392D01*
X49909108Y-33500500D01*
X49909110Y-33500500D01*
X50040890Y-33500500D01*
X50040892Y-33500500D01*
X50168186Y-33466392D01*
X50282314Y-33400500D01*
X50375500Y-33307314D01*
X50441392Y-33193186D01*
X50475500Y-33065892D01*
X50475500Y-32934108D01*
X50441392Y-32806814D01*
X50375500Y-32692686D01*
X50282314Y-32599500D01*
X50225250Y-32566554D01*
X50168187Y-32533608D01*
X50104539Y-32516554D01*
X50040892Y-32499500D01*
X49909108Y-32499500D01*
X49781812Y-32533608D01*
X49667686Y-32599500D01*
X49667683Y-32599502D01*
X49574502Y-32692683D01*
X49574500Y-32692686D01*
X49508608Y-32806812D01*
X49474500Y-32934108D01*
X20300500Y-32934108D01*
X20300500Y-31934108D01*
X51499500Y-31934108D01*
X51499500Y-32065892D01*
X51508724Y-32100318D01*
X51533608Y-32193187D01*
X51559480Y-32237998D01*
X51599500Y-32307314D01*
X51692686Y-32400500D01*
X51806814Y-32466392D01*
X51934108Y-32500500D01*
X51934110Y-32500500D01*
X52065890Y-32500500D01*
X52065892Y-32500500D01*
X52193186Y-32466392D01*
X52307314Y-32400500D01*
X52400500Y-32307314D01*
X52466392Y-32193186D01*
X52500500Y-32065892D01*
X52500500Y-31940691D01*
X106029500Y-31940691D01*
X106029500Y-32059309D01*
X106060201Y-32173886D01*
X106119511Y-32276613D01*
X106203387Y-32360489D01*
X106306114Y-32419799D01*
X106420691Y-32450500D01*
X106420694Y-32450500D01*
X106475500Y-32450500D01*
X106542539Y-32470185D01*
X106588294Y-32522989D01*
X106599500Y-32574500D01*
X106599500Y-32665892D01*
X106629168Y-32776613D01*
X106633608Y-32793185D01*
X106633611Y-32793192D01*
X106659481Y-32838001D01*
X106675954Y-32905901D01*
X106659481Y-32961999D01*
X106633611Y-33006807D01*
X106633608Y-33006814D01*
X106599500Y-33134108D01*
X106599500Y-33265892D01*
X106616554Y-33329539D01*
X106633608Y-33393187D01*
X106666554Y-33450250D01*
X106699500Y-33507314D01*
X106792686Y-33600500D01*
X106906814Y-33666392D01*
X107034108Y-33700500D01*
X107034110Y-33700500D01*
X107165890Y-33700500D01*
X107165892Y-33700500D01*
X107293186Y-33666392D01*
X107407314Y-33600500D01*
X107500500Y-33507314D01*
X107566392Y-33393186D01*
X107600500Y-33265892D01*
X107600500Y-33134108D01*
X107566392Y-33006814D01*
X107566391Y-33006813D01*
X107566391Y-33006811D01*
X107540519Y-32962002D01*
X107524045Y-32894102D01*
X107540519Y-32837998D01*
X107566391Y-32793188D01*
X107570832Y-32776615D01*
X107600500Y-32665892D01*
X107600500Y-32534108D01*
X107575469Y-32440691D01*
X108149500Y-32440691D01*
X108149500Y-32559309D01*
X108180201Y-32673886D01*
X108239511Y-32776613D01*
X108323387Y-32860489D01*
X108426114Y-32919799D01*
X108540691Y-32950500D01*
X108540694Y-32950500D01*
X108659306Y-32950500D01*
X108659309Y-32950500D01*
X108773886Y-32919799D01*
X108876613Y-32860489D01*
X108960489Y-32776613D01*
X109019799Y-32673886D01*
X109050500Y-32559309D01*
X109050500Y-32440691D01*
X109019799Y-32326114D01*
X108960489Y-32223387D01*
X108876613Y-32139511D01*
X108773886Y-32080201D01*
X108659309Y-32049500D01*
X108540691Y-32049500D01*
X108426114Y-32080201D01*
X108426112Y-32080201D01*
X108426112Y-32080202D01*
X108323387Y-32139511D01*
X108323384Y-32139513D01*
X108239513Y-32223384D01*
X108239511Y-32223387D01*
X108195648Y-32299360D01*
X108180201Y-32326114D01*
X108149500Y-32440691D01*
X107575469Y-32440691D01*
X107566392Y-32406814D01*
X107536222Y-32354559D01*
X107532995Y-32346601D01*
X107530338Y-32320043D01*
X107524045Y-32294102D01*
X107526804Y-32284703D01*
X107526042Y-32277078D01*
X107533119Y-32263197D01*
X107540519Y-32237998D01*
X107566391Y-32193188D01*
X107566392Y-32193186D01*
X107600500Y-32065892D01*
X107600500Y-31934108D01*
X107566392Y-31806814D01*
X107566391Y-31806812D01*
X107566391Y-31806811D01*
X107540519Y-31762002D01*
X107524045Y-31694102D01*
X107540519Y-31637998D01*
X107566391Y-31593188D01*
X107566392Y-31593186D01*
X107600500Y-31465892D01*
X107600500Y-31334108D01*
X107566392Y-31206814D01*
X107500500Y-31092686D01*
X107407314Y-30999500D01*
X107350250Y-30966554D01*
X107293187Y-30933608D01*
X107225068Y-30915356D01*
X107165892Y-30899500D01*
X107034108Y-30899500D01*
X106906812Y-30933608D01*
X106792686Y-30999500D01*
X106792683Y-30999502D01*
X106699502Y-31092683D01*
X106699500Y-31092686D01*
X106633608Y-31206812D01*
X106599500Y-31334108D01*
X106599500Y-31425500D01*
X106579815Y-31492539D01*
X106527011Y-31538294D01*
X106475500Y-31549500D01*
X106420691Y-31549500D01*
X106306114Y-31580201D01*
X106306112Y-31580201D01*
X106306112Y-31580202D01*
X106203387Y-31639511D01*
X106203384Y-31639513D01*
X106119513Y-31723384D01*
X106119511Y-31723387D01*
X106063531Y-31820347D01*
X106060201Y-31826114D01*
X106029500Y-31940691D01*
X52500500Y-31940691D01*
X52500500Y-31934108D01*
X52466392Y-31806814D01*
X52400500Y-31692686D01*
X52307314Y-31599500D01*
X52220712Y-31549500D01*
X52193187Y-31533608D01*
X52129539Y-31516554D01*
X52065892Y-31499500D01*
X51934108Y-31499500D01*
X51806812Y-31533608D01*
X51692686Y-31599500D01*
X51692683Y-31599502D01*
X51599502Y-31692683D01*
X51599500Y-31692686D01*
X51533608Y-31806812D01*
X51508724Y-31899682D01*
X51499500Y-31934108D01*
X20300500Y-31934108D01*
X20300500Y-28105247D01*
X145834500Y-28105247D01*
X145834500Y-29894752D01*
X145846131Y-29953229D01*
X145846132Y-29953230D01*
X145890447Y-30019552D01*
X145956769Y-30063867D01*
X145956770Y-30063868D01*
X146014852Y-30075420D01*
X146015252Y-30075500D01*
X146015257Y-30075500D01*
X146021312Y-30076097D01*
X146021167Y-30077560D01*
X146081190Y-30095185D01*
X146126945Y-30147989D01*
X146136889Y-30217147D01*
X146107864Y-30280703D01*
X146101832Y-30287181D01*
X146089652Y-30299360D01*
X146089648Y-30299365D01*
X145990152Y-30436311D01*
X145913296Y-30587146D01*
X145860981Y-30748152D01*
X145834500Y-30915350D01*
X145834500Y-31084649D01*
X145860981Y-31251847D01*
X145913296Y-31412853D01*
X145953899Y-31492539D01*
X145982922Y-31549500D01*
X145990152Y-31563688D01*
X146089648Y-31700634D01*
X146089652Y-31700639D01*
X146209360Y-31820347D01*
X146209365Y-31820351D01*
X146318554Y-31899682D01*
X146361220Y-31955012D01*
X146367199Y-32024625D01*
X146334593Y-32086420D01*
X146318554Y-32100318D01*
X146209365Y-32179648D01*
X146209360Y-32179652D01*
X146089652Y-32299360D01*
X146089648Y-32299365D01*
X145990152Y-32436311D01*
X145913296Y-32587146D01*
X145860981Y-32748152D01*
X145834500Y-32915350D01*
X145834500Y-33084649D01*
X145860981Y-33251847D01*
X145913296Y-33412853D01*
X145990152Y-33563688D01*
X146089648Y-33700634D01*
X146089652Y-33700639D01*
X146209360Y-33820347D01*
X146209365Y-33820351D01*
X146328817Y-33907137D01*
X146346315Y-33919850D01*
X146442425Y-33968820D01*
X146497146Y-33996703D01*
X146497148Y-33996703D01*
X146497151Y-33996705D01*
X146583450Y-34024745D01*
X146658152Y-34049018D01*
X146825351Y-34075500D01*
X146825356Y-34075500D01*
X146994649Y-34075500D01*
X147161847Y-34049018D01*
X147322849Y-33996705D01*
X147473685Y-33919850D01*
X147610641Y-33820346D01*
X147730346Y-33700641D01*
X147829850Y-33563685D01*
X147906705Y-33412849D01*
X147959018Y-33251847D01*
X147968309Y-33193186D01*
X147985500Y-33084649D01*
X147985500Y-32915350D01*
X147959018Y-32748152D01*
X147906703Y-32587146D01*
X147862044Y-32499500D01*
X147829850Y-32436315D01*
X147803827Y-32400497D01*
X147730351Y-32299365D01*
X147730347Y-32299360D01*
X147610639Y-32179652D01*
X147610634Y-32179648D01*
X147501445Y-32100318D01*
X147458779Y-32044989D01*
X147452800Y-31975375D01*
X147485405Y-31913580D01*
X147501445Y-31899682D01*
X147610634Y-31820351D01*
X147610632Y-31820351D01*
X147610641Y-31820346D01*
X147730346Y-31700641D01*
X147829850Y-31563685D01*
X147906705Y-31412849D01*
X147959018Y-31251847D01*
X147985500Y-31084649D01*
X147985500Y-30915350D01*
X147959018Y-30748152D01*
X147906703Y-30587146D01*
X147878820Y-30532425D01*
X147829850Y-30436315D01*
X147817137Y-30418817D01*
X147730351Y-30299365D01*
X147730347Y-30299360D01*
X147718168Y-30287181D01*
X147684683Y-30225858D01*
X147689667Y-30156166D01*
X147731539Y-30100233D01*
X147797003Y-30075816D01*
X147804125Y-30075561D01*
X147804742Y-30075500D01*
X147804748Y-30075500D01*
X147819568Y-30072552D01*
X147863229Y-30063868D01*
X147863229Y-30063867D01*
X147863231Y-30063867D01*
X147929552Y-30019552D01*
X147973867Y-29953231D01*
X147973867Y-29953229D01*
X147973868Y-29953229D01*
X147985499Y-29894752D01*
X147985500Y-29894750D01*
X147985500Y-28105249D01*
X147985499Y-28105247D01*
X147973868Y-28046770D01*
X147973867Y-28046769D01*
X147929552Y-27980447D01*
X147863230Y-27936132D01*
X147863229Y-27936131D01*
X147804752Y-27924500D01*
X147804748Y-27924500D01*
X146015252Y-27924500D01*
X146015247Y-27924500D01*
X145956770Y-27936131D01*
X145956769Y-27936132D01*
X145890447Y-27980447D01*
X145846132Y-28046769D01*
X145846131Y-28046770D01*
X145834500Y-28105247D01*
X20300500Y-28105247D01*
X20300500Y-26896530D01*
X40949500Y-26896530D01*
X40949500Y-27103469D01*
X40989868Y-27306412D01*
X40989870Y-27306420D01*
X41069058Y-27497596D01*
X41184024Y-27669657D01*
X41330342Y-27815975D01*
X41330345Y-27815977D01*
X41502402Y-27930941D01*
X41693580Y-28010130D01*
X41877778Y-28046769D01*
X41896530Y-28050499D01*
X41896534Y-28050500D01*
X41896535Y-28050500D01*
X42103466Y-28050500D01*
X42103467Y-28050499D01*
X42306420Y-28010130D01*
X42497598Y-27930941D01*
X42669655Y-27815977D01*
X42815977Y-27669655D01*
X42930941Y-27497598D01*
X43010130Y-27306420D01*
X43050500Y-27103465D01*
X43050500Y-26896535D01*
X43050499Y-26896530D01*
X43449500Y-26896530D01*
X43449500Y-27103469D01*
X43489868Y-27306412D01*
X43489870Y-27306420D01*
X43569058Y-27497596D01*
X43684024Y-27669657D01*
X43830342Y-27815975D01*
X43830345Y-27815977D01*
X44002402Y-27930941D01*
X44193580Y-28010130D01*
X44377778Y-28046769D01*
X44396530Y-28050499D01*
X44396534Y-28050500D01*
X44396535Y-28050500D01*
X44603466Y-28050500D01*
X44603467Y-28050499D01*
X44806420Y-28010130D01*
X44878081Y-27980447D01*
X44997596Y-27930942D01*
X44997596Y-27930941D01*
X44997598Y-27930941D01*
X45169655Y-27815977D01*
X45315977Y-27669655D01*
X45430941Y-27497598D01*
X45510130Y-27306420D01*
X45550500Y-27103465D01*
X45550500Y-26896535D01*
X45510130Y-26693580D01*
X45430941Y-26502402D01*
X45315977Y-26330345D01*
X45315975Y-26330342D01*
X45169657Y-26184024D01*
X45083626Y-26126541D01*
X44997598Y-26069059D01*
X44806420Y-25989870D01*
X44806412Y-25989868D01*
X44603469Y-25949500D01*
X44603465Y-25949500D01*
X44396535Y-25949500D01*
X44396530Y-25949500D01*
X44193587Y-25989868D01*
X44193579Y-25989870D01*
X44002403Y-26069058D01*
X43830342Y-26184024D01*
X43684024Y-26330342D01*
X43569058Y-26502403D01*
X43489870Y-26693579D01*
X43489868Y-26693587D01*
X43449500Y-26896530D01*
X43050499Y-26896530D01*
X43010130Y-26693580D01*
X42930941Y-26502402D01*
X42815977Y-26330345D01*
X42815975Y-26330342D01*
X42669657Y-26184024D01*
X42583626Y-26126541D01*
X42497598Y-26069059D01*
X42306420Y-25989870D01*
X42306412Y-25989868D01*
X42103469Y-25949500D01*
X42103465Y-25949500D01*
X41896535Y-25949500D01*
X41896530Y-25949500D01*
X41693587Y-25989868D01*
X41693579Y-25989870D01*
X41502403Y-26069058D01*
X41330342Y-26184024D01*
X41184024Y-26330342D01*
X41069058Y-26502403D01*
X40989870Y-26693579D01*
X40989868Y-26693587D01*
X40949500Y-26896530D01*
X20300500Y-26896530D01*
X20300500Y-24878711D01*
X23149500Y-24878711D01*
X23149500Y-25121288D01*
X23181161Y-25361785D01*
X23243947Y-25596104D01*
X23336773Y-25820205D01*
X23336776Y-25820212D01*
X23458064Y-26030289D01*
X23458066Y-26030292D01*
X23458067Y-26030293D01*
X23605733Y-26222736D01*
X23605739Y-26222743D01*
X23777256Y-26394260D01*
X23777262Y-26394265D01*
X23969711Y-26541936D01*
X24179788Y-26663224D01*
X24403900Y-26756054D01*
X24638211Y-26818838D01*
X24818586Y-26842584D01*
X24878711Y-26850500D01*
X24878712Y-26850500D01*
X25121289Y-26850500D01*
X25169388Y-26844167D01*
X25361789Y-26818838D01*
X25596100Y-26756054D01*
X25820212Y-26663224D01*
X26030289Y-26541936D01*
X26222738Y-26394265D01*
X26394265Y-26222738D01*
X26541936Y-26030289D01*
X26663224Y-25820212D01*
X26756054Y-25596100D01*
X26818838Y-25361789D01*
X26850500Y-25121288D01*
X26850500Y-24878712D01*
X26850500Y-24878711D01*
X132949500Y-24878711D01*
X132949500Y-25121288D01*
X132981161Y-25361785D01*
X133043947Y-25596104D01*
X133136773Y-25820205D01*
X133136776Y-25820212D01*
X133258064Y-26030289D01*
X133258066Y-26030292D01*
X133258067Y-26030293D01*
X133405733Y-26222736D01*
X133405739Y-26222743D01*
X133577256Y-26394260D01*
X133577262Y-26394265D01*
X133769711Y-26541936D01*
X133979788Y-26663224D01*
X134203900Y-26756054D01*
X134438211Y-26818838D01*
X134618586Y-26842584D01*
X134678711Y-26850500D01*
X134678712Y-26850500D01*
X134921289Y-26850500D01*
X134969388Y-26844167D01*
X135161789Y-26818838D01*
X135396100Y-26756054D01*
X135620212Y-26663224D01*
X135830289Y-26541936D01*
X136022738Y-26394265D01*
X136194265Y-26222738D01*
X136341936Y-26030289D01*
X136463224Y-25820212D01*
X136556054Y-25596100D01*
X136618838Y-25361789D01*
X136650500Y-25121288D01*
X136650500Y-24878712D01*
X136618838Y-24638211D01*
X136556054Y-24403900D01*
X136463224Y-24179788D01*
X136341936Y-23969711D01*
X136194265Y-23777262D01*
X136194260Y-23777256D01*
X136022743Y-23605739D01*
X136022736Y-23605733D01*
X135830293Y-23458067D01*
X135830292Y-23458066D01*
X135830289Y-23458064D01*
X135620212Y-23336776D01*
X135620205Y-23336773D01*
X135396104Y-23243947D01*
X135161785Y-23181161D01*
X134921289Y-23149500D01*
X134921288Y-23149500D01*
X134678712Y-23149500D01*
X134678711Y-23149500D01*
X134438214Y-23181161D01*
X134203895Y-23243947D01*
X133979794Y-23336773D01*
X133979785Y-23336777D01*
X133769706Y-23458067D01*
X133577263Y-23605733D01*
X133577256Y-23605739D01*
X133405739Y-23777256D01*
X133405733Y-23777263D01*
X133258067Y-23969706D01*
X133136777Y-24179785D01*
X133136773Y-24179794D01*
X133043947Y-24403895D01*
X132981161Y-24638214D01*
X132949500Y-24878711D01*
X26850500Y-24878711D01*
X26818838Y-24638211D01*
X26756054Y-24403900D01*
X26663224Y-24179788D01*
X26541936Y-23969711D01*
X26394265Y-23777262D01*
X26394260Y-23777256D01*
X26222743Y-23605739D01*
X26222736Y-23605733D01*
X26030293Y-23458067D01*
X26030292Y-23458066D01*
X26030289Y-23458064D01*
X25820212Y-23336776D01*
X25820205Y-23336773D01*
X25596104Y-23243947D01*
X25361785Y-23181161D01*
X25121289Y-23149500D01*
X25121288Y-23149500D01*
X24878712Y-23149500D01*
X24878711Y-23149500D01*
X24638214Y-23181161D01*
X24403895Y-23243947D01*
X24179794Y-23336773D01*
X24179785Y-23336777D01*
X23969706Y-23458067D01*
X23777263Y-23605733D01*
X23777256Y-23605739D01*
X23605739Y-23777256D01*
X23605733Y-23777263D01*
X23458067Y-23969706D01*
X23336777Y-24179785D01*
X23336773Y-24179794D01*
X23243947Y-24403895D01*
X23181161Y-24638214D01*
X23149500Y-24878711D01*
X20300500Y-24878711D01*
X20300500Y-20424500D01*
X20320185Y-20357461D01*
X20372989Y-20311706D01*
X20424500Y-20300500D01*
X149575500Y-20300500D01*
X149642539Y-20320185D01*
G37*
%TD.AperFunction*%
%TD*%
D23*
X58500000Y-38975000D03*
X54550000Y-54130000D03*
X68010000Y-52670000D03*
X49975000Y-33000000D03*
X52000000Y-32000000D03*
X60000000Y-39000000D03*
X87050000Y-89550000D03*
X86100000Y-87800000D03*
X120700000Y-32000000D03*
X91500000Y-61980000D03*
X78920000Y-58000000D03*
D24*
X88338000Y-90550000D03*
D23*
X69000000Y-48670000D03*
X88770000Y-87560000D03*
X146000000Y-67140000D03*
D24*
X68750000Y-54250000D03*
X94300000Y-101900000D03*
D23*
X62770000Y-57500000D03*
X105520000Y-56000000D03*
D24*
X89413000Y-91450000D03*
D23*
X146000000Y-91140000D03*
D24*
X110300000Y-80000000D03*
X110300000Y-55000000D03*
D23*
X126860000Y-44000000D03*
D24*
X70250000Y-55750000D03*
X109700000Y-31000000D03*
X110300000Y-79000000D03*
X87262000Y-90550000D03*
D23*
X94700000Y-60080000D03*
D24*
X109700000Y-79000000D03*
D23*
X105520000Y-80000000D03*
X72300000Y-59200000D03*
X83670000Y-50000000D03*
X81080000Y-93000000D03*
X114470000Y-98620000D03*
D24*
X110300000Y-56000000D03*
D23*
X96000000Y-80000000D03*
X146000000Y-43140000D03*
D24*
X71750000Y-55750000D03*
D23*
X112000000Y-59380000D03*
D24*
X86187000Y-91450000D03*
X110300000Y-57000000D03*
D23*
X72950000Y-52150000D03*
D24*
X94300000Y-101100000D03*
D23*
X58020000Y-29500000D03*
X96170000Y-96000000D03*
D24*
X109700000Y-56000000D03*
X68750000Y-55750000D03*
X109700000Y-57000000D03*
X109700000Y-80000000D03*
X110300000Y-33000000D03*
X105500000Y-97000000D03*
D23*
X88550000Y-94450000D03*
D24*
X110300000Y-81000000D03*
D23*
X98970000Y-55250000D03*
X78920000Y-50000000D03*
D24*
X110300000Y-31000000D03*
D23*
X96170000Y-92000000D03*
D24*
X105500000Y-98000000D03*
D23*
X91500000Y-89170000D03*
D24*
X104500000Y-96000000D03*
X110300000Y-32000000D03*
X88338000Y-91450000D03*
D23*
X75830000Y-63000000D03*
D24*
X89413000Y-90550000D03*
D23*
X112000000Y-83380000D03*
X83670000Y-54000000D03*
D24*
X109700000Y-55000000D03*
X70250000Y-54250000D03*
D23*
X90000000Y-55750000D03*
X96170000Y-88000000D03*
D24*
X87262000Y-91450000D03*
X109700000Y-32000000D03*
D23*
X83670000Y-58000000D03*
X124480000Y-72000000D03*
D24*
X73250000Y-55750000D03*
D23*
X78920000Y-54000000D03*
X91000000Y-55690000D03*
D24*
X71750000Y-54250000D03*
D23*
X81080000Y-89000000D03*
X54000000Y-47300000D03*
D24*
X93450000Y-55920000D03*
X94550000Y-55920000D03*
D23*
X65150000Y-43000000D03*
X120700000Y-56000000D03*
X100520000Y-94500000D03*
X126860000Y-72000000D03*
X118200000Y-102640000D03*
X124480000Y-44000000D03*
X120700000Y-80000000D03*
X96120000Y-57000000D03*
X62770000Y-52500000D03*
X112000000Y-35380000D03*
D24*
X109700000Y-33000000D03*
D23*
X112470000Y-97000000D03*
D24*
X104500000Y-97000000D03*
D23*
X86700000Y-66500000D03*
X105520000Y-32000000D03*
D24*
X104500000Y-98000000D03*
D23*
X70350000Y-52150000D03*
D24*
X109700000Y-81000000D03*
X86187000Y-90550000D03*
X73250000Y-54250000D03*
D23*
X71500000Y-48670000D03*
X111800000Y-102640000D03*
D24*
X105500000Y-96000000D03*
D23*
X87500000Y-85170000D03*
X107100000Y-80600000D03*
X107100000Y-55400000D03*
X101000000Y-52700000D03*
X97000000Y-52700000D03*
X100000000Y-52700000D03*
D24*
X106480000Y-80000000D03*
D23*
X102000000Y-52700000D03*
D24*
X106480000Y-32000000D03*
X107675000Y-36500000D03*
D23*
X107100000Y-56600000D03*
X99000000Y-51800000D03*
X122860000Y-42800000D03*
D24*
X108600000Y-80500000D03*
X101000000Y-41000000D03*
D23*
X98000000Y-51800000D03*
D24*
X106480000Y-56000000D03*
X129137499Y-44000000D03*
D23*
X96000000Y-51800000D03*
D24*
X107675000Y-84500000D03*
D23*
X95100000Y-49400000D03*
X96000000Y-52700000D03*
X100000000Y-51800000D03*
X107100000Y-80000000D03*
D24*
X108600000Y-56500000D03*
D23*
X107100000Y-56000000D03*
X107100000Y-79400000D03*
X107100000Y-33200000D03*
X98000000Y-52700000D03*
X101000000Y-51800000D03*
X107100000Y-32000000D03*
X122860000Y-70800000D03*
X102000000Y-51800000D03*
X107100000Y-32600000D03*
D24*
X129137499Y-72000000D03*
D23*
X107100000Y-81200000D03*
D24*
X107675000Y-60500000D03*
D23*
X97000000Y-51800000D03*
D24*
X108600000Y-32500000D03*
D23*
X107100000Y-57200000D03*
X107100000Y-31400000D03*
X99000000Y-52700000D03*
X91500000Y-93000000D03*
X89925000Y-93000000D03*
X93000000Y-87000000D03*
X100070000Y-88700000D03*
X89580000Y-89560000D03*
D24*
X99700000Y-101500000D03*
D23*
X92000000Y-83675000D03*
D24*
X93225000Y-88000000D03*
D23*
X108000000Y-97000000D03*
X107100000Y-95400000D03*
X106310000Y-96330000D03*
X109525000Y-97000000D03*
X143440000Y-37720000D03*
X112000000Y-80500000D03*
X145760000Y-89820000D03*
X112000000Y-79500000D03*
X73540000Y-60730000D03*
X73750000Y-57850000D03*
D24*
X81300000Y-66500000D03*
D23*
X71000000Y-57850000D03*
D24*
X93450000Y-54100000D03*
D23*
X75000000Y-57700000D03*
D24*
X93450000Y-54650000D03*
X74000000Y-48675000D03*
X94550000Y-54650000D03*
X75975000Y-50000000D03*
X94550000Y-54100000D03*
D23*
X143110000Y-61710000D03*
X112000000Y-55500000D03*
X112000000Y-56500000D03*
X51310000Y-34570000D03*
X101950000Y-90900000D03*
X101950000Y-89700000D03*
X92050000Y-88250000D03*
X90900000Y-87100000D03*
D25*
X146910000Y-29000000D03*
X146910000Y-31000000D03*
X146910000Y-33000000D03*
X146910000Y-35000000D03*
X144200000Y-28500000D03*
X144200000Y-35500000D03*
X27000000Y-38000000D03*
X27000000Y-33000000D03*
X146910000Y-53000000D03*
X146910000Y-55000000D03*
X146910000Y-57000000D03*
X146910000Y-59000000D03*
X144200000Y-52500000D03*
X144200000Y-59500000D03*
X40000000Y-38000000D03*
X40000000Y-41400000D03*
X49920000Y-38000000D03*
X49920000Y-41400000D03*
X145000000Y-105000000D03*
X25000000Y-25000000D03*
X25000000Y-105000000D03*
X39500000Y-27000000D03*
X42000000Y-27000000D03*
X44500000Y-27000000D03*
X112110000Y-103720000D03*
X117890000Y-103720000D03*
D26*
X110680000Y-103220000D03*
D27*
X110680000Y-107400000D03*
D26*
X119320000Y-103220000D03*
D27*
X119320000Y-107400000D03*
D25*
X146910000Y-77000000D03*
X146910000Y-79000000D03*
X146910000Y-81000000D03*
X146910000Y-83000000D03*
X144200000Y-76500000D03*
X144200000Y-83500000D03*
X134800000Y-25000000D03*
M02*
