#VRML V2.0 utf8
# 3D model generated by easyeda2kicad.py (https://github.com/uPesy/easyeda2kicad.py)

Shape{
    appearance Appearance {
        material  Material 	{
            diffuseColor 0.5019607843137255 0.5019607843137255 0.5019607843137255
            specularColor 0.25098039215686274 0.25098039215686274 0.25098039215686274
            ambientIntensity 0.502
            transparency 0.0
            shininess 0.5
        }
    }
    geometry IndexedFaceSet {
        ccw TRUE
        solid FALSE
        coord DEF co Coordinate {
            point [
                0.5827 1.1762 1.4764, 0.5827 1.058 1.4764, 0.6358 1.058 1.4764, 1.4559 -1.5731 1.4764, 1.6437 -1.5731 1.4764, 1.6437 0.7771 1.4764, 1.1444 -1.5731 1.4764, 1.4559 0.7771 1.4764, 1.0194 -1.5731 1.4764, 1.1444 0.7771 1.4764, 0.7922 0.8303 1.4764, 0.7888 0.83 1.4764, 0.8212 0.83 1.4764, 0.9351 0.9645 1.4764, 0.9773 0.9645 1.4764, 0.9773 1.0025 1.4764, 0.3985 1.0699 1.4764, 0.4235 1.0475 1.4764, 0.5108 1.1774 1.4764, 0.5108 1.0417 1.4764, 0.2687 1.1912 1.4764, 0.2892 1.1774 1.4764, 0.311 1.1627 1.4764, 0.3421 1.1268 1.4764, 0.3622 1.0878 1.4764, 0.3706 1.0848 1.4764, 0.2211 1.2079 1.4764, 0.5108 1.5765 1.4764, 0.182 1.212 1.4764, 0.1349 1.2062 1.4764, 0.0912 1.1893 1.4764, -1.6437 1.5765 1.4764, 0.0719 1.1774 1.4764, -1.6437 1.1774 1.4764, 0.0681 1.175 1.4764, -0.033 1.1305 1.4764, 0.0045 1.1352 1.4764, 0.0458 1.1559 1.4764, 0.0155 1.1346 1.4764, 0.0264 1.1333 1.4764, -0.1046 1.0896 1.4764, -0.0983 1.0956 1.4764, -0.0681 1.1169 1.4764, -1.6437 1.0417 1.4764, -1.6437 1.0025 1.4764, -0.1467 1.0025 1.4764, -0.1426 1.026 1.4764, -0.1357 1.0417 1.4764, -0.1275 1.0602 1.4764, -0.0456 0.8362 1.4764, -0.0798 0.8529 1.4764, -1.6437 0.83 1.4764, -0.1093 0.8781 1.4764, -0.1308 0.9087 1.4764, -0.1445 0.944 1.4764, -0.1492 0.9815 1.4764, -0.1489 0.9903 1.4764, -0.0334 0.8325 1.4764, -0.0322 0.83 1.4764, -0.0239 0.8122 1.4764, -0.0098 0.7948 1.4764, 0.5108 -1.5731 1.4764, 0.5108 0.7771 1.4764, 0.096 0.7771 1.4764, 0.0796 0.7708 1.4764, 0.0567 0.768 1.4764, -1.6437 -1.5731 1.4764, 0.053 0.7681 1.4764, 0.0306 0.7716 1.4764, -1.6437 0.7771 1.4764, 0.0175 0.7771 1.4764, 0.0087 0.7808 1.4764, 0.5108 0.83 1.4764, 0.1457 0.83 1.4764, 0.1456 0.8298 1.4764, 0.1344 0.8086 1.4764, 0.1197 0.7921 1.4764, 0.1008 0.7789 1.4764, 0.1279 0.9265 1.4764, 0.255 0.9929 1.4764, 0.1114 0.9415 1.4764, 0.0912 0.9523 1.4764, 0.276 0.8309 1.4764, 0.2696 0.8328 1.4764, 0.263 0.8366 1.4764, 0.2582 0.8413 1.4764, 0.3969 0.9706 1.4764, 0.3925 0.9889 1.4764, 0.3852 1.0025 1.4764, -0.087 1.0025 1.4764, 0.2617 0.8825 1.4764, 0.2677 0.8864 1.4764, 0.2844 0.9426 1.4764, 0.2743 0.8887 1.4764, 0.4378 0.8959 1.4764, 0.4211 0.8733 1.4764, 0.4169 0.869 1.4764, 0.3917 0.8492 1.4764, -0.0815 0.9457 1.4764, -0.0701 0.9262 1.4764, -0.0219 0.9166 1.4764, -0.0531 0.9088 1.4764, -0.0325 0.8961 1.4764, 0.0132 0.9479 1.4764, -0.0062 0.9345 1.4764, -0.0894 0.9834 1.4764, -0.0883 0.969 1.4764, 0.4528 0.9908 1.4764, 0.4562 0.9635 1.4764, 0.5108 1.0025 1.4764, 0.456 0.9564 1.4764, 0.4507 0.9254 1.4764, 0.3624 0.836 1.4764, 0.3347 0.8306 1.4764, 0.2788 0.8306 1.4764, 0.0342 0.9559 1.4764, 0.0567 0.9587 1.4764, 0.0683 0.958 1.4764, 0.2512 0.86 1.4764, 0.2514 0.8632 1.4764, 0.1516 0.8724 1.4764, 0.2532 0.8705 1.4764, 0.2567 0.8771 1.4764, 0.2807 0.8894 1.4764, 0.2816 0.8894 1.4764, 0.2844 0.8888 1.4764, 0.2542 0.8473 1.4764, 0.2519 0.8538 1.4764, 0.1511 0.8532 1.4764, 0.1516 0.8629 1.4764, 0.3781 0.9124 1.4764, 0.3886 0.9272 1.4764, 0.3951 0.9441 1.4764, 0.3974 0.9625 1.4764, 0.2863 0.8885 1.4764, 0.329 0.8885 1.4764, 0.3459 0.8917 1.4764, 0.3627 0.8994 1.4764, 0.3767 0.9109 1.4764, 0.3149 1.0417 1.4764, -0.0686 1.0417 1.4764, 0.3158 1.0365 1.4764, -0.0785 1.0274 1.4764, -0.0866 1.0063 1.4764, 0.3233 1.0365 1.4764, 0.3837 1.0053 1.4764, 0.3726 1.0177 1.4764, 0.3579 1.0279 1.4764, 0.3413 1.0343 1.4764, 0.0487 1.0679 1.4764, 0.0558 1.064 1.4764, 0.0678 1.09 1.4764, 0.2681 1.1242 1.4764, 0.3136 1.0495 1.4764, 0.2834 1.1093 1.4764, 0.3022 1.0815 1.4764, 0.1829 1.1551 1.4764, 0.1761 1.1549 1.4764, 0.1446 1.1497 1.4764, 0.0274 1.0756 1.4764, 0.0055 1.0783 1.4764, -0.0042 1.0778 1.4764, 0.2409 1.1418 1.4764, 0.2108 1.1522 1.4764, 0.114 1.1363 1.4764, 0.0881 1.1161 1.4764, -0.0276 1.0723 1.4764, -0.0488 1.0611 1.4764, -0.0653 1.0464 1.4764, 0.4274 1.0417 1.4764, 0.442 1.02 1.4764, 0.4484 1.0025 1.4764, 1.0068 0.8463 1.4764, 1.0068 0.8311 1.4764, 1.0194 0.83 1.4764, 1.0194 1.0025 1.4764, 1.0038 0.9645 1.4764, 1.0038 0.9492 1.4764, 0.9523 0.8912 1.4764, 0.9523 0.8463 1.4764, 0.9773 0.8912 1.4764, 0.9773 0.8463 1.4764, 1.0 0.8912 1.4764, 1.0 0.9065 1.4764, 0.9523 0.9492 1.4764, 0.9523 0.9065 1.4764, 0.9773 0.9492 1.4764, 0.9773 0.9065 1.4764, 0.9773 0.83 1.4764, 0.9773 0.8311 1.4764, 0.9351 0.8311 1.4764, 0.8691 0.8548 1.4764, 0.8712 0.8469 1.4764, 0.8716 0.8469 1.4764, 0.917 0.9264 1.4764, 0.8523 1.0025 1.4764, 0.8997 0.9264 1.4764, 0.8523 0.9032 1.4764, 0.8737 0.8546 1.4764, 0.8724 0.8502 1.4764, 0.7525 0.8517 1.4764, 0.7355 1.0025 1.4764, 0.7355 0.83 1.4764, 0.7585 0.8479 1.4764, 0.7602 0.8473 1.4764, 0.7602 0.8826 1.4764, 0.7573 0.8856 1.4764, 0.7552 0.889 1.4764, 0.7533 0.8941 1.4764, 0.7526 0.9007 1.4764, 0.7532 0.9066 1.4764, 0.7601 0.8827 1.4764, 0.7676 0.83 1.4764, 0.7641 0.8303 1.4764, 0.7602 0.83 1.4764, 0.7602 0.8317 1.4764, 0.7525 0.8344 1.4764, 0.8123 0.9243 1.4764, 0.8123 0.9081 1.4764, 0.7633 0.921 1.4764, 0.7673 0.9235 1.4764, 0.7602 1.0025 1.4764, 0.8161 0.8504 1.4764, 0.8141 0.8451 1.4764, 0.811 0.8407 1.4764, 0.7552 0.912 1.4764, 0.7583 0.9165 1.4764, 0.7602 0.9182 1.4764, 0.7762 0.9269 1.4764, 0.7897 0.9286 1.4764, 0.8212 1.0025 1.4764, 0.8014 0.9275 1.4764, 0.8113 0.8728 1.4764, 0.8143 0.8683 1.4764, 0.8161 0.8634 1.4764, 0.8169 0.857 1.4764, 0.8061 0.8364 1.4764, 0.8013 0.8335 1.4764, 0.7881 0.915 1.4764, 0.7831 0.9146 1.4764, 0.7698 0.9022 1.4764, 0.7786 0.9134 1.4764, 0.7749 0.9115 1.4764, 0.77 0.9 1.4764, 0.7706 0.8974 1.4764, 0.7718 0.8951 1.4764, 0.7735 0.8933 1.4764, 0.7794 0.8896 1.4764, 0.7998 0.9136 1.4764, 0.7897 0.8851 1.4764, 0.8092 0.9099 1.4764, 0.7962 0.8825 1.4764, 0.8073 0.8763 1.4764, 0.7724 0.9092 1.4764, 0.7709 0.9071 1.4764, 0.7701 0.9048 1.4764, 0.7689 0.8438 1.4764, 0.7779 0.873 1.4764, 0.7679 0.8775 1.4764, 0.78 0.8425 1.4764, 0.7807 0.8425 1.4764, 0.7889 0.8684 1.4764, 0.7893 0.8434 1.4764, 0.7997 0.8554 1.4764, 0.7995 0.8575 1.4764, 0.7936 0.845 1.4764, 0.7951 0.8459 1.4764, 0.797 0.8476 1.4764, 0.7985 0.8498 1.4764, 0.7993 0.8522 1.4764, 0.7988 0.8601 1.4764, 0.7975 0.8623 1.4764, 0.7954 0.8644 1.4764, 1.1444 1.0417 1.4764, 1.101 1.0428 1.4764, 1.082 1.0428 1.4764, 1.0684 1.0793 1.4764, 1.0194 1.0793 1.4764, 1.0194 1.0417 1.4764, 1.0502 1.1762 1.4764, 1.1444 1.1774 1.4764, 1.0194 1.1774 1.4764, 1.0128 1.0793 1.4764, 1.0 1.0428 1.4764, 0.9773 1.0417 1.4764, 0.981 1.0428 1.4764, 0.9773 1.1774 1.4764, 1.0194 1.1438 1.4764, 1.0318 1.1762 1.4764, 0.8367 1.1762 1.4764, 0.8523 1.1774 1.4764, 0.8212 1.1774 1.4764, 0.7852 1.1029 1.4764, 0.7852 1.058 1.4764, 0.8212 1.1029 1.4764, 0.8212 1.058 1.4764, 0.8329 1.1029 1.4764, 0.8397 1.058 1.4764, 0.8329 1.1182 1.4764, 0.8367 1.1609 1.4764, 0.8212 1.1182 1.4764, 0.8212 1.1609 1.4764, 0.7852 1.1182 1.4764, 0.7852 1.1609 1.4764, 0.7679 1.0428 1.4764, 0.7602 1.0417 1.4764, 0.8212 1.0417 1.4764, 0.8523 1.0417 1.4764, 0.8397 1.0428 1.4764, 0.8212 1.0428 1.4764, 0.7602 1.1774 1.4764, 0.7679 1.1762 1.4764, 0.8212 1.1762 1.4764, 0.7131 1.0561 1.4764, 0.7282 1.059 1.4764, 0.7355 1.1574 1.4764, 0.7355 1.0623 1.4764, 0.7397 1.1558 1.4764, 0.7412 1.0648 1.4764, 0.7412 1.155 1.4764, 0.675 1.0674 1.4764, 0.6837 1.0612 1.4764, 0.7262 1.161 1.4764, 0.6717 1.1462 1.4764, 0.6655 1.1368 1.4764, 0.6612 1.1249 1.4764, 0.7098 1.1629 1.4764, 0.7046 1.1627 1.4764, 0.6734 1.1481 1.4764, 0.693 1.1605 1.4764, 0.6825 1.1556 1.4764, 0.6594 1.108 1.4764, 0.6595 1.1031 1.4764, 0.6617 1.0897 1.4764, 0.6932 1.0575 1.4764, 0.7068 1.0559 1.4764, 0.666 1.079 1.4764, 0.6725 1.0699 1.4764, 0.7237 1.1774 1.4764, 0.7274 1.1771 1.4764, 0.7355 1.1774 1.4764, 0.7355 1.1747 1.4764, 0.7412 1.173 1.4764, 0.71 1.1785 1.4764, 0.7355 1.5765 1.4764, 0.7096 1.1785 1.4764, 0.6473 1.5765 1.4764, 0.7005 1.1774 1.4764, 0.6473 1.1774 1.4764, 0.6509 1.1462 1.4764, 0.6606 1.1588 1.4764, 0.6637 1.1618 1.4764, 0.6762 1.1706 1.4764, 0.6901 1.1761 1.4764, 0.6393 1.1774 1.4764, 0.6446 1.1314 1.4764, 0.6473 1.1377 1.4764, 0.6473 1.0765 1.4764, 0.6435 1.0871 1.4764, 0.6393 1.0417 1.4764, 0.6413 1.107 1.4764, 0.6415 1.1139 1.4764, 0.6818 1.0439 1.4764, 0.6692 1.0498 1.4764, 0.6473 1.0417 1.4764, 0.6584 1.0588 1.4764, 0.6563 1.0611 1.4764, 0.6486 1.0728 1.4764, 0.6926 1.0417 1.4764, 0.6473 1.0025 1.4764, 0.6963 1.0409 1.4764, 0.7043 1.0405 1.4764, 0.7161 1.0417 1.4764, 0.7412 1.0483 1.4764, 0.7389 1.0472 1.4764, 0.7355 1.0417 1.4764, 0.7355 1.0461 1.4764, 0.7246 1.0425 1.4764, 0.66 0.8765 1.4764, 0.6626 0.9035 1.4764, 0.6566 0.8717 1.4764, 0.6544 0.8658 1.4764, 0.6473 0.83 1.4764, 0.656 0.8436 1.4764, 0.654 0.8494 1.4764, 0.7053 0.9277 1.4764, 0.7124 0.9256 1.4764, 0.7131 0.8458 1.4764, 0.7127 0.8458 1.4764, 0.7131 0.8311 1.4764, 0.7088 0.8402 1.4764, 0.7033 0.835 1.4764, 0.6651 0.8809 1.4764, 0.6722 0.8846 1.4764, 0.6742 0.9108 1.4764, 0.6849 0.8877 1.4764, 0.6847 0.9141 1.4764, 0.6665 0.8327 1.4764, 0.6614 0.8363 1.4764, 0.659 0.8389 1.4764, 0.7179 0.9224 1.4764, 0.7224 0.9182 1.4764, 0.7259 0.9128 1.4764, 0.6626 0.9197 1.4764, 0.6659 0.9216 1.4764, 0.6783 0.9265 1.4764, 0.6954 0.9286 1.4764, 0.7131 0.8917 1.4764, 0.7127 0.8982 1.4764, 0.711 0.9045 1.4764, 0.6532 0.8566 1.4764, 0.6533 0.8586 1.4764, 0.7091 0.9081 1.4764, 0.7067 0.9108 1.4764, 0.7038 0.9128 1.4764, 0.7001 0.9143 1.4764, 0.6938 0.915 1.4764, 0.7285 0.9053 1.4764, 0.7298 0.8924 1.4764, 0.7298 0.8311 1.4764, 0.6835 0.8288 1.4764, 0.6473 0.7771 1.4764, 0.6927 0.8299 1.4764, 0.7355 0.7771 1.4764, 0.6928 0.83 1.4764, 0.6806 0.8289 1.4764, 0.6741 0.83 1.4764, 0.6728 0.8302 1.4764, 0.8523 0.83 1.4764, 0.8523 0.8583 1.4764, 0.8255 0.9264 1.4764, 0.8442 0.9264 1.4764, 0.8629 0.8313 1.4764, 0.8624 0.83 1.4764, 0.8556 0.814 1.4764, 0.8212 0.7771 1.4764, 0.829 0.7876 1.4764, 0.829 0.8024 1.4764, 0.8326 0.8013 1.4764, 0.8385 0.8005 1.4764, 0.7783 0.8288 1.4764, 0.7602 0.7771 1.4764, 0.8391 0.8005 1.4764, 0.843 0.8011 1.4764, 0.8466 0.8026 1.4764, 0.8491 0.8043 1.4764, 0.8522 0.8078 1.4764, 0.8523 0.808 1.4764, 0.8523 0.7892 1.4764, 0.8464 0.7869 1.4764, 0.8523 0.7771 1.4764, 0.8398 0.7862 1.4764, 0.8339 0.7865 1.4764, 0.8738 0.8167 1.4764, 0.8666 0.8025 1.4764, 0.9773 0.7771 1.4764, 0.879 0.83 1.4764, 0.8605 0.795 1.4764, 0.8588 0.7934 1.4764, 0.853 0.7894 1.4764, 1.0194 0.7771 1.4764, 0.9773 -1.5731 1.4764, 0.8523 -1.5731 1.4764, 0.8212 -1.5731 1.4764, 0.7602 -1.5731 1.4764, 0.7355 -1.5731 1.4764, 0.6473 -1.5731 1.4764, 0.6994 0.8325 1.4764, 1.4559 0.83 1.4764, 1.1444 0.83 1.4764, 0.5655 0.9645 1.4764, 0.5655 0.8311 1.4764, 0.6393 0.83 1.4764, 0.6393 0.7771 1.4764, 0.6393 -1.5731 1.4764, 0.6342 0.9645 1.4764, 0.6393 1.0025 1.4764, 0.6342 0.9492 1.4764, 0.6372 0.8463 1.4764, 0.6372 0.8311 1.4764, 0.5827 0.8912 1.4764, 0.5827 0.8463 1.4764, 0.6304 0.8912 1.4764, 0.6304 0.9065 1.4764, 0.5827 0.9065 1.4764, 0.5827 0.9492 1.4764, 1.032 0.8311 1.4764, 1.1371 0.8754 1.4764, 1.1305 0.8616 1.4764, 1.1206 0.8498 1.4764, 1.1334 0.9308 1.4764, 1.1384 0.9181 1.4764, 1.1444 1.0025 1.4764, 1.1407 0.8995 1.4764, 1.1403 0.8911 1.4764, 1.1069 0.8399 1.4764, 1.0917 0.8339 1.4764, 1.0687 0.8311 1.4764, 1.032 0.9645 1.4764, 1.0701 0.9645 1.4764, 1.0905 0.9623 1.4764, 1.1066 0.9564 1.4764, 1.1206 0.9469 1.4764, 1.1251 0.9424 1.4764, 1.1671 0.8311 1.4764, 1.1481 0.8311 1.4764, 1.2491 0.8311 1.4764, 1.2355 0.8676 1.4764, 1.1799 0.8676 1.4764, 1.1989 0.9645 1.4764, 1.2173 0.9645 1.4764, 0.5655 1.0428 1.4764, 0.5655 1.1762 1.4764, 0.6358 1.0428 1.4764, 0.9663 1.1425 1.4764, 0.9713 1.1299 1.4764, 0.9736 1.1112 1.4764, 0.9732 1.1028 1.4764, 0.9699 1.0871 1.4764, 0.9634 1.0733 1.4764, 0.9534 1.0615 1.4764, 0.9397 1.0516 1.4764, 0.903 1.1762 1.4764, 0.9233 1.174 1.4764, 0.9395 1.1681 1.4764, 0.9246 1.0456 1.4764, 0.9016 1.0428 1.4764, 0.8649 1.0428 1.4764, 0.8649 1.1762 1.4764, 0.9534 1.1586 1.4764, 0.958 1.1541 1.4764, 1.2682 0.8311 1.4764, 1.4559 1.0025 1.4764, 1.4559 1.0417 1.4764, 1.4559 1.1774 1.4764, 1.6437 0.83 1.4764, 1.6437 1.0025 1.4764, 1.6437 1.0417 1.4764, 1.6437 1.1774 1.4764, 0.6393 1.5765 1.4764, 1.6437 1.5765 1.4764, 1.4559 1.5765 1.4764, 1.1444 1.5765 1.4764, 1.0194 1.5765 1.4764, 0.9773 1.5765 1.4764, 0.8523 1.5765 1.4764, 0.8212 1.5765 1.4764, 0.7602 1.5765 1.4764
            ]
        }
        coordIndex [
            0,1,2,-1,3,4,5,-1,6,3,7,-1,8,6,9,-1,10,11,12,-1,13,14,15,-1,16,17,18,-1,18,17,19,-1,20,21,18,-1,18,21,22,-1,18,22,23,-1,23,24,18,-1,18,24,25,-1,18,25,16,-1,26,27,28,-1,28,27,29,-1,29,27,30,-1,30,27,31,-1,30,31,32,-1,32,31,33,-1,32,33,34,-1,33,35,34,-1,34,35,36,-1,34,36,37,-1,37,36,38,-1,37,38,39,-1,40,41,33,-1,33,41,42,-1,33,42,35,-1,43,44,45,-1,45,46,43,-1,43,46,47,-1,43,47,33,-1,33,47,48,-1,33,48,40,-1,49,50,51,-1,51,50,52,-1,51,52,53,-1,53,54,51,-1,51,54,55,-1,51,55,44,-1,44,55,56,-1,44,56,45,-1,57,49,58,-1,58,49,51,-1,58,51,59,-1,59,51,60,-1,61,62,63,-1,63,64,61,-1,61,64,65,-1,61,65,66,-1,65,67,66,-1,66,67,68,-1,66,68,69,-1,69,68,70,-1,69,70,51,-1,51,70,71,-1,51,71,60,-1,72,73,62,-1,62,73,74,-1,62,74,75,-1,75,76,62,-1,62,76,77,-1,62,77,63,-1,78,79,80,-1,80,79,81,-1,82,83,73,-1,73,83,84,-1,73,84,85,-1,86,87,79,-1,79,87,88,-1,79,88,89,-1,90,91,92,-1,92,91,93,-1,94,95,72,-1,72,95,96,-1,72,96,97,-1,98,99,100,-1,100,99,101,-1,100,101,102,-1,103,89,104,-1,104,89,105,-1,104,105,100,-1,100,105,106,-1,100,106,98,-1,107,108,109,-1,109,108,110,-1,109,110,72,-1,72,110,111,-1,72,111,94,-1,97,112,72,-1,72,112,113,-1,72,113,73,-1,73,113,114,-1,73,114,82,-1,103,115,89,-1,89,115,116,-1,89,116,79,-1,79,116,117,-1,79,117,81,-1,118,119,120,-1,120,119,121,-1,120,121,92,-1,92,121,122,-1,92,122,90,-1,93,123,92,-1,92,123,124,-1,92,124,125,-1,85,126,73,-1,73,126,127,-1,73,127,128,-1,128,127,118,-1,128,118,129,-1,129,118,120,-1,130,131,92,-1,92,131,132,-1,92,132,79,-1,79,132,133,-1,79,133,86,-1,125,134,92,-1,92,134,135,-1,92,135,136,-1,136,137,92,-1,92,137,138,-1,92,138,130,-1,139,140,141,-1,141,140,142,-1,141,142,143,-1,143,89,141,-1,141,89,88,-1,141,88,144,-1,144,88,145,-1,145,146,144,-1,144,146,147,-1,144,147,148,-1,149,140,150,-1,150,140,139,-1,150,139,151,-1,152,153,154,-1,154,153,155,-1,153,156,139,-1,139,156,157,-1,139,157,158,-1,149,159,140,-1,140,159,160,-1,140,160,161,-1,152,162,153,-1,153,162,163,-1,153,163,156,-1,158,164,139,-1,139,164,165,-1,139,165,151,-1,166,167,161,-1,161,167,168,-1,161,168,140,-1,17,169,19,-1,19,169,170,-1,19,170,109,-1,109,170,171,-1,109,171,107,-1,172,173,174,-1,15,14,175,-1,175,14,176,-1,175,176,177,-1,178,179,180,-1,180,179,181,-1,180,181,182,-1,182,181,172,-1,182,172,183,-1,184,185,186,-1,186,185,187,-1,186,187,177,-1,174,173,188,-1,188,173,189,-1,188,189,190,-1,191,192,193,-1,194,195,196,-1,196,195,197,-1,196,197,198,-1,198,197,191,-1,198,191,199,-1,199,191,193,-1,200,201,202,-1,203,204,205,-1,206,207,200,-1,207,208,200,-1,200,208,209,-1,200,209,201,-1,201,209,210,-1,203,205,200,-1,200,205,211,-1,200,211,206,-1,212,213,214,-1,214,213,215,-1,214,215,202,-1,202,215,216,-1,202,216,200,-1,217,218,12,-1,219,220,221,-1,222,223,12,-1,12,223,224,-1,210,225,201,-1,201,225,226,-1,201,226,221,-1,221,226,227,-1,221,227,219,-1,220,228,221,-1,221,228,229,-1,221,229,230,-1,230,229,231,-1,230,231,217,-1,232,233,218,-1,218,233,234,-1,218,234,12,-1,12,234,235,-1,12,235,222,-1,224,236,12,-1,12,236,237,-1,12,237,10,-1,238,239,240,-1,240,239,241,-1,240,241,242,-1,240,243,238,-1,238,243,244,-1,238,244,245,-1,245,246,238,-1,238,246,247,-1,238,247,248,-1,248,247,249,-1,248,249,250,-1,250,249,251,-1,250,251,218,-1,218,251,252,-1,218,252,232,-1,253,254,242,-1,242,254,255,-1,242,255,240,-1,256,257,204,-1,204,257,258,-1,204,258,205,-1,256,259,257,-1,257,259,260,-1,257,260,261,-1,261,260,262,-1,261,263,264,-1,262,265,261,-1,261,265,266,-1,261,266,267,-1,267,268,261,-1,261,268,269,-1,261,269,263,-1,264,270,261,-1,261,270,271,-1,261,271,272,-1,273,274,275,-1,276,277,275,-1,275,277,278,-1,275,278,273,-1,274,273,279,-1,279,273,280,-1,279,280,281,-1,277,282,278,-1,278,282,283,-1,278,283,284,-1,284,283,285,-1,284,285,286,-1,286,285,287,-1,286,287,281,-1,281,287,288,-1,281,288,279,-1,289,290,291,-1,292,293,294,-1,294,293,295,-1,294,295,296,-1,296,295,297,-1,296,297,298,-1,298,297,299,-1,298,299,300,-1,300,299,301,-1,300,301,302,-1,302,301,303,-1,304,305,306,-1,289,299,290,-1,290,299,297,-1,290,297,307,-1,307,297,308,-1,307,308,306,-1,306,308,309,-1,306,309,304,-1,310,311,291,-1,291,311,312,-1,291,312,289,-1,313,314,315,-1,315,314,316,-1,315,316,317,-1,317,316,318,-1,317,318,319,-1,319,318,305,-1,319,305,310,-1,310,305,304,-1,310,304,311,-1,315,320,321,-1,322,323,315,-1,315,323,324,-1,315,324,325,-1,322,326,323,-1,323,326,327,-1,323,327,328,-1,328,327,329,-1,328,329,330,-1,325,331,315,-1,315,331,332,-1,315,332,333,-1,321,334,315,-1,315,334,335,-1,315,335,313,-1,333,336,315,-1,315,336,337,-1,315,337,320,-1,338,339,340,-1,340,339,341,-1,340,341,310,-1,310,341,342,-1,310,342,319,-1,343,344,345,-1,345,344,346,-1,345,346,347,-1,348,349,350,-1,350,351,348,-1,348,351,352,-1,348,352,353,-1,354,355,348,-1,348,355,356,-1,348,356,349,-1,357,358,359,-1,359,358,360,-1,359,360,354,-1,354,360,361,-1,354,361,355,-1,362,363,364,-1,364,363,365,-1,365,366,364,-1,364,366,367,-1,364,367,357,-1,362,364,368,-1,368,364,369,-1,368,369,370,-1,370,369,371,-1,371,369,201,-1,371,201,372,-1,318,373,305,-1,305,373,374,-1,305,374,375,-1,375,374,376,-1,375,376,377,-1,378,379,380,-1,380,379,381,-1,382,383,384,-1,385,386,201,-1,387,388,389,-1,389,388,390,-1,389,390,391,-1,378,392,379,-1,379,392,393,-1,379,393,394,-1,394,393,395,-1,394,395,396,-1,397,398,382,-1,382,398,399,-1,382,399,383,-1,386,400,201,-1,201,400,401,-1,201,401,402,-1,403,404,369,-1,369,404,405,-1,369,405,201,-1,201,405,406,-1,201,406,385,-1,407,408,395,-1,395,408,409,-1,384,410,382,-1,382,410,411,-1,382,411,369,-1,369,411,381,-1,369,381,403,-1,403,381,379,-1,409,412,395,-1,395,412,413,-1,395,413,414,-1,414,415,395,-1,395,415,416,-1,395,416,396,-1,402,417,201,-1,201,417,418,-1,201,418,202,-1,202,418,419,-1,202,419,389,-1,420,421,422,-1,422,421,423,-1,422,423,424,-1,420,425,421,-1,421,425,426,-1,421,426,382,-1,382,426,427,-1,382,427,397,-1,428,429,12,-1,12,429,430,-1,217,12,230,-1,230,12,430,-1,230,430,195,-1,195,430,431,-1,195,431,197,-1,432,429,433,-1,433,429,428,-1,433,428,434,-1,435,436,437,-1,438,439,12,-1,440,441,11,-1,11,441,435,-1,11,435,12,-1,12,435,437,-1,12,437,438,-1,439,442,12,-1,12,442,443,-1,12,443,444,-1,444,445,12,-1,12,445,446,-1,12,446,428,-1,428,446,447,-1,428,447,434,-1,448,449,450,-1,450,449,451,-1,450,451,435,-1,435,451,452,-1,435,452,436,-1,453,454,455,-1,453,455,456,-1,454,457,455,-1,455,457,458,-1,455,458,450,-1,450,458,459,-1,450,459,448,-1,8,460,461,-1,461,460,455,-1,461,455,462,-1,462,455,450,-1,462,450,463,-1,463,450,435,-1,463,435,464,-1,464,435,441,-1,464,441,465,-1,465,441,423,-1,465,423,466,-1,466,423,421,-1,440,212,441,-1,441,212,214,-1,441,214,423,-1,423,214,202,-1,423,202,424,-1,424,202,389,-1,424,389,467,-1,467,389,391,-1,460,174,455,-1,455,174,188,-1,455,188,456,-1,456,188,190,-1,456,190,194,-1,194,190,13,-1,194,13,195,-1,195,13,15,-1,6,7,9,-1,9,7,468,-1,9,468,469,-1,470,109,471,-1,471,109,72,-1,471,72,472,-1,472,72,62,-1,472,62,473,-1,473,62,61,-1,473,61,474,-1,470,475,476,-1,475,477,476,-1,476,477,478,-1,476,478,472,-1,472,478,479,-1,472,479,471,-1,480,481,482,-1,482,481,478,-1,482,478,483,-1,483,478,477,-1,483,477,484,-1,484,477,485,-1,187,183,177,-1,177,183,172,-1,177,172,175,-1,175,172,174,-1,175,174,486,-1,487,488,469,-1,469,488,489,-1,490,491,492,-1,492,491,493,-1,492,493,469,-1,469,493,494,-1,469,494,487,-1,489,495,469,-1,469,495,496,-1,469,496,497,-1,8,9,460,-1,460,9,469,-1,460,469,174,-1,174,469,497,-1,174,497,486,-1,486,498,175,-1,175,498,499,-1,175,499,492,-1,492,499,500,-1,492,500,501,-1,501,502,492,-1,492,502,503,-1,492,503,490,-1,504,505,469,-1,506,507,508,-1,469,505,492,-1,492,505,509,-1,492,509,510,-1,357,359,364,-1,364,359,476,-1,364,476,369,-1,369,476,472,-1,369,472,382,-1,382,472,473,-1,382,473,421,-1,421,473,474,-1,421,474,466,-1,492,273,175,-1,175,273,278,-1,175,278,15,-1,15,278,284,-1,15,284,195,-1,195,284,307,-1,195,307,230,-1,230,307,306,-1,230,306,221,-1,221,306,305,-1,221,305,201,-1,201,305,375,-1,201,375,372,-1,372,375,377,-1,470,476,109,-1,109,476,359,-1,109,359,19,-1,19,359,511,-1,19,511,18,-1,511,512,18,-1,18,512,0,-1,18,0,354,-1,354,0,2,-1,354,2,359,-1,359,2,513,-1,359,513,511,-1,514,515,286,-1,286,515,516,-1,286,516,284,-1,284,516,517,-1,284,517,518,-1,518,519,284,-1,284,519,520,-1,284,520,521,-1,290,522,286,-1,286,522,523,-1,286,523,524,-1,521,525,284,-1,284,525,526,-1,284,526,307,-1,307,526,527,-1,307,527,290,-1,290,527,528,-1,290,528,522,-1,524,529,286,-1,286,529,530,-1,286,530,514,-1,508,504,506,-1,506,504,469,-1,506,469,531,-1,531,469,468,-1,531,468,510,-1,510,468,532,-1,510,532,492,-1,492,532,533,-1,492,533,273,-1,273,533,534,-1,273,534,280,-1,3,5,7,-1,7,5,535,-1,7,535,468,-1,468,535,536,-1,468,536,532,-1,532,536,537,-1,532,537,533,-1,533,537,538,-1,533,538,534,-1,353,347,348,-1,348,347,346,-1,348,346,354,-1,354,346,539,-1,354,539,18,-1,18,539,27,-1,18,27,20,-1,20,27,26,-1,538,540,534,-1,534,540,541,-1,534,541,280,-1,280,541,542,-1,280,542,281,-1,281,542,543,-1,281,543,286,-1,286,543,544,-1,286,544,290,-1,290,544,545,-1,290,545,291,-1,291,545,546,-1,291,546,310,-1,310,546,547,-1,310,547,340,-1,340,547,344,-1,340,344,338,-1,338,344,343,-1,
        ]
    }
}
Shape{
    appearance Appearance {
        material  Material 	{
            diffuseColor 0.7529411764705882 0.7529411764705882 0.7529411764705882
            specularColor 0.3764705882352941 0.3764705882352941 0.3764705882352941
            ambientIntensity 0.7529
            transparency 0.0
            shininess 0.5
        }
    }
    geometry IndexedFaceSet {
        ccw TRUE
        solid FALSE
        coord DEF co Coordinate {
            point [
                -1.7323 -0.2936 0.268, -1.7323 -0.9825 0.268, -1.7315 -0.9825 0.2751, -1.7315 -0.2936 0.2751, -1.7292 -0.9825 0.2817, -1.7292 -0.2936 0.2817, -1.7254 -0.9825 0.2877, -1.7254 -0.2936 0.2877, -1.7204 -0.9825 0.2927, -1.7204 -0.2936 0.2927, -1.7145 -0.9825 0.2964, -1.7145 -0.2936 0.2964, -1.7078 -0.9825 0.2987, -1.7078 -0.2936 0.2987, -1.7008 -0.9825 0.2995, -1.7008 -0.2936 0.2995, 1.7008 0.986 0.2995, 1.7008 0.297 0.2995, 1.7078 0.297 0.2987, 1.7078 0.986 0.2987, 1.7145 0.297 0.2964, 1.7145 0.986 0.2964, 1.7204 0.297 0.2927, 1.7204 0.986 0.2927, 1.7254 0.297 0.2877, 1.7254 0.986 0.2877, 1.7292 0.297 0.2817, 1.7292 0.986 0.2817, 1.7315 0.297 0.2751, 1.7315 0.986 0.2751, 1.7323 0.297 0.268, 1.7323 0.986 0.268
            ]
        }
        coordIndex [
            0,1,2,-1,0,2,3,-1,3,2,4,-1,3,4,5,-1,5,4,6,-1,5,6,7,-1,7,6,8,-1,7,8,9,-1,9,8,10,-1,9,10,11,-1,11,10,12,-1,11,12,13,-1,13,12,14,-1,13,14,15,-1,16,17,18,-1,16,18,19,-1,19,18,20,-1,19,20,21,-1,21,20,22,-1,21,22,23,-1,23,22,24,-1,23,24,25,-1,25,24,26,-1,25,26,27,-1,27,26,28,-1,27,28,29,-1,29,28,30,-1,29,30,31,-1,
        ]
    }
}
Shape{
    appearance Appearance {
        material  Material 	{
            diffuseColor 0.5019607843137255 0.5019607843137255 0.5019607843137255
            specularColor 0.25098039215686274 0.25098039215686274 0.25098039215686274
            ambientIntensity 0.502
            transparency 0.0
            shininess 0.5
        }
    }
    geometry IndexedFaceSet {
        ccw TRUE
        solid FALSE
        coord DEF co Coordinate {
            point [
                1.6831 -1.5731 0.0197, 1.6831 -1.081 0.0197, 1.6831 -1.5731 1.437, 1.6831 -1.081 0.0512, 1.6831 1.0844 0.0197, 1.6831 1.5765 0.0197, 1.6831 1.0844 0.0512, 1.6831 0.986 0.2602, 1.6831 -0.9825 0.2602, 1.6831 -0.9825 0.2995, 1.6831 1.5765 1.437, 1.6831 0.986 0.2995, 1.6437 -1.6125 1.437, -1.6437 -1.6125 1.437, 1.6437 -1.6125 0.0197, -1.6437 -1.6125 0.0197, -1.6831 -1.081 0.0197, -1.6831 -1.5731 0.0197, -1.6831 -1.081 0.0512, -1.6831 -1.5731 1.437, -1.6831 1.0844 0.0197, -1.6831 1.0844 0.0512, -1.6831 1.5765 0.0197, -1.6831 0.986 0.2602, -1.6831 1.5765 1.437, -1.6831 0.986 0.2995, -1.6831 -0.9825 0.2995, -1.6831 -0.9825 0.2602, 1.6437 1.6159 0.0197, -1.6437 1.6159 0.0197, 1.6437 1.6159 1.437, -1.6437 1.6159 1.437, 1.0925 -1.081 0.0197, -1.0925 -1.081 0.0197, -1.6817 -1.5833 0.0197, 1.0925 1.0844 0.0197, -1.0925 1.0844 0.0197, 1.6821 1.5853 0.0197, -1.6539 -1.6111 0.0197, -1.6634 -1.6072 0.0197, 1.6817 -1.5833 0.0197, 1.6539 -1.6111 0.0197, 1.6778 -1.5928 0.0197, 1.6634 -1.6072 0.0197, 1.6715 -1.6009 0.0197, -1.6778 1.5962 0.0197, -1.6715 1.6044 0.0197, -1.6634 1.6106 0.0197, -1.6715 -1.6009 0.0197, -1.6778 -1.5928 0.0197, -1.6817 1.5867 0.0197, -1.6539 1.6146 0.0197, 1.6525 1.6149 0.0197, 1.6608 1.612 0.0197, 1.6682 1.6073 0.0197, 1.6745 1.6011 0.0197, 1.6792 1.5936 0.0197, 1.0925 1.0844 0.0512, 1.0925 -1.081 0.0512, -1.0925 -1.081 0.0512, -1.0925 1.0844 0.0512
            ]
        }
        coordIndex [
            0,1,2,-1,2,1,3,-1,4,5,6,-1,6,5,7,-1,6,7,3,-1,3,7,8,-1,3,8,2,-1,2,8,9,-1,2,9,10,-1,10,9,11,-1,10,11,5,-1,5,11,7,-1,12,13,14,-1,14,13,15,-1,16,17,18,-1,18,17,19,-1,20,21,22,-1,22,21,23,-1,22,23,24,-1,24,23,25,-1,24,25,19,-1,19,25,26,-1,19,26,18,-1,18,26,27,-1,18,27,21,-1,21,27,23,-1,28,29,30,-1,30,29,31,-1,32,1,0,-1,17,16,33,-1,17,33,34,-1,5,4,35,-1,36,20,29,-1,29,20,22,-1,5,35,37,-1,15,38,33,-1,33,38,39,-1,29,28,36,-1,36,28,35,-1,36,35,33,-1,33,35,32,-1,33,32,15,-1,15,32,0,-1,15,0,14,-1,14,0,40,-1,14,40,41,-1,41,40,42,-1,41,42,43,-1,43,42,44,-1,45,46,47,-1,39,48,33,-1,33,48,49,-1,33,49,34,-1,22,50,29,-1,29,50,45,-1,29,45,51,-1,51,45,47,-1,28,52,35,-1,35,52,53,-1,35,53,54,-1,54,55,35,-1,35,55,56,-1,35,56,37,-1,6,57,4,-1,4,57,35,-1,57,58,35,-1,35,58,32,-1,58,3,32,-1,32,3,1,-1,3,58,6,-1,6,58,57,-1,18,59,16,-1,16,59,33,-1,59,60,33,-1,33,60,36,-1,60,21,36,-1,36,21,20,-1,60,59,21,-1,21,59,18,-1,
        ]
    }
}
Shape{
    appearance Appearance {
        material  Material 	{
            diffuseColor 0.7529411764705882 0.7529411764705882 0.7529411764705882
            specularColor 0.3764705882352941 0.3764705882352941 0.3764705882352941
            ambientIntensity 0.7529
            transparency 0.0
            shininess 0.5
        }
    }
    geometry IndexedFaceSet {
        ccw TRUE
        solid FALSE
        coord DEF co Coordinate {
            point [
                -1.1811 0.986 0.0394, -1.6929 0.986 0.0394, -1.1811 -0.9825 0.0394, -1.6929 -0.9825 0.0394, -1.1811 0.986 0.0, -1.1811 -0.9825 0.0, -1.7008 0.986 0.0, -1.7008 -0.9825 0.0, -1.7089 -0.9825 0.0011, -1.7089 0.986 0.0011, -1.7165 -0.9825 0.0042, -1.7165 0.986 0.0042, -1.7231 -0.9825 0.0092, -1.7231 0.986 0.0092, -1.7281 -0.9825 0.0157, -1.7281 0.986 0.0157, -1.7312 -0.9825 0.0233, -1.7312 0.986 0.0233, -1.7323 -0.9825 0.0315, -1.7323 0.986 0.0315, -1.7323 0.297 0.268, -1.7323 0.986 0.268, -1.7323 0.297 0.2208, -1.7323 -0.2936 0.2208, -1.7323 -0.2936 0.268, -1.7323 -0.9825 0.268, -1.7315 0.297 0.2751, -1.7315 0.986 0.2751, -1.7292 0.297 0.2817, -1.7292 0.986 0.2817, -1.7254 0.297 0.2877, -1.7254 0.986 0.2877, -1.7204 0.297 0.2927, -1.7204 0.986 0.2927, -1.7145 0.297 0.2964, -1.7145 0.986 0.2964, -1.7078 0.297 0.2987, -1.7078 0.986 0.2987, -1.7008 0.297 0.2995, -1.7008 0.986 0.2995, -1.6912 -0.2936 0.2995, -1.7008 -0.2936 0.2995, -1.7008 -0.9825 0.2995, -1.6831 0.986 0.2995, -1.6912 0.297 0.2995, -1.6831 -0.9825 0.2995, -1.6929 0.297 0.2602, -1.6929 0.986 0.2602, -1.6912 0.297 0.2602, -1.6831 0.986 0.2602, -1.6912 -0.2936 0.2602, -1.6831 -0.9825 0.2602, -1.6929 -0.2936 0.2602, -1.6929 -0.9825 0.2602, -1.6929 -0.2936 0.2208, -1.6929 0.297 0.2208, -1.7078 -0.9825 0.2987, -1.7145 -0.9825 0.2964, -1.7204 -0.9825 0.2927, -1.7254 -0.9825 0.2877, -1.7292 -0.9825 0.2817, -1.7315 -0.9825 0.2751, 1.1811 0.986 0.0, 1.7008 0.986 0.0, 1.1811 -0.9825 0.0, 1.7008 -0.9825 0.0, 1.1811 0.986 0.0394, 1.1811 -0.9825 0.0394, 1.6929 0.986 0.0394, 1.6929 -0.9825 0.0394, 1.6929 0.297 0.2602, 1.6929 0.986 0.2602, 1.6929 0.297 0.2208, 1.6929 -0.2936 0.2208, 1.6929 -0.2936 0.2602, 1.6929 -0.9825 0.2602, 1.6912 -0.2936 0.2602, 1.6831 0.986 0.2602, 1.6912 0.297 0.2602, 1.6831 -0.9825 0.2602, 1.7008 0.297 0.2995, 1.7008 0.986 0.2995, 1.6912 0.297 0.2995, 1.6831 0.986 0.2995, 1.6912 -0.2936 0.2995, 1.6831 -0.9825 0.2995, 1.7008 -0.2936 0.2995, 1.7008 -0.9825 0.2995, 1.7078 -0.9825 0.2987, 1.7078 -0.2936 0.2987, 1.7145 -0.9825 0.2964, 1.7145 -0.2936 0.2964, 1.7204 -0.9825 0.2927, 1.7204 -0.2936 0.2927, 1.7254 -0.9825 0.2877, 1.7254 -0.2936 0.2877, 1.7292 -0.9825 0.2817, 1.7292 -0.2936 0.2817, 1.7315 -0.9825 0.2751, 1.7315 -0.2936 0.2751, 1.7323 -0.9825 0.268, 1.7323 -0.2936 0.268, 1.7323 -0.2936 0.2208, 1.7323 -0.9825 0.0315, 1.7323 0.297 0.2208, 1.7323 0.986 0.0315, 1.7323 0.297 0.268, 1.7323 0.986 0.268, 1.7315 -0.9825 0.0245, 1.7315 0.986 0.0245, 1.7292 -0.9825 0.0178, 1.7292 0.986 0.0178, 1.7254 -0.9825 0.0119, 1.7254 0.986 0.0119, 1.7204 -0.9825 0.0069, 1.7204 0.986 0.0069, 1.7145 -0.9825 0.0031, 1.7145 0.986 0.0031, 1.7078 -0.9825 0.0008, 1.7078 0.986 0.0008, 1.7204 0.986 0.2927, 1.7254 0.986 0.2877, 1.7292 0.986 0.2817, 1.7315 0.986 0.2751, 1.7078 0.986 0.2987, 1.7145 0.986 0.2964, 1.7315 0.297 0.2751, 1.7292 0.297 0.2817, 1.7254 0.297 0.2877, 1.7204 0.297 0.2927, 1.7145 0.297 0.2964, 1.7078 0.297 0.2987, -1.7078 -0.2936 0.2987, -1.7315 -0.2936 0.2751, -1.7292 -0.2936 0.2817, -1.7254 -0.2936 0.2877, -1.7204 -0.2936 0.2927, -1.7145 -0.2936 0.2964
            ]
        }
        coordIndex [
            0,1,2,-1,2,1,3,-1,4,0,5,-1,5,0,2,-1,6,4,7,-1,7,4,5,-1,6,7,8,-1,6,8,9,-1,9,8,10,-1,9,10,11,-1,11,10,12,-1,11,12,13,-1,13,12,14,-1,13,14,15,-1,15,14,16,-1,15,16,17,-1,17,16,18,-1,17,18,19,-1,20,21,22,-1,22,21,19,-1,22,19,23,-1,23,19,18,-1,23,18,24,-1,24,18,25,-1,21,20,26,-1,21,26,27,-1,27,26,28,-1,27,28,29,-1,29,28,30,-1,29,30,31,-1,31,30,32,-1,31,32,33,-1,33,32,34,-1,33,34,35,-1,35,34,36,-1,35,36,37,-1,37,36,38,-1,37,38,39,-1,40,41,42,-1,43,39,38,-1,38,44,43,-1,43,44,40,-1,43,40,45,-1,45,40,42,-1,46,47,48,-1,48,47,49,-1,48,49,50,-1,50,49,51,-1,50,51,52,-1,52,51,53,-1,52,53,54,-1,54,53,3,-1,54,3,55,-1,55,3,1,-1,55,1,46,-1,46,1,47,-1,33,35,47,-1,43,49,39,-1,39,49,47,-1,39,47,37,-1,37,47,35,-1,0,4,1,-1,1,4,6,-1,1,13,15,-1,27,29,47,-1,47,29,31,-1,47,31,33,-1,6,9,1,-1,1,9,11,-1,1,11,13,-1,15,17,1,-1,1,17,19,-1,1,19,47,-1,47,19,21,-1,47,21,27,-1,5,2,7,-1,7,2,3,-1,7,3,8,-1,8,3,10,-1,53,51,45,-1,16,14,3,-1,3,14,12,-1,3,12,10,-1,45,42,53,-1,53,42,56,-1,53,56,57,-1,57,58,53,-1,53,58,59,-1,53,59,60,-1,60,61,53,-1,53,61,25,-1,53,25,3,-1,3,25,18,-1,3,18,16,-1,62,63,64,-1,64,63,65,-1,66,62,67,-1,67,62,64,-1,68,66,69,-1,69,66,67,-1,70,71,72,-1,72,71,68,-1,72,68,73,-1,73,68,69,-1,73,69,74,-1,74,69,75,-1,76,74,75,-1,77,71,70,-1,70,78,77,-1,77,78,76,-1,77,76,79,-1,79,76,75,-1,80,81,82,-1,82,81,83,-1,82,83,84,-1,84,83,85,-1,84,85,86,-1,86,85,87,-1,86,87,88,-1,86,88,89,-1,89,88,90,-1,89,90,91,-1,91,90,92,-1,91,92,93,-1,93,92,94,-1,93,94,95,-1,95,94,96,-1,95,96,97,-1,97,96,98,-1,97,98,99,-1,99,98,100,-1,99,100,101,-1,101,100,102,-1,102,100,103,-1,102,103,104,-1,104,103,105,-1,104,105,106,-1,106,105,107,-1,105,103,108,-1,105,108,109,-1,109,108,110,-1,109,110,111,-1,111,110,112,-1,111,112,113,-1,113,112,114,-1,113,114,115,-1,115,114,116,-1,115,116,117,-1,117,116,118,-1,117,118,119,-1,119,118,65,-1,119,65,63,-1,62,66,63,-1,63,66,68,-1,120,121,71,-1,71,121,122,-1,77,83,71,-1,71,83,81,-1,115,117,68,-1,68,117,119,-1,68,119,63,-1,122,123,71,-1,71,123,107,-1,71,107,68,-1,68,107,105,-1,68,105,109,-1,109,111,68,-1,68,111,113,-1,68,113,115,-1,81,124,71,-1,71,124,125,-1,71,125,120,-1,75,92,90,-1,85,79,87,-1,87,79,75,-1,87,75,88,-1,88,75,90,-1,69,112,110,-1,110,108,69,-1,69,108,103,-1,69,103,75,-1,75,103,100,-1,75,100,98,-1,67,64,69,-1,69,64,65,-1,69,65,118,-1,98,96,75,-1,75,96,94,-1,75,94,92,-1,118,116,69,-1,69,116,114,-1,69,114,112,-1,82,78,80,-1,80,78,70,-1,72,104,70,-1,70,104,106,-1,70,106,126,-1,126,127,70,-1,70,127,128,-1,70,128,129,-1,129,130,70,-1,70,130,131,-1,70,131,80,-1,74,95,97,-1,102,73,101,-1,101,73,74,-1,101,74,99,-1,99,74,97,-1,76,84,74,-1,74,84,86,-1,74,86,89,-1,89,91,74,-1,74,91,93,-1,74,93,95,-1,102,104,73,-1,73,104,72,-1,82,84,78,-1,78,84,76,-1,44,48,40,-1,40,48,50,-1,40,50,41,-1,41,50,52,-1,41,52,132,-1,54,23,52,-1,52,23,24,-1,24,133,52,-1,52,133,134,-1,52,134,135,-1,135,136,52,-1,52,136,137,-1,52,137,132,-1,46,48,44,-1,22,55,20,-1,20,55,46,-1,20,46,26,-1,26,46,28,-1,44,38,46,-1,46,38,36,-1,46,36,34,-1,34,32,46,-1,46,32,30,-1,46,30,28,-1,54,55,23,-1,23,55,22,-1,
        ]
    }
}
Shape{
    appearance Appearance {
        material  Material 	{
            diffuseColor 0.5019607843137255 0.5019607843137255 0.5019607843137255
            specularColor 0.25098039215686274 0.25098039215686274 0.25098039215686274
            ambientIntensity 0.502
            transparency 0.0
            shininess 0.5
        }
    }
    geometry IndexedFaceSet {
        ccw TRUE
        solid FALSE
        coord DEF co Coordinate {
            point [
                -1.6831 1.5765 0.0197, -1.6831 1.5765 1.437, -1.6817 1.5867 1.437, -1.6817 1.5867 0.0197, -1.6778 1.5962 1.437, -1.6778 1.5962 0.0197, -1.6715 1.6044 1.437, -1.6715 1.6044 0.0197, -1.6634 1.6106 1.437, -1.6634 1.6106 0.0197, -1.6539 1.6146 1.437, -1.6539 1.6146 0.0197, -1.6437 1.6159 1.437, -1.6437 1.6159 0.0197, -1.6437 1.5765 1.4764, 1.6437 1.5765 1.4764, 1.6437 1.5867 1.475, -1.6437 1.5867 1.475, 1.6437 1.5962 1.4711, -1.6437 1.5962 1.4711, 1.6437 1.6044 1.4648, -1.6437 1.6044 1.4648, 1.6437 1.6106 1.4567, -1.6437 1.6106 1.4567, 1.6437 1.6146 1.4472, -1.6437 1.6146 1.4472, 1.6437 1.6159 1.437, 1.6608 1.612 0.0197, 1.6525 1.6149 0.0197, 1.6524 1.6147 1.437, 1.6437 1.6159 0.0197, 1.6539 1.6146 1.437, 1.6607 1.6117 1.437, 1.6682 1.6073 0.0197, 1.6634 1.6106 1.437, 1.668 1.607 1.437, 1.6715 1.6044 1.437, 1.6745 1.6011 0.0197, 1.6742 1.6009 1.437, 1.6778 1.5962 1.437, 1.6792 1.5936 0.0197, 1.6789 1.5935 1.437, 1.6817 1.5867 1.437, 1.6821 1.5853 0.0197, 1.6819 1.5853 1.437, 1.6831 1.5765 1.437, 1.6831 1.5765 0.0197, -1.6817 1.5765 1.4472, -1.6804 1.5864 1.4472, -1.6607 1.5864 1.4711, -1.6525 1.5816 1.475, -1.6509 1.5837 1.475, -1.6463 1.5864 1.475, -1.6535 1.5792 1.475, -1.6627 1.5816 1.4711, -1.6706 1.5837 1.4648, -1.6539 1.5765 1.475, -1.6576 1.5904 1.4711, -1.6488 1.5853 1.475, -1.6535 1.5936 1.4711, -1.6488 1.5955 1.4711, -1.6634 1.5765 1.4711, -1.6715 1.5765 1.4648, -1.6778 1.5765 1.4567, -1.6678 1.5904 1.4648, -1.6634 1.5962 1.4648, -1.6576 1.6006 1.4648, -1.6509 1.6034 1.4648, -1.6766 1.5853 1.4567, -1.6732 1.5936 1.4567, -1.6678 1.6006 1.4567, -1.6607 1.6061 1.4567, -1.6525 1.6095 1.4567, -1.6766 1.5955 1.4472, -1.6706 1.6034 1.4472, -1.6627 1.6095 1.4472, -1.6535 1.6133 1.4472, 1.6804 1.5864 1.4472, 1.6766 1.5955 1.4472, 1.6706 1.6034 1.4472, 1.6627 1.6095 1.4472, 1.6535 1.6133 1.4472, 1.6525 1.6095 1.4567, 1.6509 1.6034 1.4648, 1.6488 1.5955 1.4711, 1.6463 1.5864 1.475, 1.6607 1.6061 1.4567, 1.6576 1.6006 1.4648, 1.6535 1.5936 1.4711, 1.6488 1.5853 1.475, 1.6678 1.6006 1.4567, 1.6634 1.5962 1.4648, 1.6576 1.5904 1.4711, 1.6509 1.5837 1.475, 1.6732 1.5936 1.4567, 1.6678 1.5904 1.4648, 1.6607 1.5864 1.4711, 1.6525 1.5816 1.475, 1.6766 1.5853 1.4567, 1.6706 1.5837 1.4648, 1.6627 1.5816 1.4711, 1.6535 1.5792 1.475, 1.6817 1.5765 1.4472, 1.6778 1.5765 1.4567, 1.6715 1.5765 1.4648, 1.6634 1.5765 1.4711, 1.6539 1.5765 1.475, -1.6437 -1.6125 0.0197, -1.6437 -1.6125 1.437, -1.6539 -1.6111 1.437, -1.6539 -1.6111 0.0197, -1.6634 -1.6072 1.437, -1.6634 -1.6072 0.0197, -1.6715 -1.6009 1.437, -1.6715 -1.6009 0.0197, -1.6778 -1.5928 1.437, -1.6778 -1.5928 0.0197, -1.6817 -1.5833 1.437, -1.6817 -1.5833 0.0197, -1.6831 -1.5731 1.437, -1.6831 -1.5731 0.0197, -1.6437 -1.5731 1.4764, -1.6539 -1.5731 1.475, -1.6634 -1.5731 1.4711, -1.6715 -1.5731 1.4648, -1.6778 -1.5731 1.4567, -1.6817 -1.5731 1.4472, 1.6437 -1.5731 1.4764, 1.6539 -1.5731 1.475, 1.6634 -1.5731 1.4711, 1.6715 -1.5731 1.4648, 1.6778 -1.5731 1.4567, 1.6817 -1.5731 1.4472, 1.6831 -1.5731 1.437, 1.6821 -1.5818 1.437, 1.6831 -1.5731 0.0197, 1.6817 -1.5833 0.0197, 1.6816 -1.5832 1.437, 1.6792 -1.5902 1.437, 1.6778 -1.5928 0.0197, 1.6776 -1.5927 1.437, 1.6745 -1.5976 1.437, 1.6715 -1.6009 0.0197, 1.6714 -1.6007 1.437, 1.6634 -1.6072 0.0197, 1.6682 -1.6039 1.437, 1.6633 -1.607 1.437, 1.6539 -1.6111 0.0197, 1.6608 -1.6086 1.437, 1.6538 -1.611 1.437, 1.6437 -1.6125 0.0197, 1.6525 -1.6115 1.437, 1.6437 -1.6125 1.437, -1.6437 -1.6111 1.4472, -1.6535 -1.6098 1.4472, -1.6535 -1.5901 1.4711, -1.6488 -1.5819 1.475, -1.6509 -1.5803 1.475, -1.6535 -1.5757 1.475, -1.6463 -1.5829 1.475, -1.6488 -1.5921 1.4711, -1.6509 -1.6 1.4648, -1.6437 -1.5833 1.475, -1.6576 -1.587 1.4711, -1.6525 -1.5782 1.475, -1.6607 -1.5829 1.4711, -1.6627 -1.5782 1.4711, -1.6437 -1.5928 1.4711, -1.6437 -1.6009 1.4648, -1.6437 -1.6072 1.4567, -1.6576 -1.5972 1.4648, -1.6634 -1.5928 1.4648, -1.6678 -1.587 1.4648, -1.6706 -1.5803 1.4648, -1.6525 -1.606 1.4567, -1.6607 -1.6026 1.4567, -1.6678 -1.5972 1.4567, -1.6732 -1.5901 1.4567, -1.6766 -1.5819 1.4567, -1.6627 -1.606 1.4472, -1.6706 -1.6 1.4472, -1.6766 -1.5921 1.4472, -1.6804 -1.5829 1.4472, 1.6602 -1.6073 1.4472, 1.6674 -1.6028 1.4472, 1.6734 -1.5968 1.4472, 1.6591 -1.5854 1.4711, 1.6517 -1.5794 1.475, 1.6501 -1.5811 1.475, 1.6529 -1.5775 1.475, 1.6614 -1.5816 1.4711, 1.6688 -1.5852 1.4648, 1.6536 -1.5754 1.475, 1.6629 -1.5775 1.4711, 1.6708 -1.5793 1.4648, 1.6769 -1.5807 1.4567, 1.6744 -1.5879 1.4567, 1.678 -1.5896 1.4472, 1.6808 -1.5815 1.4472, 1.6704 -1.5943 1.4567, 1.6655 -1.5904 1.4648, 1.665 -1.5997 1.4567, 1.6611 -1.5948 1.4648, 1.656 -1.5885 1.4711, 1.6585 -1.6038 1.4567, 1.6558 -1.5982 1.4648, 1.6522 -1.5908 1.4711, 1.6481 -1.5823 1.475, 1.6522 -1.6102 1.4472, 1.6513 -1.6063 1.4567, 1.6499 -1.6002 1.4648, 1.6481 -1.5923 1.4711, 1.646 -1.583 1.475, 1.6437 -1.6111 1.4472, 1.6437 -1.6072 1.4567, 1.6437 -1.6009 1.4648, 1.6437 -1.5928 1.4711, 1.6437 -1.5833 1.475
            ]
        }
        coordIndex [
            0,1,2,-1,0,2,3,-1,3,2,4,-1,3,4,5,-1,5,4,6,-1,5,6,7,-1,7,6,8,-1,7,8,9,-1,9,8,10,-1,9,10,11,-1,11,10,12,-1,11,12,13,-1,14,15,16,-1,14,16,17,-1,17,16,18,-1,17,18,19,-1,19,18,20,-1,19,20,21,-1,21,20,22,-1,21,22,23,-1,23,22,24,-1,23,24,25,-1,25,24,26,-1,25,26,12,-1,27,28,29,-1,29,28,30,-1,29,30,26,-1,29,31,27,-1,27,31,32,-1,27,32,33,-1,33,32,34,-1,34,35,33,-1,33,35,36,-1,33,36,37,-1,36,38,37,-1,37,38,39,-1,37,39,40,-1,39,41,40,-1,40,41,42,-1,40,42,43,-1,42,44,43,-1,43,44,45,-1,43,45,46,-1,1,47,48,-1,49,50,51,-1,14,17,52,-1,51,50,14,-1,53,14,50,-1,53,50,54,-1,54,50,49,-1,54,49,55,-1,56,14,53,-1,57,58,59,-1,59,58,52,-1,59,52,60,-1,60,52,17,-1,60,17,19,-1,56,53,61,-1,61,53,54,-1,61,54,62,-1,62,54,55,-1,62,55,63,-1,64,57,65,-1,65,57,59,-1,65,59,66,-1,66,59,60,-1,66,60,67,-1,67,60,19,-1,67,19,21,-1,68,64,69,-1,69,64,65,-1,69,65,70,-1,70,65,66,-1,70,66,71,-1,71,66,67,-1,71,67,72,-1,72,67,21,-1,72,21,23,-1,47,68,48,-1,48,68,69,-1,48,69,73,-1,73,69,70,-1,73,70,74,-1,74,70,71,-1,74,71,75,-1,75,71,72,-1,75,72,76,-1,76,72,23,-1,76,23,25,-1,1,48,2,-1,2,48,73,-1,2,73,4,-1,4,73,74,-1,4,74,6,-1,6,74,75,-1,6,75,8,-1,8,75,76,-1,8,76,10,-1,10,76,25,-1,10,25,12,-1,58,14,52,-1,47,63,68,-1,68,63,55,-1,68,55,64,-1,64,55,49,-1,64,49,57,-1,57,49,51,-1,57,51,58,-1,58,51,14,-1,44,42,77,-1,41,39,78,-1,38,36,79,-1,35,34,80,-1,32,31,81,-1,29,26,24,-1,31,29,81,-1,81,29,24,-1,81,24,82,-1,82,24,22,-1,82,22,83,-1,83,22,20,-1,83,20,84,-1,84,20,18,-1,84,18,85,-1,85,18,16,-1,85,16,15,-1,34,32,80,-1,80,32,81,-1,80,81,86,-1,86,81,82,-1,86,82,87,-1,87,82,83,-1,87,83,88,-1,88,83,84,-1,88,84,89,-1,89,84,85,-1,89,85,15,-1,36,35,79,-1,79,35,80,-1,79,80,90,-1,90,80,86,-1,90,86,91,-1,91,86,87,-1,91,87,92,-1,92,87,88,-1,92,88,93,-1,93,88,89,-1,93,89,15,-1,39,38,78,-1,78,38,79,-1,78,79,94,-1,94,79,90,-1,94,90,95,-1,95,90,91,-1,95,91,96,-1,96,91,92,-1,96,92,97,-1,97,92,93,-1,97,93,15,-1,42,41,77,-1,77,41,78,-1,77,78,98,-1,98,78,94,-1,98,94,99,-1,99,94,95,-1,99,95,100,-1,100,95,96,-1,100,96,101,-1,101,96,97,-1,101,97,15,-1,45,44,102,-1,102,44,77,-1,102,77,103,-1,103,77,98,-1,103,98,104,-1,104,98,99,-1,104,99,105,-1,105,99,100,-1,105,100,106,-1,106,100,101,-1,106,101,15,-1,107,108,109,-1,107,109,110,-1,110,109,111,-1,110,111,112,-1,112,111,113,-1,112,113,114,-1,114,113,115,-1,114,115,116,-1,116,115,117,-1,116,117,118,-1,118,117,119,-1,118,119,120,-1,121,14,56,-1,121,56,122,-1,122,56,61,-1,122,61,123,-1,123,61,62,-1,123,62,124,-1,124,62,63,-1,124,63,125,-1,125,63,47,-1,125,47,126,-1,126,47,1,-1,126,1,119,-1,15,127,128,-1,15,128,106,-1,106,128,129,-1,106,129,105,-1,105,129,130,-1,105,130,104,-1,104,130,131,-1,104,131,103,-1,103,131,132,-1,103,132,102,-1,102,132,133,-1,102,133,45,-1,133,134,135,-1,135,134,136,-1,134,137,136,-1,136,137,138,-1,136,138,139,-1,138,140,139,-1,139,140,141,-1,139,141,142,-1,142,141,143,-1,142,143,144,-1,143,145,144,-1,144,145,146,-1,144,146,147,-1,146,148,147,-1,147,148,149,-1,147,149,150,-1,150,149,151,-1,150,151,152,-1,108,153,154,-1,155,156,157,-1,121,122,158,-1,157,156,121,-1,159,121,156,-1,159,156,160,-1,160,156,155,-1,160,155,161,-1,162,121,159,-1,163,164,165,-1,165,164,158,-1,165,158,166,-1,166,158,122,-1,166,122,123,-1,162,159,167,-1,167,159,160,-1,167,160,168,-1,168,160,161,-1,168,161,169,-1,170,163,171,-1,171,163,165,-1,171,165,172,-1,172,165,166,-1,172,166,173,-1,173,166,123,-1,173,123,124,-1,174,170,175,-1,175,170,171,-1,175,171,176,-1,176,171,172,-1,176,172,177,-1,177,172,173,-1,177,173,178,-1,178,173,124,-1,178,124,125,-1,153,174,154,-1,154,174,175,-1,154,175,179,-1,179,175,176,-1,179,176,180,-1,180,176,177,-1,180,177,181,-1,181,177,178,-1,181,178,182,-1,182,178,125,-1,182,125,126,-1,108,154,109,-1,109,154,179,-1,109,179,111,-1,111,179,180,-1,111,180,113,-1,113,180,181,-1,113,181,115,-1,115,181,182,-1,115,182,117,-1,117,182,126,-1,117,126,119,-1,164,121,158,-1,153,169,174,-1,174,169,161,-1,174,161,170,-1,170,161,155,-1,170,155,163,-1,163,155,157,-1,163,157,164,-1,164,157,121,-1,149,148,183,-1,146,145,184,-1,143,141,185,-1,186,187,188,-1,188,187,127,-1,189,127,187,-1,189,187,190,-1,190,187,186,-1,190,186,191,-1,192,127,189,-1,192,189,193,-1,193,189,190,-1,193,190,194,-1,194,190,191,-1,194,191,195,-1,128,127,192,-1,128,192,129,-1,129,192,193,-1,129,193,130,-1,130,193,194,-1,130,194,131,-1,131,194,195,-1,131,195,132,-1,196,197,198,-1,140,138,197,-1,197,138,137,-1,197,137,198,-1,198,137,134,-1,198,134,133,-1,141,140,185,-1,185,140,197,-1,185,197,199,-1,199,197,196,-1,199,196,200,-1,145,143,184,-1,184,143,185,-1,184,185,201,-1,201,185,199,-1,201,199,202,-1,202,199,200,-1,202,200,203,-1,148,146,183,-1,183,146,184,-1,183,184,204,-1,204,184,201,-1,204,201,205,-1,205,201,202,-1,205,202,206,-1,206,202,203,-1,206,203,207,-1,151,149,208,-1,208,149,183,-1,208,183,209,-1,209,183,204,-1,209,204,210,-1,210,204,205,-1,210,205,211,-1,211,205,206,-1,211,206,212,-1,212,206,207,-1,152,151,213,-1,213,151,208,-1,213,208,214,-1,214,208,209,-1,214,209,215,-1,215,209,210,-1,215,210,216,-1,216,210,211,-1,216,211,217,-1,217,211,212,-1,217,212,127,-1,207,127,212,-1,133,132,198,-1,198,132,195,-1,198,195,196,-1,196,195,191,-1,196,191,200,-1,200,191,186,-1,200,186,203,-1,203,186,188,-1,203,188,207,-1,207,188,127,-1,127,121,162,-1,127,162,217,-1,217,162,167,-1,217,167,216,-1,216,167,168,-1,216,168,215,-1,215,168,169,-1,215,169,214,-1,214,169,153,-1,214,153,213,-1,213,153,108,-1,213,108,152,-1,
        ]
    }
}
Shape{
    appearance Appearance {
        material  Material 	{
            diffuseColor 0.0 0.0 0.0
            specularColor 0.0 0.0 0.0
            ambientIntensity 0.0
            transparency 0.0
            shininess 0.5
        }
    }
    geometry IndexedFaceSet {
        ccw TRUE
        solid FALSE
        coord DEF co Coordinate {
            point [
                0.6358 1.058 1.4768, 0.6358 1.0428 1.4768, 0.6358 1.058 1.4764, 0.6358 1.0428 1.4764, 0.5827 1.058 1.4768, 0.5827 1.058 1.4764, 0.5827 1.1762 1.4768, 0.5827 1.1762 1.4764, 0.5655 1.1762 1.4768, 0.5655 1.1762 1.4764, 0.5655 1.0428 1.4768, 0.5655 1.0428 1.4764, 0.7412 1.0483 1.4764, 0.7412 1.0483 1.4768, 0.7389 1.0472 1.4768, 0.7246 1.0425 1.4768, 0.7043 1.0405 1.4768, 0.7161 1.0417 1.4764, 0.7043 1.0405 1.4764, 0.7246 1.0425 1.4764, 0.7355 1.0461 1.4764, 0.7389 1.0472 1.4764, 0.7412 1.0648 1.4768, 0.7412 1.0648 1.4764, 0.7355 1.0623 1.4764, 0.7282 1.059 1.4768, 0.7282 1.059 1.4764, 0.7131 1.0561 1.4764, 0.7131 1.0561 1.4768, 0.7068 1.0559 1.4764, 0.7068 1.0559 1.4768, 0.6932 1.0575 1.4764, 0.6932 1.0575 1.4768, 0.6837 1.0612 1.4764, 0.6837 1.0612 1.4768, 0.675 1.0674 1.4764, 0.675 1.0674 1.4768, 0.6725 1.0699 1.4764, 0.6725 1.0699 1.4768, 0.666 1.079 1.4764, 0.666 1.079 1.4768, 0.6617 1.0897 1.4764, 0.6617 1.0897 1.4768, 0.6595 1.1031 1.4764, 0.6595 1.1031 1.4768, 0.6594 1.108 1.4764, 0.6594 1.108 1.4768, 0.6612 1.1249 1.4764, 0.6612 1.1249 1.4768, 0.6655 1.1368 1.4764, 0.6655 1.1368 1.4768, 0.6717 1.1462 1.4764, 0.6717 1.1462 1.4768, 0.6734 1.1481 1.4764, 0.6734 1.1481 1.4768, 0.6825 1.1556 1.4764, 0.6825 1.1556 1.4768, 0.693 1.1605 1.4764, 0.693 1.1605 1.4768, 0.7046 1.1627 1.4764, 0.7046 1.1627 1.4768, 0.7098 1.1629 1.4764, 0.7098 1.1629 1.4768, 0.7412 1.155 1.4764, 0.7412 1.155 1.4768, 0.7397 1.1558 1.4768, 0.7262 1.161 1.4764, 0.7262 1.161 1.4768, 0.7355 1.1574 1.4764, 0.7397 1.1558 1.4764, 0.7412 1.173 1.4768, 0.7412 1.173 1.4764, 0.7096 1.1785 1.4764, 0.7096 1.1785 1.4768, 0.71 1.1785 1.4768, 0.7355 1.1747 1.4764, 0.7274 1.1771 1.4768, 0.7274 1.1771 1.4764, 0.7237 1.1774 1.4764, 0.71 1.1785 1.4764, 0.7005 1.1774 1.4764, 0.6901 1.1761 1.4768, 0.6901 1.1761 1.4764, 0.6762 1.1706 1.4764, 0.6762 1.1706 1.4768, 0.6637 1.1618 1.4764, 0.6637 1.1618 1.4768, 0.6606 1.1588 1.4764, 0.6606 1.1588 1.4768, 0.6509 1.1462 1.4764, 0.6509 1.1462 1.4768, 0.6473 1.1377 1.4764, 0.6446 1.1314 1.4768, 0.6446 1.1314 1.4764, 0.6415 1.1139 1.4764, 0.6415 1.1139 1.4768, 0.6413 1.107 1.4764, 0.6413 1.107 1.4768, 0.6435 1.0871 1.4764, 0.6435 1.0871 1.4768, 0.6473 1.0765 1.4764, 0.6486 1.0728 1.4768, 0.6486 1.0728 1.4764, 0.6563 1.0611 1.4764, 0.6563 1.0611 1.4768, 0.6584 1.0588 1.4764, 0.6584 1.0588 1.4768, 0.6963 1.0409 1.4768, 0.6692 1.0498 1.4764, 0.6692 1.0498 1.4768, 0.6818 1.0439 1.4764, 0.6818 1.0439 1.4768, 0.6926 1.0417 1.4764, 0.6963 1.0409 1.4764, 0.8397 1.058 1.4768, 0.8397 1.0428 1.4768, 0.8397 1.058 1.4764, 0.8397 1.0428 1.4764, 0.7852 1.058 1.4764, 0.7852 1.058 1.4768, 0.8212 1.058 1.4764, 0.7852 1.1029 1.4768, 0.7852 1.1029 1.4764, 0.8329 1.1029 1.4764, 0.8329 1.1029 1.4768, 0.8212 1.1029 1.4764, 0.8329 1.1182 1.4768, 0.8329 1.1182 1.4764, 0.7852 1.1182 1.4764, 0.7852 1.1182 1.4768, 0.8212 1.1182 1.4764, 0.7852 1.1609 1.4768, 0.7852 1.1609 1.4764, 0.8367 1.1609 1.4764, 0.8367 1.1609 1.4768, 0.8212 1.1609 1.4764, 0.8367 1.1762 1.4768, 0.8367 1.1762 1.4764, 0.7679 1.1762 1.4764, 0.7679 1.1762 1.4768, 0.8212 1.1762 1.4764, 0.7679 1.0428 1.4768, 0.7679 1.0428 1.4764, 0.8212 1.0428 1.4764, 0.9478 1.0802 1.4768, 0.9412 1.0719 1.4768, 0.9534 1.0615 1.4768, 0.9387 1.0697 1.4768, 0.9397 1.0516 1.4768, 0.9299 1.0639 1.4768, 0.9246 1.0456 1.4768, 0.9185 1.0598 1.4768, 0.9016 1.0428 1.4768, 0.9015 1.058 1.4768, 0.8649 1.0428 1.4768, 0.8821 1.058 1.4768, 0.8649 1.1762 1.4768, 0.8821 1.1609 1.4768, 0.903 1.1762 1.4768, 0.9023 1.1609 1.4768, 0.9233 1.174 1.4768, 0.9195 1.159 1.4768, 0.9395 1.1681 1.4768, 0.9311 1.1548 1.4768, 0.9534 1.1586 1.4768, 0.9408 1.1483 1.4768, 0.958 1.1541 1.4768, 0.9452 1.1439 1.4768, 0.9663 1.1425 1.4768, 0.9502 1.1362 1.4768, 0.9713 1.1299 1.4768, 0.9538 1.1261 1.4768, 0.9736 1.1112 1.4768, 0.9555 1.1107 1.4768, 0.9732 1.1028 1.4768, 0.955 1.1023 1.4768, 0.9699 1.0871 1.4768, 0.9524 1.0901 1.4768, 0.9634 1.0733 1.4768, 0.9016 1.0428 1.4764, 0.8649 1.0428 1.4764, 0.9246 1.0456 1.4764, 0.9397 1.0516 1.4764, 0.9534 1.0615 1.4764, 0.9634 1.0733 1.4764, 0.9699 1.0871 1.4764, 0.9732 1.1028 1.4764, 0.9736 1.1112 1.4764, 0.9713 1.1299 1.4764, 0.9663 1.1425 1.4764, 0.958 1.1541 1.4764, 0.9534 1.1586 1.4764, 0.9395 1.1681 1.4764, 0.9233 1.174 1.4764, 0.903 1.1762 1.4764, 0.8649 1.1762 1.4764, 0.9023 1.1609 1.4764, 0.8821 1.1609 1.4764, 0.8821 1.058 1.4764, 0.9015 1.058 1.4764, 0.9412 1.0719 1.4764, 0.9387 1.0697 1.4764, 0.9299 1.0639 1.4764, 0.9185 1.0598 1.4764, 0.9555 1.1107 1.4764, 0.955 1.1023 1.4764, 0.9524 1.0901 1.4764, 0.9478 1.0802 1.4764, 0.9408 1.1483 1.4764, 0.9452 1.1439 1.4764, 0.9502 1.1362 1.4764, 0.9538 1.1261 1.4764, 0.9195 1.159 1.4764, 0.9311 1.1548 1.4764
            ]
        }
        coordIndex [
            0,1,2,-1,2,1,3,-1,4,0,5,-1,5,0,2,-1,6,4,7,-1,7,4,5,-1,8,6,9,-1,9,6,7,-1,10,8,11,-1,11,8,9,-1,1,10,3,-1,3,10,11,-1,6,8,4,-1,4,8,10,-1,4,10,0,-1,0,10,1,-1,12,13,14,-1,15,16,17,-1,17,16,18,-1,17,19,15,-1,15,19,20,-1,15,20,14,-1,14,20,21,-1,14,21,12,-1,22,13,23,-1,23,13,12,-1,22,23,24,-1,22,24,25,-1,24,26,25,-1,25,26,27,-1,25,27,28,-1,28,27,29,-1,28,29,30,-1,30,29,31,-1,30,31,32,-1,32,31,33,-1,32,33,34,-1,34,33,35,-1,34,35,36,-1,36,35,37,-1,36,37,38,-1,38,37,39,-1,38,39,40,-1,40,39,41,-1,40,41,42,-1,42,41,43,-1,42,43,44,-1,44,43,45,-1,44,45,46,-1,46,45,47,-1,46,47,48,-1,48,47,49,-1,48,49,50,-1,50,49,51,-1,50,51,52,-1,52,51,53,-1,52,53,54,-1,54,53,55,-1,54,55,56,-1,56,55,57,-1,56,57,58,-1,58,57,59,-1,58,59,60,-1,60,59,61,-1,60,61,62,-1,63,64,65,-1,62,61,66,-1,62,66,67,-1,67,66,68,-1,67,68,65,-1,65,68,69,-1,65,69,63,-1,70,64,71,-1,71,64,63,-1,72,73,74,-1,70,71,75,-1,70,75,76,-1,75,77,76,-1,76,77,78,-1,76,78,74,-1,74,78,79,-1,74,79,72,-1,73,72,80,-1,73,80,81,-1,80,82,81,-1,81,82,83,-1,81,83,84,-1,84,83,85,-1,84,85,86,-1,86,85,87,-1,86,87,88,-1,88,87,89,-1,88,89,90,-1,90,89,91,-1,90,91,92,-1,91,93,92,-1,92,93,94,-1,92,94,95,-1,95,94,96,-1,95,96,97,-1,97,96,98,-1,97,98,99,-1,99,98,100,-1,99,100,101,-1,100,102,101,-1,101,102,103,-1,101,103,104,-1,104,103,105,-1,104,105,106,-1,18,16,107,-1,106,105,108,-1,106,108,109,-1,109,108,110,-1,109,110,111,-1,111,110,112,-1,111,112,107,-1,107,112,113,-1,107,113,18,-1,65,64,70,-1,48,50,90,-1,65,70,67,-1,67,70,76,-1,67,76,62,-1,62,76,74,-1,62,74,60,-1,60,74,73,-1,60,73,58,-1,58,73,81,-1,58,81,56,-1,13,22,14,-1,14,22,25,-1,14,25,15,-1,15,25,28,-1,15,28,16,-1,16,28,30,-1,16,30,107,-1,107,30,32,-1,107,32,111,-1,111,32,34,-1,111,34,109,-1,109,34,36,-1,109,36,106,-1,106,36,38,-1,106,38,104,-1,104,38,40,-1,104,40,101,-1,90,50,88,-1,81,84,56,-1,56,84,86,-1,56,86,54,-1,54,86,88,-1,54,88,52,-1,52,88,50,-1,97,46,95,-1,95,46,48,-1,95,48,92,-1,92,48,90,-1,101,40,99,-1,99,40,42,-1,99,42,97,-1,97,42,44,-1,97,44,46,-1,114,115,116,-1,116,115,117,-1,118,119,120,-1,120,119,114,-1,120,114,116,-1,121,119,122,-1,122,119,118,-1,123,124,125,-1,125,124,121,-1,125,121,122,-1,126,124,127,-1,127,124,123,-1,128,129,130,-1,130,129,126,-1,130,126,127,-1,131,129,132,-1,132,129,128,-1,133,134,135,-1,135,134,131,-1,135,131,132,-1,136,134,137,-1,137,134,133,-1,138,139,140,-1,140,139,136,-1,140,136,137,-1,141,139,142,-1,142,139,138,-1,117,115,143,-1,143,115,141,-1,143,141,142,-1,141,115,114,-1,114,119,141,-1,141,119,121,-1,141,121,139,-1,134,136,131,-1,131,136,139,-1,131,139,129,-1,129,139,121,-1,129,121,126,-1,126,121,124,-1,144,145,146,-1,146,145,147,-1,146,147,148,-1,148,147,149,-1,148,149,150,-1,150,149,151,-1,150,151,152,-1,152,151,153,-1,152,153,154,-1,154,153,155,-1,154,155,156,-1,156,155,157,-1,156,157,158,-1,158,157,159,-1,158,159,160,-1,160,159,161,-1,160,161,162,-1,162,161,163,-1,162,163,164,-1,164,163,165,-1,164,165,166,-1,166,165,167,-1,166,167,168,-1,168,167,169,-1,168,169,170,-1,170,169,171,-1,170,171,172,-1,172,171,173,-1,172,173,174,-1,174,173,175,-1,174,175,176,-1,176,175,177,-1,176,177,178,-1,178,177,144,-1,178,144,146,-1,152,154,179,-1,179,154,180,-1,152,179,181,-1,152,181,150,-1,150,181,182,-1,150,182,148,-1,148,182,183,-1,148,183,146,-1,146,183,184,-1,146,184,178,-1,178,184,185,-1,178,185,176,-1,176,185,186,-1,176,186,174,-1,174,186,187,-1,174,187,172,-1,172,187,188,-1,172,188,170,-1,170,188,189,-1,170,189,168,-1,168,189,190,-1,168,190,166,-1,166,190,191,-1,166,191,164,-1,164,191,192,-1,164,192,162,-1,162,192,193,-1,162,193,160,-1,160,193,194,-1,160,194,158,-1,156,158,195,-1,195,158,194,-1,154,156,180,-1,180,156,195,-1,159,157,196,-1,196,157,197,-1,157,155,197,-1,197,155,198,-1,155,153,198,-1,198,153,199,-1,145,200,201,-1,145,201,147,-1,147,201,202,-1,147,202,149,-1,149,202,203,-1,149,203,151,-1,151,203,199,-1,151,199,153,-1,173,204,205,-1,173,205,175,-1,175,205,206,-1,175,206,177,-1,177,206,207,-1,177,207,144,-1,144,207,200,-1,144,200,145,-1,165,208,209,-1,165,209,167,-1,167,209,210,-1,167,210,169,-1,169,210,211,-1,169,211,171,-1,171,211,204,-1,171,204,173,-1,159,196,212,-1,159,212,161,-1,161,212,213,-1,161,213,163,-1,163,213,208,-1,163,208,165,-1,
        ]
    }
}
Shape{
    appearance Appearance {
        material  Material 	{
            diffuseColor 0.5019607843137255 0.5019607843137255 0.5019607843137255
            specularColor 0.25098039215686274 0.25098039215686274 0.25098039215686274
            ambientIntensity 0.502
            transparency 0.0
            shininess 0.5
        }
    }
    geometry IndexedFaceSet {
        ccw TRUE
        solid FALSE
        coord DEF co Coordinate {
            point [
                0.8821 1.1609 1.4764, 0.8821 1.058 1.4764, 0.9023 1.1609 1.4764, 0.9015 1.058 1.4764, 0.9185 1.0598 1.4764, 0.9299 1.0639 1.4764, 0.9387 1.0697 1.4764, 0.9412 1.0719 1.4764, 0.9478 1.0802 1.4764, 0.9524 1.0901 1.4764, 0.955 1.1023 1.4764, 0.9555 1.1107 1.4764, 0.9538 1.1261 1.4764, 0.9502 1.1362 1.4764, 0.9452 1.1439 1.4764, 0.9408 1.1483 1.4764, 0.9195 1.159 1.4764, 0.9311 1.1548 1.4764
            ]
        }
        coordIndex [
            0,1,2,-1,2,1,3,-1,2,3,4,-1,4,5,2,-1,2,5,6,-1,2,6,7,-1,7,8,2,-1,2,8,9,-1,2,9,10,-1,10,11,2,-1,2,11,12,-1,2,12,13,-1,13,14,2,-1,2,14,15,-1,2,15,16,-1,16,15,17,-1,
        ]
    }
}
Shape{
    appearance Appearance {
        material  Material 	{
            diffuseColor 0.0 0.0 0.0
            specularColor 0.0 0.0 0.0
            ambientIntensity 0.0
            transparency 0.0
            shininess 0.5
        }
    }
    geometry IndexedFaceSet {
        ccw TRUE
        solid FALSE
        coord DEF co Coordinate {
            point [
                1.0183 1.0944 1.4768, 1.0128 1.0793 1.4768, 1.0631 1.0944 1.4768, 1.0684 1.0793 1.4768, 1.0382 1.1498 1.4768, 1.0318 1.1762 1.4768, 0.981 1.0428 1.4768, 1.0 1.0428 1.4768, 1.0394 1.1538 1.4768, 1.0404 1.1592 1.4768, 1.0502 1.1762 1.4768, 1.0408 1.1592 1.4768, 1.0419 1.1535 1.4768, 1.0429 1.1498 1.4768, 1.101 1.0428 1.4768, 1.082 1.0428 1.4768, 1.0502 1.1762 1.4764, 1.101 1.0428 1.4764, 1.0318 1.1762 1.4764, 0.981 1.0428 1.4764, 1.0194 1.1438 1.4764, 1.0 1.0428 1.4764, 1.0128 1.0793 1.4764, 1.0684 1.0793 1.4764, 1.0194 1.0793 1.4764, 1.082 1.0428 1.4764, 1.0183 1.0944 1.4764, 1.0631 1.0944 1.4764, 1.0429 1.1498 1.4764, 1.0408 1.1592 1.4764, 1.0419 1.1535 1.4764, 1.0404 1.1592 1.4764, 1.0382 1.1498 1.4764, 1.0394 1.1538 1.4764
            ]
        }
        coordIndex [
            0,1,2,-1,2,1,3,-1,4,5,0,-1,0,5,6,-1,0,6,1,-1,1,6,7,-1,4,8,5,-1,5,8,9,-1,5,9,10,-1,10,9,11,-1,10,11,12,-1,12,13,10,-1,10,13,2,-1,10,2,14,-1,14,2,3,-1,14,3,15,-1,10,14,16,-1,16,14,17,-1,5,10,18,-1,18,10,16,-1,19,6,20,-1,20,6,5,-1,20,5,18,-1,7,6,21,-1,21,6,19,-1,1,7,22,-1,22,7,21,-1,23,3,24,-1,24,3,1,-1,24,1,22,-1,15,3,25,-1,25,3,23,-1,14,15,17,-1,17,15,25,-1,0,2,26,-1,26,2,27,-1,2,13,27,-1,27,13,28,-1,11,29,30,-1,11,30,12,-1,12,30,28,-1,12,28,13,-1,11,9,29,-1,29,9,31,-1,4,32,33,-1,4,33,8,-1,8,33,31,-1,8,31,9,-1,4,0,32,-1,32,0,26,-1,
        ]
    }
}
Shape{
    appearance Appearance {
        material  Material 	{
            diffuseColor 0.5019607843137255 0.5019607843137255 0.5019607843137255
            specularColor 0.25098039215686274 0.25098039215686274 0.25098039215686274
            ambientIntensity 0.502
            transparency 0.0
            shininess 0.5
        }
    }
    geometry IndexedFaceSet {
        ccw TRUE
        solid FALSE
        coord DEF co Coordinate {
            point [
                1.0408 1.1592 1.4764, 1.0404 1.1592 1.4764, 1.0419 1.1535 1.4764, 1.0394 1.1538 1.4764, 1.0429 1.1498 1.4764, 1.0382 1.1498 1.4764, 1.0631 1.0944 1.4764, 1.0183 1.0944 1.4764
            ]
        }
        coordIndex [
            0,1,2,-1,2,1,3,-1,2,3,4,-1,4,3,5,-1,4,5,6,-1,6,5,7,-1,
        ]
    }
}
Shape{
    appearance Appearance {
        material  Material 	{
            diffuseColor 0.0 0.0 0.0
            specularColor 0.0 0.0 0.0
            ambientIntensity 0.0
            transparency 0.0
            shininess 0.5
        }
    }
    geometry IndexedFaceSet {
        ccw TRUE
        solid FALSE
        coord DEF co Coordinate {
            point [
                0.6372 0.8463 1.4768, 0.6372 0.8311 1.4768, 0.6372 0.8463 1.4764, 0.6372 0.8311 1.4764, 0.5827 0.8463 1.4768, 0.5827 0.8463 1.4764, 0.5827 0.8912 1.4768, 0.5827 0.8912 1.4764, 0.6304 0.8912 1.4768, 0.6304 0.8912 1.4764, 0.6304 0.9065 1.4768, 0.6304 0.9065 1.4764, 0.5827 0.9065 1.4768, 0.5827 0.9065 1.4764, 0.5827 0.9492 1.4768, 0.5827 0.9492 1.4764, 0.6342 0.9492 1.4768, 0.6342 0.9492 1.4764, 0.6342 0.9645 1.4768, 0.6342 0.9645 1.4764, 0.5655 0.9645 1.4768, 0.5655 0.9645 1.4764, 0.5655 0.8311 1.4768, 0.5655 0.8311 1.4764, 0.7131 0.8311 1.4768, 0.7298 0.8311 1.4768, 0.7131 0.8458 1.4768, 0.7298 0.8924 1.4768, 0.7131 0.8917 1.4768, 0.6769 0.8718 1.4768, 0.6809 0.8736 1.4768, 0.7127 0.8458 1.4768, 0.704 0.8484 1.4768, 0.7088 0.8402 1.4768, 0.6993 0.8452 1.4768, 0.6908 0.8759 1.4768, 0.7131 0.8789 1.4768, 0.7131 0.8698 1.4768, 0.7131 0.8688 1.4768, 0.7121 0.8613 1.4768, 0.7096 0.8553 1.4768, 0.706 0.8503 1.4768, 0.7127 0.8982 1.4768, 0.7285 0.9053 1.4768, 0.711 0.9045 1.4768, 0.7259 0.9128 1.4768, 0.7091 0.9081 1.4768, 0.7224 0.9182 1.4768, 0.7067 0.9108 1.4768, 0.7179 0.9224 1.4768, 0.7038 0.9128 1.4768, 0.7124 0.9256 1.4768, 0.7001 0.9143 1.4768, 0.7053 0.9277 1.4768, 0.6938 0.915 1.4768, 0.6954 0.9286 1.4768, 0.6847 0.9141 1.4768, 0.6783 0.9265 1.4768, 0.6742 0.9108 1.4768, 0.6659 0.9216 1.4768, 0.6626 0.9035 1.4768, 0.6626 0.9197 1.4768, 0.6717 0.8511 1.4768, 0.659 0.8389 1.4768, 0.6736 0.8483 1.4768, 0.6614 0.8363 1.4768, 0.675 0.8468 1.4768, 0.6665 0.8327 1.4768, 0.6784 0.8446 1.4768, 0.6728 0.8302 1.4768, 0.6822 0.8432 1.4768, 0.6806 0.8289 1.4768, 0.6878 0.8425 1.4768, 0.6835 0.8288 1.4768, 0.6927 0.8299 1.4768, 0.6942 0.8433 1.4768, 0.6994 0.8325 1.4768, 0.7033 0.835 1.4768, 0.6703 0.8606 1.4768, 0.6533 0.8586 1.4768, 0.6702 0.858 1.4768, 0.6532 0.8566 1.4768, 0.6706 0.8541 1.4768, 0.654 0.8494 1.4768, 0.656 0.8436 1.4768, 0.6849 0.8877 1.4768, 0.6722 0.8846 1.4768, 0.6746 0.87 1.4768, 0.6651 0.8809 1.4768, 0.6726 0.8676 1.4768, 0.66 0.8765 1.4768, 0.6712 0.8644 1.4768, 0.6566 0.8717 1.4768, 0.6544 0.8658 1.4768, 0.6954 0.9286 1.4764, 0.6783 0.9265 1.4764, 0.6659 0.9216 1.4764, 0.6626 0.9197 1.4764, 0.6626 0.9035 1.4764, 0.6742 0.9108 1.4764, 0.6847 0.9141 1.4764, 0.6938 0.915 1.4764, 0.7001 0.9143 1.4764, 0.7038 0.9128 1.4764, 0.7067 0.9108 1.4764, 0.7091 0.9081 1.4764, 0.711 0.9045 1.4764, 0.7127 0.8982 1.4764, 0.7131 0.8917 1.4764, 0.6849 0.8877 1.4764, 0.6722 0.8846 1.4764, 0.6651 0.8809 1.4764, 0.66 0.8765 1.4764, 0.6566 0.8717 1.4764, 0.6544 0.8658 1.4764, 0.6533 0.8586 1.4764, 0.6532 0.8566 1.4764, 0.654 0.8494 1.4764, 0.656 0.8436 1.4764, 0.659 0.8389 1.4764, 0.6614 0.8363 1.4764, 0.6835 0.8288 1.4764, 0.6665 0.8327 1.4764, 0.6728 0.8302 1.4764, 0.6741 0.83 1.4764, 0.6806 0.8289 1.4764, 0.6927 0.8299 1.4764, 0.6928 0.83 1.4764, 0.6994 0.8325 1.4764, 0.7033 0.835 1.4764, 0.7088 0.8402 1.4764, 0.7127 0.8458 1.4764, 0.7131 0.8458 1.4764, 0.7131 0.8311 1.4764, 0.7298 0.8311 1.4764, 0.7298 0.8924 1.4764, 0.7285 0.9053 1.4764, 0.7259 0.9128 1.4764, 0.7224 0.9182 1.4764, 0.7179 0.9224 1.4764, 0.7124 0.9256 1.4764, 0.7053 0.9277 1.4764, 0.6746 0.87 1.4764, 0.6769 0.8718 1.4764, 0.6809 0.8736 1.4764, 0.6908 0.8759 1.4764, 0.6702 0.858 1.4764, 0.6703 0.8606 1.4764, 0.6712 0.8644 1.4764, 0.6726 0.8676 1.4764, 0.675 0.8468 1.4764, 0.6736 0.8483 1.4764, 0.6717 0.8511 1.4764, 0.6706 0.8541 1.4764, 0.6878 0.8425 1.4764, 0.6822 0.8432 1.4764, 0.6784 0.8446 1.4764, 0.706 0.8503 1.4764, 0.704 0.8484 1.4764, 0.6993 0.8452 1.4764, 0.6942 0.8433 1.4764, 0.7131 0.8698 1.4764, 0.7131 0.8688 1.4764, 0.7121 0.8613 1.4764, 0.7096 0.8553 1.4764, 0.7131 0.8789 1.4764
            ]
        }
        coordIndex [
            0,1,2,-1,2,1,3,-1,4,0,5,-1,5,0,2,-1,6,4,7,-1,7,4,5,-1,8,6,9,-1,9,6,7,-1,10,8,11,-1,11,8,9,-1,12,10,13,-1,13,10,11,-1,14,12,15,-1,15,12,13,-1,16,14,17,-1,17,14,15,-1,18,16,19,-1,19,16,17,-1,20,18,21,-1,21,18,19,-1,22,20,23,-1,23,20,21,-1,1,22,3,-1,3,22,23,-1,22,1,0,-1,0,4,22,-1,22,4,6,-1,22,6,20,-1,16,18,14,-1,14,18,20,-1,14,20,12,-1,12,20,6,-1,12,6,10,-1,10,6,8,-1,24,25,26,-1,26,25,27,-1,28,29,30,-1,31,32,33,-1,33,32,34,-1,35,36,27,-1,27,36,37,-1,37,38,27,-1,27,38,39,-1,27,39,26,-1,26,39,40,-1,26,40,31,-1,31,40,41,-1,31,41,32,-1,30,35,28,-1,28,35,27,-1,28,27,42,-1,42,27,43,-1,42,43,44,-1,44,43,45,-1,44,45,46,-1,46,45,47,-1,46,47,48,-1,48,47,49,-1,48,49,50,-1,50,49,51,-1,50,51,52,-1,52,51,53,-1,52,53,54,-1,54,53,55,-1,54,55,56,-1,56,55,57,-1,56,57,58,-1,58,57,59,-1,58,59,60,-1,60,59,61,-1,62,63,64,-1,64,63,65,-1,64,65,66,-1,66,65,67,-1,66,67,68,-1,68,67,69,-1,68,69,70,-1,70,69,71,-1,70,71,72,-1,71,73,72,-1,72,73,74,-1,72,74,75,-1,75,74,76,-1,75,76,34,-1,34,76,77,-1,34,77,33,-1,78,79,80,-1,80,79,81,-1,80,81,82,-1,82,81,83,-1,82,83,62,-1,62,83,84,-1,62,84,63,-1,28,85,29,-1,29,85,86,-1,29,86,87,-1,87,86,88,-1,87,88,89,-1,89,88,90,-1,89,90,91,-1,91,90,92,-1,91,92,78,-1,78,92,93,-1,78,93,79,-1,55,94,95,-1,55,95,57,-1,57,95,96,-1,57,96,59,-1,59,96,97,-1,59,97,61,-1,60,61,98,-1,98,61,97,-1,60,98,99,-1,60,99,58,-1,58,99,100,-1,58,100,56,-1,56,100,101,-1,56,101,54,-1,54,101,102,-1,54,102,52,-1,52,102,103,-1,52,103,50,-1,50,103,104,-1,50,104,48,-1,48,104,105,-1,48,105,46,-1,46,105,106,-1,46,106,44,-1,44,106,107,-1,44,107,42,-1,42,107,108,-1,42,108,28,-1,85,28,109,-1,109,28,108,-1,85,109,110,-1,85,110,86,-1,86,110,111,-1,86,111,88,-1,88,111,112,-1,88,112,90,-1,90,112,113,-1,90,113,92,-1,92,113,114,-1,92,114,93,-1,93,114,115,-1,93,115,79,-1,79,115,116,-1,79,116,81,-1,81,116,117,-1,81,117,83,-1,83,117,118,-1,83,118,84,-1,84,118,119,-1,84,119,63,-1,63,119,120,-1,63,120,65,-1,121,73,71,-1,65,120,122,-1,65,122,67,-1,67,122,123,-1,67,123,69,-1,69,123,124,-1,69,124,71,-1,71,124,125,-1,71,125,121,-1,73,121,126,-1,73,126,74,-1,74,126,127,-1,74,127,76,-1,127,128,76,-1,76,128,129,-1,76,129,77,-1,77,129,130,-1,77,130,33,-1,33,130,131,-1,33,131,31,-1,26,31,132,-1,132,31,131,-1,24,26,133,-1,133,26,132,-1,25,24,134,-1,134,24,133,-1,27,25,135,-1,135,25,134,-1,27,135,136,-1,27,136,43,-1,43,136,137,-1,43,137,45,-1,45,137,138,-1,45,138,47,-1,47,138,139,-1,47,139,49,-1,49,139,140,-1,49,140,51,-1,51,140,141,-1,51,141,53,-1,53,141,94,-1,53,94,55,-1,87,142,143,-1,87,143,29,-1,29,143,144,-1,29,144,30,-1,30,144,145,-1,30,145,35,-1,80,146,147,-1,80,147,78,-1,78,147,148,-1,78,148,91,-1,91,148,149,-1,91,149,89,-1,89,149,142,-1,89,142,87,-1,66,150,151,-1,66,151,64,-1,64,151,152,-1,64,152,62,-1,62,152,153,-1,62,153,82,-1,82,153,146,-1,82,146,80,-1,72,154,155,-1,72,155,70,-1,70,155,156,-1,70,156,68,-1,68,156,150,-1,68,150,66,-1,41,157,158,-1,41,158,32,-1,32,158,159,-1,32,159,34,-1,34,159,160,-1,34,160,75,-1,75,160,154,-1,75,154,72,-1,37,161,162,-1,37,162,38,-1,38,162,163,-1,38,163,39,-1,39,163,164,-1,39,164,40,-1,40,164,157,-1,40,157,41,-1,37,36,161,-1,161,36,165,-1,36,35,165,-1,165,35,145,-1,
        ]
    }
}
Shape{
    appearance Appearance {
        material  Material 	{
            diffuseColor 0.5019607843137255 0.5019607843137255 0.5019607843137255
            specularColor 0.25098039215686274 0.25098039215686274 0.25098039215686274
            ambientIntensity 0.502
            transparency 0.0
            shininess 0.5
        }
    }
    geometry IndexedFaceSet {
        ccw TRUE
        solid FALSE
        coord DEF co Coordinate {
            point [
                0.7131 0.8789 1.4764, 0.6908 0.8759 1.4764, 0.7131 0.8698 1.4764, 0.6809 0.8736 1.4764, 0.6769 0.8718 1.4764, 0.6746 0.87 1.4764, 0.7131 0.8688 1.4764, 0.7121 0.8613 1.4764, 0.6726 0.8676 1.4764, 0.7096 0.8553 1.4764, 0.6736 0.8483 1.4764, 0.675 0.8468 1.4764, 0.704 0.8484 1.4764, 0.6717 0.8511 1.4764, 0.6993 0.8452 1.4764, 0.6942 0.8433 1.4764, 0.6878 0.8425 1.4764, 0.6712 0.8644 1.4764, 0.6703 0.8606 1.4764, 0.706 0.8503 1.4764, 0.6702 0.858 1.4764, 0.6706 0.8541 1.4764, 0.6784 0.8446 1.4764, 0.6822 0.8432 1.4764
            ]
        }
        coordIndex [
            0,1,2,-1,2,1,3,-1,3,4,2,-1,2,4,5,-1,2,5,6,-1,6,5,7,-1,7,5,8,-1,7,8,9,-1,10,11,12,-1,10,12,13,-1,14,12,15,-1,15,12,16,-1,8,17,9,-1,9,17,18,-1,9,18,19,-1,19,18,20,-1,19,20,12,-1,12,20,21,-1,12,21,13,-1,11,22,12,-1,12,22,23,-1,12,23,16,-1,
        ]
    }
}
Shape{
    appearance Appearance {
        material  Material 	{
            diffuseColor 0.0 0.0 0.0
            specularColor 0.0 0.0 0.0
            ambientIntensity 0.0
            transparency 0.0
            shininess 0.5
        }
    }
    geometry IndexedFaceSet {
        ccw TRUE
        solid FALSE
        coord DEF co Coordinate {
            point [
                0.7525 0.8517 1.4764, 0.7525 0.8517 1.4768, 0.7585 0.8479 1.4768, 0.78 0.8425 1.4768, 0.78 0.8425 1.4764, 0.7689 0.8438 1.4764, 0.7689 0.8438 1.4768, 0.7602 0.8473 1.4764, 0.7585 0.8479 1.4764, 0.7525 0.8344 1.4768, 0.7525 0.8344 1.4764, 0.7641 0.8303 1.4768, 0.7602 0.8317 1.4764, 0.7783 0.8288 1.4764, 0.7783 0.8288 1.4768, 0.7676 0.83 1.4764, 0.7641 0.8303 1.4764, 0.7922 0.8303 1.4768, 0.7888 0.83 1.4764, 0.7922 0.8303 1.4764, 0.8013 0.8335 1.4764, 0.8013 0.8335 1.4768, 0.8061 0.8364 1.4764, 0.8061 0.8364 1.4768, 0.811 0.8407 1.4764, 0.811 0.8407 1.4768, 0.8141 0.8451 1.4764, 0.8141 0.8451 1.4768, 0.8161 0.8504 1.4764, 0.8161 0.8504 1.4768, 0.8169 0.857 1.4764, 0.8169 0.857 1.4768, 0.8161 0.8634 1.4764, 0.8161 0.8634 1.4768, 0.8143 0.8683 1.4764, 0.8143 0.8683 1.4768, 0.8113 0.8728 1.4764, 0.8113 0.8728 1.4768, 0.8073 0.8763 1.4764, 0.8073 0.8763 1.4768, 0.7962 0.8825 1.4764, 0.7962 0.8825 1.4768, 0.7897 0.8851 1.4764, 0.7897 0.8851 1.4768, 0.7794 0.8896 1.4764, 0.7794 0.8896 1.4768, 0.7735 0.8933 1.4764, 0.7735 0.8933 1.4768, 0.7718 0.8951 1.4764, 0.7718 0.8951 1.4768, 0.7706 0.8974 1.4764, 0.7706 0.8974 1.4768, 0.77 0.9 1.4764, 0.77 0.9 1.4768, 0.7698 0.9022 1.4764, 0.7698 0.9022 1.4768, 0.7701 0.9048 1.4764, 0.7701 0.9048 1.4768, 0.7709 0.9071 1.4764, 0.7709 0.9071 1.4768, 0.7724 0.9092 1.4764, 0.7724 0.9092 1.4768, 0.7749 0.9115 1.4764, 0.7749 0.9115 1.4768, 0.7786 0.9134 1.4764, 0.7786 0.9134 1.4768, 0.7831 0.9146 1.4764, 0.7831 0.9146 1.4768, 0.7881 0.915 1.4764, 0.7881 0.915 1.4768, 0.7998 0.9136 1.4764, 0.7998 0.9136 1.4768, 0.8092 0.9099 1.4764, 0.8092 0.9099 1.4768, 0.8123 0.9081 1.4764, 0.8123 0.9081 1.4768, 0.8123 0.9243 1.4768, 0.8123 0.9243 1.4764, 0.8014 0.9275 1.4764, 0.8014 0.9275 1.4768, 0.7897 0.9286 1.4764, 0.7897 0.9286 1.4768, 0.7762 0.9269 1.4764, 0.7762 0.9269 1.4768, 0.7673 0.9235 1.4764, 0.7673 0.9235 1.4768, 0.7633 0.921 1.4764, 0.7633 0.921 1.4768, 0.7583 0.9165 1.4768, 0.7602 0.9182 1.4764, 0.7583 0.9165 1.4764, 0.7552 0.912 1.4764, 0.7552 0.912 1.4768, 0.7532 0.9066 1.4764, 0.7532 0.9066 1.4768, 0.7526 0.9007 1.4764, 0.7526 0.9007 1.4768, 0.7533 0.8941 1.4764, 0.7533 0.8941 1.4768, 0.7552 0.889 1.4764, 0.7552 0.889 1.4768, 0.7573 0.8856 1.4764, 0.7573 0.8856 1.4768, 0.7779 0.873 1.4764, 0.7779 0.873 1.4768, 0.7679 0.8775 1.4768, 0.7601 0.8827 1.4764, 0.7601 0.8827 1.4768, 0.7602 0.8826 1.4764, 0.7679 0.8775 1.4764, 0.7889 0.8684 1.4764, 0.7889 0.8684 1.4768, 0.7954 0.8644 1.4764, 0.7954 0.8644 1.4768, 0.7975 0.8623 1.4764, 0.7975 0.8623 1.4768, 0.7988 0.8601 1.4764, 0.7988 0.8601 1.4768, 0.7995 0.8575 1.4764, 0.7995 0.8575 1.4768, 0.7997 0.8554 1.4764, 0.7997 0.8554 1.4768, 0.7993 0.8522 1.4764, 0.7993 0.8522 1.4768, 0.7985 0.8498 1.4764, 0.7985 0.8498 1.4768, 0.797 0.8476 1.4764, 0.797 0.8476 1.4768, 0.7951 0.8459 1.4764, 0.7951 0.8459 1.4768, 0.7936 0.845 1.4764, 0.7936 0.845 1.4768, 0.7893 0.8434 1.4764, 0.7893 0.8434 1.4768, 0.7807 0.8425 1.4764, 0.7807 0.8425 1.4768, 0.8997 0.9264 1.4768, 0.917 0.9264 1.4768, 0.8997 0.9264 1.4764, 0.917 0.9264 1.4764, 0.8737 0.8546 1.4768, 0.8737 0.8546 1.4764, 0.8724 0.8502 1.4764, 0.8724 0.8502 1.4768, 0.8716 0.8469 1.4764, 0.8716 0.8469 1.4768, 0.8712 0.8469 1.4768, 0.8712 0.8469 1.4764, 0.8691 0.8548 1.4768, 0.8691 0.8548 1.4764, 0.8442 0.9264 1.4764, 0.8442 0.9264 1.4768, 0.8523 0.9032 1.4764, 0.8255 0.9264 1.4768, 0.8255 0.9264 1.4764, 0.8629 0.8313 1.4764, 0.8629 0.8313 1.4768, 0.8523 0.8583 1.4764, 0.8556 0.814 1.4764, 0.8556 0.814 1.4768, 0.8624 0.83 1.4764, 0.8522 0.8078 1.4768, 0.8523 0.808 1.4764, 0.8522 0.8078 1.4764, 0.8491 0.8043 1.4764, 0.8491 0.8043 1.4768, 0.8466 0.8026 1.4764, 0.8466 0.8026 1.4768, 0.843 0.8011 1.4764, 0.843 0.8011 1.4768, 0.8391 0.8005 1.4764, 0.8391 0.8005 1.4768, 0.8385 0.8005 1.4764, 0.8385 0.8005 1.4768, 0.8326 0.8013 1.4764, 0.8326 0.8013 1.4768, 0.829 0.8024 1.4764, 0.829 0.8024 1.4768, 0.829 0.7876 1.4768, 0.829 0.7876 1.4764, 0.8339 0.7865 1.4764, 0.8339 0.7865 1.4768, 0.8398 0.7862 1.4764, 0.8398 0.7862 1.4768, 0.8464 0.7869 1.4764, 0.8523 0.7892 1.4764, 0.853 0.7894 1.4768, 0.8464 0.7869 1.4768, 0.853 0.7894 1.4764, 0.8588 0.7934 1.4764, 0.8588 0.7934 1.4768, 0.8605 0.795 1.4764, 0.8605 0.795 1.4768, 0.8666 0.8025 1.4764, 0.8666 0.8025 1.4768, 0.8738 0.8167 1.4764, 0.8738 0.8167 1.4768, 0.879 0.83 1.4764, 1.0068 0.8463 1.4768, 1.0068 0.8311 1.4768, 1.0068 0.8463 1.4764, 1.0068 0.8311 1.4764, 0.9523 0.8463 1.4764, 0.9523 0.8463 1.4768, 0.9773 0.8463 1.4764, 0.9523 0.8912 1.4768, 0.9523 0.8912 1.4764, 1.0 0.8912 1.4764, 1.0 0.8912 1.4768, 0.9773 0.8912 1.4764, 1.0 0.9065 1.4768, 1.0 0.9065 1.4764, 0.9523 0.9065 1.4764, 0.9523 0.9065 1.4768, 0.9773 0.9065 1.4764, 0.9523 0.9492 1.4768, 0.9523 0.9492 1.4764, 1.0038 0.9492 1.4764, 1.0038 0.9492 1.4768, 0.9773 0.9492 1.4764, 1.0038 0.9645 1.4768, 1.0038 0.9645 1.4764, 0.9351 0.9645 1.4764, 0.9351 0.9645 1.4768, 0.9773 0.9645 1.4764, 0.9351 0.8311 1.4768, 0.9351 0.8311 1.4764, 0.9773 0.8311 1.4764, 1.115 0.8685 1.4768, 1.1083 0.8602 1.4768, 1.1206 0.8498 1.4768, 1.1058 0.858 1.4768, 1.1069 0.8399 1.4768, 1.097 0.8522 1.4768, 1.0917 0.8339 1.4768, 1.0856 0.8481 1.4768, 1.0687 0.8311 1.4768, 1.0686 0.8463 1.4768, 1.032 0.8311 1.4768, 1.0493 0.8463 1.4768, 1.032 0.9645 1.4768, 1.0493 0.9492 1.4768, 1.0701 0.9645 1.4768, 1.0694 0.9492 1.4768, 1.0905 0.9623 1.4768, 1.0866 0.9473 1.4768, 1.1066 0.9564 1.4768, 1.0982 0.9431 1.4768, 1.1206 0.9469 1.4768, 1.1079 0.9366 1.4768, 1.1251 0.9424 1.4768, 1.1123 0.9322 1.4768, 1.1334 0.9308 1.4768, 1.1173 0.9245 1.4768, 1.1384 0.9181 1.4768, 1.1209 0.9144 1.4768, 1.1407 0.8995 1.4768, 1.1226 0.899 1.4768, 1.1403 0.8911 1.4768, 1.1221 0.8906 1.4768, 1.1371 0.8754 1.4768, 1.1195 0.8784 1.4768, 1.1305 0.8616 1.4768, 1.0687 0.8311 1.4764, 1.032 0.8311 1.4764, 1.0917 0.8339 1.4764, 1.1069 0.8399 1.4764, 1.1206 0.8498 1.4764, 1.1305 0.8616 1.4764, 1.1371 0.8754 1.4764, 1.1403 0.8911 1.4764, 1.1407 0.8995 1.4764, 1.1384 0.9181 1.4764, 1.1334 0.9308 1.4764, 1.1251 0.9424 1.4764, 1.1206 0.9469 1.4764, 1.1066 0.9564 1.4764, 1.0905 0.9623 1.4764, 1.0701 0.9645 1.4764, 1.032 0.9645 1.4764, 1.0694 0.9492 1.4764, 1.0493 0.9492 1.4764, 1.0493 0.8463 1.4764, 1.0686 0.8463 1.4764, 1.1083 0.8602 1.4764, 1.1058 0.858 1.4764, 1.097 0.8522 1.4764, 1.0856 0.8481 1.4764, 1.1226 0.899 1.4764, 1.1221 0.8906 1.4764, 1.1195 0.8784 1.4764, 1.115 0.8685 1.4764, 1.1079 0.9366 1.4764, 1.1123 0.9322 1.4764, 1.1173 0.9245 1.4764, 1.1209 0.9144 1.4764, 1.0866 0.9473 1.4764, 1.0982 0.9431 1.4764
            ]
        }
        coordIndex [
            0,1,2,-1,3,4,5,-1,3,5,6,-1,6,5,7,-1,6,7,2,-1,2,7,8,-1,2,8,0,-1,9,1,10,-1,10,1,0,-1,11,9,12,-1,12,9,10,-1,13,14,15,-1,15,14,11,-1,15,11,16,-1,16,11,12,-1,17,14,18,-1,18,14,13,-1,18,19,17,-1,17,19,20,-1,17,20,21,-1,21,20,22,-1,21,22,23,-1,23,22,24,-1,23,24,25,-1,25,24,26,-1,25,26,27,-1,27,26,28,-1,27,28,29,-1,29,28,30,-1,29,30,31,-1,31,30,32,-1,31,32,33,-1,33,32,34,-1,33,34,35,-1,35,34,36,-1,35,36,37,-1,37,36,38,-1,37,38,39,-1,39,38,40,-1,39,40,41,-1,41,40,42,-1,41,42,43,-1,43,42,44,-1,43,44,45,-1,45,44,46,-1,45,46,47,-1,47,46,48,-1,47,48,49,-1,49,48,50,-1,49,50,51,-1,51,50,52,-1,51,52,53,-1,53,52,54,-1,53,54,55,-1,55,54,56,-1,55,56,57,-1,57,56,58,-1,57,58,59,-1,59,58,60,-1,59,60,61,-1,61,60,62,-1,61,62,63,-1,63,62,64,-1,63,64,65,-1,65,64,66,-1,65,66,67,-1,67,66,68,-1,67,68,69,-1,69,68,70,-1,69,70,71,-1,71,70,72,-1,71,72,73,-1,73,72,74,-1,73,74,75,-1,76,75,77,-1,77,75,74,-1,76,77,78,-1,76,78,79,-1,79,78,80,-1,79,80,81,-1,81,80,82,-1,81,82,83,-1,83,82,84,-1,83,84,85,-1,85,84,86,-1,85,86,87,-1,88,87,89,-1,89,87,86,-1,89,90,88,-1,88,90,91,-1,88,91,92,-1,92,91,93,-1,92,93,94,-1,94,93,95,-1,94,95,96,-1,96,95,97,-1,96,97,98,-1,98,97,99,-1,98,99,100,-1,100,99,101,-1,100,101,102,-1,103,104,105,-1,102,101,106,-1,102,106,107,-1,107,106,108,-1,107,108,105,-1,105,108,109,-1,105,109,103,-1,104,103,110,-1,104,110,111,-1,111,110,112,-1,111,112,113,-1,113,112,114,-1,113,114,115,-1,115,114,116,-1,115,116,117,-1,117,116,118,-1,117,118,119,-1,119,118,120,-1,119,120,121,-1,121,120,122,-1,121,122,123,-1,123,122,124,-1,123,124,125,-1,125,124,126,-1,125,126,127,-1,127,126,128,-1,127,128,129,-1,129,128,130,-1,129,130,131,-1,131,130,132,-1,131,132,133,-1,133,132,134,-1,133,134,135,-1,135,134,4,-1,135,4,3,-1,59,61,87,-1,87,61,85,-1,85,61,63,-1,85,63,83,-1,125,25,27,-1,111,43,104,-1,104,43,45,-1,125,27,123,-1,123,27,29,-1,123,29,121,-1,121,29,31,-1,121,31,119,-1,119,31,33,-1,119,33,117,-1,117,33,35,-1,117,35,115,-1,115,35,37,-1,115,37,113,-1,113,37,39,-1,113,39,111,-1,111,39,41,-1,111,41,43,-1,25,125,23,-1,23,125,127,-1,23,127,21,-1,14,3,11,-1,11,3,6,-1,11,6,9,-1,9,6,2,-1,9,2,1,-1,63,65,83,-1,83,65,67,-1,83,67,81,-1,81,67,69,-1,81,69,79,-1,79,69,71,-1,79,71,76,-1,76,71,73,-1,76,73,75,-1,127,129,21,-1,21,129,131,-1,21,131,17,-1,17,131,133,-1,17,133,14,-1,14,133,135,-1,14,135,3,-1,87,88,59,-1,59,88,92,-1,59,92,57,-1,57,92,94,-1,57,94,55,-1,55,94,96,-1,55,96,53,-1,53,96,98,-1,53,98,51,-1,51,98,100,-1,51,100,49,-1,49,100,102,-1,49,102,47,-1,47,102,107,-1,47,107,45,-1,45,107,105,-1,45,105,104,-1,136,137,138,-1,138,137,139,-1,140,136,141,-1,141,136,138,-1,140,141,142,-1,140,142,143,-1,143,142,144,-1,143,144,145,-1,146,145,147,-1,147,145,144,-1,148,146,149,-1,149,146,147,-1,150,151,152,-1,152,151,148,-1,152,148,149,-1,153,151,154,-1,154,151,150,-1,155,156,157,-1,157,156,153,-1,157,153,154,-1,158,159,160,-1,160,159,156,-1,160,156,155,-1,159,158,161,-1,161,158,162,-1,162,163,161,-1,161,163,164,-1,161,164,165,-1,165,164,166,-1,165,166,167,-1,167,166,168,-1,167,168,169,-1,169,168,170,-1,169,170,171,-1,171,170,172,-1,171,172,173,-1,173,172,174,-1,173,174,175,-1,175,174,176,-1,175,176,177,-1,178,177,179,-1,179,177,176,-1,178,179,180,-1,178,180,181,-1,181,180,182,-1,181,182,183,-1,183,182,184,-1,185,186,184,-1,184,186,187,-1,184,187,183,-1,185,188,186,-1,186,188,189,-1,186,189,190,-1,190,189,191,-1,190,191,192,-1,192,191,193,-1,192,193,194,-1,194,193,195,-1,194,195,196,-1,139,137,197,-1,197,137,196,-1,197,196,195,-1,143,145,196,-1,137,136,196,-1,196,136,140,-1,196,140,143,-1,151,153,148,-1,148,153,156,-1,148,156,146,-1,165,167,186,-1,183,173,181,-1,181,173,175,-1,181,175,178,-1,178,175,177,-1,145,146,196,-1,196,146,156,-1,196,156,194,-1,186,167,187,-1,187,167,169,-1,187,169,183,-1,183,169,171,-1,183,171,173,-1,156,159,194,-1,194,159,161,-1,194,161,192,-1,192,161,165,-1,192,165,190,-1,190,165,186,-1,198,199,200,-1,200,199,201,-1,202,203,204,-1,204,203,198,-1,204,198,200,-1,205,203,206,-1,206,203,202,-1,207,208,209,-1,209,208,205,-1,209,205,206,-1,210,208,211,-1,211,208,207,-1,212,213,214,-1,214,213,210,-1,214,210,211,-1,215,213,216,-1,216,213,212,-1,217,218,219,-1,219,218,215,-1,219,215,216,-1,220,218,221,-1,221,218,217,-1,222,223,224,-1,224,223,220,-1,224,220,221,-1,225,223,226,-1,226,223,222,-1,201,199,227,-1,227,199,225,-1,227,225,226,-1,225,199,198,-1,198,203,225,-1,225,203,205,-1,225,205,223,-1,218,220,215,-1,215,220,223,-1,215,223,213,-1,213,223,205,-1,213,205,210,-1,210,205,208,-1,228,229,230,-1,230,229,231,-1,230,231,232,-1,232,231,233,-1,232,233,234,-1,234,233,235,-1,234,235,236,-1,236,235,237,-1,236,237,238,-1,238,237,239,-1,238,239,240,-1,240,239,241,-1,240,241,242,-1,242,241,243,-1,242,243,244,-1,244,243,245,-1,244,245,246,-1,246,245,247,-1,246,247,248,-1,248,247,249,-1,248,249,250,-1,250,249,251,-1,250,251,252,-1,252,251,253,-1,252,253,254,-1,254,253,255,-1,254,255,256,-1,256,255,257,-1,256,257,258,-1,258,257,259,-1,258,259,260,-1,260,259,261,-1,260,261,262,-1,262,261,228,-1,262,228,230,-1,236,238,263,-1,263,238,264,-1,236,263,265,-1,236,265,234,-1,234,265,266,-1,234,266,232,-1,232,266,267,-1,232,267,230,-1,230,267,268,-1,230,268,262,-1,262,268,269,-1,262,269,260,-1,260,269,270,-1,260,270,258,-1,258,270,271,-1,258,271,256,-1,256,271,272,-1,256,272,254,-1,254,272,273,-1,254,273,252,-1,252,273,274,-1,252,274,250,-1,250,274,275,-1,250,275,248,-1,248,275,276,-1,248,276,246,-1,246,276,277,-1,246,277,244,-1,244,277,278,-1,244,278,242,-1,240,242,279,-1,279,242,278,-1,238,240,264,-1,264,240,279,-1,243,241,280,-1,280,241,281,-1,241,239,281,-1,281,239,282,-1,239,237,282,-1,282,237,283,-1,229,284,285,-1,229,285,231,-1,231,285,286,-1,231,286,233,-1,233,286,287,-1,233,287,235,-1,235,287,283,-1,235,283,237,-1,257,288,289,-1,257,289,259,-1,259,289,290,-1,259,290,261,-1,261,290,291,-1,261,291,228,-1,228,291,284,-1,228,284,229,-1,249,292,293,-1,249,293,251,-1,251,293,294,-1,251,294,253,-1,253,294,295,-1,253,295,255,-1,255,295,288,-1,255,288,257,-1,243,280,296,-1,243,296,245,-1,245,296,297,-1,245,297,247,-1,247,297,292,-1,247,292,249,-1,
        ]
    }
}
Shape{
    appearance Appearance {
        material  Material 	{
            diffuseColor 0.5019607843137255 0.5019607843137255 0.5019607843137255
            specularColor 0.25098039215686274 0.25098039215686274 0.25098039215686274
            ambientIntensity 0.502
            transparency 0.0
            shininess 0.5
        }
    }
    geometry IndexedFaceSet {
        ccw TRUE
        solid FALSE
        coord DEF co Coordinate {
            point [
                1.0493 0.9492 1.4764, 1.0493 0.8463 1.4764, 1.0694 0.9492 1.4764, 1.0686 0.8463 1.4764, 1.0856 0.8481 1.4764, 1.097 0.8522 1.4764, 1.1058 0.858 1.4764, 1.1083 0.8602 1.4764, 1.115 0.8685 1.4764, 1.1195 0.8784 1.4764, 1.1221 0.8906 1.4764, 1.1226 0.899 1.4764, 1.1209 0.9144 1.4764, 1.1173 0.9245 1.4764, 1.1123 0.9322 1.4764, 1.1079 0.9366 1.4764, 1.0866 0.9473 1.4764, 1.0982 0.9431 1.4764
            ]
        }
        coordIndex [
            0,1,2,-1,2,1,3,-1,2,3,4,-1,4,5,2,-1,2,5,6,-1,2,6,7,-1,7,8,2,-1,2,8,9,-1,2,9,10,-1,10,11,2,-1,2,11,12,-1,2,12,13,-1,13,14,2,-1,2,14,15,-1,2,15,16,-1,16,15,17,-1,
        ]
    }
}
Shape{
    appearance Appearance {
        material  Material 	{
            diffuseColor 0.0 0.0 0.0
            specularColor 0.0 0.0 0.0
            ambientIntensity 0.0
            transparency 0.0
            shininess 0.5
        }
    }
    geometry IndexedFaceSet {
        ccw TRUE
        solid FALSE
        coord DEF co Coordinate {
            point [
                1.1854 0.8827 1.4768, 1.1799 0.8676 1.4768, 1.2302 0.8827 1.4768, 1.2355 0.8676 1.4768, 1.2054 0.9381 1.4768, 1.1989 0.9645 1.4768, 1.1481 0.8311 1.4768, 1.1671 0.8311 1.4768, 1.2065 0.9421 1.4768, 1.2075 0.9475 1.4768, 1.2173 0.9645 1.4768, 1.208 0.9475 1.4768, 1.209 0.9418 1.4768, 1.21 0.9381 1.4768, 1.2682 0.8311 1.4768, 1.2491 0.8311 1.4768, 1.2173 0.9645 1.4764, 1.2682 0.8311 1.4764, 1.1989 0.9645 1.4764, 1.1481 0.8311 1.4764, 1.1671 0.8311 1.4764, 1.1799 0.8676 1.4764, 1.2355 0.8676 1.4764, 1.2491 0.8311 1.4764, 1.1854 0.8827 1.4764, 1.2302 0.8827 1.4764, 1.21 0.9381 1.4764, 1.208 0.9475 1.4764, 1.209 0.9418 1.4764, 1.2075 0.9475 1.4764, 1.2054 0.9381 1.4764, 1.2065 0.9421 1.4764
            ]
        }
        coordIndex [
            0,1,2,-1,2,1,3,-1,4,5,0,-1,0,5,6,-1,0,6,1,-1,1,6,7,-1,4,8,5,-1,5,8,9,-1,5,9,10,-1,10,9,11,-1,10,11,12,-1,12,13,10,-1,10,13,2,-1,10,2,14,-1,14,2,3,-1,14,3,15,-1,10,14,16,-1,16,14,17,-1,5,10,18,-1,18,10,16,-1,6,5,19,-1,19,5,18,-1,7,6,20,-1,20,6,19,-1,1,7,21,-1,21,7,20,-1,3,1,22,-1,22,1,21,-1,15,3,23,-1,23,3,22,-1,14,15,17,-1,17,15,23,-1,0,2,24,-1,24,2,25,-1,2,13,25,-1,25,13,26,-1,11,27,28,-1,11,28,12,-1,12,28,26,-1,12,26,13,-1,11,9,27,-1,27,9,29,-1,4,30,31,-1,4,31,8,-1,8,31,29,-1,8,29,9,-1,4,0,30,-1,30,0,24,-1,
        ]
    }
}
Shape{
    appearance Appearance {
        material  Material 	{
            diffuseColor 0.5019607843137255 0.5019607843137255 0.5019607843137255
            specularColor 0.25098039215686274 0.25098039215686274 0.25098039215686274
            ambientIntensity 0.502
            transparency 0.0
            shininess 0.5
        }
    }
    geometry IndexedFaceSet {
        ccw TRUE
        solid FALSE
        coord DEF co Coordinate {
            point [
                1.208 0.9475 1.4764, 1.2075 0.9475 1.4764, 1.209 0.9418 1.4764, 1.2065 0.9421 1.4764, 1.21 0.9381 1.4764, 1.2054 0.9381 1.4764, 1.2302 0.8827 1.4764, 1.1854 0.8827 1.4764
            ]
        }
        coordIndex [
            0,1,2,-1,2,1,3,-1,2,3,4,-1,4,3,5,-1,4,5,6,-1,6,5,7,-1,
        ]
    }
}
Shape{
    appearance Appearance {
        material  Material 	{
            diffuseColor 0.0 0.0 0.0
            specularColor 0.0 0.0 0.0
            ambientIntensity 0.0
            transparency 0.0
            shininess 0.5
        }
    }
    geometry IndexedFaceSet {
        ccw TRUE
        solid FALSE
        coord DEF co Coordinate {
            point [
                -0.0239 0.8122 1.4768, -0.0098 0.7948 1.4768, -0.0325 0.8961 1.4768, -0.0488 1.0611 1.4768, -0.0276 1.0723 1.4768, -0.033 1.1305 1.4768, 0.1516 0.8629 1.4768, 0.1516 0.8724 1.4768, 0.0711 0.8956 1.4768, 0.0622 0.8984 1.4768, 0.0045 1.1352 1.4768, 0.0854 0.8842 1.4768, 0.0898 0.8765 1.4768, 0.1511 0.8532 1.4768, 0.2844 0.9426 1.4768, 0.255 0.9929 1.4768, 0.1279 0.9265 1.4768, 0.0558 0.8989 1.4768, 0.0468 0.8978 1.4768, 0.0342 0.9559 1.4768, 0.0385 0.8946 1.4768, 0.0132 0.9479 1.4768, 0.031 0.8894 1.4768, -0.0062 0.9345 1.4768, 0.0264 0.8845 1.4768, -0.0219 0.9166 1.4768, 0.0217 0.8765 1.4768, 0.0192 0.8675 1.4768, 0.0912 0.9523 1.4768, 0.0683 0.958 1.4768, 0.0567 0.9587 1.4768, 0.0264 1.1333 1.4768, 0.0558 1.064 1.4768, 0.0678 1.09 1.4768, -0.0531 0.9088 1.4768, -0.0456 0.8362 1.4768, -0.0334 0.8325 1.4768, 0.079 0.8907 1.4768, 0.0309 0.8346 1.4768, 0.0384 0.8293 1.4768, 0.0087 0.7808 1.4768, 0.0471 0.826 1.4768, 0.0458 1.1559 1.4768, 0.0881 1.1161 1.4768, 0.0681 1.175 1.4768, 0.114 1.1363 1.4768, 0.0912 1.1893 1.4768, -0.0042 1.0778 1.4768, 0.0055 1.0783 1.4768, 0.0155 1.1346 1.4768, 0.0274 1.0756 1.4768, 0.0487 1.0679 1.4768, 0.1114 0.9415 1.4768, 0.3158 1.0365 1.4768, 0.3233 1.0365 1.4768, 0.3622 1.0878 1.4768, 0.3413 1.0343 1.4768, 0.3706 1.0848 1.4768, 0.3579 1.0279 1.4768, 0.3985 1.0699 1.4768, 0.3726 1.0177 1.4768, 0.4235 1.0475 1.4768, 0.3837 1.0053 1.4768, 0.442 1.02 1.4768, 0.3925 0.9889 1.4768, 0.4528 0.9908 1.4768, 0.3969 0.9706 1.4768, 0.4562 0.9635 1.4768, 0.3974 0.9625 1.4768, 0.456 0.9564 1.4768, 0.3951 0.9441 1.4768, 0.276 0.8309 1.4768, 0.2788 0.8306 1.4768, 0.2863 0.8885 1.4768, 0.1349 1.2062 1.4768, 0.1446 1.1497 1.4768, 0.182 1.212 1.4768, -0.0866 1.0063 1.4768, -0.1489 0.9903 1.4768, -0.0894 0.9834 1.4768, -0.1492 0.9815 1.4768, -0.0883 0.969 1.4768, -0.1445 0.944 1.4768, -0.0815 0.9457 1.4768, -0.1308 0.9087 1.4768, -0.0701 0.9262 1.4768, -0.1093 0.8781 1.4768, -0.0798 0.8529 1.4768, 0.0249 0.8415 1.4768, 0.0209 0.8494 1.4768, 0.019 0.8582 1.4768, 0.329 0.8885 1.4768, 0.3347 0.8306 1.4768, 0.3459 0.8917 1.4768, 0.3624 0.836 1.4768, 0.3627 0.8994 1.4768, 0.3917 0.8492 1.4768, 0.3767 0.9109 1.4768, 0.4169 0.869 1.4768, 0.3781 0.9124 1.4768, 0.4211 0.8733 1.4768, 0.3886 0.9272 1.4768, 0.4378 0.8959 1.4768, 0.4507 0.9254 1.4768, 0.311 1.1627 1.4768, 0.2834 1.1093 1.4768, 0.3421 1.1268 1.4768, 0.3022 1.0815 1.4768, 0.3136 1.0495 1.4768, -0.0681 1.1169 1.4768, -0.0983 1.0956 1.4768, -0.0653 1.0464 1.4768, -0.1046 1.0896 1.4768, -0.0785 1.0274 1.4768, -0.1275 1.0602 1.4768, -0.1426 1.026 1.4768, 0.0923 0.8679 1.4768, 0.0926 0.8587 1.4768, 0.1456 0.8298 1.4768, 0.0906 0.8495 1.4768, 0.1344 0.8086 1.4768, 0.0864 0.8412 1.4768, 0.1197 0.7921 1.4768, 0.0804 0.8343 1.4768, 0.1008 0.7789 1.4768, 0.0731 0.8292 1.4768, 0.0796 0.7708 1.4768, 0.0649 0.8261 1.4768, 0.0567 0.768 1.4768, 0.0558 0.8249 1.4768, 0.053 0.7681 1.4768, 0.0306 0.7716 1.4768, 0.1761 1.1549 1.4768, 0.1829 1.1551 1.4768, 0.2211 1.2079 1.4768, 0.2108 1.1522 1.4768, 0.2687 1.1912 1.4768, 0.2409 1.1418 1.4768, 0.2681 1.1242 1.4768, 0.2519 0.8538 1.4768, 0.2542 0.8473 1.4768, 0.2816 0.8894 1.4768, 0.2582 0.8413 1.4768, 0.263 0.8366 1.4768, 0.2844 0.8888 1.4768, 0.2696 0.8328 1.4768, 0.2512 0.86 1.4768, 0.2807 0.8894 1.4768, 0.2514 0.8632 1.4768, 0.2743 0.8887 1.4768, 0.2677 0.8864 1.4768, 0.2617 0.8825 1.4768, 0.2567 0.8771 1.4768, 0.2532 0.8705 1.4768, 0.4562 0.9635 1.4764, 0.4528 0.9908 1.4764, 0.4274 1.0417 1.4764, 0.4484 1.0025 1.4764, 0.442 1.02 1.4764, 0.4235 1.0475 1.4764, 0.3985 1.0699 1.4764, 0.3706 1.0848 1.4764, 0.3622 1.0878 1.4764, 0.3421 1.1268 1.4764, 0.311 1.1627 1.4764, 0.2892 1.1774 1.4764, 0.2687 1.1912 1.4764, 0.2211 1.2079 1.4764, 0.182 1.212 1.4764, 0.0681 1.175 1.4764, 0.0719 1.1774 1.4764, 0.0912 1.1893 1.4764, 0.1349 1.2062 1.4764, 0.0458 1.1559 1.4764, 0.0264 1.1333 1.4764, 0.0155 1.1346 1.4764, 0.0045 1.1352 1.4764, -0.033 1.1305 1.4764, -0.0681 1.1169 1.4764, -0.0983 1.0956 1.4764, -0.1046 1.0896 1.4764, -0.1492 0.9815 1.4764, -0.1275 1.0602 1.4764, -0.1357 1.0417 1.4764, -0.1426 1.026 1.4764, -0.1467 1.0025 1.4764, -0.1489 0.9903 1.4764, -0.1445 0.944 1.4764, -0.1308 0.9087 1.4764, -0.1093 0.8781 1.4764, -0.0798 0.8529 1.4764, -0.0456 0.8362 1.4764, -0.0334 0.8325 1.4764, -0.0322 0.83 1.4764, -0.0239 0.8122 1.4764, -0.0098 0.7948 1.4764, 0.0087 0.7808 1.4764, 0.0175 0.7771 1.4764, 0.0306 0.7716 1.4764, 0.053 0.7681 1.4764, 0.0567 0.768 1.4764, 0.1516 0.8629 1.4764, 0.0796 0.7708 1.4764, 0.096 0.7771 1.4764, 0.1008 0.7789 1.4764, 0.1197 0.7921 1.4764, 0.1344 0.8086 1.4764, 0.1456 0.8298 1.4764, 0.1457 0.83 1.4764, 0.1511 0.8532 1.4764, 0.1516 0.8724 1.4764, 0.2844 0.9426 1.4764, 0.255 0.9929 1.4764, 0.1279 0.9265 1.4764, 0.1114 0.9415 1.4764, 0.0912 0.9523 1.4764, 0.0683 0.958 1.4764, 0.0567 0.9587 1.4764, 0.0342 0.9559 1.4764, 0.0132 0.9479 1.4764, -0.0062 0.9345 1.4764, -0.0219 0.9166 1.4764, -0.0325 0.8961 1.4764, -0.0531 0.9088 1.4764, -0.0701 0.9262 1.4764, -0.0815 0.9457 1.4764, -0.0883 0.969 1.4764, -0.0894 0.9834 1.4764, -0.087 1.0025 1.4764, -0.0866 1.0063 1.4764, -0.0785 1.0274 1.4764, -0.0686 1.0417 1.4764, -0.0653 1.0464 1.4764, -0.0488 1.0611 1.4764, -0.0276 1.0723 1.4764, -0.0042 1.0778 1.4764, 0.0055 1.0783 1.4764, 0.0274 1.0756 1.4764, 0.0487 1.0679 1.4764, 0.0558 1.064 1.4764, 0.0678 1.09 1.4764, 0.0881 1.1161 1.4764, 0.114 1.1363 1.4764, 0.1446 1.1497 1.4764, 0.1761 1.1549 1.4764, 0.1829 1.1551 1.4764, 0.3158 1.0365 1.4764, 0.3149 1.0417 1.4764, 0.3136 1.0495 1.4764, 0.3022 1.0815 1.4764, 0.2834 1.1093 1.4764, 0.2681 1.1242 1.4764, 0.2409 1.1418 1.4764, 0.2108 1.1522 1.4764, 0.3233 1.0365 1.4764, 0.3413 1.0343 1.4764, 0.3579 1.0279 1.4764, 0.3726 1.0177 1.4764, 0.3837 1.0053 1.4764, 0.3852 1.0025 1.4764, 0.3925 0.9889 1.4764, 0.3969 0.9706 1.4764, 0.3974 0.9625 1.4764, 0.3951 0.9441 1.4764, 0.3886 0.9272 1.4764, 0.3781 0.9124 1.4764, 0.3767 0.9109 1.4764, 0.3627 0.8994 1.4764, 0.3459 0.8917 1.4764, 0.329 0.8885 1.4764, 0.2863 0.8885 1.4764, 0.2844 0.8888 1.4764, 0.2816 0.8894 1.4764, 0.2807 0.8894 1.4764, 0.2743 0.8887 1.4764, 0.2677 0.8864 1.4764, 0.2617 0.8825 1.4764, 0.2567 0.8771 1.4764, 0.2532 0.8705 1.4764, 0.2514 0.8632 1.4764, 0.2512 0.86 1.4764, 0.2519 0.8538 1.4764, 0.2542 0.8473 1.4764, 0.2582 0.8413 1.4764, 0.263 0.8366 1.4764, 0.2696 0.8328 1.4764, 0.276 0.8309 1.4764, 0.2788 0.8306 1.4764, 0.3347 0.8306 1.4764, 0.3624 0.836 1.4764, 0.3917 0.8492 1.4764, 0.4169 0.869 1.4764, 0.4211 0.8733 1.4764, 0.4378 0.8959 1.4764, 0.4507 0.9254 1.4764, 0.456 0.9564 1.4764, 0.0558 0.8989 1.4764, 0.0622 0.8984 1.4764, 0.0711 0.8956 1.4764, 0.079 0.8907 1.4764, 0.0854 0.8842 1.4764, 0.0898 0.8765 1.4764, 0.0923 0.8679 1.4764, 0.0926 0.8587 1.4764, 0.0906 0.8495 1.4764, 0.0864 0.8412 1.4764, 0.0804 0.8343 1.4764, 0.0731 0.8292 1.4764, 0.0649 0.8261 1.4764, 0.0558 0.8249 1.4764, 0.0471 0.826 1.4764, 0.0384 0.8293 1.4764, 0.0309 0.8346 1.4764, 0.0249 0.8415 1.4764, 0.0209 0.8494 1.4764, 0.019 0.8582 1.4764, 0.0192 0.8675 1.4764, 0.0217 0.8765 1.4764, 0.0264 0.8845 1.4764, 0.031 0.8894 1.4764, 0.0385 0.8946 1.4764, 0.0468 0.8978 1.4764
            ]
        }
        coordIndex [
            0,1,2,-1,3,4,5,-1,6,7,8,-1,8,7,9,-1,5,4,10,-1,11,12,13,-1,14,15,7,-1,7,15,16,-1,7,16,9,-1,9,16,17,-1,18,19,20,-1,20,19,21,-1,20,21,22,-1,22,21,23,-1,22,23,24,-1,24,23,25,-1,24,25,26,-1,26,25,2,-1,26,2,27,-1,28,29,18,-1,18,29,30,-1,18,30,19,-1,31,32,33,-1,34,35,2,-1,2,35,36,-1,2,36,0,-1,6,8,13,-1,13,8,37,-1,13,37,11,-1,38,1,39,-1,39,1,40,-1,39,40,41,-1,31,33,42,-1,42,33,43,-1,42,43,44,-1,44,43,45,-1,44,45,46,-1,4,47,10,-1,10,47,48,-1,10,48,49,-1,49,48,50,-1,49,50,31,-1,31,50,51,-1,31,51,32,-1,17,16,18,-1,18,16,52,-1,18,52,28,-1,53,54,55,-1,55,54,56,-1,55,56,57,-1,57,56,58,-1,57,58,59,-1,59,58,60,-1,59,60,61,-1,61,60,62,-1,61,62,63,-1,63,62,64,-1,63,64,65,-1,65,64,66,-1,65,66,67,-1,67,66,68,-1,67,68,69,-1,69,68,70,-1,71,72,73,-1,46,45,74,-1,74,45,75,-1,74,75,76,-1,77,78,79,-1,79,78,80,-1,79,80,81,-1,81,80,82,-1,81,82,83,-1,83,82,84,-1,83,84,85,-1,85,84,86,-1,85,86,34,-1,34,86,87,-1,34,87,35,-1,38,88,1,-1,1,88,89,-1,1,89,2,-1,2,89,90,-1,2,90,27,-1,73,72,91,-1,91,72,92,-1,91,92,93,-1,93,92,94,-1,93,94,95,-1,95,94,96,-1,95,96,97,-1,97,96,98,-1,97,98,99,-1,99,98,100,-1,99,100,101,-1,101,100,102,-1,101,102,70,-1,70,102,103,-1,70,103,69,-1,104,105,106,-1,106,105,107,-1,106,107,55,-1,55,107,108,-1,55,108,53,-1,5,109,3,-1,3,109,110,-1,3,110,111,-1,111,110,112,-1,111,112,113,-1,113,112,114,-1,113,114,77,-1,77,114,115,-1,77,115,78,-1,12,116,13,-1,13,116,117,-1,13,117,118,-1,118,117,119,-1,118,119,120,-1,120,119,121,-1,120,121,122,-1,122,121,123,-1,122,123,124,-1,124,123,125,-1,124,125,126,-1,126,125,127,-1,126,127,128,-1,128,127,129,-1,128,129,130,-1,130,129,41,-1,130,41,131,-1,131,41,40,-1,75,132,76,-1,76,132,133,-1,76,133,134,-1,134,133,135,-1,134,135,136,-1,136,135,137,-1,136,137,104,-1,104,137,138,-1,104,138,105,-1,139,140,141,-1,141,140,142,-1,141,142,143,-1,73,144,71,-1,71,144,141,-1,71,141,145,-1,145,141,143,-1,139,141,146,-1,146,141,147,-1,146,147,148,-1,148,147,149,-1,148,149,150,-1,150,151,148,-1,148,151,152,-1,148,152,153,-1,67,154,155,-1,156,61,63,-1,67,155,65,-1,65,155,157,-1,65,157,63,-1,63,157,158,-1,63,158,156,-1,156,159,61,-1,61,159,160,-1,61,160,59,-1,59,160,161,-1,59,161,57,-1,57,161,162,-1,57,162,55,-1,55,162,163,-1,55,163,106,-1,106,163,164,-1,106,164,104,-1,136,104,165,-1,165,104,164,-1,165,166,136,-1,136,166,167,-1,136,167,134,-1,134,167,168,-1,134,168,76,-1,169,44,170,-1,170,44,46,-1,170,46,171,-1,171,46,74,-1,171,74,172,-1,172,74,76,-1,172,76,168,-1,44,169,173,-1,44,173,42,-1,42,173,174,-1,42,174,31,-1,31,174,175,-1,31,175,49,-1,49,175,176,-1,49,176,10,-1,10,176,177,-1,10,177,5,-1,5,177,178,-1,5,178,109,-1,109,178,179,-1,109,179,110,-1,110,179,180,-1,110,180,112,-1,181,80,78,-1,112,180,182,-1,112,182,114,-1,114,182,183,-1,114,183,115,-1,183,184,115,-1,115,184,185,-1,115,185,78,-1,78,185,186,-1,78,186,181,-1,80,181,187,-1,80,187,82,-1,82,187,188,-1,82,188,84,-1,84,188,189,-1,84,189,86,-1,86,189,190,-1,86,190,87,-1,87,190,191,-1,87,191,35,-1,35,191,192,-1,35,192,36,-1,36,192,193,-1,36,193,0,-1,193,194,0,-1,0,194,195,-1,0,195,1,-1,1,195,196,-1,1,196,40,-1,40,196,197,-1,40,197,131,-1,197,198,131,-1,131,198,199,-1,131,199,130,-1,130,199,200,-1,130,200,128,-1,201,6,13,-1,128,200,202,-1,128,202,126,-1,126,202,203,-1,126,203,124,-1,203,204,124,-1,124,204,205,-1,124,205,122,-1,122,205,206,-1,122,206,120,-1,120,206,207,-1,120,207,118,-1,118,207,208,-1,118,208,13,-1,13,208,209,-1,13,209,201,-1,7,6,210,-1,210,6,201,-1,14,7,211,-1,211,7,210,-1,15,14,212,-1,212,14,211,-1,16,15,213,-1,213,15,212,-1,16,213,214,-1,16,214,52,-1,52,214,215,-1,52,215,28,-1,28,215,216,-1,28,216,29,-1,29,216,217,-1,29,217,30,-1,30,217,218,-1,30,218,19,-1,19,218,219,-1,19,219,21,-1,21,219,220,-1,21,220,23,-1,23,220,221,-1,23,221,25,-1,25,221,222,-1,25,222,2,-1,2,222,223,-1,2,223,34,-1,34,223,224,-1,34,224,85,-1,85,224,225,-1,85,225,83,-1,83,225,226,-1,83,226,81,-1,81,226,227,-1,81,227,79,-1,77,79,228,-1,228,79,227,-1,228,229,77,-1,77,229,230,-1,77,230,113,-1,113,230,231,-1,113,231,111,-1,231,232,111,-1,111,232,233,-1,111,233,3,-1,3,233,234,-1,3,234,4,-1,4,234,235,-1,4,235,47,-1,47,235,236,-1,47,236,48,-1,48,236,237,-1,48,237,50,-1,50,237,238,-1,50,238,51,-1,51,238,239,-1,51,239,32,-1,32,239,240,-1,32,240,33,-1,33,240,241,-1,33,241,43,-1,43,241,242,-1,43,242,45,-1,45,242,243,-1,45,243,75,-1,75,243,244,-1,75,244,132,-1,132,244,245,-1,132,245,133,-1,246,53,247,-1,247,53,108,-1,247,108,248,-1,248,108,107,-1,248,107,249,-1,249,107,105,-1,249,105,250,-1,250,105,138,-1,250,138,251,-1,251,138,137,-1,251,137,252,-1,252,137,135,-1,252,135,253,-1,253,135,133,-1,253,133,245,-1,54,53,254,-1,254,53,246,-1,54,254,255,-1,54,255,56,-1,56,255,256,-1,56,256,58,-1,58,256,257,-1,58,257,60,-1,60,257,258,-1,60,258,62,-1,62,258,259,-1,62,259,64,-1,259,260,64,-1,64,260,261,-1,64,261,66,-1,66,261,262,-1,66,262,68,-1,68,262,263,-1,68,263,70,-1,70,263,264,-1,70,264,101,-1,101,264,265,-1,101,265,99,-1,99,265,266,-1,99,266,97,-1,97,266,267,-1,97,267,95,-1,95,267,268,-1,95,268,93,-1,93,268,269,-1,93,269,91,-1,73,91,270,-1,270,91,269,-1,73,270,271,-1,73,271,144,-1,144,271,272,-1,144,272,141,-1,141,272,273,-1,141,273,147,-1,147,273,274,-1,147,274,149,-1,149,274,275,-1,149,275,150,-1,150,275,276,-1,150,276,151,-1,151,276,277,-1,151,277,152,-1,152,277,278,-1,152,278,153,-1,153,278,279,-1,153,279,148,-1,148,279,280,-1,148,280,146,-1,146,280,281,-1,146,281,139,-1,139,281,282,-1,139,282,140,-1,140,282,283,-1,140,283,142,-1,142,283,284,-1,142,284,143,-1,143,284,285,-1,143,285,145,-1,145,285,286,-1,145,286,71,-1,71,286,287,-1,71,287,72,-1,92,72,288,-1,288,72,287,-1,92,288,289,-1,92,289,94,-1,94,289,290,-1,94,290,96,-1,96,290,291,-1,96,291,98,-1,98,291,292,-1,98,292,100,-1,100,292,293,-1,100,293,102,-1,102,293,294,-1,102,294,103,-1,103,294,295,-1,103,295,69,-1,69,295,154,-1,69,154,67,-1,17,296,297,-1,17,297,9,-1,9,297,298,-1,9,298,8,-1,8,298,299,-1,8,299,37,-1,37,299,300,-1,37,300,11,-1,11,300,301,-1,11,301,12,-1,12,301,302,-1,12,302,116,-1,116,302,303,-1,116,303,117,-1,117,303,304,-1,117,304,119,-1,119,304,305,-1,119,305,121,-1,121,305,306,-1,121,306,123,-1,123,306,307,-1,123,307,125,-1,125,307,308,-1,125,308,127,-1,127,308,309,-1,127,309,129,-1,129,309,310,-1,129,310,41,-1,41,310,311,-1,41,311,39,-1,39,311,312,-1,39,312,38,-1,38,312,313,-1,38,313,88,-1,88,313,314,-1,88,314,89,-1,89,314,315,-1,89,315,90,-1,90,315,316,-1,90,316,27,-1,27,316,317,-1,27,317,26,-1,26,317,318,-1,26,318,24,-1,24,318,319,-1,24,319,22,-1,22,319,320,-1,22,320,20,-1,20,320,321,-1,20,321,18,-1,18,321,296,-1,18,296,17,-1,
        ]
    }
}
Shape{
    appearance Appearance {
        material  Material 	{
            diffuseColor 0.5019607843137255 0.5019607843137255 0.5019607843137255
            specularColor 0.25098039215686274 0.25098039215686274 0.25098039215686274
            ambientIntensity 0.502
            transparency 0.0
            shininess 0.5
        }
    }
    geometry IndexedFaceSet {
        ccw TRUE
        solid FALSE
        coord DEF co Coordinate {
            point [
                0.0558 0.8249 1.4764, 0.031 0.8894 1.4764, 0.0264 0.8845 1.4764, 0.0558 0.8989 1.4764, 0.0622 0.8984 1.4764, 0.0649 0.8261 1.4764, 0.0468 0.8978 1.4764, 0.0385 0.8946 1.4764, 0.0804 0.8343 1.4764, 0.0854 0.8842 1.4764, 0.079 0.8907 1.4764, 0.0209 0.8494 1.4764, 0.0249 0.8415 1.4764, 0.0309 0.8346 1.4764, 0.0731 0.8292 1.4764, 0.0711 0.8956 1.4764, 0.0217 0.8765 1.4764, 0.0192 0.8675 1.4764, 0.019 0.8582 1.4764, 0.0384 0.8293 1.4764, 0.0471 0.826 1.4764, 0.0906 0.8495 1.4764, 0.0926 0.8587 1.4764, 0.0864 0.8412 1.4764, 0.0923 0.8679 1.4764, 0.0898 0.8765 1.4764
            ]
        }
        coordIndex [
            0,1,2,-1,3,0,4,-1,4,0,5,-1,3,6,0,-1,0,6,7,-1,0,7,1,-1,8,9,10,-1,11,12,2,-1,2,12,13,-1,5,14,4,-1,4,14,8,-1,4,8,15,-1,15,8,10,-1,16,17,2,-1,2,17,18,-1,2,18,11,-1,13,19,2,-1,2,19,20,-1,2,20,0,-1,21,22,23,-1,23,22,24,-1,23,24,8,-1,8,24,25,-1,8,25,9,-1,
        ]
    }
}