M48
; DRILL file KiCad 10.0.4-10.0.4~ubuntu24.04.1 date 2026-07-23T19:33:32
; FORMAT={-:-/ absolute / metric / decimal}
; #@! TF.CreationDate,2026-07-23T19:33:32-07:00
; #@! TF.GenerationSoftware,Kicad,Pcbnew,10.0.4-10.0.4~ubuntu24.04.1
; #@! TF.FileFunction,Plated,1,6,PTH
FMAT,2
METRIC
; #@! TA.AperFunction,Plated,PTH,ViaDrill
T1C0.150
; #@! TA.AperFunction,Plated,PTH,ComponentDrill
T2C0.150
; #@! TA.AperFunction,Plated,PTH,ViaDrill
T3C0.200
; #@! TA.AperFunction,Plated,PTH,ComponentDrill
T4C0.600
; #@! TA.AperFunction,Plated,PTH,ComponentDrill
T5C0.890
; #@! TA.AperFunction,Plated,PTH,ComponentDrill
T6C1.000
; #@! TA.AperFunction,Plated,PTH,ComponentDrill
T7C1.570
%
G90
G05
T1
X16.0Y-16.0
X16.0Y-26.0
X16.0Y-36.0
X16.0Y-46.0
X16.0Y-56.0
X16.0Y-66.0
X16.0Y-76.0
X16.0Y-86.0
X16.0Y-96.0
X16.0Y-106.0
X16.0Y-116.0
X16.3Y-21.0
X17.38Y-118.6
X17.41Y-113.4
X17.71Y-18.5
X18.2Y-113.4
X18.8Y-112.3
X19.29Y-116.0
X19.8Y-116.5
X19.8Y-118.3
X19.9Y-114.9
X20.46Y-113.5
X20.7Y-116.0
X20.9Y-115.0
X21.45Y-119.0
X21.7Y-113.2
X23.6Y-113.1
X25.4Y-21.6
X25.45Y-116.0
X26.0Y-36.0
X26.0Y-46.0
X26.0Y-56.0
X26.0Y-66.0
X26.0Y-76.0
X26.0Y-86.0
X26.0Y-96.0
X26.0Y-106.0
X26.86Y-125.0
X26.9Y-126.7
X26.98Y-127.6
X27.2Y-21.6
X28.6Y-125.0
X29.98Y-127.6
X31.9Y-21.6
X33.7Y-118.7
X34.25Y-116.0
X34.32Y-115.4
X34.51Y-114.83
X34.8Y-113.4
X35.5Y-116.0
X35.77Y-118.49
X35.78Y-113.4
X36.0Y-26.0
X36.0Y-36.0
X36.0Y-46.0
X36.0Y-56.0
X36.0Y-66.0
X36.0Y-76.0
X36.0Y-86.0
X36.0Y-96.0
X36.0Y-106.0
X36.35Y-118.73
X36.89Y-117.07
X37.1Y-113.5
X37.21Y-103.2
X37.3Y-116.5
X37.6Y-118.9
X37.61Y-113.14
X37.7Y-102.4
X38.0Y-115.2
X38.0Y-116.1
X38.23Y-113.27
X38.4Y-118.9
X38.5Y-101.6
X38.58Y-114.68
X38.7Y-116.0
X38.8Y-114.1
X38.85Y-117.04
X38.9Y-120.2
X38.98Y-99.4
X39.26Y-114.66
X39.45Y-119.0
X39.73Y-116.0
X40.26Y-115.4
X40.7Y-98.7
X40.8Y-114.2
X40.9Y-100.1
X41.55Y-105.4
X41.98Y-99.4
X42.0Y-96.0
X43.45Y-116.0
X43.98Y-102.0
X44.5Y-23.3
X45.2Y-28.8
X46.0Y-16.0
X46.0Y-36.0
X46.0Y-46.0
X46.0Y-56.0
X46.0Y-66.0
X46.0Y-76.0
X46.0Y-86.0
X46.0Y-96.0
X46.0Y-106.0
X47.41Y-28.3
X49.8Y-28.8
X52.6Y-59.7
X55.0Y-60.0
X55.3Y-59.3
X55.3Y-63.0
X56.0Y-26.0
X56.0Y-46.0
X56.0Y-76.0
X56.0Y-86.0
X56.0Y-96.0
X56.0Y-106.0
X56.0Y-116.0
X56.98Y-62.0
X57.0Y-59.3
X57.28Y-60.1
X57.28Y-63.9
X57.3Y-57.4
X57.4Y-54.0
X57.4Y-69.5
X57.9Y-52.6
X58.1Y-59.5
X58.1Y-69.6
X58.3Y-52.8
X58.4Y-53.4
X59.0Y-64.7
X59.14Y-61.5
X59.14Y-63.0
X59.14Y-64.0
X59.4Y-65.8
X59.6Y-61.0
X59.7Y-62.0
X59.8Y-57.2
X60.0Y-55.0
X60.3Y-60.0
X60.6Y-66.3
X61.1Y-59.2
X61.5Y-52.5
X61.6Y-54.3
X61.7Y-64.2
X61.7Y-64.9
X61.8Y-60.6
X62.2Y-67.4
X62.3Y-63.6
X62.4Y-69.4
X62.55Y-56.1
X63.1Y-71.1
X63.2Y-69.6
X63.3Y-53.3
X63.53Y-67.91
X63.8Y-29.0
X64.0Y-59.0
X64.2Y-68.8
X64.57Y-60.67
X64.9Y-61.5
X64.9Y-62.0
X64.9Y-65.5
X65.0Y-30.2
X65.2Y-75.4
X65.3Y-23.1
X65.8Y-56.5
X65.9Y-62.0
X66.0Y-16.0
X66.0Y-21.3
X66.0Y-36.0
X66.0Y-46.0
X66.0Y-76.0
X66.0Y-86.0
X66.0Y-96.0
X66.0Y-106.0
X66.0Y-116.0
X66.1Y-65.7
X66.1Y-74.5
X66.2Y-66.4
X66.6Y-65.5
X67.0Y-64.2
X67.0Y-68.2
X67.41Y-28.3
X67.68Y-60.1
X67.68Y-63.9
X68.4Y-56.2
X68.9Y-113.2
X68.95Y-62.0
X69.0Y-117.1
X69.3Y-64.7
X69.3Y-68.2
X69.5Y-70.2
X69.6Y-115.7
X69.8Y-68.0
X69.98Y-111.0
X70.2Y-60.4
X70.3Y-116.6
X70.37Y-115.08
X70.4Y-63.6
X70.4Y-67.6
X70.4Y-80.6
X70.4Y-115.8
X70.6Y-66.45
X71.17Y-117.36
X71.3Y-113.2
X71.5Y-67.4
X71.7Y-61.9
X72.9Y-113.3
X73.6Y-61.5
X73.6Y-114.0
X74.2Y-112.8
X75.1Y-114.8
X75.2Y-111.8
X76.0Y-26.0
X76.0Y-36.0
X76.0Y-46.0
X76.0Y-56.0
X76.0Y-66.0
X76.0Y-86.0
X76.0Y-96.0
X76.0Y-106.0
X76.0Y-116.0
X76.0Y-126.0
X76.8Y-83.4
X76.8Y-107.0
X77.8Y-106.6
X77.98Y-102.0
X79.1Y-62.8
X79.2Y-110.1
X79.5Y-107.4
X79.75Y-108.3
X80.0Y-28.8
X80.05Y-107.76
X80.18Y-98.2
X80.18Y-105.8
X80.2Y-82.6
X80.2Y-94.3
X80.44Y-107.12
X80.44Y-109.05
X80.45Y-108.41
X80.48Y-93.6
X80.48Y-102.0
X80.48Y-110.4
X80.88Y-107.58
X81.17Y-105.91
X81.17Y-108.89
X81.2Y-61.5
X81.2Y-97.7
X81.2Y-99.2
X81.3Y-102.6
X81.34Y-108.05
X81.5Y-95.3
X81.52Y-107.45
X81.74Y-108.66
X82.3Y-101.0
X82.337Y-97.4
X82.337Y-99.8
X82.337Y-102.6
X82.34Y-105.0
X82.34Y-106.2
X82.54Y-108.72
X82.7Y-109.3
X82.85Y-99.4
X82.85Y-102.2
X83.1Y-110.6
X83.16Y-107.45
X83.3Y-94.3
X83.3Y-94.8
X83.3Y-96.2
X83.5Y-98.2
X83.5Y-115.2
X83.51Y-126.0
X83.7Y-82.6
X83.7Y-96.0
X83.83Y-107.4
X83.9Y-106.62
X84.11Y-107.94
X84.4Y-82.6
X84.5Y-83.4
X84.5Y-97.2
X84.5Y-97.8
X84.6Y-93.4
X84.6Y-109.662
X84.68Y-92.0
X84.68Y-107.4
X84.68Y-112.0
X85.0Y-27.7
X85.0Y-30.2
X85.1Y-83.4
X85.1Y-99.8
X85.4Y-108.1
X85.5Y-93.2
X85.5Y-96.2
X85.5Y-99.4
X85.7Y-87.6
X86.0Y-16.0
X86.0Y-36.0
X86.0Y-46.0
X86.0Y-56.0
X86.0Y-66.0
X86.0Y-76.0
X86.0Y-106.0
X86.0Y-116.0
X86.2Y-95.6
X86.2Y-109.662
X86.3Y-97.0
X86.31Y-118.6
X86.5Y-111.1
X86.6Y-94.337
X86.6Y-109.15
X86.8Y-122.32
X87.0Y-111.1
X87.2Y-92.3
X87.2Y-114.0
X87.41Y-28.3
X87.42Y-110.5
X87.8Y-109.15
X88.11Y-113.21
X88.18Y-114.8
X88.28Y-89.7
X88.6Y-109.662
X88.6Y-110.8
X88.6Y-120.8
X88.78Y-111.8
X89.2Y-82.6
X89.3Y-86.6
X89.57Y-90.07
X89.7Y-92.04
X89.7Y-122.3
X89.76Y-89.48
X89.8Y-94.3
X89.85Y-119.6
X90.1Y-90.7
X90.49Y-88.46
X90.55Y-89.28
X90.6Y-109.662
X90.7Y-122.3
X90.75Y-85.35
X90.76Y-89.92
X91.2Y-87.0
X91.2Y-92.2
X91.2Y-110.8
X91.2Y-113.5
X91.4Y-94.85
X91.4Y-109.15
X91.7Y-107.7
X91.8Y-89.9
X91.8Y-112.3
X92.1Y-121.3
X92.18Y-92.2
X92.2Y-109.7
X92.2Y-122.3
X92.37Y-114.54
X92.4Y-87.0
X92.4Y-91.46
X92.5Y-84.4
X92.6Y-94.337
X92.7Y-90.0
X92.78Y-89.2
X92.8Y-87.4
X92.94Y-113.08
X93.0Y-109.7
X93.0Y-120.3
X93.1Y-94.3
X93.2Y-122.32
X93.4Y-87.84
X93.48Y-63.5
X93.48Y-84.0
X93.5Y-58.748
X93.5Y-91.6
X93.6Y-111.4
X93.67Y-92.79
X93.68Y-90.44
X93.7Y-112.8
X93.8Y-89.6
X93.8Y-95.8
X93.97Y-88.09
X94.01Y-119.9
X94.07Y-88.91
X94.36Y-90.7
X94.47Y-88.46
X94.65Y-89.72
X94.81Y-91.2
X94.89Y-88.93
X95.0Y-108.4
X95.1Y-62.9
X95.2Y-89.48
X95.2Y-112.1
X95.39Y-90.07
X95.4Y-106.4
X95.62Y-50.32
X95.8Y-61.1
X95.8Y-110.7
X96.0Y-26.0
X96.0Y-36.0
X96.0Y-66.0
X96.0Y-76.0
X96.0Y-86.0
X96.08Y-63.4
X96.28Y-92.0
X96.4Y-111.61
X96.5Y-107.0
X96.5Y-108.2
X96.61Y-126.0
X96.7Y-112.7
X97.0Y-98.6
X97.15Y-105.4
X97.2Y-49.0
X97.3Y-110.8
X97.39Y-126.0
X97.47Y-60.45
X97.51Y-123.4
X97.7Y-96.2
X97.7Y-100.2
X97.7Y-107.0
X97.8Y-109.6
X98.8Y-97.3
X98.8Y-99.7
X98.8Y-103.8
X98.9Y-90.3
X99.2Y-94.7
X99.2Y-110.2
X99.7Y-93.9
X99.9Y-95.2
X99.98Y-60.0
X100.3Y-103.1
X100.3Y-107.2
X100.48Y-93.6
X100.48Y-110.4
X100.7Y-114.4
X100.78Y-98.2
X100.78Y-105.8
X101.95Y-102.0
X103.18Y-106.6
X104.4Y-23.4
X106.0Y-16.0
X106.0Y-36.0
X106.0Y-46.0
X106.0Y-66.0
X106.0Y-76.0
X106.0Y-86.0
X106.0Y-96.0
X106.0Y-106.0
X106.0Y-116.0
X107.1Y-89.5
X107.41Y-28.3
X107.7Y-30.9
X108.41Y-115.91
X109.8Y-28.8
X110.4Y-66.1
X112.7Y-114.0
X112.89Y-117.37
X116.0Y-26.0
X116.0Y-46.0
X116.0Y-56.0
X116.0Y-66.0
X116.0Y-76.0
X116.0Y-96.0
X116.0Y-106.0
X117.2Y-61.5
X118.0Y-59.9
X118.5Y-43.8
X118.5Y-59.5
X118.5Y-63.2
X119.6Y-63.4
X120.6Y-59.9
X121.0Y-65.7
X121.4Y-60.7
X121.4Y-67.5
X121.5Y-55.8
X121.8Y-66.5
X121.9Y-64.2
X122.0Y-62.66
X122.1Y-67.9
X122.36Y-63.18
X122.5Y-60.3
X122.7Y-66.5
X122.8Y-59.0
X122.84Y-63.62
X122.85Y-61.14
X123.03Y-62.51
X123.28Y-60.1
X123.42Y-63.97
X123.7Y-59.5
X123.8Y-57.9
X123.84Y-62.5
X124.0Y-59.0
X124.06Y-61.06
X124.2Y-71.8
X124.3Y-54.5
X124.4Y-60.5
X124.5Y-62.0
X124.5Y-69.6
X124.6Y-30.9
X124.7Y-54.7
X125.1Y-61.0
X125.14Y-63.0
X125.14Y-64.0
X125.3Y-23.1
X125.8Y-58.5
X126.0Y-16.0
X126.0Y-21.3
X126.0Y-36.0
X126.0Y-46.0
X126.0Y-56.6
X126.0Y-64.9
X126.0Y-86.0
X126.0Y-96.0
X126.0Y-106.0
X126.0Y-116.0
X126.4Y-71.9
X126.43Y-62.5
X126.56Y-63.45
X126.86Y-59.03
X127.0Y-65.9
X127.03Y-62.53
X127.41Y-28.3
X127.44Y-59.38
X127.5Y-70.2
X127.7Y-68.4
X127.73Y-60.58
X127.9Y-54.7
X127.95Y-56.1
X128.2Y-64.3
X128.6Y-70.5
X128.7Y-28.9
X129.1Y-55.9
X129.2Y-68.4
X129.52Y-66.99
X129.6Y-72.4
X129.8Y-62.9
X129.8Y-63.6
X130.1Y-54.8
X130.1Y-60.6
X130.2Y-55.5
X130.4Y-57.0
X130.4Y-65.0
X130.6Y-58.0
X130.7Y-60.0
X130.7Y-61.0
X130.9Y-58.5
X131.0Y-61.5
X131.1Y-69.5
X131.2Y-66.7
X132.58Y-58.03
X132.6Y-64.7
X132.6Y-66.1
X132.7Y-62.9
X132.76Y-58.83
X132.9Y-60.9
X133.16Y-58.38
X133.2Y-69.8
X133.21Y-63.54
X133.3Y-56.2
X133.64Y-58.82
X133.64Y-60.97
X134.0Y-61.66
X134.0Y-68.4
X134.4Y-59.3
X134.62Y-61.75
X134.7Y-63.4
X134.7Y-64.4
X134.8Y-60.61
X135.35Y-62.61
X135.52Y-60.5
X136.0Y-26.0
X136.0Y-36.0
X136.0Y-46.0
X136.0Y-76.0
X136.0Y-86.0
X136.0Y-96.0
X136.0Y-106.0
X136.0Y-116.0
X136.2Y-60.4
X136.2Y-62.8
X137.0Y-61.2
X137.2Y-59.8
X138.7Y-61.7
X144.2Y-29.2
X144.4Y-23.4
X146.0Y-16.0
X146.0Y-36.0
X146.0Y-46.0
X146.0Y-56.0
X146.0Y-66.0
X146.0Y-76.0
X146.0Y-86.0
X146.0Y-96.0
X146.0Y-106.0
X146.0Y-116.0
X147.41Y-28.3
X154.6Y-29.2
X156.0Y-26.0
X156.0Y-36.0
X156.0Y-46.0
X156.0Y-56.0
X156.0Y-66.0
X156.0Y-76.0
X156.0Y-86.0
X156.0Y-96.0
X156.0Y-106.0
X156.0Y-116.0
X160.7Y-32.7
X161.6Y-33.6
X162.3Y-27.4
X165.0Y-27.2
X166.0Y-16.0
X166.0Y-36.0
X166.0Y-46.0
X166.0Y-56.0
X166.0Y-66.0
X166.0Y-76.0
X166.0Y-86.0
X166.0Y-96.0
X166.0Y-106.0
X166.0Y-116.0
X166.2Y-59.5
X167.41Y-28.3
X168.7Y-57.6
X168.78Y-60.0
X169.21Y-47.2
X170.98Y-43.4
X171.06Y-46.95
X171.2Y-42.5
X171.8Y-45.0
X172.6Y-42.5
X172.88Y-49.4
X173.2Y-46.4
X174.1Y-47.3
X174.3Y-45.0
T2
X88.35Y-100.35
X88.35Y-101.45
X88.35Y-102.55
X88.35Y-103.65
X89.45Y-100.35
X89.45Y-101.45
X89.45Y-102.55
X89.45Y-103.65
X90.55Y-100.35
X90.55Y-101.45
X90.55Y-102.55
X90.55Y-103.65
X91.65Y-100.35
X91.65Y-101.45
X91.65Y-102.55
X91.65Y-103.65
T3
X68.8Y-71.8
X80.05Y-29.55
X82.3Y-27.3
X84.4Y-23.28
X86.65Y-21.78
T5
X21.7Y-24.6
X23.99Y-24.6
X25.0Y-18.0
X26.016Y-19.78
X27.032Y-18.0
X28.048Y-19.78
X29.064Y-18.0
X30.08Y-19.78
X31.096Y-18.0
X32.112Y-19.78
X33.13Y-24.6
X35.42Y-24.6
X41.7Y-24.6
X43.99Y-24.6
X45.0Y-18.0
X46.016Y-19.78
X47.032Y-18.0
X48.048Y-19.78
X49.064Y-18.0
X50.08Y-19.78
X51.096Y-18.0
X52.112Y-19.78
X53.13Y-24.6
X55.42Y-24.6
X61.7Y-24.6
X63.99Y-24.6
X65.0Y-18.0
X66.016Y-19.78
X67.032Y-18.0
X68.048Y-19.78
X69.064Y-18.0
X70.08Y-19.78
X71.096Y-18.0
X72.112Y-19.78
X73.13Y-24.6
X75.42Y-24.6
X81.7Y-24.6
X83.99Y-24.6
X85.0Y-18.0
X86.016Y-19.78
X87.032Y-18.0
X88.048Y-19.78
X89.064Y-18.0
X90.08Y-19.78
X91.096Y-18.0
X92.112Y-19.78
X93.13Y-24.6
X95.42Y-24.6
X101.7Y-24.6
X103.99Y-24.6
X105.0Y-18.0
X106.016Y-19.78
X107.032Y-18.0
X108.048Y-19.78
X109.064Y-18.0
X110.08Y-19.78
X111.096Y-18.0
X112.112Y-19.78
X113.13Y-24.6
X115.42Y-24.6
X121.7Y-24.6
X123.99Y-24.6
X125.0Y-18.0
X126.016Y-19.78
X127.032Y-18.0
X128.048Y-19.78
X129.064Y-18.0
X130.08Y-19.78
X131.096Y-18.0
X132.112Y-19.78
X133.13Y-24.6
X135.42Y-24.6
X141.7Y-24.6
X143.99Y-24.6
X145.0Y-18.0
X146.016Y-19.78
X147.032Y-18.0
X148.048Y-19.78
X149.064Y-18.0
X150.08Y-19.78
X151.096Y-18.0
X152.112Y-19.78
X153.13Y-24.6
X155.42Y-24.6
X161.7Y-24.6
X163.99Y-24.6
X165.0Y-18.0
X166.016Y-19.78
X167.032Y-18.0
X168.048Y-19.78
X169.064Y-18.0
X170.08Y-19.78
X171.096Y-18.0
X172.112Y-19.78
X173.13Y-24.6
X175.42Y-24.6
T6
X95.0Y-49.0
X95.0Y-51.54
X95.0Y-54.08
X140.0Y-118.0
X142.54Y-118.0
X145.08Y-118.0
X147.62Y-118.0
X150.16Y-118.0
X152.7Y-118.0
X155.24Y-118.0
X157.78Y-118.0
T7
X20.43Y-18.89
X36.69Y-18.89
X40.43Y-18.89
X56.69Y-18.89
X60.43Y-18.89
X76.69Y-18.89
X80.43Y-18.89
X96.69Y-18.89
X100.43Y-18.89
X116.69Y-18.89
X120.43Y-18.89
X136.69Y-18.89
X140.43Y-18.89
X156.69Y-18.89
X160.43Y-18.89
X176.69Y-18.89
T4
G00X85.68Y-122.345
M15
G01X85.68Y-123.445
M16
G05
G00X85.68Y-126.675
M15
G01X85.68Y-127.475
M16
G05
G00X94.32Y-122.345
M15
G01X94.32Y-123.445
M16
G05
G00X94.32Y-126.675
M15
G01X94.32Y-127.475
M16
G05
T6
G00X18.0Y-101.0
M15
G01X18.0Y-103.0
M16
G05
G00X20.0Y-106.7
M15
G01X22.0Y-106.7
M16
G05
G00X24.0Y-101.0
M15
G01X24.0Y-103.0
M16
G05
M30
