{
  "asset": {
    "version": "2.0",
    "generator": "circuit-json-to-gltf"
  },
  "scene": 0,
  "scenes": [
    {
      "name": "Scene",
      "nodes": [
        0,
        1,
        2,
        3,
        4,
        5,
        6,
        7,
        8,
        9,
        10,
        11,
        12,
        13,
        14,
        15,
        16,
        17,
        18,
        19,
        20,
        21,
        22,
        23,
        24,
        25,
        26,
        27,
        28,
        29,
        30
      ]
    }
  ],
  "nodes": [
    {
      "name": "Box0",
      "mesh": 0,
      "translation": [
        0,
        0,
        0
      ]
    },
    {
      "name": "R1",
      "mesh": 1,
      "translation": [
        22,
        0.7,
        -4
      ]
    },
    {
      "name": "D1",
      "mesh": 2,
      "translation": [
        16,
        0.7,
        -10
      ]
    },
    {
      "name": "CBS1",
      "mesh": 1,
      "translation": [
        0,
        0.7,
        -18
      ]
    },
    {
      "name": "CVCC1",
      "mesh": 1,
      "translation": [
        3,
        0.7,
        -18
      ]
    },
    {
      "name": "RFA1",
      "mesh": 1,
      "translation": [
        -3,
        0.7,
        -18
      ]
    },
    {
      "name": "RFA2",
      "mesh": 1,
      "translation": [
        -3,
        0.7,
        -20
      ]
    },
    {
      "name": "CIN_A1",
      "mesh": 3,
      "translation": [
        2,
        0.7,
        -10
      ]
    },
    {
      "name": "CIN_A2",
      "mesh": 3,
      "translation": [
        -2,
        0.7,
        -10
      ]
    },
    {
      "name": "COUT_A1",
      "mesh": 4,
      "translation": [
        -12,
        0.7,
        -18
      ]
    },
    {
      "name": "COUT_A2",
      "mesh": 4,
      "translation": [
        -16,
        0.7,
        -18
      ]
    },
    {
      "name": "COUT_A3",
      "mesh": 4,
      "translation": [
        -12,
        0.7,
        -22
      ]
    },
    {
      "name": "COUT_A4",
      "mesh": 4,
      "translation": [
        -16,
        0.7,
        -22
      ]
    },
    {
      "name": "CBS2",
      "mesh": 1,
      "translation": [
        0,
        0.7,
        18
      ]
    },
    {
      "name": "CVCC2",
      "mesh": 1,
      "translation": [
        3,
        0.7,
        18
      ]
    },
    {
      "name": "RFC1",
      "mesh": 1,
      "translation": [
        -3,
        0.7,
        18
      ]
    },
    {
      "name": "RFC2",
      "mesh": 1,
      "translation": [
        -3,
        0.7,
        20
      ]
    },
    {
      "name": "CIN_C1",
      "mesh": 3,
      "translation": [
        2,
        0.7,
        10
      ]
    },
    {
      "name": "CIN_C2",
      "mesh": 3,
      "translation": [
        -2,
        0.7,
        10
      ]
    },
    {
      "name": "COUT_C1",
      "mesh": 4,
      "translation": [
        -12,
        0.7,
        18
      ]
    },
    {
      "name": "COUT_C2",
      "mesh": 4,
      "translation": [
        -16,
        0.7,
        18
      ]
    },
    {
      "name": "COUT_C3",
      "mesh": 4,
      "translation": [
        -12,
        0.7,
        22
      ]
    },
    {
      "name": "COUT_C4",
      "mesh": 4,
      "translation": [
        -16,
        0.7,
        22
      ]
    },
    {
      "name": "R3",
      "mesh": 1,
      "translation": [
        -24,
        0.7,
        6
      ]
    },
    {
      "name": "R4",
      "mesh": 1,
      "translation": [
        -24,
        0.7,
        8
      ]
    },
    {
      "name": "R2",
      "mesh": 1,
      "translation": [
        30,
        0.7,
        16
      ]
    },
    {
      "name": "LED1",
      "mesh": 5,
      "translation": [
        30,
        0.7,
        20
      ]
    },
    {
      "name": "R5",
      "mesh": 1,
      "translation": [
        24,
        0.7,
        16
      ]
    },
    {
      "name": "LED2",
      "mesh": 5,
      "translation": [
        24,
        0.7,
        20
      ]
    },
    {
      "name": "R6",
      "mesh": 1,
      "translation": [
        18,
        0.7,
        16
      ]
    },
    {
      "name": "LED3",
      "mesh": 5,
      "translation": [
        18,
        0.7,
        20
      ]
    }
  ],
  "meshes": [
    {
      "name": "MeshWithTextures0",
      "primitives": [
        {
          "attributes": {
            "POSITION": 0,
            "NORMAL": 1,
            "TEXCOORD_0": 2
          },
          "indices": 3,
          "material": 1,
          "mode": 4
        },
        {
          "attributes": {
            "POSITION": 4,
            "NORMAL": 5,
            "TEXCOORD_0": 6
          },
          "indices": 7,
          "material": 2,
          "mode": 4
        },
        {
          "attributes": {
            "POSITION": 8,
            "NORMAL": 9,
            "TEXCOORD_0": 10
          },
          "indices": 11,
          "material": 3,
          "mode": 4
        }
      ]
    },
    {
      "name": "R1",
      "primitives": [
        {
          "attributes": {
            "POSITION": 12,
            "NORMAL": 13,
            "TEXCOORD_0": 14
          },
          "indices": 15,
          "material": 4,
          "mode": 4
        },
        {
          "attributes": {
            "POSITION": 16,
            "NORMAL": 17,
            "TEXCOORD_0": 18
          },
          "indices": 19,
          "material": 5,
          "mode": 4
        }
      ]
    },
    {
      "name": "D1",
      "primitives": [
        {
          "attributes": {
            "POSITION": 20,
            "NORMAL": 21,
            "TEXCOORD_0": 22
          },
          "indices": 23,
          "material": 6,
          "mode": 4
        },
        {
          "attributes": {
            "POSITION": 24,
            "NORMAL": 25,
            "TEXCOORD_0": 26
          },
          "indices": 27,
          "material": 7,
          "mode": 4
        }
      ]
    },
    {
      "name": "CIN_A1",
      "primitives": [
        {
          "attributes": {
            "POSITION": 28,
            "NORMAL": 29,
            "TEXCOORD_0": 30
          },
          "indices": 31,
          "material": 4,
          "mode": 4
        },
        {
          "attributes": {
            "POSITION": 32,
            "NORMAL": 33,
            "TEXCOORD_0": 34
          },
          "indices": 35,
          "material": 5,
          "mode": 4
        }
      ]
    },
    {
      "name": "COUT_A1",
      "primitives": [
        {
          "attributes": {
            "POSITION": 36,
            "NORMAL": 37,
            "TEXCOORD_0": 38
          },
          "indices": 39,
          "material": 4,
          "mode": 4
        },
        {
          "attributes": {
            "POSITION": 40,
            "NORMAL": 41,
            "TEXCOORD_0": 42
          },
          "indices": 43,
          "material": 5,
          "mode": 4
        }
      ]
    },
    {
      "name": "LED1",
      "primitives": [
        {
          "attributes": {
            "POSITION": 44,
            "NORMAL": 45,
            "TEXCOORD_0": 46
          },
          "indices": 47,
          "material": 4,
          "mode": 4
        },
        {
          "attributes": {
            "POSITION": 48,
            "NORMAL": 49,
            "TEXCOORD_0": 50
          },
          "indices": 51,
          "material": 5,
          "mode": 4
        }
      ]
    }
  ],
  "materials": [
    {
      "name": "Default",
      "pbrMetallicRoughness": {
        "baseColorFactor": [
          0.35,
          0.35,
          0.35,
          0.5
        ],
        "metallicFactor": 0.05,
        "roughnessFactor": 0.95
      },
      "alphaMode": "BLEND"
    },
    {
      "name": "TopMaterial_1",
      "pbrMetallicRoughness": {
        "baseColorFactor": [
          1,
          1,
          1,
          1
        ],
        "metallicFactor": 0,
        "roughnessFactor": 0.8,
        "baseColorTexture": {
          "index": 0
        }
      },
      "alphaMode": "OPAQUE",
      "doubleSided": true
    },
    {
      "name": "BottomMaterial_2",
      "pbrMetallicRoughness": {
        "metallicFactor": 0,
        "roughnessFactor": 0.8,
        "baseColorTexture": {
          "index": 1
        }
      },
      "alphaMode": "OPAQUE",
      "doubleSided": true
    },
    {
      "name": "GreenSideMaterial_3",
      "pbrMetallicRoughness": {
        "baseColorFactor": [
          0.04,
          0.16,
          0.08,
          1
        ],
        "metallicFactor": 0,
        "roughnessFactor": 0.8
      },
      "alphaMode": "OPAQUE",
      "doubleSided": true
    },
    {
      "name": "OBJ_Material_0",
      "pbrMetallicRoughness": {
        "baseColorFactor": [
          0.2,
          0.2,
          0.2,
          1
        ],
        "metallicFactor": 0.05,
        "roughnessFactor": 0.95
      },
      "alphaMode": "OPAQUE"
    },
    {
      "name": "OBJ_Material_1",
      "pbrMetallicRoughness": {
        "baseColorFactor": [
          0.8,
          0.8,
          0.8,
          1
        ],
        "metallicFactor": 0.05,
        "roughnessFactor": 0.95
      },
      "alphaMode": "OPAQUE"
    },
    {
      "name": "OBJ_Material_0",
      "pbrMetallicRoughness": {
        "baseColorFactor": [
          0.7529411764705882,
          0.7529411764705882,
          0.7529411764705882,
          1
        ],
        "metallicFactor": 0.05,
        "roughnessFactor": 0.95
      },
      "alphaMode": "OPAQUE"
    },
    {
      "name": "OBJ_Material_1",
      "pbrMetallicRoughness": {
        "baseColorFactor": [
          0.10196078431372549,
          0.10196078431372549,
          0.10196078431372549,
          1
        ],
        "metallicFactor": 0.05,
        "roughnessFactor": 0.95
      },
      "alphaMode": "OPAQUE"
    }
  ],
  "accessors": [
    {
      "bufferView": 0,
      "componentType": 5126,
      "count": 2502,
      "type": "VEC3",
      "min": [
        -45,
        0.7,
        -35
      ],
      "max": [
        45,
        0.7,
        35
      ]
    },
    {
      "bufferView": 1,
      "componentType": 5126,
      "count": 2502,
      "type": "VEC3",
      "min": [
        0,
        1,
        0
      ],
      "max": [
        0,
        1,
        0
      ]
    },
    {
      "bufferView": 2,
      "componentType": 5126,
      "count": 2502,
      "type": "VEC2"
    },
    {
      "bufferView": 3,
      "componentType": 5123,
      "count": 2502,
      "type": "SCALAR"
    },
    {
      "bufferView": 4,
      "componentType": 5126,
      "count": 2502,
      "type": "VEC3",
      "min": [
        -45,
        -0.7,
        -35
      ],
      "max": [
        45,
        -0.7,
        35
      ]
    },
    {
      "bufferView": 5,
      "componentType": 5126,
      "count": 2502,
      "type": "VEC3",
      "min": [
        0,
        -1,
        0
      ],
      "max": [
        0,
        -1,
        0
      ]
    },
    {
      "bufferView": 6,
      "componentType": 5126,
      "count": 2502,
      "type": "VEC2"
    },
    {
      "bufferView": 7,
      "componentType": 5123,
      "count": 2502,
      "type": "SCALAR"
    },
    {
      "bufferView": 8,
      "componentType": 5126,
      "count": 4632,
      "type": "VEC3",
      "min": [
        -45,
        -0.7,
        -35
      ],
      "max": [
        45,
        0.7,
        35
      ]
    },
    {
      "bufferView": 9,
      "componentType": 5126,
      "count": 4632,
      "type": "VEC3",
      "min": [
        -1,
        0,
        -1
      ],
      "max": [
        1,
        0,
        1
      ]
    },
    {
      "bufferView": 10,
      "componentType": 5126,
      "count": 4632,
      "type": "VEC2"
    },
    {
      "bufferView": 11,
      "componentType": 5123,
      "count": 4632,
      "type": "SCALAR"
    },
    {
      "bufferView": 12,
      "componentType": 5126,
      "count": 36,
      "type": "VEC3",
      "min": [
        -0.5,
        -5.204749042365526e-17,
        -0.425000011920929
      ],
      "max": [
        0.5,
        0.6000000238418579,
        0.42500001192092907
      ]
    },
    {
      "bufferView": 13,
      "componentType": 5126,
      "count": 36,
      "type": "VEC3",
      "min": [
        -1,
        -1,
        -1
      ],
      "max": [
        1,
        1,
        1
      ]
    },
    {
      "bufferView": 14,
      "componentType": 5126,
      "count": 36,
      "type": "VEC2"
    },
    {
      "bufferView": 15,
      "componentType": 5125,
      "count": 36,
      "type": "SCALAR"
    },
    {
      "bufferView": 16,
      "componentType": 5126,
      "count": 72,
      "type": "VEC3",
      "min": [
        -0.800000011920929,
        -5.204749042365526e-17,
        -0.42500001192092907
      ],
      "max": [
        0.800000011920929,
        0.6000000238418579,
        0.4250000119209291
      ]
    },
    {
      "bufferView": 17,
      "componentType": 5126,
      "count": 72,
      "type": "VEC3",
      "min": [
        -1,
        -1,
        -1
      ],
      "max": [
        1,
        1,
        1
      ]
    },
    {
      "bufferView": 18,
      "componentType": 5126,
      "count": 72,
      "type": "VEC2"
    },
    {
      "bufferView": 19,
      "componentType": 5125,
      "count": 72,
      "type": "SCALAR"
    },
    {
      "bufferView": 20,
      "componentType": 5126,
      "count": 168,
      "type": "VEC3",
      "min": [
        -2.700000047683716,
        -8.878689585796861e-17,
        -0.7250000238418582
      ],
      "max": [
        2.700000047683716,
        1.340000033378601,
        0.7250000238418584
      ]
    },
    {
      "bufferView": 21,
      "componentType": 5126,
      "count": 168,
      "type": "VEC3",
      "min": [
        -1,
        -1,
        -1
      ],
      "max": [
        1,
        1,
        1
      ]
    },
    {
      "bufferView": 22,
      "componentType": 5126,
      "count": 168,
      "type": "VEC2"
    },
    {
      "bufferView": 23,
      "componentType": 5125,
      "count": 168,
      "type": "SCALAR"
    },
    {
      "bufferView": 24,
      "componentType": 5126,
      "count": 84,
      "type": "VEC3",
      "min": [
        -2.200000047683716,
        0.11500000208616239,
        -1.7000000476837158
      ],
      "max": [
        2.200000047683716,
        2.305000066757202,
        1.7000000476837163
      ]
    },
    {
      "bufferView": 25,
      "componentType": 5126,
      "count": 84,
      "type": "VEC3",
      "min": [
        -1,
        -1,
        -1
      ],
      "max": [
        1,
        1,
        1
      ]
    },
    {
      "bufferView": 26,
      "componentType": 5126,
      "count": 84,
      "type": "VEC2"
    },
    {
      "bufferView": 27,
      "componentType": 5125,
      "count": 84,
      "type": "SCALAR"
    },
    {
      "bufferView": 28,
      "componentType": 5126,
      "count": 36,
      "type": "VEC3",
      "min": [
        -1.100000023841858,
        -9.7971745391681e-17,
        -0.8000000119209291
      ],
      "max": [
        1.100000023841858,
        0.8999999761581422,
        0.8000000119209292
      ]
    },
    {
      "bufferView": 29,
      "componentType": 5126,
      "count": 36,
      "type": "VEC3",
      "min": [
        -1,
        -1,
        -1
      ],
      "max": [
        1,
        1,
        1
      ]
    },
    {
      "bufferView": 30,
      "componentType": 5126,
      "count": 36,
      "type": "VEC2"
    },
    {
      "bufferView": 31,
      "componentType": 5125,
      "count": 36,
      "type": "SCALAR"
    },
    {
      "bufferView": 32,
      "componentType": 5126,
      "count": 72,
      "type": "VEC3",
      "min": [
        -1.600000023841858,
        -9.7971745391681e-17,
        -0.8000000119209292
      ],
      "max": [
        1.600000023841858,
        0.8999999761581422,
        0.8000000119209293
      ]
    },
    {
      "bufferView": 33,
      "componentType": 5126,
      "count": 72,
      "type": "VEC3",
      "min": [
        -1,
        -1,
        -1
      ],
      "max": [
        1,
        1,
        1
      ]
    },
    {
      "bufferView": 34,
      "componentType": 5126,
      "count": 72,
      "type": "VEC2"
    },
    {
      "bufferView": 35,
      "componentType": 5125,
      "count": 72,
      "type": "SCALAR"
    },
    {
      "bufferView": 36,
      "componentType": 5126,
      "count": 36,
      "type": "VEC3",
      "min": [
        -1.0000000000000002,
        -1.5308084989341916e-16,
        -1.2500000000000002
      ],
      "max": [
        1.0000000000000002,
        1.0000000000000002,
        1.2500000000000004
      ]
    },
    {
      "bufferView": 37,
      "componentType": 5126,
      "count": 36,
      "type": "VEC3",
      "min": [
        -1,
        -1,
        -1
      ],
      "max": [
        1,
        1,
        1
      ]
    },
    {
      "bufferView": 38,
      "componentType": 5126,
      "count": 36,
      "type": "VEC2"
    },
    {
      "bufferView": 39,
      "componentType": 5125,
      "count": 36,
      "type": "SCALAR"
    },
    {
      "bufferView": 40,
      "componentType": 5126,
      "count": 72,
      "type": "VEC3",
      "min": [
        -1.6000000238418581,
        -1.5308084989341916e-16,
        -1.2500000000000002
      ],
      "max": [
        1.6000000238418581,
        1.0000000000000002,
        1.2500000000000004
      ]
    },
    {
      "bufferView": 41,
      "componentType": 5126,
      "count": 72,
      "type": "VEC3",
      "min": [
        -1,
        -1,
        -1
      ],
      "max": [
        1,
        1,
        1
      ]
    },
    {
      "bufferView": 42,
      "componentType": 5126,
      "count": 72,
      "type": "VEC2"
    },
    {
      "bufferView": 43,
      "componentType": 5125,
      "count": 72,
      "type": "SCALAR"
    },
    {
      "bufferView": 44,
      "componentType": 5126,
      "count": 36,
      "type": "VEC3",
      "min": [
        -0.5000000000000001,
        -7.654042494670958e-17,
        -0.6250000000000001
      ],
      "max": [
        0.5000000000000001,
        0.5500000119209291,
        0.6250000000000002
      ]
    },
    {
      "bufferView": 45,
      "componentType": 5126,
      "count": 36,
      "type": "VEC3",
      "min": [
        -1,
        -1,
        -1
      ],
      "max": [
        1,
        1,
        1
      ]
    },
    {
      "bufferView": 46,
      "componentType": 5126,
      "count": 36,
      "type": "VEC2"
    },
    {
      "bufferView": 47,
      "componentType": 5125,
      "count": 36,
      "type": "SCALAR"
    },
    {
      "bufferView": 48,
      "componentType": 5126,
      "count": 72,
      "type": "VEC3",
      "min": [
        -1,
        -7.654042494670958e-17,
        -0.6250000000000001
      ],
      "max": [
        1,
        0.5500000119209291,
        0.6250000000000002
      ]
    },
    {
      "bufferView": 49,
      "componentType": 5126,
      "count": 72,
      "type": "VEC3",
      "min": [
        -1,
        -1,
        -1
      ],
      "max": [
        1,
        1,
        1
      ]
    },
    {
      "bufferView": 50,
      "componentType": 5126,
      "count": 72,
      "type": "VEC2"
    },
    {
      "bufferView": 51,
      "componentType": 5125,
      "count": 72,
      "type": "SCALAR"
    }
  ],
  "bufferViews": [
    {
      "buffer": 0,
      "byteOffset": 0,
      "byteLength": 30024,
      "target": 34962
    },
    {
      "buffer": 0,
      "byteOffset": 30024,
      "byteLength": 30024,
      "target": 34962
    },
    {
      "buffer": 0,
      "byteOffset": 60048,
      "byteLength": 20016,
      "target": 34962
    },
    {
      "buffer": 0,
      "byteOffset": 80064,
      "byteLength": 5004,
      "target": 34963
    },
    {
      "buffer": 0,
      "byteOffset": 85068,
      "byteLength": 30024,
      "target": 34962
    },
    {
      "buffer": 0,
      "byteOffset": 115092,
      "byteLength": 30024,
      "target": 34962
    },
    {
      "buffer": 0,
      "byteOffset": 145116,
      "byteLength": 20016,
      "target": 34962
    },
    {
      "buffer": 0,
      "byteOffset": 165132,
      "byteLength": 5004,
      "target": 34963
    },
    {
      "buffer": 0,
      "byteOffset": 170136,
      "byteLength": 55584,
      "target": 34962
    },
    {
      "buffer": 0,
      "byteOffset": 225720,
      "byteLength": 55584,
      "target": 34962
    },
    {
      "buffer": 0,
      "byteOffset": 281304,
      "byteLength": 37056,
      "target": 34962
    },
    {
      "buffer": 0,
      "byteOffset": 318360,
      "byteLength": 9264,
      "target": 34963
    },
    {
      "buffer": 0,
      "byteOffset": 327624,
      "byteLength": 432,
      "target": 34962
    },
    {
      "buffer": 0,
      "byteOffset": 328056,
      "byteLength": 432,
      "target": 34962
    },
    {
      "buffer": 0,
      "byteOffset": 328488,
      "byteLength": 288,
      "target": 34962
    },
    {
      "buffer": 0,
      "byteOffset": 328776,
      "byteLength": 144,
      "target": 34963
    },
    {
      "buffer": 0,
      "byteOffset": 328920,
      "byteLength": 864,
      "target": 34962
    },
    {
      "buffer": 0,
      "byteOffset": 329784,
      "byteLength": 864,
      "target": 34962
    },
    {
      "buffer": 0,
      "byteOffset": 330648,
      "byteLength": 576,
      "target": 34962
    },
    {
      "buffer": 0,
      "byteOffset": 331224,
      "byteLength": 288,
      "target": 34963
    },
    {
      "buffer": 0,
      "byteOffset": 331512,
      "byteLength": 2016,
      "target": 34962
    },
    {
      "buffer": 0,
      "byteOffset": 333528,
      "byteLength": 2016,
      "target": 34962
    },
    {
      "buffer": 0,
      "byteOffset": 335544,
      "byteLength": 1344,
      "target": 34962
    },
    {
      "buffer": 0,
      "byteOffset": 336888,
      "byteLength": 672,
      "target": 34963
    },
    {
      "buffer": 0,
      "byteOffset": 337560,
      "byteLength": 1008,
      "target": 34962
    },
    {
      "buffer": 0,
      "byteOffset": 338568,
      "byteLength": 1008,
      "target": 34962
    },
    {
      "buffer": 0,
      "byteOffset": 339576,
      "byteLength": 672,
      "target": 34962
    },
    {
      "buffer": 0,
      "byteOffset": 340248,
      "byteLength": 336,
      "target": 34963
    },
    {
      "buffer": 0,
      "byteOffset": 340584,
      "byteLength": 432,
      "target": 34962
    },
    {
      "buffer": 0,
      "byteOffset": 341016,
      "byteLength": 432,
      "target": 34962
    },
    {
      "buffer": 0,
      "byteOffset": 341448,
      "byteLength": 288,
      "target": 34962
    },
    {
      "buffer": 0,
      "byteOffset": 341736,
      "byteLength": 144,
      "target": 34963
    },
    {
      "buffer": 0,
      "byteOffset": 341880,
      "byteLength": 864,
      "target": 34962
    },
    {
      "buffer": 0,
      "byteOffset": 342744,
      "byteLength": 864,
      "target": 34962
    },
    {
      "buffer": 0,
      "byteOffset": 343608,
      "byteLength": 576,
      "target": 34962
    },
    {
      "buffer": 0,
      "byteOffset": 344184,
      "byteLength": 288,
      "target": 34963
    },
    {
      "buffer": 0,
      "byteOffset": 344472,
      "byteLength": 432,
      "target": 34962
    },
    {
      "buffer": 0,
      "byteOffset": 344904,
      "byteLength": 432,
      "target": 34962
    },
    {
      "buffer": 0,
      "byteOffset": 345336,
      "byteLength": 288,
      "target": 34962
    },
    {
      "buffer": 0,
      "byteOffset": 345624,
      "byteLength": 144,
      "target": 34963
    },
    {
      "buffer": 0,
      "byteOffset": 345768,
      "byteLength": 864,
      "target": 34962
    },
    {
      "buffer": 0,
      "byteOffset": 346632,
      "byteLength": 864,
      "target": 34962
    },
    {
      "buffer": 0,
      "byteOffset": 347496,
      "byteLength": 576,
      "target": 34962
    },
    {
      "buffer": 0,
      "byteOffset": 348072,
      "byteLength": 288,
      "target": 34963
    },
    {
      "buffer": 0,
      "byteOffset": 348360,
      "byteLength": 432,
      "target": 34962
    },
    {
      "buffer": 0,
      "byteOffset": 348792,
      "byteLength": 432,
      "target": 34962
    },
    {
      "buffer": 0,
      "byteOffset": 349224,
      "byteLength": 288,
      "target": 34962
    },
    {
      "buffer": 0,
      "byteOffset": 349512,
      "byteLength": 144,
      "target": 34963
    },
    {
      "buffer": 0,
      "byteOffset": 349656,
      "byteLength": 864,
      "target": 34962
    },
    {
      "buffer": 0,
      "byteOffset": 350520,
      "byteLength": 864,
      "target": 34962
    },
    {
      "buffer": 0,
      "byteOffset": 351384,
      "byteLength": 576,
      "target": 34962
    },
    {
      "buffer": 0,
      "byteOffset": 351960,
      "byteLength": 288,
      "target": 34963
    },
    {
      "buffer": 0,
      "byteOffset": 352248,
      "byteLength": 46089
    },
    {
      "buffer": 0,
      "byteOffset": 398337,
      "byteLength": 24771
    }
  ],
  "images": [
    {
      "mimeType": "image/png",
      "bufferView": 52
    },
    {
      "mimeType": "image/png",
      "bufferView": 53
    }
  ],
  "textures": [
    {
      "source": 0,
      "sampler": 0
    },
    {
      "source": 1,
      "sampler": 0
    }
  ],
  "samplers": [
    {
      "magFilter": 9729,
      "minFilter": 9987,
      "wrapS": 10497,
      "wrapT": 10497
    }
  ],
  "buffers": [
    {
      "byteLength": 423108,
      "uri": "data:application/octet-stream;base64,"
    }
  ]
}