v -0.803877 -3.545014 1.5
v -0.585037 -3.545014 1.5
v -0.585037 -3.485853 1.5
newmtl 1
Ka 0.2980392156862745 0.2980392156862745 0.2980392156862745
Kd 0.20784313725490197 0.20784313725490197 0.20784313725490197
Ks 0.01568627450980392 0.01568627450980392 0.01568627450980392
d 0.0
endmtl
v -1.08033 -3.804998 1.5
v -1.088438 -3.80595 1.5
v -1.038129 -3.80595 1.5
v -0.4 -0.69282 1.5
v -0.549474 -0.578125 1.5
v -0.549474 -2.014119 1.5
v 0.207055 0.772741 1.5
v 0.21884 0.767859 1.5
v 0.21884 1.0983 1.5
v 0.4 -0.69282 1.5
v 0.21884 -0.767859 1.5
v 0.21884 -2.014119 1.5
v -1.003287 -3.660137 1.5
v -0.991089 -3.695228 1.5
v -0.991089 -3.545014 1.5
v -1.317323 -3.80595 1.5
v -1.317323 -3.804248 1.5
v -1.424787 -3.804248 1.5
v -1.424787 -3.602473 1.5
v -1.507412 -3.545014 1.5
v -1.507412 -3.80595 1.5
v -1.317323 -3.545014 1.5
v -1.320856 -3.602473 1.5
v -1.320856 -3.625683 1.5
v -1.39874 -3.625683 1.5
v -1.39874 -3.690259 1.5
v -1.39874 -3.713367 1.5
v -1.39874 -3.781244 1.5
v -1.326582 -3.713367 1.5
v -1.317323 -3.781244 1.5
v -1.326582 -3.690259 1.5
v -1.313197 -3.545014 1.5
v -1.316266 -3.804248 1.5
v -1.313197 -3.80595 1.5
v -1.316266 -3.781244 1.5
v -1.167668 -3.310823 1.5
v -1.181769 -3.305458 1.5
v -1.167668 -3.454698 1.5
v -1.20661 -3.302492 1.5
v -1.216034 -3.302951 1.5
v -1.233366 -3.30664 1.5
v -1.249075 -3.314323 1.5
v -1.261593 -3.324877 1.5
v -1.262985 -3.326404 1.5
v -1.272731 -3.340432 1.5
v -1.279482 -3.357871 1.5
v -1.282791 -3.385533 1.5
v -1.28247 -3.394525 1.5
v -1.17894 -3.459757 1.5
v -1.201767 -3.463997 1.5
v -1.211149 -3.464345 1.5
v -1.279003 -3.414362 1.5
v -1.272268 -3.430426 1.5
v -1.262985 -3.443095 1.5
v -1.257364 -3.448478 1.5
v -1.228899 -3.462508 1.5
v -1.243726 -3.45741 1.5
v -1.161301 -3.313245 1.5
v -1.159055 -3.450832 1.5
v -1.159055 -3.314458 1.5
v -1.150544 -3.485853 1.5
v -1.150544 -3.280674 1.5
v -1.185206 -3.280674 1.5
v -1.180447 -3.281048 1.5
v -1.167668 -3.280674 1.5
v -1.167668 -3.284738 1.5
v -1.159055 -3.287225 1.5
v -1.206868 -3.278972 1.5
v -1.167668 -2.014119 1.5
v -1.220899 -3.280674 1.5
v -1.313197 -2.014119 1.5
v -1.297959 -3.440934 1.5
v -1.306165 -3.419866 1.5
v -1.313197 -3.485853 1.5
v -1.233725 -3.485853 1.5
v -1.252117 -3.481373 1.5
v -1.270731 -3.471686 1.5
v -1.310128 -3.38708 1.5
v -1.309773 -3.376543 1.5
v -1.313197 -3.280674 1.5
v -1.305197 -3.350202 1.5
v -1.295613 -3.327789 1.5
v -1.280986 -3.308681 1.5
v -1.284236 -3.460013 1.5
v -1.285927 -3.458166 1.5
v -1.275978 -3.303903 1.5
v -1.257086 -3.29068 1.5
v -1.235994 -3.282505 1.5
v -1.230871 -3.486549 1.5
v -1.214914 -3.487556 1.5
v -1.167668 -3.545014 1.5
v -1.197109 -3.485853 1.5
v -1.159055 -3.475796 1.5
v -1.162497 -3.477511 1.5
v -1.167668 -3.485853 1.5
v -1.167668 -3.479207 1.5
v -1.18416 -3.484616 1.5
v -0.919421 -3.660137 1.5
v -0.893219 -3.660137 1.5
v -0.879602 -3.545014 1.5
v -0.879602 -3.80595 1.5
v -0.965635 -3.768452 1.5
v -0.96254 -3.780315 1.5
v -0.96187 -3.780315 1.5
v -0.958775 -3.768659 1.5
v -0.960709 -3.775377 1.5
v -0.991089 -3.80595 1.5
v -0.991089 -3.763068 1.5
v -1.031552 -3.660137 1.5
v -0.975022 -3.803938 1.5
v -0.975874 -3.80595 1.5
v -0.986112 -3.83014 1.5
v -1.038129 -3.885878 1.5
v -1.026343 -3.870062 1.5
v -1.026343 -3.847574 1.5
v -0.995834 -3.844549 1.5
v -0.991126 -3.83931 1.5
v -0.991089 -3.839243 1.5
v -0.991089 -3.86762 1.5
v -0.999834 -3.870951 1.5
v -0.991089 -3.885878 1.5
v -1.010044 -3.872125 1.5
v -1.015623 -3.871925 1.5
v -1.012004 -3.850462 1.5
v -1.005668 -3.849718 1.5
v -1.000162 -3.847578 1.5
v -0.95862 -3.826014 1.5
v -0.970062 -3.848296 1.5
v -0.879602 -3.885878 1.5
v -0.95071 -3.80595 1.5
v -0.97931 -3.859403 1.5
v -0.981033 -3.860982 1.5
v -0.989861 -3.867152 1.5
v -1.743544 1.618737 1.5
v -1.94841 1.488726 1.5
v -1.507412 1.0983 1.5
v -2.659672 3.285167 1.5
v -2.421331 3.330633 1.5
v -2.728303 4.197619 1.5
v -1.577447 1.795613 1.5
v -1.507412 4.197619 1.5
v -4.197619 1.0983 1.5
v -2.879217 1.547287 1.5
v -3.066173 1.70195 1.5
v -3.298112 2.605297 1.5
v -3.208791 2.830896 1.5
v -4.197619 2.728303 1.5
v -3.066173 3.027194 1.5
v -2.879217 3.181857 1.5
v -2.179172 3.315398 1.5
v -1.94841 3.240418 1.5
v -1.743544 3.110406 1.5
v -2.179172 1.413746 1.5
v -2.421331 1.398511 1.5
v -2.659672 1.443977 1.5
v -3.208791 1.898248 1.5
v -3.298112 2.123847 1.5
v -3.328523 2.364572 1.5
v -1.577447 2.933531 1.5
v -1.507412 2.806139 1.5
v -1.317323 4.197619 1.5
v -1.460555 2.720906 1.5
v -1.400214 2.485891 1.5
v -1.400214 2.243253 1.5
v -1.317323 1.0983 1.5
v -1.460555 2.008238 1.5
v -1.507412 1.923005 1.5
v 0.565685 -0.565685 1.5
v 0.69282 0.4 1.5
v 4.197619 1.0983 1.5
v 0.565685 0.565685 1.5
v 0.4 0.69282 1.5
v 0.772741 0.207055 1.5
v 0.8 0.0 1.5
v 4.197619 -2.014119 1.5
v 0.772741 -0.207055 1.5
v 0.69282 -0.4 1.5
v -0.549474 1.0983 1.5
v -0.4 0.69282 1.5
v -0.207055 0.772741 1.5
v 0.0 0.8 1.5
v -0.585037 1.0983 1.5
v -0.565685 0.565685 1.5
v -0.549474 0.578125 1.5
v -0.8 0.0 1.5
v -0.772741 0.207055 1.5
v -0.803877 1.0983 1.5
v -0.69282 0.4 1.5
v -0.585037 0.540466 1.5
v -0.585037 -2.014119 1.5
v -0.565685 -0.565685 1.5
v -0.585037 -0.540466 1.5
v -0.803877 -2.014119 1.5
v -0.69282 -0.4 1.5
v -0.772741 -0.207055 1.5
v 0.207055 -0.772741 1.5
v -0.0 -0.8 1.5
v -0.207055 -0.772741 1.5
v 4.197619 2.728303 1.5
v 4.197619 -2.728303 1.5
v 3.645248 -3.280674 1.5
v -2.134609 -3.885878 1.5
v -2.159279 -3.895354 1.5
v -1.507412 -4.197619 1.5
v -2.194004 -3.899631 1.5
v -2.728303 -4.197619 1.5
v -2.199528 -3.899529 1.5
v -2.2334 -3.894248 1.5
v -3.040044 -3.885878 1.5
v -2.253324 -3.885878 1.5
v -2.2665 -3.880343 1.5
v -2.400249 -3.771418 1.5
v -2.44506 -3.733217 1.5
v -3.119972 -3.80595 1.5
v -2.348396 -3.796663 1.5
v -2.294564 -3.859193 1.5
v -2.315902 -3.832864 1.5
v -2.328482 -3.80595 1.5
v -2.330292 -3.802078 1.5
v -2.477833 -3.686419 1.5
v -2.498379 -3.633009 1.5
v -3.380908 -3.545014 1.5
v -2.505313 -3.576846 1.5
v -2.504906 -3.563052 1.5
v -2.501681 -3.545014 1.5
v -3.440068 -3.485853 1.5
v -2.495265 -3.509136 1.5
v -2.484941 -3.485853 1.5
v -3.645248 -3.280674 1.5
v -2.472365 -3.457493 1.5
v -2.437886 -3.413301 1.5
v -2.176789 -3.284187 1.5
v -2.272907 -3.344441 1.5
v -2.210502 -3.313059 1.5
v -2.256409 -3.345337 1.5
v -2.239912 -3.34731 1.5
v -2.428188 -3.404123 1.5
v -2.382555 -3.372049 1.5
v -2.329411 -3.351419 1.5
v -1.937232 -3.236328 1.5
v -1.507412 -2.014119 1.5
v -2.004637 -3.228238 1.5
v -2.069927 -3.235612 1.5
v -4.197619 -2.014119 1.5
v -4.197619 -2.728303 1.5
v -2.136449 -3.259738 1.5
v -2.170993 -3.280674 1.5
v -0.585037 -3.77543 1.5
v -0.585037 -3.80595 1.5
v -0.570508 -3.758138 1.5
v -0.549474 -3.80595 1.5
v -0.560569 -3.73727 1.5
v -0.578356 -3.636183 1.5
v -0.565873 -3.653783 1.5
v -0.549474 -3.545014 1.5
v -0.585037 -3.629645 1.5
v -0.558417 -3.673036 1.5
v -0.55507 -3.700781 1.5
v -0.555677 -3.71365 1.5
v -0.719347 -3.804248 1.5
v -0.719347 -3.602473 1.5
v -0.762055 -3.625683 1.5
v -0.762055 -3.602473 1.5
v -0.661786 -3.602473 1.5
v -0.630975 -3.605875 1.5
v -0.606624 -3.614771 1.5
v -0.585501 -3.62919 1.5
v -0.865985 -3.602473 1.5
v -0.803877 -3.602473 1.5
v -0.803877 -3.80595 1.5
v -0.757464 -3.804248 1.5
v -0.585501 -3.775983 1.5
v -0.606635 -3.791125 1.5
v -0.629649 -3.800094 1.5
v -0.663849 -3.804248 1.5
v -0.757464 -3.781244 1.5
v -1.142034 -3.799193 1.5
v -1.150544 -3.80595 1.5
v -1.126519 -3.804901 1.5
v -1.11753 -3.80595 1.5
v -1.068031 -3.658409 1.5
v -1.051617 -3.663232 1.5
v -1.038129 -3.545014 1.5
v -1.051617 -3.687784 1.5
v -1.045907 -3.775203 1.5
v -1.049011 -3.783212 1.5
v -1.053722 -3.789878 1.5
v -1.053164 -3.741219 1.5
v -1.048447 -3.748181 1.5
v -1.04575 -3.755633 1.5
v -1.044705 -3.765048 1.5
v -1.13471 -3.721825 1.5
v -1.138005 -3.716558 1.5
v -1.142034 -3.773094 1.5
v -1.140792 -3.70884 1.5
v -1.141879 -3.699028 1.5
v -1.150544 -3.545014 1.5
v -1.140882 -3.689991 1.5
v -1.137872 -3.681854 1.5
v -1.133176 -3.675023 1.5
v -1.125683 -3.668287 1.5
v -1.060952 -3.796202 1.5
v -1.066985 -3.799898 1.5
v -1.117581 -3.663511 1.5
v -1.103554 -3.658677 1.5
v -1.085761 -3.656837 1.5
v -1.116143 -3.785208 1.5
v -1.103608 -3.74091 1.5
v -1.131997 -3.779286 1.5
v -1.118672 -3.734004 1.5
v -1.130575 -3.72615 1.5
v -1.088237 -3.677365 1.5
v -1.095719 -3.677926 1.5
v -1.115832 -3.696758 1.5
v -1.102479 -3.679715 1.5
v -1.108147 -3.682729 1.5
v -1.115601 -3.70012 1.5
v -1.114599 -3.704046 1.5
v -1.112778 -3.707456 1.5
v -1.100461 -3.787021 1.5
v -1.099345 -3.787014 1.5
v -1.087012 -3.747859 1.5
v -1.086389 -3.785562 1.5
v -1.070649 -3.767524 1.5
v -1.070896 -3.76438 1.5
v -1.110313 -3.710169 1.5
v -1.101403 -3.715739 1.5
v -1.071934 -3.679181 1.5
v -1.085761 -3.722548 1.5
v -1.057652 -3.684343 1.5
v -1.075976 -3.726507 1.5
v -1.05919 -3.735842 1.5
v -1.079868 -3.783175 1.5
v -1.077563 -3.781777 1.5
v -1.074663 -3.779202 1.5
v -1.11196 -3.686099 1.5
v -1.114127 -3.689315 1.5
v -1.115374 -3.692727 1.5
v -1.072457 -3.775939 1.5
v -1.071172 -3.772345 1.5
v -1.072045 -3.760433 1.5
v -1.073999 -3.757083 1.5
v -1.077148 -3.753804 1.5
v -1.102937 -3.807652 1.5
v -1.150544 -3.885878 1.5
v -1.021173 -3.849268 1.5
v -1.261034 -3.80595 1.5
v -1.261496 -3.805896 1.5
v -1.277995 -3.670247 1.5
v -1.277995 -3.694798 1.5
v -1.176282 -3.71151 1.5
v -1.176282 -3.804248 1.5
v -1.167668 -3.80595 1.5
v -1.201555 -3.804248 1.5
v -1.271186 -3.802243 1.5
v -1.279697 -3.796305 1.5
v -1.282491 -3.793476 1.5
v -1.202233 -3.661559 1.5
v -1.193882 -3.666408 1.5
v -1.201555 -3.781966 1.5
v -1.202226 -3.781966 1.5
v -1.2128 -3.658281 1.5
v -1.28775 -3.785722 1.5
v -1.290817 -3.777185 1.5
v -1.292076 -3.765667 1.5
v -1.209023 -3.791499 1.5
v -1.21739 -3.799075 1.5
v -1.221898 -3.80188 1.5
v -1.291973 -3.76199 1.5
v -1.290263 -3.751218 1.5
v -1.286699 -3.742374 1.5
v -1.281556 -3.735202 1.5
v -1.273663 -3.728534 1.5
v -1.26263 -3.723054 1.5
v -1.263023 -3.685024 1.5
v -1.244262 -3.718627 1.5
v -1.222187 -3.678262 1.5
v -1.230749 -3.677365 1.5
v -1.247259 -3.679256 1.5
v -1.272727 -3.667198 1.5
v -1.253925 -3.659927 1.5
v -1.228376 -3.656837 1.5
v -1.187181 -3.672913 1.5
v -1.182047 -3.681162 1.5
v -1.178134 -3.692817 1.5
v -1.201555 -3.712644 1.5
v -1.202435 -3.701469 1.5
v -1.205047 -3.69247 1.5
v -1.208017 -3.687265 1.5
v -1.211838 -3.683201 1.5
v -1.216325 -3.680309 1.5
v -1.246377 -3.807652 1.5
v -1.313197 -3.885878 1.5
v -1.232731 -3.80595 1.5
v -1.167668 -3.885878 1.5
v -1.682307 -3.43974 1.5
v -1.643401 -3.472657 1.5
v -1.507412 -3.280674 1.5
v -1.507412 -3.485853 1.5
v -1.865992 -3.263742 1.5
v -1.841539 -3.280674 1.5
v -1.809531 -3.302837 1.5
v -1.760185 -3.360582 1.5
v -1.732063 -3.416171 1.5
v -1.724996 -3.418547 1.5
v -2.059579 -3.80595 1.5
v -2.059711 -3.806506 1.5
v -1.507412 -3.885878 1.5
v -2.076682 -3.838481 1.5
v -2.098709 -3.86318 1.5
v -2.127283 -3.883065 1.5
v -1.596594 -3.55729 1.5
v -1.590037 -3.604103 1.5
v -1.876399 -3.721318 1.5
v -1.866556 -3.717429 1.5
v -1.8497 -3.635665 1.5
v -2.086409 -3.660053 1.5
v -1.894173 -3.559631 1.5
v -2.111481 -3.637224 1.5
v -2.141923 -3.620909 1.5
v -1.885221 -3.72757 1.5
v -1.61465 -3.700737 1.5
v -1.643118 -3.740391 1.5
v -1.679685 -3.592965 1.5
v -1.686424 -3.565411 1.5
v -1.697419 -3.545014 1.5
v -2.411366 -3.545014 1.5
v -1.596624 -3.655321 1.5
v -1.855439 -3.716002 1.5
v -1.854042 -3.716104 1.5
v -1.849738 -3.717057 1.5
v -2.402934 -3.631189 1.5
v -2.385839 -3.660281 1.5
v -2.312997 -3.675114 1.5
v -2.360118 -3.686706 1.5
v -2.328857 -3.70596 1.5
v -2.259944 -3.627617 1.5
v -2.289278 -3.647996 1.5
v -2.414933 -3.573977 1.5
v -2.413219 -3.596078 1.5
v -2.228256 -3.615497 1.5
v -2.194004 -3.611276 1.5
v -2.176552 -3.612312 1.5
v -1.68216 -3.773438 1.5
v -1.725933 -3.794856 1.5
v -1.773666 -3.804948 1.5
v -1.899911 -3.760475 1.5
v -1.899547 -3.754813 1.5
v -2.050544 -3.741825 1.5
v -1.896666 -3.743895 1.5
v -1.891149 -3.734107 1.5
v -1.708101 -3.681416 1.5
v -1.692317 -3.659041 1.5
v -1.682428 -3.633474 1.5
v -1.678982 -3.605538 1.5
v -1.858308 -3.804948 1.5
v -1.866389 -3.803645 1.5
v -1.875879 -3.79991 1.5
v -1.885183 -3.793295 1.5
v -1.888518 -3.789901 1.5
v -1.894771 -3.780889 1.5
v -1.89855 -3.771161 1.5
v -2.05132 -3.771091 1.5
v -2.050544 -3.756171 1.5
v -1.846831 -3.717437 1.5
v -1.782274 -3.717437 1.5
v -1.756526 -3.712504 1.5
v -1.731212 -3.700778 1.5
v -1.71 -3.683455 1.5
v -1.802358 -3.493639 1.5
v -2.398366 -3.507255 1.5
v -2.410656 -3.539251 1.5
v -1.790882 -3.493639 1.5
v -1.699765 -3.54066 1.5
v -1.716307 -3.522189 1.5
v -1.738557 -3.506649 1.5
v -1.763595 -3.497006 1.5
v -1.833273 -3.40747 1.5
v -1.86563 -3.368811 1.5
v -2.195439 -3.452036 1.5
v -1.869267 -3.365498 1.5
v -1.909574 -3.337528 1.5
v -2.173528 -3.406665 1.5
v -2.383472 -3.485853 1.5
v -2.205682 -3.446435 1.5
v -1.80407 -3.485853 1.5
v -1.811139 -3.453694 1.5
v -2.23785 -3.43468 1.5
v -2.271473 -3.430517 1.5
v -2.286392 -3.431293 1.5
v -2.141354 -3.368223 1.5
v -1.954562 -3.320292 1.5
v -2.102874 -3.340107 1.5
v -2.003202 -3.314314 1.5
v -2.056007 -3.321115 1.5
v -2.321808 -3.439683 1.5
v -2.353783 -3.456654 1.5
v -2.378481 -3.478682 1.5
v -1.633936 -3.485853 1.5
v -1.614126 -3.513473 1.5
v -1.601506 -3.545014 1.5
v -0.818556 -3.333687 1.5
v -0.8111 -3.35294 1.5
v -0.803877 -3.280674 1.5
v -0.879602 -3.280674 1.5
v -0.879602 -3.287261 1.5
v -0.859307 -3.294675 1.5
v -0.879602 -3.478934 1.5
v -0.879602 -3.485853 1.5
v -0.859318 -3.471028 1.5
v -0.803877 -3.485853 1.5
v -0.838184 -3.455886 1.5
v -0.823191 -3.438042 1.5
v -0.807753 -3.380685 1.5
v -0.808361 -3.393553 1.5
v -0.813252 -3.417174 1.5
v -0.838184 -3.309094 1.5
v -0.831039 -3.316086 1.5
v -0.991089 -3.280674 1.5
v -0.914469 -3.282376 1.5
v -0.883659 -3.285779 1.5
v -0.882333 -3.479998 1.5
v -0.916532 -3.484151 1.5
v -0.991089 -3.485853 1.5
v -0.972031 -3.484151 1.5
v -0.972031 -3.282376 1.5
v -0.839938 -3.713367 1.5
v -0.839938 -3.781244 1.5
v -0.803877 -3.713367 1.5
v -0.803877 -3.781244 1.5
v -0.76778 -3.713367 1.5
v -0.76778 -3.690259 1.5
v -0.803877 -3.690259 1.5
v -0.803877 -3.625683 1.5
v -0.839938 -3.690259 1.5
v -0.839938 -3.625683 1.5
v -1.038129 -3.280674 1.5
v -1.014738 -3.282376 1.5
v -1.038129 -3.282376 1.5
v -1.092621 -3.39327 1.5
v -1.092621 -3.461147 1.5
v -1.038129 -3.39327 1.5
v -1.038129 -3.461147 1.5
v -1.020463 -3.39327 1.5
v -1.010147 -3.461147 1.5
v -1.020463 -3.370163 1.5
v -1.014738 -3.305587 1.5
v -1.038129 -3.370163 1.5
v -1.038129 -3.305587 1.5
v -1.092621 -3.370163 1.5
v -1.092621 -3.305587 1.5
v -1.010147 -3.484151 1.5
v -1.038129 -3.485853 1.5
v -1.038129 -3.484151 1.5
v -1.118669 -3.484151 1.5
v -1.118669 -3.282376 1.5
v 0.21884 -4.197619 1.5
v 0.21884 -3.885878 1.5
v -0.549474 -4.197619 1.5
v -0.549474 -3.885878 1.5
v -0.585037 -4.197619 1.5
v -0.585037 -3.885878 1.5
v -0.803877 -4.197619 1.5
v -0.803877 -3.885878 1.5
v -0.879602 -4.197619 1.5
v -0.991089 -4.197619 1.5
v -1.038129 -4.197619 1.5
v -1.150544 -4.197619 1.5
v -1.167668 -4.197619 1.5
v -1.313197 -4.197619 1.5
v -1.317323 -4.197619 1.5
v -1.317323 -3.885878 1.5
v -1.231903 -3.805847 1.5
v 0.21884 -3.80595 1.5
v -0.515096 -3.804248 1.5
v -0.543877 -3.804248 1.5
v -0.391102 -3.804248 1.5
v -0.411682 -3.749059 1.5
v -0.495703 -3.749059 1.5
v -0.467025 -3.602473 1.5
v -0.439173 -3.602473 1.5
v -1.317323 -3.485853 1.5
v -0.549474 -3.485853 1.5
v -1.318381 -3.461147 1.5
v -1.318381 -3.484151 1.5
v -1.424787 -3.484151 1.5
v -1.39874 -3.282376 1.5
v -1.317323 -3.280674 1.5
v -1.424787 -3.282376 1.5
v -1.39874 -3.461147 1.5
v -0.76778 -3.484151 1.5
v -0.796561 -3.484151 1.5
v -0.691856 -3.282376 1.5
v -0.615004 -3.484151 1.5
v -0.643785 -3.484151 1.5
v -0.664365 -3.428962 1.5
v -0.748386 -3.428962 1.5
v -0.865985 -3.804248 1.5
v -0.803877 -3.804248 1.5
v -0.549474 -3.280674 1.5
v -0.585037 -3.280674 1.5
v -0.719709 -3.282376 1.5
v -0.362321 -3.804248 1.5
v 0.21884 -3.545014 1.5
v 0.21884 -3.485853 1.5
v 0.21884 -3.280674 1.5
v -1.317323 -2.014119 1.5
v -1.150544 -2.014119 1.5
v -1.038129 -2.014119 1.5
v -0.991089 -2.014119 1.5
v -0.879602 -2.014119 1.5
v 3.440068 -3.485853 1.5
v 3.380908 -3.545014 1.5
v 3.119972 -3.80595 1.5
v 3.040044 -3.885878 1.5
v 2.728303 -4.197619 1.5
v -0.879602 1.0983 1.5
v -0.991089 1.0983 1.5
v -1.038129 1.0983 1.5
v -1.150544 1.0983 1.5
v -1.167668 1.0983 1.5
v -1.313197 1.0983 1.5
v 2.728303 4.197619 1.5
v 0.21884 4.197619 1.5
v -0.549474 4.197619 1.5
v -0.585037 4.197619 1.5
v -0.803877 4.197619 1.5
v -0.879602 4.197619 1.5
v -0.991089 4.197619 1.5
v -1.038129 4.197619 1.5
v -1.150544 4.197619 1.5
v -1.167668 4.197619 1.5
v -1.313197 4.197619 1.5
v -2.728303 -4.197619 -1.5
v -2.862961 -4.062961 -1.5
v -2.75 -3.95 -1.5
v 2.75 -3.95 -1.5
v 2.862961 -4.062961 -1.5
v 2.728303 -4.197619 -1.5
v 4.197619 -2.728303 -1.5
v 4.062961 -2.862961 -1.5
v 3.95 -2.75 -1.5
v 2.728303 4.197619 -1.5
v 2.862961 4.062961 -1.5
v 2.75 3.95 -1.5
v 3.95 2.75 -1.5
v 4.062961 2.862961 -1.5
v 4.197619 2.728303 -1.5
v -2.728303 4.197619 -1.5
v -4.062961 -2.862961 -1.5
v -4.197619 -2.728303 -1.5
v -3.95 -2.75 -1.5
v -4.197619 2.728303 -1.5
v -3.95 2.75 -1.5
v -4.062961 2.862961 -1.5
v -2.862961 4.062961 -1.5
v -2.75 3.95 -1.5
v -2.867899 4.0679 -1.3
v -4.0679 2.867899 -1.3
v -4.25 2.75 0.0
v -2.75 4.25 0.0
v 2.867899 -4.0679 -1.3
v 4.0679 -2.867899 -1.3
v 4.25 -2.75 0.0
v 2.75 -4.25 0.0
v -4.25 -2.75 0.0
v 2.75 4.25 0.0
v 4.0679 2.867899 -1.3
v 2.867899 4.0679 -1.3
v 4.25 2.75 0.0
v -2.75 -4.25 0.0
v -4.0679 -2.867899 -1.3
v -2.867899 -4.0679 -1.3
v 0.8 -0.0 0.0
v 0.772741 0.207055 0.0
v 0.69282 0.4 0.0
v 0.565685 0.565685 0.0
v 0.4 0.69282 0.0
v 0.207055 0.772741 0.0
v 0.0 0.8 0.0
v -0.207055 0.772741 0.0
v -0.4 0.69282 0.0
v -0.565685 0.565685 0.0
v -0.69282 0.4 0.0
v -0.772741 0.207055 0.0
v -0.8 0.0 0.0
v -0.772741 -0.207055 0.0
v -0.69282 -0.4 0.0
v -0.565685 -0.565685 0.0
v -0.4 -0.69282 0.0
v -0.207055 -0.772741 0.0
v -0.0 -0.8 0.0
v 0.207055 -0.772741 0.0
v 0.4 -0.69282 0.0
v 0.565685 -0.565685 0.0
v 0.69282 -0.4 0.0
v 0.772741 -0.207055 0.0
v 0.0 0.0 0.0
v -1.392581 2.364572 1.55
v -1.400214 2.243253 1.55
v -1.460555 2.008238 1.55
v -1.577447 1.795613 1.55
v -1.743544 1.618737 1.55
v -1.94841 1.488726 1.55
v -2.179172 1.413746 1.55
v -2.421331 1.398511 1.55
v -2.659672 1.443977 1.55
v -2.879217 1.547287 1.55
v -3.066173 1.70195 1.55
v -3.208791 1.898248 1.55
v -3.298112 2.123847 1.55
v -3.328523 2.364572 1.55
v -3.298112 2.605297 1.55
v -3.208791 2.830896 1.55
v -3.066173 3.027194 1.55
v -2.879217 3.181857 1.55
v -2.659672 3.285167 1.55
v -2.421331 3.330633 1.55
v -2.179172 3.315398 1.55
v -1.94841 3.240418 1.55
v -1.743544 3.110406 1.55
v -1.577447 2.933531 1.55
v -1.460555 2.720906 1.55
v -1.400214 2.485891 1.55
v -2.283541 2.33307 1.55
v -2.283541 1.513558 1.55
v -2.429883 1.513558 1.55
v -2.429883 2.450143 1.55
v -3.103053 2.450143 1.55
v -3.103053 2.33307 1.55
v -2.429883 3.020875 1.55
v -2.283541 3.020875 1.55
v -2.283541 2.450143 1.55
v -1.61037 2.33307 1.55
v -2.429883 2.33307 1.55
v -1.61037 2.450143 1.55
v -2.283541 3.020875 1.6
v -2.429883 3.020875 1.6
v -2.283541 2.450143 1.6
v -2.429883 2.450143 1.6
v -2.429883 1.513558 1.6
v -2.283541 1.513558 1.6
v -2.429883 2.33307 1.6
v -2.283541 2.33307 1.6
v -1.61037 2.33307 1.6
v -1.61037 2.450143 1.6
v -3.103053 2.33307 1.6
v -3.103053 2.450143 1.6
v -3.05 -4.25 -1.51
v -3.05 -4.25 -1.3
v -4.25 -4.25 -1.51
newmtl 2
Ka 0.6666666666666666 0.6666666666666666 0.6666666666666666
Kd 0.6666666666666666 0.6666666666666666 0.6666666666666666
Ks 0.4666666666666667 0.4666666666666667 0.4666666666666667
d 0.0
endmtl
v -4.25 -4.25 -1.3
v -2.75 -3.95 -1.51
v -3.95 -2.75 -1.51
v -4.25 -3.05 -1.51
v -4.25 -3.05 -1.3
v 4.25 -4.25 -1.51
v 4.25 -4.25 -1.3
v 3.05 -4.25 -1.51
v 3.05 -4.25 -1.3
v 4.25 -3.05 -1.51
v 4.25 -3.05 -1.3
v 3.95 -2.75 -1.51
v 2.75 -3.95 -1.51
v 2.75 3.95 -1.51
v 3.05 4.25 -1.3
v 3.05 4.25 -1.51
v 3.95 2.75 -1.51
v 4.25 3.05 -1.51
v 4.25 3.05 -1.3
v -4.25 4.25 -1.51
v -4.25 4.25 -1.3
v -3.05 4.25 -1.51
v -3.05 4.25 -1.3
v -4.25 3.05 -1.51
v -4.25 3.05 -1.3
v -3.95 2.75 -1.51
v -2.75 3.95 -1.51
v -0.585501 -3.775983 1.51
v -0.606412 -3.76243 1.51
v -0.606635 -3.791125 1.51
newmtl 3
Ka 1.0 1.0 1.0
Kd 1.0 1.0 1.0
Ks 0.5019607843137255 0.5019607843137255 0.5019607843137255
d 0.0
endmtl
v -0.619434 -3.771465 1.51
v -0.629649 -3.800094 1.51
v -0.636113 -3.777921 1.51
v -0.663849 -3.804248 1.51
v -0.664004 -3.781244 1.51
v -0.719347 -3.804248 1.51
v -0.6933 -3.781244 1.51
v -0.719347 -3.602473 1.51
v -0.6933 -3.625683 1.51
v -0.661786 -3.602473 1.51
v -0.662817 -3.625683 1.51
v -0.660993 -3.625695 1.51
v -0.630975 -3.605875 1.51
v -0.635094 -3.628988 1.51
v -0.606624 -3.614771 1.51
v -0.617895 -3.635604 1.51
v -0.585501 -3.62919 1.51
v -0.604585 -3.644664 1.51
v -0.578356 -3.636183 1.51
v -0.598923 -3.65025 1.51
v -0.565873 -3.653783 1.51
v -0.591111 -3.66157 1.51
v -0.558417 -3.673036 1.51
v -0.585432 -3.676323 1.51
v -0.55507 -3.700781 1.51
v -0.582458 -3.701503 1.51
v -0.555677 -3.71365 1.51
v -0.583228 -3.715189 1.51
v -0.560569 -3.73727 1.51
v -0.587276 -3.733471 1.51
v -0.570508 -3.758138 1.51
v -0.594348 -3.748333 1.51
v -0.604018 -3.7602 1.51
v -0.604585 -3.644664 1.5
v -0.598923 -3.65025 1.5
v -0.591111 -3.66157 1.5
v -0.585432 -3.676323 1.5
v -0.582458 -3.701503 1.5
v -0.662817 -3.625683 1.5
v -0.660993 -3.625695 1.5
v -0.635094 -3.628988 1.5
v -0.617895 -3.635604 1.5
v -0.6933 -3.625683 1.5
v -0.6933 -3.781244 1.5
v -0.664004 -3.781244 1.5
v -0.604018 -3.7602 1.5
v -0.606412 -3.76243 1.5
v -0.619434 -3.771465 1.5
v -0.636113 -3.777921 1.5
v -0.583228 -3.715189 1.5
v -0.587276 -3.733471 1.5
v -0.594348 -3.748333 1.5
v -0.958775 -3.768659 1.51
v -0.960709 -3.775377 1.51
v -0.96187 -3.780315 1.51
v -0.96254 -3.780315 1.51
v -0.965635 -3.768452 1.51
v -1.003287 -3.660137 1.51
v -1.031552 -3.660137 1.51
v -0.975022 -3.803938 1.51
v -0.986112 -3.83014 1.51
v -0.991126 -3.83931 1.51
v -0.995834 -3.844549 1.51
v -1.000162 -3.847578 1.51
v -1.005668 -3.849718 1.51
v -1.012004 -3.850462 1.51
v -1.021173 -3.849268 1.51
v -1.026343 -3.847574 1.51
v -1.026343 -3.870062 1.51
v -1.015623 -3.871925 1.51
v -1.010044 -3.872125 1.51
v -0.999834 -3.870951 1.51
v -0.989861 -3.867152 1.51
v -0.981033 -3.860982 1.51
v -0.97931 -3.859403 1.51
v -0.970062 -3.848296 1.51
v -0.95862 -3.826014 1.51
v -0.893219 -3.660137 1.51
v -0.919421 -3.660137 1.51
v -1.102937 -3.807652 1.51
v -1.08033 -3.804998 1.51
v -1.066985 -3.799898 1.51
v -1.060952 -3.796202 1.51
v -1.053722 -3.789878 1.51
v -1.049011 -3.783212 1.51
v -1.045907 -3.775203 1.51
v -1.044705 -3.765048 1.51
v -1.04575 -3.755633 1.51
v -1.048447 -3.748181 1.51
v -1.053164 -3.741219 1.51
v -1.05919 -3.735842 1.51
v -1.075976 -3.726507 1.51
v -1.085761 -3.722548 1.51
v -1.101403 -3.715739 1.51
v -1.110313 -3.710169 1.51
v -1.112778 -3.707456 1.51
v -1.114599 -3.704046 1.51
v -1.115601 -3.70012 1.51
v -1.115832 -3.696758 1.51
v -1.115374 -3.692727 1.51
v -1.114127 -3.689315 1.51
v -1.11196 -3.686099 1.51
v -1.108147 -3.682729 1.51
v -1.102479 -3.679715 1.51
v -1.095719 -3.677926 1.51
v -1.088237 -3.677365 1.51
v -1.071934 -3.679181 1.51
v -1.057652 -3.684343 1.51
v -1.051617 -3.687784 1.51
v -1.051617 -3.663232 1.51
v -1.068031 -3.658409 1.51
v -1.085761 -3.656837 1.51
v -1.103554 -3.658677 1.51
v -1.117581 -3.663511 1.51
v -1.125683 -3.668287 1.51
v -1.133176 -3.675023 1.51
v -1.137872 -3.681854 1.51
v -1.140882 -3.689991 1.51
v -1.141879 -3.699028 1.51
v -1.140792 -3.70884 1.51
v -1.138005 -3.716558 1.51
v -1.13471 -3.721825 1.51
v -1.130575 -3.72615 1.51
v -1.118672 -3.734004 1.51
v -1.103608 -3.74091 1.51
v -1.087012 -3.747859 1.51
v -1.077148 -3.753804 1.51
v -1.073999 -3.757083 1.51
v -1.072045 -3.760433 1.51
v -1.070896 -3.76438 1.51
v -1.070649 -3.767524 1.51
v -1.071172 -3.772345 1.51
v -1.072457 -3.775939 1.51
v -1.074663 -3.779202 1.51
v -1.077563 -3.781777 1.51
v -1.079868 -3.783175 1.51
v -1.086389 -3.785562 1.51
v -1.099345 -3.787014 1.51
v -1.100461 -3.787021 1.51
v -1.116143 -3.785208 1.51
v -1.131997 -3.779286 1.51
v -1.142034 -3.773094 1.51
v -1.142034 -3.799193 1.51
v -1.126519 -3.804901 1.51
v -1.201555 -3.804248 1.51
v -1.176282 -3.804248 1.51
v -1.201555 -3.781966 1.51
v -1.176282 -3.71151 1.51
v -1.235288 -3.736474 1.51
v -1.201555 -3.731935 1.51
v -1.201555 -3.745758 1.51
v -1.202226 -3.781966 1.51
v -1.215556 -3.778255 1.51
v -1.209023 -3.791499 1.51
v -1.222698 -3.783074 1.51
v -1.273663 -3.728534 1.51
v -1.281556 -3.735202 1.51
v -1.262761 -3.74909 1.51
v -1.20158 -3.747435 1.51
v -1.203207 -3.758712 1.51
v -1.206914 -3.767729 1.51
v -1.212387 -3.775157 1.51
v -1.277995 -3.670247 1.51
v -1.277995 -3.694798 1.51
v -1.272727 -3.667198 1.51
v -1.263023 -3.685024 1.51
v -1.253925 -3.659927 1.51
v -1.247259 -3.679256 1.51
v -1.228376 -3.656837 1.51
v -1.230749 -3.677365 1.51
v -1.2128 -3.658281 1.51
v -1.222187 -3.678262 1.51
v -1.202233 -3.661559 1.51
v -1.216325 -3.680309 1.51
v -1.193882 -3.666408 1.51
v -1.211838 -3.683201 1.51
v -1.187181 -3.672913 1.51
v -1.208017 -3.687265 1.51
v -1.182047 -3.681162 1.51
v -1.205047 -3.69247 1.51
v -1.178134 -3.692817 1.51
v -1.202435 -3.701469 1.51
v -1.201555 -3.712644 1.51
v -1.264979 -3.753805 1.51
v -1.286699 -3.742374 1.51
v -1.266227 -3.759593 1.51
v -1.244262 -3.718627 1.51
v -1.256694 -3.742975 1.51
v -1.250877 -3.740132 1.51
v -1.261266 -3.778258 1.51
v -1.279697 -3.796305 1.51
v -1.259117 -3.780419 1.51
v -1.271186 -3.802243 1.51
v -1.25408 -3.783858 1.51
v -1.261496 -3.805896 1.51
v -1.248363 -3.785956 1.51
v -1.246377 -3.807652 1.51
v -1.239827 -3.786917 1.51
v -1.231903 -3.805847 1.51
v -1.230366 -3.78586 1.51
v -1.221898 -3.80188 1.51
v -1.21739 -3.799075 1.51
v -1.259736 -3.745345 1.51
v -1.26263 -3.723054 1.51
v -1.290263 -3.751218 1.51
v -1.291973 -3.76199 1.51
v -1.266441 -3.763604 1.51
v -1.292076 -3.765667 1.51
v -1.265799 -3.769406 1.51
v -1.290817 -3.777185 1.51
v -1.264138 -3.773998 1.51
v -1.28775 -3.785722 1.51
v -1.282491 -3.793476 1.51
v -1.212387 -3.775157 1.5
v -1.215556 -3.778255 1.5
v -1.222698 -3.783074 1.5
v -1.230366 -3.78586 1.5
v -1.239827 -3.786917 1.5
v -1.201555 -3.745758 1.5
v -1.20158 -3.747435 1.5
v -1.203207 -3.758712 1.5
v -1.206914 -3.767729 1.5
v -1.201555 -3.731935 1.5
v -1.235288 -3.736474 1.5
v -1.259736 -3.745345 1.5
v -1.256694 -3.742975 1.5
v -1.250877 -3.740132 1.5
v -1.266441 -3.763604 1.5
v -1.266227 -3.759593 1.5
v -1.264979 -3.753805 1.5
v -1.262761 -3.74909 1.5
v -1.259117 -3.780419 1.5
v -1.261266 -3.778258 1.5
v -1.264138 -3.773998 1.5
v -1.265799 -3.769406 1.5
v -1.248363 -3.785956 1.5
v -1.25408 -3.783858 1.5
v -2.315902 -3.832864 1.51
v -2.294564 -3.859193 1.51
v -2.328857 -3.70596 1.51
v -2.353783 -3.456654 1.51
v -2.321808 -3.439683 1.51
v -2.329411 -3.351419 1.51
v -2.239912 -3.34731 1.51
v -2.195439 -3.452036 1.51
v -2.173528 -3.406665 1.51
v -2.050544 -3.756171 1.51
v -2.050544 -3.741825 1.51
v -2.172302 -3.706697 1.51
v -2.185833 -3.702492 1.51
v -2.360118 -3.686706 1.51
v -2.348396 -3.796663 1.51
v -2.330292 -3.802078 1.51
v -2.272907 -3.344441 1.51
v -2.150757 -3.723946 1.51
v -2.144032 -3.735463 1.51
v -2.05132 -3.771091 1.51
v -1.8497 -3.635665 1.51
v -1.894173 -3.559631 1.51
v -2.086409 -3.660053 1.51
v -2.195439 -3.701656 1.51
v -2.209157 -3.703375 1.51
v -2.228256 -3.615497 1.51
v -2.221708 -3.708245 1.51
v -2.259944 -3.627617 1.51
v -2.232964 -3.71615 1.51
v -2.289278 -3.647996 1.51
v -2.239519 -3.723166 1.51
v -2.312997 -3.675114 1.51
v -2.246727 -3.73519 1.51
v -2.250701 -3.748774 1.51
v -2.251156 -3.762769 1.51
v -2.141923 -3.620909 1.51
v -2.176552 -3.612312 1.51
v -2.194004 -3.611276 1.51
v -2.160404 -3.714031 1.51
v -1.802358 -3.493639 1.51
v -1.790882 -3.493639 1.51
v -1.732063 -3.416171 1.51
v -1.763595 -3.497006 1.51
v -1.724996 -3.418547 1.51
v -1.738557 -3.506649 1.51
v -1.682307 -3.43974 1.51
v -1.643401 -3.472657 1.51
v -2.210502 -3.313059 1.51
v -2.141354 -3.368223 1.51
v -2.176789 -3.284187 1.51
v -2.102874 -3.340107 1.51
v -2.136449 -3.259738 1.51
v -2.286392 -3.431293 1.51
v -2.271473 -3.430517 1.51
v -2.256409 -3.345337 1.51
v -2.23785 -3.43468 1.51
v -2.205682 -3.446435 1.51
v -2.248262 -3.776123 1.51
v -2.24237 -3.788074 1.51
v -2.111481 -3.637224 1.51
v -1.643118 -3.740391 1.51
v -1.71 -3.683455 1.51
v -1.68216 -3.773438 1.51
v -1.731212 -3.700778 1.51
v -1.725933 -3.794856 1.51
v -1.756526 -3.712504 1.51
v -1.773666 -3.804948 1.51
v -1.782274 -3.717437 1.51
v -1.858308 -3.804948 1.51
v -1.846831 -3.717437 1.51
v -1.866389 -3.803645 1.51
v -1.716307 -3.522189 1.51
v -1.699765 -3.54066 1.51
v -1.614126 -3.513473 1.51
v -1.686424 -3.565411 1.51
v -1.596594 -3.55729 1.51
v -1.679685 -3.592965 1.51
v -1.590037 -3.604103 1.51
v -1.678982 -3.605538 1.51
v -1.596624 -3.655321 1.51
v -1.682428 -3.633474 1.51
v -1.61465 -3.700737 1.51
v -1.692317 -3.659041 1.51
v -1.708101 -3.681416 1.51
v -1.809531 -3.302837 1.51
v -1.86563 -3.368811 1.51
v -1.760185 -3.360582 1.51
v -1.833273 -3.40747 1.51
v -1.811139 -3.453694 1.51
v -2.410656 -3.539251 1.51
v -2.504906 -3.563052 1.51
v -2.414933 -3.573977 1.51
v -2.505313 -3.576846 1.51
v -2.413219 -3.596078 1.51
v -2.498379 -3.633009 1.51
v -2.402934 -3.631189 1.51
v -2.477833 -3.686419 1.51
v -2.385839 -3.660281 1.51
v -2.44506 -3.733217 1.51
v -2.400249 -3.771418 1.51
v -2.069927 -3.235612 1.51
v -2.056007 -3.321115 1.51
v -2.004637 -3.228238 1.51
v -2.003202 -3.314314 1.51
v -1.937232 -3.236328 1.51
v -1.954562 -3.320292 1.51
v -1.865992 -3.263742 1.51
v -1.909574 -3.337528 1.51
v -1.869267 -3.365498 1.51
v -2.382555 -3.372049 1.51
v -2.428188 -3.404123 1.51
v -2.378481 -3.478682 1.51
v -2.437886 -3.413301 1.51
v -2.398366 -3.507255 1.51
v -2.472365 -3.457493 1.51
v -2.495265 -3.509136 1.51
v -2.140221 -3.748501 1.51
v -2.139696 -3.7624 1.51
v -2.059711 -3.806506 1.51
v -2.142717 -3.776272 1.51
v -2.076682 -3.838481 1.51
v -2.149058 -3.788828 1.51
v -2.098709 -3.86318 1.51
v -2.158165 -3.799304 1.51
v -2.127283 -3.883065 1.51
v -2.169131 -3.807003 1.51
v -2.159279 -3.895354 1.51
v -2.181607 -3.811841 1.51
v -2.194004 -3.899631 1.51
v -2.195439 -3.813555 1.51
v -2.199528 -3.899529 1.51
v -2.197888 -3.813501 1.51
v -2.2334 -3.894248 1.51
v -2.210767 -3.811401 1.51
v -2.2665 -3.880343 1.51
v -2.223735 -3.80583 1.51
v -2.234711 -3.797416 1.51
v -1.854042 -3.716104 1.51
v -1.888518 -3.789901 1.51
v -1.885183 -3.793295 1.51
v -1.849738 -3.717057 1.51
v -1.875879 -3.79991 1.51
v -1.899911 -3.760475 1.51
v -1.89855 -3.771161 1.51
v -1.894771 -3.780889 1.51
v -1.866556 -3.717429 1.51
v -1.876399 -3.721318 1.51
v -1.899547 -3.754813 1.51
v -1.885221 -3.72757 1.51
v -1.891149 -3.734107 1.51
v -1.896666 -3.743895 1.51
v -1.855439 -3.716002 1.51
v -2.195439 -3.701656 1.5
v -2.185833 -3.702492 1.5
v -2.172302 -3.706697 1.5
v -2.160404 -3.714031 1.5
v -2.150757 -3.723946 1.5
v -2.144032 -3.735463 1.5
v -2.140221 -3.748501 1.5
v -2.139696 -3.7624 1.5
v -2.142717 -3.776272 1.5
v -2.149058 -3.788828 1.5
v -2.158165 -3.799304 1.5
v -2.169131 -3.807003 1.5
v -2.181607 -3.811841 1.5
v -2.195439 -3.813555 1.5
v -2.197888 -3.813501 1.5
v -2.210767 -3.811401 1.5
v -2.223735 -3.80583 1.5
v -2.234711 -3.797416 1.5
v -2.24237 -3.788074 1.5
v -2.248262 -3.776123 1.5
v -2.251156 -3.762769 1.5
v -2.250701 -3.748774 1.5
v -2.246727 -3.73519 1.5
v -2.239519 -3.723166 1.5
v -2.232964 -3.71615 1.5
v -2.221708 -3.708245 1.5
v -2.209157 -3.703375 1.5
v -0.838184 -3.455886 1.51
v -0.859095 -3.442333 1.51
v -0.859318 -3.471028 1.51
v -0.872118 -3.451369 1.51
v -0.882333 -3.479998 1.51
v -0.888796 -3.457825 1.51
v -0.916532 -3.484151 1.51
v -0.916687 -3.461147 1.51
v -0.972031 -3.484151 1.51
v -0.945984 -3.461147 1.51
v -0.972031 -3.282376 1.51
v -0.945984 -3.305587 1.51
v -0.914469 -3.282376 1.51
v -0.915501 -3.305587 1.51
v -0.913676 -3.305599 1.51
v -0.883659 -3.285779 1.51
v -0.887777 -3.308892 1.51
v -0.859307 -3.294675 1.51
v -0.870578 -3.315508 1.51
v -0.838184 -3.309094 1.51
v -0.857269 -3.324567 1.51
v -0.831039 -3.316086 1.51
v -0.851606 -3.330153 1.51
v -0.818556 -3.333687 1.51
v -0.843794 -3.341474 1.51
v -0.8111 -3.35294 1.51
v -0.838115 -3.356226 1.51
v -0.807753 -3.380685 1.51
v -0.835141 -3.381407 1.51
v -0.808361 -3.393553 1.51
v -0.835911 -3.395092 1.51
v -0.813252 -3.417174 1.51
v -0.839959 -3.413375 1.51
v -0.823191 -3.438042 1.51
v -0.847031 -3.428236 1.51
v -0.856701 -3.440103 1.51
v -0.857269 -3.324567 1.5
v -0.851606 -3.330153 1.5
v -0.843794 -3.341474 1.5
v -0.838115 -3.356226 1.5
v -0.835141 -3.381407 1.5
v -0.915501 -3.305587 1.5
v -0.913676 -3.305599 1.5
v -0.887777 -3.308892 1.5
v -0.870578 -3.315508 1.5
v -0.945984 -3.305587 1.5
v -0.945984 -3.461147 1.5
v -0.916687 -3.461147 1.5
v -0.856701 -3.440103 1.5
v -0.859095 -3.442333 1.5
v -0.872118 -3.451369 1.5
v -0.888796 -3.457825 1.5
v -0.835911 -3.395092 1.5
v -0.839959 -3.413375 1.5
v -0.847031 -3.428236 1.5
v -1.211149 -3.464345 1.51
v -1.228899 -3.462508 1.51
v -1.243726 -3.45741 1.51
v -1.257364 -3.448478 1.51
v -1.262985 -3.443095 1.51
v -1.272268 -3.430426 1.51
v -1.279003 -3.414362 1.51
v -1.28247 -3.394525 1.51
v -1.282791 -3.385533 1.51
v -1.279482 -3.357871 1.51
v -1.272731 -3.340432 1.51
v -1.262985 -3.326404 1.51
v -1.261593 -3.324877 1.51
v -1.249075 -3.314323 1.51
v -1.233366 -3.30664 1.51
v -1.216034 -3.302951 1.51
v -1.20661 -3.302492 1.51
v -1.161301 -3.313245 1.51
v -1.181769 -3.305458 1.51
v -1.159055 -3.314458 1.51
v -1.159055 -3.287225 1.51
v -1.180447 -3.281048 1.51
v -1.206868 -3.278972 1.51
v -1.235994 -3.282505 1.51
v -1.257086 -3.29068 1.51
v -1.275978 -3.303903 1.51
v -1.280986 -3.308681 1.51
v -1.295613 -3.327789 1.51
v -1.305197 -3.350202 1.51
v -1.309773 -3.376543 1.51
v -1.310128 -3.38708 1.51
v -1.306165 -3.419866 1.51
v -1.297959 -3.440934 1.51
v -1.285927 -3.458166 1.51
v -1.284236 -3.460013 1.51
v -1.214914 -3.487556 1.51
v -1.230871 -3.486549 1.51
v -1.270731 -3.471686 1.51
v -1.252117 -3.481373 1.51
v -1.159055 -3.475796 1.51
v -1.162497 -3.477511 1.51
v -1.18416 -3.484616 1.51
v -1.159055 -3.450832 1.51
v -1.17894 -3.459757 1.51
v -1.201767 -3.463997 1.51
v -0.48745 -3.726261 1.51
v -0.495703 -3.749059 1.51
v -0.419728 -3.726261 1.51
v -0.411682 -3.749059 1.51
v -0.457277 -3.642395 1.51
v -0.467025 -3.602473 1.51
v -0.543877 -3.804248 1.51
v -0.515096 -3.804248 1.51
v -0.45553 -3.636373 1.51
v -0.453976 -3.628262 1.51
v -0.439173 -3.602473 1.51
v -0.453357 -3.628262 1.51
v -0.451726 -3.636798 1.51
v -0.450211 -3.642395 1.51
v -0.362321 -3.804248 1.51
v -0.391102 -3.804248 1.51
v -0.457277 -3.642395 1.5
v -0.45553 -3.636373 1.5
v -0.453976 -3.628262 1.5
v -0.48745 -3.726261 1.5
v -0.419728 -3.726261 1.5
v -0.450211 -3.642395 1.5
v -0.453357 -3.628262 1.5
v -0.451726 -3.636798 1.5
v -0.839938 -3.781244 1.51
v -0.757464 -3.781244 1.51
v -0.839938 -3.713367 1.51
v -0.76778 -3.713367 1.51
v -0.76778 -3.690259 1.51
v -0.839938 -3.690259 1.51
v -0.839938 -3.625683 1.51
v -0.762055 -3.625683 1.51
v -0.762055 -3.602473 1.51
v -0.865985 -3.602473 1.51
v -0.865985 -3.804248 1.51
v -0.757464 -3.804248 1.51
v -1.39874 -3.781244 1.51
v -1.316266 -3.781244 1.51
v -1.39874 -3.713367 1.51
v -1.326582 -3.713367 1.51
v -1.326582 -3.690259 1.51
v -1.39874 -3.690259 1.51
v -1.39874 -3.625683 1.51
v -1.320856 -3.625683 1.51
v -1.320856 -3.602473 1.51
v -1.424787 -3.602473 1.51
v -1.424787 -3.804248 1.51
v -1.316266 -3.804248 1.51
v -0.740134 -3.406165 1.51
v -0.748386 -3.428962 1.51
v -0.672411 -3.406165 1.51
v -0.664365 -3.428962 1.51
v -0.70996 -3.322298 1.51
v -0.719709 -3.282376 1.51
v -0.796561 -3.484151 1.51
v -0.76778 -3.484151 1.51
v -0.708213 -3.316276 1.51
v -0.706659 -3.308165 1.51
v -0.691856 -3.282376 1.51
v -0.70604 -3.308165 1.51
v -0.704409 -3.316702 1.51
v -0.702894 -3.322298 1.51
v -0.615004 -3.484151 1.51
v -0.643785 -3.484151 1.51
v -0.70996 -3.322298 1.5
v -0.708213 -3.316276 1.5
v -0.706659 -3.308165 1.5
v -0.740134 -3.406165 1.5
v -0.672411 -3.406165 1.5
v -0.702894 -3.322298 1.5
v -0.70604 -3.308165 1.5
v -0.704409 -3.316702 1.5
v -1.092621 -3.461147 1.51
v -1.010147 -3.461147 1.51
v -1.092621 -3.39327 1.51
v -1.020463 -3.39327 1.51
v -1.020463 -3.370163 1.51
v -1.092621 -3.370163 1.51
v -1.092621 -3.305587 1.51
v -1.014738 -3.305587 1.51
v -1.014738 -3.282376 1.51
v -1.118669 -3.282376 1.51
v -1.118669 -3.484151 1.51
v -1.010147 -3.484151 1.51
v -1.39874 -3.461147 1.51
v -1.318381 -3.461147 1.51
v -1.39874 -3.282376 1.51
v -1.424787 -3.282376 1.51
v -1.424787 -3.484151 1.51
v -1.318381 -3.484151 1.51
usemtl 1
f 1// 2// 3//
f 4// 5// 6//
f 7// 8// 9//
f 10// 11// 12//
f 13// 14// 15//
f 16// 17// 18//
f 19// 20// 21//
f 22// 23// 21//
f 21// 23// 24//
f 21// 24// 19//
f 25// 26// 27//
f 27// 28// 29//
f 30// 31// 32//
f 32// 31// 33//
f 32// 33// 34//
f 29// 34// 27//
f 27// 34// 33//
f 27// 33// 25//
f 25// 33// 35//
f 20// 19// 36//
f 36// 19// 37//
f 36// 37// 38//
f 39// 40// 41//
f 41// 40// 42//
f 41// 42// 43//
f 43// 44// 41//
f 41// 44// 45//
f 41// 45// 46//
f 46// 47// 41//
f 41// 47// 48//
f 41// 48// 49//
f 49// 50// 41//
f 41// 50// 51//
f 41// 51// 52//
f 52// 51// 53//
f 53// 51// 54//
f 54// 51// 55//
f 54// 55// 56//
f 56// 57// 54//
f 54// 57// 58//
f 54// 58// 59//
f 59// 58// 60//
f 39// 41// 61//
f 61// 41// 62//
f 61// 62// 63//
f 63// 62// 64//
f 63// 64// 65//
f 66// 67// 68//
f 68// 67// 69//
f 68// 69// 65//
f 65// 69// 70//
f 65// 70// 63//
f 71// 72// 73//
f 73// 72// 74//
f 75// 76// 77//
f 78// 79// 77//
f 77// 79// 80//
f 81// 82// 83//
f 82// 84// 83//
f 83// 84// 85//
f 83// 85// 86//
f 80// 87// 77//
f 77// 87// 88//
f 77// 88// 75//
f 86// 89// 83//
f 83// 89// 90//
f 83// 90// 91//
f 92// 35// 93//
f 93// 35// 94//
f 93// 94// 95//
f 62// 96// 64//
f 64// 96// 97//
f 64// 97// 98//
f 98// 97// 99//
f 98// 99// 100//
f 101// 102// 103//
f 103// 102// 104//
f 105// 106// 107//
f 103// 18// 101//
f 101// 18// 17//
f 101// 17// 108//
f 108// 17// 105//
f 108// 105// 109//
f 109// 105// 107//
f 110// 111// 6//
f 6// 111// 112//
f 113// 111// 114//
f 114// 111// 110//
f 114// 110// 115//
f 116// 117// 118//
f 119// 120// 110//
f 110// 120// 121//
f 110// 121// 115//
f 122// 123// 124//
f 124// 123// 125//
f 124// 125// 116//
f 116// 125// 126//
f 116// 126// 117//
f 127// 128// 110//
f 110// 128// 129//
f 110// 129// 119//
f 130// 131// 132//
f 130// 132// 133//
f 131// 134// 132//
f 132// 134// 135//
f 132// 135// 124//
f 124// 135// 136//
f 124// 136// 122//
f 137// 138// 139//
f 140// 141// 142//
f 137// 139// 143//
f 142// 141// 144//
f 145// 146// 147//
f 148// 149// 150//
f 150// 149// 151//
f 150// 151// 142//
f 142// 151// 152//
f 142// 152// 140//
f 141// 153// 144//
f 144// 153// 154//
f 144// 154// 155//
f 138// 156// 139//
f 139// 156// 157//
f 139// 157// 145//
f 145// 157// 158//
f 145// 158// 146//
f 147// 159// 145//
f 145// 159// 160//
f 145// 160// 150//
f 150// 160// 161//
f 150// 161// 148//
f 155// 162// 144//
f 144// 162// 163//
f 144// 163// 164//
f 164// 163// 165//
f 166// 167// 168//
f 168// 167// 169//
f 168// 169// 139//
f 139// 169// 170//
f 139// 170// 143//
f 13// 15// 171//
f 172// 173// 174//
f 174// 173// 175//
f 172// 176// 173//
f 173// 176// 177//
f 173// 177// 178//
f 178// 177// 179//
f 178// 179// 180//
f 181// 182// 183//
f 181// 183// 12//
f 12// 183// 184//
f 12// 184// 10//
f 185// 186// 181//
f 181// 186// 187//
f 181// 187// 182//
f 188// 189// 190//
f 190// 189// 191//
f 190// 191// 185//
f 185// 191// 192//
f 185// 192// 186//
f 9// 8// 193//
f 8// 194// 193//
f 193// 194// 195//
f 193// 195// 196//
f 196// 195// 197//
f 196// 197// 198//
f 14// 199// 15//
f 15// 199// 200//
f 15// 200// 9//
f 9// 200// 201//
f 9// 201// 7//
f 202// 12// 173//
f 173// 12// 11//
f 173// 11// 175//
f 180// 171// 178//
f 178// 171// 15//
f 178// 15// 203//
f 203// 15// 204//
f 205// 206// 207//
f 207// 206// 208//
f 207// 208// 209//
f 208// 210// 209//
f 209// 210// 211//
f 209// 211// 212//
f 212// 211// 213//
f 212// 213// 214//
f 215// 216// 217//
f 215// 217// 218//
f 214// 219// 212//
f 212// 219// 220//
f 212// 220// 217//
f 217// 220// 221//
f 217// 221// 218//
f 218// 221// 222//
f 216// 223// 217//
f 217// 223// 224//
f 217// 224// 225//
f 225// 224// 226//
f 226// 227// 225//
f 225// 227// 228//
f 225// 228// 229//
f 228// 230// 229//
f 229// 230// 231//
f 229// 231// 232//
f 232// 231// 233//
f 232// 233// 234//
f 235// 236// 237//
f 237// 236// 238//
f 237// 238// 239//
f 234// 240// 232//
f 232// 240// 241//
f 232// 241// 242//
f 243// 244// 245//
f 245// 244// 246//
f 247// 248// 232//
f 246// 244// 249//
f 249// 244// 247//
f 249// 247// 250//
f 250// 247// 232//
f 250// 232// 235//
f 235// 232// 242//
f 235// 242// 236//
f 251// 252// 253//
f 253// 252// 254//
f 253// 254// 255//
f 256// 257// 258//
f 256// 258// 259//
f 257// 260// 258//
f 258// 260// 261//
f 258// 261// 254//
f 254// 261// 262//
f 254// 262// 255//
f 263// 264// 265//
f 265// 264// 266//
f 267// 268// 2//
f 268// 269// 2//
f 2// 269// 270//
f 2// 270// 259//
f 271// 272// 1//
f 1// 272// 266//
f 1// 266// 2//
f 2// 266// 264//
f 2// 264// 267//
f 273// 252// 274//
f 251// 275// 252//
f 252// 275// 276//
f 252// 276// 277//
f 277// 278// 252//
f 252// 278// 263//
f 252// 263// 274//
f 274// 263// 279//
f 280// 281// 282//
f 282// 281// 283//
f 284// 285// 286//
f 16// 18// 112//
f 112// 18// 286//
f 112// 286// 6//
f 6// 286// 285//
f 6// 285// 287//
f 288// 289// 6//
f 6// 289// 290//
f 291// 292// 287//
f 287// 292// 293//
f 287// 293// 6//
f 6// 293// 294//
f 6// 294// 288//
f 295// 296// 297//
f 296// 298// 297//
f 297// 298// 299//
f 297// 299// 300//
f 300// 299// 301//
f 301// 302// 300//
f 300// 302// 303//
f 300// 303// 304//
f 290// 305// 6//
f 6// 305// 306//
f 6// 306// 4//
f 304// 307// 300//
f 300// 307// 308//
f 300// 308// 286//
f 286// 308// 309//
f 286// 309// 284//
f 310// 311// 312//
f 312// 311// 313//
f 312// 313// 297//
f 297// 313// 314//
f 297// 314// 295//
f 315// 316// 317//
f 317// 316// 318//
f 317// 318// 319//
f 317// 320// 315//
f 315// 320// 321//
f 315// 321// 322//
f 310// 323// 311//
f 311// 323// 324//
f 311// 324// 325//
f 325// 324// 326//
f 325// 327// 328//
f 322// 329// 315//
f 315// 329// 330//
f 315// 330// 331//
f 331// 330// 332//
f 331// 332// 333//
f 333// 332// 334//
f 333// 334// 287//
f 287// 334// 335//
f 287// 335// 291//
f 326// 336// 325//
f 325// 336// 337//
f 325// 337// 338//
f 339// 340// 319//
f 319// 340// 341//
f 319// 341// 317//
f 338// 342// 325//
f 325// 342// 343//
f 325// 343// 327//
f 328// 344// 325//
f 325// 344// 345//
f 325// 345// 346//
f 347// 348// 5//
f 5// 348// 116//
f 5// 116// 6//
f 6// 116// 118//
f 6// 118// 110//
f 110// 118// 349//
f 110// 349// 127//
f 37// 350// 351//
f 33// 38// 35//
f 35// 38// 37//
f 35// 37// 352//
f 352// 37// 353//
f 354// 355// 356//
f 356// 355// 357//
f 351// 358// 37//
f 37// 358// 359//
f 37// 359// 360//
f 361// 362// 94//
f 357// 363// 364//
f 361// 94// 365//
f 360// 366// 37//
f 37// 366// 367//
f 37// 367// 368//
f 364// 369// 357//
f 357// 369// 370//
f 357// 370// 371//
f 368// 372// 37//
f 37// 372// 373//
f 37// 373// 353//
f 353// 373// 374//
f 353// 374// 375//
f 375// 376// 353//
f 353// 376// 377//
f 353// 377// 378//
f 378// 377// 379//
f 380// 381// 379//
f 379// 381// 382//
f 379// 382// 378//
f 352// 383// 35//
f 35// 383// 384//
f 35// 384// 94//
f 94// 384// 385//
f 94// 385// 365//
f 362// 386// 94//
f 94// 386// 387//
f 94// 387// 388//
f 389// 390// 379//
f 379// 390// 391//
f 379// 391// 392//
f 392// 393// 379//
f 379// 393// 394//
f 379// 394// 380//
f 395// 396// 397//
f 397// 396// 398//
f 399// 400// 401//
f 401// 400// 402//
f 403// 404// 401//
f 401// 404// 405//
f 401// 405// 406//
f 406// 407// 401//
f 401// 407// 408//
f 401// 408// 399//
f 409// 410// 411//
f 410// 412// 411//
f 411// 412// 413//
f 411// 413// 414//
f 415// 416// 23//
f 417// 418// 419//
f 420// 421// 422//
f 422// 421// 423//
f 417// 419// 424//
f 425// 426// 24//
f 427// 428// 421//
f 421// 428// 429//
f 421// 429// 430//
f 23// 416// 24//
f 24// 416// 431//
f 24// 431// 425//
f 418// 432// 419//
f 419// 432// 433//
f 419// 433// 434//
f 435// 436// 437//
f 437// 436// 438//
f 437// 438// 439//
f 440// 430// 441//
f 441// 430// 442//
f 441// 442// 437//
f 437// 442// 443//
f 437// 443// 435//
f 440// 444// 430//
f 430// 444// 445//
f 430// 445// 421//
f 421// 445// 446//
f 421// 446// 423//
f 426// 447// 24//
f 24// 447// 448//
f 24// 448// 449//
f 450// 451// 452//
f 452// 451// 453//
f 452// 453// 419//
f 419// 453// 454//
f 419// 454// 424//
f 455// 456// 419//
f 419// 456// 457//
f 419// 457// 421//
f 421// 457// 458//
f 421// 458// 427//
f 459// 460// 409//
f 460// 461// 409//
f 409// 461// 462//
f 409// 462// 463//
f 463// 464// 409//
f 409// 464// 465//
f 409// 465// 466//
f 466// 465// 450//
f 466// 450// 467//
f 467// 450// 452//
f 434// 468// 419//
f 419// 468// 469//
f 419// 469// 470//
f 470// 471// 419//
f 419// 471// 472//
f 419// 472// 455//
f 473// 474// 475//
f 475// 430// 473//
f 473// 430// 429//
f 473// 429// 476//
f 476// 429// 477//
f 477// 478// 476//
f 476// 478// 479//
f 476// 479// 480//
f 481// 482// 483//
f 482// 484// 483//
f 483// 484// 485//
f 483// 485// 486//
f 487// 483// 488//
f 474// 473// 487//
f 487// 473// 489//
f 487// 489// 483//
f 483// 489// 490//
f 483// 490// 481//
f 488// 491// 487//
f 487// 491// 492//
f 487// 492// 493//
f 486// 485// 494//
f 494// 485// 495//
f 494// 495// 496//
f 496// 495// 497//
f 496// 497// 498//
f 499// 500// 493//
f 493// 500// 501//
f 493// 501// 487//
f 400// 502// 402//
f 402// 502// 503//
f 402// 503// 23//
f 23// 503// 504//
f 23// 504// 415//
f 505// 506// 507//
f 508// 509// 507//
f 507// 509// 510//
f 511// 512// 513//
f 513// 512// 514//
f 513// 514// 515//
f 515// 514// 516//
f 517// 518// 514//
f 514// 518// 519//
f 514// 519// 516//
f 510// 520// 507//
f 507// 520// 521//
f 507// 521// 505//
f 522// 523// 508//
f 508// 523// 524//
f 508// 524// 509//
f 511// 525// 512//
f 512// 525// 526//
f 512// 526// 527//
f 527// 526// 528//
f 527// 528// 522//
f 522// 528// 529//
f 522// 529// 523//
f 530// 531// 532//
f 532// 531// 533//
f 532// 533// 534//
f 533// 279// 534//
f 534// 279// 263//
f 534// 263// 535//
f 535// 263// 265//
f 535// 265// 536//
f 536// 265// 537//
f 536// 537// 538//
f 538// 537// 539//
f 522// 540// 541//
f 541// 540// 542//
f 543// 544// 545//
f 545// 544// 546//
f 545// 546// 547//
f 547// 546// 548//
f 547// 548// 549//
f 549// 548// 550//
f 549// 550// 551//
f 551// 550// 552//
f 551// 552// 553//
f 553// 552// 554//
f 541// 550// 522//
f 522// 550// 548//
f 522// 548// 527//
f 527// 548// 555//
f 527// 555// 556//
f 556// 555// 557//
f 556// 557// 558//
f 542// 540// 559//
f 559// 540// 65//
f 559// 65// 558//
f 558// 65// 64//
f 558// 64// 556//
f 560// 561// 562//
f 562// 561// 563//
f 562// 563// 564//
f 564// 563// 565//
f 564// 565// 566//
f 566// 565// 567//
f 566// 567// 568//
f 568// 567// 132//
f 568// 132// 569//
f 569// 132// 124//
f 569// 124// 570//
f 570// 124// 116//
f 570// 116// 571//
f 571// 116// 348//
f 571// 348// 572//
f 572// 348// 398//
f 572// 398// 573//
f 573// 398// 396//
f 573// 396// 574//
f 574// 396// 575//
f 574// 575// 207//
f 207// 575// 411//
f 207// 411// 205//
f 205// 411// 414//
f 395// 350// 396//
f 396// 350// 37//
f 396// 37// 575//
f 575// 37// 19//
f 575// 19// 411//
f 411// 19// 24//
f 411// 24// 409//
f 409// 24// 449//
f 409// 449// 459//
f 347// 283// 348//
f 348// 283// 281//
f 348// 281// 398//
f 398// 281// 356//
f 398// 356// 397//
f 397// 356// 357//
f 397// 357// 576//
f 576// 357// 371//
f 561// 577// 563//
f 563// 577// 254//
f 563// 254// 565//
f 565// 254// 252//
f 565// 252// 567//
f 567// 252// 273//
f 567// 273// 132//
f 132// 273// 104//
f 132// 104// 133//
f 133// 104// 102//
f 280// 297// 281//
f 281// 297// 300//
f 281// 300// 356//
f 356// 300// 94//
f 356// 94// 354//
f 354// 94// 388//
f 578// 579// 254//
f 580// 581// 582//
f 254// 579// 258//
f 258// 579// 583//
f 258// 583// 584//
f 92// 78// 35//
f 35// 78// 77//
f 35// 77// 25//
f 25// 77// 585//
f 100// 95// 98//
f 98// 95// 94//
f 98// 94// 64//
f 64// 94// 300//
f 64// 300// 556//
f 556// 300// 286//
f 556// 286// 527//
f 527// 286// 18//
f 527// 18// 512//
f 512// 18// 103//
f 512// 103// 514//
f 259// 258// 2//
f 2// 258// 586//
f 2// 586// 3//
f 587// 588// 585//
f 585// 588// 589//
f 590// 591// 592//
f 592// 591// 401//
f 592// 401// 589//
f 589// 401// 402//
f 589// 402// 585//
f 585// 402// 23//
f 585// 23// 25//
f 25// 23// 22//
f 25// 22// 26//
f 76// 81// 77//
f 77// 81// 83//
f 77// 83// 585//
f 585// 83// 591//
f 585// 591// 587//
f 587// 591// 590//
f 587// 590// 593//
f 594// 595// 514//
f 514// 595// 507//
f 514// 507// 517//
f 517// 507// 506//
f 596// 597// 3//
f 3// 597// 598//
f 599// 600// 598//
f 598// 600// 594//
f 598// 594// 3//
f 3// 594// 514//
f 3// 514// 1//
f 1// 514// 103//
f 1// 103// 271//
f 271// 103// 104//
f 271// 104// 601//
f 601// 104// 273//
f 601// 273// 602//
f 602// 273// 274//
f 586// 603// 3//
f 3// 603// 604//
f 3// 604// 596//
f 596// 604// 507//
f 596// 507// 605//
f 605// 507// 595//
f 582// 578// 580//
f 580// 578// 254//
f 580// 254// 606//
f 606// 254// 577//
f 606// 577// 584//
f 584// 577// 607//
f 584// 607// 258//
f 258// 607// 608//
f 258// 608// 586//
f 586// 608// 609//
f 586// 609// 603//
f 91// 73// 83//
f 83// 73// 74//
f 83// 74// 591//
f 591// 74// 610//
f 591// 610// 401//
f 401// 610// 244//
f 401// 244// 403//
f 403// 244// 243//
f 71// 66// 72//
f 72// 66// 68//
f 72// 68// 611//
f 611// 68// 65//
f 611// 65// 612//
f 612// 65// 540//
f 612// 540// 613//
f 613// 540// 522//
f 613// 522// 614//
f 614// 522// 508//
f 614// 508// 196//
f 196// 508// 507//
f 196// 507// 193//
f 193// 507// 604//
f 193// 604// 9//
f 9// 604// 603//
f 9// 603// 15//
f 15// 603// 609//
f 15// 609// 204//
f 204// 609// 608//
f 204// 608// 615//
f 615// 608// 607//
f 615// 607// 616//
f 616// 607// 577//
f 616// 577// 617//
f 617// 577// 561//
f 617// 561// 618//
f 618// 561// 560//
f 618// 560// 619//
f 198// 188// 196//
f 196// 188// 190//
f 196// 190// 614//
f 614// 190// 620//
f 614// 620// 613//
f 613// 620// 621//
f 613// 621// 612//
f 612// 621// 622//
f 612// 622// 611//
f 611// 622// 623//
f 611// 623// 72//
f 72// 623// 624//
f 72// 624// 74//
f 74// 624// 625//
f 74// 625// 610//
f 610// 625// 168//
f 610// 168// 244//
f 244// 168// 139//
f 244// 139// 247//
f 247// 139// 145//
f 202// 626// 12//
f 12// 626// 627//
f 12// 627// 181//
f 181// 627// 628//
f 181// 628// 185//
f 185// 628// 629//
f 185// 629// 190//
f 190// 629// 630//
f 190// 630// 620//
f 620// 630// 631//
f 620// 631// 621//
f 621// 631// 632//
f 621// 632// 622//
f 622// 632// 633//
f 622// 633// 623//
f 623// 633// 634//
f 623// 634// 624//
f 624// 634// 635//
f 624// 635// 625//
f 625// 635// 636//
f 625// 636// 168//
f 168// 636// 164//
f 168// 164// 166//
f 166// 164// 165//
f 637// 638// 639//
f 640// 641// 642//
f 643// 644// 645//
f 646// 647// 648//
f 649// 650// 651//
f 646// 648// 652//
f 653// 654// 655//
f 655// 654// 656//
f 642// 637// 640//
f 640// 637// 639//
f 640// 639// 645//
f 645// 639// 655//
f 645// 655// 657//
f 657// 655// 656//
f 657// 656// 658//
f 659// 652// 660//
f 660// 652// 648//
f 660// 648// 657//
f 657// 648// 649//
f 657// 649// 645//
f 645// 649// 651//
f 645// 651// 643//
f 652// 659// 661//
f 658// 656// 662//
f 662// 656// 663//
f 662// 663// 661//
f 661// 663// 664//
f 661// 664// 652//
f 642// 641// 665//
f 644// 643// 666//
f 666// 643// 667//
f 666// 667// 665//
f 665// 667// 668//
f 665// 668// 642//
f 656// 654// 663//
f 663// 654// 669//
f 646// 652// 670//
f 670// 652// 664//
f 651// 650// 671//
f 647// 646// 672//
f 672// 646// 670//
f 672// 670// 671//
f 671// 670// 673//
f 671// 673// 651//
f 643// 651// 667//
f 667// 651// 673//
f 637// 642// 674//
f 674// 642// 668//
f 654// 653// 675//
f 638// 637// 676//
f 676// 637// 674//
f 676// 674// 675//
f 675// 674// 669//
f 675// 669// 654//
f 248// 150// 669//
f 669// 150// 663//
f 209// 248// 674//
f 674// 248// 669//
f 619// 209// 668//
f 668// 209// 674//
f 203// 619// 667//
f 667// 619// 668//
f 202// 203// 673//
f 673// 203// 667//
f 626// 202// 670//
f 670// 202// 673//
f 142// 626// 664//
f 664// 626// 670//
f 150// 142// 663//
f 663// 142// 664//
f 677// 177// 678//
f 678// 177// 176//
f 678// 176// 679//
f 679// 176// 172//
f 679// 172// 680//
f 680// 172// 174//
f 680// 174// 681//
f 681// 174// 175//
f 681// 175// 682//
f 682// 175// 10//
f 682// 10// 683//
f 683// 10// 184//
f 683// 184// 684//
f 684// 184// 183//
f 684// 183// 685//
f 685// 183// 182//
f 685// 182// 686//
f 686// 182// 186//
f 686// 186// 687//
f 687// 186// 191//
f 687// 191// 688//
f 688// 191// 189//
f 688// 189// 689//
f 689// 189// 188//
f 689// 188// 690//
f 690// 188// 198//
f 690// 198// 691//
f 691// 198// 197//
f 691// 197// 692//
f 692// 197// 194//
f 692// 194// 693//
f 693// 194// 7//
f 693// 7// 694//
f 694// 7// 201//
f 694// 201// 695//
f 695// 201// 200//
f 695// 200// 696//
f 696// 200// 199//
f 696// 199// 697//
f 697// 199// 13//
f 697// 13// 698//
f 698// 13// 171//
f 698// 171// 699//
f 699// 171// 180//
f 699// 180// 700//
f 700// 180// 179//
f 700// 179// 677//
f 677// 179// 177//
f 699// 700// 701//
f 701// 700// 677//
f 701// 677// 678//
f 696// 697// 701//
f 701// 697// 698//
f 701// 698// 699//
f 693// 694// 701//
f 701// 694// 695//
f 701// 695// 696//
f 690// 691// 701//
f 701// 691// 692//
f 701// 692// 693//
f 687// 688// 701//
f 701// 688// 689//
f 701// 689// 690//
f 684// 685// 701//
f 701// 685// 686//
f 701// 686// 687//
f 681// 682// 701//
f 701// 682// 683//
f 701// 683// 684//
f 678// 679// 701//
f 701// 679// 680//
f 701// 680// 681//
f 702// 703// 167//
f 167// 703// 704//
f 167// 704// 169//
f 169// 704// 705//
f 169// 705// 143//
f 143// 705// 706//
f 143// 706// 137//
f 137// 706// 707//
f 137// 707// 138//
f 138// 707// 708//
f 138// 708// 156//
f 156// 708// 709//
f 156// 709// 157//
f 157// 709// 710//
f 157// 710// 158//
f 158// 710// 711//
f 158// 711// 146//
f 146// 711// 712//
f 146// 712// 147//
f 147// 712// 713//
f 147// 713// 159//
f 159// 713// 714//
f 159// 714// 160//
f 160// 714// 715//
f 160// 715// 161//
f 161// 715// 716//
f 161// 716// 148//
f 148// 716// 717//
f 148// 717// 149//
f 149// 717// 718//
f 149// 718// 151//
f 151// 718// 719//
f 151// 719// 152//
f 152// 719// 720//
f 152// 720// 140//
f 140// 720// 721//
f 140// 721// 141//
f 141// 721// 722//
f 141// 722// 153//
f 153// 722// 723//
f 153// 723// 154//
f 154// 723// 724//
f 154// 724// 155//
f 155// 724// 725//
f 155// 725// 162//
f 162// 725// 726//
f 162// 726// 165//
f 165// 726// 727//
f 165// 727// 166//
f 166// 727// 702//
f 166// 702// 167//
f 707// 728// 708//
f 708// 728// 729//
f 708// 729// 709//
f 709// 729// 730//
f 719// 718// 731//
f 731// 718// 717//
f 731// 717// 732//
f 732// 717// 716//
f 732// 716// 733//
f 719// 731// 720//
f 720// 731// 734//
f 720// 734// 721//
f 721// 734// 735//
f 721// 735// 722//
f 736// 724// 735//
f 735// 724// 723//
f 735// 723// 722//
f 707// 706// 728//
f 728// 706// 705//
f 728// 705// 737//
f 737// 705// 704//
f 737// 704// 703//
f 716// 715// 733//
f 733// 715// 714//
f 733// 714// 738//
f 738// 714// 713//
f 713// 712// 738//
f 738// 712// 711//
f 738// 711// 730//
f 730// 711// 710//
f 730// 710// 709//
f 703// 702// 737//
f 737// 702// 727//
f 737// 727// 739//
f 739// 727// 726//
f 739// 726// 736//
f 736// 726// 725//
f 736// 725// 724//
f 740// 741// 742//
f 742// 741// 743//
f 744// 745// 746//
f 746// 745// 747//
f 748// 749// 747//
f 747// 749// 742//
f 747// 742// 746//
f 746// 742// 743//
f 746// 743// 750//
f 750// 743// 751//
f 751// 743// 732//
f 732// 743// 731//
f 743// 741// 731//
f 731// 741// 734//
f 741// 740// 734//
f 734// 740// 735//
f 740// 742// 735//
f 735// 742// 736//
f 742// 749// 736//
f 736// 749// 739//
f 749// 748// 739//
f 739// 748// 737//
f 748// 747// 737//
f 737// 747// 728//
f 747// 745// 728//
f 728// 745// 729//
f 745// 744// 729//
f 729// 744// 730//
f 744// 746// 730//
f 730// 746// 738//
f 746// 750// 738//
f 738// 750// 733//
f 750// 751// 733//
f 733// 751// 732//
usemtl 2
f 752// 753// 754//
f 754// 753// 755//
f 756// 639// 638//
f 676// 753// 638//
f 638// 753// 752//
f 638// 752// 756//
f 639// 756// 655//
f 655// 756// 757//
f 655// 757// 653//
f 653// 757// 758//
f 653// 758// 675//
f 675// 758// 759//
f 754// 755// 758//
f 758// 755// 759//
f 759// 755// 675//
f 675// 755// 753//
f 675// 753// 676//
f 754// 758// 752//
f 752// 758// 757//
f 752// 757// 756//
f 760// 761// 762//
f 762// 761// 763//
f 764// 765// 760//
f 760// 765// 761//
f 766// 645// 644//
f 666// 765// 644//
f 644// 765// 764//
f 644// 764// 766//
f 766// 767// 645//
f 645// 767// 640//
f 640// 767// 641//
f 641// 767// 762//
f 641// 762// 665//
f 665// 762// 763//
f 761// 765// 763//
f 763// 765// 666//
f 763// 666// 665//
f 764// 760// 766//
f 766// 760// 762//
f 766// 762// 767//
f 768// 648// 647//
f 672// 769// 647//
f 647// 769// 770//
f 647// 770// 768//
f 648// 768// 649//
f 649// 768// 771//
f 649// 771// 650//
f 650// 771// 772//
f 650// 772// 671//
f 671// 772// 773//
f 769// 672// 773//
f 773// 672// 671//
f 771// 768// 772//
f 772// 768// 770//
f 774// 775// 776//
f 776// 775// 777//
f 778// 779// 774//
f 774// 779// 775//
f 780// 657// 658//
f 662// 779// 658//
f 658// 779// 778//
f 658// 778// 780//
f 780// 781// 657//
f 657// 781// 660//
f 660// 781// 659//
f 659// 781// 776//
f 659// 776// 661//
f 661// 776// 777//
f 775// 779// 777//
f 777// 779// 662//
f 777// 662// 661//
f 778// 774// 780//
f 780// 774// 776//
f 780// 776// 781//
f 772// 770// 773//
f 773// 770// 769//
usemtl 3
f 782// 783// 784//
f 784// 783// 785//
f 784// 785// 786//
f 786// 785// 787//
f 786// 787// 788//
f 788// 787// 789//
f 788// 789// 790//
f 790// 789// 791//
f 790// 791// 792//
f 792// 791// 793//
f 792// 793// 794//
f 793// 795// 794//
f 794// 795// 796//
f 794// 796// 797//
f 797// 796// 798//
f 797// 798// 799//
f 799// 798// 800//
f 799// 800// 801//
f 801// 800// 802//
f 801// 802// 803//
f 803// 802// 804//
f 803// 804// 805//
f 805// 804// 806//
f 805// 806// 807//
f 807// 806// 808//
f 807// 808// 809//
f 809// 808// 810//
f 809// 810// 811//
f 811// 810// 812//
f 811// 812// 813//
f 813// 812// 814//
f 813// 814// 815//
f 815// 814// 816//
f 815// 816// 782//
f 782// 816// 817//
f 782// 817// 783//
f 782// 275// 251//
f 782// 251// 815//
f 251// 253// 815//
f 815// 253// 255//
f 815// 255// 813//
f 813// 255// 262//
f 813// 262// 811//
f 811// 262// 261//
f 811// 261// 809//
f 270// 801// 259//
f 259// 801// 803//
f 259// 803// 256//
f 256// 803// 805//
f 256// 805// 257//
f 257// 805// 807//
f 257// 807// 260//
f 260// 807// 809//
f 260// 809// 261//
f 801// 270// 269//
f 801// 269// 799//
f 799// 269// 268//
f 799// 268// 797//
f 797// 268// 267//
f 797// 267// 794//
f 792// 794// 264//
f 264// 794// 267//
f 790// 792// 263//
f 263// 792// 264//
f 788// 790// 278//
f 278// 790// 263//
f 788// 278// 277//
f 788// 277// 786//
f 786// 277// 276//
f 786// 276// 784//
f 784// 276// 275//
f 784// 275// 782//
f 802// 818// 819//
f 802// 819// 804//
f 804// 819// 820//
f 804// 820// 806//
f 806// 820// 821//
f 806// 821// 808//
f 808// 821// 822//
f 808// 822// 810//
f 795// 823// 824//
f 795// 824// 796//
f 796// 824// 825//
f 796// 825// 798//
f 798// 825// 826//
f 798// 826// 800//
f 800// 826// 818//
f 800// 818// 802//
f 795// 793// 823//
f 823// 793// 827//
f 793// 791// 827//
f 827// 791// 828//
f 791// 789// 828//
f 828// 789// 829//
f 817// 830// 831//
f 817// 831// 783//
f 783// 831// 832//
f 783// 832// 785//
f 785// 832// 833//
f 785// 833// 787//
f 787// 833// 829//
f 787// 829// 789//
f 810// 822// 834//
f 810// 834// 812//
f 812// 834// 835//
f 812// 835// 814//
f 814// 835// 836//
f 814// 836// 816//
f 816// 836// 830//
f 816// 830// 817//
usemtl 1
f 832// 831// 824//
f 827// 828// 823//
f 823// 828// 829//
f 823// 829// 824//
f 824// 829// 833//
f 824// 833// 832//
f 831// 830// 824//
f 824// 830// 836//
f 824// 836// 835//
f 822// 818// 826//
f 821// 820// 822//
f 822// 820// 819//
f 822// 819// 818//
f 835// 834// 824//
f 824// 834// 822//
f 824// 822// 825//
f 825// 822// 826//
usemtl 3
f 837// 108// 109//
f 837// 109// 838//
f 838// 109// 107//
f 838// 107// 839//
f 840// 839// 106//
f 106// 839// 107//
f 841// 840// 105//
f 105// 840// 106//
f 16// 842// 17//
f 17// 842// 841//
f 17// 841// 105//
f 843// 842// 112//
f 112// 842// 16//
f 113// 844// 111//
f 111// 844// 843//
f 111// 843// 112//
f 115// 845// 114//
f 114// 845// 844//
f 114// 844// 113//
f 115// 121// 845//
f 845// 121// 846//
f 121// 120// 846//
f 846// 120// 119//
f 846// 119// 847//
f 847// 119// 129//
f 847// 129// 848//
f 848// 129// 128//
f 848// 128// 849//
f 849// 128// 127//
f 849// 127// 850//
f 850// 127// 349//
f 850// 349// 851//
f 851// 349// 118//
f 851// 118// 852//
f 853// 852// 117//
f 117// 852// 118//
f 853// 117// 126//
f 853// 126// 854//
f 854// 126// 125//
f 854// 125// 855//
f 855// 125// 123//
f 855// 123// 856//
f 856// 123// 122//
f 856// 122// 857//
f 122// 136// 857//
f 857// 136// 135//
f 857// 135// 858//
f 858// 135// 134//
f 858// 134// 859//
f 859// 134// 131//
f 859// 131// 860//
f 860// 131// 130//
f 860// 130// 861//
f 102// 862// 133//
f 133// 862// 861//
f 133// 861// 130//
f 863// 862// 101//
f 101// 862// 102//
f 837// 863// 108//
f 108// 863// 101//
f 838// 839// 861//
f 862// 863// 861//
f 861// 863// 837//
f 861// 837// 838//
f 842// 843// 841//
f 841// 843// 844//
f 841// 844// 840//
f 852// 853// 851//
f 851// 853// 854//
f 851// 854// 850//
f 850// 854// 855//
f 850// 855// 849//
f 849// 855// 856//
f 849// 856// 848//
f 848// 856// 857//
f 848// 857// 847//
f 839// 840// 861//
f 861// 840// 844//
f 861// 844// 860//
f 844// 845// 860//
f 860// 845// 846//
f 860// 846// 859//
f 859// 846// 847//
f 859// 847// 858//
f 858// 847// 857//
f 864// 347// 865//
f 865// 347// 5//
f 5// 4// 865//
f 865// 4// 306//
f 865// 306// 866//
f 866// 306// 305//
f 866// 305// 867//
f 867// 305// 290//
f 867// 290// 868//
f 868// 290// 289//
f 868// 289// 869//
f 869// 289// 288//
f 869// 288// 870//
f 870// 288// 294//
f 870// 294// 871//
f 871// 294// 293//
f 871// 293// 872//
f 872// 293// 292//
f 872// 292// 873//
f 873// 292// 291//
f 873// 291// 874//
f 874// 291// 335//
f 874// 335// 875//
f 875// 335// 334//
f 875// 334// 876//
f 876// 334// 332//
f 876// 332// 877//
f 877// 332// 330//
f 877// 330// 878//
f 878// 330// 329//
f 878// 329// 879//
f 879// 329// 322//
f 879// 322// 880//
f 880// 322// 321//
f 880// 321// 881//
f 881// 321// 320//
f 881// 320// 882//
f 882// 320// 317//
f 882// 317// 883//
f 883// 317// 341//
f 883// 341// 884//
f 884// 341// 340//
f 884// 340// 885//
f 885// 340// 339//
f 885// 339// 886//
f 886// 339// 319//
f 886// 319// 887//
f 887// 319// 318//
f 887// 318// 888//
f 888// 318// 316//
f 888// 316// 889//
f 889// 316// 315//
f 889// 315// 890//
f 890// 315// 331//
f 890// 331// 891//
f 891// 331// 333//
f 891// 333// 892//
f 892// 333// 287//
f 892// 287// 893//
f 894// 893// 285//
f 285// 893// 287//
f 894// 285// 284//
f 894// 284// 895//
f 895// 284// 309//
f 895// 309// 896//
f 896// 309// 308//
f 896// 308// 897//
f 897// 308// 307//
f 897// 307// 898//
f 898// 307// 304//
f 898// 304// 899//
f 899// 304// 303//
f 899// 303// 900//
f 900// 303// 302//
f 900// 302// 901//
f 901// 302// 301//
f 901// 301// 902//
f 902// 301// 299//
f 902// 299// 903//
f 903// 299// 298//
f 903// 298// 904//
f 904// 298// 296//
f 904// 296// 905//
f 905// 296// 295//
f 905// 295// 906//
f 906// 295// 314//
f 906// 314// 907//
f 907// 314// 313//
f 907// 313// 908//
f 908// 313// 311//
f 908// 311// 909//
f 909// 311// 325//
f 909// 325// 910//
f 910// 325// 346//
f 910// 346// 911//
f 911// 346// 345//
f 911// 345// 912//
f 912// 345// 344//
f 912// 344// 913//
f 913// 344// 328//
f 913// 328// 914//
f 914// 328// 327//
f 914// 327// 915//
f 915// 327// 343//
f 915// 343// 916//
f 916// 343// 342//
f 916// 342// 917//
f 917// 342// 338//
f 917// 338// 918//
f 918// 338// 337//
f 918// 337// 919//
f 919// 337// 336//
f 919// 336// 920//
f 920// 336// 326//
f 920// 326// 921//
f 921// 326// 324//
f 921// 324// 922//
f 922// 324// 323//
f 922// 323// 923//
f 923// 323// 310//
f 923// 310// 924//
f 924// 310// 312//
f 924// 312// 925//
f 925// 312// 297//
f 925// 297// 926//
f 927// 926// 280//
f 280// 926// 297//
f 347// 864// 283//
f 283// 864// 928//
f 283// 928// 282//
f 282// 928// 927//
f 282// 927// 280//
f 886// 887// 898//
f 898// 887// 897//
f 910// 877// 909//
f 909// 877// 878//
f 866// 867// 918//
f 918// 867// 868//
f 918// 868// 917//
f 917// 868// 869//
f 917// 869// 916//
f 916// 869// 870//
f 916// 870// 915//
f 915// 870// 871//
f 915// 871// 914//
f 914// 871// 872//
f 914// 872// 913//
f 913// 872// 873//
f 913// 873// 912//
f 912// 873// 874//
f 912// 874// 911//
f 911// 874// 875//
f 911// 875// 910//
f 910// 875// 876//
f 910// 876// 877//
f 864// 923// 928//
f 928// 923// 924//
f 928// 924// 927//
f 927// 924// 925//
f 927// 925// 926//
f 887// 888// 897//
f 897// 888// 889//
f 897// 889// 896//
f 896// 889// 890//
f 896// 890// 895//
f 895// 890// 891//
f 895// 891// 894//
f 894// 891// 892//
f 894// 892// 893//
f 918// 919// 866//
f 866// 919// 920//
f 866// 920// 865//
f 865// 920// 921//
f 865// 921// 864//
f 864// 921// 922//
f 864// 922// 923//
f 898// 899// 886//
f 886// 899// 900//
f 886// 900// 885//
f 885// 900// 901//
f 885// 901// 884//
f 884// 901// 902//
f 884// 902// 883//
f 883// 902// 903//
f 883// 903// 882//
f 882// 903// 904//
f 882// 904// 881//
f 881// 904// 905//
f 881// 905// 880//
f 880// 905// 906//
f 880// 906// 879//
f 879// 906// 907//
f 879// 907// 878//
f 878// 907// 908//
f 878// 908// 909//
f 929// 930// 931//
f 931// 930// 932//
f 933// 934// 932//
f 932// 934// 935//
f 936// 937// 938//
f 938// 937// 939//
f 940// 941// 942//
f 935// 943// 932//
f 932// 943// 944//
f 932// 944// 931//
f 931// 944// 945//
f 931// 945// 936//
f 936// 945// 946//
f 936// 946// 937//
f 947// 948// 949//
f 949// 948// 950//
f 949// 950// 951//
f 951// 950// 952//
f 951// 952// 953//
f 953// 952// 954//
f 953// 954// 955//
f 955// 954// 956//
f 955// 956// 957//
f 957// 956// 958//
f 957// 958// 959//
f 959// 958// 960//
f 959// 960// 961//
f 961// 960// 962//
f 961// 962// 963//
f 963// 962// 964//
f 963// 964// 965//
f 965// 964// 966//
f 965// 966// 932//
f 932// 966// 967//
f 932// 967// 933//
f 942// 941// 968//
f 968// 941// 969//
f 968// 969// 970//
f 971// 972// 967//
f 967// 972// 973//
f 967// 973// 933//
f 974// 975// 976//
f 976// 975// 977//
f 976// 977// 978//
f 978// 977// 979//
f 978// 979// 980//
f 980// 979// 981//
f 980// 981// 982//
f 982// 981// 983//
f 982// 983// 984//
f 984// 983// 985//
f 984// 985// 939//
f 939// 985// 986//
f 939// 986// 938//
f 942// 987// 940//
f 940// 987// 972//
f 940// 972// 988//
f 988// 972// 971//
f 969// 989// 970//
f 970// 989// 990//
f 970// 990// 991//
f 991// 990// 992//
f 991// 992// 993//
f 993// 992// 994//
f 993// 994// 995//
f 995// 994// 996//
f 995// 996// 974//
f 974// 996// 997//
f 974// 997// 975//
f 954// 381// 380//
f 954// 380// 956//
f 956// 380// 394//
f 956// 394// 958//
f 958// 394// 393//
f 958// 393// 960//
f 960// 393// 392//
f 960// 392// 962//
f 962// 392// 391//
f 962// 391// 964//
f 964// 391// 390//
f 964// 390// 966//
f 966// 390// 389//
f 966// 389// 967//
f 971// 967// 379//
f 379// 967// 389//
f 971// 379// 377//
f 971// 377// 988//
f 988// 377// 376//
f 988// 376// 940//
f 940// 376// 375//
f 940// 375// 941//
f 941// 375// 374//
f 941// 374// 969//
f 969// 374// 373//
f 969// 373// 989//
f 989// 373// 372//
f 989// 372// 990//
f 990// 372// 368//
f 990// 368// 992//
f 992// 368// 367//
f 992// 367// 994//
f 994// 367// 366//
f 994// 366// 996//
f 996// 366// 360//
f 996// 360// 997//
f 997// 360// 359//
f 997// 359// 975//
f 395// 981// 350//
f 350// 981// 979//
f 350// 979// 351//
f 351// 979// 977//
f 351// 977// 358//
f 358// 977// 975//
f 358// 975// 359//
f 395// 397// 981//
f 981// 397// 983//
f 397// 576// 983//
f 983// 576// 371//
f 983// 371// 985//
f 985// 371// 370//
f 985// 370// 986//
f 986// 370// 369//
f 986// 369// 938//
f 938// 369// 364//
f 938// 364// 936//
f 931// 936// 363//
f 363// 936// 364//
f 929// 931// 357//
f 357// 931// 363//
f 930// 929// 355//
f 355// 929// 357//
f 932// 930// 354//
f 354// 930// 355//
f 932// 354// 388//
f 932// 388// 965//
f 965// 388// 387//
f 965// 387// 963//
f 963// 387// 386//
f 963// 386// 961//
f 961// 386// 362//
f 961// 362// 959//
f 959// 362// 361//
f 959// 361// 957//
f 957// 361// 365//
f 957// 365// 955//
f 955// 365// 385//
f 955// 385// 953//
f 953// 385// 384//
f 953// 384// 951//
f 951// 384// 383//
f 951// 383// 949//
f 949// 383// 352//
f 949// 352// 947//
f 948// 947// 353//
f 353// 947// 352//
f 948// 353// 378//
f 948// 378// 950//
f 950// 378// 382//
f 950// 382// 952//
f 952// 382// 381//
f 952// 381// 954//
f 946// 998// 999//
f 946// 999// 937//
f 937// 999// 1000//
f 937// 1000// 939//
f 939// 1000// 1001//
f 939// 1001// 984//
f 984// 1001// 1002//
f 984// 1002// 982//
f 935// 1003// 1004//
f 935// 1004// 943//
f 943// 1004// 1005//
f 943// 1005// 944//
f 944// 1005// 1006//
f 944// 1006// 945//
f 945// 1006// 998//
f 945// 998// 946//
f 935// 934// 1003//
f 1003// 934// 1007//
f 934// 933// 1007//
f 1007// 933// 1008//
f 987// 1009// 1010//
f 987// 1010// 972//
f 972// 1010// 1011//
f 972// 1011// 973//
f 973// 1011// 1008//
f 973// 1008// 933//
f 991// 1012// 1013//
f 991// 1013// 970//
f 970// 1013// 1014//
f 970// 1014// 968//
f 968// 1014// 1015//
f 968// 1015// 942//
f 942// 1015// 1009//
f 942// 1009// 987//
f 976// 1016// 1017//
f 976// 1017// 974//
f 974// 1017// 1018//
f 974// 1018// 995//
f 995// 1018// 1019//
f 995// 1019// 993//
f 993// 1019// 1012//
f 993// 1012// 991//
f 982// 1002// 1020//
f 982// 1020// 980//
f 980// 1020// 1021//
f 980// 1021// 978//
f 978// 1021// 1016//
f 978// 1016// 976//
usemtl 1
f 1004// 1003// 1009//
f 1003// 1007// 1008//
f 1008// 1011// 1003//
f 1003// 1011// 1010//
f 1003// 1010// 1009//
f 1004// 1009// 1005//
f 1005// 1009// 1015//
f 1005// 1015// 1006//
f 1017// 1016// 999//
f 1017// 999// 1018//
f 1000// 999// 1001//
f 1001// 999// 1002//
f 1015// 1014// 1006//
f 1006// 1014// 1013//
f 1006// 1013// 998//
f 998// 1013// 1012//
f 998// 1012// 999//
f 999// 1012// 1019//
f 999// 1019// 1018//
f 1016// 1021// 999//
f 999// 1021// 1020//
f 999// 1020// 1002//
usemtl 3
f 1022// 1023// 1024//
f 1025// 1026// 1027//
f 1028// 1029// 1030//
f 1031// 1032// 1033//
f 1033// 1032// 1034//
f 1035// 1036// 1024//
f 1024// 1036// 1037//
f 1024// 1037// 1022//
f 1027// 1026// 1038//
f 1039// 1040// 1041//
f 1042// 1043// 1032//
f 1032// 1043// 1044//
f 1032// 1044// 1034//
f 1034// 1044// 1045//
f 1046// 1047// 1048//
f 1048// 1047// 1049//
f 1048// 1049// 1050//
f 1050// 1049// 1051//
f 1050// 1051// 1052//
f 1052// 1051// 1053//
f 1052// 1053// 1054//
f 1054// 1053// 1024//
f 1054// 1024// 1055//
f 1055// 1024// 1056//
f 1057// 1058// 1046//
f 1046// 1058// 1059//
f 1046// 1059// 1047//
f 1031// 1033// 1041//
f 1041// 1033// 1060//
f 1041// 1060// 1039//
f 1061// 1062// 1063//
f 1063// 1062// 1064//
f 1063// 1064// 1065//
f 1065// 1064// 1066//
f 1065// 1066// 1067//
f 1067// 1066// 1068//
f 1028// 1030// 1069//
f 1069// 1030// 1070//
f 1069// 1070// 1071//
f 1071// 1070// 1072//
f 1071// 1072// 1073//
f 1026// 1074// 1038//
f 1038// 1074// 1075//
f 1038// 1075// 1076//
f 1076// 1075// 1077//
f 1076// 1077// 1028//
f 1028// 1077// 1078//
f 1028// 1078// 1029//
f 1056// 1024// 1079//
f 1079// 1024// 1023//
f 1079// 1023// 1080//
f 1045// 1044// 1046//
f 1046// 1044// 1081//
f 1046// 1081// 1057//
f 1082// 1083// 1084//
f 1084// 1083// 1085//
f 1084// 1085// 1086//
f 1086// 1085// 1087//
f 1086// 1087// 1088//
f 1088// 1087// 1089//
f 1088// 1089// 1090//
f 1090// 1089// 1091//
f 1090// 1091// 1092//
f 1066// 1093// 1068//
f 1068// 1093// 1094//
f 1068// 1094// 1095//
f 1095// 1094// 1096//
f 1095// 1096// 1097//
f 1097// 1096// 1098//
f 1097// 1098// 1099//
f 1099// 1098// 1100//
f 1099// 1100// 1101//
f 1101// 1100// 1102//
f 1101// 1102// 1103//
f 1103// 1102// 1104//
f 1103// 1104// 1082//
f 1082// 1104// 1105//
f 1082// 1105// 1083//
f 1106// 1107// 1108//
f 1108// 1107// 1109//
f 1108// 1109// 1063//
f 1063// 1109// 1110//
f 1063// 1110// 1061//
f 1111// 1112// 1113//
f 1113// 1112// 1114//
f 1113// 1114// 1115//
f 1115// 1114// 1116//
f 1115// 1116// 1117//
f 1117// 1116// 1118//
f 1117// 1118// 1119//
f 1119// 1118// 1120//
f 1119// 1120// 1035//
f 1035// 1120// 1121//
f 1035// 1121// 1036//
f 1073// 1072// 1122//
f 1122// 1072// 1123//
f 1122// 1123// 1124//
f 1124// 1123// 1125//
f 1124// 1125// 1126//
f 1126// 1125// 1127//
f 1126// 1127// 1128//
f 1128// 1127// 1129//
f 1128// 1129// 1106//
f 1106// 1129// 1130//
f 1106// 1130// 1107//
f 1027// 1131// 1025//
f 1025// 1131// 1132//
f 1025// 1132// 1133//
f 1133// 1132// 1134//
f 1133// 1134// 1135//
f 1135// 1134// 1136//
f 1135// 1136// 1111//
f 1111// 1136// 1137//
f 1111// 1137// 1112//
f 1040// 1138// 1041//
f 1041// 1138// 1139//
f 1041// 1139// 1140//
f 1140// 1139// 1141//
f 1140// 1141// 1142//
f 1142// 1141// 1143//
f 1142// 1143// 1144//
f 1144// 1143// 1145//
f 1144// 1145// 1146//
f 1146// 1145// 1147//
f 1146// 1147// 1148//
f 1148// 1147// 1149//
f 1148// 1149// 1150//
f 1150// 1149// 1151//
f 1150// 1151// 1152//
f 1152// 1151// 1153//
f 1152// 1153// 1154//
f 1154// 1153// 1155//
f 1154// 1155// 1156//
f 1156// 1155// 1157//
f 1156// 1157// 1023//
f 1023// 1157// 1158//
f 1023// 1158// 1080//
f 1159// 1160// 1161//
f 1091// 1162// 1092//
f 1092// 1162// 1159//
f 1092// 1159// 1163//
f 1163// 1159// 1161//
f 1164// 1165// 1159//
f 1159// 1165// 1166//
f 1159// 1166// 1160//
f 1167// 1168// 1169//
f 1168// 1170// 1169//
f 1169// 1170// 1171//
f 1169// 1171// 1172//
f 1164// 1159// 1169//
f 1169// 1159// 1173//
f 1169// 1173// 1167//
f 502// 1068// 503//
f 503// 1068// 1095//
f 503// 1095// 504//
f 504// 1095// 1097//
f 504// 1097// 415//
f 415// 1097// 1099//
f 415// 1099// 416//
f 502// 400// 1068//
f 1068// 400// 399//
f 1068// 399// 1067//
f 1067// 399// 408//
f 1067// 408// 1065//
f 1065// 408// 407//
f 1065// 407// 1063//
f 1063// 407// 406//
f 1063// 406// 1108//
f 1108// 406// 405//
f 1108// 405// 1106//
f 1106// 405// 1128//
f 1128// 405// 404//
f 404// 403// 1128//
f 1128// 403// 243//
f 1128// 243// 1126//
f 1126// 243// 245//
f 1126// 245// 1124//
f 1124// 245// 246//
f 1124// 246// 1122//
f 1122// 246// 249//
f 1122// 249// 1073//
f 1073// 249// 1071//
f 1071// 249// 250//
f 1071// 250// 235//
f 1071// 235// 237//
f 1071// 237// 1069//
f 1069// 237// 239//
f 1069// 239// 1028//
f 1028// 239// 238//
f 1028// 238// 1076//
f 1076// 238// 236//
f 1076// 236// 1038//
f 1038// 236// 242//
f 1038// 242// 1027//
f 1027// 242// 241//
f 1027// 241// 1131//
f 1131// 241// 240//
f 1131// 240// 1132//
f 1132// 240// 234//
f 1132// 234// 1134//
f 1137// 1136// 233//
f 233// 1136// 1134//
f 233// 1134// 234//
f 233// 231// 1137//
f 1137// 231// 230//
f 1137// 230// 1112//
f 1112// 230// 228//
f 228// 227// 1112//
f 1112// 227// 226//
f 1112// 226// 1114//
f 1114// 226// 224//
f 1114// 224// 1116//
f 1116// 224// 223//
f 1116// 223// 1118//
f 1118// 223// 216//
f 1118// 216// 1120//
f 1120// 216// 215//
f 1120// 215// 1121//
f 1121// 215// 218//
f 1121// 218// 1036//
f 1036// 218// 222//
f 1036// 222// 1037//
f 1037// 222// 221//
f 1037// 221// 1022//
f 221// 220// 1022//
f 1022// 220// 219//
f 1022// 219// 1023//
f 1023// 219// 214//
f 1023// 214// 1156//
f 1156// 214// 213//
f 1156// 213// 1154//
f 213// 211// 1154//
f 1154// 211// 210//
f 1154// 210// 1152//
f 1152// 210// 208//
f 1152// 208// 1150//
f 467// 1031// 1041//
f 1150// 208// 206//
f 205// 1146// 206//
f 206// 1146// 1148//
f 206// 1148// 1150//
f 205// 414// 1146//
f 1146// 414// 413//
f 1146// 413// 1144//
f 1144// 413// 412//
f 1144// 412// 1142//
f 1142// 412// 410//
f 1142// 410// 1140//
f 1140// 410// 409//
f 1140// 409// 1041//
f 1041// 409// 466//
f 1041// 466// 467//
f 1032// 1031// 452//
f 452// 1031// 467//
f 1042// 1032// 419//
f 419// 1032// 452//
f 1043// 1042// 421//
f 421// 1042// 419//
f 1044// 1043// 420//
f 420// 1043// 421//
f 1044// 420// 422//
f 1044// 422// 1081//
f 1081// 422// 423//
f 1081// 423// 1057//
f 1057// 423// 446//
f 1057// 446// 1058//
f 1058// 446// 445//
f 1058// 445// 1059//
f 1059// 445// 444//
f 1059// 444// 1047//
f 1047// 444// 440//
f 1047// 440// 1049//
f 1049// 440// 441//
f 1049// 441// 1051//
f 1051// 441// 437//
f 1051// 437// 1053//
f 1053// 437// 439//
f 1053// 439// 1024//
f 1024// 439// 438//
f 1024// 438// 1035//
f 1035// 438// 436//
f 1035// 436// 1119//
f 1119// 436// 435//
f 1119// 435// 1117//
f 1117// 435// 443//
f 1117// 443// 1115//
f 1115// 443// 442//
f 1115// 442// 1113//
f 1111// 1113// 442//
f 442// 430// 1111//
f 1111// 430// 475//
f 1111// 475// 474//
f 487// 1133// 474//
f 474// 1133// 1135//
f 474// 1135// 1111//
f 487// 501// 1133//
f 1133// 501// 500//
f 1133// 500// 1025//
f 1025// 500// 499//
f 1025// 499// 1026//
f 1026// 499// 493//
f 1026// 493// 1074//
f 1074// 493// 492//
f 1074// 492// 1075//
f 1075// 492// 491//
f 1075// 491// 1077//
f 1077// 491// 488//
f 1077// 488// 1078//
f 1078// 488// 483//
f 1078// 483// 1029//
f 1029// 483// 486//
f 1029// 486// 1030//
f 1030// 486// 494//
f 1030// 494// 1070//
f 1070// 494// 496//
f 1070// 496// 1072//
f 1072// 496// 498//
f 1072// 498// 1123//
f 1123// 498// 497//
f 1123// 497// 1125//
f 1125// 497// 495//
f 1125// 495// 1127//
f 1127// 495// 485//
f 1127// 485// 1129//
f 1129// 485// 484//
f 1129// 484// 1130//
f 1130// 484// 482//
f 1130// 482// 1107//
f 1107// 482// 481//
f 1107// 481// 1109//
f 1109// 481// 490//
f 1109// 490// 1110//
f 1110// 490// 1061//
f 1061// 490// 489//
f 1061// 489// 473//
f 1062// 1061// 476//
f 476// 1061// 473//
f 1062// 476// 480//
f 1062// 480// 1064//
f 1064// 480// 479//
f 1064// 479// 1066//
f 1066// 479// 478//
f 1066// 478// 1093//
f 1093// 478// 477//
f 1093// 477// 1094//
f 1094// 477// 429//
f 1094// 429// 1096//
f 429// 428// 1096//
f 1096// 428// 427//
f 1096// 427// 1098//
f 1098// 427// 458//
f 1098// 458// 1100//
f 1100// 458// 457//
f 1100// 457// 1102//
f 1102// 457// 456//
f 1102// 456// 1104//
f 1104// 456// 455//
f 1104// 455// 1105//
f 1105// 455// 472//
f 1105// 472// 1083//
f 1083// 472// 471//
f 1083// 471// 1085//
f 1085// 471// 470//
f 1085// 470// 1087//
f 1087// 470// 469//
f 1087// 469// 1089//
f 1091// 1089// 468//
f 468// 1089// 469//
f 1091// 468// 434//
f 1091// 434// 1162//
f 1162// 434// 433//
f 1162// 433// 1159//
f 1159// 433// 432//
f 1159// 432// 1173//
f 1173// 432// 418//
f 1173// 418// 1167//
f 1167// 418// 417//
f 1167// 417// 1168//
f 1168// 417// 424//
f 1168// 424// 1170//
f 1170// 424// 454//
f 1170// 454// 1171//
f 1171// 454// 453//
f 1171// 453// 1172//
f 1172// 453// 451//
f 1172// 451// 1169//
f 1169// 451// 450//
f 1169// 450// 1164//
f 1164// 450// 465//
f 1164// 465// 1165//
f 1165// 465// 464//
f 1165// 464// 1166//
f 1166// 464// 463//
f 1166// 463// 1160//
f 1160// 463// 462//
f 1160// 462// 1161//
f 1161// 462// 461//
f 1161// 461// 1163//
f 1163// 461// 460//
f 1163// 460// 1092//
f 1092// 460// 459//
f 1092// 459// 1090//
f 1088// 1090// 449//
f 449// 1090// 459//
f 1088// 449// 448//
f 1088// 448// 1086//
f 1086// 448// 447//
f 1086// 447// 1084//
f 1084// 447// 426//
f 1084// 426// 1082//
f 1082// 426// 425//
f 1082// 425// 1103//
f 1103// 425// 431//
f 1103// 431// 1101//
f 1101// 431// 416//
f 1101// 416// 1099//
f 1045// 1174// 1175//
f 1045// 1175// 1034//
f 1034// 1175// 1176//
f 1034// 1176// 1033//
f 1033// 1176// 1177//
f 1033// 1177// 1060//
f 1060// 1177// 1178//
f 1060// 1178// 1039//
f 1039// 1178// 1179//
f 1039// 1179// 1040//
f 1040// 1179// 1180//
f 1040// 1180// 1138//
f 1138// 1180// 1181//
f 1138// 1181// 1139//
f 1139// 1181// 1182//
f 1139// 1182// 1141//
f 1141// 1182// 1183//
f 1141// 1183// 1143//
f 1143// 1183// 1184//
f 1143// 1184// 1145//
f 1145// 1184// 1185//
f 1145// 1185// 1147//
f 1147// 1185// 1186//
f 1147// 1186// 1149//
f 1149// 1186// 1187//
f 1149// 1187// 1151//
f 1151// 1187// 1188//
f 1151// 1188// 1153//
f 1153// 1188// 1189//
f 1153// 1189// 1155//
f 1155// 1189// 1190//
f 1155// 1190// 1157//
f 1157// 1190// 1191//
f 1157// 1191// 1158//
f 1158// 1191// 1192//
f 1158// 1192// 1080//
f 1080// 1192// 1193//
f 1080// 1193// 1079//
f 1079// 1193// 1194//
f 1079// 1194// 1056//
f 1056// 1194// 1195//
f 1056// 1195// 1055//
f 1055// 1195// 1196//
f 1055// 1196// 1054//
f 1054// 1196// 1197//
f 1054// 1197// 1052//
f 1052// 1197// 1198//
f 1052// 1198// 1050//
f 1050// 1198// 1199//
f 1050// 1199// 1048//
f 1048// 1199// 1200//
f 1048// 1200// 1046//
f 1046// 1200// 1174//
f 1046// 1174// 1045//
usemtl 1
f 1200// 1199// 1188//
f 1188// 1199// 1198//
f 1188// 1198// 1197//
f 1175// 1187// 1186//
f 1187// 1175// 1188//
f 1188// 1175// 1174//
f 1188// 1174// 1200//
f 1193// 1192// 1197//
f 1197// 1192// 1191//
f 1184// 1178// 1177//
f 1196// 1195// 1197//
f 1197// 1195// 1194//
f 1197// 1194// 1193//
f 1191// 1190// 1197//
f 1197// 1190// 1189//
f 1197// 1189// 1188//
f 1186// 1185// 1175//
f 1175// 1185// 1184//
f 1175// 1184// 1176//
f 1176// 1184// 1177//
f 1182// 1181// 1183//
f 1183// 1181// 1180//
f 1183// 1180// 1184//
f 1184// 1180// 1179//
f 1184// 1179// 1178//
usemtl 3
f 1201// 1202// 1203//
f 1203// 1202// 1204//
f 1203// 1204// 1205//
f 1205// 1204// 1206//
f 1205// 1206// 1207//
f 1207// 1206// 1208//
f 1207// 1208// 1209//
f 1209// 1208// 1210//
f 1209// 1210// 1211//
f 1211// 1210// 1212//
f 1211// 1212// 1213//
f 1212// 1214// 1213//
f 1213// 1214// 1215//
f 1213// 1215// 1216//
f 1216// 1215// 1217//
f 1216// 1217// 1218//
f 1218// 1217// 1219//
f 1218// 1219// 1220//
f 1220// 1219// 1221//
f 1220// 1221// 1222//
f 1222// 1221// 1223//
f 1222// 1223// 1224//
f 1224// 1223// 1225//
f 1224// 1225// 1226//
f 1226// 1225// 1227//
f 1226// 1227// 1228//
f 1228// 1227// 1229//
f 1228// 1229// 1230//
f 1230// 1229// 1231//
f 1230// 1231// 1232//
f 1232// 1231// 1233//
f 1232// 1233// 1234//
f 1234// 1233// 1235//
f 1234// 1235// 1201//
f 1201// 1235// 1236//
f 1201// 1236// 1202//
f 1201// 515// 516//
f 1201// 516// 1234//
f 1234// 516// 519//
f 1234// 519// 1232//
f 1232// 519// 518//
f 1232// 518// 1230//
f 1230// 518// 517//
f 1230// 517// 1228//
f 1228// 517// 506//
f 1228// 506// 1226//
f 1226// 506// 505//
f 1226// 505// 1224//
f 1224// 505// 521//
f 1224// 521// 1222//
f 1222// 521// 520//
f 1222// 520// 1220//
f 523// 1213// 1216//
f 1220// 520// 510//
f 1220// 510// 1218//
f 1218// 510// 509//
f 1218// 509// 1216//
f 1216// 509// 524//
f 1216// 524// 523//
f 1211// 1213// 529//
f 529// 1213// 523//
f 1209// 1211// 528//
f 528// 1211// 529//
f 1207// 1209// 526//
f 526// 1209// 528//
f 515// 1201// 1203//
f 1207// 526// 525//
f 1207// 525// 1205//
f 1205// 525// 511//
f 1205// 511// 1203//
f 1203// 511// 513//
f 1203// 513// 515//
f 1221// 1237// 1238//
f 1221// 1238// 1223//
f 1223// 1238// 1239//
f 1223// 1239// 1225//
f 1225// 1239// 1240//
f 1225// 1240// 1227//
f 1227// 1240// 1241//
f 1227// 1241// 1229//
f 1214// 1242// 1243//
f 1214// 1243// 1215//
f 1215// 1243// 1244//
f 1215// 1244// 1217//
f 1217// 1244// 1245//
f 1217// 1245// 1219//
f 1219// 1245// 1237//
f 1219// 1237// 1221//
f 1214// 1212// 1242//
f 1242// 1212// 1246//
f 1212// 1210// 1246//
f 1246// 1210// 1247//
f 1210// 1208// 1247//
f 1247// 1208// 1248//
f 1236// 1249// 1250//
f 1236// 1250// 1202//
f 1202// 1250// 1251//
f 1202// 1251// 1204//
f 1204// 1251// 1252//
f 1204// 1252// 1206//
f 1206// 1252// 1248//
f 1206// 1248// 1208//
f 1229// 1241// 1253//
f 1229// 1253// 1231//
f 1231// 1253// 1254//
f 1231// 1254// 1233//
f 1233// 1254// 1255//
f 1233// 1255// 1235//
f 1235// 1255// 1249//
f 1235// 1249// 1236//
usemtl 1
f 1251// 1250// 1243//
f 1246// 1247// 1242//
f 1242// 1247// 1248//
f 1242// 1248// 1243//
f 1243// 1248// 1252//
f 1243// 1252// 1251//
f 1250// 1249// 1243//
f 1243// 1249// 1255//
f 1243// 1255// 1254//
f 1241// 1237// 1245//
f 1240// 1239// 1241//
f 1241// 1239// 1238//
f 1241// 1238// 1237//
f 1254// 1253// 1243//
f 1243// 1253// 1241//
f 1243// 1241// 1244//
f 1244// 1241// 1245//
usemtl 3
f 1256// 54// 59//
f 1256// 59// 1257//
f 1257// 59// 60//
f 1257// 60// 1258//
f 1258// 60// 58//
f 1258// 58// 1259//
f 1259// 58// 57//
f 1259// 57// 1260//
f 1260// 57// 56//
f 1260// 56// 1261//
f 1261// 56// 55//
f 1261// 55// 1262//
f 1262// 55// 51//
f 1262// 51// 1263//
f 1263// 51// 50//
f 1263// 50// 1264//
f 1264// 50// 49//
f 1264// 49// 1265//
f 1265// 49// 48//
f 1265// 48// 1266//
f 1266// 48// 47//
f 1266// 47// 1267//
f 1267// 47// 46//
f 1267// 46// 1268//
f 1268// 46// 45//
f 1268// 45// 1269//
f 1269// 45// 44//
f 1269// 44// 1270//
f 1270// 44// 43//
f 1270// 43// 1271//
f 1271// 43// 42//
f 1271// 42// 1272//
f 1272// 42// 40//
f 39// 1273// 40//
f 40// 1273// 1274//
f 40// 1274// 1272//
f 39// 61// 1273//
f 1273// 61// 63//
f 1273// 63// 1275//
f 1276// 1275// 70//
f 70// 1275// 63//
f 1276// 70// 69//
f 1276// 69// 1277//
f 71// 1278// 66//
f 66// 1278// 1277//
f 66// 1277// 67//
f 67// 1277// 69//
f 1278// 71// 73//
f 1278// 73// 1279//
f 73// 91// 1279//
f 1279// 91// 90//
f 1279// 90// 1280//
f 1280// 90// 89//
f 1280// 89// 1281//
f 1281// 89// 86//
f 1281// 86// 1282//
f 1282// 86// 85//
f 1282// 85// 1283//
f 1283// 85// 84//
f 1283// 84// 1284//
f 1284// 84// 82//
f 1284// 82// 1285//
f 1285// 82// 81//
f 1285// 81// 1286//
f 1286// 81// 76//
f 1286// 76// 1287//
f 1287// 76// 75//
f 1287// 75// 1288//
f 1288// 75// 88//
f 1288// 88// 1289//
f 1289// 88// 87//
f 1289// 87// 1290//
f 93// 1291// 1292//
f 1290// 87// 80//
f 1290// 80// 1293//
f 1293// 80// 79//
f 1293// 79// 1294//
f 1294// 79// 78//
f 1294// 78// 1292//
f 1292// 78// 92//
f 1292// 92// 93//
f 96// 1295// 1296//
f 1291// 93// 1297//
f 1297// 93// 95//
f 95// 100// 1297//
f 1297// 100// 99//
f 1297// 99// 1296//
f 1296// 99// 97//
f 1296// 97// 96//
f 1298// 1295// 62//
f 62// 1295// 96//
f 1298// 62// 41//
f 1298// 41// 1299//
f 41// 52// 1299//
f 1299// 52// 53//
f 1299// 53// 1300//
f 1300// 53// 54//
f 1300// 54// 1256//
f 1265// 1266// 1283//
f 1283// 1266// 1282//
f 1286// 1264// 1285//
f 1285// 1264// 1265//
f 1285// 1265// 1284//
f 1284// 1265// 1283//
f 1266// 1267// 1282//
f 1282// 1267// 1268//
f 1282// 1268// 1281//
f 1281// 1268// 1269//
f 1281// 1269// 1280//
f 1280// 1269// 1279//
f 1279// 1269// 1270//
f 1279// 1270// 1278//
f 1295// 1298// 1296//
f 1296// 1298// 1299//
f 1296// 1299// 1297//
f 1297// 1299// 1300//
f 1297// 1300// 1291//
f 1291// 1300// 1256//
f 1291// 1256// 1292//
f 1292// 1256// 1257//
f 1292// 1257// 1294//
f 1294// 1257// 1258//
f 1294// 1258// 1293//
f 1293// 1258// 1259//
f 1293// 1259// 1290//
f 1290// 1259// 1260//
f 1290// 1260// 1289//
f 1289// 1260// 1261//
f 1289// 1261// 1288//
f 1288// 1261// 1287//
f 1287// 1261// 1262//
f 1287// 1262// 1286//
f 1286// 1262// 1263//
f 1286// 1263// 1264//
f 1270// 1271// 1278//
f 1278// 1271// 1272//
f 1278// 1272// 1277//
f 1277// 1272// 1274//
f 1277// 1274// 1276//
f 1276// 1274// 1273//
f 1276// 1273// 1275//
f 1301// 1302// 1303//
f 1303// 1302// 1304//
f 1305// 1306// 1301//
f 1301// 1306// 1307//
f 1301// 1307// 1302//
f 1302// 1307// 1308//
f 1305// 1309// 1306//
f 1306// 1309// 1310//
f 1306// 1310// 1311//
f 1311// 1310// 1312//
f 1311// 1312// 1313//
f 1313// 1314// 1311//
f 1311// 1314// 1303//
f 1311// 1303// 1315//
f 1315// 1303// 1304//
f 1315// 1304// 1316//
f 1306// 1311// 583//
f 583// 1311// 584//
f 1307// 1306// 579//
f 579// 1306// 583//
f 1308// 1307// 578//
f 578// 1307// 579//
f 1302// 1308// 582//
f 582// 1308// 578//
f 1304// 1302// 581//
f 581// 1302// 582//
f 1316// 1304// 580//
f 580// 1304// 581//
f 1315// 1316// 606//
f 606// 1316// 580//
f 1311// 1315// 584//
f 584// 1315// 606//
f 1305// 1317// 1318//
f 1305// 1318// 1309//
f 1309// 1318// 1319//
f 1309// 1319// 1310//
f 1305// 1301// 1317//
f 1317// 1301// 1320//
f 1301// 1303// 1320//
f 1320// 1303// 1321//
f 1303// 1314// 1321//
f 1321// 1314// 1322//
f 1312// 1323// 1324//
f 1312// 1324// 1313//
f 1313// 1324// 1322//
f 1313// 1322// 1314//
f 1312// 1310// 1323//
f 1323// 1310// 1319//
usemtl 1
f 1323// 1319// 1324//
f 1324// 1319// 1318//
f 1324// 1318// 1322//
f 1322// 1318// 1317//
f 1322// 1317// 1321//
f 1321// 1317// 1320//
usemtl 3
f 531// 1325// 533//
f 533// 1325// 1326//
f 533// 1326// 279//
f 1327// 1325// 530//
f 530// 1325// 531//
f 534// 1328// 532//
f 532// 1328// 1327//
f 532// 1327// 530//
f 1329// 1328// 535//
f 535// 1328// 534//
f 538// 1330// 536//
f 536// 1330// 1329//
f 536// 1329// 535//
f 1331// 1330// 539//
f 539// 1330// 538//
f 265// 1332// 537//
f 537// 1332// 1331//
f 537// 1331// 539//
f 1333// 1332// 266//
f 266// 1332// 265//
f 271// 1334// 272//
f 272// 1334// 1333//
f 272// 1333// 266//
f 1335// 1334// 601//
f 601// 1334// 271//
f 274// 1336// 602//
f 602// 1336// 1335//
f 602// 1335// 601//
f 1326// 1336// 279//
f 279// 1336// 274//
f 1335// 1336// 1326//
f 1326// 1325// 1335//
f 1335// 1325// 1327//
f 1335// 1327// 1334//
f 1332// 1333// 1331//
f 1331// 1333// 1334//
f 1331// 1334// 1330//
f 1330// 1334// 1327//
f 1330// 1327// 1329//
f 1329// 1327// 1328//
f 31// 1337// 33//
f 33// 1337// 1338//
f 33// 1338// 38//
f 1339// 1337// 30//
f 30// 1337// 31//
f 1340// 1339// 32//
f 32// 1339// 30//
f 1341// 1340// 34//
f 34// 1340// 32//
f 1342// 1341// 29//
f 29// 1341// 34//
f 1343// 1342// 28//
f 28// 1342// 29//
f 1344// 1343// 27//
f 27// 1343// 28//
f 1345// 1344// 26//
f 26// 1344// 27//
f 1346// 1345// 22//
f 22// 1345// 26//
f 1347// 1346// 21//
f 21// 1346// 22//
f 36// 1348// 20//
f 20// 1348// 1347//
f 20// 1347// 21//
f 1338// 1348// 38//
f 38// 1348// 36//
f 1347// 1348// 1338//
f 1338// 1337// 1347//
f 1347// 1337// 1339//
f 1347// 1339// 1346//
f 1344// 1345// 1343//
f 1343// 1345// 1346//
f 1343// 1346// 1342//
f 1342// 1346// 1339//
f 1342// 1339// 1341//
f 1341// 1339// 1340//
f 1349// 1350// 1351//
f 1351// 1350// 1352//
f 1353// 1354// 1349//
f 1349// 1354// 1355//
f 1349// 1355// 1350//
f 1350// 1355// 1356//
f 1353// 1357// 1354//
f 1354// 1357// 1358//
f 1354// 1358// 1359//
f 1359// 1358// 1360//
f 1359// 1360// 1361//
f 1361// 1362// 1359//
f 1359// 1362// 1351//
f 1359// 1351// 1363//
f 1363// 1351// 1352//
f 1363// 1352// 1364//
f 1354// 1359// 605//
f 605// 1359// 596//
f 1355// 1354// 595//
f 595// 1354// 605//
f 1356// 1355// 594//
f 594// 1355// 595//
f 1350// 1356// 600//
f 600// 1356// 594//
f 1352// 1350// 599//
f 599// 1350// 600//
f 1364// 1352// 598//
f 598// 1352// 599//
f 1363// 1364// 597//
f 597// 1364// 598//
f 1359// 1363// 596//
f 596// 1363// 597//
f 1353// 1365// 1366//
f 1353// 1366// 1357//
f 1357// 1366// 1367//
f 1357// 1367// 1358//
f 1353// 1349// 1365//
f 1365// 1349// 1368//
f 1349// 1351// 1368//
f 1368// 1351// 1369//
f 1351// 1362// 1369//
f 1369// 1362// 1370//
f 1360// 1371// 1372//
f 1360// 1372// 1361//
f 1361// 1372// 1370//
f 1361// 1370// 1362//
f 1360// 1358// 1371//
f 1371// 1358// 1367//
usemtl 1
f 1371// 1367// 1372//
f 1372// 1367// 1366//
f 1372// 1366// 1370//
f 1370// 1366// 1365//
f 1370// 1365// 1369//
f 1369// 1365// 1368//
usemtl 3
f 544// 1373// 546//
f 546// 1373// 1374//
f 546// 1374// 548//
f 1375// 1373// 543//
f 543// 1373// 544//
f 1375// 543// 1376//
f 1376// 543// 545//
f 1376// 545// 547//
f 1377// 1376// 549//
f 549// 1376// 547//
f 553// 1378// 551//
f 551// 1378// 1377//
f 551// 1377// 549//
f 1379// 1378// 554//
f 554// 1378// 553//
f 1379// 554// 1380//
f 1380// 554// 552//
f 1380// 552// 550//
f 1381// 1380// 541//
f 541// 1380// 550//
f 559// 1382// 542//
f 542// 1382// 1381//
f 542// 1381// 541//
f 1383// 1382// 558//
f 558// 1382// 559//
f 1383// 558// 1384//
f 1384// 558// 557//
f 1384// 557// 555//
f 1374// 1384// 548//
f 548// 1384// 555//
f 1383// 1384// 1374//
f 1374// 1373// 1383//
f 1383// 1373// 1375//
f 1383// 1375// 1382//
f 1380// 1381// 1379//
f 1379// 1381// 1382//
f 1379// 1382// 1378//
f 1378// 1382// 1375//
f 1378// 1375// 1377//
f 1377// 1375// 1376//
f 1385// 1386// 593//
f 593// 1386// 587//
f 1387// 1385// 590//
f 590// 1385// 593//
f 1388// 1387// 592//
f 592// 1387// 590//
f 1389// 1388// 589//
f 589// 1388// 592//
f 1390// 1389// 588//
f 588// 1389// 589//
f 1386// 1390// 587//
f 587// 1390// 588//
f 1387// 1388// 1385//
f 1385// 1388// 1389//
f 1385// 1389// 1386//
f 1386// 1389// 1390//
