v -3.35 -0.741368 1.553228
v -3.35 -1.5 1.553228
v -3.35 -0.741368 1.355035
newmtl 1
Ka 0.8509803921568627 0.8509803921568627 0.8509803921568627
Kd 0.8509803921568627 0.8509803921568627 0.8509803921568627
Ks 0.4235294117647059 0.4235294117647059 0.4235294117647059
d 0.0
endmtl
v -3.35 -1.5 0.3
v -3.35 0.741368 1.355035
v -3.35 1.5 0.3
v -3.35 0.741368 1.553228
v -3.35 1.5 1.553228
v -3.5 0.741368 1.553228
v -3.5 1.5 1.553228
v -3.5 0.741368 1.355035
v -3.5 1.5 0.3
v -3.5 -0.741368 1.355035
v -3.5 -1.5 0.3
v -3.5 -0.741368 1.553228
v -3.5 -1.5 1.553228
v -3.3 -0.741368 1.603228
v -3.3 -1.5 1.603228
v -3.312941 -0.741368 1.601524
v -3.312941 -1.5 1.601524
v -3.325 -0.741368 1.596529
v -3.325 -1.5 1.596529
v -3.335355 -0.741368 1.588583
v -3.335355 -1.5 1.588583
v -3.343301 -0.741368 1.578228
v -3.343301 -1.5 1.578228
v -3.348296 -0.741368 1.566169
v -3.348296 -1.5 1.566169
v -3.3 1.5 1.603228
v -3.3 0.741368 1.603228
v -3.312941 1.5 1.601524
v -3.312941 0.741368 1.601524
v -3.325 1.5 1.596529
v -3.325 0.741368 1.596529
v -3.335355 1.5 1.588583
v -3.335355 0.741368 1.588583
v -3.343301 1.5 1.578228
v -3.343301 0.741368 1.578228
v -3.348296 1.5 1.566169
v -3.348296 0.741368 1.566169
v -3.493185 -1.5 1.604992
v -3.493185 -0.741368 1.604992
v -3.473205 -1.5 1.653228
v -3.473205 -0.741368 1.653228
v -3.441421 -1.5 1.694649
v -3.441421 -0.741368 1.694649
v -3.4 -1.5 1.726433
v -3.4 -0.741368 1.726433
v -3.351764 -1.5 1.746413
v -3.351764 -0.741368 1.746413
v -3.3 -1.5 1.753228
v -3.3 -0.741368 1.753228
v -3.493185 0.741368 1.604992
v -3.493185 1.5 1.604992
v -3.473205 0.741368 1.653228
v -3.473205 1.5 1.653228
v -3.441421 0.741368 1.694649
v -3.441421 1.5 1.694649
v -3.4 0.741368 1.726433
v -3.4 1.5 1.726433
v -3.351764 0.741368 1.746413
v -3.351764 1.5 1.746413
v -3.3 0.741368 1.753228
v -3.3 1.5 1.753228
v -0.129454 3.3 1.581715
v -0.107165 3.3 1.579744
v -0.144387 3.3 1.579744
newmtl 2
Ka 0.6470588235294118 0.6470588235294118 0.6470588235294118
Kd 0.6470588235294118 0.6470588235294118 0.6470588235294118
Ks 0.3215686274509804 0.3215686274509804 0.3215686274509804
d 0.0
endmtl
v -0.083527 3.3 1.765872
v -0.086744 3.3 1.76624
v -0.022427 3.3 1.76624
v -0.144387 3.3 1.763824
v -0.144387 3.3 1.76624
v -0.136235 3.3 1.76624
v 0.064427 3.3 1.76706
v 0.064433 3.3 1.76624
v -0.011463 3.3 1.76624
v -0.578567 3.3 1.7625
v -0.646695 3.3 1.579744
v -0.705087 3.3 1.579744
v 0.261818 3.3 1.558204
v 0.2497 3.3 1.527264
v 0.165999 3.3 1.527264
v 0.769113 3.3 1.470698
v 0.609125 3.3 1.470698
v 0.602186 3.3 1.47426
v 1.072359 3.3 1.519866
v 1.070946 3.3 1.527264
v 2.9 3.3 1.527264
v 0.73243 3.3 1.793823
v 0.729774 3.3 1.794729
v 2.9 3.3 1.794729
v 0.438222 3.3 1.751098
v 0.392077 3.3 1.695697
v 0.165999 3.3 1.76624
v 0.368487 3.3 1.647508
v 0.362036 3.3 1.645287
v 0.561478 3.3 1.814184
v 0.507484 3.3 1.794729
v 0.165999 3.3 1.794729
v 0.496155 3.3 1.790647
v 0.460403 3.3 1.76624
v 0.615213 3.3 1.820214
v 0.165999 3.3 2.95
v 2.9 3.3 2.95
v 0.67157 3.3 1.814593
v 2.9 3.3 1.76624
v 0.777131 3.3 1.76624
v 0.772166 3.3 1.770432
v 0.910178 3.3 1.710562
v 0.859986 3.3 1.716244
v 0.803019 3.3 1.744387
v 0.844985 3.3 1.715322
v 0.829991 3.3 1.713422
v 1.010498 3.3 1.654672
v 1.000621 3.3 1.663832
v 0.958734 3.3 1.692452
v 2.9 3.3 1.579744
v 1.063012 3.3 1.568815
v 1.058011 3.3 1.579744
v 1.041643 3.3 1.615517
v 1.072885 3.3 1.506344
v 2.9 3.3 1.47426
v 1.069249 3.3 1.47426
v 2.9 3.3 1.470698
v 1.068846 3.3 1.470698
v 0.501746 3.3 1.370872
v 0.492767 3.3 1.374346
v 0.476908 3.3 1.448612
v 0.509811 3.3 1.365242
v 0.482646 3.3 1.375572
v 0.481376 3.3 1.375471
v 0.477468 3.3 1.374576
v 0.523386 3.3 1.335406
v 0.523018 3.3 1.340554
v 0.660284 3.3 1.353342
v 0.520327 3.3 1.350467
v 0.515245 3.3 1.359334
v 0.980221 3.3 1.329785
v 1.019087 3.3 1.363717
v 2.9 3.3 0.1
v 1.04918 3.3 1.407621
v 1.067225 3.3 1.456402
v 0.493172 3.3 1.295921
v 0.50178 3.3 1.29938
v 0.669011 3.3 1.29464
v 0.510201 3.3 1.305457
v 0.513212 3.3 1.308566
v 0.518842 3.3 1.316804
v 0.522216 3.3 1.325677
v 0.66117 3.3 1.326806
v 0.660377 3.3 1.340292
v 0.827626 3.3 1.215883
v 0.857641 3.3 1.228752
v 0.883027 3.3 1.248177
v 0.902261 3.3 1.272268
v 0.34839 3.3 1.406095
v 0.333891 3.3 1.426349
v 0.324735 3.3 1.449543
v 0.489616 3.3 1.470698
v 0.165999 3.3 1.47426
v 0.241183 3.3 1.470698
v 0.165999 3.3 1.470698
v 0.24684 3.3 1.429071
v 0.165999 3.3 0.1
v 0.263535 3.3 1.38788
v 0.289672 3.3 1.352018
v 0.704898 3.3 1.24325
v 0.73102 3.3 1.225352
v 0.915136 3.3 1.300339
v 0.933461 3.3 1.306053
v 0.474825 3.3 1.374212
v 0.416103 3.3 1.373795
v 0.392703 3.3 1.378099
v 0.325412 3.3 1.322201
v 0.365368 3.3 1.303005
v 0.408838 3.3 1.294138
v 0.369595 3.3 1.388591
v 0.35018 3.3 1.4042
v 0.684638 3.3 1.265653
v 0.485829 3.3 1.294684
v 0.760205 3.3 1.214385
v 0.791796 3.3 1.210724
v 0.796851 3.3 1.210855
v 0.321976 3.3 1.470698
v 0.321511 3.3 1.47426
v 0.491666 3.3 1.47426
v 0.321426 3.3 1.474914
v 0.985245 3.3 1.47426
v 0.989251 3.3 1.488335
v 0.51687 3.3 1.51806
v 0.990656 3.3 1.508371
v 0.988194 3.3 1.527264
v 0.321976 3.3 1.486285
v 0.327911 3.3 1.511397
v 0.336305 3.3 1.527264
v 0.742602 3.3 1.46391
v 0.71502 3.3 1.448869
v 0.69238 3.3 1.427955
v 0.849995 3.3 1.458592
v 0.82109 3.3 1.469406
v 0.984231 3.3 1.470698
v 0.809946 3.3 1.470698
v 0.789936 3.3 1.473017
v 0.774043 3.3 1.47196
v 0.98014 3.3 1.456322
v 0.898568 3.3 1.415743
v 0.876813 3.3 1.440251
v 0.964733 3.3 1.429658
v 0.941503 3.3 1.405461
v 0.913211 3.3 1.387761
v 0.432928 3.3 1.577495
v 0.975168 3.3 1.568933
v 0.986547 3.3 1.539906
v 0.422489 3.3 1.577421
v 0.339872 3.3 1.534006
v 0.354856 3.3 1.550986
v 0.374997 3.3 1.56526
v 0.397711 3.3 1.574188
v 0.460447 3.3 1.656003
v 0.489614 3.3 1.691391
v 0.790213 3.3 1.617874
v 0.492984 3.3 1.694505
v 0.529471 3.3 1.720201
v 0.770001 3.3 1.658986
v 0.967533 3.3 1.579744
v 0.799593 3.3 1.623084
v 0.433405 3.3 1.579744
v 0.440631 3.3 1.613804
v 0.828781 3.3 1.63396
v 0.859236 3.3 1.637939
v 0.872733 3.3 1.637337
v 0.740491 3.3 1.693749
v 0.570283 3.3 1.736163
v 0.705274 3.3 1.719099
v 0.614463 3.3 1.741908
v 0.662517 3.3 1.736069
v 0.905007 3.3 1.629953
v 0.934213 3.3 1.614738
v 0.956901 3.3 1.594799
v 0.246163 3.3 1.518233
v 0.24051 3.3 1.475645
v 0.240698 3.3 1.47426
v 0.323345 3.3 1.625725
v 0.288176 3.3 1.595526
v 0.165999 3.3 1.579744
v 0.27703 3.3 1.579744
v -0.653949 3.3 1.459598
v -0.705087 3.3 1.470698
v -0.631856 3.3 1.467847
v -0.607617 3.3 1.470698
v -0.695059 3.3 1.34789
v -0.685888 3.3 1.32897
v -0.705087 3.3 0.1
v -0.672125 3.3 1.31282
v -0.652897 3.3 1.299232
v -0.673072 3.3 1.446345
v -0.679473 3.3 1.439998
v -0.690728 3.3 1.423924
v -0.697402 3.3 1.406379
v -0.700291 3.3 1.381028
v -0.699658 3.3 1.369347
v -0.631926 3.3 1.291202
v -0.600676 3.3 1.287615
v -0.532932 3.3 0.1
v -0.550194 3.3 1.287973
v -0.532932 3.3 1.470698
v -0.55149 3.3 1.470698
v -0.532932 3.3 1.47426
v -0.551495 3.3 1.471511
v -0.603854 3.3 1.47114
v -0.705087 3.3 1.47426
v -0.512641 3.3 1.470698
v -0.512498 3.3 1.450675
v -0.506725 3.3 1.370953
v -0.506874 3.3 1.391972
v -0.477307 3.3 1.392181
v -0.477307 3.3 0.1
v -0.515522 3.3 1.288219
v -0.515671 3.3 1.309144
v -0.477307 3.3 1.309416
v -0.477307 3.3 1.371162
v -0.441089 3.3 1.371418
v -0.440651 3.3 1.309676
v -0.477307 3.3 1.450924
v -0.441654 3.3 1.451177
v -0.441238 3.3 1.392437
v -0.512648 3.3 1.471787
v -0.477307 3.3 1.47426
v -0.305152 3.3 1.47426
v -0.418111 3.3 1.472457
v -0.477307 3.3 1.472038
v -0.305152 3.3 1.384665
v -0.326397 3.3 1.322122
v -0.332636 3.3 1.32189
v -0.329135 3.3 1.311311
v -0.329745 3.3 1.311307
v -0.330833 3.3 1.315792
v -0.305152 3.3 1.470698
v -0.369133 3.3 1.420349
v -0.418099 3.3 1.470698
v -0.392967 3.3 1.42018
v -0.416809 3.3 1.288919
v -0.332406 3.3 1.269718
v -0.321855 3.3 1.249523
v -0.313371 3.3 1.239479
v -0.311794 3.3 1.238055
v -0.305152 3.3 1.233482
v -0.16653 3.3 1.386409
v -0.167491 3.3 1.394603
v -0.144387 3.3 1.470698
v -0.175676 3.3 1.312991
v -0.177386 3.3 1.312361
v -0.177386 3.3 1.361164
v -0.167458 3.3 1.377464
v -0.172905 3.3 1.365626
v -0.169946 3.3 1.370427
v -0.165912 3.3 1.319038
v -0.176638 3.3 1.361666
v -0.165743 3.3 1.295298
v -0.144387 3.3 0.1
v -0.177386 3.3 1.291118
v -0.177386 3.3 0.1
v -0.181899 3.3 1.289498
v -0.246955 3.3 1.347459
v -0.251201 3.3 1.341096
v -0.248707 3.3 1.396055
v -0.254496 3.3 1.325729
v -0.253337 3.3 1.316501
v -0.260831 3.3 0.1
v -0.18146 3.3 1.414267
v -0.187182 3.3 1.417722
v -0.177386 3.3 1.470698
v -0.170276 3.3 1.401986
v -0.174585 3.3 1.40817
v -0.177386 3.3 1.410654
v -0.199546 3.3 1.422376
v -0.217848 3.3 1.424425
v -0.260831 3.3 1.470698
v -0.233965 3.3 1.42288
v -0.248866 3.3 1.418387
v -0.250462 3.3 1.309235
v -0.246135 3.3 1.303202
v -0.239516 3.3 1.297496
v -0.234098 3.3 1.294221
v -0.221956 3.3 1.289651
v -0.201252 3.3 1.287351
v -0.215464 3.3 1.405768
v -0.208655 3.3 1.405306
v -0.190238 3.3 1.388305
v -0.202493 3.3 1.403722
v -0.197319 3.3 1.401017
v -0.190426 3.3 1.385246
v -0.191313 3.3 1.381668
v -0.192947 3.3 1.378555
v -0.195171 3.3 1.376071
v -0.20324 3.3 1.370947
v -0.229553 3.3 1.404181
v -0.217424 3.3 1.364653
v -0.242583 3.3 1.399553
v -0.2263 3.3 1.360988
v -0.241508 3.3 1.352389
v -0.193829 3.3 1.397976
v -0.191837 3.3 1.395065
v -0.19068 3.3 1.391969
v -0.190095 3.3 1.307683
v -0.201072 3.3 1.348066
v -0.187414 3.3 1.354444
v -0.203637 3.3 1.306102
v -0.204652 3.3 1.306101
v -0.216123 3.3 1.341637
v -0.216446 3.3 1.307338
v -0.23088 3.3 1.323644
v -0.230676 3.3 1.326506
v -0.222394 3.3 1.309467
v -0.224499 3.3 1.310724
v -0.227154 3.3 1.313047
v -0.229182 3.3 1.316001
v -0.230373 3.3 1.319262
v -0.229657 3.3 1.330103
v -0.227901 3.3 1.333163
v -0.225057 3.3 1.336166
v -0.705087 3.3 1.76624
v -0.532932 3.3 1.76624
v -0.553232 3.3 1.762679
v -0.477307 3.3 1.579744
v -0.482066 3.3 1.579744
v -0.532932 3.3 1.710497
v -0.482024 3.3 1.579637
v -0.477307 3.3 1.527264
v -0.508204 3.3 1.579451
v -0.532932 3.3 1.527264
v -0.508309 3.3 1.579744
v -0.532932 3.3 1.579744
v -0.532932 3.3 1.629479
v -0.526201 3.3 1.629527
v -0.602628 3.3 1.628985
v -0.620593 3.3 1.579744
v -0.620992 3.3 1.578651
v -0.647171 3.3 1.578465
v -0.705087 3.3 1.527264
v -0.260831 3.3 1.76624
v -0.260831 3.3 1.764753
v -0.284868 3.3 1.764583
v -0.260831 3.3 1.684897
v -0.279094 3.3 1.684767
v -0.284718 3.3 1.74347
v -0.305152 3.3 1.76624
v -0.305152 3.3 1.579744
v -0.278945 3.3 1.663748
v -0.260831 3.3 1.663877
v -0.213308 3.3 1.664214
v -0.260831 3.3 1.602131
v -0.21287 3.3 1.602471
v -0.260831 3.3 1.743639
v -0.213874 3.3 1.743972
v -0.213457 3.3 1.685233
v -0.189029 3.3 1.581715
v -0.177386 3.3 1.579744
v -0.260831 3.3 1.579744
v -0.28789 3.3 1.601939
v -0.287742 3.3 1.581015
v -0.260831 3.3 1.581205
v -0.190331 3.3 1.765253
v -0.177386 3.3 1.76624
v 0.065581 3.3 1.604446
v -0.007516 3.3 1.603928
v -0.011463 3.3 1.579744
v -0.007367 3.3 1.583003
v 0.089422 3.3 1.58369
v -0.011463 3.3 1.794729
v 0.08812 3.3 1.767228
v 0.088127 3.3 1.76624
v -0.153564 3.3 1.761103
v -0.153388 3.3 1.736331
v -0.132785 3.3 1.744665
v -0.110208 3.3 1.747523
v -0.144387 3.3 1.608705
v -0.152508 3.3 1.612283
v -0.151352 3.3 1.737449
v -0.144387 3.3 1.740156
v -0.10082 3.3 1.747086
v -0.085137 3.3 1.743683
v -0.070876 3.3 1.73662
v -0.06005 3.3 1.727516
v -0.058841 3.3 1.726211
v -0.049868 3.3 1.713531
v -0.043597 3.3 1.697739
v -0.040376 3.3 1.672478
v -0.040682 3.3 1.663307
v -0.043859 3.3 1.645461
v -0.113612 3.3 1.600586
v -0.134397 3.3 1.604304
v -0.073604 3.3 1.607796
v -0.08666 3.3 1.602664
v -0.105035 3.3 1.600327
v -0.050021 3.3 1.630937
v -0.058021 3.3 1.619992
v -0.061659 3.3 1.616347
v -0.144387 3.3 1.794729
v -0.134148 3.3 1.766859
v -0.029085 3.3 1.725084
v -0.042514 3.3 1.742373
v -0.04704 3.3 1.746634
v -0.064301 3.3 1.758556
v -0.022427 3.3 1.579744
v -0.022427 3.3 1.632131
v -0.020223 3.3 1.704758
v -0.022427 3.3 1.709813
v -0.018926 3.3 1.641273
v -0.0155 3.3 1.671247
v -0.015891 3.3 1.680827
v -0.090371 3.3 1.579842
v -0.070511 3.3 1.584081
v -0.053249 3.3 1.592374
v -0.038582 3.3 1.60474
v -0.037128 3.3 1.606349
v -0.026275 3.3 1.622083
v -0.10146 3.3 1.579239
v -0.144387 3.3 1.527264
v -0.092187 3.3 1.579744
v -0.022427 3.3 1.527264
v -0.152347 3.3 1.589576
v -0.149205 3.3 1.588038
v -0.144387 3.3 1.586496
v -0.011463 3.3 1.470698
v -0.004319 3.3 1.470698
v -0.004202 3.3 1.454279
v 0.066642 3.3 1.454782
v 0.067059 3.3 1.396042
v 0.001422 3.3 1.395577
v 0.001571 3.3 1.374558
v 0.067208 3.3 1.375023
v 0.067646 3.3 1.313281
v -0.007374 3.3 1.312749
v -0.007226 3.3 1.291824
v -0.004352 3.3 1.475392
v -0.004344 3.3 1.47426
v -0.011463 3.3 1.47426
v -0.011463 3.3 1.527264
v 0.090185 3.3 1.476062
v 0.090198 3.3 1.47426
v 0.090223 3.3 1.470698
v -0.27052 3.3 1.230088
v -0.270666 3.3 1.250543
v -0.292847 3.3 1.42089
v -0.267136 3.3 1.421073
v -0.253606 3.3 1.334301
v -0.477307 3.3 1.28849
v -0.305152 3.3 0.1
v -0.303725 3.3 1.2325
v -0.305152 3.3 1.322317
v -0.298386 3.3 1.253055
v -0.302703 3.3 1.257765
v -0.294628 3.3 1.229108
v -0.285333 3.3 1.228106
v -0.280259 3.3 1.228324
v -0.275358 3.3 1.248969
v -0.28369 3.3 1.247824
v -0.289645 3.3 1.248506
v -0.294648 3.3 1.250462
v -0.305152 3.3 1.262157
v -0.307373 3.3 1.266142
v -0.317629 3.3 1.289904
v -2.9 3.3 1.470698
v -1.887476 3.3 1.470698
v -2.9 3.3 0.1
v -1.887476 3.3 0.1
v -0.735984 3.3 1.286655
v -0.709804 3.3 1.286841
v -0.781012 3.3 1.469884
v -0.806347 3.3 1.469704
v -0.874951 3.3 1.28567
v -0.848772 3.3 1.285855
v -0.830408 3.3 1.336189
v -0.753981 3.3 1.336731
v -1.887476 3.3 1.47426
v -2.9 3.3 1.47426
v -1.887476 3.3 1.527264
v -1.887476 3.3 1.579744
v -2.9 3.3 1.527264
v -2.9 3.3 1.579744
v -1.887476 3.3 1.76624
v -2.9 3.3 1.76624
v -0.471877 3.3 1.662143
v -0.467279 3.3 1.640685
v -0.462948 3.3 1.716719
v -0.469622 3.3 1.699175
v -0.477307 3.3 1.76624
v -0.472511 3.3 1.673824
v -0.458108 3.3 1.621766
v -0.444345 3.3 1.605616
v -0.425117 3.3 1.592028
v -0.376074 3.3 1.763936
v -0.404076 3.3 1.760642
v -0.426169 3.3 1.752394
v -0.404146 3.3 1.583997
v -0.372896 3.3 1.580411
v -0.322413 3.3 1.580769
v -0.323715 3.3 1.764307
v -0.445292 3.3 1.739141
v -0.451693 3.3 1.732793
v -0.177386 3.3 1.527264
v -0.260831 3.3 1.527264
v -0.305152 3.3 1.527264
v -0.177386 3.3 1.794729
v -0.260831 3.3 1.794729
v -0.305152 3.3 1.794729
v -0.477307 3.3 1.794729
v -0.532932 3.3 1.794729
v -0.705087 3.3 1.794729
v -1.887476 3.3 1.794729
v -2.9 3.3 1.794729
v -0.033452 3.3 1.345851
v -0.038253 3.3 1.353287
v -0.042744 3.3 1.391135
v -0.093622 3.3 1.405815
v -0.085832 3.3 1.406687
v -0.073274 3.3 1.369241
v -0.098643 3.3 1.296945
v -0.092556 3.3 1.293095
v -0.111569 3.3 1.291084
v -0.083325 3.3 1.289667
v -0.070776 3.3 1.288277
v -0.045029 3.3 1.359449
v -0.054323 3.3 1.364478
v -0.05865 3.3 1.40098
v -0.073082 3.3 1.40555
v -0.103773 3.3 1.423594
v -0.113007 3.3 1.420354
v -0.120316 3.3 1.41572
v -0.042903 3.3 1.413467
v -0.047653 3.3 1.416174
v -0.022427 3.3 1.470698
v -0.064792 3.3 1.42268
v -0.088123 3.3 1.425345
v -0.124564 3.3 1.411579
v -0.129367 3.3 1.404428
v -0.13307 3.3 1.39452
v -0.057035 3.3 1.289971
v -0.048245 3.3 1.293357
v -0.022427 3.3 0.1
v -0.040541 3.3 1.298813
v -0.038043 3.3 1.301376
v -0.033303 3.3 1.308453
v -0.030561 3.3 1.316228
v -0.029479 3.3 1.326762
v -0.030609 3.3 1.33745
v -0.111713 3.3 1.311352
v -0.111103 3.3 1.311356
v -0.106132 3.3 1.304216
v -0.11216 3.3 1.374408
v -0.111434 3.3 1.384569
v -0.109116 3.3 1.392776
v -0.106449 3.3 1.397531
v -0.135156 3.3 1.375277
v -0.134558 3.3 1.290921
v -0.103001 3.3 1.401253
v -0.098939 3.3 1.403913
v 0.091487 3.3 1.292524
v -0.011463 3.3 0.1
v -0.022427 3.3 1.47426
v -0.144387 3.3 1.47426
v -0.177386 3.3 1.47426
v -0.260831 3.3 1.47426
v -0.022427 3.3 1.794729
v -0.110125 3.3 1.768919
v -0.011463 3.3 2.95
v -0.022427 3.3 2.95
v -0.144387 3.3 2.95
v -0.177386 3.3 2.95
v -0.260831 3.3 2.95
v -0.305152 3.3 2.95
v -0.477307 3.3 2.95
v -0.532932 3.3 2.95
v -0.705087 3.3 2.95
v -1.887476 3.3 2.95
v -2.9 3.3 2.95
v 3.3 1.75 0.2
v 3.3 1.85 0.1
v 3.3 2.9 0.1
v 3.3 -1.85 0.1
v 3.3 -1.75 0.2
v 3.3 -1.5 1.603228
v 3.3 1.5 1.603228
v 3.3 1.5 1.753228
v 3.3 2.9 2.95
v 3.3 -1.5 1.753228
v 3.3 -2.9 2.95
v 3.3 -2.9 0.1
v -3.3 -2.9 2.95
v -3.3 -2.9 0.1
v -3.3 2.9 0.1
v -3.3 2.9 2.95
v -3.3 1.85 0.1
v -3.3 1.75 0.2
v -3.3 -1.75 0.2
v -3.3 -1.85 0.1
v -2.9 -3.3 2.95
v -2.9 -3.3 0.1
v 2.9 -3.3 2.95
v 2.9 -3.3 0.1
v -3.15 2.9 3.1
v -3.15 -2.9 3.1
v 3.15 -2.9 3.1
v -3.025 -3.116506 3.1
v -3.076777 -3.076777 3.1
v -3.141481 -2.964705 3.1
v -3.116506 -3.025 3.1
v 3.116506 3.025 3.1
v 3.076777 3.076777 3.1
v 3.025 3.116506 3.1
v 3.15 2.9 3.1
v 2.9 3.15 3.1
v -2.9 3.15 3.1
v 2.9 -3.15 3.1
v -2.9 -3.15 3.1
v -2.964705 -3.141481 3.1
v 3.025 -3.116506 3.1
v 3.076777 -3.076777 3.1
v 3.116506 -3.025 3.1
v 3.141481 2.964705 3.1
v 2.964705 3.141481 3.1
v -3.025 3.116506 3.1
v -3.076777 3.076777 3.1
v -3.116506 3.025 3.1
v 2.964705 -3.141481 3.1
v 3.141481 -2.964705 3.1
v -2.964705 3.141481 3.1
v -3.141481 2.964705 3.1
v 3.28637 3.003528 0.1
v -1.2 1.85 0.1
v 3.003528 3.28637 0.1
v 3.1 3.24641 0.1
v 3.182843 3.182843 0.1
v 1.2 -1.85 0.1
v -1.2 -1.85 0.1
v 1.2 1.85 0.1
v -3.1 -3.24641 0.1
v -3.182843 -3.182843 0.1
v -3.003528 -3.28637 0.1
v -3.24641 -3.1 0.1
v -3.28637 -3.003528 0.1
v -3.1 3.24641 0.1
v -3.182843 3.182843 0.1
v -3.28637 3.003528 0.1
v -3.24641 3.1 0.1
v 3.24641 3.1 0.1
v 3.28637 -3.003528 0.1
v -3.003528 3.28637 0.1
v 3.24641 -3.1 0.1
v 3.182843 -3.182843 0.1
v 3.1 -3.24641 0.1
v 3.003528 -3.28637 0.1
newmtl 3
Ka 0.7529411764705882 0.7529411764705882 0.7529411764705882
Kd 0.7529411764705882 0.7529411764705882 0.7529411764705882
Ks 0.3764705882352941 0.3764705882352941 0.3764705882352941
d 0.0
endmtl
v 3.003528 -3.28637 2.95
v 3.1 -3.24641 2.95
v 3.182843 -3.182843 2.95
v 3.24641 -3.1 2.95
v 3.28637 -3.003528 2.95
v -3.28637 -3.003528 2.95
v -3.24641 -3.1 2.95
v -3.182843 -3.182843 2.95
v -3.1 -3.24641 2.95
v -3.003528 -3.28637 2.95
v -3.003528 3.28637 2.95
v -3.1 3.24641 2.95
v -3.182843 3.182843 2.95
v -3.24641 3.1 2.95
v -3.28637 3.003528 2.95
v 3.003528 3.28637 2.95
v 3.28637 3.003528 2.95
v 3.24641 3.1 2.95
v 3.182843 3.182843 2.95
v 3.1 3.24641 2.95
v -1.3 -1.75 0.2
v -1.3 1.75 0.2
v 1.3 -1.75 0.2
v 1.3 1.75 0.2
v -3.344889 1.5 0.261177
v -3.344889 -1.5 0.261177
v -3.329904 1.5 0.225
v -3.329904 -1.5 0.225
v -3.306066 1.5 0.193934
v -3.306066 -1.5 0.193934
v -3.275 1.5 0.170096
v -3.275 -1.5 0.170096
v -3.238823 1.5 0.155111
v -3.238823 -1.5 0.155111
v -3.2 1.5 0.15
v -3.2 -1.5 0.15
v -1.9 1.5 0.15
v -1.9 -1.5 0.15
v -1.9 1.5 0.0
v -1.9 -1.5 0.0
v -3.2 1.5 0.0
v -3.2 -1.5 0.0
v -3.277646 -1.5 0.010222
v -3.277646 1.5 0.010222
v -3.35 -1.5 0.040192
v -3.35 1.5 0.040192
v -3.412132 -1.5 0.087868
v -3.412132 1.5 0.087868
v -3.459808 -1.5 0.15
v -3.459808 1.5 0.15
v -3.489778 -1.5 0.222354
v -3.489778 1.5 0.222354
v 3.312941 1.5 1.601524
v 3.351764 1.5 1.746413
v 3.325 1.5 1.596529
v 3.4 1.5 1.726433
v 3.335355 1.5 1.588583
v 3.441421 1.5 1.694649
v 3.343301 1.5 1.578228
v 3.473205 1.5 1.653228
v 3.348296 1.5 1.566169
v 3.493185 1.5 1.604992
v 3.35 1.5 1.553228
v 3.5 1.5 1.553228
v 3.35 1.5 0.3
v 3.5 1.5 0.3
v 3.344889 1.5 0.261177
v 3.489778 1.5 0.222354
v 3.329904 1.5 0.225
v 3.459808 1.5 0.15
v 3.306066 1.5 0.193934
v 3.412132 1.5 0.087868
v 3.275 1.5 0.170096
v 3.35 1.5 0.040192
v 3.238823 1.5 0.155111
v 3.277646 1.5 0.010222
v 3.2 1.5 0.15
v 3.2 1.5 -0.0
v 1.9 1.5 0.15
v 1.9 1.5 0.0
v 1.9 -1.5 0.15
v 1.9 -1.5 0.0
v 3.2 -1.5 0.15
v 3.2 -1.5 -0.0
v 3.238823 -1.5 0.155111
v 3.277646 -1.5 0.010222
v 3.275 -1.5 0.170096
v 3.35 -1.5 0.040192
v 3.306066 -1.5 0.193934
v 3.412132 -1.5 0.087868
v 3.329904 -1.5 0.225
v 3.459808 -1.5 0.15
v 3.344889 -1.5 0.261177
v 3.489778 -1.5 0.222354
v 3.35 -1.5 0.3
v 3.5 -1.5 0.3
v 3.35 -1.5 1.553228
v 3.5 -1.5 1.553228
v 3.348296 -1.5 1.566169
v 3.493185 -1.5 1.604992
v 3.343301 -1.5 1.578228
v 3.473205 -1.5 1.653228
v 3.335355 -1.5 1.588583
v 3.441421 -1.5 1.694649
v 3.325 -1.5 1.596529
v 3.4 -1.5 1.726433
v 3.312941 -1.5 1.601524
v 3.351764 -1.5 1.746413
v -0.007516 3.301 1.603928
v -0.007367 3.301 1.583003
newmtl 4
Ka 0.0 0.0 0.0
Kd 0.0 0.0 0.0
Ks 0.0 0.0 0.0
d 0.0
endmtl
v 0.065581 3.301 1.604446
v 0.064427 3.301 1.76706
v 0.08812 3.301 1.767228
v 0.089422 3.301 1.58369
v -0.152347 3.301 1.589576
v -0.149205 3.301 1.588038
v -0.10146 3.301 1.579239
v -0.129454 3.301 1.581715
v -0.152508 3.301 1.612283
v -0.134397 3.301 1.604304
v -0.113612 3.301 1.600586
v -0.105035 3.301 1.600327
v -0.08666 3.301 1.602664
v -0.073604 3.301 1.607796
v -0.061659 3.301 1.616347
v -0.058021 3.301 1.619992
v -0.050021 3.301 1.630937
v -0.043859 3.301 1.645461
v -0.040682 3.301 1.663307
v -0.040376 3.301 1.672478
v -0.043597 3.301 1.697739
v -0.049868 3.301 1.713531
v -0.058841 3.301 1.726211
v -0.06005 3.301 1.727516
v -0.070876 3.301 1.73662
v -0.085137 3.301 1.743683
v -0.10082 3.301 1.747086
v -0.110208 3.301 1.747523
v -0.153388 3.301 1.736331
v -0.151352 3.301 1.737449
v -0.132785 3.301 1.744665
v -0.153564 3.301 1.761103
v -0.134148 3.301 1.766859
v -0.110125 3.301 1.768919
v -0.083527 3.301 1.765872
v -0.064301 3.301 1.758556
v -0.04704 3.301 1.746634
v -0.042514 3.301 1.742373
v -0.029085 3.301 1.725084
v -0.020223 3.301 1.704758
v -0.015891 3.301 1.680827
v -0.0155 3.301 1.671247
v -0.018926 3.301 1.641273
v -0.026275 3.301 1.622083
v -0.037128 3.301 1.606349
v -0.038582 3.301 1.60474
v -0.090371 3.301 1.579842
v -0.070511 3.301 1.584081
v -0.053249 3.301 1.592374
v -0.28789 3.301 1.601939
v -0.287742 3.301 1.581015
v -0.21287 3.301 1.602471
v -0.213308 3.301 1.664214
v -0.278945 3.301 1.663748
v -0.279094 3.301 1.684767
v -0.213457 3.301 1.685233
v -0.213874 3.301 1.743972
v -0.284718 3.301 1.74347
v -0.284868 3.301 1.764583
v -0.190331 3.301 1.765253
v -0.189029 3.301 1.581715
v -0.444345 3.301 1.605616
v -0.425493 3.301 1.61815
v -0.425117 3.301 1.592028
v -0.41361 3.301 1.609997
v -0.404146 3.301 1.583997
v -0.398431 3.301 1.604214
v -0.372896 3.301 1.580411
v -0.372904 3.301 1.601336
v -0.322413 3.301 1.580769
v -0.346255 3.301 1.601525
v -0.323715 3.301 1.764307
v -0.347258 3.301 1.743026
v -0.376074 3.301 1.763936
v -0.374986 3.301 1.74283
v -0.38175 3.301 1.742592
v -0.404076 3.301 1.760642
v -0.400987 3.301 1.739424
v -0.426169 3.301 1.752394
v -0.416449 3.301 1.733154
v -0.445292 3.301 1.739141
v -0.427833 3.301 1.725189
v -0.451693 3.301 1.732793
v -0.432879 3.301 1.72015
v -0.462948 3.301 1.716719
v -0.439929 3.301 1.709823
v -0.469622 3.301 1.699175
v -0.445017 3.301 1.696402
v -0.472511 3.301 1.673824
v -0.447593 3.301 1.673344
v -0.471877 3.301 1.662143
v -0.446684 3.301 1.659971
v -0.467279 3.301 1.640685
v -0.442747 3.301 1.643573
v -0.458108 3.301 1.621766
v -0.436087 3.301 1.630228
v -0.427603 3.301 1.620091
v -0.374986 3.3 1.74283
v -0.347258 3.3 1.743026
v -0.346255 3.3 1.601525
v -0.372904 3.3 1.601336
v -0.427603 3.3 1.620091
v -0.425493 3.3 1.61815
v -0.41361 3.3 1.609997
v -0.398431 3.3 1.604214
v -0.447593 3.3 1.673344
v -0.446684 3.3 1.659971
v -0.442747 3.3 1.643573
v -0.436087 3.3 1.630228
v -0.427833 3.3 1.725189
v -0.432879 3.3 1.72015
v -0.439929 3.3 1.709823
v -0.445017 3.3 1.696402
v -0.38175 3.3 1.742592
v -0.400987 3.3 1.739424
v -0.416449 3.3 1.733154
v -0.533854 3.301 1.650211
v -0.561842 3.301 1.726303
v -0.553232 3.301 1.762679
v -0.482024 3.301 1.579637
v -0.508204 3.301 1.579451
v -0.526201 3.301 1.629527
v -0.56347 3.301 1.731769
v -0.564936 3.301 1.739137
v -0.578567 3.301 1.7625
v -0.565499 3.301 1.739133
v -0.566927 3.301 1.731357
v -0.568269 3.301 1.726257
v -0.595456 3.301 1.649774
v -0.647171 3.301 1.578465
v -0.620992 3.301 1.578651
v -0.602628 3.301 1.628985
v -0.533854 3.3 1.650211
v -0.595456 3.3 1.649774
v -0.568269 3.3 1.726257
v -0.565499 3.3 1.739133
v -0.566927 3.3 1.731357
v -0.564936 3.3 1.739137
v -0.561842 3.3 1.726303
v -0.56347 3.3 1.731769
v -0.007374 3.301 1.312749
v -0.007226 3.301 1.291824
v 0.067646 3.301 1.313281
v 0.067208 3.301 1.375023
v 0.001571 3.301 1.374558
v 0.001422 3.301 1.395577
v 0.067059 3.301 1.396042
v 0.066642 3.301 1.454782
v -0.004202 3.301 1.454279
v -0.004352 3.301 1.475392
v 0.090185 3.301 1.476062
v 0.091487 3.301 1.292524
v -0.111569 3.301 1.291084
v -0.134558 3.301 1.290921
v -0.111713 3.301 1.311352
v -0.135156 3.301 1.375277
v -0.066248 3.301 1.349389
v -0.081322 3.301 1.35295
v -0.112035 3.301 1.356861
v -0.111946 3.301 1.344288
v -0.111103 3.301 1.311356
v -0.099001 3.301 1.314818
v -0.106132 3.301 1.304216
v -0.092473 3.301 1.31048
v -0.111913 3.301 1.342762
v -0.11036 3.301 1.332515
v -0.10693 3.301 1.324337
v -0.101904 3.301 1.317615
v -0.103773 3.301 1.423594
v -0.098939 3.301 1.403913
v -0.113007 3.301 1.420354
v -0.103001 3.301 1.401253
v -0.06129 3.301 1.346838
v -0.11216 3.301 1.374408
v -0.111434 3.301 1.384569
v -0.13307 3.301 1.39452
v -0.109116 3.301 1.392776
v -0.129367 3.301 1.404428
v -0.106449 3.301 1.397531
v -0.124564 3.301 1.411579
v -0.120316 3.301 1.41572
v -0.042903 3.301 1.413467
v -0.042744 3.301 1.391135
v -0.047653 3.301 1.416174
v -0.05865 3.301 1.40098
v -0.064792 3.301 1.42268
v -0.073082 3.301 1.40555
v -0.088123 3.301 1.425345
v -0.085832 3.301 1.406687
v -0.093622 3.301 1.405815
v -0.057423 3.301 1.31511
v -0.040541 3.301 1.298813
v -0.059363 3.301 1.313131
v -0.048245 3.301 1.293357
v -0.063923 3.301 1.30997
v -0.057035 3.301 1.289971
v -0.069109 3.301 1.308025
v -0.070776 3.301 1.288277
v -0.076868 3.301 1.307095
v -0.083325 3.301 1.289667
v -0.085481 3.301 1.307996
v -0.092556 3.301 1.293095
v -0.098643 3.301 1.296945
v -0.073274 3.301 1.369241
v -0.054323 3.301 1.364478
v -0.059027 3.301 1.345038
v -0.045029 3.301 1.359449
v -0.056251 3.301 1.341651
v -0.038253 3.301 1.353287
v -0.054203 3.301 1.337377
v -0.033452 3.301 1.345851
v -0.05303 3.301 1.332121
v -0.030609 3.301 1.33745
v -0.05281 3.301 1.328473
v -0.029479 3.301 1.326762
v -0.053356 3.301 1.323191
v -0.030561 3.301 1.316228
v -0.054837 3.301 1.319004
v -0.033303 3.301 1.308453
v -0.038043 3.301 1.301376
v -0.059027 3.3 1.345038
v -0.06129 3.3 1.346838
v -0.066248 3.3 1.349389
v -0.081322 3.3 1.35295
v -0.05281 3.3 1.328473
v -0.05303 3.3 1.332121
v -0.054203 3.3 1.337377
v -0.056251 3.3 1.341651
v -0.059363 3.3 1.313131
v -0.057423 3.3 1.31511
v -0.054837 3.3 1.319004
v -0.053356 3.3 1.323191
v -0.076868 3.3 1.307095
v -0.069109 3.3 1.308025
v -0.063923 3.3 1.30997
v -0.101904 3.3 1.317615
v -0.099001 3.3 1.314818
v -0.092473 3.3 1.31048
v -0.085481 3.3 1.307996
v -0.111946 3.3 1.344288
v -0.111913 3.3 1.342762
v -0.11036 3.3 1.332515
v -0.10693 3.3 1.324337
v -0.112035 3.3 1.356861
v -0.203637 3.301 1.306102
v -0.175676 3.301 1.312991
v -0.190095 3.301 1.307683
v -0.165912 3.301 1.319038
v -0.165743 3.301 1.295298
v -0.201252 3.301 1.287351
v -0.181899 3.301 1.289498
v -0.221956 3.301 1.289651
v -0.234098 3.301 1.294221
v -0.239516 3.301 1.297496
v -0.246135 3.301 1.303202
v -0.250462 3.301 1.309235
v -0.253337 3.301 1.316501
v -0.254496 3.301 1.325729
v -0.253606 3.301 1.334301
v -0.251201 3.301 1.341096
v -0.246955 3.301 1.347459
v -0.241508 3.301 1.352389
v -0.2263 3.301 1.360988
v -0.217424 3.301 1.364653
v -0.20324 3.301 1.370947
v -0.195171 3.301 1.376071
v -0.192947 3.301 1.378555
v -0.191313 3.301 1.381668
v -0.190426 3.301 1.385246
v -0.190238 3.301 1.388305
v -0.19068 3.301 1.391969
v -0.191837 3.301 1.395065
v -0.193829 3.301 1.397976
v -0.197319 3.301 1.401017
v -0.202493 3.301 1.403722
v -0.208655 3.301 1.405306
v -0.215464 3.301 1.405768
v -0.229553 3.301 1.404181
v -0.242583 3.301 1.399553
v -0.248707 3.301 1.396055
v -0.248866 3.301 1.418387
v -0.233965 3.301 1.42288
v -0.217848 3.301 1.424425
v -0.199546 3.301 1.422376
v -0.187182 3.301 1.417722
v -0.18146 3.301 1.414267
v -0.174585 3.301 1.40817
v -0.170276 3.301 1.401986
v -0.167491 3.301 1.394603
v -0.16653 3.301 1.386409
v -0.167458 3.301 1.377464
v -0.169946 3.301 1.370427
v -0.172905 3.301 1.365626
v -0.201072 3.301 1.348066
v -0.187414 3.301 1.354444
v -0.176638 3.301 1.361666
v -0.216123 3.301 1.341637
v -0.225057 3.301 1.336166
v -0.227901 3.301 1.333163
v -0.229657 3.301 1.330103
v -0.230676 3.301 1.326506
v -0.23088 3.301 1.323644
v -0.230373 3.301 1.319262
v -0.229182 3.301 1.316001
v -0.227154 3.301 1.313047
v -0.224499 3.301 1.310724
v -0.222394 3.301 1.309467
v -0.216446 3.301 1.307338
v -0.204652 3.301 1.306101
v -0.369133 3.301 1.420349
v -0.392967 3.301 1.42018
v -0.332636 3.301 1.32189
v -0.330833 3.301 1.315792
v -0.329745 3.301 1.311307
v -0.329135 3.301 1.311311
v -0.326397 3.301 1.322122
v -0.292847 3.301 1.42089
v -0.267136 3.301 1.421073
v -0.317629 3.301 1.289904
v -0.307373 3.301 1.266142
v -0.302703 3.301 1.257765
v -0.298386 3.301 1.253055
v -0.294648 3.301 1.250462
v -0.289645 3.301 1.248506
v -0.28369 3.301 1.247824
v -0.275358 3.301 1.248969
v -0.270666 3.301 1.250543
v -0.27052 3.301 1.230088
v -0.280259 3.301 1.228324
v -0.285333 3.301 1.228106
v -0.294628 3.301 1.229108
v -0.303725 3.301 1.2325
v -0.311794 3.301 1.238055
v -0.313371 3.301 1.239479
v -0.321855 3.301 1.249523
v -0.332406 3.301 1.269718
v -0.515671 3.301 1.309144
v -0.515522 3.301 1.288219
v -0.440651 3.301 1.309676
v -0.441089 3.301 1.371418
v -0.506725 3.301 1.370953
v -0.506874 3.301 1.391972
v -0.441238 3.301 1.392437
v -0.441654 3.301 1.451177
v -0.512498 3.301 1.450675
v -0.512648 3.301 1.471787
v -0.418111 3.301 1.472457
v -0.416809 3.301 1.288919
v -0.672125 3.301 1.31282
v -0.653273 3.301 1.325354
v -0.652897 3.301 1.299232
v -0.64139 3.301 1.317202
v -0.631926 3.301 1.291202
v -0.626211 3.301 1.311418
v -0.600676 3.301 1.287615
v -0.600684 3.301 1.308541
v -0.550194 3.301 1.287973
v -0.574035 3.301 1.30873
v -0.551495 3.301 1.471511
v -0.575039 3.301 1.450231
v -0.603854 3.301 1.47114
v -0.602766 3.301 1.450034
v -0.60953 3.301 1.449796
v -0.631856 3.301 1.467847
v -0.628767 3.301 1.446628
v -0.653949 3.301 1.459598
v -0.644229 3.301 1.440358
v -0.673072 3.301 1.446345
v -0.655613 3.301 1.432393
v -0.679473 3.301 1.439998
v -0.660659 3.301 1.427355
v -0.690728 3.301 1.423924
v -0.667709 3.301 1.417027
v -0.697402 3.301 1.406379
v -0.672797 3.301 1.403607
v -0.700291 3.301 1.381028
v -0.675374 3.301 1.380548
v -0.699658 3.301 1.369347
v -0.674464 3.301 1.367175
v -0.695059 3.301 1.34789
v -0.670528 3.301 1.350778
v -0.685888 3.301 1.32897
v -0.663867 3.301 1.337432
v -0.655384 3.301 1.327296
v -0.602766 3.3 1.450034
v -0.575039 3.3 1.450231
v -0.574035 3.3 1.30873
v -0.600684 3.3 1.308541
v -0.655384 3.3 1.327296
v -0.653273 3.3 1.325354
v -0.64139 3.3 1.317202
v -0.626211 3.3 1.311418
v -0.675374 3.3 1.380548
v -0.674464 3.3 1.367175
v -0.670528 3.3 1.350778
v -0.663867 3.3 1.337432
v -0.655613 3.3 1.432393
v -0.660659 3.3 1.427355
v -0.667709 3.3 1.417027
v -0.672797 3.3 1.403607
v -0.60953 3.3 1.449796
v -0.628767 3.3 1.446628
v -0.644229 3.3 1.440358
v -0.761634 3.301 1.357415
v -0.789622 3.301 1.433507
v -0.781012 3.301 1.469884
v -0.709804 3.301 1.286841
v -0.735984 3.301 1.286655
v -0.753981 3.301 1.336731
v -0.79125 3.301 1.438973
v -0.792716 3.301 1.446341
v -0.806347 3.301 1.469704
v -0.793279 3.301 1.446337
v -0.794707 3.301 1.438562
v -0.796049 3.301 1.433462
v -0.823236 3.301 1.356978
v -0.874951 3.301 1.28567
v -0.848772 3.301 1.285855
v -0.830408 3.301 1.336189
v -0.761634 3.3 1.357415
v -0.823236 3.3 1.356978
v -0.796049 3.3 1.433462
v -0.793279 3.3 1.446337
v -0.794707 3.3 1.438562
v -0.792716 3.3 1.446341
v -0.789622 3.3 1.433507
v -0.79125 3.3 1.438973
v 0.902261 3.301 1.272268
v 0.883027 3.301 1.248177
v 0.913211 3.301 1.387761
v 0.476908 3.301 1.448612
v 0.51687 3.301 1.51806
v 0.69238 3.301 1.427955
v 0.782492 3.301 1.389879
v 0.770263 3.301 1.385822
v 0.934213 3.301 1.614738
v 0.905007 3.301 1.629953
v 0.910178 3.301 1.710562
v 0.829991 3.301 1.713422
v 0.790213 3.301 1.617874
v 0.770001 3.301 1.658986
v 0.941503 3.301 1.405461
v 0.933461 3.301 1.306053
v 0.915136 3.301 1.300339
v 0.859986 3.301 1.716244
v 0.759578 3.301 1.378956
v 0.75097 3.301 1.369772
v 0.660284 3.301 1.353342
v 0.745054 3.301 1.359186
v 0.741806 3.301 1.347229
v 0.660377 3.301 1.340292
v 0.741574 3.301 1.334569
v 0.826082 3.301 1.302001
v 0.815665 3.301 1.294803
v 0.857641 3.301 1.228752
v 0.803597 3.301 1.290332
v 0.803705 3.301 1.389486
v 0.82109 3.301 1.469406
v 0.815194 3.301 1.385284
v 0.849995 3.301 1.458592
v 0.825559 3.301 1.378305
v 0.876813 3.301 1.440251
v 0.833258 3.301 1.369969
v 0.898568 3.301 1.415743
v 0.839485 3.301 1.358769
v 0.842688 3.301 1.346282
v 0.742602 3.301 1.46391
v 0.774043 3.301 1.47196
v 0.789936 3.301 1.473017
v 0.432928 3.301 1.577495
v 0.422489 3.301 1.577421
v 0.368487 3.301 1.647508
v 0.397711 3.301 1.574188
v 0.362036 3.301 1.645287
v 0.374997 3.301 1.56526
v 0.323345 3.301 1.625725
v 0.288176 3.301 1.595526
v 0.803019 3.301 1.744387
v 0.740491 3.301 1.693749
v 0.772166 3.301 1.770432
v 0.705274 3.301 1.719099
v 0.73243 3.301 1.793823
v 0.872733 3.301 1.637337
v 0.859236 3.301 1.637939
v 0.844985 3.301 1.715322
v 0.828781 3.301 1.63396
v 0.799593 3.301 1.623084
v 0.289672 3.301 1.352018
v 0.35018 3.301 1.4042
v 0.325412 3.301 1.322201
v 0.369595 3.301 1.388591
v 0.365368 3.301 1.303005
v 0.392703 3.301 1.378099
v 0.408838 3.301 1.294138
v 0.416103 3.301 1.373795
v 0.485829 3.301 1.294684
v 0.474825 3.301 1.374212
v 0.493172 3.301 1.295921
v 0.791824 3.301 1.390815
v 0.71502 3.301 1.448869
v 0.354856 3.301 1.550986
v 0.339872 3.301 1.534006
v 0.261818 3.301 1.558204
v 0.327911 3.301 1.511397
v 0.246163 3.301 1.518233
v 0.321976 3.301 1.486285
v 0.24051 3.301 1.475645
v 0.321426 3.301 1.474914
v 0.24684 3.301 1.429071
v 0.324735 3.301 1.449543
v 0.263535 3.301 1.38788
v 0.333891 3.301 1.426349
v 0.34839 3.301 1.406095
v 0.438222 3.301 1.751098
v 0.489614 3.301 1.691391
v 0.392077 3.301 1.695697
v 0.460447 3.301 1.656003
v 0.440631 3.301 1.613804
v 0.986547 3.301 1.539906
v 1.072359 3.301 1.519866
v 0.990656 3.301 1.508371
v 1.072885 3.301 1.506344
v 0.989251 3.301 1.488335
v 1.067225 3.301 1.456402
v 0.98014 3.301 1.456322
v 1.04918 3.301 1.407621
v 0.964733 3.301 1.429658
v 1.019087 3.301 1.363717
v 0.980221 3.301 1.329785
v 0.834387 3.301 1.311477
v 0.839937 3.301 1.322251
v 0.842773 3.301 1.33428
v 0.67157 3.301 1.814593
v 0.662517 3.301 1.736069
v 0.615213 3.301 1.820214
v 0.614463 3.301 1.741908
v 0.561478 3.301 1.814184
v 0.570283 3.301 1.736163
v 0.496155 3.301 1.790647
v 0.529471 3.301 1.720201
v 0.492984 3.301 1.694505
v 0.958734 3.301 1.692452
v 1.000621 3.301 1.663832
v 0.956901 3.301 1.594799
v 1.010498 3.301 1.654672
v 0.975168 3.301 1.568933
v 1.041643 3.301 1.615517
v 1.063012 3.301 1.568815
v 0.481376 3.301 1.375471
v 0.513212 3.301 1.308566
v 0.510201 3.301 1.305457
v 0.827626 3.301 1.215883
v 0.796851 3.301 1.210855
v 0.792546 3.301 1.28903
v 0.791796 3.301 1.210724
v 0.780562 3.301 1.290353
v 0.760205 3.301 1.214385
v 0.769127 3.301 1.294533
v 0.73102 3.301 1.225352
v 0.759027 3.301 1.301334
v 0.704898 3.301 1.24325
v 0.750551 3.301 1.310712
v 0.684638 3.301 1.265653
v 0.744568 3.301 1.32201
v 0.669011 3.301 1.29464
v 0.66117 3.301 1.326806
v 0.477468 3.301 1.374576
v 0.50178 3.301 1.29938
v 0.523386 3.301 1.335406
v 0.522216 3.301 1.325677
v 0.518842 3.301 1.316804
v 0.492767 3.301 1.374346
v 0.501746 3.301 1.370872
v 0.523018 3.301 1.340554
v 0.509811 3.301 1.365242
v 0.515245 3.301 1.359334
v 0.520327 3.301 1.350467
v 0.482646 3.301 1.375572
v 0.791824 3.3 1.390815
v 0.782492 3.3 1.389879
v 0.770263 3.3 1.385822
v 0.759578 3.3 1.378956
v 0.75097 3.3 1.369772
v 0.745054 3.3 1.359186
v 0.741806 3.3 1.347229
v 0.741574 3.3 1.334569
v 0.744568 3.3 1.32201
v 0.750551 3.3 1.310712
v 0.759027 3.3 1.301334
v 0.769127 3.3 1.294533
v 0.780562 3.3 1.290353
v 0.792546 3.3 1.28903
v 0.803597 3.3 1.290332
v 0.815665 3.3 1.294803
v 0.826082 3.3 1.302001
v 0.834387 3.3 1.311477
v 0.839937 3.3 1.322251
v 0.842773 3.3 1.33428
v 0.842688 3.3 1.346282
v 0.839485 3.3 1.358769
v 0.833258 3.3 1.369969
v 0.825559 3.3 1.378305
v 0.815194 3.3 1.385284
v 0.803705 3.3 1.389486
usemtl 1
f 1// 2// 3//
f 3// 2// 4//
f 3// 4// 5//
f 5// 4// 6//
f 5// 6// 7//
f 7// 6// 8//
f 9// 10// 11//
f 11// 10// 12//
f 11// 12// 13//
f 13// 12// 14//
f 13// 14// 15//
f 15// 14// 16//
f 17// 18// 19//
f 19// 18// 20//
f 19// 20// 21//
f 21// 20// 22//
f 21// 22// 23//
f 23// 22// 24//
f 23// 24// 25//
f 25// 24// 26//
f 25// 26// 27//
f 27// 26// 28//
f 27// 28// 1//
f 1// 28// 2//
f 29// 30// 31//
f 31// 30// 32//
f 31// 32// 33//
f 33// 32// 34//
f 33// 34// 35//
f 35// 34// 36//
f 35// 36// 37//
f 37// 36// 38//
f 37// 38// 39//
f 39// 38// 40//
f 39// 40// 8//
f 8// 40// 7//
f 15// 16// 41//
f 15// 41// 42//
f 42// 41// 43//
f 42// 43// 44//
f 44// 43// 45//
f 44// 45// 46//
f 46// 45// 47//
f 46// 47// 48//
f 48// 47// 49//
f 48// 49// 50//
f 50// 49// 51//
f 50// 51// 52//
f 10// 9// 53//
f 10// 53// 54//
f 54// 53// 55//
f 54// 55// 56//
f 56// 55// 57//
f 56// 57// 58//
f 58// 57// 59//
f 58// 59// 60//
f 60// 59// 61//
f 60// 61// 62//
f 62// 61// 63//
f 62// 63// 64//
usemtl 2
f 65// 66// 67//
f 68// 69// 70//
f 71// 72// 73//
f 74// 75// 76//
f 77// 78// 79//
f 80// 81// 82//
f 83// 84// 85//
f 86// 87// 88//
f 89// 90// 91//
f 92// 93// 94//
f 94// 93// 95//
f 94// 95// 96//
f 97// 98// 99//
f 99// 98// 100//
f 99// 100// 94//
f 94// 100// 101//
f 94// 101// 92//
f 102// 97// 103//
f 91// 90// 104//
f 104// 90// 103//
f 103// 90// 105//
f 103// 105// 102//
f 106// 107// 91//
f 91// 107// 108//
f 91// 108// 89//
f 106// 109// 107//
f 107// 109// 110//
f 107// 110// 111//
f 111// 110// 112//
f 111// 112// 113//
f 114// 115// 106//
f 106// 115// 116//
f 106// 116// 109//
f 88// 87// 117//
f 87// 118// 117//
f 117// 118// 119//
f 117// 119// 106//
f 106// 119// 120//
f 106// 120// 114//
f 86// 88// 121//
f 121// 88// 122//
f 121// 122// 123//
f 123// 122// 124//
f 123// 124// 125//
f 126// 127// 128//
f 126// 128// 129//
f 127// 130// 128//
f 128// 130// 131//
f 128// 131// 132//
f 133// 134// 135//
f 135// 134// 136//
f 135// 136// 128//
f 128// 136// 137//
f 128// 137// 129//
f 138// 139// 140//
f 140// 139// 141//
f 140// 141// 124//
f 124// 141// 142//
f 124// 142// 125//
f 143// 144// 145//
f 145// 144// 146//
f 145// 146// 147//
f 147// 148// 145//
f 145// 148// 149//
f 145// 149// 150//
f 150// 149// 133//
f 150// 133// 151//
f 151// 133// 135//
f 152// 153// 140//
f 140// 153// 154//
f 140// 154// 155//
f 156// 157// 128//
f 128// 157// 158//
f 128// 158// 159//
f 160// 161// 162//
f 162// 161// 163//
f 162// 163// 164//
f 164// 163// 165//
f 164// 165// 166//
f 167// 168// 164//
f 155// 169// 140//
f 140// 169// 170//
f 140// 170// 138//
f 132// 171// 128//
f 128// 171// 172//
f 128// 172// 173//
f 166// 174// 164//
f 164// 174// 175//
f 164// 175// 176//
f 173// 177// 128//
f 128// 177// 178//
f 128// 178// 156//
f 167// 164// 179//
f 179// 164// 176//
f 179// 176// 145//
f 145// 176// 180//
f 145// 180// 143//
f 168// 181// 164//
f 164// 181// 182//
f 164// 182// 140//
f 140// 182// 183//
f 140// 183// 152//
f 158// 184// 159//
f 159// 184// 185//
f 159// 185// 186//
f 186// 185// 187//
f 188// 85// 189//
f 189// 85// 190//
f 189// 190// 191//
f 191// 190// 192//
f 187// 193// 186//
f 186// 193// 194//
f 186// 194// 190//
f 190// 194// 195//
f 190// 195// 192//
f 83// 196// 84//
f 84// 196// 197//
f 84// 197// 198//
f 199// 200// 201//
f 201// 200// 202//
f 201// 202// 188//
f 188// 202// 203//
f 188// 203// 85//
f 85// 203// 204//
f 85// 204// 83//
f 205// 206// 201//
f 201// 206// 207//
f 201// 207// 199//
f 205// 208// 206//
f 206// 208// 209//
f 206// 209// 210//
f 211// 212// 213//
f 213// 192// 211//
f 211// 192// 195//
f 211// 195// 214//
f 214// 195// 215//
f 215// 216// 214//
f 214// 216// 217//
f 214// 217// 218//
f 219// 220// 221//
f 220// 222// 221//
f 221// 222// 223//
f 221// 223// 224//
f 225// 221// 226//
f 212// 211// 225//
f 225// 211// 227//
f 225// 227// 221//
f 221// 227// 228//
f 221// 228// 219//
f 226// 229// 225//
f 225// 229// 230//
f 225// 230// 231//
f 224// 223// 232//
f 232// 223// 233//
f 232// 233// 234//
f 234// 233// 235//
f 234// 235// 236//
f 237// 238// 231//
f 231// 238// 239//
f 231// 239// 225//
f 240// 241// 160//
f 160// 241// 242//
f 160// 242// 161//
f 96// 243// 94//
f 94// 243// 244//
f 94// 244// 245//
f 245// 244// 246//
f 245// 246// 80//
f 247// 248// 249//
f 249// 248// 250//
f 251// 252// 253//
f 253// 252// 254//
f 253// 254// 255//
f 247// 256// 248//
f 248// 256// 257//
f 248// 257// 258//
f 258// 259// 248//
f 248// 259// 260//
f 248// 260// 253//
f 253// 260// 261//
f 253// 261// 251//
f 255// 262// 253//
f 253// 262// 263//
f 253// 263// 264//
f 264// 263// 265//
f 264// 265// 266//
f 266// 265// 267//
f 266// 267// 268//
f 267// 269// 268//
f 268// 269// 270//
f 268// 270// 271//
f 271// 270// 250//
f 266// 272// 273//
f 274// 266// 275//
f 275// 266// 273//
f 275// 273// 276//
f 277// 264// 278//
f 278// 264// 266//
f 278// 266// 279//
f 279// 266// 274//
f 279// 274// 280//
f 274// 281// 280//
f 280// 281// 282//
f 280// 282// 283//
f 273// 284// 276//
f 276// 284// 285//
f 276// 285// 286//
f 272// 266// 287//
f 287// 266// 268//
f 287// 268// 288//
f 289// 290// 288//
f 288// 290// 291//
f 288// 291// 287//
f 292// 293// 294//
f 295// 296// 293//
f 293// 296// 297//
f 293// 297// 294//
f 298// 299// 300//
f 300// 299// 301//
f 300// 301// 302//
f 302// 301// 303//
f 302// 303// 304//
f 304// 305// 302//
f 302// 305// 306//
f 302// 306// 307//
f 308// 309// 310//
f 311// 312// 313//
f 308// 310// 314//
f 315// 316// 317//
f 311// 313// 317//
f 317// 313// 318//
f 317// 318// 315//
f 316// 314// 317//
f 317// 314// 310//
f 317// 310// 319//
f 319// 310// 320//
f 319// 320// 321//
f 321// 320// 322//
f 321// 322// 323//
f 324// 325// 326//
f 327// 328// 329//
f 330// 331// 332//
f 309// 333// 310//
f 310// 333// 334//
f 310// 334// 332//
f 332// 334// 335//
f 332// 335// 330//
f 331// 336// 332//
f 332// 336// 337//
f 332// 337// 338//
f 337// 339// 338//
f 338// 339// 340//
f 338// 340// 326//
f 328// 341// 329//
f 329// 341// 342//
f 329// 342// 343//
f 343// 344// 329//
f 329// 344// 345//
f 329// 345// 322//
f 322// 345// 346//
f 322// 346// 323//
f 347// 348// 349//
f 349// 348// 350//
f 349// 350// 351//
f 349// 352// 347//
f 347// 352// 353//
f 347// 353// 354//
f 354// 355// 347//
f 347// 355// 356//
f 347// 356// 357//
f 357// 356// 358//
f 357// 358// 359//
f 359// 358// 360//
f 359// 360// 326//
f 326// 360// 361//
f 326// 361// 324//
f 362// 363// 351//
f 351// 363// 364//
f 351// 364// 349//
f 365// 366// 312//
f 312// 366// 367//
f 312// 367// 313//
f 365// 368// 366//
f 366// 368// 369//
f 366// 369// 370//
f 370// 369// 371//
f 370// 372// 373//
f 371// 374// 370//
f 370// 374// 375//
f 370// 375// 376//
f 376// 377// 370//
f 370// 377// 378//
f 370// 378// 372//
f 373// 379// 370//
f 370// 379// 380//
f 370// 380// 381//
f 382// 383// 77//
f 77// 383// 384//
f 385// 386// 387//
f 388// 389// 390//
f 390// 389// 391//
f 390// 391// 392//
f 391// 393// 392//
f 392// 393// 394//
f 392// 394// 395//
f 396// 394// 397//
f 397// 394// 393//
f 397// 393// 398//
f 398// 393// 391//
f 398// 391// 399//
f 399// 391// 400//
f 399// 400// 78//
f 401// 402// 403//
f 404// 405// 406//
f 401// 403// 407//
f 407// 403// 406//
f 407// 406// 408//
f 408// 406// 405//
f 408// 405// 409//
f 410// 411// 412//
f 412// 411// 413//
f 406// 414// 404//
f 404// 414// 415//
f 404// 415// 416//
f 417// 418// 419//
f 410// 412// 409//
f 409// 412// 420//
f 409// 420// 408//
f 408// 420// 421//
f 408// 421// 419//
f 419// 421// 422//
f 419// 422// 417//
f 402// 401// 423//
f 423// 401// 424//
f 423// 424// 417//
f 75// 425// 76//
f 76// 425// 426//
f 76// 426// 427//
f 427// 426// 428//
f 427// 428// 429//
f 74// 430// 431//
f 431// 430// 99//
f 431// 99// 432//
f 432// 99// 94//
f 432// 94// 429//
f 429// 94// 245//
f 429// 245// 427//
f 72// 71// 424//
f 424// 71// 433//
f 424// 433// 434//
f 435// 436// 437//
f 417// 424// 418//
f 418// 424// 434//
f 418// 434// 438//
f 438// 434// 439//
f 438// 439// 437//
f 437// 439// 440//
f 437// 440// 435//
f 436// 441// 437//
f 437// 441// 442//
f 437// 442// 443//
f 443// 444// 437//
f 437// 444// 445//
f 437// 445// 446//
f 446// 447// 437//
f 437// 447// 448//
f 437// 448// 449//
f 450// 451// 449//
f 449// 451// 452//
f 449// 452// 437//
f 453// 454// 455//
f 450// 456// 451//
f 451// 456// 457//
f 451// 457// 455//
f 455// 457// 458//
f 455// 458// 453//
f 459// 460// 73//
f 70// 461// 462//
f 462// 463// 70//
f 70// 463// 464//
f 70// 464// 68//
f 427// 465// 466//
f 76// 467// 70//
f 70// 467// 468//
f 70// 468// 461//
f 466// 469// 427//
f 427// 469// 470//
f 427// 470// 76//
f 76// 470// 471//
f 76// 471// 467//
f 472// 473// 465//
f 465// 473// 474//
f 465// 474// 475//
f 475// 476// 465//
f 465// 476// 477//
f 465// 477// 466//
f 66// 478// 479//
f 479// 478// 480//
f 479// 480// 481//
f 438// 482// 418//
f 418// 482// 483//
f 418// 483// 67//
f 67// 483// 484//
f 67// 484// 65//
f 485// 486// 487//
f 488// 489// 487//
f 487// 489// 490//
f 487// 490// 485//
f 485// 490// 491//
f 492// 493// 491//
f 491// 493// 494//
f 491// 494// 485//
f 485// 494// 495//
f 496// 497// 498//
f 498// 497// 486//
f 496// 499// 500//
f 500// 499// 82//
f 500// 82// 501//
f 81// 240// 82//
f 82// 240// 160//
f 82// 160// 501//
f 501// 160// 162//
f 501// 162// 502//
f 503// 504// 338//
f 294// 299// 292//
f 292// 299// 298//
f 292// 298// 505//
f 505// 298// 506//
f 325// 507// 326//
f 326// 507// 327//
f 326// 327// 338//
f 338// 327// 329//
f 338// 329// 503//
f 278// 508// 277//
f 277// 508// 302//
f 277// 302// 509//
f 509// 302// 307//
f 509// 307// 510//
f 511// 512// 513//
f 510// 514// 509//
f 509// 514// 515//
f 509// 515// 329//
f 329// 515// 516//
f 329// 516// 503//
f 298// 338// 506//
f 506// 338// 504//
f 506// 504// 511//
f 511// 504// 517//
f 511// 517// 518//
f 518// 519// 511//
f 511// 519// 520//
f 511// 520// 512//
f 513// 521// 511//
f 511// 521// 522//
f 511// 522// 523//
f 524// 525// 526//
f 526// 525// 527//
f 528// 529// 253//
f 253// 529// 248//
f 248// 529// 530//
f 248// 530// 525//
f 525// 530// 531//
f 525// 531// 527//
f 527// 531// 532//
f 527// 532// 533//
f 534// 535// 533//
f 533// 535// 528//
f 533// 528// 527//
f 527// 528// 253//
f 250// 248// 271//
f 271// 248// 525//
f 271// 525// 536//
f 536// 525// 524//
f 536// 524// 537//
f 78// 400// 79//
f 79// 400// 538//
f 79// 538// 539//
f 539// 538// 540//
f 539// 540// 541//
f 77// 79// 382//
f 382// 79// 539//
f 382// 539// 542//
f 542// 539// 541//
f 542// 541// 543//
f 544// 545// 385//
f 546// 547// 548//
f 548// 547// 549//
f 545// 550// 385//
f 385// 550// 551//
f 385// 551// 552//
f 407// 553// 548//
f 548// 553// 554//
f 548// 554// 555//
f 552// 556// 385//
f 385// 556// 557//
f 385// 557// 408//
f 408// 557// 558//
f 408// 558// 407//
f 407// 558// 559//
f 407// 559// 553//
f 555// 560// 548//
f 548// 560// 561//
f 548// 561// 546//
f 384// 383// 387//
f 387// 383// 548//
f 387// 548// 385//
f 385// 548// 549//
f 385// 549// 544//
f 66// 479// 67//
f 67// 479// 562//
f 67// 562// 418//
f 418// 562// 563//
f 418// 563// 419//
f 419// 563// 564//
f 419// 564// 408//
f 408// 564// 389//
f 408// 389// 385//
f 385// 389// 388//
f 385// 388// 386//
f 73// 72// 459//
f 459// 72// 424//
f 459// 424// 565//
f 565// 424// 401//
f 565// 401// 566//
f 566// 401// 407//
f 566// 407// 567//
f 567// 407// 548//
f 567// 548// 568//
f 568// 548// 383//
f 568// 383// 569//
f 569// 383// 382//
f 569// 382// 570//
f 570// 382// 542//
f 570// 542// 571//
f 571// 542// 543//
f 571// 543// 572//
f 573// 574// 575//
f 576// 577// 578//
f 579// 580// 581//
f 581// 580// 582//
f 581// 582// 583//
f 574// 584// 575//
f 575// 584// 585//
f 575// 585// 586//
f 586// 585// 578//
f 586// 578// 587//
f 587// 578// 577//
f 588// 589// 310//
f 310// 589// 590//
f 591// 592// 593//
f 593// 592// 594//
f 593// 594// 310//
f 310// 594// 595//
f 310// 595// 588//
f 590// 596// 310//
f 310// 596// 597//
f 310// 597// 598//
f 599// 600// 601//
f 601// 600// 602//
f 601// 602// 603//
f 603// 604// 601//
f 601// 604// 605//
f 601// 605// 606//
f 591// 593// 575//
f 575// 593// 607//
f 575// 607// 573//
f 608// 609// 581//
f 581// 609// 610//
f 581// 610// 579//
f 611// 612// 578//
f 578// 612// 613//
f 578// 613// 614//
f 598// 615// 310//
f 310// 615// 616//
f 310// 616// 320//
f 320// 616// 581//
f 320// 581// 601//
f 601// 581// 583//
f 601// 583// 599//
f 614// 617// 578//
f 578// 617// 618//
f 578// 618// 576//
f 502// 162// 619//
f 619// 162// 164//
f 619// 164// 495//
f 495// 164// 620//
f 495// 620// 485//
f 485// 620// 601//
f 485// 601// 593//
f 593// 601// 606//
f 593// 606// 607//
f 486// 485// 498//
f 498// 485// 593//
f 498// 593// 621//
f 621// 593// 310//
f 621// 310// 622//
f 622// 310// 332//
f 622// 332// 623//
f 623// 332// 338//
f 623// 338// 624//
f 624// 338// 298//
f 624// 298// 289//
f 289// 298// 300//
f 289// 300// 290//
f 496// 498// 499//
f 499// 498// 621//
f 499// 621// 481//
f 481// 621// 622//
f 481// 622// 479//
f 479// 622// 623//
f 479// 623// 562//
f 562// 623// 624//
f 562// 624// 563//
f 563// 624// 289//
f 563// 289// 564//
f 564// 289// 288//
f 564// 288// 389//
f 389// 288// 268//
f 389// 268// 391//
f 391// 268// 271//
f 391// 271// 400//
f 400// 271// 536//
f 400// 536// 538//
f 538// 536// 537//
f 538// 537// 540//
f 74// 76// 430//
f 430// 76// 70//
f 430// 70// 625//
f 625// 70// 69//
f 625// 69// 459//
f 459// 69// 626//
f 459// 626// 460//
f 80// 82// 245//
f 245// 82// 499//
f 245// 499// 427//
f 427// 499// 481//
f 427// 481// 465//
f 465// 481// 480//
f 465// 480// 472//
f 97// 99// 103//
f 103// 99// 430//
f 103// 430// 627//
f 627// 430// 625//
f 627// 625// 628//
f 628// 625// 459//
f 628// 459// 629//
f 629// 459// 565//
f 629// 565// 630//
f 630// 565// 566//
f 630// 566// 631//
f 631// 566// 567//
f 631// 567// 632//
f 632// 567// 568//
f 632// 568// 633//
f 633// 568// 569//
f 633// 569// 634//
f 634// 569// 570//
f 634// 570// 635//
f 635// 570// 571//
f 635// 571// 636//
f 636// 571// 572//
f 636// 572// 637//
f 638// 639// 640//
f 641// 642// 643//
f 643// 642// 644//
f 642// 638// 644//
f 644// 638// 640//
f 644// 640// 645//
f 645// 640// 646//
f 645// 646// 647//
f 647// 646// 648//
f 647// 648// 643//
f 643// 648// 649//
f 643// 649// 641//
f 52// 51// 650//
f 650// 51// 651//
f 651// 51// 18//
f 651// 18// 17//
f 652// 29// 653//
f 653// 29// 64//
f 653// 64// 63//
f 652// 654// 29//
f 29// 654// 655//
f 29// 655// 30//
f 30// 655// 656//
f 650// 653// 52//
f 52// 653// 63//
f 52// 63// 17//
f 17// 63// 30//
f 17// 30// 651//
f 651// 30// 656//
f 651// 656// 657//
f 658// 659// 660//
f 660// 659// 661//
f 662// 663// 664//
f 665// 663// 666//
f 666// 663// 667//
f 666// 667// 668//
f 669// 670// 671//
f 664// 672// 662//
f 662// 672// 673//
f 662// 673// 674//
f 675// 664// 676//
f 676// 664// 663//
f 676// 663// 677//
f 677// 663// 665//
f 678// 679// 680//
f 672// 681// 673//
f 673// 681// 669//
f 673// 669// 682//
f 682// 669// 671//
f 683// 684// 685//
f 675// 686// 664//
f 664// 686// 678//
f 664// 678// 687//
f 687// 678// 680//
f 674// 688// 662//
f 662// 688// 683//
f 662// 683// 689//
f 689// 683// 685//
f 651// 657// 659//
f 659// 657// 661//
f 690// 640// 140//
f 140// 640// 164//
f 526// 527// 691//
f 691// 527// 253//
f 691// 253// 264//
f 692// 693// 694//
f 695// 696// 697//
f 697// 696// 691//
f 698// 699// 700//
f 700// 699// 701//
f 700// 701// 659//
f 659// 701// 702//
f 659// 702// 651//
f 703// 652// 704//
f 704// 652// 705//
f 704// 705// 706//
f 692// 694// 140//
f 140// 694// 707//
f 140// 707// 690//
f 641// 649// 695//
f 695// 649// 708//
f 691// 654// 526//
f 526// 654// 652//
f 526// 652// 709//
f 709// 652// 703//
f 264// 277// 691//
f 691// 277// 509//
f 691// 509// 329//
f 708// 710// 695//
f 695// 710// 711//
f 695// 711// 712//
f 657// 696// 661//
f 661// 696// 695//
f 661// 695// 713//
f 713// 695// 712//
f 329// 322// 691//
f 691// 322// 320//
f 691// 320// 601//
f 601// 620// 691//
f 691// 620// 164//
f 691// 164// 697//
f 697// 164// 640//
f 697// 640// 639//
usemtl 3
f 660// 661// 713//
f 660// 713// 714//
f 714// 713// 712//
f 714// 712// 715//
f 715// 712// 711//
f 715// 711// 716//
f 716// 711// 710//
f 716// 710// 717//
f 717// 710// 708//
f 717// 708// 718//
f 718// 708// 649//
f 718// 649// 648//
f 650// 651// 702//
f 650// 702// 719//
f 719// 702// 701//
f 719// 701// 720//
f 720// 701// 699//
f 720// 699// 721//
f 721// 699// 698//
f 721// 698// 722//
f 722// 698// 700//
f 722// 700// 723//
f 723// 700// 659//
f 723// 659// 658//
f 637// 572// 724//
f 724// 572// 543//
f 543// 541// 709//
f 709// 541// 540//
f 540// 537// 709//
f 709// 537// 524//
f 709// 524// 526//
f 543// 709// 724//
f 724// 709// 703//
f 724// 703// 725//
f 725// 703// 704//
f 725// 704// 726//
f 726// 704// 706//
f 726// 706// 727//
f 727// 706// 705//
f 727// 705// 728//
f 728// 705// 652//
f 728// 652// 653//
f 646// 640// 690//
f 140// 124// 692//
f 692// 124// 122//
f 88// 117// 729//
f 646// 690// 730//
f 730// 690// 707//
f 730// 707// 731//
f 731// 707// 694//
f 731// 694// 732//
f 732// 694// 693//
f 732// 693// 733//
f 733// 693// 692//
f 733// 692// 729//
f 729// 692// 122//
f 729// 122// 88//
f 117// 106// 729//
f 729// 106// 91//
f 729// 91// 104//
f 734// 656// 735//
f 735// 656// 655//
f 736// 737// 642//
f 642// 737// 638//
f 691// 735// 654//
f 654// 735// 655//
f 696// 734// 691//
f 691// 734// 735//
f 657// 656// 696//
f 696// 656// 734//
f 737// 697// 638//
f 638// 697// 639//
f 736// 695// 737//
f 737// 695// 697//
f 642// 641// 736//
f 736// 641// 695//
usemtl 1
f 6// 4// 738//
f 738// 4// 739//
f 738// 739// 740//
f 740// 739// 741//
f 740// 741// 742//
f 742// 741// 743//
f 742// 743// 744//
f 744// 743// 745//
f 744// 745// 746//
f 746// 745// 747//
f 746// 747// 748//
f 748// 747// 749//
f 750// 748// 751//
f 751// 748// 749//
f 752// 750// 753//
f 753// 750// 751//
f 754// 752// 755//
f 755// 752// 753//
f 754// 755// 756//
f 754// 756// 757//
f 757// 756// 758//
f 757// 758// 759//
f 759// 758// 760//
f 759// 760// 761//
f 761// 760// 762//
f 761// 762// 763//
f 763// 762// 764//
f 763// 764// 765//
f 765// 764// 14//
f 765// 14// 12//
f 750// 752// 748//
f 748// 752// 754//
f 748// 754// 746//
f 746// 754// 757//
f 746// 757// 744//
f 744// 757// 759//
f 744// 759// 742//
f 742// 759// 761//
f 742// 761// 740//
f 740// 761// 763//
f 740// 763// 738//
f 738// 763// 765//
f 738// 765// 6//
f 6// 765// 12//
f 6// 12// 8//
f 8// 12// 10//
f 8// 10// 39//
f 39// 10// 54//
f 39// 54// 37//
f 37// 54// 56//
f 37// 56// 35//
f 35// 56// 58//
f 35// 58// 33//
f 33// 58// 60//
f 33// 60// 31//
f 31// 60// 62//
f 31// 62// 29//
f 29// 62// 64//
f 18// 51// 20//
f 20// 51// 49//
f 20// 49// 22//
f 22// 49// 47//
f 22// 47// 24//
f 24// 47// 45//
f 24// 45// 26//
f 26// 45// 43//
f 26// 43// 28//
f 28// 43// 41//
f 28// 41// 2//
f 2// 41// 16//
f 2// 16// 4//
f 4// 16// 14//
f 4// 14// 739//
f 739// 14// 764//
f 739// 764// 741//
f 741// 764// 762//
f 741// 762// 743//
f 743// 762// 760//
f 743// 760// 745//
f 745// 760// 758//
f 745// 758// 747//
f 747// 758// 756//
f 747// 756// 749//
f 749// 756// 755//
f 749// 755// 751//
f 751// 755// 753//
f 644// 645// 766//
f 766// 645// 767//
f 766// 767// 768//
f 768// 767// 769//
f 768// 769// 770//
f 770// 769// 771//
f 770// 771// 772//
f 772// 771// 773//
f 772// 773// 774//
f 774// 773// 775//
f 774// 775// 776//
f 776// 775// 777//
f 776// 777// 778//
f 778// 777// 779//
f 778// 779// 780//
f 780// 779// 781//
f 780// 781// 782//
f 782// 781// 783//
f 782// 783// 784//
f 784// 783// 785//
f 784// 785// 786//
f 786// 785// 787//
f 786// 787// 788//
f 788// 787// 789//
f 788// 789// 790//
f 790// 789// 791//
f 790// 791// 792//
f 792// 791// 793//
f 794// 795// 796//
f 796// 795// 797//
f 796// 797// 798//
f 798// 797// 799//
f 798// 799// 800//
f 800// 799// 801//
f 800// 801// 802//
f 802// 801// 803//
f 802// 803// 804//
f 804// 803// 805//
f 804// 805// 806//
f 806// 805// 807//
f 806// 807// 808//
f 808// 807// 809//
f 808// 809// 810//
f 810// 809// 811//
f 810// 811// 812//
f 812// 811// 813//
f 812// 813// 814//
f 814// 813// 815//
f 814// 815// 816//
f 816// 815// 817//
f 816// 817// 818//
f 818// 817// 819//
f 818// 819// 820//
f 820// 819// 821//
f 820// 821// 643//
f 643// 821// 647//
f 645// 647// 821//
f 645// 821// 767//
f 767// 821// 819//
f 767// 819// 769//
f 769// 819// 817//
f 769// 817// 771//
f 771// 817// 815//
f 771// 815// 773//
f 773// 815// 813//
f 773// 813// 775//
f 775// 813// 811//
f 775// 811// 777//
f 779// 777// 809//
f 809// 777// 811//
f 779// 809// 807//
f 779// 807// 781//
f 781// 807// 805//
f 781// 805// 783//
f 783// 805// 803//
f 783// 803// 785//
f 785// 803// 801//
f 785// 801// 787//
f 787// 801// 799//
f 787// 799// 789//
f 789// 799// 797//
f 789// 797// 791//
f 793// 791// 795//
f 795// 791// 797//
f 792// 793// 794//
f 794// 793// 795//
f 790// 792// 796//
f 796// 792// 794//
f 790// 796// 788//
f 788// 796// 798//
f 788// 798// 786//
f 786// 798// 800//
f 786// 800// 784//
f 784// 800// 802//
f 784// 802// 782//
f 782// 802// 804//
f 782// 804// 780//
f 780// 804// 806//
f 780// 806// 778//
f 778// 806// 808//
f 776// 778// 810//
f 810// 778// 808//
f 776// 810// 774//
f 774// 810// 812//
f 774// 812// 772//
f 772// 812// 814//
f 772// 814// 770//
f 770// 814// 816//
f 770// 816// 768//
f 768// 816// 818//
f 768// 818// 766//
f 766// 818// 820//
f 766// 820// 644//
f 644// 820// 643//
usemtl 4
f 822// 823// 426//
f 426// 823// 428//
f 824// 822// 425//
f 425// 822// 426//
f 824// 425// 825//
f 825// 425// 75//
f 825// 75// 74//
f 826// 825// 431//
f 431// 825// 74//
f 429// 827// 432//
f 432// 827// 826//
f 432// 826// 431//
f 823// 827// 428//
f 428// 827// 429//
f 825// 826// 824//
f 824// 826// 827//
f 824// 827// 822//
f 822// 827// 823//
f 482// 828// 829//
f 830// 478// 66//
f 830// 66// 831//
f 66// 65// 831//
f 831// 65// 484//
f 831// 484// 829//
f 829// 484// 483//
f 829// 483// 482//
f 832// 828// 438//
f 438// 828// 482//
f 832// 438// 437//
f 832// 437// 833//
f 437// 452// 833//
f 833// 452// 451//
f 833// 451// 834//
f 834// 451// 455//
f 834// 455// 835//
f 835// 455// 454//
f 835// 454// 836//
f 836// 454// 453//
f 836// 453// 837//
f 837// 453// 458//
f 837// 458// 838//
f 838// 458// 457//
f 838// 457// 839//
f 839// 457// 456//
f 839// 456// 840//
f 840// 456// 450//
f 840// 450// 841//
f 841// 450// 449//
f 841// 449// 842//
f 842// 449// 448//
f 842// 448// 843//
f 843// 448// 447//
f 843// 447// 844//
f 844// 447// 446//
f 844// 446// 845//
f 845// 446// 445//
f 845// 445// 846//
f 846// 445// 444//
f 846// 444// 847//
f 847// 444// 443//
f 847// 443// 848//
f 848// 443// 442//
f 848// 442// 849//
f 849// 442// 441//
f 849// 441// 850//
f 850// 441// 436//
f 850// 436// 851//
f 434// 852// 853//
f 851// 436// 435//
f 851// 435// 854//
f 854// 435// 440//
f 854// 440// 853//
f 853// 440// 439//
f 853// 439// 434//
f 855// 852// 433//
f 433// 852// 434//
f 73// 856// 71//
f 71// 856// 855//
f 71// 855// 433//
f 73// 460// 856//
f 856// 460// 626//
f 856// 626// 857//
f 858// 857// 69//
f 69// 857// 626//
f 69// 68// 858//
f 858// 68// 464//
f 858// 464// 859//
f 859// 464// 463//
f 859// 463// 860//
f 860// 463// 462//
f 860// 462// 861//
f 861// 462// 461//
f 861// 461// 862//
f 862// 461// 468//
f 862// 468// 863//
f 468// 467// 863//
f 863// 467// 471//
f 863// 471// 864//
f 864// 471// 470//
f 864// 470// 865//
f 865// 470// 469//
f 865// 469// 866//
f 866// 469// 466//
f 866// 466// 867//
f 466// 477// 867//
f 867// 477// 476//
f 867// 476// 868//
f 868// 476// 475//
f 868// 475// 869//
f 478// 830// 480//
f 480// 830// 870//
f 480// 870// 472//
f 472// 870// 871//
f 472// 871// 473//
f 473// 871// 872//
f 473// 872// 474//
f 474// 872// 869//
f 474// 869// 475//
f 848// 849// 858//
f 844// 845// 862//
f 862// 845// 861//
f 858// 849// 857//
f 849// 850// 857//
f 857// 850// 851//
f 857// 851// 856//
f 856// 851// 854//
f 856// 854// 855//
f 855// 854// 853//
f 855// 853// 852//
f 828// 832// 829//
f 829// 832// 833//
f 829// 833// 831//
f 831// 833// 834//
f 831// 834// 830//
f 830// 834// 835//
f 830// 835// 870//
f 870// 835// 836//
f 870// 836// 871//
f 871// 836// 837//
f 871// 837// 872//
f 872// 837// 838//
f 872// 838// 869//
f 869// 838// 839//
f 869// 839// 868//
f 868// 839// 840//
f 868// 840// 867//
f 865// 843// 864//
f 864// 843// 844//
f 864// 844// 863//
f 863// 844// 862//
f 845// 846// 861//
f 861// 846// 847//
f 861// 847// 860//
f 860// 847// 848//
f 860// 848// 859//
f 859// 848// 858//
f 867// 840// 866//
f 866// 840// 841//
f 866// 841// 865//
f 865// 841// 842//
f 865// 842// 843//
f 873// 874// 420//
f 420// 874// 421//
f 413// 875// 412//
f 412// 875// 873//
f 412// 873// 420//
f 876// 875// 411//
f 411// 875// 413//
f 409// 877// 410//
f 410// 877// 876//
f 410// 876// 411//
f 878// 877// 405//
f 405// 877// 409//
f 416// 879// 404//
f 404// 879// 878//
f 404// 878// 405//
f 880// 879// 415//
f 415// 879// 416//
f 406// 881// 414//
f 414// 881// 880//
f 414// 880// 415//
f 882// 881// 403//
f 403// 881// 406//
f 423// 883// 402//
f 402// 883// 882//
f 402// 882// 403//
f 884// 883// 417//
f 417// 883// 423//
f 421// 874// 422//
f 422// 874// 884//
f 422// 884// 417//
f 884// 874// 873//
f 873// 875// 884//
f 884// 875// 876//
f 884// 876// 883//
f 881// 882// 880//
f 880// 882// 883//
f 880// 883// 879//
f 879// 883// 876//
f 879// 876// 878//
f 878// 876// 877//
f 885// 886// 887//
f 887// 886// 888//
f 887// 888// 889//
f 889// 888// 890//
f 889// 890// 891//
f 891// 890// 892//
f 891// 892// 893//
f 893// 892// 894//
f 893// 894// 895//
f 895// 894// 896//
f 895// 896// 897//
f 896// 898// 897//
f 897// 898// 899//
f 897// 899// 900//
f 900// 899// 901//
f 900// 901// 902//
f 902// 901// 903//
f 902// 903// 904//
f 904// 903// 905//
f 904// 905// 906//
f 906// 905// 907//
f 906// 907// 908//
f 908// 907// 909//
f 908// 909// 910//
f 910// 909// 911//
f 910// 911// 912//
f 912// 911// 913//
f 912// 913// 914//
f 914// 913// 915//
f 914// 915// 916//
f 916// 915// 917//
f 916// 917// 918//
f 918// 917// 919//
f 918// 919// 885//
f 885// 919// 920//
f 885// 920// 886//
f 891// 893// 557//
f 557// 893// 558//
f 891// 557// 556//
f 891// 556// 889//
f 889// 556// 552//
f 889// 552// 887//
f 887// 552// 551//
f 887// 551// 885//
f 885// 551// 550//
f 885// 550// 918//
f 918// 550// 545//
f 918// 545// 916//
f 916// 545// 544//
f 916// 544// 914//
f 914// 544// 549//
f 914// 549// 912//
f 912// 549// 547//
f 912// 547// 910//
f 910// 547// 546//
f 910// 546// 908//
f 908// 546// 561//
f 908// 561// 906//
f 906// 561// 560//
f 906// 560// 904//
f 904// 560// 555//
f 904// 555// 902//
f 902// 555// 554//
f 902// 554// 900//
f 900// 554// 553//
f 900// 553// 897//
f 895// 897// 559//
f 559// 897// 553//
f 893// 895// 558//
f 558// 895// 559//
f 898// 896// 921//
f 921// 896// 922//
f 896// 894// 922//
f 922// 894// 923//
f 894// 892// 923//
f 923// 892// 924//
f 920// 925// 926//
f 920// 926// 886//
f 886// 926// 927//
f 886// 927// 888//
f 888// 927// 928//
f 888// 928// 890//
f 890// 928// 924//
f 890// 924// 892//
f 913// 929// 930//
f 913// 930// 915//
f 915// 930// 931//
f 915// 931// 917//
f 917// 931// 932//
f 917// 932// 919//
f 919// 932// 925//
f 919// 925// 920//
f 905// 933// 934//
f 905// 934// 907//
f 907// 934// 935//
f 907// 935// 909//
f 909// 935// 936//
f 909// 936// 911//
f 911// 936// 929//
f 911// 929// 913//
f 898// 921// 937//
f 898// 937// 899//
f 899// 937// 938//
f 899// 938// 901//
f 901// 938// 939//
f 901// 939// 903//
f 903// 939// 933//
f 903// 933// 905//
usemtl 2
f 926// 925// 937//
f 926// 937// 927//
f 922// 923// 921//
f 921// 923// 924//
f 921// 924// 937//
f 937// 924// 928//
f 937// 928// 927//
f 925// 932// 937//
f 937// 932// 931//
f 937// 931// 930//
f 933// 930// 929//
f 933// 939// 930//
f 930// 939// 938//
f 930// 938// 937//
f 936// 935// 929//
f 929// 935// 934//
f 929// 934// 933//
usemtl 4
f 940// 941// 942//
f 943// 944// 945//
f 941// 946// 942//
f 942// 946// 947//
f 942// 947// 948//
f 948// 947// 949//
f 948// 949// 950//
f 950// 951// 948//
f 948// 951// 952//
f 948// 952// 953//
f 954// 953// 955//
f 955// 953// 952//
f 955// 952// 945//
f 945// 952// 940//
f 945// 940// 943//
f 943// 940// 942//
f 77// 948// 78//
f 78// 948// 953//
f 78// 953// 399//
f 942// 948// 384//
f 384// 948// 77//
f 386// 388// 943//
f 386// 943// 387//
f 387// 943// 942//
f 387// 942// 384//
f 944// 943// 390//
f 390// 943// 388//
f 395// 945// 392//
f 392// 945// 944//
f 392// 944// 390//
f 396// 955// 394//
f 394// 955// 945//
f 394// 945// 395//
f 955// 396// 954//
f 954// 396// 397//
f 954// 397// 398//
f 953// 954// 399//
f 399// 954// 398//
f 940// 952// 956//
f 956// 952// 957//
f 952// 951// 957//
f 957// 951// 958//
f 949// 959// 960//
f 949// 960// 950//
f 950// 960// 958//
f 950// 958// 951//
f 949// 947// 959//
f 959// 947// 961//
f 941// 962// 963//
f 941// 963// 946//
f 946// 963// 961//
f 946// 961// 947//
f 941// 940// 962//
f 962// 940// 956//
usemtl 2
f 959// 961// 960//
f 960// 961// 963//
f 960// 963// 958//
f 958// 963// 962//
f 958// 962// 957//
f 957// 962// 956//
usemtl 4
f 964// 965// 494//
f 494// 965// 495//
f 966// 964// 493//
f 493// 964// 494//
f 967// 966// 492//
f 492// 966// 493//
f 968// 967// 491//
f 491// 967// 492//
f 969// 968// 490//
f 490// 968// 491//
f 970// 969// 489//
f 489// 969// 490//
f 971// 970// 488//
f 488// 970// 489//
f 972// 971// 487//
f 487// 971// 488//
f 972// 487// 486//
f 972// 486// 973//
f 973// 486// 497//
f 973// 497// 496//
f 974// 973// 500//
f 500// 973// 496//
f 619// 975// 502//
f 502// 975// 974//
f 502// 974// 501//
f 501// 974// 500//
f 965// 975// 495//
f 495// 975// 619//
f 968// 969// 967//
f 967// 969// 970//
f 965// 964// 975//
f 975// 964// 966//
f 972// 973// 971//
f 971// 973// 974//
f 971// 974// 970//
f 970// 974// 975//
f 970// 975// 967//
f 967// 975// 966//
f 976// 977// 978//
f 978// 977// 979//
f 980// 981// 979//
f 979// 981// 982//
f 979// 982// 983//
f 984// 985// 986//
f 986// 985// 987//
f 983// 988// 979//
f 979// 988// 989//
f 979// 989// 978//
f 978// 989// 990//
f 978// 990// 984//
f 984// 990// 991//
f 984// 991// 985//
f 992// 993// 994//
f 994// 993// 995//
f 996// 980// 997//
f 997// 980// 979//
f 997// 979// 998//
f 998// 979// 999//
f 998// 999// 1000//
f 1000// 999// 1001//
f 1000// 1001// 1002//
f 1002// 1001// 1003//
f 1002// 1003// 995//
f 995// 1003// 1004//
f 995// 1004// 994//
f 1005// 1006// 1007//
f 1007// 1006// 1008//
f 1007// 1008// 1009//
f 1009// 1008// 1010//
f 1009// 1010// 1011//
f 1011// 1010// 1012//
f 1011// 1012// 992//
f 992// 1012// 1013//
f 992// 1013// 993//
f 1014// 1015// 1016//
f 1016// 1015// 1017//
f 1016// 1017// 1018//
f 1018// 1017// 1019//
f 1018// 1019// 1020//
f 1020// 1019// 1021//
f 1020// 1021// 1022//
f 1022// 1021// 1023//
f 1022// 1023// 1024//
f 1024// 1023// 1025//
f 1024// 1025// 987//
f 987// 1025// 1026//
f 987// 1026// 986//
f 997// 1027// 996//
f 996// 1027// 1028//
f 996// 1028// 1029//
f 1029// 1028// 1030//
f 1029// 1030// 1031//
f 1031// 1030// 1032//
f 1031// 1032// 1033//
f 1033// 1032// 1034//
f 1033// 1034// 1035//
f 1035// 1034// 1036//
f 1035// 1036// 1037//
f 1037// 1036// 1038//
f 1037// 1038// 1039//
f 1039// 1038// 1040//
f 1039// 1040// 1041//
f 1041// 1040// 1042//
f 1041// 1042// 1014//
f 1014// 1042// 1043//
f 1014// 1043// 1015//
f 1011// 595// 594//
f 1011// 594// 1009//
f 1009// 594// 592//
f 1009// 592// 1007//
f 1007// 592// 591//
f 1007// 591// 1005//
f 1006// 1005// 575//
f 575// 1005// 591//
f 1006// 575// 586//
f 1006// 586// 1008//
f 1008// 586// 587//
f 1008// 587// 1010//
f 1010// 587// 577//
f 1010// 577// 1012//
f 1012// 577// 576//
f 1012// 576// 1013//
f 1013// 576// 618//
f 1013// 618// 993//
f 993// 618// 617//
f 993// 617// 995//
f 995// 617// 614//
f 995// 614// 1002//
f 1002// 614// 613//
f 1002// 613// 1000//
f 1000// 613// 612//
f 1000// 612// 998//
f 998// 612// 611//
f 998// 611// 997//
f 1027// 997// 578//
f 578// 997// 611//
f 1027// 578// 585//
f 1027// 585// 1028//
f 1028// 585// 584//
f 1028// 584// 1030//
f 1030// 584// 574//
f 1030// 574// 1032//
f 1032// 574// 573//
f 1032// 573// 1034//
f 1034// 573// 607//
f 1034// 607// 1036//
f 1036// 607// 606//
f 1036// 606// 1038//
f 1038// 606// 605//
f 1038// 605// 1040//
f 1040// 605// 604//
f 1040// 604// 1042//
f 1042// 604// 603//
f 1042// 603// 1043//
f 1043// 603// 602//
f 1043// 602// 1015//
f 1015// 602// 600//
f 1015// 600// 1017//
f 1017// 600// 599//
f 1017// 599// 1019//
f 1019// 599// 583//
f 1019// 583// 1021//
f 1021// 583// 582//
f 1021// 582// 1023//
f 1023// 582// 580//
f 1023// 580// 1025//
f 1025// 580// 579//
f 1025// 579// 1026//
f 1026// 579// 610//
f 1026// 610// 986//
f 986// 610// 609//
f 986// 609// 984//
f 978// 984// 608//
f 608// 984// 609//
f 976// 978// 581//
f 581// 978// 608//
f 977// 976// 616//
f 616// 976// 581//
f 979// 977// 615//
f 615// 977// 616//
f 979// 615// 598//
f 979// 598// 999//
f 999// 598// 597//
f 999// 597// 1001//
f 1001// 597// 596//
f 1001// 596// 1003//
f 1003// 596// 590//
f 1003// 590// 1004//
f 1004// 590// 589//
f 1004// 589// 994//
f 994// 589// 588//
f 994// 588// 992//
f 992// 588// 595//
f 992// 595// 1011//
f 1029// 1044// 1045//
f 1029// 1045// 996//
f 996// 1045// 1046//
f 996// 1046// 980//
f 980// 1046// 1047//
f 980// 1047// 981//
f 1037// 1048// 1049//
f 1037// 1049// 1035//
f 1035// 1049// 1050//
f 1035// 1050// 1033//
f 1033// 1050// 1051//
f 1033// 1051// 1031//
f 1031// 1051// 1044//
f 1031// 1044// 1029//
f 1016// 1052// 1053//
f 1016// 1053// 1014//
f 1014// 1053// 1054//
f 1014// 1054// 1041//
f 1041// 1054// 1055//
f 1041// 1055// 1039//
f 1039// 1055// 1048//
f 1039// 1048// 1037//
f 1022// 1056// 1057//
f 1022// 1057// 1020//
f 1020// 1057// 1058//
f 1020// 1058// 1018//
f 1018// 1058// 1052//
f 1018// 1052// 1016//
f 991// 1059// 1060//
f 991// 1060// 985//
f 985// 1060// 1061//
f 985// 1061// 987//
f 987// 1061// 1062//
f 987// 1062// 1024//
f 1024// 1062// 1056//
f 1024// 1056// 1022//
f 983// 1063// 1064//
f 983// 1064// 988//
f 988// 1064// 1065//
f 988// 1065// 989//
f 989// 1065// 1066//
f 989// 1066// 990//
f 990// 1066// 1059//
f 990// 1059// 991//
f 983// 982// 1063//
f 1063// 982// 1067//
f 982// 981// 1067//
f 1067// 981// 1047//
usemtl 2
f 1064// 1063// 1044//
f 1063// 1067// 1047//
f 1047// 1046// 1063//
f 1063// 1046// 1045//
f 1063// 1045// 1044//
f 1064// 1044// 1065//
f 1065// 1044// 1051//
f 1065// 1051// 1066//
f 1053// 1052// 1060//
f 1053// 1060// 1054//
f 1061// 1060// 1062//
f 1062// 1060// 1056//
f 1051// 1050// 1066//
f 1066// 1050// 1049//
f 1066// 1049// 1059//
f 1059// 1049// 1048//
f 1059// 1048// 1060//
f 1060// 1048// 1055//
f 1060// 1055// 1054//
f 1052// 1058// 1060//
f 1060// 1058// 1057//
f 1060// 1057// 1056//
usemtl 4
f 1068// 368// 365//
f 312// 1069// 365//
f 365// 1069// 1070//
f 365// 1070// 1068//
f 312// 311// 1069//
f 1069// 311// 317//
f 1069// 317// 1071//
f 1072// 1071// 319//
f 319// 1071// 317//
f 346// 1073// 1074//
f 1072// 319// 321//
f 1072// 321// 1074//
f 1074// 321// 323//
f 1074// 323// 346//
f 1073// 346// 345//
f 1073// 345// 1075//
f 1075// 345// 344//
f 1075// 344// 1076//
f 1076// 344// 343//
f 1076// 343// 1077//
f 1077// 343// 342//
f 1077// 342// 1078//
f 1078// 342// 341//
f 1078// 341// 1079//
f 1079// 341// 328//
f 1079// 328// 1080//
f 1080// 328// 327//
f 1080// 327// 1081//
f 1081// 327// 507//
f 1081// 507// 1082//
f 1082// 507// 325//
f 1082// 325// 1083//
f 1083// 325// 324//
f 1083// 324// 1084//
f 1084// 324// 361//
f 1084// 361// 1085//
f 1085// 361// 360//
f 1085// 360// 1086//
f 1086// 360// 358//
f 1086// 358// 1087//
f 1087// 358// 356//
f 1087// 356// 1088//
f 1088// 356// 355//
f 1088// 355// 1089//
f 1089// 355// 354//
f 1089// 354// 1090//
f 1090// 354// 353//
f 1090// 353// 1091//
f 1091// 353// 352//
f 1091// 352// 1092//
f 1092// 352// 349//
f 1092// 349// 1093//
f 1093// 349// 364//
f 1093// 364// 1094//
f 1094// 364// 363//
f 1094// 363// 1095//
f 1095// 363// 362//
f 1095// 362// 1096//
f 1096// 362// 351//
f 1096// 351// 1097//
f 1097// 351// 350//
f 1097// 350// 1098//
f 1098// 350// 348//
f 1098// 348// 1099//
f 1099// 348// 347//
f 1099// 347// 1100//
f 1100// 347// 357//
f 1100// 357// 1101//
f 1101// 357// 359//
f 1101// 359// 1102//
f 1102// 359// 326//
f 1102// 326// 1103//
f 1104// 1103// 340//
f 340// 1103// 326//
f 1104// 340// 339//
f 1104// 339// 1105//
f 1105// 339// 337//
f 1105// 337// 1106//
f 1106// 337// 336//
f 1106// 336// 1107//
f 1107// 336// 331//
f 1107// 331// 1108//
f 1108// 331// 330//
f 1108// 330// 1109//
f 1110// 1109// 335//
f 335// 1109// 330//
f 335// 334// 1110//
f 1110// 334// 333//
f 1110// 333// 1111//
f 1111// 333// 309//
f 1111// 309// 1112//
f 1112// 309// 308//
f 1112// 308// 1113//
f 1113// 308// 314//
f 1113// 314// 1114//
f 1114// 314// 316//
f 1114// 316// 1115//
f 1115// 316// 315//
f 1115// 315// 1116//
f 366// 1117// 1118//
f 1116// 315// 318//
f 1116// 318// 1119//
f 1119// 318// 313//
f 1119// 313// 1118//
f 1118// 313// 367//
f 1118// 367// 366//
f 1117// 366// 370//
f 1117// 370// 1120//
f 1120// 370// 381//
f 1120// 381// 1121//
f 1121// 381// 380//
f 1121// 380// 1122//
f 1122// 380// 379//
f 1122// 379// 1123//
f 1123// 379// 373//
f 1123// 373// 1124//
f 1124// 373// 372//
f 1124// 372// 1125//
f 1125// 372// 378//
f 1125// 378// 1126//
f 1126// 378// 377//
f 1126// 377// 1127//
f 1127// 377// 376//
f 1127// 376// 1128//
f 1128// 376// 375//
f 1128// 375// 1129//
f 1129// 375// 374//
f 1129// 374// 1130//
f 1130// 374// 371//
f 1130// 371// 1131//
f 1131// 371// 369//
f 1131// 369// 1132//
f 1132// 369// 368//
f 1132// 368// 1068//
f 1096// 1097// 1108//
f 1108// 1097// 1107//
f 1120// 1087// 1117//
f 1117// 1087// 1088//
f 1076// 1077// 1128//
f 1128// 1077// 1078//
f 1128// 1078// 1127//
f 1127// 1078// 1079//
f 1127// 1079// 1126//
f 1126// 1079// 1080//
f 1126// 1080// 1125//
f 1125// 1080// 1081//
f 1125// 1081// 1124//
f 1124// 1081// 1082//
f 1124// 1082// 1123//
f 1123// 1082// 1083//
f 1123// 1083// 1122//
f 1122// 1083// 1084//
f 1122// 1084// 1121//
f 1121// 1084// 1085//
f 1121// 1085// 1120//
f 1120// 1085// 1086//
f 1120// 1086// 1087//
f 1073// 1068// 1074//
f 1074// 1068// 1070//
f 1074// 1070// 1072//
f 1072// 1070// 1069//
f 1072// 1069// 1071//
f 1097// 1098// 1107//
f 1107// 1098// 1099//
f 1107// 1099// 1106//
f 1106// 1099// 1100//
f 1106// 1100// 1105//
f 1105// 1100// 1101//
f 1105// 1101// 1104//
f 1104// 1101// 1102//
f 1104// 1102// 1103//
f 1128// 1129// 1076//
f 1076// 1129// 1130//
f 1076// 1130// 1075//
f 1075// 1130// 1131//
f 1075// 1131// 1073//
f 1073// 1131// 1132//
f 1073// 1132// 1068//
f 1108// 1109// 1096//
f 1096// 1109// 1110//
f 1096// 1110// 1095//
f 1095// 1110// 1111//
f 1095// 1111// 1094//
f 1094// 1111// 1112//
f 1094// 1112// 1093//
f 1093// 1112// 1113//
f 1093// 1113// 1092//
f 1092// 1113// 1114//
f 1092// 1114// 1091//
f 1091// 1114// 1115//
f 1091// 1115// 1090//
f 1090// 1115// 1116//
f 1090// 1116// 1089//
f 1089// 1116// 1119//
f 1089// 1119// 1088//
f 1088// 1119// 1118//
f 1088// 1118// 1117//
f 1133// 1134// 299//
f 299// 1134// 301//
f 1135// 1133// 294//
f 294// 1133// 299//
f 1135// 294// 297//
f 1135// 297// 1136//
f 1136// 297// 296//
f 1136// 296// 1137//
f 1138// 1137// 295//
f 295// 1137// 296//
f 1139// 1138// 293//
f 293// 1138// 295//
f 505// 1140// 292//
f 292// 1140// 1139//
f 292// 1139// 293//
f 1141// 1140// 506//
f 506// 1140// 505//
f 523// 1142// 511//
f 511// 1142// 1141//
f 511// 1141// 506//
f 1143// 1142// 522//
f 522// 1142// 523//
f 1143// 522// 521//
f 1143// 521// 1144//
f 521// 513// 1144//
f 1144// 513// 512//
f 1144// 512// 1145//
f 1145// 512// 520//
f 1145// 520// 1146//
f 1146// 520// 519//
f 1146// 519// 1147//
f 1147// 519// 518//
f 1147// 518// 1148//
f 1148// 518// 517//
f 1148// 517// 1149//
f 1149// 517// 504//
f 1149// 504// 1150//
f 1151// 1150// 503//
f 503// 1150// 504//
f 1151// 503// 516//
f 1151// 516// 1152//
f 1152// 516// 515//
f 1152// 515// 1153//
f 1153// 515// 514//
f 1153// 514// 1154//
f 1154// 514// 510//
f 1154// 510// 1155//
f 1155// 510// 307//
f 1155// 307// 1156//
f 307// 306// 1156//
f 1156// 306// 305//
f 1156// 305// 1157//
f 1157// 305// 304//
f 1157// 304// 1158//
f 1158// 304// 303//
f 1158// 303// 1159//
f 1134// 1159// 301//
f 301// 1159// 303//
f 1136// 1137// 1159//
f 1134// 1133// 1159//
f 1159// 1133// 1135//
f 1159// 1135// 1136//
f 1140// 1141// 1139//
f 1139// 1141// 1142//
f 1139// 1142// 1138//
f 1150// 1151// 1149//
f 1149// 1151// 1152//
f 1149// 1152// 1148//
f 1148// 1152// 1153//
f 1148// 1153// 1147//
f 1147// 1153// 1154//
f 1147// 1154// 1146//
f 1146// 1154// 1155//
f 1146// 1155// 1145//
f 1137// 1138// 1159//
f 1159// 1138// 1142//
f 1159// 1142// 1158//
f 1142// 1143// 1158//
f 1158// 1143// 1144//
f 1158// 1144// 1157//
f 1157// 1144// 1145//
f 1157// 1145// 1156//
f 1156// 1145// 1155//
f 1160// 1161// 279//
f 279// 1161// 278//
f 283// 1162// 280//
f 280// 1162// 1160//
f 280// 1160// 279//
f 1163// 1162// 282//
f 282// 1162// 283//
f 274// 1164// 281//
f 281// 1164// 1163//
f 281// 1163// 282//
f 1165// 1164// 275//
f 275// 1164// 274//
f 286// 1166// 276//
f 276// 1166// 1165//
f 276// 1165// 275//
f 1167// 1166// 285//
f 285// 1166// 286//
f 273// 1168// 284//
f 284// 1168// 1167//
f 284// 1167// 285//
f 1168// 273// 1169//
f 1169// 273// 272//
f 1169// 272// 287//
f 290// 1170// 291//
f 291// 1170// 1169//
f 291// 1169// 287//
f 302// 1171// 300//
f 300// 1171// 1170//
f 300// 1170// 290//
f 278// 1161// 508//
f 508// 1161// 1171//
f 508// 1171// 302//
f 1171// 1161// 1160//
f 1160// 1162// 1171//
f 1171// 1162// 1163//
f 1171// 1163// 1170//
f 1168// 1169// 1167//
f 1167// 1169// 1170//
f 1167// 1170// 1166//
f 1166// 1170// 1163//
f 1166// 1163// 1165//
f 1165// 1163// 1164//
f 1172// 1173// 1174//
f 1174// 1173// 1175//
f 1174// 1175// 1176//
f 1176// 1175// 1177//
f 1176// 1177// 1178//
f 1178// 1177// 1179//
f 1178// 1179// 1180//
f 1180// 1179// 1181//
f 1180// 1181// 1182//
f 1182// 1181// 1183//
f 1182// 1183// 1184//
f 1183// 1185// 1184//
f 1184// 1185// 1186//
f 1184// 1186// 1187//
f 1187// 1186// 1188//
f 1187// 1188// 1189//
f 1189// 1188// 1190//
f 1189// 1190// 1191//
f 1191// 1190// 1192//
f 1191// 1192// 1193//
f 1193// 1192// 1194//
f 1193// 1194// 1195//
f 1195// 1194// 1196//
f 1195// 1196// 1197//
f 1197// 1196// 1198//
f 1197// 1198// 1199//
f 1199// 1198// 1200//
f 1199// 1200// 1201//
f 1201// 1200// 1202//
f 1201// 1202// 1203//
f 1203// 1202// 1204//
f 1203// 1204// 1205//
f 1205// 1204// 1206//
f 1205// 1206// 1172//
f 1172// 1206// 1207//
f 1172// 1207// 1173//
f 1178// 1180// 263//
f 263// 1180// 265//
f 1178// 263// 262//
f 1178// 262// 1176//
f 1176// 262// 255//
f 1176// 255// 1174//
f 1174// 255// 254//
f 1174// 254// 1172//
f 1172// 254// 252//
f 1172// 252// 1205//
f 1205// 252// 251//
f 1205// 251// 1203//
f 1203// 251// 261//
f 1203// 261// 1201//
f 1201// 261// 260//
f 1201// 260// 1199//
f 1199// 260// 259//
f 1199// 259// 1197//
f 1197// 259// 258//
f 1197// 258// 1195//
f 1195// 258// 257//
f 1195// 257// 1193//
f 1193// 257// 256//
f 1193// 256// 1191//
f 270// 1184// 250//
f 250// 1184// 1187//
f 250// 1187// 249//
f 249// 1187// 1189//
f 249// 1189// 247//
f 247// 1189// 1191//
f 247// 1191// 256//
f 1182// 1184// 269//
f 269// 1184// 270//
f 265// 1180// 267//
f 267// 1180// 1182//
f 267// 1182// 269//
f 1185// 1183// 1208//
f 1208// 1183// 1209//
f 1183// 1181// 1209//
f 1209// 1181// 1210//
f 1181// 1179// 1210//
f 1210// 1179// 1211//
f 1207// 1212// 1213//
f 1207// 1213// 1173//
f 1173// 1213// 1214//
f 1173// 1214// 1175//
f 1175// 1214// 1215//
f 1175// 1215// 1177//
f 1177// 1215// 1211//
f 1177// 1211// 1179//
f 1200// 1216// 1217//
f 1200// 1217// 1202//
f 1202// 1217// 1218//
f 1202// 1218// 1204//
f 1204// 1218// 1219//
f 1204// 1219// 1206//
f 1206// 1219// 1212//
f 1206// 1212// 1207//
f 1192// 1220// 1221//
f 1192// 1221// 1194//
f 1194// 1221// 1222//
f 1194// 1222// 1196//
f 1196// 1222// 1223//
f 1196// 1223// 1198//
f 1198// 1223// 1216//
f 1198// 1216// 1200//
f 1185// 1208// 1224//
f 1185// 1224// 1186//
f 1186// 1224// 1225//
f 1186// 1225// 1188//
f 1188// 1225// 1226//
f 1188// 1226// 1190//
f 1190// 1226// 1220//
f 1190// 1220// 1192//
usemtl 2
f 1213// 1212// 1224//
f 1213// 1224// 1214//
f 1209// 1210// 1208//
f 1208// 1210// 1211//
f 1208// 1211// 1224//
f 1224// 1211// 1215//
f 1224// 1215// 1214//
f 1212// 1219// 1224//
f 1224// 1219// 1218//
f 1224// 1218// 1217//
f 1220// 1217// 1216//
f 1220// 1226// 1217//
f 1217// 1226// 1225//
f 1217// 1225// 1224//
f 1223// 1222// 1216//
f 1216// 1222// 1221//
f 1216// 1221// 1220//
usemtl 4
f 1227// 1228// 1229//
f 1230// 1231// 1232//
f 1228// 1233// 1229//
f 1229// 1233// 1234//
f 1229// 1234// 1235//
f 1235// 1234// 1236//
f 1235// 1236// 1237//
f 1237// 1238// 1235//
f 1235// 1238// 1239//
f 1235// 1239// 1240//
f 1241// 1240// 1242//
f 1242// 1240// 1239//
f 1242// 1239// 1232//
f 1232// 1239// 1227//
f 1232// 1227// 1230//
f 1230// 1227// 1229//
f 1235// 1240// 531//
f 531// 1240// 532//
f 1229// 1235// 530//
f 530// 1235// 531//
f 1230// 1229// 529//
f 529// 1229// 530//
f 1231// 1230// 528//
f 528// 1230// 529//
f 1232// 1231// 535//
f 535// 1231// 528//
f 1242// 1232// 534//
f 534// 1232// 535//
f 1241// 1242// 533//
f 533// 1242// 534//
f 1240// 1241// 532//
f 532// 1241// 533//
f 1227// 1239// 1243//
f 1243// 1239// 1244//
f 1239// 1238// 1244//
f 1244// 1238// 1245//
f 1236// 1246// 1247//
f 1236// 1247// 1237//
f 1237// 1247// 1245//
f 1237// 1245// 1238//
f 1236// 1234// 1246//
f 1246// 1234// 1248//
f 1228// 1249// 1250//
f 1228// 1250// 1233//
f 1233// 1250// 1248//
f 1233// 1248// 1234//
f 1228// 1227// 1249//
f 1249// 1227// 1243//
usemtl 2
f 1246// 1248// 1247//
f 1247// 1248// 1250//
f 1247// 1250// 1245//
f 1245// 1250// 1249//
f 1245// 1249// 1244//
f 1244// 1249// 1243//
usemtl 4
f 1251// 1252// 1253//
f 1254// 1255// 1256//
f 1257// 1258// 1254//
f 1259// 1260// 1261//
f 1262// 1263// 1264//
f 1265// 1266// 1253//
f 1253// 1266// 1267//
f 1253// 1267// 1251//
f 1261// 1260// 1268//
f 1258// 1269// 1254//
f 1254// 1269// 1270//
f 1254// 1270// 1271//
f 1270// 1272// 1271//
f 1271// 1272// 1273//
f 1271// 1273// 1274//
f 1274// 1273// 1275//
f 1276// 1252// 1277//
f 1277// 1252// 1278//
f 1277// 1278// 1279//
f 1280// 1281// 1282//
f 1282// 1281// 1283//
f 1282// 1283// 1284//
f 1284// 1283// 1285//
f 1284// 1285// 1286//
f 1286// 1285// 1287//
f 1286// 1287// 1288//
f 1288// 1287// 1253//
f 1288// 1253// 1289//
f 1290// 1291// 1280//
f 1280// 1291// 1292//
f 1280// 1292// 1281//
f 1293// 1294// 1295//
f 1295// 1294// 1296//
f 1295// 1296// 1297//
f 1297// 1296// 1298//
f 1297// 1298// 1299//
f 1299// 1298// 1300//
f 1262// 1264// 1301//
f 1301// 1264// 1302//
f 1301// 1302// 1303//
f 1303// 1302// 1304//
f 1303// 1304// 1305//
f 1260// 1306// 1268//
f 1268// 1306// 1307//
f 1268// 1307// 1308//
f 1308// 1307// 1309//
f 1308// 1309// 1262//
f 1262// 1309// 1310//
f 1262// 1310// 1263//
f 1311// 1312// 1313//
f 1313// 1312// 1314//
f 1313// 1314// 1315//
f 1315// 1314// 1316//
f 1315// 1316// 1317//
f 1317// 1316// 1318//
f 1317// 1318// 1319//
f 1319// 1318// 1320//
f 1319// 1320// 1321//
f 1257// 1254// 1322//
f 1322// 1254// 1256//
f 1322// 1256// 1280//
f 1280// 1256// 1323//
f 1280// 1323// 1290//
f 1298// 1324// 1300//
f 1300// 1324// 1325//
f 1300// 1325// 1326//
f 1326// 1325// 1327//
f 1326// 1327// 1328//
f 1328// 1327// 1329//
f 1328// 1329// 1330//
f 1330// 1329// 1331//
f 1330// 1331// 1332//
f 1332// 1331// 1333//
f 1332// 1333// 1334//
f 1334// 1333// 1335//
f 1334// 1335// 1311//
f 1311// 1335// 1336//
f 1311// 1336// 1312//
f 1337// 1338// 1339//
f 1339// 1338// 1340//
f 1339// 1340// 1295//
f 1295// 1340// 1341//
f 1295// 1341// 1293//
f 1342// 1343// 1344//
f 1344// 1343// 1345//
f 1344// 1345// 1346//
f 1346// 1345// 1347//
f 1346// 1347// 1348//
f 1348// 1347// 1349//
f 1348// 1349// 1350//
f 1350// 1349// 1351//
f 1350// 1351// 1265//
f 1265// 1351// 1352//
f 1265// 1352// 1266//
f 1276// 1353// 1252//
f 1252// 1353// 1354//
f 1252// 1354// 1253//
f 1253// 1354// 1355//
f 1253// 1355// 1289//
f 1305// 1304// 1356//
f 1356// 1304// 1357//
f 1356// 1357// 1358//
f 1358// 1357// 1359//
f 1358// 1359// 1360//
f 1360// 1359// 1361//
f 1360// 1361// 1362//
f 1362// 1361// 1363//
f 1362// 1363// 1337//
f 1337// 1363// 1364//
f 1337// 1364// 1338//
f 1261// 1365// 1259//
f 1259// 1365// 1366//
f 1259// 1366// 1367//
f 1367// 1366// 1368//
f 1367// 1368// 1369//
f 1369// 1368// 1370//
f 1369// 1370// 1342//
f 1342// 1370// 1371//
f 1342// 1371// 1343//
f 1372// 1373// 1374//
f 1278// 1375// 1279//
f 1279// 1375// 1376//
f 1279// 1376// 1377//
f 1377// 1376// 1378//
f 1377// 1378// 1379//
f 1379// 1378// 1380//
f 1379// 1380// 1381//
f 1381// 1380// 1382//
f 1381// 1382// 1383//
f 1383// 1382// 1384//
f 1383// 1384// 1385//
f 1385// 1384// 1386//
f 1385// 1386// 1387//
f 1387// 1386// 1388//
f 1387// 1388// 1275//
f 1275// 1388// 1389//
f 1275// 1389// 1274//
f 1320// 1390// 1321//
f 1321// 1390// 1372//
f 1321// 1372// 1391//
f 1391// 1372// 1374//
f 1392// 1393// 1372//
f 1372// 1393// 1394//
f 1372// 1394// 1373//
f 1395// 1396// 1397//
f 1396// 1398// 1397//
f 1397// 1398// 1399//
f 1397// 1399// 1400//
f 1392// 1372// 1397//
f 1397// 1372// 1401//
f 1397// 1401// 1395//
f 1330// 241// 240//
f 246// 1300// 1326//
f 1330// 240// 1328//
f 1328// 240// 81//
f 1328// 81// 1326//
f 1326// 81// 80//
f 1326// 80// 246//
f 246// 244// 1300//
f 1300// 244// 243//
f 1300// 243// 1299//
f 1299// 243// 96//
f 1299// 96// 1297//
f 1297// 96// 95//
f 1297// 95// 1295//
f 1295// 95// 93//
f 1295// 93// 1339//
f 1339// 93// 92//
f 1339// 92// 1337//
f 102// 1358// 1360//
f 1337// 92// 101//
f 1337// 101// 1362//
f 101// 100// 1362//
f 1362// 100// 98//
f 1362// 98// 1360//
f 1360// 98// 97//
f 1360// 97// 102//
f 1358// 102// 105//
f 90// 1305// 105//
f 105// 1305// 1356//
f 105// 1356// 1358//
f 90// 89// 1305//
f 1305// 89// 108//
f 1305// 108// 1303//
f 113// 1262// 1301//
f 1303// 108// 107//
f 1303// 107// 1301//
f 1301// 107// 111//
f 1301// 111// 113//
f 1262// 113// 112//
f 1262// 112// 1308//
f 1308// 112// 110//
f 1308// 110// 1268//
f 1268// 110// 109//
f 1268// 109// 1261//
f 1261// 109// 116//
f 1261// 116// 1365//
f 1365// 116// 115//
f 1365// 115// 1366//
f 1366// 115// 114//
f 1366// 114// 1368//
f 121// 1345// 1343//
f 1368// 114// 120//
f 1368// 120// 1370//
f 1370// 120// 119//
f 1370// 119// 1371//
f 119// 118// 1371//
f 1371// 118// 87//
f 1371// 87// 1343//
f 1343// 87// 86//
f 1343// 86// 121//
f 125// 1347// 123//
f 123// 1347// 1345//
f 123// 1345// 121//
f 125// 142// 1347//
f 1347// 142// 141//
f 1347// 141// 1349//
f 1349// 141// 139//
f 1349// 139// 1351//
f 1351// 139// 138//
f 1351// 138// 1352//
f 1352// 138// 170//
f 1352// 170// 1266//
f 1266// 170// 169//
f 1266// 169// 1267//
f 1267// 169// 155//
f 1267// 155// 1251//
f 1251// 155// 154//
f 1251// 154// 1252//
f 1252// 154// 153//
f 1252// 153// 1278//
f 1278// 153// 152//
f 1278// 152// 1375//
f 1375// 152// 183//
f 1375// 183// 1376//
f 1376// 183// 182//
f 1376// 182// 1378//
f 1378// 182// 181//
f 1378// 181// 1380//
f 1380// 181// 168//
f 1380// 168// 1382//
f 1382// 168// 167//
f 1382// 167// 1384//
f 1384// 167// 179//
f 1384// 179// 1386//
f 1386// 179// 145//
f 1386// 145// 1388//
f 1388// 145// 150//
f 1388// 150// 1389//
f 1389// 150// 151//
f 1389// 151// 1274//
f 1271// 1274// 135//
f 135// 1274// 151//
f 1254// 1271// 128//
f 128// 1271// 135//
f 190// 1255// 186//
f 186// 1255// 1254//
f 186// 1254// 159//
f 159// 1254// 128//
f 84// 198// 1256//
f 84// 1256// 85//
f 85// 1256// 1255//
f 85// 1255// 190//
f 203// 1292// 1291//
f 1256// 198// 197//
f 1256// 197// 1323//
f 1323// 197// 196//
f 1323// 196// 1290//
f 1290// 196// 83//
f 1290// 83// 1291//
f 1291// 83// 204//
f 1291// 204// 203//
f 1281// 1292// 202//
f 202// 1292// 203//
f 202// 200// 1281//
f 1281// 200// 199//
f 1281// 199// 1283//
f 1283// 199// 207//
f 1283// 207// 1285//
f 1285// 207// 206//
f 1285// 206// 1287//
f 1287// 206// 210//
f 1287// 210// 1253//
f 188// 1346// 201//
f 201// 1346// 1348//
f 201// 1348// 205//
f 205// 1348// 1350//
f 205// 1350// 208//
f 208// 1350// 1265//
f 208// 1265// 209//
f 209// 1265// 1253//
f 209// 1253// 210//
f 188// 189// 1346//
f 1346// 189// 191//
f 1346// 191// 1344//
f 1342// 1344// 192//
f 192// 1344// 191//
f 192// 213// 1342//
f 1342// 213// 212//
f 1342// 212// 1369//
f 1369// 212// 225//
f 1369// 225// 1367//
f 225// 239// 1367//
f 1367// 239// 238//
f 1367// 238// 1259//
f 1259// 238// 237//
f 1259// 237// 1260//
f 1260// 237// 231//
f 1260// 231// 1306//
f 1306// 231// 230//
f 1306// 230// 1307//
f 1307// 230// 229//
f 1307// 229// 1309//
f 1309// 229// 226//
f 1309// 226// 1310//
f 1310// 226// 221//
f 1310// 221// 1263//
f 1263// 221// 224//
f 1263// 224// 1264//
f 1264// 224// 232//
f 1264// 232// 1302//
f 1302// 232// 234//
f 1302// 234// 1304//
f 1304// 234// 236//
f 1304// 236// 1357//
f 1357// 236// 235//
f 1357// 235// 1359//
f 1359// 235// 233//
f 1359// 233// 1361//
f 1361// 233// 223//
f 1361// 223// 1363//
f 1363// 223// 222//
f 1363// 222// 1364//
f 1364// 222// 220//
f 1364// 220// 1338//
f 1338// 220// 219//
f 1338// 219// 1340//
f 1340// 219// 228//
f 1340// 228// 1341//
f 1341// 228// 1293//
f 1293// 228// 227//
f 1293// 227// 211//
f 1294// 1293// 214//
f 214// 1293// 211//
f 1294// 214// 218//
f 1294// 218// 1296//
f 1296// 218// 217//
f 1296// 217// 1298//
f 1298// 217// 216//
f 1298// 216// 1324//
f 1324// 216// 215//
f 1324// 215// 1325//
f 1325// 215// 195//
f 1325// 195// 1327//
f 195// 194// 1327//
f 1327// 194// 193//
f 1327// 193// 1329//
f 1329// 193// 187//
f 1329// 187// 1331//
f 187// 185// 1331//
f 1331// 185// 184//
f 1331// 184// 1333//
f 184// 158// 1333//
f 1333// 158// 157//
f 1333// 157// 1335//
f 1335// 157// 156//
f 1335// 156// 1336//
f 1336// 156// 178//
f 1336// 178// 1312//
f 1312// 178// 177//
f 1312// 177// 1314//
f 1314// 177// 173//
f 1314// 173// 1316//
f 1316// 173// 172//
f 1316// 172// 1318//
f 1320// 1318// 171//
f 171// 1318// 172//
f 1320// 171// 132//
f 1320// 132// 1390//
f 1390// 132// 131//
f 1390// 131// 1372//
f 1372// 131// 130//
f 1372// 130// 1401//
f 1401// 130// 127//
f 1401// 127// 1395//
f 1395// 127// 126//
f 1395// 126// 1396//
f 1396// 126// 129//
f 1396// 129// 1398//
f 1398// 129// 137//
f 1398// 137// 1399//
f 1399// 137// 136//
f 1399// 136// 1400//
f 1400// 136// 134//
f 1400// 134// 1397//
f 1397// 134// 133//
f 1397// 133// 1392//
f 1392// 133// 149//
f 1392// 149// 1393//
f 1393// 149// 148//
f 1393// 148// 1394//
f 1394// 148// 147//
f 1394// 147// 1373//
f 1373// 147// 146//
f 1373// 146// 1374//
f 1374// 146// 144//
f 1374// 144// 1391//
f 1391// 144// 143//
f 1391// 143// 1321//
f 1321// 143// 180//
f 1321// 180// 1319//
f 1317// 1319// 176//
f 176// 1319// 180//
f 1317// 176// 175//
f 1317// 175// 1315//
f 1315// 175// 174//
f 1315// 174// 1313//
f 1313// 174// 166//
f 1313// 166// 1311//
f 1311// 166// 165//
f 1311// 165// 1334//
f 1334// 165// 163//
f 1334// 163// 1332//
f 1332// 163// 161//
f 1332// 161// 1330//
f 1330// 161// 242//
f 1330// 242// 241//
f 1322// 1402// 1403//
f 1322// 1403// 1257//
f 1257// 1403// 1404//
f 1257// 1404// 1258//
f 1258// 1404// 1405//
f 1258// 1405// 1269//
f 1269// 1405// 1406//
f 1269// 1406// 1270//
f 1270// 1406// 1407//
f 1270// 1407// 1272//
f 1272// 1407// 1408//
f 1272// 1408// 1273//
f 1273// 1408// 1409//
f 1273// 1409// 1275//
f 1275// 1409// 1410//
f 1275// 1410// 1387//
f 1387// 1410// 1411//
f 1387// 1411// 1385//
f 1385// 1411// 1412//
f 1385// 1412// 1383//
f 1383// 1412// 1413//
f 1383// 1413// 1381//
f 1381// 1413// 1414//
f 1381// 1414// 1379//
f 1379// 1414// 1415//
f 1379// 1415// 1377//
f 1377// 1415// 1416//
f 1377// 1416// 1279//
f 1279// 1416// 1417//
f 1279// 1417// 1277//
f 1277// 1417// 1418//
f 1277// 1418// 1276//
f 1276// 1418// 1419//
f 1276// 1419// 1353//
f 1353// 1419// 1420//
f 1353// 1420// 1354//
f 1354// 1420// 1421//
f 1354// 1421// 1355//
f 1355// 1421// 1422//
f 1355// 1422// 1289//
f 1289// 1422// 1423//
f 1289// 1423// 1288//
f 1288// 1423// 1424//
f 1288// 1424// 1286//
f 1286// 1424// 1425//
f 1286// 1425// 1284//
f 1284// 1425// 1426//
f 1284// 1426// 1282//
f 1282// 1426// 1427//
f 1282// 1427// 1280//
f 1280// 1427// 1402//
f 1280// 1402// 1322//
usemtl 2
f 1414// 1403// 1415//
f 1415// 1403// 1402//
f 1415// 1402// 1427//
f 1412// 1406// 1405//
f 1427// 1426// 1415//
f 1415// 1426// 1425//
f 1415// 1425// 1416//
f 1416// 1425// 1424//
f 1416// 1424// 1423//
f 1423// 1422// 1416//
f 1416// 1422// 1421//
f 1416// 1421// 1420//
f 1420// 1419// 1416//
f 1416// 1419// 1418//
f 1416// 1418// 1417//
f 1414// 1413// 1403//
f 1403// 1413// 1412//
f 1403// 1412// 1404//
f 1404// 1412// 1405//
f 1410// 1409// 1411//
f 1411// 1409// 1408//
f 1411// 1408// 1412//
f 1412// 1408// 1407//
f 1412// 1407// 1406//
usemtl 1
f 11// 13// 5//
f 5// 13// 3//
f 3// 13// 1//
f 1// 13// 15//
f 1// 15// 27//
f 27// 15// 42//
f 27// 42// 25//
f 25// 42// 44//
f 25// 44// 23//
f 23// 44// 46//
f 23// 46// 21//
f 21// 46// 48//
f 21// 48// 19//
f 19// 48// 50//
f 19// 50// 17//
f 17// 50// 52//
f 30// 63// 32//
f 32// 63// 61//
f 32// 61// 34//
f 34// 61// 59//
f 34// 59// 36//
f 36// 59// 57//
f 36// 57// 38//
f 38// 57// 55//
f 38// 55// 40//
f 40// 55// 53//
f 40// 53// 7//
f 7// 53// 9//
f 7// 9// 5//
f 5// 9// 11//
usemtl 2
f 672// 646// 730//
f 672// 730// 681//
f 681// 730// 731//
f 681// 731// 669//
f 669// 731// 732//
f 669// 732// 670//
f 670// 732// 733//
f 670// 733// 671//
f 671// 733// 729//
f 671// 729// 682//
f 682// 729// 104//
f 682// 104// 673//
f 104// 103// 673//
f 673// 103// 627//
f 673// 627// 674//
f 674// 627// 628//
f 628// 629// 674//
f 674// 629// 630//
f 674// 630// 631//
f 631// 632// 674//
f 674// 632// 633//
f 674// 633// 634//
f 634// 635// 674//
f 674// 635// 636//
f 674// 636// 637//
f 664// 648// 672//
f 672// 648// 646//
f 674// 637// 724//
f 674// 724// 688//
f 688// 724// 725//
f 688// 725// 683//
f 683// 725// 726//
f 683// 726// 684//
f 684// 726// 727//
f 684// 727// 685//
f 685// 727// 728//
f 685// 728// 689//
f 689// 728// 653//
f 689// 653// 662//
f 675// 660// 714//
f 675// 714// 686//
f 686// 714// 715//
f 686// 715// 678//
f 678// 715// 716//
f 678// 716// 679//
f 679// 716// 717//
f 679// 717// 680//
f 680// 717// 718//
f 680// 718// 687//
f 687// 718// 648//
f 687// 648// 664//
f 650// 663// 653//
f 653// 663// 662//
f 676// 658// 675//
f 675// 658// 660//
f 663// 650// 719//
f 663// 719// 667//
f 667// 719// 720//
f 667// 720// 668//
f 668// 720// 721//
f 668// 721// 666//
f 666// 721// 722//
f 666// 722// 665//
f 665// 722// 723//
f 665// 723// 677//
f 677// 723// 658//
f 677// 658// 676//
