%TF.GenerationSoftware,KiCad,Pcbnew,10.0.4-10.0.4~ubuntu24.04.1*%
%TF.CreationDate,2026-07-18T23:41:38-07:00*%
%TF.ProjectId,ble_bus_bar,626c655f-6275-4735-9f62-61722e6b6963,rev?*%
%TF.SameCoordinates,Original*%
%TF.FileFunction,Copper,L2,Bot*%
%TF.FilePolarity,Positive*%
%FSLAX46Y46*%
G04 Gerber Fmt 4.6, Leading zero omitted, Abs format (unit mm)*
G04 Created by KiCad (PCBNEW 10.0.4-10.0.4~ubuntu24.04.1) date 2026-07-18 23:41:38*
%MOMM*%
%LPD*%
G01*
G04 APERTURE LIST*
%TA.AperFunction,ComponentPad*%
%ADD10C,11.000000*%
%TD*%
%TA.AperFunction,HeatsinkPad*%
%ADD11C,0.600000*%
%TD*%
%TA.AperFunction,ComponentPad*%
%ADD12C,3.200000*%
%TD*%
%TA.AperFunction,ComponentPad*%
%ADD13C,13.000000*%
%TD*%
%TA.AperFunction,ComponentPad*%
%ADD14R,1.700000X1.700000*%
%TD*%
%TA.AperFunction,ComponentPad*%
%ADD15C,1.700000*%
%TD*%
%TA.AperFunction,ComponentPad*%
%ADD16O,2.100000X1.000000*%
%TD*%
%TA.AperFunction,ComponentPad*%
%ADD17O,1.600000X1.000000*%
%TD*%
%TA.AperFunction,ViaPad*%
%ADD18C,0.600000*%
%TD*%
%TA.AperFunction,ViaPad*%
%ADD19C,0.560000*%
%TD*%
%TA.AperFunction,ViaPad*%
%ADD20C,0.450000*%
%TD*%
%TA.AperFunction,ViaPad*%
%ADD21C,0.300000*%
%TD*%
%TA.AperFunction,Conductor*%
%ADD22C,0.300000*%
%TD*%
%TA.AperFunction,Conductor*%
%ADD23C,0.500000*%
%TD*%
%TA.AperFunction,Conductor*%
%ADD24C,0.200000*%
%TD*%
%ADD25C,0.300000*%
%ADD26C,0.200000*%
%ADD27C,0.350000*%
%ADD28O,1.700000X0.600000*%
%ADD29O,1.200000X0.600000*%
G04 APERTURE END LIST*
D10*
%TO.P,J8,1*%
%TO.N,GND*%
X58000000Y-107000000D03*
%TD*%
%TO.P,J5,1*%
%TO.N,VP5*%
X183000000Y-57000000D03*
%TD*%
D11*
%TO.P,U7,19*%
%TO.N,GND*%
X67650000Y-61140000D03*
X68750000Y-61140000D03*
X67100000Y-60590000D03*
X68200000Y-60590000D03*
X69300000Y-60590000D03*
X67650000Y-60040000D03*
X68750000Y-60040000D03*
X67100000Y-59490000D03*
X68200000Y-59490000D03*
X69300000Y-59490000D03*
X67650000Y-58940000D03*
X68750000Y-58940000D03*
%TD*%
D12*
%TO.P,F2,1*%
%TO.N,VBUS*%
X124300000Y-95750000D03*
X127700000Y-95750000D03*
%TO.P,F2,2*%
%TO.N,VF2*%
X124300000Y-82250000D03*
X127700000Y-82250000D03*
%TD*%
D13*
%TO.P,J7,1*%
%TO.N,VBUS*%
X151000000Y-105800000D03*
%TD*%
D12*
%TO.P,F3,1*%
%TO.N,VBUS*%
X143300000Y-95750000D03*
X146700000Y-95750000D03*
%TO.P,F3,2*%
%TO.N,VF3*%
X143300000Y-82250000D03*
X146700000Y-82250000D03*
%TD*%
D10*
%TO.P,J1,1*%
%TO.N,VP1*%
X107000000Y-57000000D03*
%TD*%
D14*
%TO.P,J10,1*%
%TO.N,3V3*%
X96500000Y-53000000D03*
D15*
%TO.P,J10,2*%
%TO.N,GND*%
X96500000Y-55540000D03*
%TO.P,J10,3*%
%TO.N,TXD*%
X96500000Y-58080000D03*
%TO.P,J10,4*%
%TO.N,RXD*%
X96500000Y-60620000D03*
%TD*%
D10*
%TO.P,J6,1*%
%TO.N,VP6*%
X202000000Y-57000000D03*
%TD*%
D12*
%TO.P,F1,1*%
%TO.N,VBUS*%
X105300000Y-95750000D03*
X108700000Y-95750000D03*
%TO.P,F1,2*%
%TO.N,VF1*%
X105300000Y-82250000D03*
X108700000Y-82250000D03*
%TD*%
D16*
%TO.P,J9,SH*%
%TO.N,GND*%
X57130000Y-79680000D03*
D17*
X52950000Y-79680000D03*
D16*
X57130000Y-88320000D03*
D17*
X52950000Y-88320000D03*
%TD*%
D10*
%TO.P,J4,1*%
%TO.N,VP4*%
X164000000Y-57000000D03*
%TD*%
D12*
%TO.P,F4,1*%
%TO.N,VBUS*%
X162300000Y-95750000D03*
X165700000Y-95750000D03*
%TO.P,F4,2*%
%TO.N,VF4*%
X162300000Y-82250000D03*
X165700000Y-82250000D03*
%TD*%
D10*
%TO.P,J3,1*%
%TO.N,VP3*%
X145000000Y-57000000D03*
%TD*%
D12*
%TO.P,F6,1*%
%TO.N,VBUS*%
X200300000Y-95750000D03*
X203700000Y-95750000D03*
%TO.P,F6,2*%
%TO.N,VF6*%
X200300000Y-82250000D03*
X203700000Y-82250000D03*
%TD*%
%TO.P,F5,1*%
%TO.N,VBUS*%
X181300000Y-95750000D03*
X184700000Y-95750000D03*
%TO.P,F5,2*%
%TO.N,VF5*%
X181300000Y-82250000D03*
X184700000Y-82250000D03*
%TD*%
D10*
%TO.P,J2,1*%
%TO.N,VP2*%
X126000000Y-57000000D03*
%TD*%
D18*
%TO.N,GND*%
X55000000Y-88000000D03*
X58000000Y-97000000D03*
X67000000Y-73000000D03*
X64000000Y-100000000D03*
X55000000Y-85000000D03*
D19*
X80450000Y-63200000D03*
X79075000Y-66000000D03*
D18*
X85000000Y-91000000D03*
D19*
X115100000Y-65300000D03*
D18*
X94000000Y-88000000D03*
X82000000Y-73000000D03*
X88000000Y-100000000D03*
D19*
X172100000Y-65300000D03*
D18*
X79000000Y-97000000D03*
D19*
X172900000Y-58892500D03*
X92062500Y-52300000D03*
D18*
X94000000Y-97000000D03*
D19*
X192200000Y-65300000D03*
D18*
X85000000Y-97000000D03*
X85000000Y-67000000D03*
X55000000Y-97000000D03*
X88000000Y-97000000D03*
X79000000Y-82000000D03*
X88000000Y-94000000D03*
X88000000Y-82000000D03*
X61000000Y-97000000D03*
X55000000Y-100000000D03*
X88000000Y-91000000D03*
X73000000Y-85000000D03*
X70000000Y-73000000D03*
X82000000Y-76000000D03*
D19*
X185600000Y-63000000D03*
D18*
X58000000Y-100000000D03*
X70000000Y-94000000D03*
D19*
X153100000Y-65300000D03*
D18*
X70000000Y-76000000D03*
X82000000Y-94000000D03*
X88000000Y-85000000D03*
X73000000Y-61000000D03*
X67000000Y-100000000D03*
X55000000Y-76000000D03*
X79000000Y-70000000D03*
D19*
X115900000Y-58892500D03*
D18*
X67000000Y-55000000D03*
D19*
X204600000Y-63000000D03*
D18*
X91000000Y-73000000D03*
X70000000Y-100000000D03*
X88000000Y-88000000D03*
X82000000Y-97000000D03*
D19*
X82000000Y-79000000D03*
D18*
X64000000Y-94000000D03*
X61000000Y-100000000D03*
X94000000Y-94000000D03*
X67000000Y-94000000D03*
X67000000Y-82000000D03*
X94000000Y-91000000D03*
X94000000Y-85000000D03*
X79000000Y-91000000D03*
X94000000Y-79000000D03*
X79000000Y-94000000D03*
D19*
X191900000Y-58892500D03*
D18*
X64000000Y-82000000D03*
X91000000Y-55000000D03*
X94000000Y-73000000D03*
X64000000Y-58000000D03*
X82000000Y-100000000D03*
X91000000Y-70000000D03*
D19*
X153900000Y-58892500D03*
D18*
X67000000Y-64000000D03*
X70000000Y-85000000D03*
X85000000Y-94000000D03*
X79000000Y-100000000D03*
X91000000Y-91000000D03*
X76000000Y-85000000D03*
X64000000Y-97000000D03*
D19*
X128600000Y-63000000D03*
D18*
X91000000Y-100000000D03*
D19*
X109600000Y-63000000D03*
D18*
X85000000Y-100000000D03*
X76000000Y-94000000D03*
X94000000Y-100000000D03*
X58000000Y-76000000D03*
X64000000Y-64000000D03*
D19*
X210900000Y-58892500D03*
X74000000Y-69750000D03*
D18*
X91000000Y-97000000D03*
X64000000Y-67000000D03*
X76000000Y-76000000D03*
X76000000Y-100000000D03*
X91000000Y-94000000D03*
D19*
X166600000Y-63000000D03*
D18*
X94000000Y-82000000D03*
X94000000Y-70000000D03*
D19*
X85000000Y-62142500D03*
D18*
X64000000Y-85000000D03*
X73000000Y-97000000D03*
X94000000Y-76000000D03*
X79000000Y-76000000D03*
X82000000Y-91000000D03*
D19*
X82500000Y-65624999D03*
D18*
X73000000Y-100000000D03*
X61000000Y-88000000D03*
X73000000Y-88000000D03*
D19*
X134100000Y-65300000D03*
X147600000Y-63000000D03*
X134900000Y-58892500D03*
D18*
X64000000Y-79000000D03*
%TO.N,EN*%
X65300000Y-71900000D03*
X76000000Y-72400000D03*
X72700000Y-72400000D03*
X62900000Y-71100000D03*
D19*
%TO.N,3V3*%
X156600000Y-68600000D03*
D18*
X62750000Y-72250000D03*
D19*
X118600000Y-68600000D03*
D18*
X76100000Y-68900000D03*
X74100000Y-76500000D03*
X76100000Y-59500000D03*
X77300000Y-64700000D03*
X93000000Y-61200000D03*
D19*
X191100000Y-68600000D03*
D18*
X64950000Y-74450000D03*
D19*
X82500000Y-68600000D03*
D18*
X80000000Y-57100000D03*
D20*
X89200000Y-62400000D03*
D19*
X213600000Y-68600000D03*
D18*
X86200000Y-58300000D03*
X83700000Y-58300000D03*
X92200000Y-57300000D03*
D19*
X85700000Y-60900000D03*
D18*
X81400000Y-58500000D03*
X78400000Y-63600000D03*
X73300000Y-77300000D03*
D19*
X210100000Y-68600000D03*
X137600000Y-68600000D03*
X135200000Y-68600000D03*
D18*
X90600000Y-62200000D03*
D19*
X175600000Y-68600000D03*
X86500000Y-64060000D03*
D18*
X76100000Y-71100000D03*
D19*
X194600000Y-68600000D03*
D18*
%TO.N,FLASH_CS*%
X78100000Y-59800000D03*
X74200000Y-52900000D03*
%TO.N,SPI_MISO*%
X66700000Y-53900000D03*
X68100000Y-53900000D03*
X84750000Y-56700000D03*
X84750000Y-53500000D03*
%TO.N,SPI_CLK*%
X75300000Y-62600000D03*
X77300000Y-62600000D03*
D19*
%TO.N,ALERT*%
X88700000Y-64060000D03*
X135800000Y-67800000D03*
D18*
X82900000Y-63100000D03*
X67000000Y-52200000D03*
D19*
X173800000Y-67800000D03*
X211800000Y-67800000D03*
D18*
X75000000Y-57100000D03*
D19*
X116800000Y-67800000D03*
D18*
X69600000Y-53700000D03*
D19*
X192800000Y-67800000D03*
X154800000Y-67800000D03*
%TO.N,SDA*%
X136400000Y-66200000D03*
X117400000Y-66200000D03*
D18*
X84100000Y-60100000D03*
D19*
X93100000Y-64060000D03*
X154200000Y-66200000D03*
D18*
X76100000Y-61800000D03*
D19*
X174400000Y-66200000D03*
D18*
X79900000Y-59600000D03*
D19*
X193400000Y-66200000D03*
D18*
X78100000Y-61000000D03*
D19*
X155400000Y-66200000D03*
X212400000Y-66200000D03*
D18*
%TO.N,SCL*%
X83300000Y-63800000D03*
D19*
X173200000Y-67000000D03*
X194000000Y-67000000D03*
X118000000Y-67000000D03*
X175000000Y-67000000D03*
X137000000Y-67000000D03*
X156000000Y-67000000D03*
D18*
X74100000Y-71600000D03*
D19*
X90900000Y-64060000D03*
X213000000Y-67000000D03*
D18*
X67000000Y-70300000D03*
%TO.N,RXD*%
X94700000Y-53350000D03*
X75300000Y-56400000D03*
X84050000Y-54000000D03*
X93200000Y-53350000D03*
%TO.N,TXD*%
X71500000Y-52100000D03*
X83400000Y-54500000D03*
%TO.N,USB_DM*%
X70000000Y-52900000D03*
X63900000Y-71100000D03*
X63900000Y-68400000D03*
X59400000Y-83500000D03*
X68100000Y-56300000D03*
D21*
X58045000Y-84250000D03*
%TO.N,USB_DP*%
X58045000Y-84750000D03*
D18*
X56800000Y-84800000D03*
X62100000Y-68400000D03*
X65000000Y-53600000D03*
X62100000Y-74700000D03*
X68100000Y-51800000D03*
%TO.N,BOOT*%
X87400000Y-77200000D03*
X85900000Y-77900000D03*
D21*
%TO.N,CC1*%
X58045000Y-82750000D03*
D18*
X59200000Y-82700000D03*
%TO.N,CC2*%
X59200000Y-85800000D03*
D21*
X58045000Y-85750000D03*
D18*
%TO.N,VUSB*%
X58045000Y-86450000D03*
X62500000Y-77200000D03*
X61300000Y-78800000D03*
X61300000Y-84800000D03*
X58800000Y-88100000D03*
%TD*%
%TO.N,EN*%
D22*
X63200000Y-71500000D02*
X63200000Y-71400000D01*
X65300000Y-71900000D02*
X63600000Y-71900000D01*
X72700000Y-72400000D02*
X76000000Y-72400000D01*
X63200000Y-71400000D02*
X62900000Y-71100000D01*
X63200000Y-71500000D02*
X63200000Y-71400000D01*
X63200000Y-71400000D02*
X63200000Y-71500000D01*
X63600000Y-71900000D02*
X63200000Y-71500000D01*
%TO.N,3V3*%
D23*
X92200000Y-57300000D02*
X92200000Y-60400000D01*
X82500000Y-68600000D02*
X86500000Y-68600000D01*
X73300000Y-77300000D02*
X74100000Y-76500000D01*
X74400000Y-61200000D02*
X76100000Y-59500000D01*
X86200000Y-58300000D02*
X83700000Y-58300000D01*
X90600000Y-62200000D02*
X90400000Y-62400000D01*
X77300000Y-64700000D02*
X78400000Y-63600000D01*
X86500000Y-64060000D02*
X86500000Y-68600000D01*
D22*
X62750000Y-72250000D02*
X64950000Y-74450000D01*
D23*
X92200000Y-60400000D02*
X93000000Y-61200000D01*
X74400000Y-62900000D02*
X74400000Y-61200000D01*
X86500000Y-68600000D02*
X213600000Y-68600000D01*
X75000000Y-63500000D02*
X74400000Y-62900000D01*
X76100000Y-63500000D02*
X75000000Y-63500000D01*
X77300000Y-64700000D02*
X76100000Y-63500000D01*
X90400000Y-62400000D02*
X89200000Y-62400000D01*
D22*
X86500000Y-64060000D02*
X85700000Y-64060000D01*
X85700000Y-64060000D02*
X85700000Y-60900000D01*
D23*
X96500000Y-53000000D02*
X92200000Y-57300000D01*
X76100000Y-71100000D02*
X76100000Y-68900000D01*
X81400000Y-58500000D02*
X80000000Y-57100000D01*
%TO.N,FLASH_CS*%
D22*
X78100000Y-59800000D02*
X76200000Y-57900000D01*
X76200000Y-57900000D02*
X74700000Y-57900000D01*
X74200000Y-57400000D02*
X74200000Y-52900000D01*
X74700000Y-57900000D02*
X74200000Y-57400000D01*
%TO.N,SPI_MISO*%
D24*
X84750000Y-56700000D02*
X84750000Y-53500000D01*
D22*
X68100000Y-53900000D02*
X66700000Y-53900000D01*
%TO.N,SPI_CLK*%
X75300000Y-62600000D02*
X77300000Y-62600000D01*
%TO.N,ALERT*%
X69600000Y-53700000D02*
X69000000Y-53700000D01*
X88700000Y-64060000D02*
X88700000Y-67800000D01*
X76400000Y-57100000D02*
X75000000Y-57100000D01*
X67500000Y-52200000D02*
X67000000Y-52200000D01*
X69000000Y-53700000D02*
X67500000Y-52200000D01*
X88700000Y-67800000D02*
X211800000Y-67800000D01*
X82900000Y-63100000D02*
X82400000Y-63100000D01*
X82400000Y-63100000D02*
X76400000Y-57100000D01*
%TO.N,SDA*%
X80400000Y-60100000D02*
X79900000Y-59600000D01*
X84100000Y-60100000D02*
X80400000Y-60100000D01*
X77300000Y-61800000D02*
X76100000Y-61800000D01*
X93100000Y-66200000D02*
X212400000Y-66200000D01*
X93100000Y-64060000D02*
X93100000Y-66200000D01*
X78100000Y-61000000D02*
X77300000Y-61800000D01*
%TO.N,SCL*%
X90900000Y-64099999D02*
X90900000Y-64060000D01*
X83700000Y-63400000D02*
X83300000Y-63800000D01*
X74100000Y-71600000D02*
X68300000Y-71600000D01*
X68300000Y-71600000D02*
X67000000Y-70300000D01*
X85400000Y-60100000D02*
X83700000Y-61800000D01*
X86000000Y-60100000D02*
X85400000Y-60100000D01*
X90900000Y-64099999D02*
X90000000Y-64099999D01*
X83700000Y-61800000D02*
X83700000Y-63400000D01*
X90000000Y-64099999D02*
X86000000Y-60100000D01*
X90900000Y-67000000D02*
X213000000Y-67000000D01*
X90900000Y-64060000D02*
X90900000Y-67000000D01*
%TO.N,RXD*%
D24*
X84000000Y-55700000D02*
X83500000Y-56200000D01*
X84000000Y-54050000D02*
X84000000Y-55700000D01*
X83500000Y-56200000D02*
X75500000Y-56200000D01*
X94700000Y-53350000D02*
X93200000Y-53350000D01*
X75500000Y-56200000D02*
X75300000Y-56400000D01*
%TO.N,TXD*%
D22*
X75000000Y-53800000D02*
X75000000Y-52600000D01*
X83400000Y-54500000D02*
X83400000Y-55700000D01*
X83400000Y-55700000D02*
X83300000Y-55800000D01*
X74500000Y-52100000D02*
X71500000Y-52100000D01*
X75000000Y-52600000D02*
X74500000Y-52100000D01*
X77000000Y-55800000D02*
X75000000Y-53800000D01*
X83300000Y-55800000D02*
X77000000Y-55800000D01*
%TO.N,USB_DM*%
X59400000Y-83500000D02*
X58700000Y-84200000D01*
X70400000Y-54000000D02*
X68100000Y-56300000D01*
X63900000Y-68400000D02*
X63900000Y-71100000D01*
X70400000Y-53400000D02*
X70400000Y-54000000D01*
X70000000Y-53000000D02*
X70400000Y-53400000D01*
X58700000Y-84200000D02*
X58000000Y-84200000D01*
%TO.N,USB_DP*%
X65000000Y-53100000D02*
X65000000Y-53600000D01*
X67500000Y-51400000D02*
X66700000Y-51400000D01*
X56800000Y-84800000D02*
X58000000Y-84800000D01*
X67900000Y-51800000D02*
X67500000Y-51400000D01*
X62100000Y-68400000D02*
X62100000Y-74700000D01*
X66700000Y-51400000D02*
X65000000Y-53100000D01*
X68100000Y-51800000D02*
X67900000Y-51800000D01*
%TO.N,BOOT*%
D23*
X85900000Y-77900000D02*
X86600000Y-77200000D01*
X86600000Y-77200000D02*
X87400000Y-77200000D01*
%TO.N,CC1*%
D22*
X58100000Y-82700000D02*
X59200000Y-82700000D01*
%TO.N,CC2*%
X58000000Y-85800000D02*
X59200000Y-85800000D01*
%TO.N,VUSB*%
D23*
X58800000Y-87200000D02*
X58800000Y-88100000D01*
X61300000Y-78800000D02*
X61300000Y-84800000D01*
X58000000Y-86400000D02*
X58800000Y-87200000D01*
X61300000Y-78800000D02*
X61300000Y-78400000D01*
X61300000Y-78400000D02*
X62500000Y-77200000D01*
%TD*%
%TA.AperFunction,Conductor*%
%TO.N,GND*%
G36*
X214669447Y-50205577D02*
G01*
X214684917Y-50209722D01*
X214751712Y-50248285D01*
X214790276Y-50315076D01*
X214794422Y-50330547D01*
X214799500Y-50369116D01*
X214799500Y-113630883D01*
X214794422Y-113669452D01*
X214790276Y-113684923D01*
X214751709Y-113751716D01*
X214684925Y-113790275D01*
X214669455Y-113794421D01*
X214630884Y-113799500D01*
X50369116Y-113799500D01*
X50330549Y-113794422D01*
X50320627Y-113791763D01*
X50315076Y-113790276D01*
X50290627Y-113776158D01*
X50248283Y-113751710D01*
X50209721Y-113684914D01*
X50205576Y-113669443D01*
X50200500Y-113630883D01*
X50200500Y-106764266D01*
X52000000Y-106764266D01*
X52000000Y-107235733D01*
X52004313Y-107290533D01*
X52036992Y-107705762D01*
X52110748Y-108171450D01*
X52110749Y-108171452D01*
X52220816Y-108629912D01*
X52366498Y-109078274D01*
X52366516Y-109078324D01*
X52366518Y-109078330D01*
X52546941Y-109513906D01*
X52546946Y-109513917D01*
X52760965Y-109933953D01*
X52760969Y-109933961D01*
X52760975Y-109933971D01*
X52880029Y-110128251D01*
X52982949Y-110296203D01*
X53007329Y-110335987D01*
X53213681Y-110620007D01*
X53284468Y-110717436D01*
X53581375Y-111065069D01*
X53581375Y-111065068D01*
X53581376Y-111065069D01*
X56197584Y-108448861D01*
X56264379Y-108410297D01*
X56341507Y-108410297D01*
X56408302Y-108448861D01*
X56551137Y-108591696D01*
X56589701Y-108658491D01*
X56589701Y-108735619D01*
X56551137Y-108802414D01*
X53934928Y-111418622D01*
X54143558Y-111596809D01*
X54282558Y-111715527D01*
X54282568Y-111715535D01*
X54664012Y-111992670D01*
X55066028Y-112239024D01*
X55066041Y-112239030D01*
X55066045Y-112239033D01*
X55486081Y-112453052D01*
X55486090Y-112453056D01*
X55486105Y-112453063D01*
X55921677Y-112633484D01*
X55921702Y-112633493D01*
X56327108Y-112765217D01*
X56336019Y-112771004D01*
X56370092Y-112779184D01*
X56370092Y-112779185D01*
X56704810Y-112859543D01*
X56731098Y-112873816D01*
X56828553Y-112889251D01*
X56828550Y-112889251D01*
X57294235Y-112963007D01*
X57709465Y-112995686D01*
X57721647Y-113000000D01*
X58235734Y-113000000D01*
X58303662Y-113000000D01*
X58318979Y-112993653D01*
X58326719Y-112992838D01*
X58705764Y-112963007D01*
X59171448Y-112889251D01*
X59629907Y-112779185D01*
X59629907Y-112779184D01*
X59658708Y-112772270D01*
X59663705Y-112768538D01*
X59672848Y-112765231D01*
X60078297Y-112633493D01*
X60078322Y-112633484D01*
X60513894Y-112453063D01*
X60513909Y-112453056D01*
X60933971Y-112239024D01*
X61335987Y-111992670D01*
X61717431Y-111715535D01*
X61717441Y-111715527D01*
X62065069Y-111418622D01*
X59448861Y-108802414D01*
X59410298Y-108735620D01*
X59410298Y-108658492D01*
X59448862Y-108591697D01*
X59591697Y-108448862D01*
X59658492Y-108410298D01*
X59735620Y-108410298D01*
X59802415Y-108448862D01*
X62418622Y-111065069D01*
X62715527Y-110717441D01*
X62715535Y-110717431D01*
X62992670Y-110335987D01*
X63239024Y-109933971D01*
X63453056Y-109513909D01*
X63453063Y-109513894D01*
X63633484Y-109078322D01*
X63633493Y-109078297D01*
X63765218Y-108672888D01*
X63771005Y-108663978D01*
X63779185Y-108629907D01*
X63889251Y-108171448D01*
X63963007Y-107705764D01*
X63995686Y-107290532D01*
X64000000Y-107278350D01*
X64000000Y-106764273D01*
X64000000Y-106764272D01*
X64000000Y-106764266D01*
X63963007Y-106294235D01*
X63889251Y-105828552D01*
X63831798Y-105589243D01*
X63779184Y-105370092D01*
X63779182Y-105370083D01*
X63633500Y-104921724D01*
X63633493Y-104921702D01*
X63633484Y-104921677D01*
X63453063Y-104486105D01*
X63453056Y-104486090D01*
X63453052Y-104486081D01*
X63239033Y-104066045D01*
X63239030Y-104066041D01*
X63239024Y-104066028D01*
X62992670Y-103664012D01*
X62715535Y-103282568D01*
X62715527Y-103282558D01*
X62618227Y-103168635D01*
X62418622Y-102934928D01*
X59802413Y-105551136D01*
X59735618Y-105589700D01*
X59658490Y-105589700D01*
X59591695Y-105551136D01*
X59448860Y-105408301D01*
X59410296Y-105341506D01*
X59410296Y-105264378D01*
X59448858Y-105197585D01*
X62065069Y-102581376D01*
X62065068Y-102581375D01*
X62065069Y-102581375D01*
X61717436Y-102284468D01*
X61717431Y-102284464D01*
X61335987Y-102007329D01*
X61335983Y-102007327D01*
X61335981Y-102007325D01*
X61239979Y-101948495D01*
X60933971Y-101760975D01*
X60933961Y-101760969D01*
X60933953Y-101760965D01*
X60513917Y-101546946D01*
X60513906Y-101546941D01*
X60078330Y-101366518D01*
X60078324Y-101366516D01*
X60078322Y-101366515D01*
X60078297Y-101366506D01*
X60078298Y-101366506D01*
X60078265Y-101366494D01*
X59672894Y-101234782D01*
X59663982Y-101228995D01*
X59629907Y-101220814D01*
X59295190Y-101140456D01*
X59268901Y-101126182D01*
X58705765Y-101036992D01*
X58705755Y-101036991D01*
X58543041Y-101024185D01*
X58235733Y-101000000D01*
X58235726Y-101000000D01*
X57764272Y-101000000D01*
X57764266Y-101000000D01*
X57294235Y-101036992D01*
X57177814Y-101055431D01*
X56828548Y-101110748D01*
X56828546Y-101110749D01*
X56341270Y-101227733D01*
X56336263Y-101231472D01*
X56327105Y-101234782D01*
X55921724Y-101366498D01*
X55921674Y-101366516D01*
X55921668Y-101366518D01*
X55486092Y-101546941D01*
X55486081Y-101546946D01*
X55066045Y-101760965D01*
X55066032Y-101760972D01*
X55066028Y-101760975D01*
X54942028Y-101836961D01*
X54664017Y-102007325D01*
X54282568Y-102284463D01*
X54282558Y-102284471D01*
X53934929Y-102581376D01*
X56551138Y-105197585D01*
X56589702Y-105264380D01*
X56589702Y-105341508D01*
X56551138Y-105408303D01*
X56408303Y-105551138D01*
X56341508Y-105589702D01*
X56264380Y-105589702D01*
X56197585Y-105551138D01*
X53581376Y-102934929D01*
X53284471Y-103282558D01*
X53284463Y-103282568D01*
X53007325Y-103664017D01*
X52760965Y-104066045D01*
X52546946Y-104486081D01*
X52546941Y-104486092D01*
X52366518Y-104921668D01*
X52366516Y-104921674D01*
X52366498Y-104921724D01*
X52234782Y-105327105D01*
X52228995Y-105336015D01*
X52110749Y-105828546D01*
X52110748Y-105828548D01*
X52055431Y-106177814D01*
X52036992Y-106294235D01*
X52000000Y-106764266D01*
X50200500Y-106764266D01*
X50200500Y-92881977D01*
X50499500Y-92881977D01*
X50499500Y-93118021D01*
X50530303Y-93351998D01*
X50530304Y-93352004D01*
X50530305Y-93352006D01*
X50542463Y-93397380D01*
X50591396Y-93580000D01*
X50591397Y-93580004D01*
X50681720Y-93798060D01*
X50681721Y-93798061D01*
X50784463Y-93976013D01*
X50799723Y-94002445D01*
X50799727Y-94002450D01*
X50943408Y-94189699D01*
X51110301Y-94356592D01*
X51297550Y-94500273D01*
X51361781Y-94537356D01*
X51396201Y-94557229D01*
X51396205Y-94557231D01*
X51500911Y-94617684D01*
X51501860Y-94618243D01*
X51503974Y-94619194D01*
X51503986Y-94619199D01*
X51504554Y-94619454D01*
X51506797Y-94620291D01*
X51720007Y-94708606D01*
X51947986Y-94769693D01*
X51947987Y-94769693D01*
X51947992Y-94769693D01*
X51947993Y-94769694D01*
X52011603Y-94778068D01*
X52181986Y-94800499D01*
X52181987Y-94800500D01*
X52181989Y-94800500D01*
X52418011Y-94800500D01*
X52652014Y-94769693D01*
X52879993Y-94708606D01*
X53098049Y-94618284D01*
X53302450Y-94500273D01*
X53489699Y-94356592D01*
X53656592Y-94189699D01*
X53800273Y-94002450D01*
X53918284Y-93798049D01*
X53938601Y-93749000D01*
X96694500Y-93749000D01*
X96694500Y-111251000D01*
X96698022Y-111286760D01*
X96700370Y-111310604D01*
X96714829Y-111383290D01*
X96719324Y-111405888D01*
X96719328Y-111405908D01*
X96719333Y-111405932D01*
X96720780Y-111412791D01*
X96720781Y-111412795D01*
X96762410Y-111510101D01*
X96764939Y-111516013D01*
X96818915Y-111596795D01*
X96822905Y-111602620D01*
X96903205Y-111681085D01*
X96903208Y-111681087D01*
X96983955Y-111735040D01*
X96983977Y-111735054D01*
X96983987Y-111735061D01*
X96989898Y-111738912D01*
X97094112Y-111780676D01*
X97189400Y-111799630D01*
X97249000Y-111805500D01*
X147770311Y-111805500D01*
X147841719Y-111823726D01*
X147953657Y-111884849D01*
X147954131Y-111885110D01*
X147955189Y-111885581D01*
X148395902Y-112086849D01*
X148851036Y-112256605D01*
X148851045Y-112256607D01*
X148851046Y-112256608D01*
X148854882Y-112257734D01*
X148855047Y-112257793D01*
X148855520Y-112257933D01*
X148855818Y-112258009D01*
X149113624Y-112333707D01*
X149304327Y-112389703D01*
X149304328Y-112389703D01*
X149304331Y-112389704D01*
X149317120Y-112393459D01*
X149791780Y-112496715D01*
X149791788Y-112496716D01*
X149791792Y-112496717D01*
X149793117Y-112496907D01*
X149793119Y-112496908D01*
X149901381Y-112512473D01*
X150272594Y-112565846D01*
X150272608Y-112565847D01*
X150514858Y-112583173D01*
X150757120Y-112600500D01*
X150757124Y-112600500D01*
X151242876Y-112600500D01*
X151242877Y-112600500D01*
X151242880Y-112600500D01*
X151607380Y-112574430D01*
X151727380Y-112565847D01*
X151727382Y-112565848D01*
X151727388Y-112565847D01*
X151727391Y-112565847D01*
X151727405Y-112565846D01*
X152197662Y-112498232D01*
X152198315Y-112498140D01*
X152206337Y-112497023D01*
X152208176Y-112496721D01*
X152208206Y-112496717D01*
X152208208Y-112496717D01*
X152208211Y-112496716D01*
X152208220Y-112496715D01*
X152208236Y-112496711D01*
X152208245Y-112496710D01*
X152208528Y-112496664D01*
X152212196Y-112496068D01*
X152216032Y-112495015D01*
X152682880Y-112393459D01*
X153148964Y-112256605D01*
X153604098Y-112086849D01*
X154045962Y-111885056D01*
X154158280Y-111823726D01*
X154229688Y-111805500D01*
X207750995Y-111805500D01*
X207751000Y-111805500D01*
X207810600Y-111799630D01*
X207905888Y-111780676D01*
X207912791Y-111779220D01*
X208016013Y-111735061D01*
X208096795Y-111681085D01*
X208102620Y-111677095D01*
X208181085Y-111596795D01*
X208235061Y-111516013D01*
X208238912Y-111510102D01*
X208280676Y-111405888D01*
X208299630Y-111310600D01*
X208305500Y-111251000D01*
X208305500Y-111081977D01*
X209199500Y-111081977D01*
X209199500Y-111318021D01*
X209230302Y-111551989D01*
X209230445Y-111552848D01*
X209231322Y-111555805D01*
X209274121Y-111715534D01*
X209291187Y-111779220D01*
X209291395Y-111779996D01*
X209309509Y-111823726D01*
X209381720Y-111998060D01*
X209381721Y-111998061D01*
X209484463Y-112176013D01*
X209499723Y-112202445D01*
X209499727Y-112202450D01*
X209643408Y-112389699D01*
X209810301Y-112556592D01*
X209997550Y-112700273D01*
X210061781Y-112737356D01*
X210096201Y-112757229D01*
X210096205Y-112757231D01*
X210200911Y-112817684D01*
X210201860Y-112818243D01*
X210203974Y-112819194D01*
X210203986Y-112819199D01*
X210204554Y-112819454D01*
X210206797Y-112820291D01*
X210420007Y-112908606D01*
X210647986Y-112969693D01*
X210647987Y-112969693D01*
X210647992Y-112969693D01*
X210647993Y-112969694D01*
X210711603Y-112978068D01*
X210881986Y-113000499D01*
X210881987Y-113000500D01*
X210881989Y-113000500D01*
X211118011Y-113000500D01*
X211352014Y-112969693D01*
X211579993Y-112908606D01*
X211798049Y-112818284D01*
X212002450Y-112700273D01*
X212189699Y-112556592D01*
X212356592Y-112389699D01*
X212500273Y-112202450D01*
X212618284Y-111998049D01*
X212708606Y-111779993D01*
X212769693Y-111552014D01*
X212800500Y-111318011D01*
X212800500Y-111081989D01*
X212769693Y-110847986D01*
X212708606Y-110620007D01*
X212618284Y-110401951D01*
X212618281Y-110401946D01*
X212618280Y-110401943D01*
X212618278Y-110401939D01*
X212617678Y-110400899D01*
X212557231Y-110296205D01*
X212557230Y-110296203D01*
X212500275Y-110197554D01*
X212500273Y-110197550D01*
X212356592Y-110010301D01*
X212189699Y-109843408D01*
X212002450Y-109699727D01*
X212002449Y-109699726D01*
X212002446Y-109699724D01*
X211969926Y-109680948D01*
X211969924Y-109680948D01*
X211798056Y-109581719D01*
X211798051Y-109581717D01*
X211588873Y-109495072D01*
X211579996Y-109491395D01*
X211579994Y-109491394D01*
X211579993Y-109491394D01*
X211572598Y-109489412D01*
X211572588Y-109489409D01*
X211355805Y-109431322D01*
X211352848Y-109430445D01*
X211351989Y-109430302D01*
X211118021Y-109399500D01*
X211118016Y-109399500D01*
X211118011Y-109399500D01*
X210881989Y-109399500D01*
X210881983Y-109399500D01*
X210881977Y-109399500D01*
X210648000Y-109430303D01*
X210419998Y-109491396D01*
X210419994Y-109491397D01*
X210201946Y-109581717D01*
X209997553Y-109699724D01*
X209997550Y-109699727D01*
X209812082Y-109842040D01*
X209810464Y-109843243D01*
X209643246Y-110010461D01*
X209642043Y-110012078D01*
X209552901Y-110128251D01*
X209552900Y-110128251D01*
X209499724Y-110197553D01*
X209381717Y-110401946D01*
X209291397Y-110619994D01*
X209291396Y-110619998D01*
X209230303Y-110848000D01*
X209199500Y-111081977D01*
X208305500Y-111081977D01*
X208305500Y-93749000D01*
X208299630Y-93689400D01*
X208280676Y-93594112D01*
X208279220Y-93587209D01*
X208235061Y-93483987D01*
X208181085Y-93403205D01*
X208177095Y-93397380D01*
X208096795Y-93318915D01*
X208096791Y-93318912D01*
X208016044Y-93264959D01*
X208010104Y-93261089D01*
X208010101Y-93261087D01*
X207905889Y-93219324D01*
X207810606Y-93200371D01*
X207810604Y-93200370D01*
X207810600Y-93200370D01*
X207751000Y-93194500D01*
X207750995Y-93194500D01*
X97249005Y-93194500D01*
X97249000Y-93194500D01*
X97219200Y-93197435D01*
X97189395Y-93200370D01*
X97094067Y-93219333D01*
X97087208Y-93220780D01*
X97087204Y-93220781D01*
X96983988Y-93264938D01*
X96903190Y-93318925D01*
X96897378Y-93322906D01*
X96818914Y-93403206D01*
X96818912Y-93403208D01*
X96764959Y-93483955D01*
X96761089Y-93489895D01*
X96761087Y-93489898D01*
X96719324Y-93594109D01*
X96719324Y-93594111D01*
X96700585Y-93688321D01*
X96700370Y-93689400D01*
X96694500Y-93749000D01*
X53938601Y-93749000D01*
X54002759Y-93594109D01*
X54008603Y-93580001D01*
X54008604Y-93579997D01*
X54008606Y-93579993D01*
X54069693Y-93352014D01*
X54100500Y-93118011D01*
X54100500Y-92881989D01*
X54069693Y-92647986D01*
X54008606Y-92420007D01*
X53918284Y-92201951D01*
X53918281Y-92201946D01*
X53918280Y-92201943D01*
X53918278Y-92201939D01*
X53917678Y-92200899D01*
X53857231Y-92096205D01*
X53857230Y-92096203D01*
X53800275Y-91997554D01*
X53800273Y-91997550D01*
X53656592Y-91810301D01*
X53489699Y-91643408D01*
X53302450Y-91499727D01*
X53302445Y-91499723D01*
X53276013Y-91484463D01*
X53098063Y-91381722D01*
X52888873Y-91295072D01*
X52879996Y-91291395D01*
X52879994Y-91291394D01*
X52879993Y-91291394D01*
X52872598Y-91289412D01*
X52872588Y-91289409D01*
X52655805Y-91231322D01*
X52652848Y-91230445D01*
X52651989Y-91230302D01*
X52418021Y-91199500D01*
X52418016Y-91199500D01*
X52418011Y-91199500D01*
X52181989Y-91199500D01*
X52181983Y-91199500D01*
X52181977Y-91199500D01*
X51948000Y-91230303D01*
X51719998Y-91291396D01*
X51719994Y-91291397D01*
X51501946Y-91381717D01*
X51297553Y-91499724D01*
X51297550Y-91499727D01*
X51112082Y-91642040D01*
X51110464Y-91643243D01*
X50943413Y-91810294D01*
X50799726Y-91997550D01*
X50681717Y-92201946D01*
X50591397Y-92419994D01*
X50591396Y-92419998D01*
X50530303Y-92648000D01*
X50499500Y-92881977D01*
X50200500Y-92881977D01*
X50200500Y-88069999D01*
X51680136Y-88069999D01*
X51680137Y-88070000D01*
X52212223Y-88070000D01*
X52286723Y-88089962D01*
X52341261Y-88144500D01*
X52361223Y-88219000D01*
X52361223Y-88238618D01*
X52350000Y-88280504D01*
X52350000Y-88359496D01*
X52361223Y-88401381D01*
X52361223Y-88421000D01*
X52356145Y-88439949D01*
X52356145Y-88459566D01*
X52346338Y-88476551D01*
X52341261Y-88495500D01*
X52327388Y-88509372D01*
X52317580Y-88526361D01*
X52300592Y-88536168D01*
X52286723Y-88550038D01*
X52267775Y-88555114D01*
X52250785Y-88564924D01*
X52212223Y-88570000D01*
X51680137Y-88570000D01*
X51688422Y-88611660D01*
X51688430Y-88611692D01*
X51763806Y-88793669D01*
X51763810Y-88793677D01*
X51873252Y-88957466D01*
X52012533Y-89096747D01*
X52176322Y-89206189D01*
X52353448Y-89279555D01*
X52356513Y-89280954D01*
X52358310Y-89281569D01*
X52358311Y-89281570D01*
X52358313Y-89281571D01*
X52551509Y-89320000D01*
X52700000Y-89320000D01*
X52700000Y-88769000D01*
X52719962Y-88694500D01*
X52774500Y-88639962D01*
X52849000Y-88620000D01*
X53051000Y-88620000D01*
X53125500Y-88639962D01*
X53180038Y-88694500D01*
X53200000Y-88769000D01*
X53200000Y-89320000D01*
X53348491Y-89320000D01*
X53541686Y-89281571D01*
X53541688Y-89281570D01*
X53541693Y-89281567D01*
X53543487Y-89280954D01*
X53546550Y-89279555D01*
X53723677Y-89206189D01*
X53887466Y-89096747D01*
X54026747Y-88957466D01*
X54136189Y-88793677D01*
X54211570Y-88611688D01*
X54211571Y-88611684D01*
X54219863Y-88570000D01*
X54219862Y-88570000D01*
X53687777Y-88570000D01*
X53613277Y-88550038D01*
X53558739Y-88495500D01*
X53538777Y-88421000D01*
X53538777Y-88401381D01*
X53550000Y-88359496D01*
X53550000Y-88280504D01*
X53538777Y-88238618D01*
X53538777Y-88219000D01*
X53543854Y-88200050D01*
X53543855Y-88180434D01*
X53553661Y-88163448D01*
X53558739Y-88144500D01*
X53572611Y-88130627D01*
X53582420Y-88113639D01*
X53599407Y-88103831D01*
X53613277Y-88089962D01*
X53632224Y-88084885D01*
X53649215Y-88075076D01*
X53687777Y-88070000D01*
X54219863Y-88070000D01*
X54219863Y-88069999D01*
X55610136Y-88069999D01*
X55610137Y-88070000D01*
X56142223Y-88070000D01*
X56216723Y-88089962D01*
X56271261Y-88144500D01*
X56291223Y-88219000D01*
X56291223Y-88238618D01*
X56280000Y-88280504D01*
X56280000Y-88359496D01*
X56291223Y-88401381D01*
X56291223Y-88421000D01*
X56286145Y-88439949D01*
X56286145Y-88459566D01*
X56276338Y-88476551D01*
X56271261Y-88495500D01*
X56257388Y-88509372D01*
X56247580Y-88526361D01*
X56230592Y-88536168D01*
X56216723Y-88550038D01*
X56197775Y-88555114D01*
X56180785Y-88564924D01*
X56142223Y-88570000D01*
X55610137Y-88570000D01*
X55618422Y-88611660D01*
X55618430Y-88611692D01*
X55693806Y-88793669D01*
X55693810Y-88793677D01*
X55803252Y-88957466D01*
X55942533Y-89096747D01*
X56106322Y-89206189D01*
X56283448Y-89279555D01*
X56286513Y-89280954D01*
X56288310Y-89281569D01*
X56288311Y-89281570D01*
X56288313Y-89281571D01*
X56481509Y-89320000D01*
X56880000Y-89320000D01*
X56880000Y-88769000D01*
X56899962Y-88694500D01*
X56954500Y-88639962D01*
X57029000Y-88620000D01*
X57231000Y-88620000D01*
X57305500Y-88639962D01*
X57360038Y-88694500D01*
X57380000Y-88769000D01*
X57380000Y-89320000D01*
X57778491Y-89320000D01*
X57971686Y-89281571D01*
X57971688Y-89281570D01*
X57971693Y-89281567D01*
X57973487Y-89280954D01*
X57976550Y-89279555D01*
X58153677Y-89206189D01*
X58317466Y-89096747D01*
X58456747Y-88957466D01*
X58566187Y-88793680D01*
X58566187Y-88793677D01*
X58568352Y-88790439D01*
X58574006Y-88782546D01*
X58589680Y-88762116D01*
X58650859Y-88715164D01*
X58657865Y-88712262D01*
X58714880Y-88700922D01*
X58770112Y-88700922D01*
X58773317Y-88700500D01*
X58879057Y-88700500D01*
X59031784Y-88659577D01*
X59168716Y-88580520D01*
X59280520Y-88468716D01*
X59359577Y-88331784D01*
X59400500Y-88179057D01*
X59400500Y-88020943D01*
X59365394Y-87889926D01*
X59363185Y-87880448D01*
X59353362Y-87831053D01*
X59350500Y-87801991D01*
X59350500Y-87127525D01*
X59312984Y-86987515D01*
X59240510Y-86861985D01*
X59047255Y-86668730D01*
X59023578Y-86637873D01*
X59016642Y-86625860D01*
X58996678Y-86551361D01*
X59016639Y-86476860D01*
X59071176Y-86422322D01*
X59071193Y-86422312D01*
X59074412Y-86420454D01*
X59148897Y-86400500D01*
X59279057Y-86400500D01*
X59431784Y-86359577D01*
X59568716Y-86280520D01*
X59680520Y-86168716D01*
X59759577Y-86031784D01*
X59800500Y-85879057D01*
X59800500Y-85720943D01*
X59759577Y-85568216D01*
X59680520Y-85431284D01*
X59568716Y-85319480D01*
X59431784Y-85240423D01*
X59279057Y-85199500D01*
X59120939Y-85199500D01*
X58996596Y-85232818D01*
X58996591Y-85232819D01*
X58968216Y-85240423D01*
X58968214Y-85240423D01*
X58968214Y-85240424D01*
X58942774Y-85255111D01*
X58942766Y-85255115D01*
X58931120Y-85261840D01*
X58929248Y-85262921D01*
X58848270Y-85309673D01*
X58848247Y-85309682D01*
X58841909Y-85313342D01*
X58824440Y-85321958D01*
X58811400Y-85327360D01*
X58806306Y-85330164D01*
X58776363Y-85342617D01*
X58775759Y-85342794D01*
X58757138Y-85346210D01*
X58757229Y-85346718D01*
X58754524Y-85347199D01*
X58749191Y-85347669D01*
X58745461Y-85348354D01*
X58742747Y-85348566D01*
X58742721Y-85348240D01*
X58728438Y-85349500D01*
X58466936Y-85349500D01*
X58428373Y-85344423D01*
X58417837Y-85341600D01*
X58351042Y-85303037D01*
X58312477Y-85236242D01*
X58312477Y-85159114D01*
X58338167Y-85107002D01*
X58358758Y-85080153D01*
X58359802Y-85078962D01*
X58360970Y-85077269D01*
X58367050Y-85069340D01*
X58367051Y-85069341D01*
X58369930Y-85065587D01*
X58369931Y-85065583D01*
X58375235Y-85058670D01*
X58375239Y-85058666D01*
X58388100Y-85043999D01*
X58405489Y-85026613D01*
X58464799Y-84923886D01*
X58495500Y-84809309D01*
X58496764Y-84799706D01*
X58500164Y-84782121D01*
X58500345Y-84781413D01*
X58503242Y-84770602D01*
X58503396Y-84769523D01*
X58504633Y-84764702D01*
X58521804Y-84734213D01*
X58537439Y-84702915D01*
X58537562Y-84702777D01*
X58538230Y-84702025D01*
X58540941Y-84700236D01*
X58542483Y-84697500D01*
X58567775Y-84682535D01*
X58602509Y-84659624D01*
X58606943Y-84658146D01*
X58654061Y-84650500D01*
X58759309Y-84650500D01*
X58850318Y-84626114D01*
X58873887Y-84619799D01*
X58976614Y-84560489D01*
X59380534Y-84156567D01*
X59411392Y-84132891D01*
X59440497Y-84116088D01*
X59476430Y-84101204D01*
X59479057Y-84100500D01*
X59631784Y-84059577D01*
X59768716Y-83980520D01*
X59880520Y-83868716D01*
X59959577Y-83731784D01*
X60000500Y-83579057D01*
X60000500Y-83420943D01*
X59959577Y-83268216D01*
X59880520Y-83131284D01*
X59817675Y-83068439D01*
X59793995Y-83037579D01*
X59787659Y-83026605D01*
X59785200Y-83022346D01*
X59771681Y-82971887D01*
X59765240Y-82947848D01*
X59765240Y-82930265D01*
X59770317Y-82891700D01*
X59778218Y-82862214D01*
X59800500Y-82779057D01*
X59800500Y-82620943D01*
X59759577Y-82468216D01*
X59680520Y-82331284D01*
X59568716Y-82219480D01*
X59431784Y-82140423D01*
X59279057Y-82099500D01*
X59120943Y-82099500D01*
X58968212Y-82140424D01*
X58848271Y-82209672D01*
X58848231Y-82209695D01*
X58842439Y-82213036D01*
X58841950Y-82213319D01*
X58841868Y-82213366D01*
X58841853Y-82213369D01*
X58824435Y-82221960D01*
X58785342Y-82238155D01*
X58728316Y-82249500D01*
X58040691Y-82249500D01*
X57926105Y-82280203D01*
X57823389Y-82339508D01*
X57800983Y-82361913D01*
X57796393Y-82366311D01*
X57791543Y-82370762D01*
X57775659Y-82382952D01*
X57776132Y-82383568D01*
X57768382Y-82389515D01*
X57737753Y-82420143D01*
X57737741Y-82420155D01*
X57684507Y-82473390D01*
X57684505Y-82473393D01*
X57625202Y-82576108D01*
X57594500Y-82690688D01*
X57594500Y-82809310D01*
X57625202Y-82923891D01*
X57680566Y-83019783D01*
X57680567Y-83019784D01*
X57684506Y-83026606D01*
X57684509Y-83026610D01*
X57684511Y-83026613D01*
X57768387Y-83110489D01*
X57768389Y-83110490D01*
X57768393Y-83110493D01*
X57866965Y-83167404D01*
X57866964Y-83167404D01*
X57871110Y-83169797D01*
X57871111Y-83169797D01*
X57871114Y-83169799D01*
X57985691Y-83200500D01*
X58104308Y-83200500D01*
X58104309Y-83200500D01*
X58174100Y-83181799D01*
X58174944Y-83181577D01*
X58220370Y-83169759D01*
X58220506Y-83169759D01*
X58223738Y-83169006D01*
X58225888Y-83168277D01*
X58228534Y-83167567D01*
X58228535Y-83167568D01*
X58273287Y-83155577D01*
X58311850Y-83150500D01*
X58658170Y-83150500D01*
X58688280Y-83153574D01*
X58692533Y-83154451D01*
X58695976Y-83155374D01*
X58696953Y-83155363D01*
X58704312Y-83156882D01*
X58733764Y-83171668D01*
X58764279Y-83184118D01*
X58767925Y-83188818D01*
X58773241Y-83191487D01*
X58791355Y-83219020D01*
X58811555Y-83245058D01*
X58813721Y-83253015D01*
X58815633Y-83255921D01*
X58815938Y-83261159D01*
X58818451Y-83270389D01*
X58818948Y-83270257D01*
X58819108Y-83270856D01*
X58819107Y-83272797D01*
X58821875Y-83282963D01*
X58822668Y-83288864D01*
X58819100Y-83289343D01*
X58819090Y-83315150D01*
X58820128Y-83332918D01*
X58819083Y-83334999D01*
X58819078Y-83347871D01*
X58798961Y-83422951D01*
X58788590Y-83450455D01*
X58786812Y-83454047D01*
X58781589Y-83463322D01*
X58778314Y-83471227D01*
X58776107Y-83475689D01*
X58768041Y-83484862D01*
X58747914Y-83514981D01*
X58570908Y-83691988D01*
X58540052Y-83715665D01*
X58516028Y-83729536D01*
X58441528Y-83749500D01*
X57940691Y-83749500D01*
X57826105Y-83780203D01*
X57723396Y-83839503D01*
X57723387Y-83839510D01*
X57639510Y-83923387D01*
X57639503Y-83923396D01*
X57580202Y-84026107D01*
X57549500Y-84140688D01*
X57549500Y-84180883D01*
X57544422Y-84219452D01*
X57540276Y-84234923D01*
X57501709Y-84301716D01*
X57434925Y-84340275D01*
X57419455Y-84344421D01*
X57380884Y-84349500D01*
X57278033Y-84349500D01*
X57239470Y-84344423D01*
X57207004Y-84335724D01*
X57171063Y-84320835D01*
X57168731Y-84319488D01*
X57168716Y-84319480D01*
X57031784Y-84240423D01*
X56879057Y-84199500D01*
X56720939Y-84199500D01*
X56596599Y-84232817D01*
X56596593Y-84232819D01*
X56568216Y-84240423D01*
X56568214Y-84240423D01*
X56568214Y-84240424D01*
X56542768Y-84255114D01*
X56542763Y-84255117D01*
X56431282Y-84319480D01*
X56319479Y-84431283D01*
X56244883Y-84560488D01*
X56244884Y-84560489D01*
X56240422Y-84568215D01*
X56240420Y-84568220D01*
X56225644Y-84623371D01*
X56225644Y-84623372D01*
X56204569Y-84702025D01*
X56199500Y-84720941D01*
X56199500Y-84720943D01*
X56199500Y-84879057D01*
X56240423Y-85031784D01*
X56319480Y-85168716D01*
X56431284Y-85280520D01*
X56568216Y-85359577D01*
X56720943Y-85400500D01*
X56879057Y-85400500D01*
X57031784Y-85359577D01*
X57132086Y-85301667D01*
X57140450Y-85297189D01*
X57195531Y-85269911D01*
X57204501Y-85268110D01*
X57208025Y-85265920D01*
X57207555Y-85264786D01*
X57214668Y-85261840D01*
X57216050Y-85261565D01*
X57216726Y-85261336D01*
X57216756Y-85261424D01*
X57271683Y-85250500D01*
X57533064Y-85250500D01*
X57571619Y-85255574D01*
X57585020Y-85259165D01*
X57651815Y-85297725D01*
X57690382Y-85364518D01*
X57690386Y-85441645D01*
X57689424Y-85445236D01*
X57650864Y-85512033D01*
X57639509Y-85523388D01*
X57639505Y-85523393D01*
X57580202Y-85626110D01*
X57580201Y-85626112D01*
X57549500Y-85740688D01*
X57549500Y-85859310D01*
X57568708Y-85930994D01*
X57573785Y-85969558D01*
X57573785Y-85997298D01*
X57553823Y-86071798D01*
X57553821Y-86071799D01*
X57487017Y-86187509D01*
X57449500Y-86327523D01*
X57449328Y-86328831D01*
X57449251Y-86331508D01*
X57448936Y-86336949D01*
X57445736Y-86361253D01*
X57445775Y-86361259D01*
X57444500Y-86370942D01*
X57444500Y-86370943D01*
X57444500Y-86529057D01*
X57485423Y-86681784D01*
X57564480Y-86818716D01*
X57676284Y-86930520D01*
X57813216Y-87009577D01*
X57813217Y-87009577D01*
X57817559Y-87012084D01*
X57825830Y-87017227D01*
X57851213Y-87034187D01*
X57897470Y-87083575D01*
X57903859Y-87094641D01*
X57923821Y-87169141D01*
X57903859Y-87243641D01*
X57849354Y-87298160D01*
X57846136Y-87300019D01*
X57771641Y-87320000D01*
X57380000Y-87320000D01*
X57380000Y-87871000D01*
X57360038Y-87945500D01*
X57305500Y-88000038D01*
X57231000Y-88020000D01*
X57029000Y-88020000D01*
X56954500Y-88000038D01*
X56899962Y-87945500D01*
X56880000Y-87871000D01*
X56880000Y-87434504D01*
X56885076Y-87395945D01*
X56887441Y-87387114D01*
X56892256Y-87369147D01*
X56930817Y-87302353D01*
X56956811Y-87276359D01*
X57020505Y-87212665D01*
X57089688Y-87092836D01*
X57125500Y-86959183D01*
X57125500Y-86820817D01*
X57089688Y-86687164D01*
X57020505Y-86567335D01*
X56922665Y-86469495D01*
X56802836Y-86400312D01*
X56669183Y-86364500D01*
X56530813Y-86364500D01*
X56425545Y-86392707D01*
X56425542Y-86392708D01*
X56397164Y-86400312D01*
X56397162Y-86400312D01*
X56397162Y-86400313D01*
X56371718Y-86415002D01*
X56371713Y-86415005D01*
X56277333Y-86469495D01*
X56179495Y-86567333D01*
X56110313Y-86687162D01*
X56074500Y-86820814D01*
X56074500Y-86959186D01*
X56110311Y-87092833D01*
X56110312Y-87092836D01*
X56110313Y-87092837D01*
X56113163Y-87097773D01*
X56113164Y-87097775D01*
X56173652Y-87202544D01*
X56188537Y-87238481D01*
X56192682Y-87253951D01*
X56192682Y-87273565D01*
X56193614Y-87277044D01*
X56192682Y-87280522D01*
X56192682Y-87331080D01*
X56154118Y-87397873D01*
X56147427Y-87404564D01*
X56112301Y-87430614D01*
X56106322Y-87433809D01*
X55942538Y-87543247D01*
X55942531Y-87543253D01*
X55803253Y-87682531D01*
X55803249Y-87682536D01*
X55693810Y-87846321D01*
X55693806Y-87846329D01*
X55618430Y-88028306D01*
X55618430Y-88028307D01*
X55618429Y-88028311D01*
X55618428Y-88028315D01*
X55610136Y-88069999D01*
X54219863Y-88069999D01*
X54219861Y-88069989D01*
X54211577Y-88028347D01*
X54211571Y-88028315D01*
X54211570Y-88028311D01*
X54177269Y-87945500D01*
X54136192Y-87846329D01*
X54136191Y-87846327D01*
X54136189Y-87846322D01*
X54026747Y-87682533D01*
X53887466Y-87543252D01*
X53723677Y-87433810D01*
X53723675Y-87433809D01*
X53723669Y-87433806D01*
X53546580Y-87360455D01*
X53543500Y-87359049D01*
X53541688Y-87358429D01*
X53541686Y-87358428D01*
X53541683Y-87358427D01*
X53541682Y-87358427D01*
X53348491Y-87320000D01*
X53200000Y-87320000D01*
X53200000Y-87871000D01*
X53180038Y-87945500D01*
X53125500Y-88000038D01*
X53051000Y-88020000D01*
X52849000Y-88020000D01*
X52774500Y-88000038D01*
X52719962Y-87945500D01*
X52700000Y-87871000D01*
X52700000Y-87320000D01*
X52551509Y-87320000D01*
X52358316Y-87358427D01*
X52356495Y-87359050D01*
X52353418Y-87360455D01*
X52176329Y-87433806D01*
X52176321Y-87433810D01*
X52012536Y-87543249D01*
X52012531Y-87543253D01*
X51873253Y-87682531D01*
X51873249Y-87682536D01*
X51763810Y-87846321D01*
X51763806Y-87846329D01*
X51688430Y-88028306D01*
X51688430Y-88028307D01*
X51688429Y-88028311D01*
X51688428Y-88028315D01*
X51680136Y-88069999D01*
X50200500Y-88069999D01*
X50200500Y-79429999D01*
X51680136Y-79429999D01*
X51680137Y-79430000D01*
X52212223Y-79430000D01*
X52286723Y-79449962D01*
X52341261Y-79504500D01*
X52361223Y-79579000D01*
X52361223Y-79598618D01*
X52350000Y-79640504D01*
X52350000Y-79719496D01*
X52361223Y-79761381D01*
X52361223Y-79781000D01*
X52356145Y-79799949D01*
X52356145Y-79819566D01*
X52346338Y-79836551D01*
X52341261Y-79855500D01*
X52327388Y-79869372D01*
X52317580Y-79886361D01*
X52300592Y-79896168D01*
X52286723Y-79910038D01*
X52267775Y-79915114D01*
X52250785Y-79924924D01*
X52212223Y-79930000D01*
X51680137Y-79930000D01*
X51688422Y-79971660D01*
X51688430Y-79971692D01*
X51763806Y-80153669D01*
X51763810Y-80153677D01*
X51873252Y-80317466D01*
X52012533Y-80456747D01*
X52176322Y-80566189D01*
X52353448Y-80639555D01*
X52356513Y-80640954D01*
X52358310Y-80641569D01*
X52358311Y-80641570D01*
X52358313Y-80641571D01*
X52551509Y-80680000D01*
X52700000Y-80680000D01*
X52700000Y-80129000D01*
X52719962Y-80054500D01*
X52774500Y-79999962D01*
X52849000Y-79980000D01*
X53051000Y-79980000D01*
X53125500Y-79999962D01*
X53180038Y-80054500D01*
X53200000Y-80129000D01*
X53200000Y-80680000D01*
X53348491Y-80680000D01*
X53541686Y-80641571D01*
X53541688Y-80641570D01*
X53541693Y-80641567D01*
X53543487Y-80640954D01*
X53546550Y-80639555D01*
X53723677Y-80566189D01*
X53887466Y-80456747D01*
X54026747Y-80317466D01*
X54136189Y-80153677D01*
X54211570Y-79971688D01*
X54211571Y-79971684D01*
X54219863Y-79930000D01*
X54219862Y-79930000D01*
X53687777Y-79930000D01*
X53613277Y-79910038D01*
X53558739Y-79855500D01*
X53538777Y-79781000D01*
X53538777Y-79761381D01*
X53550000Y-79719496D01*
X53550000Y-79640504D01*
X53538777Y-79598618D01*
X53538777Y-79579000D01*
X53543854Y-79560050D01*
X53543855Y-79540434D01*
X53553661Y-79523448D01*
X53558739Y-79504500D01*
X53572611Y-79490627D01*
X53582420Y-79473639D01*
X53599407Y-79463831D01*
X53613277Y-79449962D01*
X53632224Y-79444885D01*
X53649215Y-79435076D01*
X53687777Y-79430000D01*
X54219863Y-79430000D01*
X54219863Y-79429999D01*
X55610136Y-79429999D01*
X55610137Y-79430000D01*
X56142223Y-79430000D01*
X56216723Y-79449962D01*
X56271261Y-79504500D01*
X56291223Y-79579000D01*
X56291223Y-79598618D01*
X56280000Y-79640504D01*
X56280000Y-79719496D01*
X56291223Y-79761381D01*
X56291223Y-79781000D01*
X56286145Y-79799949D01*
X56286145Y-79819566D01*
X56276338Y-79836551D01*
X56271261Y-79855500D01*
X56257388Y-79869372D01*
X56247580Y-79886361D01*
X56230592Y-79896168D01*
X56216723Y-79910038D01*
X56197775Y-79915114D01*
X56180785Y-79924924D01*
X56142223Y-79930000D01*
X55610137Y-79930000D01*
X55618422Y-79971660D01*
X55618430Y-79971692D01*
X55693806Y-80153669D01*
X55693810Y-80153677D01*
X55803252Y-80317466D01*
X55942533Y-80456747D01*
X56069882Y-80541840D01*
X56112404Y-80570252D01*
X56112315Y-80570384D01*
X56123766Y-80577767D01*
X56139707Y-80589998D01*
X56186662Y-80651186D01*
X56196732Y-80727654D01*
X56196730Y-80727666D01*
X56195513Y-80736907D01*
X56176827Y-80791951D01*
X56110315Y-80907154D01*
X56110313Y-80907158D01*
X56110313Y-80907160D01*
X56110312Y-80907164D01*
X56074500Y-81040813D01*
X56074500Y-81040815D01*
X56074500Y-81179184D01*
X56074500Y-81179186D01*
X56074501Y-81179189D01*
X56084095Y-81214996D01*
X56084096Y-81214996D01*
X56110312Y-81312836D01*
X56179495Y-81432665D01*
X56277335Y-81530505D01*
X56397164Y-81599688D01*
X56530817Y-81635500D01*
X56669183Y-81635500D01*
X56802836Y-81599688D01*
X56922665Y-81530505D01*
X57020505Y-81432665D01*
X57089688Y-81312836D01*
X57125500Y-81179183D01*
X57125500Y-81040817D01*
X57089688Y-80907164D01*
X57020505Y-80787335D01*
X56937512Y-80704342D01*
X56913832Y-80673481D01*
X56899961Y-80649455D01*
X56896452Y-80636359D01*
X56880000Y-80574957D01*
X56880000Y-80129000D01*
X56899962Y-80054500D01*
X56954500Y-79999962D01*
X57029000Y-79980000D01*
X57231000Y-79980000D01*
X57305500Y-79999962D01*
X57360038Y-80054500D01*
X57380000Y-80129000D01*
X57380000Y-80680000D01*
X57778491Y-80680000D01*
X57971686Y-80641571D01*
X57971688Y-80641570D01*
X57971693Y-80641567D01*
X57973487Y-80640954D01*
X57976550Y-80639555D01*
X58153677Y-80566189D01*
X58317466Y-80456747D01*
X58456747Y-80317466D01*
X58566189Y-80153677D01*
X58641570Y-79971688D01*
X58641571Y-79971684D01*
X58649863Y-79930000D01*
X58649862Y-79930000D01*
X58117777Y-79930000D01*
X58043277Y-79910038D01*
X57988739Y-79855500D01*
X57968777Y-79781000D01*
X57968777Y-79761381D01*
X57980000Y-79719496D01*
X57980000Y-79640504D01*
X57968777Y-79598618D01*
X57968777Y-79579000D01*
X57973854Y-79560050D01*
X57973855Y-79540434D01*
X57983661Y-79523448D01*
X57988739Y-79504500D01*
X58002611Y-79490627D01*
X58012420Y-79473639D01*
X58029407Y-79463831D01*
X58043277Y-79449962D01*
X58062224Y-79444885D01*
X58079215Y-79435076D01*
X58117777Y-79430000D01*
X58649862Y-79430000D01*
X58649863Y-79430000D01*
X58649863Y-79429999D01*
X58641571Y-79388315D01*
X58641570Y-79388311D01*
X58566189Y-79206322D01*
X58456747Y-79042533D01*
X58317466Y-78903252D01*
X58317461Y-78903248D01*
X58317453Y-78903242D01*
X58221577Y-78839179D01*
X58221504Y-78839131D01*
X58215419Y-78835065D01*
X58153682Y-78793813D01*
X58153680Y-78793812D01*
X58153676Y-78793810D01*
X58153672Y-78793808D01*
X57977748Y-78720939D01*
X60699500Y-78720939D01*
X60699500Y-78879062D01*
X60734579Y-79009978D01*
X60736791Y-79019463D01*
X60746635Y-79068936D01*
X60749500Y-79098014D01*
X60749500Y-84501991D01*
X60746637Y-84531059D01*
X60736807Y-84580478D01*
X60734593Y-84589974D01*
X60725644Y-84623372D01*
X60704569Y-84702025D01*
X60699500Y-84720941D01*
X60699500Y-84720943D01*
X60699500Y-84879057D01*
X60740423Y-85031784D01*
X60819480Y-85168716D01*
X60931284Y-85280520D01*
X61068216Y-85359577D01*
X61220943Y-85400500D01*
X61379057Y-85400500D01*
X61531784Y-85359577D01*
X61668716Y-85280520D01*
X61780520Y-85168716D01*
X61859577Y-85031784D01*
X61900500Y-84879057D01*
X61900500Y-84720943D01*
X61865394Y-84589926D01*
X61863185Y-84580448D01*
X61853362Y-84531053D01*
X61850500Y-84501991D01*
X61850500Y-82125423D01*
X103399500Y-82125423D01*
X103399500Y-82374575D01*
X103432014Y-82621549D01*
X103496499Y-82862211D01*
X103496500Y-82862214D01*
X103525315Y-82931779D01*
X103525318Y-82931785D01*
X103564593Y-83026605D01*
X103591835Y-83092373D01*
X103591838Y-83092377D01*
X103654262Y-83200499D01*
X103716401Y-83308127D01*
X103868062Y-83505776D01*
X104044224Y-83681938D01*
X104241873Y-83833599D01*
X104457627Y-83958164D01*
X104687793Y-84053502D01*
X104928435Y-84117982D01*
X104928436Y-84117982D01*
X104928441Y-84117982D01*
X104928442Y-84117983D01*
X104995586Y-84126822D01*
X105175432Y-84150499D01*
X105175433Y-84150500D01*
X105175435Y-84150500D01*
X105424565Y-84150500D01*
X105671565Y-84117982D01*
X105912207Y-84053502D01*
X106142373Y-83958164D01*
X106358127Y-83833599D01*
X106555776Y-83681938D01*
X106731938Y-83505776D01*
X106869851Y-83326041D01*
X106897352Y-83298541D01*
X106910058Y-83288791D01*
X106981314Y-83259274D01*
X107057777Y-83269339D01*
X107063211Y-83271590D01*
X107124388Y-83318536D01*
X107268062Y-83505776D01*
X107444224Y-83681938D01*
X107641873Y-83833599D01*
X107857627Y-83958164D01*
X108087793Y-84053502D01*
X108328435Y-84117982D01*
X108328436Y-84117982D01*
X108328441Y-84117982D01*
X108328442Y-84117983D01*
X108395586Y-84126822D01*
X108575432Y-84150499D01*
X108575433Y-84150500D01*
X108575435Y-84150500D01*
X108824565Y-84150500D01*
X109071565Y-84117982D01*
X109312207Y-84053502D01*
X109542373Y-83958164D01*
X109758127Y-83833599D01*
X109955776Y-83681938D01*
X110131938Y-83505776D01*
X110283599Y-83308127D01*
X110408164Y-83092373D01*
X110503502Y-82862207D01*
X110567982Y-82621565D01*
X110600500Y-82374565D01*
X110600500Y-82125435D01*
X110600498Y-82125423D01*
X122399500Y-82125423D01*
X122399500Y-82374575D01*
X122432014Y-82621549D01*
X122496499Y-82862211D01*
X122496500Y-82862214D01*
X122525315Y-82931779D01*
X122525318Y-82931785D01*
X122564593Y-83026605D01*
X122591835Y-83092373D01*
X122591838Y-83092377D01*
X122654262Y-83200499D01*
X122716401Y-83308127D01*
X122868062Y-83505776D01*
X123044224Y-83681938D01*
X123241873Y-83833599D01*
X123457627Y-83958164D01*
X123687793Y-84053502D01*
X123928435Y-84117982D01*
X123928436Y-84117982D01*
X123928441Y-84117982D01*
X123928442Y-84117983D01*
X123995586Y-84126822D01*
X124175432Y-84150499D01*
X124175433Y-84150500D01*
X124175435Y-84150500D01*
X124424565Y-84150500D01*
X124671565Y-84117982D01*
X124912207Y-84053502D01*
X125142373Y-83958164D01*
X125358127Y-83833599D01*
X125555776Y-83681938D01*
X125731938Y-83505776D01*
X125869851Y-83326041D01*
X125897352Y-83298541D01*
X125910058Y-83288791D01*
X125981314Y-83259274D01*
X126057777Y-83269339D01*
X126063211Y-83271590D01*
X126124388Y-83318536D01*
X126268062Y-83505776D01*
X126444224Y-83681938D01*
X126641873Y-83833599D01*
X126857627Y-83958164D01*
X127087793Y-84053502D01*
X127328435Y-84117982D01*
X127328436Y-84117982D01*
X127328441Y-84117982D01*
X127328442Y-84117983D01*
X127395586Y-84126822D01*
X127575432Y-84150499D01*
X127575433Y-84150500D01*
X127575435Y-84150500D01*
X127824565Y-84150500D01*
X128071565Y-84117982D01*
X128312207Y-84053502D01*
X128542373Y-83958164D01*
X128758127Y-83833599D01*
X128955776Y-83681938D01*
X129131938Y-83505776D01*
X129283599Y-83308127D01*
X129408164Y-83092373D01*
X129503502Y-82862207D01*
X129567982Y-82621565D01*
X129600500Y-82374565D01*
X129600500Y-82125435D01*
X129600498Y-82125423D01*
X141399500Y-82125423D01*
X141399500Y-82374575D01*
X141432014Y-82621549D01*
X141496499Y-82862211D01*
X141496500Y-82862214D01*
X141525315Y-82931779D01*
X141525318Y-82931785D01*
X141564593Y-83026605D01*
X141591835Y-83092373D01*
X141591838Y-83092377D01*
X141654262Y-83200499D01*
X141716401Y-83308127D01*
X141868062Y-83505776D01*
X142044224Y-83681938D01*
X142241873Y-83833599D01*
X142457627Y-83958164D01*
X142687793Y-84053502D01*
X142928435Y-84117982D01*
X142928436Y-84117982D01*
X142928441Y-84117982D01*
X142928442Y-84117983D01*
X142995586Y-84126822D01*
X143175432Y-84150499D01*
X143175433Y-84150500D01*
X143175435Y-84150500D01*
X143424565Y-84150500D01*
X143671565Y-84117982D01*
X143912207Y-84053502D01*
X144142373Y-83958164D01*
X144358127Y-83833599D01*
X144555776Y-83681938D01*
X144731938Y-83505776D01*
X144869851Y-83326041D01*
X144897352Y-83298541D01*
X144910058Y-83288791D01*
X144981314Y-83259274D01*
X145057777Y-83269339D01*
X145063211Y-83271590D01*
X145124388Y-83318536D01*
X145268062Y-83505776D01*
X145444224Y-83681938D01*
X145641873Y-83833599D01*
X145857627Y-83958164D01*
X146087793Y-84053502D01*
X146328435Y-84117982D01*
X146328436Y-84117982D01*
X146328441Y-84117982D01*
X146328442Y-84117983D01*
X146395586Y-84126822D01*
X146575432Y-84150499D01*
X146575433Y-84150500D01*
X146575435Y-84150500D01*
X146824565Y-84150500D01*
X147071565Y-84117982D01*
X147312207Y-84053502D01*
X147542373Y-83958164D01*
X147758127Y-83833599D01*
X147955776Y-83681938D01*
X148131938Y-83505776D01*
X148283599Y-83308127D01*
X148408164Y-83092373D01*
X148503502Y-82862207D01*
X148567982Y-82621565D01*
X148600500Y-82374565D01*
X148600500Y-82125435D01*
X148600498Y-82125423D01*
X160399500Y-82125423D01*
X160399500Y-82374575D01*
X160432014Y-82621549D01*
X160496499Y-82862211D01*
X160496500Y-82862214D01*
X160525315Y-82931779D01*
X160525318Y-82931785D01*
X160564593Y-83026605D01*
X160591835Y-83092373D01*
X160591838Y-83092377D01*
X160654262Y-83200499D01*
X160716401Y-83308127D01*
X160868062Y-83505776D01*
X161044224Y-83681938D01*
X161241873Y-83833599D01*
X161457627Y-83958164D01*
X161687793Y-84053502D01*
X161928435Y-84117982D01*
X161928436Y-84117982D01*
X161928441Y-84117982D01*
X161928442Y-84117983D01*
X161995586Y-84126822D01*
X162175432Y-84150499D01*
X162175433Y-84150500D01*
X162175435Y-84150500D01*
X162424565Y-84150500D01*
X162671565Y-84117982D01*
X162912207Y-84053502D01*
X163142373Y-83958164D01*
X163358127Y-83833599D01*
X163555776Y-83681938D01*
X163731938Y-83505776D01*
X163869851Y-83326041D01*
X163897352Y-83298541D01*
X163910058Y-83288791D01*
X163981314Y-83259274D01*
X164057777Y-83269339D01*
X164063211Y-83271590D01*
X164124388Y-83318536D01*
X164268062Y-83505776D01*
X164444224Y-83681938D01*
X164641873Y-83833599D01*
X164857627Y-83958164D01*
X165087793Y-84053502D01*
X165328435Y-84117982D01*
X165328436Y-84117982D01*
X165328441Y-84117982D01*
X165328442Y-84117983D01*
X165395586Y-84126822D01*
X165575432Y-84150499D01*
X165575433Y-84150500D01*
X165575435Y-84150500D01*
X165824565Y-84150500D01*
X166071565Y-84117982D01*
X166312207Y-84053502D01*
X166542373Y-83958164D01*
X166758127Y-83833599D01*
X166955776Y-83681938D01*
X167131938Y-83505776D01*
X167283599Y-83308127D01*
X167408164Y-83092373D01*
X167503502Y-82862207D01*
X167567982Y-82621565D01*
X167600500Y-82374565D01*
X167600500Y-82125435D01*
X167600498Y-82125423D01*
X179399500Y-82125423D01*
X179399500Y-82374575D01*
X179432014Y-82621549D01*
X179496499Y-82862211D01*
X179496500Y-82862214D01*
X179525315Y-82931779D01*
X179525318Y-82931785D01*
X179564593Y-83026605D01*
X179591835Y-83092373D01*
X179591838Y-83092377D01*
X179654262Y-83200499D01*
X179716401Y-83308127D01*
X179868062Y-83505776D01*
X180044224Y-83681938D01*
X180241873Y-83833599D01*
X180457627Y-83958164D01*
X180687793Y-84053502D01*
X180928435Y-84117982D01*
X180928436Y-84117982D01*
X180928441Y-84117982D01*
X180928442Y-84117983D01*
X180995586Y-84126822D01*
X181175432Y-84150499D01*
X181175433Y-84150500D01*
X181175435Y-84150500D01*
X181424565Y-84150500D01*
X181671565Y-84117982D01*
X181912207Y-84053502D01*
X182142373Y-83958164D01*
X182358127Y-83833599D01*
X182555776Y-83681938D01*
X182731938Y-83505776D01*
X182869851Y-83326041D01*
X182897352Y-83298541D01*
X182910058Y-83288791D01*
X182981314Y-83259274D01*
X183057777Y-83269339D01*
X183063211Y-83271590D01*
X183124388Y-83318536D01*
X183268062Y-83505776D01*
X183444224Y-83681938D01*
X183641873Y-83833599D01*
X183857627Y-83958164D01*
X184087793Y-84053502D01*
X184328435Y-84117982D01*
X184328436Y-84117982D01*
X184328441Y-84117982D01*
X184328442Y-84117983D01*
X184395586Y-84126822D01*
X184575432Y-84150499D01*
X184575433Y-84150500D01*
X184575435Y-84150500D01*
X184824565Y-84150500D01*
X185071565Y-84117982D01*
X185312207Y-84053502D01*
X185542373Y-83958164D01*
X185758127Y-83833599D01*
X185955776Y-83681938D01*
X186131938Y-83505776D01*
X186283599Y-83308127D01*
X186408164Y-83092373D01*
X186503502Y-82862207D01*
X186567982Y-82621565D01*
X186600500Y-82374565D01*
X186600500Y-82125435D01*
X186600498Y-82125423D01*
X198399500Y-82125423D01*
X198399500Y-82374575D01*
X198432014Y-82621549D01*
X198496499Y-82862211D01*
X198496500Y-82862214D01*
X198525315Y-82931779D01*
X198525318Y-82931785D01*
X198564593Y-83026605D01*
X198591835Y-83092373D01*
X198591838Y-83092377D01*
X198654262Y-83200499D01*
X198716401Y-83308127D01*
X198868062Y-83505776D01*
X199044224Y-83681938D01*
X199241873Y-83833599D01*
X199457627Y-83958164D01*
X199687793Y-84053502D01*
X199928435Y-84117982D01*
X199928436Y-84117982D01*
X199928441Y-84117982D01*
X199928442Y-84117983D01*
X199995586Y-84126822D01*
X200175432Y-84150499D01*
X200175433Y-84150500D01*
X200175435Y-84150500D01*
X200424565Y-84150500D01*
X200671565Y-84117982D01*
X200912207Y-84053502D01*
X201142373Y-83958164D01*
X201358127Y-83833599D01*
X201555776Y-83681938D01*
X201731938Y-83505776D01*
X201869851Y-83326041D01*
X201897352Y-83298541D01*
X201910058Y-83288791D01*
X201981314Y-83259274D01*
X202057777Y-83269339D01*
X202063211Y-83271590D01*
X202124388Y-83318536D01*
X202268062Y-83505776D01*
X202444224Y-83681938D01*
X202641873Y-83833599D01*
X202857627Y-83958164D01*
X203087793Y-84053502D01*
X203328435Y-84117982D01*
X203328436Y-84117982D01*
X203328441Y-84117982D01*
X203328442Y-84117983D01*
X203395586Y-84126822D01*
X203575432Y-84150499D01*
X203575433Y-84150500D01*
X203575435Y-84150500D01*
X203824565Y-84150500D01*
X204071565Y-84117982D01*
X204312207Y-84053502D01*
X204542373Y-83958164D01*
X204758127Y-83833599D01*
X204955776Y-83681938D01*
X205131938Y-83505776D01*
X205283599Y-83308127D01*
X205408164Y-83092373D01*
X205503502Y-82862207D01*
X205567982Y-82621565D01*
X205600500Y-82374565D01*
X205600500Y-82125435D01*
X205567982Y-81878435D01*
X205503502Y-81637793D01*
X205408164Y-81407627D01*
X205283599Y-81191873D01*
X205131938Y-80994224D01*
X204955776Y-80818062D01*
X204758127Y-80666401D01*
X204584554Y-80566189D01*
X204584554Y-80566188D01*
X204542380Y-80541840D01*
X204542377Y-80541838D01*
X204542375Y-80541837D01*
X204542373Y-80541836D01*
X204407548Y-80485989D01*
X204407547Y-80485988D01*
X204321097Y-80450180D01*
X204321095Y-80450179D01*
X204312210Y-80446499D01*
X204312208Y-80446498D01*
X204312207Y-80446498D01*
X204304816Y-80444517D01*
X204304800Y-80444512D01*
X204075356Y-80383033D01*
X204072399Y-80382156D01*
X204071540Y-80382013D01*
X203824575Y-80349500D01*
X203824570Y-80349500D01*
X203824565Y-80349500D01*
X203575435Y-80349500D01*
X203575429Y-80349500D01*
X203575423Y-80349500D01*
X203328449Y-80382014D01*
X203087785Y-80446500D01*
X202857617Y-80541840D01*
X202641875Y-80666399D01*
X202444220Y-80818064D01*
X202267899Y-80994385D01*
X202266694Y-80996006D01*
X202130152Y-81173952D01*
X202102646Y-81201458D01*
X202089938Y-81211209D01*
X202071816Y-81218714D01*
X202068962Y-81220905D01*
X202065394Y-81221374D01*
X202018681Y-81240723D01*
X201942215Y-81230656D01*
X201942203Y-81230651D01*
X201942201Y-81230650D01*
X201936785Y-81228406D01*
X201875617Y-81181470D01*
X201873871Y-81179195D01*
X201873862Y-81179184D01*
X201767688Y-81040815D01*
X201731938Y-80994224D01*
X201555776Y-80818062D01*
X201358127Y-80666401D01*
X201184554Y-80566189D01*
X201184554Y-80566188D01*
X201142380Y-80541840D01*
X201142377Y-80541838D01*
X201142375Y-80541837D01*
X201142373Y-80541836D01*
X201007548Y-80485989D01*
X201007547Y-80485988D01*
X200921097Y-80450180D01*
X200921095Y-80450179D01*
X200912210Y-80446499D01*
X200912208Y-80446498D01*
X200912207Y-80446498D01*
X200904816Y-80444517D01*
X200904800Y-80444512D01*
X200675356Y-80383033D01*
X200672399Y-80382156D01*
X200671540Y-80382013D01*
X200424575Y-80349500D01*
X200424570Y-80349500D01*
X200424565Y-80349500D01*
X200175435Y-80349500D01*
X200175429Y-80349500D01*
X200175423Y-80349500D01*
X199928449Y-80382014D01*
X199687785Y-80446500D01*
X199457617Y-80541840D01*
X199241875Y-80666399D01*
X199044220Y-80818064D01*
X198868064Y-80994220D01*
X198716399Y-81191875D01*
X198591840Y-81407617D01*
X198496500Y-81637785D01*
X198432014Y-81878449D01*
X198399500Y-82125423D01*
X186600498Y-82125423D01*
X186567983Y-81878442D01*
X186567982Y-81878441D01*
X186567982Y-81878435D01*
X186503502Y-81637793D01*
X186408164Y-81407627D01*
X186283599Y-81191873D01*
X186131938Y-80994224D01*
X185955776Y-80818062D01*
X185758127Y-80666401D01*
X185584554Y-80566189D01*
X185584554Y-80566188D01*
X185542380Y-80541840D01*
X185542377Y-80541838D01*
X185542375Y-80541837D01*
X185542373Y-80541836D01*
X185407548Y-80485989D01*
X185407547Y-80485988D01*
X185321097Y-80450180D01*
X185321095Y-80450179D01*
X185312210Y-80446499D01*
X185312208Y-80446498D01*
X185312207Y-80446498D01*
X185304816Y-80444517D01*
X185304800Y-80444512D01*
X185075356Y-80383033D01*
X185072399Y-80382156D01*
X185071540Y-80382013D01*
X184824575Y-80349500D01*
X184824570Y-80349500D01*
X184824565Y-80349500D01*
X184575435Y-80349500D01*
X184575429Y-80349500D01*
X184575423Y-80349500D01*
X184328449Y-80382014D01*
X184087785Y-80446500D01*
X183857617Y-80541840D01*
X183641875Y-80666399D01*
X183444220Y-80818064D01*
X183267899Y-80994385D01*
X183266694Y-80996006D01*
X183130152Y-81173952D01*
X183102646Y-81201458D01*
X183089938Y-81211209D01*
X183071816Y-81218714D01*
X183068962Y-81220905D01*
X183065394Y-81221374D01*
X183018681Y-81240723D01*
X182942215Y-81230656D01*
X182942203Y-81230651D01*
X182942201Y-81230650D01*
X182936785Y-81228406D01*
X182875617Y-81181470D01*
X182873871Y-81179195D01*
X182873862Y-81179184D01*
X182767688Y-81040815D01*
X182731938Y-80994224D01*
X182555776Y-80818062D01*
X182358127Y-80666401D01*
X182184554Y-80566189D01*
X182184554Y-80566188D01*
X182142380Y-80541840D01*
X182142377Y-80541838D01*
X182142375Y-80541837D01*
X182142373Y-80541836D01*
X182007548Y-80485989D01*
X182007547Y-80485988D01*
X181921097Y-80450180D01*
X181921095Y-80450179D01*
X181912210Y-80446499D01*
X181912208Y-80446498D01*
X181912207Y-80446498D01*
X181904816Y-80444517D01*
X181904800Y-80444512D01*
X181675356Y-80383033D01*
X181672399Y-80382156D01*
X181671540Y-80382013D01*
X181424575Y-80349500D01*
X181424570Y-80349500D01*
X181424565Y-80349500D01*
X181175435Y-80349500D01*
X181175429Y-80349500D01*
X181175423Y-80349500D01*
X180928449Y-80382014D01*
X180687785Y-80446500D01*
X180457617Y-80541840D01*
X180241875Y-80666399D01*
X180044220Y-80818064D01*
X179868064Y-80994220D01*
X179716399Y-81191875D01*
X179591840Y-81407617D01*
X179496500Y-81637785D01*
X179432014Y-81878449D01*
X179399500Y-82125423D01*
X167600498Y-82125423D01*
X167567983Y-81878442D01*
X167567982Y-81878441D01*
X167567982Y-81878435D01*
X167503502Y-81637793D01*
X167408164Y-81407627D01*
X167283599Y-81191873D01*
X167131938Y-80994224D01*
X166955776Y-80818062D01*
X166758127Y-80666401D01*
X166584554Y-80566189D01*
X166584554Y-80566188D01*
X166542380Y-80541840D01*
X166542377Y-80541838D01*
X166542375Y-80541837D01*
X166542373Y-80541836D01*
X166407548Y-80485989D01*
X166407547Y-80485988D01*
X166321097Y-80450180D01*
X166321095Y-80450179D01*
X166312210Y-80446499D01*
X166312208Y-80446498D01*
X166312207Y-80446498D01*
X166304816Y-80444517D01*
X166304800Y-80444512D01*
X166075356Y-80383033D01*
X166072399Y-80382156D01*
X166071540Y-80382013D01*
X165824575Y-80349500D01*
X165824570Y-80349500D01*
X165824565Y-80349500D01*
X165575435Y-80349500D01*
X165575429Y-80349500D01*
X165575423Y-80349500D01*
X165328449Y-80382014D01*
X165087785Y-80446500D01*
X164857617Y-80541840D01*
X164641875Y-80666399D01*
X164444220Y-80818064D01*
X164267899Y-80994385D01*
X164266694Y-80996006D01*
X164130152Y-81173952D01*
X164102646Y-81201458D01*
X164089938Y-81211209D01*
X164071816Y-81218714D01*
X164068962Y-81220905D01*
X164065394Y-81221374D01*
X164018681Y-81240723D01*
X163942215Y-81230656D01*
X163942203Y-81230651D01*
X163942201Y-81230650D01*
X163936785Y-81228406D01*
X163875617Y-81181470D01*
X163873871Y-81179195D01*
X163873862Y-81179184D01*
X163767688Y-81040815D01*
X163731938Y-80994224D01*
X163555776Y-80818062D01*
X163358127Y-80666401D01*
X163184554Y-80566189D01*
X163184554Y-80566188D01*
X163142380Y-80541840D01*
X163142377Y-80541838D01*
X163142375Y-80541837D01*
X163142373Y-80541836D01*
X163007548Y-80485989D01*
X163007547Y-80485988D01*
X162921097Y-80450180D01*
X162921095Y-80450179D01*
X162912210Y-80446499D01*
X162912208Y-80446498D01*
X162912207Y-80446498D01*
X162904816Y-80444517D01*
X162904800Y-80444512D01*
X162675356Y-80383033D01*
X162672399Y-80382156D01*
X162671540Y-80382013D01*
X162424575Y-80349500D01*
X162424570Y-80349500D01*
X162424565Y-80349500D01*
X162175435Y-80349500D01*
X162175429Y-80349500D01*
X162175423Y-80349500D01*
X161928449Y-80382014D01*
X161687785Y-80446500D01*
X161457617Y-80541840D01*
X161241875Y-80666399D01*
X161044220Y-80818064D01*
X160868064Y-80994220D01*
X160716399Y-81191875D01*
X160591840Y-81407617D01*
X160496500Y-81637785D01*
X160432014Y-81878449D01*
X160399500Y-82125423D01*
X148600498Y-82125423D01*
X148567983Y-81878442D01*
X148567982Y-81878441D01*
X148567982Y-81878435D01*
X148503502Y-81637793D01*
X148408164Y-81407627D01*
X148283599Y-81191873D01*
X148131938Y-80994224D01*
X147955776Y-80818062D01*
X147758127Y-80666401D01*
X147584554Y-80566189D01*
X147584554Y-80566188D01*
X147542380Y-80541840D01*
X147542377Y-80541838D01*
X147542375Y-80541837D01*
X147542373Y-80541836D01*
X147407548Y-80485989D01*
X147407547Y-80485988D01*
X147321097Y-80450180D01*
X147321095Y-80450179D01*
X147312210Y-80446499D01*
X147312208Y-80446498D01*
X147312207Y-80446498D01*
X147304816Y-80444517D01*
X147304800Y-80444512D01*
X147075356Y-80383033D01*
X147072399Y-80382156D01*
X147071540Y-80382013D01*
X146824575Y-80349500D01*
X146824570Y-80349500D01*
X146824565Y-80349500D01*
X146575435Y-80349500D01*
X146575429Y-80349500D01*
X146575423Y-80349500D01*
X146328449Y-80382014D01*
X146087785Y-80446500D01*
X145857617Y-80541840D01*
X145641875Y-80666399D01*
X145444220Y-80818064D01*
X145267899Y-80994385D01*
X145266694Y-80996006D01*
X145130152Y-81173952D01*
X145102646Y-81201458D01*
X145089938Y-81211209D01*
X145071816Y-81218714D01*
X145068962Y-81220905D01*
X145065394Y-81221374D01*
X145018681Y-81240723D01*
X144942215Y-81230656D01*
X144942203Y-81230651D01*
X144942201Y-81230650D01*
X144936785Y-81228406D01*
X144875617Y-81181470D01*
X144873871Y-81179195D01*
X144873862Y-81179184D01*
X144767688Y-81040815D01*
X144731938Y-80994224D01*
X144555776Y-80818062D01*
X144358127Y-80666401D01*
X144184554Y-80566189D01*
X144184554Y-80566188D01*
X144142380Y-80541840D01*
X144142377Y-80541838D01*
X144142375Y-80541837D01*
X144142373Y-80541836D01*
X144007548Y-80485989D01*
X144007547Y-80485988D01*
X143921097Y-80450180D01*
X143921095Y-80450179D01*
X143912210Y-80446499D01*
X143912208Y-80446498D01*
X143912207Y-80446498D01*
X143904816Y-80444517D01*
X143904800Y-80444512D01*
X143675356Y-80383033D01*
X143672399Y-80382156D01*
X143671540Y-80382013D01*
X143424575Y-80349500D01*
X143424570Y-80349500D01*
X143424565Y-80349500D01*
X143175435Y-80349500D01*
X143175429Y-80349500D01*
X143175423Y-80349500D01*
X142928449Y-80382014D01*
X142687785Y-80446500D01*
X142457617Y-80541840D01*
X142241875Y-80666399D01*
X142044220Y-80818064D01*
X141868064Y-80994220D01*
X141716399Y-81191875D01*
X141591840Y-81407617D01*
X141496500Y-81637785D01*
X141432014Y-81878449D01*
X141399500Y-82125423D01*
X129600498Y-82125423D01*
X129567983Y-81878442D01*
X129567982Y-81878441D01*
X129567982Y-81878435D01*
X129503502Y-81637793D01*
X129408164Y-81407627D01*
X129283599Y-81191873D01*
X129131938Y-80994224D01*
X128955776Y-80818062D01*
X128758127Y-80666401D01*
X128584554Y-80566189D01*
X128584554Y-80566188D01*
X128542380Y-80541840D01*
X128542377Y-80541838D01*
X128542375Y-80541837D01*
X128542373Y-80541836D01*
X128407548Y-80485989D01*
X128407547Y-80485988D01*
X128321097Y-80450180D01*
X128321095Y-80450179D01*
X128312210Y-80446499D01*
X128312208Y-80446498D01*
X128312207Y-80446498D01*
X128304816Y-80444517D01*
X128304800Y-80444512D01*
X128075356Y-80383033D01*
X128072399Y-80382156D01*
X128071540Y-80382013D01*
X127824575Y-80349500D01*
X127824570Y-80349500D01*
X127824565Y-80349500D01*
X127575435Y-80349500D01*
X127575429Y-80349500D01*
X127575423Y-80349500D01*
X127328449Y-80382014D01*
X127087785Y-80446500D01*
X126857617Y-80541840D01*
X126641875Y-80666399D01*
X126444220Y-80818064D01*
X126267899Y-80994385D01*
X126266694Y-80996006D01*
X126130152Y-81173952D01*
X126102646Y-81201458D01*
X126089938Y-81211209D01*
X126071816Y-81218714D01*
X126068962Y-81220905D01*
X126065394Y-81221374D01*
X126018681Y-81240723D01*
X125942215Y-81230656D01*
X125942203Y-81230651D01*
X125942201Y-81230650D01*
X125936785Y-81228406D01*
X125875617Y-81181470D01*
X125873871Y-81179195D01*
X125873862Y-81179184D01*
X125767688Y-81040815D01*
X125731938Y-80994224D01*
X125555776Y-80818062D01*
X125358127Y-80666401D01*
X125184554Y-80566189D01*
X125184554Y-80566188D01*
X125142380Y-80541840D01*
X125142377Y-80541838D01*
X125142375Y-80541837D01*
X125142373Y-80541836D01*
X125007548Y-80485989D01*
X125007547Y-80485988D01*
X124921097Y-80450180D01*
X124921095Y-80450179D01*
X124912210Y-80446499D01*
X124912208Y-80446498D01*
X124912207Y-80446498D01*
X124904816Y-80444517D01*
X124904800Y-80444512D01*
X124675356Y-80383033D01*
X124672399Y-80382156D01*
X124671540Y-80382013D01*
X124424575Y-80349500D01*
X124424570Y-80349500D01*
X124424565Y-80349500D01*
X124175435Y-80349500D01*
X124175429Y-80349500D01*
X124175423Y-80349500D01*
X123928449Y-80382014D01*
X123687785Y-80446500D01*
X123457617Y-80541840D01*
X123241875Y-80666399D01*
X123044220Y-80818064D01*
X122868064Y-80994220D01*
X122716399Y-81191875D01*
X122591840Y-81407617D01*
X122496500Y-81637785D01*
X122432014Y-81878449D01*
X122399500Y-82125423D01*
X110600498Y-82125423D01*
X110567983Y-81878442D01*
X110567982Y-81878441D01*
X110567982Y-81878435D01*
X110503502Y-81637793D01*
X110408164Y-81407627D01*
X110283599Y-81191873D01*
X110131938Y-80994224D01*
X109955776Y-80818062D01*
X109758127Y-80666401D01*
X109584554Y-80566189D01*
X109584554Y-80566188D01*
X109542380Y-80541840D01*
X109542377Y-80541838D01*
X109542375Y-80541837D01*
X109542373Y-80541836D01*
X109407548Y-80485989D01*
X109407547Y-80485988D01*
X109321097Y-80450180D01*
X109321095Y-80450179D01*
X109312210Y-80446499D01*
X109312208Y-80446498D01*
X109312207Y-80446498D01*
X109304816Y-80444517D01*
X109304800Y-80444512D01*
X109075356Y-80383033D01*
X109072399Y-80382156D01*
X109071540Y-80382013D01*
X108824575Y-80349500D01*
X108824570Y-80349500D01*
X108824565Y-80349500D01*
X108575435Y-80349500D01*
X108575429Y-80349500D01*
X108575423Y-80349500D01*
X108328449Y-80382014D01*
X108087785Y-80446500D01*
X107857617Y-80541840D01*
X107641875Y-80666399D01*
X107444220Y-80818064D01*
X107267899Y-80994385D01*
X107266694Y-80996006D01*
X107130152Y-81173952D01*
X107102646Y-81201458D01*
X107089938Y-81211209D01*
X107071816Y-81218714D01*
X107068962Y-81220905D01*
X107065394Y-81221374D01*
X107018681Y-81240723D01*
X106942215Y-81230656D01*
X106942203Y-81230651D01*
X106942201Y-81230650D01*
X106936785Y-81228406D01*
X106875617Y-81181470D01*
X106873871Y-81179195D01*
X106873862Y-81179184D01*
X106767688Y-81040815D01*
X106731938Y-80994224D01*
X106555776Y-80818062D01*
X106358127Y-80666401D01*
X106184554Y-80566189D01*
X106184554Y-80566188D01*
X106142380Y-80541840D01*
X106142377Y-80541838D01*
X106142375Y-80541837D01*
X106142373Y-80541836D01*
X106007548Y-80485989D01*
X106007547Y-80485988D01*
X105921097Y-80450180D01*
X105921095Y-80450179D01*
X105912210Y-80446499D01*
X105912208Y-80446498D01*
X105912207Y-80446498D01*
X105904816Y-80444517D01*
X105904800Y-80444512D01*
X105675356Y-80383033D01*
X105672399Y-80382156D01*
X105671540Y-80382013D01*
X105424575Y-80349500D01*
X105424570Y-80349500D01*
X105424565Y-80349500D01*
X105175435Y-80349500D01*
X105175429Y-80349500D01*
X105175423Y-80349500D01*
X104928449Y-80382014D01*
X104687785Y-80446500D01*
X104457617Y-80541840D01*
X104241875Y-80666399D01*
X104044220Y-80818064D01*
X103868064Y-80994220D01*
X103716399Y-81191875D01*
X103591840Y-81407617D01*
X103496500Y-81637785D01*
X103432014Y-81878449D01*
X103399500Y-82125423D01*
X61850500Y-82125423D01*
X61850500Y-79098010D01*
X61853364Y-79068938D01*
X61863201Y-79019490D01*
X61865414Y-79009998D01*
X61865420Y-79009978D01*
X61900499Y-78879060D01*
X61900500Y-78879056D01*
X61900500Y-78720946D01*
X61900500Y-78720943D01*
X61899993Y-78719049D01*
X61897639Y-78710264D01*
X61892562Y-78671700D01*
X61892562Y-78654114D01*
X61899453Y-78628395D01*
X61912522Y-78579619D01*
X61921314Y-78564389D01*
X61944989Y-78533533D01*
X62678540Y-77799982D01*
X62701118Y-77781454D01*
X62724225Y-77766018D01*
X62724224Y-77766017D01*
X62743064Y-77753431D01*
X62751307Y-77748305D01*
X62868716Y-77680520D01*
X62980520Y-77568716D01*
X63059577Y-77431784D01*
X63100500Y-77279057D01*
X63100500Y-77220941D01*
X72699500Y-77220941D01*
X72699500Y-77220943D01*
X72699500Y-77379057D01*
X72740423Y-77531784D01*
X72819480Y-77668716D01*
X72931284Y-77780520D01*
X73068216Y-77859577D01*
X73220943Y-77900500D01*
X73379057Y-77900500D01*
X73531784Y-77859577D01*
X73598709Y-77820938D01*
X85299500Y-77820938D01*
X85299500Y-77820941D01*
X85299500Y-77820943D01*
X85299500Y-77979057D01*
X85340423Y-78131784D01*
X85419480Y-78268716D01*
X85531284Y-78380520D01*
X85668216Y-78459577D01*
X85820943Y-78500500D01*
X85979057Y-78500500D01*
X86131784Y-78459577D01*
X86268716Y-78380520D01*
X86380520Y-78268716D01*
X86448296Y-78151322D01*
X86453433Y-78143060D01*
X86466016Y-78124224D01*
X86466018Y-78124225D01*
X86481459Y-78101112D01*
X86499982Y-78078540D01*
X86770517Y-77808006D01*
X86797340Y-77787426D01*
X86800965Y-77784644D01*
X86800968Y-77784642D01*
X86801379Y-77784327D01*
X86809836Y-77779445D01*
X86809869Y-77779502D01*
X86834664Y-77765187D01*
X86842748Y-77761839D01*
X86899761Y-77750500D01*
X87101992Y-77750500D01*
X87131055Y-77753362D01*
X87158318Y-77758784D01*
X87158318Y-77758783D01*
X87180449Y-77763185D01*
X87189926Y-77765394D01*
X87320943Y-77800500D01*
X87479057Y-77800500D01*
X87631784Y-77759577D01*
X87768716Y-77680520D01*
X87880520Y-77568716D01*
X87959577Y-77431784D01*
X88000500Y-77279057D01*
X88000500Y-77120943D01*
X87959577Y-76968216D01*
X87880520Y-76831284D01*
X87768716Y-76719480D01*
X87631784Y-76640423D01*
X87479057Y-76599500D01*
X87320937Y-76599500D01*
X87189969Y-76634593D01*
X87180477Y-76636807D01*
X87158318Y-76641215D01*
X87131055Y-76646637D01*
X87101991Y-76649500D01*
X86527521Y-76649500D01*
X86387508Y-76687017D01*
X86261999Y-76759481D01*
X86261983Y-76759491D01*
X85721451Y-77300021D01*
X85698886Y-77318542D01*
X85657081Y-77346482D01*
X85648786Y-77351640D01*
X85531284Y-77419478D01*
X85419479Y-77531283D01*
X85340431Y-77668200D01*
X85340429Y-77668203D01*
X85340423Y-77668216D01*
X85321431Y-77739095D01*
X85321430Y-77739094D01*
X85299500Y-77820938D01*
X73598709Y-77820938D01*
X73668716Y-77780520D01*
X73780520Y-77668716D01*
X73859577Y-77531784D01*
X73860047Y-77530027D01*
X73866724Y-77520229D01*
X73868939Y-77518321D01*
X73878028Y-77505665D01*
X73879622Y-77503852D01*
X73879635Y-77503842D01*
X73881451Y-77501123D01*
X73899981Y-77478541D01*
X74278540Y-77099982D01*
X74301112Y-77081459D01*
X74324225Y-77066018D01*
X74324224Y-77066016D01*
X74343057Y-77053435D01*
X74351330Y-77048292D01*
X74468716Y-76980520D01*
X74580520Y-76868716D01*
X74659577Y-76731784D01*
X74700500Y-76579057D01*
X74700500Y-76420943D01*
X74659577Y-76268216D01*
X74580520Y-76131284D01*
X74468716Y-76019480D01*
X74331784Y-75940423D01*
X74179057Y-75899500D01*
X74020939Y-75899500D01*
X73896599Y-75932817D01*
X73896593Y-75932819D01*
X73868216Y-75940423D01*
X73868214Y-75940423D01*
X73868214Y-75940424D01*
X73842768Y-75955114D01*
X73842763Y-75955117D01*
X73731282Y-76019480D01*
X73619478Y-76131284D01*
X73551640Y-76248786D01*
X73546482Y-76257081D01*
X73533988Y-76275775D01*
X73533389Y-76276672D01*
X73518542Y-76298886D01*
X73500021Y-76321451D01*
X73121451Y-76700021D01*
X73098887Y-76718541D01*
X73079073Y-76731784D01*
X73057081Y-76746482D01*
X73048786Y-76751640D01*
X72931284Y-76819478D01*
X72819479Y-76931283D01*
X72750972Y-77049943D01*
X72750971Y-77049945D01*
X72741692Y-77066018D01*
X72740423Y-77068216D01*
X72726295Y-77120943D01*
X72699500Y-77220941D01*
X63100500Y-77220941D01*
X63100500Y-77120943D01*
X63059577Y-76968216D01*
X62980520Y-76831284D01*
X62868716Y-76719480D01*
X62731784Y-76640423D01*
X62579057Y-76599500D01*
X62420939Y-76599500D01*
X62296599Y-76632817D01*
X62296593Y-76632819D01*
X62268216Y-76640423D01*
X62268214Y-76640423D01*
X62268214Y-76640424D01*
X62242768Y-76655114D01*
X62242763Y-76655117D01*
X62131282Y-76719480D01*
X62019478Y-76831284D01*
X61951640Y-76948786D01*
X61946482Y-76957081D01*
X61933988Y-76975775D01*
X61933389Y-76976672D01*
X61918542Y-76998886D01*
X61900021Y-77021451D01*
X60859489Y-78061984D01*
X60859488Y-78061985D01*
X60836894Y-78101122D01*
X60824075Y-78123326D01*
X60819192Y-78131784D01*
X60819192Y-78131785D01*
X60819191Y-78131786D01*
X60808464Y-78150364D01*
X60787017Y-78187509D01*
X60787016Y-78187513D01*
X60749500Y-78327522D01*
X60749500Y-78501986D01*
X60747754Y-78524729D01*
X60747261Y-78527917D01*
X60744677Y-78540910D01*
X60744713Y-78544418D01*
X60743110Y-78554798D01*
X60742276Y-78556689D01*
X60739779Y-78570619D01*
X60699500Y-78720939D01*
X57977748Y-78720939D01*
X57976580Y-78720455D01*
X57973500Y-78719049D01*
X57971688Y-78718429D01*
X57971686Y-78718428D01*
X57971683Y-78718427D01*
X57971682Y-78718427D01*
X57778491Y-78680000D01*
X57380000Y-78680000D01*
X57380000Y-79231000D01*
X57360038Y-79305500D01*
X57305500Y-79360038D01*
X57231000Y-79380000D01*
X57029000Y-79380000D01*
X56954500Y-79360038D01*
X56899962Y-79305500D01*
X56880000Y-79231000D01*
X56880000Y-78680000D01*
X56481509Y-78680000D01*
X56288316Y-78718427D01*
X56286495Y-78719050D01*
X56283418Y-78720455D01*
X56106329Y-78793806D01*
X56106321Y-78793810D01*
X55942536Y-78903249D01*
X55942531Y-78903253D01*
X55803253Y-79042531D01*
X55803249Y-79042536D01*
X55693810Y-79206321D01*
X55693806Y-79206329D01*
X55618430Y-79388306D01*
X55618430Y-79388307D01*
X55618429Y-79388311D01*
X55618428Y-79388315D01*
X55610136Y-79429999D01*
X54219863Y-79429999D01*
X54219861Y-79429989D01*
X54211577Y-79388347D01*
X54211571Y-79388315D01*
X54211570Y-79388311D01*
X54136189Y-79206322D01*
X54026747Y-79042533D01*
X53887466Y-78903252D01*
X53887460Y-78903248D01*
X53723677Y-78793810D01*
X53723669Y-78793806D01*
X53546580Y-78720455D01*
X53543500Y-78719049D01*
X53541688Y-78718429D01*
X53541686Y-78718428D01*
X53541683Y-78718427D01*
X53541682Y-78718427D01*
X53348491Y-78680000D01*
X53200000Y-78680000D01*
X53200000Y-79231000D01*
X53180038Y-79305500D01*
X53125500Y-79360038D01*
X53051000Y-79380000D01*
X52849000Y-79380000D01*
X52774500Y-79360038D01*
X52719962Y-79305500D01*
X52700000Y-79231000D01*
X52700000Y-78680000D01*
X52551509Y-78680000D01*
X52358316Y-78718427D01*
X52356495Y-78719050D01*
X52353418Y-78720455D01*
X52176329Y-78793806D01*
X52176321Y-78793810D01*
X52012536Y-78903249D01*
X52012531Y-78903253D01*
X51873253Y-79042531D01*
X51873249Y-79042536D01*
X51763810Y-79206321D01*
X51763806Y-79206329D01*
X51688430Y-79388306D01*
X51688430Y-79388307D01*
X51688429Y-79388311D01*
X51688428Y-79388315D01*
X51680136Y-79429999D01*
X50200500Y-79429999D01*
X50200500Y-75468616D01*
X50205576Y-75430056D01*
X50209721Y-75414585D01*
X50248283Y-75347789D01*
X50315075Y-75309223D01*
X50330556Y-75305076D01*
X50369116Y-75300000D01*
X61200000Y-75300000D01*
X61200000Y-68320941D01*
X61499500Y-68320941D01*
X61499500Y-68479058D01*
X61540423Y-68631783D01*
X61540424Y-68631786D01*
X61613337Y-68758078D01*
X61621955Y-68775551D01*
X61622962Y-68777981D01*
X61636062Y-68809606D01*
X61638156Y-68814659D01*
X61649500Y-68871685D01*
X61649500Y-74221965D01*
X61644422Y-74260532D01*
X61635723Y-74292994D01*
X61620841Y-74328924D01*
X61596585Y-74370939D01*
X61596584Y-74370941D01*
X61540423Y-74468215D01*
X61521431Y-74539095D01*
X61521430Y-74539094D01*
X61499500Y-74620938D01*
X61499500Y-74620941D01*
X61499500Y-74620943D01*
X61499500Y-74779057D01*
X61540423Y-74931784D01*
X61619480Y-75068716D01*
X61731284Y-75180520D01*
X61868216Y-75259577D01*
X62020943Y-75300500D01*
X62179057Y-75300500D01*
X62331784Y-75259577D01*
X62468716Y-75180520D01*
X62580520Y-75068716D01*
X62659577Y-74931784D01*
X62700500Y-74779057D01*
X62700500Y-74620943D01*
X62659577Y-74468216D01*
X62603415Y-74370939D01*
X62586652Y-74341904D01*
X62578028Y-74324416D01*
X62561838Y-74285323D01*
X62550500Y-74228312D01*
X62550500Y-73066937D01*
X62555574Y-73028383D01*
X62559165Y-73014980D01*
X62597723Y-72948187D01*
X62664515Y-72909619D01*
X62741618Y-72909607D01*
X62744085Y-72910267D01*
X62745208Y-72910568D01*
X62812012Y-72949115D01*
X64293426Y-74430529D01*
X64317105Y-74461388D01*
X64333911Y-74490497D01*
X64348785Y-74526391D01*
X64349170Y-74527826D01*
X64349500Y-74529056D01*
X64349500Y-74529057D01*
X64390423Y-74681784D01*
X64469480Y-74818716D01*
X64581284Y-74930520D01*
X64718216Y-75009577D01*
X64870943Y-75050500D01*
X65029057Y-75050500D01*
X65181784Y-75009577D01*
X65318716Y-74930520D01*
X65430520Y-74818716D01*
X65509577Y-74681784D01*
X65550500Y-74529057D01*
X65550500Y-74370943D01*
X65550500Y-74370941D01*
X65550499Y-74370939D01*
X65537607Y-74322827D01*
X65509577Y-74218216D01*
X65430520Y-74081284D01*
X65318716Y-73969480D01*
X65181784Y-73890423D01*
X65100185Y-73868558D01*
X65040912Y-73852676D01*
X65022452Y-73846409D01*
X64983353Y-73830212D01*
X64935019Y-73797915D01*
X63755832Y-72618729D01*
X63732153Y-72587869D01*
X63725218Y-72575857D01*
X63705256Y-72501357D01*
X63725219Y-72426857D01*
X63779757Y-72372320D01*
X63779771Y-72372312D01*
X63782990Y-72370454D01*
X63857475Y-72350500D01*
X64821967Y-72350500D01*
X64860530Y-72355577D01*
X64892992Y-72364275D01*
X64928929Y-72379160D01*
X64931283Y-72380519D01*
X64931284Y-72380520D01*
X65068216Y-72459577D01*
X65220943Y-72500500D01*
X65379057Y-72500500D01*
X65531784Y-72459577D01*
X65668716Y-72380520D01*
X65780520Y-72268716D01*
X65859577Y-72131784D01*
X65900500Y-71979057D01*
X65900500Y-71820943D01*
X65859577Y-71668216D01*
X65780520Y-71531284D01*
X65668716Y-71419480D01*
X65531784Y-71340423D01*
X65379057Y-71299500D01*
X65220943Y-71299500D01*
X65068216Y-71340423D01*
X64968791Y-71397826D01*
X64967909Y-71398335D01*
X64959522Y-71402826D01*
X64904444Y-71430096D01*
X64895525Y-71431884D01*
X64891989Y-71434084D01*
X64892455Y-71435208D01*
X64885344Y-71438154D01*
X64883956Y-71438430D01*
X64883359Y-71438633D01*
X64883332Y-71438554D01*
X64828315Y-71449500D01*
X64641832Y-71449500D01*
X64603265Y-71444422D01*
X64593343Y-71441763D01*
X64587792Y-71440276D01*
X64520999Y-71401709D01*
X64518757Y-71397826D01*
X64482442Y-71334932D01*
X64482264Y-71334268D01*
X64480923Y-71329266D01*
X64480916Y-71252146D01*
X64499348Y-71183355D01*
X64500336Y-71180065D01*
X64500500Y-71179056D01*
X64500500Y-71020943D01*
X64500499Y-71020941D01*
X64494754Y-70999500D01*
X64459577Y-70868216D01*
X64459575Y-70868212D01*
X64386652Y-70741904D01*
X64378028Y-70724416D01*
X64361838Y-70685323D01*
X64350500Y-70628312D01*
X64350500Y-70220941D01*
X66399500Y-70220941D01*
X66399500Y-70220943D01*
X66399500Y-70379057D01*
X66440423Y-70531784D01*
X66519480Y-70668716D01*
X66631284Y-70780520D01*
X66768216Y-70859577D01*
X66909079Y-70897321D01*
X66927527Y-70903583D01*
X66966634Y-70919780D01*
X67014977Y-70952080D01*
X67531612Y-71468716D01*
X68023386Y-71960490D01*
X68123371Y-72018216D01*
X68123373Y-72018217D01*
X68123372Y-72018217D01*
X68126112Y-72019799D01*
X68168975Y-72031284D01*
X68168976Y-72031284D01*
X68240691Y-72050500D01*
X71958168Y-72050500D01*
X71996731Y-72055577D01*
X72012201Y-72059722D01*
X72078996Y-72098285D01*
X72117561Y-72165079D01*
X72117562Y-72165084D01*
X72119079Y-72170746D01*
X72119078Y-72247870D01*
X72099500Y-72320935D01*
X72099500Y-72479061D01*
X72105245Y-72500499D01*
X72110465Y-72519981D01*
X72140423Y-72631784D01*
X72219480Y-72768716D01*
X72331284Y-72880520D01*
X72468216Y-72959577D01*
X72620943Y-73000500D01*
X72779057Y-73000500D01*
X72931784Y-72959577D01*
X73058094Y-72886652D01*
X73075566Y-72878036D01*
X73077980Y-72877035D01*
X73077981Y-72877037D01*
X73114666Y-72861840D01*
X73171682Y-72850500D01*
X75521967Y-72850500D01*
X75560530Y-72855577D01*
X75592992Y-72864275D01*
X75628929Y-72879160D01*
X75631283Y-72880519D01*
X75631284Y-72880520D01*
X75768216Y-72959577D01*
X75920943Y-73000500D01*
X76079057Y-73000500D01*
X76231784Y-72959577D01*
X76368716Y-72880520D01*
X76480520Y-72768716D01*
X76559577Y-72631784D01*
X76600500Y-72479057D01*
X76600500Y-72320943D01*
X76559577Y-72168216D01*
X76480520Y-72031284D01*
X76480518Y-72031282D01*
X76480517Y-72031280D01*
X76368721Y-71919485D01*
X76368716Y-71919480D01*
X76368709Y-71919476D01*
X76368708Y-71919475D01*
X76365651Y-71917710D01*
X76334796Y-71894034D01*
X76324987Y-71884225D01*
X76286423Y-71817430D01*
X76286423Y-71740302D01*
X76324985Y-71673510D01*
X76334800Y-71663694D01*
X76365648Y-71640024D01*
X76468716Y-71580520D01*
X76580520Y-71468716D01*
X76659577Y-71331784D01*
X76700500Y-71179057D01*
X76700500Y-71020943D01*
X76665394Y-70889926D01*
X76663185Y-70880448D01*
X76653362Y-70831053D01*
X76650500Y-70801991D01*
X76650500Y-69198010D01*
X76653364Y-69168938D01*
X76655520Y-69158103D01*
X76658786Y-69141683D01*
X76663201Y-69119490D01*
X76665414Y-69109998D01*
X76665420Y-69109978D01*
X76700499Y-68979060D01*
X76700500Y-68979056D01*
X76700500Y-68820943D01*
X76697823Y-68809606D01*
X76696593Y-68806365D01*
X76659577Y-68668216D01*
X76580520Y-68531284D01*
X76468716Y-68419480D01*
X76331784Y-68340423D01*
X76179057Y-68299500D01*
X76020939Y-68299500D01*
X75896599Y-68332817D01*
X75896593Y-68332819D01*
X75868216Y-68340423D01*
X75868214Y-68340423D01*
X75868214Y-68340424D01*
X75842768Y-68355114D01*
X75842763Y-68355117D01*
X75731282Y-68419480D01*
X75619479Y-68531283D01*
X75561457Y-68631783D01*
X75540424Y-68668212D01*
X75521431Y-68739095D01*
X75521430Y-68739094D01*
X75499500Y-68820938D01*
X75499500Y-68979062D01*
X75534579Y-69109978D01*
X75536791Y-69119463D01*
X75546635Y-69168936D01*
X75549500Y-69198014D01*
X75549500Y-70801991D01*
X75546637Y-70831060D01*
X75536806Y-70880483D01*
X75534592Y-70889978D01*
X75530677Y-70904589D01*
X75526607Y-70919780D01*
X75499500Y-71020941D01*
X75499500Y-71020943D01*
X75499500Y-71179057D01*
X75540423Y-71331784D01*
X75561456Y-71368214D01*
X75619480Y-71468716D01*
X75731284Y-71580520D01*
X75731286Y-71580521D01*
X75734342Y-71582286D01*
X75765205Y-71605967D01*
X75775119Y-71615881D01*
X75813683Y-71682676D01*
X75813683Y-71759804D01*
X75775493Y-71826224D01*
X75766246Y-71835537D01*
X75735014Y-71859590D01*
X75629289Y-71920631D01*
X75594373Y-71935239D01*
X75588433Y-71936875D01*
X75588406Y-71936885D01*
X75585341Y-71938155D01*
X75528314Y-71949500D01*
X74841832Y-71949500D01*
X74803265Y-71944422D01*
X74793343Y-71941763D01*
X74787792Y-71940276D01*
X74720999Y-71901709D01*
X74682442Y-71834932D01*
X74682264Y-71834268D01*
X74680923Y-71829266D01*
X74680916Y-71752146D01*
X74699339Y-71683389D01*
X74700500Y-71679057D01*
X74700500Y-71520943D01*
X74659577Y-71368216D01*
X74580520Y-71231284D01*
X74468716Y-71119480D01*
X74331784Y-71040423D01*
X74179057Y-70999500D01*
X74020943Y-70999500D01*
X73868212Y-71040424D01*
X73748271Y-71109672D01*
X73748231Y-71109695D01*
X73742439Y-71113036D01*
X73741950Y-71113319D01*
X73741868Y-71113366D01*
X73741853Y-71113369D01*
X73724435Y-71121960D01*
X73685342Y-71138155D01*
X73628316Y-71149500D01*
X68567938Y-71149500D01*
X68529374Y-71144423D01*
X68502578Y-71137243D01*
X68435783Y-71098679D01*
X67656572Y-70319468D01*
X67632894Y-70288611D01*
X67616086Y-70259499D01*
X67601204Y-70223569D01*
X67600488Y-70220897D01*
X67600487Y-70220895D01*
X67587895Y-70173902D01*
X67559577Y-70068216D01*
X67480520Y-69931284D01*
X67368716Y-69819480D01*
X67231784Y-69740423D01*
X67079057Y-69699500D01*
X66920939Y-69699500D01*
X66796599Y-69732817D01*
X66796593Y-69732819D01*
X66768216Y-69740423D01*
X66768214Y-69740423D01*
X66768214Y-69740424D01*
X66742768Y-69755114D01*
X66742763Y-69755117D01*
X66631282Y-69819480D01*
X66519479Y-69931283D01*
X66440424Y-70068212D01*
X66440423Y-70068216D01*
X66399500Y-70220941D01*
X64350500Y-70220941D01*
X64350500Y-68878033D01*
X64355576Y-68839473D01*
X64359704Y-68824065D01*
X64364275Y-68807006D01*
X64379159Y-68771072D01*
X64380518Y-68768717D01*
X64380520Y-68768716D01*
X64459577Y-68631784D01*
X64500500Y-68479057D01*
X64500500Y-68320943D01*
X64459577Y-68168216D01*
X64380520Y-68031284D01*
X64268716Y-67919480D01*
X64131784Y-67840423D01*
X63979057Y-67799500D01*
X63820939Y-67799500D01*
X63696599Y-67832817D01*
X63696593Y-67832819D01*
X63668216Y-67840423D01*
X63668214Y-67840423D01*
X63668214Y-67840424D01*
X63642768Y-67855114D01*
X63642763Y-67855117D01*
X63531282Y-67919480D01*
X63419479Y-68031283D01*
X63340424Y-68168212D01*
X63299500Y-68320941D01*
X63299500Y-68479058D01*
X63340423Y-68631783D01*
X63340424Y-68631786D01*
X63413337Y-68758078D01*
X63421955Y-68775551D01*
X63422962Y-68777981D01*
X63436062Y-68809606D01*
X63438156Y-68814659D01*
X63449500Y-68871685D01*
X63449500Y-70446163D01*
X63444423Y-70484727D01*
X63440833Y-70498125D01*
X63402269Y-70564920D01*
X63335474Y-70603484D01*
X63258353Y-70603486D01*
X63244956Y-70599897D01*
X63209013Y-70585010D01*
X63131790Y-70540425D01*
X63131779Y-70540421D01*
X62979060Y-70499500D01*
X62979057Y-70499500D01*
X62820943Y-70499500D01*
X62820939Y-70499500D01*
X62820938Y-70499500D01*
X62757011Y-70516630D01*
X62718447Y-70521707D01*
X62702431Y-70521707D01*
X62627931Y-70501745D01*
X62573393Y-70447207D01*
X62573385Y-70447192D01*
X62570454Y-70442114D01*
X62550500Y-70367629D01*
X62550500Y-68878033D01*
X62555576Y-68839473D01*
X62559704Y-68824065D01*
X62564275Y-68807006D01*
X62579159Y-68771072D01*
X62580518Y-68768717D01*
X62580520Y-68768716D01*
X62659577Y-68631784D01*
X62700500Y-68479057D01*
X62700500Y-68320943D01*
X62659577Y-68168216D01*
X62580520Y-68031284D01*
X62468716Y-67919480D01*
X62331784Y-67840423D01*
X62179057Y-67799500D01*
X62020939Y-67799500D01*
X61896599Y-67832817D01*
X61896593Y-67832819D01*
X61868216Y-67840423D01*
X61868214Y-67840423D01*
X61868214Y-67840424D01*
X61842768Y-67855114D01*
X61842763Y-67855117D01*
X61731282Y-67919480D01*
X61619479Y-68031283D01*
X61540424Y-68168212D01*
X61499500Y-68320941D01*
X61200000Y-68320941D01*
X61200000Y-53520941D01*
X64399500Y-53520941D01*
X64399500Y-53520943D01*
X64399500Y-53679057D01*
X64440423Y-53831784D01*
X64519480Y-53968716D01*
X64631284Y-54080520D01*
X64768216Y-54159577D01*
X64920943Y-54200500D01*
X65079057Y-54200500D01*
X65231784Y-54159577D01*
X65368716Y-54080520D01*
X65480520Y-53968716D01*
X65559577Y-53831784D01*
X65600500Y-53679057D01*
X65600500Y-53520943D01*
X65600499Y-53520939D01*
X65581353Y-53449485D01*
X65559577Y-53368216D01*
X65556753Y-53363325D01*
X65541867Y-53327384D01*
X65537315Y-53310393D01*
X65537315Y-53298226D01*
X65537317Y-53233269D01*
X65539241Y-53226089D01*
X65577802Y-53159298D01*
X66239797Y-52497303D01*
X66270651Y-52473629D01*
X66271223Y-52473298D01*
X66284521Y-52465620D01*
X66301878Y-52460970D01*
X66359017Y-52445658D01*
X66359021Y-52445658D01*
X66419305Y-52461810D01*
X66433518Y-52465618D01*
X66438595Y-52468549D01*
X66493135Y-52523085D01*
X66493137Y-52523089D01*
X66519477Y-52568712D01*
X66519482Y-52568718D01*
X66631280Y-52680517D01*
X66631282Y-52680518D01*
X66631284Y-52680520D01*
X66768216Y-52759577D01*
X66920943Y-52800500D01*
X67079057Y-52800500D01*
X67231784Y-52759577D01*
X67236667Y-52756757D01*
X67272607Y-52741868D01*
X67289602Y-52737315D01*
X67366722Y-52737315D01*
X67369517Y-52738064D01*
X67373903Y-52739239D01*
X67440699Y-52777802D01*
X67802691Y-53139794D01*
X67819504Y-53161704D01*
X67819552Y-53161668D01*
X67823902Y-53167257D01*
X67824069Y-53167653D01*
X67826368Y-53170649D01*
X67831005Y-53178680D01*
X67829172Y-53179737D01*
X67831128Y-53184370D01*
X67842747Y-53198869D01*
X67845873Y-53219284D01*
X67853907Y-53238309D01*
X67851608Y-53256743D01*
X67854421Y-53275109D01*
X67847008Y-53293646D01*
X67844366Y-53314845D01*
X67831542Y-53337788D01*
X67831821Y-53337950D01*
X67831362Y-53338743D01*
X67830564Y-53339540D01*
X67826411Y-53346971D01*
X67822498Y-53352299D01*
X67822199Y-53352538D01*
X67821400Y-53353588D01*
X67821138Y-53353388D01*
X67798703Y-53371365D01*
X67776908Y-53393138D01*
X67729640Y-53420429D01*
X67695672Y-53434772D01*
X67688875Y-53436693D01*
X67688848Y-53436702D01*
X67686452Y-53437695D01*
X67685341Y-53438155D01*
X67628316Y-53449500D01*
X67178033Y-53449500D01*
X67139470Y-53444423D01*
X67107004Y-53435724D01*
X67071063Y-53420835D01*
X67068731Y-53419488D01*
X67068716Y-53419480D01*
X66931784Y-53340423D01*
X66779057Y-53299500D01*
X66620939Y-53299500D01*
X66496599Y-53332817D01*
X66496593Y-53332819D01*
X66468216Y-53340423D01*
X66468214Y-53340423D01*
X66468214Y-53340424D01*
X66442768Y-53355114D01*
X66442763Y-53355117D01*
X66331282Y-53419480D01*
X66219479Y-53531283D01*
X66140431Y-53668200D01*
X66140429Y-53668203D01*
X66140422Y-53668217D01*
X66137519Y-53679055D01*
X66137518Y-53679057D01*
X66099500Y-53820940D01*
X66099500Y-53979058D01*
X66102351Y-53989699D01*
X66102353Y-53989704D01*
X66140423Y-54131784D01*
X66219480Y-54268716D01*
X66331284Y-54380520D01*
X66468216Y-54459577D01*
X66620943Y-54500500D01*
X66779057Y-54500500D01*
X66931784Y-54459577D01*
X67058094Y-54386652D01*
X67075566Y-54378036D01*
X67077980Y-54377035D01*
X67077981Y-54377037D01*
X67114666Y-54361840D01*
X67171682Y-54350500D01*
X67621967Y-54350500D01*
X67660530Y-54355577D01*
X67692992Y-54364275D01*
X67728929Y-54379160D01*
X67731283Y-54380519D01*
X67731284Y-54380520D01*
X67868216Y-54459577D01*
X68020943Y-54500500D01*
X68179057Y-54500500D01*
X68331784Y-54459577D01*
X68468716Y-54380520D01*
X68580520Y-54268716D01*
X68622160Y-54196591D01*
X68645833Y-54165737D01*
X68658275Y-54153295D01*
X68725062Y-54114736D01*
X68727460Y-54114093D01*
X68795069Y-54111882D01*
X68802467Y-54113353D01*
X68814208Y-54117123D01*
X68814337Y-54116643D01*
X68816663Y-54117266D01*
X68821311Y-54118843D01*
X68821318Y-54118845D01*
X68830812Y-54121057D01*
X68940691Y-54150500D01*
X69121966Y-54150500D01*
X69160528Y-54155577D01*
X69192991Y-54164275D01*
X69228929Y-54179160D01*
X69231283Y-54180519D01*
X69231284Y-54180520D01*
X69269541Y-54202607D01*
X69301831Y-54227738D01*
X69312343Y-54238542D01*
X69349989Y-54305859D01*
X69349473Y-54381014D01*
X69347944Y-54386720D01*
X69309381Y-54453513D01*
X68119468Y-55643427D01*
X68088609Y-55667106D01*
X68059502Y-55683911D01*
X68023567Y-55698796D01*
X67918422Y-55726970D01*
X67887163Y-55735346D01*
X67867199Y-55737974D01*
X67851222Y-55750234D01*
X67731282Y-55819480D01*
X67619479Y-55931283D01*
X67540424Y-56068212D01*
X67507912Y-56189546D01*
X67499500Y-56220941D01*
X67499500Y-56220943D01*
X67499500Y-56379057D01*
X67540423Y-56531784D01*
X67619480Y-56668716D01*
X67731284Y-56780520D01*
X67868216Y-56859577D01*
X68020943Y-56900500D01*
X68179057Y-56900500D01*
X68331784Y-56859577D01*
X68468716Y-56780520D01*
X68580520Y-56668716D01*
X68659577Y-56531784D01*
X68697323Y-56390910D01*
X68703582Y-56372472D01*
X68704588Y-56370040D01*
X68704590Y-56370041D01*
X68719779Y-56333364D01*
X68752076Y-56285025D01*
X70760489Y-54276614D01*
X70819799Y-54173887D01*
X70831214Y-54131284D01*
X70850500Y-54059309D01*
X70850500Y-53340691D01*
X70819799Y-53226114D01*
X70790931Y-53176114D01*
X70760489Y-53123386D01*
X70650426Y-53013323D01*
X70646377Y-53008527D01*
X70642458Y-53000188D01*
X70625689Y-52976439D01*
X70622002Y-52968692D01*
X70621996Y-52968683D01*
X70621988Y-52968666D01*
X70620463Y-52966025D01*
X70600500Y-52891525D01*
X70600500Y-52820943D01*
X70597823Y-52809606D01*
X70596593Y-52806365D01*
X70596259Y-52805117D01*
X70559577Y-52668216D01*
X70480520Y-52531284D01*
X70368716Y-52419480D01*
X70231784Y-52340423D01*
X70079057Y-52299500D01*
X69920939Y-52299500D01*
X69796599Y-52332817D01*
X69796593Y-52332819D01*
X69768216Y-52340423D01*
X69768214Y-52340423D01*
X69768214Y-52340424D01*
X69742768Y-52355114D01*
X69742763Y-52355117D01*
X69631282Y-52419480D01*
X69519479Y-52531283D01*
X69452808Y-52646763D01*
X69452806Y-52646766D01*
X69445412Y-52659575D01*
X69440423Y-52668216D01*
X69421919Y-52737273D01*
X69420689Y-52741861D01*
X69420688Y-52741866D01*
X69399500Y-52820939D01*
X69399500Y-52979055D01*
X69400775Y-52988741D01*
X69400516Y-52988775D01*
X69402897Y-53003462D01*
X69403162Y-53007904D01*
X69403162Y-53012346D01*
X69403503Y-53013620D01*
X69403964Y-53021335D01*
X69397250Y-53054087D01*
X69392885Y-53087239D01*
X69389118Y-53093762D01*
X69388477Y-53096892D01*
X69385139Y-53100652D01*
X69373436Y-53120923D01*
X69368765Y-53127010D01*
X69325053Y-53165342D01*
X69299924Y-53179849D01*
X69263993Y-53194731D01*
X69247001Y-53199284D01*
X69246997Y-53199284D01*
X69246994Y-53199286D01*
X69208430Y-53199284D01*
X69169873Y-53199284D01*
X69169866Y-53199282D01*
X69162687Y-53197358D01*
X69158137Y-53194731D01*
X69095899Y-53158796D01*
X68460650Y-52523547D01*
X68436974Y-52492692D01*
X68428965Y-52478821D01*
X68409000Y-52404322D01*
X68428960Y-52329821D01*
X68428961Y-52329819D01*
X68433393Y-52322142D01*
X68461862Y-52290652D01*
X68460223Y-52289013D01*
X68501250Y-52247986D01*
X68580520Y-52168716D01*
X68659577Y-52031784D01*
X68662482Y-52020941D01*
X70899500Y-52020941D01*
X70899500Y-52020943D01*
X70899500Y-52179057D01*
X70940423Y-52331784D01*
X71019480Y-52468716D01*
X71131284Y-52580520D01*
X71268216Y-52659577D01*
X71420943Y-52700500D01*
X71579057Y-52700500D01*
X71731784Y-52659577D01*
X71858094Y-52586652D01*
X71875566Y-52578036D01*
X71877980Y-52577035D01*
X71877981Y-52577037D01*
X71914666Y-52561840D01*
X71971682Y-52550500D01*
X73458168Y-52550500D01*
X73496731Y-52555577D01*
X73512201Y-52559722D01*
X73578996Y-52598285D01*
X73617561Y-52665079D01*
X73617562Y-52665084D01*
X73619079Y-52670746D01*
X73619078Y-52747870D01*
X73599500Y-52820935D01*
X73599500Y-52820939D01*
X73599500Y-52979058D01*
X73603163Y-52992728D01*
X73636787Y-53118216D01*
X73640424Y-53131787D01*
X73713337Y-53258078D01*
X73721955Y-53275551D01*
X73722962Y-53277981D01*
X73736388Y-53310393D01*
X73738156Y-53314659D01*
X73749500Y-53371685D01*
X73749500Y-57459311D01*
X73754294Y-57477202D01*
X73765276Y-57518190D01*
X73765277Y-57518194D01*
X73768920Y-57531786D01*
X73780199Y-57573882D01*
X73780200Y-57573885D01*
X73839508Y-57676610D01*
X73839509Y-57676611D01*
X73839511Y-57676614D01*
X74423386Y-58260490D01*
X74526113Y-58319799D01*
X74549682Y-58326114D01*
X74640691Y-58350500D01*
X75932063Y-58350500D01*
X75970622Y-58355575D01*
X75997421Y-58362756D01*
X76064214Y-58401318D01*
X76064217Y-58401320D01*
X76296266Y-58633369D01*
X76319944Y-58664227D01*
X76326571Y-58675705D01*
X76346534Y-58750204D01*
X76326573Y-58824705D01*
X76272035Y-58879243D01*
X76207271Y-58898887D01*
X76206171Y-58898959D01*
X76198231Y-58899480D01*
X76183936Y-58899480D01*
X76183936Y-58899500D01*
X76020939Y-58899500D01*
X75896599Y-58932817D01*
X75896593Y-58932819D01*
X75868216Y-58940423D01*
X75868214Y-58940423D01*
X75868214Y-58940424D01*
X75842768Y-58955114D01*
X75842763Y-58955117D01*
X75731282Y-59019480D01*
X75619478Y-59131284D01*
X75551640Y-59248786D01*
X75546482Y-59257081D01*
X75533988Y-59275775D01*
X75520748Y-59295586D01*
X75518542Y-59298886D01*
X75500021Y-59321451D01*
X73959489Y-60861984D01*
X73959488Y-60861985D01*
X73922099Y-60926748D01*
X73903302Y-60959307D01*
X73903301Y-60959309D01*
X73887016Y-60987515D01*
X73887016Y-60987516D01*
X73883332Y-61001263D01*
X73883330Y-61001268D01*
X73856424Y-61101681D01*
X73849500Y-61127523D01*
X73849500Y-61127525D01*
X73849500Y-62972475D01*
X73867779Y-63040691D01*
X73887016Y-63112485D01*
X73937254Y-63199500D01*
X73959490Y-63238015D01*
X74661985Y-63940510D01*
X74757763Y-63995807D01*
X74757767Y-63995809D01*
X74773435Y-64004855D01*
X74783366Y-64010589D01*
X74786997Y-64012845D01*
X74787514Y-64012983D01*
X74787515Y-64012984D01*
X74927525Y-64050500D01*
X74927526Y-64050500D01*
X75072474Y-64050500D01*
X75790641Y-64050500D01*
X75829200Y-64055575D01*
X75855999Y-64062756D01*
X75922792Y-64101318D01*
X75922795Y-64101320D01*
X76700015Y-64878540D01*
X76718543Y-64901116D01*
X76746525Y-64942992D01*
X76751676Y-64951275D01*
X76819480Y-65068716D01*
X76931284Y-65180520D01*
X77068216Y-65259577D01*
X77220943Y-65300500D01*
X77379057Y-65300500D01*
X77531784Y-65259577D01*
X77668716Y-65180520D01*
X77780520Y-65068716D01*
X77848314Y-64951291D01*
X77853434Y-64943059D01*
X77866017Y-64924224D01*
X77866018Y-64924225D01*
X77881457Y-64901115D01*
X77899983Y-64878540D01*
X78578540Y-64199982D01*
X78601112Y-64181459D01*
X78624225Y-64166018D01*
X78624224Y-64166016D01*
X78643057Y-64153435D01*
X78651330Y-64148292D01*
X78671883Y-64136426D01*
X78768716Y-64080520D01*
X78880520Y-63968716D01*
X78959577Y-63831784D01*
X79000500Y-63679057D01*
X79000500Y-63520943D01*
X78959577Y-63368216D01*
X78880520Y-63231284D01*
X78768716Y-63119480D01*
X78631784Y-63040423D01*
X78479057Y-62999500D01*
X78320939Y-62999500D01*
X78196596Y-63032818D01*
X78196591Y-63032819D01*
X78168216Y-63040423D01*
X78168214Y-63040423D01*
X78168214Y-63040424D01*
X78142778Y-63055109D01*
X78142762Y-63055116D01*
X78071637Y-63096181D01*
X78070270Y-63096547D01*
X78006509Y-63133352D01*
X77932007Y-63153307D01*
X77903579Y-63145687D01*
X77916979Y-63195677D01*
X77897023Y-63270179D01*
X77897017Y-63270189D01*
X77851639Y-63348787D01*
X77846481Y-63357081D01*
X77818542Y-63398885D01*
X77800021Y-63421451D01*
X77419229Y-63802243D01*
X77388374Y-63825919D01*
X77374503Y-63833928D01*
X77300004Y-63853893D01*
X77225503Y-63833933D01*
X77225499Y-63833931D01*
X77211627Y-63825922D01*
X77180768Y-63802243D01*
X76697252Y-63318727D01*
X76679520Y-63295617D01*
X76679520Y-63295618D01*
X76676615Y-63291832D01*
X76676614Y-63291830D01*
X76673571Y-63287864D01*
X76668691Y-63279411D01*
X76670933Y-63278116D01*
X76669103Y-63273697D01*
X76657156Y-63258121D01*
X76654601Y-63238685D01*
X76647100Y-63220575D01*
X76649662Y-63201111D01*
X76647105Y-63181651D01*
X76654609Y-63163543D01*
X76657169Y-63144107D01*
X76669119Y-63128533D01*
X76676635Y-63110400D01*
X76692189Y-63098469D01*
X76704123Y-63082918D01*
X76737834Y-63063459D01*
X76741769Y-63061830D01*
X76798761Y-63050500D01*
X76821967Y-63050500D01*
X76860530Y-63055577D01*
X76892992Y-63064275D01*
X76928929Y-63079160D01*
X76931283Y-63080519D01*
X76931284Y-63080520D01*
X77068216Y-63159577D01*
X77220943Y-63200500D01*
X77379057Y-63200500D01*
X77531784Y-63159577D01*
X77628358Y-63103820D01*
X77629770Y-63103442D01*
X77677477Y-63075892D01*
X77677478Y-63075893D01*
X77693469Y-63066658D01*
X77767966Y-63046690D01*
X77796418Y-63054311D01*
X77783021Y-63004293D01*
X77802982Y-62929809D01*
X77859577Y-62831784D01*
X77900500Y-62679057D01*
X77900500Y-62520943D01*
X77859577Y-62368216D01*
X77780520Y-62231284D01*
X77762399Y-62213163D01*
X77738723Y-62182308D01*
X77730714Y-62168437D01*
X77710749Y-62093938D01*
X77730709Y-62019437D01*
X77738722Y-62005557D01*
X77762395Y-61974706D01*
X78080535Y-61656566D01*
X78111389Y-61632892D01*
X78140500Y-61616085D01*
X78176496Y-61601185D01*
X78177818Y-61600831D01*
X78177825Y-61600830D01*
X78179057Y-61600500D01*
X78331784Y-61559577D01*
X78468716Y-61480520D01*
X78580520Y-61368716D01*
X78659577Y-61231784D01*
X78700500Y-61079057D01*
X78700500Y-60920943D01*
X78659577Y-60768216D01*
X78580520Y-60631284D01*
X78472691Y-60523455D01*
X78465474Y-60515706D01*
X78462317Y-60512065D01*
X78462335Y-60512048D01*
X78461218Y-60510594D01*
X78460868Y-60510394D01*
X78453701Y-60502128D01*
X78450129Y-60494782D01*
X78441174Y-60483946D01*
X78440659Y-60484292D01*
X78439656Y-60482798D01*
X78439254Y-60481623D01*
X78437564Y-60479578D01*
X78435653Y-60476301D01*
X78437138Y-60475434D01*
X78428640Y-60450578D01*
X78419979Y-60432763D01*
X78420421Y-60426541D01*
X78414704Y-60409818D01*
X78425699Y-60342742D01*
X78428156Y-60336810D01*
X78464204Y-60289823D01*
X78461809Y-60287428D01*
X78587428Y-60161808D01*
X78588383Y-60162763D01*
X78619495Y-60135009D01*
X78620235Y-60134564D01*
X78623926Y-60132412D01*
X78624293Y-60132129D01*
X78628030Y-60129888D01*
X78661563Y-60120295D01*
X78694572Y-60108998D01*
X78698416Y-60109752D01*
X78702184Y-60108675D01*
X78736030Y-60117136D01*
X78762803Y-60122392D01*
X78763443Y-60120848D01*
X78770700Y-60123853D01*
X78771938Y-60124680D01*
X78772062Y-60124741D01*
X78772053Y-60124757D01*
X78775365Y-60126970D01*
X78777009Y-60127381D01*
X78779307Y-60129603D01*
X78819055Y-60156158D01*
X82123386Y-63460489D01*
X82182696Y-63494731D01*
X82226114Y-63519799D01*
X82340691Y-63550500D01*
X82421964Y-63550500D01*
X82460383Y-63555538D01*
X82460709Y-63555625D01*
X82460710Y-63555626D01*
X82460819Y-63555655D01*
X82460817Y-63555658D01*
X82460850Y-63555663D01*
X82480953Y-63561049D01*
X82492992Y-63564274D01*
X82528929Y-63579160D01*
X82531283Y-63580519D01*
X82531284Y-63580520D01*
X82587293Y-63612856D01*
X82608547Y-63625127D01*
X82640325Y-63649732D01*
X82652218Y-63661835D01*
X82689863Y-63727701D01*
X82694422Y-63744714D01*
X82699500Y-63783281D01*
X82699500Y-63879057D01*
X82740423Y-64031784D01*
X82819480Y-64168716D01*
X82931284Y-64280520D01*
X83068216Y-64359577D01*
X83220943Y-64400500D01*
X83379057Y-64400500D01*
X83531784Y-64359577D01*
X83668716Y-64280520D01*
X83780520Y-64168716D01*
X83859577Y-64031784D01*
X83897775Y-63889227D01*
X83904359Y-63870008D01*
X83906457Y-63865019D01*
X83907553Y-63862886D01*
X83919975Y-63832889D01*
X83920099Y-63832597D01*
X83921493Y-63830800D01*
X83952075Y-63785026D01*
X84060489Y-63676614D01*
X84107329Y-63595484D01*
X84119799Y-63573886D01*
X84150500Y-63459309D01*
X84150500Y-62067936D01*
X84155576Y-62029377D01*
X84159188Y-62015894D01*
X84162756Y-62002579D01*
X84201317Y-61935785D01*
X84201317Y-61935784D01*
X84954440Y-61182660D01*
X84977539Y-61164937D01*
X84977539Y-61164936D01*
X84982955Y-61160780D01*
X84982961Y-61160777D01*
X84985304Y-61158980D01*
X84993756Y-61154101D01*
X84994783Y-61155880D01*
X85001077Y-61153273D01*
X85016638Y-61141332D01*
X85036087Y-61138770D01*
X85054212Y-61131263D01*
X85073659Y-61133822D01*
X85093106Y-61131262D01*
X85111230Y-61138768D01*
X85130680Y-61141329D01*
X85164364Y-61160775D01*
X85169374Y-61164619D01*
X85207710Y-61208331D01*
X85219729Y-61229148D01*
X85234615Y-61265084D01*
X85244423Y-61301687D01*
X85249500Y-61340252D01*
X85249500Y-64119310D01*
X85280202Y-64233891D01*
X85335566Y-64329783D01*
X85335567Y-64329784D01*
X85339506Y-64336606D01*
X85339509Y-64336610D01*
X85339511Y-64336613D01*
X85423387Y-64420489D01*
X85423389Y-64420490D01*
X85423393Y-64420493D01*
X85521965Y-64477404D01*
X85521964Y-64477404D01*
X85526110Y-64479797D01*
X85526111Y-64479797D01*
X85526114Y-64479799D01*
X85640691Y-64510500D01*
X85759309Y-64510500D01*
X85780884Y-64510500D01*
X85819447Y-64515577D01*
X85834917Y-64519722D01*
X85901712Y-64558285D01*
X85940276Y-64625076D01*
X85944422Y-64640547D01*
X85949500Y-64679116D01*
X85949500Y-67880883D01*
X85944422Y-67919452D01*
X85940276Y-67934923D01*
X85924819Y-67961692D01*
X85901718Y-68001708D01*
X85901711Y-68001711D01*
X85901709Y-68001716D01*
X85838590Y-68038159D01*
X85834925Y-68040275D01*
X85819455Y-68044421D01*
X85780884Y-68049500D01*
X82717766Y-68049500D01*
X82698321Y-68048225D01*
X82679121Y-68045697D01*
X82660011Y-68041896D01*
X82576429Y-68019500D01*
X82576427Y-68019500D01*
X82576424Y-68019500D01*
X82423576Y-68019500D01*
X82423574Y-68019500D01*
X82423570Y-68019500D01*
X82344454Y-68040700D01*
X82294881Y-68053983D01*
X82274918Y-68056611D01*
X82258941Y-68068871D01*
X82143567Y-68135481D01*
X82035480Y-68243568D01*
X81959061Y-68375931D01*
X81919500Y-68523573D01*
X81919500Y-68676427D01*
X81959059Y-68824064D01*
X81968630Y-68840642D01*
X81968736Y-68840824D01*
X82035481Y-68956431D01*
X82035482Y-68956432D01*
X82035484Y-68956435D01*
X82143565Y-69064516D01*
X82275935Y-69140940D01*
X82423576Y-69180500D01*
X82576422Y-69180500D01*
X82576424Y-69180500D01*
X82592246Y-69176260D01*
X82623886Y-69167782D01*
X82623888Y-69167780D01*
X82623892Y-69167780D01*
X82660016Y-69158101D01*
X82679121Y-69154302D01*
X82688721Y-69153038D01*
X82698319Y-69151775D01*
X82717766Y-69150500D01*
X118382234Y-69150500D01*
X118401672Y-69151773D01*
X118420884Y-69154303D01*
X118439980Y-69158100D01*
X118523572Y-69180499D01*
X118523576Y-69180500D01*
X118676422Y-69180500D01*
X118676424Y-69180500D01*
X118692246Y-69176260D01*
X118723886Y-69167782D01*
X118723888Y-69167780D01*
X118723892Y-69167780D01*
X118760016Y-69158101D01*
X118779121Y-69154302D01*
X118788721Y-69153038D01*
X118798319Y-69151775D01*
X118817766Y-69150500D01*
X134982234Y-69150500D01*
X135001672Y-69151773D01*
X135020884Y-69154303D01*
X135039980Y-69158100D01*
X135123572Y-69180499D01*
X135123576Y-69180500D01*
X135276422Y-69180500D01*
X135276424Y-69180500D01*
X135292246Y-69176260D01*
X135323886Y-69167782D01*
X135323888Y-69167780D01*
X135323892Y-69167780D01*
X135360016Y-69158101D01*
X135379121Y-69154302D01*
X135388721Y-69153038D01*
X135398319Y-69151775D01*
X135417766Y-69150500D01*
X137382234Y-69150500D01*
X137401672Y-69151773D01*
X137420884Y-69154303D01*
X137439980Y-69158100D01*
X137523572Y-69180499D01*
X137523576Y-69180500D01*
X137676422Y-69180500D01*
X137676424Y-69180500D01*
X137692246Y-69176260D01*
X137723886Y-69167782D01*
X137723888Y-69167780D01*
X137723892Y-69167780D01*
X137760016Y-69158101D01*
X137779121Y-69154302D01*
X137788721Y-69153038D01*
X137798319Y-69151775D01*
X137817766Y-69150500D01*
X156382234Y-69150500D01*
X156401672Y-69151773D01*
X156420884Y-69154303D01*
X156439980Y-69158100D01*
X156523572Y-69180499D01*
X156523576Y-69180500D01*
X156676422Y-69180500D01*
X156676424Y-69180500D01*
X156692246Y-69176260D01*
X156723886Y-69167782D01*
X156723888Y-69167780D01*
X156723892Y-69167780D01*
X156760016Y-69158101D01*
X156779121Y-69154302D01*
X156788721Y-69153038D01*
X156798319Y-69151775D01*
X156817766Y-69150500D01*
X175382234Y-69150500D01*
X175401672Y-69151773D01*
X175420884Y-69154303D01*
X175439980Y-69158100D01*
X175523572Y-69180499D01*
X175523576Y-69180500D01*
X175676422Y-69180500D01*
X175676424Y-69180500D01*
X175692246Y-69176260D01*
X175723886Y-69167782D01*
X175723888Y-69167780D01*
X175723892Y-69167780D01*
X175760016Y-69158101D01*
X175779121Y-69154302D01*
X175788721Y-69153038D01*
X175798319Y-69151775D01*
X175817766Y-69150500D01*
X190882234Y-69150500D01*
X190901672Y-69151773D01*
X190920884Y-69154303D01*
X190939980Y-69158100D01*
X191023572Y-69180499D01*
X191023576Y-69180500D01*
X191176422Y-69180500D01*
X191176424Y-69180500D01*
X191192246Y-69176260D01*
X191223886Y-69167782D01*
X191223888Y-69167780D01*
X191223892Y-69167780D01*
X191260016Y-69158101D01*
X191279121Y-69154302D01*
X191288721Y-69153038D01*
X191298319Y-69151775D01*
X191317766Y-69150500D01*
X194382234Y-69150500D01*
X194401672Y-69151773D01*
X194420884Y-69154303D01*
X194439980Y-69158100D01*
X194523572Y-69180499D01*
X194523576Y-69180500D01*
X194676422Y-69180500D01*
X194676424Y-69180500D01*
X194692246Y-69176260D01*
X194723886Y-69167782D01*
X194723888Y-69167780D01*
X194723892Y-69167780D01*
X194760016Y-69158101D01*
X194779121Y-69154302D01*
X194788721Y-69153038D01*
X194798319Y-69151775D01*
X194817766Y-69150500D01*
X209882234Y-69150500D01*
X209901672Y-69151773D01*
X209920884Y-69154303D01*
X209939980Y-69158100D01*
X210023572Y-69180499D01*
X210023576Y-69180500D01*
X210176422Y-69180500D01*
X210176424Y-69180500D01*
X210192246Y-69176260D01*
X210223886Y-69167782D01*
X210223888Y-69167780D01*
X210223892Y-69167780D01*
X210260016Y-69158101D01*
X210279121Y-69154302D01*
X210288721Y-69153038D01*
X210298319Y-69151775D01*
X210317766Y-69150500D01*
X213382234Y-69150500D01*
X213401672Y-69151773D01*
X213420884Y-69154303D01*
X213439980Y-69158100D01*
X213523572Y-69180499D01*
X213523576Y-69180500D01*
X213676424Y-69180500D01*
X213824065Y-69140940D01*
X213956435Y-69064516D01*
X214064516Y-68956435D01*
X214140940Y-68824065D01*
X214180500Y-68676424D01*
X214180500Y-68523576D01*
X214140940Y-68375935D01*
X214064516Y-68243565D01*
X213956435Y-68135484D01*
X213956432Y-68135482D01*
X213956431Y-68135481D01*
X213874319Y-68088074D01*
X213874319Y-68088073D01*
X213824067Y-68059061D01*
X213824066Y-68059060D01*
X213824065Y-68059060D01*
X213713887Y-68029538D01*
X213676425Y-68019500D01*
X213676424Y-68019500D01*
X213523571Y-68019500D01*
X213439989Y-68041896D01*
X213420878Y-68045697D01*
X213401677Y-68048225D01*
X213382234Y-68049500D01*
X212547232Y-68049500D01*
X212508665Y-68044422D01*
X212494774Y-68040700D01*
X212493192Y-68040276D01*
X212426399Y-68001709D01*
X212387840Y-67934924D01*
X212385230Y-67925185D01*
X212380911Y-67881303D01*
X212380500Y-67881303D01*
X212380500Y-67877131D01*
X212380472Y-67876847D01*
X212380500Y-67876420D01*
X212380500Y-67723576D01*
X212377824Y-67712244D01*
X212376595Y-67709004D01*
X212362662Y-67657004D01*
X212358863Y-67628137D01*
X212357972Y-67621372D01*
X212357972Y-67621371D01*
X212357587Y-67618447D01*
X212357587Y-67608681D01*
X212359642Y-67608681D01*
X212362664Y-67585711D01*
X212362665Y-67579881D01*
X212363658Y-67578160D01*
X212368035Y-67544904D01*
X212414984Y-67483711D01*
X212448703Y-67464247D01*
X212454539Y-67461831D01*
X212511532Y-67450500D01*
X212559747Y-67450500D01*
X212598306Y-67455575D01*
X212634917Y-67465385D01*
X212670851Y-67480270D01*
X212694875Y-67494140D01*
X212694876Y-67494140D01*
X212694879Y-67494142D01*
X212694881Y-67494143D01*
X212775930Y-67540938D01*
X212775932Y-67540938D01*
X212775935Y-67540940D01*
X212923576Y-67580500D01*
X213076424Y-67580500D01*
X213224065Y-67540940D01*
X213356435Y-67464516D01*
X213464516Y-67356435D01*
X213540940Y-67224065D01*
X213580500Y-67076424D01*
X213580500Y-66923576D01*
X213540940Y-66775935D01*
X213464516Y-66643565D01*
X213356435Y-66535484D01*
X213356432Y-66535482D01*
X213356431Y-66535481D01*
X213274319Y-66488074D01*
X213274319Y-66488073D01*
X213224067Y-66459061D01*
X213224066Y-66459060D01*
X213224065Y-66459060D01*
X213117507Y-66430508D01*
X213115065Y-66429853D01*
X213109873Y-66428462D01*
X213073950Y-66413581D01*
X213058718Y-66404787D01*
X213044837Y-66390906D01*
X213043081Y-66389892D01*
X213042067Y-66388136D01*
X213004180Y-66350249D01*
X213004178Y-66350246D01*
X213000456Y-66343800D01*
X212980500Y-66269309D01*
X212980500Y-66123576D01*
X212977823Y-66112238D01*
X212976593Y-66108996D01*
X212940942Y-65975941D01*
X212940940Y-65975936D01*
X212940940Y-65975935D01*
X212864516Y-65843565D01*
X212756435Y-65735484D01*
X212756432Y-65735482D01*
X212756431Y-65735481D01*
X212651674Y-65675000D01*
X212651674Y-65674999D01*
X212624068Y-65659061D01*
X212624065Y-65659060D01*
X212515985Y-65630100D01*
X212476425Y-65619500D01*
X212323570Y-65619500D01*
X212244454Y-65640700D01*
X212194881Y-65653983D01*
X212174918Y-65656611D01*
X212158942Y-65668870D01*
X212070850Y-65719730D01*
X212034914Y-65734615D01*
X211998309Y-65744423D01*
X211959747Y-65749500D01*
X193840253Y-65749500D01*
X193801689Y-65744423D01*
X193765085Y-65734615D01*
X193729149Y-65719730D01*
X193684176Y-65693765D01*
X193641056Y-65668870D01*
X193624065Y-65659060D01*
X193515985Y-65630100D01*
X193476425Y-65619500D01*
X193323570Y-65619500D01*
X193244454Y-65640700D01*
X193194881Y-65653983D01*
X193174918Y-65656611D01*
X193158942Y-65668870D01*
X193070850Y-65719730D01*
X193034914Y-65734615D01*
X192998309Y-65744423D01*
X192959747Y-65749500D01*
X174840253Y-65749500D01*
X174801689Y-65744423D01*
X174765085Y-65734615D01*
X174729149Y-65719730D01*
X174684176Y-65693765D01*
X174641056Y-65668870D01*
X174624065Y-65659060D01*
X174515985Y-65630100D01*
X174476425Y-65619500D01*
X174323570Y-65619500D01*
X174244454Y-65640700D01*
X174194881Y-65653983D01*
X174174918Y-65656611D01*
X174158942Y-65668870D01*
X174070850Y-65719730D01*
X174034914Y-65734615D01*
X173998309Y-65744423D01*
X173959747Y-65749500D01*
X155840253Y-65749500D01*
X155801689Y-65744423D01*
X155765085Y-65734615D01*
X155729149Y-65719730D01*
X155684176Y-65693765D01*
X155641056Y-65668870D01*
X155624065Y-65659060D01*
X155515985Y-65630100D01*
X155476425Y-65619500D01*
X155323570Y-65619500D01*
X155244454Y-65640700D01*
X155194881Y-65653983D01*
X155174918Y-65656611D01*
X155158942Y-65668870D01*
X155070850Y-65719730D01*
X155034914Y-65734615D01*
X154998309Y-65744423D01*
X154959747Y-65749500D01*
X154640253Y-65749500D01*
X154601689Y-65744423D01*
X154565085Y-65734615D01*
X154529149Y-65719730D01*
X154484176Y-65693765D01*
X154441056Y-65668870D01*
X154424065Y-65659060D01*
X154315985Y-65630100D01*
X154276425Y-65619500D01*
X154123570Y-65619500D01*
X154044454Y-65640700D01*
X153994881Y-65653983D01*
X153974918Y-65656611D01*
X153958942Y-65668870D01*
X153870850Y-65719730D01*
X153834914Y-65734615D01*
X153798309Y-65744423D01*
X153759747Y-65749500D01*
X136840253Y-65749500D01*
X136801689Y-65744423D01*
X136765085Y-65734615D01*
X136729149Y-65719730D01*
X136684176Y-65693765D01*
X136641056Y-65668870D01*
X136624065Y-65659060D01*
X136515985Y-65630100D01*
X136476425Y-65619500D01*
X136323570Y-65619500D01*
X136244454Y-65640700D01*
X136194881Y-65653983D01*
X136174918Y-65656611D01*
X136158942Y-65668870D01*
X136070850Y-65719730D01*
X136034914Y-65734615D01*
X135998309Y-65744423D01*
X135959747Y-65749500D01*
X117840253Y-65749500D01*
X117801689Y-65744423D01*
X117765085Y-65734615D01*
X117729149Y-65719730D01*
X117684176Y-65693765D01*
X117641056Y-65668870D01*
X117624065Y-65659060D01*
X117515985Y-65630100D01*
X117476425Y-65619500D01*
X117323570Y-65619500D01*
X117244454Y-65640700D01*
X117194881Y-65653983D01*
X117174918Y-65656611D01*
X117158942Y-65668870D01*
X117070850Y-65719730D01*
X117034914Y-65734615D01*
X116998309Y-65744423D01*
X116959747Y-65749500D01*
X93719116Y-65749500D01*
X93680549Y-65744422D01*
X93670627Y-65741763D01*
X93665076Y-65740276D01*
X93598283Y-65701709D01*
X93559721Y-65634914D01*
X93555576Y-65619443D01*
X93550500Y-65580883D01*
X93550500Y-64500252D01*
X93555577Y-64461689D01*
X93565385Y-64425084D01*
X93565386Y-64425082D01*
X93580271Y-64389146D01*
X93640938Y-64284069D01*
X93640939Y-64284066D01*
X93640940Y-64284065D01*
X93680500Y-64136424D01*
X93680500Y-63983576D01*
X93640940Y-63835935D01*
X93564516Y-63703565D01*
X93456435Y-63595484D01*
X93456432Y-63595482D01*
X93456431Y-63595481D01*
X93456430Y-63595480D01*
X93456431Y-63595480D01*
X93327326Y-63520943D01*
X93324065Y-63519060D01*
X93324062Y-63519059D01*
X93324063Y-63519059D01*
X93215985Y-63490100D01*
X93176425Y-63479500D01*
X93023570Y-63479500D01*
X92944454Y-63500700D01*
X92894881Y-63513983D01*
X92874918Y-63516611D01*
X92858941Y-63528871D01*
X92743567Y-63595481D01*
X92635480Y-63703568D01*
X92561456Y-63831782D01*
X92561457Y-63831783D01*
X92559059Y-63835935D01*
X92559058Y-63835937D01*
X92547506Y-63879055D01*
X92547506Y-63879056D01*
X92519500Y-63983573D01*
X92519500Y-64136427D01*
X92559059Y-64284064D01*
X92559061Y-64284066D01*
X92619730Y-64389148D01*
X92634615Y-64425084D01*
X92644423Y-64461688D01*
X92649500Y-64500252D01*
X92649500Y-66259310D01*
X92671922Y-66342988D01*
X92676999Y-66381552D01*
X92676999Y-66397568D01*
X92657037Y-66472068D01*
X92602503Y-66526603D01*
X92602500Y-66526604D01*
X92602499Y-66526606D01*
X92602496Y-66526606D01*
X92597425Y-66529535D01*
X92522926Y-66549500D01*
X91519116Y-66549500D01*
X91480549Y-66544422D01*
X91470627Y-66541763D01*
X91465076Y-66540276D01*
X91440627Y-66526158D01*
X91398283Y-66501710D01*
X91359721Y-66434914D01*
X91355576Y-66419443D01*
X91350500Y-66380883D01*
X91350500Y-64500252D01*
X91355577Y-64461689D01*
X91365385Y-64425084D01*
X91380271Y-64389146D01*
X91440938Y-64284069D01*
X91440939Y-64284066D01*
X91440940Y-64284065D01*
X91480500Y-64136424D01*
X91480500Y-63983576D01*
X91440940Y-63835935D01*
X91364516Y-63703565D01*
X91256435Y-63595484D01*
X91256432Y-63595482D01*
X91256431Y-63595481D01*
X91256430Y-63595480D01*
X91256431Y-63595480D01*
X91127326Y-63520943D01*
X91124065Y-63519060D01*
X91124062Y-63519059D01*
X91124063Y-63519059D01*
X91015985Y-63490100D01*
X90976425Y-63479500D01*
X90823570Y-63479500D01*
X90744454Y-63500700D01*
X90694881Y-63513983D01*
X90674918Y-63516611D01*
X90658940Y-63528871D01*
X90552626Y-63590249D01*
X90552604Y-63590263D01*
X90543568Y-63595481D01*
X90543567Y-63595482D01*
X90543565Y-63595483D01*
X90543565Y-63595484D01*
X90540283Y-63598765D01*
X90519862Y-63612856D01*
X90516616Y-63615348D01*
X90482927Y-63634803D01*
X90474841Y-63638153D01*
X90417811Y-63649499D01*
X90267938Y-63649499D01*
X90229374Y-63644422D01*
X90202578Y-63637242D01*
X90135783Y-63598678D01*
X89755835Y-63218730D01*
X89732158Y-63187873D01*
X89725222Y-63175860D01*
X89705258Y-63101361D01*
X89725219Y-63026860D01*
X89779756Y-62972322D01*
X89779773Y-62972312D01*
X89782992Y-62970454D01*
X89857477Y-62950500D01*
X90472475Y-62950500D01*
X90612485Y-62912984D01*
X90652835Y-62889688D01*
X90738015Y-62840510D01*
X90789654Y-62788868D01*
X90799023Y-62782037D01*
X90805073Y-62779702D01*
X90810986Y-62775354D01*
X90810760Y-62775015D01*
X90817364Y-62770602D01*
X90824225Y-62766017D01*
X90824224Y-62766016D01*
X90842992Y-62753475D01*
X90851282Y-62748320D01*
X90864306Y-62740800D01*
X90968716Y-62680520D01*
X91080520Y-62568716D01*
X91159577Y-62431784D01*
X91200500Y-62279057D01*
X91200500Y-62120943D01*
X91159577Y-61968216D01*
X91080520Y-61831284D01*
X90968716Y-61719480D01*
X90831784Y-61640423D01*
X90679057Y-61599500D01*
X90520939Y-61599500D01*
X90396599Y-61632817D01*
X90396593Y-61632819D01*
X90368216Y-61640423D01*
X90368214Y-61640423D01*
X90368214Y-61640424D01*
X90342768Y-61655114D01*
X90342763Y-61655117D01*
X90231282Y-61719480D01*
X90231281Y-61719481D01*
X90158775Y-61791988D01*
X90127919Y-61815665D01*
X90103895Y-61829536D01*
X90029395Y-61849500D01*
X89127521Y-61849500D01*
X88987508Y-61887017D01*
X88861994Y-61959483D01*
X88861985Y-61959490D01*
X88798517Y-62022957D01*
X88767657Y-62046636D01*
X88753786Y-62054644D01*
X88679286Y-62074605D01*
X88604791Y-62054644D01*
X88590922Y-62046637D01*
X88560061Y-62022957D01*
X88017623Y-61480519D01*
X87149589Y-60612485D01*
X86276614Y-59739511D01*
X86276611Y-59739509D01*
X86276607Y-59739506D01*
X86173890Y-59680202D01*
X86173887Y-59680201D01*
X86149673Y-59673713D01*
X86134829Y-59669735D01*
X86134826Y-59669734D01*
X86059309Y-59649500D01*
X85340691Y-59649500D01*
X85340687Y-59649500D01*
X85250326Y-59673712D01*
X85226113Y-59680200D01*
X85123396Y-59739503D01*
X85123389Y-59739507D01*
X85123388Y-59739508D01*
X84926748Y-59936146D01*
X84895889Y-59959824D01*
X84883877Y-59966759D01*
X84809377Y-59986721D01*
X84734877Y-59966758D01*
X84680340Y-59912221D01*
X84673406Y-59900211D01*
X84663805Y-59877033D01*
X84663314Y-59877237D01*
X84659578Y-59868219D01*
X84659577Y-59868218D01*
X84659577Y-59868216D01*
X84580520Y-59731284D01*
X84468716Y-59619480D01*
X84331784Y-59540423D01*
X84179057Y-59499500D01*
X84020943Y-59499500D01*
X83868212Y-59540424D01*
X83748271Y-59609672D01*
X83748231Y-59609695D01*
X83742439Y-59613036D01*
X83741950Y-59613319D01*
X83741868Y-59613366D01*
X83741853Y-59613369D01*
X83724435Y-59621960D01*
X83685342Y-59638155D01*
X83628316Y-59649500D01*
X80667938Y-59649500D01*
X80639039Y-59645694D01*
X80639039Y-59645695D01*
X80637529Y-59645496D01*
X80629372Y-59644422D01*
X80619938Y-59641894D01*
X80620495Y-59639813D01*
X80605761Y-59633708D01*
X80577630Y-59626171D01*
X80570597Y-59619138D01*
X80561411Y-59615332D01*
X80523092Y-59571633D01*
X80516088Y-59559502D01*
X80501202Y-59523567D01*
X80500832Y-59522186D01*
X80500829Y-59522171D01*
X80494754Y-59499500D01*
X80459577Y-59368216D01*
X80380520Y-59231284D01*
X80268716Y-59119480D01*
X80131784Y-59040423D01*
X79979057Y-58999500D01*
X79820939Y-58999500D01*
X79696599Y-59032817D01*
X79696593Y-59032819D01*
X79668216Y-59040423D01*
X79668214Y-59040423D01*
X79668214Y-59040424D01*
X79642768Y-59055114D01*
X79642763Y-59055117D01*
X79531282Y-59119480D01*
X79416026Y-59234737D01*
X79415741Y-59234452D01*
X79399802Y-59249377D01*
X79385620Y-59260259D01*
X79314363Y-59289773D01*
X79237895Y-59279705D01*
X79237894Y-59279705D01*
X79229278Y-59276136D01*
X79180941Y-59243838D01*
X76805828Y-56868725D01*
X76782150Y-56837867D01*
X76775216Y-56825856D01*
X76775211Y-56825839D01*
X76775199Y-56825827D01*
X76775197Y-56825823D01*
X76765269Y-56788736D01*
X76755254Y-56751360D01*
X76755259Y-56751340D01*
X76755254Y-56751321D01*
X76765419Y-56713422D01*
X76775215Y-56676859D01*
X76775230Y-56676843D01*
X76775235Y-56676826D01*
X76801500Y-56650573D01*
X76829751Y-56622322D01*
X76832177Y-56620922D01*
X76833006Y-56620444D01*
X76834022Y-56620172D01*
X76907474Y-56600500D01*
X79317297Y-56600500D01*
X79355852Y-56605574D01*
X79369253Y-56609165D01*
X79436048Y-56647725D01*
X79474615Y-56714518D01*
X79474619Y-56791646D01*
X79471030Y-56805043D01*
X79456143Y-56840986D01*
X79440424Y-56868210D01*
X79399500Y-57020939D01*
X79399500Y-57179061D01*
X79405767Y-57202447D01*
X79410465Y-57219981D01*
X79421075Y-57259577D01*
X79440423Y-57331784D01*
X79519480Y-57468716D01*
X79631284Y-57580520D01*
X79748673Y-57648294D01*
X79756950Y-57653440D01*
X79775774Y-57666017D01*
X79775774Y-57666018D01*
X79798885Y-57681458D01*
X79821462Y-57699987D01*
X80800015Y-58678540D01*
X80818543Y-58701116D01*
X80846524Y-58742990D01*
X80851675Y-58751274D01*
X80914202Y-58859576D01*
X80919477Y-58868713D01*
X80919480Y-58868716D01*
X81031284Y-58980520D01*
X81168216Y-59059577D01*
X81320943Y-59100500D01*
X81479057Y-59100500D01*
X81631784Y-59059577D01*
X81768716Y-58980520D01*
X81880520Y-58868716D01*
X81959577Y-58731784D01*
X82000500Y-58579057D01*
X82000500Y-58420943D01*
X81959577Y-58268216D01*
X81932283Y-58220941D01*
X83099500Y-58220941D01*
X83099500Y-58220943D01*
X83099500Y-58379057D01*
X83140423Y-58531784D01*
X83219480Y-58668716D01*
X83331284Y-58780520D01*
X83468216Y-58859577D01*
X83620943Y-58900500D01*
X83779057Y-58900500D01*
X83897688Y-58868713D01*
X83910060Y-58865398D01*
X83919561Y-58863183D01*
X83941681Y-58858784D01*
X83968944Y-58853361D01*
X83998007Y-58850500D01*
X85901992Y-58850500D01*
X85931055Y-58853362D01*
X85958318Y-58858784D01*
X85958318Y-58858783D01*
X85980449Y-58863185D01*
X85989926Y-58865394D01*
X86120943Y-58900500D01*
X86279057Y-58900500D01*
X86431784Y-58859577D01*
X86568716Y-58780520D01*
X86680520Y-58668716D01*
X86759577Y-58531784D01*
X86800500Y-58379057D01*
X86800500Y-58220943D01*
X86759577Y-58068216D01*
X86680520Y-57931284D01*
X86568716Y-57819480D01*
X86431784Y-57740423D01*
X86279057Y-57699500D01*
X86120937Y-57699500D01*
X85989969Y-57734593D01*
X85980477Y-57736807D01*
X85958318Y-57741215D01*
X85931055Y-57746637D01*
X85901991Y-57749500D01*
X83998008Y-57749500D01*
X83968942Y-57746637D01*
X83941681Y-57741215D01*
X83919531Y-57736809D01*
X83910036Y-57734595D01*
X83779060Y-57699500D01*
X83779057Y-57699500D01*
X83620943Y-57699500D01*
X83620939Y-57699500D01*
X83496599Y-57732817D01*
X83496593Y-57732819D01*
X83468216Y-57740423D01*
X83468214Y-57740423D01*
X83468214Y-57740424D01*
X83442768Y-57755114D01*
X83442763Y-57755117D01*
X83331282Y-57819480D01*
X83219479Y-57931283D01*
X83140424Y-58068212D01*
X83099500Y-58220941D01*
X81932283Y-58220941D01*
X81880520Y-58131284D01*
X81768716Y-58019480D01*
X81768715Y-58019479D01*
X81768714Y-58019478D01*
X81651275Y-57951676D01*
X81642990Y-57946524D01*
X81601115Y-57918542D01*
X81578540Y-57900015D01*
X80596718Y-56918193D01*
X80583523Y-56903088D01*
X80573469Y-56889880D01*
X80563001Y-56874146D01*
X80543581Y-56840510D01*
X80528401Y-56803457D01*
X80525049Y-56790548D01*
X80525646Y-56713422D01*
X80564726Y-56646928D01*
X80630704Y-56609177D01*
X80644140Y-56605577D01*
X80682702Y-56600500D01*
X83552725Y-56600500D01*
X83552727Y-56600500D01*
X83654588Y-56573207D01*
X83745913Y-56520480D01*
X83926922Y-56339469D01*
X83943901Y-56329665D01*
X83957764Y-56315800D01*
X83966582Y-56310709D01*
X83985518Y-56305637D01*
X83993711Y-56300907D01*
X84003176Y-56300907D01*
X84041082Y-56290753D01*
X84115581Y-56310720D01*
X84170115Y-56365262D01*
X84190072Y-56439753D01*
X84190072Y-56449907D01*
X84184995Y-56488472D01*
X84149500Y-56620937D01*
X84149500Y-56620939D01*
X84149500Y-56779058D01*
X84149500Y-56779061D01*
X84149501Y-56779062D01*
X84160330Y-56819479D01*
X84160331Y-56819479D01*
X84190423Y-56931784D01*
X84269480Y-57068716D01*
X84381284Y-57180520D01*
X84518216Y-57259577D01*
X84670943Y-57300500D01*
X84829057Y-57300500D01*
X84981784Y-57259577D01*
X85048706Y-57220940D01*
X91599500Y-57220940D01*
X91599500Y-57379062D01*
X91634579Y-57509978D01*
X91636791Y-57519463D01*
X91646635Y-57568936D01*
X91649500Y-57598014D01*
X91649500Y-60472478D01*
X91680993Y-60590010D01*
X91687015Y-60612485D01*
X91759490Y-60738015D01*
X92400015Y-61378540D01*
X92418543Y-61401116D01*
X92446524Y-61442990D01*
X92451675Y-61451274D01*
X92514202Y-61559576D01*
X92519477Y-61568713D01*
X92519480Y-61568716D01*
X92631284Y-61680520D01*
X92768216Y-61759577D01*
X92920943Y-61800500D01*
X93079057Y-61800500D01*
X93231784Y-61759577D01*
X93368716Y-61680520D01*
X93480520Y-61568716D01*
X93559577Y-61431784D01*
X93600500Y-61279057D01*
X93600500Y-61120943D01*
X93559577Y-60968216D01*
X93480520Y-60831284D01*
X93368716Y-60719480D01*
X93368715Y-60719479D01*
X93368714Y-60719478D01*
X93251275Y-60651676D01*
X93242990Y-60646524D01*
X93201115Y-60618542D01*
X93178540Y-60600015D01*
X92808012Y-60229487D01*
X92784332Y-60198626D01*
X92770461Y-60174600D01*
X92750500Y-60100102D01*
X92750500Y-57609357D01*
X92755576Y-57570798D01*
X92757941Y-57561967D01*
X92762756Y-57544000D01*
X92801317Y-57477206D01*
X94881774Y-55396748D01*
X94912630Y-55373073D01*
X94924642Y-55366138D01*
X94999142Y-55346176D01*
X95073642Y-55366139D01*
X95128170Y-55420661D01*
X95130029Y-55423880D01*
X95150000Y-55498377D01*
X95150000Y-55646242D01*
X95183242Y-55856128D01*
X95215599Y-55955713D01*
X95248904Y-56058214D01*
X95248908Y-56058226D01*
X95345378Y-56247556D01*
X95345379Y-56247557D01*
X95384728Y-56301716D01*
X95384729Y-56301716D01*
X95867260Y-55819184D01*
X95934053Y-55780622D01*
X96011181Y-55780622D01*
X96077976Y-55819186D01*
X96091847Y-55833057D01*
X96099901Y-55847007D01*
X96192993Y-55940099D01*
X96206940Y-55948151D01*
X96220811Y-55962022D01*
X96230616Y-55979005D01*
X96244485Y-55992872D01*
X96249564Y-56011825D01*
X96259375Y-56028817D01*
X96259375Y-56048428D01*
X96264452Y-56067371D01*
X96259375Y-56086323D01*
X96259375Y-56105946D01*
X96249569Y-56122930D01*
X96244495Y-56141872D01*
X96220811Y-56172740D01*
X95738282Y-56655269D01*
X95738282Y-56655270D01*
X95792444Y-56694621D01*
X95960570Y-56780286D01*
X95992618Y-56802312D01*
X96002930Y-56811597D01*
X96044938Y-56876280D01*
X96048976Y-56953302D01*
X96013962Y-57022024D01*
X96013950Y-57022037D01*
X96008497Y-57028092D01*
X95965425Y-57061140D01*
X95897014Y-57095998D01*
X95896999Y-57096006D01*
X95762416Y-57193787D01*
X95762410Y-57193792D01*
X95750500Y-57202446D01*
X95750497Y-57202448D01*
X95622448Y-57330497D01*
X95622446Y-57330500D01*
X95613795Y-57342406D01*
X95613790Y-57342412D01*
X95513687Y-57480193D01*
X95510680Y-57487453D01*
X95433789Y-57638358D01*
X95400627Y-57740424D01*
X95377829Y-57810589D01*
X95377829Y-57810591D01*
X95349500Y-57989454D01*
X95349500Y-58170546D01*
X95377829Y-58349409D01*
X95433789Y-58521639D01*
X95510680Y-58672545D01*
X95513687Y-58679806D01*
X95565612Y-58751274D01*
X95569225Y-58756247D01*
X95622447Y-58829501D01*
X95750499Y-58957553D01*
X95897006Y-59063996D01*
X96058361Y-59146211D01*
X96230196Y-59202042D01*
X96231093Y-59202338D01*
X96234433Y-59203451D01*
X96247921Y-59208686D01*
X96261976Y-59214944D01*
X96321914Y-59263482D01*
X96349554Y-59335487D01*
X96337488Y-59411666D01*
X96288963Y-59471595D01*
X96287836Y-59472414D01*
X96235025Y-59496763D01*
X96230609Y-59497822D01*
X96058353Y-59553791D01*
X95916750Y-59625942D01*
X95916740Y-59625948D01*
X95897004Y-59636005D01*
X95897003Y-59636005D01*
X95751920Y-59741414D01*
X95750837Y-59742173D01*
X95750829Y-59742175D01*
X95750499Y-59742446D01*
X95622446Y-59870499D01*
X95622189Y-59870813D01*
X95622173Y-59870837D01*
X95621414Y-59871920D01*
X95516005Y-60017003D01*
X95516005Y-60017004D01*
X95505948Y-60036740D01*
X95505942Y-60036750D01*
X95433788Y-60178360D01*
X95418612Y-60225070D01*
X95377829Y-60350589D01*
X95368458Y-60409757D01*
X95349500Y-60529454D01*
X95349500Y-60710546D01*
X95376952Y-60883870D01*
X95377829Y-60889408D01*
X95414173Y-61001268D01*
X95433789Y-61061639D01*
X95504113Y-61199657D01*
X95516005Y-61222995D01*
X95516005Y-61222996D01*
X95532818Y-61246137D01*
X95622447Y-61369501D01*
X95750499Y-61497553D01*
X95897006Y-61603996D01*
X96058361Y-61686211D01*
X96230591Y-61742171D01*
X96409454Y-61770500D01*
X96409458Y-61770500D01*
X96590542Y-61770500D01*
X96590546Y-61770500D01*
X96769409Y-61742171D01*
X96941639Y-61686211D01*
X97102994Y-61603996D01*
X97249501Y-61497553D01*
X97377553Y-61369501D01*
X97483996Y-61222994D01*
X97566211Y-61061639D01*
X97622171Y-60889409D01*
X97650500Y-60710546D01*
X97650500Y-60529454D01*
X97622171Y-60350591D01*
X97566211Y-60178361D01*
X97483996Y-60017006D01*
X97377553Y-59870499D01*
X97249501Y-59742447D01*
X97102994Y-59636004D01*
X97050568Y-59609291D01*
X96941641Y-59553789D01*
X96766844Y-59496994D01*
X96755260Y-59492001D01*
X96752288Y-59491407D01*
X96738024Y-59485057D01*
X96734682Y-59482350D01*
X96728360Y-59478899D01*
X96716740Y-59467821D01*
X96678086Y-59436521D01*
X96674726Y-59427768D01*
X96672535Y-59425680D01*
X96668009Y-59410272D01*
X96650444Y-59364516D01*
X96651889Y-59355389D01*
X96650799Y-59351678D01*
X96655634Y-59331735D01*
X96662507Y-59288337D01*
X96667719Y-59281900D01*
X96668975Y-59276722D01*
X96688480Y-59256260D01*
X96711041Y-59228399D01*
X96712197Y-59227559D01*
X96718697Y-59224564D01*
X96722194Y-59220897D01*
X96734499Y-59217282D01*
X96764994Y-59203230D01*
X96769403Y-59202171D01*
X96769409Y-59202171D01*
X96941639Y-59146211D01*
X97102994Y-59063996D01*
X97249501Y-58957553D01*
X97377553Y-58829501D01*
X97483996Y-58682994D01*
X97566211Y-58521639D01*
X97622171Y-58349409D01*
X97650500Y-58170546D01*
X97650500Y-57989454D01*
X97622171Y-57810591D01*
X97566211Y-57638361D01*
X97483996Y-57477006D01*
X97483994Y-57477003D01*
X97483991Y-57476998D01*
X97471141Y-57459313D01*
X97471139Y-57459311D01*
X97471138Y-57459309D01*
X97378487Y-57331785D01*
X97378484Y-57331781D01*
X97378481Y-57331774D01*
X97378474Y-57331767D01*
X97377556Y-57330503D01*
X97377555Y-57330502D01*
X97377553Y-57330499D01*
X97249501Y-57202447D01*
X97199011Y-57165764D01*
X97119370Y-57107901D01*
X97119359Y-57107894D01*
X97116502Y-57105818D01*
X97102996Y-57096005D01*
X97102990Y-57096002D01*
X97048470Y-57068222D01*
X97039429Y-57063615D01*
X97007378Y-57041587D01*
X96997070Y-57032306D01*
X96955061Y-56967621D01*
X96951023Y-56890599D01*
X96986036Y-56821878D01*
X96991494Y-56815816D01*
X97034576Y-56782759D01*
X97055499Y-56772098D01*
X101199500Y-56772098D01*
X101199500Y-57227902D01*
X101235262Y-57682302D01*
X101244468Y-57740424D01*
X101255581Y-57810591D01*
X101306566Y-58132499D01*
X101412974Y-58575718D01*
X101553812Y-59009170D01*
X101553830Y-59009220D01*
X101553832Y-59009226D01*
X101728252Y-59430309D01*
X101935169Y-59836412D01*
X101935174Y-59836420D01*
X101935177Y-59836426D01*
X101963852Y-59883219D01*
X101963853Y-59883220D01*
X102173330Y-60225056D01*
X102173335Y-60225063D01*
X102173340Y-60225071D01*
X102307522Y-60409757D01*
X102329802Y-60440423D01*
X102441264Y-60593838D01*
X102441267Y-60593842D01*
X102737270Y-60940415D01*
X103059583Y-61262728D01*
X103406156Y-61558731D01*
X103406159Y-61558733D01*
X103406183Y-61558751D01*
X103419899Y-61568717D01*
X103419900Y-61568717D01*
X103508228Y-61632891D01*
X103774929Y-61826660D01*
X104136644Y-62048320D01*
X104163573Y-62064822D01*
X104249071Y-62108385D01*
X104569691Y-62271748D01*
X104587339Y-62279058D01*
X104990781Y-62446170D01*
X104990789Y-62446173D01*
X104990799Y-62446177D01*
X104990826Y-62446186D01*
X105367930Y-62568715D01*
X105367931Y-62568715D01*
X105367934Y-62568716D01*
X105424286Y-62587026D01*
X105424286Y-62587027D01*
X105520889Y-62610219D01*
X105867237Y-62693369D01*
X105867674Y-62693475D01*
X105868045Y-62693565D01*
X105870335Y-62693882D01*
X106317698Y-62764738D01*
X106772098Y-62800500D01*
X106772105Y-62800500D01*
X107227895Y-62800500D01*
X107227902Y-62800500D01*
X107682302Y-62764738D01*
X108132494Y-62693434D01*
X108575705Y-62587029D01*
X108575705Y-62587028D01*
X108575713Y-62587027D01*
X108575713Y-62587026D01*
X108575715Y-62587025D01*
X108604506Y-62580113D01*
X108609499Y-62576384D01*
X108618675Y-62573066D01*
X109009201Y-62446177D01*
X109430309Y-62271748D01*
X109836434Y-62064818D01*
X110225071Y-61826660D01*
X110593825Y-61558745D01*
X110593837Y-61558735D01*
X110593840Y-61558733D01*
X110815401Y-61369501D01*
X110940421Y-61262724D01*
X111262724Y-60940421D01*
X111501427Y-60660936D01*
X111558735Y-60593837D01*
X111558743Y-60593827D01*
X111558745Y-60593825D01*
X111826660Y-60225071D01*
X112064818Y-59836434D01*
X112271748Y-59430309D01*
X112446177Y-59009201D01*
X112587026Y-58575713D01*
X112587027Y-58575713D01*
X112630618Y-58394141D01*
X112693434Y-58132494D01*
X112764738Y-57682302D01*
X112800500Y-57227902D01*
X112800500Y-56772098D01*
X120199500Y-56772098D01*
X120199500Y-57227902D01*
X120235262Y-57682302D01*
X120244468Y-57740424D01*
X120255581Y-57810591D01*
X120306566Y-58132499D01*
X120412974Y-58575718D01*
X120553812Y-59009170D01*
X120553830Y-59009220D01*
X120553832Y-59009226D01*
X120728252Y-59430309D01*
X120935169Y-59836412D01*
X120935174Y-59836420D01*
X120935177Y-59836426D01*
X120963852Y-59883219D01*
X120963853Y-59883220D01*
X121173330Y-60225056D01*
X121173335Y-60225063D01*
X121173340Y-60225071D01*
X121307522Y-60409757D01*
X121329802Y-60440423D01*
X121441264Y-60593838D01*
X121441267Y-60593842D01*
X121737270Y-60940415D01*
X122059583Y-61262728D01*
X122406156Y-61558731D01*
X122406159Y-61558733D01*
X122406183Y-61558751D01*
X122419899Y-61568717D01*
X122419900Y-61568717D01*
X122508228Y-61632891D01*
X122774929Y-61826660D01*
X123136644Y-62048320D01*
X123163573Y-62064822D01*
X123249071Y-62108385D01*
X123569691Y-62271748D01*
X123587339Y-62279058D01*
X123990781Y-62446170D01*
X123990789Y-62446173D01*
X123990799Y-62446177D01*
X123990826Y-62446186D01*
X124367930Y-62568715D01*
X124367931Y-62568715D01*
X124367934Y-62568716D01*
X124424286Y-62587026D01*
X124424286Y-62587027D01*
X124520889Y-62610219D01*
X124867237Y-62693369D01*
X124867674Y-62693475D01*
X124868045Y-62693565D01*
X124870335Y-62693882D01*
X125317698Y-62764738D01*
X125772098Y-62800500D01*
X125772105Y-62800500D01*
X126227895Y-62800500D01*
X126227902Y-62800500D01*
X126682302Y-62764738D01*
X127132494Y-62693434D01*
X127575705Y-62587029D01*
X127575705Y-62587028D01*
X127575713Y-62587027D01*
X127575713Y-62587026D01*
X127575715Y-62587025D01*
X127604506Y-62580113D01*
X127609499Y-62576384D01*
X127618675Y-62573066D01*
X128009201Y-62446177D01*
X128430309Y-62271748D01*
X128836434Y-62064818D01*
X129225071Y-61826660D01*
X129593825Y-61558745D01*
X129593837Y-61558735D01*
X129593840Y-61558733D01*
X129815401Y-61369501D01*
X129940421Y-61262724D01*
X130262724Y-60940421D01*
X130501427Y-60660936D01*
X130558735Y-60593837D01*
X130558743Y-60593827D01*
X130558745Y-60593825D01*
X130826660Y-60225071D01*
X131064818Y-59836434D01*
X131271748Y-59430309D01*
X131446177Y-59009201D01*
X131587026Y-58575713D01*
X131587027Y-58575713D01*
X131630618Y-58394141D01*
X131693434Y-58132494D01*
X131764738Y-57682302D01*
X131800500Y-57227902D01*
X131800500Y-56772098D01*
X139199500Y-56772098D01*
X139199500Y-57227902D01*
X139235262Y-57682302D01*
X139244468Y-57740424D01*
X139255581Y-57810591D01*
X139306566Y-58132499D01*
X139412974Y-58575718D01*
X139553812Y-59009170D01*
X139553830Y-59009220D01*
X139553832Y-59009226D01*
X139728252Y-59430309D01*
X139935169Y-59836412D01*
X139935174Y-59836420D01*
X139935177Y-59836426D01*
X139963852Y-59883219D01*
X139963853Y-59883220D01*
X140173330Y-60225056D01*
X140173335Y-60225063D01*
X140173340Y-60225071D01*
X140307522Y-60409757D01*
X140329802Y-60440423D01*
X140441264Y-60593838D01*
X140441267Y-60593842D01*
X140737270Y-60940415D01*
X141059583Y-61262728D01*
X141406156Y-61558731D01*
X141406159Y-61558733D01*
X141406183Y-61558751D01*
X141419899Y-61568717D01*
X141419900Y-61568717D01*
X141508228Y-61632891D01*
X141774929Y-61826660D01*
X142136644Y-62048320D01*
X142163573Y-62064822D01*
X142249071Y-62108385D01*
X142569691Y-62271748D01*
X142587339Y-62279058D01*
X142990781Y-62446170D01*
X142990789Y-62446173D01*
X142990799Y-62446177D01*
X142990826Y-62446186D01*
X143367930Y-62568715D01*
X143367931Y-62568715D01*
X143367934Y-62568716D01*
X143424286Y-62587026D01*
X143424286Y-62587027D01*
X143520889Y-62610219D01*
X143867237Y-62693369D01*
X143867674Y-62693475D01*
X143868045Y-62693565D01*
X143870335Y-62693882D01*
X144317698Y-62764738D01*
X144772098Y-62800500D01*
X144772105Y-62800500D01*
X145227895Y-62800500D01*
X145227902Y-62800500D01*
X145682302Y-62764738D01*
X146132494Y-62693434D01*
X146575705Y-62587029D01*
X146575705Y-62587028D01*
X146575713Y-62587027D01*
X146575713Y-62587026D01*
X146575715Y-62587025D01*
X146604506Y-62580113D01*
X146609499Y-62576384D01*
X146618675Y-62573066D01*
X147009201Y-62446177D01*
X147430309Y-62271748D01*
X147836434Y-62064818D01*
X148225071Y-61826660D01*
X148593825Y-61558745D01*
X148593837Y-61558735D01*
X148593840Y-61558733D01*
X148815401Y-61369501D01*
X148940421Y-61262724D01*
X149262724Y-60940421D01*
X149501427Y-60660936D01*
X149558735Y-60593837D01*
X149558743Y-60593827D01*
X149558745Y-60593825D01*
X149826660Y-60225071D01*
X150064818Y-59836434D01*
X150271748Y-59430309D01*
X150446177Y-59009201D01*
X150587026Y-58575713D01*
X150587027Y-58575713D01*
X150630618Y-58394141D01*
X150693434Y-58132494D01*
X150764738Y-57682302D01*
X150800500Y-57227902D01*
X150800500Y-56772098D01*
X158199500Y-56772098D01*
X158199500Y-57227902D01*
X158235262Y-57682302D01*
X158244468Y-57740424D01*
X158255581Y-57810591D01*
X158306566Y-58132499D01*
X158412974Y-58575718D01*
X158553812Y-59009170D01*
X158553830Y-59009220D01*
X158553832Y-59009226D01*
X158728252Y-59430309D01*
X158935169Y-59836412D01*
X158935174Y-59836420D01*
X158935177Y-59836426D01*
X158963852Y-59883219D01*
X158963853Y-59883220D01*
X159173330Y-60225056D01*
X159173335Y-60225063D01*
X159173340Y-60225071D01*
X159307522Y-60409757D01*
X159329802Y-60440423D01*
X159441264Y-60593838D01*
X159441267Y-60593842D01*
X159737270Y-60940415D01*
X160059583Y-61262728D01*
X160406156Y-61558731D01*
X160406159Y-61558733D01*
X160406183Y-61558751D01*
X160419899Y-61568717D01*
X160419900Y-61568717D01*
X160508228Y-61632891D01*
X160774929Y-61826660D01*
X161136644Y-62048320D01*
X161163573Y-62064822D01*
X161249071Y-62108385D01*
X161569691Y-62271748D01*
X161587339Y-62279058D01*
X161990781Y-62446170D01*
X161990789Y-62446173D01*
X161990799Y-62446177D01*
X161990826Y-62446186D01*
X162367930Y-62568715D01*
X162367931Y-62568715D01*
X162367934Y-62568716D01*
X162424286Y-62587026D01*
X162424286Y-62587027D01*
X162520889Y-62610219D01*
X162867237Y-62693369D01*
X162867674Y-62693475D01*
X162868045Y-62693565D01*
X162870335Y-62693882D01*
X163317698Y-62764738D01*
X163772098Y-62800500D01*
X163772105Y-62800500D01*
X164227895Y-62800500D01*
X164227902Y-62800500D01*
X164682302Y-62764738D01*
X165132494Y-62693434D01*
X165575705Y-62587029D01*
X165575705Y-62587028D01*
X165575713Y-62587027D01*
X165575713Y-62587026D01*
X165575715Y-62587025D01*
X165604506Y-62580113D01*
X165609499Y-62576384D01*
X165618675Y-62573066D01*
X166009201Y-62446177D01*
X166430309Y-62271748D01*
X166836434Y-62064818D01*
X167225071Y-61826660D01*
X167593825Y-61558745D01*
X167593837Y-61558735D01*
X167593840Y-61558733D01*
X167815401Y-61369501D01*
X167940421Y-61262724D01*
X168262724Y-60940421D01*
X168501427Y-60660936D01*
X168558735Y-60593837D01*
X168558743Y-60593827D01*
X168558745Y-60593825D01*
X168826660Y-60225071D01*
X169064818Y-59836434D01*
X169271748Y-59430309D01*
X169446177Y-59009201D01*
X169587026Y-58575713D01*
X169587027Y-58575713D01*
X169630618Y-58394141D01*
X169693434Y-58132494D01*
X169764738Y-57682302D01*
X169800500Y-57227902D01*
X169800500Y-56772098D01*
X177199500Y-56772098D01*
X177199500Y-57227902D01*
X177235262Y-57682302D01*
X177244468Y-57740424D01*
X177255581Y-57810591D01*
X177306566Y-58132499D01*
X177412974Y-58575718D01*
X177553812Y-59009170D01*
X177553830Y-59009220D01*
X177553832Y-59009226D01*
X177728252Y-59430309D01*
X177935169Y-59836412D01*
X177935174Y-59836420D01*
X177935177Y-59836426D01*
X177963852Y-59883219D01*
X177963853Y-59883220D01*
X178173330Y-60225056D01*
X178173335Y-60225063D01*
X178173340Y-60225071D01*
X178307522Y-60409757D01*
X178329802Y-60440423D01*
X178441264Y-60593838D01*
X178441267Y-60593842D01*
X178737270Y-60940415D01*
X179059583Y-61262728D01*
X179406156Y-61558731D01*
X179406159Y-61558733D01*
X179406183Y-61558751D01*
X179419899Y-61568717D01*
X179419900Y-61568717D01*
X179508228Y-61632891D01*
X179774929Y-61826660D01*
X180136644Y-62048320D01*
X180163573Y-62064822D01*
X180249071Y-62108385D01*
X180569691Y-62271748D01*
X180587339Y-62279058D01*
X180990781Y-62446170D01*
X180990789Y-62446173D01*
X180990799Y-62446177D01*
X180990826Y-62446186D01*
X181367930Y-62568715D01*
X181367931Y-62568715D01*
X181367934Y-62568716D01*
X181424286Y-62587026D01*
X181424286Y-62587027D01*
X181520889Y-62610219D01*
X181867237Y-62693369D01*
X181867674Y-62693475D01*
X181868045Y-62693565D01*
X181870335Y-62693882D01*
X182317698Y-62764738D01*
X182772098Y-62800500D01*
X182772105Y-62800500D01*
X183227895Y-62800500D01*
X183227902Y-62800500D01*
X183682302Y-62764738D01*
X184132494Y-62693434D01*
X184575705Y-62587029D01*
X184575705Y-62587028D01*
X184575713Y-62587027D01*
X184575713Y-62587026D01*
X184575715Y-62587025D01*
X184604506Y-62580113D01*
X184609499Y-62576384D01*
X184618675Y-62573066D01*
X185009201Y-62446177D01*
X185430309Y-62271748D01*
X185836434Y-62064818D01*
X186225071Y-61826660D01*
X186593825Y-61558745D01*
X186593837Y-61558735D01*
X186593840Y-61558733D01*
X186815401Y-61369501D01*
X186940421Y-61262724D01*
X187262724Y-60940421D01*
X187501427Y-60660936D01*
X187558735Y-60593837D01*
X187558743Y-60593827D01*
X187558745Y-60593825D01*
X187826660Y-60225071D01*
X188064818Y-59836434D01*
X188271748Y-59430309D01*
X188446177Y-59009201D01*
X188587026Y-58575713D01*
X188587027Y-58575713D01*
X188630618Y-58394141D01*
X188693434Y-58132494D01*
X188764738Y-57682302D01*
X188800500Y-57227902D01*
X188800500Y-56772098D01*
X196199500Y-56772098D01*
X196199500Y-57227902D01*
X196235262Y-57682302D01*
X196244468Y-57740424D01*
X196255581Y-57810591D01*
X196306566Y-58132499D01*
X196412974Y-58575718D01*
X196553812Y-59009170D01*
X196553830Y-59009220D01*
X196553832Y-59009226D01*
X196728252Y-59430309D01*
X196935169Y-59836412D01*
X196935174Y-59836420D01*
X196935177Y-59836426D01*
X196963852Y-59883219D01*
X196963853Y-59883220D01*
X197173330Y-60225056D01*
X197173335Y-60225063D01*
X197173340Y-60225071D01*
X197307522Y-60409757D01*
X197329802Y-60440423D01*
X197441264Y-60593838D01*
X197441267Y-60593842D01*
X197737270Y-60940415D01*
X198059583Y-61262728D01*
X198406156Y-61558731D01*
X198406159Y-61558733D01*
X198406183Y-61558751D01*
X198419899Y-61568717D01*
X198419900Y-61568717D01*
X198508228Y-61632891D01*
X198774929Y-61826660D01*
X199136644Y-62048320D01*
X199163573Y-62064822D01*
X199249071Y-62108385D01*
X199569691Y-62271748D01*
X199587339Y-62279058D01*
X199990781Y-62446170D01*
X199990789Y-62446173D01*
X199990799Y-62446177D01*
X199990826Y-62446186D01*
X200367930Y-62568715D01*
X200367931Y-62568715D01*
X200367934Y-62568716D01*
X200424286Y-62587026D01*
X200424286Y-62587027D01*
X200520889Y-62610219D01*
X200867237Y-62693369D01*
X200867674Y-62693475D01*
X200868045Y-62693565D01*
X200870335Y-62693882D01*
X201317698Y-62764738D01*
X201772098Y-62800500D01*
X201772105Y-62800500D01*
X202227895Y-62800500D01*
X202227902Y-62800500D01*
X202682302Y-62764738D01*
X203132494Y-62693434D01*
X203575705Y-62587029D01*
X203575705Y-62587028D01*
X203575713Y-62587027D01*
X203575713Y-62587026D01*
X203575715Y-62587025D01*
X203604506Y-62580113D01*
X203609499Y-62576384D01*
X203618675Y-62573066D01*
X204009201Y-62446177D01*
X204430309Y-62271748D01*
X204836434Y-62064818D01*
X205225071Y-61826660D01*
X205593825Y-61558745D01*
X205593837Y-61558735D01*
X205593840Y-61558733D01*
X205815401Y-61369501D01*
X205940421Y-61262724D01*
X206262724Y-60940421D01*
X206501427Y-60660936D01*
X206558735Y-60593837D01*
X206558743Y-60593827D01*
X206558745Y-60593825D01*
X206826660Y-60225071D01*
X207064818Y-59836434D01*
X207271748Y-59430309D01*
X207446177Y-59009201D01*
X207587026Y-58575713D01*
X207587027Y-58575713D01*
X207630618Y-58394141D01*
X207693434Y-58132494D01*
X207764738Y-57682302D01*
X207800500Y-57227902D01*
X207800500Y-56772098D01*
X207764738Y-56317698D01*
X207693434Y-55867506D01*
X207587029Y-55424295D01*
X207446177Y-54990799D01*
X207424707Y-54938967D01*
X207413560Y-54912057D01*
X207358149Y-54778282D01*
X207338889Y-54731784D01*
X207271748Y-54569691D01*
X207122415Y-54276607D01*
X207103020Y-54238542D01*
X207064824Y-54163576D01*
X207064813Y-54163557D01*
X207064744Y-54163445D01*
X207013927Y-54080520D01*
X206826660Y-53774929D01*
X206590212Y-53449486D01*
X206590212Y-53449485D01*
X206590210Y-53449484D01*
X206558743Y-53406172D01*
X206558735Y-53406162D01*
X206558734Y-53406160D01*
X206558731Y-53406156D01*
X206262728Y-53059583D01*
X205940415Y-52737270D01*
X205875676Y-52681977D01*
X209199500Y-52681977D01*
X209199500Y-52918021D01*
X209230302Y-53151989D01*
X209230445Y-53152848D01*
X209231322Y-53155805D01*
X209289242Y-53371963D01*
X209291396Y-53380000D01*
X209362509Y-53551679D01*
X209381719Y-53598056D01*
X209472665Y-53755577D01*
X209499727Y-53802450D01*
X209643408Y-53989699D01*
X209810301Y-54156592D01*
X209997550Y-54300273D01*
X210039447Y-54324462D01*
X210069804Y-54341989D01*
X210069808Y-54341991D01*
X210200915Y-54417686D01*
X210201859Y-54418242D01*
X210201941Y-54418279D01*
X210201943Y-54418280D01*
X210201946Y-54418281D01*
X210201951Y-54418284D01*
X210201967Y-54418291D01*
X210203997Y-54419204D01*
X210204553Y-54419454D01*
X210206797Y-54420291D01*
X210420007Y-54508606D01*
X210647986Y-54569693D01*
X210647987Y-54569693D01*
X210647992Y-54569693D01*
X210647993Y-54569694D01*
X210711603Y-54578068D01*
X210881986Y-54600499D01*
X210881987Y-54600500D01*
X210881989Y-54600500D01*
X211118011Y-54600500D01*
X211352014Y-54569693D01*
X211579993Y-54508606D01*
X211798049Y-54418284D01*
X211799113Y-54417670D01*
X211805139Y-54414190D01*
X212002450Y-54300273D01*
X212189699Y-54156592D01*
X212356592Y-53989699D01*
X212500273Y-53802450D01*
X212618284Y-53598049D01*
X212708606Y-53379993D01*
X212769693Y-53152014D01*
X212800500Y-52918011D01*
X212800500Y-52681989D01*
X212774168Y-52481977D01*
X212769694Y-52447993D01*
X212769693Y-52447992D01*
X212769693Y-52447986D01*
X212708606Y-52220007D01*
X212618284Y-52001951D01*
X212618281Y-52001946D01*
X212618280Y-52001943D01*
X212547331Y-51879057D01*
X212500273Y-51797550D01*
X212356592Y-51610301D01*
X212189699Y-51443408D01*
X212002450Y-51299727D01*
X212002445Y-51299723D01*
X211976013Y-51284463D01*
X211798063Y-51181722D01*
X211714179Y-51146976D01*
X211579996Y-51091395D01*
X211579994Y-51091394D01*
X211579993Y-51091394D01*
X211572598Y-51089412D01*
X211572588Y-51089409D01*
X211355805Y-51031322D01*
X211352848Y-51030445D01*
X211351989Y-51030302D01*
X211118021Y-50999500D01*
X211118016Y-50999500D01*
X211118011Y-50999500D01*
X210881989Y-50999500D01*
X210881983Y-50999500D01*
X210881977Y-50999500D01*
X210648000Y-51030303D01*
X210419998Y-51091396D01*
X210419994Y-51091397D01*
X210201946Y-51181717D01*
X209997553Y-51299724D01*
X209997550Y-51299727D01*
X209812082Y-51442040D01*
X209810464Y-51443243D01*
X209643243Y-51610464D01*
X209642040Y-51612082D01*
X209589772Y-51680200D01*
X209499725Y-51797551D01*
X209381717Y-52001946D01*
X209291397Y-52219994D01*
X209291396Y-52219998D01*
X209230303Y-52448000D01*
X209199500Y-52681977D01*
X205875676Y-52681977D01*
X205593842Y-52441267D01*
X205593838Y-52441264D01*
X205431592Y-52323386D01*
X205386537Y-52290652D01*
X205225071Y-52173340D01*
X204836996Y-51935526D01*
X204836486Y-51935211D01*
X204836415Y-51935170D01*
X204566315Y-51797550D01*
X204530807Y-51779458D01*
X204511104Y-51761718D01*
X204009226Y-51553832D01*
X204009220Y-51553830D01*
X204009218Y-51553829D01*
X204009193Y-51553820D01*
X204009185Y-51553817D01*
X204009170Y-51553812D01*
X203618699Y-51426940D01*
X203609787Y-51421152D01*
X203256240Y-51336274D01*
X203229954Y-51322002D01*
X203132495Y-51306566D01*
X203132498Y-51306566D01*
X202907398Y-51270914D01*
X202907398Y-51270913D01*
X202733733Y-51243408D01*
X202682302Y-51235262D01*
X202227902Y-51199500D01*
X202227894Y-51199500D01*
X201772105Y-51199500D01*
X201772098Y-51199500D01*
X201500386Y-51220884D01*
X201317706Y-51235261D01*
X201317696Y-51235262D01*
X201124757Y-51265820D01*
X201124756Y-51265819D01*
X200867522Y-51306562D01*
X200867500Y-51306566D01*
X200395464Y-51419891D01*
X200390457Y-51423630D01*
X200381299Y-51426940D01*
X199990828Y-51553812D01*
X199990778Y-51553830D01*
X199990772Y-51553832D01*
X199569689Y-51728252D01*
X199163582Y-51935171D01*
X199163569Y-51935179D01*
X198782475Y-52168716D01*
X198774929Y-52173340D01*
X198427018Y-52426111D01*
X198406160Y-52441265D01*
X198406156Y-52441267D01*
X198059583Y-52737270D01*
X197737270Y-53059583D01*
X197441267Y-53406156D01*
X197441265Y-53406160D01*
X197441264Y-53406162D01*
X197441256Y-53406172D01*
X197191089Y-53750500D01*
X197173340Y-53774929D01*
X196935179Y-54163569D01*
X196935171Y-54163582D01*
X196728252Y-54569689D01*
X196553832Y-54990772D01*
X196553830Y-54990778D01*
X196553812Y-54990828D01*
X196426940Y-55381299D01*
X196421153Y-55390209D01*
X196309297Y-55856128D01*
X196306566Y-55867502D01*
X196274777Y-56068214D01*
X196235262Y-56317698D01*
X196199500Y-56772098D01*
X188800500Y-56772098D01*
X188764738Y-56317698D01*
X188693434Y-55867506D01*
X188587029Y-55424295D01*
X188446177Y-54990799D01*
X188424707Y-54938967D01*
X188413560Y-54912057D01*
X188358149Y-54778282D01*
X188338889Y-54731784D01*
X188271748Y-54569691D01*
X188122415Y-54276607D01*
X188103020Y-54238542D01*
X188064824Y-54163576D01*
X188064813Y-54163557D01*
X188064744Y-54163445D01*
X188013927Y-54080520D01*
X187826660Y-53774929D01*
X187590212Y-53449486D01*
X187590212Y-53449485D01*
X187590210Y-53449484D01*
X187558743Y-53406172D01*
X187558735Y-53406162D01*
X187558734Y-53406160D01*
X187558731Y-53406156D01*
X187262728Y-53059583D01*
X186940415Y-52737270D01*
X186593842Y-52441267D01*
X186593838Y-52441264D01*
X186431592Y-52323386D01*
X186386537Y-52290652D01*
X186225071Y-52173340D01*
X185836996Y-51935526D01*
X185836486Y-51935211D01*
X185836415Y-51935170D01*
X185566315Y-51797550D01*
X185530807Y-51779458D01*
X185511104Y-51761718D01*
X185009226Y-51553832D01*
X185009220Y-51553830D01*
X185009218Y-51553829D01*
X185009193Y-51553820D01*
X185009185Y-51553817D01*
X185009170Y-51553812D01*
X184618699Y-51426940D01*
X184609787Y-51421152D01*
X184256240Y-51336274D01*
X184229954Y-51322002D01*
X184132495Y-51306566D01*
X184132498Y-51306566D01*
X183907398Y-51270914D01*
X183907398Y-51270913D01*
X183733733Y-51243408D01*
X183682302Y-51235262D01*
X183227902Y-51199500D01*
X183227894Y-51199500D01*
X182772105Y-51199500D01*
X182772098Y-51199500D01*
X182500386Y-51220884D01*
X182317706Y-51235261D01*
X182317696Y-51235262D01*
X182124757Y-51265820D01*
X182124756Y-51265819D01*
X181867522Y-51306562D01*
X181867500Y-51306566D01*
X181395464Y-51419891D01*
X181390457Y-51423630D01*
X181381299Y-51426940D01*
X180990828Y-51553812D01*
X180990778Y-51553830D01*
X180990772Y-51553832D01*
X180569689Y-51728252D01*
X180163582Y-51935171D01*
X180163569Y-51935179D01*
X179782475Y-52168716D01*
X179774929Y-52173340D01*
X179427018Y-52426111D01*
X179406160Y-52441265D01*
X179406156Y-52441267D01*
X179059583Y-52737270D01*
X178737270Y-53059583D01*
X178441267Y-53406156D01*
X178441265Y-53406160D01*
X178441264Y-53406162D01*
X178441256Y-53406172D01*
X178191089Y-53750500D01*
X178173340Y-53774929D01*
X177935179Y-54163569D01*
X177935171Y-54163582D01*
X177728252Y-54569689D01*
X177553832Y-54990772D01*
X177553830Y-54990778D01*
X177553812Y-54990828D01*
X177426940Y-55381299D01*
X177421153Y-55390209D01*
X177309297Y-55856128D01*
X177306566Y-55867502D01*
X177274777Y-56068214D01*
X177235262Y-56317698D01*
X177199500Y-56772098D01*
X169800500Y-56772098D01*
X169764738Y-56317698D01*
X169693434Y-55867506D01*
X169587029Y-55424295D01*
X169446177Y-54990799D01*
X169424707Y-54938967D01*
X169413560Y-54912057D01*
X169358149Y-54778282D01*
X169338889Y-54731784D01*
X169271748Y-54569691D01*
X169122415Y-54276607D01*
X169103020Y-54238542D01*
X169064824Y-54163576D01*
X169064813Y-54163557D01*
X169064744Y-54163445D01*
X169013927Y-54080520D01*
X168826660Y-53774929D01*
X168590212Y-53449486D01*
X168590212Y-53449485D01*
X168590210Y-53449484D01*
X168558743Y-53406172D01*
X168558735Y-53406162D01*
X168558734Y-53406160D01*
X168558731Y-53406156D01*
X168262728Y-53059583D01*
X167940415Y-52737270D01*
X167593842Y-52441267D01*
X167593838Y-52441264D01*
X167431592Y-52323386D01*
X167386537Y-52290652D01*
X167225071Y-52173340D01*
X166836996Y-51935526D01*
X166836486Y-51935211D01*
X166836415Y-51935170D01*
X166566315Y-51797550D01*
X166530807Y-51779458D01*
X166511104Y-51761718D01*
X166009226Y-51553832D01*
X166009220Y-51553830D01*
X166009218Y-51553829D01*
X166009193Y-51553820D01*
X166009185Y-51553817D01*
X166009170Y-51553812D01*
X165618699Y-51426940D01*
X165609787Y-51421152D01*
X165256240Y-51336274D01*
X165229954Y-51322002D01*
X165132495Y-51306566D01*
X165132498Y-51306566D01*
X164907398Y-51270914D01*
X164907398Y-51270913D01*
X164733733Y-51243408D01*
X164682302Y-51235262D01*
X164227902Y-51199500D01*
X164227894Y-51199500D01*
X163772105Y-51199500D01*
X163772098Y-51199500D01*
X163500386Y-51220884D01*
X163317706Y-51235261D01*
X163317696Y-51235262D01*
X163124757Y-51265820D01*
X163124756Y-51265819D01*
X162867522Y-51306562D01*
X162867500Y-51306566D01*
X162395464Y-51419891D01*
X162390457Y-51423630D01*
X162381299Y-51426940D01*
X161990828Y-51553812D01*
X161990778Y-51553830D01*
X161990772Y-51553832D01*
X161569689Y-51728252D01*
X161163582Y-51935171D01*
X161163569Y-51935179D01*
X160782475Y-52168716D01*
X160774929Y-52173340D01*
X160427018Y-52426111D01*
X160406160Y-52441265D01*
X160406156Y-52441267D01*
X160059583Y-52737270D01*
X159737270Y-53059583D01*
X159441267Y-53406156D01*
X159441265Y-53406160D01*
X159441264Y-53406162D01*
X159441256Y-53406172D01*
X159191089Y-53750500D01*
X159173340Y-53774929D01*
X158935179Y-54163569D01*
X158935171Y-54163582D01*
X158728252Y-54569689D01*
X158553832Y-54990772D01*
X158553830Y-54990778D01*
X158553812Y-54990828D01*
X158426940Y-55381299D01*
X158421153Y-55390209D01*
X158309297Y-55856128D01*
X158306566Y-55867502D01*
X158274777Y-56068214D01*
X158235262Y-56317698D01*
X158199500Y-56772098D01*
X150800500Y-56772098D01*
X150764738Y-56317698D01*
X150693434Y-55867506D01*
X150587029Y-55424295D01*
X150446177Y-54990799D01*
X150424707Y-54938967D01*
X150413560Y-54912057D01*
X150358149Y-54778282D01*
X150338889Y-54731784D01*
X150271748Y-54569691D01*
X150122415Y-54276607D01*
X150103020Y-54238542D01*
X150064824Y-54163576D01*
X150064813Y-54163557D01*
X150064744Y-54163445D01*
X150013927Y-54080520D01*
X149826660Y-53774929D01*
X149590212Y-53449486D01*
X149590212Y-53449485D01*
X149590210Y-53449484D01*
X149558743Y-53406172D01*
X149558735Y-53406162D01*
X149558734Y-53406160D01*
X149558731Y-53406156D01*
X149262728Y-53059583D01*
X148940415Y-52737270D01*
X148593842Y-52441267D01*
X148593838Y-52441264D01*
X148431592Y-52323386D01*
X148386537Y-52290652D01*
X148225071Y-52173340D01*
X147836996Y-51935526D01*
X147836486Y-51935211D01*
X147836415Y-51935170D01*
X147566315Y-51797550D01*
X147530807Y-51779458D01*
X147511104Y-51761718D01*
X147009226Y-51553832D01*
X147009220Y-51553830D01*
X147009218Y-51553829D01*
X147009193Y-51553820D01*
X147009185Y-51553817D01*
X147009170Y-51553812D01*
X146618699Y-51426940D01*
X146609787Y-51421152D01*
X146256240Y-51336274D01*
X146229954Y-51322002D01*
X146132495Y-51306566D01*
X146132498Y-51306566D01*
X145907398Y-51270914D01*
X145907398Y-51270913D01*
X145733733Y-51243408D01*
X145682302Y-51235262D01*
X145227902Y-51199500D01*
X145227894Y-51199500D01*
X144772105Y-51199500D01*
X144772098Y-51199500D01*
X144500386Y-51220884D01*
X144317706Y-51235261D01*
X144317696Y-51235262D01*
X144124757Y-51265820D01*
X144124756Y-51265819D01*
X143867522Y-51306562D01*
X143867500Y-51306566D01*
X143395464Y-51419891D01*
X143390457Y-51423630D01*
X143381299Y-51426940D01*
X142990828Y-51553812D01*
X142990778Y-51553830D01*
X142990772Y-51553832D01*
X142569689Y-51728252D01*
X142163582Y-51935171D01*
X142163569Y-51935179D01*
X141782475Y-52168716D01*
X141774929Y-52173340D01*
X141427018Y-52426111D01*
X141406160Y-52441265D01*
X141406156Y-52441267D01*
X141059583Y-52737270D01*
X140737270Y-53059583D01*
X140441267Y-53406156D01*
X140441265Y-53406160D01*
X140441264Y-53406162D01*
X140441256Y-53406172D01*
X140191089Y-53750500D01*
X140173340Y-53774929D01*
X139935179Y-54163569D01*
X139935171Y-54163582D01*
X139728252Y-54569689D01*
X139553832Y-54990772D01*
X139553830Y-54990778D01*
X139553812Y-54990828D01*
X139426940Y-55381299D01*
X139421153Y-55390209D01*
X139309297Y-55856128D01*
X139306566Y-55867502D01*
X139274777Y-56068214D01*
X139235262Y-56317698D01*
X139199500Y-56772098D01*
X131800500Y-56772098D01*
X131764738Y-56317698D01*
X131693434Y-55867506D01*
X131587029Y-55424295D01*
X131446177Y-54990799D01*
X131424707Y-54938967D01*
X131413560Y-54912057D01*
X131358149Y-54778282D01*
X131338889Y-54731784D01*
X131271748Y-54569691D01*
X131122415Y-54276607D01*
X131103020Y-54238542D01*
X131064824Y-54163576D01*
X131064813Y-54163557D01*
X131064744Y-54163445D01*
X131013927Y-54080520D01*
X130826660Y-53774929D01*
X130590212Y-53449486D01*
X130590212Y-53449485D01*
X130590210Y-53449484D01*
X130558743Y-53406172D01*
X130558735Y-53406162D01*
X130558734Y-53406160D01*
X130558731Y-53406156D01*
X130262728Y-53059583D01*
X129940415Y-52737270D01*
X129593842Y-52441267D01*
X129593838Y-52441264D01*
X129431592Y-52323386D01*
X129386537Y-52290652D01*
X129225071Y-52173340D01*
X128836996Y-51935526D01*
X128836486Y-51935211D01*
X128836415Y-51935170D01*
X128566315Y-51797550D01*
X128530807Y-51779458D01*
X128511104Y-51761718D01*
X128009226Y-51553832D01*
X128009220Y-51553830D01*
X128009218Y-51553829D01*
X128009193Y-51553820D01*
X128009185Y-51553817D01*
X128009170Y-51553812D01*
X127618699Y-51426940D01*
X127609787Y-51421152D01*
X127256240Y-51336274D01*
X127229954Y-51322002D01*
X127132495Y-51306566D01*
X127132498Y-51306566D01*
X126907398Y-51270914D01*
X126907398Y-51270913D01*
X126733733Y-51243408D01*
X126682302Y-51235262D01*
X126227902Y-51199500D01*
X126227894Y-51199500D01*
X125772105Y-51199500D01*
X125772098Y-51199500D01*
X125500386Y-51220884D01*
X125317706Y-51235261D01*
X125317696Y-51235262D01*
X125124757Y-51265820D01*
X125124756Y-51265819D01*
X124867522Y-51306562D01*
X124867500Y-51306566D01*
X124395464Y-51419891D01*
X124390457Y-51423630D01*
X124381299Y-51426940D01*
X123990828Y-51553812D01*
X123990778Y-51553830D01*
X123990772Y-51553832D01*
X123569689Y-51728252D01*
X123163582Y-51935171D01*
X123163569Y-51935179D01*
X122782475Y-52168716D01*
X122774929Y-52173340D01*
X122427018Y-52426111D01*
X122406160Y-52441265D01*
X122406156Y-52441267D01*
X122059583Y-52737270D01*
X121737270Y-53059583D01*
X121441267Y-53406156D01*
X121441265Y-53406160D01*
X121441264Y-53406162D01*
X121441256Y-53406172D01*
X121191089Y-53750500D01*
X121173340Y-53774929D01*
X120935179Y-54163569D01*
X120935171Y-54163582D01*
X120728252Y-54569689D01*
X120553832Y-54990772D01*
X120553830Y-54990778D01*
X120553812Y-54990828D01*
X120426940Y-55381299D01*
X120421153Y-55390209D01*
X120309297Y-55856128D01*
X120306566Y-55867502D01*
X120274777Y-56068214D01*
X120235262Y-56317698D01*
X120199500Y-56772098D01*
X112800500Y-56772098D01*
X112764738Y-56317698D01*
X112693434Y-55867506D01*
X112587029Y-55424295D01*
X112446177Y-54990799D01*
X112424707Y-54938967D01*
X112413560Y-54912057D01*
X112358149Y-54778282D01*
X112338889Y-54731784D01*
X112271748Y-54569691D01*
X112122415Y-54276607D01*
X112103020Y-54238542D01*
X112064824Y-54163576D01*
X112064813Y-54163557D01*
X112064744Y-54163445D01*
X112013927Y-54080520D01*
X111826660Y-53774929D01*
X111590212Y-53449486D01*
X111590212Y-53449485D01*
X111590210Y-53449484D01*
X111558743Y-53406172D01*
X111558735Y-53406162D01*
X111558734Y-53406160D01*
X111558731Y-53406156D01*
X111262728Y-53059583D01*
X110940415Y-52737270D01*
X110593842Y-52441267D01*
X110593838Y-52441264D01*
X110431592Y-52323386D01*
X110386537Y-52290652D01*
X110225071Y-52173340D01*
X109836996Y-51935526D01*
X109836486Y-51935211D01*
X109836415Y-51935170D01*
X109566315Y-51797550D01*
X109530807Y-51779458D01*
X109511104Y-51761718D01*
X109009226Y-51553832D01*
X109009220Y-51553830D01*
X109009218Y-51553829D01*
X109009193Y-51553820D01*
X109009185Y-51553817D01*
X109009170Y-51553812D01*
X108618699Y-51426940D01*
X108609787Y-51421152D01*
X108256240Y-51336274D01*
X108229954Y-51322002D01*
X108132495Y-51306566D01*
X108132498Y-51306566D01*
X107907398Y-51270914D01*
X107907398Y-51270913D01*
X107733733Y-51243408D01*
X107682302Y-51235262D01*
X107227902Y-51199500D01*
X107227894Y-51199500D01*
X106772105Y-51199500D01*
X106772098Y-51199500D01*
X106500386Y-51220884D01*
X106317706Y-51235261D01*
X106317696Y-51235262D01*
X106124757Y-51265820D01*
X106124756Y-51265819D01*
X105867522Y-51306562D01*
X105867500Y-51306566D01*
X105395464Y-51419891D01*
X105390457Y-51423630D01*
X105381299Y-51426940D01*
X104990828Y-51553812D01*
X104990778Y-51553830D01*
X104990772Y-51553832D01*
X104569689Y-51728252D01*
X104163582Y-51935171D01*
X104163569Y-51935179D01*
X103782475Y-52168716D01*
X103774929Y-52173340D01*
X103427018Y-52426111D01*
X103406160Y-52441265D01*
X103406156Y-52441267D01*
X103059583Y-52737270D01*
X102737270Y-53059583D01*
X102441267Y-53406156D01*
X102441265Y-53406160D01*
X102441264Y-53406162D01*
X102441256Y-53406172D01*
X102191089Y-53750500D01*
X102173340Y-53774929D01*
X101935179Y-54163569D01*
X101935171Y-54163582D01*
X101728252Y-54569689D01*
X101553832Y-54990772D01*
X101553830Y-54990778D01*
X101553812Y-54990828D01*
X101426940Y-55381299D01*
X101421153Y-55390209D01*
X101309297Y-55856128D01*
X101306566Y-55867502D01*
X101274777Y-56068214D01*
X101235262Y-56317698D01*
X101199500Y-56772098D01*
X97055499Y-56772098D01*
X97207555Y-56694621D01*
X97207557Y-56694620D01*
X97261716Y-56655270D01*
X97261716Y-56655269D01*
X96779187Y-56172740D01*
X96740624Y-56105946D01*
X96740624Y-56028818D01*
X96779188Y-55962023D01*
X96793059Y-55948151D01*
X96807007Y-55940099D01*
X96900099Y-55847007D01*
X96908151Y-55833059D01*
X96922023Y-55819188D01*
X96939010Y-55809380D01*
X96952881Y-55795510D01*
X96971828Y-55790432D01*
X96988818Y-55780624D01*
X97008433Y-55780624D01*
X97027380Y-55775547D01*
X97046329Y-55780624D01*
X97065946Y-55780624D01*
X97082932Y-55790431D01*
X97101881Y-55795508D01*
X97132741Y-55819188D01*
X97615269Y-56301716D01*
X97615270Y-56301716D01*
X97654620Y-56247557D01*
X97654622Y-56247555D01*
X97751093Y-56058220D01*
X97816757Y-55856128D01*
X97850000Y-55646242D01*
X97850000Y-55433757D01*
X97816757Y-55223871D01*
X97751093Y-55021779D01*
X97751091Y-55021775D01*
X97751090Y-55021772D01*
X97654622Y-54832446D01*
X97654343Y-54832062D01*
X97615270Y-54778282D01*
X97615269Y-54778282D01*
X97132740Y-55260810D01*
X97065945Y-55299374D01*
X96988817Y-55299374D01*
X96922023Y-55260811D01*
X96908150Y-55246938D01*
X96900099Y-55232993D01*
X96807007Y-55139901D01*
X96793057Y-55131847D01*
X96779187Y-55117977D01*
X96769378Y-55100988D01*
X96755510Y-55087121D01*
X96750432Y-55068173D01*
X96740622Y-55051182D01*
X96740622Y-55031566D01*
X96735545Y-55012622D01*
X96740622Y-54993672D01*
X96740622Y-54974054D01*
X96750428Y-54957067D01*
X96755505Y-54938121D01*
X96779182Y-54907262D01*
X97261716Y-54424729D01*
X97261716Y-54424728D01*
X97261716Y-54424727D01*
X97258007Y-54417449D01*
X97242921Y-54404797D01*
X97234921Y-54394919D01*
X97226944Y-54377001D01*
X97222596Y-54371632D01*
X97220648Y-54362861D01*
X97203552Y-54324462D01*
X97211615Y-54247756D01*
X97256949Y-54185358D01*
X97278591Y-54175037D01*
X97281689Y-54171826D01*
X97290840Y-54169196D01*
X97319756Y-54155406D01*
X97325857Y-54154109D01*
X97327547Y-54153751D01*
X97354400Y-54150930D01*
X97355817Y-54150523D01*
X97356547Y-54150704D01*
X97358505Y-54150499D01*
X97394867Y-54150499D01*
X97409941Y-54148750D01*
X97409942Y-54148749D01*
X97419991Y-54147585D01*
X97522765Y-54102206D01*
X97602206Y-54022765D01*
X97647585Y-53919991D01*
X97650500Y-53894865D01*
X97650499Y-52105136D01*
X97647585Y-52080009D01*
X97602206Y-51977235D01*
X97522765Y-51897794D01*
X97522764Y-51897793D01*
X97522763Y-51897792D01*
X97522761Y-51897791D01*
X97420001Y-51852418D01*
X97419992Y-51852415D01*
X97419978Y-51852412D01*
X97419508Y-51852359D01*
X97419175Y-51852320D01*
X97394865Y-51849500D01*
X97394860Y-51849500D01*
X95605135Y-51849500D01*
X95605133Y-51849500D01*
X95599912Y-51850105D01*
X95580011Y-51852413D01*
X95579999Y-51852417D01*
X95477237Y-51897791D01*
X95397791Y-51977237D01*
X95352418Y-52079996D01*
X95352415Y-52080007D01*
X95351641Y-52084777D01*
X95351422Y-52088568D01*
X95349500Y-52105134D01*
X95349500Y-52770929D01*
X95344423Y-52809493D01*
X95340833Y-52822891D01*
X95302269Y-52889686D01*
X95235474Y-52928250D01*
X95158381Y-52928259D01*
X95158347Y-52928250D01*
X95158346Y-52928250D01*
X95158344Y-52928249D01*
X95154791Y-52927298D01*
X95087987Y-52888751D01*
X95068715Y-52869479D01*
X94988878Y-52823386D01*
X94988876Y-52823384D01*
X94931787Y-52790424D01*
X94931784Y-52790423D01*
X94779057Y-52749500D01*
X94620939Y-52749500D01*
X94496599Y-52782817D01*
X94496593Y-52782819D01*
X94468216Y-52790423D01*
X94468214Y-52790423D01*
X94468214Y-52790424D01*
X94442768Y-52805114D01*
X94442763Y-52805117D01*
X94331282Y-52869480D01*
X94331281Y-52869481D01*
X94308776Y-52891987D01*
X94277922Y-52915663D01*
X94253897Y-52929535D01*
X94179397Y-52949500D01*
X93730070Y-52949500D01*
X93691506Y-52944423D01*
X93664710Y-52937243D01*
X93597915Y-52898679D01*
X93568715Y-52869479D01*
X93488878Y-52823386D01*
X93488876Y-52823384D01*
X93431787Y-52790424D01*
X93431784Y-52790423D01*
X93279057Y-52749500D01*
X93120939Y-52749500D01*
X92996599Y-52782817D01*
X92996593Y-52782819D01*
X92968216Y-52790423D01*
X92968214Y-52790423D01*
X92968214Y-52790424D01*
X92942768Y-52805114D01*
X92942763Y-52805117D01*
X92831282Y-52869480D01*
X92719479Y-52981283D01*
X92671862Y-53063760D01*
X92671858Y-53063768D01*
X92668343Y-53069857D01*
X92640423Y-53118216D01*
X92634473Y-53140423D01*
X92631236Y-53152501D01*
X92631234Y-53152507D01*
X92600230Y-53268215D01*
X92599500Y-53270941D01*
X92599500Y-53429058D01*
X92601286Y-53435724D01*
X92602544Y-53440415D01*
X92602545Y-53440424D01*
X92602546Y-53440424D01*
X92640423Y-53581784D01*
X92719480Y-53718716D01*
X92831284Y-53830520D01*
X92968216Y-53909577D01*
X93120943Y-53950500D01*
X93279057Y-53950500D01*
X93431784Y-53909577D01*
X93568716Y-53830520D01*
X93591225Y-53808010D01*
X93622081Y-53784333D01*
X93646110Y-53770460D01*
X93647375Y-53770122D01*
X93720608Y-53750500D01*
X94169930Y-53750500D01*
X94208489Y-53755575D01*
X94235288Y-53762756D01*
X94302081Y-53801318D01*
X94302084Y-53801320D01*
X94331284Y-53830520D01*
X94468216Y-53909577D01*
X94471033Y-53910331D01*
X94506977Y-53925218D01*
X94518988Y-53932153D01*
X94573526Y-53986691D01*
X94593487Y-54061192D01*
X94573528Y-54135684D01*
X94566593Y-54147697D01*
X94542911Y-54178562D01*
X92021451Y-56700021D01*
X91998886Y-56718542D01*
X91957081Y-56746482D01*
X91948786Y-56751640D01*
X91831284Y-56819478D01*
X91719479Y-56931283D01*
X91640431Y-57068200D01*
X91640429Y-57068203D01*
X91640423Y-57068216D01*
X91640420Y-57068222D01*
X91632976Y-57096003D01*
X91632977Y-57096004D01*
X91599500Y-57220940D01*
X85048706Y-57220940D01*
X85118716Y-57180520D01*
X85230520Y-57068716D01*
X85309577Y-56931784D01*
X85350500Y-56779057D01*
X85350500Y-56620943D01*
X85309577Y-56468216D01*
X85230520Y-56331284D01*
X85208012Y-56308776D01*
X85184332Y-56277915D01*
X85170461Y-56253889D01*
X85167495Y-56242819D01*
X85150500Y-56179391D01*
X85150500Y-54030070D01*
X85155576Y-53991511D01*
X85158912Y-53979058D01*
X85162756Y-53964713D01*
X85201317Y-53897919D01*
X85204813Y-53894423D01*
X85230520Y-53868716D01*
X85309577Y-53731784D01*
X85350500Y-53579057D01*
X85350500Y-53420943D01*
X85309577Y-53268216D01*
X85230520Y-53131284D01*
X85118716Y-53019480D01*
X84981784Y-52940423D01*
X84829057Y-52899500D01*
X84670939Y-52899500D01*
X84546599Y-52932817D01*
X84546593Y-52932819D01*
X84518216Y-52940423D01*
X84518214Y-52940423D01*
X84518214Y-52940424D01*
X84492768Y-52955114D01*
X84492763Y-52955117D01*
X84381282Y-53019480D01*
X84269479Y-53131283D01*
X84196909Y-53256979D01*
X84196910Y-53256980D01*
X84190423Y-53268214D01*
X84190422Y-53268219D01*
X84189910Y-53270130D01*
X84175028Y-53306053D01*
X84166235Y-53321283D01*
X84111705Y-53375816D01*
X84105267Y-53379533D01*
X84030770Y-53399500D01*
X83970939Y-53399500D01*
X83846599Y-53432817D01*
X83846593Y-53432819D01*
X83818216Y-53440423D01*
X83818214Y-53440423D01*
X83818214Y-53440424D01*
X83792768Y-53455114D01*
X83792763Y-53455117D01*
X83681282Y-53519480D01*
X83569479Y-53631283D01*
X83513976Y-53727419D01*
X83513969Y-53727431D01*
X83511457Y-53731784D01*
X83490423Y-53768216D01*
X83486158Y-53784133D01*
X83479764Y-53797170D01*
X83477753Y-53799472D01*
X83475024Y-53806061D01*
X83466231Y-53821289D01*
X83411721Y-53875806D01*
X83405284Y-53879524D01*
X83330788Y-53899500D01*
X83320939Y-53899500D01*
X83196599Y-53932817D01*
X83196593Y-53932819D01*
X83168216Y-53940423D01*
X83168214Y-53940423D01*
X83168214Y-53940424D01*
X83142768Y-53955114D01*
X83142763Y-53955117D01*
X83031282Y-54019480D01*
X82919479Y-54131283D01*
X82869253Y-54218279D01*
X82869253Y-54218280D01*
X82841429Y-54266474D01*
X82840421Y-54268220D01*
X82840420Y-54268222D01*
X82830657Y-54304662D01*
X82830657Y-54304663D01*
X82799500Y-54420940D01*
X82799500Y-54579061D01*
X82810465Y-54619980D01*
X82840424Y-54731786D01*
X82898317Y-54832062D01*
X82902804Y-54840438D01*
X82930091Y-54895540D01*
X82931883Y-54904472D01*
X82934082Y-54908009D01*
X82935208Y-54907543D01*
X82938154Y-54914654D01*
X82938429Y-54916037D01*
X82938639Y-54916655D01*
X82938557Y-54916682D01*
X82949500Y-54971683D01*
X82949500Y-55180883D01*
X82944422Y-55219452D01*
X82940276Y-55234923D01*
X82901709Y-55301716D01*
X82834925Y-55340275D01*
X82819455Y-55344421D01*
X82780884Y-55349500D01*
X77267937Y-55349500D01*
X77229373Y-55344423D01*
X77202577Y-55337243D01*
X77135782Y-55298679D01*
X75508012Y-53670909D01*
X75484332Y-53640048D01*
X75470461Y-53616022D01*
X75463815Y-53591217D01*
X75450500Y-53541524D01*
X75450500Y-52540693D01*
X75450500Y-52540691D01*
X75444819Y-52519491D01*
X75443788Y-52515640D01*
X75434768Y-52481977D01*
X78399500Y-52481977D01*
X78399500Y-52718021D01*
X78430302Y-52951989D01*
X78430445Y-52952847D01*
X78431322Y-52955804D01*
X78446473Y-53012346D01*
X78487772Y-53166477D01*
X78487773Y-53166479D01*
X78487772Y-53166479D01*
X78491393Y-53179992D01*
X78491394Y-53179995D01*
X78527936Y-53268214D01*
X78527936Y-53268215D01*
X78569356Y-53368212D01*
X78581717Y-53398052D01*
X78581718Y-53398055D01*
X78638026Y-53495581D01*
X78658639Y-53531284D01*
X78693241Y-53591217D01*
X78699727Y-53602450D01*
X78843408Y-53789699D01*
X79010301Y-53956592D01*
X79197550Y-54100273D01*
X79279495Y-54147584D01*
X79401943Y-54218280D01*
X79401946Y-54218281D01*
X79402201Y-54218428D01*
X79403997Y-54219204D01*
X79404553Y-54219454D01*
X79406797Y-54220291D01*
X79620007Y-54308606D01*
X79833825Y-54365898D01*
X79833826Y-54365899D01*
X79840474Y-54367680D01*
X79847986Y-54369693D01*
X79847991Y-54369693D01*
X79847992Y-54369693D01*
X79847993Y-54369694D01*
X79893135Y-54375637D01*
X80081989Y-54400500D01*
X80318011Y-54400500D01*
X80552014Y-54369693D01*
X80779993Y-54308606D01*
X80998049Y-54218284D01*
X80999113Y-54217670D01*
X81008124Y-54212467D01*
X81202450Y-54100273D01*
X81389699Y-53956592D01*
X81556592Y-53789699D01*
X81700273Y-53602450D01*
X81818284Y-53398049D01*
X81908606Y-53179993D01*
X81969693Y-52952014D01*
X82000500Y-52718011D01*
X82000500Y-52481989D01*
X81969693Y-52247986D01*
X81908606Y-52020007D01*
X81818284Y-51801951D01*
X81818281Y-51801946D01*
X81818280Y-51801943D01*
X81747992Y-51680202D01*
X81700273Y-51597550D01*
X81556592Y-51410301D01*
X81389699Y-51243408D01*
X81202450Y-51099727D01*
X81202445Y-51099723D01*
X81176013Y-51084463D01*
X80998063Y-50981722D01*
X80994393Y-50980202D01*
X80779996Y-50891395D01*
X80779994Y-50891394D01*
X80779993Y-50891394D01*
X80772598Y-50889412D01*
X80772588Y-50889409D01*
X80555805Y-50831322D01*
X80552848Y-50830445D01*
X80551989Y-50830302D01*
X80318021Y-50799500D01*
X80318016Y-50799500D01*
X80318011Y-50799500D01*
X80081989Y-50799500D01*
X80081983Y-50799500D01*
X80081977Y-50799500D01*
X79848000Y-50830303D01*
X79619998Y-50891396D01*
X79619994Y-50891397D01*
X79401946Y-50981717D01*
X79197553Y-51099724D01*
X79197550Y-51099727D01*
X79012082Y-51242040D01*
X79010464Y-51243243D01*
X78843242Y-51410465D01*
X78842053Y-51412065D01*
X78774964Y-51499499D01*
X78774963Y-51499500D01*
X78699725Y-51597551D01*
X78581717Y-51801946D01*
X78491397Y-52019994D01*
X78491396Y-52019998D01*
X78430303Y-52248000D01*
X78399500Y-52481977D01*
X75434768Y-52481977D01*
X75424388Y-52443240D01*
X75424388Y-52443239D01*
X75419799Y-52426112D01*
X75365339Y-52331785D01*
X75360490Y-52323386D01*
X75216161Y-52179057D01*
X74776614Y-51739511D01*
X74776611Y-51739509D01*
X74776607Y-51739506D01*
X74673890Y-51680202D01*
X74673887Y-51680201D01*
X74649673Y-51673713D01*
X74634829Y-51669735D01*
X74634828Y-51669735D01*
X74559309Y-51649500D01*
X71978033Y-51649500D01*
X71939470Y-51644423D01*
X71907004Y-51635724D01*
X71871063Y-51620835D01*
X71868731Y-51619488D01*
X71868716Y-51619480D01*
X71731784Y-51540423D01*
X71579057Y-51499500D01*
X71420939Y-51499500D01*
X71296599Y-51532817D01*
X71296593Y-51532819D01*
X71268216Y-51540423D01*
X71268214Y-51540423D01*
X71268214Y-51540424D01*
X71242768Y-51555114D01*
X71242763Y-51555117D01*
X71131282Y-51619480D01*
X71019479Y-51731283D01*
X70949545Y-51852416D01*
X70949544Y-51852418D01*
X70940423Y-51868215D01*
X70940421Y-51868220D01*
X70932808Y-51896630D01*
X70932784Y-51896723D01*
X70932498Y-51897793D01*
X70899500Y-52020941D01*
X68662482Y-52020941D01*
X68700500Y-51879057D01*
X68700500Y-51720943D01*
X68659577Y-51568216D01*
X68580520Y-51431284D01*
X68468716Y-51319480D01*
X68331784Y-51240423D01*
X68179057Y-51199500D01*
X68027346Y-51199500D01*
X68007889Y-51198224D01*
X67977231Y-51194186D01*
X67913900Y-51170345D01*
X67906650Y-51165500D01*
X67884080Y-51146976D01*
X67776626Y-51039523D01*
X67776616Y-51039513D01*
X67776614Y-51039511D01*
X67776611Y-51039509D01*
X67776607Y-51039506D01*
X67673890Y-50980202D01*
X67673889Y-50980201D01*
X67673888Y-50980201D01*
X67673874Y-50980197D01*
X67649674Y-50973713D01*
X67649672Y-50973712D01*
X67559309Y-50949500D01*
X66640687Y-50949500D01*
X66526115Y-50980199D01*
X66423388Y-51039508D01*
X64639508Y-52823388D01*
X64581018Y-52924697D01*
X64580901Y-52924899D01*
X64580900Y-52924900D01*
X64580201Y-52926113D01*
X64579106Y-52930201D01*
X64549500Y-53040691D01*
X64549500Y-53139379D01*
X64547928Y-53150117D01*
X64542649Y-53162355D01*
X64538368Y-53183496D01*
X64538612Y-53183580D01*
X64537976Y-53185430D01*
X64537758Y-53186509D01*
X64536945Y-53188433D01*
X64535722Y-53192998D01*
X64520839Y-53228928D01*
X64493922Y-53275551D01*
X64442821Y-53364062D01*
X64440909Y-53367140D01*
X64440424Y-53368212D01*
X64423992Y-53429537D01*
X64399501Y-53520939D01*
X64399500Y-53520941D01*
X61200000Y-53520941D01*
X61200000Y-50369116D01*
X61205076Y-50330556D01*
X61209221Y-50315085D01*
X61247783Y-50248289D01*
X61314575Y-50209723D01*
X61330056Y-50205576D01*
X61368616Y-50200500D01*
X214630884Y-50200500D01*
X214669447Y-50205577D01*
G37*
%TD.AperFunction*%
%TD*%
%TA.AperFunction,Conductor*%
%TO.N,VBUS*%
G36*
X207846288Y-93518954D02*
G01*
X207927070Y-93572930D01*
X207981046Y-93653712D01*
X208000000Y-93749000D01*
X208000000Y-111251000D01*
X207981046Y-111346288D01*
X207927070Y-111427070D01*
X207846288Y-111481046D01*
X207751000Y-111500000D01*
X97249000Y-111500000D01*
X97153712Y-111481046D01*
X97072930Y-111427070D01*
X97018954Y-111346288D01*
X97000000Y-111251000D01*
X97000000Y-93749000D01*
X97018954Y-93653712D01*
X97072930Y-93572930D01*
X97153712Y-93518954D01*
X97249000Y-93500000D01*
X207751000Y-93500000D01*
X207846288Y-93518954D01*
G37*
%TD.AperFunction*%
%TD*%
D25*
X55000000Y-88000000D03*
X58000000Y-97000000D03*
X67000000Y-73000000D03*
X64000000Y-100000000D03*
X55000000Y-85000000D03*
X80450000Y-63200000D03*
X79075000Y-66000000D03*
X85000000Y-91000000D03*
X115100000Y-65300000D03*
X94000000Y-88000000D03*
X82000000Y-73000000D03*
X88000000Y-100000000D03*
X172100000Y-65300000D03*
X79000000Y-97000000D03*
X172900000Y-58892500D03*
X92062500Y-52300000D03*
X94000000Y-97000000D03*
X192200000Y-65300000D03*
X85000000Y-97000000D03*
X85000000Y-67000000D03*
X55000000Y-97000000D03*
X88000000Y-97000000D03*
X79000000Y-82000000D03*
X88000000Y-94000000D03*
X88000000Y-82000000D03*
X61000000Y-97000000D03*
X55000000Y-100000000D03*
X88000000Y-91000000D03*
X73000000Y-85000000D03*
X70000000Y-73000000D03*
X82000000Y-76000000D03*
X185600000Y-63000000D03*
X58000000Y-100000000D03*
X70000000Y-94000000D03*
X153100000Y-65300000D03*
X70000000Y-76000000D03*
X82000000Y-94000000D03*
X88000000Y-85000000D03*
X73000000Y-61000000D03*
X67000000Y-100000000D03*
X55000000Y-76000000D03*
X79000000Y-70000000D03*
X115900000Y-58892500D03*
X67000000Y-55000000D03*
X204600000Y-63000000D03*
X91000000Y-73000000D03*
X70000000Y-100000000D03*
X88000000Y-88000000D03*
X82000000Y-97000000D03*
X82000000Y-79000000D03*
X64000000Y-94000000D03*
X61000000Y-100000000D03*
X94000000Y-94000000D03*
X67000000Y-94000000D03*
X67000000Y-82000000D03*
X94000000Y-91000000D03*
X94000000Y-85000000D03*
X79000000Y-91000000D03*
X94000000Y-79000000D03*
X79000000Y-94000000D03*
X191900000Y-58892500D03*
X64000000Y-82000000D03*
X91000000Y-55000000D03*
X94000000Y-73000000D03*
X64000000Y-58000000D03*
X82000000Y-100000000D03*
X91000000Y-70000000D03*
X153900000Y-58892500D03*
X67000000Y-64000000D03*
X70000000Y-85000000D03*
X85000000Y-94000000D03*
X79000000Y-100000000D03*
X91000000Y-91000000D03*
X76000000Y-85000000D03*
X64000000Y-97000000D03*
X128600000Y-63000000D03*
X91000000Y-100000000D03*
X109600000Y-63000000D03*
X85000000Y-100000000D03*
X76000000Y-94000000D03*
X94000000Y-100000000D03*
X58000000Y-76000000D03*
X64000000Y-64000000D03*
X210900000Y-58892500D03*
X74000000Y-69750000D03*
X91000000Y-97000000D03*
X64000000Y-67000000D03*
X76000000Y-76000000D03*
X76000000Y-100000000D03*
X91000000Y-94000000D03*
X166600000Y-63000000D03*
X94000000Y-82000000D03*
X94000000Y-70000000D03*
X85000000Y-62142500D03*
X64000000Y-85000000D03*
X73000000Y-97000000D03*
X94000000Y-76000000D03*
X79000000Y-76000000D03*
X82000000Y-91000000D03*
X82500000Y-65624999D03*
X73000000Y-100000000D03*
X61000000Y-88000000D03*
X73000000Y-88000000D03*
X134100000Y-65300000D03*
X147600000Y-63000000D03*
X134900000Y-58892500D03*
X64000000Y-79000000D03*
X65300000Y-71900000D03*
X76000000Y-72400000D03*
X72700000Y-72400000D03*
X62900000Y-71100000D03*
X156600000Y-68600000D03*
X62750000Y-72250000D03*
X118600000Y-68600000D03*
X76100000Y-68900000D03*
X74100000Y-76500000D03*
X76100000Y-59500000D03*
X77300000Y-64700000D03*
X93000000Y-61200000D03*
X191100000Y-68600000D03*
X64950000Y-74450000D03*
X82500000Y-68600000D03*
X80000000Y-57100000D03*
D26*
X89200000Y-62400000D03*
D25*
X213600000Y-68600000D03*
X86200000Y-58300000D03*
X83700000Y-58300000D03*
X92200000Y-57300000D03*
X85700000Y-60900000D03*
X81400000Y-58500000D03*
X78400000Y-63600000D03*
X73300000Y-77300000D03*
X210100000Y-68600000D03*
X137600000Y-68600000D03*
X135200000Y-68600000D03*
X90600000Y-62200000D03*
X175600000Y-68600000D03*
X86500000Y-64060000D03*
X76100000Y-71100000D03*
X194600000Y-68600000D03*
X78100000Y-59800000D03*
X74200000Y-52900000D03*
X66700000Y-53900000D03*
X68100000Y-53900000D03*
X84750000Y-56700000D03*
X84750000Y-53500000D03*
X75300000Y-62600000D03*
X77300000Y-62600000D03*
X88700000Y-64060000D03*
X135800000Y-67800000D03*
X82900000Y-63100000D03*
X67000000Y-52200000D03*
X173800000Y-67800000D03*
X211800000Y-67800000D03*
X75000000Y-57100000D03*
X116800000Y-67800000D03*
X69600000Y-53700000D03*
X192800000Y-67800000D03*
X154800000Y-67800000D03*
X136400000Y-66200000D03*
X117400000Y-66200000D03*
X84100000Y-60100000D03*
X93100000Y-64060000D03*
X154200000Y-66200000D03*
X76100000Y-61800000D03*
X174400000Y-66200000D03*
X79900000Y-59600000D03*
X193400000Y-66200000D03*
X78100000Y-61000000D03*
X155400000Y-66200000D03*
X212400000Y-66200000D03*
X83300000Y-63800000D03*
X173200000Y-67000000D03*
X194000000Y-67000000D03*
X118000000Y-67000000D03*
X175000000Y-67000000D03*
X137000000Y-67000000D03*
X156000000Y-67000000D03*
X74100000Y-71600000D03*
X90900000Y-64060000D03*
X213000000Y-67000000D03*
X67000000Y-70300000D03*
X94700000Y-53350000D03*
X75300000Y-56400000D03*
X84050000Y-54000000D03*
X93200000Y-53350000D03*
X71500000Y-52100000D03*
X83400000Y-54500000D03*
X70000000Y-52900000D03*
X63900000Y-71100000D03*
X63900000Y-68400000D03*
X59400000Y-83500000D03*
X68100000Y-56300000D03*
D26*
X58045000Y-84250000D03*
X58045000Y-84750000D03*
D25*
X56800000Y-84800000D03*
X62100000Y-68400000D03*
X65000000Y-53600000D03*
X62100000Y-74700000D03*
X68100000Y-51800000D03*
X87400000Y-77200000D03*
X85900000Y-77900000D03*
D26*
X58045000Y-82750000D03*
D25*
X59200000Y-82700000D03*
X59200000Y-85800000D03*
D26*
X58045000Y-85750000D03*
D25*
X58045000Y-86450000D03*
X62500000Y-77200000D03*
X61300000Y-78800000D03*
X61300000Y-84800000D03*
X58800000Y-88100000D03*
D27*
X58000000Y-107000000D03*
X183000000Y-57000000D03*
D25*
X67650000Y-61140000D03*
X68750000Y-61140000D03*
X67100000Y-60590000D03*
X68200000Y-60590000D03*
X69300000Y-60590000D03*
X67650000Y-60040000D03*
X68750000Y-60040000D03*
X67100000Y-59490000D03*
X68200000Y-59490000D03*
X69300000Y-59490000D03*
X67650000Y-58940000D03*
X68750000Y-58940000D03*
D27*
X124300000Y-95750000D03*
X127700000Y-95750000D03*
X124300000Y-82250000D03*
X127700000Y-82250000D03*
X151000000Y-105800000D03*
X80200000Y-52600000D03*
X143300000Y-95750000D03*
X146700000Y-95750000D03*
X143300000Y-82250000D03*
X146700000Y-82250000D03*
X52300000Y-93000000D03*
X211000000Y-52800000D03*
X211000000Y-111200000D03*
X107000000Y-57000000D03*
X96500000Y-53000000D03*
X96500000Y-55540000D03*
X96500000Y-58080000D03*
X96500000Y-60620000D03*
X202000000Y-57000000D03*
X105300000Y-95750000D03*
X108700000Y-95750000D03*
X105300000Y-82250000D03*
X108700000Y-82250000D03*
X56600000Y-81110000D03*
X56600000Y-86890000D03*
D28*
X57130000Y-79680000D03*
D29*
X52950000Y-79680000D03*
D28*
X57130000Y-88320000D03*
D29*
X52950000Y-88320000D03*
D27*
X164000000Y-57000000D03*
X162300000Y-95750000D03*
X165700000Y-95750000D03*
X162300000Y-82250000D03*
X165700000Y-82250000D03*
X145000000Y-57000000D03*
X200300000Y-95750000D03*
X203700000Y-95750000D03*
X200300000Y-82250000D03*
X203700000Y-82250000D03*
X181300000Y-95750000D03*
X184700000Y-95750000D03*
X181300000Y-82250000D03*
X184700000Y-82250000D03*
X126000000Y-57000000D03*
M02*
