M48
; DRILL file KiCad 10.0.4-10.0.4~ubuntu24.04.1 date 2026-07-19T08:21:53
; FORMAT={-:-/ absolute / metric / decimal}
; #@! TF.CreationDate,2026-07-19T08:21:53-07:00
; #@! TF.GenerationSoftware,Kicad,Pcbnew,10.0.4-10.0.4~ubuntu24.04.1
; #@! TF.FileFunction,Plated,1,2,PTH
FMAT,2
METRIC
; #@! TA.AperFunction,Plated,PTH,ViaDrill
T1C0.200
; #@! TA.AperFunction,Plated,PTH,ViaDrill
T2C0.300
; #@! TA.AperFunction,Plated,PTH,ComponentDrill
T3C0.300
; #@! TA.AperFunction,Plated,PTH,ComponentDrill
T4C0.600
; #@! TA.AperFunction,Plated,PTH,ComponentDrill
T5C1.000
; #@! TA.AperFunction,Plated,PTH,ComponentDrill
T6C1.700
; #@! TA.AperFunction,Plated,PTH,ComponentDrill
T7C4.300
; #@! TA.AperFunction,Plated,PTH,ComponentDrill
T8C5.300
%
G90
G05
T1
X58.045Y-82.75
X58.045Y-83.75
X58.045Y-84.75
X58.045Y-85.75
T2
X55.0Y-76.0
X55.0Y-79.0
X55.0Y-82.0
X55.0Y-85.0
X55.0Y-88.0
X55.0Y-97.0
X55.0Y-100.0
X58.0Y-76.0
X58.0Y-86.412
X58.0Y-97.0
X58.0Y-100.0
X59.2Y-82.7
X59.2Y-85.8
X59.3Y-83.8
X59.3Y-86.7
X60.3Y-80.5
X60.357Y-77.1
X61.0Y-88.0
X61.0Y-97.0
X61.0Y-100.0
X61.25Y-79.65
X61.4Y-78.35
X61.7Y-68.4
X61.7Y-75.1
X62.5Y-68.5
X62.5Y-77.2
X63.3Y-68.4
X63.3Y-75.4
X64.0Y-55.0
X64.0Y-58.0
X64.0Y-61.0
X64.0Y-64.0
X64.0Y-82.0
X64.0Y-85.0
X64.0Y-94.0
X64.0Y-97.0
X64.0Y-100.0
X64.15Y-73.4
X64.7Y-68.4
X64.7Y-71.6
X65.5Y-50.55
X65.5Y-51.75
X65.6Y-56.1
X66.3Y-55.3
X66.8Y-67.6
X66.8Y-68.8
X66.8Y-90.0
X67.0Y-82.0
X67.0Y-85.0
X67.0Y-94.0
X67.0Y-100.0
X67.3Y-54.3
X67.9Y-54.9
X68.4Y-68.9
X68.4Y-90.0
X68.7Y-67.0
X69.7Y-62.1
X70.0Y-55.0
X70.0Y-69.6
X70.0Y-76.0
X70.0Y-82.0
X70.0Y-100.0
X71.0Y-67.15
X71.0Y-68.8
X71.3Y-60.3
X71.95Y-60.8
X72.8Y-59.95
X73.0Y-64.0
X73.0Y-85.0
X73.0Y-88.0
X73.0Y-97.0
X73.0Y-100.0
X73.1Y-81.2
X73.3Y-77.9
X73.6Y-92.3
X74.1Y-56.4
X74.15Y-71.4
X74.2Y-57.5
X74.3Y-80.0
X74.45Y-72.35
X74.6Y-79.4
X74.7Y-68.4
X74.7Y-91.2
X74.87Y-72.85
X75.0Y-81.587
X75.1Y-83.2
X75.8Y-53.1
X75.85Y-71.4
X76.0Y-70.0
X76.0Y-76.0
X76.0Y-86.9
X76.0Y-94.0
X76.0Y-100.0
X76.3Y-82.0
X76.412Y-62.905
X76.95Y-59.2
X77.0Y-71.5
X77.1Y-85.8
X77.9Y-51.65
X77.9Y-58.85
X77.9Y-87.8
X78.15Y-62.25
X78.55Y-56.95
X79.0Y-55.0
X79.0Y-76.0
X79.0Y-82.0
X79.0Y-91.0
X79.0Y-97.0
X79.0Y-100.0
X79.4Y-87.3
X79.45Y-63.55
X80.4Y-64.2
X80.9Y-60.4
X81.3Y-62.8
X82.0Y-55.0
X82.0Y-67.0
X82.0Y-73.0
X82.0Y-76.0
X82.0Y-79.0
X82.0Y-94.0
X82.0Y-100.0
X82.1Y-62.3
X82.4Y-59.75
X82.9Y-53.4
X83.0Y-64.2
X84.2Y-57.55
X84.6Y-77.2
X84.7Y-69.6
X84.9Y-82.8
X85.0Y-62.142
X85.0Y-91.0
X85.0Y-97.0
X85.7Y-60.9
X86.1Y-78.0
X86.1Y-79.3
X86.3Y-70.5
X86.5Y-64.06
X87.4Y-77.2
X87.7Y-82.8
X88.0Y-55.0
X88.0Y-85.0
X88.0Y-88.0
X88.0Y-91.0
X88.0Y-94.0
X88.5Y-58.9
X88.7Y-64.06
X89.0Y-77.2
X89.3Y-76.4
X90.9Y-64.06
X91.0Y-70.0
X91.0Y-73.0
X91.0Y-91.0
X91.0Y-94.0
X91.0Y-97.0
X92.7Y-52.8
X92.7Y-54.5
X93.1Y-64.06
X94.0Y-70.0
X94.0Y-73.0
X94.0Y-76.0
X94.0Y-79.0
X94.0Y-82.0
X94.0Y-85.0
X94.0Y-88.0
X94.0Y-91.0
X94.0Y-94.0
X94.0Y-97.0
X94.5Y-56.4
X95.557Y-71.5
X109.6Y-63.0
X115.1Y-65.3
X115.9Y-58.892
X116.8Y-67.8
X117.4Y-66.2
X118.0Y-67.0
X118.6Y-68.6
X128.6Y-63.0
X134.1Y-65.3
X134.9Y-58.892
X135.2Y-68.6
X135.8Y-67.8
X136.4Y-66.2
X137.0Y-67.0
X137.6Y-68.6
X147.6Y-63.0
X153.1Y-65.3
X153.9Y-58.892
X154.2Y-66.2
X154.8Y-67.8
X155.4Y-66.2
X156.0Y-67.0
X156.6Y-68.6
X166.6Y-63.0
X172.1Y-65.3
X172.9Y-58.892
X173.2Y-67.0
X173.8Y-67.8
X174.4Y-66.2
X175.0Y-67.0
X175.6Y-68.6
X185.6Y-63.0
X191.1Y-68.6
X191.9Y-58.892
X192.2Y-65.3
X192.8Y-67.8
X193.4Y-66.2
X194.0Y-67.0
X194.6Y-68.6
X204.6Y-63.0
X210.1Y-68.6
X210.9Y-58.892
X211.8Y-67.8
X212.4Y-66.2
X213.0Y-67.0
X213.6Y-68.6
T3
X67.1Y-59.49
X67.1Y-60.59
X67.65Y-58.94
X67.65Y-60.04
X67.65Y-61.14
X68.2Y-59.49
X68.2Y-60.59
X68.75Y-58.94
X68.75Y-60.04
X68.75Y-61.14
X69.3Y-59.49
X69.3Y-60.59
T5
X86.0Y-100.5
X88.54Y-100.5
X91.08Y-100.5
X93.62Y-100.5
T6
X105.3Y-82.25
X105.3Y-95.75
X108.7Y-82.25
X108.7Y-95.75
X124.3Y-82.25
X124.3Y-95.75
X127.7Y-82.25
X127.7Y-95.75
X143.3Y-82.25
X143.3Y-95.75
X146.7Y-82.25
X146.7Y-95.75
X162.3Y-82.25
X162.3Y-95.75
X165.7Y-82.25
X165.7Y-95.75
X181.3Y-82.25
X181.3Y-95.75
X184.7Y-82.25
X184.7Y-95.75
X200.3Y-82.25
X200.3Y-95.75
X203.7Y-82.25
X203.7Y-95.75
T7
X58.0Y-107.0
X107.0Y-57.0
X126.0Y-57.0
X145.0Y-57.0
X164.0Y-57.0
X183.0Y-57.0
X202.0Y-57.0
T8
X151.0Y-105.8
T4
G00X53.25Y-79.68
M15
G01X52.65Y-79.68
M16
G05
G00X53.25Y-88.32
M15
G01X52.65Y-88.32
M16
G05
G00X57.68Y-79.68
M15
G01X56.58Y-79.68
M16
G05
G00X57.68Y-88.32
M15
G01X56.58Y-88.32
M16
G05
M30
