%TF.GenerationSoftware,KiCad,Pcbnew,10.0.4-10.0.4~ubuntu24.04.1*%
%TF.CreationDate,2026-07-19T09:07:15-07:00*%
%TF.ProjectId,ble_bus_bar,626c655f-6275-4735-9f62-61722e6b6963,rev?*%
%TF.SameCoordinates,Original*%
%TF.FileFunction,Paste,Top*%
%TF.FilePolarity,Positive*%
%FSLAX46Y46*%
G04 Gerber Fmt 4.6, Leading zero omitted, Abs format (unit mm)*
G04 Created by KiCad (PCBNEW 10.0.4-10.0.4~ubuntu24.04.1) date 2026-07-19 09:07:15*
%MOMM*%
%LPD*%
G01*
G04 APERTURE LIST*
G04 Aperture macros list*
%AMRoundRect*
0 Rectangle with rounded corners*
0 $1 Rounding radius*
0 $2 $3 $4 $5 $6 $7 $8 $9 X,Y pos of 4 corners*
0 Add a 4 corners polygon primitive as box body*
4,1,4,$2,$3,$4,$5,$6,$7,$8,$9,$2,$3,0*
0 Add four circle primitives for the rounded corners*
1,1,$1+$1,$2,$3*
1,1,$1+$1,$4,$5*
1,1,$1+$1,$6,$7*
1,1,$1+$1,$8,$9*
0 Add four rect primitives between the rounded corners*
20,1,$1+$1,$2,$3,$4,$5,0*
20,1,$1+$1,$4,$5,$6,$7,0*
20,1,$1+$1,$6,$7,$8,$9,0*
20,1,$1+$1,$8,$9,$2,$3,0*%
G04 Aperture macros list end*
%ADD10RoundRect,0.250000X0.450000X-0.262500X0.450000X0.262500X-0.450000X0.262500X-0.450000X-0.262500X0*%
%ADD11RoundRect,0.250000X-0.262500X-0.450000X0.262500X-0.450000X0.262500X0.450000X-0.262500X0.450000X0*%
%ADD12RoundRect,0.375000X-0.625000X-0.375000X0.625000X-0.375000X0.625000X0.375000X-0.625000X0.375000X0*%
%ADD13RoundRect,0.500000X-0.500000X-1.400000X0.500000X-1.400000X0.500000X1.400000X-0.500000X1.400000X0*%
%ADD14RoundRect,0.162500X-0.650000X-0.162500X0.650000X-0.162500X0.650000X0.162500X-0.650000X0.162500X0*%
%ADD15R,5.710000X2.690000*%
%ADD16RoundRect,0.250000X-0.250000X-0.475000X0.250000X-0.475000X0.250000X0.475000X-0.250000X0.475000X0*%
%ADD17RoundRect,0.250000X-0.325000X-0.650000X0.325000X-0.650000X0.325000X0.650000X-0.325000X0.650000X0*%
%ADD18RoundRect,0.087500X0.662500X0.087500X-0.662500X0.087500X-0.662500X-0.087500X0.662500X-0.087500X0*%
%ADD19RoundRect,0.243750X-0.243750X-0.456250X0.243750X-0.456250X0.243750X0.456250X-0.243750X0.456250X0*%
%ADD20RoundRect,0.150000X-0.512500X-0.150000X0.512500X-0.150000X0.512500X0.150000X-0.512500X0.150000X0*%
%ADD21RoundRect,0.250000X0.475000X-0.250000X0.475000X0.250000X-0.475000X0.250000X-0.475000X-0.250000X0*%
%ADD22RoundRect,0.150000X-0.575000X0.150000X-0.575000X-0.150000X0.575000X-0.150000X0.575000X0.150000X0*%
%ADD23RoundRect,0.075000X-0.650000X0.075000X-0.650000X-0.075000X0.650000X-0.075000X0.650000X0.075000X0*%
%ADD24RoundRect,0.250000X0.650000X-0.325000X0.650000X0.325000X-0.650000X0.325000X-0.650000X-0.325000X0*%
%ADD25RoundRect,0.225000X-0.225000X-0.375000X0.225000X-0.375000X0.225000X0.375000X-0.225000X0.375000X0*%
%ADD26R,0.700000X0.700000*%
%ADD27R,0.900000X1.500000*%
%ADD28RoundRect,0.250000X1.100000X-0.325000X1.100000X0.325000X-1.100000X0.325000X-1.100000X-0.325000X0*%
%ADD29RoundRect,0.250000X0.625000X-0.375000X0.625000X0.375000X-0.625000X0.375000X-0.625000X-0.375000X0*%
%ADD30RoundRect,0.250000X-0.600000X-2.600000X0.600000X-2.600000X0.600000X2.600000X-0.600000X2.600000X0*%
%ADD31RoundRect,0.250000X-1.000000X-0.650000X1.000000X-0.650000X1.000000X0.650000X-1.000000X0.650000X0*%
%ADD32RoundRect,0.250000X1.400000X1.000000X-1.400000X1.000000X-1.400000X-1.000000X1.400000X-1.000000X0*%
%ADD33R,1.000000X0.750000*%
%ADD34RoundRect,0.250000X-1.000000X-0.900000X1.000000X-0.900000X1.000000X0.900000X-1.000000X0.900000X0*%
G04 APERTURE END LIST*
D10*
%TO.C,RN6*%
X208900000Y-72412500D03*
X208900000Y-70587500D03*
%TD*%
D11*
%TO.C,R29*%
X94887500Y-60700000D03*
X96712500Y-60700000D03*
%TD*%
D12*
%TO.C,U9*%
X62850000Y-87700000D03*
X62850000Y-90000000D03*
D13*
X69150000Y-90000000D03*
D12*
X62850000Y-92300000D03*
%TD*%
D14*
%TO.C,U11*%
X76412500Y-59095000D03*
X76412500Y-60365000D03*
X76412500Y-61635000D03*
X76412500Y-62905000D03*
X83587500Y-62905000D03*
X83587500Y-61635000D03*
X83587500Y-60365000D03*
X83587500Y-59095000D03*
%TD*%
D10*
%TO.C,RN3*%
X151900000Y-72412500D03*
X151900000Y-70587500D03*
%TD*%
%TO.C,RN1*%
X113900000Y-72412500D03*
X113900000Y-70587500D03*
%TD*%
D15*
%TO.C,RS6*%
X200000000Y-76465000D03*
X200000000Y-71535000D03*
%TD*%
D16*
%TO.C,CD5*%
X187950000Y-68500000D03*
X189850000Y-68500000D03*
%TD*%
D10*
%TO.C,RN5*%
X189900000Y-72412500D03*
X189900000Y-70587500D03*
%TD*%
%TO.C,R24*%
X74600000Y-79412500D03*
X74600000Y-77587500D03*
%TD*%
D11*
%TO.C,R18*%
X91087500Y-52600000D03*
X92912500Y-52600000D03*
%TD*%
D17*
%TO.C,C12*%
X71625000Y-93500000D03*
X74575000Y-93500000D03*
%TD*%
D18*
%TO.C,U5*%
X191100000Y-64500000D03*
X191100000Y-64000000D03*
X191100000Y-63500000D03*
X191100000Y-63000000D03*
X191100000Y-62500000D03*
X186900000Y-62500000D03*
X186900000Y-63000000D03*
X186900000Y-63500000D03*
X186900000Y-64000000D03*
X186900000Y-64500000D03*
%TD*%
D11*
%TO.C,R22*%
X62087500Y-80600000D03*
X63912500Y-80600000D03*
%TD*%
D19*
%TO.C,LED2*%
X94862500Y-55100000D03*
X96737500Y-55100000D03*
%TD*%
D16*
%TO.C,CD3*%
X149950000Y-68500000D03*
X151850000Y-68500000D03*
%TD*%
D11*
%TO.C,R21*%
X74887500Y-72800000D03*
X76712500Y-72800000D03*
%TD*%
D18*
%TO.C,U1*%
X115100000Y-64500000D03*
X115100000Y-64000000D03*
X115100000Y-63500000D03*
X115100000Y-63000000D03*
X115100000Y-62500000D03*
X110900000Y-62500000D03*
X110900000Y-63000000D03*
X110900000Y-63500000D03*
X110900000Y-64000000D03*
X110900000Y-64500000D03*
%TD*%
D20*
%TO.C,U8*%
X84862500Y-78050000D03*
X84862500Y-79000000D03*
X84862500Y-79950000D03*
X87137500Y-79950000D03*
X87137500Y-79000000D03*
X87137500Y-78050000D03*
%TD*%
D21*
%TO.C,C9*%
X83600000Y-56350000D03*
X83600000Y-54450000D03*
%TD*%
D22*
%TO.C,J9*%
X58045000Y-80750000D03*
X58045000Y-81550000D03*
D23*
X58045000Y-82750000D03*
X58045000Y-83750000D03*
X58045000Y-84250000D03*
X58045000Y-85250000D03*
D22*
X58045000Y-86450000D03*
X58045000Y-87250000D03*
X58045000Y-87250000D03*
X58045000Y-86450000D03*
D23*
X58045000Y-85750000D03*
X58045000Y-84750000D03*
X58045000Y-83250000D03*
X58045000Y-82250000D03*
D22*
X58045000Y-81550000D03*
X58045000Y-80750000D03*
%TD*%
D11*
%TO.C,R19*%
X91087500Y-55200000D03*
X92912500Y-55200000D03*
%TD*%
D24*
%TO.C,C6*%
X77800000Y-70575000D03*
X77800000Y-67625000D03*
%TD*%
D25*
%TO.C,D8*%
X72350000Y-90000000D03*
X75650000Y-90000000D03*
%TD*%
D11*
%TO.C,R20*%
X91087500Y-57800000D03*
X92912500Y-57800000D03*
%TD*%
D21*
%TO.C,CB3*%
X153900000Y-60800000D03*
X153900000Y-58900000D03*
%TD*%
D26*
%TO.C,U7*%
X67100000Y-61140000D03*
X68200000Y-61140000D03*
X69300000Y-61140000D03*
X67100000Y-60040000D03*
X68200000Y-60040000D03*
X69300000Y-60040000D03*
X67100000Y-58940000D03*
X68200000Y-58940000D03*
X69300000Y-58940000D03*
D27*
X62000000Y-69750000D03*
X63500000Y-69750000D03*
X65000000Y-69750000D03*
X66500000Y-69750000D03*
X68000000Y-69750000D03*
X69500000Y-69750000D03*
X71000000Y-69750000D03*
X72500000Y-69750000D03*
X74000000Y-69750000D03*
X74000000Y-52250000D03*
X72500000Y-52250000D03*
X71000000Y-52250000D03*
X69500000Y-52250000D03*
X68000000Y-52250000D03*
X66500000Y-52250000D03*
X65000000Y-52250000D03*
X63500000Y-52250000D03*
X62000000Y-52250000D03*
%TD*%
D16*
%TO.C,CD1*%
X111950000Y-68500000D03*
X113850000Y-68500000D03*
%TD*%
%TO.C,CD2*%
X130950000Y-68500000D03*
X132850000Y-68500000D03*
%TD*%
%TO.C,C13*%
X58450000Y-91000000D03*
X60350000Y-91000000D03*
%TD*%
D10*
%TO.C,RP2*%
X130900000Y-73462500D03*
X130900000Y-71637500D03*
%TD*%
%TO.C,RN4*%
X170900000Y-72412500D03*
X170900000Y-70587500D03*
%TD*%
D16*
%TO.C,C11*%
X58550000Y-93500000D03*
X60450000Y-93500000D03*
%TD*%
D10*
%TO.C,R27*%
X74500000Y-87412500D03*
X74500000Y-85587500D03*
%TD*%
D28*
%TO.C,C2*%
X91000000Y-87475000D03*
X91000000Y-84525000D03*
%TD*%
D16*
%TO.C,C3*%
X84750000Y-82900000D03*
X86650000Y-82900000D03*
%TD*%
D29*
%TO.C,F7*%
X68000000Y-104400000D03*
X68000000Y-101600000D03*
%TD*%
D15*
%TO.C,RS1*%
X105000000Y-76465000D03*
X105000000Y-71535000D03*
%TD*%
D19*
%TO.C,LED1*%
X94862500Y-52300000D03*
X96737500Y-52300000D03*
%TD*%
D21*
%TO.C,CB5*%
X191900000Y-60800000D03*
X191900000Y-58900000D03*
%TD*%
D24*
%TO.C,C5*%
X80500000Y-69075000D03*
X80500000Y-66125000D03*
%TD*%
D15*
%TO.C,RS5*%
X181000000Y-76465000D03*
X181000000Y-71535000D03*
%TD*%
D10*
%TO.C,RP1*%
X111900000Y-73462500D03*
X111900000Y-71637500D03*
%TD*%
D21*
%TO.C,C4*%
X91200000Y-77150000D03*
X91200000Y-75250000D03*
%TD*%
D20*
%TO.C,U10*%
X60362500Y-76150000D03*
X60362500Y-77100000D03*
X60362500Y-78050000D03*
X62637500Y-78050000D03*
X62637500Y-77100000D03*
X62637500Y-76150000D03*
%TD*%
D10*
%TO.C,RP6*%
X206900000Y-73462500D03*
X206900000Y-71637500D03*
%TD*%
D15*
%TO.C,RS4*%
X162000000Y-76465000D03*
X162000000Y-71535000D03*
%TD*%
D16*
%TO.C,C10*%
X78950000Y-72800000D03*
X80850000Y-72800000D03*
%TD*%
D18*
%TO.C,U4*%
X172100000Y-64500000D03*
X172100000Y-64000000D03*
X172100000Y-63500000D03*
X172100000Y-63000000D03*
X172100000Y-62500000D03*
X167900000Y-62500000D03*
X167900000Y-63000000D03*
X167900000Y-63500000D03*
X167900000Y-64000000D03*
X167900000Y-64500000D03*
%TD*%
D30*
%TO.C,L1*%
X84250000Y-73000000D03*
X88750000Y-73000000D03*
%TD*%
D21*
%TO.C,CB1*%
X115900000Y-60800000D03*
X115900000Y-58900000D03*
%TD*%
D10*
%TO.C,R17*%
X88700000Y-64012500D03*
X88700000Y-62187500D03*
%TD*%
%TO.C,RN2*%
X132900000Y-72412500D03*
X132900000Y-70587500D03*
%TD*%
D21*
%TO.C,C14*%
X86500000Y-64050000D03*
X86500000Y-62150000D03*
%TD*%
D10*
%TO.C,R26*%
X77500000Y-87412500D03*
X77500000Y-85587500D03*
%TD*%
D18*
%TO.C,U3*%
X153100000Y-64500000D03*
X153100000Y-64000000D03*
X153100000Y-63500000D03*
X153100000Y-63000000D03*
X153100000Y-62500000D03*
X148900000Y-62500000D03*
X148900000Y-63000000D03*
X148900000Y-63500000D03*
X148900000Y-64000000D03*
X148900000Y-64500000D03*
%TD*%
D16*
%TO.C,CD6*%
X206950000Y-68500000D03*
X208850000Y-68500000D03*
%TD*%
D31*
%TO.C,D11*%
X78000000Y-79000000D03*
X82000000Y-79000000D03*
%TD*%
D18*
%TO.C,U2*%
X134100000Y-64500000D03*
X134100000Y-64000000D03*
X134100000Y-63500000D03*
X134100000Y-63000000D03*
X134100000Y-62500000D03*
X129900000Y-62500000D03*
X129900000Y-63000000D03*
X129900000Y-63500000D03*
X129900000Y-64000000D03*
X129900000Y-64500000D03*
%TD*%
D10*
%TO.C,RP3*%
X149900000Y-73462500D03*
X149900000Y-71637500D03*
%TD*%
%TO.C,R16*%
X90900000Y-64012500D03*
X90900000Y-62187500D03*
%TD*%
D31*
%TO.C,D7*%
X66000000Y-97600000D03*
X70000000Y-97600000D03*
%TD*%
D10*
%TO.C,RP5*%
X187900000Y-73462500D03*
X187900000Y-71637500D03*
%TD*%
D16*
%TO.C,C8*%
X62250000Y-73400000D03*
X64150000Y-73400000D03*
%TD*%
D10*
%TO.C,R25*%
X75000000Y-83412500D03*
X75000000Y-81587500D03*
%TD*%
%TO.C,RP4*%
X168900000Y-73462500D03*
X168900000Y-71637500D03*
%TD*%
D18*
%TO.C,U6*%
X210100000Y-64500000D03*
X210100000Y-64000000D03*
X210100000Y-63500000D03*
X210100000Y-63000000D03*
X210100000Y-62500000D03*
X205900000Y-62500000D03*
X205900000Y-63000000D03*
X205900000Y-63500000D03*
X205900000Y-64000000D03*
X205900000Y-64500000D03*
%TD*%
D32*
%TO.C,D9*%
X76000000Y-104400000D03*
X76000000Y-97600000D03*
%TD*%
D33*
%TO.C,SW2*%
X66500000Y-79325000D03*
X72500000Y-79325000D03*
X66500000Y-83075000D03*
X72500000Y-83075000D03*
%TD*%
D21*
%TO.C,CB2*%
X134900000Y-60800000D03*
X134900000Y-58900000D03*
%TD*%
D15*
%TO.C,RS2*%
X124000000Y-76465000D03*
X124000000Y-71535000D03*
%TD*%
%TO.C,RS3*%
X143000000Y-76465000D03*
X143000000Y-71535000D03*
%TD*%
D11*
%TO.C,R23*%
X62087500Y-83200000D03*
X63912500Y-83200000D03*
%TD*%
D16*
%TO.C,CD4*%
X168950000Y-68500000D03*
X170850000Y-68500000D03*
%TD*%
D28*
%TO.C,C1*%
X90800000Y-82475000D03*
X90800000Y-79525000D03*
%TD*%
D21*
%TO.C,CB6*%
X210900000Y-60800000D03*
X210900000Y-58900000D03*
%TD*%
D10*
%TO.C,R15*%
X93100000Y-64012500D03*
X93100000Y-62187500D03*
%TD*%
D21*
%TO.C,CB4*%
X172900000Y-60800000D03*
X172900000Y-58900000D03*
%TD*%
D17*
%TO.C,C7*%
X93125000Y-71500000D03*
X96075000Y-71500000D03*
%TD*%
D11*
%TO.C,R28*%
X94887500Y-57900000D03*
X96712500Y-57900000D03*
%TD*%
D34*
%TO.C,D10*%
X80350000Y-86500000D03*
X84650000Y-86500000D03*
%TD*%
D33*
%TO.C,SW1*%
X66500000Y-71725000D03*
X72500000Y-71725000D03*
X66500000Y-75475000D03*
X72500000Y-75475000D03*
%TD*%
M02*
