M48
; DRILL file KiCad 10.0.4-10.0.4~ubuntu24.04.1 date 2026-07-18T23:41:38
; FORMAT={-:-/ absolute / metric / decimal}
; #@! TF.CreationDate,2026-07-18T23:41:38-07:00
; #@! TF.GenerationSoftware,Kicad,Pcbnew,10.0.4-10.0.4~ubuntu24.04.1
; #@! TF.FileFunction,Plated,1,2,PTH
FMAT,2
METRIC
; #@! TA.AperFunction,Plated,PTH,ViaDrill
T1C0.200
; #@! TA.AperFunction,Plated,PTH,ViaDrill
T2C0.300
; #@! TA.AperFunction,Plated,PTH,ComponentDrill
T3C0.300
; #@! TA.AperFunction,Plated,PTH,ComponentDrill
T4C0.600
; #@! TA.AperFunction,Plated,PTH,ComponentDrill
T5C1.000
; #@! TA.AperFunction,Plated,PTH,ComponentDrill
T6C1.700
; #@! TA.AperFunction,Plated,PTH,ComponentDrill
T7C4.300
; #@! TA.AperFunction,Plated,PTH,ComponentDrill
T8C5.300
%
G90
G05
T1
X58.045Y-82.75
X58.045Y-84.25
X58.045Y-84.75
X58.045Y-85.75
X89.2Y-62.4
T2
X55.0Y-76.0
X55.0Y-85.0
X55.0Y-88.0
X55.0Y-97.0
X55.0Y-100.0
X56.8Y-84.8
X58.0Y-76.0
X58.0Y-97.0
X58.0Y-100.0
X58.045Y-86.45
X58.8Y-88.1
X59.2Y-82.7
X59.2Y-85.8
X59.4Y-83.5
X61.0Y-88.0
X61.0Y-97.0
X61.0Y-100.0
X61.3Y-78.8
X61.3Y-84.8
X62.1Y-68.4
X62.1Y-74.7
X62.5Y-77.2
X62.75Y-72.25
X62.9Y-71.1
X63.9Y-68.4
X63.9Y-71.1
X64.0Y-58.0
X64.0Y-64.0
X64.0Y-67.0
X64.0Y-79.0
X64.0Y-82.0
X64.0Y-85.0
X64.0Y-94.0
X64.0Y-97.0
X64.0Y-100.0
X64.95Y-74.45
X65.0Y-53.6
X65.3Y-71.9
X66.7Y-53.9
X67.0Y-52.2
X67.0Y-55.0
X67.0Y-64.0
X67.0Y-70.3
X67.0Y-73.0
X67.0Y-82.0
X67.0Y-94.0
X67.0Y-100.0
X68.1Y-51.8
X68.1Y-53.9
X68.1Y-56.3
X69.6Y-53.7
X70.0Y-52.9
X70.0Y-73.0
X70.0Y-76.0
X70.0Y-85.0
X70.0Y-94.0
X70.0Y-100.0
X71.5Y-52.1
X72.7Y-72.4
X73.0Y-61.0
X73.0Y-85.0
X73.0Y-88.0
X73.0Y-97.0
X73.0Y-100.0
X73.3Y-77.3
X74.0Y-69.75
X74.1Y-71.6
X74.1Y-76.5
X74.2Y-52.9
X75.0Y-57.1
X75.3Y-56.4
X75.3Y-62.6
X76.0Y-72.4
X76.0Y-76.0
X76.0Y-85.0
X76.0Y-94.0
X76.0Y-100.0
X76.1Y-59.5
X76.1Y-61.8
X76.1Y-68.9
X76.1Y-71.1
X77.3Y-62.6
X77.3Y-64.7
X78.1Y-59.8
X78.1Y-61.0
X78.4Y-63.6
X79.0Y-70.0
X79.0Y-76.0
X79.0Y-82.0
X79.0Y-91.0
X79.0Y-94.0
X79.0Y-97.0
X79.0Y-100.0
X79.075Y-66.0
X79.9Y-59.6
X80.0Y-57.1
X80.45Y-63.2
X81.4Y-58.5
X82.0Y-73.0
X82.0Y-76.0
X82.0Y-79.0
X82.0Y-91.0
X82.0Y-94.0
X82.0Y-97.0
X82.0Y-100.0
X82.5Y-65.625
X82.5Y-68.6
X82.9Y-63.1
X83.3Y-63.8
X83.4Y-54.5
X83.7Y-58.3
X84.05Y-54.0
X84.1Y-60.1
X84.75Y-53.5
X84.75Y-56.7
X85.0Y-62.142
X85.0Y-67.0
X85.0Y-91.0
X85.0Y-94.0
X85.0Y-97.0
X85.0Y-100.0
X85.7Y-60.9
X85.9Y-77.9
X86.2Y-58.3
X86.5Y-64.06
X87.4Y-77.2
X88.0Y-82.0
X88.0Y-85.0
X88.0Y-88.0
X88.0Y-91.0
X88.0Y-94.0
X88.0Y-97.0
X88.0Y-100.0
X88.7Y-64.06
X90.6Y-62.2
X90.9Y-64.06
X91.0Y-55.0
X91.0Y-70.0
X91.0Y-73.0
X91.0Y-91.0
X91.0Y-94.0
X91.0Y-97.0
X91.0Y-100.0
X92.062Y-52.3
X92.2Y-57.3
X93.0Y-61.2
X93.1Y-64.06
X93.2Y-53.35
X94.0Y-70.0
X94.0Y-73.0
X94.0Y-76.0
X94.0Y-79.0
X94.0Y-82.0
X94.0Y-85.0
X94.0Y-88.0
X94.0Y-91.0
X94.0Y-94.0
X94.0Y-97.0
X94.0Y-100.0
X94.7Y-53.35
X109.6Y-63.0
X115.1Y-65.3
X115.9Y-58.892
X116.8Y-67.8
X117.4Y-66.2
X118.0Y-67.0
X118.6Y-68.6
X128.6Y-63.0
X134.1Y-65.3
X134.9Y-58.892
X135.2Y-68.6
X135.8Y-67.8
X136.4Y-66.2
X137.0Y-67.0
X137.6Y-68.6
X147.6Y-63.0
X153.1Y-65.3
X153.9Y-58.892
X154.2Y-66.2
X154.8Y-67.8
X155.4Y-66.2
X156.0Y-67.0
X156.6Y-68.6
X166.6Y-63.0
X172.1Y-65.3
X172.9Y-58.892
X173.2Y-67.0
X173.8Y-67.8
X174.4Y-66.2
X175.0Y-67.0
X175.6Y-68.6
X185.6Y-63.0
X191.1Y-68.6
X191.9Y-58.892
X192.2Y-65.3
X192.8Y-67.8
X193.4Y-66.2
X194.0Y-67.0
X194.6Y-68.6
X204.6Y-63.0
X210.1Y-68.6
X210.9Y-58.892
X211.8Y-67.8
X212.4Y-66.2
X213.0Y-67.0
X213.6Y-68.6
T3
X67.1Y-59.49
X67.1Y-60.59
X67.65Y-58.94
X67.65Y-60.04
X67.65Y-61.14
X68.2Y-59.49
X68.2Y-60.59
X68.75Y-58.94
X68.75Y-60.04
X68.75Y-61.14
X69.3Y-59.49
X69.3Y-60.59
T5
X96.5Y-53.0
X96.5Y-55.54
X96.5Y-58.08
X96.5Y-60.62
T6
X105.3Y-82.25
X105.3Y-95.75
X108.7Y-82.25
X108.7Y-95.75
X124.3Y-82.25
X124.3Y-95.75
X127.7Y-82.25
X127.7Y-95.75
X143.3Y-82.25
X143.3Y-95.75
X146.7Y-82.25
X146.7Y-95.75
X162.3Y-82.25
X162.3Y-95.75
X165.7Y-82.25
X165.7Y-95.75
X181.3Y-82.25
X181.3Y-95.75
X184.7Y-82.25
X184.7Y-95.75
X200.3Y-82.25
X200.3Y-95.75
X203.7Y-82.25
X203.7Y-95.75
T7
X58.0Y-107.0
X107.0Y-57.0
X126.0Y-57.0
X145.0Y-57.0
X164.0Y-57.0
X183.0Y-57.0
X202.0Y-57.0
T8
X151.0Y-105.8
T4
G00X53.25Y-79.68
M15
G01X52.65Y-79.68
M16
G05
G00X53.25Y-88.32
M15
G01X52.65Y-88.32
M16
G05
G00X57.68Y-79.68
M15
G01X56.58Y-79.68
M16
G05
G00X57.68Y-88.32
M15
G01X56.58Y-88.32
M16
G05
M30
