%TF.GenerationSoftware,KiCad,Pcbnew,10.0.4-10.0.4~ubuntu24.04.1*%
%TF.CreationDate,2026-07-19T08:21:53-07:00*%
%TF.ProjectId,ble_bus_bar,626c655f-6275-4735-9f62-61722e6b6963,rev?*%
%TF.SameCoordinates,Original*%
%TF.FileFunction,Soldermask,Bot*%
%TF.FilePolarity,Negative*%
%FSLAX46Y46*%
G04 Gerber Fmt 4.6, Leading zero omitted, Abs format (unit mm)*
G04 Created by KiCad (PCBNEW 10.0.4-10.0.4~ubuntu24.04.1) date 2026-07-19 08:21:53*
%MOMM*%
%LPD*%
G01*
G04 APERTURE LIST*
%ADD10C,11.000000*%
%ADD11C,3.200000*%
%ADD12C,0.650000*%
%ADD13O,2.100000X1.000000*%
%ADD14O,1.600000X1.000000*%
%ADD15R,1.700000X1.700000*%
%ADD16C,1.700000*%
%ADD17C,13.000000*%
%ADD18C,0.350000*%
%ADD19O,1.700000X0.600000*%
%ADD20O,1.200000X0.600000*%
G04 APERTURE END LIST*
D10*
%TO.C,J2*%
X126000000Y-57000000D03*
%TD*%
D11*
%TO.C,F6*%
X200300000Y-95750000D03*
X203700000Y-95750000D03*
X200300000Y-82250000D03*
X203700000Y-82250000D03*
%TD*%
D10*
%TO.C,J3*%
X145000000Y-57000000D03*
%TD*%
D11*
%TO.C,F2*%
X124300000Y-95750000D03*
X127700000Y-95750000D03*
X124300000Y-82250000D03*
X127700000Y-82250000D03*
%TD*%
%TO.C,H3*%
X211000000Y-111200000D03*
%TD*%
D10*
%TO.C,J6*%
X202000000Y-57000000D03*
%TD*%
D11*
%TO.C,H4*%
X98000000Y-84000000D03*
%TD*%
%TO.C,F4*%
X162300000Y-95750000D03*
X165700000Y-95750000D03*
X162300000Y-82250000D03*
X165700000Y-82250000D03*
%TD*%
D10*
%TO.C,J1*%
X107000000Y-57000000D03*
%TD*%
D12*
%TO.C,J9*%
X56600000Y-81110000D03*
X56600000Y-86890000D03*
D13*
X57130000Y-79680000D03*
D14*
X52950000Y-79680000D03*
D13*
X57130000Y-88320000D03*
D14*
X52950000Y-88320000D03*
%TD*%
D10*
%TO.C,J4*%
X164000000Y-57000000D03*
%TD*%
D11*
%TO.C,F1*%
X105300000Y-95750000D03*
X108700000Y-95750000D03*
X105300000Y-82250000D03*
X108700000Y-82250000D03*
%TD*%
D15*
%TO.C,J10*%
X86000000Y-100500000D03*
D16*
X88540000Y-100500000D03*
X91080000Y-100500000D03*
X93620000Y-100500000D03*
%TD*%
D10*
%TO.C,J8*%
X58000000Y-107000000D03*
%TD*%
D11*
%TO.C,F5*%
X181300000Y-95750000D03*
X184700000Y-95750000D03*
X181300000Y-82250000D03*
X184700000Y-82250000D03*
%TD*%
%TO.C,H1*%
X52300000Y-93000000D03*
%TD*%
D17*
%TO.C,J7*%
X151000000Y-105800000D03*
%TD*%
D11*
%TO.C,F3*%
X143300000Y-95750000D03*
X146700000Y-95750000D03*
X143300000Y-82250000D03*
X146700000Y-82250000D03*
%TD*%
%TO.C,H2*%
X211000000Y-52800000D03*
%TD*%
D10*
%TO.C,J5*%
X183000000Y-57000000D03*
%TD*%
D18*
X126000000Y-57000000D03*
X200300000Y-95750000D03*
X203700000Y-95750000D03*
X200300000Y-82250000D03*
X203700000Y-82250000D03*
X145000000Y-57000000D03*
X124300000Y-95750000D03*
X127700000Y-95750000D03*
X124300000Y-82250000D03*
X127700000Y-82250000D03*
X211000000Y-111200000D03*
X202000000Y-57000000D03*
X98000000Y-84000000D03*
X162300000Y-95750000D03*
X165700000Y-95750000D03*
X162300000Y-82250000D03*
X165700000Y-82250000D03*
X107000000Y-57000000D03*
X56600000Y-81110000D03*
X56600000Y-86890000D03*
D19*
X57130000Y-79680000D03*
D20*
X52950000Y-79680000D03*
D19*
X57130000Y-88320000D03*
D20*
X52950000Y-88320000D03*
D18*
X164000000Y-57000000D03*
X105300000Y-95750000D03*
X108700000Y-95750000D03*
X105300000Y-82250000D03*
X108700000Y-82250000D03*
X86000000Y-100500000D03*
X88540000Y-100500000D03*
X91080000Y-100500000D03*
X93620000Y-100500000D03*
X58000000Y-107000000D03*
X181300000Y-95750000D03*
X184700000Y-95750000D03*
X181300000Y-82250000D03*
X184700000Y-82250000D03*
X52300000Y-93000000D03*
X151000000Y-105800000D03*
X143300000Y-95750000D03*
X146700000Y-95750000D03*
X143300000Y-82250000D03*
X146700000Y-82250000D03*
X211000000Y-52800000D03*
X183000000Y-57000000D03*
M02*
