%TF.GenerationSoftware,KiCad,Pcbnew,10.0.4-10.0.4~ubuntu24.04.1*%
%TF.CreationDate,2026-07-19T09:07:15-07:00*%
%TF.ProjectId,ble_bus_bar,626c655f-6275-4735-9f62-61722e6b6963,rev?*%
%TF.SameCoordinates,Original*%
%TF.FileFunction,Soldermask,Bot*%
%TF.FilePolarity,Negative*%
%FSLAX46Y46*%
G04 Gerber Fmt 4.6, Leading zero omitted, Abs format (unit mm)*
G04 Created by KiCad (PCBNEW 10.0.4-10.0.4~ubuntu24.04.1) date 2026-07-19 09:07:15*
%MOMM*%
%LPD*%
G01*
G04 APERTURE LIST*
%ADD10R,1.700000X1.700000*%
%ADD11C,1.700000*%
%ADD12C,11.000000*%
%ADD13C,9.000000*%
%ADD14C,0.650000*%
%ADD15O,2.100000X1.000000*%
%ADD16O,1.600000X1.000000*%
%ADD17C,3.200000*%
%ADD18C,13.000000*%
%ADD19C,0.350000*%
%ADD20O,1.700000X0.600000*%
%ADD21O,1.200000X0.600000*%
G04 APERTURE END LIST*
D10*
%TO.C,J10*%
X86000000Y-100500000D03*
D11*
X88540000Y-100500000D03*
X91080000Y-100500000D03*
X93620000Y-100500000D03*
%TD*%
D12*
%TO.C,J5*%
X183000000Y-57000000D03*
%TD*%
%TO.C,J4*%
X164000000Y-57000000D03*
%TD*%
D13*
%TO.C,H2*%
X155000000Y-49900000D03*
%TD*%
%TO.C,H7*%
X69500000Y-114100000D03*
%TD*%
D14*
%TO.C,J9*%
X56600000Y-81110000D03*
X56600000Y-86890000D03*
D15*
X57130000Y-79680000D03*
D16*
X52950000Y-79680000D03*
D15*
X57130000Y-88320000D03*
D16*
X52950000Y-88320000D03*
%TD*%
D13*
%TO.C,H5*%
X163000000Y-114100000D03*
%TD*%
%TO.C,H1*%
X117000000Y-49900000D03*
%TD*%
D12*
%TO.C,J1*%
X107000000Y-57000000D03*
%TD*%
D17*
%TO.C,F5*%
X181300000Y-95750000D03*
X184700000Y-95750000D03*
X181300000Y-82250000D03*
X184700000Y-82250000D03*
%TD*%
D12*
%TO.C,J6*%
X202000000Y-57000000D03*
%TD*%
D13*
%TO.C,H4*%
X117000000Y-114100000D03*
%TD*%
D17*
%TO.C,F1*%
X105300000Y-95750000D03*
X108700000Y-95750000D03*
X105300000Y-82250000D03*
X108700000Y-82250000D03*
%TD*%
%TO.C,F6*%
X200300000Y-95750000D03*
X203700000Y-95750000D03*
X200300000Y-82250000D03*
X203700000Y-82250000D03*
%TD*%
D12*
%TO.C,J2*%
X126000000Y-57000000D03*
%TD*%
D13*
%TO.C,H6*%
X193000000Y-114100000D03*
%TD*%
%TO.C,H3*%
X193000000Y-49900000D03*
%TD*%
D17*
%TO.C,F2*%
X124300000Y-95750000D03*
X127700000Y-95750000D03*
X124300000Y-82250000D03*
X127700000Y-82250000D03*
%TD*%
D12*
%TO.C,J3*%
X145000000Y-57000000D03*
%TD*%
D18*
%TO.C,J7*%
X151000000Y-105800000D03*
%TD*%
D12*
%TO.C,J8*%
X58000000Y-107000000D03*
%TD*%
D17*
%TO.C,F3*%
X143300000Y-95750000D03*
X146700000Y-95750000D03*
X143300000Y-82250000D03*
X146700000Y-82250000D03*
%TD*%
%TO.C,F4*%
X162300000Y-95750000D03*
X165700000Y-95750000D03*
X162300000Y-82250000D03*
X165700000Y-82250000D03*
%TD*%
D19*
X86000000Y-100500000D03*
X88540000Y-100500000D03*
X91080000Y-100500000D03*
X93620000Y-100500000D03*
X183000000Y-57000000D03*
X164000000Y-57000000D03*
X155000000Y-49900000D03*
X69500000Y-114100000D03*
X56600000Y-81110000D03*
X56600000Y-86890000D03*
D20*
X57130000Y-79680000D03*
D21*
X52950000Y-79680000D03*
D20*
X57130000Y-88320000D03*
D21*
X52950000Y-88320000D03*
D19*
X163000000Y-114100000D03*
X117000000Y-49900000D03*
X107000000Y-57000000D03*
X181300000Y-95750000D03*
X184700000Y-95750000D03*
X181300000Y-82250000D03*
X184700000Y-82250000D03*
X202000000Y-57000000D03*
X117000000Y-114100000D03*
X105300000Y-95750000D03*
X108700000Y-95750000D03*
X105300000Y-82250000D03*
X108700000Y-82250000D03*
X200300000Y-95750000D03*
X203700000Y-95750000D03*
X200300000Y-82250000D03*
X203700000Y-82250000D03*
X126000000Y-57000000D03*
X193000000Y-114100000D03*
X193000000Y-49900000D03*
X124300000Y-95750000D03*
X127700000Y-95750000D03*
X124300000Y-82250000D03*
X127700000Y-82250000D03*
X145000000Y-57000000D03*
X151000000Y-105800000D03*
X58000000Y-107000000D03*
X143300000Y-95750000D03*
X146700000Y-95750000D03*
X143300000Y-82250000D03*
X146700000Y-82250000D03*
X162300000Y-95750000D03*
X165700000Y-95750000D03*
X162300000Y-82250000D03*
X165700000Y-82250000D03*
M02*
