%TF.GenerationSoftware,KiCad,Pcbnew,10.0.4-10.0.4~ubuntu24.04.1*%
%TF.CreationDate,2026-08-15T15:13:20-07:00*%
%TF.ProjectId,pi_usb_port_switch,70695f75-7362-45f7-906f-72745f737769,rev?*%
%TF.SameCoordinates,Original*%
%TF.FileFunction,Paste,Top*%
%TF.FilePolarity,Positive*%
%FSLAX46Y46*%
G04 Gerber Fmt 4.6, Leading zero omitted, Abs format (unit mm)*
G04 Created by KiCad (PCBNEW 10.0.4-10.0.4~ubuntu24.04.1) date 2026-08-15 15:13:20*
%MOMM*%
%LPD*%
G01*
G04 APERTURE LIST*
G04 Aperture macros list*
%AMRoundRect*
0 Rectangle with rounded corners*
0 $1 Rounding radius*
0 $2 $3 $4 $5 $6 $7 $8 $9 X,Y pos of 4 corners*
0 Add a 4 corners polygon primitive as box body*
4,1,4,$2,$3,$4,$5,$6,$7,$8,$9,$2,$3,0*
0 Add four circle primitives for the rounded corners*
1,1,$1+$1,$2,$3*
1,1,$1+$1,$4,$5*
1,1,$1+$1,$6,$7*
1,1,$1+$1,$8,$9*
0 Add four rect primitives between the rounded corners*
20,1,$1+$1,$2,$3,$4,$5,0*
20,1,$1+$1,$4,$5,$6,$7,0*
20,1,$1+$1,$6,$7,$8,$9,0*
20,1,$1+$1,$8,$9,$2,$3,0*%
%AMFreePoly0*
4,1,45,2.135351,1.985237,2.149996,1.949882,2.149996,1.399883,2.799994,1.399883,2.835349,1.385238,2.849994,1.349883,2.849994,0.649884,2.835349,0.614529,2.799994,0.599884,2.149996,0.599884,2.149996,-1.100112,2.799994,-1.100112,2.835349,-1.114757,2.849994,-1.150112,2.849994,-1.750111,2.835349,-1.785466,2.799994,-1.800111,2.149996,-1.800111,2.149996,-1.950110,2.135351,-1.985465,
2.099996,-2.000110,-2.099996,-2.000110,-2.135351,-1.985465,-2.149996,-1.950110,-2.149996,-1.800111,-2.799994,-1.800111,-2.835349,-1.785466,-2.849994,-1.750111,-2.849994,-1.150112,-2.835349,-1.114757,-2.799994,-1.100112,-2.149996,-1.100112,-2.149996,0.599884,-2.799994,0.599884,-2.835349,0.614529,-2.849994,0.649884,-2.849994,1.349883,-2.835349,1.385238,-2.799994,1.399883,-2.149996,1.399883,
-2.149996,1.949882,-2.135351,1.985237,-2.099996,1.999882,2.099996,1.999882,2.135351,1.985237,2.135351,1.985237,$1*%
G04 Aperture macros list end*
%ADD10RoundRect,0.135000X-0.135000X-0.185000X0.135000X-0.185000X0.135000X0.185000X-0.135000X0.185000X0*%
%ADD11RoundRect,0.140000X-0.140000X-0.170000X0.140000X-0.170000X0.140000X0.170000X-0.140000X0.170000X0*%
%ADD12RoundRect,0.135000X0.135000X0.185000X-0.135000X0.185000X-0.135000X-0.185000X0.135000X-0.185000X0*%
%ADD13RoundRect,0.050000X0.325000X0.050000X-0.325000X0.050000X-0.325000X-0.050000X0.325000X-0.050000X0*%
%ADD14RoundRect,0.140000X0.140000X0.170000X-0.140000X0.170000X-0.140000X-0.170000X0.140000X-0.170000X0*%
%ADD15RoundRect,0.250000X-0.295000X0.295000X-0.295000X-0.295000X0.295000X-0.295000X0.295000X0.295000X0*%
%ADD16RoundRect,0.062500X-0.062500X0.350000X-0.062500X-0.350000X0.062500X-0.350000X0.062500X0.350000X0*%
%ADD17RoundRect,0.062500X-0.350000X0.062500X-0.350000X-0.062500X0.350000X-0.062500X0.350000X0.062500X0*%
%ADD18R,0.575000X0.300000*%
%ADD19R,0.575000X0.250000*%
%ADD20R,0.350000X0.630000*%
%ADD21RoundRect,0.150000X-0.587500X-0.150000X0.587500X-0.150000X0.587500X0.150000X-0.587500X0.150000X0*%
%ADD22RoundRect,0.135000X0.185000X-0.135000X0.185000X0.135000X-0.185000X0.135000X-0.185000X-0.135000X0*%
%ADD23RoundRect,0.135000X-0.185000X0.135000X-0.185000X-0.135000X0.185000X-0.135000X0.185000X0.135000X0*%
%ADD24RoundRect,0.250000X-1.500000X-0.550000X1.500000X-0.550000X1.500000X0.550000X-1.500000X0.550000X0*%
%ADD25RoundRect,0.087500X-0.425000X-0.087500X0.425000X-0.087500X0.425000X0.087500X-0.425000X0.087500X0*%
%ADD26RoundRect,0.242500X0.242500X-0.422500X0.242500X0.422500X-0.242500X0.422500X-0.242500X-0.422500X0*%
%ADD27RoundRect,0.087500X0.087500X-0.337500X0.087500X0.337500X-0.087500X0.337500X-0.087500X-0.337500X0*%
%ADD28RoundRect,0.050000X-0.325000X-0.050000X0.325000X-0.050000X0.325000X0.050000X-0.325000X0.050000X0*%
%ADD29RoundRect,0.375000X-0.625000X-0.375000X0.625000X-0.375000X0.625000X0.375000X-0.625000X0.375000X0*%
%ADD30RoundRect,0.500000X-0.500000X-1.400000X0.500000X-1.400000X0.500000X1.400000X-0.500000X1.400000X0*%
%ADD31R,0.600000X1.270000*%
%ADD32R,0.600000X1.020000*%
%ADD33FreePoly0,180.000000*%
G04 APERTURE END LIST*
D10*
%TO.C,R8*%
X55490000Y-44600000D03*
X56510000Y-44600000D03*
%TD*%
D11*
%TO.C,C17*%
X109520000Y-53500000D03*
X110480000Y-53500000D03*
%TD*%
D12*
%TO.C,R13*%
X136510000Y-73800000D03*
X135490000Y-73800000D03*
%TD*%
D10*
%TO.C,R68*%
X138490000Y-105550000D03*
X139510000Y-105550000D03*
%TD*%
D13*
%TO.C,U17*%
X40875000Y-100500000D03*
X40875000Y-100000000D03*
X40875000Y-99500000D03*
X40875000Y-99000000D03*
X40875000Y-98500000D03*
X40875000Y-98000000D03*
X40875000Y-97500000D03*
X39525000Y-97500000D03*
X39525000Y-98000000D03*
X39525000Y-98500000D03*
X39525000Y-99000000D03*
X39525000Y-99500000D03*
X39525000Y-100000000D03*
X39525000Y-100500000D03*
%TD*%
D11*
%TO.C,C51*%
X118520000Y-108500000D03*
X119480000Y-108500000D03*
%TD*%
%TO.C,C3*%
X94520000Y-33000000D03*
X95480000Y-33000000D03*
%TD*%
D14*
%TO.C,C59*%
X76480000Y-128600000D03*
X75520000Y-128600000D03*
%TD*%
D11*
%TO.C,C30*%
X90770000Y-73960000D03*
X91730000Y-73960000D03*
%TD*%
D15*
%TO.C,U8*%
X95675000Y-71325000D03*
X94325000Y-71325000D03*
X95675000Y-72675000D03*
X94325000Y-72675000D03*
D16*
X96250000Y-70037500D03*
X95750000Y-70037500D03*
X95250000Y-70037500D03*
X94750000Y-70037500D03*
X94250000Y-70037500D03*
X93750000Y-70037500D03*
D17*
X93037500Y-70750000D03*
X93037500Y-71250000D03*
X93037500Y-71750000D03*
X93037500Y-72250000D03*
X93037500Y-72750000D03*
X93037500Y-73250000D03*
D16*
X93750000Y-73962500D03*
X94250000Y-73962500D03*
X94750000Y-73962500D03*
X95250000Y-73962500D03*
X95750000Y-73962500D03*
X96250000Y-73962500D03*
D17*
X96962500Y-73250000D03*
X96962500Y-72750000D03*
X96962500Y-72250000D03*
X96962500Y-71750000D03*
X96962500Y-71250000D03*
X96962500Y-70750000D03*
%TD*%
D10*
%TO.C,R62*%
X123490000Y-82000000D03*
X124510000Y-82000000D03*
%TD*%
D11*
%TO.C,C49*%
X109520000Y-109500000D03*
X110480000Y-109500000D03*
%TD*%
D12*
%TO.C,R28*%
X136510000Y-126200000D03*
X135490000Y-126200000D03*
%TD*%
D11*
%TO.C,C19*%
X118520000Y-52500000D03*
X119480000Y-52500000D03*
%TD*%
%TO.C,C63*%
X98670000Y-126040000D03*
X99630000Y-126040000D03*
%TD*%
%TO.C,C23*%
X75520000Y-70200000D03*
X76480000Y-70200000D03*
%TD*%
D18*
%TO.C,U15*%
X108637500Y-106750000D03*
D19*
X108637500Y-106250000D03*
X108637500Y-105750000D03*
D18*
X108637500Y-105250000D03*
D20*
X108000000Y-105140000D03*
D18*
X107362500Y-105250000D03*
D19*
X107362500Y-105750000D03*
X107362500Y-106250000D03*
D18*
X107362500Y-106750000D03*
D20*
X108000000Y-106860000D03*
%TD*%
D10*
%TO.C,R49*%
X103490000Y-34000000D03*
X104510000Y-34000000D03*
%TD*%
D15*
%TO.C,U2*%
X95675000Y-43325000D03*
X94325000Y-43325000D03*
X95675000Y-44675000D03*
X94325000Y-44675000D03*
D16*
X96250000Y-42037500D03*
X95750000Y-42037500D03*
X95250000Y-42037500D03*
X94750000Y-42037500D03*
X94250000Y-42037500D03*
X93750000Y-42037500D03*
D17*
X93037500Y-42750000D03*
X93037500Y-43250000D03*
X93037500Y-43750000D03*
X93037500Y-44250000D03*
X93037500Y-44750000D03*
X93037500Y-45250000D03*
D16*
X93750000Y-45962500D03*
X94250000Y-45962500D03*
X94750000Y-45962500D03*
X95250000Y-45962500D03*
X95750000Y-45962500D03*
X96250000Y-45962500D03*
D17*
X96962500Y-45250000D03*
X96962500Y-44750000D03*
X96962500Y-44250000D03*
X96962500Y-43750000D03*
X96962500Y-43250000D03*
X96962500Y-42750000D03*
%TD*%
D11*
%TO.C,C54*%
X75520000Y-127400000D03*
X76480000Y-127400000D03*
%TD*%
%TO.C,C40*%
X114520000Y-99400000D03*
X115480000Y-99400000D03*
%TD*%
D10*
%TO.C,R71*%
X129490000Y-54000000D03*
X130510000Y-54000000D03*
%TD*%
D11*
%TO.C,C67*%
X118520000Y-136500000D03*
X119480000Y-136500000D03*
%TD*%
D12*
%TO.C,R11*%
X136510000Y-71400000D03*
X135490000Y-71400000D03*
%TD*%
D11*
%TO.C,C64*%
X98670000Y-131000000D03*
X99630000Y-131000000D03*
%TD*%
D10*
%TO.C,R25*%
X55490000Y-127400000D03*
X56510000Y-127400000D03*
%TD*%
D14*
%TO.C,C61*%
X115480000Y-128600000D03*
X114520000Y-128600000D03*
%TD*%
D10*
%TO.C,R59*%
X120490000Y-110000000D03*
X121510000Y-110000000D03*
%TD*%
D13*
%TO.C,U11*%
X40875000Y-72500000D03*
X40875000Y-72000000D03*
X40875000Y-71500000D03*
X40875000Y-71000000D03*
X40875000Y-70500000D03*
X40875000Y-70000000D03*
X40875000Y-69500000D03*
X39525000Y-69500000D03*
X39525000Y-70000000D03*
X39525000Y-70500000D03*
X39525000Y-71000000D03*
X39525000Y-71500000D03*
X39525000Y-72000000D03*
X39525000Y-72500000D03*
%TD*%
D14*
%TO.C,C45*%
X115480000Y-100600000D03*
X114520000Y-100600000D03*
%TD*%
D21*
%TO.C,Q2*%
X125062500Y-50050000D03*
X125062500Y-51950000D03*
X126937500Y-51000000D03*
%TD*%
D11*
%TO.C,C25*%
X114520000Y-70200000D03*
X115480000Y-70200000D03*
%TD*%
D10*
%TO.C,R51*%
X107490000Y-34000000D03*
X108510000Y-34000000D03*
%TD*%
D22*
%TO.C,R34*%
X112000000Y-44600000D03*
X112000000Y-43580000D03*
%TD*%
D23*
%TO.C,R35*%
X112000000Y-73800000D03*
X112000000Y-74820000D03*
%TD*%
D10*
%TO.C,R17*%
X55490000Y-99400000D03*
X56510000Y-99400000D03*
%TD*%
D11*
%TO.C,C24*%
X114520000Y-71400000D03*
X115480000Y-71400000D03*
%TD*%
D10*
%TO.C,R44*%
X109490000Y-32000000D03*
X110510000Y-32000000D03*
%TD*%
%TO.C,R1*%
X55490000Y-43400000D03*
X56510000Y-43400000D03*
%TD*%
%TO.C,R63*%
X123490000Y-110000000D03*
X124510000Y-110000000D03*
%TD*%
%TO.C,R74*%
X129490000Y-138000000D03*
X130510000Y-138000000D03*
%TD*%
D11*
%TO.C,C38*%
X75520000Y-99400000D03*
X76480000Y-99400000D03*
%TD*%
D12*
%TO.C,R14*%
X136510000Y-72600000D03*
X135490000Y-72600000D03*
%TD*%
D11*
%TO.C,C62*%
X90770000Y-128500000D03*
X91730000Y-128500000D03*
%TD*%
D13*
%TO.C,U23*%
X40875000Y-128500000D03*
X40875000Y-128000000D03*
X40875000Y-127500000D03*
X40875000Y-127000000D03*
X40875000Y-126500000D03*
X40875000Y-126000000D03*
X40875000Y-125500000D03*
X39525000Y-125500000D03*
X39525000Y-126000000D03*
X39525000Y-126500000D03*
X39525000Y-127000000D03*
X39525000Y-127500000D03*
X39525000Y-128000000D03*
X39525000Y-128500000D03*
%TD*%
D10*
%TO.C,R48*%
X117490000Y-32000000D03*
X118510000Y-32000000D03*
%TD*%
D14*
%TO.C,C42*%
X76480000Y-101800000D03*
X75520000Y-101800000D03*
%TD*%
%TO.C,C26*%
X76480000Y-73800000D03*
X75520000Y-73800000D03*
%TD*%
D10*
%TO.C,R76*%
X125490000Y-33000000D03*
X126510000Y-33000000D03*
%TD*%
D24*
%TO.C,C53*%
X141300000Y-108000000D03*
X146700000Y-108000000D03*
%TD*%
D10*
%TO.C,R50*%
X105490000Y-34000000D03*
X106510000Y-34000000D03*
%TD*%
%TO.C,R16*%
X55490000Y-72600000D03*
X56510000Y-72600000D03*
%TD*%
D18*
%TO.C,U9*%
X108637500Y-78750000D03*
D19*
X108637500Y-78250000D03*
X108637500Y-77750000D03*
D18*
X108637500Y-77250000D03*
D20*
X108000000Y-77140000D03*
D18*
X107362500Y-77250000D03*
D19*
X107362500Y-77750000D03*
X107362500Y-78250000D03*
D18*
X107362500Y-78750000D03*
D20*
X108000000Y-78860000D03*
%TD*%
D10*
%TO.C,R77*%
X123490000Y-33000000D03*
X124510000Y-33000000D03*
%TD*%
%TO.C,R18*%
X55490000Y-98200000D03*
X56510000Y-98200000D03*
%TD*%
D11*
%TO.C,C39*%
X75520000Y-98200000D03*
X76480000Y-98200000D03*
%TD*%
%TO.C,C6*%
X75520000Y-43400000D03*
X76480000Y-43400000D03*
%TD*%
D25*
%TO.C,U13*%
X115162500Y-78350000D03*
X115162500Y-79000000D03*
X115162500Y-79650000D03*
X116837500Y-79650000D03*
X116837500Y-78350000D03*
%TD*%
D10*
%TO.C,R31*%
X55490000Y-129800000D03*
X56510000Y-129800000D03*
%TD*%
D26*
%TO.C,U10*%
X135400000Y-79000000D03*
X136600000Y-79000000D03*
D27*
X135025000Y-80450000D03*
X135675000Y-80450000D03*
X136325000Y-80450000D03*
X136975000Y-80450000D03*
X136975000Y-77550000D03*
X136325000Y-77550000D03*
X135675000Y-77550000D03*
X135025000Y-77550000D03*
%TD*%
D10*
%TO.C,R42*%
X105490000Y-32000000D03*
X106510000Y-32000000D03*
%TD*%
%TO.C,R9*%
X55490000Y-71400000D03*
X56510000Y-71400000D03*
%TD*%
D25*
%TO.C,U7*%
X115162500Y-50350000D03*
X115162500Y-51000000D03*
X115162500Y-51650000D03*
X116837500Y-51650000D03*
X116837500Y-50350000D03*
%TD*%
D12*
%TO.C,R22*%
X136510000Y-100600000D03*
X135490000Y-100600000D03*
%TD*%
D24*
%TO.C,C21*%
X141300000Y-52000000D03*
X146700000Y-52000000D03*
%TD*%
D10*
%TO.C,R41*%
X103490000Y-32000000D03*
X104510000Y-32000000D03*
%TD*%
%TO.C,R23*%
X55490000Y-101800000D03*
X56510000Y-101800000D03*
%TD*%
%TO.C,R75*%
X131490000Y-33000000D03*
X132510000Y-33000000D03*
%TD*%
%TO.C,R67*%
X138490000Y-77550000D03*
X139510000Y-77550000D03*
%TD*%
D22*
%TO.C,R36*%
X112000000Y-72600000D03*
X112000000Y-71580000D03*
%TD*%
D28*
%TO.C,U24*%
X150925000Y-123500000D03*
X150925000Y-124000000D03*
X150925000Y-124500000D03*
X150925000Y-125000000D03*
X150925000Y-125500000D03*
X150925000Y-126000000D03*
X150925000Y-126500000D03*
X152275000Y-126500000D03*
X152275000Y-126000000D03*
X152275000Y-125500000D03*
X152275000Y-125000000D03*
X152275000Y-124500000D03*
X152275000Y-124000000D03*
X152275000Y-123500000D03*
%TD*%
D26*
%TO.C,U16*%
X135400000Y-107000000D03*
X136600000Y-107000000D03*
D27*
X135025000Y-108450000D03*
X135675000Y-108450000D03*
X136325000Y-108450000D03*
X136975000Y-108450000D03*
X136975000Y-105550000D03*
X136325000Y-105550000D03*
X135675000Y-105550000D03*
X135025000Y-105550000D03*
%TD*%
D12*
%TO.C,R19*%
X136510000Y-99400000D03*
X135490000Y-99400000D03*
%TD*%
D11*
%TO.C,C65*%
X109520000Y-137500000D03*
X110480000Y-137500000D03*
%TD*%
D15*
%TO.C,U20*%
X95675000Y-127325000D03*
X94325000Y-127325000D03*
X95675000Y-128675000D03*
X94325000Y-128675000D03*
D16*
X96250000Y-126037500D03*
X95750000Y-126037500D03*
X95250000Y-126037500D03*
X94750000Y-126037500D03*
X94250000Y-126037500D03*
X93750000Y-126037500D03*
D17*
X93037500Y-126750000D03*
X93037500Y-127250000D03*
X93037500Y-127750000D03*
X93037500Y-128250000D03*
X93037500Y-128750000D03*
X93037500Y-129250000D03*
D16*
X93750000Y-129962500D03*
X94250000Y-129962500D03*
X94750000Y-129962500D03*
X95250000Y-129962500D03*
X95750000Y-129962500D03*
X96250000Y-129962500D03*
D17*
X96962500Y-129250000D03*
X96962500Y-128750000D03*
X96962500Y-128250000D03*
X96962500Y-127750000D03*
X96962500Y-127250000D03*
X96962500Y-126750000D03*
%TD*%
D11*
%TO.C,C48*%
X98670000Y-103000000D03*
X99630000Y-103000000D03*
%TD*%
D15*
%TO.C,U14*%
X95675000Y-99325000D03*
X94325000Y-99325000D03*
X95675000Y-100675000D03*
X94325000Y-100675000D03*
D16*
X96250000Y-98037500D03*
X95750000Y-98037500D03*
X95250000Y-98037500D03*
X94750000Y-98037500D03*
X94250000Y-98037500D03*
X93750000Y-98037500D03*
D17*
X93037500Y-98750000D03*
X93037500Y-99250000D03*
X93037500Y-99750000D03*
X93037500Y-100250000D03*
X93037500Y-100750000D03*
X93037500Y-101250000D03*
D16*
X93750000Y-101962500D03*
X94250000Y-101962500D03*
X94750000Y-101962500D03*
X95250000Y-101962500D03*
X95750000Y-101962500D03*
X96250000Y-101962500D03*
D17*
X96962500Y-101250000D03*
X96962500Y-100750000D03*
X96962500Y-100250000D03*
X96962500Y-99750000D03*
X96962500Y-99250000D03*
X96962500Y-98750000D03*
%TD*%
D24*
%TO.C,C69*%
X141300000Y-136000000D03*
X146700000Y-136000000D03*
%TD*%
D11*
%TO.C,C57*%
X114520000Y-126200000D03*
X115480000Y-126200000D03*
%TD*%
%TO.C,C9*%
X114520000Y-42200000D03*
X115480000Y-42200000D03*
%TD*%
D10*
%TO.C,R10*%
X55490000Y-70200000D03*
X56510000Y-70200000D03*
%TD*%
D12*
%TO.C,R27*%
X136510000Y-127400000D03*
X135490000Y-127400000D03*
%TD*%
D10*
%TO.C,R45*%
X111490000Y-32000000D03*
X112510000Y-32000000D03*
%TD*%
D11*
%TO.C,C55*%
X75520000Y-126200000D03*
X76480000Y-126200000D03*
%TD*%
D12*
%TO.C,R29*%
X136510000Y-129800000D03*
X135490000Y-129800000D03*
%TD*%
D10*
%TO.C,R65*%
X64490000Y-33500000D03*
X65510000Y-33500000D03*
%TD*%
D14*
%TO.C,C36*%
X134780000Y-76300000D03*
X133820000Y-76300000D03*
%TD*%
D23*
%TO.C,R37*%
X112000000Y-101800000D03*
X112000000Y-102820000D03*
%TD*%
D10*
%TO.C,R57*%
X120490000Y-54000000D03*
X121510000Y-54000000D03*
%TD*%
D11*
%TO.C,C34*%
X135520000Y-83000000D03*
X136480000Y-83000000D03*
%TD*%
D12*
%TO.C,R5*%
X136510000Y-45800000D03*
X135490000Y-45800000D03*
%TD*%
D11*
%TO.C,C41*%
X114520000Y-98200000D03*
X115480000Y-98200000D03*
%TD*%
D10*
%TO.C,R7*%
X55490000Y-45800000D03*
X56510000Y-45800000D03*
%TD*%
D12*
%TO.C,R12*%
X136510000Y-70200000D03*
X135490000Y-70200000D03*
%TD*%
D11*
%TO.C,C8*%
X114520000Y-43400000D03*
X115480000Y-43400000D03*
%TD*%
D24*
%TO.C,C1*%
X43800000Y-37500000D03*
X49200000Y-37500000D03*
%TD*%
D10*
%TO.C,R55*%
X115490000Y-34000000D03*
X116510000Y-34000000D03*
%TD*%
D11*
%TO.C,C66*%
X135520000Y-139000000D03*
X136480000Y-139000000D03*
%TD*%
D12*
%TO.C,R21*%
X136510000Y-101800000D03*
X135490000Y-101800000D03*
%TD*%
D11*
%TO.C,C46*%
X90770000Y-101960000D03*
X91730000Y-101960000D03*
%TD*%
D10*
%TO.C,R61*%
X123490000Y-54000000D03*
X124510000Y-54000000D03*
%TD*%
%TO.C,R80*%
X127490000Y-33000000D03*
X128510000Y-33000000D03*
%TD*%
D26*
%TO.C,U22*%
X135400000Y-135000000D03*
X136600000Y-135000000D03*
D27*
X135025000Y-136450000D03*
X135675000Y-136450000D03*
X136325000Y-136450000D03*
X136975000Y-136450000D03*
X136975000Y-133550000D03*
X136325000Y-133550000D03*
X135675000Y-133550000D03*
X135025000Y-133550000D03*
%TD*%
D10*
%TO.C,R69*%
X138490000Y-133550000D03*
X139510000Y-133550000D03*
%TD*%
D14*
%TO.C,C60*%
X115480000Y-129800000D03*
X114520000Y-129800000D03*
%TD*%
D10*
%TO.C,R78*%
X129490000Y-33000000D03*
X130510000Y-33000000D03*
%TD*%
D29*
%TO.C,U1*%
X94850000Y-24700000D03*
X94850000Y-27000000D03*
D30*
X101150000Y-27000000D03*
D29*
X94850000Y-29300000D03*
%TD*%
D14*
%TO.C,C27*%
X76480000Y-72600000D03*
X75520000Y-72600000D03*
%TD*%
D10*
%TO.C,R26*%
X55490000Y-126200000D03*
X56510000Y-126200000D03*
%TD*%
D11*
%TO.C,C33*%
X109520000Y-81500000D03*
X110480000Y-81500000D03*
%TD*%
D14*
%TO.C,C10*%
X76480000Y-45800000D03*
X75520000Y-45800000D03*
%TD*%
D10*
%TO.C,R64*%
X123490000Y-138000000D03*
X124510000Y-138000000D03*
%TD*%
D11*
%TO.C,C47*%
X98670000Y-98040000D03*
X99630000Y-98040000D03*
%TD*%
D12*
%TO.C,R3*%
X136510000Y-43400000D03*
X135490000Y-43400000D03*
%TD*%
D23*
%TO.C,R39*%
X112000000Y-129800000D03*
X112000000Y-130820000D03*
%TD*%
D12*
%TO.C,R4*%
X136510000Y-42200000D03*
X135490000Y-42200000D03*
%TD*%
D26*
%TO.C,U4*%
X135400000Y-51000000D03*
X136600000Y-51000000D03*
D27*
X135025000Y-52450000D03*
X135675000Y-52450000D03*
X136325000Y-52450000D03*
X136975000Y-52450000D03*
X136975000Y-49550000D03*
X136325000Y-49550000D03*
X135675000Y-49550000D03*
X135025000Y-49550000D03*
%TD*%
D23*
%TO.C,R33*%
X112000000Y-45800000D03*
X112000000Y-46820000D03*
%TD*%
D10*
%TO.C,R15*%
X55490000Y-73800000D03*
X56510000Y-73800000D03*
%TD*%
D12*
%TO.C,R6*%
X136510000Y-44600000D03*
X135490000Y-44600000D03*
%TD*%
D18*
%TO.C,U21*%
X108637500Y-134750000D03*
D19*
X108637500Y-134250000D03*
X108637500Y-133750000D03*
D18*
X108637500Y-133250000D03*
D20*
X108000000Y-133140000D03*
D18*
X107362500Y-133250000D03*
D19*
X107362500Y-133750000D03*
X107362500Y-134250000D03*
D18*
X107362500Y-134750000D03*
D20*
X108000000Y-134860000D03*
%TD*%
D14*
%TO.C,C44*%
X115480000Y-101800000D03*
X114520000Y-101800000D03*
%TD*%
D25*
%TO.C,U25*%
X115162500Y-134350000D03*
X115162500Y-135000000D03*
X115162500Y-135650000D03*
X116837500Y-135650000D03*
X116837500Y-134350000D03*
%TD*%
D24*
%TO.C,C37*%
X141300000Y-80000000D03*
X146700000Y-80000000D03*
%TD*%
D10*
%TO.C,R32*%
X55490000Y-128600000D03*
X56510000Y-128600000D03*
%TD*%
%TO.C,R24*%
X55490000Y-100600000D03*
X56510000Y-100600000D03*
%TD*%
D25*
%TO.C,U19*%
X115162500Y-106350000D03*
X115162500Y-107000000D03*
X115162500Y-107650000D03*
X116837500Y-107650000D03*
X116837500Y-106350000D03*
%TD*%
D10*
%TO.C,R79*%
X121490000Y-33000000D03*
X122510000Y-33000000D03*
%TD*%
D12*
%TO.C,R30*%
X136510000Y-128600000D03*
X135490000Y-128600000D03*
%TD*%
D14*
%TO.C,C12*%
X115480000Y-45800000D03*
X114520000Y-45800000D03*
%TD*%
D11*
%TO.C,C31*%
X98670000Y-70040000D03*
X99630000Y-70040000D03*
%TD*%
%TO.C,C4*%
X97520000Y-33000000D03*
X98480000Y-33000000D03*
%TD*%
D22*
%TO.C,R38*%
X112000000Y-100600000D03*
X112000000Y-99580000D03*
%TD*%
D10*
%TO.C,R60*%
X120490000Y-138000000D03*
X121510000Y-138000000D03*
%TD*%
D12*
%TO.C,R20*%
X136510000Y-98200000D03*
X135490000Y-98200000D03*
%TD*%
D11*
%TO.C,C15*%
X98670000Y-42040000D03*
X99630000Y-42040000D03*
%TD*%
D28*
%TO.C,U6*%
X150925000Y-39500000D03*
X150925000Y-40000000D03*
X150925000Y-40500000D03*
X150925000Y-41000000D03*
X150925000Y-41500000D03*
X150925000Y-42000000D03*
X150925000Y-42500000D03*
X152275000Y-42500000D03*
X152275000Y-42000000D03*
X152275000Y-41500000D03*
X152275000Y-41000000D03*
X152275000Y-40500000D03*
X152275000Y-40000000D03*
X152275000Y-39500000D03*
%TD*%
D10*
%TO.C,R53*%
X111490000Y-34000000D03*
X112510000Y-34000000D03*
%TD*%
D11*
%TO.C,C7*%
X75520000Y-42200000D03*
X76480000Y-42200000D03*
%TD*%
D10*
%TO.C,R58*%
X120490000Y-82000000D03*
X121510000Y-82000000D03*
%TD*%
D11*
%TO.C,C18*%
X135520000Y-55000000D03*
X136480000Y-55000000D03*
%TD*%
D28*
%TO.C,U18*%
X150925000Y-95500000D03*
X150925000Y-96000000D03*
X150925000Y-96500000D03*
X150925000Y-97000000D03*
X150925000Y-97500000D03*
X150925000Y-98000000D03*
X150925000Y-98500000D03*
X152275000Y-98500000D03*
X152275000Y-98000000D03*
X152275000Y-97500000D03*
X152275000Y-97000000D03*
X152275000Y-96500000D03*
X152275000Y-96000000D03*
X152275000Y-95500000D03*
%TD*%
D11*
%TO.C,C50*%
X135520000Y-111000000D03*
X136480000Y-111000000D03*
%TD*%
D10*
%TO.C,R66*%
X138490000Y-49550000D03*
X139510000Y-49550000D03*
%TD*%
D13*
%TO.C,U5*%
X40875000Y-44500000D03*
X40875000Y-44000000D03*
X40875000Y-43500000D03*
X40875000Y-43000000D03*
X40875000Y-42500000D03*
X40875000Y-42000000D03*
X40875000Y-41500000D03*
X39525000Y-41500000D03*
X39525000Y-42000000D03*
X39525000Y-42500000D03*
X39525000Y-43000000D03*
X39525000Y-43500000D03*
X39525000Y-44000000D03*
X39525000Y-44500000D03*
%TD*%
D11*
%TO.C,C56*%
X114520000Y-127400000D03*
X115480000Y-127400000D03*
%TD*%
D10*
%TO.C,R46*%
X113490000Y-32000000D03*
X114510000Y-32000000D03*
%TD*%
D11*
%TO.C,C22*%
X75520000Y-71400000D03*
X76480000Y-71400000D03*
%TD*%
D10*
%TO.C,R43*%
X107490000Y-32000000D03*
X108510000Y-32000000D03*
%TD*%
D14*
%TO.C,C13*%
X115480000Y-44600000D03*
X114520000Y-44600000D03*
%TD*%
D11*
%TO.C,C5*%
X100520000Y-33000000D03*
X101480000Y-33000000D03*
%TD*%
D10*
%TO.C,R54*%
X113490000Y-34000000D03*
X114510000Y-34000000D03*
%TD*%
D14*
%TO.C,C20*%
X134780000Y-48300000D03*
X133820000Y-48300000D03*
%TD*%
D10*
%TO.C,R56*%
X117490000Y-34000000D03*
X118510000Y-34000000D03*
%TD*%
D11*
%TO.C,C32*%
X98670000Y-75000000D03*
X99630000Y-75000000D03*
%TD*%
D10*
%TO.C,R72*%
X129490000Y-82000000D03*
X130510000Y-82000000D03*
%TD*%
D22*
%TO.C,R40*%
X112000000Y-128600000D03*
X112000000Y-127580000D03*
%TD*%
D12*
%TO.C,R70*%
X73510000Y-27000000D03*
X72490000Y-27000000D03*
%TD*%
D18*
%TO.C,U3*%
X108637500Y-50750000D03*
D19*
X108637500Y-50250000D03*
X108637500Y-49750000D03*
D18*
X108637500Y-49250000D03*
D20*
X108000000Y-49140000D03*
D18*
X107362500Y-49250000D03*
D19*
X107362500Y-49750000D03*
X107362500Y-50250000D03*
D18*
X107362500Y-50750000D03*
D20*
X108000000Y-50860000D03*
%TD*%
D21*
%TO.C,Q5*%
X125062500Y-134050000D03*
X125062500Y-135950000D03*
X126937500Y-135000000D03*
%TD*%
D14*
%TO.C,C68*%
X134780000Y-132300000D03*
X133820000Y-132300000D03*
%TD*%
D10*
%TO.C,R52*%
X109490000Y-34000000D03*
X110510000Y-34000000D03*
%TD*%
D11*
%TO.C,C35*%
X118520000Y-80500000D03*
X119480000Y-80500000D03*
%TD*%
%TO.C,C16*%
X98670000Y-47000000D03*
X99630000Y-47000000D03*
%TD*%
D31*
%TO.C,Q1*%
X69900000Y-25660000D03*
X68630000Y-25660000D03*
X67360000Y-25660000D03*
X66090000Y-25660000D03*
D32*
X66090000Y-31140000D03*
X67360000Y-31140000D03*
X68630000Y-31140000D03*
X69910000Y-31140000D03*
D33*
X68000000Y-29050000D03*
%TD*%
D14*
%TO.C,C29*%
X115480000Y-72600000D03*
X114520000Y-72600000D03*
%TD*%
D28*
%TO.C,U12*%
X150925000Y-67500000D03*
X150925000Y-68000000D03*
X150925000Y-68500000D03*
X150925000Y-69000000D03*
X150925000Y-69500000D03*
X150925000Y-70000000D03*
X150925000Y-70500000D03*
X152275000Y-70500000D03*
X152275000Y-70000000D03*
X152275000Y-69500000D03*
X152275000Y-69000000D03*
X152275000Y-68500000D03*
X152275000Y-68000000D03*
X152275000Y-67500000D03*
%TD*%
D14*
%TO.C,C28*%
X115480000Y-73800000D03*
X114520000Y-73800000D03*
%TD*%
%TO.C,C11*%
X76480000Y-44600000D03*
X75520000Y-44600000D03*
%TD*%
D21*
%TO.C,Q4*%
X125062500Y-106050000D03*
X125062500Y-107950000D03*
X126937500Y-107000000D03*
%TD*%
D11*
%TO.C,C14*%
X90770000Y-45960000D03*
X91730000Y-45960000D03*
%TD*%
D21*
%TO.C,Q3*%
X125062500Y-78050000D03*
X125062500Y-79950000D03*
X126937500Y-79000000D03*
%TD*%
D14*
%TO.C,C58*%
X76480000Y-129800000D03*
X75520000Y-129800000D03*
%TD*%
D24*
%TO.C,C2*%
X85300000Y-27000000D03*
X90700000Y-27000000D03*
%TD*%
D14*
%TO.C,C43*%
X76480000Y-100600000D03*
X75520000Y-100600000D03*
%TD*%
D10*
%TO.C,R47*%
X115490000Y-32000000D03*
X116510000Y-32000000D03*
%TD*%
%TO.C,R2*%
X55490000Y-42200000D03*
X56510000Y-42200000D03*
%TD*%
D14*
%TO.C,C52*%
X134780000Y-104300000D03*
X133820000Y-104300000D03*
%TD*%
D10*
%TO.C,R73*%
X129490000Y-110000000D03*
X130510000Y-110000000D03*
%TD*%
M02*
