M48
; DRILL file KiCad 10.0.4-10.0.4~ubuntu24.04.1 date 2026-08-15T15:13:20
; FORMAT={-:-/ absolute / metric / decimal}
; #@! TF.CreationDate,2026-08-15T15:13:20-07:00
; #@! TF.GenerationSoftware,Kicad,Pcbnew,10.0.4-10.0.4~ubuntu24.04.1
; #@! TF.FileFunction,Plated,1,4,PTH
FMAT,2
METRIC
; #@! TA.AperFunction,Plated,PTH,ViaDrill
T1C0.200
; #@! TA.AperFunction,Plated,PTH,ComponentDrill
T2C0.200
; #@! TA.AperFunction,Plated,PTH,ViaDrill
T3C0.250
; #@! TA.AperFunction,Plated,PTH,ViaDrill
T4C0.300
; #@! TA.AperFunction,Plated,PTH,ComponentDrill
T5C0.700
; #@! TA.AperFunction,Plated,PTH,ComponentDrill
T6C0.920
; #@! TA.AperFunction,Plated,PTH,ComponentDrill
T7C1.000
; #@! TA.AperFunction,Plated,PTH,ComponentDrill
T8C1.300
; #@! TA.AperFunction,Plated,PTH,ComponentDrill
T9C1.780
; #@! TA.AperFunction,Plated,PTH,ComponentDrill
T10C2.300
%
G90
G05
T1
X22.0Y-22.0
X22.0Y-28.0
X22.0Y-34.0
X22.0Y-40.0
X22.0Y-46.0
X22.0Y-52.0
X22.0Y-58.0
X22.0Y-64.0
X22.0Y-70.0
X22.0Y-76.0
X22.0Y-82.0
X22.0Y-88.0
X22.0Y-94.0
X22.0Y-100.0
X22.0Y-106.0
X22.0Y-112.0
X22.0Y-118.0
X22.0Y-124.0
X22.0Y-130.0
X22.0Y-136.0
X28.0Y-22.0
X28.0Y-28.0
X28.0Y-34.0
X28.0Y-40.0
X28.0Y-46.0
X28.0Y-52.0
X28.0Y-58.0
X28.0Y-64.0
X28.0Y-70.0
X28.0Y-76.0
X28.0Y-82.0
X28.0Y-88.0
X28.0Y-94.0
X28.0Y-100.0
X28.0Y-106.0
X28.0Y-112.0
X28.0Y-118.0
X28.0Y-124.0
X28.0Y-130.0
X28.0Y-136.0
X33.55Y-43.36
X33.55Y-71.36
X33.55Y-99.36
X33.55Y-127.36
X34.0Y-22.0
X34.0Y-28.0
X34.0Y-34.0
X34.0Y-40.0
X34.0Y-46.0
X34.0Y-52.0
X34.0Y-58.0
X34.0Y-64.0
X34.0Y-76.0
X34.0Y-82.0
X34.0Y-88.0
X34.0Y-94.0
X34.0Y-106.0
X34.0Y-112.0
X34.0Y-118.0
X34.0Y-124.0
X34.0Y-130.0
X34.0Y-136.0
X36.11Y-41.94
X36.11Y-69.94
X36.11Y-97.94
X36.11Y-125.94
X38.4Y-43.0
X38.4Y-71.0
X38.4Y-99.0
X38.4Y-127.0
X38.9Y-43.5
X38.9Y-71.5
X38.9Y-99.5
X38.9Y-127.5
X40.0Y-22.0
X40.0Y-28.0
X40.0Y-34.0
X40.0Y-40.0
X40.0Y-46.0
X40.0Y-52.0
X40.0Y-58.0
X40.0Y-64.0
X40.0Y-76.0
X40.0Y-82.0
X40.0Y-88.0
X40.0Y-94.0
X40.0Y-106.0
X40.0Y-112.0
X40.0Y-118.0
X40.0Y-124.0
X40.0Y-130.0
X40.0Y-136.0
X41.5Y-46.0
X41.5Y-74.0
X41.5Y-102.0
X41.5Y-130.0
X41.6Y-43.5
X41.6Y-71.5
X41.6Y-99.5
X41.6Y-127.5
X42.0Y-43.0
X42.0Y-71.0
X42.0Y-99.0
X42.0Y-127.0
X42.2Y-40.3
X42.2Y-68.3
X42.2Y-96.3
X42.2Y-124.3
X42.8Y-44.5
X42.8Y-72.5
X42.8Y-100.5
X42.8Y-128.5
X43.0Y-41.0
X43.0Y-42.2
X43.0Y-69.0
X43.0Y-70.2
X43.0Y-97.0
X43.0Y-98.2
X43.0Y-125.0
X43.0Y-126.2
X44.0Y-40.5
X44.0Y-68.5
X44.0Y-96.5
X44.0Y-124.5
X46.0Y-22.0
X46.0Y-28.0
X46.0Y-34.0
X46.0Y-40.0
X46.0Y-46.0
X46.0Y-52.0
X46.0Y-58.0
X46.0Y-64.0
X46.0Y-82.0
X46.0Y-88.0
X46.0Y-94.0
X46.0Y-106.0
X46.0Y-112.0
X46.0Y-118.0
X46.0Y-124.0
X46.0Y-130.0
X46.0Y-136.0
X51.0Y-47.5
X51.0Y-75.5
X51.0Y-103.5
X51.0Y-131.5
X52.0Y-22.0
X52.0Y-28.0
X52.0Y-34.0
X52.0Y-40.0
X52.0Y-48.2
X52.0Y-52.0
X52.0Y-58.0
X52.0Y-64.0
X52.0Y-76.2
X52.0Y-82.0
X52.0Y-88.0
X52.0Y-94.0
X52.0Y-100.0
X52.0Y-104.2
X52.0Y-106.0
X52.0Y-112.0
X52.0Y-118.0
X52.0Y-124.0
X52.0Y-132.2
X52.0Y-136.0
X52.5Y-49.2
X52.5Y-77.2
X52.5Y-105.2
X52.5Y-133.2
X53.0Y-50.0
X53.0Y-78.0
X53.0Y-106.0
X53.0Y-134.0
X53.7Y-44.0
X53.7Y-46.4
X53.7Y-72.0
X53.7Y-74.4
X53.7Y-100.0
X53.7Y-102.4
X53.7Y-128.0
X53.7Y-130.4
X54.5Y-44.6
X54.5Y-45.8
X54.5Y-72.6
X54.5Y-73.8
X54.5Y-100.6
X54.5Y-101.8
X54.5Y-128.6
X54.5Y-129.8
X58.0Y-22.0
X58.0Y-34.0
X58.0Y-40.0
X58.0Y-46.0
X58.0Y-52.0
X58.0Y-58.0
X58.0Y-64.0
X58.0Y-70.0
X58.0Y-82.0
X58.0Y-88.0
X58.0Y-94.0
X58.0Y-100.0
X58.0Y-106.0
X58.0Y-112.0
X58.0Y-118.0
X58.0Y-124.0
X58.0Y-130.0
X58.0Y-136.0
X64.0Y-22.0
X64.0Y-28.0
X64.0Y-40.0
X64.0Y-46.0
X64.0Y-52.0
X64.0Y-58.0
X64.0Y-64.0
X64.0Y-70.0
X64.0Y-82.0
X64.0Y-88.0
X64.0Y-94.0
X64.0Y-100.0
X64.0Y-106.0
X64.0Y-112.0
X64.0Y-118.0
X64.0Y-124.0
X64.0Y-130.0
X64.0Y-136.0
X65.5Y-33.1
X70.0Y-22.0
X70.0Y-40.0
X70.0Y-46.0
X70.0Y-52.0
X70.0Y-58.0
X70.0Y-64.0
X70.0Y-70.0
X70.0Y-82.0
X70.0Y-88.0
X70.0Y-94.0
X70.0Y-100.0
X70.0Y-106.0
X70.0Y-112.0
X70.0Y-118.0
X70.0Y-124.0
X70.0Y-130.0
X70.0Y-136.0
X76.0Y-22.0
X76.0Y-28.0
X76.0Y-34.0
X76.0Y-40.0
X76.0Y-52.0
X76.0Y-58.0
X76.0Y-64.0
X76.0Y-82.0
X76.0Y-88.0
X76.0Y-94.0
X76.0Y-106.0
X76.0Y-112.0
X76.0Y-118.0
X76.0Y-124.0
X82.0Y-22.0
X82.0Y-28.0
X82.0Y-34.0
X82.0Y-40.0
X82.0Y-52.0
X82.0Y-58.0
X82.0Y-64.0
X82.0Y-70.0
X82.0Y-82.0
X82.0Y-88.0
X82.0Y-94.0
X82.0Y-100.0
X82.0Y-106.0
X82.0Y-112.0
X82.0Y-118.0
X82.0Y-124.0
X82.0Y-130.0
X82.0Y-136.0
X88.0Y-22.0
X88.0Y-28.0
X88.0Y-34.0
X88.0Y-40.0
X88.0Y-46.0
X88.0Y-52.0
X88.0Y-58.0
X88.0Y-64.0
X88.0Y-70.0
X88.0Y-82.0
X88.0Y-88.0
X88.0Y-94.0
X88.0Y-100.0
X88.0Y-106.0
X88.0Y-112.0
X88.0Y-118.0
X88.0Y-124.0
X90.0Y-46.7
X90.0Y-74.7
X90.0Y-102.7
X90.0Y-130.75
X91.35Y-47.55
X91.35Y-49.85
X91.35Y-75.55
X91.35Y-77.85
X91.35Y-103.55
X91.35Y-105.85
X92.0Y-47.2
X92.0Y-75.2
X92.0Y-103.2
X92.0Y-131.25
X92.63Y-101.89
X92.71Y-45.86
X92.71Y-73.86
X93.35Y-46.05
X93.35Y-49.85
X93.35Y-74.05
X93.35Y-77.85
X93.35Y-102.05
X93.35Y-105.85
X93.35Y-130.1
X94.0Y-22.0
X94.0Y-34.0
X94.0Y-47.7
X94.0Y-75.7
X94.0Y-103.7
X94.0Y-131.75
X94.0Y-136.0
X96.0Y-40.3
X96.0Y-68.3
X96.0Y-96.3
X96.0Y-124.3
X96.4Y-131.65
X96.8Y-40.2
X96.8Y-68.2
X96.8Y-96.2
X96.8Y-124.2
X97.4Y-45.85
X97.4Y-73.85
X97.4Y-101.85
X97.6Y-131.39
X98.0Y-40.8
X98.0Y-68.8
X98.0Y-96.8
X98.0Y-124.8
X98.0Y-126.7
X98.65Y-40.65
X98.65Y-42.6
X98.65Y-47.55
X98.65Y-49.85
X98.65Y-68.65
X98.65Y-73.9
X98.65Y-77.85
X98.65Y-96.65
X98.65Y-101.9
X98.65Y-105.85
X98.65Y-124.65
X98.65Y-129.9
X99.41Y-98.44
X100.0Y-22.0
X100.0Y-34.0
X100.0Y-41.3
X100.0Y-69.3
X100.0Y-97.3
X100.0Y-125.3
X100.95Y-99.42
X101.0Y-41.5
X101.0Y-56.5
X101.05Y-59.44
X102.0Y-41.5
X102.0Y-84.5
X103.0Y-139.0
X103.55Y-42.25
X103.55Y-51.5
X104.18Y-46.92
X104.9Y-77.15
X104.9Y-79.5
X104.9Y-105.15
X104.9Y-107.5
X105.35Y-133.1
X105.5Y-41.5
X105.5Y-112.5
X106.0Y-22.0
X106.0Y-28.0
X106.0Y-118.0
X106.0Y-124.0
X106.0Y-130.0
X106.0Y-136.0
X106.45Y-134.9
X106.5Y-41.5
X106.6Y-133.15
X106.7Y-30.8
X107.05Y-32.7
X107.05Y-42.65
X107.1Y-29.65
X107.25Y-132.2
X107.35Y-76.65
X107.35Y-104.65
X107.5Y-30.8
X107.5Y-111.85
X107.5Y-113.65
X107.7Y-114.5
X107.85Y-138.35
X107.9Y-45.8
X107.9Y-52.0
X108.5Y-41.5
X108.5Y-116.5
X108.892Y-33.066
X109.3Y-114.5
X109.4Y-52.2
X109.4Y-80.2
X109.4Y-108.2
X109.4Y-136.2
X109.47Y-111.11
X109.5Y-70.7
X109.5Y-82.8
X109.75Y-48.7
X110.0Y-51.2
X110.0Y-79.2
X110.0Y-107.2
X110.0Y-135.2
X110.45Y-126.7
X110.55Y-49.2
X110.76Y-81.47
X111.25Y-130.4
X111.3Y-48.45
X111.4Y-131.95
X112.0Y-22.0
X112.0Y-28.0
X112.0Y-58.0
X112.0Y-64.0
X112.0Y-88.0
X112.0Y-94.0
X112.0Y-118.0
X112.0Y-124.0
X112.0Y-136.0
X112.5Y-131.55
X112.85Y-53.65
X112.85Y-80.5
X112.85Y-106.45
X112.9Y-52.95
X112.9Y-82.15
X112.96Y-32.65
X113.5Y-134.35
X113.65Y-32.45
X114.05Y-51.7
X114.05Y-52.95
X114.05Y-79.65
X114.05Y-82.15
X114.06Y-50.91
X114.2Y-107.0
X115.0Y-53.0
X115.08Y-79.87
X115.25Y-31.2
X115.7Y-32.35
X115.84Y-54.65
X115.84Y-107.94
X116.0Y-31.3
X116.15Y-106.45
X116.9Y-31.25
X117.49Y-41.0
X117.55Y-137.4
X118.0Y-46.0
X118.0Y-58.0
X118.0Y-64.0
X118.0Y-70.0
X118.0Y-88.0
X118.0Y-94.0
X118.0Y-100.0
X118.0Y-118.0
X118.0Y-124.0
X118.0Y-130.0
X118.2Y-26.75
X118.25Y-52.75
X119.4Y-81.3
X120.0Y-49.8
X120.0Y-77.8
X120.0Y-105.8
X120.0Y-133.8
X120.35Y-50.9
X121.4Y-111.2
X121.4Y-113.05
X121.45Y-50.45
X121.49Y-34.0
X121.8Y-83.7
X122.25Y-54.0
X122.85Y-109.35
X123.49Y-35.0
X123.85Y-135.6
X124.0Y-22.0
X124.0Y-28.0
X124.0Y-40.0
X124.0Y-46.0
X124.0Y-52.0
X124.0Y-58.0
X124.0Y-64.0
X124.0Y-70.0
X124.0Y-88.0
X124.0Y-94.0
X124.0Y-100.0
X124.0Y-118.0
X124.0Y-124.0
X124.0Y-130.0
X124.1Y-81.45
X124.1Y-137.45
X124.94Y-136.59
X125.49Y-36.0
X126.95Y-110.0
X127.49Y-37.0
X129.49Y-38.0
X130.0Y-22.0
X130.0Y-28.0
X130.0Y-40.0
X130.0Y-46.0
X130.0Y-52.0
X130.0Y-58.0
X130.0Y-64.0
X130.0Y-70.0
X130.0Y-88.0
X130.0Y-94.0
X130.0Y-100.0
X130.0Y-106.0
X130.0Y-118.0
X130.0Y-124.0
X130.0Y-130.0
X130.0Y-136.0
X131.49Y-39.0
X131.5Y-49.5
X131.5Y-77.5
X131.5Y-105.5
X131.5Y-133.5
X133.0Y-39.5
X133.0Y-67.5
X133.0Y-95.5
X133.0Y-123.5
X134.0Y-40.5
X134.0Y-49.5
X134.0Y-68.5
X134.0Y-77.5
X134.0Y-96.5
X134.0Y-105.5
X134.0Y-124.5
X134.0Y-133.5
X134.5Y-41.0
X134.5Y-69.0
X134.5Y-97.0
X134.5Y-125.0
X135.5Y-39.5
X135.5Y-67.5
X135.5Y-95.5
X135.5Y-123.5
X136.0Y-28.0
X136.0Y-34.0
X136.0Y-58.0
X136.0Y-64.0
X136.0Y-76.0
X136.0Y-82.0
X136.0Y-88.0
X136.0Y-94.0
X136.0Y-118.0
X138.5Y-116.5
X138.5Y-138.5
X139.0Y-44.0
X139.0Y-72.0
X139.0Y-100.0
X139.0Y-128.0
X139.7Y-46.6
X139.7Y-74.6
X139.7Y-102.6
X139.7Y-130.6
X140.5Y-44.6
X140.5Y-45.8
X140.5Y-72.6
X140.5Y-73.8
X140.5Y-100.6
X140.5Y-101.8
X140.5Y-128.6
X140.5Y-129.8
X142.0Y-28.0
X142.0Y-34.0
X142.0Y-46.0
X142.0Y-58.0
X142.0Y-64.0
X142.0Y-76.0
X142.0Y-88.0
X142.0Y-94.0
X142.0Y-106.0
X142.0Y-112.0
X142.0Y-118.0
X142.0Y-130.0
X142.4Y-53.4
X142.4Y-81.4
X142.4Y-109.4
X142.4Y-137.4
X143.2Y-53.4
X143.2Y-81.4
X143.2Y-109.4
X143.2Y-137.4
X146.5Y-38.3
X146.5Y-66.3
X146.5Y-94.3
X146.5Y-122.3
X147.5Y-39.15
X147.5Y-39.85
X147.5Y-67.15
X147.5Y-67.85
X147.5Y-95.15
X147.5Y-95.85
X147.5Y-123.15
X147.5Y-123.85
X148.0Y-28.0
X148.0Y-34.0
X148.0Y-46.0
X148.0Y-58.0
X148.0Y-64.0
X148.0Y-76.0
X148.0Y-88.0
X148.0Y-94.0
X148.0Y-100.0
X148.0Y-106.0
X148.0Y-112.0
X148.0Y-118.0
X148.0Y-130.0
X148.5Y-38.3
X148.5Y-66.3
X148.5Y-94.3
X148.5Y-122.3
X153.0Y-40.5
X153.0Y-68.5
X153.0Y-96.5
X153.0Y-124.5
X153.5Y-41.0
X153.5Y-69.0
X153.5Y-97.0
X153.5Y-125.0
X154.0Y-28.0
X154.0Y-34.0
X154.0Y-46.0
X154.0Y-52.0
X154.0Y-58.0
X154.0Y-76.0
X154.0Y-88.0
X154.0Y-106.0
X154.0Y-112.0
X154.0Y-118.0
X154.0Y-130.0
X154.0Y-136.0
X160.0Y-22.0
X160.0Y-28.0
X160.0Y-34.0
X160.0Y-40.0
X160.0Y-46.0
X160.0Y-52.0
X160.0Y-58.0
X160.0Y-64.0
X160.0Y-70.0
X160.0Y-76.0
X160.0Y-88.0
X160.0Y-94.0
X160.0Y-106.0
X160.0Y-112.0
X160.0Y-118.0
X160.0Y-124.0
X160.0Y-130.0
X160.0Y-136.0
X166.0Y-22.0
X166.0Y-28.0
X166.0Y-34.0
X166.0Y-40.0
X166.0Y-46.0
X166.0Y-52.0
X166.0Y-58.0
X166.0Y-64.0
X166.0Y-70.0
X166.0Y-76.0
X166.0Y-82.0
X166.0Y-88.0
X166.0Y-94.0
X166.0Y-100.0
X166.0Y-106.0
X166.0Y-112.0
X166.0Y-118.0
X166.0Y-124.0
X166.0Y-130.0
X166.0Y-136.0
T2
X135.05Y-50.425
X135.05Y-51.575
X135.05Y-78.425
X135.05Y-79.575
X135.05Y-106.425
X135.05Y-107.575
X135.05Y-134.425
X135.05Y-135.575
X136.0Y-50.425
X136.0Y-51.575
X136.0Y-78.425
X136.0Y-79.575
X136.0Y-106.425
X136.0Y-107.575
X136.0Y-134.425
X136.0Y-135.575
X136.95Y-50.425
X136.95Y-51.575
X136.95Y-78.425
X136.95Y-79.575
X136.95Y-106.425
X136.95Y-107.575
X136.95Y-134.425
X136.95Y-135.575
T3
X49.2Y-37.5
X90.7Y-27.0
X90.8Y-128.55
X94.5Y-44.0
X94.5Y-72.0
X94.5Y-100.0
X94.5Y-128.0
X95.48Y-33.0
X95.5Y-44.0
X95.5Y-72.0
X95.5Y-100.0
X95.5Y-128.0
X98.65Y-69.95
X98.65Y-97.95
X98.65Y-125.95
X101.15Y-26.4
X101.15Y-27.6
X104.51Y-34.0
X105.6Y-31.9
X107.362Y-50.75
X107.362Y-78.75
X107.362Y-106.75
X107.362Y-133.25
X107.362Y-134.75
X107.5Y-31.9
X108.0Y-49.14
X108.0Y-77.14
X108.0Y-105.14
X108.0Y-133.14
X109.35Y-31.9
X109.5Y-81.5
X110.48Y-53.5
X111.75Y-31.9
X116.837Y-50.35
X116.85Y-78.5
X118.45Y-80.5
X118.45Y-136.5
X119.5Y-52.5
X119.5Y-80.5
X119.5Y-108.5
X119.5Y-136.5
X120.6Y-54.0
X121.4Y-110.1
X121.51Y-138.0
X124.51Y-110.0
X135.675Y-52.45
X135.675Y-80.45
X135.675Y-108.45
X135.675Y-136.45
X136.325Y-52.45
X136.325Y-80.45
X136.325Y-108.45
X136.325Y-136.45
X136.48Y-55.0
X136.48Y-83.0
X136.48Y-111.0
X136.48Y-139.0
X139.51Y-49.55
X139.51Y-77.55
X139.51Y-105.55
X139.51Y-133.55
T4
X90.5Y-25.2
X90.5Y-29.5
X91.5Y-25.2
X91.5Y-29.5
X92.5Y-25.2
X92.5Y-29.5
X93.25Y-25.2
X93.5Y-29.5
T5
X37.0Y-38.5
X37.0Y-40.25
X37.0Y-42.75
X37.0Y-45.25
X37.0Y-47.0
X37.0Y-66.5
X37.0Y-68.25
X37.0Y-70.75
X37.0Y-73.25
X37.0Y-75.0
X37.0Y-94.5
X37.0Y-96.25
X37.0Y-98.75
X37.0Y-101.25
X37.0Y-103.0
X37.0Y-122.5
X37.0Y-124.25
X37.0Y-126.75
X37.0Y-129.25
X37.0Y-131.0
X154.7Y-36.5
X154.7Y-38.5
X154.7Y-40.5
X154.7Y-42.5
X154.7Y-44.5
X154.7Y-64.5
X154.7Y-66.5
X154.7Y-68.5
X154.7Y-70.5
X154.7Y-72.5
X154.7Y-92.5
X154.7Y-94.5
X154.7Y-96.5
X154.7Y-98.5
X154.7Y-100.5
X154.7Y-120.5
X154.7Y-122.5
X154.7Y-124.5
X154.7Y-126.5
X154.7Y-128.5
X156.2Y-37.0
X156.2Y-39.5
X156.2Y-41.5
X156.2Y-44.0
X156.2Y-65.0
X156.2Y-67.5
X156.2Y-69.5
X156.2Y-72.0
X156.2Y-93.0
X156.2Y-95.5
X156.2Y-97.5
X156.2Y-100.0
X156.2Y-121.0
X156.2Y-123.5
X156.2Y-125.5
X156.2Y-128.0
T6
X33.0Y-41.5
X33.0Y-44.0
X33.0Y-69.5
X33.0Y-72.0
X33.0Y-97.5
X33.0Y-100.0
X33.0Y-125.5
X33.0Y-128.0
X35.0Y-41.5
X35.0Y-44.0
X35.0Y-69.5
X35.0Y-72.0
X35.0Y-97.5
X35.0Y-100.0
X35.0Y-125.5
X35.0Y-128.0
T7
X108.0Y-22.46
X108.0Y-25.0
X110.54Y-22.46
X110.54Y-25.0
X113.08Y-22.46
X113.08Y-25.0
X115.62Y-22.46
X115.62Y-25.0
X118.16Y-22.46
X118.16Y-25.0
X120.7Y-22.46
X120.7Y-25.0
X123.24Y-22.46
X123.24Y-25.0
X125.78Y-22.46
X125.78Y-25.0
X128.32Y-22.46
X128.32Y-25.0
X130.86Y-22.46
X130.86Y-25.0
X133.4Y-22.46
X133.4Y-25.0
X135.94Y-22.46
X135.94Y-25.0
X138.48Y-22.46
X138.48Y-25.0
X141.02Y-22.46
X141.02Y-25.0
X143.56Y-22.46
X143.56Y-25.0
X146.1Y-22.46
X146.1Y-25.0
X148.64Y-22.46
X148.64Y-25.0
X151.18Y-22.46
X151.18Y-25.0
X153.72Y-22.46
X153.72Y-25.0
X156.26Y-22.46
X156.26Y-25.0
T8
X32.0Y-28.0
X37.0Y-28.0
T9
X48.0Y-28.0
X48.0Y-31.4
X57.92Y-28.0
X57.92Y-31.4
T10
X30.29Y-36.73
X30.29Y-48.77
X30.29Y-64.73
X30.29Y-76.77
X30.29Y-92.73
X30.29Y-104.77
X30.29Y-120.73
X30.29Y-132.77
X158.2Y-33.93
X158.2Y-47.07
X158.2Y-61.93
X158.2Y-75.07
X158.2Y-89.93
X158.2Y-103.07
X158.2Y-117.93
X158.2Y-131.07
M30
