M48
; DRILL file KiCad 10.0.4-10.0.4~ubuntu24.04.1 date 2026-07-23T11:21:58
; FORMAT={-:-/ absolute / metric / decimal}
; #@! TF.CreationDate,2026-07-23T11:21:58-07:00
; #@! TF.GenerationSoftware,Kicad,Pcbnew,10.0.4-10.0.4~ubuntu24.04.1
; #@! TF.FileFunction,Plated,1,2,PTH
FMAT,2
METRIC
; #@! TA.AperFunction,Plated,PTH,ViaDrill
T1C0.300
; #@! TA.AperFunction,Plated,PTH,ComponentDrill
T2C0.890
; #@! TA.AperFunction,Plated,PTH,ComponentDrill
T3C0.900
; #@! TA.AperFunction,Plated,PTH,ComponentDrill
T4C1.570
%
G90
G05
T1
X14.0Y-46.0
X20.5Y-38.3
X22.0Y-14.0
X22.0Y-46.0
X22.1Y-38.3
X23.4Y-29.0
X23.4Y-31.0
X29.8Y-32.7
X30.0Y-14.0
X30.0Y-22.0
X30.0Y-30.0
X30.0Y-46.0
X30.288Y-36.3
X31.7Y-34.6
X31.71Y-35.5
X31.95Y-28.0
X33.5Y-45.4
X33.5Y-47.8
X35.27Y-26.7
X37.8Y-52.6
X38.0Y-14.0
X38.0Y-22.0
X38.0Y-38.0
X38.2Y-45.9
X39.3Y-47.0
X40.1Y-32.0
X40.7Y-44.0
X41.0Y-31.1
X41.4Y-44.8
X41.4Y-48.5
X46.0Y-14.0
X46.0Y-22.0
X46.0Y-38.0
X46.4Y-31.8
X46.9Y-49.2
X47.1Y-30.4
X49.52Y-29.91
X50.77Y-24.0
X51.15Y-35.3
X51.8Y-27.9
X54.0Y-14.0
X54.0Y-22.0
X54.0Y-38.0
X54.4Y-30.0
X54.4Y-32.7
X54.83Y-35.0
X55.0Y-36.1
X55.45Y-23.8
X56.1Y-28.5
X56.2Y-31.3
X56.4Y-35.9
X57.1Y-26.3
X61.98Y-44.0
X62.0Y-14.0
X62.0Y-22.0
X62.0Y-30.0
X62.0Y-46.0
X62.9Y-39.1
X63.9Y-40.1
X70.0Y-14.0
X70.0Y-22.0
X70.0Y-30.0
X70.0Y-38.0
X78.0Y-14.0
X78.0Y-22.0
X78.0Y-30.0
X78.0Y-38.0
X78.0Y-46.0
X86.0Y-22.0
X86.0Y-30.0
X86.0Y-38.0
X86.0Y-46.0
T2
X19.5Y-25.904
X19.5Y-27.936
X19.5Y-29.968
X19.5Y-32.0
X21.28Y-24.888
X21.28Y-26.92
X21.28Y-28.952
X21.28Y-30.984
X26.1Y-21.58
X26.1Y-23.87
X26.1Y-33.01
X26.1Y-35.3
T3
X72.73Y-26.0
X75.27Y-26.0
T4
X20.39Y-20.31
X20.39Y-36.57
M30
