%TF.GenerationSoftware,KiCad,Pcbnew,10.0.4-10.0.4~ubuntu24.04.1*%
%TF.CreationDate,2026-08-15T15:13:20-07:00*%
%TF.ProjectId,pi_usb_port_switch,70695f75-7362-45f7-906f-72745f737769,rev?*%
%TF.SameCoordinates,Original*%
%TF.FileFunction,Legend,Bot*%
%TF.FilePolarity,Positive*%
%FSLAX46Y46*%
G04 Gerber Fmt 4.6, Leading zero omitted, Abs format (unit mm)*
G04 Created by KiCad (PCBNEW 10.0.4-10.0.4~ubuntu24.04.1) date 2026-08-15 15:13:20*
%MOMM*%
%LPD*%
G01*
G04 APERTURE LIST*
G04 Aperture macros list*
%AMRoundRect*
0 Rectangle with rounded corners*
0 $1 Rounding radius*
0 $2 $3 $4 $5 $6 $7 $8 $9 X,Y pos of 4 corners*
0 Add a 4 corners polygon primitive as box body*
4,1,4,$2,$3,$4,$5,$6,$7,$8,$9,$2,$3,0*
0 Add four circle primitives for the rounded corners*
1,1,$1+$1,$2,$3*
1,1,$1+$1,$4,$5*
1,1,$1+$1,$6,$7*
1,1,$1+$1,$8,$9*
0 Add four rect primitives between the rounded corners*
20,1,$1+$1,$2,$3,$4,$5,0*
20,1,$1+$1,$4,$5,$6,$7,0*
20,1,$1+$1,$6,$7,$8,$9,0*
20,1,$1+$1,$8,$9,$2,$3,0*%
G04 Aperture macros list end*
%ADD10R,1.300000X1.300000*%
%ADD11C,1.300000*%
%ADD12C,3.300000*%
%ADD13R,1.700000X1.700000*%
%ADD14C,1.700000*%
%ADD15C,3.200000*%
%ADD16R,1.428000X1.428000*%
%ADD17C,1.428000*%
%ADD18C,1.208000*%
%ADD19C,3.316000*%
%ADD20C,2.780000*%
%ADD21RoundRect,0.250000X-1.050000X-1.050000X1.050000X-1.050000X1.050000X1.050000X-1.050000X1.050000X0*%
%ADD22C,2.600000*%
G04 APERTURE END LIST*
%LPC*%
D10*
%TO.C,J10*%
X156200000Y-128000000D03*
D11*
X156200000Y-125500000D03*
X156200000Y-123500000D03*
X156200000Y-121000000D03*
X154700000Y-120500000D03*
X154700000Y-122500000D03*
X154700000Y-124500000D03*
X154700000Y-126500000D03*
X154700000Y-128500000D03*
D12*
X158200000Y-131070000D03*
X158200000Y-117930000D03*
%TD*%
D13*
%TO.C,J2*%
X108000000Y-25000000D03*
D14*
X108000000Y-22460000D03*
X110540000Y-25000000D03*
X110540000Y-22460000D03*
X113080000Y-25000000D03*
X113080000Y-22460000D03*
X115620000Y-25000000D03*
X115620000Y-22460000D03*
X118160000Y-25000000D03*
X118160000Y-22460000D03*
X120700000Y-25000000D03*
X120700000Y-22460000D03*
X123240000Y-25000000D03*
X123240000Y-22460000D03*
X125780000Y-25000000D03*
X125780000Y-22460000D03*
X128320000Y-25000000D03*
X128320000Y-22460000D03*
X130860000Y-25000000D03*
X130860000Y-22460000D03*
X133400000Y-25000000D03*
X133400000Y-22460000D03*
X135940000Y-25000000D03*
X135940000Y-22460000D03*
X138480000Y-25000000D03*
X138480000Y-22460000D03*
X141020000Y-25000000D03*
X141020000Y-22460000D03*
X143560000Y-25000000D03*
X143560000Y-22460000D03*
X146100000Y-25000000D03*
X146100000Y-22460000D03*
X148640000Y-25000000D03*
X148640000Y-22460000D03*
X151180000Y-25000000D03*
X151180000Y-22460000D03*
X153720000Y-25000000D03*
X153720000Y-22460000D03*
X156260000Y-25000000D03*
X156260000Y-22460000D03*
%TD*%
D10*
%TO.C,J8*%
X156200000Y-100000000D03*
D11*
X156200000Y-97500000D03*
X156200000Y-95500000D03*
X156200000Y-93000000D03*
X154700000Y-92500000D03*
X154700000Y-94500000D03*
X154700000Y-96500000D03*
X154700000Y-98500000D03*
X154700000Y-100500000D03*
D12*
X158200000Y-103070000D03*
X158200000Y-89930000D03*
%TD*%
D10*
%TO.C,J6*%
X156200000Y-72000000D03*
D11*
X156200000Y-69500000D03*
X156200000Y-67500000D03*
X156200000Y-65000000D03*
X154700000Y-64500000D03*
X154700000Y-66500000D03*
X154700000Y-68500000D03*
X154700000Y-70500000D03*
X154700000Y-72500000D03*
D12*
X158200000Y-75070000D03*
X158200000Y-61930000D03*
%TD*%
D15*
%TO.C,H2*%
X165000000Y-25000000D03*
%TD*%
%TO.C,H3*%
X75000000Y-135000000D03*
%TD*%
D16*
%TO.C,J9*%
X35000000Y-128000000D03*
D17*
X35000000Y-125500000D03*
X33000000Y-125500000D03*
X33000000Y-128000000D03*
D18*
X37000000Y-122500000D03*
X37000000Y-124250000D03*
X37000000Y-126750000D03*
X37000000Y-129250000D03*
X37000000Y-131000000D03*
D19*
X30290000Y-120730000D03*
X30290000Y-132770000D03*
%TD*%
D20*
%TO.C,F1*%
X48000000Y-28000000D03*
X48000000Y-31400000D03*
X57920000Y-28000000D03*
X57920000Y-31400000D03*
%TD*%
D16*
%TO.C,J3*%
X35000000Y-44000000D03*
D17*
X35000000Y-41500000D03*
X33000000Y-41500000D03*
X33000000Y-44000000D03*
D18*
X37000000Y-38500000D03*
X37000000Y-40250000D03*
X37000000Y-42750000D03*
X37000000Y-45250000D03*
X37000000Y-47000000D03*
D19*
X30290000Y-36730000D03*
X30290000Y-48770000D03*
%TD*%
D16*
%TO.C,J7*%
X35000000Y-100000000D03*
D17*
X35000000Y-97500000D03*
X33000000Y-97500000D03*
X33000000Y-100000000D03*
D18*
X37000000Y-94500000D03*
X37000000Y-96250000D03*
X37000000Y-98750000D03*
X37000000Y-101250000D03*
X37000000Y-103000000D03*
D19*
X30290000Y-92730000D03*
X30290000Y-104770000D03*
%TD*%
D16*
%TO.C,J5*%
X35000000Y-72000000D03*
D17*
X35000000Y-69500000D03*
X33000000Y-69500000D03*
X33000000Y-72000000D03*
D18*
X37000000Y-66500000D03*
X37000000Y-68250000D03*
X37000000Y-70750000D03*
X37000000Y-73250000D03*
X37000000Y-75000000D03*
D19*
X30290000Y-64730000D03*
X30290000Y-76770000D03*
%TD*%
D15*
%TO.C,H1*%
X25000000Y-25000000D03*
%TD*%
D21*
%TO.C,J1*%
X32000000Y-28000000D03*
D22*
X37000000Y-28000000D03*
%TD*%
D10*
%TO.C,J4*%
X156200000Y-44000000D03*
D11*
X156200000Y-41500000D03*
X156200000Y-39500000D03*
X156200000Y-37000000D03*
X154700000Y-36500000D03*
X154700000Y-38500000D03*
X154700000Y-40500000D03*
X154700000Y-42500000D03*
X154700000Y-44500000D03*
D12*
X158200000Y-47070000D03*
X158200000Y-33930000D03*
%TD*%
D15*
%TO.C,H4*%
X100000000Y-136000000D03*
%TD*%
%LPD*%
M02*
