%TF.GenerationSoftware,KiCad,Pcbnew,10.0.4-10.0.4~ubuntu24.04.1*%
%TF.CreationDate,2026-07-19T09:05:09-07:00*%
%TF.ProjectId,crow_array_pod,63726f77-5f61-4727-9261-795f706f642e,rev?*%
%TF.SameCoordinates,Original*%
%TF.FileFunction,Copper,L2,Bot*%
%TF.FilePolarity,Positive*%
%FSLAX46Y46*%
G04 Gerber Fmt 4.6, Leading zero omitted, Abs format (unit mm)*
G04 Created by KiCad (PCBNEW 10.0.4-10.0.4~ubuntu24.04.1) date 2026-07-19 09:05:09*
%MOMM*%
%LPD*%
G01*
G04 APERTURE LIST*
%TA.AperFunction,ComponentPad*%
%ADD10R,1.500000X1.500000*%
%TD*%
%TA.AperFunction,ComponentPad*%
%ADD11C,1.500000*%
%TD*%
%TA.AperFunction,ComponentPad*%
%ADD12C,2.300000*%
%TD*%
%TA.AperFunction,ComponentPad*%
%ADD13R,1.700000X1.700000*%
%TD*%
%TA.AperFunction,ComponentPad*%
%ADD14C,1.700000*%
%TD*%
%TA.AperFunction,ViaPad*%
%ADD15C,0.600000*%
%TD*%
%TA.AperFunction,Conductor*%
%ADD16C,0.600000*%
%TD*%
%TA.AperFunction,Conductor*%
%ADD17C,0.300000*%
%TD*%
%TA.AperFunction,Conductor*%
%ADD18C,0.500000*%
%TD*%
%ADD19C,0.300000*%
%ADD20C,0.350000*%
G04 APERTURE END LIST*
D10*
%TO.P,J1,1*%
%TO.N,AUDIO_P*%
X78000000Y-64000000D03*
D11*
%TO.P,J1,2*%
%TO.N,AUDIO_N*%
X76220000Y-65016000D03*
%TO.P,J1,3*%
%TO.N,BEEP_5V*%
X78000000Y-66032000D03*
%TO.P,J1,4*%
%TO.N,5V*%
X76220000Y-67048000D03*
%TO.P,J1,5*%
%TO.N,GND*%
X78000000Y-68064000D03*
%TO.P,J1,6*%
%TO.N,BEEP_RET*%
X76220000Y-69080000D03*
%TO.P,J1,7*%
%TO.N,5V*%
X78000000Y-70096000D03*
%TO.P,J1,8*%
%TO.N,GND*%
X76220000Y-71112000D03*
%TO.P,J1,9*%
%TO.N,unconnected-(J1-LED1A-Pad9)*%
X71400000Y-60700000D03*
%TO.P,J1,10*%
%TO.N,unconnected-(J1-LED1B-Pad10)*%
X71400000Y-62990000D03*
%TO.P,J1,11*%
%TO.N,unconnected-(J1-LED2A-Pad11)*%
X71400000Y-72130000D03*
%TO.P,J1,12*%
%TO.N,unconnected-(J1-LED2B-Pad12)*%
X71400000Y-74420000D03*
D12*
%TO.P,J1,SH*%
%TO.N,SHIELD*%
X77110000Y-59430000D03*
X77110000Y-75690000D03*
%TD*%
D13*
%TO.P,J2,1*%
%TO.N,MIC*%
X139500000Y-70500000D03*
D14*
%TO.P,J2,2*%
%TO.N,GND*%
X139500000Y-73040000D03*
%TD*%
D15*
%TO.N,BEEP_5V*%
X73200000Y-76900000D03*
X72100000Y-78000000D03*
%TO.N,A_OUT*%
X95300000Y-64200000D03*
X96700000Y-64200000D03*
%TO.N,VMID*%
X105000000Y-69200000D03*
X105900000Y-76800000D03*
X105000000Y-71800000D03*
X105000000Y-75900000D03*
%TO.N,GND*%
X137000000Y-77000000D03*
X65000000Y-59000000D03*
X65000000Y-89000000D03*
X107000000Y-65000000D03*
X95000000Y-53000000D03*
X53000000Y-83000000D03*
X137000000Y-53000000D03*
X113000000Y-71000000D03*
X53000000Y-65000000D03*
X95000000Y-83000000D03*
X131000000Y-59000000D03*
X125000000Y-53000000D03*
X119000000Y-71000000D03*
X59000000Y-83000000D03*
X72820000Y-71900000D03*
X131000000Y-77000000D03*
X107000000Y-83000000D03*
X125000000Y-59000000D03*
X137000000Y-89000000D03*
X122250000Y-87500000D03*
X65000000Y-83000000D03*
X59000000Y-65000000D03*
X95000000Y-71000000D03*
X107000000Y-53000000D03*
X97440000Y-59500000D03*
X100140000Y-88900000D03*
X122210000Y-84000000D03*
X71000000Y-59000000D03*
X125000000Y-89000000D03*
X107000000Y-89000000D03*
X137000000Y-59000000D03*
X83000000Y-89000000D03*
X89000000Y-53000000D03*
X59000000Y-77000000D03*
X101000000Y-65000000D03*
X89210000Y-60800000D03*
X125000000Y-77000000D03*
X65000000Y-65000000D03*
X101000000Y-53000000D03*
X113000000Y-89000000D03*
X101000000Y-83000000D03*
X113000000Y-53000000D03*
X88670000Y-59060000D03*
X119000000Y-65000000D03*
X131000000Y-83000000D03*
X113000000Y-65000000D03*
X59000000Y-59000000D03*
X71000000Y-65000000D03*
X100220000Y-68310000D03*
X113000000Y-77000000D03*
X71000000Y-53000000D03*
X131000000Y-65000000D03*
X131000000Y-53000000D03*
X89000000Y-77000000D03*
X95000000Y-77000000D03*
X77000000Y-53000000D03*
X125000000Y-71000000D03*
X125000000Y-83000000D03*
X119000000Y-89000000D03*
X119000000Y-59000000D03*
X119000000Y-53000000D03*
X137000000Y-83000000D03*
X53000000Y-77000000D03*
X107000000Y-59000000D03*
X95000000Y-65000000D03*
X109250000Y-61500000D03*
X89000000Y-65000000D03*
X65000000Y-71000000D03*
X65000000Y-77000000D03*
X137000000Y-65000000D03*
X131000000Y-89000000D03*
X53000000Y-71000000D03*
X113000000Y-59000000D03*
X59000000Y-71000000D03*
X53000000Y-59000000D03*
%TO.N,SHIELD*%
X75500000Y-57800000D03*
X81700000Y-58900000D03*
X82800000Y-64700000D03*
%TO.N,AUDIO_N*%
X93200000Y-67800000D03*
X82300000Y-53300000D03*
X94500000Y-67800000D03*
X81000000Y-53300000D03*
%TO.N,5V*%
X80700000Y-68600000D03*
X74200000Y-77900000D03*
X70900000Y-78000000D03*
X105800000Y-62300000D03*
X107000000Y-77600000D03*
X106200000Y-78800000D03*
X105800000Y-63800000D03*
%TO.N,FB_A*%
X103800000Y-77500000D03*
X102500000Y-77500000D03*
%TO.N,AUD_P_I*%
X96600000Y-63000000D03*
X93200000Y-63000000D03*
%TO.N,AUD_N_I*%
X96600000Y-66500000D03*
X93200000Y-66500000D03*
%TO.N,5VF*%
X113500000Y-82200000D03*
X113500000Y-83600000D03*
%TO.N,B_OUT*%
X95300000Y-65800000D03*
X103300000Y-65800000D03*
%TO.N,AIN*%
X102000000Y-68400000D03*
X100200000Y-66599999D03*
X103800000Y-68800000D03*
%TD*%
%TO.N,BEEP_5V*%
D16*
X73200000Y-76900000D02*
X72100000Y-78000000D01*
%TO.N,A_OUT*%
D17*
X96700000Y-64200000D02*
X95300000Y-64200000D01*
%TO.N,VMID*%
X105000000Y-71800000D02*
X105000000Y-69200000D01*
X105900000Y-76800000D02*
X105000000Y-75900000D01*
%TO.N,SHIELD*%
D18*
X82800000Y-59000000D02*
X82800000Y-64700000D01*
X82700000Y-58900000D02*
X82800000Y-59000000D01*
X77100000Y-59400000D02*
X75500000Y-57800000D01*
X81700000Y-58900000D02*
X82700000Y-58900000D01*
%TO.N,AUDIO_N*%
D17*
X94500000Y-67800000D02*
X93200000Y-67800000D01*
X81000000Y-53300000D02*
X82300000Y-53300000D01*
%TO.N,5V*%
D18*
X106200000Y-78800000D02*
X107000000Y-78000000D01*
X79500000Y-68600000D02*
X78000000Y-70100000D01*
X107000000Y-78000000D02*
X107000000Y-77600000D01*
X80700000Y-68600000D02*
X79500000Y-68600000D01*
X74200000Y-77900000D02*
X73200000Y-78900000D01*
X73200000Y-78900000D02*
X71800000Y-78900000D01*
X71800000Y-78900000D02*
X70900000Y-78000000D01*
X105800000Y-63800000D02*
X105800000Y-62300000D01*
%TO.N,FB_A*%
D17*
X102500000Y-77500000D02*
X103800000Y-77500000D01*
%TO.N,AUD_P_I*%
X93200000Y-63000000D02*
X96600000Y-63000000D01*
%TO.N,AUD_N_I*%
X93200000Y-66500000D02*
X96600000Y-66500000D01*
%TO.N,5VF*%
D18*
X113500000Y-83600000D02*
X113500000Y-82200000D01*
%TO.N,B_OUT*%
D17*
X103300000Y-65800000D02*
X95300000Y-65800000D01*
%TO.N,AIN*%
X103800000Y-68800000D02*
X102400000Y-68800000D01*
X102400000Y-68800000D02*
X100200000Y-66599999D01*
%TD*%
%TA.AperFunction,Conductor*%
%TO.N,GND*%
G36*
X137998421Y-50220185D02*
G01*
X138044176Y-50272989D01*
X138055035Y-50315233D01*
X138085573Y-50722733D01*
X138157521Y-51200069D01*
X138264936Y-51670685D01*
X138407225Y-52131973D01*
X138583567Y-52581283D01*
X138583571Y-52581291D01*
X138583578Y-52581309D01*
X138583586Y-52581325D01*
X138793022Y-53016226D01*
X138793024Y-53016229D01*
X138915016Y-53227525D01*
X139034383Y-53434275D01*
X139306310Y-53833118D01*
X139306315Y-53833125D01*
X139607287Y-54210530D01*
X139935610Y-54564378D01*
X139935621Y-54564389D01*
X140289469Y-54892712D01*
X140289472Y-54892715D01*
X140289476Y-54892718D01*
X140666882Y-55193690D01*
X141065725Y-55465617D01*
X141279163Y-55588845D01*
X141483770Y-55706975D01*
X141483773Y-55706977D01*
X141645524Y-55784872D01*
X141918691Y-55916422D01*
X141918712Y-55916430D01*
X141918716Y-55916432D01*
X142368026Y-56092774D01*
X142368038Y-56092777D01*
X142368044Y-56092780D01*
X142829319Y-56235065D01*
X143299938Y-56342480D01*
X143645933Y-56394630D01*
X143777266Y-56414426D01*
X144184767Y-56444964D01*
X144250147Y-56469603D01*
X144291828Y-56525679D01*
X144299500Y-56568617D01*
X144299500Y-87931382D01*
X144279815Y-87998421D01*
X144227011Y-88044176D01*
X144184767Y-88055035D01*
X143777266Y-88085573D01*
X143375914Y-88146067D01*
X143299938Y-88157519D01*
X143299934Y-88157519D01*
X143299933Y-88157520D01*
X142829321Y-88264934D01*
X142829306Y-88264938D01*
X142368049Y-88407216D01*
X142368036Y-88407221D01*
X141918716Y-88583566D01*
X141918696Y-88583574D01*
X141918691Y-88583577D01*
X141918689Y-88583578D01*
X141918674Y-88583585D01*
X141483773Y-88793021D01*
X141483770Y-88793023D01*
X141065731Y-89034379D01*
X140666874Y-89306314D01*
X140289468Y-89607286D01*
X139935620Y-89935609D01*
X139935609Y-89935620D01*
X139607286Y-90289468D01*
X139306314Y-90666874D01*
X139034379Y-91065731D01*
X138793023Y-91483770D01*
X138793021Y-91483773D01*
X138583585Y-91918674D01*
X138583566Y-91918716D01*
X138407221Y-92368036D01*
X138407216Y-92368049D01*
X138264938Y-92829306D01*
X138264934Y-92829321D01*
X138157520Y-93299933D01*
X138085573Y-93777266D01*
X138055035Y-94184767D01*
X138030396Y-94250148D01*
X137974320Y-94291829D01*
X137931382Y-94299500D01*
X56568618Y-94299500D01*
X56501579Y-94279815D01*
X56455824Y-94227011D01*
X56444965Y-94184767D01*
X56414426Y-93777266D01*
X56380721Y-93553650D01*
X56342480Y-93299938D01*
X56235065Y-92829319D01*
X56092780Y-92368044D01*
X56092777Y-92368036D01*
X56092774Y-92368026D01*
X55916432Y-91918716D01*
X55916430Y-91918712D01*
X55916422Y-91918691D01*
X55706977Y-91483774D01*
X55706977Y-91483773D01*
X55706975Y-91483770D01*
X55465620Y-91065731D01*
X55465617Y-91065725D01*
X55193690Y-90666882D01*
X55131457Y-90588845D01*
X54892712Y-90289469D01*
X54564389Y-89935621D01*
X54564378Y-89935610D01*
X54321302Y-89710068D01*
X54321298Y-89710065D01*
X54228583Y-89624038D01*
X58149500Y-89624038D01*
X58149500Y-89875962D01*
X58158948Y-89935615D01*
X58188910Y-90124785D01*
X58266760Y-90364383D01*
X58381132Y-90588848D01*
X58529201Y-90792649D01*
X58529205Y-90792654D01*
X58707345Y-90970794D01*
X58707350Y-90970798D01*
X58838007Y-91065725D01*
X58911155Y-91118870D01*
X59054184Y-91191747D01*
X59135616Y-91233239D01*
X59135618Y-91233239D01*
X59135621Y-91233241D01*
X59375215Y-91311090D01*
X59624038Y-91350500D01*
X59624039Y-91350500D01*
X59875961Y-91350500D01*
X59875962Y-91350500D01*
X60124785Y-91311090D01*
X60364379Y-91233241D01*
X60588845Y-91118870D01*
X60792656Y-90970793D01*
X60970793Y-90792656D01*
X61118870Y-90588845D01*
X61233241Y-90364379D01*
X61311090Y-90124785D01*
X61350500Y-89875962D01*
X61350500Y-89624038D01*
X133149500Y-89624038D01*
X133149500Y-89875962D01*
X133158948Y-89935615D01*
X133188910Y-90124785D01*
X133266760Y-90364383D01*
X133381132Y-90588848D01*
X133529201Y-90792649D01*
X133529205Y-90792654D01*
X133707345Y-90970794D01*
X133707350Y-90970798D01*
X133838007Y-91065725D01*
X133911155Y-91118870D01*
X134054184Y-91191747D01*
X134135616Y-91233239D01*
X134135618Y-91233239D01*
X134135621Y-91233241D01*
X134375215Y-91311090D01*
X134624038Y-91350500D01*
X134624039Y-91350500D01*
X134875961Y-91350500D01*
X134875962Y-91350500D01*
X135124785Y-91311090D01*
X135364379Y-91233241D01*
X135588845Y-91118870D01*
X135792656Y-90970793D01*
X135970793Y-90792656D01*
X136118870Y-90588845D01*
X136233241Y-90364379D01*
X136311090Y-90124785D01*
X136350500Y-89875962D01*
X136350500Y-89624038D01*
X136311090Y-89375215D01*
X136233241Y-89135621D01*
X136233239Y-89135618D01*
X136233239Y-89135616D01*
X136181656Y-89034379D01*
X136118870Y-88911155D01*
X136033043Y-88793024D01*
X135970798Y-88707350D01*
X135970794Y-88707345D01*
X135792654Y-88529205D01*
X135792649Y-88529201D01*
X135588848Y-88381132D01*
X135588847Y-88381131D01*
X135588845Y-88381130D01*
X135518747Y-88345413D01*
X135364383Y-88266760D01*
X135124785Y-88188910D01*
X134875962Y-88149500D01*
X134624038Y-88149500D01*
X134573396Y-88157521D01*
X134375214Y-88188910D01*
X134135616Y-88266760D01*
X133911151Y-88381132D01*
X133707350Y-88529201D01*
X133707345Y-88529205D01*
X133529205Y-88707345D01*
X133529201Y-88707350D01*
X133381132Y-88911151D01*
X133266760Y-89135616D01*
X133188910Y-89375214D01*
X133188910Y-89375215D01*
X133149500Y-89624038D01*
X61350500Y-89624038D01*
X61311090Y-89375215D01*
X61233241Y-89135621D01*
X61233239Y-89135618D01*
X61233239Y-89135616D01*
X61181656Y-89034379D01*
X61118870Y-88911155D01*
X61033043Y-88793024D01*
X60970798Y-88707350D01*
X60970794Y-88707345D01*
X60792654Y-88529205D01*
X60792649Y-88529201D01*
X60588848Y-88381132D01*
X60588847Y-88381131D01*
X60588845Y-88381130D01*
X60518747Y-88345413D01*
X60364383Y-88266760D01*
X60124785Y-88188910D01*
X59875962Y-88149500D01*
X59624038Y-88149500D01*
X59573396Y-88157521D01*
X59375214Y-88188910D01*
X59135616Y-88266760D01*
X58911151Y-88381132D01*
X58707350Y-88529201D01*
X58707345Y-88529205D01*
X58529205Y-88707345D01*
X58529201Y-88707350D01*
X58381132Y-88911151D01*
X58266760Y-89135616D01*
X58188910Y-89375214D01*
X58188910Y-89375215D01*
X58149500Y-89624038D01*
X54228583Y-89624038D01*
X54210524Y-89607282D01*
X54208730Y-89605851D01*
X53833125Y-89306315D01*
X53833118Y-89306310D01*
X53434275Y-89034383D01*
X53411871Y-89021448D01*
X53016229Y-88793024D01*
X53016226Y-88793022D01*
X52652056Y-88617648D01*
X52581309Y-88583578D01*
X52581296Y-88583573D01*
X52581283Y-88583567D01*
X52131973Y-88407225D01*
X51670685Y-88264936D01*
X51670676Y-88264934D01*
X51610867Y-88251283D01*
X51200069Y-88157521D01*
X50722733Y-88085573D01*
X50315233Y-88055035D01*
X50249852Y-88030396D01*
X50208171Y-87974320D01*
X50200500Y-87931382D01*
X50200500Y-82127525D01*
X112949500Y-82127525D01*
X112949500Y-82272475D01*
X112987016Y-82412485D01*
X112987017Y-82412488D01*
X112990059Y-82419831D01*
X112999500Y-82467288D01*
X112999500Y-83332710D01*
X112990063Y-83380159D01*
X112987016Y-83387513D01*
X112968258Y-83457520D01*
X112949500Y-83527525D01*
X112949500Y-83672475D01*
X112987016Y-83812485D01*
X112987017Y-83812488D01*
X113059488Y-83938011D01*
X113059490Y-83938013D01*
X113059491Y-83938015D01*
X113161985Y-84040509D01*
X113161986Y-84040510D01*
X113161988Y-84040511D01*
X113287511Y-84112982D01*
X113287512Y-84112982D01*
X113287515Y-84112984D01*
X113427525Y-84150500D01*
X113427528Y-84150500D01*
X113572472Y-84150500D01*
X113572475Y-84150500D01*
X113712485Y-84112984D01*
X113838015Y-84040509D01*
X113940509Y-83938015D01*
X114012984Y-83812485D01*
X114050500Y-83672475D01*
X114050500Y-83527525D01*
X114012984Y-83387515D01*
X114012983Y-83387513D01*
X114009937Y-83380159D01*
X114000500Y-83332710D01*
X114000500Y-82467288D01*
X114009941Y-82419831D01*
X114012982Y-82412488D01*
X114012981Y-82412488D01*
X114012984Y-82412485D01*
X114050500Y-82272475D01*
X114050500Y-82127525D01*
X114012984Y-81987515D01*
X113940509Y-81861985D01*
X113838015Y-81759491D01*
X113838013Y-81759490D01*
X113838011Y-81759488D01*
X113712488Y-81687017D01*
X113712489Y-81687017D01*
X113701006Y-81683940D01*
X113572475Y-81649500D01*
X113427525Y-81649500D01*
X113298993Y-81683940D01*
X113287511Y-81687017D01*
X113161988Y-81759488D01*
X113161982Y-81759493D01*
X113059493Y-81861982D01*
X113059488Y-81861988D01*
X112987017Y-81987511D01*
X112987016Y-81987515D01*
X112949500Y-82127525D01*
X50200500Y-82127525D01*
X50200500Y-77927525D01*
X70349500Y-77927525D01*
X70349500Y-78072475D01*
X70387016Y-78212485D01*
X70387017Y-78212488D01*
X70459488Y-78338011D01*
X70459490Y-78338013D01*
X70459491Y-78338015D01*
X70561985Y-78440509D01*
X70687515Y-78512984D01*
X70687520Y-78512985D01*
X70694859Y-78516025D01*
X70735092Y-78542906D01*
X71064659Y-78872472D01*
X71395159Y-79202972D01*
X71395169Y-79202983D01*
X71399499Y-79207313D01*
X71399500Y-79207314D01*
X71492686Y-79300500D01*
X71606814Y-79366392D01*
X71734107Y-79400500D01*
X71734108Y-79400500D01*
X71734109Y-79400500D01*
X73265890Y-79400500D01*
X73265892Y-79400500D01*
X73393186Y-79366392D01*
X73507314Y-79300500D01*
X74080288Y-78727525D01*
X105649500Y-78727525D01*
X105649500Y-78872475D01*
X105674266Y-78964902D01*
X105687017Y-79012488D01*
X105759488Y-79138011D01*
X105759490Y-79138013D01*
X105759491Y-79138015D01*
X105861985Y-79240509D01*
X105861986Y-79240510D01*
X105861988Y-79240511D01*
X105987511Y-79312982D01*
X105987512Y-79312982D01*
X105987515Y-79312984D01*
X106127525Y-79350500D01*
X106127528Y-79350500D01*
X106272472Y-79350500D01*
X106272475Y-79350500D01*
X106412485Y-79312984D01*
X106538015Y-79240509D01*
X106640509Y-79138015D01*
X106712984Y-79012485D01*
X106712985Y-79012478D01*
X106716029Y-79005133D01*
X106742907Y-78964905D01*
X107400500Y-78307314D01*
X107466392Y-78193186D01*
X107500500Y-78065892D01*
X107500500Y-77934107D01*
X107500500Y-77867288D01*
X107509941Y-77819831D01*
X107512982Y-77812488D01*
X107512981Y-77812488D01*
X107512984Y-77812485D01*
X107550500Y-77672475D01*
X107550500Y-77527525D01*
X107512984Y-77387515D01*
X107512696Y-77387017D01*
X107440511Y-77261988D01*
X107440506Y-77261982D01*
X107338017Y-77159493D01*
X107338011Y-77159488D01*
X107212488Y-77087017D01*
X107212489Y-77087017D01*
X107201006Y-77083940D01*
X107072475Y-77049500D01*
X106927525Y-77049500D01*
X106798993Y-77083940D01*
X106787511Y-77087017D01*
X106661988Y-77159488D01*
X106661982Y-77159493D01*
X106559493Y-77261982D01*
X106559488Y-77261988D01*
X106487017Y-77387511D01*
X106487016Y-77387515D01*
X106449500Y-77527525D01*
X106449500Y-77527527D01*
X106449500Y-77672476D01*
X106466940Y-77737565D01*
X106465277Y-77807415D01*
X106434846Y-77857338D01*
X106035093Y-78257091D01*
X105994873Y-78283968D01*
X105987515Y-78287016D01*
X105861988Y-78359489D01*
X105861982Y-78359493D01*
X105759493Y-78461982D01*
X105759488Y-78461988D01*
X105687017Y-78587511D01*
X105687016Y-78587515D01*
X105649500Y-78727525D01*
X74080288Y-78727525D01*
X74364905Y-78442907D01*
X74405133Y-78416029D01*
X74412478Y-78412985D01*
X74412485Y-78412984D01*
X74538015Y-78340509D01*
X74640509Y-78238015D01*
X74712984Y-78112485D01*
X74750500Y-77972475D01*
X74750500Y-77827525D01*
X74712984Y-77687515D01*
X74704301Y-77672476D01*
X74640511Y-77561988D01*
X74640506Y-77561982D01*
X74538017Y-77459493D01*
X74538011Y-77459488D01*
X74482650Y-77427525D01*
X101949500Y-77427525D01*
X101949500Y-77572475D01*
X101987016Y-77712485D01*
X101987017Y-77712488D01*
X102059488Y-77838011D01*
X102059490Y-77838013D01*
X102059491Y-77838015D01*
X102161985Y-77940509D01*
X102161986Y-77940510D01*
X102161988Y-77940511D01*
X102287511Y-78012982D01*
X102287512Y-78012982D01*
X102287515Y-78012984D01*
X102427525Y-78050500D01*
X102427528Y-78050500D01*
X102572472Y-78050500D01*
X102572475Y-78050500D01*
X102712485Y-78012984D01*
X102838015Y-77940509D01*
X102841705Y-77936819D01*
X102903028Y-77903334D01*
X102929386Y-77900500D01*
X103370614Y-77900500D01*
X103437653Y-77920185D01*
X103458295Y-77936819D01*
X103461985Y-77940509D01*
X103461986Y-77940510D01*
X103461988Y-77940511D01*
X103587511Y-78012982D01*
X103587512Y-78012982D01*
X103587515Y-78012984D01*
X103727525Y-78050500D01*
X103727528Y-78050500D01*
X103872472Y-78050500D01*
X103872475Y-78050500D01*
X104012485Y-78012984D01*
X104138015Y-77940509D01*
X104240509Y-77838015D01*
X104312984Y-77712485D01*
X104350500Y-77572475D01*
X104350500Y-77427525D01*
X104312984Y-77287515D01*
X104298244Y-77261985D01*
X104240511Y-77161988D01*
X104240506Y-77161982D01*
X104138017Y-77059493D01*
X104138011Y-77059488D01*
X104012488Y-76987017D01*
X104012489Y-76987017D01*
X104001006Y-76983940D01*
X103872475Y-76949500D01*
X103727525Y-76949500D01*
X103598993Y-76983940D01*
X103587511Y-76987017D01*
X103461988Y-77059488D01*
X103461982Y-77059493D01*
X103458295Y-77063181D01*
X103396972Y-77096666D01*
X103370614Y-77099500D01*
X102929386Y-77099500D01*
X102862347Y-77079815D01*
X102841705Y-77063181D01*
X102838017Y-77059493D01*
X102838011Y-77059488D01*
X102712488Y-76987017D01*
X102712489Y-76987017D01*
X102701006Y-76983940D01*
X102572475Y-76949500D01*
X102427525Y-76949500D01*
X102298993Y-76983940D01*
X102287511Y-76987017D01*
X102161988Y-77059488D01*
X102161982Y-77059493D01*
X102059493Y-77161982D01*
X102059488Y-77161988D01*
X101987017Y-77287511D01*
X101987016Y-77287515D01*
X101949500Y-77427525D01*
X74482650Y-77427525D01*
X74412488Y-77387017D01*
X74412489Y-77387017D01*
X74401006Y-77383940D01*
X74272475Y-77349500D01*
X74127525Y-77349500D01*
X73998993Y-77383940D01*
X73987511Y-77387017D01*
X73861988Y-77459488D01*
X73861982Y-77459493D01*
X73759493Y-77561982D01*
X73759489Y-77561988D01*
X73687016Y-77687515D01*
X73683968Y-77694873D01*
X73657091Y-77735093D01*
X73029005Y-78363181D01*
X73002077Y-78377884D01*
X72976259Y-78394477D01*
X72970058Y-78395368D01*
X72967682Y-78396666D01*
X72941324Y-78399500D01*
X72778387Y-78399500D01*
X72711348Y-78379815D01*
X72665593Y-78327011D01*
X72655649Y-78257853D01*
X72684674Y-78194297D01*
X72690706Y-78187819D01*
X73143432Y-77735093D01*
X73640510Y-77238015D01*
X73712984Y-77112485D01*
X73746368Y-76987895D01*
X73750500Y-76972475D01*
X73750500Y-76827525D01*
X73712984Y-76687515D01*
X73712984Y-76687514D01*
X73711946Y-76685716D01*
X73640512Y-76561988D01*
X73640508Y-76561983D01*
X73538016Y-76459491D01*
X73538015Y-76459490D01*
X73412485Y-76387016D01*
X73412486Y-76387016D01*
X73309761Y-76359491D01*
X73309761Y-76359490D01*
X73272475Y-76349500D01*
X73127525Y-76349500D01*
X73127524Y-76349500D01*
X73090238Y-76359490D01*
X73090239Y-76359491D01*
X72987514Y-76387016D01*
X72861986Y-76459489D01*
X72861983Y-76459491D01*
X71659491Y-77661983D01*
X71659487Y-77661988D01*
X71607386Y-77752231D01*
X71556819Y-77800447D01*
X71488212Y-77813670D01*
X71423347Y-77787702D01*
X71392614Y-77752233D01*
X71340509Y-77661985D01*
X71238015Y-77559491D01*
X71238013Y-77559490D01*
X71238011Y-77559488D01*
X71112488Y-77487017D01*
X71112489Y-77487017D01*
X71101006Y-77483940D01*
X70972475Y-77449500D01*
X70827525Y-77449500D01*
X70698993Y-77483940D01*
X70687511Y-77487017D01*
X70561988Y-77559488D01*
X70561982Y-77559493D01*
X70459493Y-77661982D01*
X70459488Y-77661988D01*
X70387017Y-77787511D01*
X70387016Y-77787515D01*
X70349500Y-77927525D01*
X50200500Y-77927525D01*
X50200500Y-75579778D01*
X75709500Y-75579778D01*
X75709500Y-75800222D01*
X75713825Y-75827527D01*
X75743985Y-76017952D01*
X75812103Y-76227603D01*
X75812104Y-76227606D01*
X75912187Y-76424025D01*
X76041752Y-76602358D01*
X76041756Y-76602363D01*
X76197636Y-76758243D01*
X76197641Y-76758247D01*
X76347679Y-76867255D01*
X76375978Y-76887815D01*
X76497040Y-76949500D01*
X76572393Y-76987895D01*
X76572396Y-76987896D01*
X76677221Y-77021955D01*
X76782049Y-77056015D01*
X76999778Y-77090500D01*
X76999779Y-77090500D01*
X77220221Y-77090500D01*
X77220222Y-77090500D01*
X77437951Y-77056015D01*
X77647606Y-76987895D01*
X77844022Y-76887815D01*
X78022365Y-76758242D01*
X78178242Y-76602365D01*
X78307815Y-76424022D01*
X78407895Y-76227606D01*
X78476015Y-76017951D01*
X78506176Y-75827525D01*
X104449500Y-75827525D01*
X104449500Y-75972475D01*
X104461686Y-76017952D01*
X104487017Y-76112488D01*
X104559488Y-76238011D01*
X104559490Y-76238013D01*
X104559491Y-76238015D01*
X104661985Y-76340509D01*
X104661986Y-76340510D01*
X104661988Y-76340511D01*
X104787511Y-76412982D01*
X104787512Y-76412982D01*
X104787515Y-76412984D01*
X104927525Y-76450500D01*
X104932745Y-76450500D01*
X104999784Y-76470185D01*
X105020426Y-76486819D01*
X105313181Y-76779574D01*
X105346666Y-76840897D01*
X105349500Y-76867255D01*
X105349500Y-76872475D01*
X105387016Y-77012485D01*
X105387017Y-77012488D01*
X105459488Y-77138011D01*
X105459490Y-77138013D01*
X105459491Y-77138015D01*
X105561985Y-77240509D01*
X105561986Y-77240510D01*
X105561988Y-77240511D01*
X105687511Y-77312982D01*
X105687512Y-77312982D01*
X105687515Y-77312984D01*
X105827525Y-77350500D01*
X105827528Y-77350500D01*
X105972472Y-77350500D01*
X105972475Y-77350500D01*
X106112485Y-77312984D01*
X106238015Y-77240509D01*
X106340509Y-77138015D01*
X106412984Y-77012485D01*
X106450500Y-76872475D01*
X106450500Y-76727525D01*
X106412984Y-76587515D01*
X106398244Y-76561985D01*
X106340511Y-76461988D01*
X106340506Y-76461982D01*
X106238017Y-76359493D01*
X106238011Y-76359488D01*
X106112488Y-76287017D01*
X106112489Y-76287017D01*
X106101006Y-76283940D01*
X105972475Y-76249500D01*
X105972472Y-76249500D01*
X105967255Y-76249500D01*
X105900216Y-76229815D01*
X105879574Y-76213181D01*
X105586819Y-75920426D01*
X105553334Y-75859103D01*
X105550500Y-75832745D01*
X105550500Y-75827527D01*
X105550500Y-75827525D01*
X105512984Y-75687515D01*
X105440509Y-75561985D01*
X105338015Y-75459491D01*
X105338013Y-75459490D01*
X105338011Y-75459488D01*
X105212488Y-75387017D01*
X105212489Y-75387017D01*
X105193959Y-75382052D01*
X105072475Y-75349500D01*
X104927525Y-75349500D01*
X104806041Y-75382052D01*
X104787511Y-75387017D01*
X104661988Y-75459488D01*
X104661982Y-75459493D01*
X104559493Y-75561982D01*
X104559488Y-75561988D01*
X104487017Y-75687511D01*
X104487016Y-75687515D01*
X104449500Y-75827525D01*
X78506176Y-75827525D01*
X78510500Y-75800222D01*
X78510500Y-75579778D01*
X78476015Y-75362049D01*
X78441955Y-75257221D01*
X78407896Y-75152396D01*
X78407895Y-75152393D01*
X78359687Y-75057781D01*
X78307815Y-74955978D01*
X78291260Y-74933192D01*
X78178247Y-74777641D01*
X78178243Y-74777636D01*
X78022363Y-74621756D01*
X78022358Y-74621752D01*
X77844025Y-74492187D01*
X77844024Y-74492186D01*
X77844022Y-74492185D01*
X77781096Y-74460122D01*
X77647606Y-74392104D01*
X77647603Y-74392103D01*
X77437952Y-74323985D01*
X77329086Y-74306742D01*
X77220222Y-74289500D01*
X76999778Y-74289500D01*
X76989708Y-74291095D01*
X76782047Y-74323985D01*
X76572396Y-74392103D01*
X76572393Y-74392104D01*
X76375974Y-74492187D01*
X76197641Y-74621752D01*
X76197636Y-74621756D01*
X76041756Y-74777636D01*
X76041752Y-74777641D01*
X75912187Y-74955974D01*
X75812104Y-75152393D01*
X75812103Y-75152396D01*
X75743985Y-75362047D01*
X75726449Y-75472767D01*
X75709500Y-75579778D01*
X50200500Y-75579778D01*
X50200500Y-74518543D01*
X70399499Y-74518543D01*
X70437947Y-74711829D01*
X70437950Y-74711839D01*
X70513364Y-74893907D01*
X70513371Y-74893920D01*
X70622860Y-75057781D01*
X70622863Y-75057785D01*
X70762214Y-75197136D01*
X70762218Y-75197139D01*
X70926079Y-75306628D01*
X70926092Y-75306635D01*
X71108160Y-75382049D01*
X71108165Y-75382051D01*
X71108169Y-75382051D01*
X71108170Y-75382052D01*
X71301456Y-75420500D01*
X71301459Y-75420500D01*
X71498543Y-75420500D01*
X71628582Y-75394632D01*
X71691835Y-75382051D01*
X71873914Y-75306632D01*
X72037782Y-75197139D01*
X72177139Y-75057782D01*
X72286632Y-74893914D01*
X72362051Y-74711835D01*
X72400500Y-74518541D01*
X72400500Y-74321459D01*
X72400500Y-74321456D01*
X72362052Y-74128170D01*
X72362051Y-74128169D01*
X72362051Y-74128165D01*
X72322607Y-74032937D01*
X72286635Y-73946092D01*
X72286628Y-73946079D01*
X72223703Y-73851905D01*
X72180378Y-73787065D01*
X78664500Y-73787065D01*
X78664500Y-74032934D01*
X78677039Y-74128170D01*
X78696591Y-74276677D01*
X78760222Y-74514152D01*
X78760225Y-74514162D01*
X78842106Y-74711839D01*
X78854306Y-74741292D01*
X78977233Y-74954208D01*
X78977235Y-74954211D01*
X78977236Y-74954212D01*
X79126897Y-75149254D01*
X79126903Y-75149261D01*
X79300738Y-75323096D01*
X79300744Y-75323101D01*
X79495792Y-75472767D01*
X79708708Y-75595694D01*
X79884384Y-75668461D01*
X79930383Y-75687515D01*
X79935847Y-75689778D01*
X80173323Y-75753409D01*
X80417073Y-75785500D01*
X80417080Y-75785500D01*
X80662920Y-75785500D01*
X80662927Y-75785500D01*
X80906677Y-75753409D01*
X81144153Y-75689778D01*
X81371292Y-75595694D01*
X81584208Y-75472767D01*
X81779256Y-75323101D01*
X81953101Y-75149256D01*
X82102767Y-74954208D01*
X82225694Y-74741292D01*
X82319778Y-74514153D01*
X82383409Y-74276677D01*
X82415500Y-74032927D01*
X82415500Y-73787073D01*
X82383409Y-73543323D01*
X82319778Y-73305847D01*
X82225694Y-73078708D01*
X82142004Y-72933753D01*
X138150000Y-72933753D01*
X138150000Y-73146246D01*
X138183242Y-73356127D01*
X138183242Y-73356130D01*
X138248904Y-73558217D01*
X138345375Y-73747550D01*
X138384728Y-73801716D01*
X139017037Y-73169408D01*
X139034075Y-73232993D01*
X139099901Y-73347007D01*
X139192993Y-73440099D01*
X139307007Y-73505925D01*
X139370590Y-73522962D01*
X138738282Y-74155269D01*
X138738282Y-74155270D01*
X138792449Y-74194624D01*
X138981782Y-74291095D01*
X139183870Y-74356757D01*
X139393754Y-74390000D01*
X139606246Y-74390000D01*
X139816127Y-74356757D01*
X139816130Y-74356757D01*
X140018217Y-74291095D01*
X140207554Y-74194622D01*
X140261716Y-74155270D01*
X140261717Y-74155270D01*
X139629408Y-73522962D01*
X139692993Y-73505925D01*
X139807007Y-73440099D01*
X139900099Y-73347007D01*
X139965925Y-73232993D01*
X139982962Y-73169408D01*
X140615270Y-73801717D01*
X140615270Y-73801716D01*
X140654622Y-73747554D01*
X140751095Y-73558217D01*
X140816757Y-73356130D01*
X140816757Y-73356127D01*
X140850000Y-73146246D01*
X140850000Y-72933753D01*
X140816757Y-72723872D01*
X140816757Y-72723869D01*
X140751095Y-72521782D01*
X140654624Y-72332449D01*
X140615270Y-72278282D01*
X140615269Y-72278282D01*
X139982962Y-72910590D01*
X139965925Y-72847007D01*
X139900099Y-72732993D01*
X139807007Y-72639901D01*
X139692993Y-72574075D01*
X139629409Y-72557037D01*
X140261716Y-71924728D01*
X140207550Y-71885375D01*
X140108655Y-71834985D01*
X140057859Y-71787010D01*
X140041064Y-71719189D01*
X140063602Y-71653054D01*
X140118317Y-71609603D01*
X140164950Y-71600500D01*
X140374676Y-71600500D01*
X140374677Y-71600499D01*
X140447740Y-71585966D01*
X140530601Y-71530601D01*
X140585966Y-71447740D01*
X140600500Y-71374674D01*
X140600500Y-69625326D01*
X140600500Y-69625323D01*
X140600499Y-69625321D01*
X140585967Y-69552264D01*
X140585966Y-69552260D01*
X140576337Y-69537849D01*
X140530601Y-69469399D01*
X140447740Y-69414034D01*
X140447739Y-69414033D01*
X140447735Y-69414032D01*
X140374677Y-69399500D01*
X140374674Y-69399500D01*
X138625326Y-69399500D01*
X138625323Y-69399500D01*
X138552264Y-69414032D01*
X138552260Y-69414033D01*
X138469399Y-69469399D01*
X138414033Y-69552260D01*
X138414032Y-69552264D01*
X138399500Y-69625321D01*
X138399500Y-71374678D01*
X138414032Y-71447735D01*
X138414033Y-71447739D01*
X138423550Y-71461982D01*
X138469399Y-71530601D01*
X138552260Y-71585966D01*
X138552264Y-71585967D01*
X138625321Y-71600499D01*
X138625324Y-71600500D01*
X138835051Y-71600500D01*
X138902090Y-71620185D01*
X138947845Y-71672989D01*
X138957789Y-71742147D01*
X138928764Y-71805703D01*
X138891346Y-71834985D01*
X138792439Y-71885380D01*
X138738282Y-71924727D01*
X138738282Y-71924728D01*
X139370591Y-72557037D01*
X139307007Y-72574075D01*
X139192993Y-72639901D01*
X139099901Y-72732993D01*
X139034075Y-72847007D01*
X139017037Y-72910591D01*
X138384728Y-72278282D01*
X138384727Y-72278282D01*
X138345380Y-72332439D01*
X138248904Y-72521782D01*
X138183242Y-72723869D01*
X138183242Y-72723872D01*
X138150000Y-72933753D01*
X82142004Y-72933753D01*
X82102767Y-72865792D01*
X82027560Y-72767781D01*
X81953102Y-72670745D01*
X81953096Y-72670738D01*
X81779261Y-72496903D01*
X81779254Y-72496897D01*
X81584212Y-72347236D01*
X81584211Y-72347235D01*
X81584208Y-72347233D01*
X81399360Y-72240511D01*
X81371294Y-72224307D01*
X81371285Y-72224303D01*
X81144162Y-72130225D01*
X81144155Y-72130223D01*
X81144153Y-72130222D01*
X80906677Y-72066591D01*
X80865939Y-72061227D01*
X80662934Y-72034500D01*
X80662927Y-72034500D01*
X80417073Y-72034500D01*
X80417065Y-72034500D01*
X80185059Y-72065045D01*
X80173323Y-72066591D01*
X79935847Y-72130222D01*
X79935837Y-72130225D01*
X79708714Y-72224303D01*
X79708705Y-72224307D01*
X79495787Y-72347236D01*
X79300745Y-72496897D01*
X79300738Y-72496903D01*
X79126903Y-72670738D01*
X79126897Y-72670745D01*
X78977236Y-72865787D01*
X78854307Y-73078705D01*
X78854303Y-73078714D01*
X78760225Y-73305837D01*
X78760222Y-73305847D01*
X78697482Y-73540000D01*
X78696592Y-73543320D01*
X78696590Y-73543331D01*
X78664500Y-73787065D01*
X72180378Y-73787065D01*
X72177139Y-73782218D01*
X72177136Y-73782214D01*
X72037785Y-73642863D01*
X72037781Y-73642860D01*
X71873920Y-73533371D01*
X71873907Y-73533364D01*
X71691839Y-73457950D01*
X71691829Y-73457947D01*
X71498543Y-73419500D01*
X71498541Y-73419500D01*
X71301459Y-73419500D01*
X71301457Y-73419500D01*
X71108170Y-73457947D01*
X71108160Y-73457950D01*
X70926092Y-73533364D01*
X70926079Y-73533371D01*
X70762218Y-73642860D01*
X70762214Y-73642863D01*
X70622863Y-73782214D01*
X70622860Y-73782218D01*
X70513371Y-73946079D01*
X70513364Y-73946092D01*
X70437950Y-74128160D01*
X70437947Y-74128170D01*
X70399500Y-74321456D01*
X70399500Y-74321459D01*
X70399500Y-74518541D01*
X70399500Y-74518543D01*
X70399499Y-74518543D01*
X50200500Y-74518543D01*
X50200500Y-72228543D01*
X70399499Y-72228543D01*
X70437947Y-72421829D01*
X70437950Y-72421839D01*
X70513364Y-72603907D01*
X70513371Y-72603920D01*
X70622860Y-72767781D01*
X70622863Y-72767785D01*
X70762214Y-72907136D01*
X70762218Y-72907139D01*
X70926079Y-73016628D01*
X70926092Y-73016635D01*
X71075952Y-73078708D01*
X71108165Y-73092051D01*
X71108169Y-73092051D01*
X71108170Y-73092052D01*
X71301456Y-73130500D01*
X71301459Y-73130500D01*
X71498543Y-73130500D01*
X71628582Y-73104632D01*
X71691835Y-73092051D01*
X71873914Y-73016632D01*
X72037782Y-72907139D01*
X72177139Y-72767782D01*
X72286632Y-72603914D01*
X72362051Y-72421835D01*
X72383703Y-72312984D01*
X72400500Y-72228543D01*
X72400500Y-72031456D01*
X72362052Y-71838170D01*
X72362051Y-71838169D01*
X72362051Y-71838165D01*
X72340862Y-71787010D01*
X72286635Y-71656092D01*
X72286628Y-71656079D01*
X72177139Y-71492218D01*
X72177136Y-71492214D01*
X72037785Y-71352863D01*
X72037781Y-71352860D01*
X71873920Y-71243371D01*
X71873907Y-71243364D01*
X71691839Y-71167950D01*
X71691829Y-71167947D01*
X71498543Y-71129500D01*
X71498541Y-71129500D01*
X71301459Y-71129500D01*
X71301457Y-71129500D01*
X71108170Y-71167947D01*
X71108160Y-71167950D01*
X70926092Y-71243364D01*
X70926079Y-71243371D01*
X70762218Y-71352860D01*
X70762214Y-71352863D01*
X70622863Y-71492214D01*
X70622860Y-71492218D01*
X70513371Y-71656079D01*
X70513364Y-71656092D01*
X70437950Y-71838160D01*
X70437947Y-71838170D01*
X70399500Y-72031456D01*
X70399500Y-72031459D01*
X70399500Y-72228541D01*
X70399500Y-72228543D01*
X70399499Y-72228543D01*
X50200500Y-72228543D01*
X50200500Y-65114543D01*
X75219499Y-65114543D01*
X75257947Y-65307829D01*
X75257950Y-65307839D01*
X75333364Y-65489907D01*
X75333371Y-65489920D01*
X75442860Y-65653781D01*
X75442863Y-65653785D01*
X75582214Y-65793136D01*
X75582218Y-65793139D01*
X75746079Y-65902628D01*
X75746088Y-65902633D01*
X75781833Y-65917439D01*
X75836236Y-65961280D01*
X75858301Y-66027574D01*
X75841022Y-66095273D01*
X75789885Y-66142884D01*
X75781833Y-66146561D01*
X75746088Y-66161366D01*
X75746079Y-66161371D01*
X75582218Y-66270860D01*
X75582214Y-66270863D01*
X75442863Y-66410214D01*
X75442860Y-66410218D01*
X75333371Y-66574079D01*
X75333364Y-66574092D01*
X75257950Y-66756160D01*
X75257947Y-66756170D01*
X75219500Y-66949456D01*
X75219500Y-66949459D01*
X75219500Y-67146541D01*
X75219500Y-67146543D01*
X75219499Y-67146543D01*
X75257947Y-67339829D01*
X75257950Y-67339839D01*
X75333364Y-67521907D01*
X75333371Y-67521920D01*
X75442860Y-67685781D01*
X75442863Y-67685785D01*
X75582214Y-67825136D01*
X75582218Y-67825139D01*
X75746079Y-67934628D01*
X75746088Y-67934633D01*
X75781833Y-67949439D01*
X75836236Y-67993280D01*
X75858301Y-68059574D01*
X75841022Y-68127273D01*
X75789885Y-68174884D01*
X75781833Y-68178561D01*
X75746088Y-68193366D01*
X75746079Y-68193371D01*
X75582218Y-68302860D01*
X75582214Y-68302863D01*
X75442863Y-68442214D01*
X75442860Y-68442218D01*
X75333371Y-68606079D01*
X75333364Y-68606092D01*
X75257950Y-68788160D01*
X75257947Y-68788170D01*
X75219500Y-68981456D01*
X75219500Y-68981459D01*
X75219500Y-69178541D01*
X75219500Y-69178543D01*
X75219499Y-69178543D01*
X75257947Y-69371829D01*
X75257950Y-69371839D01*
X75333364Y-69553907D01*
X75333371Y-69553920D01*
X75442860Y-69717781D01*
X75442863Y-69717785D01*
X75582214Y-69857136D01*
X75582218Y-69857139D01*
X75746079Y-69966628D01*
X75746092Y-69966635D01*
X75928160Y-70042049D01*
X75928165Y-70042051D01*
X75928169Y-70042051D01*
X75928170Y-70042052D01*
X76121456Y-70080500D01*
X76121459Y-70080500D01*
X76318543Y-70080500D01*
X76448582Y-70054632D01*
X76511835Y-70042051D01*
X76693914Y-69966632D01*
X76806609Y-69891332D01*
X76873287Y-69870454D01*
X76940667Y-69888938D01*
X76987357Y-69940917D01*
X76999500Y-69994434D01*
X76999500Y-69997459D01*
X76999500Y-70194541D01*
X76999500Y-70194543D01*
X76999499Y-70194543D01*
X77037947Y-70387829D01*
X77037950Y-70387839D01*
X77113364Y-70569907D01*
X77113371Y-70569920D01*
X77222860Y-70733781D01*
X77222863Y-70733785D01*
X77362214Y-70873136D01*
X77362218Y-70873139D01*
X77526079Y-70982628D01*
X77526092Y-70982635D01*
X77708160Y-71058049D01*
X77708165Y-71058051D01*
X77708169Y-71058051D01*
X77708170Y-71058052D01*
X77901456Y-71096500D01*
X77901459Y-71096500D01*
X78098543Y-71096500D01*
X78228582Y-71070632D01*
X78291835Y-71058051D01*
X78473914Y-70982632D01*
X78637782Y-70873139D01*
X78777139Y-70733782D01*
X78886632Y-70569914D01*
X78962051Y-70387835D01*
X79000500Y-70194541D01*
X79000500Y-69997459D01*
X79000500Y-69997456D01*
X78981883Y-69903867D01*
X78988110Y-69834276D01*
X79015819Y-69791994D01*
X79338415Y-69469399D01*
X79670995Y-69136819D01*
X79732318Y-69103334D01*
X79758676Y-69100500D01*
X80432711Y-69100500D01*
X80480162Y-69109938D01*
X80487513Y-69112983D01*
X80487515Y-69112984D01*
X80627525Y-69150500D01*
X80627528Y-69150500D01*
X80772472Y-69150500D01*
X80772475Y-69150500D01*
X80912485Y-69112984D01*
X81038015Y-69040509D01*
X81140509Y-68938015D01*
X81212984Y-68812485D01*
X81250500Y-68672475D01*
X81250500Y-68527525D01*
X81212984Y-68387515D01*
X81211016Y-68384107D01*
X81140511Y-68261988D01*
X81140506Y-68261982D01*
X81038017Y-68159493D01*
X81038011Y-68159488D01*
X80912488Y-68087017D01*
X80912489Y-68087017D01*
X80884435Y-68079500D01*
X80772475Y-68049500D01*
X80627525Y-68049500D01*
X80543519Y-68072009D01*
X80487513Y-68087016D01*
X80480162Y-68090062D01*
X80432711Y-68099500D01*
X79434107Y-68099500D01*
X79306812Y-68133608D01*
X79192686Y-68199500D01*
X79192683Y-68199502D01*
X78310677Y-69081507D01*
X78249354Y-69114992D01*
X78198805Y-69115443D01*
X78098545Y-69095500D01*
X78098541Y-69095500D01*
X77901459Y-69095500D01*
X77901457Y-69095500D01*
X77708170Y-69133947D01*
X77708160Y-69133950D01*
X77526092Y-69209364D01*
X77526081Y-69209370D01*
X77413390Y-69284668D01*
X77346713Y-69305545D01*
X77279333Y-69287060D01*
X77232643Y-69235081D01*
X77220500Y-69181565D01*
X77220500Y-68981456D01*
X77182052Y-68788170D01*
X77182051Y-68788169D01*
X77182051Y-68788165D01*
X77178860Y-68780460D01*
X77106635Y-68606092D01*
X77106628Y-68606079D01*
X76997139Y-68442218D01*
X76997136Y-68442214D01*
X76857785Y-68302863D01*
X76857781Y-68302860D01*
X76693920Y-68193371D01*
X76693916Y-68193369D01*
X76679783Y-68187515D01*
X76658165Y-68178560D01*
X76603764Y-68134721D01*
X76581698Y-68068427D01*
X76598977Y-68000728D01*
X76650113Y-67953117D01*
X76658148Y-67949446D01*
X76693914Y-67934632D01*
X76857782Y-67825139D01*
X76997139Y-67685782D01*
X77106632Y-67521914D01*
X77182051Y-67339835D01*
X77200020Y-67249500D01*
X77220500Y-67146543D01*
X77220500Y-66946434D01*
X77240185Y-66879395D01*
X77292989Y-66833640D01*
X77362147Y-66823696D01*
X77413391Y-66843332D01*
X77526079Y-66918628D01*
X77526092Y-66918635D01*
X77708160Y-66994049D01*
X77708165Y-66994051D01*
X77708169Y-66994051D01*
X77708170Y-66994052D01*
X77901456Y-67032500D01*
X77901459Y-67032500D01*
X78098543Y-67032500D01*
X78228582Y-67006632D01*
X78291835Y-66994051D01*
X78473914Y-66918632D01*
X78637782Y-66809139D01*
X78777139Y-66669782D01*
X78886632Y-66505914D01*
X78919102Y-66427525D01*
X92649500Y-66427525D01*
X92649500Y-66572475D01*
X92676295Y-66672474D01*
X92687017Y-66712488D01*
X92759488Y-66838011D01*
X92759490Y-66838013D01*
X92759491Y-66838015D01*
X92861985Y-66940509D01*
X92861986Y-66940510D01*
X92861988Y-66940511D01*
X92987511Y-67012982D01*
X92987512Y-67012982D01*
X92987515Y-67012984D01*
X93051861Y-67030225D01*
X93111520Y-67066591D01*
X93142049Y-67129438D01*
X93133754Y-67198813D01*
X93089268Y-67252691D01*
X93051862Y-67269774D01*
X92997516Y-67284336D01*
X92987511Y-67287017D01*
X92861988Y-67359488D01*
X92861982Y-67359493D01*
X92759493Y-67461982D01*
X92759488Y-67461988D01*
X92687017Y-67587511D01*
X92687016Y-67587515D01*
X92649500Y-67727525D01*
X92649500Y-67872475D01*
X92672817Y-67959493D01*
X92687017Y-68012488D01*
X92759488Y-68138011D01*
X92759490Y-68138013D01*
X92759491Y-68138015D01*
X92861985Y-68240509D01*
X92861986Y-68240510D01*
X92861988Y-68240511D01*
X92987511Y-68312982D01*
X92987512Y-68312982D01*
X92987515Y-68312984D01*
X93127525Y-68350500D01*
X93127528Y-68350500D01*
X93272472Y-68350500D01*
X93272475Y-68350500D01*
X93412485Y-68312984D01*
X93538015Y-68240509D01*
X93541705Y-68236819D01*
X93603028Y-68203334D01*
X93629386Y-68200500D01*
X94070614Y-68200500D01*
X94137653Y-68220185D01*
X94158295Y-68236819D01*
X94161985Y-68240509D01*
X94161986Y-68240510D01*
X94161988Y-68240511D01*
X94287511Y-68312982D01*
X94287512Y-68312982D01*
X94287515Y-68312984D01*
X94427525Y-68350500D01*
X94427528Y-68350500D01*
X94572472Y-68350500D01*
X94572475Y-68350500D01*
X94712485Y-68312984D01*
X94838015Y-68240509D01*
X94940509Y-68138015D01*
X95012984Y-68012485D01*
X95050500Y-67872475D01*
X95050500Y-67727525D01*
X95012984Y-67587515D01*
X94940509Y-67461985D01*
X94838015Y-67359491D01*
X94838013Y-67359490D01*
X94838011Y-67359488D01*
X94712488Y-67287017D01*
X94712489Y-67287017D01*
X94701006Y-67283940D01*
X94572475Y-67249500D01*
X94427525Y-67249500D01*
X94298993Y-67283940D01*
X94287511Y-67287017D01*
X94161988Y-67359488D01*
X94161982Y-67359493D01*
X94158295Y-67363181D01*
X94096972Y-67396666D01*
X94070614Y-67399500D01*
X93629386Y-67399500D01*
X93562347Y-67379815D01*
X93541705Y-67363181D01*
X93538017Y-67359493D01*
X93538011Y-67359488D01*
X93412488Y-67287017D01*
X93412489Y-67287017D01*
X93406157Y-67285320D01*
X93348137Y-67269773D01*
X93288479Y-67233410D01*
X93257950Y-67170563D01*
X93266245Y-67101187D01*
X93310730Y-67047309D01*
X93348135Y-67030226D01*
X93412485Y-67012984D01*
X93538015Y-66940509D01*
X93541705Y-66936819D01*
X93603028Y-66903334D01*
X93629386Y-66900500D01*
X96170614Y-66900500D01*
X96237653Y-66920185D01*
X96258295Y-66936819D01*
X96261985Y-66940509D01*
X96261986Y-66940510D01*
X96261988Y-66940511D01*
X96387511Y-67012982D01*
X96387512Y-67012982D01*
X96387515Y-67012984D01*
X96527525Y-67050500D01*
X96527528Y-67050500D01*
X96672472Y-67050500D01*
X96672475Y-67050500D01*
X96812485Y-67012984D01*
X96938015Y-66940509D01*
X97040509Y-66838015D01*
X97112984Y-66712485D01*
X97150500Y-66572475D01*
X97150500Y-66427525D01*
X97131493Y-66356590D01*
X97133156Y-66286744D01*
X97172318Y-66228882D01*
X97236546Y-66201377D01*
X97251268Y-66200500D01*
X99580214Y-66200500D01*
X99647253Y-66220185D01*
X99693008Y-66272989D01*
X99702952Y-66342147D01*
X99689885Y-66379899D01*
X99690128Y-66380000D01*
X99688438Y-66384078D01*
X99687600Y-66386502D01*
X99687017Y-66387511D01*
X99687016Y-66387513D01*
X99687016Y-66387514D01*
X99649500Y-66527524D01*
X99649500Y-66672474D01*
X99671927Y-66756170D01*
X99687017Y-66812487D01*
X99759488Y-66938010D01*
X99759490Y-66938012D01*
X99759491Y-66938014D01*
X99861985Y-67040508D01*
X99861986Y-67040509D01*
X99861988Y-67040510D01*
X99987511Y-67112981D01*
X99987512Y-67112981D01*
X99987515Y-67112983D01*
X100127525Y-67150499D01*
X100132745Y-67150499D01*
X100199784Y-67170184D01*
X100220426Y-67186818D01*
X101413181Y-68379573D01*
X101446666Y-68440896D01*
X101449500Y-68467254D01*
X101449500Y-68472475D01*
X101485303Y-68606092D01*
X101487017Y-68612488D01*
X101559488Y-68738011D01*
X101559490Y-68738013D01*
X101559491Y-68738015D01*
X101661985Y-68840509D01*
X101661986Y-68840510D01*
X101661988Y-68840511D01*
X101787511Y-68912982D01*
X101787512Y-68912982D01*
X101787515Y-68912984D01*
X101927525Y-68950500D01*
X101932746Y-68950500D01*
X101962186Y-68959144D01*
X101992173Y-68965668D01*
X101997188Y-68969422D01*
X101999785Y-68970185D01*
X102020427Y-68986819D01*
X102075179Y-69041571D01*
X102075189Y-69041582D01*
X102079519Y-69045912D01*
X102079520Y-69045913D01*
X102154087Y-69120480D01*
X102245413Y-69173207D01*
X102347273Y-69200501D01*
X102347275Y-69200501D01*
X102460323Y-69200501D01*
X102460339Y-69200500D01*
X103370614Y-69200500D01*
X103437653Y-69220185D01*
X103458295Y-69236819D01*
X103461985Y-69240509D01*
X103461986Y-69240510D01*
X103461988Y-69240511D01*
X103587511Y-69312982D01*
X103587512Y-69312982D01*
X103587515Y-69312984D01*
X103727525Y-69350500D01*
X103727528Y-69350500D01*
X103872472Y-69350500D01*
X103872475Y-69350500D01*
X104012485Y-69312984D01*
X104138015Y-69240509D01*
X104237819Y-69140705D01*
X104299142Y-69107220D01*
X104368834Y-69112204D01*
X104424767Y-69154076D01*
X104449184Y-69219540D01*
X104449500Y-69228386D01*
X104449500Y-69272475D01*
X104476124Y-69371835D01*
X104487017Y-69412488D01*
X104559488Y-69538011D01*
X104559493Y-69538017D01*
X104563181Y-69541705D01*
X104596666Y-69603028D01*
X104599500Y-69629386D01*
X104599500Y-71370614D01*
X104579815Y-71437653D01*
X104563181Y-71458295D01*
X104559493Y-71461982D01*
X104559488Y-71461988D01*
X104487017Y-71587511D01*
X104487016Y-71587515D01*
X104449500Y-71727525D01*
X104449500Y-71872475D01*
X104487016Y-72012485D01*
X104487017Y-72012488D01*
X104559488Y-72138011D01*
X104559490Y-72138013D01*
X104559491Y-72138015D01*
X104661985Y-72240509D01*
X104661986Y-72240510D01*
X104661988Y-72240511D01*
X104787511Y-72312982D01*
X104787512Y-72312982D01*
X104787515Y-72312984D01*
X104927525Y-72350500D01*
X104927528Y-72350500D01*
X105072472Y-72350500D01*
X105072475Y-72350500D01*
X105212485Y-72312984D01*
X105338015Y-72240509D01*
X105440509Y-72138015D01*
X105512984Y-72012485D01*
X105550500Y-71872475D01*
X105550500Y-71727525D01*
X105512984Y-71587515D01*
X105512090Y-71585967D01*
X105440511Y-71461988D01*
X105440506Y-71461982D01*
X105436819Y-71458295D01*
X105403334Y-71396972D01*
X105400500Y-71370614D01*
X105400500Y-69629386D01*
X105409006Y-69600416D01*
X105415182Y-69570858D01*
X105419324Y-69565275D01*
X105420185Y-69562347D01*
X105436099Y-69542430D01*
X105436395Y-69542128D01*
X105440509Y-69538015D01*
X105512984Y-69412485D01*
X105550500Y-69272475D01*
X105550500Y-69127525D01*
X105512984Y-68987515D01*
X105502978Y-68970185D01*
X105440511Y-68861988D01*
X105440506Y-68861982D01*
X105338017Y-68759493D01*
X105338011Y-68759488D01*
X105212488Y-68687017D01*
X105212489Y-68687017D01*
X105201006Y-68683940D01*
X105072475Y-68649500D01*
X104927525Y-68649500D01*
X104798993Y-68683940D01*
X104787511Y-68687017D01*
X104661988Y-68759488D01*
X104661982Y-68759493D01*
X104562181Y-68859295D01*
X104500858Y-68892780D01*
X104431166Y-68887796D01*
X104375233Y-68845924D01*
X104350816Y-68780460D01*
X104350500Y-68771614D01*
X104350500Y-68727527D01*
X104350500Y-68727525D01*
X104312984Y-68587515D01*
X104246565Y-68472475D01*
X104240511Y-68461988D01*
X104240506Y-68461982D01*
X104138017Y-68359493D01*
X104138011Y-68359488D01*
X104012488Y-68287017D01*
X104012489Y-68287017D01*
X104001006Y-68283940D01*
X103872475Y-68249500D01*
X103727525Y-68249500D01*
X103598993Y-68283940D01*
X103587511Y-68287017D01*
X103461988Y-68359488D01*
X103461982Y-68359493D01*
X103458295Y-68363181D01*
X103396972Y-68396666D01*
X103370614Y-68399500D01*
X102664934Y-68399500D01*
X102597895Y-68379815D01*
X102552140Y-68327011D01*
X102545159Y-68307594D01*
X102512984Y-68187515D01*
X102507814Y-68178561D01*
X102440511Y-68061988D01*
X102440506Y-68061982D01*
X102338017Y-67959493D01*
X102338011Y-67959488D01*
X102212488Y-67887017D01*
X102212489Y-67887017D01*
X102201006Y-67883940D01*
X102072475Y-67849500D01*
X102072472Y-67849500D01*
X102067255Y-67849500D01*
X102000216Y-67829815D01*
X101979574Y-67813181D01*
X100786819Y-66620425D01*
X100754570Y-66564254D01*
X100750500Y-66548763D01*
X100750500Y-66527524D01*
X100712984Y-66387514D01*
X100704082Y-66372096D01*
X100699856Y-66356010D01*
X100700399Y-66337042D01*
X100695926Y-66318602D01*
X100701380Y-66302840D01*
X100701859Y-66286169D01*
X100712570Y-66270507D01*
X100718777Y-66252575D01*
X100731887Y-66242264D01*
X100741303Y-66228498D01*
X100758781Y-66221113D01*
X100773698Y-66209383D01*
X100797328Y-66204828D01*
X100805664Y-66201307D01*
X100810897Y-66202213D01*
X100819786Y-66200500D01*
X102870614Y-66200500D01*
X102937653Y-66220185D01*
X102958295Y-66236819D01*
X102961985Y-66240509D01*
X102961986Y-66240510D01*
X102961988Y-66240511D01*
X103087511Y-66312982D01*
X103087512Y-66312982D01*
X103087515Y-66312984D01*
X103227525Y-66350500D01*
X103227528Y-66350500D01*
X103372472Y-66350500D01*
X103372475Y-66350500D01*
X103512485Y-66312984D01*
X103638015Y-66240509D01*
X103740509Y-66138015D01*
X103812984Y-66012485D01*
X103850500Y-65872475D01*
X103850500Y-65727525D01*
X103812984Y-65587515D01*
X103756637Y-65489920D01*
X103740511Y-65461988D01*
X103740506Y-65461982D01*
X103638017Y-65359493D01*
X103638011Y-65359488D01*
X103512488Y-65287017D01*
X103512489Y-65287017D01*
X103501006Y-65283940D01*
X103372475Y-65249500D01*
X103227525Y-65249500D01*
X103098993Y-65283940D01*
X103087511Y-65287017D01*
X102961988Y-65359488D01*
X102961982Y-65359493D01*
X102958295Y-65363181D01*
X102896972Y-65396666D01*
X102870614Y-65399500D01*
X95729386Y-65399500D01*
X95662347Y-65379815D01*
X95641705Y-65363181D01*
X95638017Y-65359493D01*
X95638011Y-65359488D01*
X95512488Y-65287017D01*
X95512489Y-65287017D01*
X95501006Y-65283940D01*
X95372475Y-65249500D01*
X95227525Y-65249500D01*
X95098993Y-65283940D01*
X95087511Y-65287017D01*
X94961988Y-65359488D01*
X94961982Y-65359493D01*
X94859493Y-65461982D01*
X94859488Y-65461988D01*
X94787017Y-65587511D01*
X94787016Y-65587515D01*
X94749500Y-65727525D01*
X94749500Y-65872475D01*
X94768506Y-65943409D01*
X94766844Y-66013256D01*
X94727682Y-66071118D01*
X94663454Y-66098623D01*
X94648732Y-66099500D01*
X93629386Y-66099500D01*
X93562347Y-66079815D01*
X93541705Y-66063181D01*
X93538017Y-66059493D01*
X93538011Y-66059488D01*
X93412488Y-65987017D01*
X93412489Y-65987017D01*
X93401006Y-65983940D01*
X93272475Y-65949500D01*
X93127525Y-65949500D01*
X92998993Y-65983940D01*
X92987511Y-65987017D01*
X92861988Y-66059488D01*
X92861982Y-66059493D01*
X92759493Y-66161982D01*
X92759488Y-66161988D01*
X92687017Y-66287511D01*
X92687016Y-66287515D01*
X92649500Y-66427525D01*
X78919102Y-66427525D01*
X78962051Y-66323835D01*
X78982484Y-66221113D01*
X79000500Y-66130543D01*
X79000500Y-65933456D01*
X78962052Y-65740170D01*
X78962051Y-65740169D01*
X78962051Y-65740165D01*
X78926272Y-65653785D01*
X78886635Y-65558092D01*
X78886628Y-65558079D01*
X78777139Y-65394218D01*
X78777136Y-65394214D01*
X78637785Y-65254863D01*
X78637781Y-65254860D01*
X78596987Y-65227602D01*
X78552182Y-65173989D01*
X78543475Y-65104664D01*
X78573630Y-65041637D01*
X78633073Y-65004918D01*
X78665878Y-65000500D01*
X78774676Y-65000500D01*
X78774677Y-65000499D01*
X78847740Y-64985966D01*
X78930601Y-64930601D01*
X78985966Y-64847740D01*
X79000500Y-64774674D01*
X79000500Y-63225326D01*
X79000500Y-63225323D01*
X79000499Y-63225321D01*
X78985967Y-63152264D01*
X78985966Y-63152260D01*
X78943392Y-63088543D01*
X78930601Y-63069399D01*
X78847740Y-63014034D01*
X78847739Y-63014033D01*
X78847735Y-63014032D01*
X78774677Y-62999500D01*
X78774674Y-62999500D01*
X77225326Y-62999500D01*
X77225323Y-62999500D01*
X77152264Y-63014032D01*
X77152260Y-63014033D01*
X77069399Y-63069399D01*
X77014033Y-63152260D01*
X77014032Y-63152264D01*
X76999500Y-63225321D01*
X76999500Y-64101565D01*
X76979815Y-64168604D01*
X76927011Y-64214359D01*
X76857853Y-64224303D01*
X76806610Y-64204668D01*
X76693918Y-64129370D01*
X76693907Y-64129364D01*
X76511839Y-64053950D01*
X76511829Y-64053947D01*
X76318543Y-64015500D01*
X76318541Y-64015500D01*
X76121459Y-64015500D01*
X76121457Y-64015500D01*
X75928170Y-64053947D01*
X75928160Y-64053950D01*
X75746092Y-64129364D01*
X75746079Y-64129371D01*
X75582218Y-64238860D01*
X75582214Y-64238863D01*
X75442863Y-64378214D01*
X75442860Y-64378218D01*
X75333371Y-64542079D01*
X75333364Y-64542092D01*
X75257950Y-64724160D01*
X75257947Y-64724170D01*
X75219500Y-64917456D01*
X75219500Y-64917459D01*
X75219500Y-65114541D01*
X75219500Y-65114543D01*
X75219499Y-65114543D01*
X50200500Y-65114543D01*
X50200500Y-63088543D01*
X70399499Y-63088543D01*
X70437947Y-63281829D01*
X70437950Y-63281839D01*
X70513364Y-63463907D01*
X70513371Y-63463920D01*
X70622860Y-63627781D01*
X70622863Y-63627785D01*
X70762214Y-63767136D01*
X70762218Y-63767139D01*
X70926079Y-63876628D01*
X70926092Y-63876635D01*
X71108160Y-63952049D01*
X71108165Y-63952051D01*
X71108169Y-63952051D01*
X71108170Y-63952052D01*
X71301456Y-63990500D01*
X71301459Y-63990500D01*
X71498543Y-63990500D01*
X71628582Y-63964632D01*
X71691835Y-63952051D01*
X71873914Y-63876632D01*
X72037782Y-63767139D01*
X72177139Y-63627782D01*
X72286632Y-63463914D01*
X72362051Y-63281835D01*
X72387825Y-63152264D01*
X72400500Y-63088543D01*
X72400500Y-62891456D01*
X72362052Y-62698170D01*
X72362051Y-62698169D01*
X72362051Y-62698165D01*
X72320009Y-62596666D01*
X72286635Y-62516092D01*
X72286628Y-62516079D01*
X72177139Y-62352218D01*
X72177136Y-62352214D01*
X72037785Y-62212863D01*
X72037781Y-62212860D01*
X71873920Y-62103371D01*
X71873907Y-62103364D01*
X71691839Y-62027950D01*
X71691829Y-62027947D01*
X71498543Y-61989500D01*
X71498541Y-61989500D01*
X71301459Y-61989500D01*
X71301457Y-61989500D01*
X71108170Y-62027947D01*
X71108160Y-62027950D01*
X70926092Y-62103364D01*
X70926079Y-62103371D01*
X70762218Y-62212860D01*
X70762214Y-62212863D01*
X70622863Y-62352214D01*
X70622860Y-62352218D01*
X70513371Y-62516079D01*
X70513364Y-62516092D01*
X70437950Y-62698160D01*
X70437947Y-62698170D01*
X70399500Y-62891456D01*
X70399500Y-62891459D01*
X70399500Y-63088541D01*
X70399500Y-63088543D01*
X70399499Y-63088543D01*
X50200500Y-63088543D01*
X50200500Y-60798543D01*
X70399499Y-60798543D01*
X70437947Y-60991829D01*
X70437950Y-60991839D01*
X70513364Y-61173907D01*
X70513371Y-61173920D01*
X70622860Y-61337781D01*
X70622863Y-61337785D01*
X70762214Y-61477136D01*
X70762218Y-61477139D01*
X70926079Y-61586628D01*
X70926092Y-61586635D01*
X71108160Y-61662049D01*
X71108165Y-61662051D01*
X71108169Y-61662051D01*
X71108170Y-61662052D01*
X71301456Y-61700500D01*
X71301459Y-61700500D01*
X71498543Y-61700500D01*
X71628582Y-61674632D01*
X71691835Y-61662051D01*
X71873914Y-61586632D01*
X72037782Y-61477139D01*
X72177139Y-61337782D01*
X72286632Y-61173914D01*
X72286635Y-61173907D01*
X72322606Y-61087065D01*
X78664500Y-61087065D01*
X78664500Y-61332934D01*
X78683486Y-61477136D01*
X78696591Y-61576677D01*
X78752951Y-61787016D01*
X78760222Y-61814152D01*
X78760225Y-61814162D01*
X78854303Y-62041285D01*
X78854306Y-62041292D01*
X78977233Y-62254208D01*
X78977235Y-62254211D01*
X78977236Y-62254212D01*
X79126897Y-62449254D01*
X79126903Y-62449261D01*
X79300738Y-62623096D01*
X79300745Y-62623102D01*
X79398569Y-62698165D01*
X79495792Y-62772767D01*
X79708708Y-62895694D01*
X79935847Y-62989778D01*
X80173323Y-63053409D01*
X80417073Y-63085500D01*
X80417080Y-63085500D01*
X80662920Y-63085500D01*
X80662927Y-63085500D01*
X80906677Y-63053409D01*
X81144153Y-62989778D01*
X81371292Y-62895694D01*
X81584208Y-62772767D01*
X81779256Y-62623101D01*
X81953101Y-62449256D01*
X82077124Y-62287625D01*
X82133552Y-62246423D01*
X82203298Y-62242268D01*
X82264218Y-62276480D01*
X82296971Y-62338197D01*
X82299500Y-62363112D01*
X82299500Y-64432710D01*
X82290063Y-64480159D01*
X82287016Y-64487513D01*
X82272392Y-64542092D01*
X82249500Y-64627525D01*
X82249500Y-64772475D01*
X82287016Y-64912485D01*
X82287017Y-64912488D01*
X82359488Y-65038011D01*
X82359490Y-65038013D01*
X82359491Y-65038015D01*
X82461985Y-65140509D01*
X82461986Y-65140510D01*
X82461988Y-65140511D01*
X82587511Y-65212982D01*
X82587512Y-65212982D01*
X82587515Y-65212984D01*
X82727525Y-65250500D01*
X82727528Y-65250500D01*
X82872472Y-65250500D01*
X82872475Y-65250500D01*
X83012485Y-65212984D01*
X83138015Y-65140509D01*
X83240509Y-65038015D01*
X83312984Y-64912485D01*
X83350500Y-64772475D01*
X83350500Y-64627525D01*
X83312984Y-64487515D01*
X83312983Y-64487513D01*
X83309937Y-64480159D01*
X83300500Y-64432710D01*
X83300500Y-62927525D01*
X92649500Y-62927525D01*
X92649500Y-63072475D01*
X92670879Y-63152260D01*
X92687017Y-63212488D01*
X92759488Y-63338011D01*
X92759490Y-63338013D01*
X92759491Y-63338015D01*
X92861985Y-63440509D01*
X92861986Y-63440510D01*
X92861988Y-63440511D01*
X92987511Y-63512982D01*
X92987512Y-63512982D01*
X92987515Y-63512984D01*
X93127525Y-63550500D01*
X93127528Y-63550500D01*
X93272472Y-63550500D01*
X93272475Y-63550500D01*
X93412485Y-63512984D01*
X93538015Y-63440509D01*
X93541705Y-63436819D01*
X93603028Y-63403334D01*
X93629386Y-63400500D01*
X96170614Y-63400500D01*
X96237653Y-63420185D01*
X96258295Y-63436819D01*
X96261985Y-63440509D01*
X96261986Y-63440510D01*
X96261988Y-63440511D01*
X96387514Y-63512984D01*
X96388941Y-63513575D01*
X96389960Y-63514396D01*
X96394553Y-63517048D01*
X96394139Y-63517763D01*
X96396856Y-63519952D01*
X96406659Y-63522642D01*
X96423601Y-63541502D01*
X96443347Y-63557413D01*
X96446557Y-63567058D01*
X96453350Y-63574620D01*
X96457406Y-63599647D01*
X96465415Y-63623706D01*
X96462901Y-63633555D01*
X96464528Y-63643590D01*
X96454408Y-63666839D01*
X96448139Y-63691407D01*
X96439957Y-63700038D01*
X96436643Y-63707654D01*
X96417426Y-63723810D01*
X96410386Y-63731239D01*
X96407000Y-63733501D01*
X96361985Y-63759491D01*
X96349659Y-63771816D01*
X96339506Y-63778601D01*
X96317349Y-63785539D01*
X96296972Y-63796666D01*
X96273889Y-63799147D01*
X96272829Y-63799480D01*
X96272257Y-63799323D01*
X96270614Y-63799500D01*
X95729386Y-63799500D01*
X95662347Y-63779815D01*
X95641705Y-63763181D01*
X95638017Y-63759493D01*
X95638011Y-63759488D01*
X95512488Y-63687017D01*
X95512489Y-63687017D01*
X95494653Y-63682238D01*
X95372475Y-63649500D01*
X95227525Y-63649500D01*
X95105347Y-63682238D01*
X95087511Y-63687017D01*
X94961988Y-63759488D01*
X94961982Y-63759493D01*
X94859493Y-63861982D01*
X94859488Y-63861988D01*
X94787017Y-63987511D01*
X94787016Y-63987515D01*
X94749500Y-64127525D01*
X94749500Y-64272475D01*
X94770407Y-64350500D01*
X94787017Y-64412488D01*
X94859488Y-64538011D01*
X94859490Y-64538013D01*
X94859491Y-64538015D01*
X94961985Y-64640509D01*
X94961986Y-64640510D01*
X94961988Y-64640511D01*
X95087511Y-64712982D01*
X95087512Y-64712982D01*
X95087515Y-64712984D01*
X95227525Y-64750500D01*
X95227528Y-64750500D01*
X95372472Y-64750500D01*
X95372475Y-64750500D01*
X95512485Y-64712984D01*
X95638015Y-64640509D01*
X95641705Y-64636819D01*
X95703028Y-64603334D01*
X95729386Y-64600500D01*
X96270614Y-64600500D01*
X96337653Y-64620185D01*
X96358295Y-64636819D01*
X96361985Y-64640509D01*
X96361986Y-64640510D01*
X96361988Y-64640511D01*
X96487511Y-64712982D01*
X96487512Y-64712982D01*
X96487515Y-64712984D01*
X96627525Y-64750500D01*
X96627528Y-64750500D01*
X96772472Y-64750500D01*
X96772475Y-64750500D01*
X96912485Y-64712984D01*
X97038015Y-64640509D01*
X97140509Y-64538015D01*
X97212984Y-64412485D01*
X97250500Y-64272475D01*
X97250500Y-64127525D01*
X97212984Y-63987515D01*
X97192509Y-63952052D01*
X97140511Y-63861988D01*
X97140506Y-63861982D01*
X97038017Y-63759493D01*
X97038011Y-63759488D01*
X96912488Y-63687017D01*
X96911051Y-63686422D01*
X96910024Y-63685595D01*
X96905447Y-63682952D01*
X96905859Y-63682238D01*
X96856648Y-63642580D01*
X96834584Y-63576286D01*
X96851864Y-63508586D01*
X96896502Y-63464476D01*
X96938015Y-63440509D01*
X97040509Y-63338015D01*
X97112984Y-63212485D01*
X97150500Y-63072475D01*
X97150500Y-62927525D01*
X97112984Y-62787515D01*
X97104469Y-62772767D01*
X97040511Y-62661988D01*
X97040506Y-62661982D01*
X96938017Y-62559493D01*
X96938011Y-62559488D01*
X96812488Y-62487017D01*
X96812489Y-62487017D01*
X96801006Y-62483940D01*
X96672475Y-62449500D01*
X96527525Y-62449500D01*
X96398993Y-62483940D01*
X96387511Y-62487017D01*
X96261988Y-62559488D01*
X96261982Y-62559493D01*
X96258295Y-62563181D01*
X96196972Y-62596666D01*
X96170614Y-62599500D01*
X93629386Y-62599500D01*
X93562347Y-62579815D01*
X93541705Y-62563181D01*
X93538017Y-62559493D01*
X93538011Y-62559488D01*
X93412488Y-62487017D01*
X93412489Y-62487017D01*
X93401006Y-62483940D01*
X93272475Y-62449500D01*
X93127525Y-62449500D01*
X92998993Y-62483940D01*
X92987511Y-62487017D01*
X92861988Y-62559488D01*
X92861982Y-62559493D01*
X92759493Y-62661982D01*
X92759488Y-62661988D01*
X92687017Y-62787511D01*
X92687016Y-62787515D01*
X92649500Y-62927525D01*
X83300500Y-62927525D01*
X83300500Y-62227525D01*
X105249500Y-62227525D01*
X105249500Y-62372475D01*
X105270074Y-62449256D01*
X105287017Y-62512488D01*
X105290059Y-62519831D01*
X105299500Y-62567288D01*
X105299500Y-63532710D01*
X105290063Y-63580159D01*
X105287016Y-63587513D01*
X105270407Y-63649500D01*
X105249500Y-63727525D01*
X105249500Y-63872475D01*
X105281125Y-63990500D01*
X105287017Y-64012488D01*
X105359488Y-64138011D01*
X105359490Y-64138013D01*
X105359491Y-64138015D01*
X105461985Y-64240509D01*
X105461986Y-64240510D01*
X105461988Y-64240511D01*
X105587511Y-64312982D01*
X105587512Y-64312982D01*
X105587515Y-64312984D01*
X105727525Y-64350500D01*
X105727528Y-64350500D01*
X105872472Y-64350500D01*
X105872475Y-64350500D01*
X106012485Y-64312984D01*
X106138015Y-64240509D01*
X106240509Y-64138015D01*
X106312984Y-64012485D01*
X106350500Y-63872475D01*
X106350500Y-63727525D01*
X106312984Y-63587515D01*
X106312983Y-63587513D01*
X106309937Y-63580159D01*
X106300500Y-63532710D01*
X106300500Y-62567288D01*
X106309941Y-62519831D01*
X106312982Y-62512488D01*
X106312981Y-62512488D01*
X106312984Y-62512485D01*
X106350500Y-62372475D01*
X106350500Y-62227525D01*
X106312984Y-62087515D01*
X106286298Y-62041294D01*
X106240511Y-61961988D01*
X106240506Y-61961982D01*
X106138017Y-61859493D01*
X106138011Y-61859488D01*
X106012488Y-61787017D01*
X106012489Y-61787017D01*
X106001006Y-61783940D01*
X105872475Y-61749500D01*
X105727525Y-61749500D01*
X105598993Y-61783940D01*
X105587511Y-61787017D01*
X105461988Y-61859488D01*
X105461982Y-61859493D01*
X105359493Y-61961982D01*
X105359488Y-61961988D01*
X105287017Y-62087511D01*
X105287016Y-62087515D01*
X105249500Y-62227525D01*
X83300500Y-62227525D01*
X83300500Y-58934110D01*
X83300500Y-58934108D01*
X83266392Y-58806814D01*
X83200500Y-58692686D01*
X83107314Y-58599500D01*
X83007314Y-58499500D01*
X82938017Y-58459491D01*
X82893187Y-58433608D01*
X82829539Y-58416554D01*
X82765892Y-58399500D01*
X82765891Y-58399500D01*
X81967289Y-58399500D01*
X81919838Y-58390062D01*
X81912486Y-58387016D01*
X81877482Y-58377637D01*
X81772475Y-58349500D01*
X81627525Y-58349500D01*
X81498993Y-58383940D01*
X81487511Y-58387017D01*
X81361988Y-58459488D01*
X81361982Y-58459493D01*
X81259493Y-58561982D01*
X81259488Y-58561988D01*
X81187017Y-58687511D01*
X81187016Y-58687515D01*
X81149500Y-58827525D01*
X81149500Y-58972475D01*
X81184219Y-59102045D01*
X81187017Y-59112488D01*
X81262198Y-59242704D01*
X81278671Y-59310604D01*
X81255819Y-59376631D01*
X81200898Y-59419821D01*
X81131344Y-59426463D01*
X81122729Y-59424481D01*
X80906677Y-59366591D01*
X80865939Y-59361227D01*
X80662934Y-59334500D01*
X80662927Y-59334500D01*
X80417073Y-59334500D01*
X80417065Y-59334500D01*
X80185059Y-59365045D01*
X80173323Y-59366591D01*
X80000181Y-59412984D01*
X79935847Y-59430222D01*
X79935837Y-59430225D01*
X79708714Y-59524303D01*
X79708705Y-59524307D01*
X79495787Y-59647236D01*
X79300745Y-59796897D01*
X79300738Y-59796903D01*
X79126903Y-59970738D01*
X79126897Y-59970745D01*
X78977236Y-60165787D01*
X78854307Y-60378705D01*
X78854303Y-60378714D01*
X78760225Y-60605837D01*
X78760222Y-60605847D01*
X78696592Y-60843320D01*
X78696590Y-60843331D01*
X78664500Y-61087065D01*
X72322606Y-61087065D01*
X72343939Y-61035562D01*
X72343939Y-61035561D01*
X72362051Y-60991835D01*
X72400500Y-60798541D01*
X72400500Y-60601459D01*
X72400500Y-60601456D01*
X72362052Y-60408170D01*
X72362051Y-60408169D01*
X72362051Y-60408165D01*
X72349850Y-60378708D01*
X72286635Y-60226092D01*
X72286628Y-60226079D01*
X72177139Y-60062218D01*
X72177136Y-60062214D01*
X72037785Y-59922863D01*
X72037781Y-59922860D01*
X71873920Y-59813371D01*
X71873907Y-59813364D01*
X71691839Y-59737950D01*
X71691829Y-59737947D01*
X71498543Y-59699500D01*
X71498541Y-59699500D01*
X71301459Y-59699500D01*
X71301457Y-59699500D01*
X71108170Y-59737947D01*
X71108160Y-59737950D01*
X70926092Y-59813364D01*
X70926079Y-59813371D01*
X70762218Y-59922860D01*
X70762214Y-59922863D01*
X70622863Y-60062214D01*
X70622860Y-60062218D01*
X70513371Y-60226079D01*
X70513364Y-60226092D01*
X70437950Y-60408160D01*
X70437947Y-60408170D01*
X70399500Y-60601456D01*
X70399500Y-60601459D01*
X70399500Y-60798541D01*
X70399500Y-60798543D01*
X70399499Y-60798543D01*
X50200500Y-60798543D01*
X50200500Y-57727525D01*
X74949500Y-57727525D01*
X74949500Y-57872475D01*
X74987016Y-58012485D01*
X74987017Y-58012488D01*
X75059488Y-58138011D01*
X75059490Y-58138013D01*
X75059491Y-58138015D01*
X75161985Y-58240509D01*
X75287515Y-58312984D01*
X75287519Y-58312985D01*
X75294860Y-58316026D01*
X75335094Y-58342908D01*
X75776147Y-58783961D01*
X75809632Y-58845284D01*
X75806397Y-58909959D01*
X75743985Y-59102045D01*
X75709500Y-59319778D01*
X75709500Y-59540221D01*
X75743985Y-59757952D01*
X75812103Y-59967603D01*
X75812104Y-59967606D01*
X75912187Y-60164025D01*
X76041752Y-60342358D01*
X76041756Y-60342363D01*
X76197636Y-60498243D01*
X76197641Y-60498247D01*
X76339698Y-60601456D01*
X76375978Y-60627815D01*
X76504375Y-60693237D01*
X76572393Y-60727895D01*
X76572396Y-60727896D01*
X76677221Y-60761955D01*
X76782049Y-60796015D01*
X76999778Y-60830500D01*
X76999779Y-60830500D01*
X77220221Y-60830500D01*
X77220222Y-60830500D01*
X77437951Y-60796015D01*
X77647606Y-60727895D01*
X77844022Y-60627815D01*
X78022365Y-60498242D01*
X78178242Y-60342365D01*
X78307815Y-60164022D01*
X78407895Y-59967606D01*
X78476015Y-59757951D01*
X78510500Y-59540222D01*
X78510500Y-59319778D01*
X78476015Y-59102049D01*
X78441955Y-58997221D01*
X78407896Y-58892396D01*
X78407895Y-58892393D01*
X78352645Y-58783961D01*
X78307815Y-58695978D01*
X78237720Y-58599500D01*
X78178247Y-58517641D01*
X78178243Y-58517636D01*
X78022363Y-58361756D01*
X78022358Y-58361752D01*
X77844025Y-58232187D01*
X77844024Y-58232186D01*
X77844022Y-58232185D01*
X77781096Y-58200122D01*
X77647606Y-58132104D01*
X77647603Y-58132103D01*
X77437952Y-58063985D01*
X77329086Y-58046742D01*
X77220222Y-58029500D01*
X76999778Y-58029500D01*
X76956232Y-58036397D01*
X76782045Y-58063985D01*
X76620149Y-58116587D01*
X76550308Y-58118582D01*
X76494151Y-58086337D01*
X76042908Y-57635094D01*
X76016026Y-57594860D01*
X76012985Y-57587519D01*
X76012984Y-57587515D01*
X75940509Y-57461985D01*
X75838015Y-57359491D01*
X75838013Y-57359490D01*
X75838011Y-57359488D01*
X75712488Y-57287017D01*
X75712489Y-57287017D01*
X75701006Y-57283940D01*
X75572475Y-57249500D01*
X75427525Y-57249500D01*
X75298993Y-57283940D01*
X75287511Y-57287017D01*
X75161988Y-57359488D01*
X75161982Y-57359493D01*
X75059493Y-57461982D01*
X75059488Y-57461988D01*
X74987017Y-57587511D01*
X74987016Y-57587515D01*
X74949500Y-57727525D01*
X50200500Y-57727525D01*
X50200500Y-56568617D01*
X50220185Y-56501578D01*
X50272989Y-56455823D01*
X50315233Y-56444964D01*
X50722733Y-56414426D01*
X50769215Y-56407419D01*
X51200062Y-56342480D01*
X51670680Y-56235064D01*
X51852768Y-56178897D01*
X52131951Y-56092782D01*
X52131953Y-56092780D01*
X52131956Y-56092780D01*
X52581308Y-55916422D01*
X53016225Y-55706977D01*
X53434274Y-55465616D01*
X53833117Y-55193690D01*
X54210524Y-54892718D01*
X54500092Y-54624038D01*
X58149500Y-54624038D01*
X58149500Y-54875962D01*
X58188910Y-55124785D01*
X58266760Y-55364383D01*
X58381132Y-55588848D01*
X58529201Y-55792649D01*
X58529205Y-55792654D01*
X58707345Y-55970794D01*
X58707350Y-55970798D01*
X58815675Y-56049500D01*
X58911155Y-56118870D01*
X59054184Y-56191747D01*
X59135616Y-56233239D01*
X59135618Y-56233239D01*
X59135621Y-56233241D01*
X59375215Y-56311090D01*
X59624038Y-56350500D01*
X59624039Y-56350500D01*
X59875961Y-56350500D01*
X59875962Y-56350500D01*
X60124785Y-56311090D01*
X60364379Y-56233241D01*
X60588845Y-56118870D01*
X60792656Y-55970793D01*
X60970793Y-55792656D01*
X61118870Y-55588845D01*
X61233241Y-55364379D01*
X61311090Y-55124785D01*
X61350500Y-54875962D01*
X61350500Y-54624038D01*
X133149500Y-54624038D01*
X133149500Y-54875962D01*
X133188910Y-55124785D01*
X133266760Y-55364383D01*
X133381132Y-55588848D01*
X133529201Y-55792649D01*
X133529205Y-55792654D01*
X133707345Y-55970794D01*
X133707350Y-55970798D01*
X133815675Y-56049500D01*
X133911155Y-56118870D01*
X134054184Y-56191747D01*
X134135616Y-56233239D01*
X134135618Y-56233239D01*
X134135621Y-56233241D01*
X134375215Y-56311090D01*
X134624038Y-56350500D01*
X134624039Y-56350500D01*
X134875961Y-56350500D01*
X134875962Y-56350500D01*
X135124785Y-56311090D01*
X135364379Y-56233241D01*
X135588845Y-56118870D01*
X135792656Y-55970793D01*
X135970793Y-55792656D01*
X136118870Y-55588845D01*
X136233241Y-55364379D01*
X136311090Y-55124785D01*
X136350500Y-54875962D01*
X136350500Y-54624038D01*
X136311090Y-54375215D01*
X136233241Y-54135621D01*
X136233239Y-54135618D01*
X136233239Y-54135616D01*
X136191747Y-54054184D01*
X136118870Y-53911155D01*
X136047545Y-53812984D01*
X135970798Y-53707350D01*
X135970794Y-53707345D01*
X135792654Y-53529205D01*
X135792649Y-53529201D01*
X135588848Y-53381132D01*
X135588847Y-53381131D01*
X135588845Y-53381130D01*
X135488267Y-53329883D01*
X135364383Y-53266760D01*
X135124785Y-53188910D01*
X134875962Y-53149500D01*
X134624038Y-53149500D01*
X134552346Y-53160855D01*
X134375214Y-53188910D01*
X134135616Y-53266760D01*
X133911151Y-53381132D01*
X133707350Y-53529201D01*
X133707345Y-53529205D01*
X133529205Y-53707345D01*
X133529201Y-53707350D01*
X133381132Y-53911151D01*
X133266760Y-54135616D01*
X133220613Y-54277642D01*
X133188910Y-54375215D01*
X133149500Y-54624038D01*
X61350500Y-54624038D01*
X61311090Y-54375215D01*
X61233241Y-54135621D01*
X61233239Y-54135618D01*
X61233239Y-54135616D01*
X61191747Y-54054184D01*
X61118870Y-53911155D01*
X61047545Y-53812984D01*
X60970798Y-53707350D01*
X60970794Y-53707345D01*
X60792654Y-53529205D01*
X60792649Y-53529201D01*
X60588848Y-53381132D01*
X60588847Y-53381131D01*
X60588845Y-53381130D01*
X60488267Y-53329883D01*
X60364383Y-53266760D01*
X60243630Y-53227525D01*
X80449500Y-53227525D01*
X80449500Y-53372475D01*
X80487016Y-53512485D01*
X80487017Y-53512488D01*
X80559488Y-53638011D01*
X80559490Y-53638013D01*
X80559491Y-53638015D01*
X80661985Y-53740509D01*
X80661986Y-53740510D01*
X80661988Y-53740511D01*
X80787511Y-53812982D01*
X80787512Y-53812982D01*
X80787515Y-53812984D01*
X80927525Y-53850500D01*
X80927528Y-53850500D01*
X81072472Y-53850500D01*
X81072475Y-53850500D01*
X81212485Y-53812984D01*
X81338015Y-53740509D01*
X81341705Y-53736819D01*
X81403028Y-53703334D01*
X81429386Y-53700500D01*
X81870614Y-53700500D01*
X81937653Y-53720185D01*
X81958295Y-53736819D01*
X81961985Y-53740509D01*
X81961986Y-53740510D01*
X81961988Y-53740511D01*
X82087511Y-53812982D01*
X82087512Y-53812982D01*
X82087515Y-53812984D01*
X82227525Y-53850500D01*
X82227528Y-53850500D01*
X82372472Y-53850500D01*
X82372475Y-53850500D01*
X82512485Y-53812984D01*
X82638015Y-53740509D01*
X82740509Y-53638015D01*
X82812984Y-53512485D01*
X82850500Y-53372475D01*
X82850500Y-53227525D01*
X82812984Y-53087515D01*
X82771826Y-53016228D01*
X82740511Y-52961988D01*
X82740506Y-52961982D01*
X82638017Y-52859493D01*
X82638011Y-52859488D01*
X82512488Y-52787017D01*
X82512489Y-52787017D01*
X82501006Y-52783940D01*
X82372475Y-52749500D01*
X82227525Y-52749500D01*
X82098993Y-52783940D01*
X82087511Y-52787017D01*
X81961988Y-52859488D01*
X81961982Y-52859493D01*
X81958295Y-52863181D01*
X81896972Y-52896666D01*
X81870614Y-52899500D01*
X81429386Y-52899500D01*
X81362347Y-52879815D01*
X81341705Y-52863181D01*
X81338017Y-52859493D01*
X81338011Y-52859488D01*
X81212488Y-52787017D01*
X81212489Y-52787017D01*
X81201006Y-52783940D01*
X81072475Y-52749500D01*
X80927525Y-52749500D01*
X80798993Y-52783940D01*
X80787511Y-52787017D01*
X80661988Y-52859488D01*
X80661982Y-52859493D01*
X80559493Y-52961982D01*
X80559488Y-52961988D01*
X80487017Y-53087511D01*
X80487016Y-53087515D01*
X80449500Y-53227525D01*
X60243630Y-53227525D01*
X60124785Y-53188910D01*
X59875962Y-53149500D01*
X59624038Y-53149500D01*
X59552346Y-53160855D01*
X59375214Y-53188910D01*
X59135616Y-53266760D01*
X58911151Y-53381132D01*
X58707350Y-53529201D01*
X58707345Y-53529205D01*
X58529205Y-53707345D01*
X58529201Y-53707350D01*
X58381132Y-53911151D01*
X58266760Y-54135616D01*
X58220613Y-54277642D01*
X58188910Y-54375215D01*
X58149500Y-54624038D01*
X54500092Y-54624038D01*
X54564384Y-54564384D01*
X54892718Y-54210524D01*
X55193690Y-53833117D01*
X55465616Y-53434274D01*
X55706977Y-53016225D01*
X55916422Y-52581308D01*
X56092780Y-52131956D01*
X56235064Y-51670680D01*
X56342480Y-51200062D01*
X56414426Y-50722732D01*
X56444965Y-50315233D01*
X56469604Y-50249852D01*
X56525680Y-50208171D01*
X56568618Y-50200500D01*
X137931382Y-50200500D01*
X137998421Y-50220185D01*
G37*
%TD.AperFunction*%
%TD*%
D19*
X73200000Y-76900000D03*
X72100000Y-78000000D03*
X95300000Y-64200000D03*
X96700000Y-64200000D03*
X105000000Y-69200000D03*
X105900000Y-76800000D03*
X105000000Y-71800000D03*
X105000000Y-75900000D03*
X137000000Y-77000000D03*
X65000000Y-59000000D03*
X65000000Y-89000000D03*
X107000000Y-65000000D03*
X95000000Y-53000000D03*
X53000000Y-83000000D03*
X137000000Y-53000000D03*
X113000000Y-71000000D03*
X53000000Y-65000000D03*
X95000000Y-83000000D03*
X131000000Y-59000000D03*
X125000000Y-53000000D03*
X119000000Y-71000000D03*
X59000000Y-83000000D03*
X72820000Y-71900000D03*
X131000000Y-77000000D03*
X107000000Y-83000000D03*
X125000000Y-59000000D03*
X137000000Y-89000000D03*
X122250000Y-87500000D03*
X65000000Y-83000000D03*
X59000000Y-65000000D03*
X95000000Y-71000000D03*
X107000000Y-53000000D03*
X97440000Y-59500000D03*
X100140000Y-88900000D03*
X122210000Y-84000000D03*
X71000000Y-59000000D03*
X125000000Y-89000000D03*
X107000000Y-89000000D03*
X137000000Y-59000000D03*
X83000000Y-89000000D03*
X89000000Y-53000000D03*
X59000000Y-77000000D03*
X101000000Y-65000000D03*
X89210000Y-60800000D03*
X125000000Y-77000000D03*
X65000000Y-65000000D03*
X101000000Y-53000000D03*
X113000000Y-89000000D03*
X101000000Y-83000000D03*
X113000000Y-53000000D03*
X88670000Y-59060000D03*
X119000000Y-65000000D03*
X131000000Y-83000000D03*
X113000000Y-65000000D03*
X59000000Y-59000000D03*
X71000000Y-65000000D03*
X100220000Y-68310000D03*
X113000000Y-77000000D03*
X71000000Y-53000000D03*
X131000000Y-65000000D03*
X131000000Y-53000000D03*
X89000000Y-77000000D03*
X95000000Y-77000000D03*
X77000000Y-53000000D03*
X125000000Y-71000000D03*
X125000000Y-83000000D03*
X119000000Y-89000000D03*
X119000000Y-59000000D03*
X119000000Y-53000000D03*
X137000000Y-83000000D03*
X53000000Y-77000000D03*
X107000000Y-59000000D03*
X95000000Y-65000000D03*
X109250000Y-61500000D03*
X89000000Y-65000000D03*
X65000000Y-71000000D03*
X65000000Y-77000000D03*
X137000000Y-65000000D03*
X131000000Y-89000000D03*
X53000000Y-71000000D03*
X113000000Y-59000000D03*
X59000000Y-71000000D03*
X53000000Y-59000000D03*
X75500000Y-57800000D03*
X81700000Y-58900000D03*
X82800000Y-64700000D03*
X93200000Y-67800000D03*
X82300000Y-53300000D03*
X94500000Y-67800000D03*
X81000000Y-53300000D03*
X80700000Y-68600000D03*
X74200000Y-77900000D03*
X70900000Y-78000000D03*
X105800000Y-62300000D03*
X107000000Y-77600000D03*
X106200000Y-78800000D03*
X105800000Y-63800000D03*
X103800000Y-77500000D03*
X102500000Y-77500000D03*
X96600000Y-63000000D03*
X93200000Y-63000000D03*
X96600000Y-66500000D03*
X93200000Y-66500000D03*
X113500000Y-82200000D03*
X113500000Y-83600000D03*
X95300000Y-65800000D03*
X103300000Y-65800000D03*
X102000000Y-68400000D03*
X100200000Y-66599999D03*
X103800000Y-68800000D03*
D20*
X80540000Y-61210000D03*
X80540000Y-73910000D03*
X78000000Y-64000000D03*
X76220000Y-65016000D03*
X78000000Y-66032000D03*
X76220000Y-67048000D03*
X78000000Y-68064000D03*
X76220000Y-69080000D03*
X78000000Y-70096000D03*
X76220000Y-71112000D03*
X71400000Y-60700000D03*
X71400000Y-62990000D03*
X71400000Y-72130000D03*
X71400000Y-74420000D03*
X77110000Y-59430000D03*
X77110000Y-75690000D03*
X134750000Y-54750000D03*
X59750000Y-89750000D03*
X59750000Y-54750000D03*
X139500000Y-70500000D03*
X139500000Y-73040000D03*
X134750000Y-89750000D03*
M02*
