M48
; DRILL file KiCad 10.0.4-10.0.4~ubuntu24.04.1 date 2026-07-19T09:05:09
; FORMAT={-:-/ absolute / metric / decimal}
; #@! TF.CreationDate,2026-07-19T09:05:09-07:00
; #@! TF.GenerationSoftware,Kicad,Pcbnew,10.0.4-10.0.4~ubuntu24.04.1
; #@! TF.FileFunction,Plated,1,2,PTH
FMAT,2
METRIC
; #@! TA.AperFunction,Plated,PTH,ViaDrill
T1C0.300
; #@! TA.AperFunction,Plated,PTH,ComponentDrill
T2C0.890
; #@! TA.AperFunction,Plated,PTH,ComponentDrill
T3C1.000
; #@! TA.AperFunction,Plated,PTH,ComponentDrill
T4C1.570
%
G90
G05
T1
X53.0Y-59.0
X53.0Y-65.0
X53.0Y-71.0
X53.0Y-77.0
X53.0Y-83.0
X59.0Y-59.0
X59.0Y-65.0
X59.0Y-71.0
X59.0Y-77.0
X59.0Y-83.0
X65.0Y-59.0
X65.0Y-65.0
X65.0Y-71.0
X65.0Y-77.0
X65.0Y-83.0
X65.0Y-89.0
X70.9Y-78.0
X71.0Y-53.0
X71.0Y-59.0
X71.0Y-65.0
X72.1Y-78.0
X72.82Y-71.9
X73.2Y-76.9
X74.2Y-77.9
X75.5Y-57.8
X77.0Y-53.0
X80.7Y-68.6
X81.0Y-53.3
X81.7Y-58.9
X82.3Y-53.3
X82.8Y-64.7
X83.0Y-89.0
X88.67Y-59.06
X89.0Y-53.0
X89.0Y-65.0
X89.0Y-77.0
X89.21Y-60.8
X93.2Y-63.0
X93.2Y-66.5
X93.2Y-67.8
X94.5Y-67.8
X95.0Y-53.0
X95.0Y-65.0
X95.0Y-71.0
X95.0Y-77.0
X95.0Y-83.0
X95.3Y-64.2
X95.3Y-65.8
X96.6Y-63.0
X96.6Y-66.5
X96.7Y-64.2
X97.44Y-59.5
X100.14Y-88.9
X100.2Y-66.6
X100.22Y-68.31
X101.0Y-53.0
X101.0Y-65.0
X101.0Y-83.0
X102.0Y-68.4
X102.5Y-77.5
X103.3Y-65.8
X103.8Y-68.8
X103.8Y-77.5
X105.0Y-69.2
X105.0Y-71.8
X105.0Y-75.9
X105.8Y-62.3
X105.8Y-63.8
X105.9Y-76.8
X106.2Y-78.8
X107.0Y-53.0
X107.0Y-59.0
X107.0Y-65.0
X107.0Y-77.6
X107.0Y-83.0
X107.0Y-89.0
X109.25Y-61.5
X113.0Y-53.0
X113.0Y-59.0
X113.0Y-65.0
X113.0Y-71.0
X113.0Y-77.0
X113.0Y-89.0
X113.5Y-82.2
X113.5Y-83.6
X119.0Y-53.0
X119.0Y-59.0
X119.0Y-65.0
X119.0Y-71.0
X119.0Y-89.0
X122.21Y-84.0
X122.25Y-87.5
X125.0Y-53.0
X125.0Y-59.0
X125.0Y-71.0
X125.0Y-77.0
X125.0Y-83.0
X125.0Y-89.0
X131.0Y-53.0
X131.0Y-59.0
X131.0Y-65.0
X131.0Y-77.0
X131.0Y-83.0
X131.0Y-89.0
X137.0Y-53.0
X137.0Y-59.0
X137.0Y-65.0
X137.0Y-77.0
X137.0Y-83.0
X137.0Y-89.0
T2
X71.4Y-60.7
X71.4Y-62.99
X71.4Y-72.13
X71.4Y-74.42
X76.22Y-65.016
X76.22Y-67.048
X76.22Y-69.08
X76.22Y-71.112
X78.0Y-64.0
X78.0Y-66.032
X78.0Y-68.064
X78.0Y-70.096
T3
X139.5Y-70.5
X139.5Y-73.04
T4
X77.11Y-59.43
X77.11Y-75.69
M30
