M48
; DRILL file KiCad 10.0.4-10.0.4~ubuntu24.04.1 date 2026-07-17T20:44:42
; FORMAT={-:-/ absolute / metric / decimal}
; #@! TF.CreationDate,2026-07-17T20:44:42-07:00
; #@! TF.GenerationSoftware,Kicad,Pcbnew,10.0.4-10.0.4~ubuntu24.04.1
; #@! TF.FileFunction,Plated,1,2,PTH
FMAT,2
METRIC
; #@! TA.AperFunction,Plated,PTH,ViaDrill
T1C0.300
; #@! TA.AperFunction,Plated,PTH,ComponentDrill
T2C1.000
; #@! TA.AperFunction,Plated,PTH,ComponentDrill
T3C1.200
%
G90
G05
T1
X53.0Y-59.0
X53.0Y-65.0
X53.0Y-71.0
X53.0Y-77.0
X53.0Y-83.0
X59.0Y-65.0
X59.7Y-62.2
X65.0Y-59.0
X65.0Y-65.0
X65.0Y-71.0
X65.0Y-77.0
X67.5Y-61.7
X68.8Y-61.7
X70.91Y-61.1
X71.0Y-53.0
X71.0Y-65.0
X71.0Y-71.0
X71.0Y-77.0
X77.0Y-59.0
X77.0Y-71.0
X77.0Y-77.0
X83.0Y-53.0
X83.0Y-59.0
X83.0Y-71.0
X83.0Y-77.0
X83.0Y-89.0
X88.4Y-62.7
X89.0Y-53.0
X89.0Y-59.0
X89.0Y-71.0
X89.0Y-77.0
X89.3Y-61.8
X95.0Y-53.0
X95.0Y-65.0
X95.0Y-71.0
X95.0Y-77.0
X95.0Y-83.0
X96.8Y-69.2
X97.64Y-59.9
X98.83Y-68.31
X101.0Y-53.0
X101.0Y-71.0
X101.0Y-77.0
X101.0Y-89.0
X101.3Y-63.9
X101.7Y-69.2
X102.2Y-64.8
X102.5Y-68.2
X102.5Y-79.2
X103.5Y-71.0
X104.3Y-64.2
X104.3Y-69.2
X104.8Y-71.8
X104.8Y-79.2
X105.5Y-72.3
X105.8Y-62.7
X107.0Y-53.0
X107.0Y-59.0
X107.0Y-65.0
X107.0Y-83.0
X107.0Y-89.0
X109.25Y-61.5
X113.0Y-53.0
X113.0Y-59.0
X113.0Y-65.0
X113.0Y-77.0
X113.0Y-89.0
X113.5Y-83.6
X114.5Y-82.6
X119.0Y-53.0
X119.0Y-59.0
X119.0Y-65.0
X119.0Y-77.0
X119.0Y-89.0
X122.21Y-84.0
X122.25Y-87.5
X123.1Y-66.8
X124.1Y-67.8
X125.0Y-53.0
X125.0Y-59.0
X125.0Y-71.0
X125.0Y-77.0
X125.0Y-83.0
X125.0Y-89.0
X131.0Y-53.0
X131.0Y-59.0
X131.0Y-65.0
X131.0Y-77.0
X131.0Y-83.0
X131.0Y-89.0
X137.0Y-53.0
X137.0Y-59.0
X137.0Y-65.0
X137.0Y-77.0
X137.0Y-83.0
X137.0Y-89.0
T2
X139.5Y-70.5
X139.5Y-73.04
T3
X57.5Y-60.0
X57.5Y-63.5
X57.5Y-67.0
X57.5Y-70.5
X57.5Y-74.0
X57.5Y-77.5
X57.5Y-81.0
X57.5Y-84.5
M30
