%TF.GenerationSoftware,KiCad,Pcbnew,10.0.4-10.0.4~ubuntu24.04.1*%
%TF.CreationDate,2026-07-17T20:57:57-07:00*%
%TF.ProjectId,crow_array_pod,63726f77-5f61-4727-9261-795f706f642e,rev?*%
%TF.SameCoordinates,Original*%
%TF.FileFunction,Copper,L1,Top*%
%TF.FilePolarity,Positive*%
%FSLAX46Y46*%
G04 Gerber Fmt 4.6, Leading zero omitted, Abs format (unit mm)*
G04 Created by KiCad (PCBNEW 10.0.4-10.0.4~ubuntu24.04.1) date 2026-07-17 20:57:57*
%MOMM*%
%LPD*%
G01*
G04 APERTURE LIST*
G04 Aperture macros list*
%AMRoundRect*
0 Rectangle with rounded corners*
0 $1 Rounding radius*
0 $2 $3 $4 $5 $6 $7 $8 $9 X,Y pos of 4 corners*
0 Add a 4 corners polygon primitive as box body*
4,1,4,$2,$3,$4,$5,$6,$7,$8,$9,$2,$3,0*
0 Add four circle primitives for the rounded corners*
1,1,$1+$1,$2,$3*
1,1,$1+$1,$4,$5*
1,1,$1+$1,$6,$7*
1,1,$1+$1,$8,$9*
0 Add four rect primitives between the rounded corners*
20,1,$1+$1,$2,$3,$4,$5,0*
20,1,$1+$1,$4,$5,$6,$7,0*
20,1,$1+$1,$6,$7,$8,$9,0*
20,1,$1+$1,$8,$9,$2,$3,0*%
G04 Aperture macros list end*
%TA.AperFunction,SMDPad,CuDef*%
%ADD10RoundRect,0.250000X-0.250000X-0.475000X0.250000X-0.475000X0.250000X0.475000X-0.250000X0.475000X0*%
%TD*%
%TA.AperFunction,SMDPad,CuDef*%
%ADD11RoundRect,0.250000X-0.262500X-0.450000X0.262500X-0.450000X0.262500X0.450000X-0.262500X0.450000X0*%
%TD*%
%TA.AperFunction,SMDPad,CuDef*%
%ADD12RoundRect,0.250000X-1.000000X-0.650000X1.000000X-0.650000X1.000000X0.650000X-1.000000X0.650000X0*%
%TD*%
%TA.AperFunction,SMDPad,CuDef*%
%ADD13RoundRect,0.250000X-1.500000X-0.550000X1.500000X-0.550000X1.500000X0.550000X-1.500000X0.550000X0*%
%TD*%
%TA.AperFunction,SMDPad,CuDef*%
%ADD14RoundRect,0.087500X-0.250000X-0.087500X0.250000X-0.087500X0.250000X0.087500X-0.250000X0.087500X0*%
%TD*%
%TA.AperFunction,SMDPad,CuDef*%
%ADD15R,2.000000X1.200000*%
%TD*%
%TA.AperFunction,SMDPad,CuDef*%
%ADD16R,2.500000X2.500000*%
%TD*%
%TA.AperFunction,SMDPad,CuDef*%
%ADD17C,1.500000*%
%TD*%
%TA.AperFunction,SMDPad,CuDef*%
%ADD18C,2.500000*%
%TD*%
%TA.AperFunction,ComponentPad*%
%ADD19RoundRect,0.250001X-0.949999X0.949999X-0.949999X-0.949999X0.949999X-0.949999X0.949999X0.949999X0*%
%TD*%
%TA.AperFunction,ComponentPad*%
%ADD20C,2.400000*%
%TD*%
%TA.AperFunction,SMDPad,CuDef*%
%ADD21RoundRect,0.150000X-0.825000X-0.150000X0.825000X-0.150000X0.825000X0.150000X-0.825000X0.150000X0*%
%TD*%
%TA.AperFunction,ComponentPad*%
%ADD22R,1.700000X1.700000*%
%TD*%
%TA.AperFunction,ComponentPad*%
%ADD23C,1.700000*%
%TD*%
%TA.AperFunction,ViaPad*%
%ADD24C,0.600000*%
%TD*%
%TA.AperFunction,Conductor*%
%ADD25C,0.300000*%
%TD*%
%TA.AperFunction,Conductor*%
%ADD26C,0.500000*%
%TD*%
%TA.AperFunction,Conductor*%
%ADD27C,0.499800*%
%TD*%
%TA.AperFunction,Conductor*%
%ADD28C,0.600000*%
%TD*%
%ADD29C,0.300000*%
%ADD30C,0.350000*%
G04 APERTURE END LIST*
D10*
%TO.P,C3,1*%
%TO.N,MIC*%
X103050000Y-70500000D03*
%TO.P,C3,2*%
%TO.N,AIN*%
X104950000Y-70500000D03*
%TD*%
D11*
%TO.P,R2,1*%
%TO.N,5VF*%
X123087500Y-66000000D03*
%TO.P,R2,2*%
%TO.N,MIC*%
X124912500Y-66000000D03*
%TD*%
D10*
%TO.P,C6,1*%
%TO.N,5V*%
X106550000Y-61500000D03*
%TO.P,C6,2*%
%TO.N,GND*%
X108450000Y-61500000D03*
%TD*%
D11*
%TO.P,R11,1*%
%TO.N,B_OUT*%
X87087500Y-64000000D03*
%TO.P,R11,2*%
%TO.N,AUD_N_I*%
X88912500Y-64000000D03*
%TD*%
%TO.P,R1,1*%
%TO.N,5V*%
X85087500Y-88500000D03*
%TO.P,R1,2*%
%TO.N,5VF*%
X86912500Y-88500000D03*
%TD*%
D12*
%TO.P,D2,1*%
%TO.N,BZ_P*%
X79000000Y-81000000D03*
%TO.P,D2,2*%
%TO.N,BEEP_RET*%
X83000000Y-81000000D03*
%TD*%
D13*
%TO.P,C1,1*%
%TO.N,5VF*%
X88800000Y-83600000D03*
%TO.P,C1,2*%
%TO.N,GND*%
X94400000Y-83600000D03*
%TD*%
D11*
%TO.P,R6,1*%
%TO.N,A_OUT*%
X97587500Y-77500000D03*
%TO.P,R6,2*%
%TO.N,FB_A*%
X99412500Y-77500000D03*
%TD*%
%TO.P,R12,1*%
%TO.N,BEEP_5V*%
X62587500Y-79000000D03*
%TO.P,R12,2*%
%TO.N,BZ_P*%
X64412500Y-79000000D03*
%TD*%
D10*
%TO.P,C4,1*%
%TO.N,VMID*%
X113050000Y-87500000D03*
%TO.P,C4,2*%
%TO.N,GND*%
X114950000Y-87500000D03*
%TD*%
D14*
%TO.P,D1,1*%
%TO.N,unconnected-(D1-NC-Pad1)*%
X68787500Y-60500000D03*
%TO.P,D1,2*%
%TO.N,unconnected-(D1-NC-Pad2)*%
X68787500Y-61000000D03*
%TO.P,D1,3*%
%TO.N,AUDIO_P*%
X68787500Y-61500000D03*
%TO.P,D1,4*%
%TO.N,GND*%
X70212500Y-61500000D03*
%TO.P,D1,5*%
%TO.N,AUDIO_N*%
X70212500Y-60500000D03*
%TD*%
D11*
%TO.P,R3,1*%
%TO.N,AIN*%
X103087500Y-74000000D03*
%TO.P,R3,2*%
%TO.N,VMID*%
X104912500Y-74000000D03*
%TD*%
%TO.P,R4,1*%
%TO.N,5VF*%
X113087500Y-84000000D03*
%TO.P,R4,2*%
%TO.N,VMID*%
X114912500Y-84000000D03*
%TD*%
D12*
%TO.P,D3,1*%
%TO.N,BZ_P*%
X78800000Y-85000000D03*
%TO.P,D3,2*%
%TO.N,BEEP_RET*%
X82800000Y-85000000D03*
%TD*%
D15*
%TO.P,L1,1*%
%TO.N,AUD_P_I*%
X73750000Y-60980000D03*
%TO.P,L1,2*%
%TO.N,AUD_N_I*%
X73750000Y-63520000D03*
%TO.P,L1,3*%
%TO.N,AUDIO_N*%
X81250000Y-63520000D03*
%TO.P,L1,4*%
%TO.N,AUDIO_P*%
X81250000Y-60980000D03*
%TD*%
D11*
%TO.P,R13,1*%
%TO.N,AUD_P_I*%
X76587500Y-57500000D03*
%TO.P,R13,2*%
%TO.N,AUDIO_P*%
X78412500Y-57500000D03*
%TD*%
%TO.P,R5,1*%
%TO.N,VMID*%
X119587500Y-84000000D03*
%TO.P,R5,2*%
%TO.N,GND*%
X121412500Y-84000000D03*
%TD*%
D16*
%TO.P,BZ1,1*%
%TO.N,BZ_P*%
X68500000Y-80500000D03*
%TO.P,BZ1,2*%
%TO.N,BEEP_RET*%
X68500000Y-87500000D03*
%TO.P,BZ1,3*%
%TO.N,unconnected-(BZ1-DMY-Pad3)*%
X75500000Y-87500000D03*
%TO.P,BZ1,4*%
%TO.N,unconnected-(BZ1-DMY-Pad4)*%
X75500000Y-80500000D03*
%TD*%
D17*
%TO.P,TP2,1*%
%TO.N,AUDIO_N*%
X80500000Y-52800000D03*
%TD*%
%TO.P,TP3,1*%
%TO.N,VMID*%
X126500000Y-85500000D03*
%TD*%
D18*
%TO.P,TP6,1*%
%TO.N,SHIELD*%
X65500000Y-52800000D03*
%TD*%
D11*
%TO.P,R8,1*%
%TO.N,A_OUT*%
X97587500Y-81000000D03*
%TO.P,R8,2*%
%TO.N,FB_B*%
X99412500Y-81000000D03*
%TD*%
D10*
%TO.P,C2,1*%
%TO.N,5VF*%
X97550000Y-88500000D03*
%TO.P,C2,2*%
%TO.N,GND*%
X99450000Y-88500000D03*
%TD*%
D19*
%TO.P,J1,1*%
%TO.N,AUDIO_P*%
X57500000Y-60000000D03*
D20*
%TO.P,J1,2*%
%TO.N,AUDIO_N*%
X57500000Y-63500000D03*
%TO.P,J1,3*%
%TO.N,BEEP_5V*%
X57500000Y-67000000D03*
%TO.P,J1,4*%
%TO.N,5V*%
X57500000Y-70500000D03*
%TO.P,J1,5*%
%TO.N,GND*%
X57500000Y-74000000D03*
%TO.P,J1,6*%
%TO.N,BEEP_RET*%
X57500000Y-77500000D03*
%TO.P,J1,7*%
%TO.N,5V*%
X57500000Y-81000000D03*
%TO.P,J1,8*%
%TO.N,GND*%
X57500000Y-84500000D03*
%TD*%
D11*
%TO.P,R14,1*%
%TO.N,AUD_N_I*%
X76587500Y-67500000D03*
%TO.P,R14,2*%
%TO.N,AUDIO_N*%
X78412500Y-67500000D03*
%TD*%
D17*
%TO.P,TP4,1*%
%TO.N,5V*%
X103000000Y-88500000D03*
%TD*%
D10*
%TO.P,C5,1*%
%TO.N,VMID*%
X119550000Y-87500000D03*
%TO.P,C5,2*%
%TO.N,GND*%
X121450000Y-87500000D03*
%TD*%
D11*
%TO.P,R15,1*%
%TO.N,SHIELD*%
X69587500Y-52800000D03*
%TO.P,R15,2*%
%TO.N,GND*%
X71412500Y-52800000D03*
%TD*%
D10*
%TO.P,C7,1*%
%TO.N,5V*%
X95050000Y-59500000D03*
%TO.P,C7,2*%
%TO.N,GND*%
X96950000Y-59500000D03*
%TD*%
D11*
%TO.P,R10,1*%
%TO.N,A_OUT*%
X87087500Y-60500000D03*
%TO.P,R10,2*%
%TO.N,AUD_P_I*%
X88912500Y-60500000D03*
%TD*%
D17*
%TO.P,TP1,1*%
%TO.N,AUDIO_P*%
X75000000Y-52800000D03*
%TD*%
D11*
%TO.P,R9,1*%
%TO.N,FB_B*%
X104087500Y-81000000D03*
%TO.P,R9,2*%
%TO.N,B_OUT*%
X105912500Y-81000000D03*
%TD*%
D17*
%TO.P,TP5,1*%
%TO.N,GND*%
X108500000Y-88500000D03*
%TD*%
D21*
%TO.P,U1,1*%
%TO.N,A_OUT*%
X99525000Y-64095000D03*
%TO.P,U1,2*%
%TO.N,FB_A*%
X99525000Y-65365000D03*
%TO.P,U1,3*%
%TO.N,AIN*%
X99525000Y-66635000D03*
%TO.P,U1,4*%
%TO.N,GND*%
X99525000Y-67905000D03*
%TO.P,U1,5*%
%TO.N,VMID*%
X104475000Y-67905000D03*
%TO.P,U1,6*%
%TO.N,FB_B*%
X104475000Y-66635000D03*
%TO.P,U1,7*%
%TO.N,B_OUT*%
X104475000Y-65365000D03*
%TO.P,U1,8*%
%TO.N,5V*%
X104475000Y-64095000D03*
%TD*%
D11*
%TO.P,R7,1*%
%TO.N,FB_A*%
X104087500Y-77500000D03*
%TO.P,R7,2*%
%TO.N,VMID*%
X105912500Y-77500000D03*
%TD*%
D22*
%TO.P,J2,1*%
%TO.N,MIC*%
X139500000Y-70500000D03*
D23*
%TO.P,J2,2*%
%TO.N,GND*%
X139500000Y-73040000D03*
%TD*%
D24*
%TO.N,MIC*%
X103500000Y-71000000D03*
X104800000Y-71800000D03*
%TO.N,5VF*%
X124100000Y-67800000D03*
X114500000Y-82600000D03*
X123100000Y-66800000D03*
X113500000Y-83600000D03*
%TO.N,5V*%
X96800000Y-69200000D03*
X104300000Y-64200000D03*
X105800000Y-62700000D03*
%TO.N,GND*%
X71000000Y-65000000D03*
X113000000Y-53000000D03*
X131000000Y-59000000D03*
X89000000Y-59000000D03*
X107000000Y-65000000D03*
X77000000Y-59000000D03*
X137000000Y-89000000D03*
X107000000Y-83000000D03*
X77000000Y-77000000D03*
X101000000Y-77000000D03*
X53000000Y-59000000D03*
X107000000Y-53000000D03*
X131000000Y-89000000D03*
X95000000Y-53000000D03*
X53000000Y-65000000D03*
X107000000Y-59000000D03*
X131000000Y-53000000D03*
X131000000Y-83000000D03*
X137000000Y-65000000D03*
X95000000Y-83000000D03*
X125000000Y-71000000D03*
X77000000Y-71000000D03*
X119000000Y-89000000D03*
X89000000Y-71000000D03*
X65000000Y-71000000D03*
X98830000Y-68310000D03*
X109250000Y-61500000D03*
X125000000Y-83000000D03*
X137000000Y-59000000D03*
X95000000Y-65000000D03*
X83000000Y-89000000D03*
X71000000Y-71000000D03*
X83000000Y-77000000D03*
X125000000Y-59000000D03*
X119000000Y-65000000D03*
X89000000Y-53000000D03*
X70910000Y-61100000D03*
X65000000Y-59000000D03*
X131000000Y-65000000D03*
X119000000Y-53000000D03*
X125000000Y-89000000D03*
X83000000Y-71000000D03*
X107000000Y-89000000D03*
X113000000Y-77000000D03*
X101000000Y-53000000D03*
X125000000Y-77000000D03*
X125000000Y-53000000D03*
X95000000Y-77000000D03*
X113000000Y-65000000D03*
X53000000Y-83000000D03*
X122210000Y-84000000D03*
X137000000Y-83000000D03*
X89000000Y-77000000D03*
X97640000Y-59900000D03*
X131000000Y-77000000D03*
X95000000Y-71000000D03*
X113000000Y-59000000D03*
X119000000Y-59000000D03*
X113000000Y-89000000D03*
X83000000Y-53000000D03*
X122250000Y-87500000D03*
X101000000Y-89000000D03*
X53000000Y-77000000D03*
X71000000Y-77000000D03*
X83000000Y-59000000D03*
X65000000Y-65000000D03*
X71000000Y-53000000D03*
X65000000Y-77000000D03*
X137000000Y-77000000D03*
X59000000Y-65000000D03*
X119000000Y-77000000D03*
X137000000Y-53000000D03*
X53000000Y-71000000D03*
X101000000Y-71000000D03*
%TO.N,B_OUT*%
X102500000Y-79200000D03*
X102500000Y-68200000D03*
X102200000Y-64800000D03*
X89300000Y-61800000D03*
X101700000Y-69200000D03*
X104800000Y-79200000D03*
X88400000Y-62700000D03*
X101300000Y-63900000D03*
%TO.N,VMID*%
X105500000Y-72300000D03*
X104300000Y-69200000D03*
%TO.N,AUDIO_P*%
X67500000Y-61700000D03*
X59700000Y-62200000D03*
X68800000Y-61700000D03*
%TD*%
%TO.N,MIC*%
D25*
X106600000Y-70500000D02*
X105500000Y-71600000D01*
X103000000Y-70500000D02*
X103050000Y-70500000D01*
X129400000Y-70500000D02*
X139500000Y-70500000D01*
X105500000Y-71600000D02*
X105000000Y-71600000D01*
X105000000Y-71600000D02*
X104800000Y-71800000D01*
X124900000Y-66000000D02*
X120400000Y-70500000D01*
X120400000Y-70500000D02*
X106600000Y-70500000D01*
X103500000Y-71000000D02*
X103000000Y-70500000D01*
X124900000Y-66000000D02*
X129400000Y-70500000D01*
%TO.N,AIN*%
X102200000Y-69700000D02*
X102200000Y-73100000D01*
X102800000Y-63300000D02*
X100900000Y-65200000D01*
X100900000Y-65700000D02*
X100000000Y-66599999D01*
X105000000Y-70500000D02*
X105000000Y-69100000D01*
X105000000Y-69100000D02*
X106400000Y-67700000D01*
X100000000Y-66599999D02*
X99500000Y-66599999D01*
X104950000Y-70500000D02*
X105000000Y-70500000D01*
X105400000Y-63300000D02*
X102800000Y-63300000D01*
X102600000Y-69300000D02*
X102200000Y-69700000D01*
X102600000Y-69200000D02*
X102600000Y-69300000D01*
X106400000Y-67700000D02*
X106400000Y-64300000D01*
X102200000Y-73100000D02*
X103100000Y-74000000D01*
X100900000Y-65200000D02*
X100900000Y-65700000D01*
X100000000Y-66599999D02*
X102600000Y-69200000D01*
X106400000Y-64300000D02*
X105400000Y-63300000D01*
%TO.N,5VF*%
D26*
X98800000Y-87300000D02*
X97600000Y-88500000D01*
X113100000Y-84000000D02*
X109400000Y-87700000D01*
X97600000Y-88500000D02*
X86900000Y-88500000D01*
X113100000Y-84000000D02*
X113500000Y-83600000D01*
X123100000Y-68800000D02*
X124100000Y-67800000D01*
X109400000Y-87700000D02*
X109000000Y-87300000D01*
X114500000Y-82600000D02*
X123100000Y-74000000D01*
X97600000Y-88500000D02*
X97550000Y-88500000D01*
X123100000Y-74000000D02*
X123100000Y-68800000D01*
X123100000Y-66800000D02*
X123100000Y-66000000D01*
X109000000Y-87300000D02*
X98800000Y-87300000D01*
X88800000Y-88500000D02*
X88800000Y-83600000D01*
%TO.N,5V*%
X77300000Y-90000000D02*
X66500000Y-90000000D01*
X86600000Y-82000000D02*
X96800000Y-71800000D01*
X96200000Y-58300000D02*
X95000000Y-59500000D01*
X85100000Y-88500000D02*
X85200000Y-88500000D01*
X55800000Y-78000000D02*
X55800000Y-72200000D01*
X79400000Y-88200000D02*
X79100000Y-88200000D01*
X101800000Y-89700000D02*
X103000000Y-88500000D01*
X84100000Y-86400000D02*
X86600000Y-83900000D01*
X56000000Y-78200000D02*
X55800000Y-78000000D01*
X102600000Y-59500000D02*
X98700000Y-59500000D01*
X98700000Y-59500000D02*
X97500000Y-58300000D01*
X56000000Y-78400000D02*
X56000000Y-78200000D01*
X105800000Y-62700000D02*
X106600000Y-61900000D01*
X81800000Y-86400000D02*
X81200000Y-86400000D01*
X96800000Y-71800000D02*
X96800000Y-69200000D01*
X81900000Y-86300000D02*
X81800000Y-86400000D01*
X66500000Y-90000000D02*
X57500000Y-81000000D01*
X85200000Y-88500000D02*
X86400000Y-89700000D01*
X95000000Y-59500000D02*
X95050000Y-59500000D01*
X57500000Y-79900000D02*
X56000000Y-78400000D01*
X79100000Y-88200000D02*
X77300000Y-90000000D01*
X104400000Y-64099999D02*
X104500000Y-64099999D01*
X81200000Y-86400000D02*
X79400000Y-88200000D01*
X97500000Y-58300000D02*
X96200000Y-58300000D01*
X57500000Y-81000000D02*
X57500000Y-79900000D01*
X106600000Y-61900000D02*
X106600000Y-61500000D01*
X82900000Y-86300000D02*
X81900000Y-86300000D01*
X83000000Y-86400000D02*
X84100000Y-86400000D01*
X106600000Y-61500000D02*
X106550000Y-61500000D01*
X105800000Y-62700000D02*
X102600000Y-59500000D01*
X55800000Y-72200000D02*
X57500000Y-70500000D01*
D27*
X85100000Y-88500000D02*
X82900000Y-86300000D01*
D26*
X86400000Y-89700000D02*
X101800000Y-89700000D01*
X86600000Y-83900000D02*
X86600000Y-82000000D01*
%TO.N,B_OUT*%
D25*
X88400000Y-62700000D02*
X87100000Y-64000000D01*
X103100000Y-66200000D02*
X103100000Y-66800000D01*
X102500000Y-77600000D02*
X102500000Y-79200000D01*
X101700000Y-69200000D02*
X101700000Y-76800000D01*
X102600000Y-67300000D02*
X102600000Y-68100000D01*
X105900000Y-80300000D02*
X105900000Y-81000000D01*
X104500000Y-65400000D02*
X103900000Y-64800000D01*
X101300000Y-63900000D02*
X101100000Y-63900000D01*
X90900000Y-63400000D02*
X89300000Y-61800000D01*
X100600000Y-63400000D02*
X90900000Y-63400000D01*
X103900000Y-64800000D02*
X102200000Y-64800000D01*
X101100000Y-63900000D02*
X100600000Y-63400000D01*
X103100000Y-66800000D02*
X102600000Y-67300000D01*
X104200000Y-65099999D02*
X103100000Y-66200000D01*
X104800000Y-79200000D02*
X105900000Y-80300000D01*
X101700000Y-76800000D02*
X102500000Y-77600000D01*
%TO.N,AUD_N_I*%
X74300000Y-64000000D02*
X79600000Y-64000000D01*
X86600000Y-65099999D02*
X87800000Y-65099999D01*
X79600000Y-64000000D02*
X80100000Y-64500000D01*
X73750000Y-63520000D02*
X73800000Y-63500000D01*
X86000000Y-64500000D02*
X86600000Y-65099999D01*
X80100000Y-64500000D02*
X86000000Y-64500000D01*
X73800000Y-63500000D02*
X74300000Y-64000000D01*
X87800000Y-65099999D02*
X88900000Y-64000000D01*
X76600000Y-64000000D02*
X76600000Y-67500000D01*
%TO.N,BZ_P*%
D28*
X77000000Y-82300000D02*
X78800000Y-84100000D01*
X79000000Y-81000000D02*
X78700000Y-80700000D01*
X68500000Y-80500000D02*
X67000000Y-79000000D01*
X70300000Y-82300000D02*
X68500000Y-80500000D01*
X77000000Y-82300000D02*
X70300000Y-82300000D01*
X67000000Y-79000000D02*
X64400000Y-79000000D01*
X78700000Y-80700000D02*
X78600000Y-80700000D01*
X78600000Y-80700000D02*
X77000000Y-82300000D01*
X78800000Y-84100000D02*
X78800000Y-85000000D01*
%TO.N,BEEP_RET*%
X78800000Y-87500000D02*
X79100000Y-87500000D01*
X58500000Y-77500000D02*
X57500000Y-77500000D01*
X77000000Y-89300000D02*
X78800000Y-87500000D01*
X70300000Y-89300000D02*
X77000000Y-89300000D01*
X81000000Y-85000000D02*
X82800000Y-85000000D01*
X82800000Y-85000000D02*
X83000000Y-84800000D01*
X79100000Y-87500000D02*
X80600000Y-86000000D01*
X80600000Y-85400000D02*
X81000000Y-85000000D01*
X83000000Y-84800000D02*
X83000000Y-81000000D01*
X68500000Y-87500000D02*
X58500000Y-77500000D01*
X80600000Y-86000000D02*
X80600000Y-85400000D01*
X68500000Y-87500000D02*
X70300000Y-89300000D01*
%TO.N,A_OUT*%
D25*
X97600000Y-77500000D02*
X97600000Y-81000000D01*
X90700000Y-64099999D02*
X99500000Y-64099999D01*
X87100000Y-60500000D02*
X90700000Y-64099999D01*
X97600000Y-64099999D02*
X97600000Y-77500000D01*
%TO.N,FB_A*%
X98200000Y-76300000D02*
X99400000Y-77500000D01*
X99500000Y-65400000D02*
X99000000Y-65400000D01*
X99000000Y-65400000D02*
X98200000Y-66200000D01*
X99200000Y-77700000D02*
X103600000Y-82100000D01*
X98200000Y-66200000D02*
X98200000Y-76300000D01*
X103600000Y-82100000D02*
X104600000Y-82100000D01*
X99400000Y-77500000D02*
X99200000Y-77700000D01*
X105000000Y-81700000D02*
X105000000Y-80300000D01*
X104600000Y-82100000D02*
X105000000Y-81700000D01*
X104100000Y-79400000D02*
X104100000Y-77500000D01*
X105000000Y-80300000D02*
X104100000Y-79400000D01*
%TO.N,BEEP_5V*%
D28*
X57500000Y-67000000D02*
X62600000Y-72100000D01*
X62600000Y-72100000D02*
X62600000Y-79000000D01*
%TO.N,VMID*%
D25*
X121100000Y-85500000D02*
X119600000Y-87000000D01*
X105900000Y-77500000D02*
X105500000Y-77100000D01*
X105000000Y-74100000D02*
X105500000Y-73600000D01*
X105000000Y-68400000D02*
X104500000Y-67900000D01*
X121100000Y-85500000D02*
X126500000Y-85500000D01*
X114900000Y-84000000D02*
X113000000Y-85900000D01*
X119600000Y-87000000D02*
X119600000Y-87500000D01*
X113000000Y-85900000D02*
X113000000Y-87500000D01*
X105500000Y-77100000D02*
X105500000Y-74600000D01*
X114900000Y-84000000D02*
X119600000Y-84000000D01*
X119600000Y-87500000D02*
X119550000Y-87500000D01*
X105500000Y-74600000D02*
X104900000Y-74000000D01*
X108400000Y-77500000D02*
X105900000Y-77500000D01*
X119600000Y-84000000D02*
X121100000Y-85500000D01*
X104300000Y-69100000D02*
X105000000Y-68400000D01*
X113000000Y-87500000D02*
X113050000Y-87500000D01*
X105500000Y-73600000D02*
X105500000Y-72300000D01*
X114900000Y-84000000D02*
X108400000Y-77500000D01*
%TO.N,AUDIO_P*%
X81200000Y-61000000D02*
X80700000Y-61500000D01*
X77900000Y-57000000D02*
X81600000Y-53300000D01*
X69400000Y-62100000D02*
X68800000Y-61500000D01*
X81600000Y-52300000D02*
X81000000Y-51700000D01*
X75400000Y-61500000D02*
X74900000Y-62000000D01*
X72400000Y-62000000D02*
X72400000Y-60200000D01*
X70700000Y-62000000D02*
X70600000Y-62100000D01*
X81600000Y-53300000D02*
X81600000Y-52300000D01*
X72400000Y-60200000D02*
X75700000Y-56900000D01*
X74900000Y-62000000D02*
X70700000Y-62000000D01*
X75700000Y-56800000D02*
X76100000Y-56400000D01*
X77300000Y-56400000D02*
X78400000Y-57500000D01*
X80700000Y-61500000D02*
X75400000Y-61500000D01*
X66200000Y-60400000D02*
X61500000Y-60400000D01*
X81000000Y-51700000D02*
X76100000Y-51700000D01*
X75700000Y-56900000D02*
X75700000Y-56800000D01*
X70600000Y-62100000D02*
X69400000Y-62100000D01*
X76100000Y-51700000D02*
X75000000Y-52800000D01*
X61500000Y-60400000D02*
X59700000Y-62200000D01*
X67500000Y-61700000D02*
X66200000Y-60400000D01*
X81250000Y-60980000D02*
X81200000Y-61000000D01*
X76100000Y-56400000D02*
X77300000Y-56400000D01*
%TO.N,AUDIO_N*%
X68100000Y-62000000D02*
X69800000Y-63700000D01*
X69400000Y-60000000D02*
X69200000Y-59800000D01*
X75400000Y-63500000D02*
X81200000Y-63500000D01*
X68600000Y-60000000D02*
X68500000Y-59900000D01*
X70500000Y-63700000D02*
X70900000Y-63300000D01*
X69800000Y-63700000D02*
X70500000Y-63700000D01*
X81200000Y-63500000D02*
X81250000Y-63520000D01*
X77300000Y-68600000D02*
X78400000Y-67500000D01*
X71600000Y-62500000D02*
X74900000Y-62500000D01*
X69700000Y-60000000D02*
X69400000Y-60000000D01*
X75700000Y-67600000D02*
X75700000Y-68200000D01*
X69000000Y-60000000D02*
X68600000Y-60000000D01*
X70900000Y-63200000D02*
X71600000Y-62500000D01*
X70200000Y-60500000D02*
X77900000Y-52800000D01*
X77900000Y-52800000D02*
X80500000Y-52800000D01*
X74900000Y-62500000D02*
X75100000Y-62700000D01*
X72400000Y-64300000D02*
X75700000Y-67600000D01*
X75100000Y-62700000D02*
X75100000Y-63200000D01*
X68100000Y-59900000D02*
X68100000Y-62000000D01*
X75700000Y-68200000D02*
X76100000Y-68600000D01*
X70200000Y-60500000D02*
X69700000Y-60000000D01*
X72400000Y-62500000D02*
X72400000Y-64300000D01*
X61100000Y-59900000D02*
X57500000Y-63500000D01*
X70900000Y-63300000D02*
X70900000Y-63200000D01*
X69200000Y-59800000D02*
X69000000Y-60000000D01*
X76100000Y-68600000D02*
X77300000Y-68600000D01*
X68500000Y-59900000D02*
X61100000Y-59900000D01*
X75100000Y-63200000D02*
X75400000Y-63500000D01*
%TO.N,AUD_P_I*%
X73800000Y-60900000D02*
X73800000Y-61000000D01*
X86000000Y-60000000D02*
X86600000Y-59400000D01*
X79400000Y-60300000D02*
X79800000Y-60300000D01*
X79800000Y-60300000D02*
X80100000Y-60000000D01*
X86600000Y-59400000D02*
X87800000Y-59400000D01*
X76900000Y-57800000D02*
X73800000Y-60900000D01*
X80100000Y-60000000D02*
X86000000Y-60000000D01*
X87800000Y-59400000D02*
X88900000Y-60500000D01*
X76600000Y-57500000D02*
X79400000Y-60300000D01*
X73800000Y-61000000D02*
X73750000Y-60980000D01*
%TO.N,SHIELD*%
D26*
X69600000Y-52800000D02*
X65500000Y-52800000D01*
%TO.N,FB_B*%
D25*
X106400000Y-82100000D02*
X105300000Y-82100000D01*
X104400000Y-76400000D02*
X104600000Y-76400000D01*
X104600000Y-76400000D02*
X105000000Y-76800000D01*
X105300000Y-82100000D02*
X104800000Y-82600000D01*
X104500000Y-66599999D02*
X103900000Y-67200000D01*
X105000000Y-76800000D02*
X105000000Y-78500000D01*
X103300000Y-69400000D02*
X103600000Y-69400000D01*
X103100000Y-69200000D02*
X103300000Y-69400000D01*
X103400000Y-67200000D02*
X103100000Y-67500000D01*
X103600000Y-69400000D02*
X104100000Y-69900000D01*
X103100000Y-67500000D02*
X103100000Y-69200000D01*
X104100000Y-73300000D02*
X104000000Y-73400000D01*
X103200000Y-76800000D02*
X103200000Y-80100000D01*
X101000000Y-82600000D02*
X99400000Y-81000000D01*
X104000000Y-76000000D02*
X103200000Y-76800000D01*
X104000000Y-73400000D02*
X104000000Y-76000000D01*
X105000000Y-78500000D02*
X106800000Y-80300000D01*
X103200000Y-80100000D02*
X104100000Y-81000000D01*
X104800000Y-82600000D02*
X101000000Y-82600000D01*
X104100000Y-69900000D02*
X104100000Y-73300000D01*
X103900000Y-67200000D02*
X103400000Y-67200000D01*
X106800000Y-80300000D02*
X106800000Y-81700000D01*
X106800000Y-81700000D02*
X106400000Y-82100000D01*
X104000000Y-76000000D02*
X104400000Y-76400000D01*
%TD*%
%TA.AperFunction,Conductor*%
%TO.N,GND*%
G36*
X102099150Y-87820185D02*
G01*
X102144905Y-87872989D01*
X102154849Y-87942147D01*
X102135214Y-87993390D01*
X102113370Y-88026081D01*
X102113364Y-88026092D01*
X102037950Y-88208160D01*
X102037947Y-88208170D01*
X101999500Y-88401456D01*
X101999500Y-88401459D01*
X101999500Y-88598541D01*
X101999500Y-88598543D01*
X101999499Y-88598543D01*
X102018780Y-88695468D01*
X102012553Y-88765060D01*
X101984844Y-88807341D01*
X101629005Y-89163181D01*
X101567682Y-89196666D01*
X101541324Y-89199500D01*
X98419556Y-89199500D01*
X98352517Y-89179815D01*
X98306762Y-89127011D01*
X98296267Y-89062245D01*
X98296779Y-89057483D01*
X98300500Y-89022873D01*
X98300499Y-88558674D01*
X98320183Y-88491636D01*
X98336813Y-88470999D01*
X98970994Y-87836819D01*
X99032317Y-87803334D01*
X99058675Y-87800500D01*
X102032111Y-87800500D01*
X102099150Y-87820185D01*
G37*
%TD.AperFunction*%
%TA.AperFunction,Conductor*%
G36*
X97118834Y-72291494D02*
G01*
X97174767Y-72333366D01*
X97199184Y-72398830D01*
X97199500Y-72407676D01*
X97199500Y-76476533D01*
X97179815Y-76543572D01*
X97127011Y-76589327D01*
X97118836Y-76592714D01*
X97082665Y-76606205D01*
X96967455Y-76692452D01*
X96967452Y-76692455D01*
X96881206Y-76807664D01*
X96881202Y-76807671D01*
X96830908Y-76942517D01*
X96825938Y-76988752D01*
X96824501Y-77002123D01*
X96824500Y-77002135D01*
X96824500Y-77997870D01*
X96824501Y-77997876D01*
X96830908Y-78057483D01*
X96881202Y-78192328D01*
X96881206Y-78192335D01*
X96967452Y-78307544D01*
X96967455Y-78307547D01*
X97082664Y-78393793D01*
X97082666Y-78393794D01*
X97082669Y-78393796D01*
X97118832Y-78407284D01*
X97174766Y-78449154D01*
X97199184Y-78514618D01*
X97199500Y-78523466D01*
X97199500Y-79976533D01*
X97179815Y-80043572D01*
X97127011Y-80089327D01*
X97118836Y-80092714D01*
X97082665Y-80106205D01*
X96967455Y-80192452D01*
X96967452Y-80192455D01*
X96881206Y-80307664D01*
X96881202Y-80307671D01*
X96830908Y-80442517D01*
X96824501Y-80502116D01*
X96824501Y-80502123D01*
X96824500Y-80502135D01*
X96824500Y-81497870D01*
X96824501Y-81497876D01*
X96830908Y-81557483D01*
X96881202Y-81692328D01*
X96881206Y-81692335D01*
X96967452Y-81807544D01*
X96967455Y-81807547D01*
X97082664Y-81893793D01*
X97082671Y-81893797D01*
X97127618Y-81910561D01*
X97217517Y-81944091D01*
X97277127Y-81950500D01*
X97897872Y-81950499D01*
X97957483Y-81944091D01*
X98092331Y-81893796D01*
X98207546Y-81807546D01*
X98293796Y-81692331D01*
X98344091Y-81557483D01*
X98350500Y-81497873D01*
X98350499Y-80502128D01*
X98344091Y-80442517D01*
X98293796Y-80307669D01*
X98293795Y-80307668D01*
X98293793Y-80307664D01*
X98207547Y-80192455D01*
X98207544Y-80192452D01*
X98092335Y-80106206D01*
X98092332Y-80106205D01*
X98092331Y-80106204D01*
X98081161Y-80102038D01*
X98025231Y-80060166D01*
X98000816Y-79994701D01*
X98000500Y-79985858D01*
X98000500Y-78514141D01*
X98020185Y-78447102D01*
X98072989Y-78401347D01*
X98081149Y-78397966D01*
X98092331Y-78393796D01*
X98099501Y-78388429D01*
X98130447Y-78365261D01*
X98207546Y-78307546D01*
X98293796Y-78192331D01*
X98344091Y-78057483D01*
X98350500Y-77997873D01*
X98350499Y-77316252D01*
X98356737Y-77295007D01*
X98358317Y-77272920D01*
X98366388Y-77262137D01*
X98370183Y-77249215D01*
X98386919Y-77234713D01*
X98400189Y-77216987D01*
X98412807Y-77212280D01*
X98422987Y-77203460D01*
X98444905Y-77200308D01*
X98465653Y-77192570D01*
X98478813Y-77195432D01*
X98492146Y-77193516D01*
X98512289Y-77202715D01*
X98533926Y-77207422D01*
X98551651Y-77220690D01*
X98555702Y-77222541D01*
X98562180Y-77228573D01*
X98613181Y-77279574D01*
X98646666Y-77340897D01*
X98649500Y-77367255D01*
X98649500Y-77997870D01*
X98649501Y-77997876D01*
X98655908Y-78057483D01*
X98706202Y-78192328D01*
X98706206Y-78192335D01*
X98792452Y-78307544D01*
X98792455Y-78307547D01*
X98907664Y-78393793D01*
X98907671Y-78393797D01*
X98943913Y-78407314D01*
X99042517Y-78444091D01*
X99102127Y-78450500D01*
X99332743Y-78450499D01*
X99399783Y-78470183D01*
X99420425Y-78486818D01*
X101241278Y-80307671D01*
X102921427Y-81987819D01*
X102954912Y-82049142D01*
X102949928Y-82118834D01*
X102908056Y-82174767D01*
X102842592Y-82199184D01*
X102833746Y-82199500D01*
X101217254Y-82199500D01*
X101150215Y-82179815D01*
X101129573Y-82163181D01*
X100211818Y-81245426D01*
X100178333Y-81184103D01*
X100175499Y-81157745D01*
X100175499Y-80502129D01*
X100175498Y-80502123D01*
X100175497Y-80502116D01*
X100169091Y-80442517D01*
X100118796Y-80307669D01*
X100118795Y-80307668D01*
X100118793Y-80307664D01*
X100032547Y-80192455D01*
X100032544Y-80192452D01*
X99917335Y-80106206D01*
X99917328Y-80106202D01*
X99782486Y-80055910D01*
X99782485Y-80055909D01*
X99782483Y-80055909D01*
X99722873Y-80049500D01*
X99722863Y-80049500D01*
X99102129Y-80049500D01*
X99102123Y-80049501D01*
X99042516Y-80055908D01*
X98907671Y-80106202D01*
X98907664Y-80106206D01*
X98792455Y-80192452D01*
X98792452Y-80192455D01*
X98706206Y-80307664D01*
X98706202Y-80307671D01*
X98655908Y-80442517D01*
X98649501Y-80502116D01*
X98649501Y-80502123D01*
X98649500Y-80502135D01*
X98649500Y-81497870D01*
X98649501Y-81497876D01*
X98655908Y-81557483D01*
X98706202Y-81692328D01*
X98706206Y-81692335D01*
X98792452Y-81807544D01*
X98792455Y-81807547D01*
X98907664Y-81893793D01*
X98907671Y-81893797D01*
X98952618Y-81910561D01*
X99042517Y-81944091D01*
X99102127Y-81950500D01*
X99722872Y-81950499D01*
X99722877Y-81950498D01*
X99725780Y-81950343D01*
X99793776Y-81966415D01*
X99820092Y-81986485D01*
X100675179Y-82841571D01*
X100675189Y-82841582D01*
X100679519Y-82845912D01*
X100679520Y-82845913D01*
X100754087Y-82920480D01*
X100845413Y-82973207D01*
X100947273Y-83000501D01*
X100947275Y-83000501D01*
X101060323Y-83000501D01*
X101060339Y-83000500D01*
X104852725Y-83000500D01*
X104852727Y-83000500D01*
X104954588Y-82973207D01*
X105045913Y-82920480D01*
X105429573Y-82536818D01*
X105490896Y-82503334D01*
X105517254Y-82500500D01*
X106452725Y-82500500D01*
X106452727Y-82500500D01*
X106554588Y-82473207D01*
X106645913Y-82420480D01*
X107120480Y-81945913D01*
X107129320Y-81930601D01*
X107173207Y-81854587D01*
X107200500Y-81752727D01*
X107200500Y-80247273D01*
X107173207Y-80145413D01*
X107120480Y-80054087D01*
X107045913Y-79979520D01*
X105728573Y-78662180D01*
X105695088Y-78600857D01*
X105700072Y-78531165D01*
X105741944Y-78475232D01*
X105807408Y-78450815D01*
X105816235Y-78450499D01*
X106222872Y-78450499D01*
X106282483Y-78444091D01*
X106417331Y-78393796D01*
X106532546Y-78307546D01*
X106618796Y-78192331D01*
X106669091Y-78057483D01*
X106674062Y-78011242D01*
X106700799Y-77946694D01*
X106758191Y-77906846D01*
X106797351Y-77900500D01*
X108182745Y-77900500D01*
X108249784Y-77920185D01*
X108270426Y-77936819D01*
X113171426Y-82837819D01*
X113204911Y-82899142D01*
X113199927Y-82968834D01*
X113158055Y-83024767D01*
X113092591Y-83049184D01*
X113083745Y-83049500D01*
X112777130Y-83049500D01*
X112777123Y-83049501D01*
X112717516Y-83055908D01*
X112582671Y-83106202D01*
X112582664Y-83106206D01*
X112467455Y-83192452D01*
X112467452Y-83192455D01*
X112381206Y-83307664D01*
X112381202Y-83307671D01*
X112330908Y-83442517D01*
X112324501Y-83502116D01*
X112324501Y-83502123D01*
X112324500Y-83502135D01*
X112324500Y-84016324D01*
X112304815Y-84083363D01*
X112288181Y-84104005D01*
X109487681Y-86904505D01*
X109426358Y-86937990D01*
X109356666Y-86933006D01*
X109312319Y-86904505D01*
X109307316Y-86899502D01*
X109307314Y-86899500D01*
X109249966Y-86866390D01*
X109193187Y-86833608D01*
X109129539Y-86816554D01*
X109065892Y-86799500D01*
X98865892Y-86799500D01*
X98734107Y-86799500D01*
X98606812Y-86833608D01*
X98492686Y-86899500D01*
X98492683Y-86899502D01*
X98399498Y-86992688D01*
X97904004Y-87488181D01*
X97842681Y-87521666D01*
X97816323Y-87524500D01*
X97252129Y-87524500D01*
X97252123Y-87524501D01*
X97192516Y-87530908D01*
X97057671Y-87581202D01*
X97057664Y-87581206D01*
X96942455Y-87667452D01*
X96942452Y-87667455D01*
X96856206Y-87782664D01*
X96856202Y-87782671D01*
X96805418Y-87918833D01*
X96763547Y-87974767D01*
X96698083Y-87999184D01*
X96689236Y-87999500D01*
X89424500Y-87999500D01*
X89357461Y-87979815D01*
X89311706Y-87927011D01*
X89300500Y-87875500D01*
X89300500Y-84774499D01*
X89320185Y-84707460D01*
X89372989Y-84661705D01*
X89424500Y-84650499D01*
X90347871Y-84650499D01*
X90347872Y-84650499D01*
X90407483Y-84644091D01*
X90542331Y-84593796D01*
X90657546Y-84507546D01*
X90743796Y-84392331D01*
X90794091Y-84257483D01*
X90800500Y-84197873D01*
X90800499Y-83002128D01*
X90794091Y-82942517D01*
X90785872Y-82920480D01*
X90743797Y-82807670D01*
X90743793Y-82807664D01*
X90657547Y-82692455D01*
X90657544Y-82692452D01*
X90542335Y-82606206D01*
X90542328Y-82606202D01*
X90407482Y-82555908D01*
X90407483Y-82555908D01*
X90347883Y-82549501D01*
X90347881Y-82549500D01*
X90347873Y-82549500D01*
X90347864Y-82549500D01*
X87252129Y-82549500D01*
X87252121Y-82549501D01*
X87237752Y-82551046D01*
X87222346Y-82548266D01*
X87206853Y-82550494D01*
X87188667Y-82542189D01*
X87168993Y-82538639D01*
X87157536Y-82527971D01*
X87143297Y-82521469D01*
X87132487Y-82504649D01*
X87117857Y-82491027D01*
X87113480Y-82475073D01*
X87105523Y-82462691D01*
X87100500Y-82427756D01*
X87100500Y-82258676D01*
X87120185Y-82191637D01*
X87136819Y-82170995D01*
X96987819Y-72319995D01*
X97049142Y-72286510D01*
X97118834Y-72291494D01*
G37*
%TD.AperFunction*%
%TA.AperFunction,Conductor*%
G36*
X122518834Y-69050073D02*
G01*
X122574767Y-69091945D01*
X122599184Y-69157409D01*
X122599500Y-69166255D01*
X122599500Y-73741323D01*
X122579815Y-73808362D01*
X122563181Y-73829004D01*
X114335093Y-82057091D01*
X114294873Y-82083968D01*
X114287515Y-82087016D01*
X114161988Y-82159489D01*
X114161982Y-82159493D01*
X114059493Y-82261982D01*
X114059489Y-82261988D01*
X114019093Y-82331954D01*
X113968525Y-82380168D01*
X113899918Y-82393390D01*
X113835054Y-82367421D01*
X113824026Y-82357633D01*
X108645915Y-77179522D01*
X108645913Y-77179520D01*
X108588789Y-77146539D01*
X108554589Y-77126793D01*
X108503657Y-77113146D01*
X108452727Y-77099500D01*
X108452726Y-77099500D01*
X106797351Y-77099500D01*
X106730312Y-77079815D01*
X106684557Y-77027011D01*
X106674061Y-76988752D01*
X106669091Y-76942516D01*
X106618797Y-76807671D01*
X106618793Y-76807664D01*
X106532547Y-76692455D01*
X106532544Y-76692452D01*
X106417335Y-76606206D01*
X106417328Y-76606202D01*
X106282482Y-76555908D01*
X106282483Y-76555908D01*
X106222883Y-76549501D01*
X106222881Y-76549500D01*
X106222873Y-76549500D01*
X106222865Y-76549500D01*
X106024500Y-76549500D01*
X105957461Y-76529815D01*
X105911706Y-76477011D01*
X105900500Y-76425500D01*
X105900500Y-74547275D01*
X105900500Y-74547273D01*
X105887967Y-74500500D01*
X105873207Y-74445412D01*
X105820480Y-74354087D01*
X105711818Y-74245425D01*
X105697114Y-74218497D01*
X105680522Y-74192679D01*
X105679630Y-74186478D01*
X105678333Y-74184102D01*
X105675499Y-74157744D01*
X105675499Y-74042254D01*
X105695184Y-73975215D01*
X105711816Y-73954575D01*
X105735701Y-73930690D01*
X105735706Y-73930686D01*
X105745911Y-73920480D01*
X105745913Y-73920480D01*
X105820480Y-73845913D01*
X105862457Y-73773207D01*
X105873207Y-73754588D01*
X105900500Y-73652727D01*
X105900500Y-73547273D01*
X105900500Y-72729386D01*
X105920185Y-72662347D01*
X105936819Y-72641705D01*
X105940509Y-72638015D01*
X106012984Y-72512485D01*
X106050500Y-72372475D01*
X106050500Y-72227525D01*
X106012984Y-72087515D01*
X105940509Y-71961985D01*
X105929024Y-71950500D01*
X105910138Y-71931613D01*
X105876653Y-71870289D01*
X105881639Y-71800598D01*
X105910137Y-71756255D01*
X106729574Y-70936819D01*
X106790897Y-70903334D01*
X106817255Y-70900500D01*
X120452725Y-70900500D01*
X120452727Y-70900500D01*
X120554588Y-70873207D01*
X120645913Y-70820480D01*
X122387819Y-69078574D01*
X122449142Y-69045089D01*
X122518834Y-69050073D01*
G37*
%TD.AperFunction*%
%TA.AperFunction,Conductor*%
G36*
X100034784Y-67205184D02*
G01*
X100055426Y-67221818D01*
X101394236Y-68560629D01*
X101427721Y-68621952D01*
X101422737Y-68691644D01*
X101380865Y-68747577D01*
X101368560Y-68755694D01*
X101361991Y-68759486D01*
X101361982Y-68759493D01*
X101259493Y-68861982D01*
X101259488Y-68861988D01*
X101187017Y-68987511D01*
X101187016Y-68987515D01*
X101149500Y-69127525D01*
X101149500Y-69272475D01*
X101181962Y-69393622D01*
X101187017Y-69412488D01*
X101259488Y-69538011D01*
X101259493Y-69538017D01*
X101263181Y-69541705D01*
X101296666Y-69603028D01*
X101299500Y-69629386D01*
X101299500Y-76852726D01*
X101326793Y-76954589D01*
X101346518Y-76988752D01*
X101379520Y-77045913D01*
X101379522Y-77045915D01*
X102063181Y-77729574D01*
X102096666Y-77790897D01*
X102099500Y-77817255D01*
X102099500Y-78770614D01*
X102079815Y-78837653D01*
X102063181Y-78858295D01*
X102059493Y-78861982D01*
X102059488Y-78861988D01*
X101987017Y-78987511D01*
X101987016Y-78987515D01*
X101949500Y-79127525D01*
X101949500Y-79272475D01*
X101987016Y-79412485D01*
X101987017Y-79412488D01*
X102059488Y-79538011D01*
X102059490Y-79538013D01*
X102059491Y-79538015D01*
X102161985Y-79640509D01*
X102161986Y-79640510D01*
X102161988Y-79640511D01*
X102287511Y-79712982D01*
X102287512Y-79712982D01*
X102287515Y-79712984D01*
X102427525Y-79750500D01*
X102427528Y-79750500D01*
X102572472Y-79750500D01*
X102572475Y-79750500D01*
X102643409Y-79731493D01*
X102713256Y-79733156D01*
X102771118Y-79772318D01*
X102798623Y-79836546D01*
X102799500Y-79851268D01*
X102799500Y-80152726D01*
X102826793Y-80254589D01*
X102853156Y-80300250D01*
X102879520Y-80345913D01*
X102879522Y-80345915D01*
X103288181Y-80754574D01*
X103302884Y-80781501D01*
X103319477Y-80807320D01*
X103320368Y-80813520D01*
X103321666Y-80815897D01*
X103324500Y-80842255D01*
X103324500Y-80958745D01*
X103304815Y-81025784D01*
X103252011Y-81071539D01*
X103182853Y-81081483D01*
X103119297Y-81052458D01*
X103112819Y-81046426D01*
X100206651Y-78140258D01*
X100173166Y-78078935D01*
X100171043Y-78039324D01*
X100175500Y-77997873D01*
X100175499Y-77002128D01*
X100169091Y-76942517D01*
X100118796Y-76807669D01*
X100118795Y-76807668D01*
X100118793Y-76807664D01*
X100032547Y-76692455D01*
X100032544Y-76692452D01*
X99917335Y-76606206D01*
X99917328Y-76606202D01*
X99782486Y-76555910D01*
X99782485Y-76555909D01*
X99782483Y-76555909D01*
X99722873Y-76549500D01*
X99722863Y-76549500D01*
X99102129Y-76549500D01*
X99102118Y-76549501D01*
X99083246Y-76551530D01*
X99014487Y-76539122D01*
X98982314Y-76515921D01*
X98636819Y-76170426D01*
X98603334Y-76109103D01*
X98600500Y-76082745D01*
X98600500Y-67309499D01*
X98620185Y-67242460D01*
X98672989Y-67196705D01*
X98724495Y-67185499D01*
X99967745Y-67185499D01*
X100034784Y-67205184D01*
G37*
%TD.AperFunction*%
%TA.AperFunction,Conductor*%
G36*
X79519295Y-53206134D02*
G01*
X79539283Y-53206852D01*
X79552133Y-53215777D01*
X79567144Y-53220185D01*
X79580239Y-53235298D01*
X79596669Y-53246709D01*
X79609831Y-53268900D01*
X79610498Y-53268544D01*
X79612833Y-53272913D01*
X79612899Y-53272989D01*
X79613009Y-53273243D01*
X79613371Y-53273920D01*
X79722860Y-53437781D01*
X79722863Y-53437785D01*
X79862214Y-53577136D01*
X79862218Y-53577139D01*
X80026079Y-53686628D01*
X80026092Y-53686635D01*
X80180278Y-53750500D01*
X80208165Y-53762051D01*
X80279522Y-53776245D01*
X80283735Y-53777083D01*
X80345646Y-53809467D01*
X80380220Y-53870183D01*
X80376481Y-53939952D01*
X80347225Y-53986381D01*
X77987681Y-56345926D01*
X77926358Y-56379411D01*
X77856666Y-56374427D01*
X77812319Y-56345926D01*
X77545915Y-56079522D01*
X77545913Y-56079520D01*
X77461617Y-56030851D01*
X77454589Y-56026793D01*
X77403657Y-56013146D01*
X77352727Y-55999500D01*
X76047273Y-55999500D01*
X75945413Y-56026793D01*
X75945410Y-56026794D01*
X75854085Y-56079521D01*
X75379522Y-56554084D01*
X75379520Y-56554087D01*
X75326793Y-56645410D01*
X75312918Y-56697195D01*
X75280824Y-56752782D01*
X72079522Y-59954084D01*
X72079520Y-59954087D01*
X72039807Y-60022872D01*
X72026793Y-60045412D01*
X72004262Y-60129500D01*
X72004262Y-60129501D01*
X71999500Y-60147272D01*
X71999500Y-61475500D01*
X71979815Y-61542539D01*
X71927011Y-61588294D01*
X71875500Y-61599500D01*
X70647273Y-61599500D01*
X70545413Y-61626793D01*
X70545412Y-61626793D01*
X70545410Y-61626794D01*
X70545407Y-61626795D01*
X70497274Y-61654585D01*
X70497271Y-61654588D01*
X70454087Y-61679520D01*
X70454086Y-61679520D01*
X70448254Y-61682888D01*
X70386255Y-61699500D01*
X69617255Y-61699500D01*
X69550216Y-61679815D01*
X69529574Y-61663181D01*
X69411818Y-61545425D01*
X69378333Y-61484102D01*
X69375499Y-61457744D01*
X69375499Y-61372895D01*
X69372676Y-61351450D01*
X69369019Y-61323670D01*
X69359102Y-61302405D01*
X69348610Y-61233329D01*
X69359101Y-61197598D01*
X69369019Y-61176330D01*
X69375500Y-61127103D01*
X69375499Y-60872898D01*
X69369019Y-60823670D01*
X69359102Y-60802405D01*
X69348610Y-60733329D01*
X69348676Y-60732847D01*
X69351246Y-60714441D01*
X69369019Y-60676330D01*
X69375500Y-60627103D01*
X69375499Y-60540798D01*
X69377692Y-60525102D01*
X69384974Y-60508985D01*
X69395183Y-60474216D01*
X69404223Y-60466382D01*
X69406461Y-60461430D01*
X69420272Y-60452475D01*
X69447986Y-60428460D01*
X69459968Y-60426737D01*
X69465086Y-60423419D01*
X69483562Y-60423344D01*
X69517145Y-60418516D01*
X69527333Y-60423168D01*
X69534956Y-60423138D01*
X69554429Y-60435542D01*
X69580701Y-60447540D01*
X69587180Y-60453573D01*
X69588181Y-60454574D01*
X69590247Y-60458359D01*
X69593885Y-60460676D01*
X69606845Y-60488756D01*
X69621666Y-60515897D01*
X69622362Y-60522372D01*
X69623166Y-60524114D01*
X69623189Y-60530070D01*
X69624500Y-60542254D01*
X69624500Y-60627103D01*
X69630980Y-60676325D01*
X69630982Y-60676333D01*
X69644345Y-60704990D01*
X69681356Y-60784359D01*
X69765641Y-60868644D01*
X69873670Y-60919019D01*
X69922897Y-60925500D01*
X70502102Y-60925499D01*
X70502104Y-60925499D01*
X70516167Y-60923647D01*
X70551330Y-60919019D01*
X70659359Y-60868644D01*
X70743644Y-60784359D01*
X70794019Y-60676330D01*
X70800500Y-60627103D01*
X70800499Y-60517253D01*
X70820183Y-60450215D01*
X70836813Y-60429578D01*
X78029574Y-53236819D01*
X78090897Y-53203334D01*
X78117255Y-53200500D01*
X79500105Y-53200500D01*
X79519295Y-53206134D01*
G37*
%TD.AperFunction*%
%TA.AperFunction,Conductor*%
G36*
X76954848Y-58455343D02*
G01*
X76985507Y-58460874D01*
X76989798Y-58463968D01*
X76992429Y-58464618D01*
X76996141Y-58468542D01*
X77017685Y-58484078D01*
X79154087Y-60620480D01*
X79245412Y-60673207D01*
X79347273Y-60700500D01*
X79347275Y-60700500D01*
X79852725Y-60700500D01*
X79852727Y-60700500D01*
X79852728Y-60700499D01*
X79859308Y-60699633D01*
X79928344Y-60710395D01*
X79980602Y-60756772D01*
X79999500Y-60822571D01*
X79999500Y-60975500D01*
X79979815Y-61042539D01*
X79927011Y-61088294D01*
X79875500Y-61099500D01*
X75347273Y-61099500D01*
X75245409Y-61126793D01*
X75215013Y-61144344D01*
X75212296Y-61145913D01*
X75197551Y-61154426D01*
X75186499Y-61160807D01*
X75118599Y-61177278D01*
X75052572Y-61154426D01*
X75009382Y-61099504D01*
X75000500Y-61053419D01*
X75000500Y-60355326D01*
X74998593Y-60345739D01*
X75004817Y-60276150D01*
X75032526Y-60233865D01*
X76779574Y-58486818D01*
X76804220Y-58473360D01*
X76827163Y-58457159D01*
X76836831Y-58455552D01*
X76840897Y-58453333D01*
X76861846Y-58450617D01*
X76864548Y-58450499D01*
X76897872Y-58450499D01*
X76920668Y-58448048D01*
X76924595Y-58447877D01*
X76954848Y-58455343D01*
G37*
%TD.AperFunction*%
%TA.AperFunction,Conductor*%
G36*
X137998421Y-50220185D02*
G01*
X138044176Y-50272989D01*
X138055035Y-50315233D01*
X138085573Y-50722733D01*
X138157521Y-51200069D01*
X138264936Y-51670685D01*
X138407225Y-52131973D01*
X138583567Y-52581283D01*
X138583571Y-52581291D01*
X138583578Y-52581309D01*
X138631271Y-52680344D01*
X138793022Y-53016226D01*
X138793024Y-53016229D01*
X138941411Y-53273243D01*
X139034383Y-53434275D01*
X139306310Y-53833118D01*
X139306315Y-53833125D01*
X139607287Y-54210530D01*
X139935610Y-54564378D01*
X139935621Y-54564389D01*
X140289469Y-54892712D01*
X140289472Y-54892715D01*
X140289476Y-54892718D01*
X140666882Y-55193690D01*
X141065725Y-55465617D01*
X141279163Y-55588845D01*
X141483770Y-55706975D01*
X141483773Y-55706977D01*
X141645524Y-55784872D01*
X141918691Y-55916422D01*
X141918712Y-55916430D01*
X141918716Y-55916432D01*
X142368026Y-56092774D01*
X142368038Y-56092777D01*
X142368044Y-56092780D01*
X142829319Y-56235065D01*
X143299938Y-56342480D01*
X143645933Y-56394630D01*
X143777266Y-56414426D01*
X144184767Y-56444964D01*
X144250147Y-56469603D01*
X144291828Y-56525679D01*
X144299500Y-56568617D01*
X144299500Y-87931382D01*
X144279815Y-87998421D01*
X144227011Y-88044176D01*
X144184767Y-88055035D01*
X143777266Y-88085573D01*
X143375914Y-88146067D01*
X143299938Y-88157519D01*
X143299934Y-88157519D01*
X143299933Y-88157520D01*
X142829321Y-88264934D01*
X142829306Y-88264938D01*
X142368049Y-88407216D01*
X142368036Y-88407221D01*
X141918716Y-88583566D01*
X141918696Y-88583574D01*
X141918691Y-88583577D01*
X141918689Y-88583578D01*
X141918674Y-88583585D01*
X141483773Y-88793021D01*
X141483770Y-88793023D01*
X141065731Y-89034379D01*
X141065725Y-89034382D01*
X141065725Y-89034383D01*
X141024859Y-89062245D01*
X140666874Y-89306314D01*
X140289468Y-89607286D01*
X139935620Y-89935609D01*
X139935609Y-89935620D01*
X139607286Y-90289468D01*
X139306314Y-90666874D01*
X139034379Y-91065731D01*
X138793023Y-91483770D01*
X138793021Y-91483773D01*
X138583585Y-91918674D01*
X138583566Y-91918716D01*
X138407221Y-92368036D01*
X138407216Y-92368049D01*
X138264938Y-92829306D01*
X138264934Y-92829321D01*
X138157520Y-93299933D01*
X138085573Y-93777266D01*
X138055035Y-94184767D01*
X138030396Y-94250148D01*
X137974320Y-94291829D01*
X137931382Y-94299500D01*
X56568618Y-94299500D01*
X56501579Y-94279815D01*
X56455824Y-94227011D01*
X56444965Y-94184767D01*
X56414426Y-93777266D01*
X56380721Y-93553650D01*
X56342480Y-93299938D01*
X56235065Y-92829319D01*
X56092780Y-92368044D01*
X56092777Y-92368036D01*
X56092774Y-92368026D01*
X55916432Y-91918716D01*
X55916430Y-91918712D01*
X55916422Y-91918691D01*
X55706977Y-91483774D01*
X55706977Y-91483773D01*
X55706975Y-91483770D01*
X55465620Y-91065731D01*
X55465617Y-91065725D01*
X55193690Y-90666882D01*
X55131457Y-90588845D01*
X54981256Y-90400499D01*
X54892718Y-90289476D01*
X54810160Y-90200500D01*
X54564389Y-89935621D01*
X54564378Y-89935610D01*
X54321302Y-89710068D01*
X54321298Y-89710065D01*
X54228583Y-89624038D01*
X58149500Y-89624038D01*
X58149500Y-89875962D01*
X58158948Y-89935615D01*
X58188910Y-90124785D01*
X58266760Y-90364383D01*
X58381132Y-90588848D01*
X58529201Y-90792649D01*
X58529205Y-90792654D01*
X58707345Y-90970794D01*
X58707350Y-90970798D01*
X58838007Y-91065725D01*
X58911155Y-91118870D01*
X59054184Y-91191747D01*
X59135616Y-91233239D01*
X59135618Y-91233239D01*
X59135621Y-91233241D01*
X59375215Y-91311090D01*
X59624038Y-91350500D01*
X59624039Y-91350500D01*
X59875961Y-91350500D01*
X59875962Y-91350500D01*
X60124785Y-91311090D01*
X60364379Y-91233241D01*
X60588845Y-91118870D01*
X60792656Y-90970793D01*
X60970793Y-90792656D01*
X61118870Y-90588845D01*
X61233241Y-90364379D01*
X61311090Y-90124785D01*
X61350500Y-89875962D01*
X61350500Y-89624038D01*
X61311090Y-89375215D01*
X61233241Y-89135621D01*
X61233239Y-89135618D01*
X61233239Y-89135616D01*
X61181656Y-89034379D01*
X61118870Y-88911155D01*
X61099952Y-88885117D01*
X60970798Y-88707350D01*
X60970794Y-88707345D01*
X60792654Y-88529205D01*
X60792649Y-88529201D01*
X60588848Y-88381132D01*
X60588847Y-88381131D01*
X60588845Y-88381130D01*
X60503795Y-88337795D01*
X60364383Y-88266760D01*
X60124785Y-88188910D01*
X60009263Y-88170613D01*
X59875962Y-88149500D01*
X59624038Y-88149500D01*
X59573396Y-88157521D01*
X59375214Y-88188910D01*
X59135616Y-88266760D01*
X58911151Y-88381132D01*
X58707350Y-88529201D01*
X58707345Y-88529205D01*
X58529205Y-88707345D01*
X58529201Y-88707350D01*
X58381132Y-88911151D01*
X58266760Y-89135616D01*
X58188910Y-89375214D01*
X58152381Y-89605851D01*
X58149500Y-89624038D01*
X54228583Y-89624038D01*
X54210524Y-89607282D01*
X54072924Y-89497549D01*
X53833125Y-89306315D01*
X53833118Y-89306310D01*
X53434275Y-89034383D01*
X53371036Y-88997872D01*
X53016229Y-88793024D01*
X53016226Y-88793022D01*
X52652056Y-88617648D01*
X52581309Y-88583578D01*
X52581296Y-88583573D01*
X52581283Y-88583567D01*
X52131973Y-88407225D01*
X51670685Y-88264936D01*
X51670676Y-88264934D01*
X51519631Y-88230459D01*
X51200069Y-88157521D01*
X50722733Y-88085573D01*
X50315233Y-88055035D01*
X50249852Y-88030396D01*
X50208171Y-87974320D01*
X50200500Y-87931382D01*
X50200500Y-72134108D01*
X55299500Y-72134108D01*
X55299500Y-77934108D01*
X55299500Y-78065892D01*
X55310302Y-78106206D01*
X55333608Y-78193187D01*
X55366554Y-78250250D01*
X55399500Y-78307314D01*
X55399502Y-78307316D01*
X55463181Y-78370995D01*
X55496666Y-78432318D01*
X55499500Y-78458676D01*
X55499500Y-78465892D01*
X55509206Y-78502116D01*
X55533608Y-78593187D01*
X55541225Y-78606379D01*
X55599500Y-78707314D01*
X55599502Y-78707316D01*
X56586046Y-79693860D01*
X56619531Y-79755183D01*
X56614547Y-79824875D01*
X56572675Y-79880808D01*
X56571253Y-79881857D01*
X56555068Y-79893616D01*
X56555063Y-79893620D01*
X56393622Y-80055061D01*
X56259421Y-80239771D01*
X56155770Y-80443196D01*
X56085215Y-80660339D01*
X56049500Y-80885837D01*
X56049500Y-81114162D01*
X56085215Y-81339660D01*
X56155770Y-81556803D01*
X56235449Y-81713181D01*
X56259421Y-81760228D01*
X56393621Y-81944937D01*
X56555063Y-82106379D01*
X56739772Y-82240579D01*
X56781778Y-82261982D01*
X56943196Y-82344229D01*
X56943198Y-82344229D01*
X56943201Y-82344231D01*
X57048473Y-82378436D01*
X57160339Y-82414784D01*
X57385838Y-82450500D01*
X57385843Y-82450500D01*
X57614162Y-82450500D01*
X57839660Y-82414784D01*
X58044627Y-82348185D01*
X58114463Y-82346191D01*
X58170622Y-82378436D01*
X66192686Y-90400500D01*
X66306814Y-90466392D01*
X66434108Y-90500500D01*
X66434110Y-90500500D01*
X77365890Y-90500500D01*
X77365892Y-90500500D01*
X77493186Y-90466392D01*
X77607314Y-90400500D01*
X79270995Y-88736819D01*
X79332318Y-88703334D01*
X79358676Y-88700500D01*
X79465890Y-88700500D01*
X79465892Y-88700500D01*
X79593186Y-88666392D01*
X79707314Y-88600500D01*
X81370995Y-86936819D01*
X81432318Y-86903334D01*
X81458676Y-86900500D01*
X81865890Y-86900500D01*
X81865892Y-86900500D01*
X81993186Y-86866392D01*
X82048009Y-86834740D01*
X82078540Y-86817113D01*
X82140540Y-86800500D01*
X82641465Y-86800500D01*
X82708504Y-86820185D01*
X82729146Y-86836819D01*
X84288181Y-88395854D01*
X84321666Y-88457177D01*
X84324500Y-88483535D01*
X84324500Y-88997870D01*
X84324501Y-88997876D01*
X84330908Y-89057483D01*
X84381202Y-89192328D01*
X84381206Y-89192335D01*
X84467452Y-89307544D01*
X84467455Y-89307547D01*
X84582664Y-89393793D01*
X84582671Y-89393797D01*
X84627618Y-89410561D01*
X84717517Y-89444091D01*
X84777127Y-89450500D01*
X85391323Y-89450499D01*
X85458362Y-89470183D01*
X85479004Y-89486818D01*
X85995159Y-90002972D01*
X85995169Y-90002983D01*
X85999499Y-90007313D01*
X85999500Y-90007314D01*
X86092686Y-90100500D01*
X86206814Y-90166392D01*
X86334107Y-90200500D01*
X86334108Y-90200500D01*
X86334109Y-90200500D01*
X101865890Y-90200500D01*
X101865892Y-90200500D01*
X101993186Y-90166392D01*
X102107314Y-90100500D01*
X102583774Y-89624038D01*
X133149500Y-89624038D01*
X133149500Y-89875962D01*
X133158948Y-89935615D01*
X133188910Y-90124785D01*
X133266760Y-90364383D01*
X133381132Y-90588848D01*
X133529201Y-90792649D01*
X133529205Y-90792654D01*
X133707345Y-90970794D01*
X133707350Y-90970798D01*
X133838007Y-91065725D01*
X133911155Y-91118870D01*
X134054184Y-91191747D01*
X134135616Y-91233239D01*
X134135618Y-91233239D01*
X134135621Y-91233241D01*
X134375215Y-91311090D01*
X134624038Y-91350500D01*
X134624039Y-91350500D01*
X134875961Y-91350500D01*
X134875962Y-91350500D01*
X135124785Y-91311090D01*
X135364379Y-91233241D01*
X135588845Y-91118870D01*
X135792656Y-90970793D01*
X135970793Y-90792656D01*
X136118870Y-90588845D01*
X136233241Y-90364379D01*
X136311090Y-90124785D01*
X136350500Y-89875962D01*
X136350500Y-89624038D01*
X136311090Y-89375215D01*
X136233241Y-89135621D01*
X136233239Y-89135618D01*
X136233239Y-89135616D01*
X136181656Y-89034379D01*
X136118870Y-88911155D01*
X136099952Y-88885117D01*
X135970798Y-88707350D01*
X135970794Y-88707345D01*
X135792654Y-88529205D01*
X135792649Y-88529201D01*
X135588848Y-88381132D01*
X135588847Y-88381131D01*
X135588845Y-88381130D01*
X135503795Y-88337795D01*
X135364383Y-88266760D01*
X135124785Y-88188910D01*
X135009263Y-88170613D01*
X134875962Y-88149500D01*
X134624038Y-88149500D01*
X134573396Y-88157521D01*
X134375214Y-88188910D01*
X134135616Y-88266760D01*
X133911151Y-88381132D01*
X133707350Y-88529201D01*
X133707345Y-88529205D01*
X133529205Y-88707345D01*
X133529201Y-88707350D01*
X133381132Y-88911151D01*
X133266760Y-89135616D01*
X133188910Y-89375214D01*
X133152381Y-89605851D01*
X133149500Y-89624038D01*
X102583774Y-89624038D01*
X102692657Y-89515154D01*
X102753980Y-89481670D01*
X102804530Y-89481219D01*
X102901457Y-89500500D01*
X102901459Y-89500500D01*
X103098543Y-89500500D01*
X103098544Y-89500499D01*
X103105157Y-89499184D01*
X103113374Y-89497550D01*
X103113379Y-89497549D01*
X103250953Y-89470183D01*
X103291835Y-89462051D01*
X103456616Y-89393797D01*
X103473907Y-89386635D01*
X103473907Y-89386634D01*
X103473914Y-89386632D01*
X103637782Y-89277139D01*
X103777139Y-89137782D01*
X103886632Y-88973914D01*
X103962051Y-88791835D01*
X103978857Y-88707345D01*
X104000500Y-88598543D01*
X104000500Y-88401456D01*
X103962052Y-88208170D01*
X103962051Y-88208169D01*
X103962051Y-88208165D01*
X103944748Y-88166391D01*
X103886635Y-88026092D01*
X103886629Y-88026081D01*
X103864786Y-87993390D01*
X103843909Y-87926712D01*
X103862394Y-87859332D01*
X103914373Y-87812643D01*
X103967889Y-87800500D01*
X108741324Y-87800500D01*
X108808363Y-87820185D01*
X108829005Y-87836819D01*
X108999500Y-88007314D01*
X109092686Y-88100500D01*
X109177556Y-88149500D01*
X109206814Y-88166392D01*
X109334107Y-88200500D01*
X109334108Y-88200500D01*
X109334109Y-88200500D01*
X109465890Y-88200500D01*
X109465892Y-88200500D01*
X109593186Y-88166392D01*
X109707314Y-88100500D01*
X112820994Y-84986817D01*
X112847921Y-84972114D01*
X112873740Y-84955522D01*
X112879940Y-84954630D01*
X112882317Y-84953333D01*
X112908675Y-84950499D01*
X113083746Y-84950499D01*
X113150785Y-84970184D01*
X113196540Y-85022988D01*
X113206484Y-85092146D01*
X113177459Y-85155702D01*
X113171427Y-85162180D01*
X112679522Y-85654084D01*
X112679520Y-85654087D01*
X112626791Y-85745413D01*
X112612274Y-85799598D01*
X112599500Y-85847271D01*
X112599500Y-86487819D01*
X112579815Y-86554858D01*
X112549812Y-86587085D01*
X112442452Y-86667455D01*
X112356206Y-86782664D01*
X112356202Y-86782671D01*
X112305908Y-86917517D01*
X112299501Y-86977116D01*
X112299501Y-86977123D01*
X112299500Y-86977135D01*
X112299500Y-88022870D01*
X112299501Y-88022876D01*
X112305908Y-88082483D01*
X112356202Y-88217328D01*
X112356206Y-88217335D01*
X112442452Y-88332544D01*
X112442455Y-88332547D01*
X112557664Y-88418793D01*
X112557671Y-88418797D01*
X112602618Y-88435561D01*
X112692517Y-88469091D01*
X112752127Y-88475500D01*
X113347872Y-88475499D01*
X113407483Y-88469091D01*
X113542331Y-88418796D01*
X113657546Y-88332546D01*
X113743796Y-88217331D01*
X113794091Y-88082483D01*
X113800500Y-88022873D01*
X113800499Y-86977128D01*
X113794091Y-86917517D01*
X113775218Y-86866917D01*
X113743797Y-86782671D01*
X113743793Y-86782664D01*
X113657547Y-86667455D01*
X113657544Y-86667452D01*
X113542335Y-86581206D01*
X113542328Y-86581202D01*
X113481167Y-86558391D01*
X113425233Y-86516520D01*
X113400816Y-86451056D01*
X113400500Y-86442209D01*
X113400500Y-86117254D01*
X113420185Y-86050215D01*
X113436819Y-86029573D01*
X113923059Y-85543333D01*
X114482315Y-84984076D01*
X114543636Y-84950593D01*
X114583247Y-84948470D01*
X114602127Y-84950500D01*
X115222872Y-84950499D01*
X115282483Y-84944091D01*
X115417331Y-84893796D01*
X115532546Y-84807546D01*
X115618796Y-84692331D01*
X115669091Y-84557483D01*
X115674062Y-84511242D01*
X115700799Y-84446694D01*
X115758191Y-84406846D01*
X115797351Y-84400500D01*
X118702649Y-84400500D01*
X118769688Y-84420185D01*
X118815443Y-84472989D01*
X118825939Y-84511248D01*
X118830908Y-84557483D01*
X118881202Y-84692328D01*
X118881206Y-84692335D01*
X118967452Y-84807544D01*
X118967455Y-84807547D01*
X119082664Y-84893793D01*
X119082671Y-84893797D01*
X119127618Y-84910561D01*
X119217517Y-84944091D01*
X119277127Y-84950500D01*
X119897872Y-84950499D01*
X119897875Y-84950498D01*
X119897885Y-84950498D01*
X119916747Y-84948470D01*
X119985507Y-84960874D01*
X120017685Y-84984078D01*
X120445925Y-85412318D01*
X120479410Y-85473641D01*
X120474426Y-85543333D01*
X120445925Y-85587680D01*
X119545424Y-86488181D01*
X119484101Y-86521666D01*
X119457744Y-86524500D01*
X119252130Y-86524500D01*
X119252123Y-86524501D01*
X119192516Y-86530908D01*
X119057671Y-86581202D01*
X119057664Y-86581206D01*
X118942455Y-86667452D01*
X118942452Y-86667455D01*
X118856206Y-86782664D01*
X118856202Y-86782671D01*
X118805908Y-86917517D01*
X118799501Y-86977116D01*
X118799501Y-86977123D01*
X118799500Y-86977135D01*
X118799500Y-88022870D01*
X118799501Y-88022876D01*
X118805908Y-88082483D01*
X118856202Y-88217328D01*
X118856206Y-88217335D01*
X118942452Y-88332544D01*
X118942455Y-88332547D01*
X119057664Y-88418793D01*
X119057671Y-88418797D01*
X119102618Y-88435561D01*
X119192517Y-88469091D01*
X119252127Y-88475500D01*
X119847872Y-88475499D01*
X119907483Y-88469091D01*
X120042331Y-88418796D01*
X120157546Y-88332546D01*
X120243796Y-88217331D01*
X120294091Y-88082483D01*
X120300500Y-88022873D01*
X120300499Y-86977128D01*
X120300498Y-86977126D01*
X120300498Y-86977112D01*
X120296043Y-86935677D01*
X120308448Y-86866917D01*
X120331648Y-86834743D01*
X121229574Y-85936819D01*
X121290897Y-85903334D01*
X121317255Y-85900500D01*
X125500105Y-85900500D01*
X125567144Y-85920185D01*
X125609506Y-85969073D01*
X125610498Y-85968544D01*
X125612833Y-85972913D01*
X125612899Y-85972989D01*
X125613009Y-85973243D01*
X125613371Y-85973920D01*
X125722860Y-86137781D01*
X125722863Y-86137785D01*
X125862214Y-86277136D01*
X125862218Y-86277139D01*
X126026079Y-86386628D01*
X126026092Y-86386635D01*
X126208160Y-86462049D01*
X126208165Y-86462051D01*
X126208169Y-86462051D01*
X126208170Y-86462052D01*
X126401456Y-86500500D01*
X126401459Y-86500500D01*
X126598543Y-86500500D01*
X126728582Y-86474632D01*
X126791835Y-86462051D01*
X126973914Y-86386632D01*
X127137782Y-86277139D01*
X127277139Y-86137782D01*
X127386632Y-85973914D01*
X127462051Y-85791835D01*
X127489452Y-85654084D01*
X127500500Y-85598543D01*
X127500500Y-85401456D01*
X127462052Y-85208170D01*
X127462051Y-85208169D01*
X127462051Y-85208165D01*
X127459154Y-85201170D01*
X127386635Y-85026092D01*
X127386628Y-85026079D01*
X127277139Y-84862218D01*
X127277136Y-84862214D01*
X127137785Y-84722863D01*
X127137781Y-84722860D01*
X126973920Y-84613371D01*
X126973907Y-84613364D01*
X126791839Y-84537950D01*
X126791829Y-84537947D01*
X126598543Y-84499500D01*
X126598541Y-84499500D01*
X126401459Y-84499500D01*
X126401457Y-84499500D01*
X126208170Y-84537947D01*
X126208160Y-84537950D01*
X126026092Y-84613364D01*
X126026079Y-84613371D01*
X125862218Y-84722860D01*
X125862214Y-84722863D01*
X125722863Y-84862214D01*
X125722860Y-84862218D01*
X125613371Y-85026079D01*
X125610498Y-85031456D01*
X125608618Y-85030451D01*
X125570841Y-85077345D01*
X125504550Y-85099420D01*
X125500105Y-85099500D01*
X121317255Y-85099500D01*
X121250216Y-85079815D01*
X121229574Y-85063181D01*
X120386818Y-84220425D01*
X120353333Y-84159102D01*
X120350499Y-84132744D01*
X120350499Y-83502129D01*
X120350498Y-83502123D01*
X120350497Y-83502116D01*
X120344091Y-83442517D01*
X120293796Y-83307669D01*
X120293795Y-83307668D01*
X120293793Y-83307664D01*
X120207547Y-83192455D01*
X120207544Y-83192452D01*
X120092335Y-83106206D01*
X120092328Y-83106202D01*
X119957486Y-83055910D01*
X119957485Y-83055909D01*
X119957483Y-83055909D01*
X119897873Y-83049500D01*
X119897863Y-83049500D01*
X119277129Y-83049500D01*
X119277123Y-83049501D01*
X119217516Y-83055908D01*
X119082671Y-83106202D01*
X119082664Y-83106206D01*
X118967455Y-83192452D01*
X118967452Y-83192455D01*
X118881206Y-83307664D01*
X118881202Y-83307671D01*
X118830910Y-83442513D01*
X118830909Y-83442517D01*
X118825937Y-83488757D01*
X118799201Y-83553306D01*
X118741809Y-83593154D01*
X118702649Y-83599500D01*
X115797351Y-83599500D01*
X115730312Y-83579815D01*
X115684557Y-83527011D01*
X115674061Y-83488752D01*
X115669091Y-83442516D01*
X115618797Y-83307671D01*
X115618793Y-83307664D01*
X115532547Y-83192455D01*
X115532544Y-83192452D01*
X115417335Y-83106206D01*
X115417328Y-83106202D01*
X115282482Y-83055908D01*
X115282483Y-83055908D01*
X115222883Y-83049501D01*
X115222881Y-83049500D01*
X115222873Y-83049500D01*
X115222865Y-83049500D01*
X115090917Y-83049500D01*
X115086625Y-83048239D01*
X115082256Y-83049197D01*
X115053403Y-83038484D01*
X115023878Y-83029815D01*
X115020949Y-83026435D01*
X115016755Y-83024878D01*
X114998268Y-83000259D01*
X114978123Y-82977011D01*
X114977486Y-82972585D01*
X114974800Y-82969008D01*
X114972558Y-82938307D01*
X114968179Y-82907853D01*
X114969945Y-82902532D01*
X114969711Y-82899323D01*
X114979041Y-82875134D01*
X114981996Y-82866236D01*
X114982736Y-82864875D01*
X115012984Y-82812485D01*
X115014674Y-82806176D01*
X115021670Y-82793319D01*
X115028499Y-82786468D01*
X115042907Y-82764905D01*
X123500500Y-74307314D01*
X123566392Y-74193186D01*
X123600500Y-74065892D01*
X123600500Y-73934107D01*
X123600500Y-69058675D01*
X123620185Y-68991636D01*
X123636815Y-68970998D01*
X124264905Y-68342907D01*
X124305133Y-68316029D01*
X124312478Y-68312985D01*
X124312485Y-68312984D01*
X124438015Y-68240509D01*
X124540509Y-68138015D01*
X124612984Y-68012485D01*
X124650500Y-67872475D01*
X124650500Y-67727525D01*
X124612984Y-67587515D01*
X124598656Y-67562699D01*
X124540511Y-67461988D01*
X124540506Y-67461982D01*
X124438017Y-67359493D01*
X124438011Y-67359488D01*
X124368046Y-67319094D01*
X124350792Y-67300999D01*
X124330779Y-67286017D01*
X124327098Y-67276150D01*
X124319830Y-67268527D01*
X124315098Y-67243976D01*
X124306362Y-67220553D01*
X124308600Y-67210260D01*
X124306608Y-67199920D01*
X124315899Y-67176711D01*
X124321214Y-67152280D01*
X124330814Y-67139455D01*
X124332576Y-67135055D01*
X124342357Y-67124034D01*
X124482315Y-66984076D01*
X124543636Y-66950593D01*
X124583247Y-66948470D01*
X124602127Y-66950500D01*
X125222872Y-66950499D01*
X125222877Y-66950498D01*
X125225780Y-66950343D01*
X125293776Y-66966415D01*
X125320092Y-66986485D01*
X129154087Y-70820480D01*
X129245412Y-70873207D01*
X129347273Y-70900500D01*
X129452727Y-70900500D01*
X138275500Y-70900500D01*
X138342539Y-70920185D01*
X138388294Y-70972989D01*
X138399500Y-71024500D01*
X138399500Y-71374678D01*
X138414032Y-71447735D01*
X138414033Y-71447739D01*
X138414034Y-71447740D01*
X138469399Y-71530601D01*
X138528642Y-71570185D01*
X138552260Y-71585966D01*
X138552264Y-71585967D01*
X138625321Y-71600499D01*
X138625324Y-71600500D01*
X138625326Y-71600500D01*
X140374676Y-71600500D01*
X140374677Y-71600499D01*
X140447740Y-71585966D01*
X140530601Y-71530601D01*
X140585966Y-71447740D01*
X140600500Y-71374674D01*
X140600500Y-69625326D01*
X140600500Y-69625323D01*
X140600499Y-69625321D01*
X140585967Y-69552264D01*
X140585966Y-69552260D01*
X140576445Y-69538011D01*
X140530601Y-69469399D01*
X140447740Y-69414034D01*
X140447739Y-69414033D01*
X140447735Y-69414032D01*
X140374677Y-69399500D01*
X140374674Y-69399500D01*
X138625326Y-69399500D01*
X138625323Y-69399500D01*
X138552264Y-69414032D01*
X138552260Y-69414033D01*
X138469399Y-69469399D01*
X138414033Y-69552260D01*
X138414032Y-69552264D01*
X138399500Y-69625321D01*
X138399500Y-69975500D01*
X138379815Y-70042539D01*
X138327011Y-70088294D01*
X138275500Y-70099500D01*
X129617255Y-70099500D01*
X129550216Y-70079815D01*
X129529574Y-70063181D01*
X125711818Y-66245425D01*
X125678333Y-66184102D01*
X125675499Y-66157744D01*
X125675499Y-65502129D01*
X125675498Y-65502123D01*
X125675497Y-65502116D01*
X125669091Y-65442517D01*
X125660871Y-65420479D01*
X125618797Y-65307671D01*
X125618793Y-65307664D01*
X125532547Y-65192455D01*
X125532544Y-65192452D01*
X125417335Y-65106206D01*
X125417328Y-65106202D01*
X125282486Y-65055910D01*
X125282485Y-65055909D01*
X125282483Y-65055909D01*
X125222873Y-65049500D01*
X125222863Y-65049500D01*
X124602129Y-65049500D01*
X124602123Y-65049501D01*
X124542516Y-65055908D01*
X124407671Y-65106202D01*
X124407664Y-65106206D01*
X124292455Y-65192452D01*
X124292452Y-65192455D01*
X124206206Y-65307664D01*
X124206202Y-65307671D01*
X124155908Y-65442517D01*
X124149752Y-65499782D01*
X124149501Y-65502123D01*
X124149500Y-65502135D01*
X124149500Y-66132744D01*
X124140855Y-66162184D01*
X124134332Y-66192171D01*
X124130577Y-66197186D01*
X124129815Y-66199783D01*
X124113181Y-66220425D01*
X124062180Y-66271426D01*
X124000857Y-66304911D01*
X123931165Y-66299927D01*
X123875232Y-66258055D01*
X123850815Y-66192591D01*
X123850499Y-66183745D01*
X123850499Y-65502129D01*
X123850498Y-65502123D01*
X123850497Y-65502116D01*
X123844091Y-65442517D01*
X123835871Y-65420479D01*
X123793797Y-65307671D01*
X123793793Y-65307664D01*
X123707547Y-65192455D01*
X123707544Y-65192452D01*
X123592335Y-65106206D01*
X123592328Y-65106202D01*
X123457486Y-65055910D01*
X123457485Y-65055909D01*
X123457483Y-65055909D01*
X123397873Y-65049500D01*
X123397863Y-65049500D01*
X122777129Y-65049500D01*
X122777123Y-65049501D01*
X122717516Y-65055908D01*
X122582671Y-65106202D01*
X122582664Y-65106206D01*
X122467455Y-65192452D01*
X122467452Y-65192455D01*
X122381206Y-65307664D01*
X122381202Y-65307671D01*
X122330908Y-65442517D01*
X122324752Y-65499782D01*
X122324501Y-65502123D01*
X122324500Y-65502135D01*
X122324500Y-66497870D01*
X122324501Y-66497876D01*
X122330908Y-66557483D01*
X122381202Y-66692328D01*
X122381203Y-66692329D01*
X122381204Y-66692331D01*
X122467454Y-66807546D01*
X122513967Y-66842365D01*
X122555838Y-66898299D01*
X122559430Y-66909534D01*
X122567218Y-66938599D01*
X122587017Y-67012489D01*
X122659488Y-67138011D01*
X122659490Y-67138013D01*
X122659491Y-67138015D01*
X122761985Y-67240509D01*
X122831953Y-67280905D01*
X122880167Y-67331470D01*
X122893391Y-67400077D01*
X122867423Y-67464942D01*
X122857633Y-67475972D01*
X120270426Y-70063181D01*
X120209103Y-70096666D01*
X120182745Y-70099500D01*
X106547273Y-70099500D01*
X106445410Y-70126793D01*
X106354087Y-70179520D01*
X106354084Y-70179522D01*
X105912180Y-70621426D01*
X105850857Y-70654911D01*
X105781165Y-70649927D01*
X105725232Y-70608055D01*
X105700815Y-70542591D01*
X105700499Y-70533745D01*
X105700499Y-69977129D01*
X105700498Y-69977123D01*
X105694091Y-69917516D01*
X105643797Y-69782671D01*
X105643793Y-69782664D01*
X105557547Y-69667455D01*
X105450188Y-69587085D01*
X105447451Y-69583429D01*
X105443297Y-69581532D01*
X105426705Y-69555714D01*
X105408318Y-69531151D01*
X105407302Y-69525523D01*
X105405523Y-69522754D01*
X105400500Y-69487819D01*
X105400500Y-69317255D01*
X105420185Y-69250216D01*
X105436819Y-69229574D01*
X106069247Y-68597146D01*
X106720480Y-67945913D01*
X106773207Y-67854588D01*
X106800500Y-67752727D01*
X106800500Y-67647273D01*
X106800500Y-64362729D01*
X106800501Y-64362716D01*
X106800501Y-64247274D01*
X106793552Y-64221342D01*
X106773207Y-64145413D01*
X106773206Y-64145412D01*
X106773206Y-64145410D01*
X106773204Y-64145407D01*
X106759117Y-64121008D01*
X106759116Y-64121006D01*
X106754196Y-64112485D01*
X106720480Y-64054087D01*
X106645913Y-63979520D01*
X106645910Y-63979518D01*
X106353907Y-63687515D01*
X106042366Y-63375973D01*
X106008881Y-63314650D01*
X106013865Y-63244958D01*
X106055737Y-63189025D01*
X106068047Y-63180905D01*
X106138015Y-63140509D01*
X106240509Y-63038015D01*
X106312984Y-62912485D01*
X106312985Y-62912478D01*
X106316029Y-62905133D01*
X106342907Y-62864905D01*
X106695995Y-62511818D01*
X106757318Y-62478333D01*
X106783676Y-62475499D01*
X106847871Y-62475499D01*
X106847872Y-62475499D01*
X106907483Y-62469091D01*
X107042331Y-62418796D01*
X107157546Y-62332546D01*
X107243796Y-62217331D01*
X107294091Y-62082483D01*
X107300500Y-62022873D01*
X107300499Y-60977128D01*
X107294949Y-60925498D01*
X107294091Y-60917516D01*
X107243797Y-60782671D01*
X107243793Y-60782664D01*
X107157547Y-60667455D01*
X107157544Y-60667452D01*
X107042335Y-60581206D01*
X107042328Y-60581202D01*
X106907486Y-60530910D01*
X106907485Y-60530909D01*
X106907483Y-60530909D01*
X106847873Y-60524500D01*
X106847863Y-60524500D01*
X106252129Y-60524500D01*
X106252123Y-60524501D01*
X106192516Y-60530908D01*
X106057671Y-60581202D01*
X106057664Y-60581206D01*
X105942455Y-60667452D01*
X105942452Y-60667455D01*
X105856206Y-60782664D01*
X105856202Y-60782671D01*
X105805908Y-60917517D01*
X105799675Y-60975500D01*
X105799501Y-60977123D01*
X105799500Y-60977135D01*
X105799500Y-61692324D01*
X105779815Y-61759363D01*
X105727011Y-61805118D01*
X105657853Y-61815062D01*
X105594297Y-61786037D01*
X105587819Y-61780005D01*
X102907316Y-59099502D01*
X102907314Y-59099500D01*
X102850250Y-59066554D01*
X102793187Y-59033608D01*
X102729539Y-59016554D01*
X102665892Y-58999500D01*
X102665891Y-58999500D01*
X98958675Y-58999500D01*
X98891636Y-58979815D01*
X98870994Y-58963181D01*
X98355690Y-58447877D01*
X97807314Y-57899500D01*
X97750250Y-57866554D01*
X97693187Y-57833608D01*
X97591953Y-57806483D01*
X97565892Y-57799500D01*
X96265892Y-57799500D01*
X96134107Y-57799500D01*
X96006812Y-57833608D01*
X95892686Y-57899500D01*
X95892683Y-57899502D01*
X95799498Y-57992688D01*
X95304004Y-58488181D01*
X95242681Y-58521666D01*
X95216323Y-58524500D01*
X94752129Y-58524500D01*
X94752123Y-58524501D01*
X94692516Y-58530908D01*
X94557671Y-58581202D01*
X94557664Y-58581206D01*
X94442455Y-58667452D01*
X94442452Y-58667455D01*
X94356206Y-58782664D01*
X94356202Y-58782671D01*
X94305908Y-58917517D01*
X94299501Y-58977116D01*
X94299500Y-58977135D01*
X94299500Y-60022870D01*
X94299501Y-60022876D01*
X94305908Y-60082483D01*
X94356202Y-60217328D01*
X94356206Y-60217335D01*
X94442452Y-60332544D01*
X94442455Y-60332547D01*
X94557664Y-60418793D01*
X94557671Y-60418797D01*
X94602567Y-60435542D01*
X94692517Y-60469091D01*
X94752127Y-60475500D01*
X95347872Y-60475499D01*
X95407483Y-60469091D01*
X95542331Y-60418796D01*
X95657546Y-60332546D01*
X95743796Y-60217331D01*
X95794091Y-60082483D01*
X95800500Y-60022873D01*
X95800499Y-59458674D01*
X95820183Y-59391636D01*
X95836813Y-59370999D01*
X96370994Y-58836819D01*
X96432317Y-58803334D01*
X96458675Y-58800500D01*
X97241324Y-58800500D01*
X97308363Y-58820185D01*
X97329005Y-58836819D01*
X98295159Y-59802972D01*
X98295169Y-59802983D01*
X98299499Y-59807313D01*
X98299500Y-59807314D01*
X98392686Y-59900500D01*
X98486369Y-59954588D01*
X98506814Y-59966392D01*
X98634107Y-60000500D01*
X98634108Y-60000500D01*
X102341324Y-60000500D01*
X102408363Y-60020185D01*
X102429005Y-60036819D01*
X105080005Y-62687819D01*
X105113490Y-62749142D01*
X105108506Y-62818834D01*
X105066634Y-62874767D01*
X105001170Y-62899184D01*
X104992324Y-62899500D01*
X102747273Y-62899500D01*
X102645410Y-62926793D01*
X102616993Y-62943201D01*
X102554087Y-62979520D01*
X102554084Y-62979522D01*
X102479518Y-63054089D01*
X101939370Y-63594235D01*
X101878047Y-63627720D01*
X101808355Y-63622736D01*
X101752422Y-63580864D01*
X101744303Y-63568556D01*
X101740511Y-63561988D01*
X101740506Y-63561982D01*
X101638017Y-63459493D01*
X101638011Y-63459488D01*
X101512488Y-63387017D01*
X101512489Y-63387017D01*
X101471272Y-63375973D01*
X101372475Y-63349500D01*
X101227525Y-63349500D01*
X101227522Y-63349500D01*
X101227518Y-63349501D01*
X101208628Y-63354562D01*
X101138779Y-63352896D01*
X101088860Y-63322467D01*
X100845915Y-63079522D01*
X100845913Y-63079520D01*
X100789549Y-63046978D01*
X100754589Y-63026793D01*
X100693538Y-63010435D01*
X100652727Y-62999500D01*
X100652726Y-62999500D01*
X91117254Y-62999500D01*
X91050215Y-62979815D01*
X91029573Y-62963181D01*
X89886819Y-61820426D01*
X89853334Y-61759103D01*
X89850500Y-61732745D01*
X89850500Y-61727527D01*
X89850500Y-61727525D01*
X89812984Y-61587515D01*
X89788683Y-61545425D01*
X89740511Y-61461988D01*
X89740506Y-61461982D01*
X89632268Y-61353744D01*
X89634561Y-61351450D01*
X89602315Y-61307242D01*
X89598196Y-61237494D01*
X89615348Y-61200549D01*
X89614547Y-61200112D01*
X89618797Y-61192329D01*
X89669091Y-61057482D01*
X89669528Y-61053419D01*
X89675500Y-60997873D01*
X89675499Y-60002128D01*
X89669091Y-59942517D01*
X89662295Y-59924297D01*
X89618797Y-59807671D01*
X89618793Y-59807664D01*
X89532547Y-59692455D01*
X89532544Y-59692452D01*
X89417335Y-59606206D01*
X89417328Y-59606202D01*
X89282486Y-59555910D01*
X89282485Y-59555909D01*
X89282483Y-59555909D01*
X89222873Y-59549500D01*
X89222863Y-59549500D01*
X88602129Y-59549500D01*
X88602118Y-59549501D01*
X88583246Y-59551530D01*
X88514487Y-59539122D01*
X88482314Y-59515921D01*
X88045915Y-59079522D01*
X88045913Y-59079520D01*
X88000250Y-59053156D01*
X87954589Y-59026793D01*
X87903657Y-59013146D01*
X87852727Y-58999500D01*
X86652727Y-58999500D01*
X86547273Y-58999500D01*
X86445410Y-59026793D01*
X86354087Y-59079520D01*
X86354084Y-59079522D01*
X85870426Y-59563181D01*
X85809103Y-59596666D01*
X85782745Y-59599500D01*
X80047273Y-59599500D01*
X79945410Y-59626793D01*
X79854087Y-59679520D01*
X79854084Y-59679522D01*
X79687681Y-59845926D01*
X79626358Y-59879411D01*
X79556666Y-59874427D01*
X79512319Y-59845926D01*
X78328573Y-58662180D01*
X78295088Y-58600857D01*
X78300072Y-58531165D01*
X78341944Y-58475232D01*
X78407408Y-58450815D01*
X78416254Y-58450499D01*
X78722871Y-58450499D01*
X78722872Y-58450499D01*
X78782483Y-58444091D01*
X78917331Y-58393796D01*
X79032546Y-58307546D01*
X79118796Y-58192331D01*
X79169091Y-58057483D01*
X79175500Y-57997873D01*
X79175499Y-57002128D01*
X79169091Y-56942517D01*
X79118796Y-56807669D01*
X79118795Y-56807668D01*
X79118793Y-56807664D01*
X79032547Y-56692455D01*
X78999209Y-56667498D01*
X78957339Y-56611564D01*
X78952355Y-56541872D01*
X78985838Y-56480553D01*
X80842354Y-54624038D01*
X133149500Y-54624038D01*
X133149500Y-54875962D01*
X133188910Y-55124785D01*
X133266760Y-55364383D01*
X133381132Y-55588848D01*
X133529201Y-55792649D01*
X133529205Y-55792654D01*
X133707345Y-55970794D01*
X133707350Y-55970798D01*
X133856997Y-56079522D01*
X133911155Y-56118870D01*
X134054184Y-56191747D01*
X134135616Y-56233239D01*
X134135618Y-56233239D01*
X134135621Y-56233241D01*
X134375215Y-56311090D01*
X134624038Y-56350500D01*
X134624039Y-56350500D01*
X134875961Y-56350500D01*
X134875962Y-56350500D01*
X135124785Y-56311090D01*
X135364379Y-56233241D01*
X135588845Y-56118870D01*
X135792656Y-55970793D01*
X135970793Y-55792656D01*
X136118870Y-55588845D01*
X136233241Y-55364379D01*
X136311090Y-55124785D01*
X136350500Y-54875962D01*
X136350500Y-54624038D01*
X136311090Y-54375215D01*
X136233241Y-54135621D01*
X136233239Y-54135618D01*
X136233239Y-54135616D01*
X136191747Y-54054184D01*
X136118870Y-53911155D01*
X136021773Y-53777512D01*
X135970798Y-53707350D01*
X135970794Y-53707345D01*
X135792654Y-53529205D01*
X135792649Y-53529201D01*
X135588848Y-53381132D01*
X135588847Y-53381131D01*
X135588845Y-53381130D01*
X135518747Y-53345413D01*
X135364383Y-53266760D01*
X135124785Y-53188910D01*
X134875962Y-53149500D01*
X134624038Y-53149500D01*
X134552346Y-53160855D01*
X134375214Y-53188910D01*
X134135616Y-53266760D01*
X133911151Y-53381132D01*
X133707350Y-53529201D01*
X133707345Y-53529205D01*
X133529205Y-53707345D01*
X133529201Y-53707350D01*
X133381132Y-53911151D01*
X133266760Y-54135616D01*
X133225191Y-54263553D01*
X133188910Y-54375215D01*
X133149500Y-54624038D01*
X80842354Y-54624038D01*
X81920480Y-53545913D01*
X81973207Y-53454588D01*
X82000500Y-53352727D01*
X82000500Y-53247273D01*
X82000500Y-52247273D01*
X81973207Y-52145413D01*
X81973207Y-52145412D01*
X81920480Y-52054087D01*
X81245913Y-51379520D01*
X81200250Y-51353156D01*
X81154589Y-51326793D01*
X81103657Y-51313146D01*
X81052727Y-51299500D01*
X76152727Y-51299500D01*
X76047273Y-51299500D01*
X75945410Y-51326793D01*
X75854087Y-51379520D01*
X75854084Y-51379522D01*
X75423835Y-51809770D01*
X75362512Y-51843255D01*
X75297994Y-51838641D01*
X75297668Y-51839718D01*
X75292921Y-51838278D01*
X75292820Y-51838271D01*
X75292559Y-51838168D01*
X75291833Y-51837948D01*
X75098543Y-51799500D01*
X75098541Y-51799500D01*
X74901459Y-51799500D01*
X74901457Y-51799500D01*
X74708170Y-51837947D01*
X74708160Y-51837950D01*
X74526092Y-51913364D01*
X74526079Y-51913371D01*
X74362218Y-52022860D01*
X74362214Y-52022863D01*
X74222863Y-52162214D01*
X74222860Y-52162218D01*
X74113371Y-52326079D01*
X74113364Y-52326092D01*
X74037950Y-52508160D01*
X74037947Y-52508170D01*
X73999500Y-52701456D01*
X73999500Y-52701459D01*
X73999500Y-52898541D01*
X73999500Y-52898543D01*
X73999499Y-52898543D01*
X74037947Y-53091829D01*
X74037950Y-53091839D01*
X74113364Y-53273907D01*
X74113371Y-53273920D01*
X74222860Y-53437781D01*
X74222863Y-53437785D01*
X74362214Y-53577136D01*
X74362218Y-53577139D01*
X74526079Y-53686628D01*
X74526092Y-53686635D01*
X74680278Y-53750500D01*
X74708165Y-53762051D01*
X74708169Y-53762051D01*
X74708170Y-53762052D01*
X74901456Y-53800500D01*
X74901459Y-53800500D01*
X75098543Y-53800500D01*
X75228582Y-53774632D01*
X75291835Y-53762051D01*
X75456616Y-53693797D01*
X75473907Y-53686635D01*
X75473907Y-53686634D01*
X75473914Y-53686632D01*
X75637782Y-53577139D01*
X75777139Y-53437782D01*
X75886632Y-53273914D01*
X75962051Y-53091835D01*
X76000500Y-52898541D01*
X76000500Y-52701459D01*
X76000500Y-52701456D01*
X75962052Y-52508171D01*
X75962052Y-52508170D01*
X75962051Y-52508165D01*
X75962047Y-52508157D01*
X75960284Y-52502342D01*
X75962319Y-52501724D01*
X75955878Y-52441834D01*
X75987151Y-52379353D01*
X75990228Y-52376164D01*
X76108240Y-52258153D01*
X76229574Y-52136819D01*
X76290897Y-52103334D01*
X76317255Y-52100500D01*
X79532111Y-52100500D01*
X79540152Y-52102861D01*
X79548437Y-52101579D01*
X79573183Y-52112560D01*
X79599150Y-52120185D01*
X79604638Y-52126518D01*
X79612301Y-52129919D01*
X79627182Y-52152535D01*
X79644905Y-52172989D01*
X79646097Y-52181284D01*
X79650706Y-52188288D01*
X79650996Y-52215357D01*
X79654849Y-52242147D01*
X79651386Y-52251585D01*
X79651457Y-52258153D01*
X79639305Y-52284513D01*
X79637141Y-52290414D01*
X79636179Y-52291946D01*
X79613368Y-52326086D01*
X79610676Y-52332583D01*
X79605135Y-52341414D01*
X79586477Y-52357935D01*
X79570841Y-52377345D01*
X79560771Y-52380698D01*
X79552826Y-52387734D01*
X79528194Y-52391546D01*
X79504550Y-52399420D01*
X79500105Y-52399500D01*
X77847273Y-52399500D01*
X77745413Y-52426793D01*
X77745412Y-52426793D01*
X77745410Y-52426794D01*
X77745407Y-52426795D01*
X77707588Y-52448631D01*
X77707587Y-52448632D01*
X77680837Y-52464076D01*
X77654088Y-52479519D01*
X77654085Y-52479521D01*
X70287680Y-59845925D01*
X70226357Y-59879410D01*
X70156665Y-59874426D01*
X70112318Y-59845925D01*
X69945916Y-59679522D01*
X69854589Y-59626793D01*
X69803657Y-59613146D01*
X69752727Y-59599500D01*
X69752726Y-59599500D01*
X69617255Y-59599500D01*
X69550216Y-59579815D01*
X69529574Y-59563181D01*
X69445915Y-59479522D01*
X69445913Y-59479520D01*
X69354588Y-59426793D01*
X69252727Y-59399499D01*
X69147273Y-59399499D01*
X69066937Y-59421025D01*
X69066936Y-59421024D01*
X69045415Y-59426791D01*
X69045412Y-59426792D01*
X68954087Y-59479519D01*
X68881772Y-59551835D01*
X68820448Y-59585319D01*
X68750757Y-59580334D01*
X68732090Y-59571539D01*
X68654593Y-59526795D01*
X68654591Y-59526794D01*
X68654588Y-59526793D01*
X68552727Y-59499500D01*
X61152727Y-59499500D01*
X61047273Y-59499500D01*
X60945410Y-59526793D01*
X60854087Y-59579520D01*
X60854084Y-59579522D01*
X59085090Y-61348516D01*
X59023767Y-61382001D01*
X58954075Y-61377017D01*
X58898142Y-61335145D01*
X58873725Y-61269681D01*
X58888577Y-61201408D01*
X58890316Y-61198701D01*
X58893795Y-61192331D01*
X58893796Y-61192330D01*
X58944091Y-61057482D01*
X58950500Y-60997872D01*
X58950500Y-59002128D01*
X58944091Y-58942518D01*
X58893796Y-58807670D01*
X58807546Y-58692454D01*
X58692330Y-58606204D01*
X58692328Y-58606203D01*
X58692327Y-58606202D01*
X58557481Y-58555908D01*
X58557482Y-58555908D01*
X58497882Y-58549501D01*
X58497880Y-58549500D01*
X58497872Y-58549500D01*
X56502128Y-58549500D01*
X56502120Y-58549500D01*
X56502117Y-58549501D01*
X56442518Y-58555908D01*
X56307672Y-58606202D01*
X56307670Y-58606204D01*
X56192454Y-58692454D01*
X56106204Y-58807670D01*
X56106202Y-58807672D01*
X56055908Y-58942518D01*
X56049501Y-59002117D01*
X56049500Y-59002128D01*
X56049500Y-60997872D01*
X56049500Y-60997880D01*
X56049501Y-60997882D01*
X56055908Y-61057481D01*
X56106202Y-61192327D01*
X56106203Y-61192328D01*
X56106204Y-61192330D01*
X56192454Y-61307546D01*
X56307670Y-61393796D01*
X56307671Y-61393796D01*
X56307672Y-61393797D01*
X56442518Y-61444091D01*
X56442517Y-61444091D01*
X56449445Y-61444835D01*
X56502128Y-61450500D01*
X56502137Y-61450500D01*
X58497863Y-61450500D01*
X58497872Y-61450500D01*
X58557482Y-61444091D01*
X58692330Y-61393796D01*
X58692333Y-61393793D01*
X58700113Y-61389546D01*
X58701717Y-61392485D01*
X58751922Y-61373730D01*
X58820203Y-61388545D01*
X58869635Y-61437924D01*
X58884523Y-61506189D01*
X58860141Y-61571667D01*
X58848515Y-61585090D01*
X58266932Y-62166673D01*
X58205609Y-62200158D01*
X58135917Y-62195174D01*
X58122957Y-62189477D01*
X58056806Y-62155771D01*
X57839660Y-62085215D01*
X57614162Y-62049500D01*
X57614157Y-62049500D01*
X57385843Y-62049500D01*
X57385838Y-62049500D01*
X57160339Y-62085215D01*
X56943196Y-62155770D01*
X56739771Y-62259421D01*
X56555061Y-62393622D01*
X56393622Y-62555061D01*
X56259421Y-62739771D01*
X56155770Y-62943196D01*
X56085215Y-63160339D01*
X56049500Y-63385837D01*
X56049500Y-63614162D01*
X56085215Y-63839660D01*
X56155770Y-64056803D01*
X56247344Y-64236525D01*
X56259421Y-64260228D01*
X56393621Y-64444937D01*
X56555063Y-64606379D01*
X56739772Y-64740579D01*
X56816196Y-64779519D01*
X56943196Y-64844229D01*
X56943198Y-64844229D01*
X56943201Y-64844231D01*
X57026911Y-64871430D01*
X57160339Y-64914784D01*
X57385838Y-64950500D01*
X57385843Y-64950500D01*
X57614162Y-64950500D01*
X57839660Y-64914784D01*
X57883621Y-64900500D01*
X58056799Y-64844231D01*
X58260228Y-64740579D01*
X58444937Y-64606379D01*
X58606379Y-64444937D01*
X58740579Y-64260228D01*
X58844231Y-64056799D01*
X58914784Y-63839660D01*
X58930261Y-63741944D01*
X58950500Y-63614162D01*
X58950500Y-63385837D01*
X58914784Y-63160339D01*
X58862524Y-62999500D01*
X58844231Y-62943201D01*
X58844229Y-62943198D01*
X58844229Y-62943196D01*
X58810521Y-62877042D01*
X58797625Y-62808373D01*
X58823901Y-62743633D01*
X58833316Y-62733075D01*
X59060631Y-62505760D01*
X59121952Y-62472277D01*
X59191644Y-62477261D01*
X59247577Y-62519133D01*
X59255696Y-62531442D01*
X59259491Y-62538015D01*
X59361985Y-62640509D01*
X59361986Y-62640510D01*
X59361988Y-62640511D01*
X59487511Y-62712982D01*
X59487512Y-62712982D01*
X59487515Y-62712984D01*
X59627525Y-62750500D01*
X59627528Y-62750500D01*
X59772472Y-62750500D01*
X59772475Y-62750500D01*
X59912485Y-62712984D01*
X60038015Y-62640509D01*
X60140509Y-62538015D01*
X60212984Y-62412485D01*
X60250500Y-62272475D01*
X60250500Y-62267255D01*
X60270185Y-62200216D01*
X60286819Y-62179574D01*
X61629574Y-60836819D01*
X61690897Y-60803334D01*
X61717255Y-60800500D01*
X65982745Y-60800500D01*
X66049784Y-60820185D01*
X66070426Y-60836819D01*
X66913181Y-61679573D01*
X66946666Y-61740896D01*
X66949500Y-61767254D01*
X66949500Y-61772475D01*
X66983805Y-61900500D01*
X66987017Y-61912488D01*
X67059488Y-62038011D01*
X67059490Y-62038013D01*
X67059491Y-62038015D01*
X67161985Y-62140509D01*
X67161986Y-62140510D01*
X67161988Y-62140511D01*
X67287511Y-62212982D01*
X67287512Y-62212982D01*
X67287515Y-62212984D01*
X67427525Y-62250500D01*
X67427528Y-62250500D01*
X67572472Y-62250500D01*
X67572475Y-62250500D01*
X67670234Y-62224305D01*
X67740081Y-62225968D01*
X67790006Y-62256399D01*
X69554087Y-64020480D01*
X69645412Y-64073207D01*
X69747273Y-64100500D01*
X69747275Y-64100500D01*
X70552725Y-64100500D01*
X70552727Y-64100500D01*
X70654588Y-64073207D01*
X70745913Y-64020480D01*
X71220480Y-63545913D01*
X71245760Y-63502127D01*
X71273207Y-63454587D01*
X71287081Y-63402803D01*
X71319173Y-63347218D01*
X71729574Y-62936819D01*
X71756501Y-62922115D01*
X71782320Y-62905523D01*
X71788520Y-62904631D01*
X71790897Y-62903334D01*
X71817255Y-62900500D01*
X71875500Y-62900500D01*
X71942539Y-62920185D01*
X71988294Y-62972989D01*
X71999500Y-63024500D01*
X71999500Y-64247273D01*
X71999500Y-64352727D01*
X72005305Y-64374392D01*
X72026793Y-64454589D01*
X72047756Y-64490896D01*
X72079520Y-64545913D01*
X73680880Y-66147273D01*
X75263181Y-67729573D01*
X75296666Y-67790896D01*
X75299500Y-67817254D01*
X75299500Y-68252726D01*
X75326793Y-68354589D01*
X75350574Y-68395777D01*
X75379520Y-68445913D01*
X75779519Y-68845912D01*
X75779520Y-68845913D01*
X75854087Y-68920480D01*
X75945413Y-68973207D01*
X76047273Y-69000500D01*
X76047275Y-69000500D01*
X77352725Y-69000500D01*
X77352727Y-69000500D01*
X77454588Y-68973207D01*
X77545913Y-68920480D01*
X77982315Y-68484076D01*
X78043636Y-68450593D01*
X78083247Y-68448470D01*
X78102127Y-68450500D01*
X78722872Y-68450499D01*
X78782483Y-68444091D01*
X78917331Y-68393796D01*
X79032546Y-68307546D01*
X79118796Y-68192331D01*
X79169091Y-68057483D01*
X79175500Y-67997873D01*
X79175499Y-67002128D01*
X79169091Y-66942517D01*
X79157076Y-66910304D01*
X79118797Y-66807671D01*
X79118793Y-66807664D01*
X79032547Y-66692455D01*
X79032544Y-66692452D01*
X78917335Y-66606206D01*
X78917328Y-66606202D01*
X78782486Y-66555910D01*
X78782485Y-66555909D01*
X78782483Y-66555909D01*
X78722873Y-66549500D01*
X78722863Y-66549500D01*
X78102129Y-66549500D01*
X78102123Y-66549501D01*
X78042516Y-66555908D01*
X77907671Y-66606202D01*
X77907664Y-66606206D01*
X77792455Y-66692452D01*
X77792452Y-66692455D01*
X77706206Y-66807664D01*
X77706202Y-66807671D01*
X77655908Y-66942517D01*
X77650919Y-66988925D01*
X77649501Y-67002123D01*
X77649500Y-67002135D01*
X77649500Y-67632744D01*
X77640855Y-67662184D01*
X77634332Y-67692171D01*
X77630577Y-67697186D01*
X77629815Y-67699783D01*
X77613181Y-67720425D01*
X77562180Y-67771426D01*
X77500857Y-67804911D01*
X77431165Y-67799927D01*
X77375232Y-67758055D01*
X77350815Y-67692591D01*
X77350499Y-67683745D01*
X77350499Y-67002129D01*
X77350498Y-67002123D01*
X77350497Y-67002116D01*
X77344091Y-66942517D01*
X77332076Y-66910304D01*
X77293797Y-66807671D01*
X77293793Y-66807664D01*
X77207547Y-66692455D01*
X77207544Y-66692452D01*
X77092335Y-66606206D01*
X77092332Y-66606205D01*
X77092331Y-66606204D01*
X77081161Y-66602038D01*
X77025231Y-66560166D01*
X77000816Y-66494701D01*
X77000500Y-66485858D01*
X77000500Y-64524500D01*
X77020185Y-64457461D01*
X77072989Y-64411706D01*
X77124500Y-64400500D01*
X79382745Y-64400500D01*
X79449784Y-64420185D01*
X79470426Y-64436819D01*
X79639985Y-64606377D01*
X79779518Y-64745910D01*
X79779520Y-64745913D01*
X79854087Y-64820480D01*
X79895225Y-64844231D01*
X79945412Y-64873207D01*
X80047273Y-64900500D01*
X85782745Y-64900500D01*
X85849784Y-64920185D01*
X85870426Y-64936819D01*
X86354087Y-65420479D01*
X86445412Y-65473206D01*
X86547273Y-65500499D01*
X86547275Y-65500499D01*
X87852725Y-65500499D01*
X87852727Y-65500499D01*
X87954588Y-65473206D01*
X88045913Y-65420479D01*
X88482315Y-64984076D01*
X88543636Y-64950593D01*
X88583247Y-64948470D01*
X88602127Y-64950500D01*
X89222872Y-64950499D01*
X89282483Y-64944091D01*
X89417331Y-64893796D01*
X89532546Y-64807546D01*
X89618796Y-64692331D01*
X89669091Y-64557483D01*
X89675500Y-64497873D01*
X89675499Y-63941251D01*
X89695183Y-63874214D01*
X89747987Y-63828459D01*
X89817146Y-63818515D01*
X89880702Y-63847540D01*
X89887180Y-63853572D01*
X90454087Y-64420479D01*
X90545412Y-64473206D01*
X90647273Y-64500499D01*
X90752727Y-64500499D01*
X97075500Y-64500499D01*
X97142539Y-64520184D01*
X97188294Y-64572988D01*
X97199500Y-64624499D01*
X97199500Y-68580214D01*
X97179815Y-68647253D01*
X97127011Y-68693008D01*
X97057853Y-68702952D01*
X97020099Y-68689885D01*
X97019999Y-68690128D01*
X97015928Y-68688442D01*
X97013504Y-68687603D01*
X97012492Y-68687018D01*
X97012489Y-68687017D01*
X96986372Y-68680019D01*
X96872475Y-68649500D01*
X96727525Y-68649500D01*
X96613628Y-68680019D01*
X96587511Y-68687017D01*
X96461988Y-68759488D01*
X96461982Y-68759493D01*
X96359493Y-68861982D01*
X96359488Y-68861988D01*
X96287017Y-68987511D01*
X96287016Y-68987515D01*
X96249500Y-69127525D01*
X96249500Y-69272475D01*
X96281962Y-69393622D01*
X96287017Y-69412488D01*
X96290059Y-69419831D01*
X96299500Y-69467288D01*
X96299500Y-71541324D01*
X96279815Y-71608363D01*
X96263181Y-71629005D01*
X86199502Y-81692683D01*
X86199500Y-81692686D01*
X86133608Y-81806812D01*
X86099500Y-81934108D01*
X86099500Y-83641323D01*
X86079815Y-83708362D01*
X86063181Y-83729004D01*
X84512180Y-85280005D01*
X84450857Y-85313490D01*
X84381165Y-85308506D01*
X84325232Y-85266634D01*
X84300815Y-85201170D01*
X84300499Y-85192324D01*
X84300499Y-84302129D01*
X84300498Y-84302123D01*
X84300497Y-84302116D01*
X84294091Y-84242517D01*
X84285851Y-84220425D01*
X84243797Y-84107671D01*
X84243793Y-84107664D01*
X84157547Y-83992455D01*
X84157544Y-83992452D01*
X84042335Y-83906206D01*
X84042328Y-83906202D01*
X83907482Y-83855908D01*
X83907483Y-83855908D01*
X83847883Y-83849501D01*
X83847881Y-83849500D01*
X83847873Y-83849500D01*
X83847865Y-83849500D01*
X83674500Y-83849500D01*
X83607461Y-83829815D01*
X83561706Y-83777011D01*
X83550500Y-83725500D01*
X83550500Y-82274499D01*
X83570185Y-82207460D01*
X83622989Y-82161705D01*
X83674500Y-82150499D01*
X84047871Y-82150499D01*
X84047872Y-82150499D01*
X84107483Y-82144091D01*
X84242331Y-82093796D01*
X84357546Y-82007546D01*
X84443796Y-81892331D01*
X84494091Y-81757483D01*
X84500500Y-81697873D01*
X84500499Y-80302128D01*
X84495299Y-80253757D01*
X84494091Y-80242516D01*
X84443797Y-80107671D01*
X84443793Y-80107664D01*
X84357547Y-79992455D01*
X84357544Y-79992452D01*
X84242335Y-79906206D01*
X84242328Y-79906202D01*
X84107482Y-79855908D01*
X84107483Y-79855908D01*
X84047883Y-79849501D01*
X84047881Y-79849500D01*
X84047873Y-79849500D01*
X84047864Y-79849500D01*
X81952129Y-79849500D01*
X81952123Y-79849501D01*
X81892516Y-79855908D01*
X81757671Y-79906202D01*
X81757664Y-79906206D01*
X81642455Y-79992452D01*
X81642452Y-79992455D01*
X81556206Y-80107664D01*
X81556202Y-80107671D01*
X81505908Y-80242517D01*
X81499501Y-80302116D01*
X81499501Y-80302123D01*
X81499500Y-80302135D01*
X81499500Y-81697870D01*
X81499501Y-81697876D01*
X81505908Y-81757483D01*
X81556202Y-81892328D01*
X81556206Y-81892335D01*
X81642452Y-82007544D01*
X81642455Y-82007547D01*
X81757664Y-82093793D01*
X81757671Y-82093797D01*
X81791400Y-82106377D01*
X81892517Y-82144091D01*
X81952127Y-82150500D01*
X82325500Y-82150499D01*
X82392539Y-82170183D01*
X82438294Y-82222987D01*
X82449500Y-82274499D01*
X82449500Y-83725500D01*
X82429815Y-83792539D01*
X82377011Y-83838294D01*
X82325500Y-83849500D01*
X81752129Y-83849500D01*
X81752123Y-83849501D01*
X81692516Y-83855908D01*
X81557671Y-83906202D01*
X81557664Y-83906206D01*
X81442455Y-83992452D01*
X81442452Y-83992455D01*
X81356206Y-84107664D01*
X81356202Y-84107671D01*
X81305908Y-84242517D01*
X81299501Y-84302116D01*
X81299501Y-84302123D01*
X81299500Y-84302135D01*
X81299500Y-84325500D01*
X81279815Y-84392539D01*
X81227011Y-84438294D01*
X81175500Y-84449500D01*
X80927525Y-84449500D01*
X80839864Y-84472989D01*
X80787514Y-84487016D01*
X80661987Y-84559488D01*
X80512180Y-84709295D01*
X80450857Y-84742779D01*
X80381165Y-84737795D01*
X80325232Y-84695923D01*
X80300815Y-84630459D01*
X80300499Y-84621613D01*
X80300499Y-84302129D01*
X80300498Y-84302123D01*
X80300497Y-84302116D01*
X80294091Y-84242517D01*
X80285851Y-84220425D01*
X80243797Y-84107671D01*
X80243793Y-84107664D01*
X80157547Y-83992455D01*
X80157544Y-83992452D01*
X80042335Y-83906206D01*
X80042328Y-83906202D01*
X79907482Y-83855908D01*
X79907483Y-83855908D01*
X79847883Y-83849501D01*
X79847881Y-83849500D01*
X79847873Y-83849500D01*
X79847865Y-83849500D01*
X79362628Y-83849500D01*
X79295589Y-83829815D01*
X79255240Y-83787499D01*
X79240510Y-83761985D01*
X77866206Y-82387681D01*
X77861868Y-82379737D01*
X77854621Y-82374312D01*
X77845384Y-82349549D01*
X77832721Y-82326358D01*
X77833366Y-82317329D01*
X77830203Y-82308848D01*
X77835819Y-82283026D01*
X77837705Y-82256666D01*
X77843523Y-82247612D01*
X77845054Y-82240575D01*
X77866204Y-82212320D01*
X77871210Y-82207314D01*
X77891706Y-82186817D01*
X77953027Y-82153333D01*
X77979377Y-82150499D01*
X80047872Y-82150499D01*
X80107483Y-82144091D01*
X80242331Y-82093796D01*
X80357546Y-82007546D01*
X80443796Y-81892331D01*
X80494091Y-81757483D01*
X80500500Y-81697873D01*
X80500499Y-80302128D01*
X80495299Y-80253757D01*
X80494091Y-80242516D01*
X80443797Y-80107671D01*
X80443793Y-80107664D01*
X80357547Y-79992455D01*
X80357544Y-79992452D01*
X80242335Y-79906206D01*
X80242328Y-79906202D01*
X80107482Y-79855908D01*
X80107483Y-79855908D01*
X80047883Y-79849501D01*
X80047881Y-79849500D01*
X80047873Y-79849500D01*
X80047864Y-79849500D01*
X77952129Y-79849500D01*
X77952123Y-79849501D01*
X77892516Y-79855908D01*
X77757671Y-79906202D01*
X77757664Y-79906206D01*
X77642455Y-79992452D01*
X77642452Y-79992455D01*
X77556206Y-80107664D01*
X77556202Y-80107671D01*
X77505908Y-80242517D01*
X77499501Y-80302116D01*
X77499501Y-80302123D01*
X77499500Y-80302135D01*
X77499500Y-80970612D01*
X77479815Y-81037651D01*
X77463181Y-81058293D01*
X77212181Y-81309293D01*
X77150858Y-81342778D01*
X77081166Y-81337794D01*
X77025233Y-81295922D01*
X77000816Y-81230458D01*
X77000500Y-81221612D01*
X77000500Y-79225323D01*
X77000499Y-79225321D01*
X76985967Y-79152264D01*
X76985966Y-79152260D01*
X76969439Y-79127525D01*
X76930601Y-79069399D01*
X76847740Y-79014034D01*
X76847739Y-79014033D01*
X76847735Y-79014032D01*
X76774677Y-78999500D01*
X76774674Y-78999500D01*
X74225326Y-78999500D01*
X74225323Y-78999500D01*
X74152264Y-79014032D01*
X74152260Y-79014033D01*
X74069399Y-79069399D01*
X74014033Y-79152260D01*
X74014032Y-79152264D01*
X73999500Y-79225321D01*
X73999500Y-81625500D01*
X73979815Y-81692539D01*
X73927011Y-81738294D01*
X73875500Y-81749500D01*
X70579387Y-81749500D01*
X70512348Y-81729815D01*
X70491706Y-81713181D01*
X70036819Y-81258294D01*
X70003334Y-81196971D01*
X70000500Y-81170613D01*
X70000500Y-79225323D01*
X70000499Y-79225321D01*
X69985967Y-79152264D01*
X69985966Y-79152260D01*
X69969439Y-79127525D01*
X69930601Y-79069399D01*
X69847740Y-79014034D01*
X69847739Y-79014033D01*
X69847735Y-79014032D01*
X69774677Y-78999500D01*
X69774674Y-78999500D01*
X67829387Y-78999500D01*
X67762348Y-78979815D01*
X67741706Y-78963181D01*
X67338016Y-78559491D01*
X67338015Y-78559490D01*
X67212485Y-78487016D01*
X67133650Y-78465892D01*
X67133649Y-78465891D01*
X67088866Y-78453892D01*
X67072475Y-78449500D01*
X67072474Y-78449500D01*
X65257791Y-78449500D01*
X65190752Y-78429815D01*
X65144997Y-78377011D01*
X65141609Y-78368833D01*
X65118797Y-78307671D01*
X65118793Y-78307664D01*
X65032547Y-78192455D01*
X65032544Y-78192452D01*
X64917335Y-78106206D01*
X64917328Y-78106202D01*
X64782486Y-78055910D01*
X64782485Y-78055909D01*
X64782483Y-78055909D01*
X64722873Y-78049500D01*
X64722863Y-78049500D01*
X64102129Y-78049500D01*
X64102123Y-78049501D01*
X64042516Y-78055908D01*
X63907671Y-78106202D01*
X63907664Y-78106206D01*
X63792455Y-78192452D01*
X63792452Y-78192455D01*
X63706206Y-78307664D01*
X63706202Y-78307671D01*
X63655908Y-78442517D01*
X63649501Y-78502116D01*
X63649501Y-78502123D01*
X63649500Y-78502135D01*
X63649500Y-79497870D01*
X63649501Y-79497876D01*
X63655908Y-79557483D01*
X63706202Y-79692328D01*
X63706206Y-79692335D01*
X63792452Y-79807544D01*
X63792455Y-79807547D01*
X63907664Y-79893793D01*
X63907671Y-79893797D01*
X63940942Y-79906206D01*
X64042517Y-79944091D01*
X64102127Y-79950500D01*
X64722872Y-79950499D01*
X64782483Y-79944091D01*
X64917331Y-79893796D01*
X65032546Y-79807546D01*
X65118796Y-79692331D01*
X65129831Y-79662745D01*
X65141609Y-79631167D01*
X65183480Y-79575233D01*
X65248944Y-79550816D01*
X65257791Y-79550500D01*
X66720613Y-79550500D01*
X66750053Y-79559144D01*
X66780040Y-79565668D01*
X66785055Y-79569422D01*
X66787652Y-79570185D01*
X66808294Y-79586819D01*
X66963181Y-79741706D01*
X66996666Y-79803029D01*
X66999500Y-79829387D01*
X66999500Y-81774678D01*
X67014032Y-81847735D01*
X67014033Y-81847739D01*
X67032405Y-81875235D01*
X67069399Y-81930601D01*
X67152260Y-81985966D01*
X67152264Y-81985967D01*
X67225321Y-82000499D01*
X67225324Y-82000500D01*
X67225326Y-82000500D01*
X69170613Y-82000500D01*
X69237652Y-82020185D01*
X69258294Y-82036819D01*
X69961985Y-82740510D01*
X69961986Y-82740511D01*
X69961988Y-82740512D01*
X70053454Y-82793319D01*
X70078309Y-82807669D01*
X70087515Y-82812984D01*
X70227525Y-82850500D01*
X76720613Y-82850500D01*
X76787652Y-82870185D01*
X76808294Y-82886819D01*
X77617893Y-83696418D01*
X77651378Y-83757741D01*
X77646394Y-83827433D01*
X77604522Y-83883366D01*
X77573550Y-83900279D01*
X77557674Y-83906200D01*
X77557664Y-83906206D01*
X77442455Y-83992452D01*
X77442452Y-83992455D01*
X77356206Y-84107664D01*
X77356202Y-84107671D01*
X77305908Y-84242517D01*
X77299501Y-84302116D01*
X77299501Y-84302123D01*
X77299500Y-84302135D01*
X77299500Y-85697870D01*
X77299501Y-85697876D01*
X77305908Y-85757483D01*
X77356202Y-85892328D01*
X77356206Y-85892335D01*
X77442452Y-86007544D01*
X77442455Y-86007547D01*
X77557664Y-86093793D01*
X77557671Y-86093797D01*
X77692517Y-86144091D01*
X77692516Y-86144091D01*
X77699444Y-86144835D01*
X77752127Y-86150500D01*
X79371613Y-86150499D01*
X79438652Y-86170184D01*
X79484407Y-86222987D01*
X79494351Y-86292146D01*
X79465326Y-86355702D01*
X79459294Y-86362180D01*
X78908294Y-86913181D01*
X78846971Y-86946666D01*
X78820613Y-86949500D01*
X78727525Y-86949500D01*
X78624477Y-86977112D01*
X78587514Y-86987016D01*
X78461986Y-87059489D01*
X78461983Y-87059491D01*
X77212181Y-88309294D01*
X77150858Y-88342779D01*
X77081166Y-88337795D01*
X77025233Y-88295923D01*
X77000816Y-88230459D01*
X77000500Y-88221613D01*
X77000500Y-86225323D01*
X77000499Y-86225321D01*
X76985967Y-86152264D01*
X76985966Y-86152260D01*
X76976292Y-86137782D01*
X76930601Y-86069399D01*
X76847740Y-86014034D01*
X76847739Y-86014033D01*
X76847735Y-86014032D01*
X76774677Y-85999500D01*
X76774674Y-85999500D01*
X74225326Y-85999500D01*
X74225323Y-85999500D01*
X74152264Y-86014032D01*
X74152260Y-86014033D01*
X74069399Y-86069399D01*
X74014033Y-86152260D01*
X74014032Y-86152264D01*
X73999500Y-86225321D01*
X73999500Y-88625500D01*
X73979815Y-88692539D01*
X73927011Y-88738294D01*
X73875500Y-88749500D01*
X70579387Y-88749500D01*
X70512348Y-88729815D01*
X70491706Y-88713181D01*
X70036819Y-88258294D01*
X70003334Y-88196971D01*
X70000500Y-88170613D01*
X70000500Y-86225323D01*
X70000499Y-86225321D01*
X69985967Y-86152264D01*
X69985966Y-86152260D01*
X69976292Y-86137782D01*
X69930601Y-86069399D01*
X69847740Y-86014034D01*
X69847739Y-86014033D01*
X69847735Y-86014032D01*
X69774677Y-85999500D01*
X69774674Y-85999500D01*
X67829386Y-85999500D01*
X67762347Y-85979815D01*
X67741705Y-85963181D01*
X63336007Y-81557483D01*
X58924244Y-77145719D01*
X58893994Y-77096356D01*
X58844232Y-76943203D01*
X58775174Y-76807669D01*
X58740579Y-76739772D01*
X58606379Y-76555063D01*
X58444937Y-76393621D01*
X58260228Y-76259421D01*
X58056803Y-76155770D01*
X57839660Y-76085215D01*
X57614162Y-76049500D01*
X57614157Y-76049500D01*
X57385843Y-76049500D01*
X57385838Y-76049500D01*
X57160339Y-76085215D01*
X56943196Y-76155770D01*
X56739771Y-76259421D01*
X56555061Y-76393622D01*
X56555060Y-76393623D01*
X56512181Y-76436503D01*
X56450858Y-76469988D01*
X56381166Y-76465004D01*
X56325233Y-76423132D01*
X56300816Y-76357668D01*
X56300500Y-76348822D01*
X56300500Y-72458675D01*
X56320185Y-72391636D01*
X56336815Y-72370998D01*
X56829378Y-71878434D01*
X56890699Y-71844951D01*
X56955372Y-71848185D01*
X57092330Y-71892686D01*
X57160339Y-71914784D01*
X57385838Y-71950500D01*
X57385843Y-71950500D01*
X57614162Y-71950500D01*
X57839660Y-71914784D01*
X57907670Y-71892686D01*
X58056799Y-71844231D01*
X58260228Y-71740579D01*
X58444937Y-71606379D01*
X58606379Y-71444937D01*
X58740579Y-71260228D01*
X58844231Y-71056799D01*
X58914784Y-70839660D01*
X58917822Y-70820477D01*
X58950500Y-70614162D01*
X58950500Y-70385837D01*
X58914784Y-70160339D01*
X58855255Y-69977129D01*
X58844231Y-69943201D01*
X58844229Y-69943198D01*
X58844229Y-69943196D01*
X58762436Y-69782669D01*
X58740579Y-69739772D01*
X58606379Y-69555063D01*
X58444937Y-69393621D01*
X58260228Y-69259421D01*
X58201650Y-69229574D01*
X58056803Y-69155770D01*
X57839660Y-69085215D01*
X57614162Y-69049500D01*
X57614157Y-69049500D01*
X57385843Y-69049500D01*
X57385838Y-69049500D01*
X57160339Y-69085215D01*
X56943196Y-69155770D01*
X56739771Y-69259421D01*
X56555061Y-69393622D01*
X56393622Y-69555061D01*
X56259421Y-69739771D01*
X56155770Y-69943196D01*
X56085215Y-70160339D01*
X56049500Y-70385837D01*
X56049500Y-70614162D01*
X56085215Y-70839660D01*
X56111380Y-70920185D01*
X56151813Y-71044623D01*
X56153808Y-71114463D01*
X56121563Y-71170622D01*
X55492686Y-71799500D01*
X55399502Y-71892683D01*
X55399500Y-71892686D01*
X55333608Y-72006812D01*
X55311984Y-72087515D01*
X55299500Y-72134108D01*
X50200500Y-72134108D01*
X50200500Y-66885837D01*
X56049500Y-66885837D01*
X56049500Y-67114162D01*
X56085215Y-67339660D01*
X56155770Y-67556803D01*
X56247918Y-67737652D01*
X56259421Y-67760228D01*
X56393621Y-67944937D01*
X56555063Y-68106379D01*
X56739772Y-68240579D01*
X56835884Y-68289550D01*
X56943196Y-68344229D01*
X56943198Y-68344229D01*
X56943201Y-68344231D01*
X57059592Y-68382049D01*
X57160339Y-68414784D01*
X57385838Y-68450500D01*
X57385843Y-68450500D01*
X57614162Y-68450500D01*
X57775230Y-68424988D01*
X57839660Y-68414784D01*
X57991257Y-68365526D01*
X58061093Y-68363531D01*
X58117252Y-68395777D01*
X62013181Y-72291706D01*
X62046666Y-72353029D01*
X62049500Y-72379387D01*
X62049500Y-78068964D01*
X62029815Y-78136003D01*
X61999812Y-78168230D01*
X61967457Y-78192450D01*
X61967451Y-78192457D01*
X61881206Y-78307664D01*
X61881202Y-78307671D01*
X61830908Y-78442517D01*
X61824501Y-78502116D01*
X61824501Y-78502123D01*
X61824500Y-78502135D01*
X61824500Y-79497870D01*
X61824501Y-79497876D01*
X61830908Y-79557483D01*
X61881202Y-79692328D01*
X61881206Y-79692335D01*
X61967452Y-79807544D01*
X61967455Y-79807547D01*
X62082664Y-79893793D01*
X62082671Y-79893797D01*
X62115942Y-79906206D01*
X62217517Y-79944091D01*
X62277127Y-79950500D01*
X62897872Y-79950499D01*
X62957483Y-79944091D01*
X63092331Y-79893796D01*
X63207546Y-79807546D01*
X63293796Y-79692331D01*
X63344091Y-79557483D01*
X63350500Y-79497873D01*
X63350499Y-78502128D01*
X63344842Y-78449500D01*
X63344091Y-78442516D01*
X63293797Y-78307671D01*
X63293793Y-78307664D01*
X63228987Y-78221095D01*
X63207546Y-78192454D01*
X63207541Y-78192450D01*
X63207540Y-78192449D01*
X63200187Y-78186944D01*
X63158317Y-78131009D01*
X63150500Y-78087679D01*
X63150500Y-72027527D01*
X63150500Y-72027525D01*
X63112984Y-71887515D01*
X63104301Y-71872475D01*
X63104299Y-71872471D01*
X63104299Y-71872470D01*
X63040512Y-71761988D01*
X63040508Y-71761983D01*
X58895777Y-67617252D01*
X58862292Y-67555929D01*
X58865526Y-67491257D01*
X58914784Y-67339660D01*
X58927577Y-67258886D01*
X58950500Y-67114162D01*
X58950500Y-66885837D01*
X58914784Y-66660339D01*
X58881364Y-66557483D01*
X58844231Y-66443201D01*
X58844229Y-66443198D01*
X58844229Y-66443196D01*
X58756707Y-66271426D01*
X58740579Y-66239772D01*
X58606379Y-66055063D01*
X58444937Y-65893621D01*
X58260228Y-65759421D01*
X58247086Y-65752725D01*
X58056803Y-65655770D01*
X57839660Y-65585215D01*
X57614162Y-65549500D01*
X57614157Y-65549500D01*
X57385843Y-65549500D01*
X57385838Y-65549500D01*
X57160339Y-65585215D01*
X56943196Y-65655770D01*
X56739771Y-65759421D01*
X56555061Y-65893622D01*
X56393622Y-66055061D01*
X56259421Y-66239771D01*
X56155770Y-66443196D01*
X56085215Y-66660339D01*
X56049500Y-66885837D01*
X50200500Y-66885837D01*
X50200500Y-56568617D01*
X50220185Y-56501578D01*
X50272989Y-56455823D01*
X50315233Y-56444964D01*
X50722733Y-56414426D01*
X50769215Y-56407419D01*
X51200062Y-56342480D01*
X51670680Y-56235064D01*
X51852768Y-56178897D01*
X52131951Y-56092782D01*
X52131953Y-56092780D01*
X52131956Y-56092780D01*
X52581308Y-55916422D01*
X53016225Y-55706977D01*
X53434274Y-55465616D01*
X53833117Y-55193690D01*
X54210524Y-54892718D01*
X54500092Y-54624038D01*
X58149500Y-54624038D01*
X58149500Y-54875962D01*
X58188910Y-55124785D01*
X58266760Y-55364383D01*
X58381132Y-55588848D01*
X58529201Y-55792649D01*
X58529205Y-55792654D01*
X58707345Y-55970794D01*
X58707350Y-55970798D01*
X58856997Y-56079522D01*
X58911155Y-56118870D01*
X59054184Y-56191747D01*
X59135616Y-56233239D01*
X59135618Y-56233239D01*
X59135621Y-56233241D01*
X59375215Y-56311090D01*
X59624038Y-56350500D01*
X59624039Y-56350500D01*
X59875961Y-56350500D01*
X59875962Y-56350500D01*
X60124785Y-56311090D01*
X60364379Y-56233241D01*
X60588845Y-56118870D01*
X60792656Y-55970793D01*
X60970793Y-55792656D01*
X61118870Y-55588845D01*
X61233241Y-55364379D01*
X61311090Y-55124785D01*
X61350500Y-54875962D01*
X61350500Y-54624038D01*
X61311090Y-54375215D01*
X61233241Y-54135621D01*
X61233239Y-54135618D01*
X61233239Y-54135616D01*
X61191747Y-54054184D01*
X61118870Y-53911155D01*
X61021773Y-53777512D01*
X60970798Y-53707350D01*
X60970794Y-53707345D01*
X60792654Y-53529205D01*
X60792649Y-53529201D01*
X60588848Y-53381132D01*
X60588847Y-53381131D01*
X60588845Y-53381130D01*
X60518747Y-53345413D01*
X60364383Y-53266760D01*
X60124785Y-53188910D01*
X59875962Y-53149500D01*
X59624038Y-53149500D01*
X59552346Y-53160855D01*
X59375214Y-53188910D01*
X59135616Y-53266760D01*
X58911151Y-53381132D01*
X58707350Y-53529201D01*
X58707345Y-53529205D01*
X58529205Y-53707345D01*
X58529201Y-53707350D01*
X58381132Y-53911151D01*
X58266760Y-54135616D01*
X58225191Y-54263553D01*
X58188910Y-54375215D01*
X58149500Y-54624038D01*
X54500092Y-54624038D01*
X54564384Y-54564384D01*
X54892718Y-54210524D01*
X55193690Y-53833117D01*
X55465616Y-53434274D01*
X55706977Y-53016225D01*
X55867978Y-52681902D01*
X63999500Y-52681902D01*
X63999500Y-52918097D01*
X64036446Y-53151368D01*
X64109433Y-53375996D01*
X64196011Y-53545913D01*
X64216657Y-53586433D01*
X64355483Y-53777510D01*
X64522490Y-53944517D01*
X64713567Y-54083343D01*
X64812991Y-54134002D01*
X64924003Y-54190566D01*
X64924005Y-54190566D01*
X64924008Y-54190568D01*
X64985445Y-54210530D01*
X65148631Y-54263553D01*
X65381903Y-54300500D01*
X65381908Y-54300500D01*
X65618097Y-54300500D01*
X65851368Y-54263553D01*
X66075992Y-54190568D01*
X66286433Y-54083343D01*
X66477510Y-53944517D01*
X66644517Y-53777510D01*
X66783343Y-53586433D01*
X66890568Y-53375992D01*
X66890567Y-53375992D01*
X66892780Y-53371651D01*
X66893986Y-53372265D01*
X66933962Y-53322650D01*
X67000254Y-53300579D01*
X67004692Y-53300500D01*
X68723560Y-53300500D01*
X68790599Y-53320185D01*
X68836354Y-53372989D01*
X68839742Y-53381167D01*
X68881202Y-53492328D01*
X68881206Y-53492335D01*
X68967452Y-53607544D01*
X68967455Y-53607547D01*
X69082664Y-53693793D01*
X69082671Y-53693797D01*
X69118993Y-53707344D01*
X69217517Y-53744091D01*
X69277127Y-53750500D01*
X69897872Y-53750499D01*
X69957483Y-53744091D01*
X70092331Y-53693796D01*
X70207546Y-53607546D01*
X70293796Y-53492331D01*
X70344091Y-53357483D01*
X70350500Y-53297873D01*
X70350499Y-52302128D01*
X70345066Y-52251585D01*
X70344091Y-52242516D01*
X70293797Y-52107671D01*
X70293793Y-52107664D01*
X70207547Y-51992455D01*
X70207544Y-51992452D01*
X70092335Y-51906206D01*
X70092328Y-51906202D01*
X69957486Y-51855910D01*
X69957485Y-51855909D01*
X69957483Y-51855909D01*
X69897873Y-51849500D01*
X69897863Y-51849500D01*
X69277129Y-51849500D01*
X69277123Y-51849501D01*
X69217516Y-51855908D01*
X69082671Y-51906202D01*
X69082664Y-51906206D01*
X68967455Y-51992452D01*
X68967452Y-51992455D01*
X68881206Y-52107664D01*
X68881202Y-52107671D01*
X68839742Y-52218833D01*
X68797871Y-52274767D01*
X68732407Y-52299184D01*
X68723560Y-52299500D01*
X67004692Y-52299500D01*
X66937653Y-52279815D01*
X66892972Y-52228250D01*
X66892780Y-52228349D01*
X66892384Y-52227571D01*
X66891898Y-52227011D01*
X66890720Y-52224306D01*
X66840894Y-52126518D01*
X66783343Y-52013567D01*
X66644517Y-51822490D01*
X66477510Y-51655483D01*
X66286433Y-51516657D01*
X66075996Y-51409433D01*
X65851368Y-51336446D01*
X65618097Y-51299500D01*
X65618092Y-51299500D01*
X65381908Y-51299500D01*
X65381903Y-51299500D01*
X65148631Y-51336446D01*
X64924003Y-51409433D01*
X64713566Y-51516657D01*
X64604550Y-51595862D01*
X64522490Y-51655483D01*
X64522488Y-51655485D01*
X64522487Y-51655485D01*
X64355485Y-51822487D01*
X64355485Y-51822488D01*
X64355483Y-51822490D01*
X64331203Y-51855909D01*
X64216657Y-52013566D01*
X64109433Y-52224003D01*
X64036446Y-52448631D01*
X63999500Y-52681902D01*
X55867978Y-52681902D01*
X55916422Y-52581308D01*
X56092780Y-52131956D01*
X56093409Y-52129919D01*
X56192161Y-51809770D01*
X56235064Y-51670680D01*
X56342480Y-51200062D01*
X56414426Y-50722732D01*
X56444965Y-50315233D01*
X56469604Y-50249852D01*
X56525680Y-50208171D01*
X56568618Y-50200500D01*
X137931382Y-50200500D01*
X137998421Y-50220185D01*
G37*
%TD.AperFunction*%
%TD*%
D29*
X103500000Y-71000000D03*
X104800000Y-71800000D03*
X124100000Y-67800000D03*
X114500000Y-82600000D03*
X123100000Y-66800000D03*
X113500000Y-83600000D03*
X96800000Y-69200000D03*
X104300000Y-64200000D03*
X105800000Y-62700000D03*
X71000000Y-65000000D03*
X113000000Y-53000000D03*
X131000000Y-59000000D03*
X89000000Y-59000000D03*
X107000000Y-65000000D03*
X77000000Y-59000000D03*
X137000000Y-89000000D03*
X107000000Y-83000000D03*
X77000000Y-77000000D03*
X101000000Y-77000000D03*
X53000000Y-59000000D03*
X107000000Y-53000000D03*
X131000000Y-89000000D03*
X95000000Y-53000000D03*
X53000000Y-65000000D03*
X107000000Y-59000000D03*
X131000000Y-53000000D03*
X131000000Y-83000000D03*
X137000000Y-65000000D03*
X95000000Y-83000000D03*
X125000000Y-71000000D03*
X77000000Y-71000000D03*
X119000000Y-89000000D03*
X89000000Y-71000000D03*
X65000000Y-71000000D03*
X98830000Y-68310000D03*
X109250000Y-61500000D03*
X125000000Y-83000000D03*
X137000000Y-59000000D03*
X95000000Y-65000000D03*
X83000000Y-89000000D03*
X71000000Y-71000000D03*
X83000000Y-77000000D03*
X125000000Y-59000000D03*
X119000000Y-65000000D03*
X89000000Y-53000000D03*
X70910000Y-61100000D03*
X65000000Y-59000000D03*
X131000000Y-65000000D03*
X119000000Y-53000000D03*
X125000000Y-89000000D03*
X83000000Y-71000000D03*
X107000000Y-89000000D03*
X113000000Y-77000000D03*
X101000000Y-53000000D03*
X125000000Y-77000000D03*
X125000000Y-53000000D03*
X95000000Y-77000000D03*
X113000000Y-65000000D03*
X53000000Y-83000000D03*
X122210000Y-84000000D03*
X137000000Y-83000000D03*
X89000000Y-77000000D03*
X97640000Y-59900000D03*
X131000000Y-77000000D03*
X95000000Y-71000000D03*
X113000000Y-59000000D03*
X119000000Y-59000000D03*
X113000000Y-89000000D03*
X83000000Y-53000000D03*
X122250000Y-87500000D03*
X101000000Y-89000000D03*
X53000000Y-77000000D03*
X71000000Y-77000000D03*
X83000000Y-59000000D03*
X65000000Y-65000000D03*
X71000000Y-53000000D03*
X65000000Y-77000000D03*
X137000000Y-77000000D03*
X59000000Y-65000000D03*
X119000000Y-77000000D03*
X137000000Y-53000000D03*
X53000000Y-71000000D03*
X101000000Y-71000000D03*
X102500000Y-79200000D03*
X102500000Y-68200000D03*
X102200000Y-64800000D03*
X89300000Y-61800000D03*
X101700000Y-69200000D03*
X104800000Y-79200000D03*
X88400000Y-62700000D03*
X101300000Y-63900000D03*
X105500000Y-72300000D03*
X104300000Y-69200000D03*
X67500000Y-61700000D03*
X59700000Y-62200000D03*
X68800000Y-61700000D03*
D30*
X59750000Y-54750000D03*
X134750000Y-54750000D03*
X57500000Y-60000000D03*
X57500000Y-63500000D03*
X57500000Y-67000000D03*
X57500000Y-70500000D03*
X57500000Y-74000000D03*
X57500000Y-77500000D03*
X57500000Y-81000000D03*
X57500000Y-84500000D03*
X134750000Y-89750000D03*
X59750000Y-89750000D03*
X139500000Y-70500000D03*
X139500000Y-73040000D03*
M02*
