%TF.GenerationSoftware,KiCad,Pcbnew,10.0.4-10.0.4~ubuntu24.04.1*%
%TF.CreationDate,2026-07-19T09:05:09-07:00*%
%TF.ProjectId,crow_array_pod,63726f77-5f61-4727-9261-795f706f642e,rev?*%
%TF.SameCoordinates,Original*%
%TF.FileFunction,Legend,Top*%
%TF.FilePolarity,Positive*%
%FSLAX46Y46*%
G04 Gerber Fmt 4.6, Leading zero omitted, Abs format (unit mm)*
G04 Created by KiCad (PCBNEW 10.0.4-10.0.4~ubuntu24.04.1) date 2026-07-19 09:05:09*
%MOMM*%
%LPD*%
G01*
G04 APERTURE LIST*
G04 Aperture macros list*
%AMRoundRect*
0 Rectangle with rounded corners*
0 $1 Rounding radius*
0 $2 $3 $4 $5 $6 $7 $8 $9 X,Y pos of 4 corners*
0 Add a 4 corners polygon primitive as box body*
4,1,4,$2,$3,$4,$5,$6,$7,$8,$9,$2,$3,0*
0 Add four circle primitives for the rounded corners*
1,1,$1+$1,$2,$3*
1,1,$1+$1,$4,$5*
1,1,$1+$1,$6,$7*
1,1,$1+$1,$8,$9*
0 Add four rect primitives between the rounded corners*
20,1,$1+$1,$2,$3,$4,$5,0*
20,1,$1+$1,$4,$5,$6,$7,0*
20,1,$1+$1,$6,$7,$8,$9,0*
20,1,$1+$1,$8,$9,$2,$3,0*%
G04 Aperture macros list end*
%ADD10C,0.130000*%
%ADD11C,0.144000*%
%ADD12C,0.176000*%
%ADD13C,0.120000*%
%ADD14C,0.150000*%
%ADD15RoundRect,0.250000X-0.262500X-0.450000X0.262500X-0.450000X0.262500X0.450000X-0.262500X0.450000X0*%
%ADD16RoundRect,0.250000X-1.000000X-0.650000X1.000000X-0.650000X1.000000X0.650000X-1.000000X0.650000X0*%
%ADD17RoundRect,0.250000X-0.250000X-0.475000X0.250000X-0.475000X0.250000X0.475000X-0.250000X0.475000X0*%
%ADD18C,2.500000*%
%ADD19C,3.250000*%
%ADD20R,1.500000X1.500000*%
%ADD21C,1.500000*%
%ADD22C,2.300000*%
%ADD23C,2.700000*%
%ADD24R,2.000000X1.200000*%
%ADD25RoundRect,0.250000X-1.500000X-0.550000X1.500000X-0.550000X1.500000X0.550000X-1.500000X0.550000X0*%
%ADD26R,2.500000X2.500000*%
%ADD27RoundRect,0.150000X-0.825000X-0.150000X0.825000X-0.150000X0.825000X0.150000X-0.825000X0.150000X0*%
%ADD28RoundRect,0.087500X-0.250000X-0.087500X0.250000X-0.087500X0.250000X0.087500X-0.250000X0.087500X0*%
%ADD29R,1.700000X1.700000*%
%ADD30C,1.700000*%
G04 APERTURE END LIST*
D10*
X64057143Y-54942240D02*
X64142858Y-54970811D01*
X64142858Y-54970811D02*
X64285715Y-54970811D01*
X64285715Y-54970811D02*
X64342858Y-54942240D01*
X64342858Y-54942240D02*
X64371429Y-54913668D01*
X64371429Y-54913668D02*
X64400000Y-54856525D01*
X64400000Y-54856525D02*
X64400000Y-54799382D01*
X64400000Y-54799382D02*
X64371429Y-54742240D01*
X64371429Y-54742240D02*
X64342858Y-54713668D01*
X64342858Y-54713668D02*
X64285715Y-54685097D01*
X64285715Y-54685097D02*
X64171429Y-54656525D01*
X64171429Y-54656525D02*
X64114286Y-54627954D01*
X64114286Y-54627954D02*
X64085715Y-54599382D01*
X64085715Y-54599382D02*
X64057143Y-54542240D01*
X64057143Y-54542240D02*
X64057143Y-54485097D01*
X64057143Y-54485097D02*
X64085715Y-54427954D01*
X64085715Y-54427954D02*
X64114286Y-54399382D01*
X64114286Y-54399382D02*
X64171429Y-54370811D01*
X64171429Y-54370811D02*
X64314286Y-54370811D01*
X64314286Y-54370811D02*
X64400000Y-54399382D01*
X64657144Y-54970811D02*
X64657144Y-54370811D01*
X64657144Y-54656525D02*
X65000001Y-54656525D01*
X65000001Y-54970811D02*
X65000001Y-54370811D01*
X65285715Y-54970811D02*
X65285715Y-54370811D01*
X65571429Y-54656525D02*
X65771429Y-54656525D01*
X65857143Y-54970811D02*
X65571429Y-54970811D01*
X65571429Y-54970811D02*
X65571429Y-54370811D01*
X65571429Y-54370811D02*
X65857143Y-54370811D01*
X66400000Y-54970811D02*
X66114286Y-54970811D01*
X66114286Y-54970811D02*
X66114286Y-54370811D01*
X66600000Y-54970811D02*
X66600000Y-54370811D01*
X66600000Y-54370811D02*
X66742857Y-54370811D01*
X66742857Y-54370811D02*
X66828571Y-54399382D01*
X66828571Y-54399382D02*
X66885714Y-54456525D01*
X66885714Y-54456525D02*
X66914285Y-54513668D01*
X66914285Y-54513668D02*
X66942857Y-54627954D01*
X66942857Y-54627954D02*
X66942857Y-54713668D01*
X66942857Y-54713668D02*
X66914285Y-54827954D01*
X66914285Y-54827954D02*
X66885714Y-54885097D01*
X66885714Y-54885097D02*
X66828571Y-54942240D01*
X66828571Y-54942240D02*
X66742857Y-54970811D01*
X66742857Y-54970811D02*
X66600000Y-54970811D01*
X73871428Y-54799382D02*
X74157143Y-54799382D01*
X73814285Y-54970811D02*
X74014285Y-54370811D01*
X74014285Y-54370811D02*
X74214285Y-54970811D01*
X74414286Y-54370811D02*
X74414286Y-54856525D01*
X74414286Y-54856525D02*
X74442857Y-54913668D01*
X74442857Y-54913668D02*
X74471429Y-54942240D01*
X74471429Y-54942240D02*
X74528571Y-54970811D01*
X74528571Y-54970811D02*
X74642857Y-54970811D01*
X74642857Y-54970811D02*
X74700000Y-54942240D01*
X74700000Y-54942240D02*
X74728571Y-54913668D01*
X74728571Y-54913668D02*
X74757143Y-54856525D01*
X74757143Y-54856525D02*
X74757143Y-54370811D01*
X75042857Y-54970811D02*
X75042857Y-54370811D01*
X75042857Y-54370811D02*
X75185714Y-54370811D01*
X75185714Y-54370811D02*
X75271428Y-54399382D01*
X75271428Y-54399382D02*
X75328571Y-54456525D01*
X75328571Y-54456525D02*
X75357142Y-54513668D01*
X75357142Y-54513668D02*
X75385714Y-54627954D01*
X75385714Y-54627954D02*
X75385714Y-54713668D01*
X75385714Y-54713668D02*
X75357142Y-54827954D01*
X75357142Y-54827954D02*
X75328571Y-54885097D01*
X75328571Y-54885097D02*
X75271428Y-54942240D01*
X75271428Y-54942240D02*
X75185714Y-54970811D01*
X75185714Y-54970811D02*
X75042857Y-54970811D01*
X75642857Y-54742240D02*
X76100000Y-54742240D01*
X75871428Y-54970811D02*
X75871428Y-54513668D01*
X78642857Y-87870811D02*
X78642857Y-87270811D01*
X78985714Y-87870811D02*
X78728571Y-87527954D01*
X78985714Y-87270811D02*
X78642857Y-87613668D01*
X78842857Y-78670811D02*
X78842857Y-78070811D01*
X79185714Y-78670811D02*
X78928571Y-78327954D01*
X79185714Y-78070811D02*
X78842857Y-78413668D01*
X79371428Y-54799382D02*
X79657143Y-54799382D01*
X79314285Y-54970811D02*
X79514285Y-54370811D01*
X79514285Y-54370811D02*
X79714285Y-54970811D01*
X79914286Y-54370811D02*
X79914286Y-54856525D01*
X79914286Y-54856525D02*
X79942857Y-54913668D01*
X79942857Y-54913668D02*
X79971429Y-54942240D01*
X79971429Y-54942240D02*
X80028571Y-54970811D01*
X80028571Y-54970811D02*
X80142857Y-54970811D01*
X80142857Y-54970811D02*
X80200000Y-54942240D01*
X80200000Y-54942240D02*
X80228571Y-54913668D01*
X80228571Y-54913668D02*
X80257143Y-54856525D01*
X80257143Y-54856525D02*
X80257143Y-54370811D01*
X80542857Y-54970811D02*
X80542857Y-54370811D01*
X80542857Y-54370811D02*
X80685714Y-54370811D01*
X80685714Y-54370811D02*
X80771428Y-54399382D01*
X80771428Y-54399382D02*
X80828571Y-54456525D01*
X80828571Y-54456525D02*
X80857142Y-54513668D01*
X80857142Y-54513668D02*
X80885714Y-54627954D01*
X80885714Y-54627954D02*
X80885714Y-54713668D01*
X80885714Y-54713668D02*
X80857142Y-54827954D01*
X80857142Y-54827954D02*
X80828571Y-54885097D01*
X80828571Y-54885097D02*
X80771428Y-54942240D01*
X80771428Y-54942240D02*
X80685714Y-54970811D01*
X80685714Y-54970811D02*
X80542857Y-54970811D01*
X81142857Y-54742240D02*
X81600000Y-54742240D01*
X78942856Y-89870811D02*
X79285714Y-89870811D01*
X79114285Y-90470811D02*
X79114285Y-89870811D01*
X79399999Y-89870811D02*
X79599999Y-90470811D01*
X79599999Y-90470811D02*
X79799999Y-89870811D01*
X79971428Y-90442240D02*
X80057143Y-90470811D01*
X80057143Y-90470811D02*
X80200000Y-90470811D01*
X80200000Y-90470811D02*
X80257143Y-90442240D01*
X80257143Y-90442240D02*
X80285714Y-90413668D01*
X80285714Y-90413668D02*
X80314285Y-90356525D01*
X80314285Y-90356525D02*
X80314285Y-90299382D01*
X80314285Y-90299382D02*
X80285714Y-90242240D01*
X80285714Y-90242240D02*
X80257143Y-90213668D01*
X80257143Y-90213668D02*
X80200000Y-90185097D01*
X80200000Y-90185097D02*
X80085714Y-90156525D01*
X80085714Y-90156525D02*
X80028571Y-90127954D01*
X80028571Y-90127954D02*
X80000000Y-90099382D01*
X80000000Y-90099382D02*
X79971428Y-90042240D01*
X79971428Y-90042240D02*
X79971428Y-89985097D01*
X79971428Y-89985097D02*
X80000000Y-89927954D01*
X80000000Y-89927954D02*
X80028571Y-89899382D01*
X80028571Y-89899382D02*
X80085714Y-89870811D01*
X80085714Y-89870811D02*
X80228571Y-89870811D01*
X80228571Y-89870811D02*
X80314285Y-89899382D01*
X81028572Y-90470811D02*
X81028572Y-89870811D01*
X81028572Y-89870811D02*
X81171429Y-89870811D01*
X81171429Y-89870811D02*
X81257143Y-89899382D01*
X81257143Y-89899382D02*
X81314286Y-89956525D01*
X81314286Y-89956525D02*
X81342857Y-90013668D01*
X81342857Y-90013668D02*
X81371429Y-90127954D01*
X81371429Y-90127954D02*
X81371429Y-90213668D01*
X81371429Y-90213668D02*
X81342857Y-90327954D01*
X81342857Y-90327954D02*
X81314286Y-90385097D01*
X81314286Y-90385097D02*
X81257143Y-90442240D01*
X81257143Y-90442240D02*
X81171429Y-90470811D01*
X81171429Y-90470811D02*
X81028572Y-90470811D01*
X81628572Y-90470811D02*
X81628572Y-89870811D01*
X81628572Y-89870811D02*
X81971429Y-90470811D01*
X81971429Y-90470811D02*
X81971429Y-89870811D01*
X82257143Y-90470811D02*
X82257143Y-89870811D01*
X82257143Y-89870811D02*
X82485714Y-89870811D01*
X82485714Y-89870811D02*
X82542857Y-89899382D01*
X82542857Y-89899382D02*
X82571428Y-89927954D01*
X82571428Y-89927954D02*
X82600000Y-89985097D01*
X82600000Y-89985097D02*
X82600000Y-90070811D01*
X82600000Y-90070811D02*
X82571428Y-90127954D01*
X82571428Y-90127954D02*
X82542857Y-90156525D01*
X82542857Y-90156525D02*
X82485714Y-90185097D01*
X82485714Y-90185097D02*
X82257143Y-90185097D01*
X82428571Y-78356525D02*
X82228571Y-78356525D01*
X82228571Y-78670811D02*
X82228571Y-78070811D01*
X82228571Y-78070811D02*
X82514285Y-78070811D01*
X83028571Y-78670811D02*
X82742857Y-78670811D01*
X82742857Y-78670811D02*
X82742857Y-78070811D01*
X83342856Y-78385097D02*
X83342856Y-78670811D01*
X83142856Y-78070811D02*
X83342856Y-78385097D01*
X83342856Y-78385097D02*
X83542856Y-78070811D01*
X83942857Y-78356525D02*
X84028571Y-78385097D01*
X84028571Y-78385097D02*
X84057142Y-78413668D01*
X84057142Y-78413668D02*
X84085714Y-78470811D01*
X84085714Y-78470811D02*
X84085714Y-78556525D01*
X84085714Y-78556525D02*
X84057142Y-78613668D01*
X84057142Y-78613668D02*
X84028571Y-78642240D01*
X84028571Y-78642240D02*
X83971428Y-78670811D01*
X83971428Y-78670811D02*
X83742857Y-78670811D01*
X83742857Y-78670811D02*
X83742857Y-78070811D01*
X83742857Y-78070811D02*
X83942857Y-78070811D01*
X83942857Y-78070811D02*
X84000000Y-78099382D01*
X84000000Y-78099382D02*
X84028571Y-78127954D01*
X84028571Y-78127954D02*
X84057142Y-78185097D01*
X84057142Y-78185097D02*
X84057142Y-78242240D01*
X84057142Y-78242240D02*
X84028571Y-78299382D01*
X84028571Y-78299382D02*
X84000000Y-78327954D01*
X84000000Y-78327954D02*
X83942857Y-78356525D01*
X83942857Y-78356525D02*
X83742857Y-78356525D01*
X84314285Y-78499382D02*
X84600000Y-78499382D01*
X84257142Y-78670811D02*
X84457142Y-78070811D01*
X84457142Y-78070811D02*
X84657142Y-78670811D01*
X85200000Y-78613668D02*
X85171428Y-78642240D01*
X85171428Y-78642240D02*
X85085714Y-78670811D01*
X85085714Y-78670811D02*
X85028571Y-78670811D01*
X85028571Y-78670811D02*
X84942857Y-78642240D01*
X84942857Y-78642240D02*
X84885714Y-78585097D01*
X84885714Y-78585097D02*
X84857143Y-78527954D01*
X84857143Y-78527954D02*
X84828571Y-78413668D01*
X84828571Y-78413668D02*
X84828571Y-78327954D01*
X84828571Y-78327954D02*
X84857143Y-78213668D01*
X84857143Y-78213668D02*
X84885714Y-78156525D01*
X84885714Y-78156525D02*
X84942857Y-78099382D01*
X84942857Y-78099382D02*
X85028571Y-78070811D01*
X85028571Y-78070811D02*
X85085714Y-78070811D01*
X85085714Y-78070811D02*
X85171428Y-78099382D01*
X85171428Y-78099382D02*
X85200000Y-78127954D01*
X85457143Y-78670811D02*
X85457143Y-78070811D01*
X85800000Y-78670811D02*
X85542857Y-78327954D01*
X85800000Y-78070811D02*
X85457143Y-78413668D01*
X102885714Y-90270811D02*
X102600000Y-90270811D01*
X102600000Y-90270811D02*
X102571428Y-90556525D01*
X102571428Y-90556525D02*
X102600000Y-90527954D01*
X102600000Y-90527954D02*
X102657143Y-90499382D01*
X102657143Y-90499382D02*
X102800000Y-90499382D01*
X102800000Y-90499382D02*
X102857143Y-90527954D01*
X102857143Y-90527954D02*
X102885714Y-90556525D01*
X102885714Y-90556525D02*
X102914285Y-90613668D01*
X102914285Y-90613668D02*
X102914285Y-90756525D01*
X102914285Y-90756525D02*
X102885714Y-90813668D01*
X102885714Y-90813668D02*
X102857143Y-90842240D01*
X102857143Y-90842240D02*
X102800000Y-90870811D01*
X102800000Y-90870811D02*
X102657143Y-90870811D01*
X102657143Y-90870811D02*
X102600000Y-90842240D01*
X102600000Y-90842240D02*
X102571428Y-90813668D01*
X103085714Y-90270811D02*
X103285714Y-90870811D01*
X103285714Y-90870811D02*
X103485714Y-90270811D01*
X108042857Y-90299382D02*
X107985715Y-90270811D01*
X107985715Y-90270811D02*
X107900000Y-90270811D01*
X107900000Y-90270811D02*
X107814286Y-90299382D01*
X107814286Y-90299382D02*
X107757143Y-90356525D01*
X107757143Y-90356525D02*
X107728572Y-90413668D01*
X107728572Y-90413668D02*
X107700000Y-90527954D01*
X107700000Y-90527954D02*
X107700000Y-90613668D01*
X107700000Y-90613668D02*
X107728572Y-90727954D01*
X107728572Y-90727954D02*
X107757143Y-90785097D01*
X107757143Y-90785097D02*
X107814286Y-90842240D01*
X107814286Y-90842240D02*
X107900000Y-90870811D01*
X107900000Y-90870811D02*
X107957143Y-90870811D01*
X107957143Y-90870811D02*
X108042857Y-90842240D01*
X108042857Y-90842240D02*
X108071429Y-90813668D01*
X108071429Y-90813668D02*
X108071429Y-90613668D01*
X108071429Y-90613668D02*
X107957143Y-90613668D01*
X108328572Y-90870811D02*
X108328572Y-90270811D01*
X108328572Y-90270811D02*
X108671429Y-90870811D01*
X108671429Y-90870811D02*
X108671429Y-90270811D01*
X108957143Y-90870811D02*
X108957143Y-90270811D01*
X108957143Y-90270811D02*
X109100000Y-90270811D01*
X109100000Y-90270811D02*
X109185714Y-90299382D01*
X109185714Y-90299382D02*
X109242857Y-90356525D01*
X109242857Y-90356525D02*
X109271428Y-90413668D01*
X109271428Y-90413668D02*
X109300000Y-90527954D01*
X109300000Y-90527954D02*
X109300000Y-90613668D01*
X109300000Y-90613668D02*
X109271428Y-90727954D01*
X109271428Y-90727954D02*
X109242857Y-90785097D01*
X109242857Y-90785097D02*
X109185714Y-90842240D01*
X109185714Y-90842240D02*
X109100000Y-90870811D01*
X109100000Y-90870811D02*
X108957143Y-90870811D01*
X125785713Y-87327954D02*
X125814285Y-87299382D01*
X125814285Y-87299382D02*
X125871428Y-87270811D01*
X125871428Y-87270811D02*
X126014285Y-87270811D01*
X126014285Y-87270811D02*
X126071428Y-87299382D01*
X126071428Y-87299382D02*
X126099999Y-87327954D01*
X126099999Y-87327954D02*
X126128570Y-87385097D01*
X126128570Y-87385097D02*
X126128570Y-87442240D01*
X126128570Y-87442240D02*
X126099999Y-87527954D01*
X126099999Y-87527954D02*
X125757142Y-87870811D01*
X125757142Y-87870811D02*
X126128570Y-87870811D01*
X126299999Y-87270811D02*
X126499999Y-87870811D01*
X126499999Y-87870811D02*
X126699999Y-87270811D01*
X127185714Y-87270811D02*
X126900000Y-87270811D01*
X126900000Y-87270811D02*
X126871428Y-87556525D01*
X126871428Y-87556525D02*
X126900000Y-87527954D01*
X126900000Y-87527954D02*
X126957143Y-87499382D01*
X126957143Y-87499382D02*
X127100000Y-87499382D01*
X127100000Y-87499382D02*
X127157143Y-87527954D01*
X127157143Y-87527954D02*
X127185714Y-87556525D01*
X127185714Y-87556525D02*
X127214285Y-87613668D01*
X127214285Y-87613668D02*
X127214285Y-87756525D01*
X127214285Y-87756525D02*
X127185714Y-87813668D01*
X127185714Y-87813668D02*
X127157143Y-87842240D01*
X127157143Y-87842240D02*
X127100000Y-87870811D01*
X127100000Y-87870811D02*
X126957143Y-87870811D01*
X126957143Y-87870811D02*
X126900000Y-87842240D01*
X126900000Y-87842240D02*
X126871428Y-87813668D01*
X134785715Y-70770811D02*
X134785715Y-70170811D01*
X134785715Y-70170811D02*
X134985715Y-70599382D01*
X134985715Y-70599382D02*
X135185715Y-70170811D01*
X135185715Y-70170811D02*
X135185715Y-70770811D01*
X135471429Y-70770811D02*
X135471429Y-70170811D01*
X136100000Y-70713668D02*
X136071428Y-70742240D01*
X136071428Y-70742240D02*
X135985714Y-70770811D01*
X135985714Y-70770811D02*
X135928571Y-70770811D01*
X135928571Y-70770811D02*
X135842857Y-70742240D01*
X135842857Y-70742240D02*
X135785714Y-70685097D01*
X135785714Y-70685097D02*
X135757143Y-70627954D01*
X135757143Y-70627954D02*
X135728571Y-70513668D01*
X135728571Y-70513668D02*
X135728571Y-70427954D01*
X135728571Y-70427954D02*
X135757143Y-70313668D01*
X135757143Y-70313668D02*
X135785714Y-70256525D01*
X135785714Y-70256525D02*
X135842857Y-70199382D01*
X135842857Y-70199382D02*
X135928571Y-70170811D01*
X135928571Y-70170811D02*
X135985714Y-70170811D01*
X135985714Y-70170811D02*
X136071428Y-70199382D01*
X136071428Y-70199382D02*
X136100000Y-70227954D01*
X136357143Y-70542240D02*
X136814286Y-70542240D01*
X136585714Y-70770811D02*
X136585714Y-70313668D01*
X134785715Y-73310811D02*
X134785715Y-72710811D01*
X134785715Y-72710811D02*
X134985715Y-73139382D01*
X134985715Y-73139382D02*
X135185715Y-72710811D01*
X135185715Y-72710811D02*
X135185715Y-73310811D01*
X135471429Y-73310811D02*
X135471429Y-72710811D01*
X136100000Y-73253668D02*
X136071428Y-73282240D01*
X136071428Y-73282240D02*
X135985714Y-73310811D01*
X135985714Y-73310811D02*
X135928571Y-73310811D01*
X135928571Y-73310811D02*
X135842857Y-73282240D01*
X135842857Y-73282240D02*
X135785714Y-73225097D01*
X135785714Y-73225097D02*
X135757143Y-73167954D01*
X135757143Y-73167954D02*
X135728571Y-73053668D01*
X135728571Y-73053668D02*
X135728571Y-72967954D01*
X135728571Y-72967954D02*
X135757143Y-72853668D01*
X135757143Y-72853668D02*
X135785714Y-72796525D01*
X135785714Y-72796525D02*
X135842857Y-72739382D01*
X135842857Y-72739382D02*
X135928571Y-72710811D01*
X135928571Y-72710811D02*
X135985714Y-72710811D01*
X135985714Y-72710811D02*
X136071428Y-72739382D01*
X136071428Y-72739382D02*
X136100000Y-72767954D01*
X136357143Y-73082240D02*
X136814286Y-73082240D01*
X57677380Y-64493942D02*
X57460713Y-64184418D01*
X57305951Y-64493942D02*
X57305951Y-63843942D01*
X57305951Y-63843942D02*
X57553570Y-63843942D01*
X57553570Y-63843942D02*
X57615475Y-63874894D01*
X57615475Y-63874894D02*
X57646428Y-63905847D01*
X57646428Y-63905847D02*
X57677380Y-63967751D01*
X57677380Y-63967751D02*
X57677380Y-64060609D01*
X57677380Y-64060609D02*
X57646428Y-64122513D01*
X57646428Y-64122513D02*
X57615475Y-64153466D01*
X57615475Y-64153466D02*
X57553570Y-64184418D01*
X57553570Y-64184418D02*
X57305951Y-64184418D01*
X58141666Y-63843942D02*
X58141666Y-64308228D01*
X58141666Y-64308228D02*
X58110713Y-64401085D01*
X58110713Y-64401085D02*
X58048809Y-64462990D01*
X58048809Y-64462990D02*
X57955951Y-64493942D01*
X57955951Y-64493942D02*
X57894047Y-64493942D01*
X58729761Y-64060609D02*
X58729761Y-64493942D01*
X58574999Y-63812990D02*
X58420237Y-64277275D01*
X58420237Y-64277275D02*
X58822618Y-64277275D01*
X59379761Y-63843942D02*
X59070237Y-63843942D01*
X59070237Y-63843942D02*
X59039285Y-64153466D01*
X59039285Y-64153466D02*
X59070237Y-64122513D01*
X59070237Y-64122513D02*
X59132142Y-64091561D01*
X59132142Y-64091561D02*
X59286904Y-64091561D01*
X59286904Y-64091561D02*
X59348809Y-64122513D01*
X59348809Y-64122513D02*
X59379761Y-64153466D01*
X59379761Y-64153466D02*
X59410714Y-64215370D01*
X59410714Y-64215370D02*
X59410714Y-64370132D01*
X59410714Y-64370132D02*
X59379761Y-64432037D01*
X59379761Y-64432037D02*
X59348809Y-64462990D01*
X59348809Y-64462990D02*
X59286904Y-64493942D01*
X59286904Y-64493942D02*
X59132142Y-64493942D01*
X59132142Y-64493942D02*
X59070237Y-64462990D01*
X59070237Y-64462990D02*
X59039285Y-64432037D01*
X59689285Y-64432037D02*
X59720238Y-64462990D01*
X59720238Y-64462990D02*
X59689285Y-64493942D01*
X59689285Y-64493942D02*
X59658333Y-64462990D01*
X59658333Y-64462990D02*
X59689285Y-64432037D01*
X59689285Y-64432037D02*
X59689285Y-64493942D01*
X59689285Y-64091561D02*
X59720238Y-64122513D01*
X59720238Y-64122513D02*
X59689285Y-64153466D01*
X59689285Y-64153466D02*
X59658333Y-64122513D01*
X59658333Y-64122513D02*
X59689285Y-64091561D01*
X59689285Y-64091561D02*
X59689285Y-64153466D01*
X60834524Y-64493942D02*
X60463095Y-64493942D01*
X60648809Y-64493942D02*
X60648809Y-63843942D01*
X60648809Y-63843942D02*
X60586905Y-63936799D01*
X60586905Y-63936799D02*
X60525000Y-63998704D01*
X60525000Y-63998704D02*
X60463095Y-64029656D01*
X61577381Y-64308228D02*
X61886905Y-64308228D01*
X61515476Y-64493942D02*
X61732143Y-63843942D01*
X61732143Y-63843942D02*
X61948810Y-64493942D01*
X62165476Y-63843942D02*
X62165476Y-64370132D01*
X62165476Y-64370132D02*
X62196429Y-64432037D01*
X62196429Y-64432037D02*
X62227381Y-64462990D01*
X62227381Y-64462990D02*
X62289286Y-64493942D01*
X62289286Y-64493942D02*
X62413095Y-64493942D01*
X62413095Y-64493942D02*
X62475000Y-64462990D01*
X62475000Y-64462990D02*
X62505953Y-64432037D01*
X62505953Y-64432037D02*
X62536905Y-64370132D01*
X62536905Y-64370132D02*
X62536905Y-63843942D01*
X62846428Y-64493942D02*
X62846428Y-63843942D01*
X62846428Y-63843942D02*
X63001190Y-63843942D01*
X63001190Y-63843942D02*
X63094047Y-63874894D01*
X63094047Y-63874894D02*
X63155952Y-63936799D01*
X63155952Y-63936799D02*
X63186905Y-63998704D01*
X63186905Y-63998704D02*
X63217857Y-64122513D01*
X63217857Y-64122513D02*
X63217857Y-64215370D01*
X63217857Y-64215370D02*
X63186905Y-64339180D01*
X63186905Y-64339180D02*
X63155952Y-64401085D01*
X63155952Y-64401085D02*
X63094047Y-64462990D01*
X63094047Y-64462990D02*
X63001190Y-64493942D01*
X63001190Y-64493942D02*
X62846428Y-64493942D01*
X63496428Y-64246323D02*
X63991667Y-64246323D01*
X63744047Y-64493942D02*
X63744047Y-63998704D01*
X64765476Y-63905847D02*
X64796428Y-63874894D01*
X64796428Y-63874894D02*
X64858333Y-63843942D01*
X64858333Y-63843942D02*
X65013095Y-63843942D01*
X65013095Y-63843942D02*
X65075000Y-63874894D01*
X65075000Y-63874894D02*
X65105952Y-63905847D01*
X65105952Y-63905847D02*
X65136905Y-63967751D01*
X65136905Y-63967751D02*
X65136905Y-64029656D01*
X65136905Y-64029656D02*
X65105952Y-64122513D01*
X65105952Y-64122513D02*
X64734524Y-64493942D01*
X64734524Y-64493942D02*
X65136905Y-64493942D01*
X65879762Y-64308228D02*
X66189286Y-64308228D01*
X65817857Y-64493942D02*
X66034524Y-63843942D01*
X66034524Y-63843942D02*
X66251191Y-64493942D01*
X66467857Y-63843942D02*
X66467857Y-64370132D01*
X66467857Y-64370132D02*
X66498810Y-64432037D01*
X66498810Y-64432037D02*
X66529762Y-64462990D01*
X66529762Y-64462990D02*
X66591667Y-64493942D01*
X66591667Y-64493942D02*
X66715476Y-64493942D01*
X66715476Y-64493942D02*
X66777381Y-64462990D01*
X66777381Y-64462990D02*
X66808334Y-64432037D01*
X66808334Y-64432037D02*
X66839286Y-64370132D01*
X66839286Y-64370132D02*
X66839286Y-63843942D01*
X67148809Y-64493942D02*
X67148809Y-63843942D01*
X67148809Y-63843942D02*
X67303571Y-63843942D01*
X67303571Y-63843942D02*
X67396428Y-63874894D01*
X67396428Y-63874894D02*
X67458333Y-63936799D01*
X67458333Y-63936799D02*
X67489286Y-63998704D01*
X67489286Y-63998704D02*
X67520238Y-64122513D01*
X67520238Y-64122513D02*
X67520238Y-64215370D01*
X67520238Y-64215370D02*
X67489286Y-64339180D01*
X67489286Y-64339180D02*
X67458333Y-64401085D01*
X67458333Y-64401085D02*
X67396428Y-64462990D01*
X67396428Y-64462990D02*
X67303571Y-64493942D01*
X67303571Y-64493942D02*
X67148809Y-64493942D01*
X67798809Y-64246323D02*
X68294048Y-64246323D01*
X56795238Y-65843942D02*
X57197619Y-65843942D01*
X57197619Y-65843942D02*
X56980952Y-66091561D01*
X56980952Y-66091561D02*
X57073809Y-66091561D01*
X57073809Y-66091561D02*
X57135714Y-66122513D01*
X57135714Y-66122513D02*
X57166666Y-66153466D01*
X57166666Y-66153466D02*
X57197619Y-66215370D01*
X57197619Y-66215370D02*
X57197619Y-66370132D01*
X57197619Y-66370132D02*
X57166666Y-66432037D01*
X57166666Y-66432037D02*
X57135714Y-66462990D01*
X57135714Y-66462990D02*
X57073809Y-66493942D01*
X57073809Y-66493942D02*
X56888095Y-66493942D01*
X56888095Y-66493942D02*
X56826190Y-66462990D01*
X56826190Y-66462990D02*
X56795238Y-66432037D01*
X58280952Y-65843942D02*
X57971428Y-65843942D01*
X57971428Y-65843942D02*
X57940476Y-66153466D01*
X57940476Y-66153466D02*
X57971428Y-66122513D01*
X57971428Y-66122513D02*
X58033333Y-66091561D01*
X58033333Y-66091561D02*
X58188095Y-66091561D01*
X58188095Y-66091561D02*
X58250000Y-66122513D01*
X58250000Y-66122513D02*
X58280952Y-66153466D01*
X58280952Y-66153466D02*
X58311905Y-66215370D01*
X58311905Y-66215370D02*
X58311905Y-66370132D01*
X58311905Y-66370132D02*
X58280952Y-66432037D01*
X58280952Y-66432037D02*
X58250000Y-66462990D01*
X58250000Y-66462990D02*
X58188095Y-66493942D01*
X58188095Y-66493942D02*
X58033333Y-66493942D01*
X58033333Y-66493942D02*
X57971428Y-66462990D01*
X57971428Y-66462990D02*
X57940476Y-66432037D01*
X58497619Y-65843942D02*
X58714286Y-66493942D01*
X58714286Y-66493942D02*
X58930953Y-65843942D01*
X59147619Y-66246323D02*
X59642858Y-66246323D01*
X60169048Y-66153466D02*
X60261905Y-66184418D01*
X60261905Y-66184418D02*
X60292858Y-66215370D01*
X60292858Y-66215370D02*
X60323810Y-66277275D01*
X60323810Y-66277275D02*
X60323810Y-66370132D01*
X60323810Y-66370132D02*
X60292858Y-66432037D01*
X60292858Y-66432037D02*
X60261905Y-66462990D01*
X60261905Y-66462990D02*
X60200000Y-66493942D01*
X60200000Y-66493942D02*
X59952381Y-66493942D01*
X59952381Y-66493942D02*
X59952381Y-65843942D01*
X59952381Y-65843942D02*
X60169048Y-65843942D01*
X60169048Y-65843942D02*
X60230953Y-65874894D01*
X60230953Y-65874894D02*
X60261905Y-65905847D01*
X60261905Y-65905847D02*
X60292858Y-65967751D01*
X60292858Y-65967751D02*
X60292858Y-66029656D01*
X60292858Y-66029656D02*
X60261905Y-66091561D01*
X60261905Y-66091561D02*
X60230953Y-66122513D01*
X60230953Y-66122513D02*
X60169048Y-66153466D01*
X60169048Y-66153466D02*
X59952381Y-66153466D01*
X60602381Y-66153466D02*
X60819048Y-66153466D01*
X60911905Y-66493942D02*
X60602381Y-66493942D01*
X60602381Y-66493942D02*
X60602381Y-65843942D01*
X60602381Y-65843942D02*
X60911905Y-65843942D01*
X61190476Y-66153466D02*
X61407143Y-66153466D01*
X61500000Y-66493942D02*
X61190476Y-66493942D01*
X61190476Y-66493942D02*
X61190476Y-65843942D01*
X61190476Y-65843942D02*
X61500000Y-65843942D01*
X61778571Y-66493942D02*
X61778571Y-65843942D01*
X61778571Y-65843942D02*
X62026190Y-65843942D01*
X62026190Y-65843942D02*
X62088095Y-65874894D01*
X62088095Y-65874894D02*
X62119048Y-65905847D01*
X62119048Y-65905847D02*
X62150000Y-65967751D01*
X62150000Y-65967751D02*
X62150000Y-66060609D01*
X62150000Y-66060609D02*
X62119048Y-66122513D01*
X62119048Y-66122513D02*
X62088095Y-66153466D01*
X62088095Y-66153466D02*
X62026190Y-66184418D01*
X62026190Y-66184418D02*
X61778571Y-66184418D01*
X63202381Y-65843942D02*
X63078571Y-65843942D01*
X63078571Y-65843942D02*
X63016667Y-65874894D01*
X63016667Y-65874894D02*
X62985714Y-65905847D01*
X62985714Y-65905847D02*
X62923809Y-65998704D01*
X62923809Y-65998704D02*
X62892857Y-66122513D01*
X62892857Y-66122513D02*
X62892857Y-66370132D01*
X62892857Y-66370132D02*
X62923809Y-66432037D01*
X62923809Y-66432037D02*
X62954762Y-66462990D01*
X62954762Y-66462990D02*
X63016667Y-66493942D01*
X63016667Y-66493942D02*
X63140476Y-66493942D01*
X63140476Y-66493942D02*
X63202381Y-66462990D01*
X63202381Y-66462990D02*
X63233333Y-66432037D01*
X63233333Y-66432037D02*
X63264286Y-66370132D01*
X63264286Y-66370132D02*
X63264286Y-66215370D01*
X63264286Y-66215370D02*
X63233333Y-66153466D01*
X63233333Y-66153466D02*
X63202381Y-66122513D01*
X63202381Y-66122513D02*
X63140476Y-66091561D01*
X63140476Y-66091561D02*
X63016667Y-66091561D01*
X63016667Y-66091561D02*
X62954762Y-66122513D01*
X62954762Y-66122513D02*
X62923809Y-66153466D01*
X62923809Y-66153466D02*
X62892857Y-66215370D01*
X64254762Y-66153466D02*
X64347619Y-66184418D01*
X64347619Y-66184418D02*
X64378572Y-66215370D01*
X64378572Y-66215370D02*
X64409524Y-66277275D01*
X64409524Y-66277275D02*
X64409524Y-66370132D01*
X64409524Y-66370132D02*
X64378572Y-66432037D01*
X64378572Y-66432037D02*
X64347619Y-66462990D01*
X64347619Y-66462990D02*
X64285714Y-66493942D01*
X64285714Y-66493942D02*
X64038095Y-66493942D01*
X64038095Y-66493942D02*
X64038095Y-65843942D01*
X64038095Y-65843942D02*
X64254762Y-65843942D01*
X64254762Y-65843942D02*
X64316667Y-65874894D01*
X64316667Y-65874894D02*
X64347619Y-65905847D01*
X64347619Y-65905847D02*
X64378572Y-65967751D01*
X64378572Y-65967751D02*
X64378572Y-66029656D01*
X64378572Y-66029656D02*
X64347619Y-66091561D01*
X64347619Y-66091561D02*
X64316667Y-66122513D01*
X64316667Y-66122513D02*
X64254762Y-66153466D01*
X64254762Y-66153466D02*
X64038095Y-66153466D01*
X64688095Y-66153466D02*
X64904762Y-66153466D01*
X64997619Y-66493942D02*
X64688095Y-66493942D01*
X64688095Y-66493942D02*
X64688095Y-65843942D01*
X64688095Y-65843942D02*
X64997619Y-65843942D01*
X65276190Y-66153466D02*
X65492857Y-66153466D01*
X65585714Y-66493942D02*
X65276190Y-66493942D01*
X65276190Y-66493942D02*
X65276190Y-65843942D01*
X65276190Y-65843942D02*
X65585714Y-65843942D01*
X65864285Y-66493942D02*
X65864285Y-65843942D01*
X65864285Y-65843942D02*
X66111904Y-65843942D01*
X66111904Y-65843942D02*
X66173809Y-65874894D01*
X66173809Y-65874894D02*
X66204762Y-65905847D01*
X66204762Y-65905847D02*
X66235714Y-65967751D01*
X66235714Y-65967751D02*
X66235714Y-66060609D01*
X66235714Y-66060609D02*
X66204762Y-66122513D01*
X66204762Y-66122513D02*
X66173809Y-66153466D01*
X66173809Y-66153466D02*
X66111904Y-66184418D01*
X66111904Y-66184418D02*
X65864285Y-66184418D01*
X66514285Y-66246323D02*
X67009524Y-66246323D01*
X67690476Y-66493942D02*
X67473809Y-66184418D01*
X67319047Y-66493942D02*
X67319047Y-65843942D01*
X67319047Y-65843942D02*
X67566666Y-65843942D01*
X67566666Y-65843942D02*
X67628571Y-65874894D01*
X67628571Y-65874894D02*
X67659524Y-65905847D01*
X67659524Y-65905847D02*
X67690476Y-65967751D01*
X67690476Y-65967751D02*
X67690476Y-66060609D01*
X67690476Y-66060609D02*
X67659524Y-66122513D01*
X67659524Y-66122513D02*
X67628571Y-66153466D01*
X67628571Y-66153466D02*
X67566666Y-66184418D01*
X67566666Y-66184418D02*
X67319047Y-66184418D01*
X67969047Y-66153466D02*
X68185714Y-66153466D01*
X68278571Y-66493942D02*
X67969047Y-66493942D01*
X67969047Y-66493942D02*
X67969047Y-65843942D01*
X67969047Y-65843942D02*
X68278571Y-65843942D01*
X68464285Y-65843942D02*
X68835714Y-65843942D01*
X68650000Y-66493942D02*
X68650000Y-65843942D01*
X58745238Y-68060609D02*
X58745238Y-68493942D01*
X58590476Y-67812990D02*
X58435714Y-68277275D01*
X58435714Y-68277275D02*
X58838095Y-68277275D01*
X59550000Y-67812990D02*
X58992857Y-68648704D01*
X59704762Y-67843942D02*
X60138095Y-67843942D01*
X60138095Y-67843942D02*
X59859524Y-68493942D01*
X61190476Y-67843942D02*
X60880952Y-67843942D01*
X60880952Y-67843942D02*
X60850000Y-68153466D01*
X60850000Y-68153466D02*
X60880952Y-68122513D01*
X60880952Y-68122513D02*
X60942857Y-68091561D01*
X60942857Y-68091561D02*
X61097619Y-68091561D01*
X61097619Y-68091561D02*
X61159524Y-68122513D01*
X61159524Y-68122513D02*
X61190476Y-68153466D01*
X61190476Y-68153466D02*
X61221429Y-68215370D01*
X61221429Y-68215370D02*
X61221429Y-68370132D01*
X61221429Y-68370132D02*
X61190476Y-68432037D01*
X61190476Y-68432037D02*
X61159524Y-68462990D01*
X61159524Y-68462990D02*
X61097619Y-68493942D01*
X61097619Y-68493942D02*
X60942857Y-68493942D01*
X60942857Y-68493942D02*
X60880952Y-68462990D01*
X60880952Y-68462990D02*
X60850000Y-68432037D01*
X61407143Y-67843942D02*
X61623810Y-68493942D01*
X61623810Y-68493942D02*
X61840477Y-67843942D01*
X63357143Y-67843942D02*
X63047619Y-67843942D01*
X63047619Y-67843942D02*
X63016667Y-68153466D01*
X63016667Y-68153466D02*
X63047619Y-68122513D01*
X63047619Y-68122513D02*
X63109524Y-68091561D01*
X63109524Y-68091561D02*
X63264286Y-68091561D01*
X63264286Y-68091561D02*
X63326191Y-68122513D01*
X63326191Y-68122513D02*
X63357143Y-68153466D01*
X63357143Y-68153466D02*
X63388096Y-68215370D01*
X63388096Y-68215370D02*
X63388096Y-68370132D01*
X63388096Y-68370132D02*
X63357143Y-68432037D01*
X63357143Y-68432037D02*
X63326191Y-68462990D01*
X63326191Y-68462990D02*
X63264286Y-68493942D01*
X63264286Y-68493942D02*
X63109524Y-68493942D01*
X63109524Y-68493942D02*
X63047619Y-68462990D01*
X63047619Y-68462990D02*
X63016667Y-68432037D01*
X64130953Y-67812990D02*
X63573810Y-68648704D01*
X64440477Y-68122513D02*
X64378572Y-68091561D01*
X64378572Y-68091561D02*
X64347619Y-68060609D01*
X64347619Y-68060609D02*
X64316667Y-67998704D01*
X64316667Y-67998704D02*
X64316667Y-67967751D01*
X64316667Y-67967751D02*
X64347619Y-67905847D01*
X64347619Y-67905847D02*
X64378572Y-67874894D01*
X64378572Y-67874894D02*
X64440477Y-67843942D01*
X64440477Y-67843942D02*
X64564286Y-67843942D01*
X64564286Y-67843942D02*
X64626191Y-67874894D01*
X64626191Y-67874894D02*
X64657143Y-67905847D01*
X64657143Y-67905847D02*
X64688096Y-67967751D01*
X64688096Y-67967751D02*
X64688096Y-67998704D01*
X64688096Y-67998704D02*
X64657143Y-68060609D01*
X64657143Y-68060609D02*
X64626191Y-68091561D01*
X64626191Y-68091561D02*
X64564286Y-68122513D01*
X64564286Y-68122513D02*
X64440477Y-68122513D01*
X64440477Y-68122513D02*
X64378572Y-68153466D01*
X64378572Y-68153466D02*
X64347619Y-68184418D01*
X64347619Y-68184418D02*
X64316667Y-68246323D01*
X64316667Y-68246323D02*
X64316667Y-68370132D01*
X64316667Y-68370132D02*
X64347619Y-68432037D01*
X64347619Y-68432037D02*
X64378572Y-68462990D01*
X64378572Y-68462990D02*
X64440477Y-68493942D01*
X64440477Y-68493942D02*
X64564286Y-68493942D01*
X64564286Y-68493942D02*
X64626191Y-68462990D01*
X64626191Y-68462990D02*
X64657143Y-68432037D01*
X64657143Y-68432037D02*
X64688096Y-68370132D01*
X64688096Y-68370132D02*
X64688096Y-68246323D01*
X64688096Y-68246323D02*
X64657143Y-68184418D01*
X64657143Y-68184418D02*
X64626191Y-68153466D01*
X64626191Y-68153466D02*
X64564286Y-68122513D01*
X65802382Y-67874894D02*
X65740477Y-67843942D01*
X65740477Y-67843942D02*
X65647620Y-67843942D01*
X65647620Y-67843942D02*
X65554763Y-67874894D01*
X65554763Y-67874894D02*
X65492858Y-67936799D01*
X65492858Y-67936799D02*
X65461905Y-67998704D01*
X65461905Y-67998704D02*
X65430953Y-68122513D01*
X65430953Y-68122513D02*
X65430953Y-68215370D01*
X65430953Y-68215370D02*
X65461905Y-68339180D01*
X65461905Y-68339180D02*
X65492858Y-68401085D01*
X65492858Y-68401085D02*
X65554763Y-68462990D01*
X65554763Y-68462990D02*
X65647620Y-68493942D01*
X65647620Y-68493942D02*
X65709524Y-68493942D01*
X65709524Y-68493942D02*
X65802382Y-68462990D01*
X65802382Y-68462990D02*
X65833334Y-68432037D01*
X65833334Y-68432037D02*
X65833334Y-68215370D01*
X65833334Y-68215370D02*
X65709524Y-68215370D01*
X66111905Y-68493942D02*
X66111905Y-67843942D01*
X66111905Y-67843942D02*
X66483334Y-68493942D01*
X66483334Y-68493942D02*
X66483334Y-67843942D01*
X66792857Y-68493942D02*
X66792857Y-67843942D01*
X66792857Y-67843942D02*
X66947619Y-67843942D01*
X66947619Y-67843942D02*
X67040476Y-67874894D01*
X67040476Y-67874894D02*
X67102381Y-67936799D01*
X67102381Y-67936799D02*
X67133334Y-67998704D01*
X67133334Y-67998704D02*
X67164286Y-68122513D01*
X67164286Y-68122513D02*
X67164286Y-68215370D01*
X67164286Y-68215370D02*
X67133334Y-68339180D01*
X67133334Y-68339180D02*
X67102381Y-68401085D01*
X67102381Y-68401085D02*
X67040476Y-68462990D01*
X67040476Y-68462990D02*
X66947619Y-68493942D01*
X66947619Y-68493942D02*
X66792857Y-68493942D01*
X58559524Y-70632037D02*
X58528572Y-70662990D01*
X58528572Y-70662990D02*
X58435714Y-70693942D01*
X58435714Y-70693942D02*
X58373810Y-70693942D01*
X58373810Y-70693942D02*
X58280953Y-70662990D01*
X58280953Y-70662990D02*
X58219048Y-70601085D01*
X58219048Y-70601085D02*
X58188095Y-70539180D01*
X58188095Y-70539180D02*
X58157143Y-70415370D01*
X58157143Y-70415370D02*
X58157143Y-70322513D01*
X58157143Y-70322513D02*
X58188095Y-70198704D01*
X58188095Y-70198704D02*
X58219048Y-70136799D01*
X58219048Y-70136799D02*
X58280953Y-70074894D01*
X58280953Y-70074894D02*
X58373810Y-70043942D01*
X58373810Y-70043942D02*
X58435714Y-70043942D01*
X58435714Y-70043942D02*
X58528572Y-70074894D01*
X58528572Y-70074894D02*
X58559524Y-70105847D01*
X58838095Y-70043942D02*
X58838095Y-70570132D01*
X58838095Y-70570132D02*
X58869048Y-70632037D01*
X58869048Y-70632037D02*
X58900000Y-70662990D01*
X58900000Y-70662990D02*
X58961905Y-70693942D01*
X58961905Y-70693942D02*
X59085714Y-70693942D01*
X59085714Y-70693942D02*
X59147619Y-70662990D01*
X59147619Y-70662990D02*
X59178572Y-70632037D01*
X59178572Y-70632037D02*
X59209524Y-70570132D01*
X59209524Y-70570132D02*
X59209524Y-70043942D01*
X59488095Y-70662990D02*
X59580952Y-70693942D01*
X59580952Y-70693942D02*
X59735714Y-70693942D01*
X59735714Y-70693942D02*
X59797619Y-70662990D01*
X59797619Y-70662990D02*
X59828571Y-70632037D01*
X59828571Y-70632037D02*
X59859524Y-70570132D01*
X59859524Y-70570132D02*
X59859524Y-70508228D01*
X59859524Y-70508228D02*
X59828571Y-70446323D01*
X59828571Y-70446323D02*
X59797619Y-70415370D01*
X59797619Y-70415370D02*
X59735714Y-70384418D01*
X59735714Y-70384418D02*
X59611905Y-70353466D01*
X59611905Y-70353466D02*
X59550000Y-70322513D01*
X59550000Y-70322513D02*
X59519047Y-70291561D01*
X59519047Y-70291561D02*
X59488095Y-70229656D01*
X59488095Y-70229656D02*
X59488095Y-70167751D01*
X59488095Y-70167751D02*
X59519047Y-70105847D01*
X59519047Y-70105847D02*
X59550000Y-70074894D01*
X59550000Y-70074894D02*
X59611905Y-70043942D01*
X59611905Y-70043942D02*
X59766666Y-70043942D01*
X59766666Y-70043942D02*
X59859524Y-70074894D01*
X60045238Y-70043942D02*
X60416667Y-70043942D01*
X60230953Y-70693942D02*
X60230953Y-70043942D01*
X60757143Y-70043942D02*
X60880952Y-70043942D01*
X60880952Y-70043942D02*
X60942857Y-70074894D01*
X60942857Y-70074894D02*
X61004762Y-70136799D01*
X61004762Y-70136799D02*
X61035714Y-70260609D01*
X61035714Y-70260609D02*
X61035714Y-70477275D01*
X61035714Y-70477275D02*
X61004762Y-70601085D01*
X61004762Y-70601085D02*
X60942857Y-70662990D01*
X60942857Y-70662990D02*
X60880952Y-70693942D01*
X60880952Y-70693942D02*
X60757143Y-70693942D01*
X60757143Y-70693942D02*
X60695238Y-70662990D01*
X60695238Y-70662990D02*
X60633333Y-70601085D01*
X60633333Y-70601085D02*
X60602381Y-70477275D01*
X60602381Y-70477275D02*
X60602381Y-70260609D01*
X60602381Y-70260609D02*
X60633333Y-70136799D01*
X60633333Y-70136799D02*
X60695238Y-70074894D01*
X60695238Y-70074894D02*
X60757143Y-70043942D01*
X61314285Y-70693942D02*
X61314285Y-70043942D01*
X61314285Y-70043942D02*
X61530952Y-70508228D01*
X61530952Y-70508228D02*
X61747619Y-70043942D01*
X61747619Y-70043942D02*
X61747619Y-70693942D01*
X62861904Y-70043942D02*
X62552380Y-70043942D01*
X62552380Y-70043942D02*
X62521428Y-70353466D01*
X62521428Y-70353466D02*
X62552380Y-70322513D01*
X62552380Y-70322513D02*
X62614285Y-70291561D01*
X62614285Y-70291561D02*
X62769047Y-70291561D01*
X62769047Y-70291561D02*
X62830952Y-70322513D01*
X62830952Y-70322513D02*
X62861904Y-70353466D01*
X62861904Y-70353466D02*
X62892857Y-70415370D01*
X62892857Y-70415370D02*
X62892857Y-70570132D01*
X62892857Y-70570132D02*
X62861904Y-70632037D01*
X62861904Y-70632037D02*
X62830952Y-70662990D01*
X62830952Y-70662990D02*
X62769047Y-70693942D01*
X62769047Y-70693942D02*
X62614285Y-70693942D01*
X62614285Y-70693942D02*
X62552380Y-70662990D01*
X62552380Y-70662990D02*
X62521428Y-70632037D01*
X63078571Y-70043942D02*
X63295238Y-70693942D01*
X63295238Y-70693942D02*
X63511905Y-70043942D01*
X64223809Y-70693942D02*
X64223809Y-70043942D01*
X64223809Y-70043942D02*
X64471428Y-70043942D01*
X64471428Y-70043942D02*
X64533333Y-70074894D01*
X64533333Y-70074894D02*
X64564286Y-70105847D01*
X64564286Y-70105847D02*
X64595238Y-70167751D01*
X64595238Y-70167751D02*
X64595238Y-70260609D01*
X64595238Y-70260609D02*
X64564286Y-70322513D01*
X64564286Y-70322513D02*
X64533333Y-70353466D01*
X64533333Y-70353466D02*
X64471428Y-70384418D01*
X64471428Y-70384418D02*
X64223809Y-70384418D01*
X64873809Y-70693942D02*
X64873809Y-70043942D01*
X65183333Y-70693942D02*
X65183333Y-70043942D01*
X65183333Y-70043942D02*
X65554762Y-70693942D01*
X65554762Y-70693942D02*
X65554762Y-70043942D01*
X65988095Y-70043942D02*
X66111904Y-70043942D01*
X66111904Y-70043942D02*
X66173809Y-70074894D01*
X66173809Y-70074894D02*
X66235714Y-70136799D01*
X66235714Y-70136799D02*
X66266666Y-70260609D01*
X66266666Y-70260609D02*
X66266666Y-70477275D01*
X66266666Y-70477275D02*
X66235714Y-70601085D01*
X66235714Y-70601085D02*
X66173809Y-70662990D01*
X66173809Y-70662990D02*
X66111904Y-70693942D01*
X66111904Y-70693942D02*
X65988095Y-70693942D01*
X65988095Y-70693942D02*
X65926190Y-70662990D01*
X65926190Y-70662990D02*
X65864285Y-70601085D01*
X65864285Y-70601085D02*
X65833333Y-70477275D01*
X65833333Y-70477275D02*
X65833333Y-70260609D01*
X65833333Y-70260609D02*
X65864285Y-70136799D01*
X65864285Y-70136799D02*
X65926190Y-70074894D01*
X65926190Y-70074894D02*
X65988095Y-70043942D01*
X66545237Y-70043942D02*
X66545237Y-70570132D01*
X66545237Y-70570132D02*
X66576190Y-70632037D01*
X66576190Y-70632037D02*
X66607142Y-70662990D01*
X66607142Y-70662990D02*
X66669047Y-70693942D01*
X66669047Y-70693942D02*
X66792856Y-70693942D01*
X66792856Y-70693942D02*
X66854761Y-70662990D01*
X66854761Y-70662990D02*
X66885714Y-70632037D01*
X66885714Y-70632037D02*
X66916666Y-70570132D01*
X66916666Y-70570132D02*
X66916666Y-70043942D01*
X67133332Y-70043942D02*
X67504761Y-70043942D01*
X67319047Y-70693942D02*
X67319047Y-70043942D01*
X70400001Y-78450406D02*
X70500001Y-78483740D01*
X70500001Y-78483740D02*
X70533334Y-78517073D01*
X70533334Y-78517073D02*
X70566667Y-78583740D01*
X70566667Y-78583740D02*
X70566667Y-78683740D01*
X70566667Y-78683740D02*
X70533334Y-78750406D01*
X70533334Y-78750406D02*
X70500001Y-78783740D01*
X70500001Y-78783740D02*
X70433334Y-78817073D01*
X70433334Y-78817073D02*
X70166667Y-78817073D01*
X70166667Y-78817073D02*
X70166667Y-78117073D01*
X70166667Y-78117073D02*
X70400001Y-78117073D01*
X70400001Y-78117073D02*
X70466667Y-78150406D01*
X70466667Y-78150406D02*
X70500001Y-78183740D01*
X70500001Y-78183740D02*
X70533334Y-78250406D01*
X70533334Y-78250406D02*
X70533334Y-78317073D01*
X70533334Y-78317073D02*
X70500001Y-78383740D01*
X70500001Y-78383740D02*
X70466667Y-78417073D01*
X70466667Y-78417073D02*
X70400001Y-78450406D01*
X70400001Y-78450406D02*
X70166667Y-78450406D01*
X70866667Y-78450406D02*
X71100001Y-78450406D01*
X71200001Y-78817073D02*
X70866667Y-78817073D01*
X70866667Y-78817073D02*
X70866667Y-78117073D01*
X70866667Y-78117073D02*
X71200001Y-78117073D01*
X71500000Y-78450406D02*
X71733334Y-78450406D01*
X71833334Y-78817073D02*
X71500000Y-78817073D01*
X71500000Y-78817073D02*
X71500000Y-78117073D01*
X71500000Y-78117073D02*
X71833334Y-78117073D01*
X72133333Y-78817073D02*
X72133333Y-78117073D01*
X72133333Y-78117073D02*
X72400000Y-78117073D01*
X72400000Y-78117073D02*
X72466667Y-78150406D01*
X72466667Y-78150406D02*
X72500000Y-78183740D01*
X72500000Y-78183740D02*
X72533333Y-78250406D01*
X72533333Y-78250406D02*
X72533333Y-78350406D01*
X72533333Y-78350406D02*
X72500000Y-78417073D01*
X72500000Y-78417073D02*
X72466667Y-78450406D01*
X72466667Y-78450406D02*
X72400000Y-78483740D01*
X72400000Y-78483740D02*
X72133333Y-78483740D01*
X72833333Y-78450406D02*
X73066667Y-78450406D01*
X73166667Y-78817073D02*
X72833333Y-78817073D01*
X72833333Y-78817073D02*
X72833333Y-78117073D01*
X72833333Y-78117073D02*
X73166667Y-78117073D01*
X73866666Y-78817073D02*
X73633333Y-78483740D01*
X73466666Y-78817073D02*
X73466666Y-78117073D01*
X73466666Y-78117073D02*
X73733333Y-78117073D01*
X73733333Y-78117073D02*
X73800000Y-78150406D01*
X73800000Y-78150406D02*
X73833333Y-78183740D01*
X73833333Y-78183740D02*
X73866666Y-78250406D01*
X73866666Y-78250406D02*
X73866666Y-78350406D01*
X73866666Y-78350406D02*
X73833333Y-78417073D01*
X73833333Y-78417073D02*
X73800000Y-78450406D01*
X73800000Y-78450406D02*
X73733333Y-78483740D01*
X73733333Y-78483740D02*
X73466666Y-78483740D01*
X137150000Y-66517073D02*
X137150000Y-65817073D01*
X137150000Y-65817073D02*
X137383334Y-66317073D01*
X137383334Y-66317073D02*
X137616667Y-65817073D01*
X137616667Y-65817073D02*
X137616667Y-66517073D01*
X137950000Y-66517073D02*
X137950000Y-65817073D01*
X138683333Y-66450406D02*
X138650000Y-66483740D01*
X138650000Y-66483740D02*
X138550000Y-66517073D01*
X138550000Y-66517073D02*
X138483333Y-66517073D01*
X138483333Y-66517073D02*
X138383333Y-66483740D01*
X138383333Y-66483740D02*
X138316667Y-66417073D01*
X138316667Y-66417073D02*
X138283333Y-66350406D01*
X138283333Y-66350406D02*
X138250000Y-66217073D01*
X138250000Y-66217073D02*
X138250000Y-66117073D01*
X138250000Y-66117073D02*
X138283333Y-65983740D01*
X138283333Y-65983740D02*
X138316667Y-65917073D01*
X138316667Y-65917073D02*
X138383333Y-65850406D01*
X138383333Y-65850406D02*
X138483333Y-65817073D01*
X138483333Y-65817073D02*
X138550000Y-65817073D01*
X138550000Y-65817073D02*
X138650000Y-65850406D01*
X138650000Y-65850406D02*
X138683333Y-65883740D01*
X139516666Y-66517073D02*
X139516666Y-65817073D01*
X139516666Y-65817073D02*
X139783333Y-65817073D01*
X139783333Y-65817073D02*
X139850000Y-65850406D01*
X139850000Y-65850406D02*
X139883333Y-65883740D01*
X139883333Y-65883740D02*
X139916666Y-65950406D01*
X139916666Y-65950406D02*
X139916666Y-66050406D01*
X139916666Y-66050406D02*
X139883333Y-66117073D01*
X139883333Y-66117073D02*
X139850000Y-66150406D01*
X139850000Y-66150406D02*
X139783333Y-66183740D01*
X139783333Y-66183740D02*
X139516666Y-66183740D01*
X140183333Y-66317073D02*
X140516666Y-66317073D01*
X140116666Y-66517073D02*
X140350000Y-65817073D01*
X140350000Y-65817073D02*
X140583333Y-66517073D01*
X140816666Y-66517073D02*
X140816666Y-65817073D01*
X140816666Y-65817073D02*
X140983333Y-65817073D01*
X140983333Y-65817073D02*
X141083333Y-65850406D01*
X141083333Y-65850406D02*
X141150000Y-65917073D01*
X141150000Y-65917073D02*
X141183333Y-65983740D01*
X141183333Y-65983740D02*
X141216666Y-66117073D01*
X141216666Y-66117073D02*
X141216666Y-66217073D01*
X141216666Y-66217073D02*
X141183333Y-66350406D01*
X141183333Y-66350406D02*
X141150000Y-66417073D01*
X141150000Y-66417073D02*
X141083333Y-66483740D01*
X141083333Y-66483740D02*
X140983333Y-66517073D01*
X140983333Y-66517073D02*
X140816666Y-66517073D01*
X141483333Y-66483740D02*
X141583333Y-66517073D01*
X141583333Y-66517073D02*
X141750000Y-66517073D01*
X141750000Y-66517073D02*
X141816666Y-66483740D01*
X141816666Y-66483740D02*
X141850000Y-66450406D01*
X141850000Y-66450406D02*
X141883333Y-66383740D01*
X141883333Y-66383740D02*
X141883333Y-66317073D01*
X141883333Y-66317073D02*
X141850000Y-66250406D01*
X141850000Y-66250406D02*
X141816666Y-66217073D01*
X141816666Y-66217073D02*
X141750000Y-66183740D01*
X141750000Y-66183740D02*
X141616666Y-66150406D01*
X141616666Y-66150406D02*
X141550000Y-66117073D01*
X141550000Y-66117073D02*
X141516666Y-66083740D01*
X141516666Y-66083740D02*
X141483333Y-66017073D01*
X141483333Y-66017073D02*
X141483333Y-65950406D01*
X141483333Y-65950406D02*
X141516666Y-65883740D01*
X141516666Y-65883740D02*
X141550000Y-65850406D01*
X141550000Y-65850406D02*
X141616666Y-65817073D01*
X141616666Y-65817073D02*
X141783333Y-65817073D01*
X141783333Y-65817073D02*
X141883333Y-65850406D01*
X56809523Y-58563335D02*
X56809523Y-57763335D01*
X56809523Y-57763335D02*
X57266666Y-58563335D01*
X57266666Y-58563335D02*
X57266666Y-57763335D01*
X57799999Y-57763335D02*
X57952380Y-57763335D01*
X57952380Y-57763335D02*
X58028570Y-57801430D01*
X58028570Y-57801430D02*
X58104761Y-57877620D01*
X58104761Y-57877620D02*
X58142856Y-58030001D01*
X58142856Y-58030001D02*
X58142856Y-58296668D01*
X58142856Y-58296668D02*
X58104761Y-58449049D01*
X58104761Y-58449049D02*
X58028570Y-58525240D01*
X58028570Y-58525240D02*
X57952380Y-58563335D01*
X57952380Y-58563335D02*
X57799999Y-58563335D01*
X57799999Y-58563335D02*
X57723808Y-58525240D01*
X57723808Y-58525240D02*
X57647618Y-58449049D01*
X57647618Y-58449049D02*
X57609522Y-58296668D01*
X57609522Y-58296668D02*
X57609522Y-58030001D01*
X57609522Y-58030001D02*
X57647618Y-57877620D01*
X57647618Y-57877620D02*
X57723808Y-57801430D01*
X57723808Y-57801430D02*
X57799999Y-57763335D01*
X58371427Y-57763335D02*
X58828570Y-57763335D01*
X58599998Y-58563335D02*
X58599998Y-57763335D01*
X59704761Y-58144287D02*
X59971427Y-58144287D01*
X60085713Y-58563335D02*
X59704761Y-58563335D01*
X59704761Y-58563335D02*
X59704761Y-57763335D01*
X59704761Y-57763335D02*
X60085713Y-57763335D01*
X60314285Y-57763335D02*
X60771428Y-57763335D01*
X60542856Y-58563335D02*
X60542856Y-57763335D01*
X61038095Y-58563335D02*
X61038095Y-57763335D01*
X61038095Y-58144287D02*
X61495238Y-58144287D01*
X61495238Y-58563335D02*
X61495238Y-57763335D01*
X61876190Y-58144287D02*
X62142856Y-58144287D01*
X62257142Y-58563335D02*
X61876190Y-58563335D01*
X61876190Y-58563335D02*
X61876190Y-57763335D01*
X61876190Y-57763335D02*
X62257142Y-57763335D01*
X63057143Y-58563335D02*
X62790476Y-58182382D01*
X62600000Y-58563335D02*
X62600000Y-57763335D01*
X62600000Y-57763335D02*
X62904762Y-57763335D01*
X62904762Y-57763335D02*
X62980952Y-57801430D01*
X62980952Y-57801430D02*
X63019047Y-57839525D01*
X63019047Y-57839525D02*
X63057143Y-57915716D01*
X63057143Y-57915716D02*
X63057143Y-58030001D01*
X63057143Y-58030001D02*
X63019047Y-58106192D01*
X63019047Y-58106192D02*
X62980952Y-58144287D01*
X62980952Y-58144287D02*
X62904762Y-58182382D01*
X62904762Y-58182382D02*
X62600000Y-58182382D01*
X63400000Y-58563335D02*
X63400000Y-57763335D01*
X63400000Y-57763335D02*
X63857143Y-58563335D01*
X63857143Y-58563335D02*
X63857143Y-57763335D01*
X64238095Y-58144287D02*
X64504761Y-58144287D01*
X64619047Y-58563335D02*
X64238095Y-58563335D01*
X64238095Y-58563335D02*
X64238095Y-57763335D01*
X64238095Y-57763335D02*
X64619047Y-57763335D01*
X64847619Y-57763335D02*
X65304762Y-57763335D01*
X65076190Y-58563335D02*
X65076190Y-57763335D01*
D11*
X93249999Y-93166012D02*
X93164284Y-93208869D01*
X93164284Y-93208869D02*
X92992856Y-93208869D01*
X92992856Y-93208869D02*
X92907141Y-93166012D01*
X92907141Y-93166012D02*
X92864284Y-93123154D01*
X92864284Y-93123154D02*
X92821427Y-93037440D01*
X92821427Y-93037440D02*
X92821427Y-92780297D01*
X92821427Y-92780297D02*
X92864284Y-92694583D01*
X92864284Y-92694583D02*
X92907141Y-92651726D01*
X92907141Y-92651726D02*
X92992856Y-92608869D01*
X92992856Y-92608869D02*
X93164284Y-92608869D01*
X93164284Y-92608869D02*
X93249999Y-92651726D01*
X93635713Y-93208869D02*
X93635713Y-92608869D01*
X93635713Y-92780297D02*
X93678570Y-92694583D01*
X93678570Y-92694583D02*
X93721428Y-92651726D01*
X93721428Y-92651726D02*
X93807142Y-92608869D01*
X93807142Y-92608869D02*
X93892856Y-92608869D01*
X94321428Y-93208869D02*
X94235713Y-93166012D01*
X94235713Y-93166012D02*
X94192856Y-93123154D01*
X94192856Y-93123154D02*
X94149999Y-93037440D01*
X94149999Y-93037440D02*
X94149999Y-92780297D01*
X94149999Y-92780297D02*
X94192856Y-92694583D01*
X94192856Y-92694583D02*
X94235713Y-92651726D01*
X94235713Y-92651726D02*
X94321428Y-92608869D01*
X94321428Y-92608869D02*
X94449999Y-92608869D01*
X94449999Y-92608869D02*
X94535713Y-92651726D01*
X94535713Y-92651726D02*
X94578571Y-92694583D01*
X94578571Y-92694583D02*
X94621428Y-92780297D01*
X94621428Y-92780297D02*
X94621428Y-93037440D01*
X94621428Y-93037440D02*
X94578571Y-93123154D01*
X94578571Y-93123154D02*
X94535713Y-93166012D01*
X94535713Y-93166012D02*
X94449999Y-93208869D01*
X94449999Y-93208869D02*
X94321428Y-93208869D01*
X94921428Y-92608869D02*
X95092857Y-93208869D01*
X95092857Y-93208869D02*
X95264285Y-92780297D01*
X95264285Y-92780297D02*
X95435714Y-93208869D01*
X95435714Y-93208869D02*
X95607142Y-92608869D01*
X95949999Y-92866012D02*
X96635714Y-92866012D01*
X97450000Y-93208869D02*
X97450000Y-92737440D01*
X97450000Y-92737440D02*
X97407142Y-92651726D01*
X97407142Y-92651726D02*
X97321428Y-92608869D01*
X97321428Y-92608869D02*
X97150000Y-92608869D01*
X97150000Y-92608869D02*
X97064285Y-92651726D01*
X97450000Y-93166012D02*
X97364285Y-93208869D01*
X97364285Y-93208869D02*
X97150000Y-93208869D01*
X97150000Y-93208869D02*
X97064285Y-93166012D01*
X97064285Y-93166012D02*
X97021428Y-93080297D01*
X97021428Y-93080297D02*
X97021428Y-92994583D01*
X97021428Y-92994583D02*
X97064285Y-92908869D01*
X97064285Y-92908869D02*
X97150000Y-92866012D01*
X97150000Y-92866012D02*
X97364285Y-92866012D01*
X97364285Y-92866012D02*
X97450000Y-92823154D01*
X97878571Y-93208869D02*
X97878571Y-92608869D01*
X97878571Y-92780297D02*
X97921428Y-92694583D01*
X97921428Y-92694583D02*
X97964286Y-92651726D01*
X97964286Y-92651726D02*
X98050000Y-92608869D01*
X98050000Y-92608869D02*
X98135714Y-92608869D01*
X98435714Y-93208869D02*
X98435714Y-92608869D01*
X98435714Y-92780297D02*
X98478571Y-92694583D01*
X98478571Y-92694583D02*
X98521429Y-92651726D01*
X98521429Y-92651726D02*
X98607143Y-92608869D01*
X98607143Y-92608869D02*
X98692857Y-92608869D01*
X99378572Y-93208869D02*
X99378572Y-92737440D01*
X99378572Y-92737440D02*
X99335714Y-92651726D01*
X99335714Y-92651726D02*
X99250000Y-92608869D01*
X99250000Y-92608869D02*
X99078572Y-92608869D01*
X99078572Y-92608869D02*
X98992857Y-92651726D01*
X99378572Y-93166012D02*
X99292857Y-93208869D01*
X99292857Y-93208869D02*
X99078572Y-93208869D01*
X99078572Y-93208869D02*
X98992857Y-93166012D01*
X98992857Y-93166012D02*
X98950000Y-93080297D01*
X98950000Y-93080297D02*
X98950000Y-92994583D01*
X98950000Y-92994583D02*
X98992857Y-92908869D01*
X98992857Y-92908869D02*
X99078572Y-92866012D01*
X99078572Y-92866012D02*
X99292857Y-92866012D01*
X99292857Y-92866012D02*
X99378572Y-92823154D01*
X99721429Y-92608869D02*
X99935715Y-93208869D01*
X100150000Y-92608869D02*
X99935715Y-93208869D01*
X99935715Y-93208869D02*
X99850000Y-93423154D01*
X99850000Y-93423154D02*
X99807143Y-93466012D01*
X99807143Y-93466012D02*
X99721429Y-93508869D01*
X100492857Y-92866012D02*
X101178572Y-92866012D01*
X101607143Y-92608869D02*
X101607143Y-93508869D01*
X101607143Y-92651726D02*
X101692858Y-92608869D01*
X101692858Y-92608869D02*
X101864286Y-92608869D01*
X101864286Y-92608869D02*
X101950000Y-92651726D01*
X101950000Y-92651726D02*
X101992858Y-92694583D01*
X101992858Y-92694583D02*
X102035715Y-92780297D01*
X102035715Y-92780297D02*
X102035715Y-93037440D01*
X102035715Y-93037440D02*
X101992858Y-93123154D01*
X101992858Y-93123154D02*
X101950000Y-93166012D01*
X101950000Y-93166012D02*
X101864286Y-93208869D01*
X101864286Y-93208869D02*
X101692858Y-93208869D01*
X101692858Y-93208869D02*
X101607143Y-93166012D01*
X102550001Y-93208869D02*
X102464286Y-93166012D01*
X102464286Y-93166012D02*
X102421429Y-93123154D01*
X102421429Y-93123154D02*
X102378572Y-93037440D01*
X102378572Y-93037440D02*
X102378572Y-92780297D01*
X102378572Y-92780297D02*
X102421429Y-92694583D01*
X102421429Y-92694583D02*
X102464286Y-92651726D01*
X102464286Y-92651726D02*
X102550001Y-92608869D01*
X102550001Y-92608869D02*
X102678572Y-92608869D01*
X102678572Y-92608869D02*
X102764286Y-92651726D01*
X102764286Y-92651726D02*
X102807144Y-92694583D01*
X102807144Y-92694583D02*
X102850001Y-92780297D01*
X102850001Y-92780297D02*
X102850001Y-93037440D01*
X102850001Y-93037440D02*
X102807144Y-93123154D01*
X102807144Y-93123154D02*
X102764286Y-93166012D01*
X102764286Y-93166012D02*
X102678572Y-93208869D01*
X102678572Y-93208869D02*
X102550001Y-93208869D01*
X103621430Y-93208869D02*
X103621430Y-92308869D01*
X103621430Y-93166012D02*
X103535715Y-93208869D01*
X103535715Y-93208869D02*
X103364287Y-93208869D01*
X103364287Y-93208869D02*
X103278572Y-93166012D01*
X103278572Y-93166012D02*
X103235715Y-93123154D01*
X103235715Y-93123154D02*
X103192858Y-93037440D01*
X103192858Y-93037440D02*
X103192858Y-92780297D01*
X103192858Y-92780297D02*
X103235715Y-92694583D01*
X103235715Y-92694583D02*
X103278572Y-92651726D01*
X103278572Y-92651726D02*
X103364287Y-92608869D01*
X103364287Y-92608869D02*
X103535715Y-92608869D01*
X103535715Y-92608869D02*
X103621430Y-92651726D01*
X104650001Y-92608869D02*
X104864287Y-93208869D01*
X104864287Y-93208869D02*
X105078572Y-92608869D01*
X105892858Y-93208869D02*
X105378572Y-93208869D01*
X105635715Y-93208869D02*
X105635715Y-92308869D01*
X105635715Y-92308869D02*
X105550001Y-92437440D01*
X105550001Y-92437440D02*
X105464286Y-92523154D01*
X105464286Y-92523154D02*
X105378572Y-92566012D01*
X106278572Y-93123154D02*
X106321429Y-93166012D01*
X106321429Y-93166012D02*
X106278572Y-93208869D01*
X106278572Y-93208869D02*
X106235715Y-93166012D01*
X106235715Y-93166012D02*
X106278572Y-93123154D01*
X106278572Y-93123154D02*
X106278572Y-93208869D01*
X107178572Y-93208869D02*
X106664286Y-93208869D01*
X106921429Y-93208869D02*
X106921429Y-92308869D01*
X106921429Y-92308869D02*
X106835715Y-92437440D01*
X106835715Y-92437440D02*
X106750000Y-92523154D01*
X106750000Y-92523154D02*
X106664286Y-92566012D01*
D12*
X84652381Y-52099728D02*
X84652381Y-50999728D01*
X84652381Y-50999728D02*
X85280953Y-52099728D01*
X85280953Y-52099728D02*
X85280953Y-50999728D01*
X86014286Y-50999728D02*
X86223810Y-50999728D01*
X86223810Y-50999728D02*
X86328572Y-51052109D01*
X86328572Y-51052109D02*
X86433334Y-51156871D01*
X86433334Y-51156871D02*
X86485715Y-51366395D01*
X86485715Y-51366395D02*
X86485715Y-51733062D01*
X86485715Y-51733062D02*
X86433334Y-51942586D01*
X86433334Y-51942586D02*
X86328572Y-52047348D01*
X86328572Y-52047348D02*
X86223810Y-52099728D01*
X86223810Y-52099728D02*
X86014286Y-52099728D01*
X86014286Y-52099728D02*
X85909524Y-52047348D01*
X85909524Y-52047348D02*
X85804762Y-51942586D01*
X85804762Y-51942586D02*
X85752381Y-51733062D01*
X85752381Y-51733062D02*
X85752381Y-51366395D01*
X85752381Y-51366395D02*
X85804762Y-51156871D01*
X85804762Y-51156871D02*
X85909524Y-51052109D01*
X85909524Y-51052109D02*
X86014286Y-50999728D01*
X86800000Y-50999728D02*
X87428572Y-50999728D01*
X87114286Y-52099728D02*
X87114286Y-50999728D01*
X88633333Y-51523538D02*
X89000000Y-51523538D01*
X89157143Y-52099728D02*
X88633333Y-52099728D01*
X88633333Y-52099728D02*
X88633333Y-50999728D01*
X88633333Y-50999728D02*
X89157143Y-50999728D01*
X89471428Y-50999728D02*
X90100000Y-50999728D01*
X89785714Y-52099728D02*
X89785714Y-50999728D01*
X90466666Y-52099728D02*
X90466666Y-50999728D01*
X90466666Y-51523538D02*
X91095238Y-51523538D01*
X91095238Y-52099728D02*
X91095238Y-50999728D01*
X91619047Y-51523538D02*
X91985714Y-51523538D01*
X92142857Y-52099728D02*
X91619047Y-52099728D01*
X91619047Y-52099728D02*
X91619047Y-50999728D01*
X91619047Y-50999728D02*
X92142857Y-50999728D01*
X93242857Y-52099728D02*
X92876190Y-51575919D01*
X92614285Y-52099728D02*
X92614285Y-50999728D01*
X92614285Y-50999728D02*
X93033333Y-50999728D01*
X93033333Y-50999728D02*
X93138095Y-51052109D01*
X93138095Y-51052109D02*
X93190476Y-51104490D01*
X93190476Y-51104490D02*
X93242857Y-51209252D01*
X93242857Y-51209252D02*
X93242857Y-51366395D01*
X93242857Y-51366395D02*
X93190476Y-51471157D01*
X93190476Y-51471157D02*
X93138095Y-51523538D01*
X93138095Y-51523538D02*
X93033333Y-51575919D01*
X93033333Y-51575919D02*
X92614285Y-51575919D01*
X93714285Y-52099728D02*
X93714285Y-50999728D01*
X93714285Y-50999728D02*
X94342857Y-52099728D01*
X94342857Y-52099728D02*
X94342857Y-50999728D01*
X94866666Y-51523538D02*
X95233333Y-51523538D01*
X95390476Y-52099728D02*
X94866666Y-52099728D01*
X94866666Y-52099728D02*
X94866666Y-50999728D01*
X94866666Y-50999728D02*
X95390476Y-50999728D01*
X95704761Y-50999728D02*
X96333333Y-50999728D01*
X96019047Y-52099728D02*
X96019047Y-50999728D01*
X97538094Y-51680681D02*
X98376190Y-51680681D01*
X100366666Y-51994967D02*
X100314285Y-52047348D01*
X100314285Y-52047348D02*
X100157142Y-52099728D01*
X100157142Y-52099728D02*
X100052380Y-52099728D01*
X100052380Y-52099728D02*
X99895237Y-52047348D01*
X99895237Y-52047348D02*
X99790475Y-51942586D01*
X99790475Y-51942586D02*
X99738094Y-51837824D01*
X99738094Y-51837824D02*
X99685713Y-51628300D01*
X99685713Y-51628300D02*
X99685713Y-51471157D01*
X99685713Y-51471157D02*
X99738094Y-51261633D01*
X99738094Y-51261633D02*
X99790475Y-51156871D01*
X99790475Y-51156871D02*
X99895237Y-51052109D01*
X99895237Y-51052109D02*
X100052380Y-50999728D01*
X100052380Y-50999728D02*
X100157142Y-50999728D01*
X100157142Y-50999728D02*
X100314285Y-51052109D01*
X100314285Y-51052109D02*
X100366666Y-51104490D01*
X100838094Y-50999728D02*
X100838094Y-51890205D01*
X100838094Y-51890205D02*
X100890475Y-51994967D01*
X100890475Y-51994967D02*
X100942856Y-52047348D01*
X100942856Y-52047348D02*
X101047618Y-52099728D01*
X101047618Y-52099728D02*
X101257142Y-52099728D01*
X101257142Y-52099728D02*
X101361904Y-52047348D01*
X101361904Y-52047348D02*
X101414285Y-51994967D01*
X101414285Y-51994967D02*
X101466666Y-51890205D01*
X101466666Y-51890205D02*
X101466666Y-50999728D01*
X101938094Y-52047348D02*
X102095237Y-52099728D01*
X102095237Y-52099728D02*
X102357142Y-52099728D01*
X102357142Y-52099728D02*
X102461904Y-52047348D01*
X102461904Y-52047348D02*
X102514285Y-51994967D01*
X102514285Y-51994967D02*
X102566666Y-51890205D01*
X102566666Y-51890205D02*
X102566666Y-51785443D01*
X102566666Y-51785443D02*
X102514285Y-51680681D01*
X102514285Y-51680681D02*
X102461904Y-51628300D01*
X102461904Y-51628300D02*
X102357142Y-51575919D01*
X102357142Y-51575919D02*
X102147618Y-51523538D01*
X102147618Y-51523538D02*
X102042856Y-51471157D01*
X102042856Y-51471157D02*
X101990475Y-51418776D01*
X101990475Y-51418776D02*
X101938094Y-51314014D01*
X101938094Y-51314014D02*
X101938094Y-51209252D01*
X101938094Y-51209252D02*
X101990475Y-51104490D01*
X101990475Y-51104490D02*
X102042856Y-51052109D01*
X102042856Y-51052109D02*
X102147618Y-50999728D01*
X102147618Y-50999728D02*
X102409523Y-50999728D01*
X102409523Y-50999728D02*
X102566666Y-51052109D01*
X102880951Y-50999728D02*
X103509523Y-50999728D01*
X103195237Y-52099728D02*
X103195237Y-50999728D01*
X104085713Y-50999728D02*
X104295237Y-50999728D01*
X104295237Y-50999728D02*
X104399999Y-51052109D01*
X104399999Y-51052109D02*
X104504761Y-51156871D01*
X104504761Y-51156871D02*
X104557142Y-51366395D01*
X104557142Y-51366395D02*
X104557142Y-51733062D01*
X104557142Y-51733062D02*
X104504761Y-51942586D01*
X104504761Y-51942586D02*
X104399999Y-52047348D01*
X104399999Y-52047348D02*
X104295237Y-52099728D01*
X104295237Y-52099728D02*
X104085713Y-52099728D01*
X104085713Y-52099728D02*
X103980951Y-52047348D01*
X103980951Y-52047348D02*
X103876189Y-51942586D01*
X103876189Y-51942586D02*
X103823808Y-51733062D01*
X103823808Y-51733062D02*
X103823808Y-51366395D01*
X103823808Y-51366395D02*
X103876189Y-51156871D01*
X103876189Y-51156871D02*
X103980951Y-51052109D01*
X103980951Y-51052109D02*
X104085713Y-50999728D01*
X105028570Y-52099728D02*
X105028570Y-50999728D01*
X105028570Y-50999728D02*
X105395237Y-51785443D01*
X105395237Y-51785443D02*
X105761904Y-50999728D01*
X105761904Y-50999728D02*
X105761904Y-52099728D01*
X107647618Y-50999728D02*
X107123808Y-50999728D01*
X107123808Y-50999728D02*
X107071427Y-51523538D01*
X107071427Y-51523538D02*
X107123808Y-51471157D01*
X107123808Y-51471157D02*
X107228570Y-51418776D01*
X107228570Y-51418776D02*
X107490475Y-51418776D01*
X107490475Y-51418776D02*
X107595237Y-51471157D01*
X107595237Y-51471157D02*
X107647618Y-51523538D01*
X107647618Y-51523538D02*
X107699999Y-51628300D01*
X107699999Y-51628300D02*
X107699999Y-51890205D01*
X107699999Y-51890205D02*
X107647618Y-51994967D01*
X107647618Y-51994967D02*
X107595237Y-52047348D01*
X107595237Y-52047348D02*
X107490475Y-52099728D01*
X107490475Y-52099728D02*
X107228570Y-52099728D01*
X107228570Y-52099728D02*
X107123808Y-52047348D01*
X107123808Y-52047348D02*
X107071427Y-51994967D01*
X108014284Y-50999728D02*
X108380951Y-52099728D01*
X108380951Y-52099728D02*
X108747618Y-50999728D01*
X109952379Y-52099728D02*
X109952379Y-50999728D01*
X109952379Y-50999728D02*
X110371427Y-50999728D01*
X110371427Y-50999728D02*
X110476189Y-51052109D01*
X110476189Y-51052109D02*
X110528570Y-51104490D01*
X110528570Y-51104490D02*
X110580951Y-51209252D01*
X110580951Y-51209252D02*
X110580951Y-51366395D01*
X110580951Y-51366395D02*
X110528570Y-51471157D01*
X110528570Y-51471157D02*
X110476189Y-51523538D01*
X110476189Y-51523538D02*
X110371427Y-51575919D01*
X110371427Y-51575919D02*
X109952379Y-51575919D01*
X111052379Y-52099728D02*
X111052379Y-50999728D01*
X111576189Y-52099728D02*
X111576189Y-50999728D01*
X111576189Y-50999728D02*
X112204761Y-52099728D01*
X112204761Y-52099728D02*
X112204761Y-50999728D01*
X112938094Y-50999728D02*
X113147618Y-50999728D01*
X113147618Y-50999728D02*
X113252380Y-51052109D01*
X113252380Y-51052109D02*
X113357142Y-51156871D01*
X113357142Y-51156871D02*
X113409523Y-51366395D01*
X113409523Y-51366395D02*
X113409523Y-51733062D01*
X113409523Y-51733062D02*
X113357142Y-51942586D01*
X113357142Y-51942586D02*
X113252380Y-52047348D01*
X113252380Y-52047348D02*
X113147618Y-52099728D01*
X113147618Y-52099728D02*
X112938094Y-52099728D01*
X112938094Y-52099728D02*
X112833332Y-52047348D01*
X112833332Y-52047348D02*
X112728570Y-51942586D01*
X112728570Y-51942586D02*
X112676189Y-51733062D01*
X112676189Y-51733062D02*
X112676189Y-51366395D01*
X112676189Y-51366395D02*
X112728570Y-51156871D01*
X112728570Y-51156871D02*
X112833332Y-51052109D01*
X112833332Y-51052109D02*
X112938094Y-50999728D01*
X113880951Y-50999728D02*
X113880951Y-51890205D01*
X113880951Y-51890205D02*
X113933332Y-51994967D01*
X113933332Y-51994967D02*
X113985713Y-52047348D01*
X113985713Y-52047348D02*
X114090475Y-52099728D01*
X114090475Y-52099728D02*
X114299999Y-52099728D01*
X114299999Y-52099728D02*
X114404761Y-52047348D01*
X114404761Y-52047348D02*
X114457142Y-51994967D01*
X114457142Y-51994967D02*
X114509523Y-51890205D01*
X114509523Y-51890205D02*
X114509523Y-50999728D01*
X114876189Y-50999728D02*
X115504761Y-50999728D01*
X115190475Y-52099728D02*
X115190475Y-50999728D01*
D13*
X62614285Y-77671331D02*
X62414285Y-77385617D01*
X62271428Y-77671331D02*
X62271428Y-77071331D01*
X62271428Y-77071331D02*
X62499999Y-77071331D01*
X62499999Y-77071331D02*
X62557142Y-77099902D01*
X62557142Y-77099902D02*
X62585713Y-77128474D01*
X62585713Y-77128474D02*
X62614285Y-77185617D01*
X62614285Y-77185617D02*
X62614285Y-77271331D01*
X62614285Y-77271331D02*
X62585713Y-77328474D01*
X62585713Y-77328474D02*
X62557142Y-77357045D01*
X62557142Y-77357045D02*
X62499999Y-77385617D01*
X62499999Y-77385617D02*
X62271428Y-77385617D01*
X63185713Y-77671331D02*
X62842856Y-77671331D01*
X63014285Y-77671331D02*
X63014285Y-77071331D01*
X63014285Y-77071331D02*
X62957142Y-77157045D01*
X62957142Y-77157045D02*
X62899999Y-77214188D01*
X62899999Y-77214188D02*
X62842856Y-77242760D01*
X63414285Y-77128474D02*
X63442857Y-77099902D01*
X63442857Y-77099902D02*
X63500000Y-77071331D01*
X63500000Y-77071331D02*
X63642857Y-77071331D01*
X63642857Y-77071331D02*
X63700000Y-77099902D01*
X63700000Y-77099902D02*
X63728571Y-77128474D01*
X63728571Y-77128474D02*
X63757142Y-77185617D01*
X63757142Y-77185617D02*
X63757142Y-77242760D01*
X63757142Y-77242760D02*
X63728571Y-77328474D01*
X63728571Y-77328474D02*
X63385714Y-77671331D01*
X63385714Y-77671331D02*
X63757142Y-77671331D01*
X80357143Y-88171331D02*
X80357143Y-87571331D01*
X80357143Y-87571331D02*
X80500000Y-87571331D01*
X80500000Y-87571331D02*
X80585714Y-87599902D01*
X80585714Y-87599902D02*
X80642857Y-87657045D01*
X80642857Y-87657045D02*
X80671428Y-87714188D01*
X80671428Y-87714188D02*
X80700000Y-87828474D01*
X80700000Y-87828474D02*
X80700000Y-87914188D01*
X80700000Y-87914188D02*
X80671428Y-88028474D01*
X80671428Y-88028474D02*
X80642857Y-88085617D01*
X80642857Y-88085617D02*
X80585714Y-88142760D01*
X80585714Y-88142760D02*
X80500000Y-88171331D01*
X80500000Y-88171331D02*
X80357143Y-88171331D01*
X80900000Y-87571331D02*
X81271428Y-87571331D01*
X81271428Y-87571331D02*
X81071428Y-87799902D01*
X81071428Y-87799902D02*
X81157143Y-87799902D01*
X81157143Y-87799902D02*
X81214286Y-87828474D01*
X81214286Y-87828474D02*
X81242857Y-87857045D01*
X81242857Y-87857045D02*
X81271428Y-87914188D01*
X81271428Y-87914188D02*
X81271428Y-88057045D01*
X81271428Y-88057045D02*
X81242857Y-88114188D01*
X81242857Y-88114188D02*
X81214286Y-88142760D01*
X81214286Y-88142760D02*
X81157143Y-88171331D01*
X81157143Y-88171331D02*
X80985714Y-88171331D01*
X80985714Y-88171331D02*
X80928571Y-88142760D01*
X80928571Y-88142760D02*
X80900000Y-88114188D01*
X98400000Y-82871331D02*
X98200000Y-82585617D01*
X98057143Y-82871331D02*
X98057143Y-82271331D01*
X98057143Y-82271331D02*
X98285714Y-82271331D01*
X98285714Y-82271331D02*
X98342857Y-82299902D01*
X98342857Y-82299902D02*
X98371428Y-82328474D01*
X98371428Y-82328474D02*
X98400000Y-82385617D01*
X98400000Y-82385617D02*
X98400000Y-82471331D01*
X98400000Y-82471331D02*
X98371428Y-82528474D01*
X98371428Y-82528474D02*
X98342857Y-82557045D01*
X98342857Y-82557045D02*
X98285714Y-82585617D01*
X98285714Y-82585617D02*
X98057143Y-82585617D01*
X98742857Y-82528474D02*
X98685714Y-82499902D01*
X98685714Y-82499902D02*
X98657143Y-82471331D01*
X98657143Y-82471331D02*
X98628571Y-82414188D01*
X98628571Y-82414188D02*
X98628571Y-82385617D01*
X98628571Y-82385617D02*
X98657143Y-82328474D01*
X98657143Y-82328474D02*
X98685714Y-82299902D01*
X98685714Y-82299902D02*
X98742857Y-82271331D01*
X98742857Y-82271331D02*
X98857143Y-82271331D01*
X98857143Y-82271331D02*
X98914286Y-82299902D01*
X98914286Y-82299902D02*
X98942857Y-82328474D01*
X98942857Y-82328474D02*
X98971428Y-82385617D01*
X98971428Y-82385617D02*
X98971428Y-82414188D01*
X98971428Y-82414188D02*
X98942857Y-82471331D01*
X98942857Y-82471331D02*
X98914286Y-82499902D01*
X98914286Y-82499902D02*
X98857143Y-82528474D01*
X98857143Y-82528474D02*
X98742857Y-82528474D01*
X98742857Y-82528474D02*
X98685714Y-82557045D01*
X98685714Y-82557045D02*
X98657143Y-82585617D01*
X98657143Y-82585617D02*
X98628571Y-82642760D01*
X98628571Y-82642760D02*
X98628571Y-82757045D01*
X98628571Y-82757045D02*
X98657143Y-82814188D01*
X98657143Y-82814188D02*
X98685714Y-82842760D01*
X98685714Y-82842760D02*
X98742857Y-82871331D01*
X98742857Y-82871331D02*
X98857143Y-82871331D01*
X98857143Y-82871331D02*
X98914286Y-82842760D01*
X98914286Y-82842760D02*
X98942857Y-82814188D01*
X98942857Y-82814188D02*
X98971428Y-82757045D01*
X98971428Y-82757045D02*
X98971428Y-82642760D01*
X98971428Y-82642760D02*
X98942857Y-82585617D01*
X98942857Y-82585617D02*
X98914286Y-82557045D01*
X98914286Y-82557045D02*
X98857143Y-82528474D01*
X120400000Y-89914188D02*
X120371428Y-89942760D01*
X120371428Y-89942760D02*
X120285714Y-89971331D01*
X120285714Y-89971331D02*
X120228571Y-89971331D01*
X120228571Y-89971331D02*
X120142857Y-89942760D01*
X120142857Y-89942760D02*
X120085714Y-89885617D01*
X120085714Y-89885617D02*
X120057143Y-89828474D01*
X120057143Y-89828474D02*
X120028571Y-89714188D01*
X120028571Y-89714188D02*
X120028571Y-89628474D01*
X120028571Y-89628474D02*
X120057143Y-89514188D01*
X120057143Y-89514188D02*
X120085714Y-89457045D01*
X120085714Y-89457045D02*
X120142857Y-89399902D01*
X120142857Y-89399902D02*
X120228571Y-89371331D01*
X120228571Y-89371331D02*
X120285714Y-89371331D01*
X120285714Y-89371331D02*
X120371428Y-89399902D01*
X120371428Y-89399902D02*
X120400000Y-89428474D01*
X120942857Y-89371331D02*
X120657143Y-89371331D01*
X120657143Y-89371331D02*
X120628571Y-89657045D01*
X120628571Y-89657045D02*
X120657143Y-89628474D01*
X120657143Y-89628474D02*
X120714286Y-89599902D01*
X120714286Y-89599902D02*
X120857143Y-89599902D01*
X120857143Y-89599902D02*
X120914286Y-89628474D01*
X120914286Y-89628474D02*
X120942857Y-89657045D01*
X120942857Y-89657045D02*
X120971428Y-89714188D01*
X120971428Y-89714188D02*
X120971428Y-89857045D01*
X120971428Y-89857045D02*
X120942857Y-89914188D01*
X120942857Y-89914188D02*
X120914286Y-89942760D01*
X120914286Y-89942760D02*
X120857143Y-89971331D01*
X120857143Y-89971331D02*
X120714286Y-89971331D01*
X120714286Y-89971331D02*
X120657143Y-89942760D01*
X120657143Y-89942760D02*
X120628571Y-89914188D01*
X64742856Y-56071331D02*
X65085714Y-56071331D01*
X64914285Y-56671331D02*
X64914285Y-56071331D01*
X65285714Y-56671331D02*
X65285714Y-56071331D01*
X65285714Y-56071331D02*
X65514285Y-56071331D01*
X65514285Y-56071331D02*
X65571428Y-56099902D01*
X65571428Y-56099902D02*
X65599999Y-56128474D01*
X65599999Y-56128474D02*
X65628571Y-56185617D01*
X65628571Y-56185617D02*
X65628571Y-56271331D01*
X65628571Y-56271331D02*
X65599999Y-56328474D01*
X65599999Y-56328474D02*
X65571428Y-56357045D01*
X65571428Y-56357045D02*
X65514285Y-56385617D01*
X65514285Y-56385617D02*
X65285714Y-56385617D01*
X66142857Y-56071331D02*
X66028571Y-56071331D01*
X66028571Y-56071331D02*
X65971428Y-56099902D01*
X65971428Y-56099902D02*
X65942857Y-56128474D01*
X65942857Y-56128474D02*
X65885714Y-56214188D01*
X65885714Y-56214188D02*
X65857142Y-56328474D01*
X65857142Y-56328474D02*
X65857142Y-56557045D01*
X65857142Y-56557045D02*
X65885714Y-56614188D01*
X65885714Y-56614188D02*
X65914285Y-56642760D01*
X65914285Y-56642760D02*
X65971428Y-56671331D01*
X65971428Y-56671331D02*
X66085714Y-56671331D01*
X66085714Y-56671331D02*
X66142857Y-56642760D01*
X66142857Y-56642760D02*
X66171428Y-56614188D01*
X66171428Y-56614188D02*
X66199999Y-56557045D01*
X66199999Y-56557045D02*
X66199999Y-56414188D01*
X66199999Y-56414188D02*
X66171428Y-56357045D01*
X66171428Y-56357045D02*
X66142857Y-56328474D01*
X66142857Y-56328474D02*
X66085714Y-56299902D01*
X66085714Y-56299902D02*
X65971428Y-56299902D01*
X65971428Y-56299902D02*
X65914285Y-56328474D01*
X65914285Y-56328474D02*
X65885714Y-56357045D01*
X65885714Y-56357045D02*
X65857142Y-56414188D01*
X77671331Y-57200000D02*
X78099902Y-57200000D01*
X78099902Y-57200000D02*
X78185617Y-57228571D01*
X78185617Y-57228571D02*
X78242760Y-57285714D01*
X78242760Y-57285714D02*
X78271331Y-57371428D01*
X78271331Y-57371428D02*
X78271331Y-57428571D01*
X78271331Y-56600000D02*
X78271331Y-56942857D01*
X78271331Y-56771428D02*
X77671331Y-56771428D01*
X77671331Y-56771428D02*
X77757045Y-56828571D01*
X77757045Y-56828571D02*
X77814188Y-56885714D01*
X77814188Y-56885714D02*
X77842760Y-56942857D01*
X104900000Y-79371331D02*
X104700000Y-79085617D01*
X104557143Y-79371331D02*
X104557143Y-78771331D01*
X104557143Y-78771331D02*
X104785714Y-78771331D01*
X104785714Y-78771331D02*
X104842857Y-78799902D01*
X104842857Y-78799902D02*
X104871428Y-78828474D01*
X104871428Y-78828474D02*
X104900000Y-78885617D01*
X104900000Y-78885617D02*
X104900000Y-78971331D01*
X104900000Y-78971331D02*
X104871428Y-79028474D01*
X104871428Y-79028474D02*
X104842857Y-79057045D01*
X104842857Y-79057045D02*
X104785714Y-79085617D01*
X104785714Y-79085617D02*
X104557143Y-79085617D01*
X105100000Y-78771331D02*
X105500000Y-78771331D01*
X105500000Y-78771331D02*
X105242857Y-79371331D01*
X91614285Y-58671331D02*
X91414285Y-58385617D01*
X91271428Y-58671331D02*
X91271428Y-58071331D01*
X91271428Y-58071331D02*
X91499999Y-58071331D01*
X91499999Y-58071331D02*
X91557142Y-58099902D01*
X91557142Y-58099902D02*
X91585713Y-58128474D01*
X91585713Y-58128474D02*
X91614285Y-58185617D01*
X91614285Y-58185617D02*
X91614285Y-58271331D01*
X91614285Y-58271331D02*
X91585713Y-58328474D01*
X91585713Y-58328474D02*
X91557142Y-58357045D01*
X91557142Y-58357045D02*
X91499999Y-58385617D01*
X91499999Y-58385617D02*
X91271428Y-58385617D01*
X92185713Y-58671331D02*
X91842856Y-58671331D01*
X92014285Y-58671331D02*
X92014285Y-58071331D01*
X92014285Y-58071331D02*
X91957142Y-58157045D01*
X91957142Y-58157045D02*
X91899999Y-58214188D01*
X91899999Y-58214188D02*
X91842856Y-58242760D01*
X92385714Y-58071331D02*
X92757142Y-58071331D01*
X92757142Y-58071331D02*
X92557142Y-58299902D01*
X92557142Y-58299902D02*
X92642857Y-58299902D01*
X92642857Y-58299902D02*
X92700000Y-58328474D01*
X92700000Y-58328474D02*
X92728571Y-58357045D01*
X92728571Y-58357045D02*
X92757142Y-58414188D01*
X92757142Y-58414188D02*
X92757142Y-58557045D01*
X92757142Y-58557045D02*
X92728571Y-58614188D01*
X92728571Y-58614188D02*
X92700000Y-58642760D01*
X92700000Y-58642760D02*
X92642857Y-58671331D01*
X92642857Y-58671331D02*
X92471428Y-58671331D01*
X92471428Y-58671331D02*
X92414285Y-58642760D01*
X92414285Y-58642760D02*
X92385714Y-58614188D01*
X134292857Y-51371331D02*
X134292857Y-50771331D01*
X134292857Y-51057045D02*
X134635714Y-51057045D01*
X134635714Y-51371331D02*
X134635714Y-50771331D01*
X134892856Y-50828474D02*
X134921428Y-50799902D01*
X134921428Y-50799902D02*
X134978571Y-50771331D01*
X134978571Y-50771331D02*
X135121428Y-50771331D01*
X135121428Y-50771331D02*
X135178571Y-50799902D01*
X135178571Y-50799902D02*
X135207142Y-50828474D01*
X135207142Y-50828474D02*
X135235713Y-50885617D01*
X135235713Y-50885617D02*
X135235713Y-50942760D01*
X135235713Y-50942760D02*
X135207142Y-51028474D01*
X135207142Y-51028474D02*
X134864285Y-51371331D01*
X134864285Y-51371331D02*
X135235713Y-51371331D01*
X93500000Y-77571331D02*
X93214286Y-77571331D01*
X93214286Y-77571331D02*
X93214286Y-76971331D01*
X94014285Y-77571331D02*
X93671428Y-77571331D01*
X93842857Y-77571331D02*
X93842857Y-76971331D01*
X93842857Y-76971331D02*
X93785714Y-77057045D01*
X93785714Y-77057045D02*
X93728571Y-77114188D01*
X93728571Y-77114188D02*
X93671428Y-77142760D01*
X98400000Y-79371331D02*
X98200000Y-79085617D01*
X98057143Y-79371331D02*
X98057143Y-78771331D01*
X98057143Y-78771331D02*
X98285714Y-78771331D01*
X98285714Y-78771331D02*
X98342857Y-78799902D01*
X98342857Y-78799902D02*
X98371428Y-78828474D01*
X98371428Y-78828474D02*
X98400000Y-78885617D01*
X98400000Y-78885617D02*
X98400000Y-78971331D01*
X98400000Y-78971331D02*
X98371428Y-79028474D01*
X98371428Y-79028474D02*
X98342857Y-79057045D01*
X98342857Y-79057045D02*
X98285714Y-79085617D01*
X98285714Y-79085617D02*
X98057143Y-79085617D01*
X98914286Y-78771331D02*
X98800000Y-78771331D01*
X98800000Y-78771331D02*
X98742857Y-78799902D01*
X98742857Y-78799902D02*
X98714286Y-78828474D01*
X98714286Y-78828474D02*
X98657143Y-78914188D01*
X98657143Y-78914188D02*
X98628571Y-79028474D01*
X98628571Y-79028474D02*
X98628571Y-79257045D01*
X98628571Y-79257045D02*
X98657143Y-79314188D01*
X98657143Y-79314188D02*
X98685714Y-79342760D01*
X98685714Y-79342760D02*
X98742857Y-79371331D01*
X98742857Y-79371331D02*
X98857143Y-79371331D01*
X98857143Y-79371331D02*
X98914286Y-79342760D01*
X98914286Y-79342760D02*
X98942857Y-79314188D01*
X98942857Y-79314188D02*
X98971428Y-79257045D01*
X98971428Y-79257045D02*
X98971428Y-79114188D01*
X98971428Y-79114188D02*
X98942857Y-79057045D01*
X98942857Y-79057045D02*
X98914286Y-79028474D01*
X98914286Y-79028474D02*
X98857143Y-78999902D01*
X98857143Y-78999902D02*
X98742857Y-78999902D01*
X98742857Y-78999902D02*
X98685714Y-79028474D01*
X98685714Y-79028474D02*
X98657143Y-79057045D01*
X98657143Y-79057045D02*
X98628571Y-79114188D01*
X91500000Y-79414187D02*
X91471428Y-79442759D01*
X91471428Y-79442759D02*
X91385714Y-79471330D01*
X91385714Y-79471330D02*
X91328571Y-79471330D01*
X91328571Y-79471330D02*
X91242857Y-79442759D01*
X91242857Y-79442759D02*
X91185714Y-79385616D01*
X91185714Y-79385616D02*
X91157143Y-79328473D01*
X91157143Y-79328473D02*
X91128571Y-79214187D01*
X91128571Y-79214187D02*
X91128571Y-79128473D01*
X91128571Y-79128473D02*
X91157143Y-79014187D01*
X91157143Y-79014187D02*
X91185714Y-78957044D01*
X91185714Y-78957044D02*
X91242857Y-78899901D01*
X91242857Y-78899901D02*
X91328571Y-78871330D01*
X91328571Y-78871330D02*
X91385714Y-78871330D01*
X91385714Y-78871330D02*
X91471428Y-78899901D01*
X91471428Y-78899901D02*
X91500000Y-78928473D01*
X92071428Y-79471330D02*
X91728571Y-79471330D01*
X91900000Y-79471330D02*
X91900000Y-78871330D01*
X91900000Y-78871330D02*
X91842857Y-78957044D01*
X91842857Y-78957044D02*
X91785714Y-79014187D01*
X91785714Y-79014187D02*
X91728571Y-79042759D01*
X74242856Y-56071331D02*
X74585714Y-56071331D01*
X74414285Y-56671331D02*
X74414285Y-56071331D01*
X74785714Y-56671331D02*
X74785714Y-56071331D01*
X74785714Y-56071331D02*
X75014285Y-56071331D01*
X75014285Y-56071331D02*
X75071428Y-56099902D01*
X75071428Y-56099902D02*
X75099999Y-56128474D01*
X75099999Y-56128474D02*
X75128571Y-56185617D01*
X75128571Y-56185617D02*
X75128571Y-56271331D01*
X75128571Y-56271331D02*
X75099999Y-56328474D01*
X75099999Y-56328474D02*
X75071428Y-56357045D01*
X75071428Y-56357045D02*
X75014285Y-56385617D01*
X75014285Y-56385617D02*
X74785714Y-56385617D01*
X75699999Y-56671331D02*
X75357142Y-56671331D01*
X75528571Y-56671331D02*
X75528571Y-56071331D01*
X75528571Y-56071331D02*
X75471428Y-56157045D01*
X75471428Y-56157045D02*
X75414285Y-56214188D01*
X75414285Y-56214188D02*
X75357142Y-56242760D01*
X95700000Y-57114188D02*
X95671428Y-57142760D01*
X95671428Y-57142760D02*
X95585714Y-57171331D01*
X95585714Y-57171331D02*
X95528571Y-57171331D01*
X95528571Y-57171331D02*
X95442857Y-57142760D01*
X95442857Y-57142760D02*
X95385714Y-57085617D01*
X95385714Y-57085617D02*
X95357143Y-57028474D01*
X95357143Y-57028474D02*
X95328571Y-56914188D01*
X95328571Y-56914188D02*
X95328571Y-56828474D01*
X95328571Y-56828474D02*
X95357143Y-56714188D01*
X95357143Y-56714188D02*
X95385714Y-56657045D01*
X95385714Y-56657045D02*
X95442857Y-56599902D01*
X95442857Y-56599902D02*
X95528571Y-56571331D01*
X95528571Y-56571331D02*
X95585714Y-56571331D01*
X95585714Y-56571331D02*
X95671428Y-56599902D01*
X95671428Y-56599902D02*
X95700000Y-56628474D01*
X95900000Y-56571331D02*
X96300000Y-56571331D01*
X96300000Y-56571331D02*
X96042857Y-57171331D01*
X80557143Y-78371331D02*
X80557143Y-77771331D01*
X80557143Y-77771331D02*
X80700000Y-77771331D01*
X80700000Y-77771331D02*
X80785714Y-77799902D01*
X80785714Y-77799902D02*
X80842857Y-77857045D01*
X80842857Y-77857045D02*
X80871428Y-77914188D01*
X80871428Y-77914188D02*
X80900000Y-78028474D01*
X80900000Y-78028474D02*
X80900000Y-78114188D01*
X80900000Y-78114188D02*
X80871428Y-78228474D01*
X80871428Y-78228474D02*
X80842857Y-78285617D01*
X80842857Y-78285617D02*
X80785714Y-78342760D01*
X80785714Y-78342760D02*
X80700000Y-78371331D01*
X80700000Y-78371331D02*
X80557143Y-78371331D01*
X81128571Y-77828474D02*
X81157143Y-77799902D01*
X81157143Y-77799902D02*
X81214286Y-77771331D01*
X81214286Y-77771331D02*
X81357143Y-77771331D01*
X81357143Y-77771331D02*
X81414286Y-77799902D01*
X81414286Y-77799902D02*
X81442857Y-77828474D01*
X81442857Y-77828474D02*
X81471428Y-77885617D01*
X81471428Y-77885617D02*
X81471428Y-77942760D01*
X81471428Y-77942760D02*
X81442857Y-78028474D01*
X81442857Y-78028474D02*
X81100000Y-78371331D01*
X81100000Y-78371331D02*
X81471428Y-78371331D01*
X79742856Y-56071331D02*
X80085714Y-56071331D01*
X79914285Y-56671331D02*
X79914285Y-56071331D01*
X80285714Y-56671331D02*
X80285714Y-56071331D01*
X80285714Y-56071331D02*
X80514285Y-56071331D01*
X80514285Y-56071331D02*
X80571428Y-56099902D01*
X80571428Y-56099902D02*
X80599999Y-56128474D01*
X80599999Y-56128474D02*
X80628571Y-56185617D01*
X80628571Y-56185617D02*
X80628571Y-56271331D01*
X80628571Y-56271331D02*
X80599999Y-56328474D01*
X80599999Y-56328474D02*
X80571428Y-56357045D01*
X80571428Y-56357045D02*
X80514285Y-56385617D01*
X80514285Y-56385617D02*
X80285714Y-56385617D01*
X80857142Y-56128474D02*
X80885714Y-56099902D01*
X80885714Y-56099902D02*
X80942857Y-56071331D01*
X80942857Y-56071331D02*
X81085714Y-56071331D01*
X81085714Y-56071331D02*
X81142857Y-56099902D01*
X81142857Y-56099902D02*
X81171428Y-56128474D01*
X81171428Y-56128474D02*
X81199999Y-56185617D01*
X81199999Y-56185617D02*
X81199999Y-56242760D01*
X81199999Y-56242760D02*
X81171428Y-56328474D01*
X81171428Y-56328474D02*
X80828571Y-56671331D01*
X80828571Y-56671331D02*
X81199999Y-56671331D01*
X102242856Y-85971331D02*
X102585714Y-85971331D01*
X102414285Y-86571331D02*
X102414285Y-85971331D01*
X102785714Y-86571331D02*
X102785714Y-85971331D01*
X102785714Y-85971331D02*
X103014285Y-85971331D01*
X103014285Y-85971331D02*
X103071428Y-85999902D01*
X103071428Y-85999902D02*
X103099999Y-86028474D01*
X103099999Y-86028474D02*
X103128571Y-86085617D01*
X103128571Y-86085617D02*
X103128571Y-86171331D01*
X103128571Y-86171331D02*
X103099999Y-86228474D01*
X103099999Y-86228474D02*
X103071428Y-86257045D01*
X103071428Y-86257045D02*
X103014285Y-86285617D01*
X103014285Y-86285617D02*
X102785714Y-86285617D01*
X103642857Y-86171331D02*
X103642857Y-86571331D01*
X103499999Y-85942760D02*
X103357142Y-86371331D01*
X103357142Y-86371331D02*
X103728571Y-86371331D01*
X95614285Y-61671331D02*
X95414285Y-61385617D01*
X95271428Y-61671331D02*
X95271428Y-61071331D01*
X95271428Y-61071331D02*
X95499999Y-61071331D01*
X95499999Y-61071331D02*
X95557142Y-61099902D01*
X95557142Y-61099902D02*
X95585713Y-61128474D01*
X95585713Y-61128474D02*
X95614285Y-61185617D01*
X95614285Y-61185617D02*
X95614285Y-61271331D01*
X95614285Y-61271331D02*
X95585713Y-61328474D01*
X95585713Y-61328474D02*
X95557142Y-61357045D01*
X95557142Y-61357045D02*
X95499999Y-61385617D01*
X95499999Y-61385617D02*
X95271428Y-61385617D01*
X96185713Y-61671331D02*
X95842856Y-61671331D01*
X96014285Y-61671331D02*
X96014285Y-61071331D01*
X96014285Y-61071331D02*
X95957142Y-61157045D01*
X95957142Y-61157045D02*
X95899999Y-61214188D01*
X95899999Y-61214188D02*
X95842856Y-61242760D01*
X96557142Y-61071331D02*
X96614285Y-61071331D01*
X96614285Y-61071331D02*
X96671428Y-61099902D01*
X96671428Y-61099902D02*
X96700000Y-61128474D01*
X96700000Y-61128474D02*
X96728571Y-61185617D01*
X96728571Y-61185617D02*
X96757142Y-61299902D01*
X96757142Y-61299902D02*
X96757142Y-61442760D01*
X96757142Y-61442760D02*
X96728571Y-61557045D01*
X96728571Y-61557045D02*
X96700000Y-61614188D01*
X96700000Y-61614188D02*
X96671428Y-61642760D01*
X96671428Y-61642760D02*
X96614285Y-61671331D01*
X96614285Y-61671331D02*
X96557142Y-61671331D01*
X96557142Y-61671331D02*
X96500000Y-61642760D01*
X96500000Y-61642760D02*
X96471428Y-61614188D01*
X96471428Y-61614188D02*
X96442857Y-61557045D01*
X96442857Y-61557045D02*
X96414285Y-61442760D01*
X96414285Y-61442760D02*
X96414285Y-61299902D01*
X96414285Y-61299902D02*
X96442857Y-61185617D01*
X96442857Y-61185617D02*
X96471428Y-61128474D01*
X96471428Y-61128474D02*
X96500000Y-61099902D01*
X96500000Y-61099902D02*
X96557142Y-61071331D01*
X123900000Y-64671331D02*
X123700000Y-64385617D01*
X123557143Y-64671331D02*
X123557143Y-64071331D01*
X123557143Y-64071331D02*
X123785714Y-64071331D01*
X123785714Y-64071331D02*
X123842857Y-64099902D01*
X123842857Y-64099902D02*
X123871428Y-64128474D01*
X123871428Y-64128474D02*
X123900000Y-64185617D01*
X123900000Y-64185617D02*
X123900000Y-64271331D01*
X123900000Y-64271331D02*
X123871428Y-64328474D01*
X123871428Y-64328474D02*
X123842857Y-64357045D01*
X123842857Y-64357045D02*
X123785714Y-64385617D01*
X123785714Y-64385617D02*
X123557143Y-64385617D01*
X124128571Y-64128474D02*
X124157143Y-64099902D01*
X124157143Y-64099902D02*
X124214286Y-64071331D01*
X124214286Y-64071331D02*
X124357143Y-64071331D01*
X124357143Y-64071331D02*
X124414286Y-64099902D01*
X124414286Y-64099902D02*
X124442857Y-64128474D01*
X124442857Y-64128474D02*
X124471428Y-64185617D01*
X124471428Y-64185617D02*
X124471428Y-64242760D01*
X124471428Y-64242760D02*
X124442857Y-64328474D01*
X124442857Y-64328474D02*
X124100000Y-64671331D01*
X124100000Y-64671331D02*
X124471428Y-64671331D01*
X85900000Y-87171331D02*
X85700000Y-86885617D01*
X85557143Y-87171331D02*
X85557143Y-86571331D01*
X85557143Y-86571331D02*
X85785714Y-86571331D01*
X85785714Y-86571331D02*
X85842857Y-86599902D01*
X85842857Y-86599902D02*
X85871428Y-86628474D01*
X85871428Y-86628474D02*
X85900000Y-86685617D01*
X85900000Y-86685617D02*
X85900000Y-86771331D01*
X85900000Y-86771331D02*
X85871428Y-86828474D01*
X85871428Y-86828474D02*
X85842857Y-86857045D01*
X85842857Y-86857045D02*
X85785714Y-86885617D01*
X85785714Y-86885617D02*
X85557143Y-86885617D01*
X86471428Y-87171331D02*
X86128571Y-87171331D01*
X86300000Y-87171331D02*
X86300000Y-86571331D01*
X86300000Y-86571331D02*
X86242857Y-86657045D01*
X86242857Y-86657045D02*
X86185714Y-86714188D01*
X86185714Y-86714188D02*
X86128571Y-86742760D01*
X71471428Y-89957045D02*
X71557142Y-89985617D01*
X71557142Y-89985617D02*
X71585713Y-90014188D01*
X71585713Y-90014188D02*
X71614285Y-90071331D01*
X71614285Y-90071331D02*
X71614285Y-90157045D01*
X71614285Y-90157045D02*
X71585713Y-90214188D01*
X71585713Y-90214188D02*
X71557142Y-90242760D01*
X71557142Y-90242760D02*
X71499999Y-90271331D01*
X71499999Y-90271331D02*
X71271428Y-90271331D01*
X71271428Y-90271331D02*
X71271428Y-89671331D01*
X71271428Y-89671331D02*
X71471428Y-89671331D01*
X71471428Y-89671331D02*
X71528571Y-89699902D01*
X71528571Y-89699902D02*
X71557142Y-89728474D01*
X71557142Y-89728474D02*
X71585713Y-89785617D01*
X71585713Y-89785617D02*
X71585713Y-89842760D01*
X71585713Y-89842760D02*
X71557142Y-89899902D01*
X71557142Y-89899902D02*
X71528571Y-89928474D01*
X71528571Y-89928474D02*
X71471428Y-89957045D01*
X71471428Y-89957045D02*
X71271428Y-89957045D01*
X71814285Y-89671331D02*
X72214285Y-89671331D01*
X72214285Y-89671331D02*
X71814285Y-90271331D01*
X71814285Y-90271331D02*
X72214285Y-90271331D01*
X72757142Y-90271331D02*
X72414285Y-90271331D01*
X72585714Y-90271331D02*
X72585714Y-89671331D01*
X72585714Y-89671331D02*
X72528571Y-89757045D01*
X72528571Y-89757045D02*
X72471428Y-89814188D01*
X72471428Y-89814188D02*
X72414285Y-89842760D01*
X104900000Y-82871331D02*
X104700000Y-82585617D01*
X104557143Y-82871331D02*
X104557143Y-82271331D01*
X104557143Y-82271331D02*
X104785714Y-82271331D01*
X104785714Y-82271331D02*
X104842857Y-82299902D01*
X104842857Y-82299902D02*
X104871428Y-82328474D01*
X104871428Y-82328474D02*
X104900000Y-82385617D01*
X104900000Y-82385617D02*
X104900000Y-82471331D01*
X104900000Y-82471331D02*
X104871428Y-82528474D01*
X104871428Y-82528474D02*
X104842857Y-82557045D01*
X104842857Y-82557045D02*
X104785714Y-82585617D01*
X104785714Y-82585617D02*
X104557143Y-82585617D01*
X105185714Y-82871331D02*
X105300000Y-82871331D01*
X105300000Y-82871331D02*
X105357143Y-82842760D01*
X105357143Y-82842760D02*
X105385714Y-82814188D01*
X105385714Y-82814188D02*
X105442857Y-82728474D01*
X105442857Y-82728474D02*
X105471428Y-82614188D01*
X105471428Y-82614188D02*
X105471428Y-82385617D01*
X105471428Y-82385617D02*
X105442857Y-82328474D01*
X105442857Y-82328474D02*
X105414286Y-82299902D01*
X105414286Y-82299902D02*
X105357143Y-82271331D01*
X105357143Y-82271331D02*
X105242857Y-82271331D01*
X105242857Y-82271331D02*
X105185714Y-82299902D01*
X105185714Y-82299902D02*
X105157143Y-82328474D01*
X105157143Y-82328474D02*
X105128571Y-82385617D01*
X105128571Y-82385617D02*
X105128571Y-82528474D01*
X105128571Y-82528474D02*
X105157143Y-82585617D01*
X105157143Y-82585617D02*
X105185714Y-82614188D01*
X105185714Y-82614188D02*
X105242857Y-82642760D01*
X105242857Y-82642760D02*
X105357143Y-82642760D01*
X105357143Y-82642760D02*
X105414286Y-82614188D01*
X105414286Y-82614188D02*
X105442857Y-82585617D01*
X105442857Y-82585617D02*
X105471428Y-82528474D01*
X101542857Y-62071331D02*
X101542857Y-62557045D01*
X101542857Y-62557045D02*
X101571428Y-62614188D01*
X101571428Y-62614188D02*
X101600000Y-62642760D01*
X101600000Y-62642760D02*
X101657142Y-62671331D01*
X101657142Y-62671331D02*
X101771428Y-62671331D01*
X101771428Y-62671331D02*
X101828571Y-62642760D01*
X101828571Y-62642760D02*
X101857142Y-62614188D01*
X101857142Y-62614188D02*
X101885714Y-62557045D01*
X101885714Y-62557045D02*
X101885714Y-62071331D01*
X102485713Y-62671331D02*
X102142856Y-62671331D01*
X102314285Y-62671331D02*
X102314285Y-62071331D01*
X102314285Y-62071331D02*
X102257142Y-62157045D01*
X102257142Y-62157045D02*
X102199999Y-62214188D01*
X102199999Y-62214188D02*
X102142856Y-62242760D01*
X125742856Y-82971331D02*
X126085714Y-82971331D01*
X125914285Y-83571331D02*
X125914285Y-82971331D01*
X126285714Y-83571331D02*
X126285714Y-82971331D01*
X126285714Y-82971331D02*
X126514285Y-82971331D01*
X126514285Y-82971331D02*
X126571428Y-82999902D01*
X126571428Y-82999902D02*
X126599999Y-83028474D01*
X126599999Y-83028474D02*
X126628571Y-83085617D01*
X126628571Y-83085617D02*
X126628571Y-83171331D01*
X126628571Y-83171331D02*
X126599999Y-83228474D01*
X126599999Y-83228474D02*
X126571428Y-83257045D01*
X126571428Y-83257045D02*
X126514285Y-83285617D01*
X126514285Y-83285617D02*
X126285714Y-83285617D01*
X126828571Y-82971331D02*
X127199999Y-82971331D01*
X127199999Y-82971331D02*
X126999999Y-83199902D01*
X126999999Y-83199902D02*
X127085714Y-83199902D01*
X127085714Y-83199902D02*
X127142857Y-83228474D01*
X127142857Y-83228474D02*
X127171428Y-83257045D01*
X127171428Y-83257045D02*
X127199999Y-83314188D01*
X127199999Y-83314188D02*
X127199999Y-83457045D01*
X127199999Y-83457045D02*
X127171428Y-83514188D01*
X127171428Y-83514188D02*
X127142857Y-83542760D01*
X127142857Y-83542760D02*
X127085714Y-83571331D01*
X127085714Y-83571331D02*
X126914285Y-83571331D01*
X126914285Y-83571331D02*
X126857142Y-83542760D01*
X126857142Y-83542760D02*
X126828571Y-83514188D01*
X113900000Y-89914188D02*
X113871428Y-89942760D01*
X113871428Y-89942760D02*
X113785714Y-89971331D01*
X113785714Y-89971331D02*
X113728571Y-89971331D01*
X113728571Y-89971331D02*
X113642857Y-89942760D01*
X113642857Y-89942760D02*
X113585714Y-89885617D01*
X113585714Y-89885617D02*
X113557143Y-89828474D01*
X113557143Y-89828474D02*
X113528571Y-89714188D01*
X113528571Y-89714188D02*
X113528571Y-89628474D01*
X113528571Y-89628474D02*
X113557143Y-89514188D01*
X113557143Y-89514188D02*
X113585714Y-89457045D01*
X113585714Y-89457045D02*
X113642857Y-89399902D01*
X113642857Y-89399902D02*
X113728571Y-89371331D01*
X113728571Y-89371331D02*
X113785714Y-89371331D01*
X113785714Y-89371331D02*
X113871428Y-89399902D01*
X113871428Y-89399902D02*
X113900000Y-89428474D01*
X114414286Y-89571331D02*
X114414286Y-89971331D01*
X114271428Y-89342760D02*
X114128571Y-89771331D01*
X114128571Y-89771331D02*
X114500000Y-89771331D01*
X95614285Y-65171331D02*
X95414285Y-64885617D01*
X95271428Y-65171331D02*
X95271428Y-64571331D01*
X95271428Y-64571331D02*
X95499999Y-64571331D01*
X95499999Y-64571331D02*
X95557142Y-64599902D01*
X95557142Y-64599902D02*
X95585713Y-64628474D01*
X95585713Y-64628474D02*
X95614285Y-64685617D01*
X95614285Y-64685617D02*
X95614285Y-64771331D01*
X95614285Y-64771331D02*
X95585713Y-64828474D01*
X95585713Y-64828474D02*
X95557142Y-64857045D01*
X95557142Y-64857045D02*
X95499999Y-64885617D01*
X95499999Y-64885617D02*
X95271428Y-64885617D01*
X96185713Y-65171331D02*
X95842856Y-65171331D01*
X96014285Y-65171331D02*
X96014285Y-64571331D01*
X96014285Y-64571331D02*
X95957142Y-64657045D01*
X95957142Y-64657045D02*
X95899999Y-64714188D01*
X95899999Y-64714188D02*
X95842856Y-64742760D01*
X96757142Y-65171331D02*
X96414285Y-65171331D01*
X96585714Y-65171331D02*
X96585714Y-64571331D01*
X96585714Y-64571331D02*
X96528571Y-64657045D01*
X96528571Y-64657045D02*
X96471428Y-64714188D01*
X96471428Y-64714188D02*
X96414285Y-64742760D01*
X120400000Y-82671331D02*
X120200000Y-82385617D01*
X120057143Y-82671331D02*
X120057143Y-82071331D01*
X120057143Y-82071331D02*
X120285714Y-82071331D01*
X120285714Y-82071331D02*
X120342857Y-82099902D01*
X120342857Y-82099902D02*
X120371428Y-82128474D01*
X120371428Y-82128474D02*
X120400000Y-82185617D01*
X120400000Y-82185617D02*
X120400000Y-82271331D01*
X120400000Y-82271331D02*
X120371428Y-82328474D01*
X120371428Y-82328474D02*
X120342857Y-82357045D01*
X120342857Y-82357045D02*
X120285714Y-82385617D01*
X120285714Y-82385617D02*
X120057143Y-82385617D01*
X120942857Y-82071331D02*
X120657143Y-82071331D01*
X120657143Y-82071331D02*
X120628571Y-82357045D01*
X120628571Y-82357045D02*
X120657143Y-82328474D01*
X120657143Y-82328474D02*
X120714286Y-82299902D01*
X120714286Y-82299902D02*
X120857143Y-82299902D01*
X120857143Y-82299902D02*
X120914286Y-82328474D01*
X120914286Y-82328474D02*
X120942857Y-82357045D01*
X120942857Y-82357045D02*
X120971428Y-82414188D01*
X120971428Y-82414188D02*
X120971428Y-82557045D01*
X120971428Y-82557045D02*
X120942857Y-82614188D01*
X120942857Y-82614188D02*
X120914286Y-82642760D01*
X120914286Y-82642760D02*
X120857143Y-82671331D01*
X120857143Y-82671331D02*
X120714286Y-82671331D01*
X120714286Y-82671331D02*
X120657143Y-82642760D01*
X120657143Y-82642760D02*
X120628571Y-82614188D01*
X103900000Y-75914188D02*
X103871428Y-75942760D01*
X103871428Y-75942760D02*
X103785714Y-75971331D01*
X103785714Y-75971331D02*
X103728571Y-75971331D01*
X103728571Y-75971331D02*
X103642857Y-75942760D01*
X103642857Y-75942760D02*
X103585714Y-75885617D01*
X103585714Y-75885617D02*
X103557143Y-75828474D01*
X103557143Y-75828474D02*
X103528571Y-75714188D01*
X103528571Y-75714188D02*
X103528571Y-75628474D01*
X103528571Y-75628474D02*
X103557143Y-75514188D01*
X103557143Y-75514188D02*
X103585714Y-75457045D01*
X103585714Y-75457045D02*
X103642857Y-75399902D01*
X103642857Y-75399902D02*
X103728571Y-75371331D01*
X103728571Y-75371331D02*
X103785714Y-75371331D01*
X103785714Y-75371331D02*
X103871428Y-75399902D01*
X103871428Y-75399902D02*
X103900000Y-75428474D01*
X104100000Y-75371331D02*
X104471428Y-75371331D01*
X104471428Y-75371331D02*
X104271428Y-75599902D01*
X104271428Y-75599902D02*
X104357143Y-75599902D01*
X104357143Y-75599902D02*
X104414286Y-75628474D01*
X104414286Y-75628474D02*
X104442857Y-75657045D01*
X104442857Y-75657045D02*
X104471428Y-75714188D01*
X104471428Y-75714188D02*
X104471428Y-75857045D01*
X104471428Y-75857045D02*
X104442857Y-75914188D01*
X104442857Y-75914188D02*
X104414286Y-75942760D01*
X104414286Y-75942760D02*
X104357143Y-75971331D01*
X104357143Y-75971331D02*
X104185714Y-75971331D01*
X104185714Y-75971331D02*
X104128571Y-75942760D01*
X104128571Y-75942760D02*
X104100000Y-75914188D01*
X88057143Y-57071331D02*
X88057143Y-56471331D01*
X88057143Y-56471331D02*
X88200000Y-56471331D01*
X88200000Y-56471331D02*
X88285714Y-56499902D01*
X88285714Y-56499902D02*
X88342857Y-56557045D01*
X88342857Y-56557045D02*
X88371428Y-56614188D01*
X88371428Y-56614188D02*
X88400000Y-56728474D01*
X88400000Y-56728474D02*
X88400000Y-56814188D01*
X88400000Y-56814188D02*
X88371428Y-56928474D01*
X88371428Y-56928474D02*
X88342857Y-56985617D01*
X88342857Y-56985617D02*
X88285714Y-57042760D01*
X88285714Y-57042760D02*
X88200000Y-57071331D01*
X88200000Y-57071331D02*
X88057143Y-57071331D01*
X88971428Y-57071331D02*
X88628571Y-57071331D01*
X88800000Y-57071331D02*
X88800000Y-56471331D01*
X88800000Y-56471331D02*
X88742857Y-56557045D01*
X88742857Y-56557045D02*
X88685714Y-56614188D01*
X88685714Y-56614188D02*
X88628571Y-56642760D01*
X59292857Y-86371331D02*
X59292857Y-85771331D01*
X59292857Y-86057045D02*
X59635714Y-86057045D01*
X59635714Y-86371331D02*
X59635714Y-85771331D01*
X59864285Y-85771331D02*
X60235713Y-85771331D01*
X60235713Y-85771331D02*
X60035713Y-85999902D01*
X60035713Y-85999902D02*
X60121428Y-85999902D01*
X60121428Y-85999902D02*
X60178571Y-86028474D01*
X60178571Y-86028474D02*
X60207142Y-86057045D01*
X60207142Y-86057045D02*
X60235713Y-86114188D01*
X60235713Y-86114188D02*
X60235713Y-86257045D01*
X60235713Y-86257045D02*
X60207142Y-86314188D01*
X60207142Y-86314188D02*
X60178571Y-86342760D01*
X60178571Y-86342760D02*
X60121428Y-86371331D01*
X60121428Y-86371331D02*
X59949999Y-86371331D01*
X59949999Y-86371331D02*
X59892856Y-86342760D01*
X59892856Y-86342760D02*
X59864285Y-86314188D01*
X103900000Y-72671331D02*
X103700000Y-72385617D01*
X103557143Y-72671331D02*
X103557143Y-72071331D01*
X103557143Y-72071331D02*
X103785714Y-72071331D01*
X103785714Y-72071331D02*
X103842857Y-72099902D01*
X103842857Y-72099902D02*
X103871428Y-72128474D01*
X103871428Y-72128474D02*
X103900000Y-72185617D01*
X103900000Y-72185617D02*
X103900000Y-72271331D01*
X103900000Y-72271331D02*
X103871428Y-72328474D01*
X103871428Y-72328474D02*
X103842857Y-72357045D01*
X103842857Y-72357045D02*
X103785714Y-72385617D01*
X103785714Y-72385617D02*
X103557143Y-72385617D01*
X104100000Y-72071331D02*
X104471428Y-72071331D01*
X104471428Y-72071331D02*
X104271428Y-72299902D01*
X104271428Y-72299902D02*
X104357143Y-72299902D01*
X104357143Y-72299902D02*
X104414286Y-72328474D01*
X104414286Y-72328474D02*
X104442857Y-72357045D01*
X104442857Y-72357045D02*
X104471428Y-72414188D01*
X104471428Y-72414188D02*
X104471428Y-72557045D01*
X104471428Y-72557045D02*
X104442857Y-72614188D01*
X104442857Y-72614188D02*
X104414286Y-72642760D01*
X104414286Y-72642760D02*
X104357143Y-72671331D01*
X104357143Y-72671331D02*
X104185714Y-72671331D01*
X104185714Y-72671331D02*
X104128571Y-72642760D01*
X104128571Y-72642760D02*
X104100000Y-72614188D01*
X107742856Y-85971331D02*
X108085714Y-85971331D01*
X107914285Y-86571331D02*
X107914285Y-85971331D01*
X108285714Y-86571331D02*
X108285714Y-85971331D01*
X108285714Y-85971331D02*
X108514285Y-85971331D01*
X108514285Y-85971331D02*
X108571428Y-85999902D01*
X108571428Y-85999902D02*
X108599999Y-86028474D01*
X108599999Y-86028474D02*
X108628571Y-86085617D01*
X108628571Y-86085617D02*
X108628571Y-86171331D01*
X108628571Y-86171331D02*
X108599999Y-86228474D01*
X108599999Y-86228474D02*
X108571428Y-86257045D01*
X108571428Y-86257045D02*
X108514285Y-86285617D01*
X108514285Y-86285617D02*
X108285714Y-86285617D01*
X109171428Y-85971331D02*
X108885714Y-85971331D01*
X108885714Y-85971331D02*
X108857142Y-86257045D01*
X108857142Y-86257045D02*
X108885714Y-86228474D01*
X108885714Y-86228474D02*
X108942857Y-86199902D01*
X108942857Y-86199902D02*
X109085714Y-86199902D01*
X109085714Y-86199902D02*
X109142857Y-86228474D01*
X109142857Y-86228474D02*
X109171428Y-86257045D01*
X109171428Y-86257045D02*
X109199999Y-86314188D01*
X109199999Y-86314188D02*
X109199999Y-86457045D01*
X109199999Y-86457045D02*
X109171428Y-86514188D01*
X109171428Y-86514188D02*
X109142857Y-86542760D01*
X109142857Y-86542760D02*
X109085714Y-86571331D01*
X109085714Y-86571331D02*
X108942857Y-86571331D01*
X108942857Y-86571331D02*
X108885714Y-86542760D01*
X108885714Y-86542760D02*
X108857142Y-86514188D01*
X59292857Y-51371331D02*
X59292857Y-50771331D01*
X59292857Y-51057045D02*
X59635714Y-51057045D01*
X59635714Y-51371331D02*
X59635714Y-50771331D01*
X60235713Y-51371331D02*
X59892856Y-51371331D01*
X60064285Y-51371331D02*
X60064285Y-50771331D01*
X60064285Y-50771331D02*
X60007142Y-50857045D01*
X60007142Y-50857045D02*
X59949999Y-50914188D01*
X59949999Y-50914188D02*
X59892856Y-50942760D01*
X70114285Y-51471330D02*
X69914285Y-51185616D01*
X69771428Y-51471330D02*
X69771428Y-50871330D01*
X69771428Y-50871330D02*
X69999999Y-50871330D01*
X69999999Y-50871330D02*
X70057142Y-50899901D01*
X70057142Y-50899901D02*
X70085713Y-50928473D01*
X70085713Y-50928473D02*
X70114285Y-50985616D01*
X70114285Y-50985616D02*
X70114285Y-51071330D01*
X70114285Y-51071330D02*
X70085713Y-51128473D01*
X70085713Y-51128473D02*
X70057142Y-51157044D01*
X70057142Y-51157044D02*
X69999999Y-51185616D01*
X69999999Y-51185616D02*
X69771428Y-51185616D01*
X70685713Y-51471330D02*
X70342856Y-51471330D01*
X70514285Y-51471330D02*
X70514285Y-50871330D01*
X70514285Y-50871330D02*
X70457142Y-50957044D01*
X70457142Y-50957044D02*
X70399999Y-51014187D01*
X70399999Y-51014187D02*
X70342856Y-51042759D01*
X71228571Y-50871330D02*
X70942857Y-50871330D01*
X70942857Y-50871330D02*
X70914285Y-51157044D01*
X70914285Y-51157044D02*
X70942857Y-51128473D01*
X70942857Y-51128473D02*
X71000000Y-51099901D01*
X71000000Y-51099901D02*
X71142857Y-51099901D01*
X71142857Y-51099901D02*
X71200000Y-51128473D01*
X71200000Y-51128473D02*
X71228571Y-51157044D01*
X71228571Y-51157044D02*
X71257142Y-51214187D01*
X71257142Y-51214187D02*
X71257142Y-51357044D01*
X71257142Y-51357044D02*
X71228571Y-51414187D01*
X71228571Y-51414187D02*
X71200000Y-51442759D01*
X71200000Y-51442759D02*
X71142857Y-51471330D01*
X71142857Y-51471330D02*
X71000000Y-51471330D01*
X71000000Y-51471330D02*
X70942857Y-51442759D01*
X70942857Y-51442759D02*
X70914285Y-51414187D01*
X139299999Y-67271331D02*
X139299999Y-67699902D01*
X139299999Y-67699902D02*
X139271428Y-67785617D01*
X139271428Y-67785617D02*
X139214285Y-67842760D01*
X139214285Y-67842760D02*
X139128571Y-67871331D01*
X139128571Y-67871331D02*
X139071428Y-67871331D01*
X139557142Y-67328474D02*
X139585714Y-67299902D01*
X139585714Y-67299902D02*
X139642857Y-67271331D01*
X139642857Y-67271331D02*
X139785714Y-67271331D01*
X139785714Y-67271331D02*
X139842857Y-67299902D01*
X139842857Y-67299902D02*
X139871428Y-67328474D01*
X139871428Y-67328474D02*
X139899999Y-67385617D01*
X139899999Y-67385617D02*
X139899999Y-67442760D01*
X139899999Y-67442760D02*
X139871428Y-67528474D01*
X139871428Y-67528474D02*
X139528571Y-67871331D01*
X139528571Y-67871331D02*
X139899999Y-67871331D01*
X113900000Y-82671331D02*
X113700000Y-82385617D01*
X113557143Y-82671331D02*
X113557143Y-82071331D01*
X113557143Y-82071331D02*
X113785714Y-82071331D01*
X113785714Y-82071331D02*
X113842857Y-82099902D01*
X113842857Y-82099902D02*
X113871428Y-82128474D01*
X113871428Y-82128474D02*
X113900000Y-82185617D01*
X113900000Y-82185617D02*
X113900000Y-82271331D01*
X113900000Y-82271331D02*
X113871428Y-82328474D01*
X113871428Y-82328474D02*
X113842857Y-82357045D01*
X113842857Y-82357045D02*
X113785714Y-82385617D01*
X113785714Y-82385617D02*
X113557143Y-82385617D01*
X114414286Y-82271331D02*
X114414286Y-82671331D01*
X114271428Y-82042760D02*
X114128571Y-82471331D01*
X114128571Y-82471331D02*
X114500000Y-82471331D01*
X91614285Y-66671331D02*
X91414285Y-66385617D01*
X91271428Y-66671331D02*
X91271428Y-66071331D01*
X91271428Y-66071331D02*
X91499999Y-66071331D01*
X91499999Y-66071331D02*
X91557142Y-66099902D01*
X91557142Y-66099902D02*
X91585713Y-66128474D01*
X91585713Y-66128474D02*
X91614285Y-66185617D01*
X91614285Y-66185617D02*
X91614285Y-66271331D01*
X91614285Y-66271331D02*
X91585713Y-66328474D01*
X91585713Y-66328474D02*
X91557142Y-66357045D01*
X91557142Y-66357045D02*
X91499999Y-66385617D01*
X91499999Y-66385617D02*
X91271428Y-66385617D01*
X92185713Y-66671331D02*
X91842856Y-66671331D01*
X92014285Y-66671331D02*
X92014285Y-66071331D01*
X92014285Y-66071331D02*
X91957142Y-66157045D01*
X91957142Y-66157045D02*
X91899999Y-66214188D01*
X91899999Y-66214188D02*
X91842856Y-66242760D01*
X92700000Y-66271331D02*
X92700000Y-66671331D01*
X92557142Y-66042760D02*
X92414285Y-66471331D01*
X92414285Y-66471331D02*
X92785714Y-66471331D01*
X107400000Y-59514188D02*
X107371428Y-59542760D01*
X107371428Y-59542760D02*
X107285714Y-59571331D01*
X107285714Y-59571331D02*
X107228571Y-59571331D01*
X107228571Y-59571331D02*
X107142857Y-59542760D01*
X107142857Y-59542760D02*
X107085714Y-59485617D01*
X107085714Y-59485617D02*
X107057143Y-59428474D01*
X107057143Y-59428474D02*
X107028571Y-59314188D01*
X107028571Y-59314188D02*
X107028571Y-59228474D01*
X107028571Y-59228474D02*
X107057143Y-59114188D01*
X107057143Y-59114188D02*
X107085714Y-59057045D01*
X107085714Y-59057045D02*
X107142857Y-58999902D01*
X107142857Y-58999902D02*
X107228571Y-58971331D01*
X107228571Y-58971331D02*
X107285714Y-58971331D01*
X107285714Y-58971331D02*
X107371428Y-58999902D01*
X107371428Y-58999902D02*
X107400000Y-59028474D01*
X107914286Y-58971331D02*
X107800000Y-58971331D01*
X107800000Y-58971331D02*
X107742857Y-58999902D01*
X107742857Y-58999902D02*
X107714286Y-59028474D01*
X107714286Y-59028474D02*
X107657143Y-59114188D01*
X107657143Y-59114188D02*
X107628571Y-59228474D01*
X107628571Y-59228474D02*
X107628571Y-59457045D01*
X107628571Y-59457045D02*
X107657143Y-59514188D01*
X107657143Y-59514188D02*
X107685714Y-59542760D01*
X107685714Y-59542760D02*
X107742857Y-59571331D01*
X107742857Y-59571331D02*
X107857143Y-59571331D01*
X107857143Y-59571331D02*
X107914286Y-59542760D01*
X107914286Y-59542760D02*
X107942857Y-59514188D01*
X107942857Y-59514188D02*
X107971428Y-59457045D01*
X107971428Y-59457045D02*
X107971428Y-59314188D01*
X107971428Y-59314188D02*
X107942857Y-59257045D01*
X107942857Y-59257045D02*
X107914286Y-59228474D01*
X107914286Y-59228474D02*
X107857143Y-59199902D01*
X107857143Y-59199902D02*
X107742857Y-59199902D01*
X107742857Y-59199902D02*
X107685714Y-59228474D01*
X107685714Y-59228474D02*
X107657143Y-59257045D01*
X107657143Y-59257045D02*
X107628571Y-59314188D01*
X98400000Y-86514188D02*
X98371428Y-86542760D01*
X98371428Y-86542760D02*
X98285714Y-86571331D01*
X98285714Y-86571331D02*
X98228571Y-86571331D01*
X98228571Y-86571331D02*
X98142857Y-86542760D01*
X98142857Y-86542760D02*
X98085714Y-86485617D01*
X98085714Y-86485617D02*
X98057143Y-86428474D01*
X98057143Y-86428474D02*
X98028571Y-86314188D01*
X98028571Y-86314188D02*
X98028571Y-86228474D01*
X98028571Y-86228474D02*
X98057143Y-86114188D01*
X98057143Y-86114188D02*
X98085714Y-86057045D01*
X98085714Y-86057045D02*
X98142857Y-85999902D01*
X98142857Y-85999902D02*
X98228571Y-85971331D01*
X98228571Y-85971331D02*
X98285714Y-85971331D01*
X98285714Y-85971331D02*
X98371428Y-85999902D01*
X98371428Y-85999902D02*
X98400000Y-86028474D01*
X98628571Y-86028474D02*
X98657143Y-85999902D01*
X98657143Y-85999902D02*
X98714286Y-85971331D01*
X98714286Y-85971331D02*
X98857143Y-85971331D01*
X98857143Y-85971331D02*
X98914286Y-85999902D01*
X98914286Y-85999902D02*
X98942857Y-86028474D01*
X98942857Y-86028474D02*
X98971428Y-86085617D01*
X98971428Y-86085617D02*
X98971428Y-86142760D01*
X98971428Y-86142760D02*
X98942857Y-86228474D01*
X98942857Y-86228474D02*
X98600000Y-86571331D01*
X98600000Y-86571331D02*
X98971428Y-86571331D01*
X134292857Y-86371331D02*
X134292857Y-85771331D01*
X134292857Y-86057045D02*
X134635714Y-86057045D01*
X134635714Y-86371331D02*
X134635714Y-85771331D01*
X135178571Y-85971331D02*
X135178571Y-86371331D01*
X135035713Y-85742760D02*
X134892856Y-86171331D01*
X134892856Y-86171331D02*
X135264285Y-86171331D01*
%TO.C,R12*%
X62772936Y-78265000D02*
X63227064Y-78265000D01*
X62772936Y-79735000D02*
X63227064Y-79735000D01*
%TO.C,D3*%
X77290000Y-83350000D02*
X77290000Y-86650000D01*
X77290000Y-83350000D02*
X82800000Y-83350000D01*
X77290000Y-86650000D02*
X82800000Y-86650000D01*
%TO.C,R8*%
X98272936Y-80265000D02*
X98727064Y-80265000D01*
X98272936Y-81735000D02*
X98727064Y-81735000D01*
%TO.C,C5*%
X120238748Y-86765000D02*
X120761252Y-86765000D01*
X120238748Y-88235000D02*
X120761252Y-88235000D01*
%TO.C,TP6*%
X66950000Y-52800000D02*
G75*
G02*
X64050000Y-52800000I-1450000J0D01*
G01*
X64050000Y-52800000D02*
G75*
G02*
X66950000Y-52800000I1450000J0D01*
G01*
%TO.C,J1*%
X70140000Y-59195000D02*
X70140000Y-75925000D01*
X70140000Y-59195000D02*
X75700000Y-59195000D01*
X70140000Y-75925000D02*
X75700000Y-75925000D01*
X78200000Y-58500000D02*
X79200000Y-58500000D01*
X78700000Y-59000000D02*
X78200000Y-58500000D01*
X79200000Y-58500000D02*
X78700000Y-59000000D01*
X86110000Y-59195000D02*
X78500000Y-59195000D01*
X86110000Y-59195000D02*
X86110000Y-75925000D01*
X86110000Y-75925000D02*
X78500000Y-75925000D01*
%TO.C,R7*%
X104772936Y-76765000D02*
X105227064Y-76765000D01*
X104772936Y-78235000D02*
X105227064Y-78235000D01*
%TO.C,R13*%
X91772936Y-59265000D02*
X92227064Y-59265000D01*
X91772936Y-60735000D02*
X92227064Y-60735000D01*
%TO.C,L1*%
X88700000Y-70700000D02*
X88800000Y-70700000D01*
X88700000Y-72600000D02*
X88900000Y-72600000D01*
X88900000Y-69800000D02*
X88900000Y-70700000D01*
X88900000Y-69800000D02*
X98300000Y-69800000D01*
X88900000Y-70700000D02*
X88700000Y-70700000D01*
X88900000Y-72600000D02*
X88900000Y-73200000D01*
X88900000Y-76000000D02*
X88900000Y-75100000D01*
X98300000Y-69800000D02*
X98300000Y-70700000D01*
X98300000Y-72600000D02*
X98300000Y-73200000D01*
X98300000Y-76000000D02*
X88900000Y-76000000D01*
X98300000Y-76000000D02*
X98300000Y-75100000D01*
%TO.C,R6*%
X98272936Y-76765000D02*
X98727064Y-76765000D01*
X98272936Y-78235000D02*
X98727064Y-78235000D01*
%TO.C,C1*%
X87162500Y-81752500D02*
X87950000Y-81752500D01*
X87556250Y-81358750D02*
X87556250Y-82146250D01*
X88190000Y-81254437D02*
X88190000Y-82540000D01*
X88190000Y-81254437D02*
X89254437Y-80190000D01*
X88190000Y-85945563D02*
X88190000Y-84660000D01*
X88190000Y-85945563D02*
X89254437Y-87010000D01*
X89254437Y-80190000D02*
X95010000Y-80190000D01*
X89254437Y-87010000D02*
X95010000Y-87010000D01*
X95010000Y-80190000D02*
X95010000Y-82540000D01*
X95010000Y-87010000D02*
X95010000Y-84660000D01*
%TO.C,TP1*%
X75950000Y-52800000D02*
G75*
G02*
X74050000Y-52800000I-950000J0D01*
G01*
X74050000Y-52800000D02*
G75*
G02*
X75950000Y-52800000I950000J0D01*
G01*
%TO.C,C7*%
X95538748Y-58365000D02*
X96061252Y-58365000D01*
X95538748Y-59835000D02*
X96061252Y-59835000D01*
%TO.C,D2*%
X77490000Y-79350000D02*
X77490000Y-82650000D01*
X77490000Y-79350000D02*
X83000000Y-79350000D01*
X77490000Y-82650000D02*
X83000000Y-82650000D01*
%TO.C,TP2*%
X81450000Y-52800000D02*
G75*
G02*
X79550000Y-52800000I-950000J0D01*
G01*
X79550000Y-52800000D02*
G75*
G02*
X81450000Y-52800000I950000J0D01*
G01*
%TO.C,TP4*%
X103950000Y-88500000D02*
G75*
G02*
X102050000Y-88500000I-950000J0D01*
G01*
X102050000Y-88500000D02*
G75*
G02*
X103950000Y-88500000I950000J0D01*
G01*
%TO.C,R10*%
X95772936Y-62265000D02*
X96227064Y-62265000D01*
X95772936Y-63735000D02*
X96227064Y-63735000D01*
%TO.C,R2*%
X123772936Y-65265000D02*
X124227064Y-65265000D01*
X123772936Y-66735000D02*
X124227064Y-66735000D01*
%TO.C,R1*%
X85772936Y-87765000D02*
X86227064Y-87765000D01*
X85772936Y-89235000D02*
X86227064Y-89235000D01*
%TO.C,BZ1*%
D14*
X66200000Y-81900000D02*
X67200000Y-81900000D01*
X66700000Y-82400000D02*
X66700000Y-81400000D01*
X70000000Y-79500000D02*
X74000000Y-79500000D01*
X70000000Y-88500000D02*
X74000000Y-88500000D01*
%TO.C,R9*%
D13*
X104772936Y-80265000D02*
X105227064Y-80265000D01*
X104772936Y-81735000D02*
X105227064Y-81735000D01*
%TO.C,U1*%
X99940000Y-63440000D02*
X104060000Y-63440000D01*
X99940000Y-63535000D02*
X99940000Y-63440000D01*
X99940000Y-68560000D02*
X99940000Y-68465000D01*
X104060000Y-63440000D02*
X104060000Y-63535000D01*
X104060000Y-68465000D02*
X104060000Y-68560000D01*
X104060000Y-68560000D02*
X99940000Y-68560000D01*
X99400000Y-63530000D02*
X99160000Y-63200000D01*
X99640000Y-63200000D01*
X99400000Y-63530000D01*
G36*
X99400000Y-63530000D02*
G01*
X99160000Y-63200000D01*
X99640000Y-63200000D01*
X99400000Y-63530000D01*
G37*
%TO.C,TP3*%
X127450000Y-85500000D02*
G75*
G02*
X125550000Y-85500000I-950000J0D01*
G01*
X125550000Y-85500000D02*
G75*
G02*
X127450000Y-85500000I950000J0D01*
G01*
%TO.C,C4*%
X113738748Y-86765000D02*
X114261252Y-86765000D01*
X113738748Y-88235000D02*
X114261252Y-88235000D01*
%TO.C,R11*%
X95772936Y-65765000D02*
X96227064Y-65765000D01*
X95772936Y-67235000D02*
X96227064Y-67235000D01*
%TO.C,R5*%
X120272936Y-83265000D02*
X120727064Y-83265000D01*
X120272936Y-84735000D02*
X120727064Y-84735000D01*
%TO.C,C3*%
X103738748Y-69765000D02*
X104261252Y-69765000D01*
X103738748Y-71235000D02*
X104261252Y-71235000D01*
%TO.C,D1*%
X88074432Y-58065000D02*
X89210000Y-58065000D01*
X89210000Y-58935000D02*
X89210000Y-59065000D01*
X89210000Y-59935000D02*
X87790000Y-59935000D01*
X87780000Y-58060000D02*
X87640000Y-57870000D01*
X87920000Y-57870000D01*
X87780000Y-58060000D01*
G36*
X87780000Y-58060000D02*
G01*
X87640000Y-57870000D01*
X87920000Y-57870000D01*
X87780000Y-58060000D01*
G37*
%TO.C,R3*%
X103772936Y-73265000D02*
X104227064Y-73265000D01*
X103772936Y-74735000D02*
X104227064Y-74735000D01*
%TO.C,TP5*%
X109450000Y-88500000D02*
G75*
G02*
X107550000Y-88500000I-950000J0D01*
G01*
X107550000Y-88500000D02*
G75*
G02*
X109450000Y-88500000I950000J0D01*
G01*
%TO.C,R15*%
X70272936Y-52065000D02*
X70727064Y-52065000D01*
X70272936Y-53535000D02*
X70727064Y-53535000D01*
%TO.C,J2*%
X138120000Y-69120000D02*
X139500000Y-69120000D01*
X138120000Y-70500000D02*
X138120000Y-69120000D01*
X138120000Y-71770000D02*
X138120000Y-74420000D01*
X138120000Y-71770000D02*
X140880000Y-71770000D01*
X138120000Y-74420000D02*
X140880000Y-74420000D01*
X140880000Y-71770000D02*
X140880000Y-74420000D01*
%TO.C,R4*%
X113772936Y-83265000D02*
X114227064Y-83265000D01*
X113772936Y-84735000D02*
X114227064Y-84735000D01*
%TO.C,R14*%
X91772936Y-67265000D02*
X92227064Y-67265000D01*
X91772936Y-68735000D02*
X92227064Y-68735000D01*
%TO.C,C6*%
X107238748Y-60765000D02*
X107761252Y-60765000D01*
X107238748Y-62235000D02*
X107761252Y-62235000D01*
%TO.C,C2*%
X98238748Y-87765000D02*
X98761252Y-87765000D01*
X98238748Y-89235000D02*
X98761252Y-89235000D01*
%TD*%
%LPC*%
D15*
%TO.C,R12*%
X62087500Y-79000000D03*
X63912500Y-79000000D03*
%TD*%
D16*
%TO.C,D3*%
X78800000Y-85000000D03*
X82800000Y-85000000D03*
%TD*%
D15*
%TO.C,R8*%
X97587500Y-81000000D03*
X99412500Y-81000000D03*
%TD*%
D17*
%TO.C,C5*%
X119550000Y-87500000D03*
X121450000Y-87500000D03*
%TD*%
D18*
%TO.C,TP6*%
X65500000Y-52800000D03*
%TD*%
D19*
%TO.C,J1*%
X80540000Y-61210000D03*
X80540000Y-73910000D03*
D20*
X78000000Y-64000000D03*
D21*
X76220000Y-65016000D03*
X78000000Y-66032000D03*
X76220000Y-67048000D03*
X78000000Y-68064000D03*
X76220000Y-69080000D03*
X78000000Y-70096000D03*
X76220000Y-71112000D03*
X71400000Y-60700000D03*
X71400000Y-62990000D03*
X71400000Y-72130000D03*
X71400000Y-74420000D03*
D22*
X77110000Y-59430000D03*
X77110000Y-75690000D03*
%TD*%
D15*
%TO.C,R7*%
X104087500Y-77500000D03*
X105912500Y-77500000D03*
%TD*%
%TO.C,R13*%
X91087500Y-60000000D03*
X92912500Y-60000000D03*
%TD*%
D23*
%TO.C,H2*%
X134750000Y-54750000D03*
%TD*%
D24*
%TO.C,L1*%
X89850000Y-71630000D03*
X89850000Y-74170000D03*
X97350000Y-74170000D03*
X97350000Y-71630000D03*
%TD*%
D15*
%TO.C,R6*%
X97587500Y-77500000D03*
X99412500Y-77500000D03*
%TD*%
D25*
%TO.C,C1*%
X88800000Y-83600000D03*
X94400000Y-83600000D03*
%TD*%
D21*
%TO.C,TP1*%
X75000000Y-52800000D03*
%TD*%
D17*
%TO.C,C7*%
X94850000Y-59100000D03*
X96750000Y-59100000D03*
%TD*%
D16*
%TO.C,D2*%
X79000000Y-81000000D03*
X83000000Y-81000000D03*
%TD*%
D21*
%TO.C,TP2*%
X80500000Y-52800000D03*
%TD*%
%TO.C,TP4*%
X103000000Y-88500000D03*
%TD*%
D15*
%TO.C,R10*%
X95087500Y-63000000D03*
X96912500Y-63000000D03*
%TD*%
%TO.C,R2*%
X123087500Y-66000000D03*
X124912500Y-66000000D03*
%TD*%
%TO.C,R1*%
X85087500Y-88500000D03*
X86912500Y-88500000D03*
%TD*%
D26*
%TO.C,BZ1*%
X68500000Y-80500000D03*
X68500000Y-87500000D03*
X75500000Y-87500000D03*
X75500000Y-80500000D03*
%TD*%
D15*
%TO.C,R9*%
X104087500Y-81000000D03*
X105912500Y-81000000D03*
%TD*%
D27*
%TO.C,U1*%
X99525000Y-64095000D03*
X99525000Y-65365000D03*
X99525000Y-66635000D03*
X99525000Y-67905000D03*
X104475000Y-67905000D03*
X104475000Y-66635000D03*
X104475000Y-65365000D03*
X104475000Y-64095000D03*
%TD*%
D21*
%TO.C,TP3*%
X126500000Y-85500000D03*
%TD*%
D17*
%TO.C,C4*%
X113050000Y-87500000D03*
X114950000Y-87500000D03*
%TD*%
D15*
%TO.C,R11*%
X95087500Y-66500000D03*
X96912500Y-66500000D03*
%TD*%
%TO.C,R5*%
X119587500Y-84000000D03*
X121412500Y-84000000D03*
%TD*%
D17*
%TO.C,C3*%
X103050000Y-70500000D03*
X104950000Y-70500000D03*
%TD*%
D28*
%TO.C,D1*%
X87787500Y-58500000D03*
X87787500Y-59000000D03*
X87787500Y-59500000D03*
X89212500Y-59500000D03*
X89212500Y-58500000D03*
%TD*%
D23*
%TO.C,H3*%
X59750000Y-89750000D03*
%TD*%
D15*
%TO.C,R3*%
X103087500Y-74000000D03*
X104912500Y-74000000D03*
%TD*%
D21*
%TO.C,TP5*%
X108500000Y-88500000D03*
%TD*%
D23*
%TO.C,H1*%
X59750000Y-54750000D03*
%TD*%
D15*
%TO.C,R15*%
X69587500Y-52800000D03*
X71412500Y-52800000D03*
%TD*%
D29*
%TO.C,J2*%
X139500000Y-70500000D03*
D30*
X139500000Y-73040000D03*
%TD*%
D15*
%TO.C,R4*%
X113087500Y-84000000D03*
X114912500Y-84000000D03*
%TD*%
%TO.C,R14*%
X91087500Y-68000000D03*
X92912500Y-68000000D03*
%TD*%
D17*
%TO.C,C6*%
X106550000Y-61500000D03*
X108450000Y-61500000D03*
%TD*%
%TO.C,C2*%
X97550000Y-88500000D03*
X99450000Y-88500000D03*
%TD*%
D23*
%TO.C,H4*%
X134750000Y-89750000D03*
%TD*%
%LPD*%
M02*
