%TF.GenerationSoftware,KiCad,Pcbnew,10.0.4-10.0.4~ubuntu24.04.1*%
%TF.CreationDate,2026-07-19T09:05:09-07:00*%
%TF.ProjectId,crow_array_pod,63726f77-5f61-4727-9261-795f706f642e,rev?*%
%TF.SameCoordinates,Original*%
%TF.FileFunction,Soldermask,Bot*%
%TF.FilePolarity,Negative*%
%FSLAX46Y46*%
G04 Gerber Fmt 4.6, Leading zero omitted, Abs format (unit mm)*
G04 Created by KiCad (PCBNEW 10.0.4-10.0.4~ubuntu24.04.1) date 2026-07-19 09:05:09*
%MOMM*%
%LPD*%
G01*
G04 APERTURE LIST*
%ADD10C,3.250000*%
%ADD11R,1.500000X1.500000*%
%ADD12C,1.500000*%
%ADD13C,2.300000*%
%ADD14C,2.700000*%
%ADD15R,1.700000X1.700000*%
%ADD16C,1.700000*%
%ADD17C,0.350000*%
G04 APERTURE END LIST*
D10*
%TO.C,J1*%
X80540000Y-61210000D03*
X80540000Y-73910000D03*
D11*
X78000000Y-64000000D03*
D12*
X76220000Y-65016000D03*
X78000000Y-66032000D03*
X76220000Y-67048000D03*
X78000000Y-68064000D03*
X76220000Y-69080000D03*
X78000000Y-70096000D03*
X76220000Y-71112000D03*
X71400000Y-60700000D03*
X71400000Y-62990000D03*
X71400000Y-72130000D03*
X71400000Y-74420000D03*
D13*
X77110000Y-59430000D03*
X77110000Y-75690000D03*
%TD*%
D14*
%TO.C,H2*%
X134750000Y-54750000D03*
%TD*%
%TO.C,H3*%
X59750000Y-89750000D03*
%TD*%
%TO.C,H1*%
X59750000Y-54750000D03*
%TD*%
D15*
%TO.C,J2*%
X139500000Y-70500000D03*
D16*
X139500000Y-73040000D03*
%TD*%
D14*
%TO.C,H4*%
X134750000Y-89750000D03*
%TD*%
D17*
X80540000Y-61210000D03*
X80540000Y-73910000D03*
X78000000Y-64000000D03*
X76220000Y-65016000D03*
X78000000Y-66032000D03*
X76220000Y-67048000D03*
X78000000Y-68064000D03*
X76220000Y-69080000D03*
X78000000Y-70096000D03*
X76220000Y-71112000D03*
X71400000Y-60700000D03*
X71400000Y-62990000D03*
X71400000Y-72130000D03*
X71400000Y-74420000D03*
X77110000Y-59430000D03*
X77110000Y-75690000D03*
X134750000Y-54750000D03*
X59750000Y-89750000D03*
X59750000Y-54750000D03*
X139500000Y-70500000D03*
X139500000Y-73040000D03*
X134750000Y-89750000D03*
M02*
