%TF.GenerationSoftware,KiCad,Pcbnew,10.0.4-10.0.4~ubuntu24.04.1*%
%TF.CreationDate,2026-07-17T20:40:20-07:00*%
%TF.ProjectId,crow_array_pod,63726f77-5f61-4727-9261-795f706f642e,rev?*%
%TF.SameCoordinates,Original*%
%TF.FileFunction,Soldermask,Top*%
%TF.FilePolarity,Negative*%
%FSLAX46Y46*%
G04 Gerber Fmt 4.6, Leading zero omitted, Abs format (unit mm)*
G04 Created by KiCad (PCBNEW 10.0.4-10.0.4~ubuntu24.04.1) date 2026-07-17 20:40:20*
%MOMM*%
%LPD*%
G01*
G04 APERTURE LIST*
G04 Aperture macros list*
%AMRoundRect*
0 Rectangle with rounded corners*
0 $1 Rounding radius*
0 $2 $3 $4 $5 $6 $7 $8 $9 X,Y pos of 4 corners*
0 Add a 4 corners polygon primitive as box body*
4,1,4,$2,$3,$4,$5,$6,$7,$8,$9,$2,$3,0*
0 Add four circle primitives for the rounded corners*
1,1,$1+$1,$2,$3*
1,1,$1+$1,$4,$5*
1,1,$1+$1,$6,$7*
1,1,$1+$1,$8,$9*
0 Add four rect primitives between the rounded corners*
20,1,$1+$1,$2,$3,$4,$5,0*
20,1,$1+$1,$4,$5,$6,$7,0*
20,1,$1+$1,$6,$7,$8,$9,0*
20,1,$1+$1,$8,$9,$2,$3,0*%
G04 Aperture macros list end*
%ADD10C,2.700000*%
%ADD11RoundRect,0.250000X-0.262500X-0.450000X0.262500X-0.450000X0.262500X0.450000X-0.262500X0.450000X0*%
%ADD12C,1.500000*%
%ADD13RoundRect,0.087500X-0.250000X-0.087500X0.250000X-0.087500X0.250000X0.087500X-0.250000X0.087500X0*%
%ADD14R,2.000000X1.200000*%
%ADD15C,2.500000*%
%ADD16RoundRect,0.250000X-1.500000X-0.550000X1.500000X-0.550000X1.500000X0.550000X-1.500000X0.550000X0*%
%ADD17RoundRect,0.250000X-0.250000X-0.475000X0.250000X-0.475000X0.250000X0.475000X-0.250000X0.475000X0*%
%ADD18RoundRect,0.250000X-1.000000X-0.650000X1.000000X-0.650000X1.000000X0.650000X-1.000000X0.650000X0*%
%ADD19RoundRect,0.250001X-0.949999X0.949999X-0.949999X-0.949999X0.949999X-0.949999X0.949999X0.949999X0*%
%ADD20C,2.400000*%
%ADD21R,2.500000X2.500000*%
%ADD22R,1.700000X1.700000*%
%ADD23C,1.700000*%
%ADD24RoundRect,0.150000X-0.825000X-0.150000X0.825000X-0.150000X0.825000X0.150000X-0.825000X0.150000X0*%
%ADD25C,0.350000*%
G04 APERTURE END LIST*
D10*
%TO.C,H1*%
X59750000Y-54750000D03*
%TD*%
D11*
%TO.C,R11*%
X87087500Y-64000000D03*
X88912500Y-64000000D03*
%TD*%
D10*
%TO.C,H2*%
X134750000Y-54750000D03*
%TD*%
D11*
%TO.C,R6*%
X97587500Y-77500000D03*
X99412500Y-77500000D03*
%TD*%
D12*
%TO.C,TP3*%
X126500000Y-85500000D03*
%TD*%
D13*
%TO.C,D1*%
X68787500Y-60500000D03*
X68787500Y-61000000D03*
X68787500Y-61500000D03*
X70212500Y-61500000D03*
X70212500Y-60500000D03*
%TD*%
D14*
%TO.C,L1*%
X73750000Y-60980000D03*
X73750000Y-63520000D03*
X81250000Y-63520000D03*
X81250000Y-60980000D03*
%TD*%
D11*
%TO.C,R3*%
X103087500Y-74000000D03*
X104912500Y-74000000D03*
%TD*%
D15*
%TO.C,TP6*%
X65500000Y-52800000D03*
%TD*%
D11*
%TO.C,R8*%
X97587500Y-81000000D03*
X99412500Y-81000000D03*
%TD*%
D16*
%TO.C,C1*%
X88800000Y-83600000D03*
X94400000Y-83600000D03*
%TD*%
D12*
%TO.C,TP2*%
X80500000Y-52800000D03*
%TD*%
D17*
%TO.C,C6*%
X106550000Y-61500000D03*
X108450000Y-61500000D03*
%TD*%
D11*
%TO.C,R2*%
X123087500Y-66000000D03*
X124912500Y-66000000D03*
%TD*%
D10*
%TO.C,H4*%
X134750000Y-89750000D03*
%TD*%
%TO.C,H3*%
X59750000Y-89750000D03*
%TD*%
D11*
%TO.C,R10*%
X87087500Y-60500000D03*
X88912500Y-60500000D03*
%TD*%
%TO.C,R4*%
X113087500Y-84000000D03*
X114912500Y-84000000D03*
%TD*%
D12*
%TO.C,TP5*%
X108500000Y-88500000D03*
%TD*%
D18*
%TO.C,D3*%
X78800000Y-85000000D03*
X82800000Y-85000000D03*
%TD*%
D12*
%TO.C,TP4*%
X103000000Y-88500000D03*
%TD*%
D11*
%TO.C,R1*%
X85087500Y-88500000D03*
X86912500Y-88500000D03*
%TD*%
%TO.C,R13*%
X76587500Y-57500000D03*
X78412500Y-57500000D03*
%TD*%
D17*
%TO.C,C2*%
X97550000Y-88500000D03*
X99450000Y-88500000D03*
%TD*%
D11*
%TO.C,R14*%
X76587500Y-67500000D03*
X78412500Y-67500000D03*
%TD*%
D19*
%TO.C,J1*%
X57500000Y-60000000D03*
D20*
X57500000Y-63500000D03*
X57500000Y-67000000D03*
X57500000Y-70500000D03*
X57500000Y-74000000D03*
X57500000Y-77500000D03*
X57500000Y-81000000D03*
X57500000Y-84500000D03*
%TD*%
D12*
%TO.C,TP1*%
X75000000Y-52800000D03*
%TD*%
D21*
%TO.C,BZ1*%
X68500000Y-80500000D03*
X68500000Y-87500000D03*
X75500000Y-80500000D03*
X75500000Y-87500000D03*
%TD*%
D17*
%TO.C,C7*%
X95050000Y-59500000D03*
X96950000Y-59500000D03*
%TD*%
D11*
%TO.C,R15*%
X69587500Y-52800000D03*
X71412500Y-52800000D03*
%TD*%
D22*
%TO.C,J2*%
X139500000Y-70500000D03*
D23*
X139500000Y-73040000D03*
%TD*%
D17*
%TO.C,C5*%
X119550000Y-87500000D03*
X121450000Y-87500000D03*
%TD*%
D11*
%TO.C,R7*%
X104087500Y-77500000D03*
X105912500Y-77500000D03*
%TD*%
%TO.C,R9*%
X104087500Y-81000000D03*
X105912500Y-81000000D03*
%TD*%
%TO.C,R5*%
X119587500Y-84000000D03*
X121412500Y-84000000D03*
%TD*%
D18*
%TO.C,D2*%
X79000000Y-81000000D03*
X83000000Y-81000000D03*
%TD*%
D11*
%TO.C,R12*%
X62587500Y-79000000D03*
X64412500Y-79000000D03*
%TD*%
D17*
%TO.C,C3*%
X103050000Y-70500000D03*
X104950000Y-70500000D03*
%TD*%
D24*
%TO.C,U1*%
X99525000Y-64095000D03*
X99525000Y-65365000D03*
X99525000Y-66635000D03*
X99525000Y-67905000D03*
X104475000Y-67905000D03*
X104475000Y-66635000D03*
X104475000Y-65365000D03*
X104475000Y-64095000D03*
%TD*%
D17*
%TO.C,C4*%
X113050000Y-87500000D03*
X114950000Y-87500000D03*
%TD*%
D25*
X59750000Y-54750000D03*
X134750000Y-54750000D03*
X134750000Y-89750000D03*
X59750000Y-89750000D03*
X57500000Y-60000000D03*
X57500000Y-63500000D03*
X57500000Y-67000000D03*
X57500000Y-70500000D03*
X57500000Y-74000000D03*
X57500000Y-77500000D03*
X57500000Y-81000000D03*
X57500000Y-84500000D03*
X139500000Y-70500000D03*
X139500000Y-73040000D03*
M02*
