M48
; DRILL file KiCad 10.0.4-10.0.4~ubuntu24.04.1 date 2026-07-22T22:25:59
; FORMAT={-:-/ absolute / metric / decimal}
; #@! TF.CreationDate,2026-07-22T22:25:59-07:00
; #@! TF.GenerationSoftware,Kicad,Pcbnew,10.0.4-10.0.4~ubuntu24.04.1
; #@! TF.FileFunction,Plated,1,4,PTH
FMAT,2
METRIC
; #@! TA.AperFunction,Plated,PTH,ViaDrill
T1C0.300
; #@! TA.AperFunction,Plated,PTH,ComponentDrill
T2C0.600
; #@! TA.AperFunction,Plated,PTH,ComponentDrill
T3C1.000
; #@! TA.AperFunction,Plated,PTH,ComponentDrill
T4C1.780
; #@! TA.AperFunction,Plated,PTH,ComponentDrill
T5C2.700
; #@! TA.AperFunction,Plated,PTH,ComponentDrill
T6C3.000
%
G90
G05
T1
X26.0Y-34.0
X26.0Y-42.0
X26.0Y-50.0
X26.0Y-58.0
X26.0Y-66.0
X26.0Y-82.0
X26.0Y-90.0
X26.0Y-98.0
X26.5Y-57.3
X26.5Y-62.7
X26.5Y-69.3
X26.5Y-74.7
X31.35Y-73.0
X34.0Y-26.0
X34.0Y-34.0
X34.0Y-42.0
X34.0Y-50.0
X34.0Y-74.0
X34.0Y-82.0
X34.0Y-90.0
X34.0Y-98.0
X34.0Y-106.0
X38.67Y-65.36
X38.67Y-67.91
X41.83Y-72.0
X41.85Y-66.0
X42.0Y-26.0
X42.0Y-34.0
X42.0Y-42.0
X42.0Y-50.0
X42.0Y-58.0
X42.0Y-74.0
X42.0Y-82.0
X42.0Y-90.0
X42.0Y-98.0
X42.0Y-106.0
X46.15Y-66.0
X50.0Y-26.0
X50.0Y-34.0
X50.0Y-42.0
X50.0Y-50.0
X50.0Y-58.0
X50.0Y-66.0
X50.0Y-74.0
X50.0Y-82.0
X50.0Y-90.0
X50.0Y-98.0
X50.0Y-106.0
X52.17Y-36.0
X52.17Y-40.0
X52.17Y-74.0
X52.17Y-78.0
X52.175Y-44.0
X52.175Y-82.0
X52.42Y-46.5
X52.42Y-84.5
X53.83Y-34.0
X53.83Y-38.0
X53.83Y-72.0
X53.83Y-76.0
X54.58Y-41.8
X54.58Y-79.8
X55.3Y-41.0
X55.5Y-78.6
X55.9Y-38.7
X56.0Y-42.96
X56.5Y-77.6
X56.75Y-45.8
X57.137Y-37.675
X57.137Y-40.275
X57.137Y-78.275
X57.138Y-41.725
X57.138Y-79.725
X57.14Y-35.08
X57.14Y-73.08
X57.14Y-76.33
X57.17Y-80.94
X57.37Y-43.63
X57.74Y-39.62
X58.0Y-26.0
X58.0Y-34.0
X58.0Y-50.0
X58.0Y-58.0
X58.0Y-66.0
X58.0Y-90.0
X58.0Y-98.0
X58.0Y-106.0
X58.15Y-41.6
X58.15Y-79.6
X58.42Y-31.1
X58.68Y-38.33
X58.99Y-43.29
X59.35Y-41.25
X59.62Y-64.3
X60.0Y-76.0
X60.52Y-26.0
X61.38Y-31.1
X62.52Y-60.5
X62.58Y-64.3
X62.86Y-37.02
X62.86Y-38.98
X62.86Y-40.92
X62.86Y-75.03
X62.86Y-76.97
X62.86Y-78.92
X62.862Y-35.075
X62.862Y-73.075
X63.46Y-35.73
X63.48Y-26.0
X64.4Y-71.7
X64.78Y-70.0
X64.9Y-35.7
X65.3Y-34.5
X65.38Y-30.94
X65.47Y-60.5
X65.6Y-72.9
X65.75Y-35.9
X66.0Y-26.0
X66.0Y-50.0
X66.0Y-58.0
X66.0Y-82.0
X66.0Y-90.0
X66.0Y-98.0
X66.0Y-106.0
X67.62Y-26.3
X67.62Y-64.3
X70.275Y-30.0
X70.58Y-26.3
X70.58Y-64.3
X72.0Y-48.96
X72.0Y-86.96
X73.03Y-23.0
X73.03Y-61.0
X73.2Y-29.36
X73.2Y-67.36
X73.2Y-69.91
X74.0Y-26.0
X74.0Y-50.0
X74.0Y-58.0
X74.0Y-82.0
X74.0Y-90.0
X74.0Y-98.0
X74.0Y-106.0
X74.06Y-33.21
X74.47Y-30.64
X75.17Y-47.0
X75.17Y-85.0
X75.31Y-30.0
X75.31Y-68.0
X75.97Y-23.0
X75.97Y-61.0
X77.22Y-26.0
X77.22Y-64.0
X78.78Y-26.0
X78.78Y-64.0
X79.0Y-34.0
X79.0Y-74.0
X81.0Y-34.0
X82.0Y-26.0
X82.0Y-50.0
X82.0Y-58.0
X82.0Y-82.0
X82.0Y-90.0
X82.0Y-98.0
X82.0Y-106.0
X86.52Y-24.99
X86.52Y-41.53
X90.0Y-50.0
X90.0Y-58.0
X90.0Y-90.0
X90.0Y-98.0
X90.0Y-106.0
X91.97Y-25.4
X91.97Y-63.4
X93.12Y-43.65
X93.12Y-81.65
X95.0Y-42.0
X95.0Y-76.0
X96.0Y-80.0
X97.08Y-25.5
X97.08Y-63.5
X97.88Y-42.5
X97.88Y-80.5
X98.0Y-26.0
X98.0Y-46.0
X98.0Y-50.0
X98.0Y-58.0
X98.0Y-82.0
X98.0Y-98.0
X98.0Y-106.0
X100.4Y-89.9
X104.78Y-30.0
X104.78Y-52.0
X104.78Y-74.0
X106.0Y-106.0
X106.55Y-33.02
X106.55Y-55.02
X106.55Y-77.03
X108.0Y-34.0
X108.0Y-56.0
X108.0Y-78.0
X108.12Y-103.05
X109.45Y-34.325
X109.45Y-56.325
X109.45Y-78.325
X109.86Y-49.0
X109.86Y-72.0
X111.21Y-48.87
X112.83Y-30.0
X112.83Y-52.0
X113.33Y-74.9
X113.78Y-46.0
X115.36Y-101.8
X116.28Y-73.0
X116.75Y-104.95
X119.82Y-101.25
X120.25Y-104.155
X120.45Y-31.8
X120.45Y-53.8
X120.45Y-75.8
X121.38Y-35.06
X121.38Y-57.06
X121.38Y-79.06
X121.78Y-91.0
X122.7Y-101.2
X123.0Y-34.0
X123.0Y-56.0
X123.0Y-78.0
X123.2Y-89.47
X123.25Y-104.95
X124.37Y-104.0
X124.862Y-100.75
X126.67Y-91.0
X127.14Y-101.7
X129.86Y-41.0
X129.86Y-63.0
X129.86Y-85.0
X131.4Y-62.94
X131.42Y-40.94
X131.42Y-84.94
T3
X139.0Y-31.0
X139.0Y-33.5
X139.0Y-35.5
X139.0Y-38.0
X139.0Y-53.0
X139.0Y-55.5
X139.0Y-57.5
X139.0Y-60.0
X139.0Y-75.0
X139.0Y-77.5
X139.0Y-79.5
X139.0Y-82.0
T4
X35.0Y-56.0
X35.0Y-59.4
X44.92Y-56.0
X44.92Y-59.4
T5
X30.0Y-36.8
X30.0Y-44.0
T6
X141.6Y-27.879
X141.6Y-41.119
X141.6Y-49.879
X141.6Y-63.119
X141.6Y-71.879
X141.6Y-85.119
T2
G00X23.45Y-33.65
M15
G01X24.55Y-33.65
M16
G05
G00X23.45Y-47.15
M15
G01X24.55Y-47.15
M16
G05
G00X115.68Y-105.32
M15
G01X115.68Y-106.42
M16
G05
G00X115.68Y-109.75
M15
G01X115.68Y-110.35
M16
G05
G00X124.32Y-105.32
M15
G01X124.32Y-106.42
M16
G05
G00X124.32Y-109.75
M15
G01X124.32Y-110.35
M16
G05
M30
