%TF.GenerationSoftware,KiCad,Pcbnew,10.0.4-10.0.4~ubuntu24.04.1*%
%TF.CreationDate,2026-08-17T14:25:24-07:00*%
%TF.ProjectId,usb_controlled_debug_hub,7573625f-636f-46e7-9472-6f6c6c65645f,rev?*%
%TF.SameCoordinates,Original*%
%TF.FileFunction,Legend,Bot*%
%TF.FilePolarity,Positive*%
%FSLAX46Y46*%
G04 Gerber Fmt 4.6, Leading zero omitted, Abs format (unit mm)*
G04 Created by KiCad (PCBNEW 10.0.4-10.0.4~ubuntu24.04.1) date 2026-08-17 14:25:24*
%MOMM*%
%LPD*%
G01*
G04 APERTURE LIST*
G04 Aperture macros list*
%AMRoundRect*
0 Rectangle with rounded corners*
0 $1 Rounding radius*
0 $2 $3 $4 $5 $6 $7 $8 $9 X,Y pos of 4 corners*
0 Add a 4 corners polygon primitive as box body*
4,1,4,$2,$3,$4,$5,$6,$7,$8,$9,$2,$3,0*
0 Add four circle primitives for the rounded corners*
1,1,$1+$1,$2,$3*
1,1,$1+$1,$4,$5*
1,1,$1+$1,$6,$7*
1,1,$1+$1,$8,$9*
0 Add four rect primitives between the rounded corners*
20,1,$1+$1,$2,$3,$4,$5,0*
20,1,$1+$1,$4,$5,$6,$7,0*
20,1,$1+$1,$6,$7,$8,$9,0*
20,1,$1+$1,$8,$9,$2,$3,0*%
G04 Aperture macros list end*
%ADD10C,0.140000*%
%ADD11C,0.120000*%
%ADD12R,1.700000X1.700000*%
%ADD13C,1.700000*%
%ADD14C,4.000000*%
%ADD15C,3.200000*%
%ADD16C,2.780000*%
%ADD17R,2.200000X2.200000*%
%ADD18C,2.200000*%
%ADD19O,3.500000X3.500000*%
%ADD20RoundRect,0.150000X-0.150000X0.587500X-0.150000X-0.587500X0.150000X-0.587500X0.150000X0.587500X0*%
%ADD21RoundRect,0.087500X0.662500X0.087500X-0.662500X0.087500X-0.662500X-0.087500X0.662500X-0.087500X0*%
%ADD22RoundRect,0.087500X-0.662500X-0.087500X0.662500X-0.087500X0.662500X0.087500X-0.662500X0.087500X0*%
%ADD23RoundRect,0.150000X0.150000X-0.587500X0.150000X0.587500X-0.150000X0.587500X-0.150000X-0.587500X0*%
G04 APERTURE END LIST*
D10*
X53299999Y-40416553D02*
X53299999Y-40983220D01*
X53299999Y-40983220D02*
X53266666Y-41049886D01*
X53266666Y-41049886D02*
X53233332Y-41083220D01*
X53233332Y-41083220D02*
X53166666Y-41116553D01*
X53166666Y-41116553D02*
X53033332Y-41116553D01*
X53033332Y-41116553D02*
X52966666Y-41083220D01*
X52966666Y-41083220D02*
X52933332Y-41049886D01*
X52933332Y-41049886D02*
X52899999Y-40983220D01*
X52899999Y-40983220D02*
X52899999Y-40416553D01*
X52733333Y-41183220D02*
X52199999Y-41183220D01*
X52033333Y-40749886D02*
X51800000Y-40749886D01*
X51700000Y-41116553D02*
X52033333Y-41116553D01*
X52033333Y-41116553D02*
X52033333Y-40416553D01*
X52033333Y-40416553D02*
X51700000Y-40416553D01*
X51433333Y-41083220D02*
X51333333Y-41116553D01*
X51333333Y-41116553D02*
X51166667Y-41116553D01*
X51166667Y-41116553D02*
X51100000Y-41083220D01*
X51100000Y-41083220D02*
X51066667Y-41049886D01*
X51066667Y-41049886D02*
X51033333Y-40983220D01*
X51033333Y-40983220D02*
X51033333Y-40916553D01*
X51033333Y-40916553D02*
X51066667Y-40849886D01*
X51066667Y-40849886D02*
X51100000Y-40816553D01*
X51100000Y-40816553D02*
X51166667Y-40783220D01*
X51166667Y-40783220D02*
X51300000Y-40749886D01*
X51300000Y-40749886D02*
X51366667Y-40716553D01*
X51366667Y-40716553D02*
X51400000Y-40683220D01*
X51400000Y-40683220D02*
X51433333Y-40616553D01*
X51433333Y-40616553D02*
X51433333Y-40549886D01*
X51433333Y-40549886D02*
X51400000Y-40483220D01*
X51400000Y-40483220D02*
X51366667Y-40449886D01*
X51366667Y-40449886D02*
X51300000Y-40416553D01*
X51300000Y-40416553D02*
X51133333Y-40416553D01*
X51133333Y-40416553D02*
X51033333Y-40449886D01*
X50733333Y-41116553D02*
X50733333Y-40416553D01*
X50733333Y-40416553D02*
X50566666Y-40416553D01*
X50566666Y-40416553D02*
X50466666Y-40449886D01*
X50466666Y-40449886D02*
X50400000Y-40516553D01*
X50400000Y-40516553D02*
X50366666Y-40583220D01*
X50366666Y-40583220D02*
X50333333Y-40716553D01*
X50333333Y-40716553D02*
X50333333Y-40816553D01*
X50333333Y-40816553D02*
X50366666Y-40949886D01*
X50366666Y-40949886D02*
X50400000Y-41016553D01*
X50400000Y-41016553D02*
X50466666Y-41083220D01*
X50466666Y-41083220D02*
X50566666Y-41116553D01*
X50566666Y-41116553D02*
X50733333Y-41116553D01*
X49666666Y-41116553D02*
X50066666Y-41116553D01*
X49866666Y-41116553D02*
X49866666Y-40416553D01*
X49866666Y-40416553D02*
X49933333Y-40516553D01*
X49933333Y-40516553D02*
X50000000Y-40583220D01*
X50000000Y-40583220D02*
X50066666Y-40616553D01*
X114299999Y-41016553D02*
X114299999Y-41583220D01*
X114299999Y-41583220D02*
X114266666Y-41649886D01*
X114266666Y-41649886D02*
X114233332Y-41683220D01*
X114233332Y-41683220D02*
X114166666Y-41716553D01*
X114166666Y-41716553D02*
X114033332Y-41716553D01*
X114033332Y-41716553D02*
X113966666Y-41683220D01*
X113966666Y-41683220D02*
X113933332Y-41649886D01*
X113933332Y-41649886D02*
X113899999Y-41583220D01*
X113899999Y-41583220D02*
X113899999Y-41016553D01*
X113733333Y-41783220D02*
X113199999Y-41783220D01*
X113033333Y-41349886D02*
X112800000Y-41349886D01*
X112700000Y-41716553D02*
X113033333Y-41716553D01*
X113033333Y-41716553D02*
X113033333Y-41016553D01*
X113033333Y-41016553D02*
X112700000Y-41016553D01*
X112433333Y-41683220D02*
X112333333Y-41716553D01*
X112333333Y-41716553D02*
X112166667Y-41716553D01*
X112166667Y-41716553D02*
X112100000Y-41683220D01*
X112100000Y-41683220D02*
X112066667Y-41649886D01*
X112066667Y-41649886D02*
X112033333Y-41583220D01*
X112033333Y-41583220D02*
X112033333Y-41516553D01*
X112033333Y-41516553D02*
X112066667Y-41449886D01*
X112066667Y-41449886D02*
X112100000Y-41416553D01*
X112100000Y-41416553D02*
X112166667Y-41383220D01*
X112166667Y-41383220D02*
X112300000Y-41349886D01*
X112300000Y-41349886D02*
X112366667Y-41316553D01*
X112366667Y-41316553D02*
X112400000Y-41283220D01*
X112400000Y-41283220D02*
X112433333Y-41216553D01*
X112433333Y-41216553D02*
X112433333Y-41149886D01*
X112433333Y-41149886D02*
X112400000Y-41083220D01*
X112400000Y-41083220D02*
X112366667Y-41049886D01*
X112366667Y-41049886D02*
X112300000Y-41016553D01*
X112300000Y-41016553D02*
X112133333Y-41016553D01*
X112133333Y-41016553D02*
X112033333Y-41049886D01*
X111733333Y-41716553D02*
X111733333Y-41016553D01*
X111733333Y-41016553D02*
X111566666Y-41016553D01*
X111566666Y-41016553D02*
X111466666Y-41049886D01*
X111466666Y-41049886D02*
X111400000Y-41116553D01*
X111400000Y-41116553D02*
X111366666Y-41183220D01*
X111366666Y-41183220D02*
X111333333Y-41316553D01*
X111333333Y-41316553D02*
X111333333Y-41416553D01*
X111333333Y-41416553D02*
X111366666Y-41549886D01*
X111366666Y-41549886D02*
X111400000Y-41616553D01*
X111400000Y-41616553D02*
X111466666Y-41683220D01*
X111466666Y-41683220D02*
X111566666Y-41716553D01*
X111566666Y-41716553D02*
X111733333Y-41716553D01*
X111100000Y-41016553D02*
X110666666Y-41016553D01*
X110666666Y-41016553D02*
X110900000Y-41283220D01*
X110900000Y-41283220D02*
X110800000Y-41283220D01*
X110800000Y-41283220D02*
X110733333Y-41316553D01*
X110733333Y-41316553D02*
X110700000Y-41349886D01*
X110700000Y-41349886D02*
X110666666Y-41416553D01*
X110666666Y-41416553D02*
X110666666Y-41583220D01*
X110666666Y-41583220D02*
X110700000Y-41649886D01*
X110700000Y-41649886D02*
X110733333Y-41683220D01*
X110733333Y-41683220D02*
X110800000Y-41716553D01*
X110800000Y-41716553D02*
X111000000Y-41716553D01*
X111000000Y-41716553D02*
X111066666Y-41683220D01*
X111066666Y-41683220D02*
X111100000Y-41649886D01*
X84016666Y-41216553D02*
X84016666Y-41783220D01*
X84016666Y-41783220D02*
X83983333Y-41849886D01*
X83983333Y-41849886D02*
X83949999Y-41883220D01*
X83949999Y-41883220D02*
X83883333Y-41916553D01*
X83883333Y-41916553D02*
X83749999Y-41916553D01*
X83749999Y-41916553D02*
X83683333Y-41883220D01*
X83683333Y-41883220D02*
X83649999Y-41849886D01*
X83649999Y-41849886D02*
X83616666Y-41783220D01*
X83616666Y-41783220D02*
X83616666Y-41216553D01*
X83450000Y-41983220D02*
X82916666Y-41983220D01*
X82750000Y-41916553D02*
X82750000Y-41216553D01*
X82750000Y-41216553D02*
X82583333Y-41216553D01*
X82583333Y-41216553D02*
X82483333Y-41249886D01*
X82483333Y-41249886D02*
X82416667Y-41316553D01*
X82416667Y-41316553D02*
X82383333Y-41383220D01*
X82383333Y-41383220D02*
X82350000Y-41516553D01*
X82350000Y-41516553D02*
X82350000Y-41616553D01*
X82350000Y-41616553D02*
X82383333Y-41749886D01*
X82383333Y-41749886D02*
X82416667Y-41816553D01*
X82416667Y-41816553D02*
X82483333Y-41883220D01*
X82483333Y-41883220D02*
X82583333Y-41916553D01*
X82583333Y-41916553D02*
X82750000Y-41916553D01*
X82083333Y-41716553D02*
X81750000Y-41716553D01*
X82150000Y-41916553D02*
X81916667Y-41216553D01*
X81916667Y-41216553D02*
X81683333Y-41916553D01*
X81550000Y-41216553D02*
X81150000Y-41216553D01*
X81350000Y-41916553D02*
X81350000Y-41216553D01*
X80950000Y-41716553D02*
X80616667Y-41716553D01*
X81016667Y-41916553D02*
X80783334Y-41216553D01*
X80783334Y-41216553D02*
X80550000Y-41916553D01*
X80350000Y-41283220D02*
X80316667Y-41249886D01*
X80316667Y-41249886D02*
X80250000Y-41216553D01*
X80250000Y-41216553D02*
X80083334Y-41216553D01*
X80083334Y-41216553D02*
X80016667Y-41249886D01*
X80016667Y-41249886D02*
X79983334Y-41283220D01*
X79983334Y-41283220D02*
X79950000Y-41349886D01*
X79950000Y-41349886D02*
X79950000Y-41416553D01*
X79950000Y-41416553D02*
X79983334Y-41516553D01*
X79983334Y-41516553D02*
X80383334Y-41916553D01*
X80383334Y-41916553D02*
X79950000Y-41916553D01*
X134216665Y-44116553D02*
X134216665Y-44683220D01*
X134216665Y-44683220D02*
X134183332Y-44749886D01*
X134183332Y-44749886D02*
X134149998Y-44783220D01*
X134149998Y-44783220D02*
X134083332Y-44816553D01*
X134083332Y-44816553D02*
X133949998Y-44816553D01*
X133949998Y-44816553D02*
X133883332Y-44783220D01*
X133883332Y-44783220D02*
X133849998Y-44749886D01*
X133849998Y-44749886D02*
X133816665Y-44683220D01*
X133816665Y-44683220D02*
X133816665Y-44116553D01*
X133649999Y-44883220D02*
X133116665Y-44883220D01*
X132949999Y-44816553D02*
X132949999Y-44116553D01*
X132949999Y-44116553D02*
X132783332Y-44116553D01*
X132783332Y-44116553D02*
X132683332Y-44149886D01*
X132683332Y-44149886D02*
X132616666Y-44216553D01*
X132616666Y-44216553D02*
X132583332Y-44283220D01*
X132583332Y-44283220D02*
X132549999Y-44416553D01*
X132549999Y-44416553D02*
X132549999Y-44516553D01*
X132549999Y-44516553D02*
X132583332Y-44649886D01*
X132583332Y-44649886D02*
X132616666Y-44716553D01*
X132616666Y-44716553D02*
X132683332Y-44783220D01*
X132683332Y-44783220D02*
X132783332Y-44816553D01*
X132783332Y-44816553D02*
X132949999Y-44816553D01*
X132283332Y-44616553D02*
X131949999Y-44616553D01*
X132349999Y-44816553D02*
X132116666Y-44116553D01*
X132116666Y-44116553D02*
X131883332Y-44816553D01*
X131749999Y-44116553D02*
X131349999Y-44116553D01*
X131549999Y-44816553D02*
X131549999Y-44116553D01*
X131149999Y-44616553D02*
X130816666Y-44616553D01*
X131216666Y-44816553D02*
X130983333Y-44116553D01*
X130983333Y-44116553D02*
X130749999Y-44816553D01*
X130216666Y-44349886D02*
X130216666Y-44816553D01*
X130383333Y-44083220D02*
X130549999Y-44583220D01*
X130549999Y-44583220D02*
X130116666Y-44583220D01*
X59016666Y-41216553D02*
X59016666Y-41783220D01*
X59016666Y-41783220D02*
X58983333Y-41849886D01*
X58983333Y-41849886D02*
X58949999Y-41883220D01*
X58949999Y-41883220D02*
X58883333Y-41916553D01*
X58883333Y-41916553D02*
X58749999Y-41916553D01*
X58749999Y-41916553D02*
X58683333Y-41883220D01*
X58683333Y-41883220D02*
X58649999Y-41849886D01*
X58649999Y-41849886D02*
X58616666Y-41783220D01*
X58616666Y-41783220D02*
X58616666Y-41216553D01*
X58450000Y-41983220D02*
X57916666Y-41983220D01*
X57750000Y-41916553D02*
X57750000Y-41216553D01*
X57750000Y-41216553D02*
X57583333Y-41216553D01*
X57583333Y-41216553D02*
X57483333Y-41249886D01*
X57483333Y-41249886D02*
X57416667Y-41316553D01*
X57416667Y-41316553D02*
X57383333Y-41383220D01*
X57383333Y-41383220D02*
X57350000Y-41516553D01*
X57350000Y-41516553D02*
X57350000Y-41616553D01*
X57350000Y-41616553D02*
X57383333Y-41749886D01*
X57383333Y-41749886D02*
X57416667Y-41816553D01*
X57416667Y-41816553D02*
X57483333Y-41883220D01*
X57483333Y-41883220D02*
X57583333Y-41916553D01*
X57583333Y-41916553D02*
X57750000Y-41916553D01*
X57083333Y-41716553D02*
X56750000Y-41716553D01*
X57150000Y-41916553D02*
X56916667Y-41216553D01*
X56916667Y-41216553D02*
X56683333Y-41916553D01*
X56550000Y-41216553D02*
X56150000Y-41216553D01*
X56350000Y-41916553D02*
X56350000Y-41216553D01*
X55950000Y-41716553D02*
X55616667Y-41716553D01*
X56016667Y-41916553D02*
X55783334Y-41216553D01*
X55783334Y-41216553D02*
X55550000Y-41916553D01*
X54950000Y-41916553D02*
X55350000Y-41916553D01*
X55150000Y-41916553D02*
X55150000Y-41216553D01*
X55150000Y-41216553D02*
X55216667Y-41316553D01*
X55216667Y-41316553D02*
X55283334Y-41383220D01*
X55283334Y-41383220D02*
X55350000Y-41416553D01*
X137299999Y-40416553D02*
X137299999Y-40983220D01*
X137299999Y-40983220D02*
X137266666Y-41049886D01*
X137266666Y-41049886D02*
X137233332Y-41083220D01*
X137233332Y-41083220D02*
X137166666Y-41116553D01*
X137166666Y-41116553D02*
X137033332Y-41116553D01*
X137033332Y-41116553D02*
X136966666Y-41083220D01*
X136966666Y-41083220D02*
X136933332Y-41049886D01*
X136933332Y-41049886D02*
X136899999Y-40983220D01*
X136899999Y-40983220D02*
X136899999Y-40416553D01*
X136733333Y-41183220D02*
X136199999Y-41183220D01*
X136033333Y-40749886D02*
X135800000Y-40749886D01*
X135700000Y-41116553D02*
X136033333Y-41116553D01*
X136033333Y-41116553D02*
X136033333Y-40416553D01*
X136033333Y-40416553D02*
X135700000Y-40416553D01*
X135433333Y-41083220D02*
X135333333Y-41116553D01*
X135333333Y-41116553D02*
X135166667Y-41116553D01*
X135166667Y-41116553D02*
X135100000Y-41083220D01*
X135100000Y-41083220D02*
X135066667Y-41049886D01*
X135066667Y-41049886D02*
X135033333Y-40983220D01*
X135033333Y-40983220D02*
X135033333Y-40916553D01*
X135033333Y-40916553D02*
X135066667Y-40849886D01*
X135066667Y-40849886D02*
X135100000Y-40816553D01*
X135100000Y-40816553D02*
X135166667Y-40783220D01*
X135166667Y-40783220D02*
X135300000Y-40749886D01*
X135300000Y-40749886D02*
X135366667Y-40716553D01*
X135366667Y-40716553D02*
X135400000Y-40683220D01*
X135400000Y-40683220D02*
X135433333Y-40616553D01*
X135433333Y-40616553D02*
X135433333Y-40549886D01*
X135433333Y-40549886D02*
X135400000Y-40483220D01*
X135400000Y-40483220D02*
X135366667Y-40449886D01*
X135366667Y-40449886D02*
X135300000Y-40416553D01*
X135300000Y-40416553D02*
X135133333Y-40416553D01*
X135133333Y-40416553D02*
X135033333Y-40449886D01*
X134733333Y-41116553D02*
X134733333Y-40416553D01*
X134733333Y-40416553D02*
X134566666Y-40416553D01*
X134566666Y-40416553D02*
X134466666Y-40449886D01*
X134466666Y-40449886D02*
X134400000Y-40516553D01*
X134400000Y-40516553D02*
X134366666Y-40583220D01*
X134366666Y-40583220D02*
X134333333Y-40716553D01*
X134333333Y-40716553D02*
X134333333Y-40816553D01*
X134333333Y-40816553D02*
X134366666Y-40949886D01*
X134366666Y-40949886D02*
X134400000Y-41016553D01*
X134400000Y-41016553D02*
X134466666Y-41083220D01*
X134466666Y-41083220D02*
X134566666Y-41116553D01*
X134566666Y-41116553D02*
X134733333Y-41116553D01*
X133733333Y-40649886D02*
X133733333Y-41116553D01*
X133900000Y-40383220D02*
X134066666Y-40883220D01*
X134066666Y-40883220D02*
X133633333Y-40883220D01*
X35649999Y-47266553D02*
X35649999Y-47833220D01*
X35649999Y-47833220D02*
X35616666Y-47899886D01*
X35616666Y-47899886D02*
X35583332Y-47933220D01*
X35583332Y-47933220D02*
X35516666Y-47966553D01*
X35516666Y-47966553D02*
X35383332Y-47966553D01*
X35383332Y-47966553D02*
X35316666Y-47933220D01*
X35316666Y-47933220D02*
X35283332Y-47899886D01*
X35283332Y-47899886D02*
X35249999Y-47833220D01*
X35249999Y-47833220D02*
X35249999Y-47266553D01*
X35083333Y-48033220D02*
X34549999Y-48033220D01*
X34383333Y-47599886D02*
X34150000Y-47599886D01*
X34050000Y-47966553D02*
X34383333Y-47966553D01*
X34383333Y-47966553D02*
X34383333Y-47266553D01*
X34383333Y-47266553D02*
X34050000Y-47266553D01*
X33783333Y-47933220D02*
X33683333Y-47966553D01*
X33683333Y-47966553D02*
X33516667Y-47966553D01*
X33516667Y-47966553D02*
X33450000Y-47933220D01*
X33450000Y-47933220D02*
X33416667Y-47899886D01*
X33416667Y-47899886D02*
X33383333Y-47833220D01*
X33383333Y-47833220D02*
X33383333Y-47766553D01*
X33383333Y-47766553D02*
X33416667Y-47699886D01*
X33416667Y-47699886D02*
X33450000Y-47666553D01*
X33450000Y-47666553D02*
X33516667Y-47633220D01*
X33516667Y-47633220D02*
X33650000Y-47599886D01*
X33650000Y-47599886D02*
X33716667Y-47566553D01*
X33716667Y-47566553D02*
X33750000Y-47533220D01*
X33750000Y-47533220D02*
X33783333Y-47466553D01*
X33783333Y-47466553D02*
X33783333Y-47399886D01*
X33783333Y-47399886D02*
X33750000Y-47333220D01*
X33750000Y-47333220D02*
X33716667Y-47299886D01*
X33716667Y-47299886D02*
X33650000Y-47266553D01*
X33650000Y-47266553D02*
X33483333Y-47266553D01*
X33483333Y-47266553D02*
X33383333Y-47299886D01*
X33083333Y-47966553D02*
X33083333Y-47266553D01*
X33083333Y-47266553D02*
X32916666Y-47266553D01*
X32916666Y-47266553D02*
X32816666Y-47299886D01*
X32816666Y-47299886D02*
X32750000Y-47366553D01*
X32750000Y-47366553D02*
X32716666Y-47433220D01*
X32716666Y-47433220D02*
X32683333Y-47566553D01*
X32683333Y-47566553D02*
X32683333Y-47666553D01*
X32683333Y-47666553D02*
X32716666Y-47799886D01*
X32716666Y-47799886D02*
X32750000Y-47866553D01*
X32750000Y-47866553D02*
X32816666Y-47933220D01*
X32816666Y-47933220D02*
X32916666Y-47966553D01*
X32916666Y-47966553D02*
X33083333Y-47966553D01*
X32550000Y-48033220D02*
X32016666Y-48033220D01*
X31850000Y-47266553D02*
X31850000Y-47833220D01*
X31850000Y-47833220D02*
X31816667Y-47899886D01*
X31816667Y-47899886D02*
X31783333Y-47933220D01*
X31783333Y-47933220D02*
X31716667Y-47966553D01*
X31716667Y-47966553D02*
X31583333Y-47966553D01*
X31583333Y-47966553D02*
X31516667Y-47933220D01*
X31516667Y-47933220D02*
X31483333Y-47899886D01*
X31483333Y-47899886D02*
X31450000Y-47833220D01*
X31450000Y-47833220D02*
X31450000Y-47266553D01*
X31116667Y-47966553D02*
X31116667Y-47266553D01*
X31116667Y-47266553D02*
X30850000Y-47266553D01*
X30850000Y-47266553D02*
X30783334Y-47299886D01*
X30783334Y-47299886D02*
X30750000Y-47333220D01*
X30750000Y-47333220D02*
X30716667Y-47399886D01*
X30716667Y-47399886D02*
X30716667Y-47499886D01*
X30716667Y-47499886D02*
X30750000Y-47566553D01*
X30750000Y-47566553D02*
X30783334Y-47599886D01*
X30783334Y-47599886D02*
X30850000Y-47633220D01*
X30850000Y-47633220D02*
X31116667Y-47633220D01*
X107016666Y-41216553D02*
X107016666Y-41783220D01*
X107016666Y-41783220D02*
X106983333Y-41849886D01*
X106983333Y-41849886D02*
X106949999Y-41883220D01*
X106949999Y-41883220D02*
X106883333Y-41916553D01*
X106883333Y-41916553D02*
X106749999Y-41916553D01*
X106749999Y-41916553D02*
X106683333Y-41883220D01*
X106683333Y-41883220D02*
X106649999Y-41849886D01*
X106649999Y-41849886D02*
X106616666Y-41783220D01*
X106616666Y-41783220D02*
X106616666Y-41216553D01*
X106450000Y-41983220D02*
X105916666Y-41983220D01*
X105750000Y-41916553D02*
X105750000Y-41216553D01*
X105750000Y-41216553D02*
X105583333Y-41216553D01*
X105583333Y-41216553D02*
X105483333Y-41249886D01*
X105483333Y-41249886D02*
X105416667Y-41316553D01*
X105416667Y-41316553D02*
X105383333Y-41383220D01*
X105383333Y-41383220D02*
X105350000Y-41516553D01*
X105350000Y-41516553D02*
X105350000Y-41616553D01*
X105350000Y-41616553D02*
X105383333Y-41749886D01*
X105383333Y-41749886D02*
X105416667Y-41816553D01*
X105416667Y-41816553D02*
X105483333Y-41883220D01*
X105483333Y-41883220D02*
X105583333Y-41916553D01*
X105583333Y-41916553D02*
X105750000Y-41916553D01*
X105083333Y-41716553D02*
X104750000Y-41716553D01*
X105150000Y-41916553D02*
X104916667Y-41216553D01*
X104916667Y-41216553D02*
X104683333Y-41916553D01*
X104550000Y-41216553D02*
X104150000Y-41216553D01*
X104350000Y-41916553D02*
X104350000Y-41216553D01*
X103950000Y-41716553D02*
X103616667Y-41716553D01*
X104016667Y-41916553D02*
X103783334Y-41216553D01*
X103783334Y-41216553D02*
X103550000Y-41916553D01*
X103383334Y-41216553D02*
X102950000Y-41216553D01*
X102950000Y-41216553D02*
X103183334Y-41483220D01*
X103183334Y-41483220D02*
X103083334Y-41483220D01*
X103083334Y-41483220D02*
X103016667Y-41516553D01*
X103016667Y-41516553D02*
X102983334Y-41549886D01*
X102983334Y-41549886D02*
X102950000Y-41616553D01*
X102950000Y-41616553D02*
X102950000Y-41783220D01*
X102950000Y-41783220D02*
X102983334Y-41849886D01*
X102983334Y-41849886D02*
X103016667Y-41883220D01*
X103016667Y-41883220D02*
X103083334Y-41916553D01*
X103083334Y-41916553D02*
X103283334Y-41916553D01*
X103283334Y-41916553D02*
X103350000Y-41883220D01*
X103350000Y-41883220D02*
X103383334Y-41849886D01*
X76799999Y-36016553D02*
X76799999Y-36583220D01*
X76799999Y-36583220D02*
X76766666Y-36649886D01*
X76766666Y-36649886D02*
X76733332Y-36683220D01*
X76733332Y-36683220D02*
X76666666Y-36716553D01*
X76666666Y-36716553D02*
X76533332Y-36716553D01*
X76533332Y-36716553D02*
X76466666Y-36683220D01*
X76466666Y-36683220D02*
X76433332Y-36649886D01*
X76433332Y-36649886D02*
X76399999Y-36583220D01*
X76399999Y-36583220D02*
X76399999Y-36016553D01*
X76233333Y-36783220D02*
X75699999Y-36783220D01*
X75533333Y-36349886D02*
X75300000Y-36349886D01*
X75200000Y-36716553D02*
X75533333Y-36716553D01*
X75533333Y-36716553D02*
X75533333Y-36016553D01*
X75533333Y-36016553D02*
X75200000Y-36016553D01*
X74933333Y-36683220D02*
X74833333Y-36716553D01*
X74833333Y-36716553D02*
X74666667Y-36716553D01*
X74666667Y-36716553D02*
X74600000Y-36683220D01*
X74600000Y-36683220D02*
X74566667Y-36649886D01*
X74566667Y-36649886D02*
X74533333Y-36583220D01*
X74533333Y-36583220D02*
X74533333Y-36516553D01*
X74533333Y-36516553D02*
X74566667Y-36449886D01*
X74566667Y-36449886D02*
X74600000Y-36416553D01*
X74600000Y-36416553D02*
X74666667Y-36383220D01*
X74666667Y-36383220D02*
X74800000Y-36349886D01*
X74800000Y-36349886D02*
X74866667Y-36316553D01*
X74866667Y-36316553D02*
X74900000Y-36283220D01*
X74900000Y-36283220D02*
X74933333Y-36216553D01*
X74933333Y-36216553D02*
X74933333Y-36149886D01*
X74933333Y-36149886D02*
X74900000Y-36083220D01*
X74900000Y-36083220D02*
X74866667Y-36049886D01*
X74866667Y-36049886D02*
X74800000Y-36016553D01*
X74800000Y-36016553D02*
X74633333Y-36016553D01*
X74633333Y-36016553D02*
X74533333Y-36049886D01*
X74233333Y-36716553D02*
X74233333Y-36016553D01*
X74233333Y-36016553D02*
X74066666Y-36016553D01*
X74066666Y-36016553D02*
X73966666Y-36049886D01*
X73966666Y-36049886D02*
X73900000Y-36116553D01*
X73900000Y-36116553D02*
X73866666Y-36183220D01*
X73866666Y-36183220D02*
X73833333Y-36316553D01*
X73833333Y-36316553D02*
X73833333Y-36416553D01*
X73833333Y-36416553D02*
X73866666Y-36549886D01*
X73866666Y-36549886D02*
X73900000Y-36616553D01*
X73900000Y-36616553D02*
X73966666Y-36683220D01*
X73966666Y-36683220D02*
X74066666Y-36716553D01*
X74066666Y-36716553D02*
X74233333Y-36716553D01*
X73566666Y-36083220D02*
X73533333Y-36049886D01*
X73533333Y-36049886D02*
X73466666Y-36016553D01*
X73466666Y-36016553D02*
X73300000Y-36016553D01*
X73300000Y-36016553D02*
X73233333Y-36049886D01*
X73233333Y-36049886D02*
X73200000Y-36083220D01*
X73200000Y-36083220D02*
X73166666Y-36149886D01*
X73166666Y-36149886D02*
X73166666Y-36216553D01*
X73166666Y-36216553D02*
X73200000Y-36316553D01*
X73200000Y-36316553D02*
X73600000Y-36716553D01*
X73600000Y-36716553D02*
X73166666Y-36716553D01*
%TO.C,U_ESD1*%
D11*
X49940000Y-35640000D02*
X49940000Y-37160000D01*
X49940000Y-37160000D02*
X50940000Y-37160000D01*
X49990000Y-35640000D02*
X49940000Y-35640000D01*
X51890000Y-35640000D02*
X51110000Y-35640000D01*
X52060000Y-37160000D02*
X53060000Y-37160000D01*
X53060000Y-35640000D02*
X53010000Y-35640000D01*
X53060000Y-37160000D02*
X53060000Y-35640000D01*
X51120000Y-35100000D02*
X51450000Y-35340000D01*
X51450000Y-34860000D01*
X51120000Y-35100000D01*
G36*
X51450000Y-35340000D02*
G01*
X51120000Y-35100000D01*
X51450000Y-34860000D01*
X51450000Y-35340000D01*
G37*
%TO.C,U_ESD3*%
X105940000Y-35640000D02*
X105940000Y-37160000D01*
X105940000Y-37160000D02*
X106940000Y-37160000D01*
X105990000Y-35640000D02*
X105940000Y-35640000D01*
X107890000Y-35640000D02*
X107110000Y-35640000D01*
X108060000Y-37160000D02*
X109060000Y-37160000D01*
X109060000Y-35640000D02*
X109010000Y-35640000D01*
X109060000Y-37160000D02*
X109060000Y-35640000D01*
X107120000Y-35100000D02*
X107450000Y-35340000D01*
X107450000Y-34860000D01*
X107120000Y-35100000D01*
G36*
X107450000Y-35340000D02*
G01*
X107120000Y-35100000D01*
X107450000Y-34860000D01*
X107450000Y-35340000D01*
G37*
%TO.C,U_DATA2*%
X80390000Y-42890000D02*
X80390000Y-43065000D01*
X80390000Y-45935000D02*
X80390000Y-46110000D01*
X80390000Y-46110000D02*
X83610000Y-46110000D01*
X83610000Y-42890000D02*
X80390000Y-42890000D01*
X83610000Y-43065000D02*
X83610000Y-42890000D01*
X83610000Y-46110000D02*
X83610000Y-45935000D01*
X84160000Y-43060000D02*
X84400000Y-42730000D01*
X83920000Y-42730000D01*
X84160000Y-43060000D01*
G36*
X84160000Y-43060000D02*
G01*
X83920000Y-42730000D01*
X84400000Y-42730000D01*
X84160000Y-43060000D01*
G37*
%TO.C,U_DATA4*%
X124390000Y-42890000D02*
X124390000Y-43065000D01*
X124390000Y-45935000D02*
X124390000Y-46110000D01*
X124390000Y-46110000D02*
X127610000Y-46110000D01*
X127610000Y-42890000D02*
X124390000Y-42890000D01*
X127610000Y-43065000D02*
X127610000Y-42890000D01*
X127610000Y-46110000D02*
X127610000Y-45935000D01*
X123840000Y-45940000D02*
X123600000Y-46270000D01*
X124080000Y-46270000D01*
X123840000Y-45940000D01*
G36*
X124080000Y-46270000D02*
G01*
X123600000Y-46270000D01*
X123840000Y-45940000D01*
X124080000Y-46270000D01*
G37*
%TO.C,U_DATA1*%
X55390000Y-42890000D02*
X55390000Y-43065000D01*
X55390000Y-45935000D02*
X55390000Y-46110000D01*
X55390000Y-46110000D02*
X58610000Y-46110000D01*
X58610000Y-42890000D02*
X55390000Y-42890000D01*
X58610000Y-43065000D02*
X58610000Y-42890000D01*
X58610000Y-46110000D02*
X58610000Y-45935000D01*
X59160000Y-43060000D02*
X59400000Y-42730000D01*
X58920000Y-42730000D01*
X59160000Y-43060000D01*
G36*
X59160000Y-43060000D02*
G01*
X58920000Y-42730000D01*
X59400000Y-42730000D01*
X59160000Y-43060000D01*
G37*
%TO.C,U_ESD4*%
X133940000Y-35640000D02*
X133940000Y-37160000D01*
X133940000Y-37160000D02*
X134940000Y-37160000D01*
X133990000Y-35640000D02*
X133940000Y-35640000D01*
X135890000Y-35640000D02*
X135110000Y-35640000D01*
X136060000Y-37160000D02*
X137060000Y-37160000D01*
X137060000Y-35640000D02*
X137010000Y-35640000D01*
X137060000Y-37160000D02*
X137060000Y-35640000D01*
X135120000Y-35100000D02*
X135450000Y-35340000D01*
X135450000Y-34860000D01*
X135120000Y-35100000D01*
G36*
X135450000Y-35340000D02*
G01*
X135120000Y-35100000D01*
X135450000Y-34860000D01*
X135450000Y-35340000D01*
G37*
%TO.C,U_ESD_UP*%
X31640000Y-52090000D02*
X31640000Y-53610000D01*
X31640000Y-53610000D02*
X31690000Y-53610000D01*
X32640000Y-52090000D02*
X31640000Y-52090000D01*
X32810000Y-53610000D02*
X33590000Y-53610000D01*
X34710000Y-53610000D02*
X34760000Y-53610000D01*
X34760000Y-52090000D02*
X33760000Y-52090000D01*
X34760000Y-53610000D02*
X34760000Y-52090000D01*
X33580000Y-54150000D02*
X33250000Y-53910000D01*
X33250000Y-54390000D01*
X33580000Y-54150000D01*
G36*
X33580000Y-54150000D02*
G01*
X33250000Y-54390000D01*
X33250000Y-53910000D01*
X33580000Y-54150000D01*
G37*
%TO.C,U_DATA3*%
X103390000Y-42890000D02*
X103390000Y-43065000D01*
X103390000Y-45935000D02*
X103390000Y-46110000D01*
X103390000Y-46110000D02*
X106610000Y-46110000D01*
X106610000Y-42890000D02*
X103390000Y-42890000D01*
X106610000Y-43065000D02*
X106610000Y-42890000D01*
X106610000Y-46110000D02*
X106610000Y-45935000D01*
X102840000Y-45940000D02*
X102600000Y-46270000D01*
X103080000Y-46270000D01*
X102840000Y-45940000D01*
G36*
X103080000Y-46270000D02*
G01*
X102600000Y-46270000D01*
X102840000Y-45940000D01*
X103080000Y-46270000D01*
G37*
%TO.C,U_ESD2*%
X77940000Y-35640000D02*
X77940000Y-37160000D01*
X77940000Y-37160000D02*
X78940000Y-37160000D01*
X77990000Y-35640000D02*
X77940000Y-35640000D01*
X79890000Y-35640000D02*
X79110000Y-35640000D01*
X80060000Y-37160000D02*
X81060000Y-37160000D01*
X81060000Y-35640000D02*
X81010000Y-35640000D01*
X81060000Y-37160000D02*
X81060000Y-35640000D01*
X79120000Y-35100000D02*
X79450000Y-35340000D01*
X79450000Y-34860000D01*
X79120000Y-35100000D01*
G36*
X79450000Y-35340000D02*
G01*
X79120000Y-35100000D01*
X79450000Y-34860000D01*
X79450000Y-35340000D01*
G37*
%TD*%
%LPC*%
D12*
%TO.C,J_PORT1*%
X55000000Y-33700000D03*
D13*
X52500000Y-33700000D03*
X50500000Y-33700000D03*
X48000000Y-33700000D03*
D14*
X58119000Y-31100000D03*
X44879000Y-31100000D03*
%TD*%
D15*
%TO.C,H3*%
X24000000Y-106000000D03*
%TD*%
D12*
%TO.C,J_PORT3*%
X111000000Y-33700000D03*
D13*
X108500000Y-33700000D03*
X106500000Y-33700000D03*
X104000000Y-33700000D03*
D14*
X114119000Y-31100000D03*
X100879000Y-31100000D03*
%TD*%
D16*
%TO.C,F_IN*%
X37000000Y-99000000D03*
X37000000Y-102400000D03*
X46920000Y-99000000D03*
X46920000Y-102400000D03*
%TD*%
D15*
%TO.C,H1*%
X24000000Y-24000000D03*
%TD*%
%TO.C,H4*%
X146000000Y-106000000D03*
%TD*%
D17*
%TO.C,J_PWR*%
X25500000Y-98000000D03*
D18*
X25500000Y-93000000D03*
%TD*%
D15*
%TO.C,H2*%
X146000000Y-44000000D03*
%TD*%
D12*
%TO.C,J_PORT4*%
X139000000Y-33700000D03*
D13*
X136500000Y-33700000D03*
X134500000Y-33700000D03*
X132000000Y-33700000D03*
D14*
X142119000Y-31100000D03*
X128879000Y-31100000D03*
%TD*%
D12*
%TO.C,J_UP*%
X34200000Y-58250000D03*
D13*
X34200000Y-55750000D03*
X32200000Y-55750000D03*
X32200000Y-58250000D03*
D19*
X29490000Y-50980000D03*
X29490000Y-63020000D03*
%TD*%
D12*
%TO.C,J_PORT2*%
X83000000Y-33700000D03*
D13*
X80500000Y-33700000D03*
X78500000Y-33700000D03*
X76000000Y-33700000D03*
D14*
X86119000Y-31100000D03*
X72879000Y-31100000D03*
%TD*%
D20*
%TO.C,U_ESD1*%
X50550000Y-35462500D03*
X52450000Y-35462500D03*
X51500000Y-37337500D03*
%TD*%
%TO.C,U_ESD3*%
X106550000Y-35462500D03*
X108450000Y-35462500D03*
X107500000Y-37337500D03*
%TD*%
D21*
%TO.C,U_DATA2*%
X84100000Y-43500000D03*
X84100000Y-44000000D03*
X84100000Y-44500000D03*
X84100000Y-45000000D03*
X84100000Y-45500000D03*
X79900000Y-45500000D03*
X79900000Y-45000000D03*
X79900000Y-44500000D03*
X79900000Y-44000000D03*
X79900000Y-43500000D03*
%TD*%
D22*
%TO.C,U_DATA4*%
X123900000Y-45500000D03*
X123900000Y-45000000D03*
X123900000Y-44500000D03*
X123900000Y-44000000D03*
X123900000Y-43500000D03*
X128100000Y-43500000D03*
X128100000Y-44000000D03*
X128100000Y-44500000D03*
X128100000Y-45000000D03*
X128100000Y-45500000D03*
%TD*%
D21*
%TO.C,U_DATA1*%
X59100000Y-43500000D03*
X59100000Y-44000000D03*
X59100000Y-44500000D03*
X59100000Y-45000000D03*
X59100000Y-45500000D03*
X54900000Y-45500000D03*
X54900000Y-45000000D03*
X54900000Y-44500000D03*
X54900000Y-44000000D03*
X54900000Y-43500000D03*
%TD*%
D20*
%TO.C,U_ESD4*%
X134550000Y-35462500D03*
X136450000Y-35462500D03*
X135500000Y-37337500D03*
%TD*%
D23*
%TO.C,U_ESD_UP*%
X34150000Y-53787500D03*
X32250000Y-53787500D03*
X33200000Y-51912500D03*
%TD*%
D22*
%TO.C,U_DATA3*%
X102900000Y-45500000D03*
X102900000Y-45000000D03*
X102900000Y-44500000D03*
X102900000Y-44000000D03*
X102900000Y-43500000D03*
X107100000Y-43500000D03*
X107100000Y-44000000D03*
X107100000Y-44500000D03*
X107100000Y-45000000D03*
X107100000Y-45500000D03*
%TD*%
D20*
%TO.C,U_ESD2*%
X78550000Y-35462500D03*
X80450000Y-35462500D03*
X79500000Y-37337500D03*
%TD*%
%LPD*%
M02*
