#VRML V2.0 utf8
# 3D model generated by easyeda2kicad.py (https://github.com/uPesy/easyeda2kicad.py)

Shape{
    appearance Appearance {
        material  Material 	{
            diffuseColor 0.20784313725490197 0.20784313725490197 0.20784313725490197
            specularColor 0.01568627450980392 0.01568627450980392 0.01568627450980392
            ambientIntensity 0.298
            transparency 0.0
            shininess 0.5
        }
    }
    geometry IndexedFaceSet {
        ccw TRUE
        solid FALSE
        coord DEF co Coordinate {
            point [
                -0.3165 -1.3957 1.185, -0.2303 -1.3957 1.185, -0.2303 -1.3724 1.185, -0.4253 -1.498 1.185, -0.4285 -1.4984 1.185, -0.4087 -1.4984 1.185, -0.1575 -0.2728 1.185, -0.2163 -0.2276 1.185, -0.2163 -0.793 1.185, 0.0815 0.3042 1.185, 0.0862 0.3023 1.185, 0.0862 0.4324 1.185, 0.1575 -0.2728 1.185, 0.0862 -0.3023 1.185, 0.0862 -0.793 1.185, -0.395 -1.441 1.185, -0.3902 -1.4548 1.185, -0.3902 -1.3957 1.185, -0.5186 -1.4984 1.185, -0.5186 -1.4977 1.185, -0.5609 -1.4977 1.185, -0.5609 -1.4183 1.185, -0.5935 -1.3957 1.185, -0.5935 -1.4984 1.185, -0.5186 -1.3957 1.185, -0.52 -1.4183 1.185, -0.52 -1.4274 1.185, -0.5507 -1.4274 1.185, -0.5507 -1.4529 1.185, -0.5507 -1.462 1.185, -0.5507 -1.4887 1.185, -0.5223 -1.462 1.185, -0.5186 -1.4887 1.185, -0.5223 -1.4529 1.185, -0.517 -1.3957 1.185, -0.5182 -1.4977 1.185, -0.517 -1.4984 1.185, -0.5182 -1.4887 1.185, -0.4597 -1.3035 1.185, -0.4653 -1.3014 1.185, -0.4597 -1.3601 1.185, -0.475 -1.3002 1.185, -0.4788 -1.3004 1.185, -0.4856 -1.3018 1.185, -0.4918 -1.3049 1.185, -0.4967 -1.309 1.185, -0.4972 -1.3096 1.185, -0.5011 -1.3151 1.185, -0.5037 -1.322 1.185, -0.505 -1.3329 1.185, -0.5049 -1.3364 1.185, -0.4641 -1.3621 1.185, -0.4731 -1.3638 1.185, -0.4768 -1.3639 1.185, -0.5035 -1.3442 1.185, -0.5009 -1.3506 1.185, -0.4972 -1.3555 1.185, -0.495 -1.3577 1.185, -0.4838 -1.3632 1.185, -0.4897 -1.3612 1.185, -0.4572 -1.3044 1.185, -0.4563 -1.3586 1.185, -0.4563 -1.3049 1.185, -0.453 -1.3724 1.185, -0.453 -1.2916 1.185, -0.4666 -1.2916 1.185, -0.4647 -1.2918 1.185, -0.4597 -1.2916 1.185, -0.4597 -1.2932 1.185, -0.4563 -1.2942 1.185, -0.4751 -1.2909 1.185, -0.4597 -0.793 1.185, -0.4807 -1.2916 1.185, -0.517 -0.793 1.185, -0.511 -1.3547 1.185, -0.5142 -1.3464 1.185, -0.517 -1.3724 1.185, -0.4857 -1.3724 1.185, -0.493 -1.3706 1.185, -0.5003 -1.3668 1.185, -0.5158 -1.3335 1.185, -0.5157 -1.3293 1.185, -0.517 -1.2916 1.185, -0.5139 -1.319 1.185, -0.5101 -1.3102 1.185, -0.5043 -1.3026 1.185, -0.5056 -1.3622 1.185, -0.5063 -1.3615 1.185, -0.5024 -1.3007 1.185, -0.4949 -1.2955 1.185, -0.4866 -1.2923 1.185, -0.4846 -1.3727 1.185, -0.4783 -1.3731 1.185, -0.4597 -1.3957 1.185, -0.4713 -1.3724 1.185, -0.4563 -1.3684 1.185, -0.4577 -1.3691 1.185, -0.4597 -1.3724 1.185, -0.4597 -1.3698 1.185, -0.4662 -1.3719 1.185, -0.362 -1.441 1.185, -0.3517 -1.441 1.185, -0.3463 -1.3957 1.185, -0.3463 -1.4984 1.185, -0.3802 -1.4836 1.185, -0.379 -1.4883 1.185, -0.3787 -1.4883 1.185, -0.3775 -1.4837 1.185, -0.3782 -1.4864 1.185, -0.3902 -1.4984 1.185, -0.3902 -1.4815 1.185, -0.4061 -1.441 1.185, -0.3839 -1.4976 1.185, -0.3842 -1.4984 1.185, -0.3882 -1.5079 1.185, -0.4087 -1.5299 1.185, -0.4041 -1.5236 1.185, -0.4041 -1.5148 1.185, -0.3921 -1.5136 1.185, -0.3902 -1.5115 1.185, -0.3902 -1.5115 1.185, -0.3902 -1.5227 1.185, -0.3936 -1.524 1.185, -0.3902 -1.5299 1.185, -0.3977 -1.5245 1.185, -0.3999 -1.5244 1.185, -0.3984 -1.5159 1.185, -0.3959 -1.5156 1.185, -0.3938 -1.5148 1.185, -0.3774 -1.5063 1.185, -0.3819 -1.5151 1.185, -0.3463 -1.5299 1.185, -0.3743 -1.4984 1.185, -0.3856 -1.5194 1.185, -0.3862 -1.5201 1.185, -0.3897 -1.5225 1.185, -0.6864 0.6373 1.185, -0.7671 0.5861 1.185, -0.5935 0.4324 1.185, -1.0471 1.2934 1.185, -0.9533 1.3113 1.185, -1.0741 1.6526 1.185, -0.621 0.7069 1.185, -0.5935 1.6526 1.185, -1.6526 0.4324 1.185, -1.1336 0.6092 1.185, -1.2072 0.6701 1.185, -1.2985 1.0257 1.185, -1.2633 1.1145 1.185, -1.6526 1.0741 1.185, -1.2072 1.1918 1.185, -1.1336 1.2527 1.185, -0.8579 1.3053 1.185, -0.7671 1.2758 1.185, -0.6864 1.2246 1.185, -0.8579 0.5566 1.185, -0.9533 0.5506 1.185, -1.0471 0.5685 1.185, -1.2633 0.7473 1.185, -1.2985 0.8362 1.185, -1.3104 0.9309 1.185, -0.621 1.1549 1.185, -0.5935 1.1048 1.185, -0.5186 1.6526 1.185, -0.575 1.0712 1.185, -0.5513 0.9787 1.185, -0.5513 0.8832 1.185, -0.5186 0.4324 1.185, -0.575 0.7906 1.185, -0.5935 0.7571 1.185, 0.2227 -0.2227 1.185, 0.2728 0.1575 1.185, 1.6526 0.4324 1.185, 0.2227 0.2227 1.185, 0.1575 0.2728 1.185, 0.3042 0.0815 1.185, 0.315 0.0 1.185, 1.6526 -0.793 1.185, 0.3042 -0.0815 1.185, 0.2728 -0.1575 1.185, -0.2163 0.4324 1.185, -0.1575 0.2728 1.185, -0.0815 0.3042 1.185, 0.0 0.315 1.185, -0.2303 0.4324 1.185, -0.2227 0.2227 1.185, -0.2163 0.2276 1.185, -0.315 0.0 1.185, -0.3042 0.0815 1.185, -0.3165 0.4324 1.185, -0.2728 0.1575 1.185, -0.2303 0.2128 1.185, -0.2303 -0.793 1.185, -0.2227 -0.2227 1.185, -0.2303 -0.2128 1.185, -0.3165 -0.793 1.185, -0.2728 -0.1575 1.185, -0.3042 -0.0815 1.185, 0.0815 -0.3042 1.185, 0.0 -0.315 1.185, -0.0815 -0.3042 1.185, 1.6526 1.0741 1.185, 1.6526 -1.0741 1.185, 1.4351 -1.2916 1.185, -0.8404 -1.5299 1.185, -0.8501 -1.5336 1.185, -0.5935 -1.6526 1.185, -0.8638 -1.5353 1.185, -1.0741 -1.6526 1.185, -0.866 -1.5352 1.185, -0.8793 -1.5332 1.185, -1.1969 -1.5299 1.185, -0.8871 -1.5299 1.185, -0.8923 -1.5277 1.185, -0.945 -1.4848 1.185, -0.9626 -1.4698 1.185, -1.2283 -1.4984 1.185, -0.9246 -1.4947 1.185, -0.9034 -1.5194 1.185, -0.9118 -1.509 1.185, -0.9167 -1.4984 1.185, -0.9174 -1.4969 1.185, -0.9755 -1.4513 1.185, -0.9836 -1.4303 1.185, -1.3311 -1.3957 1.185, -0.9863 -1.4082 1.185, -0.9862 -1.4028 1.185, -0.9849 -1.3957 1.185, -1.3544 -1.3724 1.185, -0.9824 -1.3815 1.185, -0.9783 -1.3724 1.185, -1.4351 -1.2916 1.185, -0.9734 -1.3612 1.185, -0.9598 -1.3438 1.185, -0.857 -1.293 1.185, -0.8948 -1.3167 1.185, -0.8703 -1.3044 1.185, -0.8884 -1.3171 1.185, -0.8819 -1.3178 1.185, -0.956 -1.3402 1.185, -0.938 -1.3276 1.185, -0.9171 -1.3195 1.185, -0.7627 -1.2741 1.185, -0.5935 -0.793 1.185, -0.7892 -1.271 1.185, -0.8149 -1.2739 1.185, -1.6526 -0.793 1.185, -1.6526 -1.0741 1.185, -0.8411 -1.2834 1.185, -0.8547 -1.2916 1.185, -0.2303 -1.4864 1.185, -0.2303 -1.4984 1.185, -0.2246 -1.4796 1.185, -0.2163 -1.4984 1.185, -0.2207 -1.4714 1.185, -0.2277 -1.4316 1.185, -0.2228 -1.4385 1.185, -0.2163 -1.3957 1.185, -0.2303 -1.429 1.185, -0.2198 -1.4461 1.185, -0.2185 -1.457 1.185, -0.2188 -1.4621 1.185, -0.2832 -1.4977 1.185, -0.2832 -1.4183 1.185, -0.3 -1.4274 1.185, -0.3 -1.4183 1.185, -0.2605 -1.4183 1.185, -0.2484 -1.4196 1.185, -0.2388 -1.4231 1.185, -0.2305 -1.4288 1.185, -0.3409 -1.4183 1.185, -0.3165 -1.4183 1.185, -0.3165 -1.4984 1.185, -0.2982 -1.4977 1.185, -0.2305 -1.4866 1.185, -0.2388 -1.4926 1.185, -0.2479 -1.4961 1.185, -0.2614 -1.4977 1.185, -0.2982 -1.4887 1.185, -0.4496 -1.4957 1.185, -0.453 -1.4984 1.185, -0.4435 -1.498 1.185, -0.44 -1.4984 1.185, -0.4205 -1.4403 1.185, -0.414 -1.4422 1.185, -0.4087 -1.3957 1.185, -0.414 -1.4519 1.185, -0.4118 -1.4863 1.185, -0.413 -1.4895 1.185, -0.4149 -1.4921 1.185, -0.4146 -1.4729 1.185, -0.4128 -1.4757 1.185, -0.4117 -1.4786 1.185, -0.4113 -1.4823 1.185, -0.4467 -1.4653 1.185, -0.448 -1.4632 1.185, -0.4496 -1.4855 1.185, -0.4491 -1.4602 1.185, -0.4496 -1.4563 1.185, -0.453 -1.3957 1.185, -0.4492 -1.4528 1.185, -0.448 -1.4495 1.185, -0.4461 -1.4469 1.185, -0.4432 -1.4442 1.185, -0.4177 -1.4946 1.185, -0.4201 -1.496 1.185, -0.44 -1.4423 1.185, -0.4345 -1.4404 1.185, -0.4275 -1.4397 1.185, -0.4394 -1.4902 1.185, -0.4345 -1.4728 1.185, -0.4457 -1.4879 1.185, -0.4404 -1.4701 1.185, -0.4451 -1.467 1.185, -0.4284 -1.4478 1.185, -0.4314 -1.448 1.185, -0.4393 -1.4554 1.185, -0.434 -1.4487 1.185, -0.4363 -1.4499 1.185, -0.4392 -1.4567 1.185, -0.4388 -1.4583 1.185, -0.4381 -1.4596 1.185, -0.4333 -1.491 1.185, -0.4328 -1.491 1.185, -0.428 -1.4755 1.185, -0.4277 -1.4904 1.185, -0.4215 -1.4833 1.185, -0.4216 -1.482 1.185, -0.4371 -1.4607 1.185, -0.4336 -1.4629 1.185, -0.422 -1.4485 1.185, -0.4275 -1.4656 1.185, -0.4164 -1.4505 1.185, -0.4236 -1.4671 1.185, -0.417 -1.4708 1.185, -0.4251 -1.4894 1.185, -0.4242 -1.4889 1.185, -0.4231 -1.4879 1.185, -0.4378 -1.4512 1.185, -0.4386 -1.4525 1.185, -0.4391 -1.4538 1.185, -0.4222 -1.4866 1.185, -0.4217 -1.4852 1.185, -0.4221 -1.4805 1.185, -0.4228 -1.4792 1.185, -0.4241 -1.4779 1.185, -0.4342 -1.4991 1.185, -0.453 -1.5299 1.185, -0.402 -1.5155 1.185, -0.4965 -1.4984 1.185, -0.4967 -1.4984 1.185, -0.5031 -1.445 1.185, -0.5031 -1.4546 1.185, -0.4631 -1.4612 1.185, -0.4631 -1.4977 1.185, -0.4597 -1.4984 1.185, -0.4731 -1.4977 1.185, -0.5005 -1.4969 1.185, -0.5038 -1.4946 1.185, -0.5049 -1.4935 1.185, -0.4733 -1.4416 1.185, -0.47 -1.4435 1.185, -0.4731 -1.489 1.185, -0.4733 -1.489 1.185, -0.4775 -1.4403 1.185, -0.507 -1.4904 1.185, -0.5082 -1.4871 1.185, -0.5087 -1.4825 1.185, -0.476 -1.4927 1.185, -0.4793 -1.4957 1.185, -0.4811 -1.4968 1.185, -0.5087 -1.4811 1.185, -0.508 -1.4769 1.185, -0.5066 -1.4734 1.185, -0.5045 -1.4706 1.185, -0.5014 -1.4679 1.185, -0.4971 -1.4658 1.185, -0.4973 -1.4508 1.185, -0.4899 -1.464 1.185, -0.4812 -1.4481 1.185, -0.4845 -1.4478 1.185, -0.491 -1.4485 1.185, -0.5011 -1.4438 1.185, -0.4937 -1.4409 1.185, -0.4836 -1.4397 1.185, -0.4674 -1.446 1.185, -0.4654 -1.4493 1.185, -0.4638 -1.4539 1.185, -0.4731 -1.4617 1.185, -0.4734 -1.4573 1.185, -0.4744 -1.4537 1.185, -0.4756 -1.4517 1.185, -0.4771 -1.4501 1.185, -0.4789 -1.4489 1.185, -0.4907 -1.4991 1.185, -0.517 -1.5299 1.185, -0.4853 -1.4984 1.185, -0.4597 -1.5299 1.185, -0.6623 -1.3542 1.185, -0.647 -1.3672 1.185, -0.5935 -1.2916 1.185, -0.5935 -1.3724 1.185, -0.7346 -1.2849 1.185, -0.725 -1.2916 1.185, -0.7124 -1.3003 1.185, -0.693 -1.3231 1.185, -0.6819 -1.3449 1.185, -0.6791 -1.3459 1.185, -0.8109 -1.4984 1.185, -0.8109 -1.4986 1.185, -0.5935 -1.5299 1.185, -0.8176 -1.5112 1.185, -0.8263 -1.5209 1.185, -0.8375 -1.5288 1.185, -0.6286 -1.4005 1.185, -0.626 -1.4189 1.185, -0.7387 -1.4651 1.185, -0.7349 -1.4636 1.185, -0.7282 -1.4314 1.185, -0.8214 -1.441 1.185, -0.7457 -1.4014 1.185, -0.8313 -1.432 1.185, -0.8433 -1.4256 1.185, -0.7422 -1.4675 1.185, -0.6357 -1.457 1.185, -0.6469 -1.4726 1.185, -0.6613 -1.4146 1.185, -0.6639 -1.4037 1.185, -0.6683 -1.3957 1.185, -0.9494 -1.3957 1.185, -0.6286 -1.4391 1.185, -0.7305 -1.463 1.185, -0.7299 -1.463 1.185, -0.7282 -1.4634 1.185, -0.946 -1.4296 1.185, -0.9393 -1.4411 1.185, -0.9106 -1.4469 1.185, -0.9292 -1.4515 1.185, -0.9169 -1.459 1.185, -0.8897 -1.4282 1.185, -0.9013 -1.4362 1.185, -0.9508 -1.4071 1.185, -0.9501 -1.4158 1.185, -0.8773 -1.4234 1.185, -0.8638 -1.4218 1.185, -0.8569 -1.4222 1.185, -0.6623 -1.4856 1.185, -0.6795 -1.494 1.185, -0.6983 -1.498 1.185, -0.748 -1.4805 1.185, -0.7479 -1.4783 1.185, -0.8073 -1.4732 1.185, -0.7467 -1.474 1.185, -0.7445 -1.4701 1.185, -0.6725 -1.4494 1.185, -0.6663 -1.4406 1.185, -0.6624 -1.4305 1.185, -0.661 -1.4195 1.185, -0.7316 -1.498 1.185, -0.7348 -1.4975 1.185, -0.7385 -1.496 1.185, -0.7422 -1.4934 1.185, -0.7435 -1.4921 1.185, -0.746 -1.4885 1.185, -0.7475 -1.4847 1.185, -0.8076 -1.4847 1.185, -0.8073 -1.4788 1.185, -0.7271 -1.4636 1.185, -0.7017 -1.4636 1.185, -0.6915 -1.4616 1.185, -0.6816 -1.457 1.185, -0.6732 -1.4502 1.185, -0.7096 -1.3754 1.185, -0.9442 -1.3808 1.185, -0.9491 -1.3934 1.185, -0.7051 -1.3754 1.185, -0.6692 -1.394 1.185, -0.6757 -1.3867 1.185, -0.6845 -1.3806 1.185, -0.6943 -1.3768 1.185, -0.7218 -1.3415 1.185, -0.7345 -1.3263 1.185, -0.8643 -1.3591 1.185, -0.7359 -1.325 1.185, -0.7518 -1.314 1.185, -0.8557 -1.3412 1.185, -0.9384 -1.3724 1.185, -0.8684 -1.3569 1.185, -0.7103 -1.3724 1.185, -0.713 -1.3597 1.185, -0.881 -1.3522 1.185, -0.8943 -1.3506 1.185, -0.9002 -1.3509 1.185, -0.8431 -1.3261 1.185, -0.7695 -1.3072 1.185, -0.8279 -1.315 1.185, -0.7887 -1.3048 1.185, -0.8095 -1.3075 1.185, -0.9141 -1.3542 1.185, -0.9267 -1.3609 1.185, -0.9364 -1.3696 1.185, -0.6433 -1.3724 1.185, -0.6355 -1.3833 1.185, -0.6305 -1.3957 1.185, -0.3223 -1.3125 1.185, -0.3193 -1.3201 1.185, -0.3165 -1.2916 1.185, -0.3463 -1.2916 1.185, -0.3463 -1.2942 1.185, -0.3383 -1.2971 1.185, -0.3463 -1.3697 1.185, -0.3463 -1.3724 1.185, -0.3383 -1.3665 1.185, -0.3165 -1.3724 1.185, -0.33 -1.3606 1.185, -0.3241 -1.3536 1.185, -0.318 -1.331 1.185, -0.3183 -1.336 1.185, -0.3202 -1.3453 1.185, -0.33 -1.3028 1.185, -0.3272 -1.3055 1.185, -0.3902 -1.2916 1.185, -0.36 -1.2923 1.185, -0.3479 -1.2936 1.185, -0.3474 -1.3701 1.185, -0.3608 -1.3717 1.185, -0.3902 -1.3724 1.185, -0.3827 -1.3717 1.185, -0.3827 -1.2923 1.185, -0.3307 -1.462 1.185, -0.3307 -1.4887 1.185, -0.3165 -1.462 1.185, -0.3165 -1.4887 1.185, -0.3023 -1.462 1.185, -0.3023 -1.4529 1.185, -0.3165 -1.4529 1.185, -0.3165 -1.4274 1.185, -0.3307 -1.4529 1.185, -0.3307 -1.4274 1.185, -0.4087 -1.2916 1.185, -0.3995 -1.2923 1.185, -0.4087 -1.2923 1.185, -0.4302 -1.3359 1.185, -0.4302 -1.3627 1.185, -0.4087 -1.3359 1.185, -0.4087 -1.3627 1.185, -0.4018 -1.3359 1.185, -0.3977 -1.3627 1.185, -0.4018 -1.3268 1.185, -0.3995 -1.3014 1.185, -0.4087 -1.3268 1.185, -0.4087 -1.3014 1.185, -0.4302 -1.3268 1.185, -0.4302 -1.3014 1.185, -0.3977 -1.3717 1.185, -0.4087 -1.3724 1.185, -0.4087 -1.3717 1.185, -0.4404 -1.3717 1.185, -0.4404 -1.2923 1.185, 0.0862 -1.6526 1.185, 0.0862 -1.5299 1.185, -0.2163 -1.6526 1.185, -0.2163 -1.5299 1.185, -0.2303 -1.6526 1.185, -0.2303 -1.5299 1.185, -0.3165 -1.6526 1.185, -0.3165 -1.5299 1.185, -0.3463 -1.6526 1.185, -0.3902 -1.6526 1.185, -0.4087 -1.6526 1.185, -0.453 -1.6526 1.185, -0.4597 -1.6526 1.185, -0.517 -1.6526 1.185, -0.5186 -1.6526 1.185, -0.5186 -1.5299 1.185, -0.485 -1.4984 1.185, 0.0862 -1.4984 1.185, -0.2028 -1.4977 1.185, -0.2141 -1.4977 1.185, -0.154 -1.4977 1.185, -0.1621 -1.476 1.185, -0.1952 -1.476 1.185, -0.1839 -1.4183 1.185, -0.1729 -1.4183 1.185, -0.5186 -1.3724 1.185, -0.2163 -1.3724 1.185, -0.519 -1.3627 1.185, -0.519 -1.3717 1.185, -0.5609 -1.3717 1.185, -0.5507 -1.2923 1.185, -0.5186 -1.2916 1.185, -0.5609 -1.2923 1.185, -0.5507 -1.3627 1.185, -0.3023 -1.3717 1.185, -0.3136 -1.3717 1.185, -0.2724 -1.2923 1.185, -0.2421 -1.3717 1.185, -0.2535 -1.3717 1.185, -0.2616 -1.35 1.185, -0.2946 -1.35 1.185, -0.3409 -1.4977 1.185, -0.3165 -1.4977 1.185, -0.2163 -1.2916 1.185, -0.2303 -1.2916 1.185, -0.2833 -1.2923 1.185, -0.1426 -1.4977 1.185, 0.0862 -1.3957 1.185, 0.0862 -1.3724 1.185, 0.0862 -1.2916 1.185, -0.5186 -0.793 1.185, -0.453 -0.793 1.185, -0.4087 -0.793 1.185, -0.3902 -0.793 1.185, -0.3463 -0.793 1.185, 1.3544 -1.3724 1.185, 1.3311 -1.3957 1.185, 1.2283 -1.4984 1.185, 1.1969 -1.5299 1.185, 1.0741 -1.6526 1.185, -0.3463 0.4324 1.185, -0.3902 0.4324 1.185, -0.4087 0.4324 1.185, -0.453 0.4324 1.185, -0.4597 0.4324 1.185, -0.517 0.4324 1.185, 1.0741 1.6526 1.185, 0.0862 1.6526 1.185, -0.2163 1.6526 1.185, -0.2303 1.6526 1.185, -0.3165 1.6526 1.185, -0.3463 1.6526 1.185, -0.3902 1.6526 1.185, -0.4087 1.6526 1.185, -0.453 1.6526 1.185, -0.4597 1.6526 1.185, -0.517 1.6526 1.185, -1.0741 -1.6526 0.0039, -1.1271 -1.5996 0.0039, -1.0827 -1.5551 0.0039, 1.0827 -1.5551 0.0039, 1.1271 -1.5996 0.0039, 1.0741 -1.6526 0.0039, 1.6526 -1.0741 0.0039, 1.5996 -1.1271 0.0039, 1.5551 -1.0827 0.0039, 1.0741 1.6526 0.0039, 1.1271 1.5996 0.0039, 1.0827 1.5551 0.0039, 1.5551 1.0827 0.0039, 1.5996 1.1271 0.0039, 1.6526 1.0741 0.0039, -1.0741 1.6526 0.0039, -1.5996 -1.1271 0.0039, -1.6526 -1.0741 0.0039, -1.5551 -1.0827 0.0039, -1.6526 1.0741 0.0039, -1.5551 1.0827 0.0039, -1.5996 1.1271 0.0039, -1.1271 1.5996 0.0039, -1.0827 1.5551 0.0039, -1.1291 1.6015 0.0827, -1.6015 1.1291 0.0827, -1.6732 1.0827 0.5945, -1.0827 1.6732 0.5945, 1.1291 -1.6015 0.0827, 1.6015 -1.1291 0.0827, 1.6732 -1.0827 0.5945, 1.0827 -1.6732 0.5945, -1.6732 -1.0827 0.5945, 1.0827 1.6732 0.5945, 1.6015 1.1291 0.0827, 1.1291 1.6015 0.0827, 1.6732 1.0827 0.5945, -1.0827 -1.6732 0.5945, -1.6015 -1.1291 0.0827, -1.1291 -1.6015 0.0827, 0.315 -0.0 0.5945, 0.3042 0.0815 0.5945, 0.2728 0.1575 0.5945, 0.2227 0.2227 0.5945, 0.1575 0.2728 0.5945, 0.0815 0.3042 0.5945, 0.0 0.315 0.5945, -0.0815 0.3042 0.5945, -0.1575 0.2728 0.5945, -0.2227 0.2227 0.5945, -0.2728 0.1575 0.5945, -0.3042 0.0815 0.5945, -0.315 0.0 0.5945, -0.3042 -0.0815 0.5945, -0.2728 -0.1575 0.5945, -0.2227 -0.2227 0.5945, -0.1575 -0.2728 0.5945, -0.0815 -0.3042 0.5945, 0.0 -0.315 0.5945, 0.0815 -0.3042 0.5945, 0.1575 -0.2728 0.5945, 0.2227 -0.2227 0.5945, 0.2728 -0.1575 0.5945, 0.3042 -0.0815 0.5945, 0.0 0.0 0.5945, -0.5483 0.9309 1.2047, -0.5513 0.8832 1.2047, -0.575 0.7906 1.2047, -0.621 0.7069 1.2047, -0.6864 0.6373 1.2047, -0.7671 0.5861 1.2047, -0.8579 0.5566 1.2047, -0.9533 0.5506 1.2047, -1.0471 0.5685 1.2047, -1.1336 0.6092 1.2047, -1.2072 0.6701 1.2047, -1.2633 0.7473 1.2047, -1.2985 0.8362 1.2047, -1.3104 0.9309 1.2047, -1.2985 1.0257 1.2047, -1.2633 1.1145 1.2047, -1.2072 1.1918 1.2047, -1.1336 1.2527 1.2047, -1.0471 1.2934 1.2047, -0.9533 1.3113 1.2047, -0.8579 1.3053 1.2047, -0.7671 1.2758 1.2047, -0.6864 1.2246 1.2047, -0.621 1.1549 1.2047, -0.575 1.0712 1.2047, -0.5513 0.9787 1.2047, -0.899 0.9185 1.2047, -0.899 0.5959 1.2047, -0.9566 0.5959 1.2047, -0.9566 0.9646 1.2047, -1.2217 0.9646 1.2047, -1.2217 0.9185 1.2047, -0.9566 1.1893 1.2047, -0.899 1.1893 1.2047, -0.899 0.9646 1.2047, -0.634 0.9185 1.2047, -0.9566 0.9185 1.2047, -0.634 0.9646 1.2047, -0.899 1.1893 1.2244, -0.9566 1.1893 1.2244, -0.899 0.9646 1.2244, -0.9566 0.9646 1.2244, -0.9566 0.5959 1.2244, -0.899 0.5959 1.2244, -0.9566 0.9185 1.2244, -0.899 0.9185 1.2244, -0.634 0.9185 1.2244, -0.634 0.9646 1.2244, -1.2217 0.9185 1.2244, -1.2217 0.9646 1.2244
            ]
        }
        coordIndex [
            0,1,2,-1,3,4,5,-1,6,7,8,-1,9,10,11,-1,12,13,14,-1,15,16,17,-1,18,19,20,-1,21,22,20,-1,20,22,23,-1,20,23,18,-1,24,25,26,-1,26,27,28,-1,29,30,31,-1,31,30,32,-1,31,32,33,-1,28,33,26,-1,26,33,32,-1,26,32,24,-1,24,32,34,-1,19,18,35,-1,35,18,36,-1,35,36,37,-1,38,39,40,-1,40,39,41,-1,40,41,42,-1,42,43,40,-1,40,43,44,-1,40,44,45,-1,45,46,40,-1,40,46,47,-1,40,47,48,-1,48,49,40,-1,40,49,50,-1,40,50,51,-1,51,50,52,-1,52,50,53,-1,53,50,54,-1,53,54,55,-1,55,56,53,-1,53,56,57,-1,53,57,58,-1,58,57,59,-1,38,40,60,-1,60,40,61,-1,60,61,62,-1,62,61,63,-1,62,63,64,-1,65,66,67,-1,67,66,68,-1,67,68,64,-1,64,68,69,-1,64,69,62,-1,70,71,72,-1,72,71,73,-1,74,75,76,-1,77,78,76,-1,76,78,79,-1,80,81,82,-1,81,83,82,-1,82,83,84,-1,82,84,85,-1,79,86,76,-1,76,86,87,-1,76,87,74,-1,85,88,82,-1,82,88,89,-1,82,89,90,-1,91,34,92,-1,92,34,93,-1,92,93,94,-1,61,95,63,-1,63,95,96,-1,63,96,97,-1,97,96,98,-1,97,98,99,-1,100,101,102,-1,102,101,103,-1,104,105,106,-1,102,17,100,-1,100,17,16,-1,100,16,107,-1,107,16,104,-1,107,104,108,-1,108,104,106,-1,109,110,5,-1,5,110,111,-1,112,110,113,-1,113,110,109,-1,113,109,114,-1,115,116,117,-1,118,119,109,-1,109,119,120,-1,109,120,114,-1,121,122,123,-1,123,122,124,-1,123,124,115,-1,115,124,125,-1,115,125,116,-1,126,127,109,-1,109,127,128,-1,109,128,118,-1,129,130,131,-1,129,131,132,-1,130,133,131,-1,131,133,134,-1,131,134,123,-1,123,134,135,-1,123,135,121,-1,136,137,138,-1,139,140,141,-1,136,138,142,-1,141,140,143,-1,144,145,146,-1,147,148,149,-1,149,148,150,-1,149,150,141,-1,141,150,151,-1,141,151,139,-1,140,152,143,-1,143,152,153,-1,143,153,154,-1,137,155,138,-1,138,155,156,-1,138,156,144,-1,144,156,157,-1,144,157,145,-1,146,158,144,-1,144,158,159,-1,144,159,149,-1,149,159,160,-1,149,160,147,-1,154,161,143,-1,143,161,162,-1,143,162,163,-1,163,162,164,-1,165,166,167,-1,167,166,168,-1,167,168,138,-1,138,168,169,-1,138,169,142,-1,12,14,170,-1,171,172,173,-1,173,172,174,-1,171,175,172,-1,172,175,176,-1,172,176,177,-1,177,176,178,-1,177,178,179,-1,180,181,182,-1,180,182,11,-1,11,182,183,-1,11,183,9,-1,184,185,180,-1,180,185,186,-1,180,186,181,-1,187,188,189,-1,189,188,190,-1,189,190,184,-1,184,190,191,-1,184,191,185,-1,8,7,192,-1,7,193,192,-1,192,193,194,-1,192,194,195,-1,195,194,196,-1,195,196,197,-1,13,198,14,-1,14,198,199,-1,14,199,8,-1,8,199,200,-1,8,200,6,-1,201,11,172,-1,172,11,10,-1,172,10,174,-1,179,170,177,-1,177,170,14,-1,177,14,202,-1,202,14,203,-1,204,205,206,-1,206,205,207,-1,206,207,208,-1,207,209,208,-1,208,209,210,-1,208,210,211,-1,211,210,212,-1,211,212,213,-1,214,215,216,-1,214,216,217,-1,213,218,211,-1,211,218,219,-1,211,219,216,-1,216,219,220,-1,216,220,217,-1,217,220,221,-1,215,222,216,-1,216,222,223,-1,216,223,224,-1,224,223,225,-1,225,226,224,-1,224,226,227,-1,224,227,228,-1,227,229,228,-1,228,229,230,-1,228,230,231,-1,231,230,232,-1,231,232,233,-1,234,235,236,-1,236,235,237,-1,236,237,238,-1,233,239,231,-1,231,239,240,-1,231,240,241,-1,242,243,244,-1,244,243,245,-1,246,247,231,-1,245,243,248,-1,248,243,246,-1,248,246,249,-1,249,246,231,-1,249,231,234,-1,234,231,241,-1,234,241,235,-1,250,251,252,-1,252,251,253,-1,252,253,254,-1,255,256,257,-1,255,257,258,-1,256,259,257,-1,257,259,260,-1,257,260,253,-1,253,260,261,-1,253,261,254,-1,262,263,264,-1,264,263,265,-1,266,267,1,-1,267,268,1,-1,1,268,269,-1,1,269,258,-1,270,271,0,-1,0,271,265,-1,0,265,1,-1,1,265,263,-1,1,263,266,-1,272,251,273,-1,250,274,251,-1,251,274,275,-1,251,275,276,-1,276,277,251,-1,251,277,262,-1,251,262,273,-1,273,262,278,-1,279,280,281,-1,281,280,282,-1,283,284,285,-1,15,17,111,-1,111,17,285,-1,111,285,5,-1,5,285,284,-1,5,284,286,-1,287,288,5,-1,5,288,289,-1,290,291,286,-1,286,291,292,-1,286,292,5,-1,5,292,293,-1,5,293,287,-1,294,295,296,-1,295,297,296,-1,296,297,298,-1,296,298,299,-1,299,298,300,-1,300,301,299,-1,299,301,302,-1,299,302,303,-1,289,304,5,-1,5,304,305,-1,5,305,3,-1,303,306,299,-1,299,306,307,-1,299,307,285,-1,285,307,308,-1,285,308,283,-1,309,310,311,-1,311,310,312,-1,311,312,296,-1,296,312,313,-1,296,313,294,-1,314,315,316,-1,316,315,317,-1,316,317,318,-1,316,319,314,-1,314,319,320,-1,314,320,321,-1,309,322,310,-1,310,322,323,-1,310,323,324,-1,324,323,325,-1,324,326,327,-1,321,328,314,-1,314,328,329,-1,314,329,330,-1,330,329,331,-1,330,331,332,-1,332,331,333,-1,332,333,286,-1,286,333,334,-1,286,334,290,-1,325,335,324,-1,324,335,336,-1,324,336,337,-1,338,339,318,-1,318,339,340,-1,318,340,316,-1,337,341,324,-1,324,341,342,-1,324,342,326,-1,327,343,324,-1,324,343,344,-1,324,344,345,-1,346,347,4,-1,4,347,115,-1,4,115,5,-1,5,115,117,-1,5,117,109,-1,109,117,348,-1,109,348,126,-1,36,349,350,-1,32,37,34,-1,34,37,36,-1,34,36,351,-1,351,36,352,-1,353,354,355,-1,355,354,356,-1,350,357,36,-1,36,357,358,-1,36,358,359,-1,360,361,93,-1,356,362,363,-1,360,93,364,-1,359,365,36,-1,36,365,366,-1,36,366,367,-1,363,368,356,-1,356,368,369,-1,356,369,370,-1,367,371,36,-1,36,371,372,-1,36,372,352,-1,352,372,373,-1,352,373,374,-1,374,375,352,-1,352,375,376,-1,352,376,377,-1,377,376,378,-1,379,380,378,-1,378,380,381,-1,378,381,377,-1,351,382,34,-1,34,382,383,-1,34,383,93,-1,93,383,384,-1,93,384,364,-1,361,385,93,-1,93,385,386,-1,93,386,387,-1,388,389,378,-1,378,389,390,-1,378,390,391,-1,391,392,378,-1,378,392,393,-1,378,393,379,-1,394,395,396,-1,396,395,397,-1,398,399,400,-1,400,399,401,-1,402,403,400,-1,400,403,404,-1,400,404,405,-1,405,406,400,-1,400,406,407,-1,400,407,398,-1,408,409,410,-1,409,411,410,-1,410,411,412,-1,410,412,413,-1,414,415,22,-1,416,417,418,-1,419,420,421,-1,421,420,422,-1,416,418,423,-1,424,425,23,-1,426,427,420,-1,420,427,428,-1,420,428,429,-1,22,415,23,-1,23,415,430,-1,23,430,424,-1,417,431,418,-1,418,431,432,-1,418,432,433,-1,434,435,436,-1,436,435,437,-1,436,437,438,-1,439,429,440,-1,440,429,441,-1,440,441,436,-1,436,441,442,-1,436,442,434,-1,439,443,429,-1,429,443,444,-1,429,444,420,-1,420,444,445,-1,420,445,422,-1,425,446,23,-1,23,446,447,-1,23,447,448,-1,449,450,451,-1,451,450,452,-1,451,452,418,-1,418,452,453,-1,418,453,423,-1,454,455,418,-1,418,455,456,-1,418,456,420,-1,420,456,457,-1,420,457,426,-1,458,459,408,-1,459,460,408,-1,408,460,461,-1,408,461,462,-1,462,463,408,-1,408,463,464,-1,408,464,465,-1,465,464,449,-1,465,449,466,-1,466,449,451,-1,433,467,418,-1,418,467,468,-1,418,468,469,-1,469,470,418,-1,418,470,471,-1,418,471,454,-1,472,473,474,-1,474,429,472,-1,472,429,428,-1,472,428,475,-1,475,428,476,-1,476,477,475,-1,475,477,478,-1,475,478,479,-1,480,481,482,-1,481,483,482,-1,482,483,484,-1,482,484,485,-1,486,482,487,-1,473,472,486,-1,486,472,488,-1,486,488,482,-1,482,488,489,-1,482,489,480,-1,487,490,486,-1,486,490,491,-1,486,491,492,-1,485,484,493,-1,493,484,494,-1,493,494,495,-1,495,494,496,-1,495,496,497,-1,498,499,492,-1,492,499,500,-1,492,500,486,-1,399,501,401,-1,401,501,502,-1,401,502,22,-1,22,502,503,-1,22,503,414,-1,504,505,506,-1,507,508,506,-1,506,508,509,-1,510,511,512,-1,512,511,513,-1,512,513,514,-1,514,513,515,-1,516,517,513,-1,513,517,518,-1,513,518,515,-1,509,519,506,-1,506,519,520,-1,506,520,504,-1,521,522,507,-1,507,522,523,-1,507,523,508,-1,510,524,511,-1,511,524,525,-1,511,525,526,-1,526,525,527,-1,526,527,521,-1,521,527,528,-1,521,528,522,-1,529,530,531,-1,531,530,532,-1,531,532,533,-1,532,278,533,-1,533,278,262,-1,533,262,534,-1,534,262,264,-1,534,264,535,-1,535,264,536,-1,535,536,537,-1,537,536,538,-1,521,539,540,-1,540,539,541,-1,542,543,544,-1,544,543,545,-1,544,545,546,-1,546,545,547,-1,546,547,548,-1,548,547,549,-1,548,549,550,-1,550,549,551,-1,550,551,552,-1,552,551,553,-1,540,549,521,-1,521,549,547,-1,521,547,526,-1,526,547,554,-1,526,554,555,-1,555,554,556,-1,555,556,557,-1,541,539,558,-1,558,539,64,-1,558,64,557,-1,557,64,63,-1,557,63,555,-1,559,560,561,-1,561,560,562,-1,561,562,563,-1,563,562,564,-1,563,564,565,-1,565,564,566,-1,565,566,567,-1,567,566,131,-1,567,131,568,-1,568,131,123,-1,568,123,569,-1,569,123,115,-1,569,115,570,-1,570,115,347,-1,570,347,571,-1,571,347,397,-1,571,397,572,-1,572,397,395,-1,572,395,573,-1,573,395,574,-1,573,574,206,-1,206,574,410,-1,206,410,204,-1,204,410,413,-1,394,349,395,-1,395,349,36,-1,395,36,574,-1,574,36,18,-1,574,18,410,-1,410,18,23,-1,410,23,408,-1,408,23,448,-1,408,448,458,-1,346,282,347,-1,347,282,280,-1,347,280,397,-1,397,280,355,-1,397,355,396,-1,396,355,356,-1,396,356,575,-1,575,356,370,-1,560,576,562,-1,562,576,253,-1,562,253,564,-1,564,253,251,-1,564,251,566,-1,566,251,272,-1,566,272,131,-1,131,272,103,-1,131,103,132,-1,132,103,101,-1,279,296,280,-1,280,296,299,-1,280,299,355,-1,355,299,93,-1,355,93,353,-1,353,93,387,-1,577,578,253,-1,579,580,581,-1,253,578,257,-1,257,578,582,-1,257,582,583,-1,91,77,34,-1,34,77,76,-1,34,76,24,-1,24,76,584,-1,99,94,97,-1,97,94,93,-1,97,93,63,-1,63,93,299,-1,63,299,555,-1,555,299,285,-1,555,285,526,-1,526,285,17,-1,526,17,511,-1,511,17,102,-1,511,102,513,-1,258,257,1,-1,1,257,585,-1,1,585,2,-1,586,587,584,-1,584,587,588,-1,589,590,591,-1,591,590,400,-1,591,400,588,-1,588,400,401,-1,588,401,584,-1,584,401,22,-1,584,22,24,-1,24,22,21,-1,24,21,25,-1,75,80,76,-1,76,80,82,-1,76,82,584,-1,584,82,590,-1,584,590,586,-1,586,590,589,-1,586,589,592,-1,593,594,513,-1,513,594,506,-1,513,506,516,-1,516,506,505,-1,595,596,2,-1,2,596,597,-1,598,599,597,-1,597,599,593,-1,597,593,2,-1,2,593,513,-1,2,513,0,-1,0,513,102,-1,0,102,270,-1,270,102,103,-1,270,103,600,-1,600,103,272,-1,600,272,601,-1,601,272,273,-1,585,602,2,-1,2,602,603,-1,2,603,595,-1,595,603,506,-1,595,506,604,-1,604,506,594,-1,581,577,579,-1,579,577,253,-1,579,253,605,-1,605,253,576,-1,605,576,583,-1,583,576,606,-1,583,606,257,-1,257,606,607,-1,257,607,585,-1,585,607,608,-1,585,608,602,-1,90,72,82,-1,82,72,73,-1,82,73,590,-1,590,73,609,-1,590,609,400,-1,400,609,243,-1,400,243,402,-1,402,243,242,-1,70,65,71,-1,71,65,67,-1,71,67,610,-1,610,67,64,-1,610,64,611,-1,611,64,539,-1,611,539,612,-1,612,539,521,-1,612,521,613,-1,613,521,507,-1,613,507,195,-1,195,507,506,-1,195,506,192,-1,192,506,603,-1,192,603,8,-1,8,603,602,-1,8,602,14,-1,14,602,608,-1,14,608,203,-1,203,608,607,-1,203,607,614,-1,614,607,606,-1,614,606,615,-1,615,606,576,-1,615,576,616,-1,616,576,560,-1,616,560,617,-1,617,560,559,-1,617,559,618,-1,197,187,195,-1,195,187,189,-1,195,189,613,-1,613,189,619,-1,613,619,612,-1,612,619,620,-1,612,620,611,-1,611,620,621,-1,611,621,610,-1,610,621,622,-1,610,622,71,-1,71,622,623,-1,71,623,73,-1,73,623,624,-1,73,624,609,-1,609,624,167,-1,609,167,243,-1,243,167,138,-1,243,138,246,-1,246,138,144,-1,201,625,11,-1,11,625,626,-1,11,626,180,-1,180,626,627,-1,180,627,184,-1,184,627,628,-1,184,628,189,-1,189,628,629,-1,189,629,619,-1,619,629,630,-1,619,630,620,-1,620,630,631,-1,620,631,621,-1,621,631,632,-1,621,632,622,-1,622,632,633,-1,622,633,623,-1,623,633,634,-1,623,634,624,-1,624,634,635,-1,624,635,167,-1,167,635,163,-1,167,163,165,-1,165,163,164,-1,636,637,638,-1,639,640,641,-1,642,643,644,-1,645,646,647,-1,648,649,650,-1,645,647,651,-1,652,653,654,-1,654,653,655,-1,641,636,639,-1,639,636,638,-1,639,638,644,-1,644,638,654,-1,644,654,656,-1,656,654,655,-1,656,655,657,-1,658,651,659,-1,659,651,647,-1,659,647,656,-1,656,647,648,-1,656,648,644,-1,644,648,650,-1,644,650,642,-1,651,658,660,-1,657,655,661,-1,661,655,662,-1,661,662,660,-1,660,662,663,-1,660,663,651,-1,641,640,664,-1,643,642,665,-1,665,642,666,-1,665,666,664,-1,664,666,667,-1,664,667,641,-1,655,653,662,-1,662,653,668,-1,645,651,669,-1,669,651,663,-1,650,649,670,-1,646,645,671,-1,671,645,669,-1,671,669,670,-1,670,669,672,-1,670,672,650,-1,642,650,666,-1,666,650,672,-1,636,641,673,-1,673,641,667,-1,653,652,674,-1,637,636,675,-1,675,636,673,-1,675,673,674,-1,674,673,668,-1,674,668,653,-1,247,149,668,-1,668,149,662,-1,208,247,673,-1,673,247,668,-1,618,208,667,-1,667,208,673,-1,202,618,666,-1,666,618,667,-1,201,202,672,-1,672,202,666,-1,625,201,669,-1,669,201,672,-1,141,625,663,-1,663,625,669,-1,149,141,662,-1,662,141,663,-1,676,176,677,-1,677,176,175,-1,677,175,678,-1,678,175,171,-1,678,171,679,-1,679,171,173,-1,679,173,680,-1,680,173,174,-1,680,174,681,-1,681,174,9,-1,681,9,682,-1,682,9,183,-1,682,183,683,-1,683,183,182,-1,683,182,684,-1,684,182,181,-1,684,181,685,-1,685,181,185,-1,685,185,686,-1,686,185,190,-1,686,190,687,-1,687,190,188,-1,687,188,688,-1,688,188,187,-1,688,187,689,-1,689,187,197,-1,689,197,690,-1,690,197,196,-1,690,196,691,-1,691,196,193,-1,691,193,692,-1,692,193,6,-1,692,6,693,-1,693,6,200,-1,693,200,694,-1,694,200,199,-1,694,199,695,-1,695,199,198,-1,695,198,696,-1,696,198,12,-1,696,12,697,-1,697,12,170,-1,697,170,698,-1,698,170,179,-1,698,179,699,-1,699,179,178,-1,699,178,676,-1,676,178,176,-1,698,699,700,-1,700,699,676,-1,700,676,677,-1,695,696,700,-1,700,696,697,-1,700,697,698,-1,692,693,700,-1,700,693,694,-1,700,694,695,-1,689,690,700,-1,700,690,691,-1,700,691,692,-1,686,687,700,-1,700,687,688,-1,700,688,689,-1,683,684,700,-1,700,684,685,-1,700,685,686,-1,680,681,700,-1,700,681,682,-1,700,682,683,-1,677,678,700,-1,700,678,679,-1,700,679,680,-1,701,702,166,-1,166,702,703,-1,166,703,168,-1,168,703,704,-1,168,704,142,-1,142,704,705,-1,142,705,136,-1,136,705,706,-1,136,706,137,-1,137,706,707,-1,137,707,155,-1,155,707,708,-1,155,708,156,-1,156,708,709,-1,156,709,157,-1,157,709,710,-1,157,710,145,-1,145,710,711,-1,145,711,146,-1,146,711,712,-1,146,712,158,-1,158,712,713,-1,158,713,159,-1,159,713,714,-1,159,714,160,-1,160,714,715,-1,160,715,147,-1,147,715,716,-1,147,716,148,-1,148,716,717,-1,148,717,150,-1,150,717,718,-1,150,718,151,-1,151,718,719,-1,151,719,139,-1,139,719,720,-1,139,720,140,-1,140,720,721,-1,140,721,152,-1,152,721,722,-1,152,722,153,-1,153,722,723,-1,153,723,154,-1,154,723,724,-1,154,724,161,-1,161,724,725,-1,161,725,164,-1,164,725,726,-1,164,726,165,-1,165,726,701,-1,165,701,166,-1,706,727,707,-1,707,727,728,-1,707,728,708,-1,708,728,729,-1,718,717,730,-1,730,717,716,-1,730,716,731,-1,731,716,715,-1,731,715,732,-1,718,730,719,-1,719,730,733,-1,719,733,720,-1,720,733,734,-1,720,734,721,-1,735,723,734,-1,734,723,722,-1,734,722,721,-1,706,705,727,-1,727,705,704,-1,727,704,736,-1,736,704,703,-1,736,703,702,-1,715,714,732,-1,732,714,713,-1,732,713,737,-1,737,713,712,-1,712,711,737,-1,737,711,710,-1,737,710,729,-1,729,710,709,-1,729,709,708,-1,702,701,736,-1,736,701,726,-1,736,726,738,-1,738,726,725,-1,738,725,735,-1,735,725,724,-1,735,724,723,-1,739,740,741,-1,741,740,742,-1,743,744,745,-1,745,744,746,-1,747,748,746,-1,746,748,741,-1,746,741,745,-1,745,741,742,-1,745,742,749,-1,749,742,750,-1,750,742,731,-1,731,742,730,-1,742,740,730,-1,730,740,733,-1,740,739,733,-1,733,739,734,-1,739,741,734,-1,734,741,735,-1,741,748,735,-1,735,748,738,-1,748,747,738,-1,738,747,736,-1,747,746,736,-1,736,746,727,-1,746,744,727,-1,727,744,728,-1,744,743,728,-1,728,743,729,-1,743,745,729,-1,729,745,737,-1,745,749,737,-1,737,749,732,-1,749,750,732,-1,732,750,731,-1,
        ]
    }
}
Shape{
    appearance Appearance {
        material  Material 	{
            diffuseColor 0.6666666666666666 0.6666666666666666 0.6666666666666666
            specularColor 0.4666666666666667 0.4666666666666667 0.4666666666666667
            ambientIntensity 0.6667
            transparency 0.0
            shininess 0.5
        }
    }
    geometry IndexedFaceSet {
        ccw TRUE
        solid FALSE
        coord DEF co Coordinate {
            point [
                -1.2008 -1.6732 0.0, -1.2008 -1.6732 0.0827, -1.6732 -1.6732 0.0, -1.6732 -1.6732 0.0827, -1.0827 -1.5551 0.0, -1.0827 -1.5551 0.0039, -1.1271 -1.5996 0.0039, -1.1291 -1.6015 0.0827, -1.5551 -1.0827 0.0039, -1.5551 -1.0827 0.0, -1.5996 -1.1271 0.0039, -1.6732 -1.2008 0.0, -1.6015 -1.1291 0.0827, -1.6732 -1.2008 0.0827, 1.6732 -1.6732 0.0, 1.6732 -1.6732 0.0827, 1.2008 -1.6732 0.0, 1.2008 -1.6732 0.0827, 1.6732 -1.2008 0.0, 1.6732 -1.2008 0.0827, 1.5551 -1.0827 0.0, 1.5551 -1.0827 0.0039, 1.5996 -1.1271 0.0039, 1.6015 -1.1291 0.0827, 1.0827 -1.5551 0.0, 1.0827 -1.5551 0.0039, 1.1271 -1.5996 0.0039, 1.1291 -1.6015 0.0827, 1.0827 1.5551 0.0, 1.0827 1.5551 0.0039, 1.1271 1.5996 0.0039, 1.1291 1.6015 0.0827, 1.2008 1.6732 0.0827, 1.2008 1.6732 0.0, 1.5551 1.0827 0.0039, 1.5551 1.0827 0.0, 1.5996 1.1271 0.0039, 1.6732 1.2008 0.0, 1.6015 1.1291 0.0827, 1.6732 1.2008 0.0827, -1.6732 1.6732 0.0, -1.6732 1.6732 0.0827, -1.2008 1.6732 0.0, -1.2008 1.6732 0.0827, -1.6732 1.2008 0.0, -1.6732 1.2008 0.0827, -1.5551 1.0827 0.0, -1.5551 1.0827 0.0039, -1.5996 1.1271 0.0039, -1.6015 1.1291 0.0827, -1.0827 1.5551 0.0, -1.0827 1.5551 0.0039, -1.1271 1.5996 0.0039, -1.1291 1.6015 0.0827
            ]
        }
        coordIndex [
            0,1,2,-1,2,1,3,-1,4,5,6,-1,7,1,6,-1,6,1,0,-1,6,0,4,-1,5,4,8,-1,8,4,9,-1,8,9,10,-1,10,9,11,-1,10,11,12,-1,12,11,13,-1,2,3,11,-1,11,3,13,-1,13,3,12,-1,12,3,1,-1,12,1,7,-1,2,11,0,-1,0,11,9,-1,0,9,4,-1,14,15,16,-1,16,15,17,-1,18,19,14,-1,14,19,15,-1,20,21,22,-1,23,19,22,-1,22,19,18,-1,22,18,20,-1,20,24,21,-1,21,24,25,-1,25,24,26,-1,26,24,16,-1,26,16,27,-1,27,16,17,-1,15,19,17,-1,17,19,23,-1,17,23,27,-1,18,14,20,-1,20,14,16,-1,20,16,24,-1,28,29,30,-1,31,32,30,-1,30,32,33,-1,30,33,28,-1,29,28,34,-1,34,28,35,-1,34,35,36,-1,36,35,37,-1,36,37,38,-1,38,37,39,-1,32,31,39,-1,39,31,38,-1,35,28,37,-1,37,28,33,-1,40,41,42,-1,42,41,43,-1,44,45,40,-1,40,45,41,-1,46,47,48,-1,49,45,48,-1,48,45,44,-1,48,44,46,-1,46,50,47,-1,47,50,51,-1,51,50,52,-1,52,50,42,-1,52,42,53,-1,53,42,43,-1,41,45,43,-1,43,45,49,-1,43,49,53,-1,44,40,46,-1,46,40,42,-1,46,42,50,-1,37,33,39,-1,39,33,32,-1,
        ]
    }
}
Shape{
    appearance Appearance {
        material  Material 	{
            diffuseColor 1.0 1.0 1.0
            specularColor 0.5019607843137255 0.5019607843137255 0.5019607843137255
            ambientIntensity 1.0
            transparency 0.0
            shininess 0.5
        }
    }
    geometry IndexedFaceSet {
        ccw TRUE
        solid FALSE
        coord DEF co Coordinate {
            point [
                -0.2305 -1.4866 1.189, -0.2387 -1.4813 1.189, -0.2388 -1.4926 1.189, -0.2439 -1.4848 1.189, -0.2479 -1.4961 1.189, -0.2504 -1.4874 1.189, -0.2614 -1.4977 1.189, -0.2614 -1.4887 1.189, -0.2832 -1.4977 1.189, -0.273 -1.4887 1.189, -0.2832 -1.4183 1.189, -0.273 -1.4274 1.189, -0.2605 -1.4183 1.189, -0.261 -1.4274 1.189, -0.2602 -1.4274 1.189, -0.2484 -1.4196 1.189, -0.25 -1.4287 1.189, -0.2388 -1.4231 1.189, -0.2433 -1.4313 1.189, -0.2305 -1.4288 1.189, -0.238 -1.4349 1.189, -0.2277 -1.4316 1.189, -0.2358 -1.4371 1.189, -0.2228 -1.4385 1.189, -0.2327 -1.4416 1.189, -0.2198 -1.4461 1.189, -0.2305 -1.4474 1.189, -0.2185 -1.457 1.189, -0.2293 -1.4573 1.189, -0.2188 -1.4621 1.189, -0.2296 -1.4627 1.189, -0.2207 -1.4714 1.189, -0.2312 -1.4699 1.189, -0.2246 -1.4796 1.189, -0.234 -1.4757 1.189, -0.2378 -1.4804 1.189, -0.2305 -1.4866 1.185, -0.2303 -1.4864 1.185, -0.2246 -1.4796 1.185, -0.2207 -1.4714 1.185, -0.2188 -1.4621 1.185, -0.2185 -1.457 1.185, -0.2305 -1.4288 1.185, -0.2303 -1.429 1.185, -0.2277 -1.4316 1.185, -0.2228 -1.4385 1.185, -0.2198 -1.4461 1.185, -0.2388 -1.4231 1.185, -0.2484 -1.4196 1.185, -0.2605 -1.4183 1.185, -0.2832 -1.4183 1.185, -0.2832 -1.4977 1.185, -0.2614 -1.4977 1.185, -0.2479 -1.4961 1.185, -0.2388 -1.4926 1.185, -0.238 -1.4349 1.185, -0.2358 -1.4371 1.185, -0.2327 -1.4416 1.185, -0.2305 -1.4474 1.185, -0.2293 -1.4573 1.185, -0.261 -1.4274 1.185, -0.2602 -1.4274 1.185, -0.25 -1.4287 1.185, -0.2433 -1.4313 1.185, -0.273 -1.4274 1.185, -0.273 -1.4887 1.185, -0.2614 -1.4887 1.185, -0.2378 -1.4804 1.185, -0.2387 -1.4813 1.185, -0.2439 -1.4848 1.185, -0.2504 -1.4874 1.185, -0.2296 -1.4627 1.185, -0.2312 -1.4699 1.185, -0.234 -1.4757 1.185
            ]
        }
        coordIndex [
            0,1,2,-1,2,1,3,-1,2,3,4,-1,4,3,5,-1,4,5,6,-1,6,5,7,-1,6,7,8,-1,8,7,9,-1,8,9,10,-1,10,9,11,-1,10,11,12,-1,11,13,12,-1,12,13,14,-1,12,14,15,-1,15,14,16,-1,15,16,17,-1,17,16,18,-1,17,18,19,-1,19,18,20,-1,19,20,21,-1,21,20,22,-1,21,22,23,-1,23,22,24,-1,23,24,25,-1,25,24,26,-1,25,26,27,-1,27,26,28,-1,27,28,29,-1,29,28,30,-1,29,30,31,-1,31,30,32,-1,31,32,33,-1,33,32,34,-1,33,34,0,-1,0,34,35,-1,0,35,1,-1,0,36,37,-1,0,37,33,-1,37,38,33,-1,33,38,39,-1,33,39,31,-1,31,39,40,-1,31,40,29,-1,29,40,41,-1,29,41,27,-1,42,19,43,-1,43,19,21,-1,43,21,44,-1,44,21,23,-1,44,23,45,-1,45,23,25,-1,45,25,46,-1,46,25,27,-1,46,27,41,-1,19,42,47,-1,19,47,17,-1,17,47,48,-1,17,48,15,-1,15,48,49,-1,15,49,12,-1,10,12,50,-1,50,12,49,-1,8,10,51,-1,51,10,50,-1,6,8,52,-1,52,8,51,-1,6,52,53,-1,6,53,4,-1,4,53,54,-1,4,54,2,-1,2,54,36,-1,2,36,0,-1,20,55,56,-1,20,56,22,-1,22,56,57,-1,22,57,24,-1,24,57,58,-1,24,58,26,-1,26,58,59,-1,26,59,28,-1,13,60,61,-1,13,61,14,-1,14,61,62,-1,14,62,16,-1,16,62,63,-1,16,63,18,-1,18,63,55,-1,18,55,20,-1,13,11,60,-1,60,11,64,-1,11,9,64,-1,64,9,65,-1,9,7,65,-1,65,7,66,-1,35,67,68,-1,35,68,1,-1,1,68,69,-1,1,69,3,-1,3,69,70,-1,3,70,5,-1,5,70,66,-1,5,66,7,-1,28,59,71,-1,28,71,30,-1,30,71,72,-1,30,72,32,-1,32,72,73,-1,32,73,34,-1,34,73,67,-1,34,67,35,-1,
        ]
    }
}
Shape{
    appearance Appearance {
        material  Material 	{
            diffuseColor 0.20784313725490197 0.20784313725490197 0.20784313725490197
            specularColor 0.01568627450980392 0.01568627450980392 0.01568627450980392
            ambientIntensity 0.298
            transparency 0.0
            shininess 0.5
        }
    }
    geometry IndexedFaceSet {
        ccw TRUE
        solid FALSE
        coord DEF co Coordinate {
            point [
                -0.2439 -1.4848 1.185, -0.2387 -1.4813 1.185, -0.2602 -1.4274 1.185, -0.273 -1.4274 1.185, -0.273 -1.4887 1.185, -0.261 -1.4274 1.185, -0.2614 -1.4887 1.185, -0.2504 -1.4874 1.185, -0.2378 -1.4804 1.185, -0.234 -1.4757 1.185, -0.2312 -1.4699 1.185, -0.2293 -1.4573 1.185, -0.238 -1.4349 1.185, -0.2433 -1.4313 1.185, -0.2305 -1.4474 1.185, -0.2327 -1.4416 1.185, -0.2358 -1.4371 1.185, -0.2296 -1.4627 1.185, -0.25 -1.4287 1.185
            ]
        }
        coordIndex [
            0,1,2,-1,3,4,5,-1,5,4,6,-1,5,6,2,-1,2,6,7,-1,2,7,0,-1,1,8,2,-1,2,8,9,-1,2,9,10,-1,11,12,13,-1,14,15,11,-1,11,15,16,-1,11,16,12,-1,10,17,2,-1,2,17,11,-1,2,11,18,-1,18,11,13,-1,
        ]
    }
}
Shape{
    appearance Appearance {
        material  Material 	{
            diffuseColor 1.0 1.0 1.0
            specularColor 0.5019607843137255 0.5019607843137255 0.5019607843137255
            ambientIntensity 1.0
            transparency 0.0
            shininess 0.5
        }
    }
    geometry IndexedFaceSet {
        ccw TRUE
        solid FALSE
        coord DEF co Coordinate {
            point [
                -0.3775 -1.4837 1.189, -0.3775 -1.4837 1.185, -0.3782 -1.4864 1.185, -0.3782 -1.4864 1.189, -0.3787 -1.4883 1.185, -0.3787 -1.4883 1.189, -0.379 -1.4883 1.189, -0.379 -1.4883 1.185, -0.3802 -1.4836 1.189, -0.3802 -1.4836 1.185, -0.395 -1.441 1.185, -0.395 -1.441 1.189, -0.3902 -1.4548 1.185, -0.4061 -1.441 1.189, -0.4061 -1.441 1.185, -0.3839 -1.4976 1.185, -0.3839 -1.4976 1.189, -0.3902 -1.4815 1.185, -0.3882 -1.5079 1.185, -0.3882 -1.5079 1.189, -0.3842 -1.4984 1.185, -0.3902 -1.5115 1.185, -0.3902 -1.5115 1.189, -0.3902 -1.5115 1.185, -0.3921 -1.5136 1.185, -0.3921 -1.5136 1.189, -0.3938 -1.5148 1.185, -0.3938 -1.5148 1.189, -0.3959 -1.5156 1.185, -0.3959 -1.5156 1.189, -0.3984 -1.5159 1.185, -0.3984 -1.5159 1.189, -0.402 -1.5155 1.185, -0.402 -1.5155 1.189, -0.4041 -1.5148 1.185, -0.4041 -1.5148 1.189, -0.4041 -1.5236 1.189, -0.4041 -1.5236 1.185, -0.3999 -1.5244 1.185, -0.3999 -1.5244 1.189, -0.3977 -1.5245 1.185, -0.3977 -1.5245 1.189, -0.3936 -1.524 1.185, -0.3936 -1.524 1.189, -0.3902 -1.5227 1.185, -0.3897 -1.5225 1.189, -0.3897 -1.5225 1.185, -0.3862 -1.5201 1.185, -0.3862 -1.5201 1.189, -0.3856 -1.5194 1.185, -0.3856 -1.5194 1.189, -0.3819 -1.5151 1.185, -0.3819 -1.5151 1.189, -0.3774 -1.5063 1.185, -0.3774 -1.5063 1.189, -0.3517 -1.441 1.185, -0.3517 -1.441 1.189, -0.3743 -1.4984 1.185, -0.362 -1.441 1.189, -0.362 -1.441 1.185, -0.4342 -1.4991 1.189, -0.4342 -1.4991 1.185, -0.4253 -1.498 1.189, -0.4285 -1.4984 1.185, -0.4253 -1.498 1.185, -0.4201 -1.496 1.185, -0.4201 -1.496 1.189, -0.4177 -1.4946 1.185, -0.4177 -1.4946 1.189, -0.4149 -1.4921 1.185, -0.4149 -1.4921 1.189, -0.413 -1.4895 1.185, -0.413 -1.4895 1.189, -0.4118 -1.4863 1.185, -0.4118 -1.4863 1.189, -0.4113 -1.4823 1.185, -0.4113 -1.4823 1.189, -0.4117 -1.4786 1.185, -0.4117 -1.4786 1.189, -0.4128 -1.4757 1.185, -0.4128 -1.4757 1.189, -0.4146 -1.4729 1.185, -0.4146 -1.4729 1.189, -0.417 -1.4708 1.185, -0.417 -1.4708 1.189, -0.4236 -1.4671 1.185, -0.4236 -1.4671 1.189, -0.4275 -1.4656 1.185, -0.4275 -1.4656 1.189, -0.4336 -1.4629 1.185, -0.4336 -1.4629 1.189, -0.4371 -1.4607 1.185, -0.4371 -1.4607 1.189, -0.4381 -1.4596 1.185, -0.4381 -1.4596 1.189, -0.4388 -1.4583 1.185, -0.4388 -1.4583 1.189, -0.4392 -1.4567 1.185, -0.4392 -1.4567 1.189, -0.4393 -1.4554 1.185, -0.4393 -1.4554 1.189, -0.4391 -1.4538 1.185, -0.4391 -1.4538 1.189, -0.4386 -1.4525 1.185, -0.4386 -1.4525 1.189, -0.4378 -1.4512 1.185, -0.4378 -1.4512 1.189, -0.4363 -1.4499 1.185, -0.4363 -1.4499 1.189, -0.434 -1.4487 1.185, -0.434 -1.4487 1.189, -0.4314 -1.448 1.185, -0.4314 -1.448 1.189, -0.4284 -1.4478 1.185, -0.4284 -1.4478 1.189, -0.422 -1.4485 1.185, -0.422 -1.4485 1.189, -0.4164 -1.4505 1.185, -0.4164 -1.4505 1.189, -0.414 -1.4519 1.185, -0.414 -1.4519 1.189, -0.414 -1.4422 1.189, -0.414 -1.4422 1.185, -0.4205 -1.4403 1.185, -0.4205 -1.4403 1.189, -0.4275 -1.4397 1.185, -0.4275 -1.4397 1.189, -0.4345 -1.4404 1.185, -0.4345 -1.4404 1.189, -0.44 -1.4423 1.185, -0.44 -1.4423 1.189, -0.4432 -1.4442 1.185, -0.4432 -1.4442 1.189, -0.4461 -1.4469 1.185, -0.4461 -1.4469 1.189, -0.448 -1.4495 1.185, -0.448 -1.4495 1.189, -0.4492 -1.4528 1.185, -0.4492 -1.4528 1.189, -0.4496 -1.4563 1.185, -0.4496 -1.4563 1.189, -0.4491 -1.4602 1.185, -0.4491 -1.4602 1.189, -0.448 -1.4632 1.185, -0.448 -1.4632 1.189, -0.4467 -1.4653 1.185, -0.4467 -1.4653 1.189, -0.4451 -1.467 1.185, -0.4451 -1.467 1.189, -0.4404 -1.4701 1.185, -0.4404 -1.4701 1.189, -0.4345 -1.4728 1.185, -0.4345 -1.4728 1.189, -0.428 -1.4755 1.185, -0.428 -1.4755 1.189, -0.4241 -1.4779 1.185, -0.4241 -1.4779 1.189, -0.4228 -1.4792 1.185, -0.4228 -1.4792 1.189, -0.4221 -1.4805 1.185, -0.4221 -1.4805 1.189, -0.4216 -1.482 1.185, -0.4216 -1.482 1.189, -0.4215 -1.4833 1.185, -0.4215 -1.4833 1.189, -0.4217 -1.4852 1.185, -0.4217 -1.4852 1.189, -0.4222 -1.4866 1.185, -0.4222 -1.4866 1.189, -0.4231 -1.4879 1.185, -0.4231 -1.4879 1.189, -0.4242 -1.4889 1.185, -0.4242 -1.4889 1.189, -0.4251 -1.4894 1.185, -0.4251 -1.4894 1.189, -0.4277 -1.4904 1.185, -0.4277 -1.4904 1.189, -0.4328 -1.491 1.185, -0.4328 -1.491 1.189, -0.4333 -1.491 1.185, -0.4333 -1.491 1.189, -0.4394 -1.4902 1.185, -0.4394 -1.4902 1.189, -0.4457 -1.4879 1.185, -0.4457 -1.4879 1.189, -0.4496 -1.4855 1.185, -0.4496 -1.4855 1.189, -0.4496 -1.4957 1.189, -0.4496 -1.4957 1.185, -0.44 -1.4984 1.185, -0.4435 -1.498 1.189, -0.4435 -1.498 1.185, -0.4731 -1.4977 1.189, -0.4631 -1.4977 1.189, -0.4731 -1.489 1.189, -0.4631 -1.4612 1.189, -0.4863 -1.4711 1.189, -0.4731 -1.4693 1.189, -0.4731 -1.4747 1.189, -0.4733 -1.489 1.189, -0.4786 -1.4875 1.189, -0.476 -1.4927 1.189, -0.4814 -1.4894 1.189, -0.5014 -1.4679 1.189, -0.5045 -1.4706 1.189, -0.4971 -1.476 1.189, -0.4731 -1.4754 1.189, -0.4737 -1.4798 1.189, -0.4752 -1.4834 1.189, -0.4773 -1.4863 1.189, -0.5031 -1.445 1.189, -0.5031 -1.4546 1.189, -0.5011 -1.4438 1.189, -0.4973 -1.4508 1.189, -0.4937 -1.4409 1.189, -0.491 -1.4485 1.189, -0.4836 -1.4397 1.189, -0.4845 -1.4478 1.189, -0.4775 -1.4403 1.189, -0.4812 -1.4481 1.189, -0.4733 -1.4416 1.189, -0.4789 -1.4489 1.189, -0.47 -1.4435 1.189, -0.4771 -1.4501 1.189, -0.4674 -1.446 1.189, -0.4756 -1.4517 1.189, -0.4654 -1.4493 1.189, -0.4744 -1.4537 1.189, -0.4638 -1.4539 1.189, -0.4734 -1.4573 1.189, -0.4731 -1.4617 1.189, -0.498 -1.4779 1.189, -0.5066 -1.4734 1.189, -0.4985 -1.4802 1.189, -0.4899 -1.464 1.189, -0.4948 -1.4736 1.189, -0.4925 -1.4725 1.189, -0.4966 -1.4875 1.189, -0.5038 -1.4946 1.189, -0.4957 -1.4884 1.189, -0.5005 -1.4969 1.189, -0.4937 -1.4897 1.189, -0.4967 -1.4984 1.189, -0.4915 -1.4905 1.189, -0.4907 -1.4991 1.189, -0.4881 -1.4909 1.189, -0.485 -1.4984 1.189, -0.4844 -1.4905 1.189, -0.4811 -1.4968 1.189, -0.4793 -1.4957 1.189, -0.496 -1.4745 1.189, -0.4971 -1.4658 1.189, -0.508 -1.4769 1.189, -0.5087 -1.4811 1.189, -0.4986 -1.4817 1.189, -0.5087 -1.4825 1.189, -0.4983 -1.484 1.189, -0.5082 -1.4871 1.189, -0.4977 -1.4858 1.189, -0.507 -1.4904 1.189, -0.5049 -1.4935 1.189, -0.4845 -1.4478 1.185, -0.4812 -1.4481 1.185, -0.4789 -1.4489 1.185, -0.4771 -1.4501 1.185, -0.4756 -1.4517 1.185, -0.4744 -1.4537 1.185, -0.4734 -1.4573 1.185, -0.4731 -1.4617 1.185, -0.4899 -1.464 1.185, -0.4971 -1.4658 1.185, -0.5014 -1.4679 1.185, -0.5045 -1.4706 1.185, -0.5066 -1.4734 1.185, -0.508 -1.4769 1.185, -0.5087 -1.4811 1.185, -0.5087 -1.4825 1.185, -0.5082 -1.4871 1.185, -0.507 -1.4904 1.185, -0.5049 -1.4935 1.185, -0.5038 -1.4946 1.185, -0.4907 -1.4991 1.185, -0.4965 -1.4984 1.185, -0.4967 -1.4984 1.185, -0.5005 -1.4969 1.185, -0.4853 -1.4984 1.185, -0.485 -1.4984 1.185, -0.4811 -1.4968 1.185, -0.4793 -1.4957 1.185, -0.476 -1.4927 1.185, -0.4733 -1.489 1.185, -0.4731 -1.489 1.185, -0.4731 -1.4977 1.185, -0.4631 -1.4977 1.185, -0.4631 -1.4612 1.185, -0.4638 -1.4539 1.185, -0.4654 -1.4493 1.185, -0.4674 -1.446 1.185, -0.47 -1.4435 1.185, -0.4733 -1.4416 1.185, -0.4775 -1.4403 1.185, -0.4836 -1.4397 1.185, -0.4937 -1.4409 1.185, -0.5011 -1.4438 1.185, -0.5031 -1.445 1.185, -0.5031 -1.4546 1.185, -0.4973 -1.4508 1.185, -0.491 -1.4485 1.185, -0.4773 -1.4863 1.185, -0.4786 -1.4875 1.185, -0.4814 -1.4894 1.185, -0.4844 -1.4905 1.185, -0.4881 -1.4909 1.185, -0.4731 -1.4747 1.185, -0.4731 -1.4754 1.185, -0.4737 -1.4798 1.185, -0.4752 -1.4834 1.185, -0.4731 -1.4693 1.185, -0.4863 -1.4711 1.185, -0.496 -1.4745 1.185, -0.4948 -1.4736 1.185, -0.4925 -1.4725 1.185, -0.4986 -1.4817 1.185, -0.4985 -1.4802 1.185, -0.498 -1.4779 1.185, -0.4971 -1.476 1.185, -0.4957 -1.4884 1.185, -0.4966 -1.4875 1.185, -0.4977 -1.4858 1.185, -0.4983 -1.484 1.185, -0.4915 -1.4905 1.185, -0.4937 -1.4897 1.185
            ]
        }
        coordIndex [
            0,1,2,-1,0,2,3,-1,3,2,4,-1,3,4,5,-1,6,5,7,-1,7,5,4,-1,8,6,9,-1,9,6,7,-1,10,11,12,-1,12,11,8,-1,12,8,9,-1,13,11,14,-1,14,11,10,-1,15,16,17,-1,17,16,13,-1,17,13,14,-1,18,19,20,-1,20,19,16,-1,20,16,15,-1,18,21,19,-1,19,21,22,-1,21,23,22,-1,22,23,24,-1,22,24,25,-1,25,24,26,-1,25,26,27,-1,27,26,28,-1,27,28,29,-1,29,28,30,-1,29,30,31,-1,31,30,32,-1,31,32,33,-1,33,32,34,-1,33,34,35,-1,36,35,37,-1,37,35,34,-1,36,37,38,-1,36,38,39,-1,39,38,40,-1,39,40,41,-1,41,40,42,-1,41,42,43,-1,43,42,44,-1,43,44,45,-1,44,46,45,-1,45,46,47,-1,45,47,48,-1,48,47,49,-1,48,49,50,-1,50,49,51,-1,50,51,52,-1,52,51,53,-1,52,53,54,-1,55,56,57,-1,57,56,54,-1,57,54,53,-1,58,56,59,-1,59,56,55,-1,0,58,1,-1,1,58,59,-1,3,5,54,-1,56,58,54,-1,54,58,0,-1,54,0,3,-1,11,13,8,-1,8,13,16,-1,8,16,6,-1,35,36,33,-1,33,36,39,-1,33,39,31,-1,31,39,41,-1,31,41,29,-1,29,41,43,-1,29,43,27,-1,27,43,45,-1,27,45,25,-1,5,6,54,-1,54,6,16,-1,54,16,52,-1,16,19,52,-1,52,19,22,-1,52,22,50,-1,50,22,25,-1,50,25,48,-1,48,25,45,-1,60,61,62,-1,62,61,63,-1,63,64,62,-1,62,64,65,-1,62,65,66,-1,66,65,67,-1,66,67,68,-1,68,67,69,-1,68,69,70,-1,70,69,71,-1,70,71,72,-1,72,71,73,-1,72,73,74,-1,74,73,75,-1,74,75,76,-1,76,75,77,-1,76,77,78,-1,78,77,79,-1,78,79,80,-1,80,79,81,-1,80,81,82,-1,82,81,83,-1,82,83,84,-1,84,83,85,-1,84,85,86,-1,86,85,87,-1,86,87,88,-1,88,87,89,-1,88,89,90,-1,90,89,91,-1,90,91,92,-1,92,91,93,-1,92,93,94,-1,94,93,95,-1,94,95,96,-1,96,95,97,-1,96,97,98,-1,98,97,99,-1,98,99,100,-1,100,99,101,-1,100,101,102,-1,102,101,103,-1,102,103,104,-1,104,103,105,-1,104,105,106,-1,106,105,107,-1,106,107,108,-1,108,107,109,-1,108,109,110,-1,110,109,111,-1,110,111,112,-1,112,111,113,-1,112,113,114,-1,114,113,115,-1,114,115,116,-1,116,115,117,-1,116,117,118,-1,118,117,119,-1,118,119,120,-1,121,120,122,-1,122,120,119,-1,121,122,123,-1,121,123,124,-1,124,123,125,-1,124,125,126,-1,126,125,127,-1,126,127,128,-1,128,127,129,-1,128,129,130,-1,130,129,131,-1,130,131,132,-1,132,131,133,-1,132,133,134,-1,134,133,135,-1,134,135,136,-1,136,135,137,-1,136,137,138,-1,138,137,139,-1,138,139,140,-1,140,139,141,-1,140,141,142,-1,142,141,143,-1,142,143,144,-1,144,143,145,-1,144,145,146,-1,146,145,147,-1,146,147,148,-1,148,147,149,-1,148,149,150,-1,150,149,151,-1,150,151,152,-1,152,151,153,-1,152,153,154,-1,154,153,155,-1,154,155,156,-1,156,155,157,-1,156,157,158,-1,158,157,159,-1,158,159,160,-1,160,159,161,-1,160,161,162,-1,162,161,163,-1,162,163,164,-1,164,163,165,-1,164,165,166,-1,166,165,167,-1,166,167,168,-1,168,167,169,-1,168,169,170,-1,170,169,171,-1,170,171,172,-1,172,171,173,-1,172,173,174,-1,174,173,175,-1,174,175,176,-1,176,175,177,-1,176,177,178,-1,178,177,179,-1,178,179,180,-1,180,179,181,-1,180,181,182,-1,182,181,183,-1,182,183,184,-1,184,183,185,-1,184,185,186,-1,187,186,188,-1,188,186,185,-1,61,60,189,-1,189,60,190,-1,189,190,191,-1,191,190,187,-1,191,187,188,-1,106,108,130,-1,130,108,128,-1,154,88,152,-1,152,88,90,-1,66,68,170,-1,170,68,70,-1,170,70,168,-1,168,70,72,-1,168,72,166,-1,166,72,74,-1,166,74,164,-1,164,74,76,-1,164,76,162,-1,162,76,78,-1,162,78,160,-1,160,78,80,-1,160,80,158,-1,158,80,82,-1,158,82,156,-1,156,82,84,-1,156,84,154,-1,154,84,86,-1,154,86,88,-1,60,180,190,-1,190,180,182,-1,190,182,187,-1,187,182,184,-1,187,184,186,-1,108,110,128,-1,128,110,112,-1,128,112,126,-1,126,112,114,-1,126,114,124,-1,124,114,116,-1,124,116,121,-1,121,116,118,-1,121,118,120,-1,170,172,66,-1,66,172,174,-1,66,174,62,-1,62,174,176,-1,62,176,60,-1,60,176,178,-1,60,178,180,-1,130,132,106,-1,106,132,134,-1,106,134,104,-1,104,134,136,-1,104,136,102,-1,102,136,138,-1,102,138,100,-1,100,138,140,-1,100,140,98,-1,98,140,142,-1,98,142,96,-1,96,142,144,-1,96,144,94,-1,94,144,146,-1,94,146,92,-1,92,146,148,-1,92,148,90,-1,90,148,150,-1,90,150,152,-1,192,193,194,-1,194,193,195,-1,196,197,195,-1,195,197,198,-1,199,200,201,-1,201,200,202,-1,203,204,205,-1,198,206,195,-1,195,206,207,-1,195,207,194,-1,194,207,208,-1,194,208,199,-1,199,208,209,-1,199,209,200,-1,210,211,212,-1,212,211,213,-1,212,213,214,-1,214,213,215,-1,214,215,216,-1,216,215,217,-1,216,217,218,-1,218,217,219,-1,218,219,220,-1,220,219,221,-1,220,221,222,-1,222,221,223,-1,222,223,224,-1,224,223,225,-1,224,225,226,-1,226,225,227,-1,226,227,228,-1,228,227,229,-1,228,229,195,-1,195,229,230,-1,195,230,196,-1,205,204,231,-1,231,204,232,-1,231,232,233,-1,234,235,230,-1,230,235,236,-1,230,236,196,-1,237,238,239,-1,239,238,240,-1,239,240,241,-1,241,240,242,-1,241,242,243,-1,243,242,244,-1,243,244,245,-1,245,244,246,-1,245,246,247,-1,247,246,248,-1,247,248,202,-1,202,248,249,-1,202,249,201,-1,205,250,203,-1,203,250,235,-1,203,235,251,-1,251,235,234,-1,232,252,233,-1,233,252,253,-1,233,253,254,-1,254,253,255,-1,254,255,256,-1,256,255,257,-1,256,257,258,-1,258,257,259,-1,258,259,237,-1,237,259,260,-1,237,260,238,-1,217,261,262,-1,217,262,219,-1,219,262,263,-1,219,263,221,-1,221,263,264,-1,221,264,223,-1,223,264,265,-1,223,265,225,-1,225,265,266,-1,225,266,227,-1,227,266,267,-1,227,267,229,-1,229,267,268,-1,229,268,230,-1,234,230,269,-1,269,230,268,-1,234,269,270,-1,234,270,251,-1,251,270,271,-1,251,271,203,-1,203,271,272,-1,203,272,204,-1,204,272,273,-1,204,273,232,-1,232,273,274,-1,232,274,252,-1,252,274,275,-1,252,275,253,-1,253,275,276,-1,253,276,255,-1,255,276,277,-1,255,277,257,-1,257,277,278,-1,257,278,259,-1,259,278,279,-1,259,279,260,-1,260,279,280,-1,260,280,238,-1,281,244,282,-1,282,244,242,-1,282,242,283,-1,283,242,240,-1,283,240,284,-1,284,240,238,-1,284,238,280,-1,281,285,244,-1,244,285,246,-1,285,286,246,-1,246,286,287,-1,246,287,248,-1,248,287,288,-1,248,288,249,-1,249,288,289,-1,249,289,201,-1,201,289,290,-1,201,290,199,-1,194,199,291,-1,291,199,290,-1,192,194,292,-1,292,194,291,-1,193,192,293,-1,293,192,292,-1,195,193,294,-1,294,193,293,-1,195,294,295,-1,195,295,228,-1,228,295,296,-1,228,296,226,-1,226,296,297,-1,226,297,224,-1,224,297,298,-1,224,298,222,-1,222,298,299,-1,222,299,220,-1,220,299,300,-1,220,300,218,-1,218,300,301,-1,218,301,216,-1,216,301,302,-1,216,302,214,-1,214,302,303,-1,214,303,212,-1,212,303,304,-1,212,304,210,-1,211,210,305,-1,305,210,304,-1,211,305,306,-1,211,306,213,-1,213,306,307,-1,213,307,215,-1,215,307,261,-1,215,261,217,-1,209,308,309,-1,209,309,200,-1,200,309,310,-1,200,310,202,-1,202,310,311,-1,202,311,247,-1,247,311,312,-1,247,312,245,-1,198,313,314,-1,198,314,206,-1,206,314,315,-1,206,315,207,-1,207,315,316,-1,207,316,208,-1,208,316,308,-1,208,308,209,-1,198,197,313,-1,313,197,317,-1,197,196,317,-1,317,196,318,-1,250,319,320,-1,250,320,235,-1,235,320,321,-1,235,321,236,-1,236,321,318,-1,236,318,196,-1,254,322,323,-1,254,323,233,-1,233,323,324,-1,233,324,231,-1,231,324,325,-1,231,325,205,-1,205,325,319,-1,205,319,250,-1,239,326,327,-1,239,327,237,-1,237,327,328,-1,237,328,258,-1,258,328,329,-1,258,329,256,-1,256,329,322,-1,256,322,254,-1,245,312,330,-1,245,330,243,-1,243,330,331,-1,243,331,241,-1,241,331,326,-1,241,326,239,-1,
        ]
    }
}
Shape{
    appearance Appearance {
        material  Material 	{
            diffuseColor 0.20784313725490197 0.20784313725490197 0.20784313725490197
            specularColor 0.01568627450980392 0.01568627450980392 0.01568627450980392
            ambientIntensity 0.298
            transparency 0.0
            shininess 0.5
        }
    }
    geometry IndexedFaceSet {
        ccw TRUE
        solid FALSE
        coord DEF co Coordinate {
            point [
                -0.4731 -1.4754 1.185, -0.4731 -1.4747 1.185, -0.496 -1.4745 1.185, -0.4731 -1.4693 1.185, -0.4863 -1.4711 1.185, -0.4925 -1.4725 1.185, -0.4948 -1.4736 1.185, -0.4737 -1.4798 1.185, -0.4971 -1.476 1.185, -0.4752 -1.4834 1.185, -0.4966 -1.4875 1.185, -0.4957 -1.4884 1.185, -0.4786 -1.4875 1.185, -0.4977 -1.4858 1.185, -0.4814 -1.4894 1.185, -0.4844 -1.4905 1.185, -0.4881 -1.4909 1.185, -0.498 -1.4779 1.185, -0.4985 -1.4802 1.185, -0.4773 -1.4863 1.185, -0.4986 -1.4817 1.185, -0.4983 -1.484 1.185, -0.4937 -1.4897 1.185, -0.4915 -1.4905 1.185
            ]
        }
        coordIndex [
            0,1,2,-1,1,3,4,-1,4,5,1,-1,1,5,6,-1,1,6,2,-1,0,2,7,-1,7,2,8,-1,7,8,9,-1,10,11,12,-1,10,12,13,-1,14,12,15,-1,15,12,16,-1,8,17,9,-1,9,17,18,-1,9,18,19,-1,19,18,20,-1,19,20,12,-1,12,20,21,-1,12,21,13,-1,11,22,12,-1,12,22,23,-1,12,23,16,-1,
        ]
    }
}
Shape{
    appearance Appearance {
        material  Material 	{
            diffuseColor 1.0 1.0 1.0
            specularColor 0.5019607843137255 0.5019607843137255 0.5019607843137255
            ambientIntensity 1.0
            transparency 0.0
            shininess 0.5
        }
    }
    geometry IndexedFaceSet {
        ccw TRUE
        solid FALSE
        coord DEF co Coordinate {
            point [
                -0.9118 -1.509 1.189, -0.9034 -1.5194 1.189, -0.9169 -1.459 1.189, -0.9267 -1.3609 1.189, -0.9141 -1.3542 1.189, -0.9171 -1.3195 1.189, -0.8819 -1.3178 1.189, -0.8643 -1.3591 1.189, -0.8557 -1.3412 1.189, -0.8073 -1.4788 1.189, -0.8073 -1.4732 1.189, -0.8552 -1.4593 1.189, -0.8606 -1.4577 1.189, -0.9292 -1.4515 1.189, -0.9246 -1.4947 1.189, -0.9174 -1.4969 1.189, -0.8948 -1.3167 1.189, -0.8468 -1.4661 1.189, -0.8441 -1.4707 1.189, -0.8076 -1.4847 1.189, -0.7282 -1.4314 1.189, -0.7457 -1.4014 1.189, -0.8214 -1.441 1.189, -0.8643 -1.4573 1.189, -0.8697 -1.458 1.189, -0.8773 -1.4234 1.189, -0.8747 -1.4599 1.189, -0.8897 -1.4282 1.189, -0.8791 -1.4631 1.189, -0.9013 -1.4362 1.189, -0.8817 -1.4658 1.189, -0.9106 -1.4469 1.189, -0.8845 -1.4705 1.189, -0.8861 -1.4759 1.189, -0.8863 -1.4814 1.189, -0.8433 -1.4256 1.189, -0.8569 -1.4222 1.189, -0.8638 -1.4218 1.189, -0.8506 -1.4622 1.189, -0.7096 -1.3754 1.189, -0.7051 -1.3754 1.189, -0.6819 -1.3449 1.189, -0.6943 -1.3768 1.189, -0.6791 -1.3459 1.189, -0.6845 -1.3806 1.189, -0.6623 -1.3542 1.189, -0.647 -1.3672 1.189, -0.8703 -1.3044 1.189, -0.8431 -1.3261 1.189, -0.857 -1.293 1.189, -0.8279 -1.315 1.189, -0.8411 -1.2834 1.189, -0.9002 -1.3509 1.189, -0.8943 -1.3506 1.189, -0.8884 -1.3171 1.189, -0.881 -1.3522 1.189, -0.8684 -1.3569 1.189, -0.8851 -1.4867 1.189, -0.8828 -1.4914 1.189, -0.8313 -1.432 1.189, -0.6469 -1.4726 1.189, -0.6732 -1.4502 1.189, -0.6623 -1.4856 1.189, -0.6816 -1.457 1.189, -0.6795 -1.494 1.189, -0.6915 -1.4616 1.189, -0.6983 -1.498 1.189, -0.7017 -1.4636 1.189, -0.7316 -1.498 1.189, -0.7271 -1.4636 1.189, -0.7348 -1.4975 1.189, -0.6757 -1.3867 1.189, -0.6692 -1.394 1.189, -0.6355 -1.3833 1.189, -0.6639 -1.4037 1.189, -0.6286 -1.4005 1.189, -0.6613 -1.4146 1.189, -0.626 -1.4189 1.189, -0.661 -1.4195 1.189, -0.6286 -1.4391 1.189, -0.6624 -1.4305 1.189, -0.6357 -1.457 1.189, -0.6663 -1.4406 1.189, -0.6725 -1.4494 1.189, -0.7124 -1.3003 1.189, -0.7345 -1.3263 1.189, -0.693 -1.3231 1.189, -0.7218 -1.3415 1.189, -0.713 -1.3597 1.189, -0.9491 -1.3934 1.189, -0.9862 -1.4028 1.189, -0.9508 -1.4071 1.189, -0.9863 -1.4082 1.189, -0.9501 -1.4158 1.189, -0.9836 -1.4303 1.189, -0.946 -1.4296 1.189, -0.9755 -1.4513 1.189, -0.9393 -1.4411 1.189, -0.9626 -1.4698 1.189, -0.945 -1.4848 1.189, -0.8149 -1.2739 1.189, -0.8095 -1.3075 1.189, -0.7892 -1.271 1.189, -0.7887 -1.3048 1.189, -0.7627 -1.2741 1.189, -0.7695 -1.3072 1.189, -0.7346 -1.2849 1.189, -0.7518 -1.314 1.189, -0.7359 -1.325 1.189, -0.938 -1.3276 1.189, -0.956 -1.3402 1.189, -0.9364 -1.3696 1.189, -0.9598 -1.3438 1.189, -0.9442 -1.3808 1.189, -0.9734 -1.3612 1.189, -0.9824 -1.3815 1.189, -0.8426 -1.4758 1.189, -0.8424 -1.4813 1.189, -0.8109 -1.4986 1.189, -0.8436 -1.4867 1.189, -0.8176 -1.5112 1.189, -0.8461 -1.4917 1.189, -0.8263 -1.5209 1.189, -0.8497 -1.4958 1.189, -0.8375 -1.5288 1.189, -0.854 -1.4988 1.189, -0.8501 -1.5336 1.189, -0.8589 -1.5007 1.189, -0.8638 -1.5353 1.189, -0.8643 -1.5014 1.189, -0.866 -1.5352 1.189, -0.8653 -1.5014 1.189, -0.8793 -1.5332 1.189, -0.8704 -1.5006 1.189, -0.8923 -1.5277 1.189, -0.8755 -1.4984 1.189, -0.8798 -1.495 1.189, -0.7299 -1.463 1.189, -0.7435 -1.4921 1.189, -0.7422 -1.4934 1.189, -0.7282 -1.4634 1.189, -0.7385 -1.496 1.189, -0.748 -1.4805 1.189, -0.7475 -1.4847 1.189, -0.746 -1.4885 1.189, -0.7349 -1.4636 1.189, -0.7387 -1.4651 1.189, -0.7479 -1.4783 1.189, -0.7422 -1.4675 1.189, -0.7445 -1.4701 1.189, -0.7467 -1.474 1.189, -0.7305 -1.463 1.189, -0.6433 -1.3724 1.185, -0.6355 -1.3833 1.185, -0.6305 -1.3957 1.185, -0.6286 -1.4005 1.185, -0.626 -1.4189 1.185, -0.647 -1.3672 1.185, -0.6623 -1.3542 1.185, -0.6791 -1.3459 1.185, -0.6819 -1.3449 1.185, -0.693 -1.3231 1.185, -0.7124 -1.3003 1.185, -0.725 -1.2916 1.185, -0.7346 -1.2849 1.185, -0.7627 -1.2741 1.185, -0.7892 -1.271 1.185, -0.8149 -1.2739 1.185, -0.8411 -1.2834 1.185, -0.8547 -1.2916 1.185, -0.857 -1.293 1.185, -0.8703 -1.3044 1.185, -0.8819 -1.3178 1.185, -0.8884 -1.3171 1.185, -0.8948 -1.3167 1.185, -0.9171 -1.3195 1.185, -0.938 -1.3276 1.185, -0.956 -1.3402 1.185, -0.9598 -1.3438 1.185, -0.9734 -1.3612 1.185, -0.9783 -1.3724 1.185, -0.9824 -1.3815 1.185, -0.9849 -1.3957 1.185, -0.9862 -1.4028 1.185, -0.9863 -1.4082 1.185, -0.9836 -1.4303 1.185, -0.9755 -1.4513 1.185, -0.9626 -1.4698 1.185, -0.945 -1.4848 1.185, -0.9246 -1.4947 1.185, -0.9174 -1.4969 1.185, -0.9167 -1.4984 1.185, -0.9118 -1.509 1.185, -0.9034 -1.5194 1.185, -0.8923 -1.5277 1.185, -0.8871 -1.5299 1.185, -0.8793 -1.5332 1.185, -0.866 -1.5352 1.185, -0.8638 -1.5353 1.185, -0.8073 -1.4788 1.185, -0.8501 -1.5336 1.185, -0.8404 -1.5299 1.185, -0.8375 -1.5288 1.185, -0.8263 -1.5209 1.185, -0.8176 -1.5112 1.185, -0.8109 -1.4986 1.185, -0.8109 -1.4984 1.185, -0.8076 -1.4847 1.185, -0.8073 -1.4732 1.185, -0.7282 -1.4314 1.185, -0.7457 -1.4014 1.185, -0.8214 -1.441 1.185, -0.8313 -1.432 1.185, -0.8433 -1.4256 1.185, -0.8569 -1.4222 1.185, -0.8638 -1.4218 1.185, -0.8773 -1.4234 1.185, -0.8897 -1.4282 1.185, -0.9013 -1.4362 1.185, -0.9106 -1.4469 1.185, -0.9169 -1.459 1.185, -0.9292 -1.4515 1.185, -0.9393 -1.4411 1.185, -0.946 -1.4296 1.185, -0.9501 -1.4158 1.185, -0.9508 -1.4071 1.185, -0.9494 -1.3957 1.185, -0.9491 -1.3934 1.185, -0.9442 -1.3808 1.185, -0.9384 -1.3724 1.185, -0.9364 -1.3696 1.185, -0.9267 -1.3609 1.185, -0.9141 -1.3542 1.185, -0.9002 -1.3509 1.185, -0.8943 -1.3506 1.185, -0.881 -1.3522 1.185, -0.8684 -1.3569 1.185, -0.8643 -1.3591 1.185, -0.8557 -1.3412 1.185, -0.8431 -1.3261 1.185, -0.8279 -1.315 1.185, -0.8095 -1.3075 1.185, -0.7887 -1.3048 1.185, -0.7695 -1.3072 1.185, -0.7518 -1.314 1.185, -0.7359 -1.325 1.185, -0.7345 -1.3263 1.185, -0.7218 -1.3415 1.185, -0.713 -1.3597 1.185, -0.7103 -1.3724 1.185, -0.7096 -1.3754 1.185, -0.7051 -1.3754 1.185, -0.6943 -1.3768 1.185, -0.6845 -1.3806 1.185, -0.6757 -1.3867 1.185, -0.6692 -1.394 1.185, -0.6683 -1.3957 1.185, -0.6639 -1.4037 1.185, -0.6613 -1.4146 1.185, -0.661 -1.4195 1.185, -0.6624 -1.4305 1.185, -0.6663 -1.4406 1.185, -0.6725 -1.4494 1.185, -0.6732 -1.4502 1.185, -0.6816 -1.457 1.185, -0.6915 -1.4616 1.185, -0.7017 -1.4636 1.185, -0.7271 -1.4636 1.185, -0.7282 -1.4634 1.185, -0.7299 -1.463 1.185, -0.7305 -1.463 1.185, -0.7349 -1.4636 1.185, -0.7387 -1.4651 1.185, -0.7422 -1.4675 1.185, -0.7445 -1.4701 1.185, -0.7467 -1.474 1.185, -0.7479 -1.4783 1.185, -0.748 -1.4805 1.185, -0.7475 -1.4847 1.185, -0.746 -1.4885 1.185, -0.7435 -1.4921 1.185, -0.7422 -1.4934 1.185, -0.7385 -1.496 1.185, -0.7348 -1.4975 1.185, -0.7316 -1.498 1.185, -0.6983 -1.498 1.185, -0.6795 -1.494 1.185, -0.6623 -1.4856 1.185, -0.6469 -1.4726 1.185, -0.6357 -1.457 1.185, -0.6286 -1.4391 1.185, -0.8643 -1.4573 1.185, -0.8606 -1.4577 1.185, -0.8552 -1.4593 1.185, -0.8506 -1.4622 1.185, -0.8468 -1.4661 1.185, -0.8441 -1.4707 1.185, -0.8426 -1.4758 1.185, -0.8424 -1.4813 1.185, -0.8436 -1.4867 1.185, -0.8461 -1.4917 1.185, -0.8497 -1.4958 1.185, -0.854 -1.4988 1.185, -0.8589 -1.5007 1.185, -0.8643 -1.5014 1.185, -0.8653 -1.5014 1.185, -0.8704 -1.5006 1.185, -0.8755 -1.4984 1.185, -0.8798 -1.495 1.185, -0.8828 -1.4914 1.185, -0.8851 -1.4867 1.185, -0.8863 -1.4814 1.185, -0.8861 -1.4759 1.185, -0.8845 -1.4705 1.185, -0.8817 -1.4658 1.185, -0.8791 -1.4631 1.185, -0.8747 -1.4599 1.185, -0.8697 -1.458 1.185
            ]
        }
        coordIndex [
            0,1,2,-1,3,4,5,-1,6,7,8,-1,9,10,11,-1,11,10,12,-1,13,14,2,-1,2,14,15,-1,2,15,0,-1,5,4,16,-1,17,18,19,-1,20,21,10,-1,10,21,22,-1,10,22,12,-1,12,22,23,-1,24,25,26,-1,26,25,27,-1,26,27,28,-1,28,27,29,-1,28,29,30,-1,30,29,31,-1,30,31,32,-1,32,31,2,-1,32,2,33,-1,33,2,34,-1,35,36,24,-1,24,36,37,-1,24,37,25,-1,9,11,19,-1,19,11,38,-1,19,38,17,-1,39,40,41,-1,41,40,42,-1,41,42,43,-1,43,42,44,-1,43,44,45,-1,45,44,46,-1,6,8,47,-1,47,8,48,-1,47,48,49,-1,49,48,50,-1,49,50,51,-1,4,52,16,-1,16,52,53,-1,16,53,54,-1,54,53,55,-1,54,55,6,-1,6,55,56,-1,6,56,7,-1,34,2,57,-1,57,2,1,-1,57,1,58,-1,23,22,24,-1,24,22,59,-1,24,59,35,-1,60,61,62,-1,62,61,63,-1,62,63,64,-1,64,63,65,-1,64,65,66,-1,66,65,67,-1,66,67,68,-1,68,67,69,-1,68,69,70,-1,44,71,46,-1,46,71,72,-1,46,72,73,-1,73,72,74,-1,73,74,75,-1,75,74,76,-1,75,76,77,-1,77,76,78,-1,77,78,79,-1,79,78,80,-1,79,80,81,-1,81,80,82,-1,81,82,60,-1,60,82,83,-1,60,83,61,-1,84,85,86,-1,86,85,87,-1,86,87,41,-1,41,87,88,-1,41,88,39,-1,89,90,91,-1,91,90,92,-1,91,92,93,-1,93,92,94,-1,93,94,95,-1,95,94,96,-1,95,96,97,-1,97,96,98,-1,97,98,13,-1,13,98,99,-1,13,99,14,-1,51,50,100,-1,100,50,101,-1,100,101,102,-1,102,101,103,-1,102,103,104,-1,104,103,105,-1,104,105,106,-1,106,105,107,-1,106,107,84,-1,84,107,108,-1,84,108,85,-1,5,109,3,-1,3,109,110,-1,3,110,111,-1,111,110,112,-1,111,112,113,-1,113,112,114,-1,113,114,89,-1,89,114,115,-1,89,115,90,-1,18,116,19,-1,19,116,117,-1,19,117,118,-1,118,117,119,-1,118,119,120,-1,120,119,121,-1,120,121,122,-1,122,121,123,-1,122,123,124,-1,124,123,125,-1,124,125,126,-1,126,125,127,-1,126,127,128,-1,128,127,129,-1,128,129,130,-1,130,129,131,-1,130,131,132,-1,132,131,133,-1,132,133,134,-1,134,133,135,-1,134,135,1,-1,1,135,136,-1,1,136,58,-1,137,138,139,-1,69,140,70,-1,70,140,137,-1,70,137,141,-1,141,137,139,-1,142,143,137,-1,137,143,144,-1,137,144,138,-1,145,146,147,-1,146,148,147,-1,147,148,149,-1,147,149,150,-1,142,137,147,-1,147,137,151,-1,147,151,145,-1,152,46,153,-1,153,46,73,-1,153,73,154,-1,154,73,75,-1,154,75,155,-1,155,75,77,-1,155,77,156,-1,152,157,46,-1,46,157,158,-1,46,158,45,-1,45,158,159,-1,45,159,43,-1,43,159,160,-1,43,160,41,-1,41,160,161,-1,41,161,86,-1,86,161,162,-1,86,162,84,-1,84,162,106,-1,106,162,163,-1,163,164,106,-1,106,164,165,-1,106,165,104,-1,104,165,166,-1,104,166,102,-1,102,166,167,-1,102,167,100,-1,100,167,168,-1,100,168,51,-1,51,168,49,-1,49,168,169,-1,49,169,170,-1,49,170,171,-1,49,171,47,-1,47,171,172,-1,47,172,6,-1,6,172,173,-1,6,173,54,-1,54,173,174,-1,54,174,16,-1,16,174,175,-1,16,175,5,-1,5,175,176,-1,5,176,109,-1,109,176,177,-1,109,177,110,-1,110,177,178,-1,110,178,112,-1,115,114,179,-1,179,114,112,-1,179,112,178,-1,179,180,115,-1,115,180,181,-1,115,181,90,-1,90,181,182,-1,182,183,90,-1,90,183,184,-1,90,184,92,-1,92,184,185,-1,92,185,94,-1,94,185,186,-1,94,186,96,-1,96,186,187,-1,96,187,98,-1,98,187,188,-1,98,188,99,-1,99,188,189,-1,99,189,14,-1,14,189,190,-1,14,190,15,-1,15,190,191,-1,15,191,0,-1,191,192,0,-1,0,192,193,-1,0,193,1,-1,1,193,194,-1,1,194,134,-1,134,194,195,-1,134,195,132,-1,195,196,132,-1,132,196,197,-1,132,197,130,-1,130,197,198,-1,130,198,128,-1,199,9,19,-1,128,198,200,-1,201,124,200,-1,200,124,126,-1,200,126,128,-1,201,202,124,-1,124,202,203,-1,124,203,122,-1,122,203,204,-1,122,204,120,-1,120,204,205,-1,120,205,118,-1,118,205,206,-1,118,206,19,-1,19,206,207,-1,19,207,199,-1,10,9,208,-1,208,9,199,-1,20,10,209,-1,209,10,208,-1,21,20,210,-1,210,20,209,-1,22,21,211,-1,211,21,210,-1,22,211,212,-1,22,212,59,-1,59,212,213,-1,59,213,35,-1,35,213,214,-1,35,214,36,-1,36,214,215,-1,36,215,37,-1,37,215,216,-1,37,216,25,-1,25,216,217,-1,25,217,27,-1,27,217,218,-1,27,218,29,-1,29,218,219,-1,29,219,31,-1,31,219,220,-1,31,220,2,-1,2,220,221,-1,2,221,13,-1,13,221,222,-1,13,222,97,-1,97,222,223,-1,97,223,95,-1,95,223,224,-1,95,224,93,-1,93,224,225,-1,93,225,91,-1,89,91,225,-1,225,226,89,-1,89,226,227,-1,89,227,228,-1,229,111,228,-1,228,111,113,-1,228,113,89,-1,229,230,111,-1,111,230,231,-1,111,231,3,-1,3,231,232,-1,3,232,4,-1,4,232,233,-1,4,233,52,-1,52,233,234,-1,52,234,53,-1,53,234,235,-1,53,235,55,-1,55,235,236,-1,55,236,56,-1,56,236,237,-1,56,237,7,-1,7,237,238,-1,7,238,8,-1,8,238,239,-1,8,239,48,-1,48,239,240,-1,48,240,50,-1,50,240,241,-1,50,241,101,-1,101,241,242,-1,101,242,103,-1,103,242,243,-1,103,243,105,-1,105,243,244,-1,105,244,107,-1,107,244,245,-1,107,245,108,-1,108,245,246,-1,108,246,85,-1,85,246,247,-1,85,247,87,-1,87,247,248,-1,87,248,88,-1,88,248,39,-1,39,248,249,-1,39,249,250,-1,40,39,251,-1,251,39,250,-1,40,251,252,-1,40,252,42,-1,42,252,253,-1,42,253,44,-1,44,253,254,-1,44,254,71,-1,71,254,255,-1,71,255,72,-1,72,255,256,-1,72,256,74,-1,256,257,74,-1,74,257,258,-1,74,258,76,-1,76,258,259,-1,76,259,78,-1,78,259,260,-1,78,260,80,-1,80,260,261,-1,80,261,82,-1,82,261,262,-1,82,262,83,-1,83,262,263,-1,83,263,61,-1,61,263,264,-1,61,264,63,-1,63,264,265,-1,63,265,65,-1,65,265,266,-1,65,266,67,-1,69,67,267,-1,267,67,266,-1,69,267,268,-1,69,268,140,-1,140,268,269,-1,140,269,137,-1,137,269,270,-1,137,270,151,-1,151,270,271,-1,151,271,145,-1,145,271,272,-1,145,272,146,-1,146,272,273,-1,146,273,148,-1,148,273,274,-1,148,274,149,-1,149,274,275,-1,149,275,150,-1,150,275,276,-1,150,276,147,-1,147,276,277,-1,147,277,142,-1,142,277,278,-1,142,278,143,-1,143,278,279,-1,143,279,144,-1,144,279,280,-1,144,280,138,-1,138,280,281,-1,138,281,139,-1,139,281,282,-1,139,282,141,-1,141,282,283,-1,141,283,70,-1,70,283,284,-1,70,284,68,-1,66,68,285,-1,285,68,284,-1,66,285,286,-1,66,286,64,-1,64,286,287,-1,64,287,62,-1,62,287,288,-1,62,288,60,-1,60,288,289,-1,60,289,81,-1,81,289,290,-1,81,290,79,-1,79,290,156,-1,79,156,77,-1,23,291,292,-1,23,292,12,-1,12,292,293,-1,12,293,11,-1,11,293,294,-1,11,294,38,-1,38,294,295,-1,38,295,17,-1,17,295,296,-1,17,296,18,-1,18,296,297,-1,18,297,116,-1,116,297,298,-1,116,298,117,-1,117,298,299,-1,117,299,119,-1,119,299,300,-1,119,300,121,-1,121,300,301,-1,121,301,123,-1,123,301,302,-1,123,302,125,-1,125,302,303,-1,125,303,127,-1,127,303,304,-1,127,304,129,-1,129,304,305,-1,129,305,131,-1,131,305,306,-1,131,306,133,-1,133,306,307,-1,133,307,135,-1,135,307,308,-1,135,308,136,-1,136,308,309,-1,136,309,58,-1,58,309,310,-1,58,310,57,-1,57,310,311,-1,57,311,34,-1,34,311,312,-1,34,312,33,-1,33,312,313,-1,33,313,32,-1,32,313,314,-1,32,314,30,-1,30,314,315,-1,30,315,28,-1,28,315,316,-1,28,316,26,-1,26,316,317,-1,26,317,24,-1,24,317,291,-1,24,291,23,-1,
        ]
    }
}
Shape{
    appearance Appearance {
        material  Material 	{
            diffuseColor 0.20784313725490197 0.20784313725490197 0.20784313725490197
            specularColor 0.01568627450980392 0.01568627450980392 0.01568627450980392
            ambientIntensity 0.298
            transparency 0.0
            shininess 0.5
        }
    }
    geometry IndexedFaceSet {
        ccw TRUE
        solid FALSE
        coord DEF co Coordinate {
            point [
                -0.8697 -1.458 1.185, -0.8747 -1.4599 1.185, -0.8653 -1.5014 1.185, -0.8791 -1.4631 1.185, -0.8817 -1.4658 1.185, -0.8606 -1.4577 1.185, -0.8643 -1.5014 1.185, -0.8589 -1.5007 1.185, -0.8643 -1.4573 1.185, -0.8851 -1.4867 1.185, -0.8828 -1.4914 1.185, -0.8798 -1.495 1.185, -0.8497 -1.4958 1.185, -0.8468 -1.4661 1.185, -0.8506 -1.4622 1.185, -0.8845 -1.4705 1.185, -0.8861 -1.4759 1.185, -0.8863 -1.4814 1.185, -0.8755 -1.4984 1.185, -0.8704 -1.5006 1.185, -0.854 -1.4988 1.185, -0.8552 -1.4593 1.185, -0.8436 -1.4867 1.185, -0.8424 -1.4813 1.185, -0.8461 -1.4917 1.185, -0.8426 -1.4758 1.185, -0.8441 -1.4707 1.185
            ]
        }
        coordIndex [
            0,1,2,-1,2,1,3,-1,2,3,4,-1,5,6,7,-1,6,5,2,-1,2,5,8,-1,2,8,0,-1,9,10,4,-1,4,10,11,-1,12,13,14,-1,15,16,4,-1,4,16,17,-1,4,17,9,-1,11,18,4,-1,4,18,19,-1,4,19,2,-1,7,20,5,-1,5,20,12,-1,5,12,21,-1,21,12,14,-1,22,23,24,-1,24,23,25,-1,24,25,12,-1,12,25,26,-1,12,26,13,-1,
        ]
    }
}
Shape{
    appearance Appearance {
        material  Material 	{
            diffuseColor 1.0 1.0 1.0
            specularColor 0.5019607843137255 0.5019607843137255 0.5019607843137255
            ambientIntensity 1.0
            transparency 0.0
            shininess 0.5
        }
    }
    geometry IndexedFaceSet {
        ccw TRUE
        solid FALSE
        coord DEF co Coordinate {
            point [
                -0.33 -1.3606 1.189, -0.3382 -1.3552 1.189, -0.3383 -1.3665 1.189, -0.3434 -1.3588 1.189, -0.3474 -1.3701 1.189, -0.3499 -1.3613 1.189, -0.3608 -1.3717 1.189, -0.3609 -1.3627 1.189, -0.3827 -1.3717 1.189, -0.3724 -1.3627 1.189, -0.3827 -1.2923 1.189, -0.3724 -1.3014 1.189, -0.36 -1.2923 1.189, -0.3604 -1.3014 1.189, -0.3597 -1.3014 1.189, -0.3479 -1.2936 1.189, -0.3495 -1.3027 1.189, -0.3383 -1.2971 1.189, -0.3427 -1.3053 1.189, -0.33 -1.3028 1.189, -0.3375 -1.3089 1.189, -0.3272 -1.3055 1.189, -0.3353 -1.3111 1.189, -0.3223 -1.3125 1.189, -0.3322 -1.3155 1.189, -0.3193 -1.3201 1.189, -0.33 -1.3213 1.189, -0.318 -1.331 1.189, -0.3288 -1.3313 1.189, -0.3183 -1.336 1.189, -0.3291 -1.3367 1.189, -0.3202 -1.3453 1.189, -0.3307 -1.3438 1.189, -0.3241 -1.3536 1.189, -0.3335 -1.3497 1.189, -0.3373 -1.3544 1.189, -0.33 -1.3606 1.185, -0.3241 -1.3536 1.185, -0.3202 -1.3453 1.185, -0.3183 -1.336 1.185, -0.318 -1.331 1.185, -0.3193 -1.3201 1.185, -0.3223 -1.3125 1.185, -0.3272 -1.3055 1.185, -0.33 -1.3028 1.185, -0.36 -1.2923 1.185, -0.3383 -1.2971 1.185, -0.3463 -1.2942 1.185, -0.3479 -1.2936 1.185, -0.3827 -1.2923 1.185, -0.3827 -1.3717 1.185, -0.3608 -1.3717 1.185, -0.3474 -1.3701 1.185, -0.3463 -1.3697 1.185, -0.3383 -1.3665 1.185, -0.3375 -1.3089 1.185, -0.3353 -1.3111 1.185, -0.3322 -1.3155 1.185, -0.33 -1.3213 1.185, -0.3288 -1.3313 1.185, -0.3604 -1.3014 1.185, -0.3597 -1.3014 1.185, -0.3495 -1.3027 1.185, -0.3427 -1.3053 1.185, -0.3724 -1.3014 1.185, -0.3724 -1.3627 1.185, -0.3609 -1.3627 1.185, -0.3373 -1.3544 1.185, -0.3382 -1.3552 1.185, -0.3434 -1.3588 1.185, -0.3499 -1.3613 1.185, -0.3291 -1.3367 1.185, -0.3307 -1.3438 1.185, -0.3335 -1.3497 1.185
            ]
        }
        coordIndex [
            0,1,2,-1,2,1,3,-1,2,3,4,-1,4,3,5,-1,4,5,6,-1,6,5,7,-1,6,7,8,-1,8,7,9,-1,8,9,10,-1,10,9,11,-1,10,11,12,-1,11,13,12,-1,12,13,14,-1,12,14,15,-1,15,14,16,-1,15,16,17,-1,17,16,18,-1,17,18,19,-1,19,18,20,-1,19,20,21,-1,21,20,22,-1,21,22,23,-1,23,22,24,-1,23,24,25,-1,25,24,26,-1,25,26,27,-1,27,26,28,-1,27,28,29,-1,29,28,30,-1,29,30,31,-1,31,30,32,-1,31,32,33,-1,33,32,34,-1,33,34,0,-1,0,34,35,-1,0,35,1,-1,0,36,37,-1,0,37,33,-1,33,37,38,-1,33,38,31,-1,31,38,39,-1,31,39,29,-1,29,39,40,-1,29,40,27,-1,27,40,41,-1,27,41,25,-1,25,41,42,-1,25,42,23,-1,23,42,43,-1,23,43,21,-1,21,43,44,-1,21,44,19,-1,45,12,15,-1,19,44,46,-1,19,46,17,-1,17,46,47,-1,17,47,15,-1,15,47,48,-1,15,48,45,-1,10,12,49,-1,49,12,45,-1,8,10,50,-1,50,10,49,-1,6,8,51,-1,51,8,50,-1,36,0,2,-1,6,51,52,-1,6,52,4,-1,4,52,53,-1,4,53,2,-1,2,53,54,-1,2,54,36,-1,20,55,56,-1,20,56,22,-1,22,56,57,-1,22,57,24,-1,24,57,58,-1,24,58,26,-1,26,58,59,-1,26,59,28,-1,13,60,61,-1,13,61,14,-1,14,61,62,-1,14,62,16,-1,16,62,63,-1,16,63,18,-1,18,63,55,-1,18,55,20,-1,13,11,60,-1,60,11,64,-1,11,9,64,-1,64,9,65,-1,9,7,65,-1,65,7,66,-1,35,67,68,-1,35,68,1,-1,1,68,69,-1,1,69,3,-1,3,69,70,-1,3,70,5,-1,5,70,66,-1,5,66,7,-1,28,59,71,-1,28,71,30,-1,30,71,72,-1,30,72,32,-1,32,72,73,-1,32,73,34,-1,34,73,67,-1,34,67,35,-1,
        ]
    }
}
Shape{
    appearance Appearance {
        material  Material 	{
            diffuseColor 0.20784313725490197 0.20784313725490197 0.20784313725490197
            specularColor 0.01568627450980392 0.01568627450980392 0.01568627450980392
            ambientIntensity 0.298
            transparency 0.0
            shininess 0.5
        }
    }
    geometry IndexedFaceSet {
        ccw TRUE
        solid FALSE
        coord DEF co Coordinate {
            point [
                -0.3434 -1.3588 1.185, -0.3382 -1.3552 1.185, -0.3597 -1.3014 1.185, -0.3724 -1.3014 1.185, -0.3724 -1.3627 1.185, -0.3604 -1.3014 1.185, -0.3609 -1.3627 1.185, -0.3499 -1.3613 1.185, -0.3373 -1.3544 1.185, -0.3335 -1.3497 1.185, -0.3307 -1.3438 1.185, -0.3288 -1.3313 1.185, -0.3375 -1.3089 1.185, -0.3427 -1.3053 1.185, -0.33 -1.3213 1.185, -0.3322 -1.3155 1.185, -0.3353 -1.3111 1.185, -0.3291 -1.3367 1.185, -0.3495 -1.3027 1.185
            ]
        }
        coordIndex [
            0,1,2,-1,3,4,5,-1,5,4,6,-1,5,6,2,-1,2,6,7,-1,2,7,0,-1,1,8,2,-1,2,8,9,-1,2,9,10,-1,11,12,13,-1,14,15,11,-1,11,15,16,-1,11,16,12,-1,10,17,2,-1,2,17,11,-1,2,11,18,-1,18,11,13,-1,
        ]
    }
}
Shape{
    appearance Appearance {
        material  Material 	{
            diffuseColor 1.0 1.0 1.0
            specularColor 0.5019607843137255 0.5019607843137255 0.5019607843137255
            ambientIntensity 1.0
            transparency 0.0
            shininess 0.5
        }
    }
    geometry IndexedFaceSet {
        ccw TRUE
        solid FALSE
        coord DEF co Coordinate {
            point [
                -0.4768 -1.3639 1.189, -0.4768 -1.3639 1.185, -0.4838 -1.3632 1.185, -0.4838 -1.3632 1.189, -0.4897 -1.3612 1.185, -0.4897 -1.3612 1.189, -0.495 -1.3577 1.185, -0.495 -1.3577 1.189, -0.4972 -1.3555 1.185, -0.4972 -1.3555 1.189, -0.5009 -1.3506 1.185, -0.5009 -1.3506 1.189, -0.5035 -1.3442 1.185, -0.5035 -1.3442 1.189, -0.5049 -1.3364 1.185, -0.5049 -1.3364 1.189, -0.505 -1.3329 1.185, -0.505 -1.3329 1.189, -0.5037 -1.322 1.185, -0.5037 -1.322 1.189, -0.5011 -1.3151 1.185, -0.5011 -1.3151 1.189, -0.4972 -1.3096 1.185, -0.4972 -1.3096 1.189, -0.4967 -1.309 1.185, -0.4967 -1.309 1.189, -0.4918 -1.3049 1.185, -0.4918 -1.3049 1.189, -0.4856 -1.3018 1.185, -0.4856 -1.3018 1.189, -0.4788 -1.3004 1.185, -0.4788 -1.3004 1.189, -0.475 -1.3002 1.185, -0.475 -1.3002 1.189, -0.4653 -1.3014 1.185, -0.4597 -1.3035 1.185, -0.4572 -1.3044 1.189, -0.4653 -1.3014 1.189, -0.4572 -1.3044 1.185, -0.4563 -1.3049 1.185, -0.4563 -1.3049 1.189, -0.4563 -1.2942 1.189, -0.4563 -1.2942 1.185, -0.4597 -1.2932 1.185, -0.4647 -1.2918 1.189, -0.4751 -1.2909 1.185, -0.4751 -1.2909 1.189, -0.4666 -1.2916 1.185, -0.4647 -1.2918 1.185, -0.4807 -1.2916 1.185, -0.4866 -1.2923 1.189, -0.4866 -1.2923 1.185, -0.4949 -1.2955 1.185, -0.4949 -1.2955 1.189, -0.5024 -1.3007 1.185, -0.5024 -1.3007 1.189, -0.5043 -1.3026 1.185, -0.5043 -1.3026 1.189, -0.5101 -1.3102 1.185, -0.5101 -1.3102 1.189, -0.5139 -1.319 1.185, -0.5139 -1.319 1.189, -0.5157 -1.3293 1.185, -0.5157 -1.3293 1.189, -0.5158 -1.3335 1.185, -0.5158 -1.3335 1.189, -0.5142 -1.3464 1.185, -0.5142 -1.3464 1.189, -0.511 -1.3547 1.185, -0.511 -1.3547 1.189, -0.5063 -1.3615 1.185, -0.5063 -1.3615 1.189, -0.5056 -1.3622 1.185, -0.5056 -1.3622 1.189, -0.4783 -1.3731 1.185, -0.4783 -1.3731 1.189, -0.4846 -1.3727 1.189, -0.5003 -1.3668 1.185, -0.5003 -1.3668 1.189, -0.493 -1.3706 1.185, -0.493 -1.3706 1.189, -0.4857 -1.3724 1.185, -0.4846 -1.3727 1.185, -0.4563 -1.3684 1.185, -0.4563 -1.3684 1.189, -0.4577 -1.3691 1.189, -0.4662 -1.3719 1.189, -0.4713 -1.3724 1.185, -0.4662 -1.3719 1.185, -0.4597 -1.3698 1.185, -0.4577 -1.3691 1.185, -0.4563 -1.3586 1.189, -0.4563 -1.3586 1.185, -0.4597 -1.3601 1.185, -0.4641 -1.3621 1.189, -0.4641 -1.3621 1.185, -0.4731 -1.3638 1.185, -0.4731 -1.3638 1.189, -0.1919 -1.467 1.189, -0.1952 -1.476 1.189, -0.1652 -1.467 1.189, -0.1621 -1.476 1.189, -0.18 -1.434 1.189, -0.1839 -1.4183 1.189, -0.2141 -1.4977 1.189, -0.2028 -1.4977 1.189, -0.1793 -1.4316 1.189, -0.1787 -1.4284 1.189, -0.1729 -1.4183 1.189, -0.1785 -1.4284 1.189, -0.1778 -1.4318 1.189, -0.1772 -1.434 1.189, -0.1426 -1.4977 1.189, -0.154 -1.4977 1.189, -0.1839 -1.4183 1.185, -0.1729 -1.4183 1.185, -0.2141 -1.4977 1.185, -0.2028 -1.4977 1.185, -0.1952 -1.476 1.185, -0.1621 -1.476 1.185, -0.154 -1.4977 1.185, -0.1426 -1.4977 1.185, -0.18 -1.434 1.185, -0.1793 -1.4316 1.185, -0.1787 -1.4284 1.185, -0.1919 -1.467 1.185, -0.1652 -1.467 1.185, -0.1772 -1.434 1.185, -0.1785 -1.4284 1.185, -0.1778 -1.4318 1.185
            ]
        }
        coordIndex [
            0,1,2,-1,0,2,3,-1,3,2,4,-1,3,4,5,-1,5,4,6,-1,5,6,7,-1,7,6,8,-1,7,8,9,-1,9,8,10,-1,9,10,11,-1,11,10,12,-1,11,12,13,-1,13,12,14,-1,13,14,15,-1,15,14,16,-1,15,16,17,-1,17,16,18,-1,17,18,19,-1,19,18,20,-1,19,20,21,-1,21,20,22,-1,21,22,23,-1,23,22,24,-1,23,24,25,-1,25,24,26,-1,25,26,27,-1,27,26,28,-1,27,28,29,-1,29,28,30,-1,29,30,31,-1,31,30,32,-1,31,32,33,-1,33,32,34,-1,35,36,34,-1,34,36,37,-1,34,37,33,-1,35,38,36,-1,36,38,39,-1,36,39,40,-1,41,40,42,-1,42,40,39,-1,41,42,43,-1,41,43,44,-1,45,46,47,-1,47,46,44,-1,47,44,48,-1,48,44,43,-1,46,45,49,-1,46,49,50,-1,49,51,50,-1,50,51,52,-1,50,52,53,-1,53,52,54,-1,53,54,55,-1,55,54,56,-1,55,56,57,-1,57,56,58,-1,57,58,59,-1,59,58,60,-1,59,60,61,-1,61,60,62,-1,61,62,63,-1,63,62,64,-1,63,64,65,-1,65,64,66,-1,65,66,67,-1,67,66,68,-1,67,68,69,-1,69,68,70,-1,69,70,71,-1,71,70,72,-1,71,72,73,-1,74,75,76,-1,73,72,77,-1,73,77,78,-1,78,77,79,-1,78,79,80,-1,80,79,81,-1,80,81,76,-1,76,81,82,-1,76,82,74,-1,83,84,85,-1,75,74,86,-1,86,74,87,-1,87,88,86,-1,86,88,89,-1,86,89,85,-1,85,89,90,-1,85,90,83,-1,91,84,92,-1,92,84,83,-1,91,92,93,-1,91,93,94,-1,93,95,94,-1,94,95,96,-1,94,96,97,-1,97,96,1,-1,97,1,0,-1,19,21,59,-1,59,21,57,-1,65,17,63,-1,63,17,19,-1,63,19,61,-1,61,19,59,-1,21,23,57,-1,57,23,25,-1,57,25,55,-1,55,25,27,-1,55,27,53,-1,53,27,50,-1,50,27,29,-1,50,29,46,-1,84,91,85,-1,85,91,94,-1,85,94,86,-1,86,94,97,-1,86,97,75,-1,75,97,0,-1,75,0,76,-1,76,0,3,-1,76,3,80,-1,80,3,5,-1,80,5,78,-1,78,5,7,-1,78,7,73,-1,73,7,9,-1,73,9,71,-1,71,9,11,-1,71,11,69,-1,69,11,67,-1,67,11,13,-1,67,13,65,-1,65,13,15,-1,65,15,17,-1,29,31,46,-1,46,31,33,-1,46,33,44,-1,44,33,37,-1,44,37,41,-1,41,37,36,-1,41,36,40,-1,98,99,100,-1,100,99,101,-1,102,103,98,-1,98,103,104,-1,98,104,99,-1,99,104,105,-1,102,106,103,-1,103,106,107,-1,103,107,108,-1,108,107,109,-1,108,109,110,-1,110,111,108,-1,108,111,100,-1,108,100,112,-1,112,100,101,-1,112,101,113,-1,103,108,114,-1,114,108,115,-1,104,103,116,-1,116,103,114,-1,105,104,117,-1,117,104,116,-1,99,105,118,-1,118,105,117,-1,101,99,119,-1,119,99,118,-1,113,101,120,-1,120,101,119,-1,112,113,121,-1,121,113,120,-1,108,112,115,-1,115,112,121,-1,102,122,123,-1,102,123,106,-1,106,123,124,-1,106,124,107,-1,102,98,122,-1,122,98,125,-1,98,100,125,-1,125,100,126,-1,100,111,126,-1,126,111,127,-1,109,128,129,-1,109,129,110,-1,110,129,127,-1,110,127,111,-1,109,107,128,-1,128,107,124,-1,
        ]
    }
}
Shape{
    appearance Appearance {
        material  Material 	{
            diffuseColor 0.20784313725490197 0.20784313725490197 0.20784313725490197
            specularColor 0.01568627450980392 0.01568627450980392 0.01568627450980392
            ambientIntensity 0.298
            transparency 0.0
            shininess 0.5
        }
    }
    geometry IndexedFaceSet {
        ccw TRUE
        solid FALSE
        coord DEF co Coordinate {
            point [
                -0.1785 -1.4284 1.185, -0.1787 -1.4284 1.185, -0.1778 -1.4318 1.185, -0.1793 -1.4316 1.185, -0.1772 -1.434 1.185, -0.18 -1.434 1.185, -0.1652 -1.467 1.185, -0.1919 -1.467 1.185
            ]
        }
        coordIndex [
            0,1,2,-1,2,1,3,-1,2,3,4,-1,4,3,5,-1,4,5,6,-1,6,5,7,-1,
        ]
    }
}
Shape{
    appearance Appearance {
        material  Material 	{
            diffuseColor 1.0 1.0 1.0
            specularColor 0.5019607843137255 0.5019607843137255 0.5019607843137255
            ambientIntensity 1.0
            transparency 0.0
            shininess 0.5
        }
    }
    geometry IndexedFaceSet {
        ccw TRUE
        solid FALSE
        coord DEF co Coordinate {
            point [
                -0.3307 -1.4887 1.185, -0.3307 -1.4887 1.189, -0.3165 -1.4887 1.185, -0.2982 -1.4887 1.189, -0.2982 -1.4887 1.185, -0.3307 -1.462 1.189, -0.3307 -1.462 1.185, -0.3023 -1.462 1.185, -0.3023 -1.462 1.189, -0.3165 -1.462 1.185, -0.3023 -1.4529 1.189, -0.3023 -1.4529 1.185, -0.3307 -1.4529 1.185, -0.3307 -1.4529 1.189, -0.3165 -1.4529 1.185, -0.3307 -1.4274 1.189, -0.3307 -1.4274 1.185, -0.3 -1.4274 1.185, -0.3 -1.4274 1.189, -0.3165 -1.4274 1.185, -0.3 -1.4183 1.189, -0.3 -1.4183 1.185, -0.3409 -1.4183 1.185, -0.3409 -1.4183 1.189, -0.3165 -1.4183 1.185, -0.3409 -1.4977 1.189, -0.3409 -1.4977 1.185, -0.2982 -1.4977 1.185, -0.2982 -1.4977 1.189, -0.3165 -1.4977 1.185, -0.5507 -1.4887 1.185, -0.5507 -1.4887 1.189, -0.5186 -1.4887 1.185, -0.5182 -1.4887 1.189, -0.5182 -1.4887 1.185, -0.5507 -1.462 1.189, -0.5507 -1.462 1.185, -0.5223 -1.462 1.189, -0.5223 -1.462 1.185, -0.5223 -1.4529 1.189, -0.5223 -1.4529 1.185, -0.5507 -1.4529 1.189, -0.5507 -1.4529 1.185, -0.5507 -1.4274 1.189, -0.5507 -1.4274 1.185, -0.52 -1.4274 1.189, -0.52 -1.4274 1.185, -0.52 -1.4183 1.189, -0.52 -1.4183 1.185, -0.5609 -1.4183 1.189, -0.5609 -1.4183 1.185, -0.5609 -1.4977 1.189, -0.5609 -1.4977 1.185, -0.5182 -1.4977 1.185, -0.5182 -1.4977 1.189, -0.5186 -1.4977 1.185, -0.2914 -1.341 1.189, -0.2946 -1.35 1.189, -0.2647 -1.341 1.189, -0.2616 -1.35 1.189, -0.2795 -1.308 1.189, -0.2833 -1.2923 1.189, -0.3136 -1.3717 1.189, -0.3023 -1.3717 1.189, -0.2788 -1.3056 1.189, -0.2782 -1.3024 1.189, -0.2724 -1.2923 1.189, -0.278 -1.3024 1.189, -0.2773 -1.3058 1.189, -0.2767 -1.308 1.189, -0.2421 -1.3717 1.189, -0.2535 -1.3717 1.189, -0.2833 -1.2923 1.185, -0.2724 -1.2923 1.185, -0.3136 -1.3717 1.185, -0.3023 -1.3717 1.185, -0.2946 -1.35 1.185, -0.2616 -1.35 1.185, -0.2535 -1.3717 1.185, -0.2421 -1.3717 1.185, -0.2795 -1.308 1.185, -0.2788 -1.3056 1.185, -0.2782 -1.3024 1.185, -0.2914 -1.341 1.185, -0.2647 -1.341 1.185, -0.2767 -1.308 1.185, -0.278 -1.3024 1.185, -0.2773 -1.3058 1.185
            ]
        }
        coordIndex [
            0,1,2,-1,2,1,3,-1,2,3,4,-1,5,1,6,-1,6,1,0,-1,7,8,9,-1,9,8,5,-1,9,5,6,-1,10,8,11,-1,11,8,7,-1,12,13,14,-1,14,13,10,-1,14,10,11,-1,15,13,16,-1,16,13,12,-1,17,18,19,-1,19,18,15,-1,19,15,16,-1,20,18,21,-1,21,18,17,-1,22,23,24,-1,24,23,20,-1,24,20,21,-1,25,23,26,-1,26,23,22,-1,27,28,29,-1,29,28,25,-1,29,25,26,-1,3,28,4,-1,4,28,27,-1,25,28,3,-1,3,1,25,-1,25,1,5,-1,25,5,23,-1,18,20,15,-1,15,20,23,-1,15,23,13,-1,13,23,5,-1,13,5,10,-1,10,5,8,-1,30,31,32,-1,32,31,33,-1,32,33,34,-1,35,31,36,-1,36,31,30,-1,37,35,38,-1,38,35,36,-1,39,37,40,-1,40,37,38,-1,41,39,42,-1,42,39,40,-1,43,41,44,-1,44,41,42,-1,45,43,46,-1,46,43,44,-1,47,45,48,-1,48,45,46,-1,49,47,50,-1,50,47,48,-1,51,49,52,-1,52,49,50,-1,53,54,55,-1,55,54,51,-1,55,51,52,-1,33,54,34,-1,34,54,53,-1,51,54,33,-1,33,31,51,-1,51,31,35,-1,51,35,49,-1,45,47,43,-1,43,47,49,-1,43,49,41,-1,41,49,35,-1,41,35,39,-1,39,35,37,-1,56,57,58,-1,58,57,59,-1,60,61,56,-1,56,61,62,-1,56,62,57,-1,57,62,63,-1,60,64,61,-1,61,64,65,-1,61,65,66,-1,66,65,67,-1,66,67,68,-1,68,69,66,-1,66,69,58,-1,66,58,70,-1,70,58,59,-1,70,59,71,-1,61,66,72,-1,72,66,73,-1,62,61,74,-1,74,61,72,-1,63,62,75,-1,75,62,74,-1,57,63,76,-1,76,63,75,-1,59,57,77,-1,77,57,76,-1,71,59,78,-1,78,59,77,-1,70,71,79,-1,79,71,78,-1,66,70,73,-1,73,70,79,-1,60,80,81,-1,60,81,64,-1,64,81,82,-1,64,82,65,-1,60,56,80,-1,80,56,83,-1,56,58,83,-1,83,58,84,-1,58,69,84,-1,84,69,85,-1,67,86,87,-1,67,87,68,-1,68,87,85,-1,68,85,69,-1,67,65,86,-1,86,65,82,-1,
        ]
    }
}
Shape{
    appearance Appearance {
        material  Material 	{
            diffuseColor 0.20784313725490197 0.20784313725490197 0.20784313725490197
            specularColor 0.01568627450980392 0.01568627450980392 0.01568627450980392
            ambientIntensity 0.298
            transparency 0.0
            shininess 0.5
        }
    }
    geometry IndexedFaceSet {
        ccw TRUE
        solid FALSE
        coord DEF co Coordinate {
            point [
                -0.278 -1.3024 1.185, -0.2782 -1.3024 1.185, -0.2773 -1.3058 1.185, -0.2788 -1.3056 1.185, -0.2767 -1.308 1.185, -0.2795 -1.308 1.185, -0.2647 -1.341 1.185, -0.2914 -1.341 1.185
            ]
        }
        coordIndex [
            0,1,2,-1,2,1,3,-1,2,3,4,-1,4,3,5,-1,4,5,6,-1,6,5,7,-1,
        ]
    }
}
Shape{
    appearance Appearance {
        material  Material 	{
            diffuseColor 1.0 1.0 1.0
            specularColor 0.5019607843137255 0.5019607843137255 0.5019607843137255
            ambientIntensity 1.0
            transparency 0.0
            shininess 0.5
        }
    }
    geometry IndexedFaceSet {
        ccw TRUE
        solid FALSE
        coord DEF co Coordinate {
            point [
                -0.4302 -1.3627 1.185, -0.4302 -1.3627 1.189, -0.4087 -1.3627 1.185, -0.3977 -1.3627 1.189, -0.3977 -1.3627 1.185, -0.4302 -1.3359 1.189, -0.4302 -1.3359 1.185, -0.4018 -1.3359 1.189, -0.4087 -1.3359 1.185, -0.4018 -1.3359 1.185, -0.4018 -1.3268 1.189, -0.4018 -1.3268 1.185, -0.4302 -1.3268 1.185, -0.4302 -1.3268 1.189, -0.4087 -1.3268 1.185, -0.4302 -1.3014 1.189, -0.4302 -1.3014 1.185, -0.3995 -1.3014 1.189, -0.4087 -1.3014 1.185, -0.3995 -1.3014 1.185, -0.3995 -1.2923 1.189, -0.3995 -1.2923 1.185, -0.4404 -1.2923 1.185, -0.4404 -1.2923 1.189, -0.4087 -1.2923 1.185, -0.4404 -1.3717 1.189, -0.4404 -1.3717 1.185, -0.3977 -1.3717 1.189, -0.4087 -1.3717 1.185, -0.3977 -1.3717 1.185, -0.5507 -1.3627 1.189, -0.519 -1.3627 1.189, -0.5507 -1.3627 1.185, -0.519 -1.3627 1.185, -0.5507 -1.2923 1.189, -0.5507 -1.2923 1.185, -0.5609 -1.2923 1.189, -0.5609 -1.2923 1.185, -0.5609 -1.3717 1.189, -0.5609 -1.3717 1.185, -0.519 -1.3717 1.189, -0.519 -1.3717 1.185
            ]
        }
        coordIndex [
            0,1,2,-1,2,1,3,-1,2,3,4,-1,5,1,6,-1,6,1,0,-1,5,6,7,-1,7,6,8,-1,7,8,9,-1,10,7,11,-1,11,7,9,-1,12,13,14,-1,14,13,10,-1,14,10,11,-1,15,13,16,-1,16,13,12,-1,15,16,17,-1,17,16,18,-1,17,18,19,-1,20,17,21,-1,21,17,19,-1,22,23,24,-1,24,23,20,-1,24,20,21,-1,25,23,26,-1,26,23,22,-1,25,26,27,-1,27,26,28,-1,27,28,29,-1,3,27,4,-1,4,27,29,-1,25,27,3,-1,3,1,25,-1,25,1,5,-1,25,5,23,-1,17,20,15,-1,15,20,23,-1,15,23,13,-1,13,23,5,-1,13,5,10,-1,10,5,7,-1,30,31,32,-1,32,31,33,-1,34,30,35,-1,35,30,32,-1,36,34,37,-1,37,34,35,-1,38,36,39,-1,39,36,37,-1,40,38,41,-1,41,38,39,-1,31,40,33,-1,33,40,41,-1,34,36,30,-1,30,36,38,-1,30,38,31,-1,31,38,40,-1,
        ]
    }
}