%TF.GenerationSoftware,KiCad,Pcbnew,10.0.4-10.0.4~ubuntu24.04.1*%
%TF.CreationDate,2026-07-27T20:08:10-07:00*%
%TF.ProjectId,cooksense,636f6f6b-7365-46e7-9365-2e6b69636164,rev?*%
%TF.SameCoordinates,Original*%
%TF.FileFunction,Profile,NP*%
%FSLAX46Y46*%
G04 Gerber Fmt 4.6, Leading zero omitted, Abs format (unit mm)*
G04 Created by KiCad (PCBNEW 10.0.4-10.0.4~ubuntu24.04.1) date 2026-07-27 20:08:10*
%MOMM*%
%LPD*%
G01*
G04 APERTURE LIST*
%TA.AperFunction,Profile*%
%ADD10C,0.100000*%
%TD*%
G04 APERTURE END LIST*
D10*
X12000000Y-10000000D02*
X12000000Y-102000000D01*
X12000000Y-10000000D02*
X200000000Y-10000000D01*
X12000000Y-102000000D02*
X200000000Y-102000000D01*
X13000000Y-49300000D02*
X22600000Y-49300000D01*
X13000000Y-49900000D02*
X13000000Y-49300000D01*
X22600000Y-49300000D02*
X22600000Y-49900000D01*
X22600000Y-49900000D02*
X13000000Y-49900000D01*
X29400000Y-26000000D02*
X37840000Y-26000000D01*
X29400000Y-26600000D02*
X29400000Y-26000000D01*
X37840000Y-26000000D02*
X37840000Y-26600000D01*
X37840000Y-26600000D02*
X29400000Y-26600000D01*
X44640000Y-49300000D02*
X53080000Y-49300000D01*
X44640000Y-49900000D02*
X44640000Y-49300000D01*
X53080000Y-49300000D02*
X53080000Y-49900000D01*
X53080000Y-49900000D02*
X44640000Y-49900000D01*
X59880000Y-26000000D02*
X68320000Y-26000000D01*
X59880000Y-26600000D02*
X59880000Y-26000000D01*
X68320000Y-26000000D02*
X68320000Y-26600000D01*
X68320000Y-26600000D02*
X59880000Y-26600000D01*
X75120000Y-49300000D02*
X83560000Y-49300000D01*
X75120000Y-49900000D02*
X75120000Y-49300000D01*
X83560000Y-49300000D02*
X83560000Y-49900000D01*
X83560000Y-49900000D02*
X75120000Y-49900000D01*
X90360000Y-26000000D02*
X98800000Y-26000000D01*
X90360000Y-26600000D02*
X90360000Y-26000000D01*
X98800000Y-26000000D02*
X98800000Y-26600000D01*
X98800000Y-26600000D02*
X90360000Y-26600000D01*
X105600000Y-49300000D02*
X114040000Y-49300000D01*
X105600000Y-49900000D02*
X105600000Y-49300000D01*
X114040000Y-49300000D02*
X114040000Y-49900000D01*
X114040000Y-49900000D02*
X105600000Y-49900000D01*
X120840000Y-26000000D02*
X129280000Y-26000000D01*
X120840000Y-26600000D02*
X120840000Y-26000000D01*
X129280000Y-26000000D02*
X129280000Y-26600000D01*
X129280000Y-26600000D02*
X120840000Y-26600000D01*
X136080000Y-49300000D02*
X144520000Y-49300000D01*
X136080000Y-49900000D02*
X136080000Y-49300000D01*
X144520000Y-49300000D02*
X144520000Y-49900000D01*
X144520000Y-49900000D02*
X136080000Y-49900000D01*
X151320000Y-26000000D02*
X159760000Y-26000000D01*
X151320000Y-26600000D02*
X151320000Y-26000000D01*
X159760000Y-26000000D02*
X159760000Y-26600000D01*
X159760000Y-26600000D02*
X151320000Y-26600000D01*
X166560000Y-49300000D02*
X175000000Y-49300000D01*
X166560000Y-49900000D02*
X166560000Y-49300000D01*
X175000000Y-49300000D02*
X175000000Y-49900000D01*
X175000000Y-49900000D02*
X166560000Y-49900000D01*
X181800000Y-26000000D02*
X190240000Y-26000000D01*
X181800000Y-26600000D02*
X181800000Y-26000000D01*
X190240000Y-26000000D02*
X190240000Y-26600000D01*
X190240000Y-26600000D02*
X181800000Y-26600000D01*
X191500000Y-48800000D02*
X191500000Y-49800000D01*
X191500000Y-49800000D02*
X200000000Y-49800000D01*
X200000000Y-10000000D02*
X200000000Y-48800000D01*
X200000000Y-48800000D02*
X191500000Y-48800000D01*
X200000000Y-49800000D02*
X200000000Y-102000000D01*
M02*
