v 1.837644 1.025134 7.5
v 1.870926 1.120248 7.5
v -1.826362 0.925 7.5
newmtl 1
Ka 0.2235294117647059 0.2235294117647059 0.2235294117647059
Kd 0.2235294117647059 0.2235294117647059 0.2235294117647059
Ks 0.11372549019607843 0.11372549019607843 0.11372549019607843
d 0.0
endmtl
v 9.5 2.5 7.5
v -2.081114 1.330436 7.5
v -1.995791 1.276824 7.5
v 7.123773 1.363718 7.5
v 7.218886 1.330436 7.5
v 7.462356 -1.025134 7.5
v 7.429074 -1.120248 7.5
v 9.5 -2.5 7.5
v 7.375463 -1.20557 7.5
v 7.304209 -1.276824 7.5
v 7.218886 -1.330436 7.5
v 7.123773 -1.363718 7.5
v 2.081114 -1.330436 7.5
v 1.995791 -1.276824 7.5
v -9.5 -2.5 7.5
v -7.123773 -1.363718 7.5
v -7.218886 -1.330436 7.5
v -7.304209 -1.276824 7.5
v -7.375463 -1.20557 7.5
v -7.429074 -1.120248 7.5
v -7.462356 -1.025134 7.5
v -7.473638 -0.925 7.5
v -9.5 2.5 7.5
v -7.473638 0.925 7.5
v -7.462356 1.025134 7.5
v -7.429074 1.120248 7.5
v -7.375463 1.20557 7.5
v -7.304209 1.276824 7.5
v -7.218886 1.330436 7.5
v -7.123773 1.363718 7.5
v -1.924538 1.20557 7.5
v -1.870926 1.120248 7.5
v -1.837644 1.025134 7.5
v 1.924538 1.20557 7.5
v 1.995791 1.276824 7.5
v 7.023638 1.375 7.5
v 7.304209 1.276824 7.5
v 7.375463 1.20557 7.5
v 7.429074 1.120248 7.5
v -1.995791 -1.276824 7.5
v -2.081114 -1.330436 7.5
v 7.462356 1.025134 7.5
v 7.473638 0.925 7.5
v 7.473638 -0.925 7.5
v 2.081114 1.330436 7.5
v 2.176227 1.363718 7.5
v 2.276362 1.375 7.5
v -7.023638 1.375 7.5
v -2.276362 1.375 7.5
v -2.176227 1.363718 7.5
v 7.023638 -1.375 7.5
v 2.276362 -1.375 7.5
v 2.176227 -1.363718 7.5
v 1.924538 -1.20557 7.5
v 1.870926 -1.120248 7.5
v -1.870926 -1.120248 7.5
v 1.837644 -1.025134 7.5
v -1.837644 -1.025134 7.5
v -1.924538 -1.20557 7.5
v -2.176227 -1.363718 7.5
v -2.276362 -1.375 7.5
v -7.023638 -1.375 7.5
v -1.826362 -0.925 7.5
v 1.826362 -0.925 7.5
v 1.826362 0.925 7.5
v 2.3 1.375 3.0
v 2.3 1.125 3.0
v 1.7 1.1125 3.0
v -7.75 -2.2 3.0
v -8.5 -2.2 3.0
v -8.5 -1.7875 3.0
v -1.1 0.0 3.0
v -1.062518 -0.284701 3.0
v -1.7 0.030827 3.0
v -1.7 -1.7875 3.0
v -0.952628 -0.55 3.0
v -0.777817 -0.777817 3.0
v -0.55 -0.952628 3.0
v -0.284701 -1.062518 3.0
v -0.0 -1.1 3.0
v 1.7 -1.7875 3.0
v 0.284701 -1.062518 3.0
v 0.55 -0.952628 3.0
v 0.777817 -0.777817 3.0
v 0.952628 -0.55 3.0
v 1.7 0.030827 3.0
v 1.062518 -0.284701 3.0
v -1.7 0.819987 3.0
v -0.722862 0.819987 3.0
v -0.777817 0.777817 3.0
v -0.952628 0.55 3.0
v -1.062518 0.284701 3.0
v -1.095942 0.030827 3.0
v -0.55 0.952628 3.0
v -1.7 1.1125 3.0
v -0.284701 1.062518 3.0
v 0.0 1.1 3.0
v 0.284701 1.062518 3.0
v 0.952628 0.55 3.0
v 0.777817 0.777817 3.0
v 1.7 0.819987 3.0
v 0.722862 0.819987 3.0
v 0.55 0.952628 3.0
v 1.1 -0.0 3.0
v 1.095942 0.030827 3.0
v 1.062518 0.284701 3.0
v 4.377133 0.030827 3.0
v 4.328352 0.453083 3.0
v 4.377133 0.819987 3.0
v 4.328352 0.507961 3.0
v 4.275055 0.529845 3.0
v 4.742987 -1.7875 3.0
v 4.377133 -1.7875 3.0
v 4.254872 0.030827 3.0
v 4.270544 0.031908 3.0
v 4.21126 0.082656 3.0
v 4.319391 0.458047 3.0
v 4.272033 0.090552 3.0
v 4.328352 0.114668 3.0
v 4.328352 0.047595 3.0
v 3.982828 0.16536 3.0
v 4.012668 0.118015 3.0
v 3.93506 0.030827 3.0
v 4.080702 0.516951 3.0
v 4.040106 0.49091 3.0
v 3.93506 0.819987 3.0
v 4.00351 0.452353 3.0
v 3.976812 0.405298 3.0
v 4.16203 0.088172 3.0
v 4.124801 0.101629 3.0
v 4.089375 0.125377 3.0
v 4.059319 0.158875 3.0
v 4.038916 0.197549 3.0
v 4.025688 0.251684 3.0
v 4.023474 0.289211 3.0
v 4.028529 0.3433 3.0
v 4.042101 0.386307 3.0
v 4.200017 0.485095 3.0
v 4.086139 0.445564 3.0
v 4.153618 0.47992 3.0
v 4.116843 0.466405 3.0
v 4.062889 0.421036 3.0
v 4.266388 0.477728 3.0
v 4.056302 0.076056 3.0
v 4.103038 0.04881 3.0
v 4.15789 0.032337 3.0
v 4.204448 0.539739 3.0
v 4.190776 0.539973 3.0
v 4.129254 0.533595 3.0
v 3.961315 0.351651 3.0
v 3.956401 0.293308 3.0
v 3.963584 0.222319 3.0
v 3.93506 -1.7875 3.0
v 4.175378 0.030827 3.0
v 4.210689 0.027778 3.0
v -7.75 -1.7875 3.0
v -4.65 -2.2 3.0
v -4.65 -1.7875 3.0
v -1.7 -2.2 3.0
v 1.7 -2.2 3.0
v 3.57881 -2.2 3.0
v 3.57881 -1.7875 3.0
v 3.93506 -2.2 3.0
v 4.377133 -2.2 3.0
v 4.742987 -2.2 3.0
v 5.212499 -2.2 3.0
v 5.741005 -1.7875 3.0
v 5.8 -1.375 3.0
v 7.0 -1.375 3.0
v 7.0 -1.125 3.0
v 8.5 0.030827 3.0
v 8.5 -1.7875 3.0
v 8.5 -2.2 3.0
v 5.212499 0.030827 3.0
v 5.741005 0.030827 3.0
v 5.8 -1.125 3.0
v 3.57881 0.030827 3.0
v 3.5 -1.125 3.0
v 3.5 -1.375 3.0
v 2.3 -1.375 3.0
v 2.3 -1.125 3.0
v -2.3 -1.125 3.0
v -2.3 -1.375 3.0
v -3.5 -1.375 3.0
v -3.5 -1.125 3.0
v -4.65 0.030827 3.0
v -5.8 -1.125 3.0
v -5.8 -1.375 3.0
v -7.0 -1.375 3.0
v -7.0 -1.125 3.0
v -7.75 0.030827 3.0
v 5.60884 0.533876 3.0
v 5.558249 0.393632 3.0
v 5.351695 0.393632 3.0
v 5.741005 0.819987 3.0
v 5.303962 0.533876 3.0
v 5.212499 0.819987 3.0
v 5.230792 0.533876 3.0
v 5.419816 0.033876 3.0
v 5.486889 0.033876 3.0
v 5.682011 0.533876 3.0
v 4.791767 0.033876 3.0
v 4.742987 0.030827 3.0
v 4.791767 0.533876 3.0
v 4.742987 0.819987 3.0
v 4.932868 0.033876 3.0
v 5.005104 0.041598 3.0
v 5.063635 0.062136 3.0
v 5.113164 0.094368 3.0
v 5.141261 0.440701 3.0
v 5.100394 0.480211 3.0
v 5.169311 0.3966 3.0
v 5.741005 -2.2 3.0
v 5.212499 -1.7875 3.0
v 5.048632 0.510691 3.0
v 4.991075 0.5282 3.0
v 4.927724 0.533876 3.0
v 5.132581 0.11237 3.0
v 5.162563 0.151525 3.0
v 5.183618 0.200055 3.0
v 5.193252 0.252877 3.0
v 5.194206 0.277587 3.0
v 5.187203 0.344494 3.0
v 4.682011 0.033876 3.0
v 4.682011 0.088754 3.0
v 4.694206 0.478998 3.0
v 4.694206 0.533876 3.0
v 4.425913 0.533876 3.0
v 4.425913 0.033876 3.0
v 4.492987 0.308266 3.0
v 4.492987 0.478998 3.0
v 4.669816 0.308266 3.0
v 4.669816 0.253388 3.0
v 4.492987 0.253388 3.0
v 4.492987 0.088754 3.0
v 3.724694 0.033876 3.0
v 3.724694 0.478998 3.0
v 3.913718 0.478998 3.0
v 3.657621 0.533876 3.0
v 3.657621 0.033876 3.0
v 3.913718 0.533876 3.0
v 3.57881 0.819987 3.0
v 3.57881 1.1125 3.0
v 3.93506 1.1125 3.0
v 4.377133 1.1125 3.0
v 4.742987 1.1125 3.0
v 5.212499 1.1125 3.0
v 5.741005 1.1125 3.0
v -4.65 0.819987 3.0
v -4.65 1.1125 3.0
v 5.741005 2.2 3.0
v 8.5 2.2 3.0
v 7.0 1.375 3.0
v 5.8 1.375 3.0
v 5.8 1.125 3.0
v 7.0 1.125 3.0
v 8.5 1.1125 3.0
v 8.5 0.819987 3.0
v 1.7 2.2 3.0
v 3.57881 2.2 3.0
v 3.5 1.375 3.0
v 3.5 1.125 3.0
v 5.212499 2.2 3.0
v 4.742987 2.2 3.0
v 4.377133 2.2 3.0
v 3.93506 2.2 3.0
v -1.7 2.2 3.0
v -2.3 1.375 3.0
v -2.3 1.125 3.0
v -3.5 1.125 3.0
v -3.5 1.375 3.0
v -4.65 2.2 3.0
v -7.75 1.1125 3.0
v -7.0 1.125 3.0
v -5.8 1.125 3.0
v -7.0 1.375 3.0
v -7.75 2.2 3.0
v -5.8 1.375 3.0
v -7.75 0.819987 3.0
v -8.5 0.030827 3.0
v -8.5 0.819987 3.0
v -8.5 1.1125 3.0
v -8.5 2.2 3.0
v -0.952628 0.55 -1.5
v -1.249802 0.491659 -1.5
v -1.062518 0.284701 -1.5
v -1.319558 0.25 -1.5
v -1.071214 0.25 -1.5
v 0.284701 1.062518 -1.5
v 0.145747 1.3351 -1.5
v 0.0 1.1 -1.5
v -0.145729 1.335102 -1.5
v -0.284701 1.062518 -1.5
v -0.43034 1.272219 -1.5
v -0.55 0.952628 -1.5
v -0.694682 1.149413 -1.5
v -0.777817 0.777817 -1.5
v -0.926303 0.972469 -1.5
v -1.114295 0.74972 -1.5
v 1.071214 0.25 -1.5
v 1.319558 0.25 -1.5
v 1.062518 0.284701 -1.5
v 1.249809 0.491642 -1.5
v 0.952628 0.55 -1.5
v 1.114305 0.749705 -1.5
v 0.777817 0.777817 -1.5
v 0.926316 0.972456 -1.5
v 0.55 0.952628 -1.5
v 0.694697 1.149404 -1.5
v 0.430357 1.272213 -1.5
v 0.437254 0.25 -3.5
v -0.437254 0.25 -3.5
v 0.392864 0.315197 -3.5
v -0.392864 0.315197 -3.5
v 0.300405 0.404287 -3.5
v -0.188424 0.467106 -3.5
v -0.064199 0.49957 -3.5
v -0.300405 0.404287 -3.5
v 0.064199 0.49957 -3.5
v 0.188424 0.467106 -3.5
v 0.566955 0.25 -3.387966
v 0.539168 0.25 -3.442262
v 0.464819 0.369874 -3.442262
v 1.189501 0.800297 -1.642262
v 1.307247 0.576051 -1.642262
v 0.994507 0.25 -2.51768
v 1.334149 0.524819 -1.642262
v 1.411697 0.25 -1.642262
v -0.464819 0.369874 -3.442262
v -0.539168 0.25 -3.442262
v -0.584596 0.25 -3.35002
v -1.411697 0.25 -1.642262
v -1.334142 0.524837 -1.642262
v -0.994519 0.25 -2.517655
v -1.307249 0.576052 -1.642262
v -1.18949 0.800313 -1.642262
v -1.115869 0.887546 -1.642262
v -0.463555 0.371913 -3.442262
v -0.988812 1.038093 -1.642262
v -0.355692 0.475846 -3.442262
v -0.853314 1.141606 -1.642262
v -0.354459 0.477034 -3.442262
v -0.741561 1.226978 -1.642262
v -0.223224 0.550653 -3.442262
v -0.535823 1.322558 -1.642262
v -0.222329 0.551156 -3.442262
v -0.45938 1.358071 -1.642262
v -0.076082 0.589375 -3.442262
v -0.182959 1.419144 -1.642262
v -0.07575 0.589461 -3.442262
v 0.07575 0.589461 -3.442262
v -0.155563 1.425197 -1.642262
v 0.155582 1.425195 -1.642262
v 0.076082 0.589375 -3.442262
v 0.18296 1.419146 -1.642262
v 0.222329 0.551156 -3.442262
v 0.459398 1.358065 -1.642262
v 0.223224 0.550653 -3.442262
v 0.535823 1.322559 -1.642262
v 0.354459 0.477034 -3.442262
v 0.741577 1.226968 -1.642262
v 0.355692 0.475846 -3.442262
v 0.853314 1.141606 -1.642262
v 0.463555 0.371913 -3.442262
v 0.988826 1.03808 -1.642262
v 1.115868 0.887546 -1.642262
v 0.462407 0.25 -3.497554
v 0.41041 0.329274 -3.497437
v 0.462958 0.25 -3.497377
v 0.503574 0.25 -3.481076
v 0.489099 0.25 -3.488993
v 0.427057 0.34263 -3.489879
v 0.522656 0.25 -3.465351
v 0.508087 0.25 -3.477357
v 0.441951 0.354579 -3.477715
v 0.454328 0.36451 -3.461566
v 0.525883 0.25 -3.461425
v 0.532316 0.25 -3.4536
v -0.532554 0.25 -3.45326
v -0.454328 0.36451 -3.461566
v -0.525504 0.25 -3.461148
v -0.475865 0.25 -3.494093
v -0.483738 0.25 -3.491279
v -0.427057 0.34263 -3.489879
v -0.486878 0.25 -3.489579
v -0.507536 0.25 -3.478389
v -0.462687 0.25 -3.496595
v -0.41041 0.329274 -3.497437
v -0.446432 0.25 -3.499681
v -0.437908 0.25 -3.499999
v -0.347404 0.467539 -3.461566
v -0.217903 0.540185 -3.461566
v -0.074243 0.577728 -3.461566
v 0.074243 0.577728 -3.461566
v 0.217903 0.540185 -3.461566
v 0.347404 0.467539 -3.461566
v 0.337939 0.454801 -3.477715
v 0.211967 0.525468 -3.477715
v 0.07222 0.561988 -3.477715
v -0.07222 0.561988 -3.477715
v -0.211967 0.525468 -3.477715
v -0.337939 0.454801 -3.477715
v -0.441951 0.354579 -3.477715
v -0.516278 0.25 -3.471468
v 0.32655 0.439474 -3.489879
v 0.204823 0.50776 -3.489879
v 0.069786 0.543049 -3.489879
v -0.069786 0.543049 -3.489879
v -0.204823 0.50776 -3.489879
v -0.32655 0.439474 -3.489879
v 0.313821 0.422343 -3.497437
v 0.196839 0.487967 -3.497437
v 0.067066 0.521881 -3.497437
v -0.067066 0.521881 -3.497437
v -0.196839 0.487967 -3.497437
v -0.313821 0.422343 -3.497437
v -1.328356 0.25 -1.500374
v 1.356296 0.25 -1.506748
v 1.368142 0.25 -1.512952
v 1.294569 0.509249 -1.512327
v 1.414302 0.25 -1.636256
v 1.341272 0.527621 -1.618438
v 1.41903 0.25 -1.618325
v 1.420317 0.25 -1.593514
v 1.421149 0.25 -1.603486
v 1.342668 0.52817 -1.59346
v 1.420258 0.25 -1.613668
v 1.33825 0.526432 -1.568891
v 1.416735 0.25 -1.570638
v 1.419208 0.25 -1.580238
v 1.328294 0.522516 -1.54627
v 1.405216 0.25 -1.546329
v 1.407124 0.25 -1.549188
v 1.377732 0.25 -1.517974
v 1.385396 0.25 -1.523786
v 1.313423 0.516666 -1.527014
v 1.388732 0.25 -1.527324
v 1.401745 0.25 -1.541127
v 1.272912 0.50073 -1.503131
v 1.344778 0.25 -1.503374
v 1.347055 0.25 -1.503721
v 1.323022 0.25 -1.500058
v -1.352231 0.25 -1.505297
v -1.344685 0.25 -1.503741
v -1.272905 0.500747 -1.503131
v -1.382616 0.25 -1.521544
v -1.362016 0.25 -1.509127
v -1.294562 0.509267 -1.512327
v -1.390673 0.25 -1.528521
v -1.389011 0.25 -1.527082
v -1.313416 0.516684 -1.527014
v -1.410872 0.25 -1.556038
v -1.405673 0.25 -1.546841
v -1.328287 0.522534 -1.54627
v -1.41874 0.25 -1.578076
v -1.415539 0.25 -1.56911
v -1.338243 0.52645 -1.568891
v -1.420824 0.25 -1.608715
v -1.420504 0.25 -1.588223
v -1.342661 0.528188 -1.59346
v -1.341265 0.527639 -1.618438
v -1.41234 0.25 -1.640877
v -1.416011 0.25 -1.63159
v -1.418807 0.25 -1.618303
v 1.195852 0.80457 -1.618438
v 0.745536 1.233519 -1.618438
v 0.994106 1.043622 -1.618438
v 0.461851 1.365316 -1.618438
v 0.156413 1.432805 -1.618438
v -0.156393 1.432807 -1.618438
v -0.461833 1.365322 -1.618438
v -0.74552 1.233529 -1.618438
v -0.994092 1.043636 -1.618438
v -1.195841 0.804586 -1.618438
v -1.197086 0.805423 -1.59346
v -0.995127 1.044722 -1.59346
v -0.746296 1.234813 -1.59346
v -0.462314 1.366743 -1.59346
v -0.156556 1.434299 -1.59346
v 0.156575 1.434296 -1.59346
v 0.462332 1.366737 -1.59346
v 0.746312 1.234803 -1.59346
v 0.995141 1.044709 -1.59346
v 1.197097 0.805407 -1.59346
v -1.193147 0.802773 -1.568891
v -0.991852 1.041284 -1.568891
v -0.74384 1.23075 -1.568891
v -0.460793 1.362246 -1.568891
v -0.156041 1.429579 -1.568891
v 0.15606 1.429577 -1.568891
v 0.460811 1.36224 -1.568891
v 0.743857 1.23074 -1.568891
v 0.991866 1.041271 -1.568891
v 1.193158 0.802757 -1.568891
v -1.18427 0.796801 -1.54627
v -0.984473 1.033537 -1.54627
v -0.738306 1.221593 -1.54627
v -0.457364 1.352111 -1.54627
v -0.15488 1.418943 -1.54627
v 0.154899 1.418941 -1.54627
v 0.457382 1.352105 -1.54627
v 0.738322 1.221584 -1.54627
v 0.984487 1.033524 -1.54627
v 1.184281 0.796785 -1.54627
v -1.171012 0.78788 -1.527014
v -0.973452 1.021967 -1.527014
v -0.730041 1.207917 -1.527014
v -0.452244 1.336974 -1.527014
v -0.153146 1.403057 -1.527014
v 0.153165 1.403055 -1.527014
v 0.452262 1.336968 -1.527014
v 0.730057 1.207908 -1.527014
v 0.973465 1.021954 -1.527014
v 1.171022 0.787865 -1.527014
v -1.154202 0.77657 -1.512327
v -0.959478 1.007296 -1.512327
v -0.719561 1.190578 -1.512327
v -0.445752 1.317782 -1.512327
v -0.150948 1.382917 -1.512327
v 0.150966 1.382915 -1.512327
v 0.44577 1.317776 -1.512327
v 0.719577 1.190568 -1.512327
v 0.959491 1.007284 -1.512327
v 1.154212 0.776555 -1.512327
v -1.134893 0.763579 -1.503131
v -0.943427 0.990445 -1.503131
v -0.707523 1.170661 -1.503131
v -0.438295 1.295737 -1.503131
v -0.148423 1.359782 -1.503131
v 0.148441 1.35978 -1.503131
v 0.438312 1.295731 -1.503131
v 0.707539 1.170651 -1.503131
v 0.94344 0.990433 -1.503131
v 1.134904 0.763564 -1.503131
v -1.071214 -0.25 0.5
v -1.071214 -0.25 -1.5
v -1.062518 -0.284701 -1.5
v 1.071214 0.25 0.5
v 1.062518 -0.284701 -1.5
v 1.071214 -0.25 -1.5
v 1.071214 -0.25 0.5
v -1.1 0.0 0.5
v -1.071214 0.25 0.5
v -0.952628 -0.55 -1.5
v -0.777817 -0.777817 -1.5
v -0.55 -0.952628 -1.5
v -0.284701 -1.062518 -1.5
v -0.0 -1.1 -1.5
v 0.284701 -1.062518 -1.5
v 0.55 -0.952628 -1.5
v 0.777817 -0.777817 -1.5
v 0.952628 -0.55 -1.5
v 1.1 0.0 0.5
v -8.5 2.2 1.0
v -8.5 3.0 1.0
v 8.5 2.2 1.0
v 8.5 3.0 1.0
v 8.5 -3.0 0.0
v 8.5 3.0 0.0
v 9.8 -3.0 0.0
v 10.0 2.8 0.0
v 9.8 3.0 0.0
v 9.851764 2.993185 0.0
v 9.9 2.973205 0.0
v 9.941422 2.941422 0.0
v 9.973205 2.9 0.0
v 9.993185 2.851764 0.0
v 9.9 -2.973205 0.0
v 9.993185 -2.851764 0.0
v 9.941422 -2.941422 0.0
v 9.973205 -2.9 0.0
v 10.0 -2.8 0.0
v 9.851764 -2.993185 0.0
v 10.0 -2.8 17.300001
v 10.0 2.8 17.300001
v -8.5 3.0 0.0
v -9.8 3.0 0.0
v -9.8 3.0 17.300001
v 9.8 3.0 17.300001
v -10.0 2.8 0.0
v -10.0 -2.8 0.0
v -10.0 2.8 17.300001
v -10.0 -2.8 17.300001
v -9.8 -3.0 0.0
v -8.5 -3.0 0.0
v -8.5 -3.0 1.0
v 8.5 -3.0 1.0
v 9.8 -3.0 17.300001
v -9.8 -3.0 17.300001
v -9.5 2.5 17.5
v -9.8 2.8 17.5
v -9.5 -2.5 17.5
v -9.8 -2.8 17.5
v 9.5 -2.5 17.5
v 9.8 -2.8 17.5
v 9.5 2.5 17.5
v 9.8 2.8 17.5
v -9.851764 2.993185 0.0
v -9.993185 2.851764 0.0
v -9.851764 -2.993185 0.0
v -9.993185 -2.851764 0.0
v -9.9 -2.973205 0.0
v -9.941422 -2.941422 0.0
v -9.973205 -2.9 0.0
v -9.973205 2.9 0.0
v -9.941422 2.941422 0.0
v -9.9 2.973205 0.0
v 8.5 -2.2 1.0
v -8.5 -2.2 1.0
v -9.851764 2.993185 17.300001
v -9.9 2.973205 17.300001
v -9.941422 2.941422 17.300001
v -9.973205 2.9 17.300001
v -9.993185 2.851764 17.300001
v -9.8 2.993185 17.351763
v 9.8 2.993185 17.351763
v -9.8 2.973205 17.4
v 9.8 2.973205 17.4
v -9.8 2.941422 17.441422
v 9.8 2.941422 17.441422
v -9.8 2.9 17.473206
v 9.8 2.9 17.473206
v -9.8 2.851764 17.493185
v 9.8 2.851764 17.493185
v 9.993185 2.851764 17.300001
v 9.973205 2.9 17.300001
v 9.941422 2.941422 17.300001
v 9.9 2.973205 17.300001
v 9.851764 2.993185 17.300001
v -9.993185 2.8 17.351763
v -9.986603 2.85 17.351763
v -9.886602 2.85 17.473206
v -9.844829 2.825882 17.493185
v -9.836603 2.836602 17.493185
v -9.813397 2.85 17.493185
v -9.85 2.813397 17.493185
v -9.896592 2.825882 17.473206
v -9.936603 2.836602 17.441422
v -9.851764 2.8 17.493185
v -9.87071 2.870711 17.473206
v -9.825882 2.844829 17.493185
v -9.85 2.886603 17.473206
v -9.825882 2.896592 17.473206
v -9.9 2.8 17.473206
v -9.941422 2.8 17.441422
v -9.973205 2.8 17.4
v -9.922475 2.870711 17.441422
v -9.9 2.9 17.441422
v -9.87071 2.922474 17.441422
v -9.836603 2.936603 17.441422
v -9.967303 2.844829 17.4
v -9.95 2.886603 17.4
v -9.922475 2.922474 17.4
v -9.886602 2.95 17.4
v -9.844829 2.967303 17.4
v -9.967303 2.896592 17.351763
v -9.936603 2.936603 17.351763
v -9.896592 2.967303 17.351763
v -9.85 2.986603 17.351763
v 9.85 2.986603 17.351763
v 9.85 2.886603 17.473206
v 9.825882 2.844829 17.493185
v 9.836603 2.836602 17.493185
v 9.851764 2.8 17.493185
v 9.85 2.813397 17.493185
v 9.813397 2.85 17.493185
v 9.825882 2.896592 17.473206
v 9.836603 2.936603 17.441422
v 9.87071 2.870711 17.473206
v 9.844829 2.825882 17.493185
v 9.886602 2.85 17.473206
v 9.896592 2.825882 17.473206
v 9.9 2.8 17.473206
v 9.87071 2.922474 17.441422
v 9.9 2.9 17.441422
v 9.922475 2.870711 17.441422
v 9.936603 2.836602 17.441422
v 9.941422 2.8 17.441422
v 9.844829 2.967303 17.4
v 9.886602 2.95 17.4
v 9.922475 2.922474 17.4
v 9.95 2.886603 17.4
v 9.967303 2.844829 17.4
v 9.973205 2.8 17.4
v 9.896592 2.967303 17.351763
v 9.936603 2.936603 17.351763
v 9.967303 2.896592 17.351763
v 9.986603 2.85 17.351763
v 9.993185 2.8 17.351763
v -9.993185 -2.851764 17.300001
v -9.973205 -2.9 17.300001
v -9.941422 -2.941422 17.300001
v -9.9 -2.973205 17.300001
v -9.851764 -2.993185 17.300001
v -9.993185 -2.8 17.351763
v -9.973205 -2.8 17.4
v -9.941422 -2.8 17.441422
v -9.9 -2.8 17.473206
v -9.851764 -2.8 17.493185
v 9.993185 -2.8 17.351763
v 9.973205 -2.8 17.4
v 9.941422 -2.8 17.441422
v 9.9 -2.8 17.473206
v 9.851764 -2.8 17.493185
v 9.851764 -2.993185 17.300001
v 9.9 -2.973205 17.300001
v 9.941422 -2.941422 17.300001
v 9.973205 -2.9 17.300001
v 9.993185 -2.851764 17.300001
v -9.8 -2.993185 17.351763
v -9.85 -2.986603 17.351763
v -9.85 -2.886603 17.473206
v -9.825882 -2.844829 17.493185
v -9.836603 -2.836602 17.493185
v -9.85 -2.813397 17.493185
v -9.813397 -2.85 17.493185
v -9.825882 -2.896592 17.473206
v -9.836603 -2.936603 17.441422
v -9.8 -2.851764 17.493185
v -9.87071 -2.870711 17.473206
v -9.844829 -2.825882 17.493185
v -9.886602 -2.85 17.473206
v -9.896592 -2.825882 17.473206
v -9.8 -2.9 17.473206
v -9.8 -2.941422 17.441422
v -9.8 -2.973205 17.4
v -9.87071 -2.922474 17.441422
v -9.9 -2.9 17.441422
v -9.922475 -2.870711 17.441422
v -9.936603 -2.836602 17.441422
v -9.844829 -2.967303 17.4
v -9.886602 -2.95 17.4
v -9.922475 -2.922474 17.4
v -9.95 -2.886603 17.4
v -9.967303 -2.844829 17.4
v -9.896592 -2.967303 17.351763
v -9.936603 -2.936603 17.351763
v -9.967303 -2.896592 17.351763
v -9.986603 -2.85 17.351763
v 9.986603 -2.85 17.351763
v 9.886602 -2.85 17.473206
v 9.844829 -2.825882 17.493185
v 9.836603 -2.836602 17.493185
v 9.8 -2.851764 17.493185
v 9.813397 -2.85 17.493185
v 9.85 -2.813397 17.493185
v 9.896592 -2.825882 17.473206
v 9.936603 -2.836602 17.441422
v 9.87071 -2.870711 17.473206
v 9.825882 -2.844829 17.493185
v 9.85 -2.886603 17.473206
v 9.825882 -2.896592 17.473206
v 9.8 -2.9 17.473206
v 9.922475 -2.870711 17.441422
v 9.9 -2.9 17.441422
v 9.87071 -2.922474 17.441422
v 9.836603 -2.936603 17.441422
v 9.8 -2.941422 17.441422
v 9.967303 -2.844829 17.4
v 9.95 -2.886603 17.4
v 9.922475 -2.922474 17.4
v 9.886602 -2.95 17.4
v 9.844829 -2.967303 17.4
v 9.8 -2.973205 17.4
v 9.967303 -2.896592 17.351763
v 9.936603 -2.936603 17.351763
v 9.896592 -2.967303 17.351763
v 9.85 -2.986603 17.351763
v 9.8 -2.993185 17.351763
v -5.8 -1.125 -1.5
v -5.8 -1.375 -1.5
newmtl 2
Ka 0.8509803921568627 0.8509803921568627 0.8509803921568627
Kd 0.8509803921568627 0.8509803921568627 0.8509803921568627
Ks 0.4235294117647059 0.4235294117647059 0.4235294117647059
d 0.0
endmtl
v -7.0 -1.375 -1.5
v -6.081081 -1.375 -3.5
v -6.718918 -1.375 -3.5
v -7.0 -1.125 -1.5
v -6.081081 -1.125 -3.5
v -6.718918 -1.125 -3.5
v 7.0 1.375 -1.5
v 7.0 1.125 -1.5
v 5.8 1.125 -1.5
v 6.718918 1.125 -3.5
v 6.081081 1.125 -3.5
v 5.8 1.375 -1.5
v 6.718918 1.375 -3.5
v 6.081081 1.375 -3.5
v -2.3 -1.125 -1.5
v -2.3 -1.375 -1.5
v -3.5 -1.375 -1.5
v -2.581082 -1.375 -3.5
v -3.218918 -1.375 -3.5
v -3.5 -1.125 -1.5
v -2.581082 -1.125 -3.5
v -3.218918 -1.125 -3.5
v -2.3 1.375 -1.5
v -2.3 1.125 -1.5
v -3.5 1.125 -1.5
v -2.581082 1.125 -3.5
v -3.218918 1.125 -3.5
v -3.5 1.375 -1.5
v -2.581082 1.375 -3.5
v -3.218918 1.375 -3.5
v -5.8 1.375 -1.5
v -5.8 1.125 -1.5
v -7.0 1.125 -1.5
v -6.081081 1.125 -3.5
v -6.718918 1.125 -3.5
v -7.0 1.375 -1.5
v -6.081081 1.375 -3.5
v -6.718918 1.375 -3.5
v 3.5 1.375 -1.5
v 3.5 1.125 -1.5
v 2.3 1.125 -1.5
v 3.218918 1.125 -3.5
v 2.581082 1.125 -3.5
v 2.3 1.375 -1.5
v 3.218918 1.375 -3.5
v 2.581082 1.375 -3.5
v 3.5 -1.125 -1.5
v 3.5 -1.375 -1.5
v 2.3 -1.375 -1.5
v 3.218918 -1.375 -3.5
v 2.581082 -1.375 -3.5
v 2.3 -1.125 -1.5
v 3.218918 -1.125 -3.5
v 2.581082 -1.125 -3.5
v 7.0 -1.125 -1.5
v 7.0 -1.375 -1.5
v 5.8 -1.375 -1.5
v 6.718918 -1.375 -3.5
v 6.081081 -1.375 -3.5
v 5.8 -1.125 -1.5
v 6.718918 -1.125 -3.5
v 6.081081 -1.125 -3.5
v 1.249816 -0.491624 -1.5
v 1.319558 -0.25 -1.5
v -0.145749 -1.335099 -1.5
v 0.145733 -1.335101 -1.5
v 0.43035 -1.272215 -1.5
v 0.694697 -1.149404 -1.5
v 0.926321 -0.972452 -1.5
v 1.114312 -0.749695 -1.5
v -1.319558 -0.25 -1.5
v -1.249822 -0.491608 -1.5
v -1.114321 -0.749681 -1.5
v -0.926333 -0.972441 -1.5
v -0.694711 -1.149395 -1.5
v -0.430366 -1.27221 -1.5
v -0.437254 -0.25 -3.5
v 0.437254 -0.25 -3.5
v -0.392864 -0.315197 -3.5
v 0.392864 -0.315197 -3.5
v 0.300405 -0.404287 -3.5
v -0.300405 -0.404287 -3.5
v -0.188424 -0.467106 -3.5
v -0.064199 -0.49957 -3.5
v 0.188424 -0.467106 -3.5
v 0.064199 -0.49957 -3.5
v -0.566955 -0.25 -3.387966
v -0.539168 -0.25 -3.442262
v -0.464819 -0.369874 -3.442262
v -1.189518 -0.800271 -1.642262
v -1.307245 -0.57605 -1.642262
v -0.994507 -0.25 -2.51768
v -1.334163 -0.524783 -1.642262
v -1.411697 -0.25 -1.642262
v 0.464819 -0.369874 -3.442262
v 0.539168 -0.25 -3.442262
v 0.584596 -0.25 -3.35002
v 1.411697 -0.25 -1.642262
v 1.334156 -0.5248 -1.642262
v 0.994519 -0.25 -2.517655
v 1.307246 -0.576051 -1.642262
v 1.189508 -0.800286 -1.642262
v 1.115868 -0.887545 -1.642262
v 0.463555 -0.371913 -3.442262
v 0.988831 -1.038076 -1.642262
v 0.355692 -0.475846 -3.442262
v 0.853314 -1.141606 -1.642262
v 0.354459 -0.477034 -3.442262
v 0.741576 -1.226969 -1.642262
v 0.223224 -0.550653 -3.442262
v 0.535823 -1.322558 -1.642262
v 0.222329 -0.551156 -3.442262
v 0.459391 -1.358068 -1.642262
v 0.076082 -0.589375 -3.442262
v 0.182959 -1.419145 -1.642262
v 0.07575 -0.589461 -3.442262
v -0.07575 -0.589461 -3.442262
v 0.155567 -1.425197 -1.642262
v -0.155585 -1.425195 -1.642262
v -0.076082 -0.589375 -3.442262
v -0.18296 -1.419146 -1.642262
v -0.222329 -0.551156 -3.442262
v -0.459408 -1.358062 -1.642262
v -0.223224 -0.550653 -3.442262
v -0.535823 -1.322559 -1.642262
v -0.354459 -0.477034 -3.442262
v -0.741592 -1.226959 -1.642262
v -0.355692 -0.475846 -3.442262
v -0.853314 -1.141606 -1.642262
v -0.463555 -0.371913 -3.442262
v -0.988844 -1.038063 -1.642262
v -1.115867 -0.887545 -1.642262
v -0.457426 -0.25 -3.498438
v 0.458435 -0.25 -3.498275
v 0.462966 -0.25 -3.497377
v 0.41041 -0.329274 -3.497437
v 0.466305 -0.25 -3.496716
v 0.493089 -0.25 -3.487078
v 0.427057 -0.34263 -3.489879
v 0.499797 -0.25 -3.483412
v 0.507944 -0.25 -3.477192
v 0.441951 -0.354579 -3.477715
v 0.538876 -0.25 -3.442827
v 0.454328 -0.36451 -3.461566
v 0.520185 -0.25 -3.467845
v 0.525612 -0.25 -3.462126
v 0.526025 -0.25 -3.461525
v -0.41041 -0.329274 -3.497437
v -0.462769 -0.25 -3.496957
v -0.499568 -0.25 -3.483548
v -0.484813 -0.25 -3.490845
v -0.427057 -0.34263 -3.489879
v -0.519582 -0.25 -3.46843
v -0.507963 -0.25 -3.477206
v -0.441951 -0.354579 -3.477715
v -0.532554 -0.25 -3.45326
v -0.526535 -0.25 -3.46106
v -0.454328 -0.36451 -3.461566
v -0.526075 -0.25 -3.461548
v 0.347404 -0.467539 -3.461566
v 0.217903 -0.540185 -3.461566
v 0.074243 -0.577728 -3.461566
v -0.074243 -0.577728 -3.461566
v -0.217903 -0.540185 -3.461566
v -0.347404 -0.467539 -3.461566
v -0.337939 -0.454801 -3.477715
v -0.211967 -0.525468 -3.477715
v -0.07222 -0.561988 -3.477715
v 0.07222 -0.561988 -3.477715
v 0.211967 -0.525468 -3.477715
v 0.337939 -0.454801 -3.477715
v -0.32655 -0.439474 -3.489879
v -0.204823 -0.50776 -3.489879
v -0.069786 -0.543049 -3.489879
v 0.069786 -0.543049 -3.489879
v 0.204823 -0.50776 -3.489879
v 0.32655 -0.439474 -3.489879
v -0.313821 -0.422343 -3.497437
v -0.196839 -0.487967 -3.497437
v -0.067066 -0.521881 -3.497437
v 0.067066 -0.521881 -3.497437
v 0.196839 -0.487967 -3.497437
v 0.313821 -0.422343 -3.497437
v -1.416788 -0.25 -1.629192
v 1.322741 -0.25 -1.500049
v 1.346884 -0.25 -1.503674
v 1.344781 -0.25 -1.503358
v 1.272919 -0.500712 -1.503131
v 1.378124 -0.25 -1.518244
v 1.368138 -0.25 -1.51295
v 1.294576 -0.509231 -1.512327
v 1.35682 -0.25 -1.506949
v 1.402576 -0.25 -1.542267
v 1.386547 -0.25 -1.524762
v 1.31343 -0.516647 -1.527014
v 1.408291 -0.25 -1.551188
v 1.405188 -0.25 -1.546344
v 1.328301 -0.522497 -1.54627
v 1.41971 -0.25 -1.58287
v 1.417379 -0.25 -1.572788
v 1.338257 -0.526413 -1.568891
v 1.419883 -0.25 -1.616118
v 1.421018 -0.25 -1.606149
v 1.342676 -0.528151 -1.59346
v 1.420307 -0.25 -1.593497
v 1.34128 -0.527602 -1.618438
v 1.419229 -0.25 -1.61837
v 1.413395 -0.25 -1.638473
v -1.341286 -0.527585 -1.618438
v -1.418928 -0.25 -1.618334
v -1.342682 -0.528134 -1.59346
v -1.420124 -0.25 -1.585407
v -1.420824 -0.25 -1.608715
v -1.338264 -0.526396 -1.568891
v -1.415622 -0.25 -1.569096
v -1.418162 -0.25 -1.57568
v -1.328308 -0.52248 -1.54627
v -1.404729 -0.25 -1.545388
v -1.409716 -0.25 -1.553786
v -1.313437 -0.516631 -1.527014
v -1.389062 -0.25 -1.527026
v -1.389342 -0.25 -1.527262
v -1.352166 -0.25 -1.505275
v -1.361211 -0.25 -1.508767
v -1.294583 -0.509215 -1.512327
v -1.368148 -0.25 -1.512871
v -1.381991 -0.25 -1.521061
v -1.328265 -0.25 -1.500367
v -1.19587 -0.804544 -1.618438
v -0.745551 -1.23351 -1.618438
v -0.994124 -1.043606 -1.618438
v -0.461861 -1.365313 -1.618438
v -0.156415 -1.432804 -1.618438
v 0.156398 -1.432806 -1.618438
v 0.461844 -1.365319 -1.618438
v 0.745536 -1.23352 -1.618438
v 0.994111 -1.043618 -1.618438
v 1.19586 -0.804559 -1.618438
v 1.197104 -0.805396 -1.59346
v 0.995145 -1.044704 -1.59346
v 0.746312 -1.234804 -1.59346
v 0.462325 -1.36674 -1.59346
v 0.15656 -1.434298 -1.59346
v -0.156578 -1.434296 -1.59346
v -0.462342 -1.366734 -1.59346
v -0.746327 -1.234794 -1.59346
v -0.995158 -1.044692 -1.59346
v -1.197114 -0.805381 -1.59346
v 1.193165 -0.802746 -1.568891
v 0.991871 -1.041267 -1.568891
v 0.743856 -1.23074 -1.568891
v 0.460803 -1.362242 -1.568891
v 0.156045 -1.429578 -1.568891
v -0.156063 -1.429576 -1.568891
v -0.46082 -1.362237 -1.568891
v -0.743871 -1.230731 -1.568891
v -0.991884 -1.041254 -1.568891
v -1.193175 -0.802731 -1.568891
v 1.184288 -0.796774 -1.54627
v 0.984491 -1.03352 -1.54627
v 0.738322 -1.221584 -1.54627
v 0.457375 -1.352108 -1.54627
v 0.154884 -1.418942 -1.54627
v -0.154902 -1.418941 -1.54627
v -0.457392 -1.352102 -1.54627
v -0.738337 -1.221575 -1.54627
v -0.984504 -1.033508 -1.54627
v -1.184298 -0.796759 -1.54627
v 1.17103 -0.787853 -1.527014
v 0.97347 -1.021949 -1.527014
v 0.730056 -1.207908 -1.527014
v 0.452255 -1.33697 -1.527014
v 0.15315 -1.403057 -1.527014
v -0.153168 -1.403055 -1.527014
v -0.452271 -1.336964 -1.527014
v -0.730071 -1.207899 -1.527014
v -0.973482 -1.021937 -1.527014
v -1.17104 -0.787839 -1.527014
v 1.15422 -0.776544 -1.512327
v 0.959496 -1.007279 -1.512327
v 0.719576 -1.190569 -1.512327
v 0.445763 -1.317778 -1.512327
v 0.150952 -1.382916 -1.512327
v -0.150969 -1.382914 -1.512327
v -0.445779 -1.317773 -1.512327
v -0.719591 -1.19056 -1.512327
v -0.959508 -1.007267 -1.512327
v -1.154229 -0.776529 -1.512327
v 1.134911 -0.763553 -1.503131
v 0.943444 -0.990429 -1.503131
v 0.707538 -1.170652 -1.503131
v 0.438305 -1.295733 -1.503131
v 0.148427 -1.359781 -1.503131
v -0.148444 -1.35978 -1.503131
v -0.438322 -1.295728 -1.503131
v -0.707553 -1.170643 -1.503131
v -0.943457 -0.990417 -1.503131
v -1.13492 -0.763539 -1.503131
v -1.272925 -0.500696 -1.503131
v -1.344686 -0.25 -1.503739
v 5.486889 0.033876 3.01
v 5.682011 0.533876 3.01
newmtl 3
Ka 1.0 1.0 1.0
Kd 1.0 1.0 1.0
Ks 0.8784313725490196 0.8784313725490196 0.8784313725490196
d 0.0
endmtl
v 5.60884 0.533876 3.01
v 5.558249 0.393632 3.01
v 5.351695 0.393632 3.01
v 5.303962 0.533876 3.01
v 5.230792 0.533876 3.01
v 5.419816 0.033876 3.01
v 5.368558 0.338754 3.01
v 5.535765 0.338754 3.01
v 5.443158 0.129912 3.01
v 5.447887 0.112551 3.01
v 5.451161 0.094851 3.01
v 5.452781 0.094851 3.01
v 5.456043 0.112518 3.01
v 5.460498 0.129912 3.01
v 5.368558 0.338754 3.0
v 5.535765 0.338754 3.0
v 5.443158 0.129912 3.0
v 5.447887 0.112551 3.0
v 5.451161 0.094851 3.0
v 5.452781 0.094851 3.0
v 5.456043 0.112518 3.0
v 5.460498 0.129912 3.0
v 4.927724 0.533876 3.01
v 4.791767 0.533876 3.01
v 4.791767 0.033876 3.01
v 4.932868 0.033876 3.01
v 5.194206 0.277587 3.01
v 5.193252 0.252877 3.01
v 5.183618 0.200055 3.01
v 5.162563 0.151525 3.01
v 5.132581 0.11237 3.01
v 5.113164 0.094368 3.01
v 5.063635 0.062136 3.01
v 5.005104 0.041598 3.01
v 4.991075 0.5282 3.01
v 5.048632 0.510691 3.01
v 5.100394 0.480211 3.01
v 5.141261 0.440701 3.01
v 5.169311 0.3966 3.01
v 5.187203 0.344494 3.01
v 5.127133 0.279017 3.01
v 5.122886 0.229248 3.01
v 5.111194 0.189745 3.01
v 5.094077 0.159047 3.01
v 5.069817 0.133215 3.01
v 5.033393 0.109665 3.01
v 4.992104 0.095124 3.01
v 4.932582 0.088754 3.01
v 4.85884 0.088754 3.01
v 4.85884 0.478998 3.01
v 4.92982 0.478998 3.01
v 4.982643 0.474075 3.01
v 5.024712 0.460963 3.01
v 5.058512 0.440883 3.01
v 5.086765 0.413063 3.01
v 5.107703 0.378923 3.01
v 5.120962 0.33916 3.01
v 4.932582 0.088754 3.0
v 4.85884 0.088754 3.0
v 4.992104 0.095124 3.0
v 5.033393 0.109665 3.0
v 5.069817 0.133215 3.0
v 5.094077 0.159047 3.0
v 5.111194 0.189745 3.0
v 5.122886 0.229248 3.0
v 5.127133 0.279017 3.0
v 5.120962 0.33916 3.0
v 5.107703 0.378923 3.0
v 5.086765 0.413063 3.0
v 5.058512 0.440883 3.0
v 5.024712 0.460963 3.0
v 4.982643 0.474075 3.0
v 4.92982 0.478998 3.0
v 4.85884 0.478998 3.0
v 4.694206 0.478998 3.01
v 4.694206 0.533876 3.01
v 4.425913 0.533876 3.01
v 4.425913 0.033876 3.01
v 4.682011 0.033876 3.01
v 4.682011 0.088754 3.01
v 4.492987 0.088754 3.01
v 4.492987 0.253388 3.01
v 4.669816 0.253388 3.01
v 4.669816 0.308266 3.01
v 4.492987 0.308266 3.01
v 4.492987 0.478998 3.01
v 4.328352 0.453083 3.01
v 4.328352 0.507961 3.01
v 4.190776 0.539973 3.01
v 4.204448 0.539739 3.01
v 4.275055 0.529845 3.01
v 3.956401 0.293308 3.01
v 3.961315 0.351651 3.01
v 3.976812 0.405298 3.01
v 4.00351 0.452353 3.01
v 4.040106 0.49091 3.01
v 4.080702 0.516951 3.01
v 4.129254 0.533595 3.01
v 4.210689 0.027778 3.01
v 4.15789 0.032337 3.01
v 4.103038 0.04881 3.01
v 4.056302 0.076056 3.01
v 4.012668 0.118015 3.01
v 3.982828 0.16536 3.01
v 3.963584 0.222319 3.01
v 4.270544 0.031908 3.01
v 4.328352 0.047595 3.01
v 4.328352 0.114668 3.01
v 4.21126 0.082656 3.01
v 4.272033 0.090552 3.01
v 4.023474 0.289211 3.01
v 4.025688 0.251684 3.01
v 4.038916 0.197549 3.01
v 4.059319 0.158875 3.01
v 4.089375 0.125377 3.01
v 4.124801 0.101629 3.01
v 4.16203 0.088172 3.01
v 4.200017 0.485095 3.01
v 4.153618 0.47992 3.01
v 4.116843 0.466405 3.01
v 4.086139 0.445564 3.01
v 4.062889 0.421036 3.01
v 4.042101 0.386307 3.01
v 4.028529 0.3433 3.01
v 4.319391 0.458047 3.01
v 4.266388 0.477728 3.01
v 3.913718 0.478998 3.01
v 3.913718 0.533876 3.01
v 3.657621 0.533876 3.01
v 3.657621 0.033876 3.01
v 3.724694 0.033876 3.01
v 3.724694 0.478998 3.01
v 2.276362 1.125 12.5
v 2.276362 1.375 12.5
v 2.231858 1.119986 12.5
v 2.176227 1.363718 12.5
v 2.189585 1.105194 12.5
v 2.081114 1.330436 12.5
v 2.151664 1.081366 12.5
v 1.995791 1.276824 12.5
v 2.119995 1.049698 12.5
v 1.924538 1.20557 12.5
v 2.096168 1.011777 12.5
v 1.870926 1.120248 12.5
v 2.081376 0.969504 12.5
v 1.837644 1.025134 12.5
v 2.076362 0.925 12.5
v 1.826362 0.925 12.5
v 2.076362 -0.925 12.5
v 1.826362 -0.925 12.5
v 2.081376 -0.969504 12.5
v 1.837644 -1.025134 12.5
v 2.096168 -1.011777 12.5
v 1.870926 -1.120248 12.5
v 2.119995 -1.049698 12.5
v 1.924538 -1.20557 12.5
v 2.151664 -1.081366 12.5
v 1.995791 -1.276824 12.5
v 2.189585 -1.105194 12.5
v 2.081114 -1.330436 12.5
v 2.231858 -1.119986 12.5
v 2.176227 -1.363718 12.5
v 2.276362 -1.125 12.5
v 2.276362 -1.375 12.5
v 7.023638 -1.125 12.5
v 7.023638 -1.375 12.5
v 7.068142 -1.119986 12.5
v 7.123773 -1.363718 12.5
v 7.110415 -1.105194 12.5
v 7.218886 -1.330436 12.5
v 7.148336 -1.081366 12.5
v 7.304209 -1.276824 12.5
v 7.180005 -1.049698 12.5
v 7.375463 -1.20557 12.5
v 7.203832 -1.011777 12.5
v 7.429074 -1.120248 12.5
v 7.218624 -0.969504 12.5
v 7.462356 -1.025134 12.5
v 7.223638 -0.925 12.5
v 7.473638 -0.925 12.5
v 7.223638 0.925 12.5
v 7.473638 0.925 12.5
v 7.218624 0.969504 12.5
v 7.462356 1.025134 12.5
v 7.203832 1.011777 12.5
v 7.429074 1.120248 12.5
v 7.180005 1.049698 12.5
v 7.375463 1.20557 12.5
v 7.148336 1.081366 12.5
v 7.304209 1.276824 12.5
v 7.110415 1.105194 12.5
v 7.218886 1.330436 12.5
v 7.068142 1.119986 12.5
v 7.123773 1.363718 12.5
v 7.023638 1.125 12.5
v 7.023638 1.375 12.5
v 2.076362 0.925 7.5
v 2.081376 0.969504 7.5
v 2.096168 1.011777 7.5
v 2.119995 1.049698 7.5
v 2.151664 1.081366 7.5
v 2.189585 1.105194 7.5
v 2.231858 1.119986 7.5
v 2.276362 1.125 7.5
v 2.076362 -0.925 7.5
v 2.276362 -1.125 7.5
v 2.231858 -1.119986 7.5
v 2.189585 -1.105194 7.5
v 2.151664 -1.081366 7.5
v 2.119995 -1.049698 7.5
v 2.096168 -1.011777 7.5
v 2.081376 -0.969504 7.5
v 7.023638 -1.125 7.5
v 7.223638 -0.925 7.5
v 7.218624 -0.969504 7.5
v 7.203832 -1.011777 7.5
v 7.180005 -1.049698 7.5
v 7.148336 -1.081366 7.5
v 7.110415 -1.105194 7.5
v 7.068142 -1.119986 7.5
v 7.223638 0.925 7.5
v 7.023638 1.125 7.5
v 7.068142 1.119986 7.5
v 7.110415 1.105194 7.5
v 7.148336 1.081366 7.5
v 7.180005 1.049698 7.5
v 7.203832 1.011777 7.5
v 7.218624 0.969504 7.5
v -2.276362 1.125 12.5
v -2.276362 1.375 12.5
v -7.023638 1.125 12.5
v -7.023638 1.375 12.5
v -7.068142 1.119986 12.5
v -7.123773 1.363718 12.5
v -7.110415 1.105194 12.5
v -7.218886 1.330436 12.5
v -7.148336 1.081366 12.5
v -7.304209 1.276824 12.5
v -7.180005 1.049698 12.5
v -7.375463 1.20557 12.5
v -7.203832 1.011777 12.5
v -7.429074 1.120248 12.5
v -7.218624 0.969504 12.5
v -7.462356 1.025134 12.5
v -7.223638 0.925 12.5
v -7.473638 0.925 12.5
v -7.223638 -0.925 12.5
v -7.473638 -0.925 12.5
v -7.218624 -0.969504 12.5
v -7.462356 -1.025134 12.5
v -7.203832 -1.011777 12.5
v -7.429074 -1.120248 12.5
v -7.180005 -1.049698 12.5
v -7.375463 -1.20557 12.5
v -7.148336 -1.081366 12.5
v -7.304209 -1.276824 12.5
v -7.110415 -1.105194 12.5
v -7.218886 -1.330436 12.5
v -7.068142 -1.119986 12.5
v -7.123773 -1.363718 12.5
v -7.023638 -1.125 12.5
v -7.023638 -1.375 12.5
v -2.276362 -1.125 12.5
v -2.276362 -1.375 12.5
v -2.231858 -1.119986 12.5
v -2.176227 -1.363718 12.5
v -2.189585 -1.105194 12.5
v -2.081114 -1.330436 12.5
v -2.151664 -1.081366 12.5
v -1.995791 -1.276824 12.5
v -2.119995 -1.049698 12.5
v -1.924538 -1.20557 12.5
v -2.096168 -1.011777 12.5
v -1.870926 -1.120248 12.5
v -2.081376 -0.969504 12.5
v -1.837644 -1.025134 12.5
v -2.076362 -0.925 12.5
v -1.826362 -0.925 12.5
v -2.076362 0.925 12.5
v -1.826362 0.925 12.5
v -2.081376 0.969504 12.5
v -1.837644 1.025134 12.5
v -2.096168 1.011777 12.5
v -1.870926 1.120248 12.5
v -2.119995 1.049698 12.5
v -1.924538 1.20557 12.5
v -2.151664 1.081366 12.5
v -1.995791 1.276824 12.5
v -2.189585 1.105194 12.5
v -2.081114 1.330436 12.5
v -2.231858 1.119986 12.5
v -2.176227 1.363718 12.5
v -7.223638 0.925 7.5
v -7.218624 0.969504 7.5
v -7.203832 1.011777 7.5
v -7.180005 1.049698 7.5
v -7.148336 1.081366 7.5
v -7.110415 1.105194 7.5
v -7.068142 1.119986 7.5
v -7.023638 1.125 7.5
v -7.223638 -0.925 7.5
v -7.023638 -1.125 7.5
v -7.068142 -1.119986 7.5
v -7.110415 -1.105194 7.5
v -7.148336 -1.081366 7.5
v -7.180005 -1.049698 7.5
v -7.203832 -1.011777 7.5
v -7.218624 -0.969504 7.5
v -2.276362 -1.125 7.5
v -2.076362 -0.925 7.5
v -2.081376 -0.969504 7.5
v -2.096168 -1.011777 7.5
v -2.119995 -1.049698 7.5
v -2.151664 -1.081366 7.5
v -2.189585 -1.105194 7.5
v -2.231858 -1.119986 7.5
v -2.076362 0.925 7.5
v -2.276362 1.125 7.5
v -2.231858 1.119986 7.5
v -2.189585 1.105194 7.5
v -2.151664 1.081366 7.5
v -2.119995 1.049698 7.5
v -2.096168 1.011777 7.5
v -2.081376 0.969504 7.5
usemtl 1
f 1// 2// 3//
f 4// 5// 6//
f 7// 8// 4//
f 9// 10// 11//
f 11// 10// 12//
f 12// 13// 11//
f 11// 13// 14//
f 11// 14// 15//
f 16// 17// 18//
f 18// 19// 20//
f 20// 21// 18//
f 18// 21// 22//
f 18// 22// 23//
f 23// 24// 18//
f 18// 24// 25//
f 18// 25// 26//
f 26// 25// 27//
f 27// 28// 26//
f 26// 28// 29//
f 26// 29// 30//
f 30// 31// 26//
f 26// 31// 32//
f 26// 32// 33//
f 6// 34// 4//
f 4// 34// 35//
f 4// 35// 36//
f 3// 2// 36//
f 36// 2// 37//
f 36// 37// 38//
f 7// 4// 39//
f 8// 40// 4//
f 4// 40// 41//
f 4// 41// 42//
f 43// 44// 17//
f 42// 45// 4//
f 4// 45// 46//
f 4// 46// 11//
f 11// 46// 47//
f 11// 47// 9//
f 38// 48// 36//
f 36// 48// 49//
f 36// 49// 4//
f 4// 49// 50//
f 4// 50// 39//
f 33// 51// 26//
f 26// 51// 52//
f 26// 52// 4//
f 4// 52// 53//
f 4// 53// 5//
f 15// 54// 11//
f 11// 54// 55//
f 11// 55// 18//
f 18// 55// 56//
f 18// 56// 16//
f 57// 58// 59//
f 59// 58// 60//
f 59// 60// 61//
f 57// 59// 17//
f 17// 59// 62//
f 17// 62// 43//
f 44// 63// 17//
f 17// 63// 64//
f 17// 64// 18//
f 18// 64// 65//
f 18// 65// 19//
f 61// 60// 66//
f 66// 60// 67//
f 66// 67// 3//
f 3// 67// 68//
f 3// 68// 1//
f 69// 70// 71//
f 72// 73// 74//
f 75// 76// 77//
f 77// 76// 78//
f 76// 79// 78//
f 78// 79// 80//
f 78// 80// 81//
f 81// 82// 78//
f 78// 82// 83//
f 78// 83// 84//
f 84// 83// 85//
f 84// 85// 86//
f 86// 87// 84//
f 84// 87// 88//
f 84// 88// 89//
f 89// 88// 90//
f 91// 92// 93//
f 93// 94// 91//
f 91// 94// 95//
f 91// 95// 77//
f 77// 95// 96//
f 77// 96// 75//
f 92// 91// 97//
f 97// 91// 98//
f 97// 98// 99//
f 99// 98// 100//
f 100// 98// 71//
f 100// 71// 101//
f 102// 103// 104//
f 104// 103// 105//
f 104// 105// 71//
f 71// 105// 106//
f 71// 106// 101//
f 90// 107// 89//
f 89// 107// 108//
f 89// 108// 104//
f 104// 108// 109//
f 104// 109// 102//
f 110// 111// 112//
f 112// 111// 113//
f 112// 113// 114//
f 115// 116// 110//
f 110// 116// 117//
f 110// 117// 118//
f 119// 120// 121//
f 121// 120// 111//
f 121// 111// 122//
f 122// 111// 110//
f 122// 110// 123//
f 123// 110// 118//
f 124// 125// 126//
f 127// 128// 129//
f 129// 128// 130//
f 129// 130// 131//
f 119// 132// 120//
f 120// 132// 133//
f 120// 133// 134//
f 134// 135// 120//
f 120// 135// 136//
f 120// 136// 137//
f 137// 138// 120//
f 120// 138// 139//
f 120// 139// 140//
f 141// 142// 143//
f 143// 142// 144//
f 140// 145// 120//
f 120// 145// 142//
f 120// 142// 146//
f 146// 142// 141//
f 125// 147// 126//
f 126// 147// 148//
f 126// 148// 149//
f 114// 150// 112//
f 112// 150// 151//
f 112// 151// 129//
f 129// 151// 152//
f 129// 152// 127//
f 131// 153// 129//
f 129// 153// 154//
f 129// 154// 126//
f 126// 154// 155//
f 126// 155// 124//
f 156// 157// 116//
f 116// 157// 158//
f 116// 158// 117//
f 72// 159// 160//
f 160// 159// 161//
f 160// 161// 162//
f 162// 161// 78//
f 162// 78// 163//
f 163// 78// 84//
f 163// 84// 164//
f 164// 84// 165//
f 164// 165// 166//
f 166// 165// 156//
f 166// 156// 167//
f 167// 156// 116//
f 167// 116// 168//
f 168// 116// 115//
f 168// 115// 169//
f 170// 171// 172//
f 173// 174// 172//
f 172// 174// 175//
f 172// 175// 170//
f 170// 175// 176//
f 177// 178// 170//
f 170// 178// 179//
f 170// 179// 171//
f 149// 157// 126//
f 126// 157// 156//
f 126// 156// 180//
f 180// 156// 165//
f 180// 165// 181//
f 181// 165// 182//
f 182// 165// 183//
f 183// 165// 84//
f 183// 84// 184//
f 184// 84// 89//
f 184// 89// 181//
f 185// 77// 186//
f 186// 77// 78//
f 186// 78// 187//
f 187// 78// 161//
f 187// 161// 188//
f 188// 161// 189//
f 188// 189// 185//
f 190// 189// 191//
f 191// 189// 161//
f 191// 161// 192//
f 192// 161// 159//
f 192// 159// 193//
f 193// 159// 194//
f 195// 196// 197//
f 198// 199// 200//
f 200// 199// 201//
f 200// 201// 177//
f 201// 202// 177//
f 177// 202// 203//
f 177// 203// 178//
f 178// 203// 204//
f 178// 204// 198//
f 198// 204// 195//
f 198// 195// 199//
f 199// 195// 197//
f 205// 206// 207//
f 207// 206// 208//
f 209// 210// 177//
f 177// 210// 211//
f 177// 211// 212//
f 213// 214// 200//
f 213// 200// 215//
f 176// 216// 170//
f 170// 216// 217//
f 170// 217// 177//
f 177// 217// 206//
f 177// 206// 209//
f 209// 206// 205//
f 214// 218// 200//
f 200// 218// 219//
f 200// 219// 208//
f 208// 219// 220//
f 208// 220// 207//
f 212// 221// 177//
f 177// 221// 222//
f 177// 222// 223//
f 223// 224// 177//
f 177// 224// 225//
f 177// 225// 200//
f 200// 225// 226//
f 200// 226// 215//
f 216// 169// 217//
f 217// 169// 115//
f 217// 115// 206//
f 206// 115// 110//
f 206// 110// 227//
f 227// 228// 206//
f 206// 228// 229//
f 206// 229// 208//
f 208// 229// 230//
f 208// 230// 112//
f 112// 230// 231//
f 112// 231// 110//
f 110// 231// 232//
f 110// 232// 227//
f 233// 234// 235//
f 235// 234// 229//
f 235// 229// 236//
f 236// 229// 228//
f 236// 228// 237//
f 237// 228// 238//
f 239// 240// 241//
f 242// 243// 180//
f 180// 243// 239//
f 180// 239// 126//
f 126// 239// 241//
f 126// 241// 129//
f 129// 241// 244//
f 129// 244// 245//
f 245// 244// 242//
f 245// 242// 180//
f 245// 246// 129//
f 129// 246// 247//
f 129// 247// 112//
f 112// 247// 248//
f 112// 248// 208//
f 208// 248// 249//
f 208// 249// 200//
f 200// 249// 250//
f 200// 250// 198//
f 198// 250// 251//
f 185// 189// 77//
f 77// 189// 252//
f 77// 252// 91//
f 91// 252// 253//
f 91// 253// 98//
f 254// 255// 256//
f 257// 258// 251//
f 251// 258// 259//
f 256// 255// 259//
f 259// 255// 260//
f 259// 260// 251//
f 251// 260// 261//
f 251// 261// 198//
f 198// 261// 174//
f 198// 174// 178//
f 178// 174// 173//
f 178// 173// 179//
f 262// 263// 264//
f 181// 89// 180//
f 180// 89// 104//
f 180// 104// 245//
f 245// 104// 71//
f 245// 71// 246//
f 246// 71// 70//
f 246// 70// 265//
f 256// 257// 254//
f 254// 257// 251//
f 254// 251// 266//
f 266// 251// 250//
f 266// 250// 267//
f 267// 250// 249//
f 267// 249// 268//
f 268// 249// 248//
f 268// 248// 269//
f 269// 248// 247//
f 269// 247// 263//
f 263// 247// 246//
f 263// 246// 264//
f 264// 246// 265//
f 98// 270// 71//
f 71// 270// 262//
f 71// 262// 69//
f 69// 262// 264//
f 271// 270// 272//
f 272// 270// 98//
f 272// 98// 273//
f 273// 98// 253//
f 273// 253// 274//
f 274// 253// 275//
f 274// 275// 271//
f 271// 275// 270//
f 276// 277// 278//
f 277// 276// 279//
f 279// 276// 280//
f 279// 280// 281//
f 281// 280// 275//
f 281// 275// 278//
f 278// 275// 253//
f 278// 253// 276//
f 276// 253// 252//
f 276// 252// 282//
f 282// 252// 189//
f 282// 189// 194//
f 194// 189// 190//
f 194// 190// 193//
f 72// 74// 159//
f 159// 74// 283//
f 159// 283// 194//
f 194// 283// 284//
f 194// 284// 282//
f 282// 284// 285//
f 282// 285// 276//
f 276// 285// 286//
f 276// 286// 280//
f 287// 288// 289//
f 289// 288// 290//
f 289// 290// 291//
f 292// 293// 294//
f 294// 293// 295//
f 294// 295// 296//
f 296// 295// 297//
f 296// 297// 298//
f 298// 297// 299//
f 298// 299// 300//
f 300// 299// 301//
f 300// 301// 287//
f 287// 301// 302//
f 287// 302// 288//
f 303// 304// 305//
f 305// 304// 306//
f 305// 306// 307//
f 307// 306// 308//
f 307// 308// 309//
f 309// 308// 310//
f 309// 310// 311//
f 311// 310// 312//
f 311// 312// 292//
f 292// 312// 313//
f 292// 313// 293//
f 314// 315// 316//
f 316// 315// 317//
f 316// 317// 318//
f 319// 320// 321//
f 321// 320// 322//
f 321// 322// 317//
f 317// 322// 323//
f 317// 323// 318//
f 324// 325// 326//
f 326// 327// 324//
f 324// 327// 328//
f 324// 328// 329//
f 329// 328// 330//
f 329// 330// 331//
f 332// 333// 334//
f 335// 336// 337//
f 337// 336// 338//
f 337// 338// 334//
f 334// 338// 339//
f 334// 339// 332//
f 332// 339// 340//
f 332// 340// 341//
f 341// 340// 342//
f 341// 342// 343//
f 343// 342// 344//
f 343// 344// 345//
f 345// 344// 346//
f 345// 346// 347//
f 347// 346// 348//
f 347// 348// 349//
f 349// 348// 350//
f 349// 350// 351//
f 351// 350// 352//
f 351// 352// 353//
f 353// 352// 354//
f 352// 355// 354//
f 354// 355// 356//
f 354// 356// 357//
f 357// 356// 358//
f 357// 358// 359//
f 359// 358// 360//
f 359// 360// 361//
f 361// 360// 362//
f 361// 362// 363//
f 363// 362// 364//
f 363// 364// 365//
f 365// 364// 366//
f 365// 366// 367//
f 367// 366// 368//
f 367// 368// 326//
f 326// 368// 369//
f 326// 369// 327//
f 370// 314// 316//
f 371// 372// 370//
f 373// 374// 375//
f 375// 374// 372//
f 376// 377// 378//
f 378// 377// 373//
f 379// 380// 376//
f 380// 379// 381//
f 381// 379// 326//
f 381// 326// 325//
f 333// 332// 382//
f 382// 332// 383//
f 382// 383// 384//
f 385// 386// 387//
f 387// 386// 388//
f 387// 388// 389//
f 390// 391// 392//
f 392// 391// 393//
f 332// 341// 383//
f 383// 341// 343//
f 383// 343// 394//
f 343// 345// 394//
f 394// 345// 347//
f 394// 347// 395//
f 347// 349// 395//
f 395// 349// 351//
f 395// 351// 396//
f 351// 353// 396//
f 396// 353// 354//
f 396// 354// 397//
f 397// 354// 357//
f 397// 357// 398//
f 357// 359// 398//
f 398// 359// 361//
f 398// 361// 399//
f 361// 363// 399//
f 399// 363// 365//
f 399// 365// 379//
f 379// 365// 367//
f 379// 367// 326//
f 376// 378// 379//
f 379// 378// 400//
f 379// 400// 399//
f 399// 400// 401//
f 399// 401// 398//
f 398// 401// 402//
f 398// 402// 397//
f 397// 402// 403//
f 397// 403// 396//
f 396// 403// 404//
f 396// 404// 395//
f 395// 404// 405//
f 395// 405// 394//
f 394// 405// 406//
f 394// 406// 383//
f 383// 406// 407//
f 383// 407// 384//
f 373// 375// 378//
f 378// 375// 408//
f 378// 408// 400//
f 400// 408// 409//
f 400// 409// 401//
f 401// 409// 410//
f 401// 410// 402//
f 402// 410// 411//
f 402// 411// 403//
f 403// 411// 412//
f 403// 412// 404//
f 404// 412// 413//
f 404// 413// 405//
f 405// 413// 387//
f 405// 387// 406//
f 406// 387// 389//
f 406// 389// 407//
f 372// 371// 375//
f 375// 371// 414//
f 375// 414// 408//
f 408// 414// 415//
f 408// 415// 409//
f 409// 415// 416//
f 409// 416// 410//
f 410// 416// 417//
f 410// 417// 411//
f 411// 417// 418//
f 411// 418// 412//
f 412// 418// 419//
f 412// 419// 413//
f 413// 419// 391//
f 413// 391// 387//
f 387// 391// 390//
f 387// 390// 385//
f 370// 316// 371//
f 371// 316// 318//
f 371// 318// 414//
f 414// 318// 323//
f 414// 323// 415//
f 415// 323// 322//
f 415// 322// 416//
f 416// 322// 320//
f 416// 320// 417//
f 417// 320// 319//
f 417// 319// 418//
f 418// 319// 321//
f 418// 321// 419//
f 419// 321// 317//
f 419// 317// 391//
f 391// 317// 315//
f 391// 315// 393//
f 420// 290// 288//
f 421// 422// 423//
f 424// 331// 330//
f 425// 426// 424//
f 427// 428// 429//
f 429// 428// 430//
f 431// 432// 433//
f 434// 435// 436//
f 437// 438// 439//
f 439// 438// 440//
f 439// 440// 441//
f 442// 443// 444//
f 306// 304// 445//
f 446// 447// 448//
f 448// 447// 420//
f 449// 450// 451//
f 451// 450// 446//
f 452// 453// 454//
f 454// 453// 449//
f 455// 456// 457//
f 457// 456// 452//
f 458// 459// 460//
f 460// 459// 455//
f 461// 462// 463//
f 463// 462// 458//
f 336// 335// 464//
f 464// 335// 465//
f 465// 466// 464//
f 464// 466// 467//
f 464// 467// 461//
f 424// 330// 425//
f 425// 330// 328//
f 425// 328// 468//
f 366// 469// 470//
f 328// 327// 468//
f 468// 327// 369//
f 468// 369// 470//
f 470// 369// 368//
f 470// 368// 366//
f 366// 364// 469//
f 469// 364// 362//
f 469// 362// 471//
f 471// 362// 360//
f 471// 360// 472//
f 472// 360// 358//
f 358// 356// 472//
f 472// 356// 355//
f 472// 355// 473//
f 473// 355// 352//
f 473// 352// 474//
f 352// 350// 474//
f 474// 350// 348//
f 474// 348// 475//
f 348// 346// 475//
f 475// 346// 344//
f 475// 344// 476//
f 344// 342// 476//
f 476// 342// 340//
f 476// 340// 477//
f 477// 340// 339//
f 477// 339// 464//
f 464// 339// 338//
f 464// 338// 336//
f 461// 463// 464//
f 464// 463// 478//
f 464// 478// 477//
f 477// 478// 479//
f 477// 479// 476//
f 476// 479// 480//
f 476// 480// 475//
f 475// 480// 481//
f 475// 481// 474//
f 474// 481// 482//
f 474// 482// 473//
f 473// 482// 483//
f 473// 483// 472//
f 472// 483// 484//
f 472// 484// 471//
f 471// 484// 485//
f 471// 485// 469//
f 469// 485// 486//
f 469// 486// 470//
f 470// 486// 487//
f 470// 487// 468//
f 468// 487// 429//
f 468// 429// 425//
f 425// 429// 430//
f 425// 430// 426//
f 458// 460// 463//
f 463// 460// 488//
f 463// 488// 478//
f 478// 488// 489//
f 478// 489// 479//
f 479// 489// 490//
f 479// 490// 480//
f 480// 490// 491//
f 480// 491// 481//
f 481// 491// 492//
f 481// 492// 482//
f 482// 492// 493//
f 482// 493// 483//
f 483// 493// 494//
f 483// 494// 484//
f 484// 494// 495//
f 484// 495// 485//
f 485// 495// 496//
f 485// 496// 486//
f 486// 496// 497//
f 486// 497// 487//
f 487// 497// 431//
f 487// 431// 429//
f 429// 431// 433//
f 429// 433// 427//
f 455// 457// 460//
f 460// 457// 498//
f 460// 498// 488//
f 488// 498// 499//
f 488// 499// 489//
f 489// 499// 500//
f 489// 500// 490//
f 490// 500// 501//
f 490// 501// 491//
f 491// 501// 502//
f 491// 502// 492//
f 492// 502// 503//
f 492// 503// 493//
f 493// 503// 504//
f 493// 504// 494//
f 494// 504// 505//
f 494// 505// 495//
f 495// 505// 506//
f 495// 506// 496//
f 496// 506// 507//
f 496// 507// 497//
f 497// 507// 434//
f 497// 434// 431//
f 431// 434// 436//
f 431// 436// 432//
f 452// 454// 457//
f 457// 454// 508//
f 457// 508// 498//
f 498// 508// 509//
f 498// 509// 499//
f 499// 509// 510//
f 499// 510// 500//
f 500// 510// 511//
f 500// 511// 501//
f 501// 511// 512//
f 501// 512// 502//
f 502// 512// 513//
f 502// 513// 503//
f 503// 513// 514//
f 503// 514// 504//
f 504// 514// 515//
f 504// 515// 505//
f 505// 515// 516//
f 505// 516// 506//
f 506// 516// 517//
f 506// 517// 507//
f 507// 517// 439//
f 507// 439// 434//
f 434// 439// 441//
f 434// 441// 435//
f 449// 451// 454//
f 454// 451// 518//
f 454// 518// 508//
f 508// 518// 519//
f 508// 519// 509//
f 509// 519// 520//
f 509// 520// 510//
f 510// 520// 521//
f 510// 521// 511//
f 511// 521// 522//
f 511// 522// 512//
f 512// 522// 523//
f 512// 523// 513//
f 513// 523// 524//
f 513// 524// 514//
f 514// 524// 525//
f 514// 525// 515//
f 515// 525// 526//
f 515// 526// 516//
f 516// 526// 527//
f 516// 527// 517//
f 517// 527// 423//
f 517// 423// 439//
f 439// 423// 422//
f 439// 422// 437//
f 446// 448// 451//
f 451// 448// 528//
f 451// 528// 518//
f 518// 528// 529//
f 518// 529// 519//
f 519// 529// 530//
f 519// 530// 520//
f 520// 530// 531//
f 520// 531// 521//
f 521// 531// 532//
f 521// 532// 522//
f 522// 532// 533//
f 522// 533// 523//
f 523// 533// 534//
f 523// 534// 524//
f 524// 534// 535//
f 524// 535// 525//
f 525// 535// 536//
f 525// 536// 526//
f 526// 536// 537//
f 526// 537// 527//
f 527// 537// 442//
f 527// 442// 423//
f 423// 442// 444//
f 423// 444// 421//
f 420// 288// 448//
f 448// 288// 302//
f 448// 302// 528//
f 528// 302// 301//
f 528// 301// 529//
f 529// 301// 299//
f 529// 299// 530//
f 530// 299// 297//
f 530// 297// 531//
f 531// 297// 295//
f 531// 295// 532//
f 532// 295// 293//
f 532// 293// 533//
f 533// 293// 313//
f 533// 313// 534//
f 534// 313// 312//
f 534// 312// 535//
f 535// 312// 310//
f 535// 310// 536//
f 536// 310// 308//
f 536// 308// 537//
f 537// 308// 306//
f 537// 306// 442//
f 442// 306// 445//
f 442// 445// 443//
f 538// 539// 540//
f 541// 303// 305//
f 542// 543// 544//
f 545// 538// 76//
f 289// 291// 546//
f 76// 75// 545//
f 545// 75// 96//
f 545// 96// 546//
f 546// 96// 95//
f 546// 95// 289//
f 289// 95// 94//
f 289// 94// 287//
f 287// 94// 93//
f 287// 93// 300//
f 300// 93// 92//
f 300// 92// 298//
f 92// 97// 298//
f 298// 97// 99//
f 298// 99// 296//
f 296// 99// 100//
f 296// 100// 294//
f 294// 100// 101//
f 294// 101// 292//
f 292// 101// 106//
f 292// 106// 311//
f 311// 106// 105//
f 311// 105// 309//
f 109// 307// 102//
f 102// 307// 309//
f 102// 309// 103//
f 103// 309// 105//
f 538// 540// 76//
f 76// 540// 547//
f 76// 547// 79//
f 79// 547// 548//
f 79// 548// 80//
f 80// 548// 549//
f 80// 549// 81//
f 81// 549// 550//
f 81// 550// 82//
f 82// 550// 551//
f 82// 551// 83//
f 83// 551// 552//
f 83// 552// 85//
f 85// 552// 553//
f 85// 553// 86//
f 86// 553// 554//
f 86// 554// 87//
f 87// 554// 555//
f 87// 555// 88//
f 88// 555// 542//
f 88// 542// 90//
f 90// 542// 544//
f 90// 544// 107//
f 107// 544// 556//
f 107// 556// 108//
f 108// 556// 541//
f 108// 541// 109//
f 109// 541// 305//
f 109// 305// 307//
f 557// 558// 559//
f 559// 558// 560//
f 561// 562// 563//
f 563// 562// 564//
f 562// 565// 564//
f 564// 565// 566//
f 564// 566// 567//
f 567// 568// 564//
f 564// 568// 569//
f 564// 569// 570//
f 571// 572// 573//
f 573// 572// 574//
f 564// 575// 563//
f 563// 575// 572//
f 563// 572// 576//
f 576// 572// 571//
f 575// 564// 577//
f 577// 564// 578//
f 565// 562// 560//
f 579// 580// 558//
f 558// 580// 581//
f 558// 581// 560//
f 560// 581// 582//
f 560// 582// 565//
f 583// 584// 585//
f 585// 584// 586//
f 587// 588// 589//
f 561// 563// 590//
f 590// 563// 591//
f 590// 591// 589//
f 589// 591// 592//
f 589// 592// 587//
f 593// 594// 595//
f 595// 594// 596//
f 595// 596// 597//
f 597// 596// 598//
f 597// 598// 599//
f 599// 598// 600//
f 599// 600// 593//
f 593// 600// 594//
f 601// 580// 602//
f 579// 588// 580//
f 580// 588// 587//
f 603// 604// 587//
f 587// 604// 584//
f 587// 584// 580//
f 580// 584// 583//
f 580// 583// 602//
f 603// 605// 604//
f 604// 605// 606//
f 604// 606// 607//
f 608// 609// 602//
f 602// 609// 610//
f 602// 610// 601//
f 559// 560// 562//
f 562// 561// 611//
f 611// 561// 590//
f 611// 176// 175//
f 562// 611// 559//
f 559// 611// 175//
f 559// 175// 174//
f 174// 261// 559//
f 559// 261// 260//
f 559// 260// 255//
f 579// 558// 557//
f 557// 286// 285//
f 579// 557// 588//
f 588// 557// 612//
f 588// 612// 589//
f 285// 284// 557//
f 557// 284// 283//
f 557// 283// 612//
f 612// 283// 74//
f 612// 74// 73//
f 611// 590// 612//
f 612// 590// 589//
f 255// 254// 559//
f 559// 254// 266//
f 266// 267// 559//
f 559// 267// 268//
f 559// 268// 269//
f 270// 557// 262//
f 262// 557// 559//
f 262// 559// 263//
f 263// 559// 269//
f 270// 275// 557//
f 557// 275// 280//
f 557// 280// 286//
f 612// 73// 72//
f 72// 160// 612//
f 612// 160// 162//
f 612// 162// 611//
f 611// 162// 163//
f 611// 163// 164//
f 164// 166// 611//
f 611// 166// 167//
f 611// 167// 168//
f 168// 169// 611//
f 611// 169// 216//
f 611// 216// 176//
f 581// 580// 601//
f 581// 601// 613//
f 613// 601// 610//
f 613// 610// 614//
f 614// 610// 609//
f 614// 609// 615//
f 615// 609// 608//
f 615// 608// 616//
f 616// 608// 602//
f 616// 602// 617//
f 617// 602// 583//
f 617// 583// 585//
f 582// 581// 618//
f 582// 618// 619//
f 619// 618// 620//
f 619// 620// 621//
f 621// 620// 622//
f 621// 622// 623//
f 623// 622// 624//
f 623// 624// 625//
f 625// 624// 626//
f 625// 626// 627//
f 627// 626// 594//
f 627// 594// 600//
f 578// 564// 570//
f 578// 570// 628//
f 628// 570// 569//
f 628// 569// 629//
f 629// 569// 568//
f 629// 568// 630//
f 630// 568// 567//
f 630// 567// 631//
f 631// 567// 566//
f 631// 566// 632//
f 632// 566// 565//
f 632// 565// 582//
f 585// 633// 634//
f 635// 636// 637//
f 594// 626// 638//
f 637// 636// 594//
f 639// 594// 636//
f 639// 636// 640//
f 640// 636// 635//
f 640// 635// 641//
f 642// 594// 639//
f 643// 644// 645//
f 645// 644// 638//
f 645// 638// 646//
f 646// 638// 626//
f 646// 626// 624//
f 642// 639// 647//
f 647// 639// 640//
f 647// 640// 648//
f 648// 640// 641//
f 648// 641// 649//
f 650// 643// 651//
f 651// 643// 645//
f 651// 645// 652//
f 652// 645// 646//
f 652// 646// 653//
f 653// 646// 624//
f 653// 624// 622//
f 654// 650// 655//
f 655// 650// 651//
f 655// 651// 656//
f 656// 651// 652//
f 656// 652// 657//
f 657// 652// 653//
f 657// 653// 658//
f 658// 653// 622//
f 658// 622// 620//
f 633// 654// 634//
f 634// 654// 655//
f 634// 655// 659//
f 659// 655// 656//
f 659// 656// 660//
f 660// 656// 657//
f 660// 657// 661//
f 661// 657// 658//
f 661// 658// 662//
f 662// 658// 620//
f 662// 620// 618//
f 585// 634// 617//
f 617// 634// 659//
f 617// 659// 616//
f 616// 659// 660//
f 616// 660// 615//
f 615// 660// 661//
f 615// 661// 614//
f 614// 661// 662//
f 614// 662// 613//
f 613// 662// 618//
f 613// 618// 581//
f 644// 594// 638//
f 633// 649// 654//
f 654// 649// 641//
f 654// 641// 650//
f 650// 641// 635//
f 650// 635// 643//
f 643// 635// 637//
f 643// 637// 644//
f 644// 637// 594//
f 582// 619// 663//
f 664// 665// 666//
f 600// 667// 668//
f 666// 665// 600//
f 669// 600// 665//
f 669// 665// 670//
f 670// 665// 664//
f 670// 664// 671//
f 627// 600// 669//
f 672// 673// 674//
f 674// 673// 668//
f 674// 668// 675//
f 675// 668// 667//
f 675// 667// 676//
f 627// 669// 625//
f 625// 669// 670//
f 625// 670// 623//
f 623// 670// 671//
f 623// 671// 621//
f 677// 672// 678//
f 678// 672// 674//
f 678// 674// 679//
f 679// 674// 675//
f 679// 675// 680//
f 680// 675// 676//
f 680// 676// 681//
f 682// 677// 683//
f 683// 677// 678//
f 683// 678// 684//
f 684// 678// 679//
f 684// 679// 685//
f 685// 679// 680//
f 685// 680// 686//
f 686// 680// 681//
f 686// 681// 687//
f 619// 682// 663//
f 663// 682// 683//
f 663// 683// 688//
f 688// 683// 684//
f 688// 684// 689//
f 689// 684// 685//
f 689// 685// 690//
f 690// 685// 686//
f 690// 686// 691//
f 691// 686// 687//
f 691// 687// 692//
f 582// 663// 632//
f 632// 663// 688//
f 632// 688// 631//
f 631// 688// 689//
f 631// 689// 630//
f 630// 689// 690//
f 630// 690// 629//
f 629// 690// 691//
f 629// 691// 628//
f 628// 691// 692//
f 628// 692// 578//
f 673// 600// 668//
f 619// 621// 682//
f 682// 621// 671//
f 682// 671// 677//
f 677// 671// 664//
f 677// 664// 672//
f 672// 664// 666//
f 672// 666// 673//
f 673// 666// 600//
f 586// 584// 604//
f 586// 604// 693//
f 693// 604// 607//
f 693// 607// 694//
f 694// 607// 606//
f 694// 606// 695//
f 695// 606// 605//
f 695// 605// 696//
f 696// 605// 603//
f 696// 603// 697//
f 697// 603// 587//
f 697// 587// 592//
f 585// 586// 698//
f 585// 698// 633//
f 633// 698// 699//
f 633// 699// 649//
f 649// 699// 700//
f 649// 700// 648//
f 648// 700// 701//
f 648// 701// 647//
f 647// 701// 702//
f 647// 702// 642//
f 642// 702// 596//
f 642// 596// 594//
f 577// 578// 692//
f 577// 692// 703//
f 703// 692// 687//
f 703// 687// 704//
f 704// 687// 681//
f 704// 681// 705//
f 705// 681// 676//
f 705// 676// 706//
f 706// 676// 667//
f 706// 667// 707//
f 707// 667// 600//
f 707// 600// 598//
f 591// 563// 576//
f 591// 576// 708//
f 708// 576// 571//
f 708// 571// 709//
f 709// 571// 573//
f 709// 573// 710//
f 710// 573// 574//
f 710// 574// 711//
f 711// 574// 572//
f 711// 572// 712//
f 712// 572// 575//
f 712// 575// 577//
f 592// 713// 714//
f 715// 716// 717//
f 596// 702// 718//
f 717// 716// 596//
f 719// 596// 716//
f 719// 716// 720//
f 720// 716// 715//
f 720// 715// 721//
f 722// 596// 719//
f 723// 724// 725//
f 725// 724// 718//
f 725// 718// 726//
f 726// 718// 702//
f 726// 702// 701//
f 722// 719// 727//
f 727// 719// 720//
f 727// 720// 728//
f 728// 720// 721//
f 728// 721// 729//
f 730// 723// 731//
f 731// 723// 725//
f 731// 725// 732//
f 732// 725// 726//
f 732// 726// 733//
f 733// 726// 701//
f 733// 701// 700//
f 734// 730// 735//
f 735// 730// 731//
f 735// 731// 736//
f 736// 731// 732//
f 736// 732// 737//
f 737// 732// 733//
f 737// 733// 738//
f 738// 733// 700//
f 738// 700// 699//
f 713// 734// 714//
f 714// 734// 735//
f 714// 735// 739//
f 739// 735// 736//
f 739// 736// 740//
f 740// 736// 737//
f 740// 737// 741//
f 741// 737// 738//
f 741// 738// 742//
f 742// 738// 699//
f 742// 699// 698//
f 592// 714// 697//
f 697// 714// 739//
f 697// 739// 696//
f 696// 739// 740//
f 696// 740// 695//
f 695// 740// 741//
f 695// 741// 694//
f 694// 741// 742//
f 694// 742// 693//
f 693// 742// 698//
f 693// 698// 586//
f 724// 596// 718//
f 713// 729// 734//
f 734// 729// 721//
f 734// 721// 730//
f 730// 721// 715//
f 730// 715// 723//
f 723// 715// 717//
f 723// 717// 724//
f 724// 717// 596//
f 577// 703// 743//
f 744// 745// 746//
f 598// 747// 748//
f 746// 745// 598//
f 749// 598// 745//
f 749// 745// 750//
f 750// 745// 744//
f 750// 744// 751//
f 707// 598// 749//
f 752// 753// 754//
f 754// 753// 748//
f 754// 748// 755//
f 755// 748// 747//
f 755// 747// 756//
f 707// 749// 706//
f 706// 749// 750//
f 706// 750// 705//
f 705// 750// 751//
f 705// 751// 704//
f 757// 752// 758//
f 758// 752// 754//
f 758// 754// 759//
f 759// 754// 755//
f 759// 755// 760//
f 760// 755// 756//
f 760// 756// 761//
f 762// 757// 763//
f 763// 757// 758//
f 763// 758// 764//
f 764// 758// 759//
f 764// 759// 765//
f 765// 759// 760//
f 765// 760// 766//
f 766// 760// 761//
f 766// 761// 767//
f 703// 762// 743//
f 743// 762// 763//
f 743// 763// 768//
f 768// 763// 764//
f 768// 764// 769//
f 769// 764// 765//
f 769// 765// 770//
f 770// 765// 766//
f 770// 766// 771//
f 771// 766// 767//
f 771// 767// 772//
f 577// 743// 712//
f 712// 743// 768//
f 712// 768// 711//
f 711// 768// 769//
f 711// 769// 710//
f 710// 769// 770//
f 710// 770// 709//
f 709// 770// 771//
f 709// 771// 708//
f 708// 771// 772//
f 708// 772// 591//
f 753// 598// 748//
f 703// 704// 762//
f 762// 704// 751//
f 762// 751// 757//
f 757// 751// 744//
f 757// 744// 752//
f 752// 744// 746//
f 752// 746// 753//
f 753// 746// 598//
f 592// 591// 772//
f 592// 772// 713//
f 713// 772// 767//
f 713// 767// 729//
f 729// 767// 761//
f 729// 761// 728//
f 728// 761// 756//
f 728// 756// 727//
f 727// 756// 747//
f 727// 747// 722//
f 722// 747// 598//
f 722// 598// 596//
usemtl 2
f 773// 190// 774//
f 774// 190// 191//
f 191// 192// 774//
f 774// 192// 775//
f 774// 775// 776//
f 776// 775// 777//
f 775// 192// 778//
f 778// 192// 193//
f 779// 780// 773//
f 773// 780// 778//
f 773// 778// 190//
f 190// 778// 193//
f 776// 777// 779//
f 779// 777// 780//
f 781// 256// 782//
f 782// 256// 259//
f 259// 258// 782//
f 782// 258// 783//
f 782// 783// 784//
f 784// 783// 785//
f 783// 258// 786//
f 786// 258// 257//
f 787// 788// 781//
f 781// 788// 786//
f 781// 786// 256//
f 256// 786// 257//
f 784// 785// 787//
f 787// 785// 788//
f 789// 185// 790//
f 790// 185// 186//
f 186// 187// 790//
f 790// 187// 791//
f 790// 791// 792//
f 792// 791// 793//
f 791// 187// 794//
f 794// 187// 188//
f 795// 796// 789//
f 789// 796// 794//
f 789// 794// 185//
f 185// 794// 188//
f 792// 793// 795//
f 795// 793// 796//
f 797// 271// 798//
f 798// 271// 272//
f 272// 273// 798//
f 798// 273// 799//
f 798// 799// 800//
f 800// 799// 801//
f 799// 273// 802//
f 802// 273// 274//
f 803// 804// 797//
f 797// 804// 802//
f 797// 802// 271//
f 271// 802// 274//
f 800// 801// 803//
f 803// 801// 804//
f 805// 281// 806//
f 806// 281// 278//
f 278// 277// 806//
f 806// 277// 807//
f 806// 807// 808//
f 808// 807// 809//
f 807// 277// 810//
f 810// 277// 279//
f 811// 812// 805//
f 805// 812// 810//
f 805// 810// 281//
f 281// 810// 279//
f 808// 809// 811//
f 811// 809// 812//
f 813// 264// 814//
f 814// 264// 265//
f 265// 70// 814//
f 814// 70// 815//
f 814// 815// 816//
f 816// 815// 817//
f 815// 70// 818//
f 818// 70// 69//
f 819// 820// 813//
f 813// 820// 818//
f 813// 818// 264//
f 264// 818// 69//
f 816// 817// 819//
f 819// 817// 820//
f 821// 181// 822//
f 822// 181// 182//
f 182// 183// 822//
f 822// 183// 823//
f 822// 823// 824//
f 824// 823// 825//
f 823// 183// 826//
f 826// 183// 184//
f 827// 828// 821//
f 821// 828// 826//
f 821// 826// 181//
f 181// 826// 184//
f 824// 825// 827//
f 827// 825// 828//
f 829// 173// 830//
f 830// 173// 172//
f 172// 171// 830//
f 830// 171// 831//
f 830// 831// 832//
f 832// 831// 833//
f 831// 171// 834//
f 834// 171// 179//
f 835// 836// 829//
f 829// 836// 834//
f 829// 834// 173//
f 173// 834// 179//
f 832// 833// 835//
f 835// 833// 836//
f 811// 805// 808//
f 808// 805// 806//
f 779// 773// 776//
f 776// 773// 774//
f 803// 797// 800//
f 800// 797// 798//
f 795// 789// 792//
f 792// 789// 790//
f 819// 813// 816//
f 816// 813// 814//
f 787// 781// 784//
f 784// 781// 782//
f 835// 829// 832//
f 832// 829// 830//
f 827// 821// 824//
f 824// 821// 822//
f 785// 783// 788//
f 788// 783// 786//
f 833// 831// 836//
f 836// 831// 834//
f 817// 815// 820//
f 820// 815// 818//
f 825// 823// 828//
f 828// 823// 826//
f 809// 807// 812//
f 812// 807// 810//
f 801// 799// 804//
f 804// 799// 802//
f 793// 791// 796//
f 796// 791// 794//
f 777// 775// 780//
f 780// 775// 778//
usemtl 1
f 555// 837// 542//
f 542// 837// 838//
f 542// 838// 543//
f 550// 839// 551//
f 551// 839// 840//
f 551// 840// 552//
f 552// 840// 841//
f 552// 841// 553//
f 553// 841// 842//
f 553// 842// 554//
f 554// 842// 843//
f 554// 843// 555//
f 555// 843// 844//
f 555// 844// 837//
f 539// 845// 540//
f 540// 845// 846//
f 540// 846// 547//
f 547// 846// 847//
f 547// 847// 548//
f 548// 847// 848//
f 548// 848// 549//
f 549// 848// 849//
f 549// 849// 550//
f 550// 849// 850//
f 550// 850// 839//
f 851// 852// 853//
f 853// 852// 854//
f 853// 854// 855//
f 856// 853// 857//
f 857// 853// 858//
f 855// 859// 853//
f 853// 859// 860//
f 853// 860// 858//
f 861// 862// 863//
f 863// 864// 861//
f 861// 864// 865//
f 861// 865// 866//
f 866// 865// 867//
f 866// 867// 868//
f 869// 870// 871//
f 872// 873// 874//
f 874// 873// 875//
f 874// 875// 871//
f 871// 875// 876//
f 871// 876// 869//
f 869// 876// 877//
f 869// 877// 878//
f 878// 877// 879//
f 878// 879// 880//
f 880// 879// 881//
f 880// 881// 882//
f 882// 881// 883//
f 882// 883// 884//
f 884// 883// 885//
f 884// 885// 886//
f 886// 885// 887//
f 886// 887// 888//
f 888// 887// 889//
f 888// 889// 890//
f 890// 889// 891//
f 889// 892// 891//
f 891// 892// 893//
f 891// 893// 894//
f 894// 893// 895//
f 894// 895// 896//
f 896// 895// 897//
f 896// 897// 898//
f 898// 897// 899//
f 898// 899// 900//
f 900// 899// 901//
f 900// 901// 902//
f 902// 901// 903//
f 902// 903// 904//
f 904// 903// 905//
f 904// 905// 863//
f 863// 905// 906//
f 863// 906// 864//
f 907// 851// 853//
f 908// 909// 910//
f 911// 912// 913//
f 914// 915// 916//
f 870// 869// 917//
f 917// 869// 918//
f 919// 920// 918//
f 918// 920// 921//
f 918// 921// 917//
f 922// 923// 907//
f 924// 925// 926//
f 926// 925// 923//
f 927// 928// 929//
f 929// 928// 924//
f 862// 930// 863//
f 863// 930// 931//
f 863// 931// 932//
f 932// 931// 933//
f 932// 933// 927//
f 869// 878// 918//
f 918// 878// 880//
f 918// 880// 934//
f 880// 882// 934//
f 934// 882// 884//
f 934// 884// 935//
f 884// 886// 935//
f 935// 886// 888//
f 935// 888// 936//
f 888// 890// 936//
f 936// 890// 891//
f 936// 891// 937//
f 937// 891// 894//
f 937// 894// 938//
f 894// 896// 938//
f 938// 896// 898//
f 938// 898// 939//
f 898// 900// 939//
f 939// 900// 902//
f 939// 902// 932//
f 932// 902// 904//
f 932// 904// 863//
f 927// 929// 932//
f 932// 929// 940//
f 932// 940// 939//
f 939// 940// 941//
f 939// 941// 938//
f 938// 941// 942//
f 938// 942// 937//
f 937// 942// 943//
f 937// 943// 936//
f 936// 943// 944//
f 936// 944// 935//
f 935// 944// 945//
f 935// 945// 934//
f 934// 945// 916//
f 934// 916// 918//
f 918// 916// 915//
f 918// 915// 919//
f 924// 926// 929//
f 929// 926// 946//
f 929// 946// 940//
f 940// 946// 947//
f 940// 947// 941//
f 941// 947// 948//
f 941// 948// 942//
f 942// 948// 949//
f 942// 949// 943//
f 943// 949// 950//
f 943// 950// 944//
f 944// 950// 951//
f 944// 951// 945//
f 945// 951// 913//
f 945// 913// 916//
f 916// 913// 912//
f 916// 912// 914//
f 923// 922// 926//
f 926// 922// 952//
f 926// 952// 946//
f 946// 952// 953//
f 946// 953// 947//
f 947// 953// 954//
f 947// 954// 948//
f 948// 954// 955//
f 948// 955// 949//
f 949// 955// 956//
f 949// 956// 950//
f 950// 956// 957//
f 950// 957// 951//
f 951// 957// 910//
f 951// 910// 913//
f 913// 910// 909//
f 913// 909// 911//
f 907// 853// 922//
f 922// 853// 856//
f 922// 856// 952//
f 952// 856// 857//
f 952// 857// 953//
f 953// 857// 858//
f 953// 858// 954//
f 954// 858// 860//
f 954// 860// 955//
f 955// 860// 859//
f 955// 859// 956//
f 956// 859// 855//
f 956// 855// 957//
f 957// 855// 854//
f 957// 854// 910//
f 910// 854// 852//
f 910// 852// 908//
f 958// 868// 867//
f 959// 838// 837//
f 960// 961// 962//
f 962// 961// 959//
f 963// 964// 965//
f 965// 964// 966//
f 965// 966// 960//
f 967// 968// 969//
f 969// 968// 963//
f 970// 971// 972//
f 972// 971// 967//
f 973// 974// 975//
f 975// 974// 970//
f 976// 977// 978//
f 978// 977// 979//
f 978// 979// 973//
f 980// 981// 976//
f 981// 980// 982//
f 982// 980// 873//
f 982// 873// 872//
f 983// 984// 958//
f 985// 986// 987//
f 988// 989// 990//
f 991// 992// 993//
f 994// 995// 996//
f 997// 998// 999//
f 999// 998// 1000//
f 999// 1000// 1001//
f 846// 845// 1002//
f 958// 867// 983//
f 983// 867// 865//
f 983// 865// 1003//
f 903// 1004// 1005//
f 865// 864// 1003//
f 1003// 864// 906//
f 1003// 906// 1005//
f 1005// 906// 905//
f 1005// 905// 903//
f 903// 901// 1004//
f 1004// 901// 899//
f 1004// 899// 1006//
f 1006// 899// 897//
f 1006// 897// 1007//
f 1007// 897// 895//
f 895// 893// 1007//
f 1007// 893// 892//
f 1007// 892// 1008//
f 1008// 892// 889//
f 1008// 889// 1009//
f 889// 887// 1009//
f 1009// 887// 885//
f 1009// 885// 1010//
f 885// 883// 1010//
f 1010// 883// 881//
f 1010// 881// 1011//
f 881// 879// 1011//
f 1011// 879// 877//
f 1011// 877// 1012//
f 1012// 877// 876//
f 1012// 876// 980//
f 980// 876// 875//
f 980// 875// 873//
f 976// 978// 980//
f 980// 978// 1013//
f 980// 1013// 1012//
f 1012// 1013// 1014//
f 1012// 1014// 1011//
f 1011// 1014// 1015//
f 1011// 1015// 1010//
f 1010// 1015// 1016//
f 1010// 1016// 1009//
f 1009// 1016// 1017//
f 1009// 1017// 1008//
f 1008// 1017// 1018//
f 1008// 1018// 1007//
f 1007// 1018// 1019//
f 1007// 1019// 1006//
f 1006// 1019// 1020//
f 1006// 1020// 1004//
f 1004// 1020// 1021//
f 1004// 1021// 1005//
f 1005// 1021// 1022//
f 1005// 1022// 1003//
f 1003// 1022// 985//
f 1003// 985// 983//
f 983// 985// 987//
f 983// 987// 984//
f 973// 975// 978//
f 978// 975// 1023//
f 978// 1023// 1013//
f 1013// 1023// 1024//
f 1013// 1024// 1014//
f 1014// 1024// 1025//
f 1014// 1025// 1015//
f 1015// 1025// 1026//
f 1015// 1026// 1016//
f 1016// 1026// 1027//
f 1016// 1027// 1017//
f 1017// 1027// 1028//
f 1017// 1028// 1018//
f 1018// 1028// 1029//
f 1018// 1029// 1019//
f 1019// 1029// 1030//
f 1019// 1030// 1020//
f 1020// 1030// 1031//
f 1020// 1031// 1021//
f 1021// 1031// 1032//
f 1021// 1032// 1022//
f 1022// 1032// 988//
f 1022// 988// 985//
f 985// 988// 990//
f 985// 990// 986//
f 970// 972// 975//
f 975// 972// 1033//
f 975// 1033// 1023//
f 1023// 1033// 1034//
f 1023// 1034// 1024//
f 1024// 1034// 1035//
f 1024// 1035// 1025//
f 1025// 1035// 1036//
f 1025// 1036// 1026//
f 1026// 1036// 1037//
f 1026// 1037// 1027//
f 1027// 1037// 1038//
f 1027// 1038// 1028//
f 1028// 1038// 1039//
f 1028// 1039// 1029//
f 1029// 1039// 1040//
f 1029// 1040// 1030//
f 1030// 1040// 1041//
f 1030// 1041// 1031//
f 1031// 1041// 1042//
f 1031// 1042// 1032//
f 1032// 1042// 991//
f 1032// 991// 988//
f 988// 991// 993//
f 988// 993// 989//
f 967// 969// 972//
f 972// 969// 1043//
f 972// 1043// 1033//
f 1033// 1043// 1044//
f 1033// 1044// 1034//
f 1034// 1044// 1045//
f 1034// 1045// 1035//
f 1035// 1045// 1046//
f 1035// 1046// 1036//
f 1036// 1046// 1047//
f 1036// 1047// 1037//
f 1037// 1047// 1048//
f 1037// 1048// 1038//
f 1038// 1048// 1049//
f 1038// 1049// 1039//
f 1039// 1049// 1050//
f 1039// 1050// 1040//
f 1040// 1050// 1051//
f 1040// 1051// 1041//
f 1041// 1051// 1052//
f 1041// 1052// 1042//
f 1042// 1052// 994//
f 1042// 994// 991//
f 991// 994// 996//
f 991// 996// 992//
f 963// 965// 969//
f 969// 965// 1053//
f 969// 1053// 1043//
f 1043// 1053// 1054//
f 1043// 1054// 1044//
f 1044// 1054// 1055//
f 1044// 1055// 1045//
f 1045// 1055// 1056//
f 1045// 1056// 1046//
f 1046// 1056// 1057//
f 1046// 1057// 1047//
f 1047// 1057// 1058//
f 1047// 1058// 1048//
f 1048// 1058// 1059//
f 1048// 1059// 1049//
f 1049// 1059// 1060//
f 1049// 1060// 1050//
f 1050// 1060// 1061//
f 1050// 1061// 1051//
f 1051// 1061// 1062//
f 1051// 1062// 1052//
f 1052// 1062// 999//
f 1052// 999// 994//
f 994// 999// 1001//
f 994// 1001// 995//
f 960// 962// 965//
f 965// 962// 1063//
f 965// 1063// 1053//
f 1053// 1063// 1064//
f 1053// 1064// 1054//
f 1054// 1064// 1065//
f 1054// 1065// 1055//
f 1055// 1065// 1066//
f 1055// 1066// 1056//
f 1056// 1066// 1067//
f 1056// 1067// 1057//
f 1057// 1067// 1068//
f 1057// 1068// 1058//
f 1058// 1068// 1069//
f 1058// 1069// 1059//
f 1059// 1069// 1070//
f 1059// 1070// 1060//
f 1060// 1070// 1071//
f 1060// 1071// 1061//
f 1061// 1071// 1072//
f 1061// 1072// 1062//
f 1062// 1072// 1073//
f 1062// 1073// 999//
f 999// 1073// 1074//
f 999// 1074// 997//
f 959// 837// 962//
f 962// 837// 844//
f 962// 844// 1063//
f 1063// 844// 843//
f 1063// 843// 1064//
f 1064// 843// 842//
f 1064// 842// 1065//
f 1065// 842// 841//
f 1065// 841// 1066//
f 1066// 841// 840//
f 1066// 840// 1067//
f 1067// 840// 839//
f 1067// 839// 1068//
f 1068// 839// 850//
f 1068// 850// 1069//
f 1069// 850// 849//
f 1069// 849// 1070//
f 1070// 849// 848//
f 1070// 848// 1071//
f 1071// 848// 847//
f 1071// 847// 1072//
f 1072// 847// 846//
f 1072// 846// 1073//
f 1073// 846// 1002//
f 1073// 1002// 1074//
f 541// 546// 303//
f 303// 546// 291//
f 314// 370// 372//
f 380// 335// 376//
f 376// 335// 377//
f 331// 424// 303//
f 303// 424// 426//
f 303// 426// 430//
f 435// 441// 303//
f 303// 441// 440//
f 303// 440// 304//
f 372// 374// 335//
f 335// 374// 373//
f 335// 373// 377//
f 447// 380// 420//
f 420// 380// 290//
f 447// 446// 380//
f 380// 446// 450//
f 380// 450// 449//
f 430// 428// 303//
f 303// 428// 427//
f 303// 427// 433//
f 335// 337// 372//
f 372// 337// 334//
f 372// 334// 333//
f 380// 381// 290//
f 290// 381// 325//
f 290// 325// 291//
f 291// 325// 324//
f 291// 324// 303//
f 303// 324// 329//
f 303// 329// 331//
f 449// 453// 380//
f 380// 453// 452//
f 380// 452// 456//
f 456// 455// 380//
f 380// 455// 459//
f 380// 459// 458//
f 458// 462// 380//
f 380// 462// 461//
f 380// 461// 467//
f 467// 466// 380//
f 380// 466// 465//
f 380// 465// 335//
f 433// 432// 303//
f 303// 432// 436//
f 303// 436// 435//
f 437// 422// 438//
f 438// 422// 440//
f 333// 382// 372//
f 372// 382// 384//
f 372// 384// 407//
f 407// 389// 372//
f 372// 389// 388//
f 372// 388// 386//
f 421// 444// 422//
f 422// 444// 443//
f 422// 443// 440//
f 440// 443// 445//
f 440// 445// 304//
f 315// 390// 393//
f 393// 390// 392//
f 386// 385// 372//
f 372// 385// 390//
f 372// 390// 314//
f 314// 390// 315//
f 923// 995// 907//
f 907// 995// 851//
f 909// 908// 995//
f 995// 908// 852//
f 995// 852// 851//
f 871// 543// 874//
f 874// 543// 838//
f 973// 979// 874//
f 933// 995// 927//
f 927// 995// 928//
f 958// 984// 989//
f 921// 1000// 998//
f 920// 995// 921//
f 921// 995// 1001//
f 921// 1001// 1000//
f 923// 925// 995//
f 995// 925// 924//
f 995// 924// 928//
f 933// 989// 993//
f 998// 997// 921//
f 921// 997// 1074//
f 921// 1074// 917//
f 917// 1074// 870//
f 920// 919// 995//
f 995// 919// 915//
f 995// 915// 914//
f 838// 959// 874//
f 874// 959// 961//
f 874// 961// 960//
f 960// 966// 874//
f 874// 966// 964//
f 874// 964// 963//
f 963// 968// 874//
f 874// 968// 967//
f 874// 967// 971//
f 981// 979// 976//
f 976// 979// 977//
f 984// 987// 989//
f 989// 987// 986//
f 989// 986// 990//
f 993// 992// 933//
f 933// 992// 996//
f 933// 996// 995//
f 1074// 1002// 870//
f 870// 1002// 845//
f 870// 845// 871//
f 871// 845// 539//
f 871// 539// 543//
f 543// 539// 538//
f 543// 538// 544//
f 914// 912// 995//
f 995// 912// 911//
f 995// 911// 909//
f 971// 970// 874//
f 874// 970// 974//
f 874// 974// 973//
f 981// 982// 979//
f 979// 982// 872//
f 979// 872// 874//
f 933// 861// 866//
f 933// 866// 989//
f 989// 866// 868//
f 989// 868// 958//
f 861// 933// 862//
f 862// 933// 931//
f 862// 931// 930//
f 544// 538// 556//
f 556// 538// 545//
f 556// 545// 541//
f 541// 545// 546//
usemtl 3
f 1075// 1076// 203//
f 203// 1076// 204//
f 1076// 1077// 204//
f 204// 1077// 195//
f 1077// 1078// 195//
f 195// 1078// 196//
f 1078// 1079// 196//
f 196// 1079// 197//
f 1079// 1080// 197//
f 197// 1080// 199//
f 1080// 1081// 199//
f 199// 1081// 201//
f 1081// 1082// 201//
f 201// 1082// 202//
f 1082// 1075// 202//
f 202// 1075// 203//
f 1083// 1079// 1084//
f 1084// 1079// 1078//
f 1085// 1082// 1083//
f 1083// 1082// 1081//
f 1083// 1081// 1079//
f 1079// 1081// 1080//
f 1085// 1086// 1082//
f 1082// 1086// 1087//
f 1082// 1087// 1075//
f 1075// 1087// 1088//
f 1075// 1088// 1089//
f 1089// 1090// 1075//
f 1075// 1090// 1084//
f 1075// 1084// 1076//
f 1076// 1084// 1078//
f 1076// 1078// 1077//
f 1083// 1084// 1091//
f 1091// 1084// 1092//
f 1085// 1083// 1093//
f 1093// 1083// 1091//
f 1085// 1093// 1094//
f 1085// 1094// 1086//
f 1086// 1094// 1095//
f 1086// 1095// 1087//
f 1088// 1087// 1096//
f 1096// 1087// 1095//
f 1088// 1096// 1097//
f 1088// 1097// 1089//
f 1089// 1097// 1098//
f 1089// 1098// 1090//
f 1084// 1090// 1092//
f 1092// 1090// 1098//
f 1099// 1100// 220//
f 220// 1100// 207//
f 1100// 1101// 207//
f 207// 1101// 205//
f 1101// 1102// 205//
f 205// 1102// 209//
f 1103// 225// 224//
f 1103// 224// 1104//
f 1104// 224// 223//
f 1104// 223// 1105//
f 1105// 223// 222//
f 1105// 222// 1106//
f 1106// 222// 221//
f 1106// 221// 1107//
f 1107// 221// 212//
f 1107// 212// 1108//
f 1108// 212// 211//
f 1108// 211// 1109//
f 1109// 211// 210//
f 1109// 210// 1110//
f 1110// 210// 209//
f 1110// 209// 1102//
f 1099// 220// 219//
f 1099// 219// 1111//
f 1111// 219// 218//
f 1111// 218// 1112//
f 1112// 218// 214//
f 1112// 214// 1113//
f 1113// 214// 213//
f 1113// 213// 1114//
f 1114// 213// 215//
f 1114// 215// 1115//
f 1115// 215// 226//
f 1115// 226// 1116//
f 1116// 226// 225//
f 1116// 225// 1103//
f 1116// 1103// 1117//
f 1117// 1103// 1104//
f 1117// 1104// 1118//
f 1118// 1104// 1105//
f 1118// 1105// 1119//
f 1119// 1105// 1106//
f 1119// 1106// 1120//
f 1120// 1106// 1107//
f 1120// 1107// 1121//
f 1121// 1107// 1108//
f 1121// 1108// 1122//
f 1122// 1108// 1109//
f 1122// 1109// 1123//
f 1123// 1109// 1110//
f 1123// 1110// 1124//
f 1124// 1110// 1102//
f 1124// 1102// 1125//
f 1125// 1102// 1101//
f 1125// 1101// 1126//
f 1126// 1101// 1100//
f 1126// 1100// 1127//
f 1127// 1100// 1099//
f 1127// 1099// 1128//
f 1128// 1099// 1111//
f 1128// 1111// 1129//
f 1129// 1111// 1112//
f 1129// 1112// 1130//
f 1130// 1112// 1113//
f 1130// 1113// 1131//
f 1131// 1113// 1114//
f 1131// 1114// 1132//
f 1132// 1114// 1115//
f 1132// 1115// 1133//
f 1133// 1115// 1116//
f 1133// 1116// 1117//
f 1124// 1125// 1134//
f 1134// 1125// 1135//
f 1124// 1134// 1136//
f 1124// 1136// 1123//
f 1123// 1136// 1137//
f 1123// 1137// 1122//
f 1122// 1137// 1138//
f 1122// 1138// 1121//
f 1121// 1138// 1139//
f 1121// 1139// 1120//
f 1120// 1139// 1140//
f 1120// 1140// 1119//
f 1119// 1140// 1141//
f 1119// 1141// 1118//
f 1118// 1141// 1142//
f 1118// 1142// 1117//
f 1117// 1142// 1143//
f 1117// 1143// 1133//
f 1133// 1143// 1144//
f 1133// 1144// 1132//
f 1132// 1144// 1145//
f 1132// 1145// 1131//
f 1131// 1145// 1146//
f 1131// 1146// 1130//
f 1130// 1146// 1147//
f 1130// 1147// 1129//
f 1129// 1147// 1148//
f 1129// 1148// 1128//
f 1128// 1148// 1149//
f 1128// 1149// 1127//
f 1126// 1127// 1150//
f 1150// 1127// 1149//
f 1125// 1126// 1135//
f 1135// 1126// 1150//
f 1151// 1152// 229//
f 229// 1152// 230//
f 1152// 1153// 230//
f 230// 1153// 231//
f 1153// 1154// 231//
f 231// 1154// 232//
f 1154// 1155// 232//
f 232// 1155// 227//
f 1155// 1156// 227//
f 227// 1156// 228//
f 1156// 1157// 228//
f 228// 1157// 238//
f 1157// 1158// 238//
f 238// 1158// 237//
f 1158// 1159// 237//
f 237// 1159// 236//
f 1159// 1160// 236//
f 236// 1160// 235//
f 1160// 1161// 235//
f 235// 1161// 233//
f 1161// 1162// 233//
f 233// 1162// 234//
f 1162// 1151// 234//
f 234// 1151// 229//
f 1153// 1152// 1151//
f 1151// 1162// 1153//
f 1153// 1162// 1161//
f 1153// 1161// 1154//
f 1156// 1155// 1157//
f 1157// 1155// 1154//
f 1157// 1154// 1158//
f 1158// 1154// 1161//
f 1158// 1161// 1159//
f 1159// 1161// 1160//
f 1163// 1164// 111//
f 111// 1164// 113//
f 1165// 151// 150//
f 1165// 150// 1166//
f 1166// 150// 114//
f 1166// 114// 1167//
f 1167// 114// 113//
f 1167// 113// 1164//
f 1168// 154// 153//
f 1168// 153// 1169//
f 1169// 153// 131//
f 1169// 131// 1170//
f 1170// 131// 130//
f 1170// 130// 1171//
f 1171// 130// 128//
f 1171// 128// 1172//
f 1172// 128// 127//
f 1172// 127// 1173//
f 1173// 127// 152//
f 1173// 152// 1174//
f 1174// 152// 151//
f 1174// 151// 1165//
f 1175// 158// 1176//
f 1176// 158// 157//
f 157// 149// 1176//
f 1176// 149// 148//
f 1176// 148// 1177//
f 1177// 148// 147//
f 1177// 147// 1178//
f 1178// 147// 125//
f 1178// 125// 1179//
f 1179// 125// 124//
f 1179// 124// 1180//
f 1180// 124// 155//
f 1180// 155// 1181//
f 1181// 155// 154//
f 1181// 154// 1168//
f 158// 1175// 117//
f 117// 1175// 1182//
f 117// 1182// 118//
f 118// 1182// 1183//
f 118// 1183// 123//
f 1183// 1184// 123//
f 123// 1184// 122//
f 1185// 119// 121//
f 1185// 121// 1186//
f 1186// 121// 122//
f 1186// 122// 1184//
f 1187// 138// 137//
f 1187// 137// 1188//
f 1188// 137// 136//
f 1188// 136// 1189//
f 1189// 136// 135//
f 1189// 135// 1190//
f 1190// 135// 134//
f 1190// 134// 1191//
f 1191// 134// 133//
f 1191// 133// 1192//
f 1192// 133// 132//
f 1192// 132// 1193//
f 1193// 132// 119//
f 1193// 119// 1185//
f 1194// 141// 143//
f 1194// 143// 1195//
f 1195// 143// 144//
f 1195// 144// 1196//
f 1196// 144// 142//
f 1196// 142// 1197//
f 1197// 142// 145//
f 1197// 145// 1198//
f 1198// 145// 140//
f 1198// 140// 1199//
f 1199// 140// 139//
f 1199// 139// 1200//
f 1200// 139// 138//
f 1200// 138// 1187//
f 1163// 111// 120//
f 1163// 120// 1201//
f 1201// 120// 146//
f 1201// 146// 1202//
f 1202// 146// 141//
f 1202// 141// 1194//
f 1195// 1165// 1194//
f 1194// 1165// 1166//
f 1194// 1166// 1202//
f 1202// 1166// 1167//
f 1202// 1167// 1201//
f 1201// 1167// 1164//
f 1201// 1164// 1163//
f 1184// 1183// 1186//
f 1186// 1183// 1182//
f 1186// 1182// 1185//
f 1185// 1182// 1175//
f 1185// 1175// 1193//
f 1193// 1175// 1176//
f 1193// 1176// 1192//
f 1192// 1176// 1177//
f 1192// 1177// 1191//
f 1191// 1177// 1178//
f 1191// 1178// 1190//
f 1190// 1178// 1179//
f 1190// 1179// 1189//
f 1189// 1179// 1180//
f 1189// 1180// 1188//
f 1188// 1180// 1181//
f 1188// 1181// 1187//
f 1187// 1181// 1168//
f 1187// 1168// 1200//
f 1200// 1168// 1169//
f 1200// 1169// 1199//
f 1199// 1169// 1170//
f 1199// 1170// 1198//
f 1198// 1170// 1171//
f 1198// 1171// 1197//
f 1197// 1171// 1172//
f 1197// 1172// 1196//
f 1196// 1172// 1173//
f 1196// 1173// 1195//
f 1195// 1173// 1174//
f 1195// 1174// 1165//
f 1203// 1204// 241//
f 241// 1204// 244//
f 1204// 1205// 244//
f 244// 1205// 242//
f 1205// 1206// 242//
f 242// 1206// 243//
f 1206// 1207// 243//
f 243// 1207// 239//
f 1207// 1208// 239//
f 239// 1208// 240//
f 1208// 1203// 240//
f 240// 1203// 241//
f 1207// 1206// 1208//
f 1208// 1206// 1205//
f 1208// 1205// 1203//
f 1203// 1205// 1204//
usemtl 1
f 1091// 1092// 1093//
f 1093// 1092// 1098//
f 1093// 1098// 1094//
f 1094// 1098// 1097//
f 1094// 1097// 1095//
f 1095// 1097// 1096//
f 1135// 1150// 1134//
f 1134// 1150// 1149//
f 1143// 1142// 1134//
f 1142// 1141// 1134//
f 1134// 1141// 1140//
f 1134// 1140// 1136//
f 1149// 1148// 1134//
f 1134// 1148// 1147//
f 1134// 1147// 1146//
f 1139// 1138// 1140//
f 1140// 1138// 1137//
f 1140// 1137// 1136//
f 1146// 1145// 1134//
f 1134// 1145// 1144//
f 1134// 1144// 1143//
f 4// 11// 599//
f 599// 11// 597//
f 11// 18// 597//
f 597// 18// 595//
f 18// 26// 595//
f 595// 26// 593//
f 26// 4// 593//
f 593// 4// 599//
usemtl 2
f 1209// 1210// 1211//
f 1211// 1210// 1212//
f 1211// 1212// 1213//
f 1213// 1212// 1214//
f 1213// 1214// 1215//
f 1215// 1214// 1216//
f 1215// 1216// 1217//
f 1217// 1216// 1218//
f 1217// 1218// 1219//
f 1219// 1218// 1220//
f 1219// 1220// 1221//
f 1221// 1220// 1222//
f 1221// 1222// 1223//
f 1223// 1222// 1224//
f 1223// 1224// 1225//
f 1225// 1224// 1226//
f 1225// 1226// 1227//
f 1227// 1226// 1228//
f 1227// 1228// 1229//
f 1229// 1228// 1230//
f 1229// 1230// 1231//
f 1231// 1230// 1232//
f 1231// 1232// 1233//
f 1233// 1232// 1234//
f 1233// 1234// 1235//
f 1235// 1234// 1236//
f 1235// 1236// 1237//
f 1237// 1236// 1238//
f 1237// 1238// 1239//
f 1239// 1238// 1240//
f 1239// 1240// 1241//
f 1241// 1240// 1242//
f 1241// 1242// 1243//
f 1243// 1242// 1244//
f 1243// 1244// 1245//
f 1245// 1244// 1246//
f 1245// 1246// 1247//
f 1247// 1246// 1248//
f 1247// 1248// 1249//
f 1249// 1248// 1250//
f 1249// 1250// 1251//
f 1251// 1250// 1252//
f 1251// 1252// 1253//
f 1253// 1252// 1254//
f 1253// 1254// 1255//
f 1255// 1254// 1256//
f 1255// 1256// 1257//
f 1257// 1256// 1258//
f 1257// 1258// 1259//
f 1259// 1258// 1260//
f 1259// 1260// 1261//
f 1261// 1260// 1262//
f 1261// 1262// 1263//
f 1263// 1262// 1264//
f 1263// 1264// 1265//
f 1265// 1264// 1266//
f 1265// 1266// 1267//
f 1267// 1266// 1268//
f 1267// 1268// 1269//
f 1269// 1268// 1270//
f 1269// 1270// 1271//
f 1271// 1270// 1272//
f 1271// 1272// 1209//
f 1209// 1272// 1210//
f 1210// 50// 49//
f 1210// 49// 1212//
f 1212// 49// 48//
f 1212// 48// 1214//
f 1214// 48// 38//
f 1214// 38// 1216//
f 1216// 38// 37//
f 1216// 37// 1218//
f 1218// 37// 2//
f 1218// 2// 1220//
f 1220// 2// 1//
f 1220// 1// 1222//
f 1222// 1// 68//
f 1222// 68// 1224//
f 1226// 1224// 67//
f 67// 1224// 68//
f 1226// 67// 60//
f 1226// 60// 1228//
f 1228// 60// 58//
f 1228// 58// 1230//
f 1230// 58// 57//
f 1230// 57// 1232//
f 1232// 57// 17//
f 1232// 17// 1234//
f 1234// 17// 16//
f 1234// 16// 1236//
f 1236// 16// 56//
f 1236// 56// 1238//
f 1238// 56// 55//
f 1238// 55// 1240//
f 1242// 1240// 54//
f 54// 1240// 55//
f 1242// 54// 15//
f 1242// 15// 1244//
f 1244// 15// 14//
f 1244// 14// 1246//
f 1246// 14// 13//
f 1246// 13// 1248//
f 1248// 13// 12//
f 1248// 12// 1250//
f 1250// 12// 10//
f 1250// 10// 1252//
f 1252// 10// 9//
f 1252// 9// 1254//
f 1254// 9// 47//
f 1254// 47// 1256//
f 1258// 1256// 46//
f 46// 1256// 47//
f 1258// 46// 45//
f 1258// 45// 1260//
f 1260// 45// 42//
f 1260// 42// 1262//
f 1262// 42// 41//
f 1262// 41// 1264//
f 1264// 41// 40//
f 1264// 40// 1266//
f 1266// 40// 8//
f 1266// 8// 1268//
f 1268// 8// 7//
f 1268// 7// 1270//
f 1270// 7// 39//
f 1270// 39// 1272//
f 1210// 1272// 50//
f 50// 1272// 39//
f 1223// 1273// 1221//
f 1221// 1273// 1274//
f 1221// 1274// 1219//
f 1219// 1274// 1275//
f 1219// 1275// 1217//
f 1217// 1275// 1276//
f 1217// 1276// 1215//
f 1215// 1276// 1277//
f 1215// 1277// 1213//
f 1213// 1277// 1278//
f 1213// 1278// 1211//
f 1211// 1278// 1279//
f 1211// 1279// 1209//
f 1209// 1279// 1280//
f 1223// 1225// 1273//
f 1273// 1225// 1281//
f 1239// 1282// 1237//
f 1237// 1282// 1283//
f 1237// 1283// 1235//
f 1235// 1283// 1284//
f 1235// 1284// 1233//
f 1233// 1284// 1285//
f 1233// 1285// 1231//
f 1231// 1285// 1286//
f 1231// 1286// 1229//
f 1229// 1286// 1287//
f 1229// 1287// 1227//
f 1227// 1287// 1288//
f 1227// 1288// 1225//
f 1225// 1288// 1281//
f 1239// 1241// 1282//
f 1282// 1241// 1289//
f 1255// 1290// 1253//
f 1253// 1290// 1291//
f 1253// 1291// 1251//
f 1251// 1291// 1292//
f 1251// 1292// 1249//
f 1249// 1292// 1293//
f 1249// 1293// 1247//
f 1247// 1293// 1294//
f 1247// 1294// 1245//
f 1245// 1294// 1295//
f 1245// 1295// 1243//
f 1243// 1295// 1296//
f 1243// 1296// 1241//
f 1241// 1296// 1289//
f 1255// 1257// 1290//
f 1290// 1257// 1297//
f 1271// 1298// 1269//
f 1269// 1298// 1299//
f 1269// 1299// 1267//
f 1267// 1299// 1300//
f 1267// 1300// 1265//
f 1265// 1300// 1301//
f 1265// 1301// 1263//
f 1263// 1301// 1302//
f 1263// 1302// 1261//
f 1261// 1302// 1303//
f 1261// 1303// 1259//
f 1259// 1303// 1304//
f 1259// 1304// 1257//
f 1257// 1304// 1297//
f 1271// 1209// 1298//
f 1298// 1209// 1280//
usemtl 1
f 1282// 1289// 1298//
f 1298// 1289// 1290//
f 1298// 1290// 1297//
f 1298// 1280// 1282//
f 1282// 1280// 1273//
f 1282// 1273// 1281//
f 1296// 1295// 1289//
f 1289// 1295// 1294//
f 1289// 1294// 1293//
f 1293// 1292// 1289//
f 1289// 1292// 1291//
f 1289// 1291// 1290//
f 1279// 1278// 1280//
f 1280// 1278// 1277//
f 1280// 1277// 1276//
f 1276// 1275// 1280//
f 1280// 1275// 1274//
f 1280// 1274// 1273//
f 1297// 1304// 1298//
f 1298// 1304// 1303//
f 1298// 1303// 1302//
f 1301// 1300// 1302//
f 1302// 1300// 1299//
f 1302// 1299// 1298//
f 1284// 1287// 1285//
f 1285// 1287// 1286//
f 1281// 1288// 1282//
f 1282// 1288// 1287//
f 1282// 1287// 1283//
f 1283// 1287// 1284//
usemtl 2
f 1305// 1306// 1307//
f 1307// 1306// 1308//
f 1307// 1308// 1309//
f 1309// 1308// 1310//
f 1309// 1310// 1311//
f 1311// 1310// 1312//
f 1311// 1312// 1313//
f 1313// 1312// 1314//
f 1313// 1314// 1315//
f 1315// 1314// 1316//
f 1315// 1316// 1317//
f 1317// 1316// 1318//
f 1317// 1318// 1319//
f 1319// 1318// 1320//
f 1319// 1320// 1321//
f 1321// 1320// 1322//
f 1321// 1322// 1323//
f 1323// 1322// 1324//
f 1323// 1324// 1325//
f 1325// 1324// 1326//
f 1325// 1326// 1327//
f 1327// 1326// 1328//
f 1327// 1328// 1329//
f 1329// 1328// 1330//
f 1329// 1330// 1331//
f 1331// 1330// 1332//
f 1331// 1332// 1333//
f 1333// 1332// 1334//
f 1333// 1334// 1335//
f 1335// 1334// 1336//
f 1335// 1336// 1337//
f 1337// 1336// 1338//
f 1337// 1338// 1339//
f 1339// 1338// 1340//
f 1339// 1340// 1341//
f 1341// 1340// 1342//
f 1341// 1342// 1343//
f 1343// 1342// 1344//
f 1343// 1344// 1345//
f 1345// 1344// 1346//
f 1345// 1346// 1347//
f 1347// 1346// 1348//
f 1347// 1348// 1349//
f 1349// 1348// 1350//
f 1349// 1350// 1351//
f 1351// 1350// 1352//
f 1351// 1352// 1353//
f 1353// 1352// 1354//
f 1353// 1354// 1355//
f 1355// 1354// 1356//
f 1355// 1356// 1357//
f 1357// 1356// 1358//
f 1357// 1358// 1359//
f 1359// 1358// 1360//
f 1359// 1360// 1361//
f 1361// 1360// 1362//
f 1361// 1362// 1363//
f 1363// 1362// 1364//
f 1363// 1364// 1365//
f 1365// 1364// 1366//
f 1365// 1366// 1367//
f 1367// 1366// 1368//
f 1367// 1368// 1305//
f 1305// 1368// 1306//
f 1308// 51// 33//
f 1308// 33// 1310//
f 1310// 33// 32//
f 1310// 32// 1312//
f 1312// 32// 31//
f 1312// 31// 1314//
f 1314// 31// 30//
f 1314// 30// 1316//
f 1316// 30// 29//
f 1316// 29// 1318//
f 1318// 29// 28//
f 1318// 28// 1320//
f 1320// 28// 27//
f 1320// 27// 1322//
f 1324// 1322// 25//
f 25// 1322// 27//
f 1324// 25// 24//
f 1324// 24// 1326//
f 1326// 24// 23//
f 1326// 23// 1328//
f 1328// 23// 22//
f 1328// 22// 1330//
f 1330// 22// 21//
f 1330// 21// 1332//
f 1332// 21// 20//
f 1332// 20// 1334//
f 1334// 20// 19//
f 1334// 19// 1336//
f 1336// 19// 65//
f 1336// 65// 1338//
f 1340// 1338// 64//
f 64// 1338// 65//
f 1340// 64// 63//
f 1340// 63// 1342//
f 1342// 63// 44//
f 1342// 44// 1344//
f 1344// 44// 43//
f 1344// 43// 1346//
f 1346// 43// 62//
f 1346// 62// 1348//
f 1348// 62// 59//
f 1348// 59// 1350//
f 1350// 59// 61//
f 1350// 61// 1352//
f 1352// 61// 66//
f 1352// 66// 1354//
f 1356// 1354// 3//
f 3// 1354// 66//
f 1356// 3// 36//
f 1356// 36// 1358//
f 1358// 36// 35//
f 1358// 35// 1360//
f 1360// 35// 34//
f 1360// 34// 1362//
f 1362// 34// 6//
f 1362// 6// 1364//
f 1364// 6// 5//
f 1364// 5// 1366//
f 1366// 5// 53//
f 1366// 53// 1368//
f 1368// 53// 52//
f 1368// 52// 1306//
f 1308// 1306// 51//
f 51// 1306// 52//
f 1321// 1369// 1319//
f 1319// 1369// 1370//
f 1319// 1370// 1317//
f 1317// 1370// 1371//
f 1317// 1371// 1315//
f 1315// 1371// 1372//
f 1315// 1372// 1313//
f 1313// 1372// 1373//
f 1313// 1373// 1311//
f 1311// 1373// 1374//
f 1311// 1374// 1309//
f 1309// 1374// 1375//
f 1309// 1375// 1307//
f 1307// 1375// 1376//
f 1321// 1323// 1369//
f 1369// 1323// 1377//
f 1337// 1378// 1335//
f 1335// 1378// 1379//
f 1335// 1379// 1333//
f 1333// 1379// 1380//
f 1333// 1380// 1331//
f 1331// 1380// 1381//
f 1331// 1381// 1329//
f 1329// 1381// 1382//
f 1329// 1382// 1327//
f 1327// 1382// 1383//
f 1327// 1383// 1325//
f 1325// 1383// 1384//
f 1325// 1384// 1323//
f 1323// 1384// 1377//
f 1337// 1339// 1378//
f 1378// 1339// 1385//
f 1353// 1386// 1351//
f 1351// 1386// 1387//
f 1351// 1387// 1349//
f 1349// 1387// 1388//
f 1349// 1388// 1347//
f 1347// 1388// 1389//
f 1347// 1389// 1345//
f 1345// 1389// 1390//
f 1345// 1390// 1343//
f 1343// 1390// 1391//
f 1343// 1391// 1341//
f 1341// 1391// 1392//
f 1341// 1392// 1339//
f 1339// 1392// 1385//
f 1353// 1355// 1386//
f 1386// 1355// 1393//
f 1305// 1394// 1367//
f 1367// 1394// 1395//
f 1367// 1395// 1365//
f 1365// 1395// 1396//
f 1365// 1396// 1363//
f 1363// 1396// 1397//
f 1363// 1397// 1361//
f 1361// 1397// 1398//
f 1361// 1398// 1359//
f 1359// 1398// 1399//
f 1359// 1399// 1357//
f 1357// 1399// 1400//
f 1357// 1400// 1355//
f 1355// 1400// 1393//
f 1305// 1307// 1394//
f 1394// 1307// 1376//
usemtl 1
f 1376// 1375// 1374//
f 1374// 1373// 1376//
f 1376// 1373// 1372//
f 1376// 1372// 1371//
f 1396// 1395// 1393//
f 1393// 1395// 1394//
f 1393// 1394// 1369//
f 1369// 1394// 1376//
f 1369// 1376// 1370//
f 1370// 1376// 1371//
f 1377// 1384// 1378//
f 1378// 1384// 1383//
f 1378// 1383// 1382//
f 1393// 1400// 1396//
f 1396// 1400// 1399//
f 1396// 1399// 1397//
f 1397// 1399// 1398//
f 1392// 1386// 1385//
f 1385// 1386// 1393//
f 1385// 1393// 1378//
f 1378// 1393// 1369//
f 1378// 1369// 1377//
f 1381// 1380// 1382//
f 1382// 1380// 1379//
f 1382// 1379// 1378//
f 1392// 1391// 1386//
f 1386// 1391// 1390//
f 1386// 1390// 1387//
f 1387// 1390// 1389//
f 1387// 1389// 1388//
