v 0.869607 -1.3133 0.81
v 1.3633 -1.3133 0.81
v 1.3633 -1.2133 0.81
newmtl 1
Ka 0.2235294117647059 0.2235294117647059 0.2235294117647059
Kd 0.2235294117647059 0.2235294117647059 0.2235294117647059
Ks 0.11372549019607843 0.11372549019607843 0.11372549019607843
d 0.0
endmtl
v -0.220268 -0.080563 0.81
v -0.233912 -0.077076 0.81
v -0.246037 -0.081637 0.81
v -0.23872 -0.074778 0.81
v -0.23872 -0.052826 0.81
v -0.246037 0.070192 0.81
v -0.224232 0.001739 0.81
v -0.230882 0.008086 0.81
v -0.23518 0.014862 0.81
v -0.234444 0.048407 0.81
v -0.229729 0.054919 0.81
v -0.237863 0.022681 0.81
v -0.23872 0.030863 0.81
v -0.237375 0.041228 0.81
v -0.223288 0.060509 0.81
v -0.214853 0.065355 0.81
v -0.202253 0.069489 0.81
v -0.202048 -0.011697 0.81
v -0.227754 -0.059565 0.81
v -0.181662 -0.022516 0.81
v -0.209998 -0.065023 0.81
v -0.179573 -0.023848 0.81
v -0.198733 -0.066089 0.81
v -0.187841 -0.06525 0.81
v -0.180229 -0.063191 0.81
v -0.174849 -0.060221 0.81
v -0.171725 -0.057278 0.81
v -0.169739 -0.054304 0.81
v -0.168012 -0.049625 0.81
v -0.167378 -0.043709 0.81
v -0.16803 -0.038386 0.81
v -0.16973 -0.034118 0.81
v -0.173399 -0.029087 0.81
v -0.209839 -0.081637 0.81
v -0.246037 -0.447926 0.81
v -0.200962 -0.082552 0.81
v -0.13811 -0.081637 0.81
v -0.13811 0.070192 0.81
v -0.152744 0.045039 0.81
v -0.152744 0.066991 0.81
v -0.164658 -0.010497 0.81
v -0.156005 -0.018558 0.81
v -0.148437 -0.05259 0.81
v -0.151219 -0.06019 0.81
v -0.156064 -0.067223 0.81
v -0.162338 -0.0727 0.81
v -0.170814 -0.077339 0.81
v -0.185455 -0.081421 0.81
v -0.188423 -0.081637 0.81
v -0.151019 -0.026059 0.81
v -0.148236 -0.033577 0.81
v -0.147256 -0.042051 0.81
v -0.186728 0.002395 0.81
v -0.164085 0.050928 0.81
v -0.200671 0.009783 0.81
v -0.176907 0.053993 0.81
v -0.187271 0.054643 0.81
v -0.21636 0.022975 0.81
v -0.217939 0.027111 0.81
v -0.218598 0.032835 0.81
v -0.213824 0.019254 0.81
v -0.209224 0.01522 0.81
v -0.214614 0.044642 0.81
v -0.216801 0.041239 0.81
v -0.218127 0.03738 0.81
v -0.197772 0.053691 0.81
v -0.205736 0.051144 0.81
v -0.211196 0.047927 0.81
v -0.168049 0.070192 0.81
v -0.13811 1.3133 0.81
v -0.169018 0.070395 0.81
v -0.185671 0.071106 0.81
v -0.246037 1.3133 0.81
v -0.195049 0.070192 0.81
v 0.337915 -0.081637 0.81
v 0.337297 -0.081806 0.81
v 0.267073 -0.447926 0.81
v 0.327382 -0.082552 0.81
v 0.359634 -0.004654 0.81
v 0.371058 0.024337 0.81
v 0.367479 0.01613 0.81
v 0.351527 0.066007 0.81
v 0.359052 0.061146 0.81
v 0.869607 -0.081637 0.81
v 0.364904 0.055087 0.81
v 0.369353 0.047506 0.81
v 0.371272 -0.058797 0.81
v 0.365607 -0.06714 0.81
v 0.357808 -0.073949 0.81
v 0.362261 0.009246 0.81
v 0.354632 0.002833 0.81
v 0.350848 5.08E-4 0.81
v 0.869607 -0.447926 0.81
v 0.348779 -0.078665 0.81
v 0.371665 0.039899 0.81
v 0.372256 0.033063 0.81
v 0.366744 -0.011886 0.81
v 0.372627 -0.022003 0.81
v 0.375341 -0.031438 0.81
v 0.375915 -0.03865 0.81
v 0.374594 -0.049918 0.81
v 0.3205 0.070192 0.81
v 0.322592 0.070706 0.81
v 0.267073 1.3133 0.81
v 0.329211 0.071106 0.81
v 0.337312 0.070192 0.81
v 0.341382 0.069732 0.81
v 0.869607 0.070192 0.81
v 0.869607 1.3133 0.81
v 0.289801 -0.011583 0.81
v 0.298086 -0.004416 0.81
v 0.267073 0.070192 0.81
v 0.28628 0.033063 0.81
v 0.287604 0.042916 0.81
v 0.290886 0.050773 0.81
v 0.283726 -0.0201 0.81
v 0.307889 5.08E-4 0.81
v 0.298336 0.007316 0.81
v 0.296183 0.057938 0.81
v 0.303181 0.063733 0.81
v 0.311664 0.068021 0.81
v 0.281971 -0.055009 0.81
v 0.267073 -0.081637 0.81
v 0.28685 -0.063904 0.81
v 0.293402 -0.07105 0.81
v 0.279353 -0.04471 0.81
v 0.278963 -0.03865 0.81
v 0.28032 -0.028464 0.81
v 0.318959 -0.081637 0.81
v 0.313953 -0.081094 0.81
v 0.302705 -0.07713 0.81
v 0.292185 0.014392 0.81
v 0.288407 0.021534 0.81
v 0.286605 0.028524 0.81
v 0.028354 -0.447926 0.81
v -0.049095 -0.081637 0.81
v -0.13811 -0.447926 0.81
v -0.058308 -0.082552 0.81
v -0.066942 -0.081637 0.81
v -0.023585 0.064075 0.81
v 0.028354 0.070192 0.81
v -0.037766 0.069122 0.81
v -0.04753 0.070192 0.81
v 0.006287 -0.042836 0.81
v -0.002029 -0.05678 0.81
v 0.028354 -0.081637 0.81
v -0.013383 -0.0683 0.81
v -0.025836 -0.075959 0.81
v -0.040324 -0.080767 0.81
v -0.010542 0.055305 0.81
v 5.87E-4 0.042777 0.81
v 0.008407 0.027798 0.81
v 0.012658 0.011075 0.81
v 0.01372 -0.003951 0.81
v 0.011703 -0.025649 0.81
v -0.066494 0.070192 0.81
v -0.055878 0.071106 0.81
v 0.028354 1.3133 0.81
v -0.121376 0.03153 0.81
v -0.112846 0.045584 0.81
v -0.101199 0.057162 0.81
v -0.087345 0.065264 0.81
v -0.072157 0.069704 0.81
v -0.076677 -0.080606 0.81
v -0.090772 -0.075759 0.81
v -0.103042 -0.067943 0.81
v -0.113817 -0.056789 0.81
v -0.122127 -0.042786 0.81
v -0.127198 -0.026576 0.81
v -0.128963 -0.007495 0.81
v -0.126913 0.01418 0.81
v -0.623266 -1.3133 0.81
v -0.623266 -1.2133 0.81
v -1.3633 -1.3133 0.81
v -1.3633 -1.2133 0.81
v 0.869607 -1.2133 0.81
v 0.267073 -1.3133 0.81
v 0.267073 -1.2133 0.81
v 0.182012 -1.3133 0.81
v 0.182012 -1.2133 0.81
v 0.028354 -1.3133 0.81
v 0.028354 -1.2133 0.81
v -0.13811 -1.3133 0.81
v -0.13811 -1.2133 0.81
v -0.246037 -1.3133 0.81
v -0.246037 -1.2133 0.81
v -1.143204 -0.8883 0.81
v -1.119366 -0.857234 0.81
v -1.3633 -0.447926 0.81
v -1.143204 -1.0383 0.81
v -1.119366 -1.069366 0.81
v -1.0883 -1.093204 0.81
v -0.907234 -0.857234 0.81
v -0.883396 -0.8883 0.81
v -0.623266 -0.447926 0.81
v -0.868411 -0.924477 0.81
v -0.8633 -0.9633 0.81
v -0.868411 -1.002123 0.81
v -0.883396 -1.0383 0.81
v -0.907234 -1.069366 0.81
v -0.9383 -1.093204 0.81
v -0.974477 -1.108189 0.81
v -1.0133 -1.1133 0.81
v -1.052123 -1.108189 0.81
v -1.158189 -1.002123 0.81
v -1.1633 -0.9633 0.81
v -1.158189 -0.924477 0.81
v -1.0883 -0.833396 0.81
v -1.052123 -0.818411 0.81
v -1.0133 -0.8133 0.81
v -0.974477 -0.818411 0.81
v -0.9383 -0.833396 0.81
v 0.182012 -0.447926 0.81
v 0.182012 -0.081637 0.81
v -0.623266 -0.081637 0.81
v -1.3633 -0.081637 0.81
v -0.623266 0.070192 0.81
v -1.3633 0.070192 0.81
v -0.273476 0.069277 0.81
v -0.253354 0.069277 0.81
v -0.306402 -0.080723 0.81
v -0.328354 -0.080723 0.81
v -0.317292 -0.060601 0.81
v -0.316835 -0.060601 0.81
v -0.318438 -0.053828 0.81
v -0.315565 -0.053718 0.81
v -0.320322 -0.047224 0.81
v -0.313519 -0.047024 0.81
v -0.361281 0.069277 0.81
v -0.383232 0.069277 0.81
v 0.06311 0.045497 0.81
v 0.06251 0.045497 0.81
v 0.065384 0.040494 0.81
v 0.063023 0.035015 0.81
v 0.068112 0.035722 0.81
v 0.165549 0.069277 0.81
v 0.182012 0.070192 0.81
v 0.145427 0.069277 0.81
v 0.068598 0.069277 0.81
v 0.141683 -0.080723 0.81
v 0.06311 0.024517 0.81
v 0.06311 -0.080723 0.81
v 0.165549 -0.080723 0.81
v 0.042988 -0.080723 0.81
v 0.042988 0.069277 0.81
v 0.145998 -0.055113 0.81
v 0.146399 -0.055113 0.81
v 0.14311 -0.049881 0.81
v 0.145593 -0.04424 0.81
v 0.139968 -0.044795 0.81
v 0.145427 -0.033333 0.81
v 0.198476 -0.029503 0.81
v 0.198476 -0.014869 0.81
v 0.255183 -0.029503 0.81
v 0.255183 -0.014869 0.81
v -0.623266 1.3133 0.81
v -1.3633 1.3133 0.81
v 0.182012 1.3133 0.81
v 1.3633 -0.447926 0.81
v 1.3633 -0.081637 0.81
v 1.3633 0.070192 0.81
v 1.3633 1.3133 0.81
v -1.226455 -0.261116 0.0
v -1.651455 -0.261116 0.0
v -1.651455 -0.075492 0.0
newmtl 2
Ka 0.8509803921568627 0.8509803921568627 0.8509803921568627
Kd 0.8509803921568627 0.8509803921568627 0.8509803921568627
Ks 0.4235294117647059 0.4235294117647059 0.4235294117647059
d 0.0
endmtl
v -1.125 1.11 0.0
v 0.064024 0.075422 0.0
v -0.012805 0.075422 0.0
v -0.254268 0.075422 0.0
v -0.312805 -0.074578 0.0
v -0.475 1.11 0.0
v -0.825 1.11 0.0
v -0.825 1.51 0.0
v -1.125 1.51 0.0
v -1.651455 -0.061116 0.0
v -1.226455 -0.061116 0.0
v -0.234146 0.075422 0.0
v 0.043902 0.058959 0.0
v 0.043902 0.009569 0.0
v -0.012805 0.058959 0.0
v -0.009146 0.009569 0.0
v -0.045732 0.075422 0.0
v -0.009146 -0.006895 0.0
v 0.043902 -0.006895 0.0
v 0.043902 -0.058114 0.0
v -0.016463 -0.058114 0.0
v -0.045732 -0.074578 0.0
v -0.109733 0.073106 0.0
v -0.127283 0.066943 0.0
v -0.143609 0.056002 0.0
v -0.143766 0.055864 0.0
v -0.154374 0.044102 0.0
v -0.161345 0.031202 0.0
v -0.088062 0.075422 0.0
v -0.177439 -0.074578 0.0
v -0.158973 -0.033466 0.0
v -0.150371 -0.046883 0.0
v -0.016463 -0.074578 0.0
v 0.064024 -0.074578 0.0
v 0.078659 -0.075492 0.0
v -0.165373 0.016423 0.0
v -0.166463 0.002309 0.0
v -0.164359 -0.017766 0.0
v -0.138025 -0.058704 0.0
v -0.122363 -0.067806 0.0
v -0.105079 -0.072958 0.0
v -0.086519 -0.074578 0.0
v -0.290854 -0.074578 0.0
v -0.275676 -0.032505 0.0
v -0.21371 -0.032505 0.0
v -0.19939 -0.074578 0.0
v 0.078659 -0.64 0.0
v -1.026455 -0.64 0.0
v -1.226455 1.11 0.0
v -1.226455 -0.44 0.0
v 1.648545 -0.075492 0.0
v 1.648545 -0.261116 0.0
v 1.223545 -0.261116 0.0
v 0.134566 -0.076407 0.0
v 0.143387 -0.075492 0.0
v 1.223545 -0.64 0.0
v 0.12842 0.060788 0.0
v 0.143191 0.059129 0.0
v 0.095981 -0.051829 0.0
v -0.475 1.51 0.0
v -0.175 1.51 0.0
v -0.175 1.11 0.0
v 0.078659 1.11 0.0
v 0.093293 -0.05034 0.0
v 0.093293 -0.066803 0.0
v 0.109282 -0.073368 0.0
v 0.124439 -0.075492 0.0
v 0.130464 -0.076337 0.0
v 0.175 1.51 0.0
v 0.475 1.51 0.0
v 0.175 1.11 0.0
v 0.475 1.11 0.0
v 0.294512 -0.074578 0.0
v 0.294512 0.075422 0.0
v 1.223545 -0.061116 0.0
v 1.223545 1.11 0.0
v 1.125 1.11 0.0
v 0.825 1.11 0.0
v 1.125 1.51 0.0
v 0.825 1.51 0.0
v 1.648545 -0.061116 0.0
v 0.154418 0.055078 0.0
v 0.1648 0.048132 0.0
v 0.173858 0.038132 0.0
v 0.184756 -0.001178 0.0
v 0.183237 -0.017417 0.0
v 0.179162 -0.030319 0.0
v 0.145784 -0.058374 0.0
v 0.131793 -0.059944 0.0
v 0.156714 -0.054351 0.0
v 0.165919 -0.048146 0.0
v 0.172958 -0.04072 0.0
v 0.111882 -0.057734 0.0
v 0.217683 -0.074578 0.0
v 0.153051 -0.07449 0.0
v 0.16759 -0.069486 0.0
v 0.110189 0.058419 0.0
v 0.093293 0.051184 0.0
v 0.093293 0.071306 0.0
v 0.180042 0.02655 0.0
v 0.184041 0.010493 0.0
v 0.196962 0.035914 0.0
v 0.18817 0.049938 0.0
v 0.27439 0.075422 0.0
v 0.179655 -0.061781 0.0
v 0.190922 -0.049919 0.0
v 0.217683 -0.058114 0.0
v 0.198913 -0.035657 0.0
v 0.27439 -0.058114 0.0
v 0.174628 0.062962 0.0
v 0.16038 0.071164 0.0
v 0.143658 0.076022 0.0
v 0.203428 -0.019779 0.0
v 0.204878 -0.002407 0.0
v 0.20272 0.018918 0.0
v 0.128592 0.077252 0.0
v 0.110635 0.076012 0.0
v 1.55 -0.061116 0.01
v 1.223545 -0.061116 0.01
v 1.55 1.400745 0.01
v 1.223545 1.11 0.01
v 1.125 1.11 0.01
v 1.125 1.5 0.01
v 1.450745 1.5 0.01
v 1.476528 1.496631 0.01
v 1.53675 1.450486 0.01
v 1.542473 1.438839 0.01
v 1.546631 1.426528 0.01
v 1.488839 1.492473 0.01
v 1.500486 1.48675 0.01
v 1.511273 1.479558 0.01
v 1.521018 1.471018 0.01
v 1.529558 1.461273 0.01
v 0.475 1.11 0.01
v 0.475 1.5 0.01
v 0.825 1.11 0.01
v 0.825 1.5 0.01
v -0.175 1.11 0.01
v -0.175 1.5 0.01
v 0.175 1.11 0.01
v 0.175 1.5 0.01
v -0.825 1.11 0.01
v -0.825 1.5 0.01
v -0.475 1.11 0.01
v -0.475 1.5 0.01
v -1.226455 -0.061116 0.01
v -1.55 -0.061116 0.01
v -1.226455 1.11 0.01
v -1.55 1.400745 0.01
v -1.546631 1.426528 0.01
v -1.500486 1.48675 0.01
v -1.488839 1.492473 0.01
v -1.125 1.5 0.01
v -1.125 1.11 0.01
v -1.450745 1.5 0.01
v -1.476528 1.496631 0.01
v -1.542473 1.438839 0.01
v -1.53675 1.450486 0.01
v -1.529558 1.461273 0.01
v -1.521018 1.471018 0.01
v -1.511273 1.479558 0.01
v 1.223545 -0.64 0.01
v 1.223545 -0.261116 0.01
v 1.55 -0.261116 0.01
v 0.825 -1.11 0.01
v -1.026455 -0.64 0.01
v 1.125 -1.11 0.01
v 1.125 -1.5 0.01
v 1.55 -1.400745 0.01
v 1.450745 -1.5 0.01
v 0.175 -1.11 0.01
v 0.175 -1.5 0.01
v -0.175 -1.5 0.01
v 1.546631 -1.426528 0.01
v 1.488839 -1.492473 0.01
v 1.476528 -1.496631 0.01
v 1.542473 -1.438839 0.01
v 1.53675 -1.450486 0.01
v 1.500486 -1.48675 0.01
v -0.175 -1.11 0.01
v -0.475 -1.11 0.01
v 0.475 -1.11 0.01
v 0.475 -1.5 0.01
v 0.825 -1.5 0.01
v 1.511273 -1.479558 0.01
v 1.529558 -1.461273 0.01
v 1.521018 -1.471018 0.01
v -1.125 -1.11 0.01
v -1.125 -1.5 0.01
v -1.55 -0.261116 0.01
v -1.450745 -1.5 0.01
v -1.55 -1.400745 0.01
v -0.475 -1.5 0.01
v -0.825 -1.5 0.01
v -0.825 -1.11 0.01
v -1.226455 -0.44 0.01
v -1.226455 -0.261116 0.01
v -1.476528 -1.496631 0.01
v -1.542473 -1.438839 0.01
v -1.546631 -1.426528 0.01
v -1.488839 -1.492473 0.01
v -1.500486 -1.48675 0.01
v -1.53675 -1.450486 0.01
v -1.511273 -1.479558 0.01
v -1.529558 -1.461273 0.01
v -1.521018 -1.471018 0.01
v -1.125 -1.48281 0.15
v -1.125 -1.51 0.15
v -0.825 -1.48281 0.15
v -0.825 -1.51 0.15
v -1.125 -1.11 0.0
v -1.125 -1.51 0.0
v -0.825 -1.51 0.0
v -0.825 -1.11 0.0
v -0.475 -1.48281 0.15
v -0.475 -1.51 0.15
v -0.175 -1.48281 0.15
v -0.175 -1.51 0.15
v -0.475 -1.11 0.0
v -0.475 -1.51 0.0
v -0.175 -1.51 0.0
v -0.175 -1.11 0.0
v 0.175 -1.48281 0.15
v 0.175 -1.51 0.15
v 0.475 -1.48281 0.15
v 0.475 -1.51 0.15
v 0.175 -1.11 0.0
v 0.175 -1.51 0.0
v 0.475 -1.51 0.0
v 0.475 -1.11 0.0
v 0.825 -1.48281 0.15
v 0.825 -1.51 0.15
v 1.125 -1.48281 0.15
v 1.125 -1.51 0.15
v 0.825 -1.11 0.0
v 0.825 -1.51 0.0
v 1.125 -1.51 0.0
v 1.125 -1.11 0.0
v -0.825 1.48281 0.15
v -0.825 1.51 0.15
v -1.125 1.48281 0.15
v -1.125 1.51 0.15
v -0.175 1.48281 0.15
v -0.175 1.51 0.15
v -0.475 1.48281 0.15
v -0.475 1.51 0.15
v 0.475 1.48281 0.15
v 0.475 1.51 0.15
v 0.175 1.48281 0.15
v 0.175 1.51 0.15
v 1.125 1.48281 0.15
v 1.125 1.51 0.15
v 0.825 1.48281 0.15
v 0.825 1.51 0.15
v 1.53281 -0.261116 0.15
v 1.648545 -0.261116 0.15
v 1.53281 -0.061116 0.15
v 1.648545 -0.061116 0.15
v -1.53281 -0.061116 0.15
v -1.651455 -0.061116 0.15
v -1.53281 -0.261116 0.15
v -1.651455 -0.261116 0.15
v -0.218769 -0.016041 0.01
v -0.21371 -0.032505 0.01
v -0.268931 -0.016041 0.01
newmtl 3
Ka 0.6470588235294118 0.6470588235294118 0.6470588235294118
Kd 0.6470588235294118 0.6470588235294118 0.6470588235294118
Ks 0.3215686274509804 0.3215686274509804 0.3215686274509804
d 0.0
endmtl
v -0.275676 -0.032505 0.01
v -0.241149 0.046611 0.01
v -0.234146 0.075422 0.01
v -0.177439 -0.074578 0.01
v -0.19939 -0.074578 0.01
v -0.242593 0.051814 0.01
v -0.24355 0.05713 0.01
v -0.254268 0.075422 0.01
v -0.244036 0.05713 0.01
v -0.245015 0.05183 0.01
v -0.246351 0.046611 0.01
v -0.312805 -0.074578 0.01
v -0.290854 -0.074578 0.01
v -0.268931 -0.016041 0.0
v -0.218769 -0.016041 0.0
v -0.246351 0.046611 0.0
v -0.245015 0.05183 0.0
v -0.244036 0.05713 0.0
v -0.24355 0.05713 0.0
v -0.242593 0.051814 0.0
v -0.241149 0.046611 0.0
v -0.161345 0.031202 0.01
v -0.154374 0.044102 0.01
v -0.136354 0.037924 0.01
v -0.143766 0.055864 0.01
v -0.129069 0.04566 0.01
v -0.143609 0.056002 0.01
v -0.118112 0.052739 0.01
v -0.127283 0.066943 0.01
v -0.10573 0.057072 0.01
v -0.109733 0.073106 0.01
v -0.087976 0.058959 0.01
v -0.088062 0.075422 0.01
v -0.065854 0.058959 0.01
v -0.045732 0.075422 0.01
v -0.065854 -0.058114 0.01
v -0.045732 -0.074578 0.01
v -0.087147 -0.058114 0.01
v -0.086519 -0.074578 0.01
v -0.102973 -0.056641 0.01
v -0.105079 -0.072958 0.01
v -0.115595 -0.052701 0.01
v -0.122363 -0.067806 0.01
v -0.125825 -0.046627 0.01
v -0.138025 -0.058704 0.01
v -0.134238 -0.038317 0.01
v -0.150371 -0.046883 0.01
v -0.140565 -0.027975 0.01
v -0.158973 -0.033466 0.01
v -0.144964 -0.013875 0.01
v -0.164359 -0.017766 0.01
v -0.146341 0.00188 0.01
v -0.166463 0.002309 0.01
v -0.145067 0.016809 0.01
v -0.165373 0.016423 0.01
v -0.141566 0.028673 0.01
v -0.065854 0.058959 0.0
v -0.087976 0.058959 0.0
v -0.065854 -0.058114 0.0
v -0.087147 -0.058114 0.0
v -0.102973 -0.056641 0.0
v -0.115595 -0.052701 0.0
v -0.125825 -0.046627 0.0
v -0.134238 -0.038317 0.0
v -0.140565 -0.027975 0.0
v -0.144964 -0.013875 -0.0
v -0.146341 0.00188 -0.0
v -0.145067 0.016809 0.0
v -0.141566 0.028673 0.0
v -0.136354 0.037924 -0.0
v -0.129069 0.04566 -0.0
v -0.118112 0.052739 0.0
v -0.10573 0.057072 0.0
v -0.016463 -0.074578 0.01
v -0.016463 -0.058114 0.01
v 0.043902 -0.058114 0.01
v 0.043902 -0.006895 0.01
v -0.009146 -0.006895 0.01
v -0.009146 0.009569 0.01
v 0.043902 0.009569 0.01
v 0.043902 0.058959 0.01
v -0.012805 0.058959 0.01
v -0.012805 0.075422 0.01
v 0.064024 0.075422 0.01
v 0.064024 -0.074578 0.01
v 0.093293 -0.066803 0.01
v 0.093293 -0.05034 0.01
v 0.131793 -0.059944 0.01
v 0.111882 -0.057734 0.01
v 0.095981 -0.051829 0.01
v 0.184756 -0.001178 0.01
v 0.183237 -0.017417 0.01
v 0.179162 -0.030319 0.01
v 0.172958 -0.04072 0.01
v 0.165919 -0.048146 0.01
v 0.156714 -0.054351 0.01
v 0.145784 -0.058374 0.01
v 0.12842 0.060788 0.01
v 0.143191 0.059129 0.01
v 0.154418 0.055078 0.01
v 0.1648 0.048132 0.01
v 0.173858 0.038132 0.01
v 0.180042 0.02655 0.01
v 0.184041 0.010493 0.01
v 0.093293 0.051184 0.01
v 0.110189 0.058419 0.01
v 0.093293 0.071306 0.01
v 0.128592 0.077252 0.01
v 0.110635 0.076012 0.01
v 0.204878 -0.002407 0.01
v 0.20272 0.018918 0.01
v 0.196962 0.035914 0.01
v 0.18817 0.049938 0.01
v 0.174628 0.062962 0.01
v 0.16038 0.071164 0.01
v 0.143658 0.076022 0.01
v 0.134566 -0.076407 0.01
v 0.153051 -0.07449 0.01
v 0.16759 -0.069486 0.01
v 0.179655 -0.061781 0.01
v 0.190922 -0.049919 0.01
v 0.198913 -0.035657 0.01
v 0.203428 -0.019779 0.01
v 0.109282 -0.073368 0.01
v 0.130464 -0.076337 0.01
v 0.217683 -0.074578 0.01
v 0.217683 -0.058114 0.01
v 0.27439 -0.058114 0.01
v 0.27439 0.075422 0.01
v 0.294512 0.075422 0.01
v 0.294512 -0.074578 0.01
v 1.3633 1.412554 0.722187
v -1.3633 1.412554 0.722187
v -1.462554 -1.3133 0.722187
v -1.462554 1.3133 0.722187
v 1.462554 1.3133 0.722187
v 1.462554 -1.3133 0.722187
v -1.3633 -1.412554 0.722187
v 1.3633 -1.412554 0.722187
v 1.459365 -1.335259 0.724492
v 1.458858 -1.338754 0.724858
v 1.451595 -1.355856 0.726067
v 1.448771 -1.362506 0.726536
v 1.439704 -1.374246 0.726865
v 1.432968 -1.382968 0.727108
v 1.424246 -1.389704 0.726865
v 1.412506 -1.398771 0.726536
v 1.405856 -1.401595 0.726067
v 1.388754 -1.408858 0.724858
v 1.385259 -1.409365 0.724492
v -1.3633 -1.407017 0.744887
v 1.3633 -1.407017 0.744887
v -1.3633 -1.406686 0.745526
v 1.3633 -1.406686 0.745526
v -1.3633 -1.395876 0.766403
v 1.3633 -1.395876 0.766403
v -1.3633 -1.395496 0.766835
v 1.3633 -1.395496 0.766835
v -1.3633 -1.379887 0.784607
v 1.3633 -1.379887 0.784607
v -1.3633 -1.379532 0.784853
v 1.3633 -1.379532 0.784853
v -1.3633 -1.359989 0.798432
v 1.3633 -1.359989 0.798432
v -1.3633 -1.35972 0.798534
v 1.3633 -1.35972 0.798534
v -1.3633 -1.33735 0.807065
v 1.3633 -1.33735 0.807065
v -1.3633 -1.337208 0.807082
v 1.3633 -1.337208 0.807082
v -1.385259 -1.409365 0.724492
v -1.388754 -1.408858 0.724858
v -1.405856 -1.401595 0.726067
v -1.412506 -1.398771 0.726536
v -1.424246 -1.389704 0.726865
v -1.432968 -1.382968 0.727108
v -1.439704 -1.374246 0.726865
v -1.448771 -1.362506 0.726536
v -1.451595 -1.355856 0.726067
v -1.458858 -1.338754 0.724858
v -1.459365 -1.335259 0.724492
v 1.456686 -1.3133 0.745526
v 1.445876 -1.3133 0.766403
v 1.443805 -1.331675 0.766403
v 1.445496 -1.3133 0.766835
v 1.429887 -1.3133 0.784607
v 1.428217 -1.328117 0.784607
v 1.408818 -1.323689 0.798432
v 1.386747 -1.318652 0.807065
v 1.384969 -1.323735 0.807065
v 1.373735 -1.334969 0.807065
v 1.378295 -1.332103 0.807065
v 1.368652 -1.336747 0.807065
v 1.387208 -1.3133 0.807082
v 1.454667 -1.334154 0.744887
v 1.447736 -1.353962 0.744887
v 1.436571 -1.371731 0.744887
v 1.421731 -1.386571 0.744887
v 1.403962 -1.397736 0.744887
v 1.384154 -1.404667 0.744887
v 1.429532 -1.3133 0.784853
v 1.409989 -1.3133 0.798432
v 1.40972 -1.3133 0.798534
v 1.38735 -1.3133 0.807065
v 1.399803 -1.34241 0.798432
v 1.39241 -1.349803 0.798432
v 1.383557 -1.355365 0.798432
v 1.373689 -1.358818 0.798432
v 1.405365 -1.333557 0.798432
v 1.382103 -1.328295 0.807065
v 1.423293 -1.342191 0.784607
v 1.415359 -1.354816 0.784607
v 1.404816 -1.36536 0.784607
v 1.392191 -1.373293 0.784607
v 1.378117 -1.378217 0.784607
v 1.437698 -1.349128 0.766403
v 1.42786 -1.364785 0.766403
v 1.414785 -1.37786 0.766403
v 1.399128 -1.387698 0.766403
v 1.381675 -1.393805 0.766403
v 1.457017 -1.3133 0.744887
v -1.381675 -1.393805 0.766403
v -1.378117 -1.378217 0.784607
v -1.373689 -1.358818 0.798432
v -1.368652 -1.336747 0.807065
v -1.373735 -1.334969 0.807065
v -1.384969 -1.323735 0.807065
v -1.382103 -1.328295 0.807065
v -1.386747 -1.318652 0.807065
v -1.384154 -1.404667 0.744887
v -1.403962 -1.397736 0.744887
v -1.421731 -1.386571 0.744887
v -1.436571 -1.371731 0.744887
v -1.447736 -1.353962 0.744887
v -1.454667 -1.334154 0.744887
v -1.457017 -1.3133 0.744887
v -1.387208 -1.3133 0.807082
v -1.39241 -1.349803 0.798432
v -1.399803 -1.34241 0.798432
v -1.405365 -1.333557 0.798432
v -1.408818 -1.323689 0.798432
v -1.383557 -1.355365 0.798432
v -1.378295 -1.332103 0.807065
v -1.38735 -1.3133 0.807065
v -1.40972 -1.3133 0.798534
v -1.409989 -1.3133 0.798432
v -1.429532 -1.3133 0.784853
v -1.392191 -1.373293 0.784607
v -1.404816 -1.36536 0.784607
v -1.415359 -1.354816 0.784607
v -1.423293 -1.342191 0.784607
v -1.428217 -1.328117 0.784607
v -1.399128 -1.387698 0.766403
v -1.414785 -1.37786 0.766403
v -1.42786 -1.364785 0.766403
v -1.437698 -1.349128 0.766403
v -1.443805 -1.331675 0.766403
v -1.429887 -1.3133 0.784607
v -1.445496 -1.3133 0.766835
v -1.445876 -1.3133 0.766403
v -1.456686 -1.3133 0.745526
v 1.388754 1.408858 0.724858
v 1.388887 1.408801 0.724868
v 1.412506 1.398771 0.726536
v 1.412602 1.398697 0.726539
v 1.432968 1.382968 0.727108
v 1.448697 1.362602 0.726539
v 1.448771 1.362506 0.726536
v 1.458801 1.338887 0.724868
v 1.458858 1.338754 0.724858
v 1.387208 1.3133 0.807082
v 1.38735 1.3133 0.807065
v 1.40972 1.3133 0.798534
v 1.409989 1.3133 0.798432
v 1.429532 1.3133 0.784853
v 1.429887 1.3133 0.784607
v 1.445496 1.3133 0.766835
v 1.445876 1.3133 0.766403
v 1.456686 1.3133 0.745526
v 1.457017 1.3133 0.744887
v -1.387208 1.3133 0.807082
v -1.457017 1.3133 0.744887
v -1.456686 1.3133 0.745526
v -1.445876 1.3133 0.766403
v -1.445496 1.3133 0.766835
v -1.429887 1.3133 0.784607
v -1.429532 1.3133 0.784853
v -1.409989 1.3133 0.798432
v -1.40972 1.3133 0.798534
v -1.38735 1.3133 0.807065
v -1.458858 1.338754 0.724858
v -1.458801 1.338887 0.724868
v -1.448771 1.362506 0.726536
v -1.448697 1.362602 0.726539
v -1.432968 1.382968 0.727108
v -1.412602 1.398697 0.726539
v -1.412506 1.398771 0.726536
v -1.388887 1.408801 0.724868
v -1.388754 1.408858 0.724858
v 1.3633 1.395496 0.766835
v 1.3633 1.379887 0.784607
v 1.380534 1.377618 0.784607
v 1.375384 1.358398 0.798432
v 1.369524 1.336531 0.807065
v 1.375325 1.334128 0.807065
v 1.384128 1.325325 0.807065
v 1.380306 1.330306 0.807065
v 1.386531 1.319525 0.807065
v 1.3633 1.337208 0.807082
v 1.387556 1.403823 0.744887
v 1.410158 1.394461 0.744887
v 1.429568 1.379568 0.744887
v 1.444461 1.360158 0.744887
v 1.453824 1.337556 0.744887
v 1.3633 1.379532 0.784853
v 1.3633 1.359989 0.798432
v 1.3633 1.35972 0.798534
v 1.3633 1.33735 0.807065
v 1.386644 1.353734 0.798432
v 1.396314 1.346314 0.798432
v 1.403734 1.336644 0.798432
v 1.408398 1.325384 0.798432
v 1.396593 1.370966 0.784607
v 1.410384 1.360384 0.784607
v 1.420966 1.346593 0.784607
v 1.427618 1.330534 0.784607
v 1.3633 1.406686 0.745526
v 1.3633 1.395876 0.766403
v 1.384672 1.393062 0.766403
v 1.404588 1.384812 0.766403
v 1.42169 1.37169 0.766403
v 1.434812 1.354588 0.766403
v 1.443062 1.334672 0.766403
v 1.3633 1.407017 0.744887
v -1.427618 1.330534 0.784607
v -1.408398 1.325384 0.798432
v -1.386531 1.319525 0.807065
v -1.384128 1.325325 0.807065
v -1.375325 1.334128 0.807065
v -1.380306 1.330306 0.807065
v -1.369524 1.336531 0.807065
v -1.453824 1.337556 0.744887
v -1.444461 1.360158 0.744887
v -1.429568 1.379568 0.744887
v -1.410158 1.394461 0.744887
v -1.387556 1.403823 0.744887
v -1.3633 1.407017 0.744887
v -1.3633 1.337208 0.807082
v -1.403734 1.336644 0.798432
v -1.396314 1.346314 0.798432
v -1.386644 1.353734 0.798432
v -1.375384 1.358398 0.798432
v -1.3633 1.33735 0.807065
v -1.3633 1.35972 0.798534
v -1.3633 1.359989 0.798432
v -1.3633 1.379532 0.784853
v -1.420966 1.346593 0.784607
v -1.410384 1.360384 0.784607
v -1.396593 1.370966 0.784607
v -1.380534 1.377618 0.784607
v -1.443062 1.334672 0.766403
v -1.434812 1.354588 0.766403
v -1.42169 1.37169 0.766403
v -1.404588 1.384812 0.766403
v -1.384672 1.393062 0.766403
v -1.3633 1.379887 0.784607
v -1.3633 1.395496 0.766835
v -1.3633 1.395876 0.766403
v -1.3633 1.406686 0.745526
v -0.273476 0.069277 0.8
v -0.253354 0.069277 0.8
v -0.306402 -0.080723 0.8
v -0.328354 -0.080723 0.8
v -0.383232 0.069277 0.8
v -0.361281 0.069277 0.8
v -0.320322 -0.047224 0.8
v -0.317292 -0.060601 0.8
v -0.318438 -0.053828 0.8
v -0.316835 -0.060601 0.8
v -0.313519 -0.047024 0.8
v -0.315565 -0.053718 0.8
v -0.8633 -0.9633 0.8
v -0.868411 -0.924477 0.8
v -0.883396 -0.8883 0.8
v -0.907234 -0.857234 0.8
v -0.9383 -0.833396 0.8
v -0.974477 -0.818411 0.8
v -1.0133 -0.8133 0.8
v -1.052123 -0.818411 0.8
v -1.0883 -0.833396 0.8
v -1.119366 -0.857234 0.8
v -1.143204 -0.8883 0.8
v -1.158189 -0.924477 0.8
v -1.1633 -0.9633 0.8
v -1.158189 -1.002123 0.8
v -1.143204 -1.0383 0.8
v -1.119366 -1.069366 0.8
v -1.0883 -1.093204 0.8
v -1.052123 -1.108189 0.8
v -1.0133 -1.1133 0.8
v -0.974477 -1.108189 0.8
v -0.9383 -1.093204 0.8
v -0.907234 -1.069366 0.8
v -0.883396 -1.0383 0.8
v -0.868411 -1.002123 0.8
v -1.0133 -0.9633 0.8
v 0.327382 -0.082552 0.8
v 0.313953 -0.081094 0.8
v 0.302705 -0.07713 0.8
v 0.293402 -0.07105 0.8
v 0.28685 -0.063904 0.8
v 0.281971 -0.055009 0.8
v 0.279353 -0.04471 0.8
v 0.278963 -0.03865 0.8
v 0.307889 5.08E-4 0.8
v 0.298086 -0.004416 0.8
v 0.289801 -0.011583 0.8
v 0.283726 -0.0201 0.8
v 0.28032 -0.028464 0.8
v 0.28628 0.033063 0.8
v 0.286605 0.028524 0.8
v 0.288407 0.021534 0.8
v 0.292185 0.014392 0.8
v 0.298336 0.007316 0.8
v 0.329211 0.071106 0.8
v 0.322592 0.070706 0.8
v 0.311664 0.068021 0.8
v 0.303181 0.063733 0.8
v 0.296183 0.057938 0.8
v 0.290886 0.050773 0.8
v 0.287604 0.042916 0.8
v 0.341382 0.069732 0.8
v 0.351527 0.066007 0.8
v 0.359052 0.061146 0.8
v 0.364904 0.055087 0.8
v 0.369353 0.047506 0.8
v 0.371665 0.039899 0.8
v 0.372256 0.033063 0.8
v 0.350848 5.08E-4 0.8
v 0.354632 0.002833 0.8
v 0.362261 0.009246 0.8
v 0.367479 0.01613 0.8
v 0.371058 0.024337 0.8
v 0.375915 -0.03865 0.8
v 0.375341 -0.031438 0.8
v 0.372627 -0.022003 0.8
v 0.366744 -0.011886 0.8
v 0.359634 -0.004654 0.8
v 0.337297 -0.081806 0.8
v 0.348779 -0.078665 0.8
v 0.357808 -0.073949 0.8
v 0.365607 -0.06714 0.8
v 0.371272 -0.058797 0.8
v 0.374594 -0.049918 0.8
v 0.335153 0.007889 0.8
v 0.329125 0.007082 0.8
v 0.332598 -0.009727 0.8
v 0.339711 0.009751 0.8
v 0.350831 0.022995 0.8
v 0.352012 0.028456 0.8
v 0.352134 0.030948 0.8
v 0.312688 -0.012554 0.8
v 0.319258 -0.010234 0.8
v 0.323063 0.007881 0.8
v 0.348488 0.01814 0.8
v 0.344049 0.012918 0.8
v 0.327353 -0.009381 0.8
v 0.33967 -0.011532 0.8
v 0.346039 -0.015035 0.8
v 0.351383 0.037338 0.8
v 0.349439 0.042441 0.8
v 0.346244 0.047045 0.8
v 0.343661 0.049559 0.8
v 0.339461 0.052358 0.8
v 0.350881 -0.01948 0.8
v 0.354513 -0.024648 0.8
v 0.356691 -0.030202 0.8
v 0.357622 -0.037678 0.8
v 0.318193 0.009931 0.8
v 0.3142 0.012905 0.8
v 0.312433 0.014745 0.8
v 0.30916 0.019417 0.8
v 0.307184 0.024459 0.8
v 0.306402 0.030948 0.8
v 0.306893 0.036331 0.8
v 0.334309 0.054126 0.8
v 0.329125 0.054643 0.8
v 0.323146 0.053942 0.8
v 0.318642 0.052259 0.8
v 0.314474 0.04943 0.8
v 0.311104 0.045837 0.8
v 0.308494 0.041441 0.8
v 0.307179 -0.016138 0.8
v 0.303196 -0.020131 0.8
v 0.29992 -0.025267 0.8
v 0.297905 -0.031252 0.8
v 0.297256 -0.037678 0.8
v 0.298028 -0.045115 0.8
v 0.3 -0.05087 0.8
v 0.303017 -0.055684 0.8
v 0.30805 -0.060505 0.8
v 0.313944 -0.063722 0.8
v 0.320372 -0.065522 0.8
v 0.327353 -0.066089 0.8
v 0.335524 -0.06525 0.8
v 0.342231 -0.062953 0.8
v 0.347748 -0.059439 0.8
v 0.35178 -0.05539 0.8
v 0.354821 -0.050629 0.8
v 0.356806 -0.04508 0.8
v 0.297256 -0.037678 0.81
v 0.297905 -0.031252 0.81
v 0.29992 -0.025267 0.81
v 0.303196 -0.020131 0.81
v 0.307179 -0.016138 0.81
v 0.312688 -0.012554 0.81
v 0.319258 -0.010234 0.81
v 0.327353 -0.009381 0.81
v 0.332598 -0.009727 0.81
v 0.33967 -0.011532 0.81
v 0.346039 -0.015035 0.81
v 0.350881 -0.01948 0.81
v 0.354513 -0.024648 0.81
v 0.356691 -0.030202 0.81
v 0.357622 -0.037678 0.81
v 0.356806 -0.04508 0.81
v 0.354821 -0.050629 0.81
v 0.35178 -0.05539 0.81
v 0.347748 -0.059439 0.81
v 0.342231 -0.062953 0.81
v 0.335524 -0.06525 0.81
v 0.327353 -0.066089 0.81
v 0.320372 -0.065522 0.81
v 0.313944 -0.063722 0.81
v 0.30805 -0.060505 0.81
v 0.303017 -0.055684 0.81
v 0.3 -0.05087 0.81
v 0.298028 -0.045115 0.81
v 0.306402 0.030948 0.81
v 0.306893 0.036331 0.81
v 0.308494 0.041441 0.81
v 0.311104 0.045837 0.81
v 0.314474 0.04943 0.81
v 0.318642 0.052259 0.81
v 0.323146 0.053942 0.81
v 0.329125 0.054643 0.81
v 0.334309 0.054126 0.81
v 0.339461 0.052358 0.81
v 0.343661 0.049559 0.81
v 0.346244 0.047045 0.81
v 0.349439 0.042441 0.81
v 0.351383 0.037338 0.81
v 0.352134 0.030948 0.81
v 0.352012 0.028456 0.81
v 0.350831 0.022995 0.81
v 0.348488 0.01814 0.81
v 0.344049 0.012918 0.81
v 0.339711 0.009751 0.81
v 0.335153 0.007889 0.81
v 0.329125 0.007082 0.81
v 0.323063 0.007881 0.81
v 0.318193 0.009931 0.81
v 0.3142 0.012905 0.81
v 0.312433 0.014745 0.81
v 0.30916 0.019417 0.81
v 0.307184 0.024459 0.81
v 0.255183 -0.014869 0.8
v 0.255183 -0.029503 0.8
v 0.198476 -0.029503 0.8
v 0.198476 -0.014869 0.8
v 0.165549 0.069277 0.8
v 0.165549 -0.080723 0.8
v 0.141683 -0.080723 0.8
v 0.068112 0.035722 0.8
v 0.06311 0.045497 0.8
v 0.065384 0.040494 0.8
v 0.06251 0.045497 0.8
v 0.06311 0.024517 0.8
v 0.063023 0.035015 0.8
v 0.06311 -0.080723 0.8
v 0.042988 -0.080723 0.8
v 0.042988 0.069277 0.8
v 0.068598 0.069277 0.8
v 0.139968 -0.044795 0.8
v 0.145998 -0.055113 0.8
v 0.14311 -0.049881 0.8
v 0.146399 -0.055113 0.8
v 0.145427 -0.033333 0.8
v 0.145593 -0.04424 0.8
v 0.145427 0.069277 0.8
v -0.128963 -0.007495 0.8
v -0.127198 -0.026576 0.8
v -0.122127 -0.042786 0.8
v -0.113817 -0.056789 0.8
v -0.103042 -0.067943 0.8
v -0.090772 -0.075759 0.8
v -0.076677 -0.080606 0.8
v -0.058308 -0.082552 0.8
v -0.055878 0.071106 0.8
v -0.072157 0.069704 0.8
v -0.087345 0.065264 0.8
v -0.101199 0.057162 0.8
v -0.112846 0.045584 0.8
v -0.121376 0.03153 0.8
v -0.126913 0.01418 0.8
v 0.01372 -0.003951 0.8
v 0.012658 0.011075 0.8
v 0.008407 0.027798 0.8
v 5.87E-4 0.042777 0.8
v -0.010542 0.055305 0.8
v -0.023585 0.064075 0.8
v -0.037766 0.069122 0.8
v -0.040324 -0.080767 0.8
v -0.025836 -0.075959 0.8
v -0.013383 -0.0683 0.8
v -0.002029 -0.05678 0.8
v 0.006287 -0.042836 0.8
v 0.011703 -0.025649 0.8
v -0.108841 -0.005866 0.8
v -0.10723 -0.023126 0.8
v -0.102927 -0.036795 0.8
v -0.096548 -0.047508 0.8
v -0.088428 -0.055932 0.8
v -0.079602 -0.061536 0.8
v -0.069239 -0.06501 0.8
v -0.058251 -0.066089 0.8
v -0.044774 -0.064679 0.8
v -0.034375 -0.061129 0.8
v -0.02564 -0.055554 0.8
v -0.018707 -0.048462 0.8
v -0.012804 -0.03894 0.8
v -0.008134 -0.024676 0.8
v -0.006402 -0.006152 0.8
v -0.007885 0.011576 0.8
v -0.011711 0.025112 0.8
v -0.017971 0.036358 0.8
v -0.025317 0.044162 0.8
v -0.033663 0.049643 0.8
v -0.04357 0.053164 0.8
v -0.056993 0.054643 0.8
v -0.070403 0.053054 0.8
v -0.080476 0.049228 0.8
v -0.089469 0.043037 0.8
v -0.098115 0.033217 0.8
v -0.104237 0.021483 0.8
v -0.108244 0.004852 0.8
v -0.108841 -0.005866 0.81
v -0.108244 0.004852 0.81
v -0.104237 0.021483 0.81
v -0.098115 0.033217 0.81
v -0.089469 0.043037 0.81
v -0.080476 0.049228 0.81
v -0.070403 0.053054 0.81
v -0.056993 0.054643 0.81
v -0.04357 0.053164 0.81
v -0.033663 0.049643 0.81
v -0.025317 0.044162 0.81
v -0.017971 0.036358 0.81
v -0.011711 0.025112 0.81
v -0.007885 0.011576 0.81
v -0.006402 -0.006152 0.81
v -0.008134 -0.024676 0.81
v -0.012804 -0.03894 0.81
v -0.018707 -0.048462 0.81
v -0.02564 -0.055554 0.81
v -0.034375 -0.061129 0.81
v -0.044774 -0.064679 0.81
v -0.058251 -0.066089 0.81
v -0.069239 -0.06501 0.81
v -0.079602 -0.061536 0.81
v -0.088428 -0.055932 0.81
v -0.096548 -0.047508 0.81
v -0.102927 -0.036795 0.81
v -0.10723 -0.023126 0.81
v -0.23872 -0.074778 0.8
v -0.23872 -0.052826 0.8
v -0.198733 -0.066089 0.8
v -0.209998 -0.065023 0.8
v -0.227754 -0.059565 0.8
v -0.167378 -0.043709 0.8
v -0.168012 -0.049625 0.8
v -0.169739 -0.054304 0.8
v -0.171725 -0.057278 0.8
v -0.174849 -0.060221 0.8
v -0.180229 -0.063191 0.8
v -0.187841 -0.06525 0.8
v -0.202048 -0.011697 0.8
v -0.181662 -0.022516 0.8
v -0.179573 -0.023848 0.8
v -0.173399 -0.029087 0.8
v -0.16973 -0.034118 0.8
v -0.16803 -0.038386 0.8
v -0.23872 0.030863 0.8
v -0.237863 0.022681 0.8
v -0.23518 0.014862 0.8
v -0.230882 0.008086 0.8
v -0.224232 0.001739 0.8
v -0.185671 0.071106 0.8
v -0.202253 0.069489 0.8
v -0.214853 0.065355 0.8
v -0.223288 0.060509 0.8
v -0.229729 0.054919 0.8
v -0.234444 0.048407 0.8
v -0.237375 0.041228 0.8
v -0.169018 0.070395 0.8
v -0.152744 0.066991 0.8
v -0.152744 0.045039 0.8
v -0.187271 0.054643 0.8
v -0.176907 0.053993 0.8
v -0.164085 0.050928 0.8
v -0.218598 0.032835 0.8
v -0.218127 0.03738 0.8
v -0.216801 0.041239 0.8
v -0.214614 0.044642 0.8
v -0.211196 0.047927 0.8
v -0.205736 0.051144 0.8
v -0.197772 0.053691 0.8
v -0.186728 0.002395 0.8
v -0.200671 0.009783 0.8
v -0.209224 0.01522 0.8
v -0.213824 0.019254 0.8
v -0.21636 0.022975 0.8
v -0.217939 0.027111 0.8
v -0.147256 -0.042051 0.8
v -0.148236 -0.033577 0.8
v -0.151019 -0.026059 0.8
v -0.156005 -0.018558 0.8
v -0.164658 -0.010497 0.8
v -0.200962 -0.082552 0.8
v -0.185455 -0.081421 0.8
v -0.170814 -0.077339 0.8
v -0.162338 -0.0727 0.8
v -0.156064 -0.067223 0.8
v -0.151219 -0.06019 0.8
v -0.148437 -0.05259 0.8
v -0.233912 -0.077076 0.8
v -0.220268 -0.080563 0.8
usemtl 1
f 1// 2// 3//
f 4// 5// 6//
f 5// 7// 6//
f 6// 7// 8//
f 6// 8// 9//
f 10// 11// 8//
f 8// 11// 12//
f 9// 13// 14//
f 12// 15// 8//
f 8// 15// 16//
f 8// 16// 9//
f 9// 16// 17//
f 9// 17// 13//
f 14// 18// 9//
f 9// 18// 19//
f 9// 19// 20//
f 10// 8// 21//
f 21// 8// 22//
f 21// 22// 23//
f 23// 22// 24//
f 23// 24// 25//
f 25// 24// 26//
f 25// 26// 27//
f 27// 28// 25//
f 25// 28// 29//
f 25// 29// 30//
f 30// 31// 25//
f 25// 31// 32//
f 25// 32// 33//
f 34// 35// 33//
f 33// 35// 36//
f 33// 36// 25//
f 4// 6// 37//
f 37// 6// 38//
f 37// 38// 39//
f 40// 41// 42//
f 42// 41// 43//
f 44// 45// 42//
f 46// 47// 40//
f 40// 47// 48//
f 40// 48// 49//
f 49// 50// 40//
f 40// 50// 51//
f 40// 51// 52//
f 45// 53// 42//
f 42// 53// 54//
f 42// 54// 40//
f 40// 54// 55//
f 40// 55// 46//
f 44// 42// 56//
f 56// 42// 57//
f 56// 57// 58//
f 58// 57// 59//
f 58// 59// 60//
f 61// 60// 62//
f 62// 60// 63//
f 61// 64// 60//
f 60// 64// 65//
f 60// 65// 58//
f 66// 67// 68//
f 60// 69// 63//
f 63// 69// 70//
f 63// 70// 68//
f 68// 70// 71//
f 68// 71// 66//
f 43// 41// 72//
f 72// 41// 73//
f 72// 73// 74//
f 74// 73// 75//
f 75// 73// 76//
f 75// 76// 77//
f 78// 79// 80//
f 80// 79// 81//
f 82// 83// 84//
f 85// 86// 87//
f 87// 86// 88//
f 87// 88// 89//
f 83// 82// 87//
f 90// 91// 87//
f 87// 91// 92//
f 84// 93// 82//
f 82// 93// 94//
f 82// 94// 95//
f 80// 96// 78//
f 78// 96// 87//
f 78// 87// 97//
f 97// 87// 92//
f 89// 98// 87//
f 87// 98// 99//
f 87// 99// 83//
f 82// 100// 87//
f 87// 100// 101//
f 87// 101// 102//
f 102// 103// 87//
f 87// 103// 104//
f 87// 104// 90//
f 105// 106// 107//
f 107// 106// 108//
f 107// 108// 109//
f 85// 87// 110//
f 110// 87// 111//
f 110// 111// 109//
f 109// 111// 112//
f 109// 112// 107//
f 113// 114// 115//
f 116// 117// 115//
f 115// 117// 118//
f 113// 115// 119//
f 114// 120// 121//
f 118// 122// 115//
f 115// 122// 123//
f 115// 123// 124//
f 125// 126// 127//
f 127// 126// 128//
f 125// 129// 126//
f 126// 129// 130//
f 126// 130// 115//
f 115// 130// 131//
f 115// 131// 119//
f 132// 133// 126//
f 126// 133// 134//
f 126// 134// 128//
f 121// 135// 114//
f 114// 135// 136//
f 114// 136// 115//
f 115// 136// 137//
f 115// 137// 116//
f 138// 139// 140//
f 140// 139// 141//
f 140// 141// 142//
f 143// 144// 145//
f 145// 144// 146//
f 147// 148// 149//
f 148// 150// 149//
f 149// 150// 151//
f 149// 151// 152//
f 143// 153// 144//
f 144// 153// 154//
f 144// 154// 155//
f 155// 156// 144//
f 144// 156// 157//
f 144// 157// 149//
f 149// 157// 158//
f 149// 158// 147//
f 159// 160// 161//
f 162// 163// 41//
f 41// 163// 164//
f 41// 164// 165//
f 161// 73// 159//
f 159// 73// 41//
f 159// 41// 166//
f 166// 41// 165//
f 167// 168// 40//
f 39// 38// 52//
f 52// 38// 140//
f 52// 140// 40//
f 40// 140// 142//
f 40// 142// 167//
f 168// 169// 40//
f 40// 169// 170//
f 40// 170// 171//
f 171// 172// 40//
f 40// 172// 173//
f 40// 173// 41//
f 41// 173// 174//
f 41// 174// 162//
f 175// 176// 177//
f 177// 176// 178//
f 1// 179// 180//
f 180// 179// 181//
f 180// 181// 182//
f 182// 181// 183//
f 182// 183// 184//
f 184// 183// 185//
f 184// 185// 186//
f 186// 185// 187//
f 186// 187// 188//
f 188// 187// 189//
f 190// 191// 192//
f 193// 178// 194//
f 194// 178// 195//
f 196// 197// 198//
f 198// 197// 199//
f 198// 199// 176//
f 176// 199// 200//
f 176// 200// 201//
f 201// 202// 176//
f 176// 202// 203//
f 176// 203// 204//
f 204// 205// 176//
f 176// 205// 206//
f 176// 206// 178//
f 178// 206// 207//
f 178// 207// 195//
f 193// 208// 178//
f 178// 208// 209//
f 178// 209// 192//
f 192// 209// 210//
f 192// 210// 190//
f 191// 211// 192//
f 192// 211// 212//
f 192// 212// 213//
f 213// 214// 198//
f 198// 214// 215//
f 198// 215// 196//
f 179// 96// 181//
f 181// 96// 80//
f 181// 80// 183//
f 183// 80// 216//
f 183// 216// 185//
f 185// 216// 138//
f 185// 138// 187//
f 187// 138// 140//
f 187// 140// 189//
f 189// 140// 38//
f 81// 132// 80//
f 80// 132// 126//
f 80// 126// 216//
f 216// 126// 217//
f 216// 217// 138//
f 138// 217// 149//
f 138// 149// 139//
f 139// 149// 152//
f 213// 198// 192//
f 192// 198// 218//
f 192// 218// 219//
f 219// 218// 220//
f 219// 220// 221//
f 222// 223// 9//
f 9// 223// 6//
f 6// 223// 224//
f 6// 224// 225//
f 226// 227// 228//
f 228// 227// 229//
f 228// 229// 230//
f 230// 229// 231//
f 230// 231// 232//
f 231// 222// 232//
f 232// 222// 9//
f 232// 9// 233//
f 233// 9// 220//
f 233// 220// 225//
f 225// 220// 218//
f 225// 218// 6//
f 6// 218// 198//
f 6// 198// 38//
f 38// 198// 176//
f 38// 176// 189//
f 189// 176// 175//
f 189// 175// 188//
f 234// 235// 236//
f 236// 235// 237//
f 236// 237// 238//
f 239// 240// 241//
f 241// 240// 144//
f 241// 144// 242//
f 238// 237// 243//
f 243// 237// 244//
f 243// 244// 245//
f 246// 243// 217//
f 217// 243// 245//
f 217// 245// 149//
f 149// 245// 247//
f 149// 247// 144//
f 144// 247// 248//
f 144// 248// 242//
f 249// 250// 251//
f 251// 250// 252//
f 251// 252// 253//
f 253// 252// 242//
f 242// 252// 254//
f 242// 254// 241//
f 217// 255// 256//
f 255// 217// 257//
f 257// 217// 126//
f 257// 126// 258//
f 258// 126// 115//
f 258// 115// 256//
f 256// 115// 240//
f 256// 240// 217//
f 217// 240// 239//
f 217// 239// 246//
f 20// 77// 9//
f 9// 77// 76//
f 9// 76// 220//
f 220// 76// 259//
f 220// 259// 221//
f 221// 259// 260//
f 124// 105// 115//
f 115// 105// 107//
f 115// 107// 240//
f 240// 107// 261//
f 240// 261// 144//
f 144// 261// 161//
f 144// 161// 146//
f 146// 161// 160//
f 1// 3// 179//
f 179// 3// 262//
f 179// 262// 96//
f 96// 262// 263//
f 96// 263// 87//
f 87// 263// 264//
f 87// 264// 111//
f 111// 264// 265//
f 111// 265// 112//
usemtl 2
f 266// 267// 268//
f 269// 270// 271//
f 269// 272// 273//
f 274// 270// 275//
f 275// 270// 269//
f 275// 269// 276//
f 276// 269// 277//
f 268// 278// 279//
f 272// 269// 280//
f 281// 282// 283//
f 283// 282// 284//
f 283// 284// 285//
f 285// 284// 286//
f 287// 288// 286//
f 286// 288// 289//
f 286// 289// 285//
f 285// 289// 290//
f 291// 292// 280//
f 280// 292// 293//
f 293// 294// 280//
f 280// 294// 295//
f 280// 295// 296//
f 291// 280// 297//
f 297// 280// 269//
f 297// 269// 285//
f 285// 269// 271//
f 285// 271// 283//
f 298// 299// 300//
f 301// 302// 303//
f 303// 302// 270//
f 296// 304// 280//
f 280// 304// 305//
f 280// 305// 298//
f 298// 305// 306//
f 298// 306// 299//
f 300// 307// 298//
f 298// 307// 308//
f 298// 308// 309//
f 289// 301// 290//
f 290// 301// 303//
f 290// 303// 310//
f 273// 311// 303//
f 312// 313// 311//
f 311// 313// 314//
f 311// 314// 303//
f 303// 314// 298//
f 303// 298// 310//
f 310// 298// 309//
f 303// 315// 316//
f 317// 269// 279//
f 279// 269// 273//
f 279// 273// 268//
f 268// 273// 303//
f 268// 303// 266//
f 266// 303// 316//
f 266// 316// 318//
f 319// 320// 321//
f 315// 322// 323//
f 319// 321// 323//
f 323// 321// 324//
f 323// 324// 315//
f 325// 326// 327//
f 328// 329// 274//
f 274// 329// 330//
f 274// 330// 270//
f 270// 330// 331//
f 270// 331// 303//
f 303// 331// 332//
f 303// 332// 333//
f 333// 334// 303//
f 303// 334// 335//
f 303// 335// 315//
f 315// 335// 336//
f 315// 336// 322//
f 337// 338// 339//
f 339// 338// 340//
f 341// 342// 343//
f 344// 343// 345//
f 345// 343// 346//
f 345// 346// 347//
f 347// 346// 348//
f 343// 349// 319//
f 326// 350// 327//
f 327// 350// 351//
f 327// 351// 352//
f 353// 354// 327//
f 327// 354// 355//
f 356// 357// 358//
f 358// 357// 359//
f 355// 360// 327//
f 327// 360// 359//
f 327// 359// 361//
f 361// 359// 357//
f 343// 319// 341//
f 341// 319// 323//
f 341// 323// 362//
f 362// 323// 363//
f 362// 363// 364//
f 325// 327// 365//
f 365// 327// 332//
f 365// 332// 366//
f 366// 332// 331//
f 366// 331// 367//
f 352// 368// 327//
f 327// 368// 369//
f 327// 369// 353//
f 370// 371// 372//
f 372// 371// 331//
f 372// 331// 342//
f 342// 331// 339//
f 342// 339// 343//
f 343// 339// 340//
f 343// 340// 346//
f 364// 373// 362//
f 362// 373// 374//
f 362// 374// 375//
f 375// 374// 376//
f 375// 376// 377//
f 371// 378// 331//
f 331// 378// 379//
f 331// 379// 380//
f 376// 381// 377//
f 377// 381// 382//
f 377// 382// 372//
f 372// 382// 383//
f 372// 383// 370//
f 380// 384// 331//
f 331// 384// 385//
f 331// 385// 367//
usemtl 1
f 386// 387// 388//
f 388// 387// 389//
f 390// 391// 389//
f 389// 391// 392//
f 389// 392// 393//
f 394// 395// 389//
f 389// 395// 396//
f 389// 396// 388//
f 393// 397// 389//
f 389// 397// 398//
f 389// 398// 399//
f 399// 400// 389//
f 389// 400// 401//
f 389// 401// 394//
f 402// 403// 404//
f 404// 403// 405//
f 406// 407// 408//
f 408// 407// 409//
f 410// 411// 412//
f 412// 411// 413//
f 414// 415// 416//
f 416// 415// 417//
f 416// 417// 418//
f 419// 420// 416//
f 421// 422// 423//
f 423// 422// 416//
f 423// 416// 424//
f 424// 416// 420//
f 418// 425// 416//
f 416// 425// 426//
f 416// 426// 427//
f 427// 428// 416//
f 416// 428// 429//
f 416// 429// 419//
f 430// 431// 432//
f 433// 434// 430//
f 433// 430// 435//
f 435// 430// 432//
f 435// 432// 436//
f 436// 432// 437//
f 436// 437// 438//
f 439// 440// 441//
f 442// 443// 437//
f 437// 443// 444//
f 437// 444// 438//
f 442// 445// 443//
f 443// 445// 446//
f 443// 446// 447//
f 448// 449// 434//
f 441// 448// 439//
f 439// 448// 434//
f 439// 434// 450//
f 450// 434// 433//
f 450// 433// 451//
f 451// 433// 452//
f 447// 446// 453//
f 453// 446// 454//
f 453// 454// 455//
f 456// 457// 458//
f 458// 457// 459//
f 458// 459// 460//
f 461// 462// 449//
f 449// 462// 463//
f 449// 463// 434//
f 434// 463// 456//
f 434// 456// 464//
f 464// 456// 458//
f 464// 458// 465//
f 466// 467// 459//
f 459// 467// 468//
f 459// 468// 460//
f 466// 469// 467//
f 467// 469// 470//
f 467// 470// 471//
f 471// 470// 472//
f 471// 472// 473//
f 473// 472// 474//
usemtl 2
f 475// 476// 477//
f 477// 476// 478//
f 456// 479// 457//
f 457// 479// 480//
f 457// 480// 475//
f 475// 480// 476//
f 477// 478// 462//
f 462// 478// 481//
f 462// 481// 463//
f 463// 481// 482//
f 478// 476// 481//
f 481// 476// 480//
f 482// 479// 463//
f 463// 479// 456//
f 482// 481// 479//
f 479// 481// 480//
f 483// 484// 485//
f 485// 484// 486//
f 449// 487// 461//
f 461// 487// 488//
f 461// 488// 483//
f 483// 488// 484//
f 485// 486// 441//
f 441// 486// 489//
f 441// 489// 448//
f 448// 489// 490//
f 486// 484// 489//
f 489// 484// 488//
f 490// 487// 448//
f 448// 487// 449//
f 490// 489// 487//
f 487// 489// 488//
f 491// 492// 493//
f 493// 492// 494//
f 439// 495// 440//
f 440// 495// 496//
f 440// 496// 491//
f 491// 496// 492//
f 493// 494// 451//
f 451// 494// 497//
f 451// 497// 450//
f 450// 497// 498//
f 494// 492// 497//
f 497// 492// 496//
f 498// 495// 450//
f 450// 495// 439//
f 498// 497// 495//
f 495// 497// 496//
f 499// 500// 501//
f 501// 500// 502//
f 433// 503// 452//
f 452// 503// 504//
f 452// 504// 499//
f 499// 504// 500//
f 501// 502// 436//
f 436// 502// 505//
f 436// 505// 435//
f 435// 505// 506//
f 502// 500// 505//
f 505// 500// 504//
f 506// 503// 435//
f 435// 503// 433//
f 506// 505// 503//
f 503// 505// 504//
f 507// 508// 509//
f 509// 508// 510//
f 509// 510// 421//
f 421// 510// 277//
f 421// 277// 422//
f 422// 277// 269//
f 410// 275// 411//
f 411// 275// 276//
f 411// 276// 507//
f 507// 276// 508//
f 510// 508// 277//
f 277// 508// 276//
f 511// 512// 513//
f 513// 512// 514//
f 513// 514// 413//
f 413// 514// 328//
f 413// 328// 412//
f 412// 328// 274//
f 406// 330// 407//
f 407// 330// 329//
f 407// 329// 511//
f 511// 329// 512//
f 514// 512// 328//
f 328// 512// 329//
f 515// 516// 517//
f 517// 516// 518//
f 517// 518// 409//
f 409// 518// 337//
f 409// 337// 408//
f 408// 337// 339//
f 402// 340// 403//
f 403// 340// 338//
f 403// 338// 515//
f 515// 338// 516//
f 518// 516// 337//
f 337// 516// 338//
f 519// 520// 521//
f 521// 520// 522//
f 521// 522// 405//
f 405// 522// 348//
f 405// 348// 404//
f 404// 348// 346//
f 390// 345// 391//
f 391// 345// 347//
f 391// 347// 519//
f 519// 347// 520//
f 522// 520// 348//
f 348// 520// 347//
f 523// 524// 525//
f 525// 524// 526//
f 527// 528// 529//
f 529// 528// 530//
f 344// 345// 389//
f 389// 345// 390//
f 346// 340// 404//
f 404// 340// 402//
f 330// 406// 331//
f 331// 406// 408//
f 331// 408// 339//
f 274// 275// 412//
f 412// 275// 410//
f 324// 321// 430//
f 430// 321// 431//
f 431// 321// 432//
f 432// 321// 320//
f 432// 320// 523//
f 523// 320// 524//
f 349// 526// 319//
f 319// 526// 524//
f 319// 524// 320//
f 343// 387// 386//
f 525// 526// 386//
f 386// 526// 349//
f 386// 349// 343//
f 343// 344// 387//
f 387// 344// 389//
f 269// 317// 422//
f 422// 317// 416//
f 317// 279// 416//
f 416// 279// 414//
f 414// 279// 415//
f 415// 279// 278//
f 415// 278// 527//
f 527// 278// 528//
f 267// 530// 268//
f 268// 530// 528//
f 268// 528// 278//
f 266// 465// 458//
f 529// 530// 458//
f 458// 530// 267//
f 458// 267// 266//
f 266// 318// 465//
f 465// 318// 464//
f 318// 316// 464//
f 464// 316// 434//
f 324// 430// 315//
f 315// 430// 434//
f 315// 434// 316//
usemtl 3
f 531// 532// 533//
f 533// 532// 534//
f 535// 536// 531//
f 531// 536// 537//
f 531// 537// 532//
f 532// 537// 538//
f 535// 539// 536//
f 536// 539// 540//
f 536// 540// 541//
f 541// 540// 542//
f 541// 542// 543//
f 543// 544// 541//
f 541// 544// 533//
f 541// 533// 545//
f 545// 533// 534//
f 545// 534// 546//
f 273// 272// 545//
f 545// 272// 541//
f 272// 280// 541//
f 541// 280// 536//
f 280// 298// 536//
f 536// 298// 537//
f 298// 314// 537//
f 537// 314// 538//
f 314// 313// 538//
f 538// 313// 532//
f 313// 312// 532//
f 532// 312// 534//
f 312// 311// 534//
f 534// 311// 546//
f 311// 273// 546//
f 546// 273// 545//
f 547// 548// 533//
f 533// 548// 531//
f 549// 547// 544//
f 544// 547// 533//
f 549// 544// 543//
f 549// 543// 550//
f 550// 543// 542//
f 550// 542// 551//
f 552// 551// 540//
f 540// 551// 542//
f 552// 540// 539//
f 552// 539// 553//
f 553// 539// 535//
f 553// 535// 554//
f 548// 554// 531//
f 531// 554// 535//
f 555// 556// 557//
f 557// 556// 558//
f 557// 558// 559//
f 559// 558// 560//
f 559// 560// 561//
f 561// 560// 562//
f 561// 562// 563//
f 563// 562// 564//
f 563// 564// 565//
f 565// 564// 566//
f 565// 566// 567//
f 567// 566// 568//
f 567// 568// 569//
f 569// 568// 570//
f 569// 570// 571//
f 571// 570// 572//
f 571// 572// 573//
f 573// 572// 574//
f 573// 574// 575//
f 575// 574// 576//
f 575// 576// 577//
f 577// 576// 578//
f 577// 578// 579//
f 579// 578// 580//
f 579// 580// 581//
f 581// 580// 582//
f 581// 582// 583//
f 583// 582// 584//
f 583// 584// 585//
f 585// 584// 586//
f 585// 586// 587//
f 587// 586// 588//
f 587// 588// 589//
f 589// 588// 555//
f 589// 555// 557//
f 290// 310// 570//
f 570// 310// 572//
f 305// 586// 584//
f 305// 584// 306//
f 306// 584// 582//
f 306// 582// 299//
f 299// 582// 580//
f 299// 580// 300//
f 300// 580// 578//
f 300// 578// 307//
f 307// 578// 576//
f 307// 576// 308//
f 308// 576// 574//
f 308// 574// 309//
f 309// 574// 572//
f 309// 572// 310//
f 297// 566// 564//
f 297// 564// 291//
f 291// 564// 562//
f 291// 562// 292//
f 292// 562// 560//
f 292// 560// 293//
f 293// 560// 558//
f 293// 558// 294//
f 294// 558// 556//
f 294// 556// 295//
f 295// 556// 555//
f 295// 555// 296//
f 296// 555// 588//
f 296// 588// 304//
f 304// 588// 586//
f 304// 586// 305//
f 297// 285// 566//
f 566// 285// 568//
f 285// 290// 568//
f 568// 290// 570//
f 590// 591// 567//
f 567// 591// 565//
f 592// 590// 569//
f 569// 590// 567//
f 593// 592// 571//
f 571// 592// 569//
f 593// 571// 573//
f 593// 573// 594//
f 594// 573// 575//
f 594// 575// 595//
f 595// 575// 577//
f 595// 577// 596//
f 596// 577// 579//
f 596// 579// 597//
f 597// 579// 581//
f 597// 581// 598//
f 598// 581// 583//
f 598// 583// 599//
f 599// 583// 585//
f 599// 585// 600//
f 600// 585// 587//
f 600// 587// 601//
f 601// 587// 589//
f 601// 589// 602//
f 602// 589// 557//
f 602// 557// 603//
f 603// 557// 559//
f 603// 559// 604//
f 604// 559// 561//
f 604// 561// 605//
f 605// 561// 563//
f 605// 563// 606//
f 606// 563// 565//
f 606// 565// 591//
f 301// 289// 607//
f 607// 289// 608//
f 289// 288// 608//
f 608// 288// 609//
f 288// 287// 609//
f 609// 287// 610//
f 287// 286// 610//
f 610// 286// 611//
f 286// 284// 611//
f 611// 284// 612//
f 284// 282// 612//
f 612// 282// 613//
f 282// 281// 613//
f 613// 281// 614//
f 281// 283// 614//
f 614// 283// 615//
f 283// 271// 615//
f 615// 271// 616//
f 271// 270// 616//
f 616// 270// 617//
f 270// 302// 617//
f 617// 302// 618//
f 302// 301// 618//
f 618// 301// 607//
f 618// 607// 608//
f 608// 609// 618//
f 618// 609// 610//
f 618// 610// 617//
f 615// 616// 614//
f 614// 616// 617//
f 614// 617// 613//
f 613// 617// 610//
f 613// 610// 612//
f 612// 610// 611//
f 333// 332// 619//
f 619// 332// 620//
f 357// 621// 622//
f 357// 622// 361//
f 361// 622// 623//
f 361// 623// 327//
f 327// 623// 620//
f 327// 620// 332//
f 353// 624// 625//
f 353// 625// 354//
f 354// 625// 626//
f 354// 626// 355//
f 355// 626// 627//
f 355// 627// 360//
f 360// 627// 628//
f 360// 628// 359//
f 359// 628// 629//
f 359// 629// 358//
f 358// 629// 630//
f 358// 630// 356//
f 356// 630// 621//
f 356// 621// 357//
f 325// 631// 632//
f 325// 632// 326//
f 326// 632// 633//
f 326// 633// 350//
f 350// 633// 634//
f 350// 634// 351//
f 351// 634// 635//
f 351// 635// 352//
f 352// 635// 636//
f 352// 636// 368//
f 368// 636// 637//
f 368// 637// 369//
f 369// 637// 624//
f 369// 624// 353//
f 366// 638// 639//
f 366// 639// 365//
f 365// 639// 631//
f 365// 631// 325//
f 366// 367// 638//
f 638// 367// 640//
f 384// 641// 642//
f 384// 642// 385//
f 385// 642// 640//
f 385// 640// 367//
f 382// 643// 644//
f 382// 644// 383//
f 383// 644// 645//
f 383// 645// 370//
f 370// 645// 646//
f 370// 646// 371//
f 371// 646// 647//
f 371// 647// 378//
f 378// 647// 648//
f 378// 648// 379//
f 379// 648// 649//
f 379// 649// 380//
f 380// 649// 641//
f 380// 641// 384//
f 323// 322// 650//
f 323// 650// 363//
f 650// 651// 363//
f 363// 651// 652//
f 363// 652// 364//
f 364// 652// 653//
f 364// 653// 373//
f 373// 653// 654//
f 373// 654// 374//
f 374// 654// 655//
f 374// 655// 376//
f 376// 655// 656//
f 376// 656// 381//
f 381// 656// 643//
f 381// 643// 382//
f 334// 333// 657//
f 657// 333// 619//
f 334// 657// 335//
f 335// 657// 658//
f 335// 658// 336//
f 336// 658// 650//
f 336// 650// 322//
f 630// 650// 621//
f 621// 650// 658//
f 621// 658// 622//
f 622// 658// 657//
f 622// 657// 623//
f 623// 657// 619//
f 623// 619// 620//
f 638// 640// 639//
f 639// 640// 642//
f 639// 642// 631//
f 631// 642// 641//
f 631// 641// 632//
f 632// 641// 649//
f 632// 649// 633//
f 633// 649// 648//
f 633// 648// 634//
f 634// 648// 647//
f 634// 647// 635//
f 635// 647// 646//
f 635// 646// 636//
f 636// 646// 645//
f 636// 645// 637//
f 637// 645// 644//
f 637// 644// 624//
f 624// 644// 643//
f 624// 643// 625//
f 625// 643// 656//
f 625// 656// 626//
f 626// 656// 655//
f 626// 655// 627//
f 627// 655// 654//
f 627// 654// 628//
f 628// 654// 653//
f 628// 653// 629//
f 629// 653// 652//
f 629// 652// 630//
f 630// 652// 651//
f 630// 651// 650//
f 362// 375// 659//
f 659// 375// 660//
f 375// 377// 660//
f 660// 377// 661//
f 377// 372// 661//
f 661// 372// 662//
f 372// 342// 662//
f 662// 342// 663//
f 342// 341// 663//
f 663// 341// 664//
f 341// 362// 664//
f 664// 362// 659//
f 662// 663// 661//
f 661// 663// 664//
f 661// 664// 660//
f 660// 664// 659//
usemtl 2
f 548// 547// 554//
f 554// 547// 549//
f 554// 549// 553//
f 553// 549// 550//
f 553// 550// 552//
f 552// 550// 551//
f 590// 592// 591//
f 591// 592// 593//
f 591// 593// 594//
f 600// 601// 591//
f 591// 601// 602//
f 591// 602// 606//
f 594// 595// 591//
f 591// 595// 596//
f 591// 596// 597//
f 597// 598// 591//
f 591// 598// 599//
f 591// 599// 600//
f 603// 604// 602//
f 602// 604// 605//
f 602// 605// 606//
usemtl 1
f 517// 409// 407//
f 392// 391// 665//
f 665// 391// 519//
f 665// 519// 521//
f 405// 403// 521//
f 521// 403// 515//
f 521// 515// 665//
f 665// 515// 517//
f 665// 517// 511//
f 511// 517// 407//
f 413// 411// 513//
f 513// 411// 507//
f 421// 423// 509//
f 509// 423// 666//
f 509// 666// 507//
f 507// 666// 665//
f 507// 665// 513//
f 513// 665// 511//
f 458// 460// 529//
f 529// 460// 667//
f 529// 667// 527//
f 527// 667// 668//
f 527// 668// 415//
f 415// 668// 417//
f 386// 388// 525//
f 525// 388// 669//
f 525// 669// 523//
f 523// 669// 670//
f 523// 670// 432//
f 432// 670// 437//
f 671// 459// 457//
f 457// 475// 671//
f 671// 475// 477//
f 671// 477// 672//
f 485// 441// 440//
f 491// 493// 672//
f 440// 491// 485//
f 485// 491// 672//
f 485// 672// 483//
f 483// 672// 477//
f 483// 477// 461//
f 461// 477// 462//
f 436// 438// 501//
f 501// 438// 672//
f 501// 672// 499//
f 499// 672// 493//
f 499// 493// 452//
f 452// 493// 451//
f 437// 670// 673//
f 437// 673// 442//
f 442// 673// 674//
f 442// 674// 445//
f 445// 674// 675//
f 445// 675// 446//
f 446// 675// 676//
f 446// 676// 454//
f 454// 676// 677//
f 454// 677// 455//
f 455// 677// 678//
f 455// 678// 453//
f 453// 678// 679//
f 453// 679// 447//
f 447// 679// 680//
f 447// 680// 443//
f 443// 680// 681//
f 443// 681// 444//
f 444// 681// 682//
f 444// 682// 438//
f 438// 682// 683//
f 438// 683// 672//
f 671// 672// 684//
f 684// 672// 685//
f 684// 685// 686//
f 686// 685// 687//
f 686// 687// 688//
f 688// 687// 689//
f 688// 689// 690//
f 690// 689// 691//
f 690// 691// 692//
f 692// 691// 693//
f 692// 693// 694//
f 694// 693// 695//
f 694// 695// 696//
f 696// 695// 697//
f 696// 697// 698//
f 698// 697// 699//
f 698// 699// 700//
f 700// 699// 701//
f 700// 701// 702//
f 702// 701// 703//
f 703// 2// 1//
f 1// 180// 703//
f 703// 180// 182//
f 703// 182// 702//
f 702// 182// 184//
f 702// 184// 186//
f 186// 188// 702//
f 702// 188// 175//
f 702// 175// 177//
f 459// 671// 704//
f 459// 704// 466//
f 466// 704// 705//
f 466// 705// 469//
f 469// 705// 706//
f 469// 706// 470//
f 470// 706// 707//
f 470// 707// 472//
f 472// 707// 708//
f 472// 708// 474//
f 474// 708// 709//
f 474// 709// 473//
f 473// 709// 710//
f 473// 710// 471//
f 471// 710// 711//
f 471// 711// 467//
f 467// 711// 712//
f 467// 712// 468//
f 468// 712// 713//
f 468// 713// 460//
f 460// 713// 714//
f 460// 714// 667//
f 715// 716// 717//
f 718// 719// 720//
f 721// 722// 723//
f 2// 724// 725//
f 726// 724// 2//
f 723// 722// 2//
f 727// 2// 722//
f 673// 728// 674//
f 674// 728// 729//
f 674// 729// 675//
f 675// 729// 676//
f 676// 729// 730//
f 676// 730// 677//
f 677// 730// 678//
f 678// 730// 731//
f 678// 731// 679//
f 679// 731// 680//
f 680// 731// 732//
f 680// 732// 681//
f 681// 732// 682//
f 682// 732// 733//
f 682// 733// 683//
f 683// 733// 685//
f 683// 685// 672//
f 703// 726// 2//
f 734// 735// 721//
f 721// 735// 736//
f 721// 736// 722//
f 722// 736// 737//
f 722// 737// 727//
f 738// 725// 739//
f 739// 725// 724//
f 739// 724// 740//
f 740// 724// 726//
f 740// 726// 741//
f 719// 734// 720//
f 720// 734// 721//
f 720// 721// 742//
f 742// 721// 723//
f 742// 723// 743//
f 743// 723// 2//
f 703// 701// 726//
f 726// 701// 699//
f 726// 699// 741//
f 741// 699// 697//
f 741// 697// 695//
f 744// 738// 745//
f 745// 738// 739//
f 745// 739// 746//
f 746// 739// 740//
f 746// 740// 747//
f 747// 740// 741//
f 747// 741// 748//
f 748// 741// 695//
f 717// 744// 749//
f 749// 744// 745//
f 749// 745// 750//
f 750// 745// 746//
f 750// 746// 751//
f 751// 746// 747//
f 751// 747// 752//
f 752// 747// 748//
f 752// 748// 753//
f 716// 718// 717//
f 717// 718// 720//
f 717// 720// 744//
f 744// 720// 742//
f 744// 742// 738//
f 738// 742// 743//
f 738// 743// 725//
f 725// 743// 2//
f 673// 670// 728//
f 728// 670// 754//
f 728// 754// 715//
f 695// 693// 748//
f 748// 693// 691//
f 748// 691// 753//
f 753// 691// 689//
f 753// 689// 687//
f 715// 717// 728//
f 728// 717// 749//
f 728// 749// 729//
f 729// 749// 750//
f 729// 750// 730//
f 730// 750// 751//
f 730// 751// 731//
f 731// 751// 752//
f 731// 752// 732//
f 732// 752// 753//
f 732// 753// 733//
f 733// 753// 687//
f 733// 687// 685//
f 686// 688// 755//
f 690// 692// 756//
f 757// 758// 759//
f 177// 760// 761//
f 762// 760// 177//
f 759// 758// 177//
f 702// 177// 758//
f 704// 763// 705//
f 705// 763// 764//
f 705// 764// 706//
f 706// 764// 707//
f 707// 764// 765//
f 707// 765// 708//
f 708// 765// 709//
f 709// 765// 766//
f 709// 766// 710//
f 710// 766// 711//
f 711// 766// 767//
f 711// 767// 712//
f 712// 767// 713//
f 713// 767// 768//
f 713// 768// 714//
f 714// 768// 769//
f 714// 769// 667//
f 770// 762// 177//
f 694// 696// 757//
f 757// 696// 698//
f 757// 698// 758//
f 758// 698// 700//
f 758// 700// 702//
f 771// 761// 772//
f 772// 761// 760//
f 772// 760// 773//
f 773// 760// 762//
f 773// 762// 774//
f 692// 694// 756//
f 756// 694// 757//
f 756// 757// 775//
f 775// 757// 759//
f 775// 759// 776//
f 776// 759// 177//
f 770// 777// 762//
f 762// 777// 778//
f 762// 778// 774//
f 774// 778// 779//
f 774// 779// 780//
f 781// 771// 782//
f 782// 771// 772//
f 782// 772// 783//
f 783// 772// 773//
f 783// 773// 784//
f 784// 773// 774//
f 784// 774// 785//
f 785// 774// 780//
f 755// 781// 786//
f 786// 781// 782//
f 786// 782// 787//
f 787// 782// 783//
f 787// 783// 788//
f 788// 783// 784//
f 788// 784// 789//
f 789// 784// 785//
f 789// 785// 790//
f 688// 690// 755//
f 755// 690// 756//
f 755// 756// 781//
f 781// 756// 775//
f 781// 775// 771//
f 771// 775// 776//
f 771// 776// 761//
f 761// 776// 177//
f 704// 671// 763//
f 763// 671// 684//
f 763// 684// 686//
f 780// 791// 785//
f 785// 791// 792//
f 785// 792// 790//
f 790// 792// 793//
f 790// 793// 794//
f 686// 755// 763//
f 763// 755// 786//
f 763// 786// 764//
f 764// 786// 787//
f 764// 787// 765//
f 765// 787// 788//
f 765// 788// 766//
f 766// 788// 789//
f 766// 789// 767//
f 767// 789// 790//
f 767// 790// 768//
f 768// 790// 794//
f 768// 794// 769//
f 665// 795// 392//
f 392// 795// 393//
f 393// 795// 397//
f 397// 795// 796//
f 397// 796// 398//
f 398// 796// 797//
f 398// 797// 399//
f 399// 797// 798//
f 399// 798// 400//
f 400// 798// 799//
f 400// 799// 401//
f 401// 799// 800//
f 401// 800// 394//
f 394// 800// 801//
f 394// 801// 395//
f 395// 801// 802//
f 395// 802// 396//
f 802// 803// 396//
f 396// 803// 669//
f 396// 669// 388//
f 264// 263// 727//
f 265// 264// 804//
f 804// 264// 727//
f 804// 727// 805//
f 805// 727// 737//
f 805// 737// 806//
f 806// 737// 736//
f 806// 736// 807//
f 807// 736// 735//
f 807// 735// 808//
f 808// 735// 734//
f 808// 734// 809//
f 809// 734// 719//
f 809// 719// 810//
f 810// 719// 718//
f 810// 718// 811//
f 811// 718// 716//
f 811// 716// 812//
f 812// 716// 715//
f 812// 715// 813//
f 813// 715// 754//
f 813// 754// 669//
f 669// 754// 670//
f 263// 262// 727//
f 727// 262// 3//
f 727// 3// 2//
f 221// 260// 814//
f 177// 178// 770//
f 770// 178// 192//
f 770// 192// 219//
f 668// 667// 815//
f 815// 667// 769//
f 815// 769// 816//
f 816// 769// 794//
f 816// 794// 817//
f 817// 794// 793//
f 817// 793// 818//
f 818// 793// 792//
f 818// 792// 819//
f 819// 792// 791//
f 819// 791// 820//
f 820// 791// 780//
f 820// 780// 821//
f 821// 780// 779//
f 821// 779// 822//
f 822// 779// 778//
f 822// 778// 823//
f 823// 778// 777//
f 823// 777// 814//
f 814// 777// 770//
f 814// 770// 221//
f 221// 770// 219//
f 668// 824// 417//
f 417// 824// 418//
f 418// 824// 425//
f 425// 824// 825//
f 425// 825// 426//
f 426// 825// 826//
f 426// 826// 427//
f 427// 826// 827//
f 427// 827// 428//
f 428// 827// 828//
f 428// 828// 429//
f 429// 828// 829//
f 429// 829// 419//
f 419// 829// 830//
f 419// 830// 420//
f 420// 830// 831//
f 420// 831// 424//
f 831// 832// 424//
f 424// 832// 666//
f 424// 666// 423//
f 833// 834// 835//
f 836// 837// 838//
f 265// 839// 840//
f 841// 839// 265//
f 838// 837// 265//
f 842// 265// 837//
f 843// 796// 795//
f 796// 843// 797//
f 797// 843// 844//
f 797// 844// 798//
f 798// 844// 845//
f 798// 845// 799//
f 799// 845// 846//
f 799// 846// 800//
f 800// 846// 801//
f 801// 846// 847//
f 801// 847// 802//
f 802// 847// 803//
f 803// 847// 813//
f 803// 813// 669//
f 804// 841// 265//
f 848// 849// 836//
f 836// 849// 850//
f 836// 850// 837//
f 837// 850// 851//
f 837// 851// 842//
f 852// 840// 853//
f 853// 840// 839//
f 853// 839// 854//
f 854// 839// 841//
f 854// 841// 855//
f 804// 805// 841//
f 841// 805// 806//
f 841// 806// 855//
f 855// 806// 807//
f 855// 807// 808//
f 835// 852// 856//
f 856// 852// 853//
f 856// 853// 857//
f 857// 853// 854//
f 857// 854// 858//
f 858// 854// 855//
f 858// 855// 859//
f 859// 855// 808//
f 860// 861// 862//
f 862// 861// 833//
f 833// 835// 862//
f 862// 835// 856//
f 862// 856// 863//
f 863// 856// 857//
f 863// 857// 864//
f 864// 857// 858//
f 864// 858// 865//
f 865// 858// 859//
f 865// 859// 866//
f 834// 848// 835//
f 835// 848// 836//
f 835// 836// 852//
f 852// 836// 838//
f 852// 838// 840//
f 840// 838// 265//
f 860// 843// 867//
f 867// 843// 795//
f 867// 795// 665//
f 808// 809// 859//
f 859// 809// 810//
f 859// 810// 866//
f 866// 810// 811//
f 866// 811// 812//
f 860// 862// 843//
f 843// 862// 863//
f 843// 863// 844//
f 844// 863// 864//
f 844// 864// 845//
f 845// 864// 865//
f 845// 865// 846//
f 846// 865// 866//
f 846// 866// 847//
f 847// 866// 812//
f 847// 812// 813//
f 818// 819// 868//
f 869// 870// 871//
f 260// 872// 873//
f 874// 872// 260//
f 871// 870// 260//
f 814// 260// 870//
f 875// 825// 824//
f 825// 875// 826//
f 826// 875// 876//
f 826// 876// 827//
f 827// 876// 877//
f 827// 877// 828//
f 828// 877// 878//
f 828// 878// 829//
f 829// 878// 830//
f 830// 878// 879//
f 830// 879// 831//
f 831// 879// 832//
f 832// 879// 880//
f 832// 880// 666//
f 881// 874// 260//
f 820// 821// 869//
f 869// 821// 822//
f 869// 822// 870//
f 870// 822// 823//
f 870// 823// 814//
f 882// 873// 883//
f 883// 873// 872//
f 883// 872// 884//
f 884// 872// 874//
f 884// 874// 885//
f 881// 886// 874//
f 874// 886// 887//
f 874// 887// 885//
f 885// 887// 888//
f 885// 888// 889//
f 868// 882// 890//
f 890// 882// 883//
f 890// 883// 891//
f 891// 883// 884//
f 891// 884// 892//
f 892// 884// 885//
f 892// 885// 893//
f 893// 885// 889//
f 816// 817// 894//
f 894// 817// 818//
f 818// 868// 894//
f 894// 868// 890//
f 894// 890// 895//
f 895// 890// 891//
f 895// 891// 896//
f 896// 891// 892//
f 896// 892// 897//
f 897// 892// 893//
f 897// 893// 898//
f 819// 820// 868//
f 868// 820// 869//
f 868// 869// 882//
f 882// 869// 871//
f 882// 871// 873//
f 873// 871// 260//
f 816// 875// 815//
f 815// 875// 824//
f 815// 824// 668//
f 889// 899// 893//
f 893// 899// 900//
f 893// 900// 898//
f 898// 900// 901//
f 898// 901// 902//
f 816// 894// 875//
f 875// 894// 895//
f 875// 895// 876//
f 876// 895// 896//
f 876// 896// 877//
f 877// 896// 897//
f 877// 897// 878//
f 878// 897// 898//
f 878// 898// 879//
f 879// 898// 902//
f 879// 902// 880//
f 665// 666// 867//
f 867// 666// 880//
f 867// 880// 860//
f 860// 880// 902//
f 860// 902// 861//
f 861// 902// 901//
f 861// 901// 833//
f 833// 901// 900//
f 833// 900// 834//
f 834// 900// 899//
f 834// 899// 848//
f 848// 899// 889//
f 848// 889// 849//
f 849// 889// 888//
f 849// 888// 850//
f 850// 888// 887//
f 850// 887// 851//
f 851// 887// 886//
f 851// 886// 842//
f 842// 886// 881//
f 881// 260// 259//
f 259// 76// 881//
f 881// 76// 73//
f 881// 73// 842//
f 842// 73// 161//
f 842// 161// 261//
f 261// 107// 842//
f 842// 107// 112//
f 842// 112// 265//
usemtl 3
f 903// 904// 222//
f 222// 904// 223//
f 904// 905// 223//
f 223// 905// 224//
f 905// 906// 224//
f 224// 906// 225//
f 906// 907// 225//
f 225// 907// 233//
f 907// 908// 233//
f 233// 908// 232//
f 908// 909// 232//
f 232// 909// 230//
f 910// 226// 228//
f 910// 228// 911//
f 911// 228// 230//
f 911// 230// 909//
f 910// 912// 226//
f 226// 912// 227//
f 913// 231// 229//
f 913// 229// 914//
f 914// 229// 227//
f 914// 227// 912//
f 913// 903// 231//
f 231// 903// 222//
f 908// 907// 909//
f 909// 907// 906//
f 909// 906// 911//
f 904// 903// 905//
f 905// 903// 913//
f 913// 914// 905//
f 905// 914// 912//
f 905// 912// 906//
f 906// 912// 910//
f 906// 910// 911//
f 915// 200// 916//
f 916// 200// 199//
f 916// 199// 917//
f 917// 199// 197//
f 917// 197// 918//
f 918// 197// 196//
f 918// 196// 919//
f 919// 196// 215//
f 919// 215// 920//
f 920// 215// 214//
f 920// 214// 921//
f 921// 214// 213//
f 921// 213// 922//
f 922// 213// 212//
f 922// 212// 923//
f 923// 212// 211//
f 923// 211// 924//
f 924// 211// 191//
f 924// 191// 925//
f 925// 191// 190//
f 925// 190// 926//
f 926// 190// 210//
f 926// 210// 927//
f 927// 210// 209//
f 927// 209// 928//
f 928// 209// 208//
f 928// 208// 929//
f 929// 208// 193//
f 929// 193// 930//
f 930// 193// 194//
f 930// 194// 931//
f 931// 194// 195//
f 931// 195// 932//
f 932// 195// 207//
f 932// 207// 933//
f 933// 207// 206//
f 933// 206// 934//
f 934// 206// 205//
f 934// 205// 935//
f 935// 205// 204//
f 935// 204// 936//
f 936// 204// 203//
f 936// 203// 937//
f 937// 203// 202//
f 937// 202// 938//
f 938// 202// 201//
f 938// 201// 915//
f 915// 201// 200//
f 937// 938// 939//
f 939// 938// 915//
f 939// 915// 916//
f 934// 935// 939//
f 939// 935// 936//
f 939// 936// 937//
f 931// 932// 939//
f 939// 932// 933//
f 939// 933// 934//
f 928// 929// 939//
f 939// 929// 930//
f 939// 930// 931//
f 925// 926// 939//
f 939// 926// 927//
f 939// 927// 928//
f 922// 923// 939//
f 939// 923// 924//
f 939// 924// 925//
f 919// 920// 939//
f 939// 920// 921//
f 939// 921// 922//
f 916// 917// 939//
f 939// 917// 918//
f 939// 918// 919//
f 81// 940// 132//
f 132// 940// 941//
f 132// 941// 133//
f 133// 941// 942//
f 133// 942// 134//
f 134// 942// 943//
f 134// 943// 128//
f 128// 943// 944//
f 128// 944// 127//
f 127// 944// 945//
f 127// 945// 125//
f 125// 945// 946//
f 125// 946// 129//
f 129// 946// 947//
f 129// 947// 130//
f 948// 120// 114//
f 948// 114// 949//
f 949// 114// 113//
f 949// 113// 950//
f 950// 113// 119//
f 950// 119// 951//
f 951// 119// 131//
f 951// 131// 952//
f 952// 131// 130//
f 952// 130// 947//
f 953// 116// 137//
f 953// 137// 954//
f 954// 137// 136//
f 954// 136// 955//
f 955// 136// 135//
f 955// 135// 956//
f 956// 135// 121//
f 956// 121// 957//
f 957// 121// 120//
f 957// 120// 948//
f 958// 108// 106//
f 958// 106// 959//
f 959// 106// 105//
f 959// 105// 960//
f 105// 124// 960//
f 960// 124// 123//
f 960// 123// 961//
f 961// 123// 122//
f 961// 122// 962//
f 962// 122// 118//
f 962// 118// 963//
f 963// 118// 117//
f 963// 117// 964//
f 964// 117// 116//
f 964// 116// 953//
f 108// 958// 109//
f 109// 958// 965//
f 109// 965// 110//
f 110// 965// 966//
f 110// 966// 85//
f 85// 966// 967//
f 85// 967// 86//
f 86// 967// 968//
f 86// 968// 88//
f 88// 968// 969//
f 88// 969// 89//
f 89// 969// 970//
f 89// 970// 98//
f 98// 970// 971//
f 98// 971// 99//
f 972// 95// 94//
f 972// 94// 973//
f 973// 94// 93//
f 973// 93// 974//
f 974// 93// 84//
f 974// 84// 975//
f 975// 84// 83//
f 975// 83// 976//
f 976// 83// 99//
f 976// 99// 971//
f 977// 103// 102//
f 977// 102// 978//
f 978// 102// 101//
f 978// 101// 979//
f 979// 101// 100//
f 979// 100// 980//
f 980// 100// 82//
f 980// 82// 981//
f 981// 82// 95//
f 981// 95// 972//
f 940// 81// 79//
f 940// 79// 982//
f 982// 79// 78//
f 982// 78// 983//
f 78// 97// 983//
f 983// 97// 92//
f 983// 92// 984//
f 984// 92// 91//
f 984// 91// 985//
f 985// 91// 90//
f 985// 90// 986//
f 986// 90// 104//
f 986// 104// 987//
f 987// 104// 103//
f 987// 103// 977//
f 988// 989// 990//
f 988// 990// 991//
f 992// 972// 993//
f 993// 972// 994//
f 995// 996// 948//
f 948// 996// 997//
f 992// 998// 972//
f 972// 998// 999//
f 972// 999// 991//
f 997// 996// 989//
f 989// 996// 1000//
f 989// 1000// 990//
f 991// 990// 972//
f 972// 990// 1001//
f 972// 1001// 981//
f 981// 1001// 1002//
f 981// 1002// 980//
f 1003// 969// 1004//
f 1004// 969// 968//
f 1004// 968// 1005//
f 1005// 968// 967//
f 1005// 967// 1006//
f 1006// 967// 966//
f 1006// 966// 1007//
f 972// 973// 994//
f 994// 973// 974//
f 994// 974// 975//
f 1002// 1008// 980//
f 980// 1008// 1009//
f 980// 1009// 979//
f 979// 1009// 1010//
f 979// 1010// 978//
f 978// 1010// 1011//
f 975// 976// 994//
f 994// 976// 971//
f 994// 971// 1003//
f 1003// 971// 970//
f 1003// 970// 969//
f 997// 1012// 948//
f 948// 1012// 1013//
f 948// 1013// 957//
f 957// 1013// 1014//
f 957// 1014// 956//
f 956// 1014// 1015//
f 956// 1015// 955//
f 955// 1015// 1016//
f 955// 1016// 954//
f 954// 1016// 1017//
f 954// 1017// 953//
f 953// 1017// 1018//
f 1007// 966// 1019//
f 1019// 966// 965//
f 1019// 965// 1020//
f 1020// 965// 958//
f 1020// 958// 1021//
f 1021// 958// 959//
f 1021// 959// 1022//
f 1022// 959// 960//
f 1022// 960// 1023//
f 1023// 960// 961//
f 1023// 961// 1024//
f 1024// 961// 962//
f 1024// 962// 1025//
f 1025// 962// 963//
f 1025// 963// 1018//
f 1018// 963// 964//
f 1018// 964// 953//
f 995// 948// 1026//
f 1026// 948// 949//
f 1026// 949// 1027//
f 1027// 949// 950//
f 1027// 950// 1028//
f 1028// 950// 951//
f 1028// 951// 1029//
f 1029// 951// 952//
f 1029// 952// 1030//
f 1030// 952// 947//
f 1030// 947// 1031//
f 1031// 947// 946//
f 1031// 946// 1032//
f 1032// 946// 945//
f 1032// 945// 1033//
f 1033// 945// 944//
f 1033// 944// 1034//
f 1034// 944// 943//
f 1034// 943// 1035//
f 1035// 943// 942//
f 1035// 942// 1036//
f 1036// 942// 941//
f 1036// 941// 1037//
f 1037// 941// 940//
f 1037// 940// 1038//
f 1038// 940// 982//
f 1038// 982// 1039//
f 1039// 982// 983//
f 1039// 983// 1040//
f 1040// 983// 984//
f 1040// 984// 1041//
f 1041// 984// 985//
f 1041// 985// 1042//
f 1042// 985// 986//
f 1042// 986// 1043//
f 1043// 986// 987//
f 1043// 987// 1011//
f 1011// 987// 977//
f 1011// 977// 978//
f 1030// 1044// 1045//
f 1030// 1045// 1029//
f 1029// 1045// 1046//
f 1029// 1046// 1028//
f 1028// 1046// 1047//
f 1028// 1047// 1027//
f 1027// 1047// 1048//
f 1027// 1048// 1026//
f 1026// 1048// 1049//
f 1026// 1049// 995//
f 995// 1049// 1050//
f 995// 1050// 996//
f 996// 1050// 1051//
f 996// 1051// 1000//
f 1000// 1051// 1052//
f 1000// 1052// 990//
f 990// 1052// 1053//
f 990// 1053// 1001//
f 1001// 1053// 1054//
f 1001// 1054// 1002//
f 1002// 1054// 1055//
f 1002// 1055// 1008//
f 1008// 1055// 1056//
f 1008// 1056// 1009//
f 1009// 1056// 1057//
f 1009// 1057// 1010//
f 1010// 1057// 1058//
f 1010// 1058// 1011//
f 1011// 1058// 1059//
f 1011// 1059// 1043//
f 1043// 1059// 1060//
f 1043// 1060// 1042//
f 1042// 1060// 1061//
f 1042// 1061// 1041//
f 1041// 1061// 1062//
f 1041// 1062// 1040//
f 1040// 1062// 1063//
f 1040// 1063// 1039//
f 1039// 1063// 1064//
f 1039// 1064// 1038//
f 1038// 1064// 1065//
f 1038// 1065// 1037//
f 1037// 1065// 1066//
f 1037// 1066// 1036//
f 1036// 1066// 1067//
f 1036// 1067// 1035//
f 1035// 1067// 1068//
f 1035// 1068// 1034//
f 1034// 1068// 1069//
f 1034// 1069// 1033//
f 1033// 1069// 1070//
f 1033// 1070// 1032//
f 1032// 1070// 1071//
f 1032// 1071// 1031//
f 1031// 1071// 1044//
f 1031// 1044// 1030//
f 1017// 1072// 1073//
f 1017// 1073// 1018//
f 1018// 1073// 1074//
f 1018// 1074// 1025//
f 1025// 1074// 1075//
f 1025// 1075// 1024//
f 1024// 1075// 1076//
f 1024// 1076// 1023//
f 1023// 1076// 1077//
f 1023// 1077// 1022//
f 1022// 1077// 1078//
f 1022// 1078// 1021//
f 1021// 1078// 1079//
f 1021// 1079// 1020//
f 1020// 1079// 1080//
f 1020// 1080// 1019//
f 1019// 1080// 1081//
f 1019// 1081// 1007//
f 1007// 1081// 1082//
f 1007// 1082// 1006//
f 1006// 1082// 1083//
f 1006// 1083// 1005//
f 1005// 1083// 1084//
f 1005// 1084// 1004//
f 1004// 1084// 1085//
f 1004// 1085// 1003//
f 1003// 1085// 1086//
f 1003// 1086// 994//
f 994// 1086// 1087//
f 994// 1087// 993//
f 993// 1087// 1088//
f 993// 1088// 992//
f 992// 1088// 1089//
f 992// 1089// 998//
f 998// 1089// 1090//
f 998// 1090// 999//
f 999// 1090// 1091//
f 999// 1091// 991//
f 991// 1091// 1092//
f 991// 1092// 988//
f 988// 1092// 1093//
f 988// 1093// 989//
f 989// 1093// 1094//
f 989// 1094// 997//
f 997// 1094// 1095//
f 997// 1095// 1012//
f 1012// 1095// 1096//
f 1012// 1096// 1013//
f 1013// 1096// 1097//
f 1013// 1097// 1014//
f 1014// 1097// 1098//
f 1014// 1098// 1015//
f 1015// 1098// 1099//
f 1015// 1099// 1016//
f 1016// 1099// 1072//
f 1016// 1072// 1017//
usemtl 1
f 1066// 1065// 1051//
f 1060// 1055// 1061//
f 1061// 1055// 1054//
f 1051// 1065// 1052//
f 1052// 1065// 1064//
f 1052// 1064// 1063//
f 1063// 1062// 1052//
f 1052// 1062// 1061//
f 1052// 1061// 1053//
f 1053// 1061// 1054//
f 1051// 1050// 1044//
f 1044// 1050// 1049//
f 1049// 1048// 1044//
f 1044// 1048// 1047//
f 1044// 1047// 1045//
f 1045// 1047// 1046//
f 1060// 1059// 1055//
f 1055// 1059// 1058//
f 1055// 1058// 1056//
f 1056// 1058// 1057//
f 1044// 1071// 1051//
f 1051// 1071// 1070//
f 1051// 1070// 1069//
f 1069// 1068// 1051//
f 1051// 1068// 1067//
f 1051// 1067// 1066//
usemtl 3
f 1100// 1101// 258//
f 258// 1101// 257//
f 1101// 1102// 257//
f 257// 1102// 255//
f 1102// 1103// 255//
f 255// 1103// 256//
f 1103// 1100// 256//
f 256// 1100// 258//
f 1103// 1102// 1100//
f 1100// 1102// 1101//
f 1104// 1105// 239//
f 239// 1105// 246//
f 1105// 1106// 246//
f 246// 1106// 243//
f 1106// 1107// 243//
f 243// 1107// 238//
f 1108// 234// 236//
f 1108// 236// 1109//
f 1109// 236// 238//
f 1109// 238// 1107//
f 1108// 1110// 234//
f 234// 1110// 235//
f 1111// 244// 237//
f 1111// 237// 1112//
f 1112// 237// 235//
f 1112// 235// 1110//
f 1111// 1113// 244//
f 244// 1113// 245//
f 1113// 1114// 245//
f 245// 1114// 247//
f 1114// 1115// 247//
f 247// 1115// 248//
f 1115// 1116// 248//
f 248// 1116// 242//
f 1116// 1117// 242//
f 242// 1117// 253//
f 1118// 249// 251//
f 1118// 251// 1119//
f 1119// 251// 253//
f 1119// 253// 1117//
f 1118// 1120// 249//
f 249// 1120// 250//
f 1121// 254// 252//
f 1121// 252// 1122//
f 1122// 252// 250//
f 1122// 250// 1120//
f 1121// 1123// 254//
f 254// 1123// 241//
f 1123// 1104// 241//
f 241// 1104// 239//
f 1104// 1123// 1105//
f 1105// 1123// 1121//
f 1114// 1113// 1115//
f 1115// 1113// 1111//
f 1111// 1112// 1115//
f 1115// 1112// 1110//
f 1115// 1110// 1116//
f 1116// 1110// 1108//
f 1121// 1122// 1105//
f 1105// 1122// 1120//
f 1105// 1120// 1106//
f 1106// 1120// 1118//
f 1118// 1119// 1106//
f 1106// 1119// 1117//
f 1106// 1117// 1107//
f 1107// 1117// 1116//
f 1107// 1116// 1109//
f 1109// 1116// 1108//
f 1124// 173// 172//
f 1124// 172// 1125//
f 1125// 172// 171//
f 1125// 171// 1126//
f 1126// 171// 170//
f 1126// 170// 1127//
f 1127// 170// 169//
f 1127// 169// 1128//
f 1128// 169// 168//
f 1128// 168// 1129//
f 1129// 168// 167//
f 1129// 167// 1130//
f 1130// 167// 1131//
f 1131// 167// 142//
f 1131// 142// 141//
f 160// 159// 1132//
f 1132// 159// 1133//
f 159// 166// 1133//
f 1133// 166// 165//
f 1133// 165// 1134//
f 1134// 165// 164//
f 1134// 164// 1135//
f 1135// 164// 163//
f 1135// 163// 1136//
f 1136// 163// 162//
f 1136// 162// 1137//
f 1137// 162// 174//
f 1137// 174// 1138//
f 1138// 174// 173//
f 1138// 173// 1124//
f 1139// 157// 156//
f 1139// 156// 1140//
f 1140// 156// 155//
f 1140// 155// 1141//
f 1141// 155// 154//
f 1141// 154// 1142//
f 1142// 154// 153//
f 1142// 153// 1143//
f 1143// 153// 143//
f 1143// 143// 1144//
f 1144// 143// 145//
f 1144// 145// 1145//
f 1145// 145// 1132//
f 1132// 145// 146//
f 1132// 146// 160//
f 1131// 141// 1146//
f 1146// 141// 139//
f 139// 152// 1146//
f 1146// 152// 151//
f 1146// 151// 1147//
f 1147// 151// 150//
f 1147// 150// 1148//
f 1148// 150// 148//
f 1148// 148// 1149//
f 1149// 148// 147//
f 1149// 147// 1150//
f 1150// 147// 158//
f 1150// 158// 1151//
f 1151// 158// 157//
f 1151// 157// 1139//
f 1152// 1124// 1153//
f 1153// 1124// 1125//
f 1153// 1125// 1154//
f 1154// 1125// 1126//
f 1154// 1126// 1155//
f 1155// 1126// 1127//
f 1155// 1127// 1156//
f 1156// 1127// 1128//
f 1156// 1128// 1157//
f 1157// 1128// 1129//
f 1157// 1129// 1158//
f 1158// 1129// 1130//
f 1158// 1130// 1159//
f 1159// 1130// 1131//
f 1159// 1131// 1160//
f 1160// 1131// 1146//
f 1160// 1146// 1161//
f 1161// 1146// 1147//
f 1161// 1147// 1162//
f 1162// 1147// 1148//
f 1162// 1148// 1163//
f 1163// 1148// 1149//
f 1163// 1149// 1164//
f 1164// 1149// 1150//
f 1164// 1150// 1165//
f 1165// 1150// 1151//
f 1165// 1151// 1166//
f 1166// 1151// 1139//
f 1166// 1139// 1167//
f 1167// 1139// 1140//
f 1167// 1140// 1168//
f 1168// 1140// 1141//
f 1168// 1141// 1169//
f 1169// 1141// 1142//
f 1169// 1142// 1170//
f 1170// 1142// 1143//
f 1170// 1143// 1171//
f 1171// 1143// 1144//
f 1171// 1144// 1172//
f 1172// 1144// 1145//
f 1172// 1145// 1173//
f 1173// 1145// 1132//
f 1173// 1132// 1174//
f 1174// 1132// 1133//
f 1174// 1133// 1175//
f 1175// 1133// 1134//
f 1175// 1134// 1176//
f 1176// 1134// 1135//
f 1176// 1135// 1177//
f 1177// 1135// 1136//
f 1177// 1136// 1178//
f 1178// 1136// 1137//
f 1178// 1137// 1179//
f 1179// 1137// 1138//
f 1179// 1138// 1152//
f 1152// 1138// 1124//
f 1152// 1180// 1181//
f 1152// 1181// 1179//
f 1179// 1181// 1182//
f 1179// 1182// 1178//
f 1178// 1182// 1183//
f 1178// 1183// 1177//
f 1177// 1183// 1184//
f 1177// 1184// 1176//
f 1176// 1184// 1185//
f 1176// 1185// 1175//
f 1175// 1185// 1186//
f 1175// 1186// 1174//
f 1174// 1186// 1187//
f 1174// 1187// 1173//
f 1173// 1187// 1188//
f 1173// 1188// 1172//
f 1172// 1188// 1189//
f 1172// 1189// 1171//
f 1171// 1189// 1190//
f 1171// 1190// 1170//
f 1170// 1190// 1191//
f 1170// 1191// 1169//
f 1169// 1191// 1192//
f 1169// 1192// 1168//
f 1168// 1192// 1193//
f 1168// 1193// 1167//
f 1167// 1193// 1194//
f 1167// 1194// 1166//
f 1166// 1194// 1195//
f 1166// 1195// 1165//
f 1165// 1195// 1196//
f 1165// 1196// 1164//
f 1164// 1196// 1197//
f 1164// 1197// 1163//
f 1163// 1197// 1198//
f 1163// 1198// 1162//
f 1162// 1198// 1199//
f 1162// 1199// 1161//
f 1161// 1199// 1200//
f 1161// 1200// 1160//
f 1160// 1200// 1201//
f 1160// 1201// 1159//
f 1159// 1201// 1202//
f 1159// 1202// 1158//
f 1158// 1202// 1203//
f 1158// 1203// 1157//
f 1157// 1203// 1204//
f 1157// 1204// 1156//
f 1156// 1204// 1205//
f 1156// 1205// 1155//
f 1155// 1205// 1206//
f 1155// 1206// 1154//
f 1154// 1206// 1207//
f 1154// 1207// 1153//
f 1153// 1207// 1180//
f 1153// 1180// 1152//
f 1208// 1209// 7//
f 7// 1209// 8//
f 1210// 26// 24//
f 1210// 24// 1211//
f 1211// 24// 22//
f 1211// 22// 1212//
f 1212// 22// 8//
f 1212// 8// 1209//
f 1213// 33// 32//
f 1213// 32// 1214//
f 1214// 32// 31//
f 1214// 31// 1215//
f 1215// 31// 30//
f 1215// 30// 1216//
f 1216// 30// 29//
f 1216// 29// 1217//
f 1217// 29// 28//
f 1217// 28// 1218//
f 1218// 28// 27//
f 1218// 27// 1219//
f 1219// 27// 26//
f 1219// 26// 1210//
f 1220// 21// 23//
f 1220// 23// 1221//
f 1221// 23// 25//
f 1221// 25// 1222//
f 1222// 25// 36//
f 1222// 36// 1223//
f 1223// 36// 35//
f 1223// 35// 1224//
f 1224// 35// 34//
f 1224// 34// 1225//
f 1225// 34// 33//
f 1225// 33// 1213//
f 1226// 16// 15//
f 1226// 15// 1227//
f 1227// 15// 12//
f 1227// 12// 1228//
f 1228// 12// 11//
f 1228// 11// 1229//
f 1229// 11// 10//
f 1229// 10// 1230//
f 1230// 10// 21//
f 1230// 21// 1220//
f 1231// 75// 1232//
f 1232// 75// 77//
f 77// 20// 1232//
f 1232// 20// 19//
f 1232// 19// 1233//
f 1233// 19// 18//
f 1233// 18// 1234//
f 1234// 18// 14//
f 1234// 14// 1235//
f 1235// 14// 13//
f 1235// 13// 1236//
f 1236// 13// 17//
f 1236// 17// 1237//
f 1237// 17// 16//
f 1237// 16// 1226//
f 75// 1231// 1238//
f 1239// 43// 72//
f 1239// 72// 1238//
f 1238// 72// 74//
f 1238// 74// 75//
f 1239// 1240// 43//
f 43// 1240// 42//
f 1241// 60// 59//
f 1241// 59// 1242//
f 1242// 59// 57//
f 1242// 57// 1243//
f 1243// 57// 42//
f 1243// 42// 1240//
f 1244// 63// 68//
f 1244// 68// 1245//
f 1245// 68// 67//
f 1245// 67// 1246//
f 1246// 67// 66//
f 1246// 66// 1247//
f 1247// 66// 71//
f 1247// 71// 1248//
f 1248// 71// 70//
f 1248// 70// 1249//
f 1249// 70// 69//
f 1249// 69// 1250//
f 1250// 69// 60//
f 1250// 60// 1241//
f 1251// 56// 58//
f 1251// 58// 1252//
f 1252// 58// 65//
f 1252// 65// 1253//
f 1253// 65// 64//
f 1253// 64// 1254//
f 1254// 64// 61//
f 1254// 61// 1255//
f 1255// 61// 62//
f 1255// 62// 1256//
f 1256// 62// 63//
f 1256// 63// 1244//
f 1257// 55// 54//
f 1257// 54// 1258//
f 1258// 54// 53//
f 1258// 53// 1259//
f 1259// 53// 45//
f 1259// 45// 1260//
f 1260// 45// 44//
f 1260// 44// 1261//
f 1261// 44// 56//
f 1261// 56// 1251//
f 39// 52// 1262//
f 1262// 52// 1263//
f 52// 51// 1263//
f 1263// 51// 50//
f 1263// 50// 1264//
f 1264// 50// 49//
f 1264// 49// 1265//
f 1265// 49// 48//
f 1265// 48// 1266//
f 1266// 48// 47//
f 1266// 47// 1267//
f 1267// 47// 46//
f 1267// 46// 1268//
f 1268// 46// 55//
f 1268// 55// 1257//
f 1208// 7// 5//
f 1208// 5// 1269//
f 1269// 5// 4//
f 1269// 4// 1270//
f 1270// 4// 1262//
f 1262// 4// 37//
f 1262// 37// 39//
f 1209// 1208// 1212//
f 1212// 1208// 1269//
f 1212// 1269// 1211//
f 1211// 1269// 1270//
f 1211// 1270// 1210//
f 1210// 1270// 1262//
f 1210// 1262// 1219//
f 1219// 1262// 1263//
f 1219// 1263// 1218//
f 1218// 1263// 1264//
f 1218// 1264// 1217//
f 1217// 1264// 1265//
f 1217// 1265// 1216//
f 1216// 1265// 1266//
f 1216// 1266// 1215//
f 1215// 1266// 1267//
f 1215// 1267// 1214//
f 1214// 1267// 1268//
f 1214// 1268// 1213//
f 1213// 1268// 1257//
f 1213// 1257// 1225//
f 1225// 1257// 1258//
f 1225// 1258// 1224//
f 1224// 1258// 1259//
f 1224// 1259// 1223//
f 1223// 1259// 1260//
f 1223// 1260// 1222//
f 1222// 1260// 1261//
f 1222// 1261// 1221//
f 1221// 1261// 1251//
f 1221// 1251// 1220//
f 1220// 1251// 1252//
f 1220// 1252// 1230//
f 1230// 1252// 1253//
f 1230// 1253// 1229//
f 1229// 1253// 1254//
f 1229// 1254// 1228//
f 1228// 1254// 1255//
f 1228// 1255// 1227//
f 1227// 1255// 1256//
f 1227// 1256// 1226//
f 1226// 1256// 1244//
f 1226// 1244// 1237//
f 1237// 1244// 1245//
f 1237// 1245// 1236//
f 1236// 1245// 1246//
f 1236// 1246// 1235//
f 1235// 1246// 1247//
f 1235// 1247// 1234//
f 1234// 1247// 1248//
f 1234// 1248// 1233//
f 1233// 1248// 1249//
f 1233// 1249// 1232//
f 1232// 1249// 1250//
f 1232// 1250// 1231//
f 1231// 1250// 1241//
f 1231// 1241// 1238//
f 1238// 1241// 1242//
f 1238// 1242// 1239//
f 1239// 1242// 1243//
f 1239// 1243// 1240//
usemtl 1
f 1085// 1084// 1097//
f 1088// 1087// 1096//
f 1084// 1083// 1097//
f 1097// 1083// 1082//
f 1097// 1082// 1098//
f 1098// 1082// 1099//
f 1091// 1090// 1095//
f 1096// 1087// 1097//
f 1097// 1087// 1086//
f 1097// 1086// 1085//
f 1095// 1090// 1096//
f 1096// 1090// 1089//
f 1096// 1089// 1088//
f 1081// 1073// 1082//
f 1082// 1073// 1072//
f 1082// 1072// 1099//
f 1081// 1080// 1073//
f 1073// 1080// 1079//
f 1073// 1079// 1074//
f 1074// 1079// 1075//
f 1078// 1077// 1079//
f 1079// 1077// 1076//
f 1079// 1076// 1075//
f 1094// 1093// 1095//
f 1095// 1093// 1092//
f 1095// 1092// 1091//
f 1180// 1194// 1181//
f 1181// 1194// 1193//
f 1198// 1197// 1180//
f 1198// 1180// 1199//
f 1197// 1196// 1180//
f 1180// 1196// 1195//
f 1180// 1195// 1194//
f 1185// 1181// 1186//
f 1186// 1181// 1187//
f 1206// 1205// 1202//
f 1202// 1205// 1204//
f 1202// 1204// 1203//
f 1206// 1202// 1207//
f 1207// 1202// 1201//
f 1207// 1201// 1180//
f 1180// 1201// 1200//
f 1180// 1200// 1199//
f 1185// 1184// 1181//
f 1181// 1184// 1183//
f 1181// 1183// 1182//
f 1193// 1192// 1181//
f 1181// 1192// 1191//
f 1181// 1191// 1190//
f 1190// 1189// 1181//
f 1181// 1189// 1188//
f 1181// 1188// 1187//
