M48
; DRILL file KiCad 10.0.4-10.0.4~ubuntu24.04.1 date 2026-08-18T17:36:06
; FORMAT={-:-/ absolute / metric / decimal}
; #@! TF.CreationDate,2026-08-18T17:36:06-07:00
; #@! TF.GenerationSoftware,Kicad,Pcbnew,10.0.4-10.0.4~ubuntu24.04.1
; #@! TF.FileFunction,Plated,1,4,PTH
FMAT,2
METRIC
; #@! TA.AperFunction,Plated,PTH,ViaDrill
T1C0.200
; #@! TA.AperFunction,Plated,PTH,ComponentDrill
T2C0.200
; #@! TA.AperFunction,Plated,PTH,ViaDrill
T3C0.350
; #@! TA.AperFunction,Plated,PTH,ComponentDrill
T4C0.600
; #@! TA.AperFunction,Plated,PTH,ComponentDrill
T5C1.000
; #@! TA.AperFunction,Plated,PTH,ComponentDrill
T6C3.000
%
G90
G05
T1
X24.0Y-32.0
X24.0Y-40.0
X24.0Y-48.0
X24.0Y-56.0
X24.0Y-64.0
X24.0Y-72.0
X24.0Y-80.0
X27.96Y-52.93
X28.0Y-59.4
X28.2Y-56.75
X28.2Y-57.75
X28.59Y-101.8
X28.59Y-108.2
X29.0Y-57.25
X30.0Y-106.75
X30.9Y-54.9
X30.9Y-59.1
X32.0Y-24.0
X32.0Y-32.0
X32.0Y-40.0
X32.0Y-48.0
X32.0Y-72.0
X32.0Y-80.0
X32.8Y-106.4
X32.8Y-107.2
X32.8Y-108.0
X33.0Y-56.4
X33.0Y-58.4
X33.6Y-106.4
X33.6Y-107.2
X33.6Y-108.0
X34.4Y-106.4
X34.4Y-107.2
X35.0Y-56.8
X35.0Y-115.4
X36.0Y-58.5
X36.5Y-68.0
X37.0Y-103.0
X38.0Y-106.0
X39.0Y-49.5
X39.0Y-63.51
X39.6Y-76.0
X40.0Y-24.0
X40.0Y-32.0
X40.0Y-40.0
X40.0Y-48.0
X40.4Y-76.0
X41.0Y-104.3
X41.0Y-105.0
X41.0Y-105.7
X44.5Y-84.5
X45.55Y-86.25
X46.28Y-106.5
X47.1Y-107.25
X47.6Y-59.0
X48.0Y-24.0
X48.0Y-32.0
X48.0Y-40.0
X48.4Y-59.0
X48.6Y-102.8
X48.6Y-103.6
X49.11Y-106.6
X49.36Y-71.91
X49.4Y-102.8
X49.4Y-103.6
X50.2Y-102.8
X50.2Y-103.6
X50.48Y-69.0
X50.5Y-116.0
X50.75Y-51.85
X50.77Y-85.25
X50.79Y-53.65
X51.0Y-102.8
X51.0Y-103.6
X51.5Y-37.34
X51.65Y-52.75
X52.0Y-114.5
X52.65Y-71.9
X52.78Y-104.5
X54.0Y-107.0
X54.51Y-85.0
X54.8Y-86.6
X55.5Y-85.9
X56.0Y-24.0
X56.0Y-32.0
X56.0Y-40.0
X56.0Y-48.0
X56.0Y-72.0
X56.0Y-80.0
X57.2Y-42.95
X57.67Y-44.54
X57.8Y-42.2
X58.0Y-55.0
X58.5Y-71.0
X59.6Y-59.0
X60.4Y-59.0
X60.48Y-38.5
X61.0Y-43.0
X61.5Y-71.0
X62.1Y-46.15
X62.85Y-71.65
X64.0Y-24.0
X64.0Y-32.0
X64.0Y-40.0
X64.0Y-48.0
X64.0Y-56.0
X64.0Y-73.65
X64.0Y-75.95
X64.51Y-45.5
X68.0Y-108.53
X71.49Y-54.87
X72.0Y-24.0
X72.0Y-40.0
X72.0Y-48.0
X72.5Y-53.4
X73.0Y-108.53
X73.5Y-76.0
X74.0Y-54.9
X74.48Y-69.5
X74.95Y-82.0
X76.3Y-80.65
X76.47Y-72.19
X76.5Y-56.0
X76.5Y-66.5
X76.8Y-67.55
X77.0Y-78.0
X77.45Y-52.3
X77.8Y-68.05
X77.8Y-76.6
X78.0Y-101.0
X78.0Y-109.5
X78.025Y-78.575
X79.03Y-109.63
X79.15Y-76.6
X79.3Y-54.49
X79.5Y-37.34
X79.5Y-61.25
X79.8Y-68.05
X79.85Y-56.3
X80.0Y-24.0
X80.0Y-32.0
X80.0Y-48.0
X80.2Y-67.45
X80.48Y-52.0
X80.7Y-74.8
X80.78Y-75.8
X81.3Y-55.2
X81.4Y-75.1
X81.5Y-59.545
X81.5Y-60.455
X81.5Y-61.25
X82.2Y-56.3
X82.4Y-63.095
X82.4Y-64.005
X82.48Y-111.0
X82.67Y-44.54
X82.8Y-43.5
X83.45Y-42.45
X83.55Y-68.4
X83.6Y-77.85
X83.7Y-72.95
X83.72Y-74.75
X83.75Y-76.35
X83.825Y-79.275
X83.97Y-56.0
X84.09Y-109.9
X84.2Y-66.1
X84.3Y-90.0
X84.35Y-77.85
X84.4Y-67.55
X84.48Y-70.0
X84.6Y-72.05
X84.8Y-64.545
X84.8Y-65.455
X84.9Y-76.55
X84.995Y-68.05
X85.05Y-75.05
X85.3Y-71.1
X85.48Y-38.5
X85.9Y-76.05
X85.905Y-68.05
X86.0Y-43.0
X86.1Y-71.9
X86.35Y-75.6
X86.48Y-52.0
X86.5Y-105.8
X87.2Y-109.9
X87.3Y-112.8
X87.4Y-67.6
X87.4Y-68.4
X87.45Y-74.55
X87.48Y-59.0
X87.5Y-73.3
X87.525Y-80.525
X87.7Y-63.25
X87.83Y-107.17
X88.0Y-24.0
X88.0Y-108.1
X88.15Y-49.05
X88.65Y-71.55
X88.98Y-50.0
X89.0Y-60.55
X89.15Y-57.84
X89.2Y-112.0
X89.2Y-114.0
X89.45Y-67.1
X89.51Y-45.5
X89.65Y-64.2
X89.75Y-59.8
X89.75Y-72.7
X89.95Y-48.15
X90.0Y-70.35
X90.0Y-112.0
X90.0Y-114.0
X90.05Y-65.7
X90.48Y-71.0
X90.65Y-79.0
X90.75Y-68.55
X90.8Y-112.0
X90.8Y-114.0
X91.2Y-70.8
X91.5Y-72.5
X91.5Y-73.5
X91.6Y-110.5
X91.6Y-112.0
X91.6Y-114.0
X91.75Y-68.45
X91.83Y-113.0
X92.0Y-75.0
X92.25Y-68.85
X92.46Y-109.0
X92.5Y-71.8
X92.5Y-73.4
X93.25Y-59.9
X93.5Y-76.5
X93.74Y-68.01
X93.75Y-59.55
X94.0Y-74.0
X94.1Y-58.4
X94.15Y-55.7
X94.25Y-57.7
X94.25Y-59.9
X94.45Y-75.25
X94.5Y-70.25
X94.5Y-77.0
X94.75Y-59.55
X94.8Y-73.95
X94.9Y-55.0
X95.25Y-59.0
X95.25Y-70.0
X95.4Y-72.0
X95.4Y-73.75
X95.675Y-77.275
X95.7Y-55.85
X95.75Y-56.65
X95.75Y-59.75
X95.75Y-68.85
X95.8Y-57.4
X96.0Y-24.0
X96.0Y-32.0
X96.0Y-40.0
X96.25Y-60.1
X96.25Y-70.2
X96.5Y-63.75
X96.55Y-62.2
X96.55Y-67.15
X96.7Y-65.35
X96.75Y-59.75
X96.85Y-64.75
X96.9Y-76.05
X97.46Y-59.0
X97.47Y-112.0
X97.675Y-80.525
X97.75Y-73.75
X97.75Y-75.2
X98.15Y-63.35
X98.2Y-81.95
X98.5Y-81.175
X98.65Y-47.4
X98.65Y-83.1
X98.65Y-87.0
X98.8Y-46.6
X98.85Y-55.39
X99.1Y-59.7
X99.3Y-67.9
X99.48Y-59.0
X99.51Y-50.0
X99.65Y-87.0
X99.9Y-63.05
X100.0Y-72.45
X100.0Y-90.0
X100.03Y-55.12
X100.4Y-75.5
X100.4Y-82.45
X100.65Y-70.1
X100.65Y-80.65
X101.0Y-40.8
X101.05Y-64.2
X101.6Y-45.5
X102.1Y-66.5
X102.1Y-67.15
X102.1Y-69.05
X102.1Y-91.5
X102.4Y-87.35
X102.48Y-38.5
X102.48Y-62.0
X102.48Y-68.0
X102.55Y-57.85
X102.58Y-87.95
X102.65Y-79.55
X102.75Y-72.1
X103.0Y-78.3
X103.15Y-72.75
X103.4Y-87.85
X103.5Y-62.1
X103.5Y-63.7
X103.8Y-78.4
X103.85Y-71.0
X103.95Y-69.2
X104.0Y-24.0
X104.0Y-32.0
X104.0Y-40.0
X104.0Y-48.0
X104.0Y-85.35
X104.0Y-96.0
X104.35Y-45.0
X104.95Y-65.85
X105.05Y-75.55
X105.2Y-87.45
X105.51Y-66.5
X105.51Y-68.0
X105.51Y-69.5
X105.51Y-71.0
X105.85Y-57.35
X106.2Y-60.2
X106.6Y-76.2
X106.862Y-88.4
X107.0Y-60.7
X107.19Y-92.0
X107.3Y-53.52
X107.5Y-37.34
X107.85Y-89.7
X107.9Y-86.65
X107.95Y-84.55
X108.0Y-61.2
X108.48Y-52.0
X108.5Y-99.0
X108.51Y-92.0
X108.65Y-66.65
X109.1Y-61.8
X109.48Y-85.21
X110.45Y-57.15
X110.45Y-60.4
X110.51Y-70.0
X110.95Y-62.15
X111.85Y-91.65
X111.9Y-57.8
X112.0Y-24.0
X112.0Y-32.0
X112.0Y-40.0
X112.0Y-48.0
X112.0Y-96.0
X112.1Y-62.8
X112.55Y-91.3
X112.8Y-77.8
X112.875Y-78.9
X112.95Y-68.35
X112.97Y-61.12
X113.0Y-81.25
X113.1Y-57.35
X113.51Y-70.0
X113.8Y-91.75
X114.0Y-81.8
X114.05Y-82.55
X114.125Y-78.9
X114.3Y-70.05
X114.51Y-92.0
X114.51Y-96.0
X114.6Y-56.25
X115.05Y-86.5
X115.25Y-91.75
X115.75Y-57.4
X115.95Y-85.75
X116.1Y-93.4
X116.48Y-77.0
X116.8Y-67.55
X117.0Y-70.65
X117.14Y-88.85
X117.8Y-76.975
X117.95Y-93.4
X118.25Y-88.65
X118.275Y-79.575
X118.45Y-69.2
X118.45Y-85.15
X118.65Y-89.95
X118.8Y-93.25
X119.55Y-60.3
X119.8Y-92.25
X120.0Y-24.0
X120.0Y-32.0
X120.0Y-84.7
X120.0Y-86.65
X120.0Y-88.0
X120.0Y-96.0
X120.15Y-57.25
X120.75Y-90.6
X120.8Y-65.2
X121.01Y-45.5
X121.35Y-54.95
X121.5Y-37.4
X121.5Y-43.0
X121.55Y-86.1
X121.8Y-81.6
X121.85Y-63.45
X122.15Y-74.55
X122.15Y-75.2
X122.15Y-82.1
X122.3Y-62.45
X122.45Y-90.1
X122.6Y-45.5
X122.8Y-92.0
X122.85Y-38.75
X123.25Y-46.25
X123.35Y-74.0
X123.35Y-75.2
X123.35Y-81.9
X123.35Y-82.6
X123.5Y-88.75
X123.8Y-64.7
X124.15Y-63.45
X124.2Y-84.9
X124.5Y-78.0
X124.51Y-92.0
X124.85Y-57.5
X124.95Y-73.95
X125.01Y-62.0
X125.35Y-45.0
X125.4Y-57.85
X125.48Y-84.0
X126.15Y-69.25
X126.2Y-89.4
X126.25Y-83.85
X126.5Y-80.22
X126.7Y-83.4
X126.8Y-64.2
X127.3Y-84.9
X127.75Y-84.45
X127.9Y-77.35
X127.98Y-54.0
X128.0Y-24.0
X128.0Y-40.0
X128.0Y-48.0
X128.0Y-88.0
X128.0Y-96.0
X128.01Y-62.0
X128.8Y-63.0
X128.85Y-77.6
X129.0Y-77.0
X129.25Y-45.05
X129.5Y-84.7
X129.7Y-81.8
X130.0Y-77.2
X130.2Y-78.1
X135.3Y-53.52
X135.5Y-37.34
X136.0Y-24.0
X136.0Y-32.0
X136.0Y-48.0
X136.0Y-64.0
X136.0Y-72.0
X136.0Y-80.0
X136.0Y-88.0
X136.0Y-96.0
X139.6Y-59.0
X140.4Y-59.0
X141.5Y-61.5
X144.0Y-24.0
X144.0Y-40.0
X144.0Y-48.0
X144.0Y-56.0
X144.0Y-64.0
X144.0Y-72.0
X144.0Y-80.0
X144.0Y-88.0
X144.0Y-96.0
X144.0Y-104.0
T2
X44.425Y-71.05
X44.425Y-72.0
X44.425Y-72.95
X45.575Y-71.05
X45.575Y-72.0
X45.575Y-72.95
X47.425Y-53.05
X47.425Y-54.0
X47.425Y-54.95
X48.575Y-53.05
X48.575Y-54.0
X48.575Y-54.95
X75.425Y-53.05
X75.425Y-54.0
X75.425Y-54.95
X76.575Y-53.05
X76.575Y-54.0
X76.575Y-54.95
X90.9Y-62.9
X90.9Y-64.3
X90.9Y-65.7
X90.9Y-67.1
X92.3Y-62.9
X92.3Y-64.3
X92.3Y-65.7
X92.3Y-67.1
X93.7Y-62.9
X93.7Y-64.3
X93.7Y-65.7
X93.7Y-67.1
X95.1Y-62.9
X95.1Y-64.3
X95.1Y-65.7
X95.1Y-67.1
X103.425Y-53.05
X103.425Y-54.0
X103.425Y-54.95
X104.575Y-53.05
X104.575Y-54.0
X104.575Y-54.95
X131.425Y-53.05
X131.425Y-54.0
X131.425Y-54.95
X132.575Y-53.05
X132.575Y-54.0
X132.575Y-54.95
T3
X49.52Y-69.8
X49.52Y-73.8
X49.95Y-54.0
X51.4Y-71.0
X51.52Y-51.2
X52.2Y-55.2
X52.5Y-45.85
X52.5Y-48.15
X77.65Y-69.9
X78.49Y-77.8
X79.52Y-51.2
X79.95Y-74.75
X79.99Y-69.9
X81.05Y-77.8
X81.3Y-53.2
X81.7Y-39.45
X81.95Y-45.85
X81.95Y-48.15
X90.4Y-77.2
X102.35Y-77.0
X106.15Y-54.0
X107.52Y-51.2
X108.2Y-55.2
X111.0Y-39.45
X123.7Y-77.0
X134.15Y-54.0
X135.52Y-51.2
X136.2Y-55.2
T5
X48.0Y-33.7
X50.5Y-33.7
X52.5Y-33.7
X55.0Y-33.7
X76.0Y-33.7
X78.5Y-33.7
X80.5Y-33.7
X83.0Y-33.7
X104.0Y-33.7
X106.5Y-33.7
X108.5Y-33.7
X111.0Y-33.7
X132.0Y-33.7
X134.5Y-33.7
X136.5Y-33.7
X139.0Y-33.7
T6
X44.879Y-31.1
X58.119Y-31.1
X72.879Y-31.1
X86.119Y-31.1
X100.879Y-31.1
X114.119Y-31.1
X128.879Y-31.1
X142.119Y-31.1
T4
G00X22.97Y-52.675
M15
G01X22.17Y-52.675
M16
G05
G00X22.97Y-61.325
M15
G01X22.17Y-61.325
M16
G05
G00X22.97Y-100.675
M15
G01X22.17Y-100.675
M16
G05
G00X22.97Y-109.325
M15
G01X22.17Y-109.325
M16
G05
G00X27.3Y-52.675
M15
G01X26.2Y-52.675
M16
G05
G00X27.3Y-61.325
M15
G01X26.2Y-61.325
M16
G05
G00X27.3Y-100.675
M15
G01X26.2Y-100.675
M16
G05
G00X27.3Y-109.325
M15
G01X26.2Y-109.325
M16
G05
M30
