%TF.GenerationSoftware,KiCad,Pcbnew,10.0.4-10.0.4~ubuntu24.04.1*%
%TF.CreationDate,2026-08-13T23:26:40-07:00*%
%TF.ProjectId,pluto_rx2_8way_v5,706c7574-6f5f-4727-9832-5f387761795f,rev?*%
%TF.SameCoordinates,Original*%
%TF.FileFunction,Legend,Top*%
%TF.FilePolarity,Positive*%
%FSLAX46Y46*%
G04 Gerber Fmt 4.6, Leading zero omitted, Abs format (unit mm)*
G04 Created by KiCad (PCBNEW 10.0.4-10.0.4~ubuntu24.04.1) date 2026-08-13 23:26:40*
%MOMM*%
%LPD*%
G01*
G04 APERTURE LIST*
G04 Aperture macros list*
%AMRoundRect*
0 Rectangle with rounded corners*
0 $1 Rounding radius*
0 $2 $3 $4 $5 $6 $7 $8 $9 X,Y pos of 4 corners*
0 Add a 4 corners polygon primitive as box body*
4,1,4,$2,$3,$4,$5,$6,$7,$8,$9,$2,$3,0*
0 Add four circle primitives for the rounded corners*
1,1,$1+$1,$2,$3*
1,1,$1+$1,$4,$5*
1,1,$1+$1,$6,$7*
1,1,$1+$1,$8,$9*
0 Add four rect primitives between the rounded corners*
20,1,$1+$1,$2,$3,$4,$5,0*
20,1,$1+$1,$4,$5,$6,$7,0*
20,1,$1+$1,$6,$7,$8,$9,0*
20,1,$1+$1,$8,$9,$2,$3,0*%
G04 Aperture macros list end*
%ADD10C,0.130000*%
%ADD11C,0.152000*%
%ADD12C,0.120000*%
%ADD13C,0.150000*%
%ADD14C,0.100000*%
%ADD15C,2.400000*%
%ADD16C,2.800000*%
%ADD17RoundRect,0.225000X0.225000X0.250000X-0.225000X0.250000X-0.225000X-0.250000X0.225000X-0.250000X0*%
%ADD18RoundRect,0.135000X-0.185000X0.135000X-0.185000X-0.135000X0.185000X-0.135000X0.185000X0.135000X0*%
%ADD19C,2.000000*%
%ADD20C,0.650000*%
%ADD21RoundRect,0.150000X-0.150000X-0.425000X0.150000X-0.425000X0.150000X0.425000X-0.150000X0.425000X0*%
%ADD22RoundRect,0.075000X-0.075000X-0.500000X0.075000X-0.500000X0.075000X0.500000X-0.075000X0.500000X0*%
%ADD23O,1.000000X2.100000*%
%ADD24O,1.000000X1.800000*%
%ADD25RoundRect,0.150000X0.150000X-0.512500X0.150000X0.512500X-0.150000X0.512500X-0.150000X-0.512500X0*%
%ADD26RoundRect,0.087500X-0.250000X-0.087500X0.250000X-0.087500X0.250000X0.087500X-0.250000X0.087500X0*%
%ADD27RoundRect,0.140000X0.170000X-0.140000X0.170000X0.140000X-0.170000X0.140000X-0.170000X-0.140000X0*%
%ADD28RoundRect,0.135000X0.185000X-0.135000X0.185000X0.135000X-0.185000X0.135000X-0.185000X-0.135000X0*%
%ADD29C,3.200000*%
%ADD30RoundRect,0.135000X-0.135000X-0.185000X0.135000X-0.185000X0.135000X0.185000X-0.135000X0.185000X0*%
%ADD31RoundRect,0.100000X-0.100000X0.637500X-0.100000X-0.637500X0.100000X-0.637500X0.100000X0.637500X0*%
%ADD32RoundRect,0.140000X-0.170000X0.140000X-0.170000X-0.140000X0.170000X-0.140000X0.170000X0.140000X0*%
%ADD33RoundRect,0.250000X-1.000000X-0.900000X1.000000X-0.900000X1.000000X0.900000X-1.000000X0.900000X0*%
%ADD34RoundRect,0.218750X0.256250X-0.218750X0.256250X0.218750X-0.256250X0.218750X-0.256250X-0.218750X0*%
%ADD35R,0.600000X0.300000*%
%ADD36R,0.300000X0.600000*%
%ADD37R,2.750000X2.750000*%
%ADD38RoundRect,0.111000X-0.259000X-1.284000X0.259000X-1.284000X0.259000X1.284000X-0.259000X1.284000X0*%
G04 APERTURE END LIST*
D10*
X75714286Y-70456525D02*
X75514286Y-70456525D01*
X75514286Y-70770811D02*
X75514286Y-70170811D01*
X75514286Y-70170811D02*
X75800000Y-70170811D01*
X76028572Y-70170811D02*
X76028572Y-70656525D01*
X76028572Y-70656525D02*
X76057143Y-70713668D01*
X76057143Y-70713668D02*
X76085715Y-70742240D01*
X76085715Y-70742240D02*
X76142857Y-70770811D01*
X76142857Y-70770811D02*
X76257143Y-70770811D01*
X76257143Y-70770811D02*
X76314286Y-70742240D01*
X76314286Y-70742240D02*
X76342857Y-70713668D01*
X76342857Y-70713668D02*
X76371429Y-70656525D01*
X76371429Y-70656525D02*
X76371429Y-70170811D01*
X76628571Y-70742240D02*
X76714286Y-70770811D01*
X76714286Y-70770811D02*
X76857143Y-70770811D01*
X76857143Y-70770811D02*
X76914286Y-70742240D01*
X76914286Y-70742240D02*
X76942857Y-70713668D01*
X76942857Y-70713668D02*
X76971428Y-70656525D01*
X76971428Y-70656525D02*
X76971428Y-70599382D01*
X76971428Y-70599382D02*
X76942857Y-70542240D01*
X76942857Y-70542240D02*
X76914286Y-70513668D01*
X76914286Y-70513668D02*
X76857143Y-70485097D01*
X76857143Y-70485097D02*
X76742857Y-70456525D01*
X76742857Y-70456525D02*
X76685714Y-70427954D01*
X76685714Y-70427954D02*
X76657143Y-70399382D01*
X76657143Y-70399382D02*
X76628571Y-70342240D01*
X76628571Y-70342240D02*
X76628571Y-70285097D01*
X76628571Y-70285097D02*
X76657143Y-70227954D01*
X76657143Y-70227954D02*
X76685714Y-70199382D01*
X76685714Y-70199382D02*
X76742857Y-70170811D01*
X76742857Y-70170811D02*
X76885714Y-70170811D01*
X76885714Y-70170811D02*
X76971428Y-70199382D01*
X77228572Y-70456525D02*
X77428572Y-70456525D01*
X77514286Y-70770811D02*
X77228572Y-70770811D01*
X77228572Y-70770811D02*
X77228572Y-70170811D01*
X77228572Y-70170811D02*
X77514286Y-70170811D01*
X39983333Y-70817073D02*
X39983333Y-70117073D01*
X40383333Y-70817073D02*
X40083333Y-70417073D01*
X40383333Y-70117073D02*
X39983333Y-70517073D01*
X40683333Y-70450406D02*
X40916667Y-70450406D01*
X41016667Y-70817073D02*
X40683333Y-70817073D01*
X40683333Y-70817073D02*
X40683333Y-70117073D01*
X40683333Y-70117073D02*
X41016667Y-70117073D01*
X41450000Y-70483740D02*
X41450000Y-70817073D01*
X41216666Y-70117073D02*
X41450000Y-70483740D01*
X41450000Y-70483740D02*
X41683333Y-70117073D01*
X41916666Y-70450406D02*
X42150000Y-70450406D01*
X42250000Y-70817073D02*
X41916666Y-70817073D01*
X41916666Y-70817073D02*
X41916666Y-70117073D01*
X41916666Y-70117073D02*
X42250000Y-70117073D01*
X42549999Y-70817073D02*
X42549999Y-70117073D01*
X42549999Y-70117073D02*
X42716666Y-70117073D01*
X42716666Y-70117073D02*
X42816666Y-70150406D01*
X42816666Y-70150406D02*
X42883333Y-70217073D01*
X42883333Y-70217073D02*
X42916666Y-70283740D01*
X42916666Y-70283740D02*
X42949999Y-70417073D01*
X42949999Y-70417073D02*
X42949999Y-70517073D01*
X42949999Y-70517073D02*
X42916666Y-70650406D01*
X42916666Y-70650406D02*
X42883333Y-70717073D01*
X42883333Y-70717073D02*
X42816666Y-70783740D01*
X42816666Y-70783740D02*
X42716666Y-70817073D01*
X42716666Y-70817073D02*
X42549999Y-70817073D01*
X43749999Y-70783740D02*
X43849999Y-70817073D01*
X43849999Y-70817073D02*
X44016666Y-70817073D01*
X44016666Y-70817073D02*
X44083332Y-70783740D01*
X44083332Y-70783740D02*
X44116666Y-70750406D01*
X44116666Y-70750406D02*
X44149999Y-70683740D01*
X44149999Y-70683740D02*
X44149999Y-70617073D01*
X44149999Y-70617073D02*
X44116666Y-70550406D01*
X44116666Y-70550406D02*
X44083332Y-70517073D01*
X44083332Y-70517073D02*
X44016666Y-70483740D01*
X44016666Y-70483740D02*
X43883332Y-70450406D01*
X43883332Y-70450406D02*
X43816666Y-70417073D01*
X43816666Y-70417073D02*
X43783332Y-70383740D01*
X43783332Y-70383740D02*
X43749999Y-70317073D01*
X43749999Y-70317073D02*
X43749999Y-70250406D01*
X43749999Y-70250406D02*
X43783332Y-70183740D01*
X43783332Y-70183740D02*
X43816666Y-70150406D01*
X43816666Y-70150406D02*
X43883332Y-70117073D01*
X43883332Y-70117073D02*
X44049999Y-70117073D01*
X44049999Y-70117073D02*
X44149999Y-70150406D01*
X44383333Y-70117073D02*
X44549999Y-70817073D01*
X44549999Y-70817073D02*
X44683333Y-70317073D01*
X44683333Y-70317073D02*
X44816666Y-70817073D01*
X44816666Y-70817073D02*
X44983333Y-70117073D01*
X45249999Y-70817073D02*
X45249999Y-70117073D01*
X45249999Y-70117073D02*
X45416666Y-70117073D01*
X45416666Y-70117073D02*
X45516666Y-70150406D01*
X45516666Y-70150406D02*
X45583333Y-70217073D01*
X45583333Y-70217073D02*
X45616666Y-70283740D01*
X45616666Y-70283740D02*
X45649999Y-70417073D01*
X45649999Y-70417073D02*
X45649999Y-70517073D01*
X45649999Y-70517073D02*
X45616666Y-70650406D01*
X45616666Y-70650406D02*
X45583333Y-70717073D01*
X45583333Y-70717073D02*
X45516666Y-70783740D01*
X45516666Y-70783740D02*
X45416666Y-70817073D01*
X45416666Y-70817073D02*
X45249999Y-70817073D01*
X46683332Y-70117073D02*
X46683332Y-70617073D01*
X46683332Y-70617073D02*
X46649999Y-70717073D01*
X46649999Y-70717073D02*
X46583332Y-70783740D01*
X46583332Y-70783740D02*
X46483332Y-70817073D01*
X46483332Y-70817073D02*
X46416666Y-70817073D01*
X47383332Y-70817073D02*
X46983332Y-70817073D01*
X47183332Y-70817073D02*
X47183332Y-70117073D01*
X47183332Y-70117073D02*
X47116665Y-70217073D01*
X47116665Y-70217073D02*
X47049999Y-70283740D01*
X47049999Y-70283740D02*
X46983332Y-70317073D01*
X48049999Y-70817073D02*
X47649999Y-70817073D01*
X47849999Y-70817073D02*
X47849999Y-70117073D01*
X47849999Y-70117073D02*
X47783332Y-70217073D01*
X47783332Y-70217073D02*
X47716666Y-70283740D01*
X47716666Y-70283740D02*
X47649999Y-70317073D01*
X54966666Y-42350406D02*
X54966666Y-43050406D01*
X54966666Y-42383740D02*
X55033333Y-42350406D01*
X55033333Y-42350406D02*
X55166666Y-42350406D01*
X55166666Y-42350406D02*
X55233333Y-42383740D01*
X55233333Y-42383740D02*
X55266666Y-42417073D01*
X55266666Y-42417073D02*
X55300000Y-42483740D01*
X55300000Y-42483740D02*
X55300000Y-42683740D01*
X55300000Y-42683740D02*
X55266666Y-42750406D01*
X55266666Y-42750406D02*
X55233333Y-42783740D01*
X55233333Y-42783740D02*
X55166666Y-42817073D01*
X55166666Y-42817073D02*
X55033333Y-42817073D01*
X55033333Y-42817073D02*
X54966666Y-42783740D01*
X55699999Y-42817073D02*
X55633333Y-42783740D01*
X55633333Y-42783740D02*
X55599999Y-42717073D01*
X55599999Y-42717073D02*
X55599999Y-42117073D01*
X56266666Y-42350406D02*
X56266666Y-42817073D01*
X55966666Y-42350406D02*
X55966666Y-42717073D01*
X55966666Y-42717073D02*
X56000000Y-42783740D01*
X56000000Y-42783740D02*
X56066666Y-42817073D01*
X56066666Y-42817073D02*
X56166666Y-42817073D01*
X56166666Y-42817073D02*
X56233333Y-42783740D01*
X56233333Y-42783740D02*
X56266666Y-42750406D01*
X56499999Y-42350406D02*
X56766666Y-42350406D01*
X56599999Y-42117073D02*
X56599999Y-42717073D01*
X56599999Y-42717073D02*
X56633333Y-42783740D01*
X56633333Y-42783740D02*
X56699999Y-42817073D01*
X56699999Y-42817073D02*
X56766666Y-42817073D01*
X57099999Y-42817073D02*
X57033333Y-42783740D01*
X57033333Y-42783740D02*
X56999999Y-42750406D01*
X56999999Y-42750406D02*
X56966666Y-42683740D01*
X56966666Y-42683740D02*
X56966666Y-42483740D01*
X56966666Y-42483740D02*
X56999999Y-42417073D01*
X56999999Y-42417073D02*
X57033333Y-42383740D01*
X57033333Y-42383740D02*
X57099999Y-42350406D01*
X57099999Y-42350406D02*
X57199999Y-42350406D01*
X57199999Y-42350406D02*
X57266666Y-42383740D01*
X57266666Y-42383740D02*
X57299999Y-42417073D01*
X57299999Y-42417073D02*
X57333333Y-42483740D01*
X57333333Y-42483740D02*
X57333333Y-42683740D01*
X57333333Y-42683740D02*
X57299999Y-42750406D01*
X57299999Y-42750406D02*
X57266666Y-42783740D01*
X57266666Y-42783740D02*
X57199999Y-42817073D01*
X57199999Y-42817073D02*
X57099999Y-42817073D01*
X57633332Y-42550406D02*
X58166666Y-42550406D01*
X58499999Y-42817073D02*
X58499999Y-42350406D01*
X58499999Y-42483740D02*
X58533333Y-42417073D01*
X58533333Y-42417073D02*
X58566666Y-42383740D01*
X58566666Y-42383740D02*
X58633333Y-42350406D01*
X58633333Y-42350406D02*
X58699999Y-42350406D01*
X58866666Y-42817073D02*
X59233332Y-42350406D01*
X58866666Y-42350406D02*
X59233332Y-42817073D01*
X59466666Y-42183740D02*
X59499999Y-42150406D01*
X59499999Y-42150406D02*
X59566666Y-42117073D01*
X59566666Y-42117073D02*
X59733333Y-42117073D01*
X59733333Y-42117073D02*
X59799999Y-42150406D01*
X59799999Y-42150406D02*
X59833333Y-42183740D01*
X59833333Y-42183740D02*
X59866666Y-42250406D01*
X59866666Y-42250406D02*
X59866666Y-42317073D01*
X59866666Y-42317073D02*
X59833333Y-42417073D01*
X59833333Y-42417073D02*
X59433333Y-42817073D01*
X59433333Y-42817073D02*
X59866666Y-42817073D01*
X60166666Y-42550406D02*
X60700000Y-42550406D01*
X61133333Y-42417073D02*
X61066667Y-42383740D01*
X61066667Y-42383740D02*
X61033333Y-42350406D01*
X61033333Y-42350406D02*
X61000000Y-42283740D01*
X61000000Y-42283740D02*
X61000000Y-42250406D01*
X61000000Y-42250406D02*
X61033333Y-42183740D01*
X61033333Y-42183740D02*
X61066667Y-42150406D01*
X61066667Y-42150406D02*
X61133333Y-42117073D01*
X61133333Y-42117073D02*
X61266667Y-42117073D01*
X61266667Y-42117073D02*
X61333333Y-42150406D01*
X61333333Y-42150406D02*
X61366667Y-42183740D01*
X61366667Y-42183740D02*
X61400000Y-42250406D01*
X61400000Y-42250406D02*
X61400000Y-42283740D01*
X61400000Y-42283740D02*
X61366667Y-42350406D01*
X61366667Y-42350406D02*
X61333333Y-42383740D01*
X61333333Y-42383740D02*
X61266667Y-42417073D01*
X61266667Y-42417073D02*
X61133333Y-42417073D01*
X61133333Y-42417073D02*
X61066667Y-42450406D01*
X61066667Y-42450406D02*
X61033333Y-42483740D01*
X61033333Y-42483740D02*
X61000000Y-42550406D01*
X61000000Y-42550406D02*
X61000000Y-42683740D01*
X61000000Y-42683740D02*
X61033333Y-42750406D01*
X61033333Y-42750406D02*
X61066667Y-42783740D01*
X61066667Y-42783740D02*
X61133333Y-42817073D01*
X61133333Y-42817073D02*
X61266667Y-42817073D01*
X61266667Y-42817073D02*
X61333333Y-42783740D01*
X61333333Y-42783740D02*
X61366667Y-42750406D01*
X61366667Y-42750406D02*
X61400000Y-42683740D01*
X61400000Y-42683740D02*
X61400000Y-42550406D01*
X61400000Y-42550406D02*
X61366667Y-42483740D01*
X61366667Y-42483740D02*
X61333333Y-42450406D01*
X61333333Y-42450406D02*
X61266667Y-42417073D01*
X61633334Y-42350406D02*
X61766667Y-42817073D01*
X61766667Y-42817073D02*
X61900000Y-42483740D01*
X61900000Y-42483740D02*
X62033334Y-42817073D01*
X62033334Y-42817073D02*
X62166667Y-42350406D01*
X62733333Y-42817073D02*
X62733333Y-42450406D01*
X62733333Y-42450406D02*
X62700000Y-42383740D01*
X62700000Y-42383740D02*
X62633333Y-42350406D01*
X62633333Y-42350406D02*
X62500000Y-42350406D01*
X62500000Y-42350406D02*
X62433333Y-42383740D01*
X62733333Y-42783740D02*
X62666667Y-42817073D01*
X62666667Y-42817073D02*
X62500000Y-42817073D01*
X62500000Y-42817073D02*
X62433333Y-42783740D01*
X62433333Y-42783740D02*
X62400000Y-42717073D01*
X62400000Y-42717073D02*
X62400000Y-42650406D01*
X62400000Y-42650406D02*
X62433333Y-42583740D01*
X62433333Y-42583740D02*
X62500000Y-42550406D01*
X62500000Y-42550406D02*
X62666667Y-42550406D01*
X62666667Y-42550406D02*
X62733333Y-42517073D01*
X63000000Y-42350406D02*
X63166666Y-42817073D01*
X63333333Y-42350406D02*
X63166666Y-42817073D01*
X63166666Y-42817073D02*
X63100000Y-42983740D01*
X63100000Y-42983740D02*
X63066666Y-43017073D01*
X63066666Y-43017073D02*
X63000000Y-43050406D01*
X63599999Y-42550406D02*
X64133333Y-42550406D01*
X64400000Y-42350406D02*
X64566666Y-42817073D01*
X64566666Y-42817073D02*
X64733333Y-42350406D01*
X65333333Y-42117073D02*
X64999999Y-42117073D01*
X64999999Y-42117073D02*
X64966666Y-42450406D01*
X64966666Y-42450406D02*
X64999999Y-42417073D01*
X64999999Y-42417073D02*
X65066666Y-42383740D01*
X65066666Y-42383740D02*
X65233333Y-42383740D01*
X65233333Y-42383740D02*
X65299999Y-42417073D01*
X65299999Y-42417073D02*
X65333333Y-42450406D01*
X65333333Y-42450406D02*
X65366666Y-42517073D01*
X65366666Y-42517073D02*
X65366666Y-42683740D01*
X65366666Y-42683740D02*
X65333333Y-42750406D01*
X65333333Y-42750406D02*
X65299999Y-42783740D01*
X65299999Y-42783740D02*
X65233333Y-42817073D01*
X65233333Y-42817073D02*
X65066666Y-42817073D01*
X65066666Y-42817073D02*
X64999999Y-42783740D01*
X64999999Y-42783740D02*
X64966666Y-42750406D01*
X67099999Y-42817073D02*
X66699999Y-42817073D01*
X66899999Y-42817073D02*
X66899999Y-42117073D01*
X66899999Y-42117073D02*
X66833332Y-42217073D01*
X66833332Y-42217073D02*
X66766666Y-42283740D01*
X66766666Y-42283740D02*
X66699999Y-42317073D01*
X67533333Y-42117073D02*
X67599999Y-42117073D01*
X67599999Y-42117073D02*
X67666666Y-42150406D01*
X67666666Y-42150406D02*
X67699999Y-42183740D01*
X67699999Y-42183740D02*
X67733333Y-42250406D01*
X67733333Y-42250406D02*
X67766666Y-42383740D01*
X67766666Y-42383740D02*
X67766666Y-42550406D01*
X67766666Y-42550406D02*
X67733333Y-42683740D01*
X67733333Y-42683740D02*
X67699999Y-42750406D01*
X67699999Y-42750406D02*
X67666666Y-42783740D01*
X67666666Y-42783740D02*
X67599999Y-42817073D01*
X67599999Y-42817073D02*
X67533333Y-42817073D01*
X67533333Y-42817073D02*
X67466666Y-42783740D01*
X67466666Y-42783740D02*
X67433333Y-42750406D01*
X67433333Y-42750406D02*
X67399999Y-42683740D01*
X67399999Y-42683740D02*
X67366666Y-42550406D01*
X67366666Y-42550406D02*
X67366666Y-42383740D01*
X67366666Y-42383740D02*
X67399999Y-42250406D01*
X67399999Y-42250406D02*
X67433333Y-42183740D01*
X67433333Y-42183740D02*
X67466666Y-42150406D01*
X67466666Y-42150406D02*
X67533333Y-42117073D01*
X68200000Y-42117073D02*
X68266666Y-42117073D01*
X68266666Y-42117073D02*
X68333333Y-42150406D01*
X68333333Y-42150406D02*
X68366666Y-42183740D01*
X68366666Y-42183740D02*
X68400000Y-42250406D01*
X68400000Y-42250406D02*
X68433333Y-42383740D01*
X68433333Y-42383740D02*
X68433333Y-42550406D01*
X68433333Y-42550406D02*
X68400000Y-42683740D01*
X68400000Y-42683740D02*
X68366666Y-42750406D01*
X68366666Y-42750406D02*
X68333333Y-42783740D01*
X68333333Y-42783740D02*
X68266666Y-42817073D01*
X68266666Y-42817073D02*
X68200000Y-42817073D01*
X68200000Y-42817073D02*
X68133333Y-42783740D01*
X68133333Y-42783740D02*
X68100000Y-42750406D01*
X68100000Y-42750406D02*
X68066666Y-42683740D01*
X68066666Y-42683740D02*
X68033333Y-42550406D01*
X68033333Y-42550406D02*
X68033333Y-42383740D01*
X68033333Y-42383740D02*
X68066666Y-42250406D01*
X68066666Y-42250406D02*
X68100000Y-42183740D01*
X68100000Y-42183740D02*
X68133333Y-42150406D01*
X68133333Y-42150406D02*
X68200000Y-42117073D01*
X68733333Y-42817073D02*
X68733333Y-42117073D01*
X68733333Y-42117073D02*
X68966667Y-42617073D01*
X68966667Y-42617073D02*
X69200000Y-42117073D01*
X69200000Y-42117073D02*
X69200000Y-42817073D01*
X69533333Y-42817073D02*
X69533333Y-42117073D01*
X69533333Y-42450406D02*
X69933333Y-42450406D01*
X69933333Y-42817073D02*
X69933333Y-42117073D01*
X70200000Y-42350406D02*
X70566666Y-42350406D01*
X70566666Y-42350406D02*
X70200000Y-42817073D01*
X70200000Y-42817073D02*
X70566666Y-42817073D01*
X70833333Y-42550406D02*
X71366667Y-42550406D01*
X72033334Y-42117073D02*
X71700000Y-42117073D01*
X71700000Y-42117073D02*
X71666667Y-42450406D01*
X71666667Y-42450406D02*
X71700000Y-42417073D01*
X71700000Y-42417073D02*
X71766667Y-42383740D01*
X71766667Y-42383740D02*
X71933334Y-42383740D01*
X71933334Y-42383740D02*
X72000000Y-42417073D01*
X72000000Y-42417073D02*
X72033334Y-42450406D01*
X72033334Y-42450406D02*
X72066667Y-42517073D01*
X72066667Y-42517073D02*
X72066667Y-42683740D01*
X72066667Y-42683740D02*
X72033334Y-42750406D01*
X72033334Y-42750406D02*
X72000000Y-42783740D01*
X72000000Y-42783740D02*
X71933334Y-42817073D01*
X71933334Y-42817073D02*
X71766667Y-42817073D01*
X71766667Y-42817073D02*
X71700000Y-42783740D01*
X71700000Y-42783740D02*
X71666667Y-42750406D01*
X72366667Y-42750406D02*
X72400001Y-42783740D01*
X72400001Y-42783740D02*
X72366667Y-42817073D01*
X72366667Y-42817073D02*
X72333334Y-42783740D01*
X72333334Y-42783740D02*
X72366667Y-42750406D01*
X72366667Y-42750406D02*
X72366667Y-42817073D01*
X72733334Y-42817073D02*
X72866667Y-42817073D01*
X72866667Y-42817073D02*
X72933334Y-42783740D01*
X72933334Y-42783740D02*
X72966667Y-42750406D01*
X72966667Y-42750406D02*
X73033334Y-42650406D01*
X73033334Y-42650406D02*
X73066667Y-42517073D01*
X73066667Y-42517073D02*
X73066667Y-42250406D01*
X73066667Y-42250406D02*
X73033334Y-42183740D01*
X73033334Y-42183740D02*
X73000000Y-42150406D01*
X73000000Y-42150406D02*
X72933334Y-42117073D01*
X72933334Y-42117073D02*
X72800000Y-42117073D01*
X72800000Y-42117073D02*
X72733334Y-42150406D01*
X72733334Y-42150406D02*
X72700000Y-42183740D01*
X72700000Y-42183740D02*
X72666667Y-42250406D01*
X72666667Y-42250406D02*
X72666667Y-42417073D01*
X72666667Y-42417073D02*
X72700000Y-42483740D01*
X72700000Y-42483740D02*
X72733334Y-42517073D01*
X72733334Y-42517073D02*
X72800000Y-42550406D01*
X72800000Y-42550406D02*
X72933334Y-42550406D01*
X72933334Y-42550406D02*
X73000000Y-42517073D01*
X73000000Y-42517073D02*
X73033334Y-42483740D01*
X73033334Y-42483740D02*
X73066667Y-42417073D01*
X73733334Y-42150406D02*
X73666667Y-42117073D01*
X73666667Y-42117073D02*
X73566667Y-42117073D01*
X73566667Y-42117073D02*
X73466667Y-42150406D01*
X73466667Y-42150406D02*
X73400001Y-42217073D01*
X73400001Y-42217073D02*
X73366667Y-42283740D01*
X73366667Y-42283740D02*
X73333334Y-42417073D01*
X73333334Y-42417073D02*
X73333334Y-42517073D01*
X73333334Y-42517073D02*
X73366667Y-42650406D01*
X73366667Y-42650406D02*
X73400001Y-42717073D01*
X73400001Y-42717073D02*
X73466667Y-42783740D01*
X73466667Y-42783740D02*
X73566667Y-42817073D01*
X73566667Y-42817073D02*
X73633334Y-42817073D01*
X73633334Y-42817073D02*
X73733334Y-42783740D01*
X73733334Y-42783740D02*
X73766667Y-42750406D01*
X73766667Y-42750406D02*
X73766667Y-42517073D01*
X73766667Y-42517073D02*
X73633334Y-42517073D01*
X74066667Y-42817073D02*
X74066667Y-42117073D01*
X74066667Y-42450406D02*
X74466667Y-42450406D01*
X74466667Y-42817073D02*
X74466667Y-42117073D01*
X74733334Y-42350406D02*
X75100000Y-42350406D01*
X75100000Y-42350406D02*
X74733334Y-42817073D01*
X74733334Y-42817073D02*
X75100000Y-42817073D01*
X54595238Y-82963335D02*
X54595238Y-83610954D01*
X54595238Y-83610954D02*
X54633333Y-83687144D01*
X54633333Y-83687144D02*
X54671428Y-83725240D01*
X54671428Y-83725240D02*
X54747619Y-83763335D01*
X54747619Y-83763335D02*
X54900000Y-83763335D01*
X54900000Y-83763335D02*
X54976190Y-83725240D01*
X54976190Y-83725240D02*
X55014285Y-83687144D01*
X55014285Y-83687144D02*
X55052381Y-83610954D01*
X55052381Y-83610954D02*
X55052381Y-82963335D01*
X55395237Y-83725240D02*
X55509523Y-83763335D01*
X55509523Y-83763335D02*
X55699999Y-83763335D01*
X55699999Y-83763335D02*
X55776190Y-83725240D01*
X55776190Y-83725240D02*
X55814285Y-83687144D01*
X55814285Y-83687144D02*
X55852380Y-83610954D01*
X55852380Y-83610954D02*
X55852380Y-83534763D01*
X55852380Y-83534763D02*
X55814285Y-83458573D01*
X55814285Y-83458573D02*
X55776190Y-83420478D01*
X55776190Y-83420478D02*
X55699999Y-83382382D01*
X55699999Y-83382382D02*
X55547618Y-83344287D01*
X55547618Y-83344287D02*
X55471428Y-83306192D01*
X55471428Y-83306192D02*
X55433333Y-83268097D01*
X55433333Y-83268097D02*
X55395237Y-83191906D01*
X55395237Y-83191906D02*
X55395237Y-83115716D01*
X55395237Y-83115716D02*
X55433333Y-83039525D01*
X55433333Y-83039525D02*
X55471428Y-83001430D01*
X55471428Y-83001430D02*
X55547618Y-82963335D01*
X55547618Y-82963335D02*
X55738095Y-82963335D01*
X55738095Y-82963335D02*
X55852380Y-83001430D01*
X56461904Y-83344287D02*
X56576190Y-83382382D01*
X56576190Y-83382382D02*
X56614285Y-83420478D01*
X56614285Y-83420478D02*
X56652381Y-83496668D01*
X56652381Y-83496668D02*
X56652381Y-83610954D01*
X56652381Y-83610954D02*
X56614285Y-83687144D01*
X56614285Y-83687144D02*
X56576190Y-83725240D01*
X56576190Y-83725240D02*
X56500000Y-83763335D01*
X56500000Y-83763335D02*
X56195238Y-83763335D01*
X56195238Y-83763335D02*
X56195238Y-82963335D01*
X56195238Y-82963335D02*
X56461904Y-82963335D01*
X56461904Y-82963335D02*
X56538095Y-83001430D01*
X56538095Y-83001430D02*
X56576190Y-83039525D01*
X56576190Y-83039525D02*
X56614285Y-83115716D01*
X56614285Y-83115716D02*
X56614285Y-83191906D01*
X56614285Y-83191906D02*
X56576190Y-83268097D01*
X56576190Y-83268097D02*
X56538095Y-83306192D01*
X56538095Y-83306192D02*
X56461904Y-83344287D01*
X56461904Y-83344287D02*
X56195238Y-83344287D01*
X56995238Y-83458573D02*
X57604762Y-83458573D01*
X58442857Y-83687144D02*
X58404761Y-83725240D01*
X58404761Y-83725240D02*
X58290476Y-83763335D01*
X58290476Y-83763335D02*
X58214285Y-83763335D01*
X58214285Y-83763335D02*
X58099999Y-83725240D01*
X58099999Y-83725240D02*
X58023809Y-83649049D01*
X58023809Y-83649049D02*
X57985714Y-83572859D01*
X57985714Y-83572859D02*
X57947618Y-83420478D01*
X57947618Y-83420478D02*
X57947618Y-83306192D01*
X57947618Y-83306192D02*
X57985714Y-83153811D01*
X57985714Y-83153811D02*
X58023809Y-83077620D01*
X58023809Y-83077620D02*
X58099999Y-83001430D01*
X58099999Y-83001430D02*
X58214285Y-82963335D01*
X58214285Y-82963335D02*
X58290476Y-82963335D01*
X58290476Y-82963335D02*
X58404761Y-83001430D01*
X58404761Y-83001430D02*
X58442857Y-83039525D01*
X71342857Y-83763335D02*
X71342857Y-82963335D01*
X71342857Y-82963335D02*
X71647619Y-82963335D01*
X71647619Y-82963335D02*
X71723809Y-83001430D01*
X71723809Y-83001430D02*
X71761904Y-83039525D01*
X71761904Y-83039525D02*
X71800000Y-83115716D01*
X71800000Y-83115716D02*
X71800000Y-83230001D01*
X71800000Y-83230001D02*
X71761904Y-83306192D01*
X71761904Y-83306192D02*
X71723809Y-83344287D01*
X71723809Y-83344287D02*
X71647619Y-83382382D01*
X71647619Y-83382382D02*
X71342857Y-83382382D01*
X72295238Y-82963335D02*
X72447619Y-82963335D01*
X72447619Y-82963335D02*
X72523809Y-83001430D01*
X72523809Y-83001430D02*
X72600000Y-83077620D01*
X72600000Y-83077620D02*
X72638095Y-83230001D01*
X72638095Y-83230001D02*
X72638095Y-83496668D01*
X72638095Y-83496668D02*
X72600000Y-83649049D01*
X72600000Y-83649049D02*
X72523809Y-83725240D01*
X72523809Y-83725240D02*
X72447619Y-83763335D01*
X72447619Y-83763335D02*
X72295238Y-83763335D01*
X72295238Y-83763335D02*
X72219047Y-83725240D01*
X72219047Y-83725240D02*
X72142857Y-83649049D01*
X72142857Y-83649049D02*
X72104761Y-83496668D01*
X72104761Y-83496668D02*
X72104761Y-83230001D01*
X72104761Y-83230001D02*
X72142857Y-83077620D01*
X72142857Y-83077620D02*
X72219047Y-83001430D01*
X72219047Y-83001430D02*
X72295238Y-82963335D01*
X72904761Y-82963335D02*
X73095237Y-83763335D01*
X73095237Y-83763335D02*
X73247618Y-83191906D01*
X73247618Y-83191906D02*
X73399999Y-83763335D01*
X73399999Y-83763335D02*
X73590476Y-82963335D01*
X73895238Y-83344287D02*
X74161904Y-83344287D01*
X74276190Y-83763335D02*
X73895238Y-83763335D01*
X73895238Y-83763335D02*
X73895238Y-82963335D01*
X73895238Y-82963335D02*
X74276190Y-82963335D01*
X75076191Y-83763335D02*
X74809524Y-83382382D01*
X74619048Y-83763335D02*
X74619048Y-82963335D01*
X74619048Y-82963335D02*
X74923810Y-82963335D01*
X74923810Y-82963335D02*
X75000000Y-83001430D01*
X75000000Y-83001430D02*
X75038095Y-83039525D01*
X75038095Y-83039525D02*
X75076191Y-83115716D01*
X75076191Y-83115716D02*
X75076191Y-83230001D01*
X75076191Y-83230001D02*
X75038095Y-83306192D01*
X75038095Y-83306192D02*
X75000000Y-83344287D01*
X75000000Y-83344287D02*
X74923810Y-83382382D01*
X74923810Y-83382382D02*
X74619048Y-83382382D01*
X76180953Y-82963335D02*
X76333334Y-82963335D01*
X76333334Y-82963335D02*
X76409524Y-83001430D01*
X76409524Y-83001430D02*
X76485715Y-83077620D01*
X76485715Y-83077620D02*
X76523810Y-83230001D01*
X76523810Y-83230001D02*
X76523810Y-83496668D01*
X76523810Y-83496668D02*
X76485715Y-83649049D01*
X76485715Y-83649049D02*
X76409524Y-83725240D01*
X76409524Y-83725240D02*
X76333334Y-83763335D01*
X76333334Y-83763335D02*
X76180953Y-83763335D01*
X76180953Y-83763335D02*
X76104762Y-83725240D01*
X76104762Y-83725240D02*
X76028572Y-83649049D01*
X76028572Y-83649049D02*
X75990476Y-83496668D01*
X75990476Y-83496668D02*
X75990476Y-83230001D01*
X75990476Y-83230001D02*
X76028572Y-83077620D01*
X76028572Y-83077620D02*
X76104762Y-83001430D01*
X76104762Y-83001430D02*
X76180953Y-82963335D01*
X76866667Y-83763335D02*
X76866667Y-82963335D01*
X76866667Y-82963335D02*
X77323810Y-83763335D01*
X77323810Y-83763335D02*
X77323810Y-82963335D01*
X78085714Y-83763335D02*
X77704762Y-83763335D01*
X77704762Y-83763335D02*
X77704762Y-82963335D01*
X78504762Y-83382382D02*
X78504762Y-83763335D01*
X78238095Y-82963335D02*
X78504762Y-83382382D01*
X78504762Y-83382382D02*
X78771428Y-82963335D01*
D11*
X33461904Y-38660155D02*
X33914285Y-38660155D01*
X33371428Y-38931584D02*
X33688094Y-37981584D01*
X33688094Y-37981584D02*
X34004761Y-38931584D01*
X34321428Y-38931584D02*
X34321428Y-37981584D01*
X34321428Y-37981584D02*
X34864285Y-38931584D01*
X34864285Y-38931584D02*
X34864285Y-37981584D01*
X35180952Y-37981584D02*
X35723809Y-37981584D01*
X35452380Y-38931584D02*
X35452380Y-37981584D01*
X35995238Y-38072060D02*
X36040476Y-38026822D01*
X36040476Y-38026822D02*
X36130952Y-37981584D01*
X36130952Y-37981584D02*
X36357143Y-37981584D01*
X36357143Y-37981584D02*
X36447619Y-38026822D01*
X36447619Y-38026822D02*
X36492857Y-38072060D01*
X36492857Y-38072060D02*
X36538095Y-38162536D01*
X36538095Y-38162536D02*
X36538095Y-38253012D01*
X36538095Y-38253012D02*
X36492857Y-38388726D01*
X36492857Y-38388726D02*
X35950000Y-38931584D01*
X35950000Y-38931584D02*
X36538095Y-38931584D01*
X48461904Y-38660155D02*
X48914285Y-38660155D01*
X48371428Y-38931584D02*
X48688094Y-37981584D01*
X48688094Y-37981584D02*
X49004761Y-38931584D01*
X49321428Y-38931584D02*
X49321428Y-37981584D01*
X49321428Y-37981584D02*
X49864285Y-38931584D01*
X49864285Y-38931584D02*
X49864285Y-37981584D01*
X50180952Y-37981584D02*
X50723809Y-37981584D01*
X50452380Y-38931584D02*
X50452380Y-37981584D01*
X51538095Y-38931584D02*
X50995238Y-38931584D01*
X51266666Y-38931584D02*
X51266666Y-37981584D01*
X51266666Y-37981584D02*
X51176190Y-38117298D01*
X51176190Y-38117298D02*
X51085714Y-38207774D01*
X51085714Y-38207774D02*
X50995238Y-38253012D01*
X61720237Y-38931584D02*
X61720237Y-37981584D01*
X61720237Y-37981584D02*
X62082142Y-37981584D01*
X62082142Y-37981584D02*
X62172618Y-38026822D01*
X62172618Y-38026822D02*
X62217856Y-38072060D01*
X62217856Y-38072060D02*
X62263094Y-38162536D01*
X62263094Y-38162536D02*
X62263094Y-38298250D01*
X62263094Y-38298250D02*
X62217856Y-38388726D01*
X62217856Y-38388726D02*
X62172618Y-38433965D01*
X62172618Y-38433965D02*
X62082142Y-38479203D01*
X62082142Y-38479203D02*
X61720237Y-38479203D01*
X63122618Y-38931584D02*
X62670237Y-38931584D01*
X62670237Y-38931584D02*
X62670237Y-37981584D01*
X63439285Y-37981584D02*
X63439285Y-38750631D01*
X63439285Y-38750631D02*
X63484523Y-38841107D01*
X63484523Y-38841107D02*
X63529761Y-38886346D01*
X63529761Y-38886346D02*
X63620237Y-38931584D01*
X63620237Y-38931584D02*
X63801190Y-38931584D01*
X63801190Y-38931584D02*
X63891666Y-38886346D01*
X63891666Y-38886346D02*
X63936904Y-38841107D01*
X63936904Y-38841107D02*
X63982142Y-38750631D01*
X63982142Y-38750631D02*
X63982142Y-37981584D01*
X64298809Y-37981584D02*
X64841666Y-37981584D01*
X64570237Y-38931584D02*
X64570237Y-37981584D01*
X65339285Y-37981584D02*
X65520238Y-37981584D01*
X65520238Y-37981584D02*
X65610714Y-38026822D01*
X65610714Y-38026822D02*
X65701190Y-38117298D01*
X65701190Y-38117298D02*
X65746428Y-38298250D01*
X65746428Y-38298250D02*
X65746428Y-38614917D01*
X65746428Y-38614917D02*
X65701190Y-38795869D01*
X65701190Y-38795869D02*
X65610714Y-38886346D01*
X65610714Y-38886346D02*
X65520238Y-38931584D01*
X65520238Y-38931584D02*
X65339285Y-38931584D01*
X65339285Y-38931584D02*
X65248809Y-38886346D01*
X65248809Y-38886346D02*
X65158333Y-38795869D01*
X65158333Y-38795869D02*
X65113095Y-38614917D01*
X65113095Y-38614917D02*
X65113095Y-38298250D01*
X65113095Y-38298250D02*
X65158333Y-38117298D01*
X65158333Y-38117298D02*
X65248809Y-38026822D01*
X65248809Y-38026822D02*
X65339285Y-37981584D01*
X67420238Y-38931584D02*
X67103571Y-38479203D01*
X66877381Y-38931584D02*
X66877381Y-37981584D01*
X66877381Y-37981584D02*
X67239286Y-37981584D01*
X67239286Y-37981584D02*
X67329762Y-38026822D01*
X67329762Y-38026822D02*
X67375000Y-38072060D01*
X67375000Y-38072060D02*
X67420238Y-38162536D01*
X67420238Y-38162536D02*
X67420238Y-38298250D01*
X67420238Y-38298250D02*
X67375000Y-38388726D01*
X67375000Y-38388726D02*
X67329762Y-38433965D01*
X67329762Y-38433965D02*
X67239286Y-38479203D01*
X67239286Y-38479203D02*
X66877381Y-38479203D01*
X67736905Y-37981584D02*
X68370238Y-38931584D01*
X68370238Y-37981584D02*
X67736905Y-38931584D01*
X78461904Y-38660155D02*
X78914285Y-38660155D01*
X78371428Y-38931584D02*
X78688094Y-37981584D01*
X78688094Y-37981584D02*
X79004761Y-38931584D01*
X79321428Y-38931584D02*
X79321428Y-37981584D01*
X79321428Y-37981584D02*
X79864285Y-38931584D01*
X79864285Y-38931584D02*
X79864285Y-37981584D01*
X80180952Y-37981584D02*
X80723809Y-37981584D01*
X80452380Y-38931584D02*
X80452380Y-37981584D01*
X81176190Y-38388726D02*
X81085714Y-38343488D01*
X81085714Y-38343488D02*
X81040476Y-38298250D01*
X81040476Y-38298250D02*
X80995238Y-38207774D01*
X80995238Y-38207774D02*
X80995238Y-38162536D01*
X80995238Y-38162536D02*
X81040476Y-38072060D01*
X81040476Y-38072060D02*
X81085714Y-38026822D01*
X81085714Y-38026822D02*
X81176190Y-37981584D01*
X81176190Y-37981584D02*
X81357143Y-37981584D01*
X81357143Y-37981584D02*
X81447619Y-38026822D01*
X81447619Y-38026822D02*
X81492857Y-38072060D01*
X81492857Y-38072060D02*
X81538095Y-38162536D01*
X81538095Y-38162536D02*
X81538095Y-38207774D01*
X81538095Y-38207774D02*
X81492857Y-38298250D01*
X81492857Y-38298250D02*
X81447619Y-38343488D01*
X81447619Y-38343488D02*
X81357143Y-38388726D01*
X81357143Y-38388726D02*
X81176190Y-38388726D01*
X81176190Y-38388726D02*
X81085714Y-38433965D01*
X81085714Y-38433965D02*
X81040476Y-38479203D01*
X81040476Y-38479203D02*
X80995238Y-38569679D01*
X80995238Y-38569679D02*
X80995238Y-38750631D01*
X80995238Y-38750631D02*
X81040476Y-38841107D01*
X81040476Y-38841107D02*
X81085714Y-38886346D01*
X81085714Y-38886346D02*
X81176190Y-38931584D01*
X81176190Y-38931584D02*
X81357143Y-38931584D01*
X81357143Y-38931584D02*
X81447619Y-38886346D01*
X81447619Y-38886346D02*
X81492857Y-38841107D01*
X81492857Y-38841107D02*
X81538095Y-38750631D01*
X81538095Y-38750631D02*
X81538095Y-38569679D01*
X81538095Y-38569679D02*
X81492857Y-38479203D01*
X81492857Y-38479203D02*
X81447619Y-38433965D01*
X81447619Y-38433965D02*
X81357143Y-38388726D01*
X93461904Y-38660155D02*
X93914285Y-38660155D01*
X93371428Y-38931584D02*
X93688094Y-37981584D01*
X93688094Y-37981584D02*
X94004761Y-38931584D01*
X94321428Y-38931584D02*
X94321428Y-37981584D01*
X94321428Y-37981584D02*
X94864285Y-38931584D01*
X94864285Y-38931584D02*
X94864285Y-37981584D01*
X95180952Y-37981584D02*
X95723809Y-37981584D01*
X95452380Y-38931584D02*
X95452380Y-37981584D01*
X95950000Y-37981584D02*
X96583333Y-37981584D01*
X96583333Y-37981584D02*
X96176190Y-38931584D01*
X38660155Y-49538095D02*
X38660155Y-49085714D01*
X38931584Y-49628571D02*
X37981584Y-49311905D01*
X37981584Y-49311905D02*
X38931584Y-48995238D01*
X38931584Y-48678571D02*
X37981584Y-48678571D01*
X37981584Y-48678571D02*
X38931584Y-48135714D01*
X38931584Y-48135714D02*
X37981584Y-48135714D01*
X37981584Y-47819047D02*
X37981584Y-47276190D01*
X38931584Y-47547619D02*
X37981584Y-47547619D01*
X37981584Y-47049999D02*
X37981584Y-46461904D01*
X37981584Y-46461904D02*
X38343488Y-46778571D01*
X38343488Y-46778571D02*
X38343488Y-46642856D01*
X38343488Y-46642856D02*
X38388726Y-46552380D01*
X38388726Y-46552380D02*
X38433965Y-46507142D01*
X38433965Y-46507142D02*
X38524441Y-46461904D01*
X38524441Y-46461904D02*
X38750631Y-46461904D01*
X38750631Y-46461904D02*
X38841107Y-46507142D01*
X38841107Y-46507142D02*
X38886346Y-46552380D01*
X38886346Y-46552380D02*
X38931584Y-46642856D01*
X38931584Y-46642856D02*
X38931584Y-46914285D01*
X38931584Y-46914285D02*
X38886346Y-47004761D01*
X38886346Y-47004761D02*
X38841107Y-47049999D01*
X38660155Y-67538095D02*
X38660155Y-67085714D01*
X38931584Y-67628571D02*
X37981584Y-67311905D01*
X37981584Y-67311905D02*
X38931584Y-66995238D01*
X38931584Y-66678571D02*
X37981584Y-66678571D01*
X37981584Y-66678571D02*
X38931584Y-66135714D01*
X38931584Y-66135714D02*
X37981584Y-66135714D01*
X37981584Y-65819047D02*
X37981584Y-65276190D01*
X38931584Y-65547619D02*
X37981584Y-65547619D01*
X38298250Y-64552380D02*
X38931584Y-64552380D01*
X37936346Y-64778571D02*
X38614917Y-65004761D01*
X38614917Y-65004761D02*
X38614917Y-64416666D01*
X91660155Y-49538095D02*
X91660155Y-49085714D01*
X91931584Y-49628571D02*
X90981584Y-49311905D01*
X90981584Y-49311905D02*
X91931584Y-48995238D01*
X91931584Y-48678571D02*
X90981584Y-48678571D01*
X90981584Y-48678571D02*
X91931584Y-48135714D01*
X91931584Y-48135714D02*
X90981584Y-48135714D01*
X90981584Y-47819047D02*
X90981584Y-47276190D01*
X91931584Y-47547619D02*
X90981584Y-47547619D01*
X90981584Y-46552380D02*
X90981584Y-46733333D01*
X90981584Y-46733333D02*
X91026822Y-46823809D01*
X91026822Y-46823809D02*
X91072060Y-46869047D01*
X91072060Y-46869047D02*
X91207774Y-46959523D01*
X91207774Y-46959523D02*
X91388726Y-47004761D01*
X91388726Y-47004761D02*
X91750631Y-47004761D01*
X91750631Y-47004761D02*
X91841107Y-46959523D01*
X91841107Y-46959523D02*
X91886346Y-46914285D01*
X91886346Y-46914285D02*
X91931584Y-46823809D01*
X91931584Y-46823809D02*
X91931584Y-46642856D01*
X91931584Y-46642856D02*
X91886346Y-46552380D01*
X91886346Y-46552380D02*
X91841107Y-46507142D01*
X91841107Y-46507142D02*
X91750631Y-46461904D01*
X91750631Y-46461904D02*
X91524441Y-46461904D01*
X91524441Y-46461904D02*
X91433965Y-46507142D01*
X91433965Y-46507142D02*
X91388726Y-46552380D01*
X91388726Y-46552380D02*
X91343488Y-46642856D01*
X91343488Y-46642856D02*
X91343488Y-46823809D01*
X91343488Y-46823809D02*
X91388726Y-46914285D01*
X91388726Y-46914285D02*
X91433965Y-46959523D01*
X91433965Y-46959523D02*
X91524441Y-47004761D01*
X91660155Y-67538095D02*
X91660155Y-67085714D01*
X91931584Y-67628571D02*
X90981584Y-67311905D01*
X90981584Y-67311905D02*
X91931584Y-66995238D01*
X91931584Y-66678571D02*
X90981584Y-66678571D01*
X90981584Y-66678571D02*
X91931584Y-66135714D01*
X91931584Y-66135714D02*
X90981584Y-66135714D01*
X90981584Y-65819047D02*
X90981584Y-65276190D01*
X91931584Y-65547619D02*
X90981584Y-65547619D01*
X90981584Y-64507142D02*
X90981584Y-64959523D01*
X90981584Y-64959523D02*
X91433965Y-65004761D01*
X91433965Y-65004761D02*
X91388726Y-64959523D01*
X91388726Y-64959523D02*
X91343488Y-64869047D01*
X91343488Y-64869047D02*
X91343488Y-64642856D01*
X91343488Y-64642856D02*
X91388726Y-64552380D01*
X91388726Y-64552380D02*
X91433965Y-64507142D01*
X91433965Y-64507142D02*
X91524441Y-64461904D01*
X91524441Y-64461904D02*
X91750631Y-64461904D01*
X91750631Y-64461904D02*
X91841107Y-64507142D01*
X91841107Y-64507142D02*
X91886346Y-64552380D01*
X91886346Y-64552380D02*
X91931584Y-64642856D01*
X91931584Y-64642856D02*
X91931584Y-64869047D01*
X91931584Y-64869047D02*
X91886346Y-64959523D01*
X91886346Y-64959523D02*
X91841107Y-65004761D01*
D12*
X98199999Y-60471331D02*
X98199999Y-60899902D01*
X98199999Y-60899902D02*
X98171428Y-60985617D01*
X98171428Y-60985617D02*
X98114285Y-61042760D01*
X98114285Y-61042760D02*
X98028571Y-61071331D01*
X98028571Y-61071331D02*
X97971428Y-61071331D01*
X98428571Y-60471331D02*
X98828571Y-60471331D01*
X98828571Y-60471331D02*
X98571428Y-61071331D01*
X85300000Y-70974188D02*
X85271428Y-71002760D01*
X85271428Y-71002760D02*
X85185714Y-71031331D01*
X85185714Y-71031331D02*
X85128571Y-71031331D01*
X85128571Y-71031331D02*
X85042857Y-71002760D01*
X85042857Y-71002760D02*
X84985714Y-70945617D01*
X84985714Y-70945617D02*
X84957143Y-70888474D01*
X84957143Y-70888474D02*
X84928571Y-70774188D01*
X84928571Y-70774188D02*
X84928571Y-70688474D01*
X84928571Y-70688474D02*
X84957143Y-70574188D01*
X84957143Y-70574188D02*
X84985714Y-70517045D01*
X84985714Y-70517045D02*
X85042857Y-70459902D01*
X85042857Y-70459902D02*
X85128571Y-70431331D01*
X85128571Y-70431331D02*
X85185714Y-70431331D01*
X85185714Y-70431331D02*
X85271428Y-70459902D01*
X85271428Y-70459902D02*
X85300000Y-70488474D01*
X85528571Y-70488474D02*
X85557143Y-70459902D01*
X85557143Y-70459902D02*
X85614286Y-70431331D01*
X85614286Y-70431331D02*
X85757143Y-70431331D01*
X85757143Y-70431331D02*
X85814286Y-70459902D01*
X85814286Y-70459902D02*
X85842857Y-70488474D01*
X85842857Y-70488474D02*
X85871428Y-70545617D01*
X85871428Y-70545617D02*
X85871428Y-70602760D01*
X85871428Y-70602760D02*
X85842857Y-70688474D01*
X85842857Y-70688474D02*
X85500000Y-71031331D01*
X85500000Y-71031331D02*
X85871428Y-71031331D01*
X49799999Y-36471331D02*
X49799999Y-36899902D01*
X49799999Y-36899902D02*
X49771428Y-36985617D01*
X49771428Y-36985617D02*
X49714285Y-37042760D01*
X49714285Y-37042760D02*
X49628571Y-37071331D01*
X49628571Y-37071331D02*
X49571428Y-37071331D01*
X50028571Y-36471331D02*
X50399999Y-36471331D01*
X50399999Y-36471331D02*
X50199999Y-36699902D01*
X50199999Y-36699902D02*
X50285714Y-36699902D01*
X50285714Y-36699902D02*
X50342857Y-36728474D01*
X50342857Y-36728474D02*
X50371428Y-36757045D01*
X50371428Y-36757045D02*
X50399999Y-36814188D01*
X50399999Y-36814188D02*
X50399999Y-36957045D01*
X50399999Y-36957045D02*
X50371428Y-37014188D01*
X50371428Y-37014188D02*
X50342857Y-37042760D01*
X50342857Y-37042760D02*
X50285714Y-37071331D01*
X50285714Y-37071331D02*
X50114285Y-37071331D01*
X50114285Y-37071331D02*
X50057142Y-37042760D01*
X50057142Y-37042760D02*
X50028571Y-37014188D01*
X34799999Y-36471331D02*
X34799999Y-36899902D01*
X34799999Y-36899902D02*
X34771428Y-36985617D01*
X34771428Y-36985617D02*
X34714285Y-37042760D01*
X34714285Y-37042760D02*
X34628571Y-37071331D01*
X34628571Y-37071331D02*
X34571428Y-37071331D01*
X35342857Y-36671331D02*
X35342857Y-37071331D01*
X35199999Y-36442760D02*
X35057142Y-36871331D01*
X35057142Y-36871331D02*
X35428571Y-36871331D01*
X60400000Y-55171331D02*
X60200000Y-54885617D01*
X60057143Y-55171331D02*
X60057143Y-54571331D01*
X60057143Y-54571331D02*
X60285714Y-54571331D01*
X60285714Y-54571331D02*
X60342857Y-54599902D01*
X60342857Y-54599902D02*
X60371428Y-54628474D01*
X60371428Y-54628474D02*
X60400000Y-54685617D01*
X60400000Y-54685617D02*
X60400000Y-54771331D01*
X60400000Y-54771331D02*
X60371428Y-54828474D01*
X60371428Y-54828474D02*
X60342857Y-54857045D01*
X60342857Y-54857045D02*
X60285714Y-54885617D01*
X60285714Y-54885617D02*
X60057143Y-54885617D01*
X60914286Y-54771331D02*
X60914286Y-55171331D01*
X60771428Y-54542760D02*
X60628571Y-54971331D01*
X60628571Y-54971331D02*
X61000000Y-54971331D01*
X31399999Y-60471331D02*
X31399999Y-60899902D01*
X31399999Y-60899902D02*
X31371428Y-60985617D01*
X31371428Y-60985617D02*
X31314285Y-61042760D01*
X31314285Y-61042760D02*
X31228571Y-61071331D01*
X31228571Y-61071331D02*
X31171428Y-61071331D01*
X31942857Y-60471331D02*
X31828571Y-60471331D01*
X31828571Y-60471331D02*
X31771428Y-60499902D01*
X31771428Y-60499902D02*
X31742857Y-60528474D01*
X31742857Y-60528474D02*
X31685714Y-60614188D01*
X31685714Y-60614188D02*
X31657142Y-60728474D01*
X31657142Y-60728474D02*
X31657142Y-60957045D01*
X31657142Y-60957045D02*
X31685714Y-61014188D01*
X31685714Y-61014188D02*
X31714285Y-61042760D01*
X31714285Y-61042760D02*
X31771428Y-61071331D01*
X31771428Y-61071331D02*
X31885714Y-61071331D01*
X31885714Y-61071331D02*
X31942857Y-61042760D01*
X31942857Y-61042760D02*
X31971428Y-61014188D01*
X31971428Y-61014188D02*
X31999999Y-60957045D01*
X31999999Y-60957045D02*
X31999999Y-60814188D01*
X31999999Y-60814188D02*
X31971428Y-60757045D01*
X31971428Y-60757045D02*
X31942857Y-60728474D01*
X31942857Y-60728474D02*
X31885714Y-60699902D01*
X31885714Y-60699902D02*
X31771428Y-60699902D01*
X31771428Y-60699902D02*
X31714285Y-60728474D01*
X31714285Y-60728474D02*
X31685714Y-60757045D01*
X31685714Y-60757045D02*
X31657142Y-60814188D01*
X98199999Y-42471331D02*
X98199999Y-42899902D01*
X98199999Y-42899902D02*
X98171428Y-42985617D01*
X98171428Y-42985617D02*
X98114285Y-43042760D01*
X98114285Y-43042760D02*
X98028571Y-43071331D01*
X98028571Y-43071331D02*
X97971428Y-43071331D01*
X98571428Y-42728474D02*
X98514285Y-42699902D01*
X98514285Y-42699902D02*
X98485714Y-42671331D01*
X98485714Y-42671331D02*
X98457142Y-42614188D01*
X98457142Y-42614188D02*
X98457142Y-42585617D01*
X98457142Y-42585617D02*
X98485714Y-42528474D01*
X98485714Y-42528474D02*
X98514285Y-42499902D01*
X98514285Y-42499902D02*
X98571428Y-42471331D01*
X98571428Y-42471331D02*
X98685714Y-42471331D01*
X98685714Y-42471331D02*
X98742857Y-42499902D01*
X98742857Y-42499902D02*
X98771428Y-42528474D01*
X98771428Y-42528474D02*
X98799999Y-42585617D01*
X98799999Y-42585617D02*
X98799999Y-42614188D01*
X98799999Y-42614188D02*
X98771428Y-42671331D01*
X98771428Y-42671331D02*
X98742857Y-42699902D01*
X98742857Y-42699902D02*
X98685714Y-42728474D01*
X98685714Y-42728474D02*
X98571428Y-42728474D01*
X98571428Y-42728474D02*
X98514285Y-42757045D01*
X98514285Y-42757045D02*
X98485714Y-42785617D01*
X98485714Y-42785617D02*
X98457142Y-42842760D01*
X98457142Y-42842760D02*
X98457142Y-42957045D01*
X98457142Y-42957045D02*
X98485714Y-43014188D01*
X98485714Y-43014188D02*
X98514285Y-43042760D01*
X98514285Y-43042760D02*
X98571428Y-43071331D01*
X98571428Y-43071331D02*
X98685714Y-43071331D01*
X98685714Y-43071331D02*
X98742857Y-43042760D01*
X98742857Y-43042760D02*
X98771428Y-43014188D01*
X98771428Y-43014188D02*
X98799999Y-42957045D01*
X98799999Y-42957045D02*
X98799999Y-42842760D01*
X98799999Y-42842760D02*
X98771428Y-42785617D01*
X98771428Y-42785617D02*
X98742857Y-42757045D01*
X98742857Y-42757045D02*
X98685714Y-42728474D01*
X58599999Y-80996331D02*
X58599999Y-81424902D01*
X58599999Y-81424902D02*
X58571428Y-81510617D01*
X58571428Y-81510617D02*
X58514285Y-81567760D01*
X58514285Y-81567760D02*
X58428571Y-81596331D01*
X58428571Y-81596331D02*
X58371428Y-81596331D01*
X59199999Y-81596331D02*
X58857142Y-81596331D01*
X59028571Y-81596331D02*
X59028571Y-80996331D01*
X59028571Y-80996331D02*
X58971428Y-81082045D01*
X58971428Y-81082045D02*
X58914285Y-81139188D01*
X58914285Y-81139188D02*
X58857142Y-81167760D01*
X88542857Y-70271331D02*
X88542857Y-70757045D01*
X88542857Y-70757045D02*
X88571428Y-70814188D01*
X88571428Y-70814188D02*
X88600000Y-70842760D01*
X88600000Y-70842760D02*
X88657142Y-70871331D01*
X88657142Y-70871331D02*
X88771428Y-70871331D01*
X88771428Y-70871331D02*
X88828571Y-70842760D01*
X88828571Y-70842760D02*
X88857142Y-70814188D01*
X88857142Y-70814188D02*
X88885714Y-70757045D01*
X88885714Y-70757045D02*
X88885714Y-70271331D01*
X89114285Y-70271331D02*
X89485713Y-70271331D01*
X89485713Y-70271331D02*
X89285713Y-70499902D01*
X89285713Y-70499902D02*
X89371428Y-70499902D01*
X89371428Y-70499902D02*
X89428571Y-70528474D01*
X89428571Y-70528474D02*
X89457142Y-70557045D01*
X89457142Y-70557045D02*
X89485713Y-70614188D01*
X89485713Y-70614188D02*
X89485713Y-70757045D01*
X89485713Y-70757045D02*
X89457142Y-70814188D01*
X89457142Y-70814188D02*
X89428571Y-70842760D01*
X89428571Y-70842760D02*
X89371428Y-70871331D01*
X89371428Y-70871331D02*
X89199999Y-70871331D01*
X89199999Y-70871331D02*
X89142856Y-70842760D01*
X89142856Y-70842760D02*
X89114285Y-70814188D01*
X85300000Y-76454188D02*
X85271428Y-76482760D01*
X85271428Y-76482760D02*
X85185714Y-76511331D01*
X85185714Y-76511331D02*
X85128571Y-76511331D01*
X85128571Y-76511331D02*
X85042857Y-76482760D01*
X85042857Y-76482760D02*
X84985714Y-76425617D01*
X84985714Y-76425617D02*
X84957143Y-76368474D01*
X84957143Y-76368474D02*
X84928571Y-76254188D01*
X84928571Y-76254188D02*
X84928571Y-76168474D01*
X84928571Y-76168474D02*
X84957143Y-76054188D01*
X84957143Y-76054188D02*
X84985714Y-75997045D01*
X84985714Y-75997045D02*
X85042857Y-75939902D01*
X85042857Y-75939902D02*
X85128571Y-75911331D01*
X85128571Y-75911331D02*
X85185714Y-75911331D01*
X85185714Y-75911331D02*
X85271428Y-75939902D01*
X85271428Y-75939902D02*
X85300000Y-75968474D01*
X85871428Y-76511331D02*
X85528571Y-76511331D01*
X85700000Y-76511331D02*
X85700000Y-75911331D01*
X85700000Y-75911331D02*
X85642857Y-75997045D01*
X85642857Y-75997045D02*
X85585714Y-76054188D01*
X85585714Y-76054188D02*
X85528571Y-76082760D01*
X64542857Y-72771331D02*
X64542857Y-73257045D01*
X64542857Y-73257045D02*
X64571428Y-73314188D01*
X64571428Y-73314188D02*
X64600000Y-73342760D01*
X64600000Y-73342760D02*
X64657142Y-73371331D01*
X64657142Y-73371331D02*
X64771428Y-73371331D01*
X64771428Y-73371331D02*
X64828571Y-73342760D01*
X64828571Y-73342760D02*
X64857142Y-73314188D01*
X64857142Y-73314188D02*
X64885714Y-73257045D01*
X64885714Y-73257045D02*
X64885714Y-72771331D01*
X65428571Y-72971331D02*
X65428571Y-73371331D01*
X65285713Y-72742760D02*
X65142856Y-73171331D01*
X65142856Y-73171331D02*
X65514285Y-73171331D01*
X94799999Y-36471331D02*
X94799999Y-36899902D01*
X94799999Y-36899902D02*
X94771428Y-36985617D01*
X94771428Y-36985617D02*
X94714285Y-37042760D01*
X94714285Y-37042760D02*
X94628571Y-37071331D01*
X94628571Y-37071331D02*
X94571428Y-37071331D01*
X95114285Y-37071331D02*
X95228571Y-37071331D01*
X95228571Y-37071331D02*
X95285714Y-37042760D01*
X95285714Y-37042760D02*
X95314285Y-37014188D01*
X95314285Y-37014188D02*
X95371428Y-36928474D01*
X95371428Y-36928474D02*
X95399999Y-36814188D01*
X95399999Y-36814188D02*
X95399999Y-36585617D01*
X95399999Y-36585617D02*
X95371428Y-36528474D01*
X95371428Y-36528474D02*
X95342857Y-36499902D01*
X95342857Y-36499902D02*
X95285714Y-36471331D01*
X95285714Y-36471331D02*
X95171428Y-36471331D01*
X95171428Y-36471331D02*
X95114285Y-36499902D01*
X95114285Y-36499902D02*
X95085714Y-36528474D01*
X95085714Y-36528474D02*
X95057142Y-36585617D01*
X95057142Y-36585617D02*
X95057142Y-36728474D01*
X95057142Y-36728474D02*
X95085714Y-36785617D01*
X95085714Y-36785617D02*
X95114285Y-36814188D01*
X95114285Y-36814188D02*
X95171428Y-36842760D01*
X95171428Y-36842760D02*
X95285714Y-36842760D01*
X95285714Y-36842760D02*
X95342857Y-36814188D01*
X95342857Y-36814188D02*
X95371428Y-36785617D01*
X95371428Y-36785617D02*
X95399999Y-36728474D01*
X67400000Y-58414187D02*
X67371428Y-58442759D01*
X67371428Y-58442759D02*
X67285714Y-58471330D01*
X67285714Y-58471330D02*
X67228571Y-58471330D01*
X67228571Y-58471330D02*
X67142857Y-58442759D01*
X67142857Y-58442759D02*
X67085714Y-58385616D01*
X67085714Y-58385616D02*
X67057143Y-58328473D01*
X67057143Y-58328473D02*
X67028571Y-58214187D01*
X67028571Y-58214187D02*
X67028571Y-58128473D01*
X67028571Y-58128473D02*
X67057143Y-58014187D01*
X67057143Y-58014187D02*
X67085714Y-57957044D01*
X67085714Y-57957044D02*
X67142857Y-57899901D01*
X67142857Y-57899901D02*
X67228571Y-57871330D01*
X67228571Y-57871330D02*
X67285714Y-57871330D01*
X67285714Y-57871330D02*
X67371428Y-57899901D01*
X67371428Y-57899901D02*
X67400000Y-57928473D01*
X67942857Y-57871330D02*
X67657143Y-57871330D01*
X67657143Y-57871330D02*
X67628571Y-58157044D01*
X67628571Y-58157044D02*
X67657143Y-58128473D01*
X67657143Y-58128473D02*
X67714286Y-58099901D01*
X67714286Y-58099901D02*
X67857143Y-58099901D01*
X67857143Y-58099901D02*
X67914286Y-58128473D01*
X67914286Y-58128473D02*
X67942857Y-58157044D01*
X67942857Y-58157044D02*
X67971428Y-58214187D01*
X67971428Y-58214187D02*
X67971428Y-58357044D01*
X67971428Y-58357044D02*
X67942857Y-58414187D01*
X67942857Y-58414187D02*
X67914286Y-58442759D01*
X67914286Y-58442759D02*
X67857143Y-58471330D01*
X67857143Y-58471330D02*
X67714286Y-58471330D01*
X67714286Y-58471330D02*
X67657143Y-58442759D01*
X67657143Y-58442759D02*
X67628571Y-58414187D01*
X62900000Y-55671331D02*
X62700000Y-55385617D01*
X62557143Y-55671331D02*
X62557143Y-55071331D01*
X62557143Y-55071331D02*
X62785714Y-55071331D01*
X62785714Y-55071331D02*
X62842857Y-55099902D01*
X62842857Y-55099902D02*
X62871428Y-55128474D01*
X62871428Y-55128474D02*
X62900000Y-55185617D01*
X62900000Y-55185617D02*
X62900000Y-55271331D01*
X62900000Y-55271331D02*
X62871428Y-55328474D01*
X62871428Y-55328474D02*
X62842857Y-55357045D01*
X62842857Y-55357045D02*
X62785714Y-55385617D01*
X62785714Y-55385617D02*
X62557143Y-55385617D01*
X63442857Y-55071331D02*
X63157143Y-55071331D01*
X63157143Y-55071331D02*
X63128571Y-55357045D01*
X63128571Y-55357045D02*
X63157143Y-55328474D01*
X63157143Y-55328474D02*
X63214286Y-55299902D01*
X63214286Y-55299902D02*
X63357143Y-55299902D01*
X63357143Y-55299902D02*
X63414286Y-55328474D01*
X63414286Y-55328474D02*
X63442857Y-55357045D01*
X63442857Y-55357045D02*
X63471428Y-55414188D01*
X63471428Y-55414188D02*
X63471428Y-55557045D01*
X63471428Y-55557045D02*
X63442857Y-55614188D01*
X63442857Y-55614188D02*
X63414286Y-55642760D01*
X63414286Y-55642760D02*
X63357143Y-55671331D01*
X63357143Y-55671331D02*
X63214286Y-55671331D01*
X63214286Y-55671331D02*
X63157143Y-55642760D01*
X63157143Y-55642760D02*
X63128571Y-55614188D01*
X61400000Y-58414187D02*
X61371428Y-58442759D01*
X61371428Y-58442759D02*
X61285714Y-58471330D01*
X61285714Y-58471330D02*
X61228571Y-58471330D01*
X61228571Y-58471330D02*
X61142857Y-58442759D01*
X61142857Y-58442759D02*
X61085714Y-58385616D01*
X61085714Y-58385616D02*
X61057143Y-58328473D01*
X61057143Y-58328473D02*
X61028571Y-58214187D01*
X61028571Y-58214187D02*
X61028571Y-58128473D01*
X61028571Y-58128473D02*
X61057143Y-58014187D01*
X61057143Y-58014187D02*
X61085714Y-57957044D01*
X61085714Y-57957044D02*
X61142857Y-57899901D01*
X61142857Y-57899901D02*
X61228571Y-57871330D01*
X61228571Y-57871330D02*
X61285714Y-57871330D01*
X61285714Y-57871330D02*
X61371428Y-57899901D01*
X61371428Y-57899901D02*
X61400000Y-57928473D01*
X61914286Y-57871330D02*
X61800000Y-57871330D01*
X61800000Y-57871330D02*
X61742857Y-57899901D01*
X61742857Y-57899901D02*
X61714286Y-57928473D01*
X61714286Y-57928473D02*
X61657143Y-58014187D01*
X61657143Y-58014187D02*
X61628571Y-58128473D01*
X61628571Y-58128473D02*
X61628571Y-58357044D01*
X61628571Y-58357044D02*
X61657143Y-58414187D01*
X61657143Y-58414187D02*
X61685714Y-58442759D01*
X61685714Y-58442759D02*
X61742857Y-58471330D01*
X61742857Y-58471330D02*
X61857143Y-58471330D01*
X61857143Y-58471330D02*
X61914286Y-58442759D01*
X61914286Y-58442759D02*
X61942857Y-58414187D01*
X61942857Y-58414187D02*
X61971428Y-58357044D01*
X61971428Y-58357044D02*
X61971428Y-58214187D01*
X61971428Y-58214187D02*
X61942857Y-58157044D01*
X61942857Y-58157044D02*
X61914286Y-58128473D01*
X61914286Y-58128473D02*
X61857143Y-58099901D01*
X61857143Y-58099901D02*
X61742857Y-58099901D01*
X61742857Y-58099901D02*
X61685714Y-58128473D01*
X61685714Y-58128473D02*
X61657143Y-58157044D01*
X61657143Y-58157044D02*
X61628571Y-58214187D01*
X70400000Y-58614188D02*
X70371428Y-58642760D01*
X70371428Y-58642760D02*
X70285714Y-58671331D01*
X70285714Y-58671331D02*
X70228571Y-58671331D01*
X70228571Y-58671331D02*
X70142857Y-58642760D01*
X70142857Y-58642760D02*
X70085714Y-58585617D01*
X70085714Y-58585617D02*
X70057143Y-58528474D01*
X70057143Y-58528474D02*
X70028571Y-58414188D01*
X70028571Y-58414188D02*
X70028571Y-58328474D01*
X70028571Y-58328474D02*
X70057143Y-58214188D01*
X70057143Y-58214188D02*
X70085714Y-58157045D01*
X70085714Y-58157045D02*
X70142857Y-58099902D01*
X70142857Y-58099902D02*
X70228571Y-58071331D01*
X70228571Y-58071331D02*
X70285714Y-58071331D01*
X70285714Y-58071331D02*
X70371428Y-58099902D01*
X70371428Y-58099902D02*
X70400000Y-58128474D01*
X70600000Y-58071331D02*
X70971428Y-58071331D01*
X70971428Y-58071331D02*
X70771428Y-58299902D01*
X70771428Y-58299902D02*
X70857143Y-58299902D01*
X70857143Y-58299902D02*
X70914286Y-58328474D01*
X70914286Y-58328474D02*
X70942857Y-58357045D01*
X70942857Y-58357045D02*
X70971428Y-58414188D01*
X70971428Y-58414188D02*
X70971428Y-58557045D01*
X70971428Y-58557045D02*
X70942857Y-58614188D01*
X70942857Y-58614188D02*
X70914286Y-58642760D01*
X70914286Y-58642760D02*
X70857143Y-58671331D01*
X70857143Y-58671331D02*
X70685714Y-58671331D01*
X70685714Y-58671331D02*
X70628571Y-58642760D01*
X70628571Y-58642760D02*
X70600000Y-58614188D01*
X67900000Y-55171331D02*
X67700000Y-54885617D01*
X67557143Y-55171331D02*
X67557143Y-54571331D01*
X67557143Y-54571331D02*
X67785714Y-54571331D01*
X67785714Y-54571331D02*
X67842857Y-54599902D01*
X67842857Y-54599902D02*
X67871428Y-54628474D01*
X67871428Y-54628474D02*
X67900000Y-54685617D01*
X67900000Y-54685617D02*
X67900000Y-54771331D01*
X67900000Y-54771331D02*
X67871428Y-54828474D01*
X67871428Y-54828474D02*
X67842857Y-54857045D01*
X67842857Y-54857045D02*
X67785714Y-54885617D01*
X67785714Y-54885617D02*
X67557143Y-54885617D01*
X68100000Y-54571331D02*
X68471428Y-54571331D01*
X68471428Y-54571331D02*
X68271428Y-54799902D01*
X68271428Y-54799902D02*
X68357143Y-54799902D01*
X68357143Y-54799902D02*
X68414286Y-54828474D01*
X68414286Y-54828474D02*
X68442857Y-54857045D01*
X68442857Y-54857045D02*
X68471428Y-54914188D01*
X68471428Y-54914188D02*
X68471428Y-55057045D01*
X68471428Y-55057045D02*
X68442857Y-55114188D01*
X68442857Y-55114188D02*
X68414286Y-55142760D01*
X68414286Y-55142760D02*
X68357143Y-55171331D01*
X68357143Y-55171331D02*
X68185714Y-55171331D01*
X68185714Y-55171331D02*
X68128571Y-55142760D01*
X68128571Y-55142760D02*
X68100000Y-55114188D01*
X60900000Y-72371331D02*
X60700000Y-72085617D01*
X60557143Y-72371331D02*
X60557143Y-71771331D01*
X60557143Y-71771331D02*
X60785714Y-71771331D01*
X60785714Y-71771331D02*
X60842857Y-71799902D01*
X60842857Y-71799902D02*
X60871428Y-71828474D01*
X60871428Y-71828474D02*
X60900000Y-71885617D01*
X60900000Y-71885617D02*
X60900000Y-71971331D01*
X60900000Y-71971331D02*
X60871428Y-72028474D01*
X60871428Y-72028474D02*
X60842857Y-72057045D01*
X60842857Y-72057045D02*
X60785714Y-72085617D01*
X60785714Y-72085617D02*
X60557143Y-72085617D01*
X61471428Y-72371331D02*
X61128571Y-72371331D01*
X61300000Y-72371331D02*
X61300000Y-71771331D01*
X61300000Y-71771331D02*
X61242857Y-71857045D01*
X61242857Y-71857045D02*
X61185714Y-71914188D01*
X61185714Y-71914188D02*
X61128571Y-71942760D01*
X65400000Y-55671331D02*
X65200000Y-55385617D01*
X65057143Y-55671331D02*
X65057143Y-55071331D01*
X65057143Y-55071331D02*
X65285714Y-55071331D01*
X65285714Y-55071331D02*
X65342857Y-55099902D01*
X65342857Y-55099902D02*
X65371428Y-55128474D01*
X65371428Y-55128474D02*
X65400000Y-55185617D01*
X65400000Y-55185617D02*
X65400000Y-55271331D01*
X65400000Y-55271331D02*
X65371428Y-55328474D01*
X65371428Y-55328474D02*
X65342857Y-55357045D01*
X65342857Y-55357045D02*
X65285714Y-55385617D01*
X65285714Y-55385617D02*
X65057143Y-55385617D01*
X65914286Y-55071331D02*
X65800000Y-55071331D01*
X65800000Y-55071331D02*
X65742857Y-55099902D01*
X65742857Y-55099902D02*
X65714286Y-55128474D01*
X65714286Y-55128474D02*
X65657143Y-55214188D01*
X65657143Y-55214188D02*
X65628571Y-55328474D01*
X65628571Y-55328474D02*
X65628571Y-55557045D01*
X65628571Y-55557045D02*
X65657143Y-55614188D01*
X65657143Y-55614188D02*
X65685714Y-55642760D01*
X65685714Y-55642760D02*
X65742857Y-55671331D01*
X65742857Y-55671331D02*
X65857143Y-55671331D01*
X65857143Y-55671331D02*
X65914286Y-55642760D01*
X65914286Y-55642760D02*
X65942857Y-55614188D01*
X65942857Y-55614188D02*
X65971428Y-55557045D01*
X65971428Y-55557045D02*
X65971428Y-55414188D01*
X65971428Y-55414188D02*
X65942857Y-55357045D01*
X65942857Y-55357045D02*
X65914286Y-55328474D01*
X65914286Y-55328474D02*
X65857143Y-55299902D01*
X65857143Y-55299902D02*
X65742857Y-55299902D01*
X65742857Y-55299902D02*
X65685714Y-55328474D01*
X65685714Y-55328474D02*
X65657143Y-55357045D01*
X65657143Y-55357045D02*
X65628571Y-55414188D01*
X60042857Y-64671331D02*
X60042857Y-65157045D01*
X60042857Y-65157045D02*
X60071428Y-65214188D01*
X60071428Y-65214188D02*
X60100000Y-65242760D01*
X60100000Y-65242760D02*
X60157142Y-65271331D01*
X60157142Y-65271331D02*
X60271428Y-65271331D01*
X60271428Y-65271331D02*
X60328571Y-65242760D01*
X60328571Y-65242760D02*
X60357142Y-65214188D01*
X60357142Y-65214188D02*
X60385714Y-65157045D01*
X60385714Y-65157045D02*
X60385714Y-64671331D01*
X60642856Y-64728474D02*
X60671428Y-64699902D01*
X60671428Y-64699902D02*
X60728571Y-64671331D01*
X60728571Y-64671331D02*
X60871428Y-64671331D01*
X60871428Y-64671331D02*
X60928571Y-64699902D01*
X60928571Y-64699902D02*
X60957142Y-64728474D01*
X60957142Y-64728474D02*
X60985713Y-64785617D01*
X60985713Y-64785617D02*
X60985713Y-64842760D01*
X60985713Y-64842760D02*
X60957142Y-64928474D01*
X60957142Y-64928474D02*
X60614285Y-65271331D01*
X60614285Y-65271331D02*
X60985713Y-65271331D01*
X64150000Y-53414188D02*
X64121428Y-53442760D01*
X64121428Y-53442760D02*
X64035714Y-53471331D01*
X64035714Y-53471331D02*
X63978571Y-53471331D01*
X63978571Y-53471331D02*
X63892857Y-53442760D01*
X63892857Y-53442760D02*
X63835714Y-53385617D01*
X63835714Y-53385617D02*
X63807143Y-53328474D01*
X63807143Y-53328474D02*
X63778571Y-53214188D01*
X63778571Y-53214188D02*
X63778571Y-53128474D01*
X63778571Y-53128474D02*
X63807143Y-53014188D01*
X63807143Y-53014188D02*
X63835714Y-52957045D01*
X63835714Y-52957045D02*
X63892857Y-52899902D01*
X63892857Y-52899902D02*
X63978571Y-52871331D01*
X63978571Y-52871331D02*
X64035714Y-52871331D01*
X64035714Y-52871331D02*
X64121428Y-52899902D01*
X64121428Y-52899902D02*
X64150000Y-52928474D01*
X64664286Y-53071331D02*
X64664286Y-53471331D01*
X64521428Y-52842760D02*
X64378571Y-53271331D01*
X64378571Y-53271331D02*
X64750000Y-53271331D01*
X77057143Y-77671331D02*
X77057143Y-77071331D01*
X77057143Y-77071331D02*
X77200000Y-77071331D01*
X77200000Y-77071331D02*
X77285714Y-77099902D01*
X77285714Y-77099902D02*
X77342857Y-77157045D01*
X77342857Y-77157045D02*
X77371428Y-77214188D01*
X77371428Y-77214188D02*
X77400000Y-77328474D01*
X77400000Y-77328474D02*
X77400000Y-77414188D01*
X77400000Y-77414188D02*
X77371428Y-77528474D01*
X77371428Y-77528474D02*
X77342857Y-77585617D01*
X77342857Y-77585617D02*
X77285714Y-77642760D01*
X77285714Y-77642760D02*
X77200000Y-77671331D01*
X77200000Y-77671331D02*
X77057143Y-77671331D01*
X77971428Y-77671331D02*
X77628571Y-77671331D01*
X77800000Y-77671331D02*
X77800000Y-77071331D01*
X77800000Y-77071331D02*
X77742857Y-77157045D01*
X77742857Y-77157045D02*
X77685714Y-77214188D01*
X77685714Y-77214188D02*
X77628571Y-77242760D01*
X31399999Y-42471331D02*
X31399999Y-42899902D01*
X31399999Y-42899902D02*
X31371428Y-42985617D01*
X31371428Y-42985617D02*
X31314285Y-43042760D01*
X31314285Y-43042760D02*
X31228571Y-43071331D01*
X31228571Y-43071331D02*
X31171428Y-43071331D01*
X31971428Y-42471331D02*
X31685714Y-42471331D01*
X31685714Y-42471331D02*
X31657142Y-42757045D01*
X31657142Y-42757045D02*
X31685714Y-42728474D01*
X31685714Y-42728474D02*
X31742857Y-42699902D01*
X31742857Y-42699902D02*
X31885714Y-42699902D01*
X31885714Y-42699902D02*
X31942857Y-42728474D01*
X31942857Y-42728474D02*
X31971428Y-42757045D01*
X31971428Y-42757045D02*
X31999999Y-42814188D01*
X31999999Y-42814188D02*
X31999999Y-42957045D01*
X31999999Y-42957045D02*
X31971428Y-43014188D01*
X31971428Y-43014188D02*
X31942857Y-43042760D01*
X31942857Y-43042760D02*
X31885714Y-43071331D01*
X31885714Y-43071331D02*
X31742857Y-43071331D01*
X31742857Y-43071331D02*
X31685714Y-43042760D01*
X31685714Y-43042760D02*
X31657142Y-43014188D01*
X71800000Y-72257045D02*
X71600000Y-72257045D01*
X71600000Y-72571331D02*
X71600000Y-71971331D01*
X71600000Y-71971331D02*
X71885714Y-71971331D01*
X72428571Y-72571331D02*
X72085714Y-72571331D01*
X72257143Y-72571331D02*
X72257143Y-71971331D01*
X72257143Y-71971331D02*
X72200000Y-72057045D01*
X72200000Y-72057045D02*
X72142857Y-72114188D01*
X72142857Y-72114188D02*
X72085714Y-72142760D01*
X64799999Y-36471331D02*
X64799999Y-36899902D01*
X64799999Y-36899902D02*
X64771428Y-36985617D01*
X64771428Y-36985617D02*
X64714285Y-37042760D01*
X64714285Y-37042760D02*
X64628571Y-37071331D01*
X64628571Y-37071331D02*
X64571428Y-37071331D01*
X65057142Y-36528474D02*
X65085714Y-36499902D01*
X65085714Y-36499902D02*
X65142857Y-36471331D01*
X65142857Y-36471331D02*
X65285714Y-36471331D01*
X65285714Y-36471331D02*
X65342857Y-36499902D01*
X65342857Y-36499902D02*
X65371428Y-36528474D01*
X65371428Y-36528474D02*
X65399999Y-36585617D01*
X65399999Y-36585617D02*
X65399999Y-36642760D01*
X65399999Y-36642760D02*
X65371428Y-36728474D01*
X65371428Y-36728474D02*
X65028571Y-37071331D01*
X65028571Y-37071331D02*
X65399999Y-37071331D01*
X64542857Y-44071331D02*
X64542857Y-44557045D01*
X64542857Y-44557045D02*
X64571428Y-44614188D01*
X64571428Y-44614188D02*
X64600000Y-44642760D01*
X64600000Y-44642760D02*
X64657142Y-44671331D01*
X64657142Y-44671331D02*
X64771428Y-44671331D01*
X64771428Y-44671331D02*
X64828571Y-44642760D01*
X64828571Y-44642760D02*
X64857142Y-44614188D01*
X64857142Y-44614188D02*
X64885714Y-44557045D01*
X64885714Y-44557045D02*
X64885714Y-44071331D01*
X65485713Y-44671331D02*
X65142856Y-44671331D01*
X65314285Y-44671331D02*
X65314285Y-44071331D01*
X65314285Y-44071331D02*
X65257142Y-44157045D01*
X65257142Y-44157045D02*
X65199999Y-44214188D01*
X65199999Y-44214188D02*
X65142856Y-44242760D01*
X68400000Y-72371331D02*
X68200000Y-72085617D01*
X68057143Y-72371331D02*
X68057143Y-71771331D01*
X68057143Y-71771331D02*
X68285714Y-71771331D01*
X68285714Y-71771331D02*
X68342857Y-71799902D01*
X68342857Y-71799902D02*
X68371428Y-71828474D01*
X68371428Y-71828474D02*
X68400000Y-71885617D01*
X68400000Y-71885617D02*
X68400000Y-71971331D01*
X68400000Y-71971331D02*
X68371428Y-72028474D01*
X68371428Y-72028474D02*
X68342857Y-72057045D01*
X68342857Y-72057045D02*
X68285714Y-72085617D01*
X68285714Y-72085617D02*
X68057143Y-72085617D01*
X68628571Y-71828474D02*
X68657143Y-71799902D01*
X68657143Y-71799902D02*
X68714286Y-71771331D01*
X68714286Y-71771331D02*
X68857143Y-71771331D01*
X68857143Y-71771331D02*
X68914286Y-71799902D01*
X68914286Y-71799902D02*
X68942857Y-71828474D01*
X68942857Y-71828474D02*
X68971428Y-71885617D01*
X68971428Y-71885617D02*
X68971428Y-71942760D01*
X68971428Y-71942760D02*
X68942857Y-72028474D01*
X68942857Y-72028474D02*
X68600000Y-72371331D01*
X68600000Y-72371331D02*
X68971428Y-72371331D01*
X43514285Y-80071331D02*
X43514285Y-80499902D01*
X43514285Y-80499902D02*
X43485714Y-80585617D01*
X43485714Y-80585617D02*
X43428571Y-80642760D01*
X43428571Y-80642760D02*
X43342857Y-80671331D01*
X43342857Y-80671331D02*
X43285714Y-80671331D01*
X44114285Y-80671331D02*
X43771428Y-80671331D01*
X43942857Y-80671331D02*
X43942857Y-80071331D01*
X43942857Y-80071331D02*
X43885714Y-80157045D01*
X43885714Y-80157045D02*
X43828571Y-80214188D01*
X43828571Y-80214188D02*
X43771428Y-80242760D01*
X44685714Y-80671331D02*
X44342857Y-80671331D01*
X44514286Y-80671331D02*
X44514286Y-80071331D01*
X44514286Y-80071331D02*
X44457143Y-80157045D01*
X44457143Y-80157045D02*
X44400000Y-80214188D01*
X44400000Y-80214188D02*
X44342857Y-80242760D01*
X79514285Y-36471331D02*
X79514285Y-36899902D01*
X79514285Y-36899902D02*
X79485714Y-36985617D01*
X79485714Y-36985617D02*
X79428571Y-37042760D01*
X79428571Y-37042760D02*
X79342857Y-37071331D01*
X79342857Y-37071331D02*
X79285714Y-37071331D01*
X80114285Y-37071331D02*
X79771428Y-37071331D01*
X79942857Y-37071331D02*
X79942857Y-36471331D01*
X79942857Y-36471331D02*
X79885714Y-36557045D01*
X79885714Y-36557045D02*
X79828571Y-36614188D01*
X79828571Y-36614188D02*
X79771428Y-36642760D01*
X80485714Y-36471331D02*
X80542857Y-36471331D01*
X80542857Y-36471331D02*
X80600000Y-36499902D01*
X80600000Y-36499902D02*
X80628572Y-36528474D01*
X80628572Y-36528474D02*
X80657143Y-36585617D01*
X80657143Y-36585617D02*
X80685714Y-36699902D01*
X80685714Y-36699902D02*
X80685714Y-36842760D01*
X80685714Y-36842760D02*
X80657143Y-36957045D01*
X80657143Y-36957045D02*
X80628572Y-37014188D01*
X80628572Y-37014188D02*
X80600000Y-37042760D01*
X80600000Y-37042760D02*
X80542857Y-37071331D01*
X80542857Y-37071331D02*
X80485714Y-37071331D01*
X80485714Y-37071331D02*
X80428572Y-37042760D01*
X80428572Y-37042760D02*
X80400000Y-37014188D01*
X80400000Y-37014188D02*
X80371429Y-36957045D01*
X80371429Y-36957045D02*
X80342857Y-36842760D01*
X80342857Y-36842760D02*
X80342857Y-36699902D01*
X80342857Y-36699902D02*
X80371429Y-36585617D01*
X80371429Y-36585617D02*
X80400000Y-36528474D01*
X80400000Y-36528474D02*
X80428572Y-36499902D01*
X80428572Y-36499902D02*
X80485714Y-36471331D01*
%TO.C,C2*%
X85540580Y-71850000D02*
X85259420Y-71850000D01*
X85540580Y-72870000D02*
X85259420Y-72870000D01*
%TO.C,R4*%
X60120000Y-56346359D02*
X60120000Y-56653641D01*
X60880000Y-56346359D02*
X60880000Y-56653641D01*
%TO.C,J1*%
D13*
X60330000Y-79525000D02*
X60330000Y-81225000D01*
X69670000Y-79525000D02*
X69670000Y-81225000D01*
%TO.C,U3*%
D12*
X87440000Y-72590000D02*
X87490000Y-72590000D01*
X87440000Y-74410000D02*
X87440000Y-72590000D01*
X87490000Y-74410000D02*
X87440000Y-74410000D01*
X88610000Y-72590000D02*
X89390000Y-72590000D01*
X90510000Y-72590000D02*
X90560000Y-72590000D01*
X90560000Y-72590000D02*
X90560000Y-74410000D01*
X90560000Y-74410000D02*
X90510000Y-74410000D01*
X87490000Y-74950000D02*
X87160000Y-75190000D01*
X87160000Y-74710000D01*
X87490000Y-74950000D01*
G36*
X87490000Y-74950000D02*
G01*
X87160000Y-75190000D01*
X87160000Y-74710000D01*
X87490000Y-74950000D01*
G37*
%TO.C,C1*%
X85540580Y-74130000D02*
X85259420Y-74130000D01*
X85540580Y-75150000D02*
X85259420Y-75150000D01*
%TO.C,U4*%
X64574432Y-74365000D02*
X65710000Y-74365000D01*
X65710000Y-75235000D02*
X65710000Y-75365000D01*
X65710000Y-76235000D02*
X64290000Y-76235000D01*
X64280000Y-74360000D02*
X64140000Y-74170000D01*
X64420000Y-74170000D01*
X64280000Y-74360000D01*
G36*
X64280000Y-74360000D02*
G01*
X64140000Y-74170000D01*
X64420000Y-74170000D01*
X64280000Y-74360000D01*
G37*
%TO.C,C5*%
X67140000Y-59907836D02*
X67140000Y-59692164D01*
X67860000Y-59907836D02*
X67860000Y-59692164D01*
%TO.C,R5*%
X62620000Y-56846359D02*
X62620000Y-57153641D01*
X63380000Y-56846359D02*
X63380000Y-57153641D01*
%TO.C,C6*%
X61140000Y-59907836D02*
X61140000Y-59692164D01*
X61860000Y-59907836D02*
X61860000Y-59692164D01*
%TO.C,C3*%
X70640580Y-59490000D02*
X70359420Y-59490000D01*
X70640580Y-60510000D02*
X70359420Y-60510000D01*
%TO.C,R3*%
X67620000Y-56653641D02*
X67620000Y-56346359D01*
X68380000Y-56653641D02*
X68380000Y-56346359D01*
%TO.C,R1*%
X60846359Y-70120000D02*
X61153641Y-70120000D01*
X60846359Y-70880000D02*
X61153641Y-70880000D01*
%TO.C,R6*%
X65120000Y-56846359D02*
X65120000Y-57153641D01*
X65880000Y-56846359D02*
X65880000Y-57153641D01*
%TO.C,U2*%
X61615000Y-67310000D02*
X61615000Y-62690000D01*
X68385000Y-62690000D02*
X68385000Y-67310000D01*
X67930000Y-61140000D02*
X67690000Y-60810000D01*
X68170000Y-60810000D01*
X67930000Y-61140000D01*
G36*
X67930000Y-61140000D02*
G01*
X67690000Y-60810000D01*
X68170000Y-60810000D01*
X67930000Y-61140000D01*
G37*
%TO.C,C4*%
X63890000Y-51492164D02*
X63890000Y-51707836D01*
X64610000Y-51492164D02*
X64610000Y-51707836D01*
%TO.C,D1*%
X73840000Y-72350000D02*
X73840000Y-76650000D01*
X73840000Y-72350000D02*
X79650000Y-72350000D01*
X73840000Y-76650000D02*
X79650000Y-76650000D01*
%TO.C,F1*%
X71490000Y-74662779D02*
X71490000Y-74337221D01*
X72510000Y-74662779D02*
X72510000Y-74337221D01*
%TO.C,U1*%
D13*
X62850000Y-45850000D02*
X62850000Y-46450000D01*
X62850000Y-45850000D02*
X63450000Y-45850000D01*
X62850000Y-50150000D02*
X62850000Y-49550000D01*
X63450000Y-50150000D02*
X62850000Y-50150000D01*
X66550000Y-45850000D02*
X67150000Y-45850000D01*
X67150000Y-45850000D02*
X67150000Y-46450000D01*
X67150000Y-49550000D02*
X67150000Y-50150000D01*
X67150000Y-50150000D02*
X66550000Y-50150000D01*
X62750000Y-46450000D02*
G75*
G02*
X62350000Y-46450000I-200000J0D01*
G01*
X62350000Y-46450000D02*
G75*
G02*
X62750000Y-46450000I200000J0D01*
G01*
%TO.C,R2*%
D12*
X68346359Y-70120000D02*
X68653641Y-70120000D01*
X68346359Y-70880000D02*
X68653641Y-70880000D01*
%TO.C,J11*%
D13*
X40700000Y-74450000D02*
X40700000Y-77550000D01*
X47300000Y-74450000D02*
X47300000Y-77550000D01*
D14*
X40650000Y-78920000D02*
X40250000Y-79320000D01*
X40650000Y-79320000D01*
X40650000Y-78920000D01*
G36*
X40650000Y-79320000D02*
G01*
X40250000Y-79320000D01*
X40650000Y-78920000D01*
X40650000Y-79320000D01*
G37*
%TD*%
%LPC*%
D15*
%TO.C,J7*%
X98400000Y-66000000D03*
D16*
X95860000Y-68540000D03*
X95860000Y-63460000D03*
X100940000Y-68540000D03*
X100940000Y-63460000D03*
%TD*%
D17*
%TO.C,C2*%
X86175000Y-72360000D03*
X84625000Y-72360000D03*
%TD*%
D15*
%TO.C,J3*%
X50000000Y-31600000D03*
D16*
X52540000Y-34140000D03*
X47460000Y-34140000D03*
X52540000Y-29060000D03*
X47460000Y-29060000D03*
%TD*%
D15*
%TO.C,J4*%
X35000000Y-31600000D03*
D16*
X37540000Y-34140000D03*
X32460000Y-34140000D03*
X37540000Y-29060000D03*
X32460000Y-29060000D03*
%TD*%
D18*
%TO.C,R4*%
X60500000Y-55990000D03*
X60500000Y-57010000D03*
%TD*%
D15*
%TO.C,J6*%
X31600000Y-66000000D03*
D16*
X34140000Y-63460000D03*
X34140000Y-68540000D03*
X29060000Y-63460000D03*
X29060000Y-68540000D03*
%TD*%
D19*
%TO.C,FID1*%
X26500000Y-37000000D03*
%TD*%
D15*
%TO.C,J8*%
X98400000Y-48000000D03*
D16*
X95860000Y-50540000D03*
X95860000Y-45460000D03*
X100940000Y-50540000D03*
X100940000Y-45460000D03*
%TD*%
D20*
%TO.C,J1*%
X62110000Y-78720000D03*
X67890000Y-78720000D03*
D21*
X61800000Y-77645000D03*
X62600000Y-77645000D03*
D22*
X63750000Y-77645000D03*
X64750000Y-77645000D03*
X65250000Y-77645000D03*
X66250000Y-77645000D03*
D21*
X67400000Y-77645000D03*
X68200000Y-77645000D03*
X68200000Y-77645000D03*
X67400000Y-77645000D03*
D22*
X66750000Y-77645000D03*
X65750000Y-77645000D03*
X64250000Y-77645000D03*
X63250000Y-77645000D03*
D21*
X62600000Y-77645000D03*
X61800000Y-77645000D03*
D23*
X60680000Y-78220000D03*
D24*
X60680000Y-82400000D03*
D23*
X69320000Y-78220000D03*
D24*
X69320000Y-82400000D03*
%TD*%
D25*
%TO.C,U3*%
X88050000Y-74637500D03*
X89000000Y-74637500D03*
X89950000Y-74637500D03*
X89950000Y-72362500D03*
X88050000Y-72362500D03*
%TD*%
D17*
%TO.C,C1*%
X86175000Y-74640000D03*
X84625000Y-74640000D03*
%TD*%
D26*
%TO.C,U4*%
X64287500Y-74800000D03*
X64287500Y-75300000D03*
X64287500Y-75800000D03*
X65712500Y-75800000D03*
X65712500Y-74800000D03*
%TD*%
D15*
%TO.C,J9*%
X95000000Y-31600000D03*
D16*
X97540000Y-34140000D03*
X92460000Y-34140000D03*
X97540000Y-29060000D03*
X92460000Y-29060000D03*
%TD*%
D27*
%TO.C,C5*%
X67500000Y-60280000D03*
X67500000Y-59320000D03*
%TD*%
D18*
%TO.C,R5*%
X63000000Y-56490000D03*
X63000000Y-57510000D03*
%TD*%
D27*
%TO.C,C6*%
X61500000Y-60280000D03*
X61500000Y-59320000D03*
%TD*%
D17*
%TO.C,C3*%
X71275000Y-60000000D03*
X69725000Y-60000000D03*
%TD*%
D28*
%TO.C,R3*%
X68000000Y-57010000D03*
X68000000Y-55990000D03*
%TD*%
D29*
%TO.C,H4*%
X105000000Y-80000000D03*
%TD*%
%TO.C,H2*%
X105000000Y-25000000D03*
%TD*%
D30*
%TO.C,R1*%
X60490000Y-70500000D03*
X61510000Y-70500000D03*
%TD*%
D29*
%TO.C,H1*%
X25000000Y-25000000D03*
%TD*%
D19*
%TO.C,FID3*%
X38000000Y-80000000D03*
%TD*%
D18*
%TO.C,R6*%
X65500000Y-56490000D03*
X65500000Y-57510000D03*
%TD*%
D31*
%TO.C,U2*%
X67925000Y-62137500D03*
X67275000Y-62137500D03*
X66625000Y-62137500D03*
X65975000Y-62137500D03*
X65325000Y-62137500D03*
X64675000Y-62137500D03*
X64025000Y-62137500D03*
X63375000Y-62137500D03*
X62725000Y-62137500D03*
X62075000Y-62137500D03*
X62075000Y-67862500D03*
X62725000Y-67862500D03*
X63375000Y-67862500D03*
X64025000Y-67862500D03*
X64675000Y-67862500D03*
X65325000Y-67862500D03*
X65975000Y-67862500D03*
X66625000Y-67862500D03*
X67275000Y-67862500D03*
X67925000Y-67862500D03*
%TD*%
D19*
%TO.C,FID2*%
X103500000Y-37000000D03*
%TD*%
D32*
%TO.C,C4*%
X64250000Y-51120000D03*
X64250000Y-52080000D03*
%TD*%
D33*
%TO.C,D1*%
X75350000Y-74500000D03*
X79650000Y-74500000D03*
%TD*%
D15*
%TO.C,J5*%
X31600000Y-48000000D03*
D16*
X34140000Y-45460000D03*
X34140000Y-50540000D03*
X29060000Y-45460000D03*
X29060000Y-50540000D03*
%TD*%
D34*
%TO.C,F1*%
X72000000Y-75287500D03*
X72000000Y-73712500D03*
%TD*%
D15*
%TO.C,J2*%
X65000000Y-31600000D03*
D16*
X67540000Y-34140000D03*
X62460000Y-34140000D03*
X67540000Y-29060000D03*
X62460000Y-29060000D03*
%TD*%
D29*
%TO.C,H3*%
X25000000Y-80000000D03*
%TD*%
D35*
%TO.C,U1*%
X63100000Y-46750000D03*
X63100000Y-47250000D03*
X63100000Y-47750000D03*
X63100000Y-48250000D03*
X63100000Y-48750000D03*
X63100000Y-49250000D03*
D36*
X63750000Y-49900000D03*
X64250000Y-49900000D03*
X64750000Y-49900000D03*
X65250000Y-49900000D03*
X65750000Y-49900000D03*
X66250000Y-49900000D03*
D35*
X66900000Y-49250000D03*
X66900000Y-48750000D03*
X66900000Y-48250000D03*
X66900000Y-47750000D03*
X66900000Y-47250000D03*
X66900000Y-46750000D03*
D36*
X66250000Y-46100000D03*
X65750000Y-46100000D03*
X65250000Y-46100000D03*
X64750000Y-46100000D03*
X64250000Y-46100000D03*
X63750000Y-46100000D03*
D37*
X65000000Y-48000000D03*
%TD*%
D30*
%TO.C,R2*%
X67990000Y-70500000D03*
X69010000Y-70500000D03*
%TD*%
D38*
%TO.C,J11*%
X41460000Y-78032500D03*
X41460000Y-73967500D03*
X42730000Y-78032500D03*
X42730000Y-73967500D03*
X44000000Y-78032500D03*
X44000000Y-73967500D03*
X45270000Y-78032500D03*
X45270000Y-73967500D03*
X46540000Y-78032500D03*
X46540000Y-73967500D03*
%TD*%
D15*
%TO.C,J10*%
X80000000Y-31600000D03*
D16*
X82540000Y-34140000D03*
X77460000Y-34140000D03*
X82540000Y-29060000D03*
X77460000Y-29060000D03*
%TD*%
%LPD*%
M02*
