%TF.GenerationSoftware,KiCad,Pcbnew,10.0.4-10.0.4~ubuntu24.04.1*%
%TF.CreationDate,2026-07-19T18:35:16-07:00*%
%TF.ProjectId,cook_loadcell,636f6f6b-5f6c-46f6-9164-63656c6c2e6b,rev?*%
%TF.SameCoordinates,Original*%
%TF.FileFunction,Copper,L2,Bot*%
%TF.FilePolarity,Positive*%
%FSLAX46Y46*%
G04 Gerber Fmt 4.6, Leading zero omitted, Abs format (unit mm)*
G04 Created by KiCad (PCBNEW 10.0.4-10.0.4~ubuntu24.04.1) date 2026-07-19 18:35:16*
%MOMM*%
%LPD*%
G01*
G04 APERTURE LIST*
G04 Aperture macros list*
%AMRoundRect*
0 Rectangle with rounded corners*
0 $1 Rounding radius*
0 $2 $3 $4 $5 $6 $7 $8 $9 X,Y pos of 4 corners*
0 Add a 4 corners polygon primitive as box body*
4,1,4,$2,$3,$4,$5,$6,$7,$8,$9,$2,$3,0*
0 Add four circle primitives for the rounded corners*
1,1,$1+$1,$2,$3*
1,1,$1+$1,$4,$5*
1,1,$1+$1,$6,$7*
1,1,$1+$1,$8,$9*
0 Add four rect primitives between the rounded corners*
20,1,$1+$1,$2,$3,$4,$5,0*
20,1,$1+$1,$4,$5,$6,$7,0*
20,1,$1+$1,$6,$7,$8,$9,0*
20,1,$1+$1,$8,$9,$2,$3,0*%
G04 Aperture macros list end*
%TA.AperFunction,ComponentPad*%
%ADD10RoundRect,0.250000X-0.600000X-0.725000X0.600000X-0.725000X0.600000X0.725000X-0.600000X0.725000X0*%
%TD*%
%TA.AperFunction,ComponentPad*%
%ADD11O,1.700000X1.950000*%
%TD*%
%TA.AperFunction,ComponentPad*%
%ADD12R,1.700000X1.700000*%
%TD*%
%TA.AperFunction,ComponentPad*%
%ADD13C,1.700000*%
%TD*%
%TA.AperFunction,ViaPad*%
%ADD14C,0.600000*%
%TD*%
%TA.AperFunction,Conductor*%
%ADD15C,0.250000*%
%TD*%
%TA.AperFunction,Conductor*%
%ADD16C,0.500000*%
%TD*%
%ADD17C,0.300000*%
%ADD18C,0.350000*%
G04 APERTURE END LIST*
D10*
%TO.P,J3,1*%
%TO.N,RING_23*%
X30200000Y-60800000D03*
D11*
%TO.P,J3,2*%
%TO.N,E_MINUS*%
X32700000Y-60800000D03*
%TO.P,J3,3*%
%TO.N,RING_34*%
X35200000Y-60800000D03*
%TD*%
D10*
%TO.P,J6,1*%
%TO.N,5V*%
X53500000Y-60800000D03*
D11*
%TO.P,J6,2*%
%TO.N,3V3*%
X56000000Y-60800000D03*
%TO.P,J6,3*%
%TO.N,GND*%
X58500000Y-60800000D03*
%TO.P,J6,4*%
%TO.N,DAT*%
X61000000Y-60800000D03*
%TO.P,J6,5*%
%TO.N,CLK*%
X63500000Y-60800000D03*
%TD*%
D10*
%TO.P,J2,1*%
%TO.N,RING_12*%
X41300000Y-24200000D03*
D11*
%TO.P,J2,2*%
%TO.N,S_PLUS*%
X43800000Y-24200000D03*
%TO.P,J2,3*%
%TO.N,RING_23*%
X46300000Y-24200000D03*
%TD*%
D12*
%TO.P,JP1,1*%
%TO.N,GND*%
X63000000Y-42000000D03*
D13*
%TO.P,JP1,2*%
%TO.N,RATE_SEL*%
X60460000Y-42000000D03*
%TO.P,JP1,3*%
%TO.N,3V3*%
X57920000Y-42000000D03*
%TD*%
D10*
%TO.P,J4,1*%
%TO.N,RING_34*%
X41300000Y-60800000D03*
D11*
%TO.P,J4,2*%
%TO.N,S_MINUS*%
X43800000Y-60800000D03*
%TO.P,J4,3*%
%TO.N,RING_41*%
X46300000Y-60800000D03*
%TD*%
D10*
%TO.P,J1,1*%
%TO.N,RING_41*%
X30200000Y-24200000D03*
D11*
%TO.P,J1,2*%
%TO.N,E_PLUS*%
X32700000Y-24200000D03*
%TO.P,J1,3*%
%TO.N,RING_12*%
X35200000Y-24200000D03*
%TD*%
D10*
%TO.P,J5,1*%
%TO.N,E_PLUS*%
X52500000Y-24200000D03*
D11*
%TO.P,J5,2*%
%TO.N,S_PLUS*%
X55000000Y-24200000D03*
%TO.P,J5,3*%
%TO.N,S_MINUS*%
X57500000Y-24200000D03*
%TO.P,J5,4*%
%TO.N,E_MINUS*%
X60000000Y-24200000D03*
%TO.P,J5,5*%
%TO.N,SH*%
X62500000Y-24200000D03*
%TD*%
D14*
%TO.N,GND*%
X64000000Y-48000000D03*
X24000000Y-55000000D03*
X47950000Y-38000000D03*
X48000000Y-24000000D03*
X56000000Y-40000000D03*
X64000000Y-24000000D03*
X55250000Y-55600000D03*
X72000000Y-32000000D03*
X56000000Y-48000000D03*
X72000000Y-48000000D03*
X29320000Y-42000000D03*
X64000000Y-40000000D03*
X44270000Y-38200000D03*
X63650000Y-32500000D03*
X72000000Y-56000000D03*
X68330000Y-27500000D03*
X29270000Y-47000000D03*
X59050000Y-55000000D03*
X64000000Y-56000000D03*
X56000000Y-32000000D03*
X48000000Y-32000000D03*
X29450000Y-44500000D03*
X44270000Y-46200000D03*
X63770000Y-30000000D03*
X48000000Y-56000000D03*
X40480000Y-46450000D03*
X72000000Y-40000000D03*
X35520000Y-42630000D03*
X40480000Y-40090000D03*
X47950000Y-46000000D03*
%TO.N,DAT*%
X41800000Y-43100000D03*
X43400000Y-43100000D03*
%TO.N,RING_23*%
X46300000Y-21100000D03*
%TO.N,CLK*%
X48400000Y-43900000D03*
X57000000Y-55000000D03*
X41500000Y-43900000D03*
X56500000Y-53400000D03*
%TO.N,5V*%
X36500000Y-37900000D03*
X31500000Y-37000000D03*
X28100000Y-37000000D03*
X42000000Y-41300000D03*
%TO.N,E_PLUS*%
X35000000Y-21900000D03*
X52500000Y-21900000D03*
X30900000Y-26000000D03*
X29600000Y-35800000D03*
X27600000Y-40900000D03*
X26700000Y-32000000D03*
X28000000Y-43800000D03*
X29600000Y-34200000D03*
%TO.N,S_MINUS*%
X37200000Y-46600000D03*
X24700000Y-48000000D03*
X36100000Y-45500000D03*
X41100000Y-25800000D03*
X27100000Y-48000000D03*
X43300000Y-25800000D03*
%TO.N,S_PLUS*%
X24700000Y-40600000D03*
X55000000Y-26500000D03*
X27100000Y-43000000D03*
%TO.N,RATE_SEL*%
X58600000Y-43800000D03*
%TO.N,RING_41*%
X37300000Y-43200000D03*
X38500000Y-45300000D03*
%TD*%
%TO.N,DAT*%
D15*
X43400000Y-43100000D02*
X41800000Y-43100000D01*
%TO.N,RING_23*%
D16*
X46300000Y-21100000D02*
X46300000Y-24200000D01*
%TO.N,CLK*%
D15*
X41500000Y-43900000D02*
X48400000Y-43900000D01*
X56500000Y-54500000D02*
X57000000Y-55000000D01*
X56500000Y-53400000D02*
X56500000Y-54500000D01*
%TO.N,5V*%
D16*
X31500000Y-37000000D02*
X28100000Y-37000000D01*
X39900000Y-41300000D02*
X36500000Y-37900000D01*
X42000000Y-41300000D02*
X39900000Y-41300000D01*
%TO.N,E_PLUS*%
X27600000Y-40900000D02*
X27600000Y-42300000D01*
X27600000Y-42300000D02*
X28000000Y-42700000D01*
X29600000Y-34200000D02*
X29600000Y-35800000D01*
X28900000Y-34200000D02*
X26700000Y-32000000D01*
X32700000Y-24200000D02*
X30900000Y-26000000D01*
X29600000Y-34200000D02*
X28900000Y-34200000D01*
X52500000Y-21900000D02*
X52500000Y-24200000D01*
X28000000Y-42700000D02*
X28000000Y-43800000D01*
X32700000Y-24200000D02*
X35000000Y-21900000D01*
%TO.N,S_MINUS*%
X41100000Y-25800000D02*
X43300000Y-25800000D01*
X36100000Y-45500000D02*
X37200000Y-46600000D01*
X27100000Y-48000000D02*
X24700000Y-48000000D01*
%TO.N,S_PLUS*%
X55000000Y-26500000D02*
X55000000Y-24200000D01*
X27100000Y-43000000D02*
X24700000Y-40600000D01*
%TO.N,RATE_SEL*%
D15*
X58600000Y-43800000D02*
X60400000Y-42000000D01*
%TO.N,RING_41*%
D16*
X38500000Y-44400000D02*
X38500000Y-45300000D01*
X37300000Y-43200000D02*
X38500000Y-44400000D01*
%TD*%
%TA.AperFunction,Conductor*%
%TO.N,GND*%
G36*
X46002199Y-20320462D02*
G01*
X46056737Y-20375000D01*
X46076699Y-20449500D01*
X46056737Y-20524000D01*
X46002199Y-20578537D01*
X46002198Y-20578538D01*
X45931284Y-20619479D01*
X45819480Y-20731283D01*
X45740424Y-20868214D01*
X45699500Y-21020941D01*
X45699500Y-21179060D01*
X45742951Y-21341218D01*
X45741213Y-21341683D01*
X45749500Y-21383335D01*
X45749500Y-22976945D01*
X45729538Y-23051445D01*
X45688080Y-23097489D01*
X45550500Y-23197446D01*
X45550497Y-23197448D01*
X45422448Y-23325497D01*
X45422446Y-23325500D01*
X45316005Y-23472003D01*
X45316005Y-23472004D01*
X45233789Y-23633360D01*
X45191708Y-23762875D01*
X45149701Y-23827560D01*
X45080980Y-23862576D01*
X45003957Y-23858540D01*
X44939272Y-23816533D01*
X44908292Y-23762875D01*
X44893553Y-23717512D01*
X44866211Y-23633361D01*
X44783996Y-23472006D01*
X44677553Y-23325499D01*
X44549501Y-23197447D01*
X44402994Y-23091004D01*
X44241639Y-23008789D01*
X44069409Y-22952829D01*
X43890546Y-22924500D01*
X43709454Y-22924500D01*
X43530591Y-22952829D01*
X43358360Y-23008789D01*
X43197004Y-23091005D01*
X43197003Y-23091005D01*
X43050500Y-23197446D01*
X43050497Y-23197448D01*
X42922448Y-23325497D01*
X42922446Y-23325500D01*
X42816005Y-23472003D01*
X42816005Y-23472004D01*
X42732260Y-23636361D01*
X42680650Y-23693678D01*
X42607297Y-23717512D01*
X42531855Y-23701476D01*
X42474538Y-23649866D01*
X42450704Y-23576513D01*
X42450500Y-23568716D01*
X42450500Y-23431899D01*
X42450500Y-23431898D01*
X42439877Y-23343436D01*
X42384361Y-23202658D01*
X42380409Y-23197446D01*
X42292923Y-23082079D01*
X42292920Y-23082076D01*
X42196276Y-23008789D01*
X42172342Y-22990639D01*
X42172341Y-22990638D01*
X42031563Y-22935122D01*
X41943105Y-22924500D01*
X41943102Y-22924500D01*
X40656898Y-22924500D01*
X40656894Y-22924500D01*
X40568436Y-22935122D01*
X40427658Y-22990638D01*
X40427658Y-22990639D01*
X40307079Y-23082076D01*
X40307076Y-23082079D01*
X40215639Y-23202658D01*
X40215638Y-23202658D01*
X40160122Y-23343436D01*
X40149500Y-23431894D01*
X40149500Y-24968105D01*
X40160122Y-25056563D01*
X40215638Y-25197341D01*
X40300307Y-25308994D01*
X40307078Y-25317922D01*
X40427658Y-25409361D01*
X40427661Y-25409362D01*
X40444475Y-25415993D01*
X40506458Y-25461894D01*
X40537186Y-25532636D01*
X40533737Y-25593168D01*
X40499500Y-25720939D01*
X40499500Y-25720942D01*
X40499500Y-25720943D01*
X40499500Y-25879057D01*
X40540423Y-26031784D01*
X40619480Y-26168716D01*
X40731284Y-26280520D01*
X40868216Y-26359577D01*
X41020943Y-26400500D01*
X41179057Y-26400500D01*
X41331784Y-26359577D01*
X41331786Y-26359575D01*
X41341216Y-26357049D01*
X41341681Y-26358784D01*
X41383335Y-26350500D01*
X43016665Y-26350500D01*
X43058318Y-26358784D01*
X43058784Y-26357049D01*
X43068213Y-26359575D01*
X43068216Y-26359577D01*
X43220943Y-26400500D01*
X43379057Y-26400500D01*
X43531784Y-26359577D01*
X43668716Y-26280520D01*
X43780520Y-26168716D01*
X43859577Y-26031784D01*
X43900500Y-25879057D01*
X43900500Y-25720943D01*
X43879835Y-25643820D01*
X43879835Y-25566695D01*
X43918398Y-25499900D01*
X43985193Y-25461335D01*
X44000435Y-25458095D01*
X44069409Y-25447171D01*
X44241639Y-25391211D01*
X44402994Y-25308996D01*
X44549501Y-25202553D01*
X44677553Y-25074501D01*
X44783996Y-24927994D01*
X44866211Y-24766639D01*
X44908292Y-24637125D01*
X44950299Y-24572439D01*
X45019020Y-24537423D01*
X45096042Y-24541459D01*
X45160728Y-24583466D01*
X45191708Y-24637125D01*
X45233788Y-24766638D01*
X45316005Y-24927995D01*
X45316005Y-24927996D01*
X45345144Y-24968102D01*
X45422447Y-25074501D01*
X45550499Y-25202553D01*
X45697006Y-25308996D01*
X45858361Y-25391211D01*
X46030591Y-25447171D01*
X46209454Y-25475500D01*
X46209458Y-25475500D01*
X46390542Y-25475500D01*
X46390546Y-25475500D01*
X46569409Y-25447171D01*
X46741639Y-25391211D01*
X46902994Y-25308996D01*
X47049501Y-25202553D01*
X47177553Y-25074501D01*
X47283996Y-24927994D01*
X47366211Y-24766639D01*
X47422171Y-24594409D01*
X47450500Y-24415546D01*
X47450500Y-23984454D01*
X47422171Y-23805591D01*
X47366211Y-23633361D01*
X47283996Y-23472006D01*
X47254853Y-23431894D01*
X51349500Y-23431894D01*
X51349500Y-24968105D01*
X51360122Y-25056563D01*
X51415638Y-25197341D01*
X51500307Y-25308994D01*
X51507078Y-25317922D01*
X51627658Y-25409361D01*
X51768436Y-25464877D01*
X51856898Y-25475500D01*
X51856899Y-25475500D01*
X53143101Y-25475500D01*
X53143102Y-25475500D01*
X53231564Y-25464877D01*
X53372342Y-25409361D01*
X53492922Y-25317922D01*
X53584361Y-25197342D01*
X53639877Y-25056564D01*
X53650500Y-24968102D01*
X53650500Y-24831283D01*
X53670462Y-24756783D01*
X53725000Y-24702245D01*
X53799500Y-24682283D01*
X53874000Y-24702245D01*
X53928538Y-24756783D01*
X53932260Y-24763638D01*
X53933788Y-24766638D01*
X53933789Y-24766639D01*
X53998818Y-24894265D01*
X54016005Y-24927995D01*
X54016005Y-24927996D01*
X54045144Y-24968102D01*
X54122447Y-25074501D01*
X54250499Y-25202553D01*
X54373804Y-25292139D01*
X54388080Y-25302511D01*
X54436618Y-25362451D01*
X54449500Y-25423055D01*
X54449500Y-26216665D01*
X54441215Y-26258318D01*
X54442951Y-26258784D01*
X54440424Y-26268213D01*
X54440423Y-26268216D01*
X54418375Y-26350500D01*
X54399500Y-26420941D01*
X54399500Y-26579058D01*
X54410465Y-26619981D01*
X54440423Y-26731784D01*
X54519480Y-26868716D01*
X54631284Y-26980520D01*
X54768216Y-27059577D01*
X54920943Y-27100500D01*
X55079057Y-27100500D01*
X55231784Y-27059577D01*
X55368716Y-26980520D01*
X55480520Y-26868716D01*
X55559577Y-26731784D01*
X55600500Y-26579057D01*
X55600500Y-26420943D01*
X55559577Y-26268216D01*
X55559575Y-26268213D01*
X55557049Y-26258784D01*
X55558784Y-26258318D01*
X55550500Y-26216665D01*
X55550500Y-25423055D01*
X55570462Y-25348555D01*
X55611920Y-25302511D01*
X55619448Y-25297041D01*
X55749501Y-25202553D01*
X55877553Y-25074501D01*
X55983996Y-24927994D01*
X56066211Y-24766639D01*
X56108292Y-24637125D01*
X56150299Y-24572439D01*
X56219020Y-24537423D01*
X56296042Y-24541459D01*
X56360728Y-24583466D01*
X56391708Y-24637125D01*
X56433788Y-24766638D01*
X56516005Y-24927995D01*
X56516005Y-24927996D01*
X56545144Y-24968102D01*
X56622447Y-25074501D01*
X56750499Y-25202553D01*
X56897006Y-25308996D01*
X57058361Y-25391211D01*
X57230591Y-25447171D01*
X57409454Y-25475500D01*
X57409458Y-25475500D01*
X57590542Y-25475500D01*
X57590546Y-25475500D01*
X57769409Y-25447171D01*
X57941639Y-25391211D01*
X58102994Y-25308996D01*
X58249501Y-25202553D01*
X58377553Y-25074501D01*
X58483996Y-24927994D01*
X58566211Y-24766639D01*
X58608292Y-24637125D01*
X58650299Y-24572439D01*
X58719020Y-24537423D01*
X58796042Y-24541459D01*
X58860728Y-24583466D01*
X58891708Y-24637125D01*
X58933788Y-24766638D01*
X59016005Y-24927995D01*
X59016005Y-24927996D01*
X59045144Y-24968102D01*
X59122447Y-25074501D01*
X59250499Y-25202553D01*
X59397006Y-25308996D01*
X59558361Y-25391211D01*
X59730591Y-25447171D01*
X59909454Y-25475500D01*
X59909458Y-25475500D01*
X60090542Y-25475500D01*
X60090546Y-25475500D01*
X60269409Y-25447171D01*
X60441639Y-25391211D01*
X60602994Y-25308996D01*
X60749501Y-25202553D01*
X60877553Y-25074501D01*
X60983996Y-24927994D01*
X61066211Y-24766639D01*
X61108292Y-24637125D01*
X61150299Y-24572439D01*
X61219020Y-24537423D01*
X61296042Y-24541459D01*
X61360728Y-24583466D01*
X61391708Y-24637125D01*
X61433788Y-24766638D01*
X61516005Y-24927995D01*
X61516005Y-24927996D01*
X61545144Y-24968102D01*
X61622447Y-25074501D01*
X61750499Y-25202553D01*
X61897006Y-25308996D01*
X62058361Y-25391211D01*
X62230591Y-25447171D01*
X62409454Y-25475500D01*
X62409458Y-25475500D01*
X62590542Y-25475500D01*
X62590546Y-25475500D01*
X62769409Y-25447171D01*
X62941639Y-25391211D01*
X63102994Y-25308996D01*
X63249501Y-25202553D01*
X63377553Y-25074501D01*
X63483996Y-24927994D01*
X63566211Y-24766639D01*
X63622171Y-24594409D01*
X63650500Y-24415546D01*
X63650500Y-23984454D01*
X63622171Y-23805591D01*
X63566211Y-23633361D01*
X63483996Y-23472006D01*
X63483992Y-23472001D01*
X63483991Y-23471998D01*
X63476300Y-23461412D01*
X63416210Y-23378706D01*
X69649500Y-23378706D01*
X69649500Y-23621293D01*
X69681160Y-23861781D01*
X69681161Y-23861787D01*
X69681162Y-23861789D01*
X69743946Y-24096100D01*
X69836776Y-24320212D01*
X69958064Y-24530289D01*
X70105735Y-24722738D01*
X70277262Y-24894265D01*
X70469711Y-25041936D01*
X70679788Y-25163224D01*
X70903900Y-25256054D01*
X71138211Y-25318838D01*
X71138217Y-25318838D01*
X71138218Y-25318839D01*
X71203600Y-25327446D01*
X71378712Y-25350500D01*
X71621288Y-25350500D01*
X71861789Y-25318838D01*
X72096100Y-25256054D01*
X72320212Y-25163224D01*
X72530289Y-25041936D01*
X72722738Y-24894265D01*
X72894265Y-24722738D01*
X73041936Y-24530289D01*
X73163224Y-24320212D01*
X73256054Y-24096100D01*
X73318838Y-23861789D01*
X73350500Y-23621288D01*
X73350500Y-23378712D01*
X73318838Y-23138211D01*
X73256054Y-22903900D01*
X73163224Y-22679788D01*
X73041936Y-22469711D01*
X72894265Y-22277262D01*
X72722738Y-22105735D01*
X72530289Y-21958064D01*
X72460263Y-21917634D01*
X72320216Y-21836778D01*
X72320214Y-21836777D01*
X72320212Y-21836776D01*
X72188932Y-21782398D01*
X72096103Y-21743947D01*
X72096101Y-21743946D01*
X72096100Y-21743946D01*
X71861789Y-21681162D01*
X71861787Y-21681161D01*
X71861781Y-21681160D01*
X71621293Y-21649500D01*
X71621288Y-21649500D01*
X71378712Y-21649500D01*
X71378706Y-21649500D01*
X71138218Y-21681160D01*
X70903896Y-21743947D01*
X70679783Y-21836778D01*
X70469712Y-21958063D01*
X70442352Y-21979057D01*
X70277262Y-22105735D01*
X70277260Y-22105736D01*
X70277256Y-22105740D01*
X70105740Y-22277256D01*
X69958063Y-22469712D01*
X69836778Y-22679783D01*
X69743947Y-22903896D01*
X69681160Y-23138218D01*
X69649500Y-23378706D01*
X63416210Y-23378706D01*
X63377553Y-23325499D01*
X63249501Y-23197447D01*
X63102994Y-23091004D01*
X62941639Y-23008789D01*
X62769409Y-22952829D01*
X62590546Y-22924500D01*
X62409454Y-22924500D01*
X62230591Y-22952829D01*
X62058360Y-23008789D01*
X61897004Y-23091005D01*
X61897003Y-23091005D01*
X61750500Y-23197446D01*
X61750497Y-23197448D01*
X61622448Y-23325497D01*
X61622446Y-23325500D01*
X61516005Y-23472003D01*
X61516005Y-23472004D01*
X61433789Y-23633360D01*
X61391708Y-23762875D01*
X61349701Y-23827560D01*
X61280980Y-23862576D01*
X61203957Y-23858540D01*
X61139272Y-23816533D01*
X61108292Y-23762875D01*
X61093553Y-23717512D01*
X61066211Y-23633361D01*
X60983996Y-23472006D01*
X60877553Y-23325499D01*
X60749501Y-23197447D01*
X60602994Y-23091004D01*
X60441639Y-23008789D01*
X60269409Y-22952829D01*
X60090546Y-22924500D01*
X59909454Y-22924500D01*
X59730591Y-22952829D01*
X59558360Y-23008789D01*
X59397004Y-23091005D01*
X59397003Y-23091005D01*
X59250500Y-23197446D01*
X59250497Y-23197448D01*
X59122448Y-23325497D01*
X59122446Y-23325500D01*
X59016005Y-23472003D01*
X59016005Y-23472004D01*
X58933789Y-23633360D01*
X58891708Y-23762875D01*
X58849701Y-23827560D01*
X58780980Y-23862576D01*
X58703957Y-23858540D01*
X58639272Y-23816533D01*
X58608292Y-23762875D01*
X58593553Y-23717512D01*
X58566211Y-23633361D01*
X58483996Y-23472006D01*
X58377553Y-23325499D01*
X58249501Y-23197447D01*
X58102994Y-23091004D01*
X57941639Y-23008789D01*
X57769409Y-22952829D01*
X57590546Y-22924500D01*
X57409454Y-22924500D01*
X57230591Y-22952829D01*
X57058360Y-23008789D01*
X56897004Y-23091005D01*
X56897003Y-23091005D01*
X56750500Y-23197446D01*
X56750497Y-23197448D01*
X56622448Y-23325497D01*
X56622446Y-23325500D01*
X56516005Y-23472003D01*
X56516005Y-23472004D01*
X56433789Y-23633360D01*
X56391708Y-23762875D01*
X56349701Y-23827560D01*
X56280980Y-23862576D01*
X56203957Y-23858540D01*
X56139272Y-23816533D01*
X56108292Y-23762875D01*
X56093553Y-23717512D01*
X56066211Y-23633361D01*
X55983996Y-23472006D01*
X55877553Y-23325499D01*
X55749501Y-23197447D01*
X55602994Y-23091004D01*
X55441639Y-23008789D01*
X55269409Y-22952829D01*
X55090546Y-22924500D01*
X54909454Y-22924500D01*
X54730591Y-22952829D01*
X54558360Y-23008789D01*
X54397004Y-23091005D01*
X54397003Y-23091005D01*
X54250500Y-23197446D01*
X54250497Y-23197448D01*
X54122448Y-23325497D01*
X54122446Y-23325500D01*
X54016005Y-23472003D01*
X54016005Y-23472004D01*
X53932260Y-23636361D01*
X53880650Y-23693678D01*
X53807297Y-23717512D01*
X53731855Y-23701476D01*
X53674538Y-23649866D01*
X53650704Y-23576513D01*
X53650500Y-23568716D01*
X53650500Y-23431899D01*
X53650500Y-23431898D01*
X53639877Y-23343436D01*
X53584361Y-23202658D01*
X53580409Y-23197446D01*
X53492923Y-23082079D01*
X53492920Y-23082076D01*
X53396276Y-23008789D01*
X53372342Y-22990639D01*
X53372341Y-22990638D01*
X53231564Y-22935123D01*
X53181734Y-22929139D01*
X53110146Y-22900436D01*
X53062500Y-22839785D01*
X53050500Y-22781202D01*
X53050500Y-22183335D01*
X53058786Y-22141683D01*
X53057049Y-22141218D01*
X53100499Y-21979060D01*
X53100500Y-21979057D01*
X53100500Y-21820943D01*
X53059577Y-21668216D01*
X52980520Y-21531284D01*
X52868716Y-21419480D01*
X52731784Y-21340423D01*
X52579057Y-21299500D01*
X52420943Y-21299500D01*
X52268216Y-21340423D01*
X52268214Y-21340423D01*
X52268214Y-21340424D01*
X52131283Y-21419480D01*
X52019480Y-21531283D01*
X51940424Y-21668214D01*
X51940423Y-21668216D01*
X51935725Y-21685750D01*
X51899500Y-21820941D01*
X51899500Y-21979060D01*
X51942951Y-22141218D01*
X51941213Y-22141683D01*
X51949500Y-22183335D01*
X51949500Y-22781202D01*
X51929538Y-22855702D01*
X51875000Y-22910240D01*
X51818266Y-22929139D01*
X51768435Y-22935123D01*
X51627658Y-22990638D01*
X51627658Y-22990639D01*
X51507079Y-23082076D01*
X51507076Y-23082079D01*
X51415639Y-23202658D01*
X51415638Y-23202658D01*
X51360122Y-23343436D01*
X51349500Y-23431894D01*
X47254853Y-23431894D01*
X47177553Y-23325499D01*
X47049501Y-23197447D01*
X46911920Y-23097489D01*
X46863382Y-23037549D01*
X46850500Y-22976945D01*
X46850500Y-21383335D01*
X46858786Y-21341683D01*
X46857049Y-21341218D01*
X46900499Y-21179060D01*
X46900500Y-21179056D01*
X46900500Y-21020943D01*
X46900499Y-21020941D01*
X46859577Y-20868216D01*
X46780520Y-20731284D01*
X46668716Y-20619480D01*
X46668715Y-20619479D01*
X46597802Y-20578538D01*
X46543264Y-20524001D01*
X46523301Y-20449501D01*
X46543263Y-20375001D01*
X46597800Y-20320463D01*
X46672300Y-20300500D01*
X74550500Y-20300500D01*
X74625000Y-20320462D01*
X74679538Y-20375000D01*
X74699500Y-20449500D01*
X74699500Y-64550500D01*
X74679538Y-64625000D01*
X74625000Y-64679538D01*
X74550500Y-64699500D01*
X20449500Y-64699500D01*
X20375000Y-64679538D01*
X20320462Y-64625000D01*
X20300500Y-64550500D01*
X20300500Y-61378706D01*
X21649500Y-61378706D01*
X21649500Y-61621293D01*
X21681160Y-61861781D01*
X21681161Y-61861787D01*
X21681162Y-61861789D01*
X21743946Y-62096100D01*
X21836776Y-62320212D01*
X21958064Y-62530289D01*
X22105735Y-62722738D01*
X22277262Y-62894265D01*
X22469711Y-63041936D01*
X22679788Y-63163224D01*
X22903900Y-63256054D01*
X23138211Y-63318838D01*
X23138217Y-63318838D01*
X23138218Y-63318839D01*
X23203600Y-63327446D01*
X23378712Y-63350500D01*
X23621288Y-63350500D01*
X23861789Y-63318838D01*
X24096100Y-63256054D01*
X24320212Y-63163224D01*
X24530289Y-63041936D01*
X24722738Y-62894265D01*
X24894265Y-62722738D01*
X25041936Y-62530289D01*
X25163224Y-62320212D01*
X25256054Y-62096100D01*
X25318838Y-61861789D01*
X25350500Y-61621288D01*
X25350500Y-61378712D01*
X25318838Y-61138211D01*
X25256054Y-60903900D01*
X25163224Y-60679788D01*
X25041936Y-60469711D01*
X24894265Y-60277262D01*
X24722738Y-60105735D01*
X24626506Y-60031894D01*
X29049500Y-60031894D01*
X29049500Y-61568105D01*
X29060122Y-61656563D01*
X29115638Y-61797341D01*
X29200307Y-61908994D01*
X29207078Y-61917922D01*
X29327658Y-62009361D01*
X29468436Y-62064877D01*
X29556898Y-62075500D01*
X29556899Y-62075500D01*
X30843101Y-62075500D01*
X30843102Y-62075500D01*
X30931564Y-62064877D01*
X31072342Y-62009361D01*
X31192922Y-61917922D01*
X31284361Y-61797342D01*
X31339877Y-61656564D01*
X31350500Y-61568102D01*
X31350500Y-61431283D01*
X31370462Y-61356783D01*
X31425000Y-61302245D01*
X31499500Y-61282283D01*
X31574000Y-61302245D01*
X31628538Y-61356783D01*
X31632260Y-61363638D01*
X31633788Y-61366638D01*
X31633789Y-61366639D01*
X31716002Y-61527991D01*
X31716005Y-61527995D01*
X31716005Y-61527996D01*
X31745144Y-61568102D01*
X31822447Y-61674501D01*
X31950499Y-61802553D01*
X32097006Y-61908996D01*
X32258361Y-61991211D01*
X32430591Y-62047171D01*
X32609454Y-62075500D01*
X32609458Y-62075500D01*
X32790542Y-62075500D01*
X32790546Y-62075500D01*
X32969409Y-62047171D01*
X33141639Y-61991211D01*
X33302994Y-61908996D01*
X33449501Y-61802553D01*
X33577553Y-61674501D01*
X33683996Y-61527994D01*
X33766211Y-61366639D01*
X33808292Y-61237125D01*
X33850299Y-61172439D01*
X33919020Y-61137423D01*
X33996042Y-61141459D01*
X34060728Y-61183466D01*
X34091708Y-61237125D01*
X34133788Y-61366638D01*
X34161533Y-61421090D01*
X34216002Y-61527991D01*
X34216005Y-61527995D01*
X34216005Y-61527996D01*
X34245144Y-61568102D01*
X34322447Y-61674501D01*
X34450499Y-61802553D01*
X34597006Y-61908996D01*
X34758361Y-61991211D01*
X34930591Y-62047171D01*
X35109454Y-62075500D01*
X35109458Y-62075500D01*
X35290542Y-62075500D01*
X35290546Y-62075500D01*
X35469409Y-62047171D01*
X35641639Y-61991211D01*
X35802994Y-61908996D01*
X35949501Y-61802553D01*
X36077553Y-61674501D01*
X36183996Y-61527994D01*
X36266211Y-61366639D01*
X36322171Y-61194409D01*
X36350500Y-61015546D01*
X36350500Y-60584454D01*
X36322171Y-60405591D01*
X36266211Y-60233361D01*
X36183996Y-60072006D01*
X36154853Y-60031894D01*
X40149500Y-60031894D01*
X40149500Y-61568105D01*
X40160122Y-61656563D01*
X40215638Y-61797341D01*
X40300307Y-61908994D01*
X40307078Y-61917922D01*
X40427658Y-62009361D01*
X40568436Y-62064877D01*
X40656898Y-62075500D01*
X40656899Y-62075500D01*
X41943101Y-62075500D01*
X41943102Y-62075500D01*
X42031564Y-62064877D01*
X42172342Y-62009361D01*
X42292922Y-61917922D01*
X42384361Y-61797342D01*
X42439877Y-61656564D01*
X42450500Y-61568102D01*
X42450500Y-61431283D01*
X42470462Y-61356783D01*
X42525000Y-61302245D01*
X42599500Y-61282283D01*
X42674000Y-61302245D01*
X42728538Y-61356783D01*
X42732260Y-61363638D01*
X42733788Y-61366638D01*
X42733789Y-61366639D01*
X42816002Y-61527991D01*
X42816005Y-61527995D01*
X42816005Y-61527996D01*
X42845144Y-61568102D01*
X42922447Y-61674501D01*
X43050499Y-61802553D01*
X43197006Y-61908996D01*
X43358361Y-61991211D01*
X43530591Y-62047171D01*
X43709454Y-62075500D01*
X43709458Y-62075500D01*
X43890542Y-62075500D01*
X43890546Y-62075500D01*
X44069409Y-62047171D01*
X44241639Y-61991211D01*
X44402994Y-61908996D01*
X44549501Y-61802553D01*
X44677553Y-61674501D01*
X44783996Y-61527994D01*
X44866211Y-61366639D01*
X44908292Y-61237125D01*
X44950299Y-61172439D01*
X45019020Y-61137423D01*
X45096042Y-61141459D01*
X45160728Y-61183466D01*
X45191708Y-61237125D01*
X45233788Y-61366638D01*
X45261533Y-61421090D01*
X45316002Y-61527991D01*
X45316005Y-61527995D01*
X45316005Y-61527996D01*
X45345144Y-61568102D01*
X45422447Y-61674501D01*
X45550499Y-61802553D01*
X45697006Y-61908996D01*
X45858361Y-61991211D01*
X46030591Y-62047171D01*
X46209454Y-62075500D01*
X46209458Y-62075500D01*
X46390542Y-62075500D01*
X46390546Y-62075500D01*
X46569409Y-62047171D01*
X46741639Y-61991211D01*
X46902994Y-61908996D01*
X47049501Y-61802553D01*
X47177553Y-61674501D01*
X47283996Y-61527994D01*
X47366211Y-61366639D01*
X47422171Y-61194409D01*
X47450500Y-61015546D01*
X47450500Y-60584454D01*
X47422171Y-60405591D01*
X47366211Y-60233361D01*
X47283996Y-60072006D01*
X47254853Y-60031894D01*
X52349500Y-60031894D01*
X52349500Y-61568105D01*
X52360122Y-61656563D01*
X52415638Y-61797341D01*
X52500307Y-61908994D01*
X52507078Y-61917922D01*
X52627658Y-62009361D01*
X52768436Y-62064877D01*
X52856898Y-62075500D01*
X52856899Y-62075500D01*
X54143101Y-62075500D01*
X54143102Y-62075500D01*
X54231564Y-62064877D01*
X54372342Y-62009361D01*
X54492922Y-61917922D01*
X54584361Y-61797342D01*
X54639877Y-61656564D01*
X54650500Y-61568102D01*
X54650500Y-61431283D01*
X54670462Y-61356783D01*
X54725000Y-61302245D01*
X54799500Y-61282283D01*
X54874000Y-61302245D01*
X54928538Y-61356783D01*
X54932260Y-61363638D01*
X54933788Y-61366638D01*
X54933789Y-61366639D01*
X55016002Y-61527991D01*
X55016005Y-61527995D01*
X55016005Y-61527996D01*
X55045144Y-61568102D01*
X55122447Y-61674501D01*
X55250499Y-61802553D01*
X55397006Y-61908996D01*
X55558361Y-61991211D01*
X55730591Y-62047171D01*
X55909454Y-62075500D01*
X55909458Y-62075500D01*
X56090542Y-62075500D01*
X56090546Y-62075500D01*
X56269409Y-62047171D01*
X56441639Y-61991211D01*
X56602994Y-61908996D01*
X56749501Y-61802553D01*
X56877553Y-61674501D01*
X56983996Y-61527994D01*
X57005288Y-61486205D01*
X57056896Y-61428888D01*
X57130249Y-61405054D01*
X57205692Y-61421090D01*
X57263010Y-61472698D01*
X57270808Y-61486205D01*
X57345378Y-61632555D01*
X57345378Y-61632556D01*
X57470277Y-61804464D01*
X57470279Y-61804467D01*
X57620532Y-61954720D01*
X57620535Y-61954722D01*
X57792444Y-62079621D01*
X57981777Y-62176093D01*
X58183863Y-62241755D01*
X58183871Y-62241757D01*
X58250000Y-62252230D01*
X58250000Y-61204145D01*
X58316657Y-61242630D01*
X58437465Y-61275000D01*
X58562535Y-61275000D01*
X58683343Y-61242630D01*
X58750000Y-61204145D01*
X58750000Y-62252230D01*
X58816128Y-62241757D01*
X58816136Y-62241755D01*
X59018222Y-62176093D01*
X59207555Y-62079621D01*
X59207556Y-62079621D01*
X59379464Y-61954722D01*
X59379467Y-61954720D01*
X59529720Y-61804467D01*
X59529722Y-61804464D01*
X59654621Y-61632556D01*
X59654624Y-61632550D01*
X59729191Y-61486206D01*
X59780800Y-61428888D01*
X59854153Y-61405054D01*
X59929595Y-61421090D01*
X59986913Y-61472699D01*
X59994710Y-61486204D01*
X60016001Y-61527990D01*
X60016005Y-61527996D01*
X60045144Y-61568102D01*
X60122447Y-61674501D01*
X60250499Y-61802553D01*
X60397006Y-61908996D01*
X60558361Y-61991211D01*
X60730591Y-62047171D01*
X60909454Y-62075500D01*
X60909458Y-62075500D01*
X61090542Y-62075500D01*
X61090546Y-62075500D01*
X61269409Y-62047171D01*
X61441639Y-61991211D01*
X61602994Y-61908996D01*
X61749501Y-61802553D01*
X61877553Y-61674501D01*
X61983996Y-61527994D01*
X62066211Y-61366639D01*
X62108292Y-61237125D01*
X62150299Y-61172439D01*
X62219020Y-61137423D01*
X62296042Y-61141459D01*
X62360728Y-61183466D01*
X62391708Y-61237125D01*
X62433788Y-61366638D01*
X62461533Y-61421090D01*
X62516002Y-61527991D01*
X62516005Y-61527995D01*
X62516005Y-61527996D01*
X62545144Y-61568102D01*
X62622447Y-61674501D01*
X62750499Y-61802553D01*
X62897006Y-61908996D01*
X63058361Y-61991211D01*
X63230591Y-62047171D01*
X63409454Y-62075500D01*
X63409458Y-62075500D01*
X63590542Y-62075500D01*
X63590546Y-62075500D01*
X63769409Y-62047171D01*
X63941639Y-61991211D01*
X64102994Y-61908996D01*
X64249501Y-61802553D01*
X64377553Y-61674501D01*
X64483996Y-61527994D01*
X64560063Y-61378706D01*
X69649500Y-61378706D01*
X69649500Y-61621293D01*
X69681160Y-61861781D01*
X69681161Y-61861787D01*
X69681162Y-61861789D01*
X69743946Y-62096100D01*
X69836776Y-62320212D01*
X69958064Y-62530289D01*
X70105735Y-62722738D01*
X70277262Y-62894265D01*
X70469711Y-63041936D01*
X70679788Y-63163224D01*
X70903900Y-63256054D01*
X71138211Y-63318838D01*
X71138217Y-63318838D01*
X71138218Y-63318839D01*
X71203600Y-63327446D01*
X71378712Y-63350500D01*
X71621288Y-63350500D01*
X71861789Y-63318838D01*
X72096100Y-63256054D01*
X72320212Y-63163224D01*
X72530289Y-63041936D01*
X72722738Y-62894265D01*
X72894265Y-62722738D01*
X73041936Y-62530289D01*
X73163224Y-62320212D01*
X73256054Y-62096100D01*
X73318838Y-61861789D01*
X73350500Y-61621288D01*
X73350500Y-61378712D01*
X73318838Y-61138211D01*
X73256054Y-60903900D01*
X73163224Y-60679788D01*
X73041936Y-60469711D01*
X72894265Y-60277262D01*
X72722738Y-60105735D01*
X72530289Y-59958064D01*
X72460263Y-59917634D01*
X72320216Y-59836778D01*
X72320214Y-59836777D01*
X72320212Y-59836776D01*
X72188932Y-59782398D01*
X72096103Y-59743947D01*
X72096101Y-59743946D01*
X72096100Y-59743946D01*
X71861789Y-59681162D01*
X71861787Y-59681161D01*
X71861781Y-59681160D01*
X71621293Y-59649500D01*
X71621288Y-59649500D01*
X71378712Y-59649500D01*
X71378706Y-59649500D01*
X71138218Y-59681160D01*
X70903896Y-59743947D01*
X70679783Y-59836778D01*
X70469712Y-59958063D01*
X70398488Y-60012714D01*
X70277262Y-60105735D01*
X70277260Y-60105736D01*
X70277256Y-60105740D01*
X70105740Y-60277256D01*
X70105736Y-60277260D01*
X70105735Y-60277262D01*
X70044266Y-60357370D01*
X69958063Y-60469712D01*
X69836778Y-60679783D01*
X69743947Y-60903896D01*
X69681160Y-61138218D01*
X69649500Y-61378706D01*
X64560063Y-61378706D01*
X64566211Y-61366639D01*
X64622171Y-61194409D01*
X64650500Y-61015546D01*
X64650500Y-60584454D01*
X64622171Y-60405591D01*
X64566211Y-60233361D01*
X64483996Y-60072006D01*
X64377553Y-59925499D01*
X64249501Y-59797447D01*
X64102994Y-59691004D01*
X63941639Y-59608789D01*
X63769409Y-59552829D01*
X63590546Y-59524500D01*
X63409454Y-59524500D01*
X63230591Y-59552829D01*
X63058360Y-59608789D01*
X62897004Y-59691005D01*
X62897003Y-59691005D01*
X62750500Y-59797446D01*
X62750497Y-59797448D01*
X62622448Y-59925497D01*
X62622446Y-59925500D01*
X62516005Y-60072003D01*
X62516005Y-60072004D01*
X62433789Y-60233360D01*
X62391708Y-60362875D01*
X62349701Y-60427560D01*
X62280980Y-60462576D01*
X62203957Y-60458540D01*
X62139272Y-60416533D01*
X62108292Y-60362875D01*
X62093553Y-60317512D01*
X62066211Y-60233361D01*
X61983996Y-60072006D01*
X61877553Y-59925499D01*
X61749501Y-59797447D01*
X61602994Y-59691004D01*
X61441639Y-59608789D01*
X61269409Y-59552829D01*
X61090546Y-59524500D01*
X60909454Y-59524500D01*
X60730591Y-59552829D01*
X60558360Y-59608789D01*
X60397004Y-59691005D01*
X60397003Y-59691005D01*
X60250500Y-59797446D01*
X60250497Y-59797448D01*
X60122448Y-59925497D01*
X60122446Y-59925500D01*
X60016005Y-60072003D01*
X60016004Y-60072005D01*
X59994710Y-60113796D01*
X59943100Y-60171113D01*
X59869746Y-60194945D01*
X59794304Y-60178908D01*
X59736987Y-60127298D01*
X59729191Y-60113794D01*
X59654621Y-59967444D01*
X59654621Y-59967443D01*
X59529722Y-59795535D01*
X59529720Y-59795532D01*
X59379467Y-59645279D01*
X59379464Y-59645277D01*
X59207555Y-59520378D01*
X59018220Y-59423906D01*
X58816123Y-59358241D01*
X58816120Y-59358240D01*
X58750001Y-59347767D01*
X58750000Y-59347768D01*
X58750000Y-60395854D01*
X58683343Y-60357370D01*
X58562535Y-60325000D01*
X58437465Y-60325000D01*
X58316657Y-60357370D01*
X58250000Y-60395854D01*
X58250000Y-59347768D01*
X58249998Y-59347767D01*
X58183879Y-59358240D01*
X58183876Y-59358241D01*
X57981779Y-59423906D01*
X57792444Y-59520378D01*
X57792443Y-59520378D01*
X57620535Y-59645277D01*
X57620532Y-59645279D01*
X57470279Y-59795532D01*
X57470277Y-59795535D01*
X57345378Y-59967443D01*
X57345377Y-59967444D01*
X57270808Y-60113794D01*
X57219198Y-60171111D01*
X57145845Y-60194945D01*
X57070403Y-60178909D01*
X57013086Y-60127299D01*
X57005288Y-60113794D01*
X57001182Y-60105735D01*
X56983996Y-60072006D01*
X56877553Y-59925499D01*
X56749501Y-59797447D01*
X56602994Y-59691004D01*
X56441639Y-59608789D01*
X56269409Y-59552829D01*
X56090546Y-59524500D01*
X55909454Y-59524500D01*
X55730591Y-59552829D01*
X55558360Y-59608789D01*
X55397004Y-59691005D01*
X55397003Y-59691005D01*
X55250500Y-59797446D01*
X55250497Y-59797448D01*
X55122448Y-59925497D01*
X55122446Y-59925500D01*
X55016005Y-60072003D01*
X55016005Y-60072004D01*
X54932260Y-60236361D01*
X54880650Y-60293678D01*
X54807297Y-60317512D01*
X54731855Y-60301476D01*
X54674538Y-60249866D01*
X54650704Y-60176513D01*
X54650500Y-60168716D01*
X54650500Y-60031899D01*
X54650500Y-60031898D01*
X54639877Y-59943436D01*
X54584361Y-59802658D01*
X54492922Y-59682078D01*
X54492920Y-59682076D01*
X54396276Y-59608789D01*
X54372342Y-59590639D01*
X54372341Y-59590638D01*
X54231563Y-59535122D01*
X54143105Y-59524500D01*
X54143102Y-59524500D01*
X52856898Y-59524500D01*
X52856894Y-59524500D01*
X52768436Y-59535122D01*
X52627658Y-59590638D01*
X52627658Y-59590639D01*
X52507079Y-59682076D01*
X52507076Y-59682079D01*
X52415639Y-59802658D01*
X52415638Y-59802658D01*
X52360122Y-59943436D01*
X52349500Y-60031894D01*
X47254853Y-60031894D01*
X47177553Y-59925499D01*
X47049501Y-59797447D01*
X46902994Y-59691004D01*
X46741639Y-59608789D01*
X46569409Y-59552829D01*
X46390546Y-59524500D01*
X46209454Y-59524500D01*
X46030591Y-59552829D01*
X45858360Y-59608789D01*
X45697004Y-59691005D01*
X45697003Y-59691005D01*
X45550500Y-59797446D01*
X45550497Y-59797448D01*
X45422448Y-59925497D01*
X45422446Y-59925500D01*
X45316005Y-60072003D01*
X45316005Y-60072004D01*
X45233789Y-60233360D01*
X45191708Y-60362875D01*
X45149701Y-60427560D01*
X45080980Y-60462576D01*
X45003957Y-60458540D01*
X44939272Y-60416533D01*
X44908292Y-60362875D01*
X44893553Y-60317512D01*
X44866211Y-60233361D01*
X44783996Y-60072006D01*
X44677553Y-59925499D01*
X44549501Y-59797447D01*
X44402994Y-59691004D01*
X44241639Y-59608789D01*
X44069409Y-59552829D01*
X43890546Y-59524500D01*
X43709454Y-59524500D01*
X43530591Y-59552829D01*
X43358360Y-59608789D01*
X43197004Y-59691005D01*
X43197003Y-59691005D01*
X43050500Y-59797446D01*
X43050497Y-59797448D01*
X42922448Y-59925497D01*
X42922446Y-59925500D01*
X42816005Y-60072003D01*
X42816005Y-60072004D01*
X42732260Y-60236361D01*
X42680650Y-60293678D01*
X42607297Y-60317512D01*
X42531855Y-60301476D01*
X42474538Y-60249866D01*
X42450704Y-60176513D01*
X42450500Y-60168716D01*
X42450500Y-60031899D01*
X42450500Y-60031898D01*
X42439877Y-59943436D01*
X42384361Y-59802658D01*
X42292922Y-59682078D01*
X42292920Y-59682076D01*
X42196276Y-59608789D01*
X42172342Y-59590639D01*
X42172341Y-59590638D01*
X42031563Y-59535122D01*
X41943105Y-59524500D01*
X41943102Y-59524500D01*
X40656898Y-59524500D01*
X40656894Y-59524500D01*
X40568436Y-59535122D01*
X40427658Y-59590638D01*
X40427658Y-59590639D01*
X40307079Y-59682076D01*
X40307076Y-59682079D01*
X40215639Y-59802658D01*
X40215638Y-59802658D01*
X40160122Y-59943436D01*
X40149500Y-60031894D01*
X36154853Y-60031894D01*
X36077553Y-59925499D01*
X35949501Y-59797447D01*
X35802994Y-59691004D01*
X35641639Y-59608789D01*
X35469409Y-59552829D01*
X35290546Y-59524500D01*
X35109454Y-59524500D01*
X34930591Y-59552829D01*
X34758360Y-59608789D01*
X34597004Y-59691005D01*
X34597003Y-59691005D01*
X34450500Y-59797446D01*
X34450497Y-59797448D01*
X34322448Y-59925497D01*
X34322446Y-59925500D01*
X34216005Y-60072003D01*
X34216005Y-60072004D01*
X34133789Y-60233360D01*
X34091708Y-60362875D01*
X34049701Y-60427560D01*
X33980980Y-60462576D01*
X33903957Y-60458540D01*
X33839272Y-60416533D01*
X33808292Y-60362875D01*
X33793553Y-60317512D01*
X33766211Y-60233361D01*
X33683996Y-60072006D01*
X33577553Y-59925499D01*
X33449501Y-59797447D01*
X33302994Y-59691004D01*
X33141639Y-59608789D01*
X32969409Y-59552829D01*
X32790546Y-59524500D01*
X32609454Y-59524500D01*
X32430591Y-59552829D01*
X32258360Y-59608789D01*
X32097004Y-59691005D01*
X32097003Y-59691005D01*
X31950500Y-59797446D01*
X31950497Y-59797448D01*
X31822448Y-59925497D01*
X31822446Y-59925500D01*
X31716005Y-60072003D01*
X31716005Y-60072004D01*
X31632260Y-60236361D01*
X31580650Y-60293678D01*
X31507297Y-60317512D01*
X31431855Y-60301476D01*
X31374538Y-60249866D01*
X31350704Y-60176513D01*
X31350500Y-60168716D01*
X31350500Y-60031899D01*
X31350500Y-60031898D01*
X31339877Y-59943436D01*
X31284361Y-59802658D01*
X31192922Y-59682078D01*
X31192920Y-59682076D01*
X31096276Y-59608789D01*
X31072342Y-59590639D01*
X31072341Y-59590638D01*
X30931563Y-59535122D01*
X30843105Y-59524500D01*
X30843102Y-59524500D01*
X29556898Y-59524500D01*
X29556894Y-59524500D01*
X29468436Y-59535122D01*
X29327658Y-59590638D01*
X29327658Y-59590639D01*
X29207079Y-59682076D01*
X29207076Y-59682079D01*
X29115639Y-59802658D01*
X29115638Y-59802658D01*
X29060122Y-59943436D01*
X29049500Y-60031894D01*
X24626506Y-60031894D01*
X24530289Y-59958064D01*
X24460263Y-59917634D01*
X24320216Y-59836778D01*
X24320214Y-59836777D01*
X24320212Y-59836776D01*
X24188932Y-59782398D01*
X24096103Y-59743947D01*
X24096101Y-59743946D01*
X24096100Y-59743946D01*
X23861789Y-59681162D01*
X23861787Y-59681161D01*
X23861781Y-59681160D01*
X23621293Y-59649500D01*
X23621288Y-59649500D01*
X23378712Y-59649500D01*
X23378706Y-59649500D01*
X23138218Y-59681160D01*
X22903896Y-59743947D01*
X22679783Y-59836778D01*
X22469712Y-59958063D01*
X22398488Y-60012714D01*
X22277262Y-60105735D01*
X22277260Y-60105736D01*
X22277256Y-60105740D01*
X22105740Y-60277256D01*
X22105736Y-60277260D01*
X22105735Y-60277262D01*
X22044266Y-60357370D01*
X21958063Y-60469712D01*
X21836778Y-60679783D01*
X21743947Y-60903896D01*
X21681160Y-61138218D01*
X21649500Y-61378706D01*
X20300500Y-61378706D01*
X20300500Y-53320941D01*
X55899500Y-53320941D01*
X55899500Y-53320943D01*
X55899500Y-53479057D01*
X55940423Y-53631784D01*
X55940424Y-53631785D01*
X56019480Y-53768716D01*
X56030859Y-53780095D01*
X56069423Y-53846890D01*
X56074500Y-53885454D01*
X56074500Y-54443982D01*
X56074500Y-54556018D01*
X56103497Y-54664237D01*
X56103498Y-54664238D01*
X56159512Y-54761259D01*
X56159513Y-54761260D01*
X56159515Y-54761263D01*
X56355860Y-54957608D01*
X56394423Y-55024401D01*
X56399500Y-55062965D01*
X56399500Y-55079057D01*
X56440423Y-55231784D01*
X56519480Y-55368716D01*
X56631284Y-55480520D01*
X56768216Y-55559577D01*
X56920943Y-55600500D01*
X57079057Y-55600500D01*
X57231784Y-55559577D01*
X57368716Y-55480520D01*
X57480520Y-55368716D01*
X57559577Y-55231784D01*
X57600500Y-55079057D01*
X57600500Y-54920943D01*
X57559577Y-54768216D01*
X57480520Y-54631284D01*
X57368716Y-54519480D01*
X57231784Y-54440423D01*
X57079057Y-54399500D01*
X57074500Y-54399500D01*
X57070100Y-54398321D01*
X57069378Y-54398226D01*
X57069390Y-54398130D01*
X57000000Y-54379538D01*
X56945462Y-54325000D01*
X56925500Y-54250500D01*
X56925500Y-53885454D01*
X56945462Y-53810954D01*
X56969141Y-53780095D01*
X56980520Y-53768716D01*
X57059577Y-53631784D01*
X57100500Y-53479057D01*
X57100500Y-53320943D01*
X57059577Y-53168216D01*
X56980520Y-53031284D01*
X56868716Y-52919480D01*
X56731784Y-52840423D01*
X56579057Y-52799500D01*
X56420943Y-52799500D01*
X56268216Y-52840423D01*
X56268214Y-52840423D01*
X56268214Y-52840424D01*
X56131283Y-52919480D01*
X56019480Y-53031283D01*
X55940424Y-53168214D01*
X55899500Y-53320941D01*
X20300500Y-53320941D01*
X20300500Y-47920941D01*
X24099500Y-47920941D01*
X24099500Y-47920943D01*
X24099500Y-48079057D01*
X24140423Y-48231784D01*
X24219480Y-48368716D01*
X24331284Y-48480520D01*
X24468216Y-48559577D01*
X24620943Y-48600500D01*
X24779057Y-48600500D01*
X24931784Y-48559577D01*
X24931786Y-48559575D01*
X24941216Y-48557049D01*
X24941681Y-48558784D01*
X24983335Y-48550500D01*
X26816665Y-48550500D01*
X26858318Y-48558784D01*
X26858784Y-48557049D01*
X26868213Y-48559575D01*
X26868216Y-48559577D01*
X27020943Y-48600500D01*
X27179057Y-48600500D01*
X27331784Y-48559577D01*
X27468716Y-48480520D01*
X27580520Y-48368716D01*
X27659577Y-48231784D01*
X27700500Y-48079057D01*
X27700500Y-47920943D01*
X27659577Y-47768216D01*
X27580520Y-47631284D01*
X27468716Y-47519480D01*
X27331784Y-47440423D01*
X27179057Y-47399500D01*
X27020943Y-47399500D01*
X26868216Y-47440423D01*
X26868213Y-47440424D01*
X26858784Y-47442951D01*
X26858318Y-47441215D01*
X26816665Y-47449500D01*
X24983335Y-47449500D01*
X24941681Y-47441215D01*
X24941216Y-47442951D01*
X24931786Y-47440424D01*
X24931784Y-47440423D01*
X24779057Y-47399500D01*
X24620943Y-47399500D01*
X24468216Y-47440423D01*
X24468214Y-47440423D01*
X24468214Y-47440424D01*
X24331283Y-47519480D01*
X24219480Y-47631283D01*
X24140424Y-47768214D01*
X24099500Y-47920941D01*
X20300500Y-47920941D01*
X20300500Y-45420941D01*
X35499500Y-45420941D01*
X35499500Y-45420943D01*
X35499500Y-45579057D01*
X35540423Y-45731784D01*
X35619480Y-45868716D01*
X35731284Y-45980520D01*
X35826901Y-46035724D01*
X35876674Y-46064460D01*
X35875774Y-46066018D01*
X35911085Y-46089610D01*
X36610390Y-46788915D01*
X36633985Y-46824225D01*
X36635541Y-46823328D01*
X36640422Y-46831783D01*
X36640423Y-46831784D01*
X36719480Y-46968716D01*
X36831284Y-47080520D01*
X36968216Y-47159577D01*
X37120943Y-47200500D01*
X37279057Y-47200500D01*
X37431784Y-47159577D01*
X37568716Y-47080520D01*
X37680520Y-46968716D01*
X37759577Y-46831784D01*
X37800500Y-46679057D01*
X37800500Y-46520943D01*
X37759577Y-46368216D01*
X37680520Y-46231284D01*
X37568716Y-46119480D01*
X37568715Y-46119479D01*
X37423328Y-46035541D01*
X37424225Y-46033985D01*
X37388915Y-46010390D01*
X36689610Y-45311085D01*
X36666018Y-45275774D01*
X36664460Y-45276674D01*
X36580519Y-45131283D01*
X36468716Y-45019480D01*
X36463840Y-45016665D01*
X36331784Y-44940423D01*
X36179057Y-44899500D01*
X36020943Y-44899500D01*
X35868216Y-44940423D01*
X35868214Y-44940423D01*
X35868214Y-44940424D01*
X35731283Y-45019480D01*
X35619480Y-45131283D01*
X35540424Y-45268214D01*
X35499500Y-45420941D01*
X20300500Y-45420941D01*
X20300500Y-40520941D01*
X24099500Y-40520941D01*
X24099500Y-40679058D01*
X24110465Y-40719981D01*
X24140423Y-40831784D01*
X24219480Y-40968716D01*
X24331284Y-41080520D01*
X24468216Y-41159577D01*
X24476674Y-41164460D01*
X24475774Y-41166018D01*
X24511085Y-41189610D01*
X26510388Y-43188912D01*
X26533985Y-43224223D01*
X26535540Y-43223326D01*
X26540422Y-43231783D01*
X26540423Y-43231784D01*
X26619480Y-43368716D01*
X26731284Y-43480520D01*
X26868216Y-43559577D01*
X27020943Y-43600500D01*
X27179057Y-43600500D01*
X27179063Y-43600499D01*
X27211934Y-43591691D01*
X27289062Y-43591690D01*
X27355858Y-43630253D01*
X27394422Y-43697047D01*
X27399500Y-43735613D01*
X27399500Y-43879057D01*
X27440423Y-44031784D01*
X27519480Y-44168716D01*
X27631284Y-44280520D01*
X27768216Y-44359577D01*
X27920943Y-44400500D01*
X28079057Y-44400500D01*
X28231784Y-44359577D01*
X28368716Y-44280520D01*
X28480520Y-44168716D01*
X28559577Y-44031784D01*
X28600500Y-43879057D01*
X28600500Y-43720943D01*
X28559577Y-43568216D01*
X28559575Y-43568213D01*
X28557049Y-43558784D01*
X28558784Y-43558318D01*
X28550500Y-43516665D01*
X28550500Y-43120941D01*
X36699500Y-43120941D01*
X36699500Y-43279058D01*
X36703331Y-43293354D01*
X36740423Y-43431784D01*
X36819480Y-43568716D01*
X36931284Y-43680520D01*
X37026709Y-43735613D01*
X37076674Y-43764460D01*
X37075774Y-43766018D01*
X37111085Y-43789610D01*
X37905859Y-44584384D01*
X37944423Y-44651179D01*
X37949500Y-44689743D01*
X37949500Y-45016665D01*
X37941215Y-45058318D01*
X37942951Y-45058784D01*
X37940424Y-45068213D01*
X37940423Y-45068216D01*
X37923524Y-45131283D01*
X37899500Y-45220941D01*
X37899500Y-45220943D01*
X37899500Y-45379057D01*
X37940423Y-45531784D01*
X38019480Y-45668716D01*
X38131284Y-45780520D01*
X38268216Y-45859577D01*
X38420943Y-45900500D01*
X38579057Y-45900500D01*
X38731784Y-45859577D01*
X38868716Y-45780520D01*
X38980520Y-45668716D01*
X39059577Y-45531784D01*
X39100500Y-45379057D01*
X39100500Y-45220943D01*
X39059577Y-45068216D01*
X39059575Y-45068213D01*
X39057049Y-45058784D01*
X39058784Y-45058318D01*
X39050500Y-45016665D01*
X39050500Y-44327525D01*
X39012984Y-44187515D01*
X39012982Y-44187512D01*
X39012982Y-44187510D01*
X39012981Y-44187507D01*
X39006691Y-44176613D01*
X39006691Y-44176614D01*
X38940509Y-44061984D01*
X38699466Y-43820941D01*
X40899500Y-43820941D01*
X40899500Y-43820943D01*
X40899500Y-43979057D01*
X40940423Y-44131784D01*
X41019480Y-44268716D01*
X41131284Y-44380520D01*
X41268216Y-44459577D01*
X41420943Y-44500500D01*
X41579057Y-44500500D01*
X41731784Y-44459577D01*
X41868716Y-44380520D01*
X41880095Y-44369141D01*
X41946890Y-44330577D01*
X41985454Y-44325500D01*
X47914546Y-44325500D01*
X47989046Y-44345462D01*
X48019905Y-44369141D01*
X48031284Y-44380520D01*
X48168216Y-44459577D01*
X48320943Y-44500500D01*
X48479057Y-44500500D01*
X48631784Y-44459577D01*
X48768716Y-44380520D01*
X48880520Y-44268716D01*
X48959577Y-44131784D01*
X49000500Y-43979057D01*
X49000500Y-43820943D01*
X48959577Y-43668216D01*
X48880520Y-43531284D01*
X48768716Y-43419480D01*
X48631784Y-43340423D01*
X48479057Y-43299500D01*
X48320943Y-43299500D01*
X48168216Y-43340423D01*
X48168214Y-43340423D01*
X48168214Y-43340424D01*
X48031283Y-43419480D01*
X48019905Y-43430859D01*
X47953110Y-43469423D01*
X47914546Y-43474500D01*
X44115517Y-43474500D01*
X44041017Y-43454538D01*
X43986479Y-43400000D01*
X43966517Y-43325500D01*
X43971594Y-43286936D01*
X43988638Y-43223326D01*
X44000500Y-43179057D01*
X44000500Y-43020943D01*
X43959577Y-42868216D01*
X43880520Y-42731284D01*
X43768716Y-42619480D01*
X43631784Y-42540423D01*
X43479057Y-42499500D01*
X43320943Y-42499500D01*
X43168216Y-42540423D01*
X43168214Y-42540423D01*
X43168214Y-42540424D01*
X43031283Y-42619480D01*
X43019905Y-42630859D01*
X42953110Y-42669423D01*
X42914546Y-42674500D01*
X42285454Y-42674500D01*
X42210954Y-42654538D01*
X42180095Y-42630859D01*
X42168716Y-42619480D01*
X42031784Y-42540423D01*
X41879057Y-42499500D01*
X41720943Y-42499500D01*
X41568216Y-42540423D01*
X41568214Y-42540423D01*
X41568214Y-42540424D01*
X41431283Y-42619480D01*
X41319480Y-42731283D01*
X41240424Y-42868214D01*
X41240423Y-42868216D01*
X41232490Y-42897822D01*
X41199500Y-43020941D01*
X41199500Y-43179063D01*
X41216559Y-43242727D01*
X41216559Y-43319855D01*
X41177994Y-43386650D01*
X41147138Y-43410326D01*
X41131291Y-43419475D01*
X41131278Y-43419485D01*
X41019482Y-43531280D01*
X40998157Y-43568216D01*
X40940423Y-43668216D01*
X40926295Y-43720943D01*
X40899500Y-43820941D01*
X38699466Y-43820941D01*
X37889610Y-43011085D01*
X37866018Y-42975774D01*
X37864460Y-42976674D01*
X37807232Y-42877551D01*
X37780520Y-42831284D01*
X37668716Y-42719480D01*
X37531784Y-42640423D01*
X37379057Y-42599500D01*
X37220943Y-42599500D01*
X37068216Y-42640423D01*
X37068214Y-42640423D01*
X37068214Y-42640424D01*
X36931283Y-42719480D01*
X36819480Y-42831283D01*
X36781053Y-42897842D01*
X36740423Y-42968216D01*
X36726295Y-43020943D01*
X36699500Y-43120941D01*
X28550500Y-43120941D01*
X28550500Y-42627525D01*
X28512984Y-42487515D01*
X28440510Y-42361985D01*
X28194141Y-42115616D01*
X28155577Y-42048821D01*
X28150500Y-42010257D01*
X28150500Y-41909454D01*
X56769500Y-41909454D01*
X56769500Y-42090546D01*
X56797829Y-42269409D01*
X56853789Y-42441639D01*
X56904122Y-42540423D01*
X56936005Y-42602995D01*
X56936005Y-42602996D01*
X56973453Y-42654538D01*
X57042447Y-42749501D01*
X57170499Y-42877553D01*
X57317006Y-42983996D01*
X57478361Y-43066211D01*
X57650591Y-43122171D01*
X57829454Y-43150500D01*
X57829458Y-43150500D01*
X58010545Y-43150500D01*
X58010546Y-43150500D01*
X58020671Y-43148896D01*
X58097375Y-43156954D01*
X58159775Y-43202286D01*
X58191149Y-43272744D01*
X58183091Y-43349450D01*
X58149345Y-43401417D01*
X58119482Y-43431280D01*
X58040424Y-43568214D01*
X57999500Y-43720941D01*
X57999500Y-43720943D01*
X57999500Y-43879057D01*
X58040423Y-44031784D01*
X58119480Y-44168716D01*
X58231284Y-44280520D01*
X58368216Y-44359577D01*
X58520943Y-44400500D01*
X58679057Y-44400500D01*
X58831784Y-44359577D01*
X58968716Y-44280520D01*
X59080520Y-44168716D01*
X59159577Y-44031784D01*
X59200500Y-43879057D01*
X59200500Y-43862965D01*
X59220462Y-43788465D01*
X59244137Y-43757610D01*
X59891286Y-43110460D01*
X59958079Y-43071898D01*
X60035207Y-43071898D01*
X60042656Y-43074105D01*
X60152588Y-43109823D01*
X60190587Y-43122170D01*
X60190588Y-43122170D01*
X60190591Y-43122171D01*
X60369454Y-43150500D01*
X60369458Y-43150500D01*
X60550542Y-43150500D01*
X60550546Y-43150500D01*
X60729409Y-43122171D01*
X60901639Y-43066211D01*
X61062994Y-42983996D01*
X61209501Y-42877553D01*
X61337553Y-42749501D01*
X61380456Y-42690450D01*
X61440395Y-42641911D01*
X61516574Y-42629845D01*
X61588579Y-42657485D01*
X61637118Y-42717424D01*
X61650000Y-42778029D01*
X61650000Y-42897822D01*
X61650001Y-42897842D01*
X61656401Y-42957377D01*
X61706645Y-43092084D01*
X61706650Y-43092094D01*
X61792809Y-43207187D01*
X61792812Y-43207190D01*
X61907905Y-43293349D01*
X61907915Y-43293354D01*
X62042623Y-43343598D01*
X62042621Y-43343598D01*
X62102157Y-43349998D01*
X62102177Y-43350000D01*
X62750000Y-43350000D01*
X62750000Y-42433012D01*
X62807007Y-42465925D01*
X62934174Y-42500000D01*
X63065826Y-42500000D01*
X63192993Y-42465925D01*
X63250000Y-42433012D01*
X63250000Y-43350000D01*
X63897823Y-43350000D01*
X63897842Y-43349998D01*
X63957377Y-43343598D01*
X64092084Y-43293354D01*
X64092094Y-43293349D01*
X64207187Y-43207190D01*
X64207190Y-43207187D01*
X64293349Y-43092094D01*
X64293354Y-43092084D01*
X64343598Y-42957377D01*
X64349998Y-42897842D01*
X64350000Y-42897822D01*
X64350000Y-42250000D01*
X63433012Y-42250000D01*
X63465925Y-42192993D01*
X63500000Y-42065826D01*
X63500000Y-41934174D01*
X63465925Y-41807007D01*
X63433012Y-41750000D01*
X64350000Y-41750000D01*
X64350000Y-41102177D01*
X64349998Y-41102157D01*
X64343598Y-41042622D01*
X64293354Y-40907915D01*
X64293349Y-40907905D01*
X64207190Y-40792812D01*
X64207187Y-40792809D01*
X64092094Y-40706650D01*
X64092084Y-40706645D01*
X63957376Y-40656401D01*
X63957378Y-40656401D01*
X63897842Y-40650001D01*
X63897823Y-40650000D01*
X63250000Y-40650000D01*
X63250000Y-41566988D01*
X63192993Y-41534075D01*
X63065826Y-41500000D01*
X62934174Y-41500000D01*
X62807007Y-41534075D01*
X62750000Y-41566988D01*
X62750000Y-40650000D01*
X62102177Y-40650000D01*
X62102157Y-40650001D01*
X62042622Y-40656401D01*
X61907915Y-40706645D01*
X61907905Y-40706650D01*
X61792812Y-40792809D01*
X61792809Y-40792812D01*
X61706650Y-40907905D01*
X61706645Y-40907915D01*
X61656401Y-41042622D01*
X61650001Y-41102157D01*
X61650000Y-41102177D01*
X61650000Y-41221970D01*
X61630038Y-41296470D01*
X61575500Y-41351008D01*
X61501000Y-41370970D01*
X61426500Y-41351008D01*
X61380456Y-41309550D01*
X61370953Y-41296470D01*
X61337553Y-41250499D01*
X61209501Y-41122447D01*
X61062994Y-41016004D01*
X60901639Y-40933789D01*
X60729409Y-40877829D01*
X60550546Y-40849500D01*
X60369454Y-40849500D01*
X60190591Y-40877829D01*
X60018360Y-40933789D01*
X59857004Y-41016005D01*
X59857003Y-41016005D01*
X59710500Y-41122446D01*
X59710497Y-41122448D01*
X59582448Y-41250497D01*
X59582446Y-41250500D01*
X59476005Y-41397003D01*
X59476005Y-41397004D01*
X59393789Y-41558360D01*
X59337827Y-41730595D01*
X59337165Y-41734779D01*
X59305794Y-41805238D01*
X59243396Y-41850573D01*
X59166690Y-41858634D01*
X59096231Y-41827263D01*
X59050896Y-41764865D01*
X59042835Y-41734779D01*
X59042172Y-41730595D01*
X59042171Y-41730591D01*
X58986211Y-41558361D01*
X58903996Y-41397006D01*
X58797553Y-41250499D01*
X58669501Y-41122447D01*
X58522994Y-41016004D01*
X58361639Y-40933789D01*
X58189409Y-40877829D01*
X58010546Y-40849500D01*
X57829454Y-40849500D01*
X57650591Y-40877829D01*
X57478360Y-40933789D01*
X57317004Y-41016005D01*
X57317003Y-41016005D01*
X57170500Y-41122446D01*
X57170497Y-41122448D01*
X57042448Y-41250497D01*
X57042446Y-41250500D01*
X56936005Y-41397003D01*
X56936005Y-41397004D01*
X56853789Y-41558360D01*
X56853789Y-41558361D01*
X56797829Y-41730591D01*
X56769500Y-41909454D01*
X28150500Y-41909454D01*
X28150500Y-41183335D01*
X28158786Y-41141683D01*
X28157049Y-41141218D01*
X28159577Y-41131784D01*
X28200500Y-40979057D01*
X28200500Y-40820943D01*
X28159577Y-40668216D01*
X28080520Y-40531284D01*
X27968716Y-40419480D01*
X27831784Y-40340423D01*
X27679057Y-40299500D01*
X27520943Y-40299500D01*
X27368216Y-40340423D01*
X27368214Y-40340423D01*
X27368214Y-40340424D01*
X27231283Y-40419480D01*
X27119480Y-40531283D01*
X27050940Y-40650000D01*
X27040423Y-40668216D01*
X27030337Y-40705859D01*
X26999500Y-40820941D01*
X26999500Y-40979060D01*
X27042951Y-41141218D01*
X27041213Y-41141683D01*
X27049500Y-41183335D01*
X27049500Y-41811257D01*
X27029538Y-41885757D01*
X26975000Y-41940295D01*
X26900500Y-41960257D01*
X26826000Y-41940295D01*
X26795141Y-41916616D01*
X25289610Y-40411085D01*
X25266018Y-40375774D01*
X25264460Y-40376674D01*
X25180519Y-40231283D01*
X25068716Y-40119480D01*
X24931784Y-40040423D01*
X24779057Y-39999500D01*
X24620943Y-39999500D01*
X24468216Y-40040423D01*
X24468214Y-40040423D01*
X24468214Y-40040424D01*
X24331283Y-40119480D01*
X24219480Y-40231283D01*
X24140424Y-40368214D01*
X24099500Y-40520941D01*
X20300500Y-40520941D01*
X20300500Y-37820941D01*
X35899500Y-37820941D01*
X35899500Y-37820943D01*
X35899500Y-37979057D01*
X35940423Y-38131784D01*
X36019480Y-38268716D01*
X36131284Y-38380520D01*
X36268216Y-38459577D01*
X36276674Y-38464460D01*
X36275774Y-38466018D01*
X36311085Y-38489610D01*
X39561985Y-41740510D01*
X39642537Y-41787016D01*
X39687515Y-41812984D01*
X39827525Y-41850500D01*
X39827526Y-41850500D01*
X39972474Y-41850500D01*
X41716665Y-41850500D01*
X41758318Y-41858784D01*
X41758784Y-41857049D01*
X41768213Y-41859575D01*
X41768216Y-41859577D01*
X41920943Y-41900500D01*
X42079057Y-41900500D01*
X42231784Y-41859577D01*
X42368716Y-41780520D01*
X42480520Y-41668716D01*
X42559577Y-41531784D01*
X42600500Y-41379057D01*
X42600500Y-41220943D01*
X42559577Y-41068216D01*
X42480520Y-40931284D01*
X42368716Y-40819480D01*
X42231784Y-40740423D01*
X42079057Y-40699500D01*
X41920943Y-40699500D01*
X41768216Y-40740423D01*
X41768213Y-40740424D01*
X41758784Y-40742951D01*
X41758318Y-40741215D01*
X41716665Y-40749500D01*
X40189743Y-40749500D01*
X40115243Y-40729538D01*
X40084384Y-40705859D01*
X37089610Y-37711085D01*
X37066018Y-37675774D01*
X37064460Y-37676674D01*
X37059576Y-37668214D01*
X36980520Y-37531284D01*
X36868716Y-37419480D01*
X36731784Y-37340423D01*
X36579057Y-37299500D01*
X36420943Y-37299500D01*
X36268216Y-37340423D01*
X36268214Y-37340423D01*
X36268214Y-37340424D01*
X36131283Y-37419480D01*
X36019480Y-37531283D01*
X35940424Y-37668214D01*
X35899500Y-37820941D01*
X20300500Y-37820941D01*
X20300500Y-31920941D01*
X26099500Y-31920941D01*
X26099500Y-31920943D01*
X26099500Y-32079057D01*
X26140423Y-32231784D01*
X26219480Y-32368716D01*
X26331284Y-32480520D01*
X26468216Y-32559577D01*
X26476674Y-32564460D01*
X26475774Y-32566018D01*
X26511085Y-32589610D01*
X28561985Y-34640510D01*
X28687515Y-34712984D01*
X28827525Y-34750500D01*
X28827526Y-34750500D01*
X28900500Y-34750500D01*
X28975000Y-34770462D01*
X29029538Y-34825000D01*
X29049500Y-34899500D01*
X29049500Y-35516665D01*
X29041215Y-35558318D01*
X29042951Y-35558784D01*
X29040424Y-35568213D01*
X29040423Y-35568216D01*
X29018220Y-35651076D01*
X28999500Y-35720941D01*
X28999500Y-35720943D01*
X28999500Y-35879057D01*
X29040423Y-36031784D01*
X29040424Y-36031785D01*
X29119480Y-36168716D01*
X29145905Y-36195141D01*
X29184469Y-36261936D01*
X29184469Y-36339064D01*
X29145905Y-36405859D01*
X29079110Y-36444423D01*
X29040546Y-36449500D01*
X28383335Y-36449500D01*
X28341681Y-36441215D01*
X28341216Y-36442951D01*
X28331786Y-36440424D01*
X28331784Y-36440423D01*
X28179057Y-36399500D01*
X28020943Y-36399500D01*
X27868216Y-36440423D01*
X27868214Y-36440423D01*
X27868214Y-36440424D01*
X27731283Y-36519480D01*
X27619480Y-36631283D01*
X27540424Y-36768214D01*
X27499500Y-36920941D01*
X27499500Y-36920943D01*
X27499500Y-37079057D01*
X27540423Y-37231784D01*
X27619480Y-37368716D01*
X27731284Y-37480520D01*
X27868216Y-37559577D01*
X28020943Y-37600500D01*
X28179057Y-37600500D01*
X28331784Y-37559577D01*
X28331786Y-37559575D01*
X28341216Y-37557049D01*
X28341681Y-37558784D01*
X28383335Y-37550500D01*
X31216665Y-37550500D01*
X31258318Y-37558784D01*
X31258784Y-37557049D01*
X31268213Y-37559575D01*
X31268216Y-37559577D01*
X31420943Y-37600500D01*
X31579057Y-37600500D01*
X31731784Y-37559577D01*
X31868716Y-37480520D01*
X31980520Y-37368716D01*
X32059577Y-37231784D01*
X32100500Y-37079057D01*
X32100500Y-36920943D01*
X32059577Y-36768216D01*
X31980520Y-36631284D01*
X31868716Y-36519480D01*
X31731784Y-36440423D01*
X31579057Y-36399500D01*
X31420943Y-36399500D01*
X31268216Y-36440423D01*
X31268213Y-36440424D01*
X31258784Y-36442951D01*
X31258318Y-36441215D01*
X31216665Y-36449500D01*
X30159454Y-36449500D01*
X30084954Y-36429538D01*
X30030416Y-36375000D01*
X30010454Y-36300500D01*
X30030416Y-36226000D01*
X30054095Y-36195141D01*
X30080520Y-36168716D01*
X30159577Y-36031784D01*
X30200500Y-35879057D01*
X30200500Y-35720943D01*
X30159577Y-35568216D01*
X30159575Y-35568213D01*
X30157049Y-35558784D01*
X30158784Y-35558318D01*
X30150500Y-35516665D01*
X30150500Y-34483335D01*
X30158786Y-34441683D01*
X30157049Y-34441218D01*
X30200499Y-34279060D01*
X30200500Y-34279056D01*
X30200500Y-34120943D01*
X30200499Y-34120941D01*
X30159577Y-33968216D01*
X30080520Y-33831284D01*
X29968716Y-33719480D01*
X29831784Y-33640423D01*
X29679057Y-33599500D01*
X29520943Y-33599500D01*
X29368216Y-33640423D01*
X29368213Y-33640424D01*
X29358784Y-33642951D01*
X29358318Y-33641215D01*
X29316665Y-33649500D01*
X29189743Y-33649500D01*
X29115243Y-33629538D01*
X29084384Y-33605859D01*
X27289610Y-31811085D01*
X27266018Y-31775774D01*
X27264460Y-31776674D01*
X27180519Y-31631283D01*
X27068716Y-31519480D01*
X26931784Y-31440423D01*
X26779057Y-31399500D01*
X26620943Y-31399500D01*
X26468216Y-31440423D01*
X26468214Y-31440423D01*
X26468214Y-31440424D01*
X26331283Y-31519480D01*
X26219480Y-31631283D01*
X26140424Y-31768214D01*
X26099500Y-31920941D01*
X20300500Y-31920941D01*
X20300500Y-23378706D01*
X21649500Y-23378706D01*
X21649500Y-23621293D01*
X21681160Y-23861781D01*
X21681161Y-23861787D01*
X21681162Y-23861789D01*
X21743946Y-24096100D01*
X21836776Y-24320212D01*
X21958064Y-24530289D01*
X22105735Y-24722738D01*
X22277262Y-24894265D01*
X22469711Y-25041936D01*
X22679788Y-25163224D01*
X22903900Y-25256054D01*
X23138211Y-25318838D01*
X23138217Y-25318838D01*
X23138218Y-25318839D01*
X23203600Y-25327446D01*
X23378712Y-25350500D01*
X23621288Y-25350500D01*
X23861789Y-25318838D01*
X24096100Y-25256054D01*
X24320212Y-25163224D01*
X24530289Y-25041936D01*
X24722738Y-24894265D01*
X24894265Y-24722738D01*
X25041936Y-24530289D01*
X25163224Y-24320212D01*
X25256054Y-24096100D01*
X25318838Y-23861789D01*
X25350500Y-23621288D01*
X25350500Y-23431894D01*
X29049500Y-23431894D01*
X29049500Y-24968105D01*
X29060122Y-25056563D01*
X29115638Y-25197341D01*
X29200307Y-25308994D01*
X29207078Y-25317922D01*
X29327658Y-25409361D01*
X29468436Y-25464877D01*
X29556898Y-25475500D01*
X30251347Y-25475500D01*
X30325847Y-25495462D01*
X30380385Y-25550000D01*
X30400347Y-25624500D01*
X30380385Y-25698998D01*
X30367716Y-25720943D01*
X30340424Y-25768214D01*
X30299500Y-25920941D01*
X30299500Y-25920943D01*
X30299500Y-26079057D01*
X30340423Y-26231784D01*
X30419480Y-26368716D01*
X30531284Y-26480520D01*
X30668216Y-26559577D01*
X30820943Y-26600500D01*
X30979057Y-26600500D01*
X31131784Y-26559577D01*
X31268716Y-26480520D01*
X31380520Y-26368716D01*
X31459577Y-26231784D01*
X31459577Y-26231783D01*
X31464460Y-26223326D01*
X31466018Y-26224225D01*
X31489607Y-26188916D01*
X32215651Y-25462872D01*
X32282444Y-25424310D01*
X32359572Y-25424310D01*
X32367043Y-25426523D01*
X32396230Y-25436006D01*
X32430587Y-25447170D01*
X32430588Y-25447170D01*
X32430591Y-25447171D01*
X32609454Y-25475500D01*
X32609458Y-25475500D01*
X32790542Y-25475500D01*
X32790546Y-25475500D01*
X32969409Y-25447171D01*
X33141639Y-25391211D01*
X33302994Y-25308996D01*
X33449501Y-25202553D01*
X33577553Y-25074501D01*
X33683996Y-24927994D01*
X33766211Y-24766639D01*
X33808292Y-24637125D01*
X33850299Y-24572439D01*
X33919020Y-24537423D01*
X33996042Y-24541459D01*
X34060728Y-24583466D01*
X34091708Y-24637125D01*
X34133788Y-24766638D01*
X34216005Y-24927995D01*
X34216005Y-24927996D01*
X34245144Y-24968102D01*
X34322447Y-25074501D01*
X34450499Y-25202553D01*
X34597006Y-25308996D01*
X34758361Y-25391211D01*
X34930591Y-25447171D01*
X35109454Y-25475500D01*
X35109458Y-25475500D01*
X35290542Y-25475500D01*
X35290546Y-25475500D01*
X35469409Y-25447171D01*
X35641639Y-25391211D01*
X35802994Y-25308996D01*
X35949501Y-25202553D01*
X36077553Y-25074501D01*
X36183996Y-24927994D01*
X36266211Y-24766639D01*
X36322171Y-24594409D01*
X36350500Y-24415546D01*
X36350500Y-23984454D01*
X36322171Y-23805591D01*
X36266211Y-23633361D01*
X36183996Y-23472006D01*
X36077553Y-23325499D01*
X35949501Y-23197447D01*
X35802994Y-23091004D01*
X35641639Y-23008789D01*
X35469409Y-22952829D01*
X35290546Y-22924500D01*
X35113742Y-22924500D01*
X35094794Y-22919423D01*
X35075178Y-22919423D01*
X35058190Y-22909615D01*
X35039242Y-22904538D01*
X35025370Y-22890666D01*
X35008383Y-22880859D01*
X34998575Y-22863871D01*
X34984704Y-22850000D01*
X34979626Y-22831051D01*
X34969819Y-22814064D01*
X34969819Y-22794447D01*
X34964742Y-22775500D01*
X34969819Y-22756552D01*
X34969819Y-22736936D01*
X34979626Y-22719948D01*
X34984704Y-22701000D01*
X35008383Y-22670141D01*
X35188916Y-22489607D01*
X35224225Y-22466018D01*
X35223326Y-22464460D01*
X35231784Y-22459577D01*
X35368716Y-22380520D01*
X35480520Y-22268716D01*
X35559577Y-22131784D01*
X35600500Y-21979057D01*
X35600500Y-21820943D01*
X35559577Y-21668216D01*
X35480520Y-21531284D01*
X35368716Y-21419480D01*
X35231784Y-21340423D01*
X35079057Y-21299500D01*
X34920943Y-21299500D01*
X34768216Y-21340423D01*
X34768214Y-21340423D01*
X34768214Y-21340424D01*
X34631283Y-21419480D01*
X34519479Y-21531284D01*
X34435541Y-21676672D01*
X34433988Y-21675775D01*
X34410390Y-21711083D01*
X33184349Y-22937124D01*
X33117554Y-22975688D01*
X33040426Y-22975688D01*
X33032948Y-22973473D01*
X32969410Y-22952829D01*
X32969413Y-22952829D01*
X32870251Y-22937124D01*
X32790546Y-22924500D01*
X32609454Y-22924500D01*
X32430591Y-22952829D01*
X32258360Y-23008789D01*
X32097004Y-23091005D01*
X32097003Y-23091005D01*
X31950500Y-23197446D01*
X31950497Y-23197448D01*
X31822448Y-23325497D01*
X31822446Y-23325500D01*
X31716005Y-23472003D01*
X31716005Y-23472004D01*
X31632260Y-23636361D01*
X31580650Y-23693678D01*
X31507297Y-23717512D01*
X31431855Y-23701476D01*
X31374538Y-23649866D01*
X31350704Y-23576513D01*
X31350500Y-23568716D01*
X31350500Y-23431899D01*
X31350500Y-23431898D01*
X31339877Y-23343436D01*
X31284361Y-23202658D01*
X31280409Y-23197446D01*
X31192923Y-23082079D01*
X31192920Y-23082076D01*
X31096276Y-23008789D01*
X31072342Y-22990639D01*
X31072341Y-22990638D01*
X30931563Y-22935122D01*
X30843105Y-22924500D01*
X30843102Y-22924500D01*
X29556898Y-22924500D01*
X29556894Y-22924500D01*
X29468436Y-22935122D01*
X29327658Y-22990638D01*
X29327658Y-22990639D01*
X29207079Y-23082076D01*
X29207076Y-23082079D01*
X29115639Y-23202658D01*
X29115638Y-23202658D01*
X29060122Y-23343436D01*
X29049500Y-23431894D01*
X25350500Y-23431894D01*
X25350500Y-23378712D01*
X25318838Y-23138211D01*
X25256054Y-22903900D01*
X25163224Y-22679788D01*
X25041936Y-22469711D01*
X24894265Y-22277262D01*
X24722738Y-22105735D01*
X24530289Y-21958064D01*
X24460263Y-21917634D01*
X24320216Y-21836778D01*
X24320214Y-21836777D01*
X24320212Y-21836776D01*
X24188932Y-21782398D01*
X24096103Y-21743947D01*
X24096101Y-21743946D01*
X24096100Y-21743946D01*
X23861789Y-21681162D01*
X23861787Y-21681161D01*
X23861781Y-21681160D01*
X23621293Y-21649500D01*
X23621288Y-21649500D01*
X23378712Y-21649500D01*
X23378706Y-21649500D01*
X23138218Y-21681160D01*
X22903896Y-21743947D01*
X22679783Y-21836778D01*
X22469712Y-21958063D01*
X22442352Y-21979057D01*
X22277262Y-22105735D01*
X22277260Y-22105736D01*
X22277256Y-22105740D01*
X22105740Y-22277256D01*
X21958063Y-22469712D01*
X21836778Y-22679783D01*
X21743947Y-22903896D01*
X21681160Y-23138218D01*
X21649500Y-23378706D01*
X20300500Y-23378706D01*
X20300500Y-20449500D01*
X20320462Y-20375000D01*
X20375000Y-20320462D01*
X20449500Y-20300500D01*
X45927699Y-20300500D01*
X46002199Y-20320462D01*
G37*
%TD.AperFunction*%
%TD*%
D17*
X64000000Y-48000000D03*
X24000000Y-55000000D03*
X47950000Y-38000000D03*
X48000000Y-24000000D03*
X56000000Y-40000000D03*
X64000000Y-24000000D03*
X55250000Y-55600000D03*
X72000000Y-32000000D03*
X56000000Y-48000000D03*
X72000000Y-48000000D03*
X29320000Y-42000000D03*
X64000000Y-40000000D03*
X44270000Y-38200000D03*
X63650000Y-32500000D03*
X72000000Y-56000000D03*
X68330000Y-27500000D03*
X29270000Y-47000000D03*
X59050000Y-55000000D03*
X64000000Y-56000000D03*
X56000000Y-32000000D03*
X48000000Y-32000000D03*
X29450000Y-44500000D03*
X44270000Y-46200000D03*
X63770000Y-30000000D03*
X48000000Y-56000000D03*
X40480000Y-46450000D03*
X72000000Y-40000000D03*
X35520000Y-42630000D03*
X40480000Y-40090000D03*
X47950000Y-46000000D03*
X41800000Y-43100000D03*
X43400000Y-43100000D03*
X46300000Y-21100000D03*
X48400000Y-43900000D03*
X57000000Y-55000000D03*
X41500000Y-43900000D03*
X56500000Y-53400000D03*
X36500000Y-37900000D03*
X31500000Y-37000000D03*
X28100000Y-37000000D03*
X42000000Y-41300000D03*
X35000000Y-21900000D03*
X52500000Y-21900000D03*
X30900000Y-26000000D03*
X29600000Y-35800000D03*
X27600000Y-40900000D03*
X26700000Y-32000000D03*
X28000000Y-43800000D03*
X29600000Y-34200000D03*
X37200000Y-46600000D03*
X24700000Y-48000000D03*
X36100000Y-45500000D03*
X41100000Y-25800000D03*
X27100000Y-48000000D03*
X43300000Y-25800000D03*
X24700000Y-40600000D03*
X55000000Y-26500000D03*
X27100000Y-43000000D03*
X58600000Y-43800000D03*
X37300000Y-43200000D03*
X38500000Y-45300000D03*
D18*
X23500000Y-23500000D03*
X30200000Y-60800000D03*
X32700000Y-60800000D03*
X35200000Y-60800000D03*
X71500000Y-61500000D03*
X53500000Y-60800000D03*
X56000000Y-60800000D03*
X58500000Y-60800000D03*
X61000000Y-60800000D03*
X63500000Y-60800000D03*
X41300000Y-24200000D03*
X43800000Y-24200000D03*
X46300000Y-24200000D03*
X63000000Y-42000000D03*
X60460000Y-42000000D03*
X57920000Y-42000000D03*
X71500000Y-23500000D03*
X41300000Y-60800000D03*
X43800000Y-60800000D03*
X46300000Y-60800000D03*
X30200000Y-24200000D03*
X32700000Y-24200000D03*
X35200000Y-24200000D03*
X23500000Y-61500000D03*
X52500000Y-24200000D03*
X55000000Y-24200000D03*
X57500000Y-24200000D03*
X60000000Y-24200000D03*
X62500000Y-24200000D03*
M02*
