%TF.GenerationSoftware,KiCad,Pcbnew,10.0.4-10.0.4~ubuntu24.04.1*%
%TF.CreationDate,2026-07-19T18:35:16-07:00*%
%TF.ProjectId,cook_loadcell,636f6f6b-5f6c-46f6-9164-63656c6c2e6b,rev?*%
%TF.SameCoordinates,Original*%
%TF.FileFunction,Soldermask,Bot*%
%TF.FilePolarity,Negative*%
%FSLAX46Y46*%
G04 Gerber Fmt 4.6, Leading zero omitted, Abs format (unit mm)*
G04 Created by KiCad (PCBNEW 10.0.4-10.0.4~ubuntu24.04.1) date 2026-07-19 18:35:16*
%MOMM*%
%LPD*%
G01*
G04 APERTURE LIST*
G04 Aperture macros list*
%AMRoundRect*
0 Rectangle with rounded corners*
0 $1 Rounding radius*
0 $2 $3 $4 $5 $6 $7 $8 $9 X,Y pos of 4 corners*
0 Add a 4 corners polygon primitive as box body*
4,1,4,$2,$3,$4,$5,$6,$7,$8,$9,$2,$3,0*
0 Add four circle primitives for the rounded corners*
1,1,$1+$1,$2,$3*
1,1,$1+$1,$4,$5*
1,1,$1+$1,$6,$7*
1,1,$1+$1,$8,$9*
0 Add four rect primitives between the rounded corners*
20,1,$1+$1,$2,$3,$4,$5,0*
20,1,$1+$1,$4,$5,$6,$7,0*
20,1,$1+$1,$6,$7,$8,$9,0*
20,1,$1+$1,$8,$9,$2,$3,0*%
G04 Aperture macros list end*
%ADD10C,3.200000*%
%ADD11RoundRect,0.250000X-0.600000X-0.725000X0.600000X-0.725000X0.600000X0.725000X-0.600000X0.725000X0*%
%ADD12O,1.700000X1.950000*%
%ADD13R,1.700000X1.700000*%
%ADD14C,1.700000*%
%ADD15C,0.350000*%
G04 APERTURE END LIST*
D10*
%TO.C,H1*%
X23500000Y-23500000D03*
%TD*%
D11*
%TO.C,J3*%
X30200000Y-60800000D03*
D12*
X32700000Y-60800000D03*
X35200000Y-60800000D03*
%TD*%
D10*
%TO.C,H4*%
X71500000Y-61500000D03*
%TD*%
D11*
%TO.C,J6*%
X53500000Y-60800000D03*
D12*
X56000000Y-60800000D03*
X58500000Y-60800000D03*
X61000000Y-60800000D03*
X63500000Y-60800000D03*
%TD*%
D11*
%TO.C,J2*%
X41300000Y-24200000D03*
D12*
X43800000Y-24200000D03*
X46300000Y-24200000D03*
%TD*%
D13*
%TO.C,JP1*%
X63000000Y-42000000D03*
D14*
X60460000Y-42000000D03*
X57920000Y-42000000D03*
%TD*%
D10*
%TO.C,H2*%
X71500000Y-23500000D03*
%TD*%
D11*
%TO.C,J4*%
X41300000Y-60800000D03*
D12*
X43800000Y-60800000D03*
X46300000Y-60800000D03*
%TD*%
D11*
%TO.C,J1*%
X30200000Y-24200000D03*
D12*
X32700000Y-24200000D03*
X35200000Y-24200000D03*
%TD*%
D10*
%TO.C,H3*%
X23500000Y-61500000D03*
%TD*%
D11*
%TO.C,J5*%
X52500000Y-24200000D03*
D12*
X55000000Y-24200000D03*
X57500000Y-24200000D03*
X60000000Y-24200000D03*
X62500000Y-24200000D03*
%TD*%
D15*
X23500000Y-23500000D03*
X30200000Y-60800000D03*
X32700000Y-60800000D03*
X35200000Y-60800000D03*
X71500000Y-61500000D03*
X53500000Y-60800000D03*
X56000000Y-60800000D03*
X58500000Y-60800000D03*
X61000000Y-60800000D03*
X63500000Y-60800000D03*
X41300000Y-24200000D03*
X43800000Y-24200000D03*
X46300000Y-24200000D03*
X63000000Y-42000000D03*
X60460000Y-42000000D03*
X57920000Y-42000000D03*
X71500000Y-23500000D03*
X41300000Y-60800000D03*
X43800000Y-60800000D03*
X46300000Y-60800000D03*
X30200000Y-24200000D03*
X32700000Y-24200000D03*
X35200000Y-24200000D03*
X23500000Y-61500000D03*
X52500000Y-24200000D03*
X55000000Y-24200000D03*
X57500000Y-24200000D03*
X60000000Y-24200000D03*
X62500000Y-24200000D03*
M02*
