M48
; DRILL file KiCad 10.0.4-10.0.4~ubuntu24.04.1 date 2026-07-18T08:58:18
; FORMAT={-:-/ absolute / metric / decimal}
; #@! TF.CreationDate,2026-07-18T08:58:18-07:00
; #@! TF.GenerationSoftware,Kicad,Pcbnew,10.0.4-10.0.4~ubuntu24.04.1
; #@! TF.FileFunction,Plated,1,4,PTH
FMAT,2
METRIC
; #@! TA.AperFunction,Plated,PTH,ViaDrill
T1C0.300
; #@! TA.AperFunction,Plated,PTH,ComponentDrill
T2C0.600
; #@! TA.AperFunction,Plated,PTH,ComponentDrill
T3C0.800
; #@! TA.AperFunction,Plated,PTH,ComponentDrill
T4C0.950
; #@! TA.AperFunction,Plated,PTH,ComponentDrill
T5C1.000
; #@! TA.AperFunction,Plated,PTH,ComponentDrill
T6C1.200
%
G90
G05
T1
X53.0Y-53.0
X53.0Y-61.0
X53.0Y-69.0
X53.0Y-77.0
X53.0Y-85.0
X53.0Y-93.0
X53.0Y-101.0
X53.0Y-109.0
X53.0Y-117.0
X57.2Y-95.8
X58.24Y-99.05
X58.245Y-94.75
X59.04Y-91.75
X60.25Y-103.1
X60.8Y-104.05
X61.0Y-53.0
X61.0Y-61.0
X61.0Y-77.0
X61.0Y-85.0
X61.0Y-93.0
X61.0Y-109.0
X61.0Y-117.0
X62.75Y-69.5
X63.66Y-88.0
X63.71Y-99.5
X63.71Y-102.0
X63.75Y-104.5
X64.1Y-89.5
X65.0Y-88.15
X65.2Y-62.2
X65.75Y-72.0
X65.86Y-80.5
X66.05Y-63.05
X66.32Y-66.33
X66.75Y-67.6
X66.8Y-67.0
X67.0Y-64.0
X67.8Y-97.88
X67.8Y-113.88
X67.89Y-64.8
X68.71Y-74.5
X68.85Y-63.7
X69.0Y-77.0
X69.0Y-85.0
X69.0Y-101.0
X69.0Y-109.0
X69.0Y-117.0
X69.55Y-94.1
X69.6Y-63.8
X69.71Y-65.35
X70.3Y-93.35
X70.7Y-71.55
X71.35Y-70.8
X72.4Y-71.85
X73.8Y-97.88
X73.8Y-113.88
X75.1Y-102.5
X75.1Y-103.6
X75.55Y-96.65
X76.1Y-103.6
X76.3Y-65.45
X76.95Y-64.8
X77.0Y-53.0
X77.0Y-61.0
X77.0Y-69.0
X77.0Y-77.0
X77.0Y-85.0
X77.0Y-93.0
X77.0Y-101.0
X77.0Y-117.0
X77.75Y-107.0
X78.15Y-96.3
X78.15Y-97.75
X78.927Y-64.201
X79.26Y-72.4
X79.599Y-64.753
X79.6Y-67.3
X80.15Y-66.05
X80.2Y-62.2
X80.2Y-68.25
X80.6Y-65.0
X81.05Y-63.05
X81.2Y-67.3
X81.65Y-72.0
X81.75Y-66.2
X82.0Y-64.0
X82.89Y-65.9
X83.05Y-66.85
X83.71Y-69.5
X84.05Y-65.95
X84.1Y-70.95
X84.1Y-72.0
X84.19Y-64.3
X84.25Y-67.5
X85.0Y-77.0
X85.0Y-85.0
X85.0Y-93.0
X85.0Y-101.0
X85.0Y-117.0
X85.12Y-123.66
X85.25Y-70.25
X85.25Y-71.35
X85.55Y-96.65
X85.55Y-97.75
X86.55Y-121.45
X87.5Y-119.2
X87.5Y-119.95
X87.5Y-121.05
X87.7Y-108.55
X88.15Y-121.4
X88.45Y-119.95
X88.6Y-109.45
X90.1Y-76.0
X91.4Y-102.5
X91.4Y-103.6
X91.55Y-74.8
X91.55Y-78.55
X91.7Y-96.65
X91.7Y-97.75
X92.15Y-76.25
X93.0Y-53.0
X93.0Y-61.0
X93.0Y-69.0
X93.0Y-93.0
X93.0Y-101.0
X93.0Y-109.0
X93.0Y-117.0
X93.25Y-76.25
X93.25Y-94.35
X93.75Y-85.65
X94.0Y-95.1
X94.55Y-104.1
X94.7Y-85.35
X94.882Y-83.794
X95.35Y-82.65
X95.4Y-115.49
X95.4Y-116.59
X95.4Y-117.69
X95.65Y-85.46
X95.75Y-83.74
X96.0Y-82.3
X96.2Y-102.25
X96.5Y-115.49
X96.5Y-116.59
X96.5Y-117.69
X97.1Y-82.0
X97.15Y-81.25
X97.6Y-115.49
X97.6Y-116.59
X97.6Y-117.69
X97.95Y-97.55
X97.95Y-98.3
X99.2Y-105.25
X99.55Y-69.9
X99.55Y-71.0
X99.55Y-100.65
X99.55Y-104.1
X99.75Y-105.8
X99.9Y-85.74
X100.1Y-100.1
X100.3Y-101.4
X100.35Y-99.35
X100.45Y-82.8
X100.65Y-98.65
X101.0Y-53.0
X101.0Y-61.0
X101.0Y-69.0
X101.0Y-77.0
X101.0Y-109.0
X101.1Y-71.5
X101.45Y-121.4
X101.6Y-99.6
X101.7Y-66.1
X101.75Y-96.7
X102.15Y-119.85
X102.15Y-121.15
X102.62Y-123.66
X102.85Y-66.45
X103.7Y-64.25
X103.9Y-65.0
X103.9Y-66.1
X103.936Y-62.225
X104.1Y-115.75
X104.7Y-62.2
X104.95Y-65.0
X104.95Y-119.85
X104.95Y-121.15
X105.0Y-111.15
X105.1Y-115.5
X105.25Y-71.5
X105.45Y-65.75
X105.45Y-120.4
X105.55Y-63.05
X105.55Y-63.8
X105.75Y-119.3
X106.25Y-64.9
X106.35Y-122.7
X106.52Y-64.07
X107.0Y-123.05
X108.3Y-105.05
X108.51Y-63.65
X108.6Y-64.9
X108.6Y-65.65
X109.0Y-69.0
X109.0Y-77.0
X109.0Y-85.0
X109.0Y-93.0
X109.0Y-101.0
X109.0Y-109.0
X109.0Y-117.0
X109.85Y-71.0
X115.55Y-110.9
X116.92Y-120.49
X117.0Y-53.0
X117.0Y-61.0
X117.0Y-69.0
X117.0Y-77.0
X117.0Y-85.0
X117.0Y-93.0
X117.0Y-101.0
X117.0Y-109.0
X117.0Y-117.0
X118.75Y-64.0
X118.9Y-65.1
X118.95Y-65.8
X119.7Y-62.2
X119.95Y-65.8
X120.25Y-71.5
X120.5Y-64.0
X120.55Y-63.05
X121.435Y-64.186
X121.45Y-63.05
X121.87Y-66.23
X122.45Y-105.0
X123.15Y-71.95
X123.15Y-73.05
X123.21Y-69.0
X123.25Y-96.2
X123.35Y-104.7
X123.6Y-62.75
X123.69Y-64.3
X124.1Y-96.2
X125.0Y-69.0
X125.0Y-77.0
X125.0Y-85.0
X125.0Y-93.0
X125.0Y-109.0
X125.0Y-117.0
X125.65Y-97.7
X128.4Y-102.5
X129.75Y-102.5
X130.5Y-96.2
X132.45Y-98.15
X133.0Y-53.0
X133.0Y-61.0
X133.0Y-69.0
X133.0Y-77.0
X133.0Y-85.0
X133.0Y-93.0
X133.0Y-109.0
X133.0Y-117.0
X139.05Y-86.0
X140.75Y-87.7
X141.0Y-53.0
X141.0Y-61.0
X141.0Y-69.0
X141.0Y-77.0
X141.0Y-85.0
X141.0Y-93.0
X141.0Y-109.0
X141.0Y-117.0
X141.75Y-102.5
X141.75Y-105.5
X142.35Y-99.2
X142.9Y-99.75
X143.55Y-88.35
X144.85Y-87.05
X144.85Y-88.0
X144.85Y-88.95
X146.2Y-91.25
X146.74Y-89.64
X147.15Y-90.3
X149.0Y-53.0
X149.0Y-61.0
X149.0Y-69.0
X149.0Y-77.0
X149.0Y-101.0
X149.0Y-117.0
X149.45Y-93.55
X151.55Y-104.4
X152.6Y-115.5
X152.6Y-116.6
X153.11Y-74.4
X153.35Y-111.75
X153.65Y-118.45
X154.05Y-104.4
X154.1Y-112.5
X154.15Y-107.5
X154.65Y-116.6
X155.25Y-98.0
X155.64Y-110.1
X156.1Y-71.6
X156.1Y-117.0
X156.45Y-101.6
X156.45Y-102.4
X157.0Y-53.0
X157.0Y-61.0
X157.0Y-85.0
X157.0Y-93.0
X157.0Y-101.0
X157.05Y-105.1
X157.4Y-71.6
X157.537Y-103.5
X157.7Y-110.05
X157.75Y-100.95
X158.0Y-110.75
X158.16Y-104.82
X158.45Y-100.7
X158.8Y-104.2
X159.4Y-101.8
X159.4Y-103.6
X159.4Y-104.2
X160.0Y-103.0
X160.0Y-103.6
X160.0Y-104.2
X160.05Y-97.9
X160.45Y-106.6
X160.6Y-102.4
X160.6Y-103.0
X160.6Y-103.6
X160.6Y-104.2
X160.65Y-80.8
X160.8Y-107.75
X160.95Y-97.0
X161.2Y-101.8
X161.2Y-102.4
X161.2Y-103.0
X161.2Y-103.6
X161.2Y-104.2
X161.6Y-100.65
X161.6Y-105.45
X161.65Y-98.55
X162.35Y-104.6
X162.76Y-96.0
X162.76Y-110.5
X163.35Y-80.8
X163.4Y-105.65
X165.0Y-53.0
X165.0Y-69.0
X165.0Y-77.0
X165.0Y-85.0
X165.0Y-93.0
X165.0Y-101.0
X165.0Y-117.0
X165.25Y-98.0
X167.75Y-110.0
X168.0Y-90.0
X168.25Y-98.0
X172.3Y-95.4
X172.5Y-82.5
X173.0Y-53.0
X173.0Y-61.0
X173.0Y-77.0
X173.0Y-85.0
X173.0Y-93.0
X173.0Y-101.0
X173.0Y-109.0
X173.0Y-117.0
X173.05Y-95.55
T4
X176.0Y-91.0
X176.0Y-93.5
X176.0Y-96.0
X176.0Y-98.5
T5
X61.0Y-54.5
X63.54Y-54.5
X66.08Y-54.5
X68.62Y-54.5
X71.16Y-54.5
X73.7Y-54.5
X76.24Y-54.5
X78.78Y-54.5
X81.32Y-54.5
X83.86Y-54.5
X86.4Y-54.5
X88.94Y-54.5
X91.48Y-54.5
X100.0Y-54.5
X102.54Y-54.5
X105.08Y-54.5
X107.62Y-54.5
X110.16Y-54.5
X112.7Y-54.5
X113.0Y-121.0
X115.24Y-54.5
X115.54Y-121.0
X117.78Y-54.5
X118.08Y-121.0
X120.32Y-54.5
X120.62Y-121.0
X122.86Y-54.5
X123.16Y-121.0
X125.4Y-54.5
X125.7Y-121.0
X127.94Y-54.5
X130.48Y-54.5
T6
X176.0Y-109.5
X176.0Y-113.0
T2
G00X53.45Y-90.68
M15
G01X52.85Y-90.68
M16
G05
G00X53.45Y-99.32
M15
G01X52.85Y-99.32
M16
G05
G00X57.88Y-90.68
M15
G01X56.78Y-90.68
M16
G05
G00X57.88Y-99.32
M15
G01X56.78Y-99.32
M16
G05
T3
G00X166.15Y-70.0
M15
G01X166.85Y-70.0
M16
G05
G00X168.7Y-74.7
M15
G01X169.4Y-74.7
M16
G05
G00X172.8Y-70.0
M15
G01X173.5Y-70.0
M16
G05
M30
