%TF.GenerationSoftware,KiCad,Pcbnew,10.0.4-10.0.4~ubuntu24.04.1*%
%TF.CreationDate,2026-07-18T08:58:18-07:00*%
%TF.ProjectId,shitty_kitty,73686974-7479-45f6-9b69-7474792e6b69,rev?*%
%TF.SameCoordinates,Original*%
%TF.FileFunction,Soldermask,Top*%
%TF.FilePolarity,Negative*%
%FSLAX46Y46*%
G04 Gerber Fmt 4.6, Leading zero omitted, Abs format (unit mm)*
G04 Created by KiCad (PCBNEW 10.0.4-10.0.4~ubuntu24.04.1) date 2026-07-18 08:58:18*
%MOMM*%
%LPD*%
G01*
G04 APERTURE LIST*
G04 Aperture macros list*
%AMRoundRect*
0 Rectangle with rounded corners*
0 $1 Rounding radius*
0 $2 $3 $4 $5 $6 $7 $8 $9 X,Y pos of 4 corners*
0 Add a 4 corners polygon primitive as box body*
4,1,4,$2,$3,$4,$5,$6,$7,$8,$9,$2,$3,0*
0 Add four circle primitives for the rounded corners*
1,1,$1+$1,$2,$3*
1,1,$1+$1,$4,$5*
1,1,$1+$1,$6,$7*
1,1,$1+$1,$8,$9*
0 Add four rect primitives between the rounded corners*
20,1,$1+$1,$2,$3,$4,$5,0*
20,1,$1+$1,$4,$5,$6,$7,0*
20,1,$1+$1,$6,$7,$8,$9,0*
20,1,$1+$1,$8,$9,$2,$3,0*%
%AMFreePoly0*
4,1,14,0.354215,0.088284,0.450784,-0.008285,0.462500,-0.036569,0.462500,-0.060000,0.450784,-0.088284,0.422500,-0.100000,-0.422500,-0.100000,-0.450784,-0.088284,-0.462500,-0.060000,-0.462500,0.060000,-0.450784,0.088284,-0.422500,0.100000,0.325931,0.100000,0.354215,0.088284,0.354215,0.088284,$1*%
%AMFreePoly1*
4,1,14,0.450784,0.088284,0.462500,0.060000,0.462500,0.036569,0.450784,0.008285,0.354215,-0.088284,0.325931,-0.100000,-0.422500,-0.100000,-0.450784,-0.088284,-0.462500,-0.060000,-0.462500,0.060000,-0.450784,0.088284,-0.422500,0.100000,0.422500,0.100000,0.450784,0.088284,0.450784,0.088284,$1*%
%AMFreePoly2*
4,1,14,0.088284,0.450784,0.100000,0.422500,0.100000,-0.422500,0.088284,-0.450784,0.060000,-0.462500,-0.060000,-0.462500,-0.088284,-0.450784,-0.100000,-0.422500,-0.100000,0.325931,-0.088284,0.354215,0.008285,0.450784,0.036569,0.462500,0.060000,0.462500,0.088284,0.450784,0.088284,0.450784,$1*%
%AMFreePoly3*
4,1,14,-0.008285,0.450784,0.088284,0.354215,0.100000,0.325931,0.100000,-0.422500,0.088284,-0.450784,0.060000,-0.462500,-0.060000,-0.462500,-0.088284,-0.450784,-0.100000,-0.422500,-0.100000,0.422500,-0.088284,0.450784,-0.060000,0.462500,-0.036569,0.462500,-0.008285,0.450784,-0.008285,0.450784,$1*%
%AMFreePoly4*
4,1,14,0.450784,0.088284,0.462500,0.060000,0.462500,-0.060000,0.450784,-0.088284,0.422500,-0.100000,-0.325931,-0.100000,-0.354215,-0.088284,-0.450784,0.008285,-0.462500,0.036569,-0.462500,0.060000,-0.450784,0.088284,-0.422500,0.100000,0.422500,0.100000,0.450784,0.088284,0.450784,0.088284,$1*%
%AMFreePoly5*
4,1,14,0.450784,0.088284,0.462500,0.060000,0.462500,-0.060000,0.450784,-0.088284,0.422500,-0.100000,-0.422500,-0.100000,-0.450784,-0.088284,-0.462500,-0.060000,-0.462500,-0.036569,-0.450784,-0.008285,-0.354215,0.088284,-0.325931,0.100000,0.422500,0.100000,0.450784,0.088284,0.450784,0.088284,$1*%
%AMFreePoly6*
4,1,14,0.088284,0.450784,0.100000,0.422500,0.100000,-0.325931,0.088284,-0.354215,-0.008285,-0.450784,-0.036569,-0.462500,-0.060000,-0.462500,-0.088284,-0.450784,-0.100000,-0.422500,-0.100000,0.422500,-0.088284,0.450784,-0.060000,0.462500,0.060000,0.462500,0.088284,0.450784,0.088284,0.450784,$1*%
%AMFreePoly7*
4,1,14,0.088284,0.450784,0.100000,0.422500,0.100000,-0.422500,0.088284,-0.450784,0.060000,-0.462500,0.036569,-0.462500,0.008285,-0.450784,-0.088284,-0.354215,-0.100000,-0.325931,-0.100000,0.422500,-0.088284,0.450784,-0.060000,0.462500,0.060000,0.462500,0.088284,0.450784,0.088284,0.450784,$1*%
G04 Aperture macros list end*
%ADD10R,1.000000X0.750000*%
%ADD11RoundRect,0.250000X-0.250000X-0.475000X0.250000X-0.475000X0.250000X0.475000X-0.250000X0.475000X0*%
%ADD12RoundRect,0.250000X0.475000X-0.250000X0.475000X0.250000X-0.475000X0.250000X-0.475000X-0.250000X0*%
%ADD13RoundRect,0.150000X-0.512500X-0.150000X0.512500X-0.150000X0.512500X0.150000X-0.512500X0.150000X0*%
%ADD14RoundRect,0.243750X-0.243750X-0.456250X0.243750X-0.456250X0.243750X0.456250X-0.243750X0.456250X0*%
%ADD15RoundRect,0.250000X-0.312500X-0.625000X0.312500X-0.625000X0.312500X0.625000X-0.312500X0.625000X0*%
%ADD16RoundRect,0.250000X-0.312500X-1.450000X0.312500X-1.450000X0.312500X1.450000X-0.312500X1.450000X0*%
%ADD17FreePoly0,90.000000*%
%ADD18RoundRect,0.050000X0.050000X-0.412500X0.050000X0.412500X-0.050000X0.412500X-0.050000X-0.412500X0*%
%ADD19FreePoly1,90.000000*%
%ADD20FreePoly2,90.000000*%
%ADD21RoundRect,0.050000X0.412500X-0.050000X0.412500X0.050000X-0.412500X0.050000X-0.412500X-0.050000X0*%
%ADD22FreePoly3,90.000000*%
%ADD23FreePoly4,90.000000*%
%ADD24FreePoly5,90.000000*%
%ADD25FreePoly6,90.000000*%
%ADD26FreePoly7,90.000000*%
%ADD27RoundRect,0.250000X-1.500000X-0.550000X1.500000X-0.550000X1.500000X0.550000X-1.500000X0.550000X0*%
%ADD28RoundRect,0.250000X-0.262500X-0.450000X0.262500X-0.450000X0.262500X0.450000X-0.262500X0.450000X0*%
%ADD29R,1.500000X0.900000*%
%ADD30R,0.900000X1.500000*%
%ADD31R,3.900000X3.900000*%
%ADD32RoundRect,0.250000X0.450000X-0.262500X0.450000X0.262500X-0.450000X0.262500X-0.450000X-0.262500X0*%
%ADD33C,3.200000*%
%ADD34R,0.350000X0.375000*%
%ADD35R,0.375000X0.350000*%
%ADD36RoundRect,0.250000X-0.600000X-2.600000X0.600000X-2.600000X0.600000X2.600000X-0.600000X2.600000X0*%
%ADD37R,1.700000X1.700000*%
%ADD38C,1.700000*%
%ADD39RoundRect,0.250000X-0.350000X0.850000X-0.350000X-0.850000X0.350000X-0.850000X0.350000X0.850000X0*%
%ADD40RoundRect,0.249997X-2.650003X2.950003X-2.650003X-2.950003X2.650003X-2.950003X2.650003X2.950003X0*%
%ADD41RoundRect,0.250000X-1.000000X-0.900000X1.000000X-0.900000X1.000000X0.900000X-1.000000X0.900000X0*%
%ADD42RoundRect,0.375000X-0.625000X-0.375000X0.625000X-0.375000X0.625000X0.375000X-0.625000X0.375000X0*%
%ADD43RoundRect,0.500000X-0.500000X-1.400000X0.500000X-1.400000X0.500000X1.400000X-0.500000X1.400000X0*%
%ADD44RoundRect,0.250000X-0.725000X0.600000X-0.725000X-0.600000X0.725000X-0.600000X0.725000X0.600000X0*%
%ADD45O,1.950000X1.700000*%
%ADD46RoundRect,0.250001X0.949999X-0.949999X0.949999X0.949999X-0.949999X0.949999X-0.949999X-0.949999X0*%
%ADD47C,2.400000*%
%ADD48C,0.650000*%
%ADD49RoundRect,0.150000X-0.575000X0.150000X-0.575000X-0.150000X0.575000X-0.150000X0.575000X0.150000X0*%
%ADD50RoundRect,0.075000X-0.650000X0.075000X-0.650000X-0.075000X0.650000X-0.075000X0.650000X0.075000X0*%
%ADD51O,2.100000X1.000000*%
%ADD52O,1.600000X1.000000*%
%ADD53O,2.600000X1.900000*%
%ADD54RoundRect,0.062500X-0.325000X-0.062500X0.325000X-0.062500X0.325000X0.062500X-0.325000X0.062500X0*%
%ADD55RoundRect,0.062500X-0.062500X-0.325000X0.062500X-0.325000X0.062500X0.325000X-0.062500X0.325000X0*%
%ADD56R,3.750000X3.750000*%
%ADD57C,0.350000*%
%ADD58O,1.700000X0.600000*%
%ADD59O,1.200000X0.600000*%
%ADD60O,1.500000X0.800000*%
G04 APERTURE END LIST*
D10*
%TO.C,SW2*%
X67000000Y-94125000D03*
X73000000Y-94125000D03*
X67000000Y-97875000D03*
X73000000Y-97875000D03*
%TD*%
%TO.C,SW1*%
X67000000Y-110125000D03*
X73000000Y-110125000D03*
X67000000Y-113875000D03*
X73000000Y-113875000D03*
%TD*%
D11*
%TO.C,C12*%
X153050000Y-104500000D03*
X154950000Y-104500000D03*
%TD*%
%TO.C,C5*%
X151050000Y-83000000D03*
X152950000Y-83000000D03*
%TD*%
%TO.C,C4*%
X139050000Y-105500000D03*
X140950000Y-105500000D03*
%TD*%
D12*
%TO.C,C19*%
X99500000Y-86950000D03*
X99500000Y-85050000D03*
%TD*%
D11*
%TO.C,C33*%
X78050000Y-72000000D03*
X79950000Y-72000000D03*
%TD*%
D13*
%TO.C,D1*%
X62862500Y-87050000D03*
X62862500Y-88000000D03*
X62862500Y-88950000D03*
X65137500Y-88950000D03*
X65137500Y-88000000D03*
X65137500Y-87050000D03*
%TD*%
D11*
%TO.C,C37*%
X117550000Y-71500000D03*
X119450000Y-71500000D03*
%TD*%
D14*
%TO.C,D2*%
X133562500Y-108500000D03*
X135437500Y-108500000D03*
%TD*%
D15*
%TO.C,R30*%
X159037500Y-96000000D03*
X161962500Y-96000000D03*
%TD*%
D16*
%TO.C,F1*%
X160362500Y-62800000D03*
X164637500Y-62800000D03*
%TD*%
D11*
%TO.C,C30*%
X60050000Y-69500000D03*
X61950000Y-69500000D03*
%TD*%
%TO.C,C14*%
X152550000Y-98000000D03*
X154450000Y-98000000D03*
%TD*%
D17*
%TO.C,U4*%
X80700000Y-64887500D03*
D18*
X81100000Y-64887500D03*
X81500000Y-64887500D03*
X81900000Y-64887500D03*
D19*
X82300000Y-64887500D03*
D20*
X82887500Y-64300000D03*
D21*
X82887500Y-63900000D03*
X82887500Y-63500000D03*
X82887500Y-63100000D03*
D22*
X82887500Y-62700000D03*
D23*
X82300000Y-62112500D03*
D18*
X81900000Y-62112500D03*
X81500000Y-62112500D03*
X81100000Y-62112500D03*
D24*
X80700000Y-62112500D03*
D25*
X80112500Y-62700000D03*
D21*
X80112500Y-63100000D03*
X80112500Y-63500000D03*
X80112500Y-63900000D03*
D26*
X80112500Y-64300000D03*
%TD*%
D17*
%TO.C,U5*%
X105200000Y-64887500D03*
D18*
X105600000Y-64887500D03*
X106000000Y-64887500D03*
X106400000Y-64887500D03*
D19*
X106800000Y-64887500D03*
D20*
X107387500Y-64300000D03*
D21*
X107387500Y-63900000D03*
X107387500Y-63500000D03*
X107387500Y-63100000D03*
D22*
X107387500Y-62700000D03*
D23*
X106800000Y-62112500D03*
D18*
X106400000Y-62112500D03*
X106000000Y-62112500D03*
X105600000Y-62112500D03*
D24*
X105200000Y-62112500D03*
D25*
X104612500Y-62700000D03*
D21*
X104612500Y-63100000D03*
X104612500Y-63500000D03*
X104612500Y-63900000D03*
D26*
X104612500Y-64300000D03*
%TD*%
D11*
%TO.C,C34*%
X99550000Y-69000000D03*
X101450000Y-69000000D03*
%TD*%
D27*
%TO.C,C41*%
X166300000Y-82500000D03*
X171700000Y-82500000D03*
%TD*%
D28*
%TO.C,R8*%
X152587500Y-117000000D03*
X154412500Y-117000000D03*
%TD*%
%TO.C,R11*%
X165087500Y-113000000D03*
X166912500Y-113000000D03*
%TD*%
D29*
%TO.C,U1*%
X103750000Y-124310000D03*
X103750000Y-123040000D03*
X103750000Y-121770000D03*
X103750000Y-120500000D03*
X103750000Y-119230000D03*
X103750000Y-117960000D03*
X103750000Y-116690000D03*
X103750000Y-115420000D03*
X103750000Y-114150000D03*
X103750000Y-112880000D03*
X103750000Y-111610000D03*
X103750000Y-110340000D03*
X103750000Y-109070000D03*
X103750000Y-107800000D03*
D30*
X101985000Y-106550000D03*
X100715000Y-106550000D03*
X99445000Y-106550000D03*
X98175000Y-106550000D03*
X96905000Y-106550000D03*
X95635000Y-106550000D03*
X94365000Y-106550000D03*
X93095000Y-106550000D03*
X91825000Y-106550000D03*
X90555000Y-106550000D03*
X89285000Y-106550000D03*
X88015000Y-106550000D03*
D29*
X86250000Y-107800000D03*
X86250000Y-109070000D03*
X86250000Y-110340000D03*
X86250000Y-111610000D03*
X86250000Y-112880000D03*
X86250000Y-114150000D03*
X86250000Y-115420000D03*
X86250000Y-116690000D03*
X86250000Y-117960000D03*
X86250000Y-119230000D03*
X86250000Y-120500000D03*
X86250000Y-121770000D03*
X86250000Y-123040000D03*
X86250000Y-124310000D03*
D31*
X96500000Y-116590000D03*
%TD*%
D28*
%TO.C,R26*%
X120587500Y-69000000D03*
X122412500Y-69000000D03*
%TD*%
D11*
%TO.C,C2*%
X139050000Y-86000000D03*
X140950000Y-86000000D03*
%TD*%
D32*
%TO.C,R9*%
X149500000Y-108912500D03*
X149500000Y-107087500D03*
%TD*%
D13*
%TO.C,U8*%
X144862500Y-87050000D03*
X144862500Y-88000000D03*
X144862500Y-88950000D03*
X147137500Y-88950000D03*
X147137500Y-88000000D03*
X147137500Y-87050000D03*
%TD*%
D14*
%TO.C,D5*%
X65062500Y-80500000D03*
X66937500Y-80500000D03*
%TD*%
D17*
%TO.C,U3*%
X65700000Y-64887500D03*
D18*
X66100000Y-64887500D03*
X66500000Y-64887500D03*
X66900000Y-64887500D03*
D19*
X67300000Y-64887500D03*
D20*
X67887500Y-64300000D03*
D21*
X67887500Y-63900000D03*
X67887500Y-63500000D03*
X67887500Y-63100000D03*
D22*
X67887500Y-62700000D03*
D23*
X67300000Y-62112500D03*
D18*
X66900000Y-62112500D03*
X66500000Y-62112500D03*
X66100000Y-62112500D03*
D24*
X65700000Y-62112500D03*
D25*
X65112500Y-62700000D03*
D21*
X65112500Y-63100000D03*
X65112500Y-63500000D03*
X65112500Y-63900000D03*
D26*
X65112500Y-64300000D03*
%TD*%
D33*
%TO.C,H4*%
X174500000Y-119500000D03*
%TD*%
D28*
%TO.C,R1*%
X150587500Y-74000000D03*
X152412500Y-74000000D03*
%TD*%
D12*
%TO.C,C9*%
X107500000Y-106950000D03*
X107500000Y-105050000D03*
%TD*%
D28*
%TO.C,R21*%
X69087500Y-72000000D03*
X70912500Y-72000000D03*
%TD*%
D11*
%TO.C,C7*%
X120550000Y-104200000D03*
X122450000Y-104200000D03*
%TD*%
D34*
%TO.C,U7*%
X94250000Y-84762500D03*
X94750000Y-84762500D03*
X95250000Y-84762500D03*
X95750000Y-84762500D03*
D35*
X95762500Y-84250000D03*
X95762500Y-83750000D03*
D34*
X95750000Y-83237500D03*
X95250000Y-83237500D03*
X94750000Y-83237500D03*
X94250000Y-83237500D03*
D35*
X94237500Y-83750000D03*
X94237500Y-84250000D03*
%TD*%
D11*
%TO.C,C3*%
X139050000Y-102500000D03*
X140950000Y-102500000D03*
%TD*%
D36*
%TO.C,L1*%
X143750000Y-96500000D03*
X148250000Y-96500000D03*
%TD*%
D37*
%TO.C,J3*%
X61000000Y-54500000D03*
D38*
X63540000Y-54500000D03*
X66080000Y-54500000D03*
X68620000Y-54500000D03*
X71160000Y-54500000D03*
X73700000Y-54500000D03*
X76240000Y-54500000D03*
X78780000Y-54500000D03*
X81320000Y-54500000D03*
X83860000Y-54500000D03*
X86400000Y-54500000D03*
X88940000Y-54500000D03*
X91480000Y-54500000D03*
%TD*%
D39*
%TO.C,Q1*%
X162280000Y-68960000D03*
D40*
X160000000Y-75260000D03*
D39*
X157720000Y-68960000D03*
%TD*%
D41*
%TO.C,D3*%
X152850000Y-63000000D03*
X157150000Y-63000000D03*
%TD*%
D33*
%TO.C,H1*%
X55500000Y-55500000D03*
%TD*%
D42*
%TO.C,U9*%
X124850000Y-97700000D03*
X124850000Y-100000000D03*
D43*
X131150000Y-100000000D03*
D42*
X124850000Y-102300000D03*
%TD*%
D11*
%TO.C,C26*%
X153050000Y-101500000D03*
X154950000Y-101500000D03*
%TD*%
D15*
%TO.C,R31*%
X159037500Y-110500000D03*
X161962500Y-110500000D03*
%TD*%
D28*
%TO.C,R27*%
X123587500Y-71500000D03*
X125412500Y-71500000D03*
%TD*%
%TO.C,R12*%
X90087500Y-76000000D03*
X91912500Y-76000000D03*
%TD*%
D11*
%TO.C,C25*%
X160650000Y-80800000D03*
X162550000Y-80800000D03*
%TD*%
D28*
%TO.C,R5*%
X61087500Y-102000000D03*
X62912500Y-102000000D03*
%TD*%
D11*
%TO.C,C16*%
X153050000Y-110500000D03*
X154950000Y-110500000D03*
%TD*%
D33*
%TO.C,H2*%
X174500000Y-55500000D03*
%TD*%
D28*
%TO.C,R10*%
X165087500Y-107000000D03*
X166912500Y-107000000D03*
%TD*%
D11*
%TO.C,C18*%
X98550000Y-82000000D03*
X100450000Y-82000000D03*
%TD*%
%TO.C,C32*%
X75050000Y-69500000D03*
X76950000Y-69500000D03*
%TD*%
D28*
%TO.C,R23*%
X84087500Y-72000000D03*
X85912500Y-72000000D03*
%TD*%
D44*
%TO.C,J5*%
X176000000Y-91000000D03*
D45*
X176000000Y-93500000D03*
X176000000Y-96000000D03*
X176000000Y-98500000D03*
%TD*%
D11*
%TO.C,C15*%
X165550000Y-98000000D03*
X167450000Y-98000000D03*
%TD*%
D12*
%TO.C,C10*%
X107500000Y-110950000D03*
X107500000Y-109050000D03*
%TD*%
D11*
%TO.C,C6*%
X120550000Y-96200000D03*
X122450000Y-96200000D03*
%TD*%
D33*
%TO.C,H3*%
X55500000Y-119500000D03*
%TD*%
D28*
%TO.C,R4*%
X61087500Y-99500000D03*
X62912500Y-99500000D03*
%TD*%
%TO.C,R6*%
X75087500Y-104000000D03*
X76912500Y-104000000D03*
%TD*%
D37*
%TO.C,J8*%
X113000000Y-121000000D03*
D38*
X115540000Y-121000000D03*
X118080000Y-121000000D03*
X120620000Y-121000000D03*
X123160000Y-121000000D03*
X125700000Y-121000000D03*
%TD*%
D11*
%TO.C,C35*%
X102550000Y-71500000D03*
X104450000Y-71500000D03*
%TD*%
D17*
%TO.C,U6*%
X120200000Y-64887500D03*
D18*
X120600000Y-64887500D03*
X121000000Y-64887500D03*
X121400000Y-64887500D03*
D19*
X121800000Y-64887500D03*
D20*
X122387500Y-64300000D03*
D21*
X122387500Y-63900000D03*
X122387500Y-63500000D03*
X122387500Y-63100000D03*
D22*
X122387500Y-62700000D03*
D23*
X121800000Y-62112500D03*
D18*
X121400000Y-62112500D03*
X121000000Y-62112500D03*
X120600000Y-62112500D03*
D24*
X120200000Y-62112500D03*
D25*
X119612500Y-62700000D03*
D21*
X119612500Y-63100000D03*
X119612500Y-63500000D03*
X119612500Y-63900000D03*
D26*
X119612500Y-64300000D03*
%TD*%
D28*
%TO.C,R3*%
X129087500Y-108500000D03*
X130912500Y-108500000D03*
%TD*%
D11*
%TO.C,C31*%
X63050000Y-72000000D03*
X64950000Y-72000000D03*
%TD*%
D27*
%TO.C,C40*%
X161800000Y-90000000D03*
X167200000Y-90000000D03*
%TD*%
D46*
%TO.C,J6*%
X176000000Y-113000000D03*
D47*
X176000000Y-109500000D03*
%TD*%
D28*
%TO.C,R20*%
X66087500Y-74500000D03*
X67912500Y-74500000D03*
%TD*%
D37*
%TO.C,J4*%
X100000000Y-54500000D03*
D38*
X102540000Y-54500000D03*
X105080000Y-54500000D03*
X107620000Y-54500000D03*
X110160000Y-54500000D03*
X112700000Y-54500000D03*
X115240000Y-54500000D03*
X117780000Y-54500000D03*
X120320000Y-54500000D03*
X122860000Y-54500000D03*
X125400000Y-54500000D03*
X127940000Y-54500000D03*
X130480000Y-54500000D03*
%TD*%
D11*
%TO.C,C17*%
X165050000Y-110000000D03*
X166950000Y-110000000D03*
%TD*%
%TO.C,C11*%
X75050000Y-107000000D03*
X76950000Y-107000000D03*
%TD*%
D28*
%TO.C,R25*%
X108587500Y-71500000D03*
X110412500Y-71500000D03*
%TD*%
D11*
%TO.C,C1*%
X139050000Y-83000000D03*
X140950000Y-83000000D03*
%TD*%
D48*
%TO.C,J2*%
X56800000Y-92110000D03*
X56800000Y-97890000D03*
D49*
X58245000Y-91750000D03*
X58245000Y-92550000D03*
D50*
X58245000Y-93750000D03*
X58245000Y-94750000D03*
X58245000Y-95250000D03*
X58245000Y-96250000D03*
D49*
X58245000Y-97450000D03*
X58245000Y-98250000D03*
X58245000Y-98250000D03*
X58245000Y-97450000D03*
D50*
X58245000Y-96750000D03*
X58245000Y-95750000D03*
X58245000Y-94250000D03*
X58245000Y-93250000D03*
D49*
X58245000Y-92550000D03*
X58245000Y-91750000D03*
D51*
X57330000Y-90680000D03*
D52*
X53150000Y-90680000D03*
D51*
X57330000Y-99320000D03*
D52*
X53150000Y-99320000D03*
%TD*%
D28*
%TO.C,R24*%
X105587500Y-69000000D03*
X107412500Y-69000000D03*
%TD*%
D53*
%TO.C,J1*%
X166500000Y-70000000D03*
X173150000Y-70000000D03*
X169050000Y-74700000D03*
%TD*%
D28*
%TO.C,R7*%
X65087500Y-84000000D03*
X66912500Y-84000000D03*
%TD*%
%TO.C,R13*%
X90087500Y-79000000D03*
X91912500Y-79000000D03*
%TD*%
%TO.C,R22*%
X81087500Y-69500000D03*
X82912500Y-69500000D03*
%TD*%
D11*
%TO.C,C13*%
X153050000Y-107500000D03*
X154950000Y-107500000D03*
%TD*%
%TO.C,C36*%
X114550000Y-69000000D03*
X116450000Y-69000000D03*
%TD*%
%TO.C,C8*%
X61050000Y-104500000D03*
X62950000Y-104500000D03*
%TD*%
D54*
%TO.C,U2*%
X157537500Y-101500000D03*
X157537500Y-102000000D03*
X157537500Y-102500000D03*
X157537500Y-103000000D03*
X157537500Y-103500000D03*
X157537500Y-104000000D03*
X157537500Y-104500000D03*
D55*
X158500000Y-105462500D03*
X159000000Y-105462500D03*
X159500000Y-105462500D03*
X160000000Y-105462500D03*
X160500000Y-105462500D03*
X161000000Y-105462500D03*
X161500000Y-105462500D03*
D54*
X162462500Y-104500000D03*
X162462500Y-104000000D03*
X162462500Y-103500000D03*
X162462500Y-103000000D03*
X162462500Y-102500000D03*
X162462500Y-102000000D03*
X162462500Y-101500000D03*
D55*
X161500000Y-100537500D03*
X161000000Y-100537500D03*
X160500000Y-100537500D03*
X160000000Y-100537500D03*
X159500000Y-100537500D03*
X159000000Y-100537500D03*
X158500000Y-100537500D03*
D56*
X160000000Y-103000000D03*
%TD*%
D57*
X174500000Y-119500000D03*
X61000000Y-54500000D03*
X63540000Y-54500000D03*
X66080000Y-54500000D03*
X68620000Y-54500000D03*
X71160000Y-54500000D03*
X73700000Y-54500000D03*
X76240000Y-54500000D03*
X78780000Y-54500000D03*
X81320000Y-54500000D03*
X83860000Y-54500000D03*
X86400000Y-54500000D03*
X88940000Y-54500000D03*
X91480000Y-54500000D03*
X55500000Y-55500000D03*
X174500000Y-55500000D03*
X176000000Y-91000000D03*
X176000000Y-93500000D03*
X176000000Y-96000000D03*
X176000000Y-98500000D03*
X55500000Y-119500000D03*
X113000000Y-121000000D03*
X115540000Y-121000000D03*
X118080000Y-121000000D03*
X120620000Y-121000000D03*
X123160000Y-121000000D03*
X125700000Y-121000000D03*
X176000000Y-113000000D03*
X176000000Y-109500000D03*
X100000000Y-54500000D03*
X102540000Y-54500000D03*
X105080000Y-54500000D03*
X107620000Y-54500000D03*
X110160000Y-54500000D03*
X112700000Y-54500000D03*
X115240000Y-54500000D03*
X117780000Y-54500000D03*
X120320000Y-54500000D03*
X122860000Y-54500000D03*
X125400000Y-54500000D03*
X127940000Y-54500000D03*
X130480000Y-54500000D03*
X56800000Y-92110000D03*
X56800000Y-97890000D03*
D58*
X57330000Y-90680000D03*
D59*
X53150000Y-90680000D03*
D58*
X57330000Y-99320000D03*
D59*
X53150000Y-99320000D03*
D60*
X166500000Y-70000000D03*
X173150000Y-70000000D03*
X169050000Y-74700000D03*
M02*
