%TF.GenerationSoftware,KiCad,Pcbnew,10.0.4-10.0.4~ubuntu24.04.1*%
%TF.CreationDate,2026-07-19T19:20:08-07:00*%
%TF.ProjectId,cook_hub,636f6f6b-5f68-4756-922e-6b696361645f,rev?*%
%TF.SameCoordinates,Original*%
%TF.FileFunction,Soldermask,Bot*%
%TF.FilePolarity,Negative*%
%FSLAX46Y46*%
G04 Gerber Fmt 4.6, Leading zero omitted, Abs format (unit mm)*
G04 Created by KiCad (PCBNEW 10.0.4-10.0.4~ubuntu24.04.1) date 2026-07-19 19:20:08*
%MOMM*%
%LPD*%
G01*
G04 APERTURE LIST*
G04 Aperture macros list*
%AMRoundRect*
0 Rectangle with rounded corners*
0 $1 Rounding radius*
0 $2 $3 $4 $5 $6 $7 $8 $9 X,Y pos of 4 corners*
0 Add a 4 corners polygon primitive as box body*
4,1,4,$2,$3,$4,$5,$6,$7,$8,$9,$2,$3,0*
0 Add four circle primitives for the rounded corners*
1,1,$1+$1,$2,$3*
1,1,$1+$1,$4,$5*
1,1,$1+$1,$6,$7*
1,1,$1+$1,$8,$9*
0 Add four rect primitives between the rounded corners*
20,1,$1+$1,$2,$3,$4,$5,0*
20,1,$1+$1,$4,$5,$6,$7,0*
20,1,$1+$1,$6,$7,$8,$9,0*
20,1,$1+$1,$8,$9,$2,$3,0*%
G04 Aperture macros list end*
%ADD10R,1.500000X1.500000*%
%ADD11C,1.500000*%
%ADD12C,3.200000*%
%ADD13R,2.600000X2.600000*%
%ADD14C,2.600000*%
%ADD15RoundRect,0.250000X0.725000X-0.600000X0.725000X0.600000X-0.725000X0.600000X-0.725000X-0.600000X0*%
%ADD16O,1.950000X1.700000*%
%ADD17RoundRect,0.250000X-0.600000X-0.725000X0.600000X-0.725000X0.600000X0.725000X-0.600000X0.725000X0*%
%ADD18O,1.700000X1.950000*%
%ADD19C,1.600000*%
%ADD20R,4.000000X2.000000*%
%ADD21O,3.300000X2.000000*%
%ADD22O,2.000000X3.500000*%
%ADD23R,1.700000X1.700000*%
%ADD24C,1.700000*%
%ADD25RoundRect,0.250000X0.750000X-0.600000X0.750000X0.600000X-0.750000X0.600000X-0.750000X-0.600000X0*%
%ADD26O,2.000000X1.700000*%
%ADD27C,0.350000*%
%ADD28O,3.000000X1.000000*%
%ADD29O,2.300000X1.000000*%
%ADD30O,1.000000X2.500000*%
G04 APERTURE END LIST*
D10*
%TO.C,K6*%
X101560000Y-78500000D03*
D11*
X101560000Y-93740000D03*
X109180000Y-93740000D03*
X109180000Y-78500000D03*
%TD*%
D10*
%TO.C,K1*%
X66000000Y-58000000D03*
D11*
X66000000Y-73240000D03*
X73620000Y-73240000D03*
X73620000Y-58000000D03*
%TD*%
D12*
%TO.C,H4*%
X201000000Y-136000000D03*
%TD*%
D10*
%TO.C,K12*%
X154900000Y-78500000D03*
D11*
X154900000Y-93740000D03*
X162520000Y-93740000D03*
X162520000Y-78500000D03*
%TD*%
D13*
%TO.C,J5*%
X25000000Y-34750000D03*
D14*
X25000000Y-31250000D03*
%TD*%
D12*
%TO.C,H3*%
X24000000Y-136000000D03*
%TD*%
%TO.C,H5*%
X24000000Y-110500000D03*
%TD*%
D10*
%TO.C,K7*%
X119340000Y-58000000D03*
D11*
X119340000Y-73240000D03*
X126960000Y-73240000D03*
X126960000Y-58000000D03*
%TD*%
D10*
%TO.C,K9*%
X137120000Y-58000000D03*
D11*
X137120000Y-73240000D03*
X144740000Y-73240000D03*
X144740000Y-58000000D03*
%TD*%
D15*
%TO.C,J7*%
X24500000Y-92000000D03*
D16*
X24500000Y-89500000D03*
X24500000Y-87000000D03*
%TD*%
D17*
%TO.C,J9*%
X55000000Y-136000000D03*
D18*
X57500000Y-136000000D03*
X60000000Y-136000000D03*
X62500000Y-136000000D03*
X65000000Y-136000000D03*
X67500000Y-136000000D03*
%TD*%
D19*
%TO.C,J1*%
X37000000Y-138000000D03*
D20*
X37000000Y-129000000D03*
D21*
X37000000Y-135000000D03*
D22*
X32500000Y-136000000D03*
X41500000Y-136000000D03*
%TD*%
D10*
%TO.C,K3*%
X83780000Y-58000000D03*
D11*
X83780000Y-73240000D03*
X91400000Y-73240000D03*
X91400000Y-58000000D03*
%TD*%
D12*
%TO.C,H6*%
X126000000Y-124000000D03*
%TD*%
D17*
%TO.C,J12*%
X116000000Y-136000000D03*
D18*
X118500000Y-136000000D03*
X121000000Y-136000000D03*
X123500000Y-136000000D03*
X126000000Y-136000000D03*
%TD*%
D10*
%TO.C,K14*%
X172680000Y-78500000D03*
D11*
X172680000Y-93740000D03*
X180300000Y-93740000D03*
X180300000Y-78500000D03*
%TD*%
D10*
%TO.C,K13*%
X172680000Y-58000000D03*
D11*
X172680000Y-73240000D03*
X180300000Y-73240000D03*
X180300000Y-58000000D03*
%TD*%
D15*
%TO.C,J14*%
X24500000Y-78000000D03*
D16*
X24500000Y-75500000D03*
X24500000Y-73000000D03*
X24500000Y-70500000D03*
X24500000Y-68000000D03*
%TD*%
D10*
%TO.C,K15*%
X190460000Y-58000000D03*
D11*
X190460000Y-73240000D03*
X198080000Y-73240000D03*
X198080000Y-58000000D03*
%TD*%
D23*
%TO.C,JP2*%
X56000000Y-74000000D03*
D24*
X56000000Y-76540000D03*
X56000000Y-79080000D03*
%TD*%
D15*
%TO.C,J3*%
X24500000Y-46000000D03*
D16*
X24500000Y-43500000D03*
X24500000Y-41000000D03*
X24500000Y-38500000D03*
%TD*%
D17*
%TO.C,J13*%
X137000000Y-136000000D03*
D18*
X139500000Y-136000000D03*
X142000000Y-136000000D03*
X144500000Y-136000000D03*
%TD*%
D12*
%TO.C,H1*%
X24000000Y-24000000D03*
%TD*%
D10*
%TO.C,K10*%
X137120000Y-78500000D03*
D11*
X137120000Y-93740000D03*
X144740000Y-93740000D03*
X144740000Y-78500000D03*
%TD*%
D15*
%TO.C,J4*%
X24500000Y-62000000D03*
D16*
X24500000Y-59500000D03*
X24500000Y-57000000D03*
X24500000Y-54500000D03*
%TD*%
D23*
%TO.C,JP5*%
X23900000Y-116500000D03*
D24*
X23900000Y-119040000D03*
%TD*%
D10*
%TO.C,K16*%
X190460000Y-78500000D03*
D11*
X190460000Y-93740000D03*
X198080000Y-93740000D03*
X198080000Y-78500000D03*
%TD*%
D10*
%TO.C,K5*%
X101560000Y-58000000D03*
D11*
X101560000Y-73240000D03*
X109180000Y-73240000D03*
X109180000Y-58000000D03*
%TD*%
D10*
%TO.C,K2*%
X66000000Y-78500000D03*
D11*
X66000000Y-93740000D03*
X73620000Y-93740000D03*
X73620000Y-78500000D03*
%TD*%
D23*
%TO.C,JP1*%
X42500000Y-44500000D03*
D24*
X42500000Y-47040000D03*
X42500000Y-49580000D03*
%TD*%
D25*
%TO.C,J8*%
X24500000Y-101000000D03*
D26*
X24500000Y-98500000D03*
%TD*%
D23*
%TO.C,J15*%
X37000000Y-23200000D03*
D24*
X39540000Y-23200000D03*
X42080000Y-23200000D03*
X44620000Y-23200000D03*
X47160000Y-23200000D03*
X49700000Y-23200000D03*
%TD*%
D12*
%TO.C,H2*%
X201000000Y-24500000D03*
%TD*%
D10*
%TO.C,K11*%
X154900000Y-58000000D03*
D11*
X154900000Y-73240000D03*
X162520000Y-73240000D03*
X162520000Y-58000000D03*
%TD*%
D13*
%TO.C,J10*%
X97250000Y-136000000D03*
D14*
X100750000Y-136000000D03*
%TD*%
D17*
%TO.C,J6*%
X76000000Y-136000000D03*
D18*
X78500000Y-136000000D03*
X81000000Y-136000000D03*
X83500000Y-136000000D03*
X86000000Y-136000000D03*
%TD*%
D10*
%TO.C,K8*%
X119340000Y-78500000D03*
D11*
X119340000Y-93740000D03*
X126960000Y-93740000D03*
X126960000Y-78500000D03*
%TD*%
D23*
%TO.C,J11*%
X120950000Y-28730000D03*
D24*
X120950000Y-31270000D03*
X123490000Y-28730000D03*
X123490000Y-31270000D03*
X126030000Y-28730000D03*
X126030000Y-31270000D03*
X128570000Y-28730000D03*
X128570000Y-31270000D03*
X131110000Y-28730000D03*
X131110000Y-31270000D03*
X133650000Y-28730000D03*
X133650000Y-31270000D03*
X136190000Y-28730000D03*
X136190000Y-31270000D03*
X138730000Y-28730000D03*
X138730000Y-31270000D03*
X141270000Y-28730000D03*
X141270000Y-31270000D03*
X143810000Y-28730000D03*
X143810000Y-31270000D03*
X146350000Y-28730000D03*
X146350000Y-31270000D03*
X148890000Y-28730000D03*
X148890000Y-31270000D03*
X151430000Y-28730000D03*
X151430000Y-31270000D03*
X153970000Y-28730000D03*
X153970000Y-31270000D03*
X156510000Y-28730000D03*
X156510000Y-31270000D03*
X159050000Y-28730000D03*
X159050000Y-31270000D03*
%TD*%
D23*
%TO.C,J2*%
X33110000Y-59870000D03*
D24*
X33110000Y-62410000D03*
X33110000Y-64950000D03*
X33110000Y-67490000D03*
X33110000Y-70030000D03*
X33110000Y-72570000D03*
X33110000Y-75110000D03*
X33110000Y-77650000D03*
X33110000Y-80190000D03*
X33110000Y-82730000D03*
X33110000Y-85270000D03*
X33110000Y-87810000D03*
X33110000Y-90350000D03*
X33110000Y-92890000D03*
X33110000Y-95430000D03*
X33110000Y-97970000D03*
X33110000Y-100510000D03*
X33110000Y-103050000D03*
X33110000Y-105590000D03*
X33110000Y-108130000D03*
X50890000Y-108130000D03*
X50890000Y-105590000D03*
X50890000Y-103050000D03*
X50890000Y-100510000D03*
X50890000Y-97970000D03*
X50890000Y-95430000D03*
X50890000Y-92890000D03*
X50890000Y-90350000D03*
X50890000Y-87810000D03*
X50890000Y-85270000D03*
X50890000Y-82730000D03*
X50890000Y-80190000D03*
X50890000Y-77650000D03*
X50890000Y-75110000D03*
X50890000Y-72570000D03*
X50890000Y-70030000D03*
X50890000Y-67490000D03*
X50890000Y-64950000D03*
X50890000Y-62410000D03*
X50890000Y-59870000D03*
%TD*%
D10*
%TO.C,K4*%
X83780000Y-78500000D03*
D11*
X83780000Y-93740000D03*
X91400000Y-93740000D03*
X91400000Y-78500000D03*
%TD*%
D27*
X101560000Y-78500000D03*
X101560000Y-93740000D03*
X109180000Y-93740000D03*
X109180000Y-78500000D03*
X66000000Y-58000000D03*
X66000000Y-73240000D03*
X73620000Y-73240000D03*
X73620000Y-58000000D03*
X201000000Y-136000000D03*
X154900000Y-78500000D03*
X154900000Y-93740000D03*
X162520000Y-93740000D03*
X162520000Y-78500000D03*
X25000000Y-34750000D03*
X25000000Y-31250000D03*
X24000000Y-136000000D03*
X24000000Y-110500000D03*
X119340000Y-58000000D03*
X119340000Y-73240000D03*
X126960000Y-73240000D03*
X126960000Y-58000000D03*
X137120000Y-58000000D03*
X137120000Y-73240000D03*
X144740000Y-73240000D03*
X144740000Y-58000000D03*
X24500000Y-92000000D03*
X24500000Y-89500000D03*
X24500000Y-87000000D03*
X55000000Y-136000000D03*
X57500000Y-136000000D03*
X60000000Y-136000000D03*
X62500000Y-136000000D03*
X65000000Y-136000000D03*
X67500000Y-136000000D03*
X37000000Y-138000000D03*
D28*
X37000000Y-129000000D03*
D29*
X37000000Y-135000000D03*
D30*
X32500000Y-136000000D03*
X41500000Y-136000000D03*
D27*
X83780000Y-58000000D03*
X83780000Y-73240000D03*
X91400000Y-73240000D03*
X91400000Y-58000000D03*
X126000000Y-124000000D03*
X116000000Y-136000000D03*
X118500000Y-136000000D03*
X121000000Y-136000000D03*
X123500000Y-136000000D03*
X126000000Y-136000000D03*
X172680000Y-78500000D03*
X172680000Y-93740000D03*
X180300000Y-93740000D03*
X180300000Y-78500000D03*
X172680000Y-58000000D03*
X172680000Y-73240000D03*
X180300000Y-73240000D03*
X180300000Y-58000000D03*
X24500000Y-78000000D03*
X24500000Y-75500000D03*
X24500000Y-73000000D03*
X24500000Y-70500000D03*
X24500000Y-68000000D03*
X190460000Y-58000000D03*
X190460000Y-73240000D03*
X198080000Y-73240000D03*
X198080000Y-58000000D03*
X56000000Y-74000000D03*
X56000000Y-76540000D03*
X56000000Y-79080000D03*
X24500000Y-46000000D03*
X24500000Y-43500000D03*
X24500000Y-41000000D03*
X24500000Y-38500000D03*
X137000000Y-136000000D03*
X139500000Y-136000000D03*
X142000000Y-136000000D03*
X144500000Y-136000000D03*
X24000000Y-24000000D03*
X137120000Y-78500000D03*
X137120000Y-93740000D03*
X144740000Y-93740000D03*
X144740000Y-78500000D03*
X24500000Y-62000000D03*
X24500000Y-59500000D03*
X24500000Y-57000000D03*
X24500000Y-54500000D03*
X23900000Y-116500000D03*
X23900000Y-119040000D03*
X190460000Y-78500000D03*
X190460000Y-93740000D03*
X198080000Y-93740000D03*
X198080000Y-78500000D03*
X101560000Y-58000000D03*
X101560000Y-73240000D03*
X109180000Y-73240000D03*
X109180000Y-58000000D03*
X66000000Y-78500000D03*
X66000000Y-93740000D03*
X73620000Y-93740000D03*
X73620000Y-78500000D03*
X42500000Y-44500000D03*
X42500000Y-47040000D03*
X42500000Y-49580000D03*
X24500000Y-101000000D03*
X24500000Y-98500000D03*
X37000000Y-23200000D03*
X39540000Y-23200000D03*
X42080000Y-23200000D03*
X44620000Y-23200000D03*
X47160000Y-23200000D03*
X49700000Y-23200000D03*
X201000000Y-24500000D03*
X154900000Y-58000000D03*
X154900000Y-73240000D03*
X162520000Y-73240000D03*
X162520000Y-58000000D03*
X97250000Y-136000000D03*
X100750000Y-136000000D03*
X76000000Y-136000000D03*
X78500000Y-136000000D03*
X81000000Y-136000000D03*
X83500000Y-136000000D03*
X86000000Y-136000000D03*
X119340000Y-78500000D03*
X119340000Y-93740000D03*
X126960000Y-93740000D03*
X126960000Y-78500000D03*
X120950000Y-28730000D03*
X120950000Y-31270000D03*
X123490000Y-28730000D03*
X123490000Y-31270000D03*
X126030000Y-28730000D03*
X126030000Y-31270000D03*
X128570000Y-28730000D03*
X128570000Y-31270000D03*
X131110000Y-28730000D03*
X131110000Y-31270000D03*
X133650000Y-28730000D03*
X133650000Y-31270000D03*
X136190000Y-28730000D03*
X136190000Y-31270000D03*
X138730000Y-28730000D03*
X138730000Y-31270000D03*
X141270000Y-28730000D03*
X141270000Y-31270000D03*
X143810000Y-28730000D03*
X143810000Y-31270000D03*
X146350000Y-28730000D03*
X146350000Y-31270000D03*
X148890000Y-28730000D03*
X148890000Y-31270000D03*
X151430000Y-28730000D03*
X151430000Y-31270000D03*
X153970000Y-28730000D03*
X153970000Y-31270000D03*
X156510000Y-28730000D03*
X156510000Y-31270000D03*
X159050000Y-28730000D03*
X159050000Y-31270000D03*
X33110000Y-59870000D03*
X33110000Y-62410000D03*
X33110000Y-64950000D03*
X33110000Y-67490000D03*
X33110000Y-70030000D03*
X33110000Y-72570000D03*
X33110000Y-75110000D03*
X33110000Y-77650000D03*
X33110000Y-80190000D03*
X33110000Y-82730000D03*
X33110000Y-85270000D03*
X33110000Y-87810000D03*
X33110000Y-90350000D03*
X33110000Y-92890000D03*
X33110000Y-95430000D03*
X33110000Y-97970000D03*
X33110000Y-100510000D03*
X33110000Y-103050000D03*
X33110000Y-105590000D03*
X33110000Y-108130000D03*
X50890000Y-108130000D03*
X50890000Y-105590000D03*
X50890000Y-103050000D03*
X50890000Y-100510000D03*
X50890000Y-97970000D03*
X50890000Y-95430000D03*
X50890000Y-92890000D03*
X50890000Y-90350000D03*
X50890000Y-87810000D03*
X50890000Y-85270000D03*
X50890000Y-82730000D03*
X50890000Y-80190000D03*
X50890000Y-77650000D03*
X50890000Y-75110000D03*
X50890000Y-72570000D03*
X50890000Y-70030000D03*
X50890000Y-67490000D03*
X50890000Y-64950000D03*
X50890000Y-62410000D03*
X50890000Y-59870000D03*
X83780000Y-78500000D03*
X83780000Y-93740000D03*
X91400000Y-93740000D03*
X91400000Y-78500000D03*
M02*
