%TF.GenerationSoftware,KiCad,Pcbnew,10.0.4-10.0.4~ubuntu24.04.1*%
%TF.CreationDate,2026-07-19T19:20:08-07:00*%
%TF.ProjectId,cook_hub,636f6f6b-5f68-4756-922e-6b696361645f,rev?*%
%TF.SameCoordinates,Original*%
%TF.FileFunction,Paste,Top*%
%TF.FilePolarity,Positive*%
%FSLAX46Y46*%
G04 Gerber Fmt 4.6, Leading zero omitted, Abs format (unit mm)*
G04 Created by KiCad (PCBNEW 10.0.4-10.0.4~ubuntu24.04.1) date 2026-07-19 19:20:08*
%MOMM*%
%LPD*%
G01*
G04 APERTURE LIST*
G04 Aperture macros list*
%AMRoundRect*
0 Rectangle with rounded corners*
0 $1 Rounding radius*
0 $2 $3 $4 $5 $6 $7 $8 $9 X,Y pos of 4 corners*
0 Add a 4 corners polygon primitive as box body*
4,1,4,$2,$3,$4,$5,$6,$7,$8,$9,$2,$3,0*
0 Add four circle primitives for the rounded corners*
1,1,$1+$1,$2,$3*
1,1,$1+$1,$4,$5*
1,1,$1+$1,$6,$7*
1,1,$1+$1,$8,$9*
0 Add four rect primitives between the rounded corners*
20,1,$1+$1,$2,$3,$4,$5,0*
20,1,$1+$1,$4,$5,$6,$7,0*
20,1,$1+$1,$6,$7,$8,$9,0*
20,1,$1+$1,$8,$9,$2,$3,0*%
G04 Aperture macros list end*
%ADD10R,1.600000X0.300000*%
%ADD11RoundRect,0.375000X-0.625000X-0.375000X0.625000X-0.375000X0.625000X0.375000X-0.625000X0.375000X0*%
%ADD12RoundRect,0.500000X-0.500000X-1.400000X0.500000X-1.400000X0.500000X1.400000X-0.500000X1.400000X0*%
%ADD13RoundRect,0.250000X1.450000X-0.312500X1.450000X0.312500X-1.450000X0.312500X-1.450000X-0.312500X0*%
%ADD14RoundRect,0.200000X-0.200000X-0.275000X0.200000X-0.275000X0.200000X0.275000X-0.200000X0.275000X0*%
%ADD15RoundRect,0.250000X-0.250000X-0.475000X0.250000X-0.475000X0.250000X0.475000X-0.250000X0.475000X0*%
%ADD16RoundRect,0.225000X-0.225000X-0.250000X0.225000X-0.250000X0.225000X0.250000X-0.225000X0.250000X0*%
%ADD17R,1.000000X0.750000*%
%ADD18RoundRect,0.112500X-0.187500X-0.112500X0.187500X-0.112500X0.187500X0.112500X-0.187500X0.112500X0*%
%ADD19RoundRect,0.249999X-0.750001X-0.640001X0.750001X-0.640001X0.750001X0.640001X-0.750001X0.640001X0*%
%ADD20RoundRect,0.087500X-0.425000X-0.087500X0.425000X-0.087500X0.425000X0.087500X-0.425000X0.087500X0*%
%ADD21RoundRect,0.100000X-0.637500X-0.100000X0.637500X-0.100000X0.637500X0.100000X-0.637500X0.100000X0*%
%ADD22RoundRect,0.250000X-1.000000X-0.900000X1.000000X-0.900000X1.000000X0.900000X-1.000000X0.900000X0*%
%ADD23RoundRect,0.150000X-0.512500X-0.150000X0.512500X-0.150000X0.512500X0.150000X-0.512500X0.150000X0*%
%ADD24RoundRect,0.150000X-0.587500X-0.150000X0.587500X-0.150000X0.587500X0.150000X-0.587500X0.150000X0*%
%ADD25RoundRect,0.250000X-1.500000X-0.550000X1.500000X-0.550000X1.500000X0.550000X-1.500000X0.550000X0*%
%ADD26RoundRect,0.150000X-0.825000X-0.150000X0.825000X-0.150000X0.825000X0.150000X-0.825000X0.150000X0*%
%ADD27RoundRect,0.150000X0.150000X-0.875000X0.150000X0.875000X-0.150000X0.875000X-0.150000X-0.875000X0*%
%ADD28RoundRect,0.225000X0.250000X-0.225000X0.250000X0.225000X-0.250000X0.225000X-0.250000X-0.225000X0*%
%ADD29RoundRect,0.218750X-0.218750X-0.381250X0.218750X-0.381250X0.218750X0.381250X-0.218750X0.381250X0*%
%ADD30RoundRect,0.150000X0.150000X-0.587500X0.150000X0.587500X-0.150000X0.587500X-0.150000X-0.587500X0*%
%ADD31RoundRect,0.250000X-1.000000X-0.650000X1.000000X-0.650000X1.000000X0.650000X-1.000000X0.650000X0*%
G04 APERTURE END LIST*
D10*
%TO.C,U7*%
X64800000Y-109025000D03*
X64800000Y-109675000D03*
X64800000Y-110325000D03*
X64800000Y-110975000D03*
X68200000Y-110975000D03*
X68200000Y-110325000D03*
X68200000Y-109675000D03*
X68200000Y-109025000D03*
%TD*%
D11*
%TO.C,U12*%
X52850000Y-119700000D03*
X52850000Y-122000000D03*
D12*
X59150000Y-122000000D03*
D11*
X52850000Y-124300000D03*
%TD*%
D13*
%TO.C,F1*%
X28000000Y-119137500D03*
X28000000Y-114862500D03*
%TD*%
D14*
%TO.C,R21*%
X69375000Y-116600000D03*
X71025000Y-116600000D03*
%TD*%
D15*
%TO.C,C6*%
X28050000Y-23600000D03*
X29950000Y-23600000D03*
%TD*%
D14*
%TO.C,R42*%
X36675000Y-46500000D03*
X38325000Y-46500000D03*
%TD*%
%TO.C,R76*%
X37175000Y-56700000D03*
X38825000Y-56700000D03*
%TD*%
%TO.C,R72*%
X38075000Y-49000000D03*
X39725000Y-49000000D03*
%TD*%
%TO.C,R77*%
X31275000Y-52800000D03*
X32925000Y-52800000D03*
%TD*%
D16*
%TO.C,C31*%
X89525000Y-126000000D03*
X91075000Y-126000000D03*
%TD*%
D17*
%TO.C,SW1*%
X53000000Y-92125000D03*
X59000000Y-92125000D03*
X53000000Y-95875000D03*
X59000000Y-95875000D03*
%TD*%
D14*
%TO.C,R24*%
X78175000Y-114000000D03*
X79825000Y-114000000D03*
%TD*%
%TO.C,R43*%
X33875000Y-56600000D03*
X35525000Y-56600000D03*
%TD*%
%TO.C,R54*%
X22975000Y-124000000D03*
X24625000Y-124000000D03*
%TD*%
D16*
%TO.C,C18*%
X39225000Y-33000000D03*
X40775000Y-33000000D03*
%TD*%
D18*
%TO.C,D4*%
X24150000Y-82600000D03*
X26250000Y-82600000D03*
%TD*%
D19*
%TO.C,U10*%
X94235000Y-125730000D03*
X94235000Y-128270000D03*
X103765000Y-128270000D03*
X103765000Y-125730000D03*
%TD*%
D18*
%TO.C,D6*%
X37750000Y-111400000D03*
X39850000Y-111400000D03*
%TD*%
D20*
%TO.C,U8*%
X65662500Y-117350000D03*
X65662500Y-118000000D03*
X65662500Y-118650000D03*
X67337500Y-118650000D03*
X67337500Y-117350000D03*
%TD*%
D16*
%TO.C,C14*%
X69225000Y-113500000D03*
X70775000Y-113500000D03*
%TD*%
D14*
%TO.C,R61*%
X29375000Y-40000000D03*
X31025000Y-40000000D03*
%TD*%
D15*
%TO.C,C19*%
X42550000Y-33000000D03*
X44450000Y-33000000D03*
%TD*%
D16*
%TO.C,C22*%
X105725000Y-121400000D03*
X107275000Y-121400000D03*
%TD*%
%TO.C,C52*%
X30025000Y-112900000D03*
X31575000Y-112900000D03*
%TD*%
D14*
%TO.C,R23*%
X51175000Y-110500000D03*
X52825000Y-110500000D03*
%TD*%
D16*
%TO.C,C9*%
X123225000Y-109000000D03*
X124775000Y-109000000D03*
%TD*%
%TO.C,C21*%
X29425000Y-61000000D03*
X30975000Y-61000000D03*
%TD*%
D14*
%TO.C,R56*%
X22475000Y-121900000D03*
X24125000Y-121900000D03*
%TD*%
D16*
%TO.C,C20*%
X30725000Y-51000000D03*
X32275000Y-51000000D03*
%TD*%
D14*
%TO.C,R51*%
X27675000Y-108000000D03*
X29325000Y-108000000D03*
%TD*%
D18*
%TO.C,D3*%
X21850000Y-105400000D03*
X23950000Y-105400000D03*
%TD*%
D21*
%TO.C,U1*%
X31137500Y-31050000D03*
X31137500Y-31700000D03*
X31137500Y-32350000D03*
X31137500Y-33000000D03*
X31137500Y-33650000D03*
X31137500Y-34300000D03*
X31137500Y-34950000D03*
X36862500Y-34950000D03*
X36862500Y-34300000D03*
X36862500Y-33650000D03*
X36862500Y-33000000D03*
X36862500Y-32350000D03*
X36862500Y-31700000D03*
X36862500Y-31050000D03*
%TD*%
D14*
%TO.C,R75*%
X30475000Y-54700000D03*
X32125000Y-54700000D03*
%TD*%
%TO.C,R62*%
X30175000Y-37000000D03*
X31825000Y-37000000D03*
%TD*%
D22*
%TO.C,D2*%
X37850000Y-117000000D03*
X42150000Y-117000000D03*
%TD*%
D16*
%TO.C,C12*%
X111225000Y-124500000D03*
X112775000Y-124500000D03*
%TD*%
D23*
%TO.C,U15*%
X108862500Y-126050000D03*
X108862500Y-127000000D03*
X108862500Y-127950000D03*
X111137500Y-127950000D03*
X111137500Y-127000000D03*
X111137500Y-126050000D03*
%TD*%
D16*
%TO.C,C5*%
X47225000Y-125700000D03*
X48775000Y-125700000D03*
%TD*%
D23*
%TO.C,U14*%
X29062500Y-63050000D03*
X29062500Y-64000000D03*
X29062500Y-64950000D03*
X31337500Y-64950000D03*
X31337500Y-64000000D03*
X31337500Y-63050000D03*
%TD*%
D24*
%TO.C,Q3*%
X33062500Y-116050000D03*
X33062500Y-117950000D03*
X34937500Y-117000000D03*
%TD*%
D25*
%TO.C,CE1*%
X43300000Y-121000000D03*
X48700000Y-121000000D03*
%TD*%
D14*
%TO.C,R11*%
X65675000Y-114300000D03*
X67325000Y-114300000D03*
%TD*%
%TO.C,R32*%
X89375000Y-127900000D03*
X91025000Y-127900000D03*
%TD*%
D26*
%TO.C,U11*%
X87525000Y-116190000D03*
X87525000Y-117460000D03*
X87525000Y-118730000D03*
X87525000Y-120000000D03*
X87525000Y-121270000D03*
X87525000Y-122540000D03*
X87525000Y-123810000D03*
X92475000Y-123810000D03*
X92475000Y-122540000D03*
X92475000Y-121270000D03*
X92475000Y-120000000D03*
X92475000Y-118730000D03*
X92475000Y-117460000D03*
X92475000Y-116190000D03*
%TD*%
D27*
%TO.C,U6*%
X152920000Y-114650000D03*
X154190000Y-114650000D03*
X155460000Y-114650000D03*
X156730000Y-114650000D03*
X158000000Y-114650000D03*
X159270000Y-114650000D03*
X160540000Y-114650000D03*
X161810000Y-114650000D03*
X163080000Y-114650000D03*
X163080000Y-105350000D03*
X161810000Y-105350000D03*
X160540000Y-105350000D03*
X159270000Y-105350000D03*
X158000000Y-105350000D03*
X156730000Y-105350000D03*
X155460000Y-105350000D03*
X154190000Y-105350000D03*
X152920000Y-105350000D03*
%TD*%
D28*
%TO.C,C11*%
X71500000Y-110775000D03*
X71500000Y-109225000D03*
%TD*%
D16*
%TO.C,C61*%
X33025000Y-39000000D03*
X34575000Y-39000000D03*
%TD*%
D14*
%TO.C,R44*%
X29375000Y-56500000D03*
X31025000Y-56500000D03*
%TD*%
%TO.C,R53*%
X26175000Y-122200000D03*
X27825000Y-122200000D03*
%TD*%
D16*
%TO.C,C62*%
X34225000Y-37000000D03*
X35775000Y-37000000D03*
%TD*%
D15*
%TO.C,C2*%
X52350000Y-127000000D03*
X54250000Y-127000000D03*
%TD*%
D29*
%TO.C,FB1*%
X26937500Y-26000000D03*
X29062500Y-26000000D03*
%TD*%
D15*
%TO.C,C8*%
X60550000Y-112500000D03*
X62450000Y-112500000D03*
%TD*%
D14*
%TO.C,R55*%
X44875000Y-115600000D03*
X46525000Y-115600000D03*
%TD*%
D16*
%TO.C,C53*%
X25725000Y-105000000D03*
X27275000Y-105000000D03*
%TD*%
D27*
%TO.C,U5*%
X86920000Y-114650000D03*
X88190000Y-114650000D03*
X89460000Y-114650000D03*
X90730000Y-114650000D03*
X92000000Y-114650000D03*
X93270000Y-114650000D03*
X94540000Y-114650000D03*
X95810000Y-114650000D03*
X97080000Y-114650000D03*
X97080000Y-105350000D03*
X95810000Y-105350000D03*
X94540000Y-105350000D03*
X93270000Y-105350000D03*
X92000000Y-105350000D03*
X90730000Y-105350000D03*
X89460000Y-105350000D03*
X88190000Y-105350000D03*
X86920000Y-105350000D03*
%TD*%
D14*
%TO.C,R12*%
X38675000Y-122000000D03*
X40325000Y-122000000D03*
%TD*%
D18*
%TO.C,D5*%
X44450000Y-113500000D03*
X46550000Y-113500000D03*
%TD*%
D16*
%TO.C,C51*%
X38425000Y-113600000D03*
X39975000Y-113600000D03*
%TD*%
D14*
%TO.C,R73*%
X42575000Y-52500000D03*
X44225000Y-52500000D03*
%TD*%
D16*
%TO.C,C4*%
X41225000Y-125700000D03*
X42775000Y-125700000D03*
%TD*%
D14*
%TO.C,R34*%
X83075000Y-113800000D03*
X84725000Y-113800000D03*
%TD*%
D23*
%TO.C,U9*%
X73862500Y-109050000D03*
X73862500Y-110000000D03*
X73862500Y-110950000D03*
X76137500Y-110950000D03*
X76137500Y-110000000D03*
X76137500Y-109050000D03*
%TD*%
D15*
%TO.C,C1*%
X56850000Y-127000000D03*
X58750000Y-127000000D03*
%TD*%
D14*
%TO.C,R31*%
X85575000Y-126500000D03*
X87225000Y-126500000D03*
%TD*%
D24*
%TO.C,Q2*%
X73062500Y-117050000D03*
X73062500Y-118950000D03*
X74937500Y-118000000D03*
%TD*%
D15*
%TO.C,C3*%
X33550000Y-113200000D03*
X35450000Y-113200000D03*
%TD*%
D14*
%TO.C,R25*%
X127175000Y-109000000D03*
X128825000Y-109000000D03*
%TD*%
D30*
%TO.C,Q1*%
X60550000Y-109737500D03*
X62450000Y-109737500D03*
X61500000Y-107862500D03*
%TD*%
D16*
%TO.C,C17*%
X95225000Y-120000000D03*
X96775000Y-120000000D03*
%TD*%
%TO.C,C7*%
X31225000Y-26000000D03*
X32775000Y-26000000D03*
%TD*%
D14*
%TO.C,R26*%
X101675000Y-123100000D03*
X103325000Y-123100000D03*
%TD*%
D16*
%TO.C,C15*%
X61725000Y-121000000D03*
X63275000Y-121000000D03*
%TD*%
D23*
%TO.C,U13*%
X29062500Y-47050000D03*
X29062500Y-48000000D03*
X29062500Y-48950000D03*
X31337500Y-48950000D03*
X31337500Y-48000000D03*
X31337500Y-47050000D03*
%TD*%
D26*
%TO.C,U3*%
X109525000Y-115555000D03*
X109525000Y-116825000D03*
X109525000Y-118095000D03*
X109525000Y-119365000D03*
X109525000Y-120635000D03*
X109525000Y-121905000D03*
X109525000Y-123175000D03*
X109525000Y-124445000D03*
X114475000Y-124445000D03*
X114475000Y-123175000D03*
X114475000Y-121905000D03*
X114475000Y-120635000D03*
X114475000Y-119365000D03*
X114475000Y-118095000D03*
X114475000Y-116825000D03*
X114475000Y-115555000D03*
%TD*%
D16*
%TO.C,C16*%
X78325000Y-112000000D03*
X79875000Y-112000000D03*
%TD*%
D26*
%TO.C,U4*%
X167525000Y-115555000D03*
X167525000Y-116825000D03*
X167525000Y-118095000D03*
X167525000Y-119365000D03*
X167525000Y-120635000D03*
X167525000Y-121905000D03*
X167525000Y-123175000D03*
X167525000Y-124445000D03*
X172475000Y-124445000D03*
X172475000Y-123175000D03*
X172475000Y-121905000D03*
X172475000Y-120635000D03*
X172475000Y-119365000D03*
X172475000Y-118095000D03*
X172475000Y-116825000D03*
X172475000Y-115555000D03*
%TD*%
D14*
%TO.C,R33*%
X83375000Y-117400000D03*
X85025000Y-117400000D03*
%TD*%
D16*
%TO.C,C33*%
X95025000Y-117400000D03*
X96575000Y-117400000D03*
%TD*%
D14*
%TO.C,R52*%
X27675000Y-111000000D03*
X29325000Y-111000000D03*
%TD*%
D18*
%TO.C,D7*%
X48250000Y-113700000D03*
X50350000Y-113700000D03*
%TD*%
D15*
%TO.C,C10*%
X36850000Y-125300000D03*
X38750000Y-125300000D03*
%TD*%
D16*
%TO.C,C13*%
X169225000Y-124500000D03*
X170775000Y-124500000D03*
%TD*%
D14*
%TO.C,R22*%
X71175000Y-121000000D03*
X72825000Y-121000000D03*
%TD*%
%TO.C,R41*%
X34775000Y-43700000D03*
X36425000Y-43700000D03*
%TD*%
%TO.C,R78*%
X39675000Y-54900000D03*
X41325000Y-54900000D03*
%TD*%
D16*
%TO.C,C63*%
X37725000Y-37000000D03*
X39275000Y-37000000D03*
%TD*%
D14*
%TO.C,R71*%
X35675000Y-50900000D03*
X37325000Y-50900000D03*
%TD*%
D31*
%TO.C,D1*%
X32000000Y-122000000D03*
X36000000Y-122000000D03*
%TD*%
D14*
%TO.C,R74*%
X45675000Y-50000000D03*
X47325000Y-50000000D03*
%TD*%
M02*
