M48
; DRILL file KiCad 10.0.4-10.0.4~ubuntu24.04.1 date 2026-07-19T19:20:08
; FORMAT={-:-/ absolute / metric / decimal}
; #@! TF.CreationDate,2026-07-19T19:20:08-07:00
; #@! TF.GenerationSoftware,Kicad,Pcbnew,10.0.4-10.0.4~ubuntu24.04.1
; #@! TF.FileFunction,Plated,1,4,PTH
FMAT,2
METRIC
; #@! TA.AperFunction,Plated,PTH,ViaDrill
T1C0.200
; #@! TA.AperFunction,Plated,PTH,ViaDrill
T2C0.300
; #@! TA.AperFunction,Plated,PTH,ComponentDrill
T3C0.800
; #@! TA.AperFunction,Plated,PTH,ComponentDrill
T4C0.950
; #@! TA.AperFunction,Plated,PTH,ComponentDrill
T5C1.000
; #@! TA.AperFunction,Plated,PTH,ComponentDrill
T6C1.200
%
G90
G05
T1
X31.137Y-33.65
X31.4Y-33.0
X40.35Y-113.25
X48.7Y-98.8
X52.7Y-87.1
X57.6Y-120.6
X65.5Y-118.05
X104.1Y-115.2
X115.2Y-119.4
X116.6Y-119.4
T2
X20.7Y-106.8
X20.7Y-116.7
X22.5Y-101.0
X22.6Y-41.0
X23.9Y-121.7
X23.95Y-105.4
X24.0Y-84.0
X24.0Y-108.0
X24.3Y-120.9
X25.8Y-48.7
X26.25Y-82.6
X26.6Y-121.0
X26.9Y-48.5
X26.9Y-52.8
X26.9Y-91.9
X26.9Y-103.8
X27.0Y-45.2
X27.0Y-61.0
X27.0Y-112.7
X27.0Y-116.0
X27.2Y-123.6
X27.27Y-105.0
X27.4Y-106.9
X27.4Y-124.4
X27.6Y-125.2
X28.4Y-38.2
X28.4Y-47.0
X28.4Y-51.3
X28.4Y-68.0
X28.4Y-91.9
X28.5Y-45.2
X28.5Y-61.0
X28.8Y-36.9
X29.0Y-126.6
X29.06Y-48.0
X29.06Y-64.0
X29.2Y-113.7
X29.4Y-62.7
X29.8Y-34.9
X29.95Y-23.6
X30.0Y-94.4
X30.0Y-113.9
X30.2Y-57.9
X30.3Y-116.2
X30.7Y-56.5
X30.9Y-47.0
X30.9Y-49.4
X30.9Y-93.5
X30.9Y-106.9
X30.98Y-61.0
X31.0Y-62.7
X31.0Y-95.4
X31.14Y-31.05
X31.2Y-124.1
X31.3Y-80.2
X31.3Y-82.7
X31.4Y-52.9
X31.4Y-111.0
X31.5Y-64.8
X31.57Y-112.9
X31.7Y-55.1
X31.8Y-125.3
X31.9Y-94.5
X32.1Y-38.1
X32.1Y-53.6
X32.27Y-51.0
X32.3Y-34.8
X32.4Y-110.6
X32.5Y-112.3
X32.77Y-26.0
X32.9Y-56.3
X33.0Y-49.7
X33.2Y-37.1
X33.7Y-124.7
X33.8Y-34.9
X33.8Y-106.9
X34.225Y-37.0
X34.9Y-87.8
X35.0Y-97.3
X35.0Y-110.8
X35.1Y-42.6
X35.1Y-125.1
X35.45Y-113.2
X35.6Y-28.9
X35.6Y-105.0
X35.7Y-107.3
X35.77Y-37.0
X35.8Y-49.0
X35.8Y-51.0
X35.8Y-55.0
X35.8Y-106.2
X36.0Y-72.0
X36.0Y-96.0
X36.0Y-120.0
X36.3Y-43.6
X36.4Y-38.5
X36.4Y-108.7
X36.6Y-125.1
X36.86Y-31.05
X36.9Y-30.2
X37.0Y-50.6
X37.0Y-55.7
X37.4Y-55.0
X37.5Y-53.6
X37.5Y-72.6
X37.6Y-95.6
X37.6Y-105.0
X37.8Y-111.4
X37.9Y-27.8
X37.9Y-106.9
X37.9Y-125.3
X38.1Y-33.6
X38.2Y-48.0
X38.5Y-113.7
X38.6Y-55.0
X38.7Y-50.6
X38.9Y-114.9
X39.0Y-49.0
X39.1Y-34.6
X39.1Y-124.0
X39.27Y-37.0
X39.6Y-50.6
X39.6Y-121.6
X39.7Y-31.6
X39.7Y-104.6
X39.7Y-106.2
X39.85Y-111.4
X39.9Y-54.8
X40.1Y-52.9
X40.1Y-101.6
X40.3Y-57.7
X40.4Y-85.6
X40.6Y-106.2
X40.77Y-33.0
X40.8Y-115.3
X41.0Y-121.1
X41.0Y-131.0
X41.5Y-34.0
X41.7Y-30.3
X42.3Y-109.7
X42.3Y-110.6
X42.4Y-107.2
X42.5Y-28.6
X42.5Y-52.3
X42.5Y-124.0
X42.77Y-125.7
X42.9Y-100.0
X42.95Y-118.3
X43.3Y-121.6
X43.3Y-123.1
X44.0Y-124.4
X44.4Y-111.3
X44.45Y-33.0
X44.7Y-115.4
X44.7Y-119.0
X45.2Y-119.7
X45.3Y-31.4
X45.6Y-120.8
X46.5Y-31.4
X46.55Y-113.5
X46.6Y-114.6
X46.7Y-92.0
X46.8Y-109.8
X47.0Y-127.7
X47.3Y-92.6
X47.3Y-118.8
X47.4Y-107.8
X47.4Y-110.5
X47.7Y-71.3
X47.7Y-82.7
X47.8Y-103.4
X48.0Y-36.0
X48.0Y-60.0
X48.0Y-96.0
X48.2Y-66.2
X48.2Y-80.2
X48.3Y-63.7
X48.3Y-94.5
X48.5Y-114.1
X48.7Y-98.0
X48.7Y-107.6
X48.7Y-122.15
X48.77Y-125.7
X48.8Y-103.2
X48.8Y-112.7
X49.5Y-115.1
X49.8Y-126.7
X50.3Y-57.9
X50.3Y-112.1
X50.35Y-113.7
X50.5Y-117.5
X50.6Y-26.8
X51.1Y-137.3
X51.9Y-117.5
X52.0Y-128.9
X52.3Y-108.8
X52.7Y-61.7
X52.85Y-119.7
X52.9Y-115.5
X52.9Y-128.9
X53.0Y-95.88
X53.2Y-98.0
X53.3Y-86.6
X53.3Y-92.1
X53.5Y-113.3
X53.55Y-121.8
X53.6Y-114.5
X53.7Y-101.8
X53.8Y-106.9
X53.9Y-97.5
X54.25Y-127.0
X54.4Y-121.2
X54.4Y-122.7
X54.5Y-123.6
X54.8Y-110.5
X54.9Y-94.4
X55.0Y-57.9
X55.0Y-63.7
X55.0Y-72.6
X55.0Y-87.0
X55.0Y-88.9
X55.0Y-112.7
X55.1Y-66.2
X55.2Y-113.8
X55.4Y-80.4
X55.5Y-115.9
X55.6Y-122.7
X55.7Y-94.3
X55.7Y-112.3
X55.8Y-111.5
X55.9Y-92.1
X56.6Y-123.5
X57.1Y-121.2
X57.2Y-71.1
X57.3Y-95.9
X57.3Y-97.7
X57.6Y-109.4
X57.6Y-123.2
X57.8Y-125.8
X58.0Y-110.7
X58.5Y-115.3
X58.75Y-127.0
X59.0Y-95.88
X59.77Y-112.95
X59.8Y-126.4
X60.0Y-134.1
X60.47Y-101.8
X60.7Y-111.2
X60.7Y-123.7
X61.2Y-126.9
X61.5Y-119.2
X61.73Y-121.83
X62.5Y-120.2
X63.1Y-116.4
X63.27Y-121.0
X63.3Y-112.5
X63.7Y-114.9
X63.8Y-110.33
X64.0Y-119.4
X64.3Y-116.4
X64.8Y-109.03
X64.8Y-110.97
X64.92Y-118.91
X65.3Y-115.6
X65.7Y-119.6
X66.3Y-116.6
X66.95Y-115.01
X67.34Y-116.82
X67.62Y-108.59
X67.96Y-114.03
X68.0Y-118.6
X68.1Y-115.1
X68.3Y-121.8
X68.4Y-112.1
X68.4Y-117.3
X69.1Y-121.0
X69.22Y-114.33
X69.4Y-112.3
X69.6Y-109.6
X69.6Y-110.5
X69.6Y-122.3
X69.7Y-116.4
X70.1Y-114.8
X70.2Y-120.8
X70.2Y-121.7
X70.7Y-115.4
X71.18Y-112.79
X71.2Y-109.6
X71.2Y-110.5
X71.2Y-111.9
X71.3Y-119.5
X72.0Y-108.0
X72.83Y-121.0
X73.4Y-112.2
X73.8Y-116.2
X73.86Y-110.0
X74.15Y-118.95
X75.6Y-112.6
X75.9Y-109.2
X76.0Y-120.9
X76.5Y-111.0
X77.2Y-111.9
X77.8Y-115.1
X78.2Y-110.9
X78.7Y-116.0
X78.8Y-113.6
X79.6Y-127.5
X79.88Y-112.0
X80.9Y-112.6
X81.8Y-127.9
X81.8Y-128.8
X82.7Y-114.2
X82.7Y-120.0
X82.7Y-127.9
X83.3Y-127.3
X83.6Y-128.8
X84.0Y-108.0
X84.2Y-127.3
X84.2Y-128.2
X85.0Y-122.1
X85.6Y-129.6
X86.1Y-114.6
X86.4Y-120.0
X86.4Y-127.3
X86.92Y-106.0
X87.1Y-128.1
X87.53Y-121.27
X87.53Y-123.81
X87.7Y-128.7
X88.1Y-126.3
X88.19Y-106.0
X88.4Y-127.7
X88.5Y-112.1
X89.2Y-127.4
X89.3Y-122.9
X89.46Y-106.0
X89.6Y-110.1
X89.6Y-133.6
X89.7Y-126.2
X90.3Y-123.9
X90.5Y-131.5
X90.6Y-127.1
X90.73Y-106.0
X90.8Y-111.4
X90.8Y-113.1
X91.08Y-126.0
X91.1Y-132.1
X92.0Y-106.0
X92.4Y-115.0
X92.47Y-117.46
X92.47Y-120.0
X92.47Y-122.54
X93.27Y-106.0
X93.3Y-114.6
X94.2Y-119.0
X94.23Y-128.27
X94.54Y-106.0
X94.6Y-117.2
X95.8Y-116.6
X95.81Y-106.0
X96.0Y-108.0
X96.58Y-117.4
X96.78Y-120.0
X97.08Y-114.65
X97.6Y-117.0
X99.9Y-115.2
X100.4Y-125.1
X101.7Y-130.6
X102.2Y-125.7
X102.3Y-130.0
X102.9Y-113.6
X102.9Y-118.2
X103.3Y-115.2
X103.8Y-113.6
X103.9Y-119.2
X104.1Y-130.0
X104.1Y-132.6
X104.8Y-122.0
X105.8Y-115.7
X106.1Y-128.9
X106.3Y-118.2
X107.28Y-121.4
X107.4Y-123.2
X107.5Y-119.4
X108.0Y-108.0
X108.0Y-116.9
X108.86Y-127.0
X109.2Y-126.0
X109.53Y-124.44
X110.7Y-126.0
X110.9Y-117.5
X111.5Y-118.1
X112.1Y-115.6
X112.3Y-128.6
X112.78Y-124.5
X112.9Y-119.3
X113.3Y-127.6
X114.3Y-125.7
X115.2Y-120.2
X115.2Y-126.6
X116.0Y-122.8
X116.6Y-120.2
X117.0Y-123.8
X119.1Y-137.9
X120.0Y-108.0
X122.9Y-126.4
X123.67Y-101.8
X123.67Y-109.78
X124.4Y-128.4
X124.78Y-109.0
X127.95Y-101.8
X127.95Y-109.45
X128.2Y-120.2
X128.82Y-109.0
X129.0Y-121.6
X132.0Y-120.0
X132.9Y-101.8
X132.9Y-109.0
X137.0Y-137.9
X144.0Y-108.0
X144.0Y-120.0
X152.92Y-106.0
X154.19Y-106.0
X155.46Y-106.0
X156.0Y-108.0
X156.0Y-120.0
X156.73Y-106.0
X157.2Y-114.9
X158.0Y-106.0
X158.0Y-115.6
X158.0Y-116.8
X159.27Y-106.0
X159.7Y-115.0
X160.54Y-106.0
X160.7Y-118.2
X161.0Y-114.9
X161.1Y-116.8
X161.81Y-106.0
X162.2Y-115.2
X162.8Y-125.2
X162.8Y-126.4
X163.08Y-114.65
X164.7Y-122.9
X166.0Y-120.6
X166.7Y-122.8
X167.53Y-124.44
X168.0Y-108.0
X170.78Y-124.5
X171.7Y-120.9
X173.1Y-119.2
X173.9Y-122.6
X174.0Y-118.3
X175.1Y-125.0
X176.0Y-124.0
X180.0Y-108.0
X180.0Y-120.0
X192.0Y-108.0
X192.0Y-120.0
T3
X66.0Y-58.0
X66.0Y-73.24
X66.0Y-78.5
X66.0Y-93.74
X73.62Y-58.0
X73.62Y-73.24
X73.62Y-78.5
X73.62Y-93.74
X83.78Y-58.0
X83.78Y-73.24
X83.78Y-78.5
X83.78Y-93.74
X91.4Y-58.0
X91.4Y-73.24
X91.4Y-78.5
X91.4Y-93.74
X101.56Y-58.0
X101.56Y-73.24
X101.56Y-78.5
X101.56Y-93.74
X109.18Y-58.0
X109.18Y-73.24
X109.18Y-78.5
X109.18Y-93.74
X119.34Y-58.0
X119.34Y-73.24
X119.34Y-78.5
X119.34Y-93.74
X126.96Y-58.0
X126.96Y-73.24
X126.96Y-78.5
X126.96Y-93.74
X137.12Y-58.0
X137.12Y-73.24
X137.12Y-78.5
X137.12Y-93.74
X144.74Y-58.0
X144.74Y-73.24
X144.74Y-78.5
X144.74Y-93.74
X154.9Y-58.0
X154.9Y-73.24
X154.9Y-78.5
X154.9Y-93.74
X162.52Y-58.0
X162.52Y-73.24
X162.52Y-78.5
X162.52Y-93.74
X172.68Y-58.0
X172.68Y-73.24
X172.68Y-78.5
X172.68Y-93.74
X180.3Y-58.0
X180.3Y-73.24
X180.3Y-78.5
X180.3Y-93.74
X190.46Y-58.0
X190.46Y-73.24
X190.46Y-78.5
X190.46Y-93.74
X198.08Y-58.0
X198.08Y-73.24
X198.08Y-78.5
X198.08Y-93.74
T4
X24.5Y-38.5
X24.5Y-41.0
X24.5Y-43.5
X24.5Y-46.0
X24.5Y-54.5
X24.5Y-57.0
X24.5Y-59.5
X24.5Y-62.0
X24.5Y-68.0
X24.5Y-70.5
X24.5Y-73.0
X24.5Y-75.5
X24.5Y-78.0
X24.5Y-87.0
X24.5Y-89.5
X24.5Y-92.0
X55.0Y-136.0
X57.5Y-136.0
X60.0Y-136.0
X62.5Y-136.0
X65.0Y-136.0
X67.5Y-136.0
X76.0Y-136.0
X78.5Y-136.0
X81.0Y-136.0
X83.5Y-136.0
X86.0Y-136.0
X116.0Y-136.0
X118.5Y-136.0
X121.0Y-136.0
X123.5Y-136.0
X126.0Y-136.0
X137.0Y-136.0
X139.5Y-136.0
X142.0Y-136.0
X144.5Y-136.0
T5
X23.9Y-116.5
X23.9Y-119.04
X24.5Y-98.5
X24.5Y-101.0
X33.11Y-59.87
X33.11Y-62.41
X33.11Y-64.95
X33.11Y-67.49
X33.11Y-70.03
X33.11Y-72.57
X33.11Y-75.11
X33.11Y-77.65
X33.11Y-80.19
X33.11Y-82.73
X33.11Y-85.27
X33.11Y-87.81
X33.11Y-90.35
X33.11Y-92.89
X33.11Y-95.43
X33.11Y-97.97
X33.11Y-100.51
X33.11Y-103.05
X33.11Y-105.59
X33.11Y-108.13
X37.0Y-23.2
X39.54Y-23.2
X42.08Y-23.2
X42.5Y-44.5
X42.5Y-47.04
X42.5Y-49.58
X44.62Y-23.2
X47.16Y-23.2
X49.7Y-23.2
X50.89Y-59.87
X50.89Y-62.41
X50.89Y-64.95
X50.89Y-67.49
X50.89Y-70.03
X50.89Y-72.57
X50.89Y-75.11
X50.89Y-77.65
X50.89Y-80.19
X50.89Y-82.73
X50.89Y-85.27
X50.89Y-87.81
X50.89Y-90.35
X50.89Y-92.89
X50.89Y-95.43
X50.89Y-97.97
X50.89Y-100.51
X50.89Y-103.05
X50.89Y-105.59
X50.89Y-108.13
X56.0Y-74.0
X56.0Y-76.54
X56.0Y-79.08
X120.95Y-28.73
X120.95Y-31.27
X123.49Y-28.73
X123.49Y-31.27
X126.03Y-28.73
X126.03Y-31.27
X128.57Y-28.73
X128.57Y-31.27
X131.11Y-28.73
X131.11Y-31.27
X133.65Y-28.73
X133.65Y-31.27
X136.19Y-28.73
X136.19Y-31.27
X138.73Y-28.73
X138.73Y-31.27
X141.27Y-28.73
X141.27Y-31.27
X143.81Y-28.73
X143.81Y-31.27
X146.35Y-28.73
X146.35Y-31.27
X148.89Y-28.73
X148.89Y-31.27
X151.43Y-28.73
X151.43Y-31.27
X153.97Y-28.73
X153.97Y-31.27
X156.51Y-28.73
X156.51Y-31.27
X159.05Y-28.73
X159.05Y-31.27
T6
X25.0Y-31.25
X25.0Y-34.75
X97.25Y-136.0
X100.75Y-136.0
T5
G00X32.5Y-135.25
M15
G01X32.5Y-136.75
M16
G05
G00X36.0Y-129.0
M15
G01X38.0Y-129.0
M16
G05
G00X36.35Y-135.0
M15
G01X37.65Y-135.0
M16
G05
G00X41.5Y-135.25
M15
G01X41.5Y-136.75
M16
G05
M30
