M48
; DRILL file KiCad 10.0.4-10.0.4~ubuntu24.04.1 date 2026-07-21T19:40:45
; FORMAT={-:-/ absolute / metric / decimal}
; #@! TF.CreationDate,2026-07-21T19:40:45-07:00
; #@! TF.GenerationSoftware,Kicad,Pcbnew,10.0.4-10.0.4~ubuntu24.04.1
; #@! TF.FileFunction,Plated,1,4,PTH
FMAT,2
METRIC
; #@! TA.AperFunction,Plated,PTH,ViaDrill
T1C0.150
; #@! TA.AperFunction,Plated,PTH,ComponentDrill
T2C0.200
; #@! TA.AperFunction,Plated,PTH,ComponentDrill
T3C0.300
; #@! TA.AperFunction,Plated,PTH,ComponentDrill
T4C0.600
; #@! TA.AperFunction,Plated,PTH,ComponentDrill
T5C1.000
; #@! TA.AperFunction,Plated,PTH,ComponentDrill
T6C1.780
; #@! TA.AperFunction,Plated,PTH,ComponentDrill
T7C2.700
; #@! TA.AperFunction,Plated,PTH,ComponentDrill
T8C3.000
%
G90
G05
T1
X24.0Y-32.0
X24.0Y-40.0
X24.0Y-48.0
X24.0Y-56.0
X24.0Y-64.0
X24.0Y-72.0
X24.0Y-80.0
X24.0Y-88.0
X24.0Y-96.0
X24.0Y-104.0
X32.0Y-24.0
X32.0Y-32.0
X32.0Y-40.0
X32.0Y-48.0
X32.0Y-56.0
X32.0Y-64.0
X32.0Y-72.0
X32.0Y-88.0
X32.0Y-96.0
X32.0Y-104.0
X38.31Y-80.0
X38.75Y-85.2
X39.4Y-80.0
X40.0Y-24.0
X40.0Y-32.0
X40.0Y-40.0
X40.0Y-48.0
X40.0Y-56.0
X40.0Y-64.0
X40.0Y-72.0
X40.0Y-88.0
X40.0Y-96.0
X40.0Y-104.0
X41.33Y-76.0
X41.67Y-79.36
X41.67Y-81.91
X42.74Y-87.4
X44.3Y-72.5
X44.8Y-80.5
X45.02Y-44.4
X45.6Y-41.1
X46.2Y-41.7
X46.67Y-44.4
X46.7Y-40.6
X46.7Y-42.2
X47.4Y-41.6
X47.7Y-90.0
X48.0Y-24.0
X48.0Y-48.0
X48.0Y-56.0
X48.0Y-64.0
X48.0Y-96.0
X48.0Y-104.0
X48.175Y-40.0
X48.27Y-94.7
X49.7Y-72.5
X49.83Y-42.2
X50.15Y-67.5
X50.2Y-80.5
X50.27Y-36.0
X50.27Y-38.0
X50.67Y-44.4
X51.1Y-41.6
X51.9Y-95.31
X52.0Y-89.0
X52.3Y-37.0
X52.33Y-33.3
X52.37Y-34.25
X53.0Y-95.31
X53.138Y-40.925
X53.9Y-74.0
X54.47Y-38.8
X54.62Y-26.7
X54.81Y-74.0
X55.53Y-38.33
X56.0Y-24.0
X56.0Y-32.0
X56.0Y-48.0
X56.0Y-56.0
X56.0Y-64.0
X56.0Y-104.0
X56.47Y-38.98
X56.79Y-39.88
X57.53Y-38.5
X57.58Y-26.7
X58.02Y-23.0
X58.5Y-73.5
X58.7Y-84.0
X58.8Y-36.35
X58.86Y-40.92
X58.862Y-37.025
X58.862Y-35.725
X58.862Y-38.325
X59.81Y-84.0
X59.9Y-36.3
X59.9Y-38.3
X60.0Y-34.6
X60.0Y-68.7
X60.075Y-69.6
X60.2Y-70.4
X60.48Y-66.7
X60.5Y-79.5
X60.98Y-23.0
X61.0Y-32.9
X61.0Y-34.4
X61.02Y-26.7
X61.4Y-71.4
X62.17Y-42.8
X62.2Y-67.6
X62.3Y-61.5
X62.375Y-32.7
X62.5Y-69.4
X62.77Y-38.0
X62.8Y-70.5
X62.95Y-36.3
X63.0Y-65.775
X63.17Y-83.36
X63.17Y-85.91
X63.3Y-62.6
X63.8Y-68.3
X63.98Y-26.7
X64.0Y-24.0
X64.0Y-32.0
X64.0Y-48.0
X64.0Y-56.0
X64.0Y-72.0
X64.0Y-80.0
X64.0Y-88.0
X64.0Y-96.0
X64.0Y-104.0
X64.55Y-66.25
X65.7Y-67.6
X65.9Y-59.4
X65.93Y-82.09
X65.93Y-84.64
X66.25Y-68.875
X66.3Y-60.2
X66.6Y-74.2
X66.7Y-67.4
X67.2Y-68.1
X67.3Y-67.6
X68.0Y-45.96
X68.3Y-56.4
X68.3Y-67.6
X68.3Y-68.1
X68.58Y-27.72
X68.7Y-67.2
X68.72Y-24.2
X68.85Y-58.75
X68.9Y-68.2
X69.2Y-26.09
X69.2Y-57.3
X69.29Y-84.0
X69.7Y-67.7
X70.2Y-68.2
X70.28Y-24.2
X70.3Y-30.43
X70.3Y-60.6
X70.3Y-67.5
X70.35Y-59.2
X70.4Y-84.0
X70.7Y-69.4
X71.2Y-60.85
X71.4Y-58.2
X71.45Y-65.75
X71.54Y-64.25
X71.54Y-65.25
X72.0Y-24.0
X72.0Y-40.0
X72.0Y-48.0
X72.0Y-72.0
X72.0Y-80.0
X72.0Y-88.0
X72.0Y-96.0
X72.0Y-104.0
X72.2Y-61.7
X72.6Y-58.0
X72.64Y-30.34
X72.69Y-36.0
X72.7Y-60.9
X72.83Y-56.0
X73.2Y-61.4
X73.2Y-62.7
X73.62Y-23.3
X73.7Y-58.75
X73.8Y-36.0
X74.0Y-32.5
X74.78Y-58.0
X74.78Y-60.0
X75.17Y-63.6
X75.175Y-63.0
X75.2Y-64.7
X75.9Y-64.2
X76.5Y-63.3
X76.58Y-23.3
X76.8Y-78.0
X76.83Y-74.635
X78.4Y-59.2
X78.4Y-65.9
X78.8Y-79.5
X79.0Y-65.3
X79.275Y-67.4
X79.9Y-69.0
X80.0Y-24.0
X80.0Y-40.0
X80.0Y-48.0
X80.0Y-56.0
X80.0Y-80.0
X80.0Y-88.0
X80.0Y-96.0
X80.0Y-104.0
X80.19Y-74.0
X81.3Y-74.0
X81.38Y-70.2
X83.0Y-69.9
X84.96Y-70.34
X86.0Y-65.04
X86.5Y-28.5
X87.0Y-29.5
X88.0Y-80.0
X88.0Y-88.0
X88.0Y-96.0
X88.0Y-104.0
X88.53Y-62.0
X89.22Y-65.0
X90.58Y-23.1
X90.78Y-65.0
X90.8Y-84.8
X90.8Y-85.8
X91.47Y-62.0
X94.0Y-70.5
X94.0Y-84.0
X94.08Y-103.5
X94.47Y-46.3
X94.47Y-65.3
X94.86Y-43.0
X94.86Y-61.0
X95.65Y-48.07
X95.67Y-33.0
X96.0Y-32.0
X96.0Y-80.0
X96.0Y-88.0
X96.0Y-96.0
X96.0Y-104.0
X96.33Y-72.0
X96.67Y-24.5
X96.7Y-84.3
X96.7Y-85.3
X96.73Y-61.17
X97.78Y-29.5
X97.78Y-47.5
X97.78Y-65.5
X97.83Y-37.0
X97.83Y-55.0
X98.28Y-84.0
X98.33Y-73.9
X98.5Y-72.2
X98.55Y-32.02
X98.55Y-50.02
X98.55Y-68.03
X98.7Y-53.8
X99.2Y-71.5
X99.4Y-53.1
X99.67Y-106.9
X101.17Y-68.56
X101.23Y-50.75
X101.26Y-95.45
X101.67Y-26.6
X102.0Y-98.5
X102.0Y-99.5
X102.33Y-97.5
X102.5Y-103.2
X104.0Y-24.0
X104.0Y-64.0
X104.0Y-80.0
X104.0Y-88.0
X104.0Y-104.0
X104.3Y-93.3
X104.3Y-94.3
X104.78Y-33.4
X104.78Y-51.4
X104.78Y-69.4
X105.0Y-92.2
X105.45Y-31.0
X105.45Y-49.0
X105.45Y-67.0
X105.5Y-92.7
X105.562Y-99.5
X105.86Y-41.5
X105.86Y-59.5
X105.86Y-77.5
X106.0Y-38.5
X106.0Y-72.5
X106.1Y-92.1
X106.1Y-93.9
X106.5Y-104.15
X106.6Y-95.1
X106.83Y-93.0
X107.4Y-97.8
X107.6Y-95.9
X108.138Y-41.5
X108.138Y-59.5
X108.138Y-77.5
X108.86Y-92.65
X110.3Y-92.9
X110.5Y-59.0
X110.7Y-91.9
X110.737Y-95.4
X110.75Y-102.95
X112.0Y-24.0
X112.0Y-64.0
X112.0Y-80.0
X112.0Y-88.0
X112.75Y-102.955
X113.25Y-102.955
X113.75Y-102.955
X114.25Y-103.755
X114.75Y-102.955
X116.1Y-98.0
X116.1Y-100.5
X117.25Y-102.95
X117.5Y-98.0
X117.5Y-100.5
X120.0Y-24.0
X120.0Y-80.0
X120.0Y-88.0
X120.0Y-96.0
X120.0Y-104.0
T2
X65.525Y-61.525
X65.525Y-62.762
X65.525Y-64.0
X65.525Y-65.237
X65.525Y-66.475
X66.763Y-61.525
X66.763Y-62.762
X66.763Y-64.0
X66.763Y-65.237
X66.763Y-66.475
X68.0Y-61.525
X68.0Y-62.762
X68.0Y-64.0
X68.0Y-65.237
X68.0Y-66.475
X69.237Y-61.525
X69.237Y-62.762
X69.237Y-64.0
X69.237Y-65.237
X69.237Y-66.475
X70.475Y-61.525
X70.475Y-62.762
X70.475Y-64.0
X70.475Y-65.237
X70.475Y-66.475
X99.425Y-32.05
X99.425Y-33.0
X99.425Y-33.95
X99.425Y-50.05
X99.425Y-51.0
X99.425Y-51.95
X99.425Y-68.05
X99.425Y-69.0
X99.425Y-69.95
X100.575Y-32.05
X100.575Y-33.0
X100.575Y-33.95
X100.575Y-50.05
X100.575Y-51.0
X100.575Y-51.95
X100.575Y-68.05
X100.575Y-69.0
X100.575Y-69.95
T3
X54.7Y-35.4
X54.7Y-36.7
X54.7Y-38.0
X54.7Y-39.3
X54.7Y-40.6
X56.0Y-35.4
X56.0Y-36.7
X56.0Y-38.0
X56.0Y-39.3
X56.0Y-40.6
X57.3Y-35.4
X57.3Y-36.7
X57.3Y-38.0
X57.3Y-39.3
X57.3Y-40.6
T5
X118.2Y-31.5
X118.2Y-34.0
X118.2Y-36.0
X118.2Y-38.5
X118.2Y-49.5
X118.2Y-52.0
X118.2Y-54.0
X118.2Y-56.5
X118.2Y-67.5
X118.2Y-70.0
X118.2Y-72.0
X118.2Y-74.5
T6
X27.6Y-75.0
X27.6Y-84.92
X31.0Y-75.0
X31.0Y-84.92
T7
X28.0Y-48.8
X28.0Y-56.0
T8
X120.8Y-28.379
X120.8Y-41.619
X120.8Y-46.379
X120.8Y-59.619
X120.8Y-64.379
X120.8Y-77.619
T4
G00X21.45Y-45.65
M15
G01X22.55Y-45.65
M16
G05
G00X21.45Y-59.15
M15
G01X22.55Y-59.15
M16
G05
G00X109.68Y-103.32
M15
G01X109.68Y-104.42
M16
G05
G00X109.68Y-107.75
M15
G01X109.68Y-108.35
M16
G05
G00X118.32Y-103.32
M15
G01X118.32Y-104.42
M16
G05
G00X118.32Y-107.75
M15
G01X118.32Y-108.35
M16
G05
M30
