M48
; DRILL file KiCad 10.0.4-10.0.4~ubuntu24.04.1 date 2026-08-12T06:49:33
; FORMAT={-:-/ absolute / metric / decimal}
; #@! TF.CreationDate,2026-08-12T06:49:33-07:00
; #@! TF.GenerationSoftware,Kicad,Pcbnew,10.0.4-10.0.4~ubuntu24.04.1
; #@! TF.FileFunction,Plated,1,4,PTH
FMAT,2
METRIC
; #@! TA.AperFunction,Plated,PTH,ViaDrill
T1C0.200
; #@! TA.AperFunction,Plated,PTH,ViaDrill
T2C0.300
; #@! TA.AperFunction,Plated,PTH,ComponentDrill
T3C0.600
; #@! TA.AperFunction,Plated,PTH,ComponentDrill
T4C0.900
; #@! TA.AperFunction,Plated,PTH,ComponentDrill
T5C0.920
; #@! TA.AperFunction,Plated,PTH,ComponentDrill
T6C1.300
; #@! TA.AperFunction,Plated,PTH,ComponentDrill
T7C1.780
; #@! TA.AperFunction,Plated,PTH,ComponentDrill
T8C2.260
%
G90
G05
T1
X68.75Y-54.25
X68.75Y-55.75
X70.25Y-54.25
X70.25Y-55.75
X71.75Y-54.25
X71.75Y-55.75
X73.25Y-54.25
X73.25Y-55.75
X74.0Y-48.675
X75.975Y-50.0
X81.3Y-66.5
X86.187Y-90.55
X86.187Y-91.45
X87.262Y-90.55
X87.262Y-91.45
X88.338Y-90.55
X88.338Y-91.45
X89.413Y-90.55
X89.413Y-91.45
X93.225Y-88.0
X93.45Y-54.1
X93.45Y-54.65
X93.45Y-55.92
X94.3Y-101.1
X94.3Y-101.9
X94.55Y-54.1
X94.55Y-54.65
X94.55Y-55.92
X99.7Y-101.5
X101.0Y-41.0
X104.5Y-96.0
X104.5Y-97.0
X104.5Y-98.0
X105.5Y-96.0
X105.5Y-97.0
X105.5Y-98.0
X106.48Y-32.0
X106.48Y-56.0
X106.48Y-80.0
X107.675Y-36.5
X107.675Y-60.5
X107.675Y-84.5
X108.6Y-32.5
X108.6Y-56.5
X108.6Y-80.5
X109.7Y-31.0
X109.7Y-32.0
X109.7Y-33.0
X109.7Y-55.0
X109.7Y-56.0
X109.7Y-57.0
X109.7Y-79.0
X109.7Y-80.0
X109.7Y-81.0
X110.3Y-31.0
X110.3Y-32.0
X110.3Y-33.0
X110.3Y-55.0
X110.3Y-56.0
X110.3Y-57.0
X110.3Y-79.0
X110.3Y-80.0
X110.3Y-81.0
X129.137Y-44.0
X129.137Y-72.0
T2
X49.975Y-33.0
X51.31Y-34.57
X52.0Y-32.0
X54.0Y-47.3
X54.55Y-54.13
X58.02Y-29.5
X58.5Y-38.975
X60.0Y-39.0
X62.77Y-52.5
X62.77Y-57.5
X65.15Y-43.0
X68.01Y-52.67
X69.0Y-48.67
X70.35Y-52.15
X71.0Y-57.85
X71.5Y-48.67
X72.3Y-59.2
X72.95Y-52.15
X73.54Y-60.73
X73.75Y-57.85
X75.0Y-57.7
X75.83Y-63.0
X78.92Y-50.0
X78.92Y-54.0
X78.92Y-58.0
X81.08Y-89.0
X81.08Y-93.0
X83.67Y-50.0
X83.67Y-54.0
X83.67Y-58.0
X86.1Y-87.8
X86.7Y-66.5
X87.05Y-89.55
X87.5Y-85.17
X88.55Y-94.45
X88.77Y-87.56
X89.58Y-89.56
X89.925Y-93.0
X90.0Y-55.75
X90.9Y-87.1
X91.0Y-55.69
X91.5Y-61.98
X91.5Y-89.17
X91.5Y-93.0
X92.0Y-83.675
X92.05Y-88.25
X93.0Y-87.0
X94.7Y-60.08
X95.1Y-49.4
X96.0Y-51.8
X96.0Y-52.7
X96.0Y-80.0
X96.12Y-57.0
X96.17Y-88.0
X96.17Y-92.0
X96.17Y-96.0
X97.0Y-51.8
X97.0Y-52.7
X98.0Y-51.8
X98.0Y-52.7
X98.97Y-55.25
X99.0Y-51.8
X99.0Y-52.7
X100.0Y-51.8
X100.0Y-52.7
X100.07Y-88.7
X100.52Y-94.5
X101.0Y-51.8
X101.0Y-52.7
X101.95Y-89.7
X101.95Y-90.9
X102.0Y-51.8
X102.0Y-52.7
X105.52Y-32.0
X105.52Y-56.0
X105.52Y-80.0
X106.31Y-96.33
X107.1Y-31.4
X107.1Y-32.0
X107.1Y-32.6
X107.1Y-33.2
X107.1Y-55.4
X107.1Y-56.0
X107.1Y-56.6
X107.1Y-57.2
X107.1Y-79.4
X107.1Y-80.0
X107.1Y-80.6
X107.1Y-81.2
X107.1Y-95.4
X108.0Y-97.0
X109.525Y-97.0
X111.8Y-102.64
X112.0Y-35.38
X112.0Y-55.5
X112.0Y-56.5
X112.0Y-59.38
X112.0Y-79.5
X112.0Y-80.5
X112.0Y-83.38
X112.47Y-97.0
X114.47Y-98.62
X118.2Y-102.64
X120.7Y-32.0
X120.7Y-56.0
X120.7Y-80.0
X122.86Y-42.8
X122.86Y-70.8
X124.48Y-44.0
X124.48Y-72.0
X126.86Y-44.0
X126.86Y-72.0
X143.11Y-61.71
X143.44Y-37.72
X145.76Y-89.82
X146.0Y-43.14
X146.0Y-67.14
X146.0Y-91.14
T4
X39.5Y-27.0
X42.0Y-27.0
X44.5Y-27.0
T5
X146.91Y-29.0
X146.91Y-31.0
X146.91Y-33.0
X146.91Y-35.0
X146.91Y-53.0
X146.91Y-55.0
X146.91Y-57.0
X146.91Y-59.0
X146.91Y-77.0
X146.91Y-79.0
X146.91Y-81.0
X146.91Y-83.0
T6
X27.0Y-33.0
X27.0Y-38.0
T7
X40.0Y-38.0
X40.0Y-41.4
X49.92Y-38.0
X49.92Y-41.4
T8
X144.2Y-28.5
X144.2Y-35.5
X144.2Y-52.5
X144.2Y-59.5
X144.2Y-76.5
X144.2Y-83.5
T3
G00X110.68Y-102.67
M15
G01X110.68Y-103.77
M16
G05
G00X110.68Y-107.0
M15
G01X110.68Y-107.8
M16
G05
G00X119.32Y-102.67
M15
G01X119.32Y-103.77
M16
G05
G00X119.32Y-107.0
M15
G01X119.32Y-107.8
M16
G05
M30
