%TF.GenerationSoftware,KiCad,Pcbnew,10.0.4-10.0.4~ubuntu24.04.1*%
%TF.CreationDate,2026-08-12T06:49:33-07:00*%
%TF.ProjectId,usb_hub_3s_v4,7573625f-6875-4625-9f33-735f76342e6b,rev?*%
%TF.SameCoordinates,Original*%
%TF.FileFunction,Soldermask,Top*%
%TF.FilePolarity,Negative*%
%FSLAX46Y46*%
G04 Gerber Fmt 4.6, Leading zero omitted, Abs format (unit mm)*
G04 Created by KiCad (PCBNEW 10.0.4-10.0.4~ubuntu24.04.1) date 2026-08-12 06:49:33*
%MOMM*%
%LPD*%
G01*
G04 APERTURE LIST*
G04 Aperture macros list*
%AMRoundRect*
0 Rectangle with rounded corners*
0 $1 Rounding radius*
0 $2 $3 $4 $5 $6 $7 $8 $9 X,Y pos of 4 corners*
0 Add a 4 corners polygon primitive as box body*
4,1,4,$2,$3,$4,$5,$6,$7,$8,$9,$2,$3,0*
0 Add four circle primitives for the rounded corners*
1,1,$1+$1,$2,$3*
1,1,$1+$1,$4,$5*
1,1,$1+$1,$6,$7*
1,1,$1+$1,$8,$9*
0 Add four rect primitives between the rounded corners*
20,1,$1+$1,$2,$3,$4,$5,0*
20,1,$1+$1,$4,$5,$6,$7,0*
20,1,$1+$1,$6,$7,$8,$9,0*
20,1,$1+$1,$8,$9,$2,$3,0*%
%AMOutline5P*
0 Free polygon, 5 corners , with rotation*
0 The origin of the aperture is its center*
0 number of corners: always 5*
0 $1 to $10 corner X, Y*
0 $11 Rotation angle, in degrees counterclockwise*
0 create outline with 5 corners*
4,1,5,$1,$2,$3,$4,$5,$6,$7,$8,$9,$10,$1,$2,$11*%
%AMOutline6P*
0 Free polygon, 6 corners , with rotation*
0 The origin of the aperture is its center*
0 number of corners: always 6*
0 $1 to $12 corner X, Y*
0 $13 Rotation angle, in degrees counterclockwise*
0 create outline with 6 corners*
4,1,6,$1,$2,$3,$4,$5,$6,$7,$8,$9,$10,$11,$12,$1,$2,$13*%
%AMOutline7P*
0 Free polygon, 7 corners , with rotation*
0 The origin of the aperture is its center*
0 number of corners: always 7*
0 $1 to $14 corner X, Y*
0 $15 Rotation angle, in degrees counterclockwise*
0 create outline with 7 corners*
4,1,7,$1,$2,$3,$4,$5,$6,$7,$8,$9,$10,$11,$12,$13,$14,$1,$2,$15*%
%AMOutline8P*
0 Free polygon, 8 corners , with rotation*
0 The origin of the aperture is its center*
0 number of corners: always 8*
0 $1 to $16 corner X, Y*
0 $17 Rotation angle, in degrees counterclockwise*
0 create outline with 8 corners*
4,1,8,$1,$2,$3,$4,$5,$6,$7,$8,$9,$10,$11,$12,$13,$14,$15,$16,$1,$2,$17*%
%AMFreePoly0*
4,1,21,-0.125000,1.200000,0.125000,1.200000,0.125000,1.700000,0.375000,1.700000,0.375000,1.200000,0.825000,1.200000,0.825000,-1.200000,0.375000,-1.200000,0.375000,-1.700000,0.125000,-1.700000,0.125000,-1.200000,-0.125000,-1.200000,-0.125000,-1.700000,-0.375000,-1.700000,-0.375000,-1.200000,-0.825000,-1.200000,-0.825000,1.200000,-0.375000,1.200000,-0.375000,1.700000,-0.125000,1.700000,
-0.125000,1.200000,-0.125000,1.200000,$1*%
G04 Aperture macros list end*
%ADD10RoundRect,0.200000X-0.200000X-0.275000X0.200000X-0.275000X0.200000X0.275000X-0.200000X0.275000X0*%
%ADD11RoundRect,0.150000X-0.512500X-0.150000X0.512500X-0.150000X0.512500X0.150000X-0.512500X0.150000X0*%
%ADD12RoundRect,0.225000X-0.225000X-0.250000X0.225000X-0.250000X0.225000X0.250000X-0.225000X0.250000X0*%
%ADD13C,1.500000*%
%ADD14RoundRect,0.200000X-0.275000X0.200000X-0.275000X-0.200000X0.275000X-0.200000X0.275000X0.200000X0*%
%ADD15RoundRect,0.140000X0.140000X0.170000X-0.140000X0.170000X-0.140000X-0.170000X0.140000X-0.170000X0*%
%ADD16R,1.750000X1.750000*%
%ADD17C,1.750000*%
%ADD18O,3.300000X3.300000*%
%ADD19R,2.300000X2.300000*%
%ADD20C,2.300000*%
%ADD21RoundRect,0.060000X-0.240000X-0.060000X0.240000X-0.060000X0.240000X0.060000X-0.240000X0.060000X0*%
%ADD22FreePoly0,0.000000*%
%ADD23C,2.000000*%
%ADD24RoundRect,0.200000X0.275000X-0.200000X0.275000X0.200000X-0.275000X0.200000X-0.275000X-0.200000X0*%
%ADD25RoundRect,0.250000X-1.500000X-0.550000X1.500000X-0.550000X1.500000X0.550000X-1.500000X0.550000X0*%
%ADD26RoundRect,0.075000X-0.075000X-0.075000X0.075000X-0.075000X0.075000X0.075000X-0.075000X0.075000X0*%
%ADD27C,2.780000*%
%ADD28C,3.200000*%
%ADD29RoundRect,0.050000X-0.250000X-0.050000X0.250000X-0.050000X0.250000X0.050000X-0.250000X0.050000X0*%
%ADD30RoundRect,0.050000X-0.050000X-0.250000X0.050000X-0.250000X0.050000X0.250000X-0.050000X0.250000X0*%
%ADD31R,1.600000X2.600000*%
%ADD32RoundRect,0.250000X1.500000X0.550000X-1.500000X0.550000X-1.500000X-0.550000X1.500000X-0.550000X0*%
%ADD33RoundRect,0.225000X-0.225000X-0.375000X0.225000X-0.375000X0.225000X0.375000X-0.225000X0.375000X0*%
%ADD34RoundRect,0.250000X-0.325000X-1.100000X0.325000X-1.100000X0.325000X1.100000X-0.325000X1.100000X0*%
%ADD35RoundRect,0.250000X0.325000X1.100000X-0.325000X1.100000X-0.325000X-1.100000X0.325000X-1.100000X0*%
%ADD36RoundRect,0.150000X0.150000X-0.512500X0.150000X0.512500X-0.150000X0.512500X-0.150000X-0.512500X0*%
%ADD37RoundRect,0.062500X-0.337500X0.062500X-0.337500X-0.062500X0.337500X-0.062500X0.337500X0.062500X0*%
%ADD38RoundRect,0.062500X-0.062500X0.337500X-0.062500X-0.337500X0.062500X-0.337500X0.062500X0.337500X0*%
%ADD39R,2.700000X1.450000*%
%ADD40R,2.700000X0.850000*%
%ADD41RoundRect,0.140000X-0.140000X-0.170000X0.140000X-0.170000X0.140000X0.170000X-0.140000X0.170000X0*%
%ADD42R,1.700000X1.700000*%
%ADD43C,1.700000*%
%ADD44C,0.787000*%
%ADD45RoundRect,0.050000X0.075000X-0.550000X0.075000X0.550000X-0.075000X0.550000X-0.075000X-0.550000X0*%
%ADD46C,0.810000*%
%ADD47RoundRect,0.050000X0.450000X-1.600000X0.450000X1.600000X-0.450000X1.600000X-0.450000X-1.600000X0*%
%ADD48RoundRect,0.250000X-0.650000X0.325000X-0.650000X-0.325000X0.650000X-0.325000X0.650000X0.325000X0*%
%ADD49RoundRect,0.250000X0.550000X-1.500000X0.550000X1.500000X-0.550000X1.500000X-0.550000X-1.500000X0*%
%ADD50C,0.650000*%
%ADD51Outline5P,-0.300000X0.575000X0.300000X0.575000X0.300000X-0.275000X0.000000X-0.575000X-0.300000X-0.575000X0.000000*%
%ADD52RoundRect,0.150000X-0.150000X-0.425000X0.150000X-0.425000X0.150000X0.425000X-0.150000X0.425000X0*%
%ADD53RoundRect,0.075000X-0.075000X-0.500000X0.075000X-0.500000X0.075000X0.500000X-0.075000X0.500000X0*%
%ADD54Outline5P,-0.300000X0.575000X0.300000X0.575000X0.300000X-0.575000X0.000000X-0.575000X-0.300000X-0.275000X0.000000*%
%ADD55O,1.000000X2.100000*%
%ADD56O,1.000000X1.800000*%
%ADD57RoundRect,0.250000X-1.000000X-0.900000X1.000000X-0.900000X1.000000X0.900000X-1.000000X0.900000X0*%
%ADD58R,1.710000X2.370000*%
%ADD59RoundRect,0.105000X0.245000X0.105000X-0.245000X0.105000X-0.245000X-0.105000X0.245000X-0.105000X0*%
%ADD60RoundRect,0.050000X0.200000X-0.650000X0.200000X0.650000X-0.200000X0.650000X-0.200000X-0.650000X0*%
%ADD61RoundRect,0.050000X0.075000X-0.400000X0.075000X0.400000X-0.075000X0.400000X-0.075000X-0.400000X0*%
%ADD62RoundRect,0.048125X0.389375X-0.741875X0.389375X0.741875X-0.389375X0.741875X-0.389375X-0.741875X0*%
%ADD63C,0.350000*%
%ADD64O,0.600000X1.700000*%
%ADD65O,0.600000X1.400000*%
G04 APERTURE END LIST*
D10*
%TO.C,R2*%
X60175000Y-48000000D03*
X61825000Y-48000000D03*
%TD*%
D11*
%TO.C,U7*%
X126862500Y-43050000D03*
X126862500Y-44000000D03*
X126862500Y-44950000D03*
X129137500Y-44950000D03*
X129137500Y-44000000D03*
X129137500Y-43050000D03*
%TD*%
D12*
%TO.C,C30*%
X97425000Y-55250000D03*
X98975000Y-55250000D03*
%TD*%
D10*
%TO.C,R23*%
X53175000Y-33000000D03*
X54825000Y-33000000D03*
%TD*%
D13*
%TO.C,TP9*%
X75000000Y-80000000D03*
%TD*%
D14*
%TO.C,R11*%
X92000000Y-83675000D03*
X92000000Y-85325000D03*
%TD*%
D15*
%TO.C,C15*%
X106480000Y-56000000D03*
X105520000Y-56000000D03*
%TD*%
D10*
%TO.C,R17*%
X107675000Y-36500000D03*
X109325000Y-36500000D03*
%TD*%
D13*
%TO.C,TP11*%
X89000000Y-80000000D03*
%TD*%
D14*
%TO.C,R26*%
X94700000Y-58425000D03*
X94700000Y-60075000D03*
%TD*%
D15*
%TO.C,C12*%
X101480000Y-94500000D03*
X100520000Y-94500000D03*
%TD*%
D13*
%TO.C,TP4*%
X120000000Y-96000000D03*
%TD*%
D16*
%TO.C,J2*%
X146910000Y-29000000D03*
D17*
X146910000Y-31000000D03*
X146910000Y-33000000D03*
X146910000Y-35000000D03*
D18*
X144200000Y-28500000D03*
X144200000Y-35500000D03*
%TD*%
D19*
%TO.C,J1*%
X27000000Y-38000000D03*
D20*
X27000000Y-33000000D03*
%TD*%
D13*
%TO.C,TP3*%
X82000000Y-104000000D03*
%TD*%
D21*
%TO.C,U6*%
X108600000Y-79000000D03*
X108600000Y-79500000D03*
X108600000Y-80000000D03*
X108600000Y-80500000D03*
X108600000Y-81000000D03*
X111400000Y-81000000D03*
X111400000Y-80500000D03*
X111400000Y-80000000D03*
X111400000Y-79500000D03*
X111400000Y-79000000D03*
D22*
X110000000Y-80000000D03*
%TD*%
D23*
%TO.C,FID3*%
X32000000Y-103000000D03*
%TD*%
D24*
%TO.C,R4*%
X71500000Y-50325000D03*
X71500000Y-48675000D03*
%TD*%
D25*
%TO.C,C22*%
X81300000Y-66500000D03*
X86700000Y-66500000D03*
%TD*%
D10*
%TO.C,R6*%
X74175000Y-63000000D03*
X75825000Y-63000000D03*
%TD*%
%TO.C,R19*%
X107675000Y-60500000D03*
X109325000Y-60500000D03*
%TD*%
D14*
%TO.C,R24*%
X94000000Y-83675000D03*
X94000000Y-85325000D03*
%TD*%
D13*
%TO.C,TP12*%
X96000000Y-80000000D03*
%TD*%
D26*
%TO.C,D6*%
X114900000Y-99925000D03*
X115600000Y-99925000D03*
X115250000Y-99075000D03*
%TD*%
D24*
%TO.C,R5*%
X73500000Y-61325000D03*
X73500000Y-59675000D03*
%TD*%
D10*
%TO.C,R14*%
X104675000Y-101500000D03*
X106325000Y-101500000D03*
%TD*%
D16*
%TO.C,J3*%
X146910000Y-53000000D03*
D17*
X146910000Y-55000000D03*
X146910000Y-57000000D03*
X146910000Y-59000000D03*
D18*
X144200000Y-52500000D03*
X144200000Y-59500000D03*
%TD*%
D27*
%TO.C,F1*%
X40000000Y-38000000D03*
X40000000Y-41400000D03*
X49920000Y-38000000D03*
X49920000Y-41400000D03*
%TD*%
D28*
%TO.C,H4*%
X145000000Y-105000000D03*
%TD*%
D21*
%TO.C,U4*%
X108600000Y-31000000D03*
X108600000Y-31500000D03*
X108600000Y-32000000D03*
X108600000Y-32500000D03*
X108600000Y-33000000D03*
X111400000Y-33000000D03*
X111400000Y-32500000D03*
X111400000Y-32000000D03*
X111400000Y-31500000D03*
X111400000Y-31000000D03*
D22*
X110000000Y-32000000D03*
%TD*%
D29*
%TO.C,U3*%
X103600000Y-95750000D03*
X103600000Y-96250000D03*
X103600000Y-96750000D03*
X103600000Y-97250000D03*
X103600000Y-97750000D03*
X103600000Y-98250000D03*
D30*
X104250000Y-98900000D03*
X104750000Y-98900000D03*
X105250000Y-98900000D03*
X105750000Y-98900000D03*
D29*
X106400000Y-98250000D03*
X106400000Y-97750000D03*
X106400000Y-97250000D03*
X106400000Y-96750000D03*
X106400000Y-96250000D03*
X106400000Y-95750000D03*
D30*
X105750000Y-95100000D03*
X105250000Y-95100000D03*
X104750000Y-95100000D03*
X104250000Y-95100000D03*
D31*
X105000000Y-97000000D03*
%TD*%
D23*
%TO.C,FID1*%
X32000000Y-25000000D03*
%TD*%
D32*
%TO.C,C23*%
X99700000Y-101500000D03*
X94300000Y-101500000D03*
%TD*%
D10*
%TO.C,R3*%
X68575000Y-60500000D03*
X70225000Y-60500000D03*
%TD*%
D25*
%TO.C,C19*%
X115300000Y-80000000D03*
X120700000Y-80000000D03*
%TD*%
D24*
%TO.C,R8*%
X69000000Y-50325000D03*
X69000000Y-48675000D03*
%TD*%
D28*
%TO.C,H1*%
X25000000Y-25000000D03*
%TD*%
D15*
%TO.C,C16*%
X106480000Y-80000000D03*
X105520000Y-80000000D03*
%TD*%
D33*
%TO.C,D5*%
X59350000Y-33000000D03*
X62650000Y-33000000D03*
%TD*%
D34*
%TO.C,C24*%
X80725000Y-50000000D03*
X83675000Y-50000000D03*
%TD*%
D15*
%TO.C,C14*%
X106480000Y-32000000D03*
X105520000Y-32000000D03*
%TD*%
D24*
%TO.C,R16*%
X112000000Y-37025000D03*
X112000000Y-35375000D03*
%TD*%
D11*
%TO.C,U8*%
X126862500Y-71050000D03*
X126862500Y-72000000D03*
X126862500Y-72950000D03*
X129137500Y-72950000D03*
X129137500Y-72000000D03*
X129137500Y-71050000D03*
%TD*%
D25*
%TO.C,C18*%
X115300000Y-56000000D03*
X120700000Y-56000000D03*
%TD*%
D34*
%TO.C,C11*%
X93225000Y-96000000D03*
X96175000Y-96000000D03*
%TD*%
%TO.C,C10*%
X93225000Y-92000000D03*
X96175000Y-92000000D03*
%TD*%
D13*
%TO.C,TP8*%
X96000000Y-74000000D03*
%TD*%
D28*
%TO.C,H3*%
X25000000Y-105000000D03*
%TD*%
D24*
%TO.C,R10*%
X87500000Y-86825000D03*
X87500000Y-85175000D03*
%TD*%
D14*
%TO.C,R7*%
X74000000Y-48675000D03*
X74000000Y-50325000D03*
%TD*%
D35*
%TO.C,C2*%
X65725000Y-52500000D03*
X62775000Y-52500000D03*
%TD*%
D34*
%TO.C,C7*%
X75975000Y-54000000D03*
X78925000Y-54000000D03*
%TD*%
D10*
%TO.C,R1*%
X56375000Y-29500000D03*
X58025000Y-29500000D03*
%TD*%
D24*
%TO.C,R20*%
X112000000Y-85025000D03*
X112000000Y-83375000D03*
%TD*%
D13*
%TO.C,TP7*%
X89000000Y-74000000D03*
%TD*%
D24*
%TO.C,R12*%
X91500000Y-90825000D03*
X91500000Y-89175000D03*
%TD*%
D10*
%TO.C,R13*%
X89925000Y-97000000D03*
X91575000Y-97000000D03*
%TD*%
D34*
%TO.C,C26*%
X80725000Y-58000000D03*
X83675000Y-58000000D03*
%TD*%
%TO.C,C25*%
X80725000Y-54000000D03*
X83675000Y-54000000D03*
%TD*%
D10*
%TO.C,R15*%
X100175000Y-89500000D03*
X101825000Y-89500000D03*
%TD*%
D13*
%TO.C,TP5*%
X75000000Y-74000000D03*
%TD*%
D36*
%TO.C,D3*%
X145050000Y-67137500D03*
X146000000Y-67137500D03*
X146950000Y-67137500D03*
X146950000Y-64862500D03*
X146000000Y-64862500D03*
X145050000Y-64862500D03*
%TD*%
D37*
%TO.C,U9*%
X92000000Y-53750000D03*
X92000000Y-54250000D03*
X92000000Y-54750000D03*
X92000000Y-55250000D03*
X92000000Y-55750000D03*
X92000000Y-56250000D03*
D38*
X92750000Y-57000000D03*
X93250000Y-57000000D03*
X93750000Y-57000000D03*
X94250000Y-57000000D03*
X94750000Y-57000000D03*
X95250000Y-57000000D03*
D37*
X96000000Y-56250000D03*
X96000000Y-55750000D03*
X96000000Y-55250000D03*
X96000000Y-54750000D03*
X96000000Y-54250000D03*
X96000000Y-53750000D03*
D38*
X95250000Y-53000000D03*
X94750000Y-53000000D03*
X94250000Y-53000000D03*
X93750000Y-53000000D03*
X93250000Y-53000000D03*
X92750000Y-53000000D03*
D39*
X93990000Y-54380000D03*
D40*
X93990000Y-55920000D03*
%TD*%
D13*
%TO.C,TP6*%
X82000000Y-74000000D03*
%TD*%
D34*
%TO.C,C9*%
X93225000Y-88000000D03*
X96175000Y-88000000D03*
%TD*%
D23*
%TO.C,FID2*%
X122000000Y-25000000D03*
%TD*%
D24*
%TO.C,R18*%
X112000000Y-61025000D03*
X112000000Y-59375000D03*
%TD*%
D10*
%TO.C,R9*%
X86675000Y-95500000D03*
X88325000Y-95500000D03*
%TD*%
D13*
%TO.C,TP10*%
X82000000Y-80000000D03*
%TD*%
D41*
%TO.C,C20*%
X123520000Y-44000000D03*
X124480000Y-44000000D03*
%TD*%
%TO.C,C21*%
X123520000Y-72000000D03*
X124480000Y-72000000D03*
%TD*%
D10*
%TO.C,R22*%
X49975000Y-33000000D03*
X51625000Y-33000000D03*
%TD*%
%TO.C,R21*%
X107675000Y-84500000D03*
X109325000Y-84500000D03*
%TD*%
D35*
%TO.C,C5*%
X84025000Y-93000000D03*
X81075000Y-93000000D03*
%TD*%
D42*
%TO.C,SW1*%
X39500000Y-27000000D03*
D43*
X42000000Y-27000000D03*
X44500000Y-27000000D03*
%TD*%
D36*
%TO.C,D2*%
X145050000Y-43137500D03*
X146000000Y-43137500D03*
X146950000Y-43137500D03*
X146950000Y-40862500D03*
X146000000Y-40862500D03*
X145050000Y-40862500D03*
%TD*%
D34*
%TO.C,C8*%
X75975000Y-58000000D03*
X78925000Y-58000000D03*
%TD*%
%TO.C,C6*%
X75975000Y-50000000D03*
X78925000Y-50000000D03*
%TD*%
D13*
%TO.C,TP1*%
X57500000Y-43500000D03*
%TD*%
%TO.C,TP2*%
X101000000Y-41000000D03*
%TD*%
D25*
%TO.C,C17*%
X115300000Y-32000000D03*
X120700000Y-32000000D03*
%TD*%
D44*
%TO.C,U1*%
X68075000Y-57688000D03*
D45*
X69050000Y-57850000D03*
X69700000Y-57850000D03*
X70350000Y-57850000D03*
X71000000Y-57850000D03*
X71650000Y-57850000D03*
X72300000Y-57850000D03*
X72950000Y-57850000D03*
D44*
X73925000Y-57688000D03*
D46*
X73925000Y-52500000D03*
D45*
X72950000Y-52150000D03*
X72300000Y-52150000D03*
X71650000Y-52150000D03*
X71000000Y-52150000D03*
X70350000Y-52150000D03*
X69700000Y-52150000D03*
X69050000Y-52150000D03*
D46*
X68075000Y-52500000D03*
D47*
X68750000Y-55000000D03*
X70250000Y-55000000D03*
X71750000Y-55000000D03*
X73250000Y-55000000D03*
%TD*%
D35*
%TO.C,C3*%
X65725000Y-57500000D03*
X62775000Y-57500000D03*
%TD*%
D48*
%TO.C,C29*%
X91500000Y-59025000D03*
X91500000Y-61975000D03*
%TD*%
D49*
%TO.C,C1*%
X54000000Y-52700000D03*
X54000000Y-47300000D03*
%TD*%
D35*
%TO.C,C4*%
X84025000Y-89000000D03*
X81075000Y-89000000D03*
%TD*%
D36*
%TO.C,D4*%
X145050000Y-91137500D03*
X146000000Y-91137500D03*
X146950000Y-91137500D03*
X146950000Y-88862500D03*
X146000000Y-88862500D03*
X145050000Y-88862500D03*
%TD*%
D50*
%TO.C,J5*%
X112110000Y-103720000D03*
X117890000Y-103720000D03*
D51*
X111800000Y-102645000D03*
D52*
X112600000Y-102645000D03*
D53*
X113750000Y-102645000D03*
X114750000Y-102645000D03*
X115250000Y-102645000D03*
X116250000Y-102645000D03*
D52*
X117400000Y-102645000D03*
D54*
X118200000Y-102645000D03*
X118200000Y-102645000D03*
D52*
X117400000Y-102645000D03*
D53*
X116750000Y-102645000D03*
X115750000Y-102645000D03*
X114250000Y-102645000D03*
X113250000Y-102645000D03*
D52*
X112600000Y-102645000D03*
D51*
X111800000Y-102645000D03*
D55*
X110680000Y-103220000D03*
D56*
X110680000Y-107400000D03*
D55*
X119320000Y-103220000D03*
D56*
X119320000Y-107400000D03*
%TD*%
D57*
%TO.C,D1*%
X60850000Y-43000000D03*
X65150000Y-43000000D03*
%TD*%
D58*
%TO.C,Q1*%
X56545000Y-38000000D03*
D59*
X58500000Y-38975000D03*
X58500000Y-38325000D03*
X58500000Y-37675000D03*
X58500000Y-37025000D03*
%TD*%
D16*
%TO.C,J4*%
X146910000Y-77000000D03*
D17*
X146910000Y-79000000D03*
X146910000Y-81000000D03*
X146910000Y-83000000D03*
D18*
X144200000Y-76500000D03*
X144200000Y-83500000D03*
%TD*%
D34*
%TO.C,C13*%
X109525000Y-97000000D03*
X112475000Y-97000000D03*
%TD*%
D21*
%TO.C,U5*%
X108600000Y-55000000D03*
X108600000Y-55500000D03*
X108600000Y-56000000D03*
X108600000Y-56500000D03*
X108600000Y-57000000D03*
X111400000Y-57000000D03*
X111400000Y-56500000D03*
X111400000Y-56000000D03*
X111400000Y-55500000D03*
X111400000Y-55000000D03*
D22*
X110000000Y-56000000D03*
%TD*%
D28*
%TO.C,H2*%
X134800000Y-25000000D03*
%TD*%
D60*
%TO.C,U2*%
X85625000Y-93000000D03*
D61*
X86550000Y-93250000D03*
X87050000Y-93250000D03*
X87550000Y-93250000D03*
X88050000Y-93250000D03*
X88550000Y-93250000D03*
X89050000Y-93250000D03*
D60*
X89925000Y-93000000D03*
X89925000Y-89000000D03*
D61*
X89050000Y-88750000D03*
X88550000Y-88750000D03*
X88050000Y-88750000D03*
X87550000Y-88750000D03*
X87050000Y-88750000D03*
X86550000Y-88750000D03*
D60*
X85625000Y-89000000D03*
D62*
X86187000Y-91000000D03*
X87262000Y-91000000D03*
X88338000Y-91000000D03*
X89413000Y-91000000D03*
%TD*%
D63*
X146910000Y-29000000D03*
X146910000Y-31000000D03*
X146910000Y-33000000D03*
X146910000Y-35000000D03*
X144200000Y-28500000D03*
X144200000Y-35500000D03*
X27000000Y-38000000D03*
X27000000Y-33000000D03*
X146910000Y-53000000D03*
X146910000Y-55000000D03*
X146910000Y-57000000D03*
X146910000Y-59000000D03*
X144200000Y-52500000D03*
X144200000Y-59500000D03*
X40000000Y-38000000D03*
X40000000Y-41400000D03*
X49920000Y-38000000D03*
X49920000Y-41400000D03*
X145000000Y-105000000D03*
X25000000Y-25000000D03*
X25000000Y-105000000D03*
X39500000Y-27000000D03*
X42000000Y-27000000D03*
X44500000Y-27000000D03*
X112110000Y-103720000D03*
X117890000Y-103720000D03*
D64*
X110680000Y-103220000D03*
D65*
X110680000Y-107400000D03*
D64*
X119320000Y-103220000D03*
D65*
X119320000Y-107400000D03*
D63*
X146910000Y-77000000D03*
X146910000Y-79000000D03*
X146910000Y-81000000D03*
X146910000Y-83000000D03*
X144200000Y-76500000D03*
X144200000Y-83500000D03*
X134800000Y-25000000D03*
M02*
