M48
; DRILL file KiCad 10.0.4-10.0.4~ubuntu24.04.1 date 2026-07-19T18:35:16
; FORMAT={-:-/ absolute / metric / decimal}
; #@! TF.CreationDate,2026-07-19T18:35:16-07:00
; #@! TF.GenerationSoftware,Kicad,Pcbnew,10.0.4-10.0.4~ubuntu24.04.1
; #@! TF.FileFunction,Plated,1,2,PTH
FMAT,2
METRIC
; #@! TA.AperFunction,Plated,PTH,ViaDrill
T1C0.300
; #@! TA.AperFunction,Plated,PTH,ComponentDrill
T2C0.950
; #@! TA.AperFunction,Plated,PTH,ComponentDrill
T3C1.000
%
G90
G05
T1
X24.0Y-55.0
X24.7Y-40.6
X24.7Y-48.0
X26.7Y-32.0
X27.1Y-43.0
X27.1Y-48.0
X27.6Y-40.9
X28.0Y-43.8
X28.1Y-37.0
X29.27Y-47.0
X29.32Y-42.0
X29.45Y-44.5
X29.6Y-34.2
X29.6Y-35.8
X30.9Y-26.0
X31.5Y-37.0
X35.0Y-21.9
X35.52Y-42.63
X36.1Y-45.5
X36.5Y-37.9
X37.2Y-46.6
X37.3Y-43.2
X38.5Y-45.3
X40.48Y-40.09
X40.48Y-46.45
X41.1Y-25.8
X41.5Y-43.9
X41.8Y-43.1
X42.0Y-41.3
X43.3Y-25.8
X43.4Y-43.1
X44.27Y-38.2
X44.27Y-46.2
X46.3Y-21.1
X47.95Y-38.0
X47.95Y-46.0
X48.0Y-24.0
X48.0Y-32.0
X48.0Y-56.0
X48.4Y-43.9
X52.5Y-21.9
X55.0Y-26.5
X55.25Y-55.6
X56.0Y-32.0
X56.0Y-40.0
X56.0Y-48.0
X56.5Y-53.4
X57.0Y-55.0
X58.6Y-43.8
X59.05Y-55.0
X63.65Y-32.5
X63.77Y-30.0
X64.0Y-24.0
X64.0Y-40.0
X64.0Y-48.0
X64.0Y-56.0
X68.33Y-27.5
X72.0Y-32.0
X72.0Y-40.0
X72.0Y-48.0
X72.0Y-56.0
T2
X30.2Y-24.2
X30.2Y-60.8
X32.7Y-24.2
X32.7Y-60.8
X35.2Y-24.2
X35.2Y-60.8
X41.3Y-24.2
X41.3Y-60.8
X43.8Y-24.2
X43.8Y-60.8
X46.3Y-24.2
X46.3Y-60.8
X52.5Y-24.2
X53.5Y-60.8
X55.0Y-24.2
X56.0Y-60.8
X57.5Y-24.2
X58.5Y-60.8
X60.0Y-24.2
X61.0Y-60.8
X62.5Y-24.2
X63.5Y-60.8
T3
X57.92Y-42.0
X60.46Y-42.0
X63.0Y-42.0
M30
