M48
; DRILL file KiCad 10.0.4-10.0.4~ubuntu24.04.1 date 2026-07-23T20:13:53
; FORMAT={-:-/ absolute / metric / decimal}
; #@! TF.CreationDate,2026-07-23T20:13:53-07:00
; #@! TF.GenerationSoftware,Kicad,Pcbnew,10.0.4-10.0.4~ubuntu24.04.1
; #@! TF.FileFunction,Plated,1,4,PTH
FMAT,2
METRIC
; #@! TA.AperFunction,Plated,PTH,ViaDrill
T1C0.150
; #@! TA.AperFunction,Plated,PTH,ComponentDrill
T2C0.800
; #@! TA.AperFunction,Plated,PTH,ComponentDrill
T3C0.950
; #@! TA.AperFunction,Plated,PTH,ComponentDrill
T4C1.000
; #@! TA.AperFunction,Plated,PTH,ComponentDrill
T5C1.200
; #@! TA.AperFunction,Plated,PTH,ComponentDrill
T6C1.770
%
G90
G05
T1
X16.61Y-47.72
X17.46Y-47.72
X18.85Y-55.7
X18.85Y-58.0
X18.9Y-80.0
X19.71Y-80.79
X19.95Y-63.2
X20.0Y-44.0
X20.0Y-68.0
X20.0Y-76.0
X20.0Y-92.0
X20.7Y-80.0
X21.52Y-81.91
X22.0Y-18.0
X22.12Y-62.9
X23.1Y-82.8
X23.5Y-51.13
X23.68Y-62.9
X23.7Y-82.2
X23.8Y-76.3
X23.8Y-80.4
X24.1Y-18.0
X24.5Y-21.9
X25.15Y-56.9
X25.15Y-58.0
X25.18Y-83.9
X25.77Y-98.35
X26.71Y-76.1
X27.39Y-47.72
X27.55Y-58.0
X27.7Y-21.6
X28.0Y-44.0
X28.0Y-52.0
X28.0Y-68.0
X28.0Y-84.0
X28.1Y-25.6
X28.24Y-47.72
X28.5Y-78.6
X28.5Y-80.0
X28.88Y-95.15
X29.06Y-88.95
X29.45Y-58.0
X29.76Y-85.05
X29.9Y-23.8
X30.2Y-80.1
X30.4Y-79.2
X30.52Y-86.99
X30.6Y-92.8
X30.6Y-94.0
X30.7Y-95.1
X31.27Y-91.0
X31.7Y-29.2
X31.94Y-58.0
X32.6Y-92.1
X32.8Y-29.5
X33.3Y-93.0
X33.5Y-27.4
X33.6Y-29.6
X34.01Y-88.0
X34.05Y-43.0
X34.2Y-28.1
X34.4Y-29.7
X34.7Y-28.6
X34.8Y-93.5
X35.1Y-29.0
X35.7Y-59.6
X35.7Y-61.0
X35.7Y-92.8
X35.7Y-94.0
X36.0Y-44.0
X36.0Y-52.0
X36.0Y-68.0
X36.0Y-76.0
X36.0Y-84.0
X36.1Y-39.1
X36.9Y-38.3
X37.1Y-94.5
X37.1Y-95.2
X37.2Y-94.0
X37.48Y-70.0
X37.7Y-94.5
X38.2Y-94.0
X38.23Y-98.35
X40.4Y-27.4
X40.95Y-62.0
X40.95Y-66.44
X41.4Y-69.5
X41.4Y-73.8
X42.0Y-52.0
X42.3Y-79.1
X43.0Y-79.2
X43.0Y-80.1
X43.9Y-63.6
X44.0Y-44.0
X44.0Y-52.0
X44.0Y-60.0
X44.0Y-84.0
X44.0Y-92.0
X44.3Y-79.2
X44.3Y-80.1
X44.48Y-68.09
X44.48Y-74.44
X44.7Y-81.1
X44.77Y-62.0
X45.1Y-63.6
X45.1Y-79.2
X45.1Y-80.1
X45.3Y-73.0
X45.5Y-70.6
X45.5Y-83.1
X45.7Y-71.45
X45.8Y-72.3
X46.3Y-68.8
X46.3Y-78.7
X47.3Y-78.5
X47.4Y-79.2
X47.77Y-98.35
X47.8Y-81.5
X48.3Y-96.2
X48.6Y-66.5
X48.775Y-70.0
X48.8Y-70.8
X48.8Y-81.2
X48.8Y-81.7
X49.1Y-67.0
X49.2Y-97.1
X49.21Y-89.2
X49.42Y-93.47
X49.6Y-83.2
X49.8Y-80.8
X49.8Y-85.2
X49.9Y-86.8
X49.94Y-46.95
X50.2Y-92.4
X50.3Y-76.2
X50.7Y-85.4
X50.8Y-78.2
X50.8Y-79.6
X50.8Y-81.3
X50.88Y-95.15
X51.06Y-88.95
X51.2Y-85.0
X51.3Y-81.6
X51.3Y-86.0
X51.6Y-78.2
X51.7Y-76.6
X51.8Y-79.9
X51.8Y-83.8
X52.0Y-44.0
X52.0Y-52.0
X52.0Y-60.0
X52.0Y-68.0
X52.12Y-88.95
X52.3Y-76.2
X52.48Y-81.0
X52.7Y-54.0
X52.7Y-92.8
X52.7Y-94.0
X52.7Y-95.8
X53.1Y-77.4
X53.1Y-83.2
X53.1Y-86.0
X53.2Y-81.4
X53.27Y-91.0
X53.5Y-89.39
X53.77Y-43.0
X53.8Y-71.7
X53.82Y-88.58
X54.0Y-93.3
X54.05Y-90.15
X54.2Y-85.9
X54.2Y-86.9
X54.2Y-87.8
X54.28Y-78.8
X54.28Y-83.2
X54.3Y-70.6
X54.5Y-74.2
X54.67Y-91.85
X54.9Y-96.4
X55.01Y-90.55
X55.1Y-83.1
X55.1Y-86.2
X55.41Y-89.15
X55.5Y-69.4
X55.5Y-85.8
X55.9Y-93.4
X56.1Y-77.4
X56.3Y-42.2
X56.3Y-43.6
X56.3Y-68.43
X56.63Y-87.48
X56.68Y-78.8
X56.68Y-83.2
X56.7Y-74.2
X56.71Y-67.0
X56.83Y-90.77
X56.9Y-80.9
X57.2Y-45.2
X57.2Y-77.4
X57.2Y-89.4
X57.28Y-91.55
X57.3Y-88.7
X57.48Y-48.0
X57.48Y-84.5
X57.67Y-71.13
X57.7Y-81.2
X57.72Y-68.5
X57.75Y-41.7
X57.87Y-67.32
X58.0Y-94.9
X58.1Y-84.0
X58.1Y-85.0
X58.25Y-66.25
X58.4Y-89.6
X58.48Y-81.0
X58.54Y-90.45
X58.6Y-85.0
X58.8Y-79.0
X58.87Y-83.21
X58.92Y-69.0
X59.0Y-88.95
X59.05Y-45.25
X59.14Y-66.15
X59.14Y-67.05
X59.14Y-71.65
X59.28Y-82.4
X59.3Y-78.9
X59.3Y-80.8
X59.3Y-87.0
X59.32Y-74.9
X59.4Y-85.0
X59.6Y-43.7
X59.6Y-68.5
X59.9Y-79.9
X59.9Y-81.7
X59.9Y-87.6
X60.0Y-44.6
X60.0Y-52.0
X60.0Y-60.0
X60.0Y-76.0
X60.0Y-92.0
X60.03Y-66.25
X60.1Y-78.4
X60.1Y-85.2
X60.22Y-46.19
X60.23Y-98.35
X60.28Y-74.9
X60.3Y-68.5
X60.4Y-27.4
X60.4Y-39.6
X60.4Y-82.4
X60.8Y-80.8
X60.95Y-44.25
X61.0Y-47.6
X61.0Y-51.1
X61.0Y-70.9
X61.3Y-69.0
X61.3Y-70.2
X61.34Y-68.05
X61.7Y-80.6
X61.8Y-71.4
X62.22Y-74.9
X62.46Y-68.3
X62.5Y-85.7
X62.5Y-86.6
X62.6Y-67.1
X63.18Y-74.9
X63.2Y-78.0
X63.2Y-78.8
X63.6Y-67.1
X63.7Y-76.2
X64.1Y-78.0
X64.12Y-79.22
X64.2Y-47.7
X64.3Y-75.6
X64.68Y-67.1
X64.86Y-69.05
X64.86Y-72.95
X65.15Y-56.0
X65.5Y-71.6
X66.0Y-49.6
X66.4Y-95.7
X66.5Y-69.9
X66.6Y-21.9
X66.8Y-50.4
X67.1Y-73.6
X67.3Y-21.2
X67.51Y-49.0
X67.6Y-69.9
X67.72Y-77.12
X67.8Y-97.1
X68.0Y-68.0
X68.0Y-76.0
X68.0Y-78.0
X68.3Y-71.7
X68.51Y-44.0
X68.8Y-84.6
X68.8Y-86.1
X68.96Y-71.0
X69.0Y-65.0
X69.2Y-78.0
X69.2Y-78.8
X69.3Y-77.1
X69.51Y-60.0
X69.6Y-86.1
X69.78Y-79.48
X69.8Y-61.4
X70.0Y-93.7
X70.1Y-86.6
X70.3Y-25.6
X70.8Y-65.2
X71.0Y-24.9
X71.2Y-67.2
X71.53Y-59.37
X71.53Y-60.63
X71.53Y-64.44
X72.0Y-66.4
X72.1Y-27.4
X72.1Y-62.5
X72.6Y-27.9
X72.8Y-26.7
X72.9Y-64.6
X73.2Y-65.5
X73.4Y-63.3
X74.0Y-27.9
X74.4Y-29.7
X75.1Y-29.0
X76.0Y-44.0
X76.0Y-52.0
X76.0Y-60.0
X76.0Y-68.0
X76.0Y-76.0
X76.0Y-84.0
X76.0Y-92.0
X76.1Y-39.1
X76.4Y-95.0
X76.47Y-55.55
X76.6Y-39.6
X76.9Y-38.3
X77.0Y-94.4
X78.52Y-60.0
X79.0Y-101.1
X79.3Y-99.7
X79.48Y-60.0
X79.8Y-93.7
X79.8Y-100.6
X80.32Y-64.67
X80.4Y-27.9
X80.4Y-39.6
X80.4Y-55.4
X80.6Y-77.2
X80.61Y-40.8
X81.1Y-54.2
X81.2Y-77.2
X81.7Y-55.4
X82.0Y-78.0
X82.1Y-78.8
X82.4Y-54.2
X82.8Y-78.8
X82.9Y-76.7
X83.7Y-54.2
X83.7Y-55.4
X84.0Y-44.0
X84.0Y-60.0
X84.0Y-84.0
X84.0Y-92.0
X85.2Y-55.4
X86.4Y-54.2
X87.5Y-54.2
X87.5Y-55.4
X88.3Y-54.2
X88.3Y-55.4
X88.6Y-85.2
X89.8Y-85.2
X89.9Y-86.5
X90.8Y-87.4
X91.3Y-43.1
X92.0Y-52.0
X92.0Y-60.0
X92.0Y-84.0
X92.0Y-92.0
X93.35Y-52.08
X94.2Y-50.1
X94.2Y-50.8
X95.4Y-50.1
X95.4Y-50.8
X95.5Y-76.7
X95.7Y-39.1
X96.1Y-76.7
X96.5Y-39.5
X96.9Y-38.3
X97.53Y-76.44
X97.6Y-78.8
X97.7Y-38.3
X97.7Y-99.7
X98.3Y-78.8
X99.5Y-70.3
X99.5Y-71.1
X100.0Y-52.0
X100.0Y-60.0
X100.0Y-76.0
X100.0Y-84.0
X100.0Y-92.0
X100.08Y-54.4
X100.1Y-73.7
X100.4Y-27.9
X100.6Y-44.5
X100.91Y-96.25
X101.3Y-41.9
X101.8Y-44.5
X102.47Y-67.56
X102.5Y-93.0
X102.8Y-52.3
X102.8Y-54.1
X103.2Y-99.3
X103.6Y-101.3
X103.64Y-98.24
X103.9Y-70.3
X104.2Y-86.0
X104.2Y-100.3
X104.5Y-62.6
X104.52Y-72.0
X104.7Y-100.8
X104.9Y-85.5
X105.22Y-61.72
X105.3Y-63.0
X105.48Y-72.0
X105.6Y-99.3
X105.9Y-62.4
X106.44Y-95.81
X107.99Y-100.89
X108.0Y-44.0
X108.0Y-52.0
X108.0Y-84.0
X108.0Y-92.0
X108.74Y-95.81
X109.7Y-71.7
X110.5Y-68.2
X111.07Y-96.28
X111.1Y-67.6
X111.18Y-68.88
X111.6Y-72.2
X111.6Y-73.0
X111.9Y-68.0
X112.6Y-75.8
X113.3Y-77.7
X113.7Y-79.1
X113.82Y-96.28
X114.3Y-38.3
X114.45Y-78.0
X114.7Y-98.2
X115.2Y-39.0
X115.3Y-77.9
X115.6Y-99.1
X116.0Y-44.0
X116.0Y-52.0
X116.0Y-60.0
X116.0Y-68.0
X116.0Y-72.4
X116.0Y-76.0
X116.0Y-78.0
X116.0Y-84.0
X116.0Y-92.0
X116.6Y-77.4
X116.7Y-72.3
X117.2Y-77.5
X117.4Y-78.0
X117.4Y-78.8
X117.7Y-76.9
X118.3Y-100.8
X118.8Y-85.0
X119.14Y-95.82
X119.3Y-85.5
X119.7Y-92.5
X120.5Y-55.4
X120.5Y-56.1
X120.6Y-89.6
X121.0Y-47.7
X121.0Y-54.1
X121.0Y-89.2
X121.3Y-99.6
X121.4Y-88.8
X121.44Y-96.73
X121.5Y-55.4
X121.5Y-56.1
X121.5Y-101.3
X121.6Y-87.8
X121.6Y-90.6
X121.8Y-88.4
X122.4Y-89.8
X122.6Y-90.8
X122.9Y-99.9
X123.4Y-86.4
X124.0Y-44.0
X124.0Y-52.0
X124.0Y-61.0
X124.0Y-68.0
X124.0Y-84.0
X124.0Y-92.0
X124.4Y-86.4
X124.9Y-95.8
X125.0Y-85.8
X125.6Y-26.7
X126.52Y-85.06
X126.7Y-87.1
X127.3Y-89.3
X127.5Y-95.8
X127.7Y-89.7
X128.3Y-90.3
X128.5Y-88.1
X129.06Y-95.81
X129.5Y-87.9
X129.5Y-89.1
X129.9Y-22.4
X130.3Y-25.6
X130.9Y-26.2
X131.7Y-25.6
X131.84Y-95.82
X132.0Y-44.0
X132.0Y-52.0
X132.0Y-60.0
X132.0Y-68.0
X132.0Y-75.4
X132.0Y-78.8
X132.0Y-84.0
X132.2Y-26.1
X134.1Y-96.74
X134.3Y-38.3
X134.3Y-78.0
X134.6Y-90.9
X134.9Y-86.6
X134.9Y-87.5
X135.0Y-93.8
X135.1Y-95.9
X135.2Y-39.0
X135.2Y-82.9
X135.3Y-92.9
X135.51Y-60.0
X136.5Y-86.6
X136.5Y-87.5
X136.8Y-90.9
X136.92Y-95.82
X137.53Y-58.09
X137.53Y-59.37
X137.53Y-60.63
X137.53Y-64.44
X137.8Y-78.0
X137.8Y-78.8
X138.2Y-71.4
X138.2Y-82.9
X138.5Y-77.5
X138.5Y-78.8
X138.7Y-82.4
X139.53Y-76.44
X140.0Y-44.0
X140.0Y-52.0
X140.0Y-60.0
X140.0Y-84.0
X140.0Y-92.0
X140.0Y-99.6
X140.4Y-28.5
X140.8Y-71.4
X140.9Y-22.9
X141.2Y-99.1
X141.4Y-93.1
X141.6Y-23.6
X141.7Y-75.4
X141.7Y-76.2
X141.7Y-78.8
X142.4Y-76.2
X142.4Y-99.1
X142.47Y-55.55
X143.0Y-21.6
X143.0Y-26.1
X143.0Y-75.4
X143.2Y-76.3
X144.1Y-75.4
X144.47Y-67.56
X144.52Y-60.0
X144.54Y-95.81
X145.48Y-60.0
X145.6Y-93.1
X145.9Y-67.8
X146.0Y-101.1
X146.5Y-68.6
X146.52Y-72.0
X146.8Y-100.6
X147.48Y-72.0
X147.5Y-98.6
X147.68Y-94.54
X148.0Y-44.0
X148.0Y-52.0
X148.0Y-60.0
X148.0Y-84.0
X148.0Y-92.0
X148.1Y-70.8
X148.7Y-70.2
X150.3Y-25.6
X151.0Y-24.9
X153.2Y-28.5
X153.9Y-27.8
X154.3Y-38.3
X154.4Y-29.7
X154.51Y-82.0
X155.1Y-29.0
X155.2Y-39.0
X156.0Y-44.0
X156.0Y-52.0
X156.0Y-60.0
X156.0Y-84.0
X156.0Y-92.0
X157.5Y-100.2
X157.9Y-93.1
X157.9Y-99.3
X158.51Y-80.0
X159.2Y-79.3
X159.6Y-93.7
X160.4Y-28.5
X160.5Y-81.62
X160.6Y-77.6
X160.6Y-83.7
X160.7Y-73.5
X160.9Y-95.0
X161.2Y-80.975
X161.4Y-78.3
X161.4Y-86.0
X161.5Y-85.3
X161.8Y-79.3
X162.1Y-74.1
X162.2Y-78.3
X162.3Y-97.2
X162.5Y-73.5
X162.5Y-74.5
X162.5Y-76.4
X163.1Y-96.4
X163.3Y-71.5
X163.8Y-83.0
X163.9Y-85.3
X163.9Y-86.5
X164.0Y-52.0
X164.0Y-60.0
X164.0Y-92.0
X164.4Y-84.8
X164.6Y-83.8
X165.0Y-84.2
X165.5Y-83.1
X165.5Y-85.2
X166.0Y-68.8
X166.2Y-88.8
X167.5Y-82.92
X167.5Y-84.22
X167.6Y-77.8
X168.4Y-75.8
X168.4Y-78.4
X168.4Y-79.0
X168.6Y-71.5
X168.95Y-83.58
X169.2Y-76.6
X169.2Y-79.0
X169.52Y-80.0
X169.6Y-25.0
X170.48Y-80.0
X170.61Y-82.2
X170.7Y-23.9
X170.8Y-26.1
X171.4Y-99.5
X171.5Y-25.4
X171.6Y-77.0
X171.6Y-77.8
X171.7Y-72.3
X172.0Y-52.0
X172.0Y-60.0
X172.0Y-76.0
X172.0Y-78.4
X172.0Y-79.5
X172.0Y-84.0
X172.0Y-92.0
X172.0Y-100.1
X172.5Y-71.5
X173.1Y-28.4
X174.3Y-38.3
X174.4Y-29.7
X175.1Y-29.0
X175.1Y-96.4
X175.1Y-99.3
X175.2Y-39.0
X175.8Y-68.8
X176.39Y-62.41
X176.6Y-29.5
X176.9Y-90.0
X178.02Y-58.4
X178.3Y-60.02
X178.3Y-61.98
X178.9Y-64.4
X178.98Y-58.4
X179.5Y-92.6
X180.0Y-52.0
X180.0Y-60.0
X180.0Y-63.7
X180.0Y-68.0
X180.0Y-76.0
X180.3Y-62.7
X180.7Y-90.8
X181.2Y-58.6
X181.3Y-90.2
X181.5Y-88.5
X181.7Y-60.02
X182.1Y-64.4
X182.1Y-89.1
X182.78Y-58.4
X182.9Y-61.5
X182.9Y-62.8
X183.6Y-86.4
X184.96Y-94.9
X187.0Y-77.0
X187.1Y-91.1
X187.7Y-77.8
X187.9Y-91.9
X188.0Y-52.0
X188.0Y-60.0
X188.0Y-68.0
X188.0Y-84.0
X188.02Y-80.6
X188.05Y-90.0
X188.5Y-91.3
X188.86Y-78.0
X188.98Y-80.6
X189.2Y-79.3
X189.5Y-90.1
X189.6Y-24.9
X190.01Y-75.0
X190.3Y-80.4
X190.66Y-76.19
X190.7Y-23.8
X190.9Y-26.2
X191.14Y-77.05
X191.98Y-80.6
X192.0Y-25.1
X192.05Y-90.0
X193.7Y-62.8
X194.4Y-29.7
X194.5Y-62.0
X195.1Y-29.0
X196.0Y-52.0
X196.0Y-68.0
X196.0Y-76.0
X196.0Y-84.0
X196.0Y-92.0
X196.1Y-39.1
X196.9Y-38.3
X197.3Y-74.8
X197.3Y-76.0
X201.65Y-98.35
X204.0Y-52.0
X204.0Y-60.0
X204.0Y-68.0
X204.0Y-76.0
X204.0Y-84.0
X204.0Y-92.0
X204.3Y-25.6
X204.36Y-85.05
X204.75Y-95.15
X204.8Y-92.9
X205.0Y-26.3
X205.06Y-88.95
X205.1Y-91.8
X205.1Y-97.1
X205.7Y-93.8
X205.8Y-24.1
X206.0Y-96.2
X206.2Y-85.2
X206.2Y-86.8
X206.3Y-89.0
X206.3Y-90.4
X206.3Y-91.8
X206.5Y-24.8
X207.28Y-91.0
X207.3Y-22.6
X207.8Y-92.9
X207.8Y-96.2
X207.8Y-97.1
X210.01Y-88.0
X210.2Y-72.7
X210.35Y-98.35
X210.4Y-66.9
X210.9Y-62.8
X211.35Y-52.08
X211.5Y-72.7
X211.7Y-62.0
X211.82Y-58.42
X212.0Y-21.1
X212.0Y-76.0
X212.0Y-84.0
X212.0Y-92.0
X212.1Y-68.6
X212.3Y-71.9
X212.6Y-59.0
X212.6Y-70.3
X212.7Y-62.8
X212.8Y-60.3
X212.86Y-57.0
X212.86Y-64.0
X213.16Y-71.65
X213.2Y-65.2
X213.3Y-21.6
X213.3Y-23.1
X213.31Y-68.8
X213.5Y-55.0
X213.6Y-60.7
X213.8Y-59.0
X213.82Y-73.0
X213.9Y-65.9
X214.0Y-70.7
X214.78Y-73.0
X214.84Y-70.35
X215.02Y-59.6
X215.02Y-66.6
X215.1Y-39.0
X215.14Y-57.0
X215.14Y-63.05
X215.14Y-64.0
X215.5Y-55.0
X215.98Y-59.6
X215.98Y-66.6
X216.4Y-38.7
X216.5Y-27.0
X217.9Y-27.0
X218.3Y-65.5
X218.8Y-42.7
X219.6Y-41.9
X220.0Y-76.0
X220.0Y-84.0
X220.0Y-92.0
X220.4Y-64.5
X220.4Y-67.7
X222.6Y-48.0
X222.6Y-49.3
X222.8Y-64.0
X223.2Y-43.3
X223.2Y-45.8
X224.7Y-86.6
X224.78Y-47.0
X225.8Y-87.7
X226.5Y-83.8
X226.86Y-57.0
X227.0Y-53.6
X227.06Y-72.95
X227.16Y-64.65
X227.2Y-71.7
X227.4Y-52.8
X227.6Y-54.2
X227.65Y-98.35
X227.7Y-83.8
X227.82Y-66.0
X228.0Y-52.0
X228.0Y-60.0
X228.0Y-68.0
X228.0Y-76.0
X228.0Y-92.0
X228.1Y-44.6
X228.2Y-72.7
X228.36Y-85.05
X228.4Y-53.8
X228.78Y-66.0
X228.84Y-63.35
X229.02Y-59.6
X229.06Y-88.95
X229.14Y-57.0
X229.2Y-43.5
X229.2Y-61.8
X229.53Y-51.81
X229.8Y-97.0
X229.98Y-59.6
X230.01Y-74.6
X230.12Y-62.68
X230.2Y-84.4
X230.2Y-86.8
X230.4Y-61.8
X230.75Y-95.15
X231.1Y-65.5
X231.1Y-97.0
X231.2Y-67.1
X231.28Y-91.0
X232.28Y-50.12
X232.5Y-67.1
X232.7Y-38.4
X232.7Y-49.2
X233.0Y-64.9
X233.3Y-50.3
X233.6Y-65.5
X233.9Y-39.6
X234.01Y-88.0
X234.4Y-29.7
X234.47Y-44.19
X235.1Y-29.0
X235.48Y-54.52
X235.5Y-48.2
X235.9Y-49.3
X235.9Y-53.6
X236.0Y-44.0
X236.0Y-60.0
X236.0Y-68.0
X236.0Y-76.0
X236.0Y-84.0
X236.0Y-92.0
X236.32Y-47.22
X236.35Y-98.35
X236.5Y-48.7
X236.7Y-54.1
X237.0Y-49.2
X237.48Y-48.0
X239.24Y-83.27
X240.3Y-57.1
X240.3Y-61.3
X240.3Y-64.0
X240.4Y-39.6
X240.4Y-50.4
X240.4Y-57.8
X240.4Y-59.4
X240.4Y-66.8
X240.9Y-62.3
X241.4Y-49.55
X241.4Y-50.4
X241.4Y-54.5
X241.4Y-57.8
X241.4Y-60.4
X241.4Y-66.6
X241.5Y-61.7
X241.55Y-75.4
X242.4Y-61.4
X242.86Y-57.0
X243.08Y-60.82
X243.16Y-64.65
X243.82Y-66.0
X244.0Y-44.0
X244.0Y-52.0
X244.0Y-60.0
X244.0Y-68.0
X244.0Y-76.0
X244.0Y-92.0
X244.78Y-66.0
X244.84Y-63.35
X245.02Y-59.6
X245.14Y-57.0
X245.98Y-59.6
X247.5Y-64.3
X248.1Y-63.7
X249.33Y-64.04
X249.6Y-57.1
X250.6Y-58.1
X252.0Y-44.0
X252.0Y-52.0
X252.0Y-76.0
X252.0Y-84.0
X252.0Y-92.0
X255.3Y-63.2
X256.0Y-72.8
X256.0Y-73.7
X256.3Y-62.2
X256.62Y-61.29
X256.85Y-63.9
X256.85Y-75.9
X257.01Y-50.0
X257.01Y-74.0
X257.4Y-51.2
X258.2Y-63.3
X258.4Y-51.2
X259.15Y-47.5
X259.15Y-52.5
X259.15Y-59.5
X259.15Y-64.5
X259.15Y-71.5
X259.15Y-74.0
X259.15Y-76.5
X262.35Y-45.65
X262.35Y-54.35
X262.35Y-57.65
X262.35Y-66.35
X262.35Y-69.65
X262.35Y-78.35
T2
X20.38Y-30.19
X20.38Y-37.81
X35.62Y-30.19
X35.62Y-37.81
X40.38Y-30.19
X40.38Y-37.81
X55.62Y-30.19
X55.62Y-37.81
X60.38Y-30.19
X60.38Y-37.81
X75.62Y-30.19
X75.62Y-37.81
X80.38Y-30.19
X80.38Y-37.81
X95.62Y-30.19
X95.62Y-37.81
X100.38Y-30.19
X100.38Y-37.81
X115.62Y-30.19
X115.62Y-37.81
X120.38Y-30.19
X120.38Y-37.81
X135.62Y-30.19
X135.62Y-37.81
X140.38Y-30.19
X140.38Y-37.81
X155.62Y-30.19
X155.62Y-37.81
X160.38Y-30.19
X160.38Y-37.81
X175.62Y-30.19
X175.62Y-37.81
X180.38Y-30.19
X180.38Y-37.81
X195.62Y-30.19
X195.62Y-37.81
X200.38Y-30.19
X200.38Y-37.81
X215.62Y-30.19
X215.62Y-37.81
X220.38Y-30.19
X220.38Y-37.81
X235.62Y-30.19
X235.62Y-37.81
X240.38Y-30.19
X240.38Y-37.81
X255.62Y-30.19
X255.62Y-37.81
T3
X182.0Y-97.0
X184.5Y-97.0
X187.0Y-97.0
X189.5Y-97.0
X192.0Y-97.0
T4
X98.0Y-95.0
X98.0Y-97.54
X100.54Y-95.0
X100.54Y-97.54
X103.08Y-95.0
X103.08Y-97.54
X105.62Y-95.0
X105.62Y-97.54
X108.16Y-95.0
X108.16Y-97.54
X110.7Y-95.0
X110.7Y-97.54
X113.24Y-95.0
X113.24Y-97.54
X115.78Y-95.0
X115.78Y-97.54
X118.32Y-95.0
X118.32Y-97.54
X120.86Y-95.0
X120.86Y-97.54
X123.4Y-95.0
X123.4Y-97.54
X125.94Y-95.0
X125.94Y-97.54
X128.48Y-95.0
X128.48Y-97.54
X131.02Y-95.0
X131.02Y-97.54
X133.56Y-95.0
X133.56Y-97.54
X136.1Y-95.0
X136.1Y-97.54
X138.64Y-95.0
X138.64Y-97.54
X141.18Y-95.0
X141.18Y-97.54
X143.72Y-95.0
X143.72Y-97.54
X146.26Y-95.0
X146.26Y-97.54
T5
X261.0Y-86.25
X261.0Y-89.75
T6
X70.04Y-96.0
X77.96Y-96.0
M30
